{
 "cells": [
  {
   "cell_type": "code",
   "execution_count": 1,
   "metadata": {},
   "outputs": [
    {
     "name": "stderr",
     "output_type": "stream",
     "text": [
      "/var/folders/f6/8tvg8t2s63x9ljzqgvcb66600000gn/T/ipykernel_11238/2925211331.py:9: DeprecationWarning: Importing display from IPython.core.display is deprecated since IPython 7.14, please import from IPython display\n",
      "  from IPython.core.display import display\n"
     ]
    }
   ],
   "source": [
    "#Importing Libraries\n",
    "import numpy as np \n",
    "import pandas as pd \n",
    "import torch\n",
    "from collections import Counter\n",
    "import random\n",
    "import IPython\n",
    "from IPython.display import Image, Audio\n",
    "from IPython.core.display import display\n",
    "from PIL import Image as PILImage\n",
    "import music21\n",
    "from music21 import *\n",
    "import matplotlib.pyplot as plt \n",
    "from sklearn.model_selection import train_test_split\n",
    "from tqdm import tqdm\n",
    "from music21 import converter, instrument, stream\n",
    "\n",
    "import seaborn as sns\n",
    "import matplotlib.pyplot as plt\n",
    "import matplotlib.patches as mpatches\n",
    "%matplotlib inline\n",
    "\n",
    "import os\n",
    "import sys\n",
    "\n",
    "import warnings\n",
    "warnings.filterwarnings(\"ignore\")\n",
    "warnings.simplefilter(\"ignore\")\n",
    "np.random.seed(420)"
   ]
  },
  {
   "cell_type": "code",
   "execution_count": 2,
   "metadata": {},
   "outputs": [],
   "source": [
    "from torch.utils.data import Dataset, DataLoader\n",
    "\n",
    "import torch\n",
    "import torch.nn as nn\n",
    "import torch.optim as optim"
   ]
  },
  {
   "cell_type": "code",
   "execution_count": 4,
   "metadata": {},
   "outputs": [],
   "source": [
    "from mido import MidiFile"
   ]
  },
  {
   "cell_type": "code",
   "execution_count": 11,
   "metadata": {},
   "outputs": [
    {
     "name": "stdout",
     "output_type": "stream",
     "text": [
      "11\n"
     ]
    }
   ],
   "source": [
    "mid = MidiFile('./Dataset/mozart_sonata_2-pianos_375_1_(c)ishenko.mid')\n",
    "print(len(mid.tracks))"
   ]
  },
  {
   "cell_type": "code",
   "execution_count": 10,
   "metadata": {},
   "outputs": [
    {
     "name": "stdout",
     "output_type": "stream",
     "text": [
      "MidiTrack([\n",
      "  MetaMessage('sequencer_specific', data=(68, 87, 77, 90, 86, 82, 83, 78, 32, 56, 46, 48, 46, 53, 46, 48), time=0),\n",
      "  MetaMessage('time_signature', numerator=4, denominator=4, clocks_per_click=24, notated_32nd_notes_per_beat=8, time=0),\n",
      "  MetaMessage('set_tempo', tempo=428571, time=0),\n",
      "  MetaMessage('key_signature', key='D', time=0),\n",
      "  MetaMessage('end_of_track', time=105216)])\n",
      "MidiTrack([\n",
      "  Message('control_change', channel=0, control=7, value=127, time=0),\n",
      "  Message('control_change', channel=0, control=10, value=64, time=0),\n",
      "  Message('note_on', channel=0, note=86, velocity=87, time=0),\n",
      "  Message('note_on', channel=0, note=81, velocity=87, time=0),\n",
      "  Message('note_on', channel=0, note=78, velocity=87, time=0),\n",
      "  Message('note_on', channel=0, note=74, velocity=87, time=0),\n",
      "  Message('note_on', channel=0, note=86, velocity=0, time=177),\n",
      "  Message('note_on', channel=0, note=81, velocity=0, time=0),\n",
      "  Message('note_on', channel=0, note=78, velocity=0, time=0),\n",
      "  Message('note_on', channel=0, note=74, velocity=0, time=0),\n",
      "  Message('note_on', channel=0, note=81, velocity=87, time=15),\n",
      "  Message('note_on', channel=0, note=81, velocity=0, time=177),\n",
      "  Message('note_on', channel=0, note=79, velocity=87, time=15),\n",
      "  Message('note_on', channel=0, note=79, velocity=0, time=18),\n",
      "  Message('note_on', channel=0, note=78, velocity=87, time=0),\n",
      "  Message('note_on', channel=0, note=78, velocity=0, time=18),\n",
      "  Message('note_on', channel=0, note=79, velocity=87, time=0),\n",
      "  Message('note_on', channel=0, note=79, velocity=0, time=18),\n",
      "  Message('note_on', channel=0, note=78, velocity=87, time=0),\n",
      "  Message('note_on', channel=0, note=78, velocity=0, time=18),\n",
      "  Message('note_on', channel=0, note=79, velocity=87, time=0),\n",
      "  Message('note_on', channel=0, note=79, velocity=0, time=18),\n",
      "  Message('note_on', channel=0, note=78, velocity=87, time=0),\n",
      "  Message('note_on', channel=0, note=78, velocity=0, time=18),\n",
      "  Message('note_on', channel=0, note=79, velocity=87, time=0),\n",
      "  Message('note_on', channel=0, note=79, velocity=0, time=18),\n",
      "  Message('note_on', channel=0, note=78, velocity=87, time=0),\n",
      "  Message('note_on', channel=0, note=78, velocity=0, time=7),\n",
      "  Message('note_on', channel=0, note=76, velocity=87, time=11),\n",
      "  Message('note_on', channel=0, note=76, velocity=0, time=23),\n",
      "  Message('note_on', channel=0, note=74, velocity=87, time=1),\n",
      "  Message('note_on', channel=0, note=74, velocity=0, time=23),\n",
      "  Message('note_on', channel=0, note=81, velocity=87, time=1),\n",
      "  Message('note_on', channel=0, note=81, velocity=0, time=89),\n",
      "  Message('note_on', channel=0, note=69, velocity=87, time=79),\n",
      "  Message('note_on', channel=0, note=69, velocity=0, time=8),\n",
      "  Message('note_on', channel=0, note=71, velocity=87, time=0),\n",
      "  Message('note_on', channel=0, note=71, velocity=0, time=8),\n",
      "  Message('note_on', channel=0, note=73, velocity=87, time=0),\n",
      "  Message('note_on', channel=0, note=73, velocity=0, time=8),\n",
      "  Message('note_on', channel=0, note=74, velocity=87, time=0),\n",
      "  Message('note_on', channel=0, note=74, velocity=0, time=89),\n",
      "  Message('note_on', channel=0, note=69, velocity=87, time=7),\n",
      "  Message('note_on', channel=0, note=69, velocity=0, time=67),\n",
      "  Message('note_on', channel=0, note=74, velocity=87, time=5),\n",
      "  Message('note_on', channel=0, note=74, velocity=0, time=23),\n",
      "  Message('note_on', channel=0, note=76, velocity=87, time=1),\n",
      "  Message('note_on', channel=0, note=76, velocity=0, time=89),\n",
      "  Message('note_on', channel=0, note=69, velocity=87, time=7),\n",
      "  Message('note_on', channel=0, note=69, velocity=0, time=67),\n",
      "  Message('note_on', channel=0, note=76, velocity=87, time=5),\n",
      "  Message('note_on', channel=0, note=76, velocity=0, time=23),\n",
      "  Message('note_on', channel=0, note=78, velocity=87, time=1),\n",
      "  Message('note_on', channel=0, note=78, velocity=0, time=89),\n",
      "  Message('note_on', channel=0, note=74, velocity=87, time=7),\n",
      "  Message('note_on', channel=0, note=74, velocity=0, time=67),\n",
      "  Message('note_on', channel=0, note=78, velocity=87, time=5),\n",
      "  Message('note_on', channel=0, note=78, velocity=0, time=23),\n",
      "  Message('note_on', channel=0, note=81, velocity=87, time=1),\n",
      "  Message('note_on', channel=0, note=81, velocity=0, time=89),\n",
      "  Message('note_on', channel=0, note=74, velocity=82, time=103),\n",
      "  Message('note_on', channel=0, note=66, velocity=82, time=0),\n",
      "  Message('note_on', channel=0, note=74, velocity=0, time=20),\n",
      "  Message('note_on', channel=0, note=66, velocity=0, time=0),\n",
      "  Message('note_on', channel=0, note=74, velocity=98, time=76),\n",
      "  Message('note_on', channel=0, note=66, velocity=98, time=0),\n",
      "  Message('note_on', channel=0, note=74, velocity=0, time=192),\n",
      "  Message('note_on', channel=0, note=66, velocity=0, time=0),\n",
      "  Message('note_on', channel=0, note=78, velocity=87, time=0),\n",
      "  Message('note_on', channel=0, note=69, velocity=87, time=0),\n",
      "  Message('note_on', channel=0, note=78, velocity=0, time=89),\n",
      "  Message('note_on', channel=0, note=69, velocity=0, time=0),\n",
      "  Message('note_on', channel=0, note=78, velocity=85, time=7),\n",
      "  Message('note_on', channel=0, note=78, velocity=0, time=45),\n",
      "  Message('note_on', channel=0, note=76, velocity=84, time=3),\n",
      "  Message('note_on', channel=0, note=76, velocity=0, time=45),\n",
      "  Message('note_on', channel=0, note=74, velocity=83, time=3),\n",
      "  Message('note_on', channel=0, note=74, velocity=0, time=89),\n",
      "  Message('note_on', channel=0, note=78, velocity=82, time=199),\n",
      "  Message('note_on', channel=0, note=74, velocity=82, time=0),\n",
      "  Message('note_on', channel=0, note=78, velocity=0, time=20),\n",
      "  Message('note_on', channel=0, note=74, velocity=0, time=0),\n",
      "  Message('note_on', channel=0, note=78, velocity=98, time=76),\n",
      "  Message('note_on', channel=0, note=74, velocity=98, time=0),\n",
      "  Message('note_on', channel=0, note=74, velocity=0, time=192),\n",
      "  Message('note_on', channel=0, note=81, velocity=87, time=0),\n",
      "  Message('note_on', channel=0, note=81, velocity=0, time=89),\n",
      "  Message('note_on', channel=0, note=78, velocity=0, time=0),\n",
      "  Message('note_on', channel=0, note=81, velocity=84, time=7),\n",
      "  Message('note_on', channel=0, note=78, velocity=84, time=0),\n",
      "  Message('note_on', channel=0, note=81, velocity=0, time=45),\n",
      "  Message('note_on', channel=0, note=78, velocity=0, time=0),\n",
      "  Message('note_on', channel=0, note=79, velocity=83, time=3),\n",
      "  Message('note_on', channel=0, note=76, velocity=83, time=0),\n",
      "  Message('note_on', channel=0, note=79, velocity=0, time=45),\n",
      "  Message('note_on', channel=0, note=76, velocity=0, time=0),\n",
      "  Message('note_on', channel=0, note=78, velocity=82, time=3),\n",
      "  Message('note_on', channel=0, note=74, velocity=82, time=0),\n",
      "  Message('note_on', channel=0, note=78, velocity=0, time=89),\n",
      "  Message('note_on', channel=0, note=74, velocity=0, time=0),\n",
      "  Message('note_on', channel=0, note=69, velocity=82, time=223),\n",
      "  Message('note_on', channel=0, note=69, velocity=0, time=23),\n",
      "  Message('note_on', channel=0, note=71, velocity=82, time=1),\n",
      "  Message('note_on', channel=0, note=71, velocity=0, time=23),\n",
      "  Message('note_on', channel=0, note=73, velocity=82, time=1),\n",
      "  Message('note_on', channel=0, note=73, velocity=0, time=23),\n",
      "  Message('note_on', channel=0, note=74, velocity=83, time=1),\n",
      "  Message('note_on', channel=0, note=74, velocity=0, time=23),\n",
      "  Message('note_on', channel=0, note=76, velocity=83, time=1),\n",
      "  Message('note_on', channel=0, note=76, velocity=0, time=23),\n",
      "  Message('note_on', channel=0, note=78, velocity=83, time=1),\n",
      "  Message('note_on', channel=0, note=78, velocity=0, time=23),\n",
      "  Message('note_on', channel=0, note=79, velocity=84, time=1),\n",
      "  Message('note_on', channel=0, note=79, velocity=0, time=23),\n",
      "  Message('note_on', channel=0, note=81, velocity=84, time=1),\n",
      "  Message('note_on', channel=0, note=81, velocity=0, time=23),\n",
      "  Message('note_on', channel=0, note=83, velocity=85, time=1),\n",
      "  Message('note_on', channel=0, note=83, velocity=0, time=23),\n",
      "  Message('note_on', channel=0, note=85, velocity=85, time=1),\n",
      "  Message('note_on', channel=0, note=85, velocity=0, time=23),\n",
      "  Message('note_on', channel=0, note=86, velocity=85, time=1),\n",
      "  Message('note_on', channel=0, note=86, velocity=0, time=23),\n",
      "  Message('note_on', channel=0, note=81, velocity=86, time=1),\n",
      "  Message('note_on', channel=0, note=81, velocity=0, time=45),\n",
      "  Message('note_on', channel=0, note=69, velocity=82, time=75),\n",
      "  Message('note_on', channel=0, note=69, velocity=0, time=23),\n",
      "  Message('note_on', channel=0, note=71, velocity=82, time=1),\n",
      "  Message('note_on', channel=0, note=71, velocity=0, time=23),\n",
      "  Message('note_on', channel=0, note=73, velocity=82, time=1),\n",
      "  Message('note_on', channel=0, note=73, velocity=0, time=23),\n",
      "  Message('note_on', channel=0, note=74, velocity=83, time=1),\n",
      "  Message('note_on', channel=0, note=74, velocity=0, time=23),\n",
      "  Message('note_on', channel=0, note=76, velocity=83, time=1),\n",
      "  Message('note_on', channel=0, note=76, velocity=0, time=23),\n",
      "  Message('note_on', channel=0, note=78, velocity=83, time=1),\n",
      "  Message('note_on', channel=0, note=78, velocity=0, time=23),\n",
      "  Message('note_on', channel=0, note=80, velocity=84, time=1),\n",
      "  Message('note_on', channel=0, note=80, velocity=0, time=23),\n",
      "  Message('note_on', channel=0, note=81, velocity=84, time=1),\n",
      "  Message('note_on', channel=0, note=81, velocity=0, time=23),\n",
      "  Message('note_on', channel=0, note=85, velocity=85, time=1),\n",
      "  Message('note_on', channel=0, note=85, velocity=0, time=23),\n",
      "  Message('note_on', channel=0, note=86, velocity=85, time=1),\n",
      "  Message('note_on', channel=0, note=86, velocity=0, time=23),\n",
      "  Message('note_on', channel=0, note=88, velocity=85, time=1),\n",
      "  Message('note_on', channel=0, note=88, velocity=0, time=23),\n",
      "  Message('note_on', channel=0, note=81, velocity=86, time=1),\n",
      "  Message('note_on', channel=0, note=81, velocity=0, time=45),\n",
      "  Message('note_on', channel=0, note=69, velocity=82, time=75),\n",
      "  Message('note_on', channel=0, note=69, velocity=0, time=23),\n",
      "  Message('note_on', channel=0, note=71, velocity=82, time=1),\n",
      "  Message('note_on', channel=0, note=71, velocity=0, time=23),\n",
      "  Message('note_on', channel=0, note=73, velocity=82, time=1),\n",
      "  Message('note_on', channel=0, note=73, velocity=0, time=23),\n",
      "  Message('note_on', channel=0, note=74, velocity=83, time=1),\n",
      "  Message('note_on', channel=0, note=74, velocity=0, time=23),\n",
      "  Message('note_on', channel=0, note=76, velocity=83, time=1),\n",
      "  Message('note_on', channel=0, note=76, velocity=0, time=23),\n",
      "  Message('note_on', channel=0, note=78, velocity=83, time=1),\n",
      "  Message('note_on', channel=0, note=78, velocity=0, time=23),\n",
      "  Message('note_on', channel=0, note=79, velocity=84, time=1),\n",
      "  Message('note_on', channel=0, note=79, velocity=0, time=23),\n",
      "  Message('note_on', channel=0, note=81, velocity=84, time=1),\n",
      "  Message('note_on', channel=0, note=81, velocity=0, time=23),\n",
      "  Message('note_on', channel=0, note=83, velocity=85, time=1),\n",
      "  Message('note_on', channel=0, note=83, velocity=0, time=23),\n",
      "  Message('note_on', channel=0, note=85, velocity=85, time=1),\n",
      "  Message('note_on', channel=0, note=85, velocity=0, time=23),\n",
      "  Message('note_on', channel=0, note=86, velocity=85, time=1),\n",
      "  Message('note_on', channel=0, note=86, velocity=0, time=23),\n",
      "  Message('note_on', channel=0, note=81, velocity=86, time=1),\n",
      "  Message('note_on', channel=0, note=81, velocity=0, time=45),\n",
      "  Message('note_on', channel=0, note=83, velocity=87, time=51),\n",
      "  Message('note_on', channel=0, note=83, velocity=0, time=23),\n",
      "  Message('note_on', channel=0, note=86, velocity=86, time=1),\n",
      "  Message('note_on', channel=0, note=86, velocity=0, time=23),\n",
      "  Message('note_on', channel=0, note=83, velocity=86, time=1),\n",
      "  Message('note_on', channel=0, note=83, velocity=0, time=23),\n",
      "  Message('note_on', channel=0, note=86, velocity=86, time=1),\n",
      "  Message('note_on', channel=0, note=86, velocity=0, time=23),\n",
      "  Message('note_on', channel=0, note=76, velocity=85, time=1),\n",
      "  Message('note_on', channel=0, note=76, velocity=0, time=23),\n",
      "  Message('note_on', channel=0, note=79, velocity=85, time=1),\n",
      "  Message('note_on', channel=0, note=79, velocity=0, time=23),\n",
      "  Message('note_on', channel=0, note=76, velocity=85, time=1),\n",
      "  Message('note_on', channel=0, note=76, velocity=0, time=23),\n",
      "  Message('note_on', channel=0, note=79, velocity=84, time=1),\n",
      "  Message('note_on', channel=0, note=79, velocity=0, time=23),\n",
      "  Message('note_on', channel=0, note=78, velocity=84, time=1),\n",
      "  Message('note_on', channel=0, note=78, velocity=0, time=23),\n",
      "  Message('note_on', channel=0, note=81, velocity=84, time=1),\n",
      "  Message('note_on', channel=0, note=81, velocity=0, time=23),\n",
      "  Message('note_on', channel=0, note=78, velocity=83, time=1),\n",
      "  Message('note_on', channel=0, note=78, velocity=0, time=23),\n",
      "  Message('note_on', channel=0, note=81, velocity=83, time=1),\n",
      "  Message('note_on', channel=0, note=81, velocity=0, time=23),\n",
      "  Message('note_on', channel=0, note=73, velocity=83, time=1),\n",
      "  Message('note_on', channel=0, note=73, velocity=0, time=23),\n",
      "  Message('note_on', channel=0, note=76, velocity=82, time=1),\n",
      "  Message('note_on', channel=0, note=76, velocity=0, time=23),\n",
      "  Message('note_on', channel=0, note=73, velocity=82, time=1),\n",
      "  Message('note_on', channel=0, note=73, velocity=0, time=23),\n",
      "  Message('note_on', channel=0, note=76, velocity=82, time=1),\n",
      "  Message('note_on', channel=0, note=76, velocity=0, time=23),\n",
      "  Message('note_on', channel=0, note=74, velocity=82, time=1),\n",
      "  Message('note_on', channel=0, note=74, velocity=0, time=89),\n",
      "  Message('note_on', channel=0, note=81, velocity=82, time=199),\n",
      "  Message('note_on', channel=0, note=81, velocity=0, time=23),\n",
      "  Message('note_on', channel=0, note=83, velocity=82, time=1),\n",
      "  Message('note_on', channel=0, note=83, velocity=0, time=23),\n",
      "  Message('note_on', channel=0, note=85, velocity=82, time=1),\n",
      "  Message('note_on', channel=0, note=85, velocity=0, time=23),\n",
      "  Message('note_on', channel=0, note=86, velocity=82, time=1),\n",
      "  Message('note_on', channel=0, note=86, velocity=0, time=23),\n",
      "  Message('note_on', channel=0, note=81, velocity=82, time=1),\n",
      "  Message('note_on', channel=0, note=81, velocity=0, time=89),\n",
      "  Message('note_on', channel=0, note=81, velocity=82, time=199),\n",
      "  Message('note_on', channel=0, note=81, velocity=0, time=23),\n",
      "  Message('note_on', channel=0, note=85, velocity=82, time=1),\n",
      "  Message('note_on', channel=0, note=85, velocity=0, time=23),\n",
      "  Message('note_on', channel=0, note=86, velocity=82, time=1),\n",
      "  Message('note_on', channel=0, note=86, velocity=0, time=23),\n",
      "  Message('note_on', channel=0, note=88, velocity=82, time=1),\n",
      "  Message('note_on', channel=0, note=88, velocity=0, time=23),\n",
      "  Message('note_on', channel=0, note=81, velocity=82, time=1),\n",
      "  Message('note_on', channel=0, note=81, velocity=0, time=89),\n",
      "  Message('note_on', channel=0, note=81, velocity=82, time=199),\n",
      "  Message('note_on', channel=0, note=81, velocity=0, time=23),\n",
      "  Message('note_on', channel=0, note=83, velocity=83, time=1),\n",
      "  Message('note_on', channel=0, note=83, velocity=0, time=23),\n",
      "  Message('note_on', channel=0, note=85, velocity=84, time=1),\n",
      "  Message('note_on', channel=0, note=85, velocity=0, time=23),\n",
      "  Message('note_on', channel=0, note=86, velocity=85, time=1),\n",
      "  Message('note_on', channel=0, note=86, velocity=0, time=23),\n",
      "  Message('note_on', channel=0, note=83, velocity=87, time=1),\n",
      "  Message('note_on', channel=0, note=83, velocity=0, time=23),\n",
      "  Message('note_on', channel=0, note=86, velocity=86, time=1),\n",
      "  Message('note_on', channel=0, note=86, velocity=0, time=23),\n",
      "  Message('note_on', channel=0, note=83, velocity=86, time=1),\n",
      "  Message('note_on', channel=0, note=83, velocity=0, time=23),\n",
      "  Message('note_on', channel=0, note=86, velocity=86, time=1),\n",
      "  Message('note_on', channel=0, note=86, velocity=0, time=23),\n",
      "  Message('note_on', channel=0, note=76, velocity=85, time=1),\n",
      "  Message('note_on', channel=0, note=76, velocity=0, time=23),\n",
      "  Message('note_on', channel=0, note=79, velocity=85, time=1),\n",
      "  Message('note_on', channel=0, note=79, velocity=0, time=23),\n",
      "  Message('note_on', channel=0, note=76, velocity=85, time=1),\n",
      "  Message('note_on', channel=0, note=76, velocity=0, time=23),\n",
      "  Message('note_on', channel=0, note=79, velocity=84, time=1),\n",
      "  Message('note_on', channel=0, note=79, velocity=0, time=23),\n",
      "  Message('note_on', channel=0, note=78, velocity=84, time=1),\n",
      "  Message('note_on', channel=0, note=78, velocity=0, time=23),\n",
      "  Message('note_on', channel=0, note=81, velocity=84, time=1),\n",
      "  Message('note_on', channel=0, note=81, velocity=0, time=23),\n",
      "  Message('note_on', channel=0, note=78, velocity=83, time=1),\n",
      "  Message('note_on', channel=0, note=78, velocity=0, time=23),\n",
      "  Message('note_on', channel=0, note=81, velocity=83, time=1),\n",
      "  Message('note_on', channel=0, note=81, velocity=0, time=23),\n",
      "  Message('note_on', channel=0, note=73, velocity=83, time=1),\n",
      "  Message('note_on', channel=0, note=73, velocity=0, time=23),\n",
      "  Message('note_on', channel=0, note=76, velocity=82, time=1),\n",
      "  Message('note_on', channel=0, note=76, velocity=0, time=23),\n",
      "  Message('note_on', channel=0, note=73, velocity=82, time=1),\n",
      "  Message('note_on', channel=0, note=73, velocity=0, time=23),\n",
      "  Message('note_on', channel=0, note=76, velocity=82, time=1),\n",
      "  Message('note_on', channel=0, note=76, velocity=0, time=23),\n",
      "  Message('note_on', channel=0, note=74, velocity=82, time=1),\n",
      "  Message('note_on', channel=0, note=74, velocity=0, time=89),\n",
      "  Message('note_on', channel=0, note=86, velocity=87, time=7),\n",
      "  Message('note_on', channel=0, note=86, velocity=0, time=23),\n",
      "  Message('note_on', channel=0, note=81, velocity=87, time=1),\n",
      "  Message('note_on', channel=0, note=81, velocity=0, time=23),\n",
      "  Message('note_on', channel=0, note=78, velocity=87, time=1),\n",
      "  Message('note_on', channel=0, note=78, velocity=0, time=23),\n",
      "  Message('note_on', channel=0, note=74, velocity=87, time=1),\n",
      "  Message('note_on', channel=0, note=74, velocity=0, time=23),\n",
      "  Message('note_on', channel=0, note=81, velocity=87, time=1),\n",
      "  Message('note_on', channel=0, note=81, velocity=0, time=23),\n",
      "  Message('note_on', channel=0, note=78, velocity=87, time=1),\n",
      "  Message('note_on', channel=0, note=78, velocity=0, time=23),\n",
      "  Message('note_on', channel=0, note=74, velocity=87, time=1),\n",
      "  Message('note_on', channel=0, note=74, velocity=0, time=23),\n",
      "  Message('note_on', channel=0, note=69, velocity=87, time=1),\n",
      "  Message('note_on', channel=0, note=69, velocity=0, time=23),\n",
      "  Message('note_on', channel=0, note=78, velocity=87, time=1),\n",
      "  Message('note_on', channel=0, note=78, velocity=0, time=23),\n",
      "  Message('note_on', channel=0, note=74, velocity=87, time=1),\n",
      "  Message('note_on', channel=0, note=74, velocity=0, time=23),\n",
      "  Message('note_on', channel=0, note=69, velocity=87, time=1),\n",
      "  Message('note_on', channel=0, note=69, velocity=0, time=23),\n",
      "  Message('note_on', channel=0, note=66, velocity=87, time=1),\n",
      "  Message('note_on', channel=0, note=66, velocity=0, time=23),\n",
      "  Message('note_on', channel=0, note=74, velocity=87, time=1),\n",
      "  Message('note_on', channel=0, note=74, velocity=0, time=23),\n",
      "  Message('note_on', channel=0, note=69, velocity=87, time=1),\n",
      "  Message('note_on', channel=0, note=69, velocity=0, time=23),\n",
      "  Message('note_on', channel=0, note=66, velocity=87, time=1),\n",
      "  Message('note_on', channel=0, note=66, velocity=0, time=23),\n",
      "  Message('note_on', channel=0, note=62, velocity=87, time=1),\n",
      "  Message('note_on', channel=0, note=62, velocity=0, time=23),\n",
      "  Message('note_on', channel=0, note=61, velocity=87, time=1),\n",
      "  Message('note_on', channel=0, note=61, velocity=0, time=23),\n",
      "  Message('note_on', channel=0, note=62, velocity=87, time=1),\n",
      "  Message('note_on', channel=0, note=62, velocity=0, time=23),\n",
      "  Message('note_on', channel=0, note=61, velocity=87, time=1),\n",
      "  Message('note_on', channel=0, note=61, velocity=0, time=23),\n",
      "  Message('note_on', channel=0, note=62, velocity=87, time=1),\n",
      "  Message('note_on', channel=0, note=62, velocity=0, time=23),\n",
      "  Message('note_on', channel=0, note=61, velocity=87, time=1),\n",
      "  Message('note_on', channel=0, note=61, velocity=0, time=23),\n",
      "  Message('note_on', channel=0, note=62, velocity=87, time=1),\n",
      "  Message('note_on', channel=0, note=62, velocity=0, time=23),\n",
      "  Message('note_on', channel=0, note=61, velocity=87, time=1),\n",
      "  Message('note_on', channel=0, note=61, velocity=0, time=23),\n",
      "  Message('note_on', channel=0, note=62, velocity=87, time=1),\n",
      "  Message('note_on', channel=0, note=62, velocity=0, time=23),\n",
      "  Message('note_on', channel=0, note=61, velocity=87, time=1),\n",
      "  Message('note_on', channel=0, note=61, velocity=0, time=23),\n",
      "  Message('note_on', channel=0, note=62, velocity=87, time=1),\n",
      "  Message('note_on', channel=0, note=62, velocity=0, time=23),\n",
      "  Message('note_on', channel=0, note=61, velocity=87, time=1),\n",
      "  Message('note_on', channel=0, note=61, velocity=0, time=23),\n",
      "  Message('note_on', channel=0, note=62, velocity=87, time=1),\n",
      "  Message('note_on', channel=0, note=62, velocity=0, time=23),\n",
      "  Message('note_on', channel=0, note=59, velocity=87, time=1),\n",
      "  Message('note_on', channel=0, note=59, velocity=0, time=45),\n",
      "  Message('note_on', channel=0, note=83, velocity=87, time=51),\n",
      "  Message('note_on', channel=0, note=83, velocity=0, time=23),\n",
      "  Message('note_on', channel=0, note=78, velocity=87, time=1),\n",
      "  Message('note_on', channel=0, note=78, velocity=0, time=23),\n",
      "  Message('note_on', channel=0, note=74, velocity=87, time=1),\n",
      "  Message('note_on', channel=0, note=74, velocity=0, time=23),\n",
      "  Message('note_on', channel=0, note=71, velocity=87, time=1),\n",
      "  Message('note_on', channel=0, note=71, velocity=0, time=23),\n",
      "  Message('note_on', channel=0, note=78, velocity=87, time=1),\n",
      "  Message('note_on', channel=0, note=78, velocity=0, time=23),\n",
      "  Message('note_on', channel=0, note=74, velocity=87, time=1),\n",
      "  Message('note_on', channel=0, note=74, velocity=0, time=23),\n",
      "  Message('note_on', channel=0, note=71, velocity=87, time=1),\n",
      "  Message('note_on', channel=0, note=71, velocity=0, time=23),\n",
      "  Message('note_on', channel=0, note=66, velocity=87, time=1),\n",
      "  Message('note_on', channel=0, note=66, velocity=0, time=23),\n",
      "  Message('note_on', channel=0, note=74, velocity=87, time=1),\n",
      "  Message('note_on', channel=0, note=74, velocity=0, time=23),\n",
      "  Message('note_on', channel=0, note=71, velocity=87, time=1),\n",
      "  Message('note_on', channel=0, note=71, velocity=0, time=23),\n",
      "  Message('note_on', channel=0, note=66, velocity=87, time=1),\n",
      "  Message('note_on', channel=0, note=66, velocity=0, time=23),\n",
      "  Message('note_on', channel=0, note=62, velocity=87, time=1),\n",
      "  Message('note_on', channel=0, note=62, velocity=0, time=23),\n",
      "  Message('note_on', channel=0, note=71, velocity=87, time=1),\n",
      "  Message('note_on', channel=0, note=71, velocity=0, time=23),\n",
      "  Message('note_on', channel=0, note=66, velocity=87, time=1),\n",
      "  Message('note_on', channel=0, note=66, velocity=0, time=23),\n",
      "  Message('note_on', channel=0, note=62, velocity=87, time=1),\n",
      "  Message('note_on', channel=0, note=62, velocity=0, time=23),\n",
      "  Message('note_on', channel=0, note=59, velocity=87, time=1),\n",
      "  Message('note_on', channel=0, note=59, velocity=0, time=23),\n",
      "  Message('note_on', channel=0, note=58, velocity=87, time=1),\n",
      "  Message('note_on', channel=0, note=58, velocity=0, time=23),\n",
      "  Message('note_on', channel=0, note=59, velocity=87, time=1),\n",
      "  Message('note_on', channel=0, note=59, velocity=0, time=23),\n",
      "  Message('note_on', channel=0, note=58, velocity=87, time=1),\n",
      "  Message('note_on', channel=0, note=58, velocity=0, time=23),\n",
      "  Message('note_on', channel=0, note=59, velocity=87, time=1),\n",
      "  Message('note_on', channel=0, note=59, velocity=0, time=23),\n",
      "  Message('note_on', channel=0, note=58, velocity=87, time=1),\n",
      "  Message('note_on', channel=0, note=58, velocity=0, time=23),\n",
      "  Message('note_on', channel=0, note=59, velocity=87, time=1),\n",
      "  Message('note_on', channel=0, note=59, velocity=0, time=23),\n",
      "  Message('note_on', channel=0, note=58, velocity=87, time=1),\n",
      "  Message('note_on', channel=0, note=58, velocity=0, time=23),\n",
      "  Message('note_on', channel=0, note=59, velocity=87, time=1),\n",
      "  Message('note_on', channel=0, note=59, velocity=0, time=23),\n",
      "  Message('note_on', channel=0, note=58, velocity=87, time=1),\n",
      "  Message('note_on', channel=0, note=58, velocity=0, time=23),\n",
      "  Message('note_on', channel=0, note=59, velocity=87, time=1),\n",
      "  Message('note_on', channel=0, note=59, velocity=0, time=23),\n",
      "  Message('note_on', channel=0, note=58, velocity=87, time=1),\n",
      "  Message('note_on', channel=0, note=58, velocity=0, time=23),\n",
      "  Message('note_on', channel=0, note=59, velocity=87, time=1),\n",
      "  Message('note_on', channel=0, note=59, velocity=0, time=23),\n",
      "  Message('note_on', channel=0, note=55, velocity=87, time=1),\n",
      "  Message('note_on', channel=0, note=55, velocity=0, time=45),\n",
      "  Message('note_on', channel=0, note=79, velocity=87, time=51),\n",
      "  Message('note_on', channel=0, note=79, velocity=0, time=23),\n",
      "  Message('note_on', channel=0, note=74, velocity=87, time=1),\n",
      "  Message('note_on', channel=0, note=74, velocity=0, time=23),\n",
      "  Message('note_on', channel=0, note=71, velocity=87, time=1),\n",
      "  Message('note_on', channel=0, note=71, velocity=0, time=23),\n",
      "  Message('note_on', channel=0, note=67, velocity=87, time=1),\n",
      "  Message('note_on', channel=0, note=67, velocity=0, time=23),\n",
      "  Message('note_on', channel=0, note=74, velocity=87, time=1),\n",
      "  Message('note_on', channel=0, note=74, velocity=0, time=23),\n",
      "  Message('note_on', channel=0, note=71, velocity=87, time=1),\n",
      "  Message('note_on', channel=0, note=71, velocity=0, time=23),\n",
      "  Message('note_on', channel=0, note=67, velocity=87, time=1),\n",
      "  Message('note_on', channel=0, note=67, velocity=0, time=23),\n",
      "  Message('note_on', channel=0, note=62, velocity=87, time=1),\n",
      "  Message('note_on', channel=0, note=62, velocity=0, time=23),\n",
      "  Message('note_on', channel=0, note=71, velocity=87, time=1),\n",
      "  Message('note_on', channel=0, note=71, velocity=0, time=23),\n",
      "  Message('note_on', channel=0, note=67, velocity=87, time=1),\n",
      "  Message('note_on', channel=0, note=67, velocity=0, time=23),\n",
      "  Message('note_on', channel=0, note=62, velocity=87, time=1),\n",
      "  Message('note_on', channel=0, note=62, velocity=0, time=23),\n",
      "  Message('note_on', channel=0, note=59, velocity=87, time=1),\n",
      "  Message('note_on', channel=0, note=59, velocity=0, time=23),\n",
      "  Message('note_on', channel=0, note=67, velocity=87, time=1),\n",
      "  Message('note_on', channel=0, note=67, velocity=0, time=23),\n",
      "  Message('note_on', channel=0, note=62, velocity=87, time=1),\n",
      "  Message('note_on', channel=0, note=62, velocity=0, time=23),\n",
      "  Message('note_on', channel=0, note=59, velocity=87, time=1),\n",
      "  Message('note_on', channel=0, note=59, velocity=0, time=23),\n",
      "  Message('note_on', channel=0, note=55, velocity=87, time=1),\n",
      "  Message('note_on', channel=0, note=55, velocity=0, time=23),\n",
      "  Message('note_on', channel=0, note=54, velocity=87, time=1),\n",
      "  Message('note_on', channel=0, note=54, velocity=0, time=23),\n",
      "  Message('note_on', channel=0, note=55, velocity=87, time=1),\n",
      "  Message('note_on', channel=0, note=55, velocity=0, time=23),\n",
      "  Message('note_on', channel=0, note=54, velocity=87, time=1),\n",
      "  Message('note_on', channel=0, note=54, velocity=0, time=23),\n",
      "  Message('note_on', channel=0, note=55, velocity=87, time=1),\n",
      "  Message('note_on', channel=0, note=55, velocity=0, time=23),\n",
      "  Message('note_on', channel=0, note=54, velocity=87, time=1),\n",
      "  Message('note_on', channel=0, note=54, velocity=0, time=23),\n",
      "  Message('note_on', channel=0, note=55, velocity=87, time=1),\n",
      "  Message('note_on', channel=0, note=55, velocity=0, time=23),\n",
      "  Message('note_on', channel=0, note=54, velocity=87, time=1),\n",
      "  Message('note_on', channel=0, note=54, velocity=0, time=23),\n",
      "  Message('note_on', channel=0, note=55, velocity=87, time=1),\n",
      "  Message('note_on', channel=0, note=55, velocity=0, time=23),\n",
      "  Message('note_on', channel=0, note=54, velocity=87, time=1),\n",
      "  Message('note_on', channel=0, note=54, velocity=0, time=23),\n",
      "  Message('note_on', channel=0, note=55, velocity=87, time=1),\n",
      "  Message('note_on', channel=0, note=55, velocity=0, time=23),\n",
      "  Message('note_on', channel=0, note=54, velocity=87, time=1),\n",
      "  Message('note_on', channel=0, note=54, velocity=0, time=23),\n",
      "  Message('note_on', channel=0, note=55, velocity=87, time=1),\n",
      "  Message('note_on', channel=0, note=55, velocity=0, time=23),\n",
      "  Message('note_on', channel=0, note=56, velocity=87, time=1),\n",
      "  Message('note_on', channel=0, note=56, velocity=0, time=45),\n",
      "  Message('note_on', channel=0, note=57, velocity=87, time=3),\n",
      "  Message('note_on', channel=0, note=57, velocity=0, time=23),\n",
      "  Message('note_on', channel=0, note=59, velocity=87, time=1),\n",
      "  Message('note_on', channel=0, note=59, velocity=0, time=23),\n",
      "  Message('note_on', channel=0, note=61, velocity=87, time=1),\n",
      "  Message('note_on', channel=0, note=61, velocity=0, time=23),\n",
      "  Message('note_on', channel=0, note=62, velocity=87, time=1),\n",
      "  Message('note_on', channel=0, note=62, velocity=0, time=23),\n",
      "  Message('note_on', channel=0, note=64, velocity=87, time=1),\n",
      "  Message('note_on', channel=0, note=64, velocity=0, time=23),\n",
      "  Message('note_on', channel=0, note=66, velocity=87, time=1),\n",
      "  Message('note_on', channel=0, note=66, velocity=0, time=23),\n",
      "  Message('note_on', channel=0, note=68, velocity=87, time=1),\n",
      "  Message('note_on', channel=0, note=68, velocity=0, time=23),\n",
      "  Message('note_on', channel=0, note=69, velocity=87, time=1),\n",
      "  Message('note_on', channel=0, note=69, velocity=0, time=23),\n",
      "  Message('note_on', channel=0, note=71, velocity=87, time=1),\n",
      "  Message('note_on', channel=0, note=71, velocity=0, time=23),\n",
      "  Message('note_on', channel=0, note=73, velocity=87, time=1),\n",
      "  Message('note_on', channel=0, note=73, velocity=0, time=23),\n",
      "  Message('note_on', channel=0, note=74, velocity=87, time=1),\n",
      "  Message('note_on', channel=0, note=74, velocity=0, time=23),\n",
      "  Message('note_on', channel=0, note=76, velocity=87, time=1),\n",
      "  Message('note_on', channel=0, note=76, velocity=0, time=23),\n",
      "  Message('note_on', channel=0, note=78, velocity=87, time=1),\n",
      "  Message('note_on', channel=0, note=78, velocity=0, time=23),\n",
      "  Message('note_on', channel=0, note=80, velocity=87, time=1),\n",
      "  Message('note_on', channel=0, note=80, velocity=0, time=23),\n",
      "  Message('note_on', channel=0, note=81, velocity=87, time=1),\n",
      "  Message('note_on', channel=0, note=81, velocity=0, time=89),\n",
      "  Message('note_on', channel=0, note=75, velocity=87, time=103),\n",
      "  Message('note_on', channel=0, note=69, velocity=87, time=0),\n",
      "  Message('note_on', channel=0, note=66, velocity=87, time=0),\n",
      "  Message('note_on', channel=0, note=75, velocity=0, time=89),\n",
      "  Message('note_on', channel=0, note=69, velocity=0, time=0),\n",
      "  Message('note_on', channel=0, note=66, velocity=0, time=0),\n",
      "  Message('note_on', channel=0, note=76, velocity=87, time=103),\n",
      "  Message('note_on', channel=0, note=71, velocity=87, time=0),\n",
      "  Message('note_on', channel=0, note=68, velocity=87, time=0),\n",
      "  Message('note_on', channel=0, note=76, velocity=0, time=89),\n",
      "  Message('note_on', channel=0, note=71, velocity=0, time=0),\n",
      "  Message('note_on', channel=0, note=68, velocity=0, time=0),\n",
      "  Message('note_on', channel=0, note=63, velocity=87, time=103),\n",
      "  Message('note_on', channel=0, note=63, velocity=0, time=12),\n",
      "  Message('note_on', channel=0, note=64, velocity=87, time=0),\n",
      "  Message('note_on', channel=0, note=64, velocity=0, time=165),\n",
      "  Message('note_on', channel=0, note=63, velocity=87, time=15),\n",
      "  Message('note_on', channel=0, note=63, velocity=0, time=12),\n",
      "  Message('note_on', channel=0, note=64, velocity=87, time=0),\n",
      "  Message('note_on', channel=0, note=64, velocity=0, time=165),\n",
      "  Message('note_on', channel=0, note=63, velocity=87, time=15),\n",
      "  Message('note_on', channel=0, note=63, velocity=0, time=12),\n",
      "  Message('note_on', channel=0, note=64, velocity=87, time=0),\n",
      "  Message('note_on', channel=0, note=64, velocity=0, time=165),\n",
      "  Message('note_on', channel=0, note=63, velocity=87, time=15),\n",
      "  Message('note_on', channel=0, note=63, velocity=0, time=12),\n",
      "  Message('note_on', channel=0, note=64, velocity=87, time=0),\n",
      "  Message('note_on', channel=0, note=64, velocity=0, time=165),\n",
      "  Message('note_on', channel=0, note=63, velocity=87, time=15),\n",
      "  Message('note_on', channel=0, note=63, velocity=0, time=12),\n",
      "  Message('note_on', channel=0, note=64, velocity=87, time=0),\n",
      "  Message('note_on', channel=0, note=64, velocity=0, time=165),\n",
      "  Message('note_on', channel=0, note=63, velocity=87, time=15),\n",
      "  Message('note_on', channel=0, note=63, velocity=0, time=12),\n",
      "  Message('note_on', channel=0, note=64, velocity=87, time=0),\n",
      "  Message('note_on', channel=0, note=64, velocity=0, time=165),\n",
      "  Message('note_on', channel=0, note=63, velocity=87, time=15),\n",
      "  Message('note_on', channel=0, note=63, velocity=0, time=12),\n",
      "  Message('note_on', channel=0, note=64, velocity=87, time=0),\n",
      "  Message('note_on', channel=0, note=64, velocity=0, time=165),\n",
      "  Message('note_on', channel=0, note=63, velocity=87, time=15),\n",
      "  Message('note_on', channel=0, note=63, velocity=0, time=12),\n",
      "  Message('note_on', channel=0, note=64, velocity=87, time=0),\n",
      "  Message('note_on', channel=0, note=64, velocity=0, time=165),\n",
      "  Message('note_on', channel=0, note=63, velocity=87, time=15),\n",
      "  Message('note_on', channel=0, note=63, velocity=0, time=12),\n",
      "  Message('note_on', channel=0, note=64, velocity=87, time=0),\n",
      "  Message('note_on', channel=0, note=64, velocity=0, time=165),\n",
      "  Message('note_on', channel=0, note=68, velocity=87, time=15),\n",
      "  Message('note_on', channel=0, note=68, velocity=0, time=23),\n",
      "  Message('note_on', channel=0, note=71, velocity=87, time=1),\n",
      "  Message('note_on', channel=0, note=71, velocity=0, time=23),\n",
      "  Message('note_on', channel=0, note=76, velocity=87, time=1),\n",
      "  Message('note_on', channel=0, note=76, velocity=0, time=23),\n",
      "  Message('note_on', channel=0, note=80, velocity=87, time=1),\n",
      "  Message('note_on', channel=0, note=80, velocity=0, time=23),\n",
      "  Message('note_on', channel=0, note=66, velocity=87, time=1),\n",
      "  Message('note_on', channel=0, note=66, velocity=0, time=23),\n",
      "  Message('note_on', channel=0, note=71, velocity=87, time=1),\n",
      "  Message('note_on', channel=0, note=71, velocity=0, time=23),\n",
      "  Message('note_on', channel=0, note=74, velocity=87, time=1),\n",
      "  Message('note_on', channel=0, note=74, velocity=0, time=23),\n",
      "  Message('note_on', channel=0, note=78, velocity=87, time=1),\n",
      "  Message('note_on', channel=0, note=78, velocity=0, time=23),\n",
      "  Message('note_on', channel=0, note=64, velocity=87, time=1),\n",
      "  Message('note_on', channel=0, note=64, velocity=0, time=23),\n",
      "  Message('note_on', channel=0, note=69, velocity=87, time=1),\n",
      "  Message('note_on', channel=0, note=69, velocity=0, time=23),\n",
      "  Message('note_on', channel=0, note=73, velocity=87, time=1),\n",
      "  Message('note_on', channel=0, note=73, velocity=0, time=23),\n",
      "  Message('note_on', channel=0, note=76, velocity=87, time=1),\n",
      "  Message('note_on', channel=0, note=76, velocity=0, time=23),\n",
      "  Message('note_on', channel=0, note=62, velocity=87, time=1),\n",
      "  Message('note_on', channel=0, note=62, velocity=0, time=23),\n",
      "  Message('note_on', channel=0, note=68, velocity=87, time=1),\n",
      "  Message('note_on', channel=0, note=68, velocity=0, time=23),\n",
      "  Message('note_on', channel=0, note=71, velocity=87, time=1),\n",
      "  Message('note_on', channel=0, note=71, velocity=0, time=23),\n",
      "  Message('note_on', channel=0, note=74, velocity=87, time=1),\n",
      "  Message('note_on', channel=0, note=74, velocity=0, time=23),\n",
      "  Message('note_on', channel=0, note=73, velocity=87, time=1),\n",
      "  Message('note_on', channel=0, note=73, velocity=0, time=45),\n",
      "  Message('note_on', channel=0, note=83, velocity=87, time=51),\n",
      "  Message('note_on', channel=0, note=83, velocity=0, time=23),\n",
      "  Message('note_on', channel=0, note=81, velocity=87, time=1),\n",
      "  Message('note_on', channel=0, note=81, velocity=0, time=23),\n",
      "  Message('note_on', channel=0, note=80, velocity=87, time=1),\n",
      "  Message('note_on', channel=0, note=80, velocity=0, time=23),\n",
      "  Message('note_on', channel=0, note=81, velocity=87, time=1),\n",
      "  Message('note_on', channel=0, note=81, velocity=0, time=23),\n",
      "  Message('note_on', channel=0, note=80, velocity=87, time=1),\n",
      "  Message('note_on', channel=0, note=80, velocity=0, time=23),\n",
      "  Message('note_on', channel=0, note=78, velocity=87, time=1),\n",
      "  Message('note_on', channel=0, note=78, velocity=0, time=23),\n",
      "  Message('note_on', channel=0, note=77, velocity=87, time=1),\n",
      "  Message('note_on', channel=0, note=77, velocity=0, time=23),\n",
      "  Message('note_on', channel=0, note=78, velocity=87, time=1),\n",
      "  Message('note_on', channel=0, note=78, velocity=0, time=23),\n",
      "  Message('note_on', channel=0, note=76, velocity=87, time=1),\n",
      "  Message('note_on', channel=0, note=76, velocity=0, time=23),\n",
      "  Message('note_on', channel=0, note=74, velocity=87, time=1),\n",
      "  Message('note_on', channel=0, note=74, velocity=0, time=23),\n",
      "  Message('note_on', channel=0, note=73, velocity=87, time=1),\n",
      "  Message('note_on', channel=0, note=73, velocity=0, time=23),\n",
      "  Message('note_on', channel=0, note=74, velocity=87, time=1),\n",
      "  Message('note_on', channel=0, note=74, velocity=0, time=23),\n",
      "  Message('note_on', channel=0, note=73, velocity=87, time=1),\n",
      "  Message('note_on', channel=0, note=73, velocity=0, time=45),\n",
      "  Message('note_on', channel=0, note=76, velocity=87, time=3),\n",
      "  Message('note_on', channel=0, note=76, velocity=0, time=23),\n",
      "  Message('note_on', channel=0, note=73, velocity=87, time=1),\n",
      "  Message('note_on', channel=0, note=73, velocity=0, time=23),\n",
      "  Message('note_on', channel=0, note=81, velocity=87, time=1),\n",
      "  Message('note_on', channel=0, note=81, velocity=0, time=20),\n",
      "  Message('note_on', channel=0, note=81, velocity=87, time=28),\n",
      "  Message('note_on', channel=0, note=81, velocity=0, time=20),\n",
      "  Message('note_on', channel=0, note=71, velocity=87, time=28),\n",
      "  Message('note_on', channel=0, note=71, velocity=0, time=20),\n",
      "  Message('note_on', channel=0, note=74, velocity=87, time=28),\n",
      "  Message('note_on', channel=0, note=74, velocity=0, time=23),\n",
      "  Message('note_on', channel=0, note=71, velocity=87, time=1),\n",
      "  Message('note_on', channel=0, note=71, velocity=0, time=23),\n",
      "  Message('note_on', channel=0, note=80, velocity=87, time=1),\n",
      "  Message('note_on', channel=0, note=80, velocity=0, time=20),\n",
      "  Message('note_on', channel=0, note=80, velocity=87, time=28),\n",
      "  Message('note_on', channel=0, note=80, velocity=0, time=20),\n",
      "  Message('note_on', channel=0, note=81, velocity=87, time=28),\n",
      "  Message('note_on', channel=0, note=81, velocity=0, time=23),\n",
      "  Message('note_on', channel=0, note=76, velocity=87, time=1),\n",
      "  Message('note_on', channel=0, note=76, velocity=0, time=23),\n",
      "  Message('note_on', channel=0, note=73, velocity=87, time=1),\n",
      "  Message('note_on', channel=0, note=73, velocity=0, time=23),\n",
      "  Message('note_on', channel=0, note=76, velocity=87, time=1),\n",
      "  Message('note_on', channel=0, note=76, velocity=0, time=23),\n",
      "  Message('note_on', channel=0, note=81, velocity=87, time=1),\n",
      "  Message('note_on', channel=0, note=81, velocity=0, time=20),\n",
      "  Message('note_on', channel=0, note=85, velocity=87, time=28),\n",
      "  Message('note_on', channel=0, note=85, velocity=0, time=20),\n",
      "  Message('note_on', channel=0, note=73, velocity=87, time=28),\n",
      "  Message('note_on', channel=0, note=76, velocity=87, time=8),\n",
      "  Message('note_on', channel=0, note=81, velocity=87, time=8),\n",
      "  Message('note_on', channel=0, note=81, velocity=0, time=77),\n",
      "  Message('note_on', channel=0, note=76, velocity=0, time=0),\n",
      "  Message('note_on', channel=0, note=73, velocity=0, time=0),\n",
      "  Message('note_on', channel=0, note=75, velocity=73, time=771),\n",
      "  Message('note_on', channel=0, note=75, velocity=0, time=12),\n",
      "  Message('note_on', channel=0, note=76, velocity=73, time=0),\n",
      "  Message('note_on', channel=0, note=76, velocity=0, time=77),\n",
      "  Message('note_on', channel=0, note=75, velocity=73, time=679),\n",
      "  Message('note_on', channel=0, note=75, velocity=0, time=12),\n",
      "  Message('note_on', channel=0, note=76, velocity=73, time=0),\n",
      "  Message('note_on', channel=0, note=76, velocity=0, time=77),\n",
      "  Message('note_on', channel=0, note=75, velocity=73, time=679),\n",
      "  Message('note_on', channel=0, note=75, velocity=0, time=12),\n",
      "  Message('note_on', channel=0, note=76, velocity=73, time=0),\n",
      "  Message('note_on', channel=0, note=76, velocity=0, time=77),\n",
      "  Message('note_on', channel=0, note=69, velocity=73, time=439),\n",
      "  Message('note_on', channel=0, note=69, velocity=0, time=23),\n",
      "  Message('note_on', channel=0, note=73, velocity=73, time=1),\n",
      "  Message('note_on', channel=0, note=73, velocity=0, time=23),\n",
      "  Message('note_on', channel=0, note=71, velocity=73, time=1),\n",
      "  Message('note_on', channel=0, note=71, velocity=0, time=23),\n",
      "  Message('note_on', channel=0, note=74, velocity=74, time=1),\n",
      "  Message('note_on', channel=0, note=74, velocity=0, time=23),\n",
      "  Message('note_on', channel=0, note=73, velocity=74, time=1),\n",
      "  Message('note_on', channel=0, note=73, velocity=0, time=23),\n",
      "  Message('note_on', channel=0, note=76, velocity=74, time=1),\n",
      "  Message('note_on', channel=0, note=76, velocity=0, time=23),\n",
      "  Message('note_on', channel=0, note=74, velocity=75, time=1),\n",
      "  Message('note_on', channel=0, note=74, velocity=0, time=23),\n",
      "  Message('note_on', channel=0, note=78, velocity=75, time=1),\n",
      "  Message('note_on', channel=0, note=78, velocity=0, time=23),\n",
      "  Message('note_on', channel=0, note=76, velocity=75, time=1),\n",
      "  Message('note_on', channel=0, note=76, velocity=0, time=23),\n",
      "  Message('note_on', channel=0, note=80, velocity=76, time=1),\n",
      "  Message('note_on', channel=0, note=80, velocity=0, time=23),\n",
      "  Message('note_on', channel=0, note=78, velocity=76, time=1),\n",
      "  Message('note_on', channel=0, note=78, velocity=0, time=23),\n",
      "  Message('note_on', channel=0, note=81, velocity=76, time=1),\n",
      "  Message('note_on', channel=0, note=81, velocity=0, time=23),\n",
      "  Message('note_on', channel=0, note=80, velocity=77, time=1),\n",
      "  Message('note_on', channel=0, note=80, velocity=0, time=23),\n",
      "  Message('note_on', channel=0, note=83, velocity=77, time=1),\n",
      "  Message('note_on', channel=0, note=83, velocity=0, time=23),\n",
      "  Message('note_on', channel=0, note=81, velocity=78, time=1),\n",
      "  Message('note_on', channel=0, note=81, velocity=0, time=45),\n",
      "  Message('note_on', channel=0, note=80, velocity=78, time=3),\n",
      "  Message('note_on', channel=0, note=80, velocity=0, time=45),\n",
      "  Message('note_on', channel=0, note=78, velocity=78, time=3),\n",
      "  Message('note_on', channel=0, note=78, velocity=0, time=45),\n",
      "  Message('note_on', channel=0, note=76, velocity=78, time=3),\n",
      "  Message('note_on', channel=0, note=76, velocity=0, time=45),\n",
      "  Message('note_on', channel=0, note=81, velocity=78, time=3),\n",
      "  Message('note_on', channel=0, note=81, velocity=0, time=39),\n",
      "  Message('note_on', channel=0, note=83, velocity=79, time=57),\n",
      "  Message('note_on', channel=0, note=83, velocity=0, time=39),\n",
      "  Message('note_on', channel=0, note=85, velocity=96, time=57),\n",
      "  Message('note_on', channel=0, note=85, velocity=0, time=237),\n",
      "  Message('note_on', channel=0, note=88, velocity=81, time=3),\n",
      "  Message('note_on', channel=0, note=88, velocity=0, time=45),\n",
      "  Message('note_on', channel=0, note=86, velocity=80, time=3),\n",
      "  Message('note_on', channel=0, note=86, velocity=0, time=45),\n",
      "  Message('note_on', channel=0, note=83, velocity=79, time=3),\n",
      "  Message('note_on', channel=0, note=83, velocity=0, time=45),\n",
      "  Message('note_on', channel=0, note=81, velocity=78, time=3),\n",
      "  Message('note_on', channel=0, note=81, velocity=0, time=45),\n",
      "  Message('note_on', channel=0, note=80, velocity=78, time=3),\n",
      "  Message('note_on', channel=0, note=80, velocity=0, time=45),\n",
      "  Message('note_on', channel=0, note=78, velocity=78, time=3),\n",
      "  Message('note_on', channel=0, note=78, velocity=0, time=45),\n",
      "  Message('note_on', channel=0, note=76, velocity=78, time=3),\n",
      "  Message('note_on', channel=0, note=76, velocity=0, time=45),\n",
      "  Message('note_on', channel=0, note=81, velocity=78, time=3),\n",
      "  Message('note_on', channel=0, note=81, velocity=0, time=39),\n",
      "  Message('note_on', channel=0, note=83, velocity=78, time=57),\n",
      "  Message('note_on', channel=0, note=83, velocity=0, time=39),\n",
      "  Message('note_on', channel=0, note=86, velocity=95, time=57),\n",
      "  Message('note_on', channel=0, note=86, velocity=0, time=192),\n",
      "  Message('note_on', channel=0, note=85, velocity=82, time=0),\n",
      "  Message('note_on', channel=0, note=85, velocity=0, time=67),\n",
      "  Message('note_on', channel=0, note=86, velocity=80, time=5),\n",
      "  Message('note_on', channel=0, note=86, velocity=0, time=23),\n",
      "  Message('note_on', channel=0, note=83, velocity=80, time=1),\n",
      "  Message('note_on', channel=0, note=83, velocity=0, time=67),\n",
      "  Message('note_on', channel=0, note=85, velocity=78, time=5),\n",
      "  Message('note_on', channel=0, note=85, velocity=0, time=23),\n",
      "  Message('note_on', channel=0, note=81, velocity=78, time=1),\n",
      "  Message('note_on', channel=0, note=81, velocity=0, time=45),\n",
      "  Message('note_on', channel=0, note=80, velocity=78, time=3),\n",
      "  Message('note_on', channel=0, note=80, velocity=0, time=45),\n",
      "  Message('note_on', channel=0, note=78, velocity=78, time=3),\n",
      "  Message('note_on', channel=0, note=78, velocity=0, time=12),\n",
      "  Message('note_on', channel=0, note=79, velocity=78, time=0),\n",
      "  Message('note_on', channel=0, note=79, velocity=0, time=12),\n",
      "  Message('note_on', channel=0, note=78, velocity=78, time=0),\n",
      "  Message('note_on', channel=0, note=78, velocity=0, time=21),\n",
      "  Message('note_on', channel=0, note=76, velocity=78, time=3),\n",
      "  Message('note_on', channel=0, note=76, velocity=0, time=45),\n",
      "  Message('note_on', channel=0, note=81, velocity=78, time=3),\n",
      "  Message('note_on', channel=0, note=81, velocity=0, time=39),\n",
      "  Message('note_on', channel=0, note=83, velocity=79, time=57),\n",
      "  Message('note_on', channel=0, note=83, velocity=0, time=39),\n",
      "  Message('note_on', channel=0, note=85, velocity=95, time=57),\n",
      "  Message('note_on', channel=0, note=85, velocity=0, time=237),\n",
      "  Message('note_on', channel=0, note=88, velocity=81, time=3),\n",
      "  Message('note_on', channel=0, note=88, velocity=0, time=45),\n",
      "  Message('note_on', channel=0, note=86, velocity=81, time=3),\n",
      "  Message('note_on', channel=0, note=86, velocity=0, time=45),\n",
      "  Message('note_on', channel=0, note=83, velocity=81, time=3),\n",
      "  Message('note_on', channel=0, note=83, velocity=0, time=45),\n",
      "  Message('note_on', channel=0, note=83, velocity=82, time=3),\n",
      "  Message('note_on', channel=0, note=83, velocity=0, time=48),\n",
      "  Message('note_on', channel=0, note=81, velocity=81, time=0),\n",
      "  Message('note_on', channel=0, note=81, velocity=0, time=45),\n",
      "  Message('note_on', channel=0, note=81, velocity=81, time=3),\n",
      "  Message('note_on', channel=0, note=81, velocity=0, time=89),\n",
      "  Message('note_on', channel=0, note=81, velocity=96, time=7),\n",
      "  Message('note_on', channel=0, note=81, velocity=0, time=96),\n",
      "  Message('note_on', channel=0, note=85, velocity=79, time=0),\n",
      "  Message('note_on', channel=0, note=85, velocity=0, time=45),\n",
      "  Message('note_on', channel=0, note=83, velocity=78, time=3),\n",
      "  Message('note_on', channel=0, note=83, velocity=0, time=45),\n",
      "  Message('note_on', channel=0, note=81, velocity=78, time=3),\n",
      "  Message('note_on', channel=0, note=81, velocity=0, time=89),\n",
      "  Message('note_on', channel=0, note=59, velocity=73, time=295),\n",
      "  Message('note_on', channel=0, note=59, velocity=0, time=23),\n",
      "  Message('note_on', channel=0, note=58, velocity=73, time=1),\n",
      "  Message('note_on', channel=0, note=58, velocity=0, time=23),\n",
      "  Message('note_on', channel=0, note=59, velocity=73, time=1),\n",
      "  Message('note_on', channel=0, note=59, velocity=0, time=23),\n",
      "  Message('note_on', channel=0, note=58, velocity=73, time=1),\n",
      "  Message('note_on', channel=0, note=58, velocity=0, time=23),\n",
      "  Message('note_on', channel=0, note=59, velocity=73, time=1),\n",
      "  Message('note_on', channel=0, note=59, velocity=0, time=23),\n",
      "  Message('note_on', channel=0, note=58, velocity=73, time=1),\n",
      "  Message('note_on', channel=0, note=58, velocity=0, time=23),\n",
      "  Message('note_on', channel=0, note=59, velocity=73, time=1),\n",
      "  Message('note_on', channel=0, note=59, velocity=0, time=23),\n",
      "  Message('note_on', channel=0, note=58, velocity=74, time=1),\n",
      "  Message('note_on', channel=0, note=58, velocity=0, time=23),\n",
      "  Message('note_on', channel=0, note=59, velocity=74, time=1),\n",
      "  Message('note_on', channel=0, note=59, velocity=0, time=23),\n",
      "  Message('note_on', channel=0, note=61, velocity=74, time=1),\n",
      "  Message('note_on', channel=0, note=61, velocity=0, time=23),\n",
      "  Message('note_on', channel=0, note=62, velocity=74, time=1),\n",
      "  Message('note_on', channel=0, note=62, velocity=0, time=23),\n",
      "  Message('note_on', channel=0, note=64, velocity=74, time=1),\n",
      "  Message('note_on', channel=0, note=64, velocity=0, time=23),\n",
      "  Message('note_on', channel=0, note=66, velocity=74, time=1),\n",
      "  Message('note_on', channel=0, note=66, velocity=0, time=23),\n",
      "  Message('note_on', channel=0, note=67, velocity=75, time=1),\n",
      "  Message('note_on', channel=0, note=67, velocity=0, time=23),\n",
      "  Message('note_on', channel=0, note=69, velocity=75, time=1),\n",
      "  Message('note_on', channel=0, note=69, velocity=0, time=23),\n",
      "  Message('note_on', channel=0, note=71, velocity=75, time=1),\n",
      "  Message('note_on', channel=0, note=71, velocity=0, time=23),\n",
      "  Message('note_on', channel=0, note=71, velocity=75, time=1),\n",
      "  Message('note_on', channel=0, note=71, velocity=0, time=192),\n",
      "  Message('note_on', channel=0, note=69, velocity=77, time=0),\n",
      "  Message('note_on', channel=0, note=69, velocity=0, time=67),\n",
      "  Message('note_on', channel=0, note=67, velocity=77, time=5),\n",
      "  Message('note_on', channel=0, note=67, velocity=0, time=24),\n",
      "  Message('note_on', channel=0, note=66, velocity=77, time=0),\n",
      "  Message('note_on', channel=0, note=66, velocity=0, time=29),\n",
      "  Message('note_on', channel=0, note=64, velocity=78, time=43),\n",
      "  Message('note_on', channel=0, note=64, velocity=0, time=23),\n",
      "  Message('note_on', channel=0, note=62, velocity=78, time=1),\n",
      "  Message('note_on', channel=0, note=62, velocity=0, time=23),\n",
      "  Message('note_on', channel=0, note=61, velocity=78, time=1),\n",
      "  Message('note_on', channel=0, note=61, velocity=0, time=23),\n",
      "  Message('note_on', channel=0, note=62, velocity=78, time=1),\n",
      "  Message('note_on', channel=0, note=62, velocity=0, time=23),\n",
      "  Message('note_on', channel=0, note=61, velocity=79, time=1),\n",
      "  Message('note_on', channel=0, note=61, velocity=0, time=23),\n",
      "  Message('note_on', channel=0, note=62, velocity=79, time=1),\n",
      "  Message('note_on', channel=0, note=62, velocity=0, time=23),\n",
      "  Message('note_on', channel=0, note=61, velocity=79, time=1),\n",
      "  Message('note_on', channel=0, note=61, velocity=0, time=23),\n",
      "  Message('note_on', channel=0, note=62, velocity=79, time=1),\n",
      "  Message('note_on', channel=0, note=62, velocity=0, time=23),\n",
      "  Message('note_on', channel=0, note=61, velocity=79, time=1),\n",
      "  Message('note_on', channel=0, note=61, velocity=0, time=23),\n",
      "  Message('note_on', channel=0, note=62, velocity=79, time=1),\n",
      "  Message('note_on', channel=0, note=62, velocity=0, time=23),\n",
      "  Message('note_on', channel=0, note=64, velocity=80, time=1),\n",
      "  Message('note_on', channel=0, note=64, velocity=0, time=23),\n",
      "  Message('note_on', channel=0, note=66, velocity=80, time=1),\n",
      "  Message('note_on', channel=0, note=66, velocity=0, time=23),\n",
      "  Message('note_on', channel=0, note=67, velocity=80, time=1),\n",
      "  Message('note_on', channel=0, note=67, velocity=0, time=23),\n",
      "  Message('note_on', channel=0, note=69, velocity=80, time=1),\n",
      "  Message('note_on', channel=0, note=69, velocity=0, time=23),\n",
      "  Message('note_on', channel=0, note=71, velocity=80, time=1),\n",
      "  Message('note_on', channel=0, note=71, velocity=0, time=23),\n",
      "  Message('note_on', channel=0, note=73, velocity=80, time=1),\n",
      "  Message('note_on', channel=0, note=73, velocity=0, time=23),\n",
      "  Message('note_on', channel=0, note=74, velocity=81, time=1),\n",
      "  Message('note_on', channel=0, note=74, velocity=0, time=23),\n",
      "  Message('note_on', channel=0, note=76, velocity=81, time=1),\n",
      "  Message('note_on', channel=0, note=76, velocity=0, time=192),\n",
      "  Message('note_on', channel=0, note=74, velocity=82, time=0),\n",
      "  Message('note_on', channel=0, note=74, velocity=0, time=67),\n",
      "  Message('note_on', channel=0, note=73, velocity=83, time=5),\n",
      "  Message('note_on', channel=0, note=73, velocity=0, time=24),\n",
      "  Message('note_on', channel=0, note=71, velocity=83, time=0),\n",
      "  Message('note_on', channel=0, note=71, velocity=0, time=29),\n",
      "  Message('note_on', channel=0, note=69, velocity=83, time=43),\n",
      "  Message('note_on', channel=0, note=69, velocity=0, time=23),\n",
      "  Message('note_on', channel=0, note=66, velocity=84, time=1),\n",
      "  Message('note_on', channel=0, note=66, velocity=0, time=23),\n",
      "  Message('note_on', channel=0, note=65, velocity=84, time=1),\n",
      "  Message('note_on', channel=0, note=65, velocity=0, time=23),\n",
      "  Message('note_on', channel=0, note=66, velocity=84, time=1),\n",
      "  Message('note_on', channel=0, note=66, velocity=0, time=23),\n",
      "  Message('note_on', channel=0, note=65, velocity=84, time=1),\n",
      "  Message('note_on', channel=0, note=65, velocity=0, time=23),\n",
      "  Message('note_on', channel=0, note=66, velocity=84, time=1),\n",
      "  Message('note_on', channel=0, note=66, velocity=0, time=23),\n",
      "  Message('note_on', channel=0, note=65, velocity=85, time=1),\n",
      "  Message('note_on', channel=0, note=65, velocity=0, time=23),\n",
      "  Message('note_on', channel=0, note=66, velocity=85, time=1),\n",
      "  Message('note_on', channel=0, note=66, velocity=0, time=23),\n",
      "  Message('note_on', channel=0, note=65, velocity=85, time=1),\n",
      "  Message('note_on', channel=0, note=65, velocity=0, time=23),\n",
      "  Message('note_on', channel=0, note=66, velocity=85, time=1),\n",
      "  Message('note_on', channel=0, note=66, velocity=0, time=23),\n",
      "  Message('note_on', channel=0, note=67, velocity=85, time=1),\n",
      "  Message('note_on', channel=0, note=67, velocity=0, time=23),\n",
      "  Message('note_on', channel=0, note=69, velocity=85, time=1),\n",
      "  Message('note_on', channel=0, note=69, velocity=0, time=23),\n",
      "  Message('note_on', channel=0, note=71, velocity=86, time=1),\n",
      "  Message('note_on', channel=0, note=71, velocity=0, time=23),\n",
      "  Message('note_on', channel=0, note=73, velocity=86, time=1),\n",
      "  Message('note_on', channel=0, note=73, velocity=0, time=23),\n",
      "  Message('note_on', channel=0, note=74, velocity=86, time=1),\n",
      "  Message('note_on', channel=0, note=74, velocity=0, time=23),\n",
      "  Message('note_on', channel=0, note=76, velocity=86, time=1),\n",
      "  Message('note_on', channel=0, note=76, velocity=0, time=23),\n",
      "  Message('note_on', channel=0, note=78, velocity=86, time=1),\n",
      "  Message('note_on', channel=0, note=78, velocity=0, time=23),\n",
      "  Message('note_on', channel=0, note=62, velocity=87, time=1),\n",
      "  Message('note_on', channel=0, note=62, velocity=0, time=23),\n",
      "  Message('note_on', channel=0, note=61, velocity=87, time=1),\n",
      "  Message('note_on', channel=0, note=61, velocity=0, time=23),\n",
      "  Message('note_on', channel=0, note=62, velocity=87, time=1),\n",
      "  Message('note_on', channel=0, note=62, velocity=0, time=23),\n",
      "  Message('note_on', channel=0, note=61, velocity=87, time=1),\n",
      "  Message('note_on', channel=0, note=61, velocity=0, time=23),\n",
      "  Message('note_on', channel=0, note=62, velocity=87, time=1),\n",
      "  Message('note_on', channel=0, note=62, velocity=0, time=23),\n",
      "  Message('note_on', channel=0, note=61, velocity=87, time=1),\n",
      "  Message('note_on', channel=0, note=61, velocity=0, time=23),\n",
      "  Message('note_on', channel=0, note=62, velocity=87, time=1),\n",
      "  Message('note_on', channel=0, note=62, velocity=0, time=23),\n",
      "  Message('note_on', channel=0, note=61, velocity=87, time=1),\n",
      "  Message('note_on', channel=0, note=61, velocity=0, time=23),\n",
      "  Message('note_on', channel=0, note=62, velocity=87, time=1),\n",
      "  Message('note_on', channel=0, note=62, velocity=0, time=23),\n",
      "  Message('note_on', channel=0, note=64, velocity=87, time=1),\n",
      "  Message('note_on', channel=0, note=64, velocity=0, time=23),\n",
      "  Message('note_on', channel=0, note=66, velocity=87, time=1),\n",
      "  Message('note_on', channel=0, note=66, velocity=0, time=23),\n",
      "  Message('note_on', channel=0, note=68, velocity=87, time=1),\n",
      "  Message('note_on', channel=0, note=68, velocity=0, time=23),\n",
      "  Message('note_on', channel=0, note=69, velocity=87, time=1),\n",
      "  Message('note_on', channel=0, note=69, velocity=0, time=23),\n",
      "  Message('note_on', channel=0, note=71, velocity=87, time=1),\n",
      "  Message('note_on', channel=0, note=71, velocity=0, time=23),\n",
      "  Message('note_on', channel=0, note=73, velocity=87, time=1),\n",
      "  Message('note_on', channel=0, note=73, velocity=0, time=23),\n",
      "  Message('note_on', channel=0, note=74, velocity=87, time=1),\n",
      "  Message('note_on', channel=0, note=74, velocity=0, time=23),\n",
      "  Message('note_on', channel=0, note=81, velocity=87, time=1),\n",
      "  Message('note_on', channel=0, note=76, velocity=87, time=0),\n",
      "  Message('note_on', channel=0, note=73, velocity=87, time=0),\n",
      "  Message('note_on', channel=0, note=81, velocity=0, time=45),\n",
      "  Message('note_on', channel=0, note=76, velocity=0, time=0),\n",
      "  Message('note_on', channel=0, note=73, velocity=0, time=0),\n",
      "  Message('note_on', channel=0, note=81, velocity=87, time=51),\n",
      "  Message('note_on', channel=0, note=76, velocity=87, time=0),\n",
      "  Message('note_on', channel=0, note=73, velocity=87, time=0),\n",
      "  Message('note_on', channel=0, note=81, velocity=0, time=45),\n",
      "  Message('note_on', channel=0, note=76, velocity=0, time=0),\n",
      "  Message('note_on', channel=0, note=73, velocity=0, time=0),\n",
      "  Message('note_on', channel=0, note=81, velocity=87, time=51),\n",
      "  Message('note_on', channel=0, note=76, velocity=87, time=0),\n",
      "  Message('note_on', channel=0, note=73, velocity=87, time=0),\n",
      "  Message('note_on', channel=0, note=81, velocity=0, time=45),\n",
      "  Message('note_on', channel=0, note=76, velocity=0, time=0),\n",
      "  Message('note_on', channel=0, note=73, velocity=0, time=0),\n",
      "  Message('note_on', channel=0, note=81, velocity=87, time=51),\n",
      "  Message('note_on', channel=0, note=76, velocity=87, time=0),\n",
      "  Message('note_on', channel=0, note=73, velocity=87, time=0),\n",
      "  Message('note_on', channel=0, note=81, velocity=0, time=45),\n",
      "  Message('note_on', channel=0, note=76, velocity=0, time=0),\n",
      "  Message('note_on', channel=0, note=73, velocity=0, time=0),\n",
      "  Message('note_on', channel=0, note=85, velocity=87, time=51),\n",
      "  Message('note_on', channel=0, note=81, velocity=87, time=0),\n",
      "  Message('note_on', channel=0, note=78, velocity=87, time=0),\n",
      "  Message('note_on', channel=0, note=85, velocity=0, time=45),\n",
      "  Message('note_on', channel=0, note=81, velocity=0, time=0),\n",
      "  Message('note_on', channel=0, note=78, velocity=0, time=0),\n",
      "  Message('note_on', channel=0, note=85, velocity=87, time=51),\n",
      "  Message('note_on', channel=0, note=81, velocity=87, time=0),\n",
      "  Message('note_on', channel=0, note=78, velocity=87, time=0),\n",
      "  Message('note_on', channel=0, note=85, velocity=0, time=45),\n",
      "  Message('note_on', channel=0, note=81, velocity=0, time=0),\n",
      "  Message('note_on', channel=0, note=78, velocity=0, time=0),\n",
      "  Message('note_on', channel=0, note=85, velocity=87, time=51),\n",
      "  Message('note_on', channel=0, note=81, velocity=87, time=0),\n",
      "  Message('note_on', channel=0, note=78, velocity=87, time=0),\n",
      "  Message('note_on', channel=0, note=85, velocity=0, time=45),\n",
      "  Message('note_on', channel=0, note=81, velocity=0, time=0),\n",
      "  Message('note_on', channel=0, note=78, velocity=0, time=0),\n",
      "  Message('note_on', channel=0, note=85, velocity=87, time=51),\n",
      "  Message('note_on', channel=0, note=81, velocity=87, time=0),\n",
      "  Message('note_on', channel=0, note=78, velocity=87, time=0),\n",
      "  Message('note_on', channel=0, note=85, velocity=0, time=45),\n",
      "  Message('note_on', channel=0, note=81, velocity=0, time=0),\n",
      "  Message('note_on', channel=0, note=78, velocity=0, time=0),\n",
      "  Message('note_on', channel=0, note=86, velocity=87, time=51),\n",
      "  Message('note_on', channel=0, note=81, velocity=87, time=0),\n",
      "  Message('note_on', channel=0, note=78, velocity=87, time=0),\n",
      "  Message('note_on', channel=0, note=86, velocity=0, time=45),\n",
      "  Message('note_on', channel=0, note=81, velocity=0, time=0),\n",
      "  Message('note_on', channel=0, note=78, velocity=0, time=0),\n",
      "  Message('note_on', channel=0, note=86, velocity=87, time=51),\n",
      "  Message('note_on', channel=0, note=81, velocity=87, time=0),\n",
      "  Message('note_on', channel=0, note=78, velocity=87, time=0),\n",
      "  Message('note_on', channel=0, note=86, velocity=0, time=45),\n",
      "  Message('note_on', channel=0, note=81, velocity=0, time=0),\n",
      "  Message('note_on', channel=0, note=78, velocity=0, time=0),\n",
      "  Message('note_on', channel=0, note=86, velocity=87, time=51),\n",
      "  Message('note_on', channel=0, note=81, velocity=87, time=0),\n",
      "  Message('note_on', channel=0, note=78, velocity=87, time=0),\n",
      "  Message('note_on', channel=0, note=86, velocity=0, time=45),\n",
      "  Message('note_on', channel=0, note=81, velocity=0, time=0),\n",
      "  Message('note_on', channel=0, note=78, velocity=0, time=0),\n",
      "  Message('note_on', channel=0, note=86, velocity=87, time=51),\n",
      "  Message('note_on', channel=0, note=81, velocity=87, time=0),\n",
      "  Message('note_on', channel=0, note=78, velocity=87, time=0),\n",
      "  Message('note_on', channel=0, note=86, velocity=0, time=45),\n",
      "  Message('note_on', channel=0, note=81, velocity=0, time=0),\n",
      "  Message('note_on', channel=0, note=78, velocity=0, time=0),\n",
      "  Message('note_on', channel=0, note=86, velocity=87, time=51),\n",
      "  Message('note_on', channel=0, note=83, velocity=87, time=0),\n",
      "  Message('note_on', channel=0, note=78, velocity=87, time=0),\n",
      "  Message('note_on', channel=0, note=86, velocity=0, time=45),\n",
      "  Message('note_on', channel=0, note=83, velocity=0, time=0),\n",
      "  Message('note_on', channel=0, note=78, velocity=0, time=0),\n",
      "  Message('note_on', channel=0, note=86, velocity=87, time=51),\n",
      "  Message('note_on', channel=0, note=83, velocity=87, time=0),\n",
      "  Message('note_on', channel=0, note=78, velocity=87, time=0),\n",
      "  Message('note_on', channel=0, note=86, velocity=0, time=45),\n",
      "  Message('note_on', channel=0, note=83, velocity=0, time=0),\n",
      "  Message('note_on', channel=0, note=78, velocity=0, time=0),\n",
      "  Message('note_on', channel=0, note=86, velocity=87, time=51),\n",
      "  Message('note_on', channel=0, note=83, velocity=87, time=0),\n",
      "  Message('note_on', channel=0, note=78, velocity=87, time=0),\n",
      "  Message('note_on', channel=0, note=86, velocity=0, time=45),\n",
      "  Message('note_on', channel=0, note=83, velocity=0, time=0),\n",
      "  Message('note_on', channel=0, note=78, velocity=0, time=0),\n",
      "  Message('note_on', channel=0, note=86, velocity=87, time=51),\n",
      "  Message('note_on', channel=0, note=83, velocity=87, time=0),\n",
      "  Message('note_on', channel=0, note=78, velocity=87, time=0),\n",
      "  Message('note_on', channel=0, note=86, velocity=0, time=45),\n",
      "  Message('note_on', channel=0, note=83, velocity=0, time=0),\n",
      "  Message('note_on', channel=0, note=78, velocity=0, time=0),\n",
      "  Message('note_on', channel=0, note=68, velocity=87, time=51),\n",
      "  Message('note_on', channel=0, note=68, velocity=0, time=23),\n",
      "  Message('note_on', channel=0, note=69, velocity=87, time=1),\n",
      "  Message('note_on', channel=0, note=69, velocity=0, time=23),\n",
      "  Message('note_on', channel=0, note=71, velocity=87, time=1),\n",
      "  Message('note_on', channel=0, note=71, velocity=0, time=23),\n",
      "  Message('note_on', channel=0, note=69, velocity=87, time=1),\n",
      "  Message('note_on', channel=0, note=69, velocity=0, time=23),\n",
      "  Message('note_on', channel=0, note=68, velocity=87, time=1),\n",
      "  Message('note_on', channel=0, note=68, velocity=0, time=23),\n",
      "  Message('note_on', channel=0, note=64, velocity=87, time=1),\n",
      "  Message('note_on', channel=0, note=64, velocity=0, time=23),\n",
      "  Message('note_on', channel=0, note=66, velocity=87, time=1),\n",
      "  Message('note_on', channel=0, note=66, velocity=0, time=23),\n",
      "  Message('note_on', channel=0, note=68, velocity=87, time=1),\n",
      "  Message('note_on', channel=0, note=68, velocity=0, time=23),\n",
      "  Message('note_on', channel=0, note=69, velocity=87, time=1),\n",
      "  Message('note_on', channel=0, note=69, velocity=0, time=23),\n",
      "  Message('note_on', channel=0, note=71, velocity=87, time=1),\n",
      "  Message('note_on', channel=0, note=71, velocity=0, time=23),\n",
      "  Message('note_on', channel=0, note=73, velocity=87, time=1),\n",
      "  Message('note_on', channel=0, note=73, velocity=0, time=23),\n",
      "  Message('note_on', channel=0, note=71, velocity=87, time=1),\n",
      "  Message('note_on', channel=0, note=71, velocity=0, time=23),\n",
      "  Message('note_on', channel=0, note=73, velocity=87, time=1),\n",
      "  Message('note_on', channel=0, note=73, velocity=0, time=23),\n",
      "  Message('note_on', channel=0, note=71, velocity=87, time=1),\n",
      "  Message('note_on', channel=0, note=71, velocity=0, time=23),\n",
      "  Message('note_on', channel=0, note=69, velocity=87, time=1),\n",
      "  Message('note_on', channel=0, note=69, velocity=0, time=23),\n",
      "  Message('note_on', channel=0, note=68, velocity=87, time=1),\n",
      "  Message('note_on', channel=0, note=68, velocity=0, time=23),\n",
      "  Message('note_on', channel=0, note=66, velocity=87, time=1),\n",
      "  Message('note_on', channel=0, note=66, velocity=0, time=23),\n",
      "  Message('note_on', channel=0, note=68, velocity=87, time=1),\n",
      "  Message('note_on', channel=0, note=68, velocity=0, time=23),\n",
      "  Message('note_on', channel=0, note=69, velocity=87, time=1),\n",
      "  Message('note_on', channel=0, note=69, velocity=0, time=23),\n",
      "  Message('note_on', channel=0, note=68, velocity=87, time=1),\n",
      "  Message('note_on', channel=0, note=68, velocity=0, time=23),\n",
      "  Message('note_on', channel=0, note=66, velocity=87, time=1),\n",
      "  Message('note_on', channel=0, note=66, velocity=0, time=23),\n",
      "  Message('note_on', channel=0, note=62, velocity=87, time=1),\n",
      "  Message('note_on', channel=0, note=62, velocity=0, time=23),\n",
      "  Message('note_on', channel=0, note=64, velocity=87, time=1),\n",
      "  Message('note_on', channel=0, note=64, velocity=0, time=23),\n",
      "  Message('note_on', channel=0, note=66, velocity=87, time=1),\n",
      "  Message('note_on', channel=0, note=66, velocity=0, time=23),\n",
      "  Message('note_on', channel=0, note=68, velocity=87, time=1),\n",
      "  Message('note_on', channel=0, note=68, velocity=0, time=23),\n",
      "  Message('note_on', channel=0, note=69, velocity=87, time=1),\n",
      "  Message('note_on', channel=0, note=69, velocity=0, time=23),\n",
      "  Message('note_on', channel=0, note=71, velocity=87, time=1),\n",
      "  Message('note_on', channel=0, note=71, velocity=0, time=23),\n",
      "  Message('note_on', channel=0, note=69, velocity=87, time=1),\n",
      "  Message('note_on', channel=0, note=69, velocity=0, time=23),\n",
      "  Message('note_on', channel=0, note=68, velocity=87, time=1),\n",
      "  Message('note_on', channel=0, note=68, velocity=0, time=23),\n",
      "  Message('note_on', channel=0, note=66, velocity=87, time=1),\n",
      "  Message('note_on', channel=0, note=66, velocity=0, time=23),\n",
      "  Message('note_on', channel=0, note=64, velocity=87, time=1),\n",
      "  Message('note_on', channel=0, note=64, velocity=0, time=23),\n",
      "  Message('note_on', channel=0, note=62, velocity=87, time=1),\n",
      "  Message('note_on', channel=0, note=62, velocity=0, time=23),\n",
      "  Message('note_on', channel=0, note=61, velocity=87, time=1),\n",
      "  Message('note_on', channel=0, note=61, velocity=0, time=23),\n",
      "  Message('note_on', channel=0, note=64, velocity=87, time=1),\n",
      "  Message('note_on', channel=0, note=64, velocity=0, time=23),\n",
      "  Message('note_on', channel=0, note=62, velocity=87, time=1),\n",
      "  Message('note_on', channel=0, note=62, velocity=0, time=23),\n",
      "  Message('note_on', channel=0, note=61, velocity=87, time=1),\n",
      "  Message('note_on', channel=0, note=61, velocity=0, time=23),\n",
      "  Message('note_on', channel=0, note=62, velocity=87, time=1),\n",
      "  Message('note_on', channel=0, note=62, velocity=0, time=23),\n",
      "  Message('note_on', channel=0, note=64, velocity=87, time=1),\n",
      "  Message('note_on', channel=0, note=64, velocity=0, time=23),\n",
      "  Message('note_on', channel=0, note=66, velocity=87, time=1),\n",
      "  Message('note_on', channel=0, note=66, velocity=0, time=23),\n",
      "  Message('note_on', channel=0, note=68, velocity=87, time=1),\n",
      "  Message('note_on', channel=0, note=68, velocity=0, time=23),\n",
      "  Message('note_on', channel=0, note=69, velocity=87, time=1),\n",
      "  Message('note_on', channel=0, note=69, velocity=0, time=23),\n",
      "  Message('note_on', channel=0, note=71, velocity=87, time=1),\n",
      "  Message('note_on', channel=0, note=71, velocity=0, time=23),\n",
      "  Message('note_on', channel=0, note=73, velocity=87, time=1),\n",
      "  Message('note_on', channel=0, note=73, velocity=0, time=23),\n",
      "  Message('note_on', channel=0, note=74, velocity=87, time=1),\n",
      "  Message('note_on', channel=0, note=74, velocity=0, time=23),\n",
      "  Message('note_on', channel=0, note=76, velocity=87, time=1),\n",
      "  Message('note_on', channel=0, note=76, velocity=0, time=23),\n",
      "  Message('note_on', channel=0, note=78, velocity=87, time=1),\n",
      "  Message('note_on', channel=0, note=78, velocity=0, time=23),\n",
      "  Message('note_on', channel=0, note=80, velocity=87, time=1),\n",
      "  Message('note_on', channel=0, note=80, velocity=0, time=23),\n",
      "  Message('note_on', channel=0, note=81, velocity=87, time=1),\n",
      "  Message('note_on', channel=0, note=81, velocity=0, time=23),\n",
      "  Message('note_on', channel=0, note=78, velocity=87, time=1),\n",
      "  Message('note_on', channel=0, note=78, velocity=0, time=23),\n",
      "  Message('note_on', channel=0, note=80, velocity=87, time=1),\n",
      "  Message('note_on', channel=0, note=80, velocity=0, time=23),\n",
      "  Message('note_on', channel=0, note=78, velocity=87, time=1),\n",
      "  Message('note_on', channel=0, note=78, velocity=0, time=23),\n",
      "  Message('note_on', channel=0, note=76, velocity=87, time=1),\n",
      "  Message('note_on', channel=0, note=76, velocity=0, time=23),\n",
      "  Message('note_on', channel=0, note=74, velocity=87, time=1),\n",
      "  Message('note_on', channel=0, note=74, velocity=0, time=23),\n",
      "  Message('note_on', channel=0, note=73, velocity=87, time=1),\n",
      "  Message('note_on', channel=0, note=73, velocity=0, time=23),\n",
      "  Message('note_on', channel=0, note=71, velocity=87, time=1),\n",
      "  Message('note_on', channel=0, note=71, velocity=0, time=23),\n",
      "  Message('note_on', channel=0, note=69, velocity=87, time=1),\n",
      "  Message('note_on', channel=0, note=69, velocity=0, time=23),\n",
      "  Message('note_on', channel=0, note=68, velocity=87, time=1),\n",
      "  Message('note_on', channel=0, note=68, velocity=0, time=23),\n",
      "  Message('note_on', channel=0, note=69, velocity=87, time=1),\n",
      "  Message('note_on', channel=0, note=69, velocity=0, time=23),\n",
      "  Message('note_on', channel=0, note=68, velocity=87, time=1),\n",
      "  Message('note_on', channel=0, note=68, velocity=0, time=23),\n",
      "  Message('note_on', channel=0, note=66, velocity=87, time=1),\n",
      "  Message('note_on', channel=0, note=66, velocity=0, time=23),\n",
      "  Message('note_on', channel=0, note=64, velocity=87, time=1),\n",
      "  Message('note_on', channel=0, note=64, velocity=0, time=23),\n",
      "  Message('note_on', channel=0, note=62, velocity=87, time=1),\n",
      "  Message('note_on', channel=0, note=62, velocity=0, time=23),\n",
      "  Message('note_on', channel=0, note=61, velocity=87, time=1),\n",
      "  Message('note_on', channel=0, note=61, velocity=0, time=23),\n",
      "  Message('note_on', channel=0, note=59, velocity=87, time=1),\n",
      "  Message('note_on', channel=0, note=59, velocity=0, time=23),\n",
      "  Message('note_on', channel=0, note=57, velocity=87, time=1),\n",
      "  Message('note_on', channel=0, note=57, velocity=0, time=23),\n",
      "  Message('note_on', channel=0, note=61, velocity=86, time=1),\n",
      "  Message('note_on', channel=0, note=61, velocity=0, time=23),\n",
      "  Message('note_on', channel=0, note=64, velocity=85, time=1),\n",
      "  Message('note_on', channel=0, note=64, velocity=0, time=23),\n",
      "  Message('note_on', channel=0, note=69, velocity=84, time=1),\n",
      "  Message('note_on', channel=0, note=69, velocity=0, time=23),\n",
      "  Message('note_on', channel=0, note=73, velocity=84, time=1),\n",
      "  Message('note_on', channel=0, note=73, velocity=0, time=23),\n",
      "  Message('note_on', channel=0, note=69, velocity=83, time=1),\n",
      "  Message('note_on', channel=0, note=69, velocity=0, time=23),\n",
      "  Message('note_on', channel=0, note=76, velocity=82, time=1),\n",
      "  Message('note_on', channel=0, note=76, velocity=0, time=23),\n",
      "  Message('note_on', channel=0, note=73, velocity=81, time=1),\n",
      "  Message('note_on', channel=0, note=73, velocity=0, time=23),\n",
      "  Message('note_on', channel=0, note=81, velocity=81, time=1),\n",
      "  Message('note_on', channel=0, note=81, velocity=0, time=23),\n",
      "  Message('note_on', channel=0, note=76, velocity=80, time=1),\n",
      "  Message('note_on', channel=0, note=76, velocity=0, time=23),\n",
      "  Message('note_on', channel=0, note=85, velocity=79, time=1),\n",
      "  Message('note_on', channel=0, note=85, velocity=0, time=23),\n",
      "  Message('note_on', channel=0, note=81, velocity=78, time=1),\n",
      "  Message('note_on', channel=0, note=81, velocity=0, time=23),\n",
      "  Message('note_on', channel=0, note=88, velocity=78, time=1),\n",
      "  Message('note_on', channel=0, note=88, velocity=0, time=20),\n",
      "  Message('note_on', channel=0, note=88, velocity=78, time=28),\n",
      "  Message('note_on', channel=0, note=88, velocity=0, time=20),\n",
      "  Message('note_on', channel=0, note=88, velocity=94, time=28),\n",
      "  Message('note_on', channel=0, note=88, velocity=0, time=48),\n",
      "  Message('note_on', channel=0, note=78, velocity=78, time=0),\n",
      "  Message('note_on', channel=0, note=78, velocity=0, time=45),\n",
      "  Message('note_on', channel=0, note=78, velocity=78, time=3),\n",
      "  Message('note_on', channel=0, note=78, velocity=0, time=140),\n",
      "  Message('note_on', channel=0, note=82, velocity=78, time=4),\n",
      "  Message('note_on', channel=0, note=82, velocity=0, time=23),\n",
      "  Message('note_on', channel=0, note=83, velocity=78, time=1),\n",
      "  Message('note_on', channel=0, note=83, velocity=0, time=23),\n",
      "  Message('note_on', channel=0, note=86, velocity=78, time=1),\n",
      "  Message('note_on', channel=0, note=86, velocity=0, time=20),\n",
      "  Message('note_on', channel=0, note=86, velocity=78, time=28),\n",
      "  Message('note_on', channel=0, note=86, velocity=0, time=20),\n",
      "  Message('note_on', channel=0, note=86, velocity=94, time=28),\n",
      "  Message('note_on', channel=0, note=86, velocity=0, time=48),\n",
      "  Message('note_on', channel=0, note=76, velocity=78, time=0),\n",
      "  Message('note_on', channel=0, note=76, velocity=0, time=45),\n",
      "  Message('note_on', channel=0, note=76, velocity=79, time=3),\n",
      "  Message('note_on', channel=0, note=76, velocity=0, time=140),\n",
      "  Message('note_on', channel=0, note=80, velocity=79, time=4),\n",
      "  Message('note_on', channel=0, note=80, velocity=0, time=23),\n",
      "  Message('note_on', channel=0, note=81, velocity=79, time=1),\n",
      "  Message('note_on', channel=0, note=81, velocity=0, time=23),\n",
      "  Message('note_on', channel=0, note=85, velocity=79, time=1),\n",
      "  Message('note_on', channel=0, note=85, velocity=0, time=20),\n",
      "  Message('note_on', channel=0, note=85, velocity=80, time=28),\n",
      "  Message('note_on', channel=0, note=85, velocity=0, time=20),\n",
      "  Message('note_on', channel=0, note=85, velocity=96, time=28),\n",
      "  Message('note_on', channel=0, note=85, velocity=0, time=48),\n",
      "  Message('note_on', channel=0, note=74, velocity=80, time=0),\n",
      "  Message('note_on', channel=0, note=74, velocity=0, time=45),\n",
      "  Message('note_on', channel=0, note=74, velocity=80, time=3),\n",
      "  Message('note_on', channel=0, note=74, velocity=0, time=140),\n",
      "  Message('note_on', channel=0, note=79, velocity=81, time=4),\n",
      "  Message('note_on', channel=0, note=79, velocity=0, time=23),\n",
      "  Message('note_on', channel=0, note=80, velocity=81, time=1),\n",
      "  Message('note_on', channel=0, note=80, velocity=0, time=23),\n",
      "  Message('note_on', channel=0, note=83, velocity=81, time=1),\n",
      "  Message('note_on', channel=0, note=83, velocity=0, time=20),\n",
      "  Message('note_on', channel=0, note=83, velocity=81, time=28),\n",
      "  Message('note_on', channel=0, note=83, velocity=0, time=20),\n",
      "  Message('note_on', channel=0, note=83, velocity=97, time=28),\n",
      "  Message('note_on', channel=0, note=83, velocity=0, time=48),\n",
      "  Message('note_on', channel=0, note=73, velocity=82, time=0),\n",
      "  Message('note_on', channel=0, note=73, velocity=0, time=45),\n",
      "  Message('note_on', channel=0, note=73, velocity=82, time=3),\n",
      "  Message('note_on', channel=0, note=73, velocity=0, time=140),\n",
      "  Message('note_on', channel=0, note=77, velocity=83, time=4),\n",
      "  Message('note_on', channel=0, note=77, velocity=0, time=23),\n",
      "  Message('note_on', channel=0, note=78, velocity=83, time=1),\n",
      "  Message('note_on', channel=0, note=78, velocity=0, time=23),\n",
      "  Message('note_on', channel=0, note=81, velocity=83, time=1),\n",
      "  Message('note_on', channel=0, note=81, velocity=0, time=20),\n",
      "  Message('note_on', channel=0, note=81, velocity=83, time=28),\n",
      "  Message('note_on', channel=0, note=81, velocity=0, time=20),\n",
      "  Message('note_on', channel=0, note=81, velocity=99, time=28),\n",
      "  Message('note_on', channel=0, note=81, velocity=0, time=48),\n",
      "  Message('note_on', channel=0, note=71, velocity=83, time=0),\n",
      "  Message('note_on', channel=0, note=71, velocity=0, time=45),\n",
      "  Message('note_on', channel=0, note=71, velocity=84, time=51),\n",
      "  Message('note_on', channel=0, note=71, velocity=0, time=20),\n",
      "  Message('note_on', channel=0, note=71, velocity=84, time=76),\n",
      "  Message('note_on', channel=0, note=71, velocity=0, time=20),\n",
      "  Message('note_on', channel=0, note=71, velocity=85, time=76),\n",
      "  Message('note_on', channel=0, note=71, velocity=0, time=12),\n",
      "  Message('note_on', channel=0, note=73, velocity=85, time=0),\n",
      "  Message('note_on', channel=0, note=73, velocity=0, time=12),\n",
      "  Message('note_on', channel=0, note=71, velocity=85, time=0),\n",
      "  Message('note_on', channel=0, note=71, velocity=0, time=12),\n",
      "  Message('note_on', channel=0, note=73, velocity=85, time=0),\n",
      "  Message('note_on', channel=0, note=73, velocity=0, time=9),\n",
      "  Message('note_on', channel=0, note=81, velocity=101, time=3),\n",
      "  Message('note_on', channel=0, note=81, velocity=0, time=48),\n",
      "  Message('note_on', channel=0, note=72, velocity=85, time=0),\n",
      "  Message('note_on', channel=0, note=72, velocity=0, time=45),\n",
      "  Message('note_on', channel=0, note=72, velocity=85, time=51),\n",
      "  Message('note_on', channel=0, note=72, velocity=0, time=20),\n",
      "  Message('note_on', channel=0, note=72, velocity=86, time=76),\n",
      "  Message('note_on', channel=0, note=72, velocity=0, time=20),\n",
      "  Message('note_on', channel=0, note=72, velocity=86, time=76),\n",
      "  Message('note_on', channel=0, note=72, velocity=0, time=12),\n",
      "  Message('note_on', channel=0, note=74, velocity=86, time=0),\n",
      "  Message('note_on', channel=0, note=74, velocity=0, time=12),\n",
      "  Message('note_on', channel=0, note=72, velocity=86, time=0),\n",
      "  Message('note_on', channel=0, note=72, velocity=0, time=12),\n",
      "  Message('note_on', channel=0, note=74, velocity=86, time=0),\n",
      "  Message('note_on', channel=0, note=74, velocity=0, time=9),\n",
      "  Message('note_on', channel=0, note=73, velocity=87, time=3),\n",
      "  Message('note_on', channel=0, note=73, velocity=0, time=23),\n",
      "  Message('note_on', channel=0, note=69, velocity=87, time=1),\n",
      "  Message('note_on', channel=0, note=69, velocity=0, time=23),\n",
      "  Message('note_on', channel=0, note=76, velocity=87, time=1),\n",
      "  Message('note_on', channel=0, note=76, velocity=0, time=23),\n",
      "  Message('note_on', channel=0, note=73, velocity=87, time=1),\n",
      "  Message('note_on', channel=0, note=73, velocity=0, time=23),\n",
      "  Message('note_on', channel=0, note=81, velocity=87, time=1),\n",
      "  Message('note_on', channel=0, note=81, velocity=0, time=23),\n",
      "  Message('note_on', channel=0, note=76, velocity=87, time=1),\n",
      "  Message('note_on', channel=0, note=76, velocity=0, time=23),\n",
      "  Message('note_on', channel=0, note=85, velocity=87, time=1),\n",
      "  Message('note_on', channel=0, note=85, velocity=0, time=23),\n",
      "  Message('note_on', channel=0, note=81, velocity=87, time=1),\n",
      "  Message('note_on', channel=0, note=81, velocity=0, time=23),\n",
      "  Message('note_on', channel=0, note=88, velocity=87, time=1),\n",
      "  Message('note_on', channel=0, note=88, velocity=0, time=23),\n",
      "  Message('note_on', channel=0, note=85, velocity=87, time=1),\n",
      "  Message('note_on', channel=0, note=85, velocity=0, time=23),\n",
      "  Message('note_on', channel=0, note=81, velocity=87, time=1),\n",
      "  Message('note_on', channel=0, note=81, velocity=0, time=23),\n",
      "  Message('note_on', channel=0, note=76, velocity=87, time=1),\n",
      "  Message('note_on', channel=0, note=76, velocity=0, time=23),\n",
      "  Message('note_on', channel=0, note=81, velocity=87, time=1),\n",
      "  Message('note_on', channel=0, note=81, velocity=0, time=23),\n",
      "  Message('note_on', channel=0, note=76, velocity=87, time=1),\n",
      "  Message('note_on', channel=0, note=76, velocity=0, time=23),\n",
      "  Message('note_on', channel=0, note=73, velocity=87, time=1),\n",
      "  Message('note_on', channel=0, note=73, velocity=0, time=23),\n",
      "  Message('note_on', channel=0, note=69, velocity=87, time=1),\n",
      "  Message('note_on', channel=0, note=69, velocity=0, time=23),\n",
      "  Message('note_on', channel=0, note=73, velocity=87, time=1),\n",
      "  Message('note_on', channel=0, note=73, velocity=0, time=177),\n",
      "  Message('note_on', channel=0, note=71, velocity=85, time=15),\n",
      "  Message('note_on', channel=0, note=71, velocity=0, time=18),\n",
      "  Message('note_on', channel=0, note=73, velocity=85, time=0),\n",
      "  Message('note_on', channel=0, note=73, velocity=0, time=18),\n",
      "  Message('note_on', channel=0, note=71, velocity=85, time=0),\n",
      "  Message('note_on', channel=0, note=71, velocity=0, time=18),\n",
      "  Message('note_on', channel=0, note=73, velocity=85, time=0),\n",
      "  Message('note_on', channel=0, note=73, velocity=0, time=18),\n",
      "  Message('note_on', channel=0, note=71, velocity=85, time=0),\n",
      "  Message('note_on', channel=0, note=71, velocity=0, time=18),\n",
      "  Message('note_on', channel=0, note=73, velocity=85, time=0),\n",
      "  Message('note_on', channel=0, note=73, velocity=0, time=18),\n",
      "  Message('note_on', channel=0, note=71, velocity=85, time=0),\n",
      "  Message('note_on', channel=0, note=71, velocity=0, time=18),\n",
      "  Message('note_on', channel=0, note=73, velocity=85, time=0),\n",
      "  Message('note_on', channel=0, note=73, velocity=0, time=7),\n",
      "  Message('note_on', channel=0, note=69, velocity=83, time=11),\n",
      "  Message('note_on', channel=0, note=69, velocity=0, time=23),\n",
      "  Message('note_on', channel=0, note=71, velocity=83, time=1),\n",
      "  Message('note_on', channel=0, note=71, velocity=0, time=23),\n",
      "  Message('note_on', channel=0, note=69, velocity=83, time=1),\n",
      "  Message('note_on', channel=0, note=69, velocity=0, time=89),\n",
      "  Message('note_on', channel=0, note=69, velocity=82, time=31),\n",
      "  Message('note_on', channel=0, note=69, velocity=0, time=23),\n",
      "  Message('note_on', channel=0, note=71, velocity=82, time=1),\n",
      "  Message('note_on', channel=0, note=71, velocity=0, time=23),\n",
      "  Message('note_on', channel=0, note=73, velocity=82, time=1),\n",
      "  Message('note_on', channel=0, note=73, velocity=0, time=23),\n",
      "  Message('note_on', channel=0, note=74, velocity=82, time=1),\n",
      "  Message('note_on', channel=0, note=74, velocity=0, time=23),\n",
      "  Message('note_on', channel=0, note=76, velocity=82, time=1),\n",
      "  Message('note_on', channel=0, note=76, velocity=0, time=23),\n",
      "  Message('note_on', channel=0, note=78, velocity=82, time=1),\n",
      "  Message('note_on', channel=0, note=78, velocity=0, time=23),\n",
      "  Message('note_on', channel=0, note=80, velocity=82, time=1),\n",
      "  Message('note_on', channel=0, note=80, velocity=0, time=23),\n",
      "  Message('note_on', channel=0, note=81, velocity=82, time=1),\n",
      "  Message('note_on', channel=0, note=81, velocity=0, time=23),\n",
      "  Message('note_on', channel=0, note=83, velocity=82, time=1),\n",
      "  Message('note_on', channel=0, note=83, velocity=0, time=23),\n",
      "  Message('note_on', channel=0, note=85, velocity=82, time=1),\n",
      "  Message('note_on', channel=0, note=85, velocity=0, time=23),\n",
      "  Message('note_on', channel=0, note=81, velocity=82, time=1),\n",
      "  Message('note_on', channel=0, note=81, velocity=0, time=23),\n",
      "  Message('note_on', channel=0, note=86, velocity=82, time=1),\n",
      "  Message('note_on', channel=0, note=86, velocity=0, time=20),\n",
      "  Message('note_on', channel=0, note=83, velocity=82, time=28),\n",
      "  Message('note_on', channel=0, note=83, velocity=0, time=20),\n",
      "  Message('note_on', channel=0, note=78, velocity=82, time=28),\n",
      "  Message('note_on', channel=0, note=78, velocity=0, time=119),\n",
      "  Message('note_on', channel=0, note=80, velocity=82, time=1),\n",
      "  Message('note_on', channel=0, note=80, velocity=0, time=23),\n",
      "  Message('note_on', channel=0, note=81, velocity=82, time=1),\n",
      "  Message('note_on', channel=0, note=81, velocity=0, time=23),\n",
      "  Message('note_on', channel=0, note=78, velocity=82, time=1),\n",
      "  Message('note_on', channel=0, note=78, velocity=0, time=23),\n",
      "  Message('note_on', channel=0, note=80, velocity=82, time=1),\n",
      "  Message('note_on', channel=0, note=80, velocity=0, time=23),\n",
      "  Message('note_on', channel=0, note=81, velocity=82, time=1),\n",
      "  Message('note_on', channel=0, note=81, velocity=0, time=23),\n",
      "  Message('note_on', channel=0, note=83, velocity=82, time=1),\n",
      "  Message('note_on', channel=0, note=83, velocity=0, time=23),\n",
      "  Message('note_on', channel=0, note=80, velocity=82, time=1),\n",
      "  Message('note_on', channel=0, note=80, velocity=0, time=23),\n",
      "  Message('note_on', channel=0, note=81, velocity=82, time=1),\n",
      "  Message('note_on', channel=0, note=81, velocity=0, time=89),\n",
      "  Message('note_on', channel=0, note=69, velocity=78, time=31),\n",
      "  Message('note_on', channel=0, note=69, velocity=0, time=23),\n",
      "  Message('note_on', channel=0, note=71, velocity=78, time=1),\n",
      "  Message('note_on', channel=0, note=71, velocity=0, time=23),\n",
      "  Message('note_on', channel=0, note=73, velocity=78, time=1),\n",
      "  Message('note_on', channel=0, note=73, velocity=0, time=23),\n",
      "  Message('note_on', channel=0, note=74, velocity=78, time=1),\n",
      "  Message('note_on', channel=0, note=74, velocity=0, time=23),\n",
      "  Message('note_on', channel=0, note=76, velocity=78, time=1),\n",
      "  Message('note_on', channel=0, note=76, velocity=0, time=23),\n",
      "  Message('note_on', channel=0, note=78, velocity=78, time=1),\n",
      "  Message('note_on', channel=0, note=78, velocity=0, time=23),\n",
      "  Message('note_on', channel=0, note=80, velocity=78, time=1),\n",
      "  Message('note_on', channel=0, note=80, velocity=0, time=23),\n",
      "  Message('note_on', channel=0, note=81, velocity=78, time=1),\n",
      "  Message('note_on', channel=0, note=81, velocity=0, time=23),\n",
      "  Message('note_on', channel=0, note=83, velocity=78, time=1),\n",
      "  Message('note_on', channel=0, note=83, velocity=0, time=23),\n",
      "  Message('note_on', channel=0, note=85, velocity=78, time=1),\n",
      "  Message('note_on', channel=0, note=85, velocity=0, time=23),\n",
      "  Message('note_on', channel=0, note=81, velocity=78, time=1),\n",
      "  Message('note_on', channel=0, note=81, velocity=0, time=23),\n",
      "  Message('note_on', channel=0, note=86, velocity=78, time=1),\n",
      "  Message('note_on', channel=0, note=86, velocity=0, time=20),\n",
      "  Message('note_on', channel=0, note=83, velocity=78, time=28),\n",
      "  Message('note_on', channel=0, note=83, velocity=0, time=20),\n",
      "  Message('note_on', channel=0, note=78, velocity=78, time=28),\n",
      "  Message('note_on', channel=0, note=78, velocity=0, time=119),\n",
      "  Message('note_on', channel=0, note=80, velocity=78, time=1),\n",
      "  Message('note_on', channel=0, note=80, velocity=0, time=23),\n",
      "  Message('note_on', channel=0, note=81, velocity=78, time=1),\n",
      "  Message('note_on', channel=0, note=81, velocity=0, time=23),\n",
      "  Message('note_on', channel=0, note=78, velocity=78, time=1),\n",
      "  Message('note_on', channel=0, note=78, velocity=0, time=23),\n",
      "  Message('note_on', channel=0, note=80, velocity=78, time=1),\n",
      "  Message('note_on', channel=0, note=80, velocity=0, time=23),\n",
      "  Message('note_on', channel=0, note=81, velocity=78, time=1),\n",
      "  Message('note_on', channel=0, note=81, velocity=0, time=23),\n",
      "  Message('note_on', channel=0, note=83, velocity=78, time=1),\n",
      "  Message('note_on', channel=0, note=83, velocity=0, time=23),\n",
      "  Message('note_on', channel=0, note=80, velocity=78, time=1),\n",
      "  Message('note_on', channel=0, note=80, velocity=0, time=23),\n",
      "  Message('note_on', channel=0, note=81, velocity=78, time=1),\n",
      "  Message('note_on', channel=0, note=81, velocity=0, time=10),\n",
      "  Message('note_on', channel=0, note=73, velocity=78, time=14),\n",
      "  Message('note_on', channel=0, note=73, velocity=0, time=23),\n",
      "  Message('note_on', channel=0, note=76, velocity=79, time=1),\n",
      "  Message('note_on', channel=0, note=76, velocity=0, time=23),\n",
      "  Message('note_on', channel=0, note=81, velocity=80, time=1),\n",
      "  Message('note_on', channel=0, note=81, velocity=0, time=23),\n",
      "  Message('note_on', channel=0, note=85, velocity=81, time=1),\n",
      "  Message('note_on', channel=0, note=85, velocity=0, time=23),\n",
      "  Message('note_on', channel=0, note=76, velocity=82, time=1),\n",
      "  Message('note_on', channel=0, note=76, velocity=0, time=23),\n",
      "  Message('note_on', channel=0, note=81, velocity=83, time=1),\n",
      "  Message('note_on', channel=0, note=81, velocity=0, time=23),\n",
      "  Message('note_on', channel=0, note=85, velocity=84, time=1),\n",
      "  Message('note_on', channel=0, note=85, velocity=0, time=23),\n",
      "  Message('note_on', channel=0, note=88, velocity=85, time=1),\n",
      "  Message('note_on', channel=0, note=88, velocity=0, time=20),\n",
      "  Message('note_on', channel=0, note=88, velocity=87, time=28),\n",
      "  Message('note_on', channel=0, note=88, velocity=0, time=20),\n",
      "  Message('note_on', channel=0, note=80, velocity=87, time=76),\n",
      "  Message('note_on', channel=0, note=76, velocity=87, time=0),\n",
      "  Message('note_on', channel=0, note=74, velocity=87, time=0),\n",
      "  Message('note_on', channel=0, note=71, velocity=87, time=0),\n",
      "  Message('note_on', channel=0, note=80, velocity=0, time=20),\n",
      "  Message('note_on', channel=0, note=76, velocity=0, time=0),\n",
      "  Message('note_on', channel=0, note=74, velocity=0, time=0),\n",
      "  Message('note_on', channel=0, note=71, velocity=0, time=0),\n",
      "  Message('note_on', channel=0, note=81, velocity=87, time=28),\n",
      "  Message('note_on', channel=0, note=76, velocity=87, time=0),\n",
      "  Message('note_on', channel=0, note=73, velocity=87, time=0),\n",
      "  Message('note_on', channel=0, note=81, velocity=0, time=89),\n",
      "  Message('note_on', channel=0, note=76, velocity=0, time=0),\n",
      "  Message('note_on', channel=0, note=73, velocity=0, time=0),\n",
      "  Message('note_on', channel=0, note=80, velocity=87, time=199),\n",
      "  Message('note_on', channel=0, note=76, velocity=87, time=0),\n",
      "  Message('note_on', channel=0, note=74, velocity=87, time=0),\n",
      "  Message('note_on', channel=0, note=71, velocity=87, time=0),\n",
      "  Message('note_on', channel=0, note=80, velocity=0, time=89),\n",
      "  Message('note_on', channel=0, note=76, velocity=0, time=0),\n",
      "  Message('note_on', channel=0, note=74, velocity=0, time=0),\n",
      "  Message('note_on', channel=0, note=71, velocity=0, time=0),\n",
      "  Message('note_on', channel=0, note=69, velocity=87, time=7),\n",
      "  Message('note_on', channel=0, note=73, velocity=87, time=6),\n",
      "  Message('note_on', channel=0, note=76, velocity=87, time=6),\n",
      "  Message('note_on', channel=0, note=81, velocity=87, time=6),\n",
      "  Message('note_on', channel=0, note=81, velocity=0, time=75),\n",
      "  Message('note_on', channel=0, note=76, velocity=0, time=0),\n",
      "  Message('note_on', channel=0, note=73, velocity=0, time=0),\n",
      "  Message('note_on', channel=0, note=69, velocity=0, time=0),\n",
      "  Message('note_on', channel=0, note=73, velocity=87, time=3),\n",
      "  Message('note_on', channel=0, note=76, velocity=87, time=6),\n",
      "  Message('note_on', channel=0, note=81, velocity=87, time=6),\n",
      "  Message('note_on', channel=0, note=85, velocity=87, time=6),\n",
      "  Message('note_on', channel=0, note=85, velocity=0, time=75),\n",
      "  Message('note_on', channel=0, note=81, velocity=0, time=0),\n",
      "  Message('note_on', channel=0, note=76, velocity=0, time=0),\n",
      "  Message('note_on', channel=0, note=73, velocity=0, time=0),\n",
      "  Message('note_on', channel=0, note=76, velocity=87, time=3),\n",
      "  Message('note_on', channel=0, note=81, velocity=87, time=6),\n",
      "  Message('note_on', channel=0, note=85, velocity=87, time=6),\n",
      "  Message('note_on', channel=0, note=88, velocity=87, time=6),\n",
      "  Message('note_on', channel=0, note=88, velocity=0, time=75),\n",
      "  Message('note_on', channel=0, note=85, velocity=0, time=0),\n",
      "  Message('note_on', channel=0, note=81, velocity=0, time=0),\n",
      "  Message('note_on', channel=0, note=76, velocity=0, time=0),\n",
      "  Message('note_on', channel=0, note=73, velocity=87, time=3),\n",
      "  Message('note_on', channel=0, note=76, velocity=87, time=6),\n",
      "  Message('note_on', channel=0, note=81, velocity=87, time=6),\n",
      "  Message('note_on', channel=0, note=85, velocity=87, time=6),\n",
      "  Message('note_on', channel=0, note=85, velocity=0, time=75),\n",
      "  Message('note_on', channel=0, note=81, velocity=0, time=0),\n",
      "  Message('note_on', channel=0, note=76, velocity=0, time=0),\n",
      "  Message('note_on', channel=0, note=73, velocity=0, time=0),\n",
      "  Message('note_on', channel=0, note=69, velocity=87, time=3),\n",
      "  Message('note_on', channel=0, note=73, velocity=87, time=6),\n",
      "  Message('note_on', channel=0, note=76, velocity=87, time=6),\n",
      "  Message('note_on', channel=0, note=81, velocity=87, time=6),\n",
      "  Message('note_on', channel=0, note=81, velocity=0, time=75),\n",
      "  Message('note_on', channel=0, note=76, velocity=0, time=0),\n",
      "  Message('note_on', channel=0, note=73, velocity=0, time=0),\n",
      "  Message('note_on', channel=0, note=69, velocity=0, time=0),\n",
      "  Message('note_on', channel=0, note=69, velocity=87, time=3),\n",
      "  Message('note_on', channel=0, note=69, velocity=0, time=67),\n",
      "  Message('note_on', channel=0, note=69, velocity=87, time=5),\n",
      "  Message('note_on', channel=0, note=69, velocity=0, time=23),\n",
      "  Message('note_on', channel=0, note=69, velocity=87, time=1),\n",
      "  Message('note_on', channel=0, note=69, velocity=0, time=89),\n",
      "  Message('note_on', channel=0, note=86, velocity=87, time=103),\n",
      "  Message('note_on', channel=0, note=81, velocity=87, time=0),\n",
      "  Message('note_on', channel=0, note=78, velocity=87, time=0),\n",
      "  Message('note_on', channel=0, note=74, velocity=87, time=0),\n",
      "  Message('note_on', channel=0, note=86, velocity=0, time=177),\n",
      "  Message('note_on', channel=0, note=81, velocity=0, time=0),\n",
      "  Message('note_on', channel=0, note=78, velocity=0, time=0),\n",
      "  Message('note_on', channel=0, note=74, velocity=0, time=0),\n",
      "  Message('note_on', channel=0, note=81, velocity=87, time=15),\n",
      "  Message('note_on', channel=0, note=81, velocity=0, time=177),\n",
      "  Message('note_on', channel=0, note=79, velocity=87, time=15),\n",
      "  Message('note_on', channel=0, note=79, velocity=0, time=18),\n",
      "  Message('note_on', channel=0, note=78, velocity=87, time=0),\n",
      "  Message('note_on', channel=0, note=78, velocity=0, time=18),\n",
      "  Message('note_on', channel=0, note=79, velocity=87, time=0),\n",
      "  Message('note_on', channel=0, note=79, velocity=0, time=18),\n",
      "  Message('note_on', channel=0, note=78, velocity=87, time=0),\n",
      "  Message('note_on', channel=0, note=78, velocity=0, time=18),\n",
      "  Message('note_on', channel=0, note=79, velocity=87, time=0),\n",
      "  Message('note_on', channel=0, note=79, velocity=0, time=18),\n",
      "  Message('note_on', channel=0, note=78, velocity=87, time=0),\n",
      "  Message('note_on', channel=0, note=78, velocity=0, time=18),\n",
      "  Message('note_on', channel=0, note=79, velocity=87, time=0),\n",
      "  Message('note_on', channel=0, note=79, velocity=0, time=18),\n",
      "  Message('note_on', channel=0, note=78, velocity=87, time=0),\n",
      "  Message('note_on', channel=0, note=78, velocity=0, time=7),\n",
      "  Message('note_on', channel=0, note=76, velocity=87, time=11),\n",
      "  Message('note_on', channel=0, note=76, velocity=0, time=23),\n",
      "  Message('note_on', channel=0, note=74, velocity=87, time=1),\n",
      "  Message('note_on', channel=0, note=74, velocity=0, time=23),\n",
      "  Message('note_on', channel=0, note=81, velocity=87, time=1),\n",
      "  Message('note_on', channel=0, note=81, velocity=0, time=89),\n",
      "  Message('note_on', channel=0, note=69, velocity=87, time=79),\n",
      "  Message('note_on', channel=0, note=69, velocity=0, time=8),\n",
      "  Message('note_on', channel=0, note=71, velocity=87, time=0),\n",
      "  Message('note_on', channel=0, note=71, velocity=0, time=8),\n",
      "  Message('note_on', channel=0, note=73, velocity=87, time=0),\n",
      "  Message('note_on', channel=0, note=73, velocity=0, time=8),\n",
      "  Message('note_on', channel=0, note=74, velocity=87, time=0),\n",
      "  Message('note_on', channel=0, note=74, velocity=0, time=89),\n",
      "  Message('note_on', channel=0, note=69, velocity=87, time=7),\n",
      "  Message('note_on', channel=0, note=69, velocity=0, time=67),\n",
      "  Message('note_on', channel=0, note=74, velocity=87, time=5),\n",
      "  Message('note_on', channel=0, note=74, velocity=0, time=23),\n",
      "  Message('note_on', channel=0, note=76, velocity=87, time=1),\n",
      "  Message('note_on', channel=0, note=76, velocity=0, time=89),\n",
      "  Message('note_on', channel=0, note=69, velocity=87, time=7),\n",
      "  Message('note_on', channel=0, note=69, velocity=0, time=67),\n",
      "  Message('note_on', channel=0, note=76, velocity=87, time=5),\n",
      "  Message('note_on', channel=0, note=76, velocity=0, time=23),\n",
      "  Message('note_on', channel=0, note=78, velocity=87, time=1),\n",
      "  Message('note_on', channel=0, note=78, velocity=0, time=89),\n",
      "  Message('note_on', channel=0, note=74, velocity=87, time=7),\n",
      "  Message('note_on', channel=0, note=74, velocity=0, time=67),\n",
      "  Message('note_on', channel=0, note=78, velocity=87, time=5),\n",
      "  Message('note_on', channel=0, note=78, velocity=0, time=23),\n",
      "  Message('note_on', channel=0, note=81, velocity=87, time=1),\n",
      "  Message('note_on', channel=0, note=81, velocity=0, time=89),\n",
      "  Message('note_on', channel=0, note=74, velocity=82, time=103),\n",
      "  Message('note_on', channel=0, note=66, velocity=82, time=0),\n",
      "  Message('note_on', channel=0, note=74, velocity=0, time=20),\n",
      "  Message('note_on', channel=0, note=66, velocity=0, time=0),\n",
      "  Message('note_on', channel=0, note=74, velocity=98, time=76),\n",
      "  Message('note_on', channel=0, note=66, velocity=98, time=0),\n",
      "  Message('note_on', channel=0, note=74, velocity=0, time=192),\n",
      "  Message('note_on', channel=0, note=66, velocity=0, time=0),\n",
      "  Message('note_on', channel=0, note=78, velocity=87, time=0),\n",
      "  Message('note_on', channel=0, note=69, velocity=87, time=0),\n",
      "  Message('note_on', channel=0, note=78, velocity=0, time=89),\n",
      "  Message('note_on', channel=0, note=69, velocity=0, time=0),\n",
      "  Message('note_on', channel=0, note=78, velocity=85, time=7),\n",
      "  Message('note_on', channel=0, note=78, velocity=0, time=45),\n",
      "  Message('note_on', channel=0, note=76, velocity=84, time=3),\n",
      "  Message('note_on', channel=0, note=76, velocity=0, time=45),\n",
      "  Message('note_on', channel=0, note=74, velocity=83, time=3),\n",
      "  Message('note_on', channel=0, note=74, velocity=0, time=89),\n",
      "  Message('note_on', channel=0, note=78, velocity=82, time=199),\n",
      "  Message('note_on', channel=0, note=74, velocity=82, time=0),\n",
      "  Message('note_on', channel=0, note=78, velocity=0, time=20),\n",
      "  Message('note_on', channel=0, note=74, velocity=0, time=0),\n",
      "  Message('note_on', channel=0, note=78, velocity=98, time=76),\n",
      "  Message('note_on', channel=0, note=74, velocity=98, time=0),\n",
      "  Message('note_on', channel=0, note=74, velocity=0, time=192),\n",
      "  Message('note_on', channel=0, note=81, velocity=87, time=0),\n",
      "  Message('note_on', channel=0, note=81, velocity=0, time=89),\n",
      "  Message('note_on', channel=0, note=78, velocity=0, time=0),\n",
      "  Message('note_on', channel=0, note=81, velocity=84, time=7),\n",
      "  Message('note_on', channel=0, note=78, velocity=84, time=0),\n",
      "  Message('note_on', channel=0, note=81, velocity=0, time=45),\n",
      "  Message('note_on', channel=0, note=78, velocity=0, time=0),\n",
      "  Message('note_on', channel=0, note=79, velocity=83, time=3),\n",
      "  Message('note_on', channel=0, note=76, velocity=83, time=0),\n",
      "  Message('note_on', channel=0, note=79, velocity=0, time=45),\n",
      "  Message('note_on', channel=0, note=76, velocity=0, time=0),\n",
      "  Message('note_on', channel=0, note=78, velocity=82, time=3),\n",
      "  Message('note_on', channel=0, note=74, velocity=82, time=0),\n",
      "  Message('note_on', channel=0, note=78, velocity=0, time=89),\n",
      "  Message('note_on', channel=0, note=74, velocity=0, time=0),\n",
      "  Message('note_on', channel=0, note=69, velocity=82, time=223),\n",
      "  Message('note_on', channel=0, note=69, velocity=0, time=23),\n",
      "  Message('note_on', channel=0, note=71, velocity=82, time=1),\n",
      "  Message('note_on', channel=0, note=71, velocity=0, time=23),\n",
      "  Message('note_on', channel=0, note=73, velocity=82, time=1),\n",
      "  Message('note_on', channel=0, note=73, velocity=0, time=23),\n",
      "  Message('note_on', channel=0, note=74, velocity=83, time=1),\n",
      "  Message('note_on', channel=0, note=74, velocity=0, time=23),\n",
      "  Message('note_on', channel=0, note=76, velocity=83, time=1),\n",
      "  Message('note_on', channel=0, note=76, velocity=0, time=23),\n",
      "  Message('note_on', channel=0, note=78, velocity=83, time=1),\n",
      "  Message('note_on', channel=0, note=78, velocity=0, time=23),\n",
      "  Message('note_on', channel=0, note=79, velocity=84, time=1),\n",
      "  Message('note_on', channel=0, note=79, velocity=0, time=23),\n",
      "  Message('note_on', channel=0, note=81, velocity=84, time=1),\n",
      "  Message('note_on', channel=0, note=81, velocity=0, time=23),\n",
      "  Message('note_on', channel=0, note=83, velocity=85, time=1),\n",
      "  Message('note_on', channel=0, note=83, velocity=0, time=23),\n",
      "  Message('note_on', channel=0, note=85, velocity=85, time=1),\n",
      "  Message('note_on', channel=0, note=85, velocity=0, time=23),\n",
      "  Message('note_on', channel=0, note=86, velocity=85, time=1),\n",
      "  Message('note_on', channel=0, note=86, velocity=0, time=23),\n",
      "  Message('note_on', channel=0, note=81, velocity=86, time=1),\n",
      "  Message('note_on', channel=0, note=81, velocity=0, time=45),\n",
      "  Message('note_on', channel=0, note=69, velocity=82, time=75),\n",
      "  Message('note_on', channel=0, note=69, velocity=0, time=23),\n",
      "  Message('note_on', channel=0, note=71, velocity=82, time=1),\n",
      "  Message('note_on', channel=0, note=71, velocity=0, time=23),\n",
      "  Message('note_on', channel=0, note=73, velocity=82, time=1),\n",
      "  Message('note_on', channel=0, note=73, velocity=0, time=23),\n",
      "  Message('note_on', channel=0, note=74, velocity=83, time=1),\n",
      "  Message('note_on', channel=0, note=74, velocity=0, time=23),\n",
      "  Message('note_on', channel=0, note=76, velocity=83, time=1),\n",
      "  Message('note_on', channel=0, note=76, velocity=0, time=23),\n",
      "  Message('note_on', channel=0, note=78, velocity=83, time=1),\n",
      "  Message('note_on', channel=0, note=78, velocity=0, time=23),\n",
      "  Message('note_on', channel=0, note=80, velocity=84, time=1),\n",
      "  Message('note_on', channel=0, note=80, velocity=0, time=23),\n",
      "  Message('note_on', channel=0, note=81, velocity=84, time=1),\n",
      "  Message('note_on', channel=0, note=81, velocity=0, time=23),\n",
      "  Message('note_on', channel=0, note=85, velocity=85, time=1),\n",
      "  Message('note_on', channel=0, note=85, velocity=0, time=23),\n",
      "  Message('note_on', channel=0, note=86, velocity=85, time=1),\n",
      "  Message('note_on', channel=0, note=86, velocity=0, time=23),\n",
      "  Message('note_on', channel=0, note=88, velocity=85, time=1),\n",
      "  Message('note_on', channel=0, note=88, velocity=0, time=23),\n",
      "  Message('note_on', channel=0, note=81, velocity=86, time=1),\n",
      "  Message('note_on', channel=0, note=81, velocity=0, time=45),\n",
      "  Message('note_on', channel=0, note=69, velocity=82, time=75),\n",
      "  Message('note_on', channel=0, note=69, velocity=0, time=23),\n",
      "  Message('note_on', channel=0, note=71, velocity=82, time=1),\n",
      "  Message('note_on', channel=0, note=71, velocity=0, time=23),\n",
      "  Message('note_on', channel=0, note=73, velocity=82, time=1),\n",
      "  Message('note_on', channel=0, note=73, velocity=0, time=23),\n",
      "  Message('note_on', channel=0, note=74, velocity=83, time=1),\n",
      "  Message('note_on', channel=0, note=74, velocity=0, time=23),\n",
      "  Message('note_on', channel=0, note=76, velocity=83, time=1),\n",
      "  Message('note_on', channel=0, note=76, velocity=0, time=23),\n",
      "  Message('note_on', channel=0, note=78, velocity=83, time=1),\n",
      "  Message('note_on', channel=0, note=78, velocity=0, time=23),\n",
      "  Message('note_on', channel=0, note=79, velocity=84, time=1),\n",
      "  Message('note_on', channel=0, note=79, velocity=0, time=23),\n",
      "  Message('note_on', channel=0, note=81, velocity=84, time=1),\n",
      "  Message('note_on', channel=0, note=81, velocity=0, time=23),\n",
      "  Message('note_on', channel=0, note=83, velocity=85, time=1),\n",
      "  Message('note_on', channel=0, note=83, velocity=0, time=23),\n",
      "  Message('note_on', channel=0, note=85, velocity=85, time=1),\n",
      "  Message('note_on', channel=0, note=85, velocity=0, time=23),\n",
      "  Message('note_on', channel=0, note=86, velocity=85, time=1),\n",
      "  Message('note_on', channel=0, note=86, velocity=0, time=23),\n",
      "  Message('note_on', channel=0, note=81, velocity=86, time=1),\n",
      "  Message('note_on', channel=0, note=81, velocity=0, time=45),\n",
      "  Message('note_on', channel=0, note=83, velocity=87, time=51),\n",
      "  Message('note_on', channel=0, note=83, velocity=0, time=23),\n",
      "  Message('note_on', channel=0, note=86, velocity=86, time=1),\n",
      "  Message('note_on', channel=0, note=86, velocity=0, time=23),\n",
      "  Message('note_on', channel=0, note=83, velocity=86, time=1),\n",
      "  Message('note_on', channel=0, note=83, velocity=0, time=23),\n",
      "  Message('note_on', channel=0, note=86, velocity=86, time=1),\n",
      "  Message('note_on', channel=0, note=86, velocity=0, time=23),\n",
      "  Message('note_on', channel=0, note=76, velocity=85, time=1),\n",
      "  Message('note_on', channel=0, note=76, velocity=0, time=23),\n",
      "  Message('note_on', channel=0, note=79, velocity=85, time=1),\n",
      "  Message('note_on', channel=0, note=79, velocity=0, time=23),\n",
      "  Message('note_on', channel=0, note=76, velocity=85, time=1),\n",
      "  Message('note_on', channel=0, note=76, velocity=0, time=23),\n",
      "  Message('note_on', channel=0, note=79, velocity=84, time=1),\n",
      "  Message('note_on', channel=0, note=79, velocity=0, time=23),\n",
      "  Message('note_on', channel=0, note=78, velocity=84, time=1),\n",
      "  Message('note_on', channel=0, note=78, velocity=0, time=23),\n",
      "  Message('note_on', channel=0, note=81, velocity=84, time=1),\n",
      "  Message('note_on', channel=0, note=81, velocity=0, time=23),\n",
      "  Message('note_on', channel=0, note=78, velocity=83, time=1),\n",
      "  Message('note_on', channel=0, note=78, velocity=0, time=23),\n",
      "  Message('note_on', channel=0, note=81, velocity=83, time=1),\n",
      "  Message('note_on', channel=0, note=81, velocity=0, time=23),\n",
      "  Message('note_on', channel=0, note=73, velocity=83, time=1),\n",
      "  Message('note_on', channel=0, note=73, velocity=0, time=23),\n",
      "  Message('note_on', channel=0, note=76, velocity=82, time=1),\n",
      "  Message('note_on', channel=0, note=76, velocity=0, time=23),\n",
      "  Message('note_on', channel=0, note=73, velocity=82, time=1),\n",
      "  Message('note_on', channel=0, note=73, velocity=0, time=23),\n",
      "  Message('note_on', channel=0, note=76, velocity=82, time=1),\n",
      "  Message('note_on', channel=0, note=76, velocity=0, time=23),\n",
      "  Message('note_on', channel=0, note=74, velocity=82, time=1),\n",
      "  Message('note_on', channel=0, note=74, velocity=0, time=89),\n",
      "  Message('note_on', channel=0, note=81, velocity=82, time=199),\n",
      "  Message('note_on', channel=0, note=81, velocity=0, time=23),\n",
      "  Message('note_on', channel=0, note=83, velocity=82, time=1),\n",
      "  Message('note_on', channel=0, note=83, velocity=0, time=23),\n",
      "  Message('note_on', channel=0, note=85, velocity=82, time=1),\n",
      "  Message('note_on', channel=0, note=85, velocity=0, time=23),\n",
      "  Message('note_on', channel=0, note=86, velocity=82, time=1),\n",
      "  Message('note_on', channel=0, note=86, velocity=0, time=23),\n",
      "  Message('note_on', channel=0, note=81, velocity=82, time=1),\n",
      "  Message('note_on', channel=0, note=81, velocity=0, time=89),\n",
      "  Message('note_on', channel=0, note=81, velocity=82, time=199),\n",
      "  Message('note_on', channel=0, note=81, velocity=0, time=23),\n",
      "  Message('note_on', channel=0, note=85, velocity=82, time=1),\n",
      "  Message('note_on', channel=0, note=85, velocity=0, time=23),\n",
      "  Message('note_on', channel=0, note=86, velocity=82, time=1),\n",
      "  Message('note_on', channel=0, note=86, velocity=0, time=23),\n",
      "  Message('note_on', channel=0, note=88, velocity=82, time=1),\n",
      "  Message('note_on', channel=0, note=88, velocity=0, time=23),\n",
      "  Message('note_on', channel=0, note=81, velocity=82, time=1),\n",
      "  Message('note_on', channel=0, note=81, velocity=0, time=89),\n",
      "  Message('note_on', channel=0, note=81, velocity=82, time=199),\n",
      "  Message('note_on', channel=0, note=81, velocity=0, time=23),\n",
      "  Message('note_on', channel=0, note=83, velocity=83, time=1),\n",
      "  Message('note_on', channel=0, note=83, velocity=0, time=23),\n",
      "  Message('note_on', channel=0, note=85, velocity=84, time=1),\n",
      "  Message('note_on', channel=0, note=85, velocity=0, time=23),\n",
      "  Message('note_on', channel=0, note=86, velocity=85, time=1),\n",
      "  Message('note_on', channel=0, note=86, velocity=0, time=23),\n",
      "  Message('note_on', channel=0, note=83, velocity=87, time=1),\n",
      "  Message('note_on', channel=0, note=83, velocity=0, time=23),\n",
      "  Message('note_on', channel=0, note=86, velocity=86, time=1),\n",
      "  Message('note_on', channel=0, note=86, velocity=0, time=23),\n",
      "  Message('note_on', channel=0, note=83, velocity=86, time=1),\n",
      "  Message('note_on', channel=0, note=83, velocity=0, time=23),\n",
      "  Message('note_on', channel=0, note=86, velocity=86, time=1),\n",
      "  Message('note_on', channel=0, note=86, velocity=0, time=23),\n",
      "  Message('note_on', channel=0, note=76, velocity=85, time=1),\n",
      "  Message('note_on', channel=0, note=76, velocity=0, time=23),\n",
      "  Message('note_on', channel=0, note=79, velocity=85, time=1),\n",
      "  Message('note_on', channel=0, note=79, velocity=0, time=23),\n",
      "  Message('note_on', channel=0, note=76, velocity=85, time=1),\n",
      "  Message('note_on', channel=0, note=76, velocity=0, time=23),\n",
      "  Message('note_on', channel=0, note=79, velocity=84, time=1),\n",
      "  Message('note_on', channel=0, note=79, velocity=0, time=23),\n",
      "  Message('note_on', channel=0, note=78, velocity=84, time=1),\n",
      "  Message('note_on', channel=0, note=78, velocity=0, time=23),\n",
      "  Message('note_on', channel=0, note=81, velocity=84, time=1),\n",
      "  Message('note_on', channel=0, note=81, velocity=0, time=23),\n",
      "  Message('note_on', channel=0, note=78, velocity=83, time=1),\n",
      "  Message('note_on', channel=0, note=78, velocity=0, time=23),\n",
      "  Message('note_on', channel=0, note=81, velocity=83, time=1),\n",
      "  Message('note_on', channel=0, note=81, velocity=0, time=23),\n",
      "  Message('note_on', channel=0, note=73, velocity=83, time=1),\n",
      "  Message('note_on', channel=0, note=73, velocity=0, time=23),\n",
      "  Message('note_on', channel=0, note=76, velocity=82, time=1),\n",
      "  Message('note_on', channel=0, note=76, velocity=0, time=23),\n",
      "  Message('note_on', channel=0, note=73, velocity=82, time=1),\n",
      "  Message('note_on', channel=0, note=73, velocity=0, time=23),\n",
      "  Message('note_on', channel=0, note=76, velocity=82, time=1),\n",
      "  Message('note_on', channel=0, note=76, velocity=0, time=23),\n",
      "  Message('note_on', channel=0, note=74, velocity=82, time=1),\n",
      "  Message('note_on', channel=0, note=74, velocity=0, time=89),\n",
      "  Message('note_on', channel=0, note=86, velocity=87, time=7),\n",
      "  Message('note_on', channel=0, note=86, velocity=0, time=23),\n",
      "  Message('note_on', channel=0, note=81, velocity=87, time=1),\n",
      "  Message('note_on', channel=0, note=81, velocity=0, time=23),\n",
      "  Message('note_on', channel=0, note=78, velocity=87, time=1),\n",
      "  Message('note_on', channel=0, note=78, velocity=0, time=23),\n",
      "  Message('note_on', channel=0, note=74, velocity=87, time=1),\n",
      "  Message('note_on', channel=0, note=74, velocity=0, time=23),\n",
      "  Message('note_on', channel=0, note=81, velocity=87, time=1),\n",
      "  Message('note_on', channel=0, note=81, velocity=0, time=23),\n",
      "  Message('note_on', channel=0, note=78, velocity=87, time=1),\n",
      "  Message('note_on', channel=0, note=78, velocity=0, time=23),\n",
      "  Message('note_on', channel=0, note=74, velocity=87, time=1),\n",
      "  Message('note_on', channel=0, note=74, velocity=0, time=23),\n",
      "  Message('note_on', channel=0, note=69, velocity=87, time=1),\n",
      "  Message('note_on', channel=0, note=69, velocity=0, time=23),\n",
      "  Message('note_on', channel=0, note=78, velocity=87, time=1),\n",
      "  Message('note_on', channel=0, note=78, velocity=0, time=23),\n",
      "  Message('note_on', channel=0, note=74, velocity=87, time=1),\n",
      "  Message('note_on', channel=0, note=74, velocity=0, time=23),\n",
      "  Message('note_on', channel=0, note=69, velocity=87, time=1),\n",
      "  Message('note_on', channel=0, note=69, velocity=0, time=23),\n",
      "  Message('note_on', channel=0, note=66, velocity=87, time=1),\n",
      "  Message('note_on', channel=0, note=66, velocity=0, time=23),\n",
      "  Message('note_on', channel=0, note=74, velocity=87, time=1),\n",
      "  Message('note_on', channel=0, note=74, velocity=0, time=23),\n",
      "  Message('note_on', channel=0, note=69, velocity=87, time=1),\n",
      "  Message('note_on', channel=0, note=69, velocity=0, time=23),\n",
      "  Message('note_on', channel=0, note=66, velocity=87, time=1),\n",
      "  Message('note_on', channel=0, note=66, velocity=0, time=23),\n",
      "  Message('note_on', channel=0, note=62, velocity=87, time=1),\n",
      "  Message('note_on', channel=0, note=62, velocity=0, time=23),\n",
      "  Message('note_on', channel=0, note=61, velocity=87, time=1),\n",
      "  Message('note_on', channel=0, note=61, velocity=0, time=23),\n",
      "  Message('note_on', channel=0, note=62, velocity=87, time=1),\n",
      "  Message('note_on', channel=0, note=62, velocity=0, time=23),\n",
      "  Message('note_on', channel=0, note=61, velocity=87, time=1),\n",
      "  Message('note_on', channel=0, note=61, velocity=0, time=23),\n",
      "  Message('note_on', channel=0, note=62, velocity=87, time=1),\n",
      "  Message('note_on', channel=0, note=62, velocity=0, time=23),\n",
      "  Message('note_on', channel=0, note=61, velocity=87, time=1),\n",
      "  Message('note_on', channel=0, note=61, velocity=0, time=23),\n",
      "  Message('note_on', channel=0, note=62, velocity=87, time=1),\n",
      "  Message('note_on', channel=0, note=62, velocity=0, time=23),\n",
      "  Message('note_on', channel=0, note=61, velocity=87, time=1),\n",
      "  Message('note_on', channel=0, note=61, velocity=0, time=23),\n",
      "  Message('note_on', channel=0, note=62, velocity=87, time=1),\n",
      "  Message('note_on', channel=0, note=62, velocity=0, time=23),\n",
      "  Message('note_on', channel=0, note=61, velocity=87, time=1),\n",
      "  Message('note_on', channel=0, note=61, velocity=0, time=23),\n",
      "  Message('note_on', channel=0, note=62, velocity=87, time=1),\n",
      "  Message('note_on', channel=0, note=62, velocity=0, time=23),\n",
      "  Message('note_on', channel=0, note=61, velocity=87, time=1),\n",
      "  Message('note_on', channel=0, note=61, velocity=0, time=23),\n",
      "  Message('note_on', channel=0, note=62, velocity=87, time=1),\n",
      "  Message('note_on', channel=0, note=62, velocity=0, time=23),\n",
      "  Message('note_on', channel=0, note=59, velocity=87, time=1),\n",
      "  Message('note_on', channel=0, note=59, velocity=0, time=45),\n",
      "  Message('note_on', channel=0, note=83, velocity=87, time=51),\n",
      "  Message('note_on', channel=0, note=83, velocity=0, time=23),\n",
      "  Message('note_on', channel=0, note=78, velocity=87, time=1),\n",
      "  Message('note_on', channel=0, note=78, velocity=0, time=23),\n",
      "  Message('note_on', channel=0, note=74, velocity=87, time=1),\n",
      "  Message('note_on', channel=0, note=74, velocity=0, time=23),\n",
      "  Message('note_on', channel=0, note=71, velocity=87, time=1),\n",
      "  Message('note_on', channel=0, note=71, velocity=0, time=23),\n",
      "  Message('note_on', channel=0, note=78, velocity=87, time=1),\n",
      "  Message('note_on', channel=0, note=78, velocity=0, time=23),\n",
      "  Message('note_on', channel=0, note=74, velocity=87, time=1),\n",
      "  Message('note_on', channel=0, note=74, velocity=0, time=23),\n",
      "  Message('note_on', channel=0, note=71, velocity=87, time=1),\n",
      "  Message('note_on', channel=0, note=71, velocity=0, time=23),\n",
      "  Message('note_on', channel=0, note=66, velocity=87, time=1),\n",
      "  Message('note_on', channel=0, note=66, velocity=0, time=23),\n",
      "  Message('note_on', channel=0, note=74, velocity=87, time=1),\n",
      "  Message('note_on', channel=0, note=74, velocity=0, time=23),\n",
      "  Message('note_on', channel=0, note=71, velocity=87, time=1),\n",
      "  Message('note_on', channel=0, note=71, velocity=0, time=23),\n",
      "  Message('note_on', channel=0, note=66, velocity=87, time=1),\n",
      "  Message('note_on', channel=0, note=66, velocity=0, time=23),\n",
      "  Message('note_on', channel=0, note=62, velocity=87, time=1),\n",
      "  Message('note_on', channel=0, note=62, velocity=0, time=23),\n",
      "  Message('note_on', channel=0, note=71, velocity=87, time=1),\n",
      "  Message('note_on', channel=0, note=71, velocity=0, time=23),\n",
      "  Message('note_on', channel=0, note=66, velocity=87, time=1),\n",
      "  Message('note_on', channel=0, note=66, velocity=0, time=23),\n",
      "  Message('note_on', channel=0, note=62, velocity=87, time=1),\n",
      "  Message('note_on', channel=0, note=62, velocity=0, time=23),\n",
      "  Message('note_on', channel=0, note=59, velocity=87, time=1),\n",
      "  Message('note_on', channel=0, note=59, velocity=0, time=23),\n",
      "  Message('note_on', channel=0, note=58, velocity=87, time=1),\n",
      "  Message('note_on', channel=0, note=58, velocity=0, time=23),\n",
      "  Message('note_on', channel=0, note=59, velocity=87, time=1),\n",
      "  Message('note_on', channel=0, note=59, velocity=0, time=23),\n",
      "  Message('note_on', channel=0, note=58, velocity=87, time=1),\n",
      "  Message('note_on', channel=0, note=58, velocity=0, time=23),\n",
      "  Message('note_on', channel=0, note=59, velocity=87, time=1),\n",
      "  Message('note_on', channel=0, note=59, velocity=0, time=23),\n",
      "  Message('note_on', channel=0, note=58, velocity=87, time=1),\n",
      "  Message('note_on', channel=0, note=58, velocity=0, time=23),\n",
      "  Message('note_on', channel=0, note=59, velocity=87, time=1),\n",
      "  Message('note_on', channel=0, note=59, velocity=0, time=23),\n",
      "  Message('note_on', channel=0, note=58, velocity=87, time=1),\n",
      "  Message('note_on', channel=0, note=58, velocity=0, time=23),\n",
      "  Message('note_on', channel=0, note=59, velocity=87, time=1),\n",
      "  Message('note_on', channel=0, note=59, velocity=0, time=23),\n",
      "  Message('note_on', channel=0, note=58, velocity=87, time=1),\n",
      "  Message('note_on', channel=0, note=58, velocity=0, time=23),\n",
      "  Message('note_on', channel=0, note=59, velocity=87, time=1),\n",
      "  Message('note_on', channel=0, note=59, velocity=0, time=23),\n",
      "  Message('note_on', channel=0, note=58, velocity=87, time=1),\n",
      "  Message('note_on', channel=0, note=58, velocity=0, time=23),\n",
      "  Message('note_on', channel=0, note=59, velocity=87, time=1),\n",
      "  Message('note_on', channel=0, note=59, velocity=0, time=23),\n",
      "  Message('note_on', channel=0, note=55, velocity=87, time=1),\n",
      "  Message('note_on', channel=0, note=55, velocity=0, time=45),\n",
      "  Message('note_on', channel=0, note=79, velocity=87, time=51),\n",
      "  Message('note_on', channel=0, note=79, velocity=0, time=23),\n",
      "  Message('note_on', channel=0, note=74, velocity=87, time=1),\n",
      "  Message('note_on', channel=0, note=74, velocity=0, time=23),\n",
      "  Message('note_on', channel=0, note=71, velocity=87, time=1),\n",
      "  Message('note_on', channel=0, note=71, velocity=0, time=23),\n",
      "  Message('note_on', channel=0, note=67, velocity=87, time=1),\n",
      "  Message('note_on', channel=0, note=67, velocity=0, time=23),\n",
      "  Message('note_on', channel=0, note=74, velocity=87, time=1),\n",
      "  Message('note_on', channel=0, note=74, velocity=0, time=23),\n",
      "  Message('note_on', channel=0, note=71, velocity=87, time=1),\n",
      "  Message('note_on', channel=0, note=71, velocity=0, time=23),\n",
      "  Message('note_on', channel=0, note=67, velocity=87, time=1),\n",
      "  Message('note_on', channel=0, note=67, velocity=0, time=23),\n",
      "  Message('note_on', channel=0, note=62, velocity=87, time=1),\n",
      "  Message('note_on', channel=0, note=62, velocity=0, time=23),\n",
      "  Message('note_on', channel=0, note=71, velocity=87, time=1),\n",
      "  Message('note_on', channel=0, note=71, velocity=0, time=23),\n",
      "  Message('note_on', channel=0, note=67, velocity=87, time=1),\n",
      "  Message('note_on', channel=0, note=67, velocity=0, time=23),\n",
      "  Message('note_on', channel=0, note=62, velocity=87, time=1),\n",
      "  Message('note_on', channel=0, note=62, velocity=0, time=23),\n",
      "  Message('note_on', channel=0, note=59, velocity=87, time=1),\n",
      "  Message('note_on', channel=0, note=59, velocity=0, time=23),\n",
      "  Message('note_on', channel=0, note=67, velocity=87, time=1),\n",
      "  Message('note_on', channel=0, note=67, velocity=0, time=23),\n",
      "  Message('note_on', channel=0, note=62, velocity=87, time=1),\n",
      "  Message('note_on', channel=0, note=62, velocity=0, time=23),\n",
      "  Message('note_on', channel=0, note=59, velocity=87, time=1),\n",
      "  Message('note_on', channel=0, note=59, velocity=0, time=23),\n",
      "  Message('note_on', channel=0, note=55, velocity=87, time=1),\n",
      "  Message('note_on', channel=0, note=55, velocity=0, time=23),\n",
      "  Message('note_on', channel=0, note=54, velocity=87, time=1),\n",
      "  Message('note_on', channel=0, note=54, velocity=0, time=23),\n",
      "  Message('note_on', channel=0, note=55, velocity=87, time=1),\n",
      "  Message('note_on', channel=0, note=55, velocity=0, time=23),\n",
      "  Message('note_on', channel=0, note=54, velocity=87, time=1),\n",
      "  Message('note_on', channel=0, note=54, velocity=0, time=23),\n",
      "  Message('note_on', channel=0, note=55, velocity=87, time=1),\n",
      "  Message('note_on', channel=0, note=55, velocity=0, time=23),\n",
      "  Message('note_on', channel=0, note=54, velocity=87, time=1),\n",
      "  Message('note_on', channel=0, note=54, velocity=0, time=23),\n",
      "  Message('note_on', channel=0, note=55, velocity=87, time=1),\n",
      "  Message('note_on', channel=0, note=55, velocity=0, time=23),\n",
      "  Message('note_on', channel=0, note=54, velocity=87, time=1),\n",
      "  Message('note_on', channel=0, note=54, velocity=0, time=23),\n",
      "  Message('note_on', channel=0, note=55, velocity=87, time=1),\n",
      "  Message('note_on', channel=0, note=55, velocity=0, time=23),\n",
      "  Message('note_on', channel=0, note=54, velocity=87, time=1),\n",
      "  Message('note_on', channel=0, note=54, velocity=0, time=23),\n",
      "  Message('note_on', channel=0, note=55, velocity=87, time=1),\n",
      "  Message('note_on', channel=0, note=55, velocity=0, time=23),\n",
      "  Message('note_on', channel=0, note=54, velocity=87, time=1),\n",
      "  Message('note_on', channel=0, note=54, velocity=0, time=23),\n",
      "  Message('note_on', channel=0, note=55, velocity=87, time=1),\n",
      "  Message('note_on', channel=0, note=55, velocity=0, time=23),\n",
      "  Message('note_on', channel=0, note=56, velocity=87, time=1),\n",
      "  Message('note_on', channel=0, note=56, velocity=0, time=45),\n",
      "  Message('note_on', channel=0, note=57, velocity=87, time=3),\n",
      "  Message('note_on', channel=0, note=57, velocity=0, time=23),\n",
      "  Message('note_on', channel=0, note=59, velocity=87, time=1),\n",
      "  Message('note_on', channel=0, note=59, velocity=0, time=23),\n",
      "  Message('note_on', channel=0, note=61, velocity=87, time=1),\n",
      "  Message('note_on', channel=0, note=61, velocity=0, time=23),\n",
      "  Message('note_on', channel=0, note=62, velocity=87, time=1),\n",
      "  Message('note_on', channel=0, note=62, velocity=0, time=23),\n",
      "  Message('note_on', channel=0, note=64, velocity=87, time=1),\n",
      "  Message('note_on', channel=0, note=64, velocity=0, time=23),\n",
      "  Message('note_on', channel=0, note=66, velocity=87, time=1),\n",
      "  Message('note_on', channel=0, note=66, velocity=0, time=23),\n",
      "  Message('note_on', channel=0, note=68, velocity=87, time=1),\n",
      "  Message('note_on', channel=0, note=68, velocity=0, time=23),\n",
      "  Message('note_on', channel=0, note=69, velocity=87, time=1),\n",
      "  Message('note_on', channel=0, note=69, velocity=0, time=23),\n",
      "  Message('note_on', channel=0, note=71, velocity=87, time=1),\n",
      "  Message('note_on', channel=0, note=71, velocity=0, time=23),\n",
      "  Message('note_on', channel=0, note=73, velocity=87, time=1),\n",
      "  Message('note_on', channel=0, note=73, velocity=0, time=23),\n",
      "  Message('note_on', channel=0, note=74, velocity=87, time=1),\n",
      "  Message('note_on', channel=0, note=74, velocity=0, time=23),\n",
      "  Message('note_on', channel=0, note=76, velocity=87, time=1),\n",
      "  Message('note_on', channel=0, note=76, velocity=0, time=23),\n",
      "  Message('note_on', channel=0, note=78, velocity=87, time=1),\n",
      "  Message('note_on', channel=0, note=78, velocity=0, time=23),\n",
      "  Message('note_on', channel=0, note=80, velocity=87, time=1),\n",
      "  Message('note_on', channel=0, note=80, velocity=0, time=23),\n",
      "  Message('note_on', channel=0, note=81, velocity=87, time=1),\n",
      "  Message('note_on', channel=0, note=81, velocity=0, time=89),\n",
      "  Message('note_on', channel=0, note=75, velocity=87, time=103),\n",
      "  Message('note_on', channel=0, note=69, velocity=87, time=0),\n",
      "  Message('note_on', channel=0, note=66, velocity=87, time=0),\n",
      "  Message('note_on', channel=0, note=75, velocity=0, time=89),\n",
      "  Message('note_on', channel=0, note=69, velocity=0, time=0),\n",
      "  Message('note_on', channel=0, note=66, velocity=0, time=0),\n",
      "  Message('note_on', channel=0, note=76, velocity=87, time=103),\n",
      "  Message('note_on', channel=0, note=71, velocity=87, time=0),\n",
      "  Message('note_on', channel=0, note=68, velocity=87, time=0),\n",
      "  Message('note_on', channel=0, note=76, velocity=0, time=89),\n",
      "  Message('note_on', channel=0, note=71, velocity=0, time=0),\n",
      "  Message('note_on', channel=0, note=68, velocity=0, time=0),\n",
      "  Message('note_on', channel=0, note=63, velocity=87, time=103),\n",
      "  Message('note_on', channel=0, note=63, velocity=0, time=12),\n",
      "  Message('note_on', channel=0, note=64, velocity=87, time=0),\n",
      "  Message('note_on', channel=0, note=64, velocity=0, time=165),\n",
      "  Message('note_on', channel=0, note=63, velocity=87, time=15),\n",
      "  Message('note_on', channel=0, note=63, velocity=0, time=12),\n",
      "  Message('note_on', channel=0, note=64, velocity=87, time=0),\n",
      "  Message('note_on', channel=0, note=64, velocity=0, time=165),\n",
      "  Message('note_on', channel=0, note=63, velocity=87, time=15),\n",
      "  Message('note_on', channel=0, note=63, velocity=0, time=12),\n",
      "  Message('note_on', channel=0, note=64, velocity=87, time=0),\n",
      "  Message('note_on', channel=0, note=64, velocity=0, time=165),\n",
      "  Message('note_on', channel=0, note=63, velocity=87, time=15),\n",
      "  Message('note_on', channel=0, note=63, velocity=0, time=12),\n",
      "  Message('note_on', channel=0, note=64, velocity=87, time=0),\n",
      "  Message('note_on', channel=0, note=64, velocity=0, time=165),\n",
      "  Message('note_on', channel=0, note=63, velocity=87, time=15),\n",
      "  Message('note_on', channel=0, note=63, velocity=0, time=12),\n",
      "  Message('note_on', channel=0, note=64, velocity=87, time=0),\n",
      "  Message('note_on', channel=0, note=64, velocity=0, time=165),\n",
      "  Message('note_on', channel=0, note=63, velocity=87, time=15),\n",
      "  Message('note_on', channel=0, note=63, velocity=0, time=12),\n",
      "  Message('note_on', channel=0, note=64, velocity=87, time=0),\n",
      "  Message('note_on', channel=0, note=64, velocity=0, time=165),\n",
      "  Message('note_on', channel=0, note=63, velocity=87, time=15),\n",
      "  Message('note_on', channel=0, note=63, velocity=0, time=12),\n",
      "  Message('note_on', channel=0, note=64, velocity=87, time=0),\n",
      "  Message('note_on', channel=0, note=64, velocity=0, time=165),\n",
      "  Message('note_on', channel=0, note=63, velocity=87, time=15),\n",
      "  Message('note_on', channel=0, note=63, velocity=0, time=12),\n",
      "  Message('note_on', channel=0, note=64, velocity=87, time=0),\n",
      "  Message('note_on', channel=0, note=64, velocity=0, time=165),\n",
      "  Message('note_on', channel=0, note=63, velocity=87, time=15),\n",
      "  Message('note_on', channel=0, note=63, velocity=0, time=12),\n",
      "  Message('note_on', channel=0, note=64, velocity=87, time=0),\n",
      "  Message('note_on', channel=0, note=64, velocity=0, time=165),\n",
      "  Message('note_on', channel=0, note=68, velocity=87, time=15),\n",
      "  Message('note_on', channel=0, note=68, velocity=0, time=23),\n",
      "  Message('note_on', channel=0, note=71, velocity=87, time=1),\n",
      "  Message('note_on', channel=0, note=71, velocity=0, time=23),\n",
      "  Message('note_on', channel=0, note=76, velocity=87, time=1),\n",
      "  Message('note_on', channel=0, note=76, velocity=0, time=23),\n",
      "  Message('note_on', channel=0, note=80, velocity=87, time=1),\n",
      "  Message('note_on', channel=0, note=80, velocity=0, time=23),\n",
      "  Message('note_on', channel=0, note=66, velocity=87, time=1),\n",
      "  Message('note_on', channel=0, note=66, velocity=0, time=23),\n",
      "  Message('note_on', channel=0, note=71, velocity=87, time=1),\n",
      "  Message('note_on', channel=0, note=71, velocity=0, time=23),\n",
      "  Message('note_on', channel=0, note=74, velocity=87, time=1),\n",
      "  Message('note_on', channel=0, note=74, velocity=0, time=23),\n",
      "  Message('note_on', channel=0, note=78, velocity=87, time=1),\n",
      "  Message('note_on', channel=0, note=78, velocity=0, time=23),\n",
      "  Message('note_on', channel=0, note=64, velocity=87, time=1),\n",
      "  Message('note_on', channel=0, note=64, velocity=0, time=23),\n",
      "  Message('note_on', channel=0, note=69, velocity=87, time=1),\n",
      "  Message('note_on', channel=0, note=69, velocity=0, time=23),\n",
      "  Message('note_on', channel=0, note=73, velocity=87, time=1),\n",
      "  Message('note_on', channel=0, note=73, velocity=0, time=23),\n",
      "  Message('note_on', channel=0, note=76, velocity=87, time=1),\n",
      "  Message('note_on', channel=0, note=76, velocity=0, time=23),\n",
      "  Message('note_on', channel=0, note=62, velocity=87, time=1),\n",
      "  Message('note_on', channel=0, note=62, velocity=0, time=23),\n",
      "  Message('note_on', channel=0, note=68, velocity=87, time=1),\n",
      "  Message('note_on', channel=0, note=68, velocity=0, time=23),\n",
      "  Message('note_on', channel=0, note=71, velocity=87, time=1),\n",
      "  Message('note_on', channel=0, note=71, velocity=0, time=23),\n",
      "  Message('note_on', channel=0, note=74, velocity=87, time=1),\n",
      "  Message('note_on', channel=0, note=74, velocity=0, time=23),\n",
      "  Message('note_on', channel=0, note=73, velocity=87, time=1),\n",
      "  Message('note_on', channel=0, note=73, velocity=0, time=45),\n",
      "  Message('note_on', channel=0, note=83, velocity=87, time=51),\n",
      "  Message('note_on', channel=0, note=83, velocity=0, time=23),\n",
      "  Message('note_on', channel=0, note=81, velocity=87, time=1),\n",
      "  Message('note_on', channel=0, note=81, velocity=0, time=23),\n",
      "  Message('note_on', channel=0, note=80, velocity=87, time=1),\n",
      "  Message('note_on', channel=0, note=80, velocity=0, time=23),\n",
      "  Message('note_on', channel=0, note=81, velocity=87, time=1),\n",
      "  Message('note_on', channel=0, note=81, velocity=0, time=23),\n",
      "  Message('note_on', channel=0, note=80, velocity=87, time=1),\n",
      "  Message('note_on', channel=0, note=80, velocity=0, time=23),\n",
      "  Message('note_on', channel=0, note=78, velocity=87, time=1),\n",
      "  Message('note_on', channel=0, note=78, velocity=0, time=23),\n",
      "  Message('note_on', channel=0, note=77, velocity=87, time=1),\n",
      "  Message('note_on', channel=0, note=77, velocity=0, time=23),\n",
      "  Message('note_on', channel=0, note=78, velocity=87, time=1),\n",
      "  Message('note_on', channel=0, note=78, velocity=0, time=23),\n",
      "  Message('note_on', channel=0, note=76, velocity=87, time=1),\n",
      "  Message('note_on', channel=0, note=76, velocity=0, time=23),\n",
      "  Message('note_on', channel=0, note=74, velocity=87, time=1),\n",
      "  Message('note_on', channel=0, note=74, velocity=0, time=23),\n",
      "  Message('note_on', channel=0, note=73, velocity=87, time=1),\n",
      "  Message('note_on', channel=0, note=73, velocity=0, time=23),\n",
      "  Message('note_on', channel=0, note=74, velocity=87, time=1),\n",
      "  Message('note_on', channel=0, note=74, velocity=0, time=23),\n",
      "  Message('note_on', channel=0, note=73, velocity=87, time=1),\n",
      "  Message('note_on', channel=0, note=73, velocity=0, time=45),\n",
      "  Message('note_on', channel=0, note=76, velocity=87, time=3),\n",
      "  Message('note_on', channel=0, note=76, velocity=0, time=23),\n",
      "  Message('note_on', channel=0, note=73, velocity=87, time=1),\n",
      "  Message('note_on', channel=0, note=73, velocity=0, time=23),\n",
      "  Message('note_on', channel=0, note=81, velocity=87, time=1),\n",
      "  Message('note_on', channel=0, note=81, velocity=0, time=20),\n",
      "  Message('note_on', channel=0, note=81, velocity=87, time=28),\n",
      "  Message('note_on', channel=0, note=81, velocity=0, time=20),\n",
      "  Message('note_on', channel=0, note=71, velocity=87, time=28),\n",
      "  Message('note_on', channel=0, note=71, velocity=0, time=20),\n",
      "  Message('note_on', channel=0, note=74, velocity=87, time=28),\n",
      "  Message('note_on', channel=0, note=74, velocity=0, time=23),\n",
      "  Message('note_on', channel=0, note=71, velocity=87, time=1),\n",
      "  Message('note_on', channel=0, note=71, velocity=0, time=23),\n",
      "  Message('note_on', channel=0, note=80, velocity=87, time=1),\n",
      "  Message('note_on', channel=0, note=80, velocity=0, time=20),\n",
      "  Message('note_on', channel=0, note=80, velocity=87, time=28),\n",
      "  Message('note_on', channel=0, note=80, velocity=0, time=20),\n",
      "  Message('note_on', channel=0, note=81, velocity=87, time=28),\n",
      "  Message('note_on', channel=0, note=81, velocity=0, time=23),\n",
      "  Message('note_on', channel=0, note=76, velocity=87, time=1),\n",
      "  Message('note_on', channel=0, note=76, velocity=0, time=23),\n",
      "  Message('note_on', channel=0, note=73, velocity=87, time=1),\n",
      "  Message('note_on', channel=0, note=73, velocity=0, time=23),\n",
      "  Message('note_on', channel=0, note=76, velocity=87, time=1),\n",
      "  Message('note_on', channel=0, note=76, velocity=0, time=23),\n",
      "  Message('note_on', channel=0, note=81, velocity=87, time=1),\n",
      "  Message('note_on', channel=0, note=81, velocity=0, time=20),\n",
      "  Message('note_on', channel=0, note=85, velocity=87, time=28),\n",
      "  Message('note_on', channel=0, note=85, velocity=0, time=20),\n",
      "  Message('note_on', channel=0, note=73, velocity=87, time=28),\n",
      "  Message('note_on', channel=0, note=76, velocity=87, time=8),\n",
      "  Message('note_on', channel=0, note=81, velocity=87, time=8),\n",
      "  Message('note_on', channel=0, note=81, velocity=0, time=77),\n",
      "  Message('note_on', channel=0, note=76, velocity=0, time=0),\n",
      "  Message('note_on', channel=0, note=73, velocity=0, time=0),\n",
      "  Message('note_on', channel=0, note=75, velocity=73, time=771),\n",
      "  Message('note_on', channel=0, note=75, velocity=0, time=12),\n",
      "  Message('note_on', channel=0, note=76, velocity=73, time=0),\n",
      "  Message('note_on', channel=0, note=76, velocity=0, time=77),\n",
      "  Message('note_on', channel=0, note=75, velocity=73, time=679),\n",
      "  Message('note_on', channel=0, note=75, velocity=0, time=12),\n",
      "  Message('note_on', channel=0, note=76, velocity=73, time=0),\n",
      "  Message('note_on', channel=0, note=76, velocity=0, time=77),\n",
      "  Message('note_on', channel=0, note=75, velocity=73, time=679),\n",
      "  Message('note_on', channel=0, note=75, velocity=0, time=12),\n",
      "  Message('note_on', channel=0, note=76, velocity=73, time=0),\n",
      "  Message('note_on', channel=0, note=76, velocity=0, time=77),\n",
      "  Message('note_on', channel=0, note=69, velocity=73, time=439),\n",
      "  Message('note_on', channel=0, note=69, velocity=0, time=23),\n",
      "  Message('note_on', channel=0, note=73, velocity=73, time=1),\n",
      "  Message('note_on', channel=0, note=73, velocity=0, time=23),\n",
      "  Message('note_on', channel=0, note=71, velocity=73, time=1),\n",
      "  Message('note_on', channel=0, note=71, velocity=0, time=23),\n",
      "  Message('note_on', channel=0, note=74, velocity=74, time=1),\n",
      "  Message('note_on', channel=0, note=74, velocity=0, time=23),\n",
      "  Message('note_on', channel=0, note=73, velocity=74, time=1),\n",
      "  Message('note_on', channel=0, note=73, velocity=0, time=23),\n",
      "  Message('note_on', channel=0, note=76, velocity=74, time=1),\n",
      "  Message('note_on', channel=0, note=76, velocity=0, time=23),\n",
      "  Message('note_on', channel=0, note=74, velocity=75, time=1),\n",
      "  Message('note_on', channel=0, note=74, velocity=0, time=23),\n",
      "  Message('note_on', channel=0, note=78, velocity=75, time=1),\n",
      "  Message('note_on', channel=0, note=78, velocity=0, time=23),\n",
      "  Message('note_on', channel=0, note=76, velocity=75, time=1),\n",
      "  Message('note_on', channel=0, note=76, velocity=0, time=23),\n",
      "  Message('note_on', channel=0, note=80, velocity=76, time=1),\n",
      "  Message('note_on', channel=0, note=80, velocity=0, time=23),\n",
      "  Message('note_on', channel=0, note=78, velocity=76, time=1),\n",
      "  Message('note_on', channel=0, note=78, velocity=0, time=23),\n",
      "  Message('note_on', channel=0, note=81, velocity=76, time=1),\n",
      "  Message('note_on', channel=0, note=81, velocity=0, time=23),\n",
      "  Message('note_on', channel=0, note=80, velocity=77, time=1),\n",
      "  Message('note_on', channel=0, note=80, velocity=0, time=23),\n",
      "  Message('note_on', channel=0, note=83, velocity=77, time=1),\n",
      "  Message('note_on', channel=0, note=83, velocity=0, time=23),\n",
      "  Message('note_on', channel=0, note=81, velocity=78, time=1),\n",
      "  Message('note_on', channel=0, note=81, velocity=0, time=45),\n",
      "  Message('note_on', channel=0, note=80, velocity=78, time=3),\n",
      "  Message('note_on', channel=0, note=80, velocity=0, time=45),\n",
      "  Message('note_on', channel=0, note=78, velocity=78, time=3),\n",
      "  Message('note_on', channel=0, note=78, velocity=0, time=45),\n",
      "  Message('note_on', channel=0, note=76, velocity=78, time=3),\n",
      "  Message('note_on', channel=0, note=76, velocity=0, time=45),\n",
      "  Message('note_on', channel=0, note=81, velocity=78, time=3),\n",
      "  Message('note_on', channel=0, note=81, velocity=0, time=39),\n",
      "  Message('note_on', channel=0, note=83, velocity=79, time=57),\n",
      "  Message('note_on', channel=0, note=83, velocity=0, time=39),\n",
      "  Message('note_on', channel=0, note=85, velocity=96, time=57),\n",
      "  Message('note_on', channel=0, note=85, velocity=0, time=237),\n",
      "  Message('note_on', channel=0, note=88, velocity=81, time=3),\n",
      "  Message('note_on', channel=0, note=88, velocity=0, time=45),\n",
      "  Message('note_on', channel=0, note=86, velocity=80, time=3),\n",
      "  Message('note_on', channel=0, note=86, velocity=0, time=45),\n",
      "  Message('note_on', channel=0, note=83, velocity=79, time=3),\n",
      "  Message('note_on', channel=0, note=83, velocity=0, time=45),\n",
      "  Message('note_on', channel=0, note=81, velocity=78, time=3),\n",
      "  Message('note_on', channel=0, note=81, velocity=0, time=45),\n",
      "  Message('note_on', channel=0, note=80, velocity=78, time=3),\n",
      "  Message('note_on', channel=0, note=80, velocity=0, time=45),\n",
      "  Message('note_on', channel=0, note=78, velocity=78, time=3),\n",
      "  Message('note_on', channel=0, note=78, velocity=0, time=45),\n",
      "  Message('note_on', channel=0, note=76, velocity=78, time=3),\n",
      "  Message('note_on', channel=0, note=76, velocity=0, time=45),\n",
      "  Message('note_on', channel=0, note=81, velocity=78, time=3),\n",
      "  Message('note_on', channel=0, note=81, velocity=0, time=39),\n",
      "  Message('note_on', channel=0, note=83, velocity=78, time=57),\n",
      "  Message('note_on', channel=0, note=83, velocity=0, time=39),\n",
      "  Message('note_on', channel=0, note=86, velocity=95, time=57),\n",
      "  Message('note_on', channel=0, note=86, velocity=0, time=192),\n",
      "  Message('note_on', channel=0, note=85, velocity=82, time=0),\n",
      "  Message('note_on', channel=0, note=85, velocity=0, time=67),\n",
      "  Message('note_on', channel=0, note=86, velocity=80, time=5),\n",
      "  Message('note_on', channel=0, note=86, velocity=0, time=23),\n",
      "  Message('note_on', channel=0, note=83, velocity=80, time=1),\n",
      "  Message('note_on', channel=0, note=83, velocity=0, time=67),\n",
      "  Message('note_on', channel=0, note=85, velocity=78, time=5),\n",
      "  Message('note_on', channel=0, note=85, velocity=0, time=23),\n",
      "  Message('note_on', channel=0, note=81, velocity=78, time=1),\n",
      "  Message('note_on', channel=0, note=81, velocity=0, time=45),\n",
      "  Message('note_on', channel=0, note=80, velocity=78, time=3),\n",
      "  Message('note_on', channel=0, note=80, velocity=0, time=45),\n",
      "  Message('note_on', channel=0, note=78, velocity=78, time=3),\n",
      "  Message('note_on', channel=0, note=78, velocity=0, time=12),\n",
      "  Message('note_on', channel=0, note=79, velocity=78, time=0),\n",
      "  Message('note_on', channel=0, note=79, velocity=0, time=12),\n",
      "  Message('note_on', channel=0, note=78, velocity=78, time=0),\n",
      "  Message('note_on', channel=0, note=78, velocity=0, time=21),\n",
      "  Message('note_on', channel=0, note=76, velocity=78, time=3),\n",
      "  Message('note_on', channel=0, note=76, velocity=0, time=45),\n",
      "  Message('note_on', channel=0, note=81, velocity=78, time=3),\n",
      "  Message('note_on', channel=0, note=81, velocity=0, time=39),\n",
      "  Message('note_on', channel=0, note=83, velocity=79, time=57),\n",
      "  Message('note_on', channel=0, note=83, velocity=0, time=39),\n",
      "  Message('note_on', channel=0, note=85, velocity=95, time=57),\n",
      "  Message('note_on', channel=0, note=85, velocity=0, time=237),\n",
      "  Message('note_on', channel=0, note=88, velocity=81, time=3),\n",
      "  Message('note_on', channel=0, note=88, velocity=0, time=45),\n",
      "  Message('note_on', channel=0, note=86, velocity=81, time=3),\n",
      "  Message('note_on', channel=0, note=86, velocity=0, time=45),\n",
      "  Message('note_on', channel=0, note=83, velocity=81, time=3),\n",
      "  Message('note_on', channel=0, note=83, velocity=0, time=45),\n",
      "  Message('note_on', channel=0, note=83, velocity=82, time=3),\n",
      "  Message('note_on', channel=0, note=83, velocity=0, time=48),\n",
      "  Message('note_on', channel=0, note=81, velocity=81, time=0),\n",
      "  Message('note_on', channel=0, note=81, velocity=0, time=45),\n",
      "  Message('note_on', channel=0, note=81, velocity=81, time=3),\n",
      "  Message('note_on', channel=0, note=81, velocity=0, time=89),\n",
      "  Message('note_on', channel=0, note=81, velocity=96, time=7),\n",
      "  Message('note_on', channel=0, note=81, velocity=0, time=96),\n",
      "  Message('note_on', channel=0, note=85, velocity=79, time=0),\n",
      "  Message('note_on', channel=0, note=85, velocity=0, time=45),\n",
      "  Message('note_on', channel=0, note=83, velocity=78, time=3),\n",
      "  Message('note_on', channel=0, note=83, velocity=0, time=45),\n",
      "  Message('note_on', channel=0, note=81, velocity=78, time=3),\n",
      "  Message('note_on', channel=0, note=81, velocity=0, time=89),\n",
      "  Message('note_on', channel=0, note=59, velocity=73, time=295),\n",
      "  Message('note_on', channel=0, note=59, velocity=0, time=23),\n",
      "  Message('note_on', channel=0, note=58, velocity=73, time=1),\n",
      "  Message('note_on', channel=0, note=58, velocity=0, time=23),\n",
      "  Message('note_on', channel=0, note=59, velocity=73, time=1),\n",
      "  Message('note_on', channel=0, note=59, velocity=0, time=23),\n",
      "  Message('note_on', channel=0, note=58, velocity=73, time=1),\n",
      "  Message('note_on', channel=0, note=58, velocity=0, time=23),\n",
      "  Message('note_on', channel=0, note=59, velocity=73, time=1),\n",
      "  Message('note_on', channel=0, note=59, velocity=0, time=23),\n",
      "  Message('note_on', channel=0, note=58, velocity=73, time=1),\n",
      "  Message('note_on', channel=0, note=58, velocity=0, time=23),\n",
      "  Message('note_on', channel=0, note=59, velocity=73, time=1),\n",
      "  Message('note_on', channel=0, note=59, velocity=0, time=23),\n",
      "  Message('note_on', channel=0, note=58, velocity=74, time=1),\n",
      "  Message('note_on', channel=0, note=58, velocity=0, time=23),\n",
      "  Message('note_on', channel=0, note=59, velocity=74, time=1),\n",
      "  Message('note_on', channel=0, note=59, velocity=0, time=23),\n",
      "  Message('note_on', channel=0, note=61, velocity=74, time=1),\n",
      "  Message('note_on', channel=0, note=61, velocity=0, time=23),\n",
      "  Message('note_on', channel=0, note=62, velocity=74, time=1),\n",
      "  Message('note_on', channel=0, note=62, velocity=0, time=23),\n",
      "  Message('note_on', channel=0, note=64, velocity=74, time=1),\n",
      "  Message('note_on', channel=0, note=64, velocity=0, time=23),\n",
      "  Message('note_on', channel=0, note=66, velocity=74, time=1),\n",
      "  Message('note_on', channel=0, note=66, velocity=0, time=23),\n",
      "  Message('note_on', channel=0, note=67, velocity=75, time=1),\n",
      "  Message('note_on', channel=0, note=67, velocity=0, time=23),\n",
      "  Message('note_on', channel=0, note=69, velocity=75, time=1),\n",
      "  Message('note_on', channel=0, note=69, velocity=0, time=23),\n",
      "  Message('note_on', channel=0, note=71, velocity=75, time=1),\n",
      "  Message('note_on', channel=0, note=71, velocity=0, time=23),\n",
      "  Message('note_on', channel=0, note=71, velocity=75, time=1),\n",
      "  Message('note_on', channel=0, note=71, velocity=0, time=192),\n",
      "  Message('note_on', channel=0, note=69, velocity=77, time=0),\n",
      "  Message('note_on', channel=0, note=69, velocity=0, time=67),\n",
      "  Message('note_on', channel=0, note=67, velocity=77, time=5),\n",
      "  Message('note_on', channel=0, note=67, velocity=0, time=24),\n",
      "  Message('note_on', channel=0, note=66, velocity=77, time=0),\n",
      "  Message('note_on', channel=0, note=66, velocity=0, time=29),\n",
      "  Message('note_on', channel=0, note=64, velocity=78, time=43),\n",
      "  Message('note_on', channel=0, note=64, velocity=0, time=23),\n",
      "  Message('note_on', channel=0, note=62, velocity=78, time=1),\n",
      "  Message('note_on', channel=0, note=62, velocity=0, time=23),\n",
      "  Message('note_on', channel=0, note=61, velocity=78, time=1),\n",
      "  Message('note_on', channel=0, note=61, velocity=0, time=23),\n",
      "  Message('note_on', channel=0, note=62, velocity=78, time=1),\n",
      "  Message('note_on', channel=0, note=62, velocity=0, time=23),\n",
      "  Message('note_on', channel=0, note=61, velocity=79, time=1),\n",
      "  Message('note_on', channel=0, note=61, velocity=0, time=23),\n",
      "  Message('note_on', channel=0, note=62, velocity=79, time=1),\n",
      "  Message('note_on', channel=0, note=62, velocity=0, time=23),\n",
      "  Message('note_on', channel=0, note=61, velocity=79, time=1),\n",
      "  Message('note_on', channel=0, note=61, velocity=0, time=23),\n",
      "  Message('note_on', channel=0, note=62, velocity=79, time=1),\n",
      "  Message('note_on', channel=0, note=62, velocity=0, time=23),\n",
      "  Message('note_on', channel=0, note=61, velocity=79, time=1),\n",
      "  Message('note_on', channel=0, note=61, velocity=0, time=23),\n",
      "  Message('note_on', channel=0, note=62, velocity=79, time=1),\n",
      "  Message('note_on', channel=0, note=62, velocity=0, time=23),\n",
      "  Message('note_on', channel=0, note=64, velocity=80, time=1),\n",
      "  Message('note_on', channel=0, note=64, velocity=0, time=23),\n",
      "  Message('note_on', channel=0, note=66, velocity=80, time=1),\n",
      "  Message('note_on', channel=0, note=66, velocity=0, time=23),\n",
      "  Message('note_on', channel=0, note=67, velocity=80, time=1),\n",
      "  Message('note_on', channel=0, note=67, velocity=0, time=23),\n",
      "  Message('note_on', channel=0, note=69, velocity=80, time=1),\n",
      "  Message('note_on', channel=0, note=69, velocity=0, time=23),\n",
      "  Message('note_on', channel=0, note=71, velocity=80, time=1),\n",
      "  Message('note_on', channel=0, note=71, velocity=0, time=23),\n",
      "  Message('note_on', channel=0, note=73, velocity=80, time=1),\n",
      "  Message('note_on', channel=0, note=73, velocity=0, time=23),\n",
      "  Message('note_on', channel=0, note=74, velocity=81, time=1),\n",
      "  Message('note_on', channel=0, note=74, velocity=0, time=23),\n",
      "  Message('note_on', channel=0, note=76, velocity=81, time=1),\n",
      "  Message('note_on', channel=0, note=76, velocity=0, time=192),\n",
      "  Message('note_on', channel=0, note=74, velocity=82, time=0),\n",
      "  Message('note_on', channel=0, note=74, velocity=0, time=67),\n",
      "  Message('note_on', channel=0, note=73, velocity=83, time=5),\n",
      "  Message('note_on', channel=0, note=73, velocity=0, time=24),\n",
      "  Message('note_on', channel=0, note=71, velocity=83, time=0),\n",
      "  Message('note_on', channel=0, note=71, velocity=0, time=29),\n",
      "  Message('note_on', channel=0, note=69, velocity=83, time=43),\n",
      "  Message('note_on', channel=0, note=69, velocity=0, time=23),\n",
      "  Message('note_on', channel=0, note=66, velocity=84, time=1),\n",
      "  Message('note_on', channel=0, note=66, velocity=0, time=23),\n",
      "  Message('note_on', channel=0, note=65, velocity=84, time=1),\n",
      "  Message('note_on', channel=0, note=65, velocity=0, time=23),\n",
      "  Message('note_on', channel=0, note=66, velocity=84, time=1),\n",
      "  Message('note_on', channel=0, note=66, velocity=0, time=23),\n",
      "  Message('note_on', channel=0, note=65, velocity=84, time=1),\n",
      "  Message('note_on', channel=0, note=65, velocity=0, time=23),\n",
      "  Message('note_on', channel=0, note=66, velocity=84, time=1),\n",
      "  Message('note_on', channel=0, note=66, velocity=0, time=23),\n",
      "  Message('note_on', channel=0, note=65, velocity=85, time=1),\n",
      "  Message('note_on', channel=0, note=65, velocity=0, time=23),\n",
      "  Message('note_on', channel=0, note=66, velocity=85, time=1),\n",
      "  Message('note_on', channel=0, note=66, velocity=0, time=23),\n",
      "  Message('note_on', channel=0, note=65, velocity=85, time=1),\n",
      "  Message('note_on', channel=0, note=65, velocity=0, time=23),\n",
      "  Message('note_on', channel=0, note=66, velocity=85, time=1),\n",
      "  Message('note_on', channel=0, note=66, velocity=0, time=23),\n",
      "  Message('note_on', channel=0, note=67, velocity=85, time=1),\n",
      "  Message('note_on', channel=0, note=67, velocity=0, time=23),\n",
      "  Message('note_on', channel=0, note=69, velocity=85, time=1),\n",
      "  Message('note_on', channel=0, note=69, velocity=0, time=23),\n",
      "  Message('note_on', channel=0, note=71, velocity=86, time=1),\n",
      "  Message('note_on', channel=0, note=71, velocity=0, time=23),\n",
      "  Message('note_on', channel=0, note=73, velocity=86, time=1),\n",
      "  Message('note_on', channel=0, note=73, velocity=0, time=23),\n",
      "  Message('note_on', channel=0, note=74, velocity=86, time=1),\n",
      "  Message('note_on', channel=0, note=74, velocity=0, time=23),\n",
      "  Message('note_on', channel=0, note=76, velocity=86, time=1),\n",
      "  Message('note_on', channel=0, note=76, velocity=0, time=23),\n",
      "  Message('note_on', channel=0, note=78, velocity=86, time=1),\n",
      "  Message('note_on', channel=0, note=78, velocity=0, time=23),\n",
      "  Message('note_on', channel=0, note=62, velocity=87, time=1),\n",
      "  Message('note_on', channel=0, note=62, velocity=0, time=23),\n",
      "  Message('note_on', channel=0, note=61, velocity=87, time=1),\n",
      "  Message('note_on', channel=0, note=61, velocity=0, time=23),\n",
      "  Message('note_on', channel=0, note=62, velocity=87, time=1),\n",
      "  Message('note_on', channel=0, note=62, velocity=0, time=23),\n",
      "  Message('note_on', channel=0, note=61, velocity=87, time=1),\n",
      "  Message('note_on', channel=0, note=61, velocity=0, time=23),\n",
      "  Message('note_on', channel=0, note=62, velocity=87, time=1),\n",
      "  Message('note_on', channel=0, note=62, velocity=0, time=23),\n",
      "  Message('note_on', channel=0, note=61, velocity=87, time=1),\n",
      "  Message('note_on', channel=0, note=61, velocity=0, time=23),\n",
      "  Message('note_on', channel=0, note=62, velocity=87, time=1),\n",
      "  Message('note_on', channel=0, note=62, velocity=0, time=23),\n",
      "  Message('note_on', channel=0, note=61, velocity=87, time=1),\n",
      "  Message('note_on', channel=0, note=61, velocity=0, time=23),\n",
      "  Message('note_on', channel=0, note=62, velocity=87, time=1),\n",
      "  Message('note_on', channel=0, note=62, velocity=0, time=23),\n",
      "  Message('note_on', channel=0, note=64, velocity=87, time=1),\n",
      "  Message('note_on', channel=0, note=64, velocity=0, time=23),\n",
      "  Message('note_on', channel=0, note=66, velocity=87, time=1),\n",
      "  Message('note_on', channel=0, note=66, velocity=0, time=23),\n",
      "  Message('note_on', channel=0, note=68, velocity=87, time=1),\n",
      "  Message('note_on', channel=0, note=68, velocity=0, time=23),\n",
      "  Message('note_on', channel=0, note=69, velocity=87, time=1),\n",
      "  Message('note_on', channel=0, note=69, velocity=0, time=23),\n",
      "  Message('note_on', channel=0, note=71, velocity=87, time=1),\n",
      "  Message('note_on', channel=0, note=71, velocity=0, time=23),\n",
      "  Message('note_on', channel=0, note=73, velocity=87, time=1),\n",
      "  Message('note_on', channel=0, note=73, velocity=0, time=23),\n",
      "  Message('note_on', channel=0, note=74, velocity=87, time=1),\n",
      "  Message('note_on', channel=0, note=74, velocity=0, time=23),\n",
      "  Message('note_on', channel=0, note=81, velocity=87, time=1),\n",
      "  Message('note_on', channel=0, note=76, velocity=87, time=0),\n",
      "  Message('note_on', channel=0, note=73, velocity=87, time=0),\n",
      "  Message('note_on', channel=0, note=81, velocity=0, time=45),\n",
      "  Message('note_on', channel=0, note=76, velocity=0, time=0),\n",
      "  Message('note_on', channel=0, note=73, velocity=0, time=0),\n",
      "  Message('note_on', channel=0, note=81, velocity=87, time=51),\n",
      "  Message('note_on', channel=0, note=76, velocity=87, time=0),\n",
      "  Message('note_on', channel=0, note=73, velocity=87, time=0),\n",
      "  Message('note_on', channel=0, note=81, velocity=0, time=45),\n",
      "  Message('note_on', channel=0, note=76, velocity=0, time=0),\n",
      "  Message('note_on', channel=0, note=73, velocity=0, time=0),\n",
      "  Message('note_on', channel=0, note=81, velocity=87, time=51),\n",
      "  Message('note_on', channel=0, note=76, velocity=87, time=0),\n",
      "  Message('note_on', channel=0, note=73, velocity=87, time=0),\n",
      "  Message('note_on', channel=0, note=81, velocity=0, time=45),\n",
      "  Message('note_on', channel=0, note=76, velocity=0, time=0),\n",
      "  Message('note_on', channel=0, note=73, velocity=0, time=0),\n",
      "  Message('note_on', channel=0, note=81, velocity=87, time=51),\n",
      "  Message('note_on', channel=0, note=76, velocity=87, time=0),\n",
      "  Message('note_on', channel=0, note=73, velocity=87, time=0),\n",
      "  Message('note_on', channel=0, note=81, velocity=0, time=45),\n",
      "  Message('note_on', channel=0, note=76, velocity=0, time=0),\n",
      "  Message('note_on', channel=0, note=73, velocity=0, time=0),\n",
      "  Message('note_on', channel=0, note=85, velocity=87, time=51),\n",
      "  Message('note_on', channel=0, note=81, velocity=87, time=0),\n",
      "  Message('note_on', channel=0, note=78, velocity=87, time=0),\n",
      "  Message('note_on', channel=0, note=85, velocity=0, time=45),\n",
      "  Message('note_on', channel=0, note=81, velocity=0, time=0),\n",
      "  Message('note_on', channel=0, note=78, velocity=0, time=0),\n",
      "  Message('note_on', channel=0, note=85, velocity=87, time=51),\n",
      "  Message('note_on', channel=0, note=81, velocity=87, time=0),\n",
      "  Message('note_on', channel=0, note=78, velocity=87, time=0),\n",
      "  Message('note_on', channel=0, note=85, velocity=0, time=45),\n",
      "  Message('note_on', channel=0, note=81, velocity=0, time=0),\n",
      "  Message('note_on', channel=0, note=78, velocity=0, time=0),\n",
      "  Message('note_on', channel=0, note=85, velocity=87, time=51),\n",
      "  Message('note_on', channel=0, note=81, velocity=87, time=0),\n",
      "  Message('note_on', channel=0, note=78, velocity=87, time=0),\n",
      "  Message('note_on', channel=0, note=85, velocity=0, time=45),\n",
      "  Message('note_on', channel=0, note=81, velocity=0, time=0),\n",
      "  Message('note_on', channel=0, note=78, velocity=0, time=0),\n",
      "  Message('note_on', channel=0, note=85, velocity=87, time=51),\n",
      "  Message('note_on', channel=0, note=81, velocity=87, time=0),\n",
      "  Message('note_on', channel=0, note=78, velocity=87, time=0),\n",
      "  Message('note_on', channel=0, note=85, velocity=0, time=45),\n",
      "  Message('note_on', channel=0, note=81, velocity=0, time=0),\n",
      "  Message('note_on', channel=0, note=78, velocity=0, time=0),\n",
      "  Message('note_on', channel=0, note=86, velocity=87, time=51),\n",
      "  Message('note_on', channel=0, note=81, velocity=87, time=0),\n",
      "  Message('note_on', channel=0, note=78, velocity=87, time=0),\n",
      "  Message('note_on', channel=0, note=86, velocity=0, time=45),\n",
      "  Message('note_on', channel=0, note=81, velocity=0, time=0),\n",
      "  Message('note_on', channel=0, note=78, velocity=0, time=0),\n",
      "  Message('note_on', channel=0, note=86, velocity=87, time=51),\n",
      "  Message('note_on', channel=0, note=81, velocity=87, time=0),\n",
      "  Message('note_on', channel=0, note=78, velocity=87, time=0),\n",
      "  Message('note_on', channel=0, note=86, velocity=0, time=45),\n",
      "  Message('note_on', channel=0, note=81, velocity=0, time=0),\n",
      "  Message('note_on', channel=0, note=78, velocity=0, time=0),\n",
      "  Message('note_on', channel=0, note=86, velocity=87, time=51),\n",
      "  Message('note_on', channel=0, note=81, velocity=87, time=0),\n",
      "  Message('note_on', channel=0, note=78, velocity=87, time=0),\n",
      "  Message('note_on', channel=0, note=86, velocity=0, time=45),\n",
      "  Message('note_on', channel=0, note=81, velocity=0, time=0),\n",
      "  Message('note_on', channel=0, note=78, velocity=0, time=0),\n",
      "  Message('note_on', channel=0, note=86, velocity=87, time=51),\n",
      "  Message('note_on', channel=0, note=81, velocity=87, time=0),\n",
      "  Message('note_on', channel=0, note=78, velocity=87, time=0),\n",
      "  Message('note_on', channel=0, note=86, velocity=0, time=45),\n",
      "  Message('note_on', channel=0, note=81, velocity=0, time=0),\n",
      "  Message('note_on', channel=0, note=78, velocity=0, time=0),\n",
      "  Message('note_on', channel=0, note=86, velocity=87, time=51),\n",
      "  Message('note_on', channel=0, note=83, velocity=87, time=0),\n",
      "  Message('note_on', channel=0, note=78, velocity=87, time=0),\n",
      "  Message('note_on', channel=0, note=86, velocity=0, time=45),\n",
      "  Message('note_on', channel=0, note=83, velocity=0, time=0),\n",
      "  Message('note_on', channel=0, note=78, velocity=0, time=0),\n",
      "  Message('note_on', channel=0, note=86, velocity=87, time=51),\n",
      "  Message('note_on', channel=0, note=83, velocity=87, time=0),\n",
      "  Message('note_on', channel=0, note=78, velocity=87, time=0),\n",
      "  Message('note_on', channel=0, note=86, velocity=0, time=45),\n",
      "  Message('note_on', channel=0, note=83, velocity=0, time=0),\n",
      "  Message('note_on', channel=0, note=78, velocity=0, time=0),\n",
      "  Message('note_on', channel=0, note=86, velocity=87, time=51),\n",
      "  Message('note_on', channel=0, note=83, velocity=87, time=0),\n",
      "  Message('note_on', channel=0, note=78, velocity=87, time=0),\n",
      "  Message('note_on', channel=0, note=86, velocity=0, time=45),\n",
      "  Message('note_on', channel=0, note=83, velocity=0, time=0),\n",
      "  Message('note_on', channel=0, note=78, velocity=0, time=0),\n",
      "  Message('note_on', channel=0, note=86, velocity=87, time=51),\n",
      "  Message('note_on', channel=0, note=83, velocity=87, time=0),\n",
      "  Message('note_on', channel=0, note=78, velocity=87, time=0),\n",
      "  Message('note_on', channel=0, note=86, velocity=0, time=45),\n",
      "  Message('note_on', channel=0, note=83, velocity=0, time=0),\n",
      "  Message('note_on', channel=0, note=78, velocity=0, time=0),\n",
      "  Message('note_on', channel=0, note=68, velocity=87, time=51),\n",
      "  Message('note_on', channel=0, note=68, velocity=0, time=23),\n",
      "  Message('note_on', channel=0, note=69, velocity=87, time=1),\n",
      "  Message('note_on', channel=0, note=69, velocity=0, time=23),\n",
      "  Message('note_on', channel=0, note=71, velocity=87, time=1),\n",
      "  Message('note_on', channel=0, note=71, velocity=0, time=23),\n",
      "  Message('note_on', channel=0, note=69, velocity=87, time=1),\n",
      "  Message('note_on', channel=0, note=69, velocity=0, time=23),\n",
      "  Message('note_on', channel=0, note=68, velocity=87, time=1),\n",
      "  Message('note_on', channel=0, note=68, velocity=0, time=23),\n",
      "  Message('note_on', channel=0, note=64, velocity=87, time=1),\n",
      "  Message('note_on', channel=0, note=64, velocity=0, time=23),\n",
      "  Message('note_on', channel=0, note=66, velocity=87, time=1),\n",
      "  Message('note_on', channel=0, note=66, velocity=0, time=23),\n",
      "  Message('note_on', channel=0, note=68, velocity=87, time=1),\n",
      "  Message('note_on', channel=0, note=68, velocity=0, time=23),\n",
      "  Message('note_on', channel=0, note=69, velocity=87, time=1),\n",
      "  Message('note_on', channel=0, note=69, velocity=0, time=23),\n",
      "  Message('note_on', channel=0, note=71, velocity=87, time=1),\n",
      "  Message('note_on', channel=0, note=71, velocity=0, time=23),\n",
      "  Message('note_on', channel=0, note=73, velocity=87, time=1),\n",
      "  Message('note_on', channel=0, note=73, velocity=0, time=23),\n",
      "  Message('note_on', channel=0, note=71, velocity=87, time=1),\n",
      "  Message('note_on', channel=0, note=71, velocity=0, time=23),\n",
      "  Message('note_on', channel=0, note=73, velocity=87, time=1),\n",
      "  Message('note_on', channel=0, note=73, velocity=0, time=23),\n",
      "  Message('note_on', channel=0, note=71, velocity=87, time=1),\n",
      "  Message('note_on', channel=0, note=71, velocity=0, time=23),\n",
      "  Message('note_on', channel=0, note=69, velocity=87, time=1),\n",
      "  Message('note_on', channel=0, note=69, velocity=0, time=23),\n",
      "  Message('note_on', channel=0, note=68, velocity=87, time=1),\n",
      "  Message('note_on', channel=0, note=68, velocity=0, time=23),\n",
      "  Message('note_on', channel=0, note=66, velocity=87, time=1),\n",
      "  Message('note_on', channel=0, note=66, velocity=0, time=23),\n",
      "  Message('note_on', channel=0, note=68, velocity=87, time=1),\n",
      "  Message('note_on', channel=0, note=68, velocity=0, time=23),\n",
      "  Message('note_on', channel=0, note=69, velocity=87, time=1),\n",
      "  Message('note_on', channel=0, note=69, velocity=0, time=23),\n",
      "  Message('note_on', channel=0, note=68, velocity=87, time=1),\n",
      "  Message('note_on', channel=0, note=68, velocity=0, time=23),\n",
      "  Message('note_on', channel=0, note=66, velocity=87, time=1),\n",
      "  Message('note_on', channel=0, note=66, velocity=0, time=23),\n",
      "  Message('note_on', channel=0, note=62, velocity=87, time=1),\n",
      "  Message('note_on', channel=0, note=62, velocity=0, time=23),\n",
      "  Message('note_on', channel=0, note=64, velocity=87, time=1),\n",
      "  Message('note_on', channel=0, note=64, velocity=0, time=23),\n",
      "  Message('note_on', channel=0, note=66, velocity=87, time=1),\n",
      "  Message('note_on', channel=0, note=66, velocity=0, time=23),\n",
      "  Message('note_on', channel=0, note=68, velocity=87, time=1),\n",
      "  Message('note_on', channel=0, note=68, velocity=0, time=23),\n",
      "  Message('note_on', channel=0, note=69, velocity=87, time=1),\n",
      "  Message('note_on', channel=0, note=69, velocity=0, time=23),\n",
      "  Message('note_on', channel=0, note=71, velocity=87, time=1),\n",
      "  Message('note_on', channel=0, note=71, velocity=0, time=23),\n",
      "  Message('note_on', channel=0, note=69, velocity=87, time=1),\n",
      "  Message('note_on', channel=0, note=69, velocity=0, time=23),\n",
      "  Message('note_on', channel=0, note=68, velocity=87, time=1),\n",
      "  Message('note_on', channel=0, note=68, velocity=0, time=23),\n",
      "  Message('note_on', channel=0, note=66, velocity=87, time=1),\n",
      "  Message('note_on', channel=0, note=66, velocity=0, time=23),\n",
      "  Message('note_on', channel=0, note=64, velocity=87, time=1),\n",
      "  Message('note_on', channel=0, note=64, velocity=0, time=23),\n",
      "  Message('note_on', channel=0, note=62, velocity=87, time=1),\n",
      "  Message('note_on', channel=0, note=62, velocity=0, time=23),\n",
      "  Message('note_on', channel=0, note=61, velocity=87, time=1),\n",
      "  Message('note_on', channel=0, note=61, velocity=0, time=23),\n",
      "  Message('note_on', channel=0, note=64, velocity=87, time=1),\n",
      "  Message('note_on', channel=0, note=64, velocity=0, time=23),\n",
      "  Message('note_on', channel=0, note=62, velocity=87, time=1),\n",
      "  Message('note_on', channel=0, note=62, velocity=0, time=23),\n",
      "  Message('note_on', channel=0, note=61, velocity=87, time=1),\n",
      "  Message('note_on', channel=0, note=61, velocity=0, time=23),\n",
      "  Message('note_on', channel=0, note=62, velocity=87, time=1),\n",
      "  Message('note_on', channel=0, note=62, velocity=0, time=23),\n",
      "  Message('note_on', channel=0, note=64, velocity=87, time=1),\n",
      "  Message('note_on', channel=0, note=64, velocity=0, time=23),\n",
      "  Message('note_on', channel=0, note=66, velocity=87, time=1),\n",
      "  Message('note_on', channel=0, note=66, velocity=0, time=23),\n",
      "  Message('note_on', channel=0, note=68, velocity=87, time=1),\n",
      "  Message('note_on', channel=0, note=68, velocity=0, time=23),\n",
      "  Message('note_on', channel=0, note=69, velocity=87, time=1),\n",
      "  Message('note_on', channel=0, note=69, velocity=0, time=23),\n",
      "  Message('note_on', channel=0, note=71, velocity=87, time=1),\n",
      "  Message('note_on', channel=0, note=71, velocity=0, time=23),\n",
      "  Message('note_on', channel=0, note=73, velocity=87, time=1),\n",
      "  Message('note_on', channel=0, note=73, velocity=0, time=23),\n",
      "  Message('note_on', channel=0, note=74, velocity=87, time=1),\n",
      "  Message('note_on', channel=0, note=74, velocity=0, time=23),\n",
      "  Message('note_on', channel=0, note=76, velocity=87, time=1),\n",
      "  Message('note_on', channel=0, note=76, velocity=0, time=23),\n",
      "  Message('note_on', channel=0, note=78, velocity=87, time=1),\n",
      "  Message('note_on', channel=0, note=78, velocity=0, time=23),\n",
      "  Message('note_on', channel=0, note=80, velocity=87, time=1),\n",
      "  Message('note_on', channel=0, note=80, velocity=0, time=23),\n",
      "  Message('note_on', channel=0, note=81, velocity=87, time=1),\n",
      "  Message('note_on', channel=0, note=81, velocity=0, time=23),\n",
      "  Message('note_on', channel=0, note=78, velocity=87, time=1),\n",
      "  Message('note_on', channel=0, note=78, velocity=0, time=23),\n",
      "  Message('note_on', channel=0, note=80, velocity=87, time=1),\n",
      "  Message('note_on', channel=0, note=80, velocity=0, time=23),\n",
      "  Message('note_on', channel=0, note=78, velocity=87, time=1),\n",
      "  Message('note_on', channel=0, note=78, velocity=0, time=23),\n",
      "  Message('note_on', channel=0, note=76, velocity=87, time=1),\n",
      "  Message('note_on', channel=0, note=76, velocity=0, time=23),\n",
      "  Message('note_on', channel=0, note=74, velocity=87, time=1),\n",
      "  Message('note_on', channel=0, note=74, velocity=0, time=23),\n",
      "  Message('note_on', channel=0, note=73, velocity=87, time=1),\n",
      "  Message('note_on', channel=0, note=73, velocity=0, time=23),\n",
      "  Message('note_on', channel=0, note=71, velocity=87, time=1),\n",
      "  Message('note_on', channel=0, note=71, velocity=0, time=23),\n",
      "  Message('note_on', channel=0, note=69, velocity=87, time=1),\n",
      "  Message('note_on', channel=0, note=69, velocity=0, time=23),\n",
      "  Message('note_on', channel=0, note=68, velocity=87, time=1),\n",
      "  Message('note_on', channel=0, note=68, velocity=0, time=23),\n",
      "  Message('note_on', channel=0, note=69, velocity=87, time=1),\n",
      "  Message('note_on', channel=0, note=69, velocity=0, time=23),\n",
      "  Message('note_on', channel=0, note=68, velocity=87, time=1),\n",
      "  Message('note_on', channel=0, note=68, velocity=0, time=23),\n",
      "  Message('note_on', channel=0, note=66, velocity=87, time=1),\n",
      "  Message('note_on', channel=0, note=66, velocity=0, time=23),\n",
      "  Message('note_on', channel=0, note=64, velocity=87, time=1),\n",
      "  Message('note_on', channel=0, note=64, velocity=0, time=23),\n",
      "  Message('note_on', channel=0, note=62, velocity=87, time=1),\n",
      "  Message('note_on', channel=0, note=62, velocity=0, time=23),\n",
      "  Message('note_on', channel=0, note=61, velocity=87, time=1),\n",
      "  Message('note_on', channel=0, note=61, velocity=0, time=23),\n",
      "  Message('note_on', channel=0, note=59, velocity=87, time=1),\n",
      "  Message('note_on', channel=0, note=59, velocity=0, time=23),\n",
      "  Message('note_on', channel=0, note=57, velocity=87, time=1),\n",
      "  Message('note_on', channel=0, note=57, velocity=0, time=23),\n",
      "  Message('note_on', channel=0, note=61, velocity=86, time=1),\n",
      "  Message('note_on', channel=0, note=61, velocity=0, time=23),\n",
      "  Message('note_on', channel=0, note=64, velocity=85, time=1),\n",
      "  Message('note_on', channel=0, note=64, velocity=0, time=23),\n",
      "  Message('note_on', channel=0, note=69, velocity=84, time=1),\n",
      "  Message('note_on', channel=0, note=69, velocity=0, time=23),\n",
      "  Message('note_on', channel=0, note=73, velocity=84, time=1),\n",
      "  Message('note_on', channel=0, note=73, velocity=0, time=23),\n",
      "  Message('note_on', channel=0, note=69, velocity=83, time=1),\n",
      "  Message('note_on', channel=0, note=69, velocity=0, time=23),\n",
      "  Message('note_on', channel=0, note=76, velocity=82, time=1),\n",
      "  Message('note_on', channel=0, note=76, velocity=0, time=23),\n",
      "  Message('note_on', channel=0, note=73, velocity=81, time=1),\n",
      "  Message('note_on', channel=0, note=73, velocity=0, time=23),\n",
      "  Message('note_on', channel=0, note=81, velocity=81, time=1),\n",
      "  Message('note_on', channel=0, note=81, velocity=0, time=23),\n",
      "  Message('note_on', channel=0, note=76, velocity=80, time=1),\n",
      "  Message('note_on', channel=0, note=76, velocity=0, time=23),\n",
      "  Message('note_on', channel=0, note=85, velocity=79, time=1),\n",
      "  Message('note_on', channel=0, note=85, velocity=0, time=23),\n",
      "  Message('note_on', channel=0, note=81, velocity=78, time=1),\n",
      "  Message('note_on', channel=0, note=81, velocity=0, time=23),\n",
      "  Message('note_on', channel=0, note=88, velocity=78, time=1),\n",
      "  Message('note_on', channel=0, note=88, velocity=0, time=20),\n",
      "  Message('note_on', channel=0, note=88, velocity=78, time=28),\n",
      "  Message('note_on', channel=0, note=88, velocity=0, time=20),\n",
      "  Message('note_on', channel=0, note=88, velocity=94, time=28),\n",
      "  Message('note_on', channel=0, note=88, velocity=0, time=48),\n",
      "  Message('note_on', channel=0, note=78, velocity=78, time=0),\n",
      "  Message('note_on', channel=0, note=78, velocity=0, time=45),\n",
      "  Message('note_on', channel=0, note=78, velocity=78, time=3),\n",
      "  Message('note_on', channel=0, note=78, velocity=0, time=140),\n",
      "  Message('note_on', channel=0, note=82, velocity=78, time=4),\n",
      "  Message('note_on', channel=0, note=82, velocity=0, time=23),\n",
      "  Message('note_on', channel=0, note=83, velocity=78, time=1),\n",
      "  Message('note_on', channel=0, note=83, velocity=0, time=23),\n",
      "  Message('note_on', channel=0, note=86, velocity=78, time=1),\n",
      "  Message('note_on', channel=0, note=86, velocity=0, time=20),\n",
      "  Message('note_on', channel=0, note=86, velocity=78, time=28),\n",
      "  Message('note_on', channel=0, note=86, velocity=0, time=20),\n",
      "  Message('note_on', channel=0, note=86, velocity=94, time=28),\n",
      "  Message('note_on', channel=0, note=86, velocity=0, time=48),\n",
      "  Message('note_on', channel=0, note=76, velocity=78, time=0),\n",
      "  Message('note_on', channel=0, note=76, velocity=0, time=45),\n",
      "  Message('note_on', channel=0, note=76, velocity=79, time=3),\n",
      "  Message('note_on', channel=0, note=76, velocity=0, time=140),\n",
      "  Message('note_on', channel=0, note=80, velocity=79, time=4),\n",
      "  Message('note_on', channel=0, note=80, velocity=0, time=23),\n",
      "  Message('note_on', channel=0, note=81, velocity=79, time=1),\n",
      "  Message('note_on', channel=0, note=81, velocity=0, time=23),\n",
      "  Message('note_on', channel=0, note=85, velocity=79, time=1),\n",
      "  Message('note_on', channel=0, note=85, velocity=0, time=20),\n",
      "  Message('note_on', channel=0, note=85, velocity=80, time=28),\n",
      "  Message('note_on', channel=0, note=85, velocity=0, time=20),\n",
      "  Message('note_on', channel=0, note=85, velocity=96, time=28),\n",
      "  Message('note_on', channel=0, note=85, velocity=0, time=48),\n",
      "  Message('note_on', channel=0, note=74, velocity=80, time=0),\n",
      "  Message('note_on', channel=0, note=74, velocity=0, time=45),\n",
      "  Message('note_on', channel=0, note=74, velocity=80, time=3),\n",
      "  Message('note_on', channel=0, note=74, velocity=0, time=140),\n",
      "  Message('note_on', channel=0, note=79, velocity=81, time=4),\n",
      "  Message('note_on', channel=0, note=79, velocity=0, time=23),\n",
      "  Message('note_on', channel=0, note=80, velocity=81, time=1),\n",
      "  Message('note_on', channel=0, note=80, velocity=0, time=23),\n",
      "  Message('note_on', channel=0, note=83, velocity=81, time=1),\n",
      "  Message('note_on', channel=0, note=83, velocity=0, time=20),\n",
      "  Message('note_on', channel=0, note=83, velocity=81, time=28),\n",
      "  Message('note_on', channel=0, note=83, velocity=0, time=20),\n",
      "  Message('note_on', channel=0, note=83, velocity=97, time=28),\n",
      "  Message('note_on', channel=0, note=83, velocity=0, time=48),\n",
      "  Message('note_on', channel=0, note=73, velocity=82, time=0),\n",
      "  Message('note_on', channel=0, note=73, velocity=0, time=45),\n",
      "  Message('note_on', channel=0, note=73, velocity=82, time=3),\n",
      "  Message('note_on', channel=0, note=73, velocity=0, time=140),\n",
      "  Message('note_on', channel=0, note=77, velocity=83, time=4),\n",
      "  Message('note_on', channel=0, note=77, velocity=0, time=23),\n",
      "  Message('note_on', channel=0, note=78, velocity=83, time=1),\n",
      "  Message('note_on', channel=0, note=78, velocity=0, time=23),\n",
      "  Message('note_on', channel=0, note=81, velocity=83, time=1),\n",
      "  Message('note_on', channel=0, note=81, velocity=0, time=20),\n",
      "  Message('note_on', channel=0, note=81, velocity=83, time=28),\n",
      "  Message('note_on', channel=0, note=81, velocity=0, time=20),\n",
      "  Message('note_on', channel=0, note=81, velocity=99, time=28),\n",
      "  Message('note_on', channel=0, note=81, velocity=0, time=48),\n",
      "  Message('note_on', channel=0, note=71, velocity=83, time=0),\n",
      "  Message('note_on', channel=0, note=71, velocity=0, time=45),\n",
      "  Message('note_on', channel=0, note=71, velocity=84, time=51),\n",
      "  Message('note_on', channel=0, note=71, velocity=0, time=20),\n",
      "  Message('note_on', channel=0, note=71, velocity=84, time=76),\n",
      "  Message('note_on', channel=0, note=71, velocity=0, time=20),\n",
      "  Message('note_on', channel=0, note=71, velocity=85, time=76),\n",
      "  Message('note_on', channel=0, note=71, velocity=0, time=12),\n",
      "  Message('note_on', channel=0, note=73, velocity=85, time=0),\n",
      "  Message('note_on', channel=0, note=73, velocity=0, time=12),\n",
      "  Message('note_on', channel=0, note=71, velocity=85, time=0),\n",
      "  Message('note_on', channel=0, note=71, velocity=0, time=12),\n",
      "  Message('note_on', channel=0, note=73, velocity=85, time=0),\n",
      "  Message('note_on', channel=0, note=73, velocity=0, time=9),\n",
      "  Message('note_on', channel=0, note=81, velocity=101, time=3),\n",
      "  Message('note_on', channel=0, note=81, velocity=0, time=48),\n",
      "  Message('note_on', channel=0, note=72, velocity=85, time=0),\n",
      "  Message('note_on', channel=0, note=72, velocity=0, time=45),\n",
      "  Message('note_on', channel=0, note=72, velocity=85, time=51),\n",
      "  Message('note_on', channel=0, note=72, velocity=0, time=20),\n",
      "  Message('note_on', channel=0, note=72, velocity=86, time=76),\n",
      "  Message('note_on', channel=0, note=72, velocity=0, time=20),\n",
      "  Message('note_on', channel=0, note=72, velocity=86, time=76),\n",
      "  Message('note_on', channel=0, note=72, velocity=0, time=12),\n",
      "  Message('note_on', channel=0, note=74, velocity=86, time=0),\n",
      "  Message('note_on', channel=0, note=74, velocity=0, time=12),\n",
      "  Message('note_on', channel=0, note=72, velocity=86, time=0),\n",
      "  Message('note_on', channel=0, note=72, velocity=0, time=12),\n",
      "  Message('note_on', channel=0, note=74, velocity=86, time=0),\n",
      "  Message('note_on', channel=0, note=74, velocity=0, time=9),\n",
      "  Message('note_on', channel=0, note=73, velocity=87, time=3),\n",
      "  Message('note_on', channel=0, note=73, velocity=0, time=23),\n",
      "  Message('note_on', channel=0, note=69, velocity=87, time=1),\n",
      "  Message('note_on', channel=0, note=69, velocity=0, time=23),\n",
      "  Message('note_on', channel=0, note=76, velocity=87, time=1),\n",
      "  Message('note_on', channel=0, note=76, velocity=0, time=23),\n",
      "  Message('note_on', channel=0, note=73, velocity=87, time=1),\n",
      "  Message('note_on', channel=0, note=73, velocity=0, time=23),\n",
      "  Message('note_on', channel=0, note=81, velocity=87, time=1),\n",
      "  Message('note_on', channel=0, note=81, velocity=0, time=23),\n",
      "  Message('note_on', channel=0, note=76, velocity=87, time=1),\n",
      "  Message('note_on', channel=0, note=76, velocity=0, time=23),\n",
      "  Message('note_on', channel=0, note=85, velocity=87, time=1),\n",
      "  Message('note_on', channel=0, note=85, velocity=0, time=23),\n",
      "  Message('note_on', channel=0, note=81, velocity=87, time=1),\n",
      "  Message('note_on', channel=0, note=81, velocity=0, time=23),\n",
      "  Message('note_on', channel=0, note=88, velocity=87, time=1),\n",
      "  Message('note_on', channel=0, note=88, velocity=0, time=23),\n",
      "  Message('note_on', channel=0, note=85, velocity=87, time=1),\n",
      "  Message('note_on', channel=0, note=85, velocity=0, time=23),\n",
      "  Message('note_on', channel=0, note=81, velocity=87, time=1),\n",
      "  Message('note_on', channel=0, note=81, velocity=0, time=23),\n",
      "  Message('note_on', channel=0, note=76, velocity=87, time=1),\n",
      "  Message('note_on', channel=0, note=76, velocity=0, time=23),\n",
      "  Message('note_on', channel=0, note=81, velocity=87, time=1),\n",
      "  Message('note_on', channel=0, note=81, velocity=0, time=23),\n",
      "  Message('note_on', channel=0, note=76, velocity=87, time=1),\n",
      "  Message('note_on', channel=0, note=76, velocity=0, time=23),\n",
      "  Message('note_on', channel=0, note=73, velocity=87, time=1),\n",
      "  Message('note_on', channel=0, note=73, velocity=0, time=23),\n",
      "  Message('note_on', channel=0, note=69, velocity=87, time=1),\n",
      "  Message('note_on', channel=0, note=69, velocity=0, time=23),\n",
      "  Message('note_on', channel=0, note=73, velocity=87, time=1),\n",
      "  Message('note_on', channel=0, note=73, velocity=0, time=177),\n",
      "  Message('note_on', channel=0, note=71, velocity=85, time=15),\n",
      "  Message('note_on', channel=0, note=71, velocity=0, time=18),\n",
      "  Message('note_on', channel=0, note=73, velocity=85, time=0),\n",
      "  Message('note_on', channel=0, note=73, velocity=0, time=18),\n",
      "  Message('note_on', channel=0, note=71, velocity=85, time=0),\n",
      "  Message('note_on', channel=0, note=71, velocity=0, time=18),\n",
      "  Message('note_on', channel=0, note=73, velocity=85, time=0),\n",
      "  Message('note_on', channel=0, note=73, velocity=0, time=18),\n",
      "  Message('note_on', channel=0, note=71, velocity=85, time=0),\n",
      "  Message('note_on', channel=0, note=71, velocity=0, time=18),\n",
      "  Message('note_on', channel=0, note=73, velocity=85, time=0),\n",
      "  Message('note_on', channel=0, note=73, velocity=0, time=18),\n",
      "  Message('note_on', channel=0, note=71, velocity=85, time=0),\n",
      "  Message('note_on', channel=0, note=71, velocity=0, time=18),\n",
      "  Message('note_on', channel=0, note=73, velocity=85, time=0),\n",
      "  Message('note_on', channel=0, note=73, velocity=0, time=7),\n",
      "  Message('note_on', channel=0, note=69, velocity=83, time=11),\n",
      "  Message('note_on', channel=0, note=69, velocity=0, time=23),\n",
      "  Message('note_on', channel=0, note=71, velocity=83, time=1),\n",
      "  Message('note_on', channel=0, note=71, velocity=0, time=23),\n",
      "  Message('note_on', channel=0, note=69, velocity=83, time=1),\n",
      "  Message('note_on', channel=0, note=69, velocity=0, time=89),\n",
      "  Message('note_on', channel=0, note=69, velocity=82, time=31),\n",
      "  Message('note_on', channel=0, note=69, velocity=0, time=23),\n",
      "  Message('note_on', channel=0, note=71, velocity=82, time=1),\n",
      "  Message('note_on', channel=0, note=71, velocity=0, time=23),\n",
      "  Message('note_on', channel=0, note=73, velocity=82, time=1),\n",
      "  Message('note_on', channel=0, note=73, velocity=0, time=23),\n",
      "  Message('note_on', channel=0, note=74, velocity=82, time=1),\n",
      "  Message('note_on', channel=0, note=74, velocity=0, time=23),\n",
      "  Message('note_on', channel=0, note=76, velocity=82, time=1),\n",
      "  Message('note_on', channel=0, note=76, velocity=0, time=23),\n",
      "  Message('note_on', channel=0, note=78, velocity=82, time=1),\n",
      "  Message('note_on', channel=0, note=78, velocity=0, time=23),\n",
      "  Message('note_on', channel=0, note=80, velocity=82, time=1),\n",
      "  Message('note_on', channel=0, note=80, velocity=0, time=23),\n",
      "  Message('note_on', channel=0, note=81, velocity=82, time=1),\n",
      "  Message('note_on', channel=0, note=81, velocity=0, time=23),\n",
      "  Message('note_on', channel=0, note=83, velocity=82, time=1),\n",
      "  Message('note_on', channel=0, note=83, velocity=0, time=23),\n",
      "  Message('note_on', channel=0, note=85, velocity=82, time=1),\n",
      "  Message('note_on', channel=0, note=85, velocity=0, time=23),\n",
      "  Message('note_on', channel=0, note=81, velocity=82, time=1),\n",
      "  Message('note_on', channel=0, note=81, velocity=0, time=23),\n",
      "  Message('note_on', channel=0, note=86, velocity=82, time=1),\n",
      "  Message('note_on', channel=0, note=86, velocity=0, time=20),\n",
      "  Message('note_on', channel=0, note=83, velocity=82, time=28),\n",
      "  Message('note_on', channel=0, note=83, velocity=0, time=20),\n",
      "  Message('note_on', channel=0, note=78, velocity=82, time=28),\n",
      "  Message('note_on', channel=0, note=78, velocity=0, time=119),\n",
      "  Message('note_on', channel=0, note=80, velocity=82, time=1),\n",
      "  Message('note_on', channel=0, note=80, velocity=0, time=23),\n",
      "  Message('note_on', channel=0, note=81, velocity=82, time=1),\n",
      "  Message('note_on', channel=0, note=81, velocity=0, time=23),\n",
      "  Message('note_on', channel=0, note=78, velocity=82, time=1),\n",
      "  Message('note_on', channel=0, note=78, velocity=0, time=23),\n",
      "  Message('note_on', channel=0, note=80, velocity=82, time=1),\n",
      "  Message('note_on', channel=0, note=80, velocity=0, time=23),\n",
      "  Message('note_on', channel=0, note=81, velocity=82, time=1),\n",
      "  Message('note_on', channel=0, note=81, velocity=0, time=23),\n",
      "  Message('note_on', channel=0, note=83, velocity=82, time=1),\n",
      "  Message('note_on', channel=0, note=83, velocity=0, time=23),\n",
      "  Message('note_on', channel=0, note=80, velocity=82, time=1),\n",
      "  Message('note_on', channel=0, note=80, velocity=0, time=23),\n",
      "  Message('note_on', channel=0, note=81, velocity=82, time=1),\n",
      "  Message('note_on', channel=0, note=81, velocity=0, time=89),\n",
      "  Message('note_on', channel=0, note=69, velocity=78, time=31),\n",
      "  Message('note_on', channel=0, note=69, velocity=0, time=23),\n",
      "  Message('note_on', channel=0, note=71, velocity=78, time=1),\n",
      "  Message('note_on', channel=0, note=71, velocity=0, time=23),\n",
      "  Message('note_on', channel=0, note=73, velocity=78, time=1),\n",
      "  Message('note_on', channel=0, note=73, velocity=0, time=23),\n",
      "  Message('note_on', channel=0, note=74, velocity=78, time=1),\n",
      "  Message('note_on', channel=0, note=74, velocity=0, time=23),\n",
      "  Message('note_on', channel=0, note=76, velocity=78, time=1),\n",
      "  Message('note_on', channel=0, note=76, velocity=0, time=23),\n",
      "  Message('note_on', channel=0, note=78, velocity=78, time=1),\n",
      "  Message('note_on', channel=0, note=78, velocity=0, time=23),\n",
      "  Message('note_on', channel=0, note=80, velocity=78, time=1),\n",
      "  Message('note_on', channel=0, note=80, velocity=0, time=23),\n",
      "  Message('note_on', channel=0, note=81, velocity=78, time=1),\n",
      "  Message('note_on', channel=0, note=81, velocity=0, time=23),\n",
      "  Message('note_on', channel=0, note=83, velocity=78, time=1),\n",
      "  Message('note_on', channel=0, note=83, velocity=0, time=23),\n",
      "  Message('note_on', channel=0, note=85, velocity=78, time=1),\n",
      "  Message('note_on', channel=0, note=85, velocity=0, time=23),\n",
      "  Message('note_on', channel=0, note=81, velocity=78, time=1),\n",
      "  Message('note_on', channel=0, note=81, velocity=0, time=23),\n",
      "  Message('note_on', channel=0, note=86, velocity=78, time=1),\n",
      "  Message('note_on', channel=0, note=86, velocity=0, time=20),\n",
      "  Message('note_on', channel=0, note=83, velocity=78, time=28),\n",
      "  Message('note_on', channel=0, note=83, velocity=0, time=20),\n",
      "  Message('note_on', channel=0, note=78, velocity=78, time=28),\n",
      "  Message('note_on', channel=0, note=78, velocity=0, time=119),\n",
      "  Message('note_on', channel=0, note=80, velocity=78, time=1),\n",
      "  Message('note_on', channel=0, note=80, velocity=0, time=23),\n",
      "  Message('note_on', channel=0, note=81, velocity=78, time=1),\n",
      "  Message('note_on', channel=0, note=81, velocity=0, time=23),\n",
      "  Message('note_on', channel=0, note=78, velocity=78, time=1),\n",
      "  Message('note_on', channel=0, note=78, velocity=0, time=23),\n",
      "  Message('note_on', channel=0, note=80, velocity=78, time=1),\n",
      "  Message('note_on', channel=0, note=80, velocity=0, time=23),\n",
      "  Message('note_on', channel=0, note=81, velocity=78, time=1),\n",
      "  Message('note_on', channel=0, note=81, velocity=0, time=23),\n",
      "  Message('note_on', channel=0, note=83, velocity=78, time=1),\n",
      "  Message('note_on', channel=0, note=83, velocity=0, time=23),\n",
      "  Message('note_on', channel=0, note=80, velocity=78, time=1),\n",
      "  Message('note_on', channel=0, note=80, velocity=0, time=23),\n",
      "  Message('note_on', channel=0, note=81, velocity=78, time=1),\n",
      "  Message('note_on', channel=0, note=81, velocity=0, time=10),\n",
      "  Message('note_on', channel=0, note=73, velocity=78, time=14),\n",
      "  Message('note_on', channel=0, note=73, velocity=0, time=23),\n",
      "  Message('note_on', channel=0, note=76, velocity=79, time=1),\n",
      "  Message('note_on', channel=0, note=76, velocity=0, time=23),\n",
      "  Message('note_on', channel=0, note=81, velocity=80, time=1),\n",
      "  Message('note_on', channel=0, note=81, velocity=0, time=23),\n",
      "  Message('note_on', channel=0, note=85, velocity=81, time=1),\n",
      "  Message('note_on', channel=0, note=85, velocity=0, time=23),\n",
      "  Message('note_on', channel=0, note=76, velocity=82, time=1),\n",
      "  Message('note_on', channel=0, note=76, velocity=0, time=23),\n",
      "  Message('note_on', channel=0, note=81, velocity=83, time=1),\n",
      "  Message('note_on', channel=0, note=81, velocity=0, time=23),\n",
      "  Message('note_on', channel=0, note=85, velocity=84, time=1),\n",
      "  Message('note_on', channel=0, note=85, velocity=0, time=23),\n",
      "  Message('note_on', channel=0, note=88, velocity=85, time=1),\n",
      "  Message('note_on', channel=0, note=88, velocity=0, time=20),\n",
      "  Message('note_on', channel=0, note=88, velocity=87, time=28),\n",
      "  Message('note_on', channel=0, note=88, velocity=0, time=20),\n",
      "  Message('note_on', channel=0, note=80, velocity=87, time=76),\n",
      "  Message('note_on', channel=0, note=76, velocity=87, time=0),\n",
      "  Message('note_on', channel=0, note=74, velocity=87, time=0),\n",
      "  Message('note_on', channel=0, note=71, velocity=87, time=0),\n",
      "  Message('note_on', channel=0, note=80, velocity=0, time=20),\n",
      "  Message('note_on', channel=0, note=76, velocity=0, time=0),\n",
      "  Message('note_on', channel=0, note=74, velocity=0, time=0),\n",
      "  Message('note_on', channel=0, note=71, velocity=0, time=0),\n",
      "  Message('note_on', channel=0, note=81, velocity=87, time=28),\n",
      "  Message('note_on', channel=0, note=76, velocity=87, time=0),\n",
      "  Message('note_on', channel=0, note=73, velocity=87, time=0),\n",
      "  Message('note_on', channel=0, note=81, velocity=0, time=89),\n",
      "  Message('note_on', channel=0, note=76, velocity=0, time=0),\n",
      "  Message('note_on', channel=0, note=73, velocity=0, time=0),\n",
      "  Message('note_on', channel=0, note=80, velocity=87, time=199),\n",
      "  Message('note_on', channel=0, note=76, velocity=87, time=0),\n",
      "  Message('note_on', channel=0, note=74, velocity=87, time=0),\n",
      "  Message('note_on', channel=0, note=71, velocity=87, time=0),\n",
      "  Message('note_on', channel=0, note=80, velocity=0, time=89),\n",
      "  Message('note_on', channel=0, note=76, velocity=0, time=0),\n",
      "  Message('note_on', channel=0, note=74, velocity=0, time=0),\n",
      "  Message('note_on', channel=0, note=71, velocity=0, time=0),\n",
      "  Message('note_on', channel=0, note=69, velocity=87, time=7),\n",
      "  Message('note_on', channel=0, note=73, velocity=87, time=6),\n",
      "  Message('note_on', channel=0, note=76, velocity=87, time=6),\n",
      "  Message('note_on', channel=0, note=81, velocity=87, time=6),\n",
      "  Message('note_on', channel=0, note=81, velocity=0, time=75),\n",
      "  Message('note_on', channel=0, note=76, velocity=0, time=0),\n",
      "  Message('note_on', channel=0, note=73, velocity=0, time=0),\n",
      "  Message('note_on', channel=0, note=69, velocity=0, time=0),\n",
      "  Message('note_on', channel=0, note=73, velocity=87, time=3),\n",
      "  Message('note_on', channel=0, note=76, velocity=87, time=6),\n",
      "  Message('note_on', channel=0, note=81, velocity=87, time=6),\n",
      "  Message('note_on', channel=0, note=85, velocity=87, time=6),\n",
      "  Message('note_on', channel=0, note=85, velocity=0, time=75),\n",
      "  Message('note_on', channel=0, note=81, velocity=0, time=0),\n",
      "  Message('note_on', channel=0, note=76, velocity=0, time=0),\n",
      "  Message('note_on', channel=0, note=73, velocity=0, time=0),\n",
      "  Message('note_on', channel=0, note=76, velocity=87, time=3),\n",
      "  Message('note_on', channel=0, note=81, velocity=87, time=6),\n",
      "  Message('note_on', channel=0, note=85, velocity=87, time=6),\n",
      "  Message('note_on', channel=0, note=88, velocity=87, time=6),\n",
      "  Message('note_on', channel=0, note=88, velocity=0, time=75),\n",
      "  Message('note_on', channel=0, note=85, velocity=0, time=0),\n",
      "  Message('note_on', channel=0, note=81, velocity=0, time=0),\n",
      "  Message('note_on', channel=0, note=76, velocity=0, time=0),\n",
      "  Message('note_on', channel=0, note=73, velocity=87, time=3),\n",
      "  Message('note_on', channel=0, note=76, velocity=87, time=6),\n",
      "  Message('note_on', channel=0, note=81, velocity=87, time=6),\n",
      "  Message('note_on', channel=0, note=85, velocity=87, time=6),\n",
      "  Message('note_on', channel=0, note=85, velocity=0, time=75),\n",
      "  Message('note_on', channel=0, note=81, velocity=0, time=0),\n",
      "  Message('note_on', channel=0, note=76, velocity=0, time=0),\n",
      "  Message('note_on', channel=0, note=73, velocity=0, time=0),\n",
      "  Message('note_on', channel=0, note=69, velocity=87, time=3),\n",
      "  Message('note_on', channel=0, note=73, velocity=87, time=6),\n",
      "  Message('note_on', channel=0, note=76, velocity=87, time=6),\n",
      "  Message('note_on', channel=0, note=81, velocity=87, time=6),\n",
      "  Message('note_on', channel=0, note=81, velocity=0, time=75),\n",
      "  Message('note_on', channel=0, note=76, velocity=0, time=0),\n",
      "  Message('note_on', channel=0, note=73, velocity=0, time=0),\n",
      "  Message('note_on', channel=0, note=69, velocity=0, time=0),\n",
      "  Message('note_on', channel=0, note=69, velocity=87, time=3),\n",
      "  Message('note_on', channel=0, note=69, velocity=0, time=67),\n",
      "  Message('note_on', channel=0, note=69, velocity=87, time=5),\n",
      "  Message('note_on', channel=0, note=69, velocity=0, time=23),\n",
      "  Message('note_on', channel=0, note=69, velocity=87, time=1),\n",
      "  Message('note_on', channel=0, note=69, velocity=0, time=89),\n",
      "  Message('note_on', channel=0, note=81, velocity=87, time=1639),\n",
      "  Message('note_on', channel=0, note=81, velocity=0, time=177),\n",
      "  Message('note_on', channel=0, note=80, velocity=87, time=15),\n",
      "  Message('note_on', channel=0, note=80, velocity=0, time=89),\n",
      "  Message('note_on', channel=0, note=78, velocity=87, time=7),\n",
      "  Message('note_on', channel=0, note=78, velocity=0, time=89),\n",
      "  Message('note_on', channel=0, note=75, velocity=87, time=7),\n",
      "  Message('note_on', channel=0, note=75, velocity=0, time=89),\n",
      "  Message('note_on', channel=0, note=76, velocity=87, time=7),\n",
      "  Message('note_on', channel=0, note=76, velocity=0, time=141),\n",
      "  Message('note_on', channel=0, note=69, velocity=87, time=3),\n",
      "  Message('note_on', channel=0, note=69, velocity=0, time=45),\n",
      "  Message('note_on', channel=0, note=74, velocity=87, time=3),\n",
      "  Message('note_on', channel=0, note=74, velocity=0, time=45),\n",
      "  Message('note_on', channel=0, note=73, velocity=87, time=3),\n",
      "  Message('note_on', channel=0, note=73, velocity=0, time=45),\n",
      "  Message('note_on', channel=0, note=72, velocity=87, time=3),\n",
      "  Message('note_on', channel=0, note=72, velocity=0, time=89),\n",
      "  Message('note_on', channel=0, note=73, velocity=87, time=7),\n",
      "  Message('note_on', channel=0, note=73, velocity=0, time=141),\n",
      "  Message('note_on', channel=0, note=66, velocity=87, time=3),\n",
      "  Message('note_on', channel=0, note=66, velocity=0, time=45),\n",
      "  Message('note_on', channel=0, note=71, velocity=87, time=3),\n",
      "  Message('note_on', channel=0, note=71, velocity=0, time=45),\n",
      "  Message('note_on', channel=0, note=69, velocity=87, time=3),\n",
      "  Message('note_on', channel=0, note=69, velocity=0, time=45),\n",
      "  Message('note_on', channel=0, note=68, velocity=87, time=3),\n",
      "  Message('note_on', channel=0, note=68, velocity=0, time=89),\n",
      "  Message('note_on', channel=0, note=69, velocity=87, time=7),\n",
      "  Message('note_on', channel=0, note=69, velocity=0, time=89),\n",
      "  Message('note_on', channel=0, note=76, velocity=87, time=7),\n",
      "  Message('note_on', channel=0, note=76, velocity=0, time=18),\n",
      "  Message('note_on', channel=0, note=74, velocity=87, time=0),\n",
      "  Message('note_on', channel=0, note=74, velocity=0, time=18),\n",
      "  Message('note_on', channel=0, note=76, velocity=87, time=0),\n",
      "  Message('note_on', channel=0, note=76, velocity=0, time=18),\n",
      "  Message('note_on', channel=0, note=74, velocity=87, time=0),\n",
      "  Message('note_on', channel=0, note=74, velocity=0, time=18),\n",
      "  Message('note_on', channel=0, note=76, velocity=87, time=0),\n",
      "  Message('note_on', channel=0, note=76, velocity=0, time=18),\n",
      "  Message('note_on', channel=0, note=74, velocity=87, time=0),\n",
      "  Message('note_on', channel=0, note=74, velocity=0, time=18),\n",
      "  Message('note_on', channel=0, note=76, velocity=87, time=0),\n",
      "  Message('note_on', channel=0, note=76, velocity=0, time=18),\n",
      "  Message('note_on', channel=0, note=74, velocity=87, time=0),\n",
      "  Message('note_on', channel=0, note=74, velocity=0, time=7),\n",
      "  Message('note_on', channel=0, note=73, velocity=87, time=11),\n",
      "  Message('note_on', channel=0, note=73, velocity=0, time=23),\n",
      "  Message('note_on', channel=0, note=74, velocity=87, time=1),\n",
      "  Message('note_on', channel=0, note=74, velocity=0, time=23),\n",
      "  Message('note_on', channel=0, note=73, velocity=87, time=1),\n",
      "  Message('note_on', channel=0, note=73, velocity=0, time=23),\n",
      "  Message('note_on', channel=0, note=69, velocity=87, time=1),\n",
      "  Message('note_on', channel=0, note=69, velocity=0, time=23),\n",
      "  Message('note_on', channel=0, note=74, velocity=87, time=1),\n",
      "  Message('note_on', channel=0, note=74, velocity=0, time=23),\n",
      "  Message('note_on', channel=0, note=71, velocity=88, time=1),\n",
      "  Message('note_on', channel=0, note=71, velocity=0, time=23),\n",
      "  Message('note_on', channel=0, note=76, velocity=88, time=1),\n",
      "  Message('note_on', channel=0, note=76, velocity=0, time=23),\n",
      "  Message('note_on', channel=0, note=73, velocity=88, time=1),\n",
      "  Message('note_on', channel=0, note=73, velocity=0, time=23),\n",
      "  Message('note_on', channel=0, note=78, velocity=89, time=1),\n",
      "  Message('note_on', channel=0, note=78, velocity=0, time=23),\n",
      "  Message('note_on', channel=0, note=74, velocity=89, time=1),\n",
      "  Message('note_on', channel=0, note=74, velocity=0, time=23),\n",
      "  Message('note_on', channel=0, note=79, velocity=90, time=1),\n",
      "  Message('note_on', channel=0, note=79, velocity=0, time=23),\n",
      "  Message('note_on', channel=0, note=76, velocity=90, time=1),\n",
      "  Message('note_on', channel=0, note=76, velocity=0, time=23),\n",
      "  Message('note_on', channel=0, note=81, velocity=90, time=1),\n",
      "  Message('note_on', channel=0, note=81, velocity=0, time=23),\n",
      "  Message('note_on', channel=0, note=78, velocity=91, time=1),\n",
      "  Message('note_on', channel=0, note=78, velocity=0, time=23),\n",
      "  Message('note_on', channel=0, note=83, velocity=91, time=1),\n",
      "  Message('note_on', channel=0, note=83, velocity=0, time=23),\n",
      "  Message('note_on', channel=0, note=79, velocity=91, time=1),\n",
      "  Message('note_on', channel=0, note=79, velocity=0, time=23),\n",
      "  Message('note_on', channel=0, note=85, velocity=92, time=1),\n",
      "  Message('note_on', channel=0, note=85, velocity=0, time=23),\n",
      "  Message('note_on', channel=0, note=81, velocity=92, time=1),\n",
      "  Message('note_on', channel=0, note=81, velocity=0, time=23),\n",
      "  Message('note_on', channel=0, note=77, velocity=93, time=1),\n",
      "  Message('note_on', channel=0, note=74, velocity=93, time=0),\n",
      "  Message('note_on', channel=0, note=77, velocity=0, time=23),\n",
      "  Message('note_on', channel=0, note=74, velocity=0, time=0),\n",
      "  Message('note_on', channel=0, note=86, velocity=93, time=1),\n",
      "  Message('note_on', channel=0, note=86, velocity=0, time=23),\n",
      "  Message('note_on', channel=0, note=77, velocity=93, time=1),\n",
      "  Message('note_on', channel=0, note=74, velocity=93, time=0),\n",
      "  Message('note_on', channel=0, note=77, velocity=0, time=23),\n",
      "  Message('note_on', channel=0, note=74, velocity=0, time=0),\n",
      "  Message('note_on', channel=0, note=86, velocity=93, time=1),\n",
      "  Message('note_on', channel=0, note=86, velocity=0, time=23),\n",
      "  Message('note_on', channel=0, note=77, velocity=93, time=1),\n",
      "  Message('note_on', channel=0, note=74, velocity=93, time=0),\n",
      "  Message('note_on', channel=0, note=77, velocity=0, time=23),\n",
      "  Message('note_on', channel=0, note=74, velocity=0, time=0),\n",
      "  Message('note_on', channel=0, note=86, velocity=93, time=1),\n",
      "  Message('note_on', channel=0, note=86, velocity=0, time=23),\n",
      "  Message('note_on', channel=0, note=77, velocity=93, time=1),\n",
      "  Message('note_on', channel=0, note=74, velocity=93, time=0),\n",
      "  Message('note_on', channel=0, note=77, velocity=0, time=23),\n",
      "  Message('note_on', channel=0, note=74, velocity=0, time=0),\n",
      "  Message('note_on', channel=0, note=86, velocity=93, time=1),\n",
      "  Message('note_on', channel=0, note=86, velocity=0, time=23),\n",
      "  Message('note_on', channel=0, note=77, velocity=93, time=1),\n",
      "  Message('note_on', channel=0, note=74, velocity=93, time=0),\n",
      "  Message('note_on', channel=0, note=77, velocity=0, time=23),\n",
      "  Message('note_on', channel=0, note=74, velocity=0, time=0),\n",
      "  Message('note_on', channel=0, note=86, velocity=93, time=1),\n",
      "  Message('note_on', channel=0, note=86, velocity=0, time=23),\n",
      "  Message('note_on', channel=0, note=77, velocity=93, time=1),\n",
      "  Message('note_on', channel=0, note=74, velocity=93, time=0),\n",
      "  Message('note_on', channel=0, note=77, velocity=0, time=23),\n",
      "  Message('note_on', channel=0, note=74, velocity=0, time=0),\n",
      "  Message('note_on', channel=0, note=86, velocity=93, time=1),\n",
      "  Message('note_on', channel=0, note=86, velocity=0, time=23),\n",
      "  Message('note_on', channel=0, note=77, velocity=93, time=1),\n",
      "  Message('note_on', channel=0, note=74, velocity=93, time=0),\n",
      "  Message('note_on', channel=0, note=77, velocity=0, time=23),\n",
      "  Message('note_on', channel=0, note=74, velocity=0, time=0),\n",
      "  Message('note_on', channel=0, note=86, velocity=93, time=1),\n",
      "  Message('note_on', channel=0, note=86, velocity=0, time=23),\n",
      "  Message('note_on', channel=0, note=77, velocity=93, time=1),\n",
      "  Message('note_on', channel=0, note=74, velocity=93, time=0),\n",
      "  Message('note_on', channel=0, note=77, velocity=0, time=23),\n",
      "  Message('note_on', channel=0, note=74, velocity=0, time=0),\n",
      "  Message('note_on', channel=0, note=86, velocity=93, time=1),\n",
      "  Message('note_on', channel=0, note=86, velocity=0, time=23),\n",
      "  Message('note_on', channel=0, note=76, velocity=93, time=1),\n",
      "  Message('note_on', channel=0, note=76, velocity=0, time=23),\n",
      "  Message('note_on', channel=0, note=86, velocity=93, time=1),\n",
      "  Message('note_on', channel=0, note=86, velocity=0, time=23),\n",
      "  Message('note_on', channel=0, note=76, velocity=93, time=1),\n",
      "  Message('note_on', channel=0, note=76, velocity=0, time=23),\n",
      "  Message('note_on', channel=0, note=86, velocity=93, time=1),\n",
      "  Message('note_on', channel=0, note=86, velocity=0, time=23),\n",
      "  Message('note_on', channel=0, note=76, velocity=93, time=1),\n",
      "  Message('note_on', channel=0, note=76, velocity=0, time=23),\n",
      "  Message('note_on', channel=0, note=85, velocity=93, time=1),\n",
      "  Message('note_on', channel=0, note=85, velocity=0, time=23),\n",
      "  Message('note_on', channel=0, note=76, velocity=93, time=1),\n",
      "  Message('note_on', channel=0, note=76, velocity=0, time=23),\n",
      "  Message('note_on', channel=0, note=85, velocity=93, time=1),\n",
      "  Message('note_on', channel=0, note=85, velocity=0, time=23),\n",
      "  Message('note_on', channel=0, note=78, velocity=93, time=1),\n",
      "  Message('note_on', channel=0, note=78, velocity=0, time=23),\n",
      "  Message('note_on', channel=0, note=84, velocity=93, time=1),\n",
      "  Message('note_on', channel=0, note=84, velocity=0, time=23),\n",
      "  Message('note_on', channel=0, note=78, velocity=93, time=1),\n",
      "  Message('note_on', channel=0, note=78, velocity=0, time=23),\n",
      "  Message('note_on', channel=0, note=84, velocity=93, time=1),\n",
      "  Message('note_on', channel=0, note=84, velocity=0, time=23),\n",
      "  Message('note_on', channel=0, note=79, velocity=93, time=1),\n",
      "  Message('note_on', channel=0, note=79, velocity=0, time=23),\n",
      "  Message('note_on', channel=0, note=83, velocity=93, time=1),\n",
      "  Message('note_on', channel=0, note=83, velocity=0, time=23),\n",
      "  Message('note_on', channel=0, note=79, velocity=93, time=1),\n",
      "  Message('note_on', channel=0, note=79, velocity=0, time=23),\n",
      "  Message('note_on', channel=0, note=83, velocity=93, time=1),\n",
      "  Message('note_on', channel=0, note=83, velocity=0, time=23),\n",
      "  Message('note_on', channel=0, note=72, velocity=93, time=1),\n",
      "  Message('note_on', channel=0, note=72, velocity=0, time=23),\n",
      "  Message('note_on', channel=0, note=82, velocity=93, time=1),\n",
      "  Message('note_on', channel=0, note=82, velocity=0, time=23),\n",
      "  Message('note_on', channel=0, note=72, velocity=93, time=1),\n",
      "  Message('note_on', channel=0, note=72, velocity=0, time=23),\n",
      "  Message('note_on', channel=0, note=82, velocity=93, time=1),\n",
      "  Message('note_on', channel=0, note=82, velocity=0, time=23),\n",
      "  Message('note_on', channel=0, note=72, velocity=93, time=1),\n",
      "  Message('note_on', channel=0, note=72, velocity=0, time=23),\n",
      "  Message('note_on', channel=0, note=81, velocity=93, time=1),\n",
      "  Message('note_on', channel=0, note=81, velocity=0, time=23),\n",
      "  Message('note_on', channel=0, note=72, velocity=93, time=1),\n",
      "  Message('note_on', channel=0, note=72, velocity=0, time=23),\n",
      "  Message('note_on', channel=0, note=81, velocity=93, time=1),\n",
      "  Message('note_on', channel=0, note=81, velocity=0, time=23),\n",
      "  Message('note_on', channel=0, note=70, velocity=93, time=1),\n",
      "  Message('note_on', channel=0, note=70, velocity=0, time=23),\n",
      "  Message('note_on', channel=0, note=81, velocity=93, time=1),\n",
      "  Message('note_on', channel=0, note=81, velocity=0, time=23),\n",
      "  Message('note_on', channel=0, note=70, velocity=93, time=1),\n",
      "  Message('note_on', channel=0, note=70, velocity=0, time=23),\n",
      "  Message('note_on', channel=0, note=81, velocity=93, time=1),\n",
      "  Message('note_on', channel=0, note=81, velocity=0, time=23),\n",
      "  Message('note_on', channel=0, note=70, velocity=93, time=1),\n",
      "  Message('note_on', channel=0, note=70, velocity=0, time=23),\n",
      "  Message('note_on', channel=0, note=79, velocity=93, time=1),\n",
      "  Message('note_on', channel=0, note=79, velocity=0, time=23),\n",
      "  Message('note_on', channel=0, note=70, velocity=93, time=1),\n",
      "  Message('note_on', channel=0, note=70, velocity=0, time=23),\n",
      "  Message('note_on', channel=0, note=79, velocity=93, time=1),\n",
      "  Message('note_on', channel=0, note=79, velocity=0, time=23),\n",
      "  Message('note_on', channel=0, note=69, velocity=93, time=1),\n",
      "  Message('note_on', channel=0, note=69, velocity=0, time=23),\n",
      "  Message('note_on', channel=0, note=79, velocity=93, time=1),\n",
      "  Message('note_on', channel=0, note=79, velocity=0, time=23),\n",
      "  Message('note_on', channel=0, note=69, velocity=93, time=1),\n",
      "  Message('note_on', channel=0, note=69, velocity=0, time=23),\n",
      "  Message('note_on', channel=0, note=79, velocity=93, time=1),\n",
      "  Message('note_on', channel=0, note=79, velocity=0, time=23),\n",
      "  Message('note_on', channel=0, note=69, velocity=93, time=1),\n",
      "  Message('note_on', channel=0, note=69, velocity=0, time=23),\n",
      "  Message('note_on', channel=0, note=77, velocity=93, time=1),\n",
      "  Message('note_on', channel=0, note=77, velocity=0, time=23),\n",
      "  Message('note_on', channel=0, note=69, velocity=93, time=1),\n",
      "  Message('note_on', channel=0, note=69, velocity=0, time=23),\n",
      "  Message('note_on', channel=0, note=77, velocity=93, time=1),\n",
      "  Message('note_on', channel=0, note=77, velocity=0, time=23),\n",
      "  Message('note_on', channel=0, note=76, velocity=93, time=1),\n",
      "  Message('note_on', channel=0, note=76, velocity=0, time=23),\n",
      "  Message('note_on', channel=0, note=81, velocity=93, time=1),\n",
      "  Message('note_on', channel=0, note=81, velocity=0, time=23),\n",
      "  Message('note_on', channel=0, note=76, velocity=93, time=1),\n",
      "  Message('note_on', channel=0, note=76, velocity=0, time=23),\n",
      "  Message('note_on', channel=0, note=81, velocity=93, time=1),\n",
      "  Message('note_on', channel=0, note=81, velocity=0, time=23),\n",
      "  Message('note_on', channel=0, note=80, velocity=93, time=1),\n",
      "  Message('note_on', channel=0, note=80, velocity=0, time=23),\n",
      "  Message('note_on', channel=0, note=86, velocity=93, time=1),\n",
      "  Message('note_on', channel=0, note=86, velocity=0, time=23),\n",
      "  Message('note_on', channel=0, note=80, velocity=93, time=1),\n",
      "  Message('note_on', channel=0, note=80, velocity=0, time=23),\n",
      "  Message('note_on', channel=0, note=86, velocity=93, time=1),\n",
      "  Message('note_on', channel=0, note=86, velocity=0, time=23),\n",
      "  Message('note_on', channel=0, note=85, velocity=93, time=1),\n",
      "  Message('note_on', channel=0, note=81, velocity=93, time=0),\n",
      "  Message('note_on', channel=0, note=76, velocity=93, time=0),\n",
      "  Message('note_on', channel=0, note=85, velocity=0, time=89),\n",
      "  Message('note_on', channel=0, note=81, velocity=0, time=0),\n",
      "  Message('note_on', channel=0, note=76, velocity=0, time=0),\n",
      "  Message('note_on', channel=0, note=86, velocity=94, time=679),\n",
      "  Message('note_on', channel=0, note=86, velocity=0, time=192),\n",
      "  Message('note_on', channel=0, note=85, velocity=78, time=0),\n",
      "  Message('note_on', channel=0, note=85, velocity=0, time=89),\n",
      "  Message('note_on', channel=0, note=83, velocity=79, time=7),\n",
      "  Message('note_on', channel=0, note=83, velocity=0, time=89),\n",
      "  Message('note_on', channel=0, note=82, velocity=96, time=7),\n",
      "  Message('note_on', channel=0, note=82, velocity=0, time=96),\n",
      "  Message('note_on', channel=0, note=83, velocity=82, time=0),\n",
      "  Message('note_on', channel=0, note=83, velocity=0, time=141),\n",
      "  Message('note_on', channel=0, note=86, velocity=80, time=3),\n",
      "  Message('note_on', channel=0, note=86, velocity=0, time=45),\n",
      "  Message('note_on', channel=0, note=80, velocity=79, time=3),\n",
      "  Message('note_on', channel=0, note=80, velocity=0, time=45),\n",
      "  Message('note_on', channel=0, note=83, velocity=78, time=3),\n",
      "  Message('note_on', channel=0, note=83, velocity=0, time=45),\n",
      "  Message('note_on', channel=0, note=81, velocity=78, time=3),\n",
      "  Message('note_on', channel=0, note=81, velocity=0, time=89),\n",
      "  Message('note_on', channel=0, note=74, velocity=78, time=679),\n",
      "  Message('note_on', channel=0, note=74, velocity=0, time=18),\n",
      "  Message('note_on', channel=0, note=86, velocity=94, time=0),\n",
      "  Message('note_on', channel=0, note=86, velocity=0, time=145),\n",
      "  Message('note_on', channel=0, note=88, velocity=79, time=5),\n",
      "  Message('note_on', channel=0, note=88, velocity=0, time=12),\n",
      "  Message('note_on', channel=0, note=86, velocity=79, time=0),\n",
      "  Message('note_on', channel=0, note=86, velocity=0, time=12),\n",
      "  Message('note_on', channel=0, note=85, velocity=80, time=0),\n",
      "  Message('note_on', channel=0, note=85, velocity=0, time=67),\n",
      "  Message('note_on', channel=0, note=86, velocity=80, time=5),\n",
      "  Message('note_on', channel=0, note=86, velocity=0, time=12),\n",
      "  Message('note_on', channel=0, note=85, velocity=80, time=0),\n",
      "  Message('note_on', channel=0, note=85, velocity=0, time=12),\n",
      "  Message('note_on', channel=0, note=83, velocity=81, time=0),\n",
      "  Message('note_on', channel=0, note=83, velocity=0, time=67),\n",
      "  Message('note_on', channel=0, note=85, velocity=81, time=5),\n",
      "  Message('note_on', channel=0, note=85, velocity=0, time=12),\n",
      "  Message('note_on', channel=0, note=83, velocity=81, time=0),\n",
      "  Message('note_on', channel=0, note=83, velocity=0, time=12),\n",
      "  Message('note_on', channel=0, note=82, velocity=98, time=0),\n",
      "  Message('note_on', channel=0, note=82, velocity=0, time=48),\n",
      "  Message('note_on', channel=0, note=85, velocity=81, time=0),\n",
      "  Message('note_on', channel=0, note=85, velocity=0, time=20),\n",
      "  Message('note_on', channel=0, note=83, velocity=81, time=28),\n",
      "  Message('note_on', channel=0, note=83, velocity=0, time=119),\n",
      "  Message('note_on', channel=0, note=85, velocity=79, time=1),\n",
      "  Message('note_on', channel=0, note=85, velocity=0, time=23),\n",
      "  Message('note_on', channel=0, note=86, velocity=79, time=1),\n",
      "  Message('note_on', channel=0, note=86, velocity=0, time=23),\n",
      "  Message('note_on', channel=0, note=83, velocity=79, time=1),\n",
      "  Message('note_on', channel=0, note=83, velocity=0, time=23),\n",
      "  Message('note_on', channel=0, note=80, velocity=79, time=1),\n",
      "  Message('note_on', channel=0, note=80, velocity=0, time=23),\n",
      "  Message('note_on', channel=0, note=81, velocity=78, time=1),\n",
      "  Message('note_on', channel=0, note=81, velocity=0, time=23),\n",
      "  Message('note_on', channel=0, note=83, velocity=78, time=1),\n",
      "  Message('note_on', channel=0, note=83, velocity=0, time=23),\n",
      "  Message('note_on', channel=0, note=80, velocity=78, time=1),\n",
      "  Message('note_on', channel=0, note=80, velocity=0, time=23),\n",
      "  Message('note_on', channel=0, note=81, velocity=78, time=1),\n",
      "  Message('note_on', channel=0, note=81, velocity=0, time=45),\n",
      "  Message('note_on', channel=0, note=78, velocity=73, time=51),\n",
      "  Message('note_on', channel=0, note=78, velocity=0, time=23),\n",
      "  Message('note_on', channel=0, note=81, velocity=73, time=1),\n",
      "  Message('note_on', channel=0, note=81, velocity=0, time=23),\n",
      "  Message('note_on', channel=0, note=80, velocity=73, time=1),\n",
      "  Message('note_on', channel=0, note=80, velocity=0, time=23),\n",
      "  Message('note_on', channel=0, note=83, velocity=73, time=1),\n",
      "  Message('note_on', channel=0, note=83, velocity=0, time=23),\n",
      "  Message('note_on', channel=0, note=81, velocity=73, time=1),\n",
      "  Message('note_on', channel=0, note=81, velocity=0, time=45),\n",
      "  Message('note_on', channel=0, note=78, velocity=66, time=243),\n",
      "  Message('note_on', channel=0, note=78, velocity=0, time=23),\n",
      "  Message('note_on', channel=0, note=81, velocity=66, time=1),\n",
      "  Message('note_on', channel=0, note=81, velocity=0, time=23),\n",
      "  Message('note_on', channel=0, note=80, velocity=66, time=1),\n",
      "  Message('note_on', channel=0, note=80, velocity=0, time=23),\n",
      "  Message('note_on', channel=0, note=83, velocity=66, time=1),\n",
      "  Message('note_on', channel=0, note=83, velocity=0, time=23),\n",
      "  Message('note_on', channel=0, note=81, velocity=66, time=1),\n",
      "  Message('note_on', channel=0, note=81, velocity=0, time=20),\n",
      "  Message('note_on', channel=0, note=81, velocity=66, time=28),\n",
      "  Message('note_on', channel=0, note=81, velocity=0, time=20),\n",
      "  Message('note_on', channel=0, note=81, velocity=73, time=220),\n",
      "  Message('note_on', channel=0, note=81, velocity=0, time=45),\n",
      "  Message('note_on', channel=0, note=82, velocity=73, time=3),\n",
      "  Message('note_on', channel=0, note=82, velocity=0, time=45),\n",
      "  Message('note_on', channel=0, note=83, velocity=73, time=3),\n",
      "  Message('note_on', channel=0, note=83, velocity=0, time=45),\n",
      "  Message('note_on', channel=0, note=75, velocity=73, time=3),\n",
      "  Message('note_on', channel=0, note=75, velocity=0, time=45),\n",
      "  Message('note_on', channel=0, note=76, velocity=73, time=195),\n",
      "  Message('note_on', channel=0, note=76, velocity=0, time=45),\n",
      "  Message('note_on', channel=0, note=78, velocity=73, time=3),\n",
      "  Message('note_on', channel=0, note=78, velocity=0, time=45),\n",
      "  Message('note_on', channel=0, note=79, velocity=73, time=3),\n",
      "  Message('note_on', channel=0, note=79, velocity=0, time=45),\n",
      "  Message('note_on', channel=0, note=70, velocity=73, time=3),\n",
      "  Message('note_on', channel=0, note=70, velocity=0, time=45),\n",
      "  Message('note_on', channel=0, note=55, velocity=66, time=99),\n",
      "  Message('note_on', channel=0, note=55, velocity=0, time=23),\n",
      "  Message('note_on', channel=0, note=61, velocity=66, time=1),\n",
      "  Message('note_on', channel=0, note=61, velocity=0, time=23),\n",
      "  Message('note_on', channel=0, note=64, velocity=66, time=1),\n",
      "  Message('note_on', channel=0, note=64, velocity=0, time=23),\n",
      "  Message('note_on', channel=0, note=61, velocity=66, time=1),\n",
      "  Message('note_on', channel=0, note=61, velocity=0, time=23),\n",
      "  Message('note_on', channel=0, note=64, velocity=66, time=1),\n",
      "  Message('note_on', channel=0, note=64, velocity=0, time=23),\n",
      "  Message('note_on', channel=0, note=61, velocity=66, time=1),\n",
      "  Message('note_on', channel=0, note=61, velocity=0, time=23),\n",
      "  Message('note_on', channel=0, note=64, velocity=66, time=1),\n",
      "  Message('note_on', channel=0, note=64, velocity=0, time=23),\n",
      "  Message('note_on', channel=0, note=61, velocity=66, time=1),\n",
      "  Message('note_on', channel=0, note=61, velocity=0, time=23),\n",
      "  Message('note_on', channel=0, note=55, velocity=66, time=1),\n",
      "  Message('note_on', channel=0, note=55, velocity=0, time=23),\n",
      "  Message('note_on', channel=0, note=61, velocity=66, time=1),\n",
      "  Message('note_on', channel=0, note=61, velocity=0, time=23),\n",
      "  Message('note_on', channel=0, note=64, velocity=66, time=1),\n",
      "  Message('note_on', channel=0, note=64, velocity=0, time=23),\n",
      "  Message('note_on', channel=0, note=61, velocity=66, time=1),\n",
      "  Message('note_on', channel=0, note=61, velocity=0, time=23),\n",
      "  Message('note_on', channel=0, note=64, velocity=66, time=1),\n",
      "  Message('note_on', channel=0, note=64, velocity=0, time=23),\n",
      "  Message('note_on', channel=0, note=61, velocity=66, time=1),\n",
      "  Message('note_on', channel=0, note=61, velocity=0, time=23),\n",
      "  Message('note_on', channel=0, note=64, velocity=66, time=1),\n",
      "  Message('note_on', channel=0, note=64, velocity=0, time=23),\n",
      "  Message('note_on', channel=0, note=61, velocity=66, time=1),\n",
      "  Message('note_on', channel=0, note=61, velocity=0, time=23),\n",
      "  Message('note_on', channel=0, note=55, velocity=66, time=1),\n",
      "  Message('note_on', channel=0, note=55, velocity=0, time=23),\n",
      "  Message('note_on', channel=0, note=61, velocity=66, time=1),\n",
      "  Message('note_on', channel=0, note=61, velocity=0, time=23),\n",
      "  Message('note_on', channel=0, note=64, velocity=66, time=1),\n",
      "  Message('note_on', channel=0, note=64, velocity=0, time=23),\n",
      "  Message('note_on', channel=0, note=61, velocity=66, time=1),\n",
      "  Message('note_on', channel=0, note=61, velocity=0, time=23),\n",
      "  Message('note_on', channel=0, note=64, velocity=66, time=1),\n",
      "  Message('note_on', channel=0, note=64, velocity=0, time=23),\n",
      "  Message('note_on', channel=0, note=61, velocity=66, time=1),\n",
      "  Message('note_on', channel=0, note=61, velocity=0, time=23),\n",
      "  Message('note_on', channel=0, note=64, velocity=66, time=1),\n",
      "  Message('note_on', channel=0, note=64, velocity=0, time=23),\n",
      "  Message('note_on', channel=0, note=61, velocity=66, time=1),\n",
      "  Message('note_on', channel=0, note=61, velocity=0, time=23),\n",
      "  Message('note_on', channel=0, note=55, velocity=66, time=1),\n",
      "  Message('note_on', channel=0, note=55, velocity=0, time=23),\n",
      "  Message('note_on', channel=0, note=61, velocity=66, time=1),\n",
      "  Message('note_on', channel=0, note=61, velocity=0, time=23),\n",
      "  Message('note_on', channel=0, note=64, velocity=66, time=1),\n",
      "  Message('note_on', channel=0, note=64, velocity=0, time=23),\n",
      "  Message('note_on', channel=0, note=61, velocity=66, time=1),\n",
      "  Message('note_on', channel=0, note=61, velocity=0, time=23),\n",
      "  Message('note_on', channel=0, note=64, velocity=66, time=1),\n",
      "  Message('note_on', channel=0, note=64, velocity=0, time=23),\n",
      "  Message('note_on', channel=0, note=61, velocity=66, time=1),\n",
      "  Message('note_on', channel=0, note=61, velocity=0, time=23),\n",
      "  Message('note_on', channel=0, note=64, velocity=66, time=1),\n",
      "  Message('note_on', channel=0, note=64, velocity=0, time=23),\n",
      "  Message('note_on', channel=0, note=61, velocity=66, time=1),\n",
      "  Message('note_on', channel=0, note=61, velocity=0, time=23),\n",
      "  Message('note_on', channel=0, note=55, velocity=66, time=1),\n",
      "  Message('note_on', channel=0, note=55, velocity=0, time=89),\n",
      "  Message('note_on', channel=0, note=86, velocity=66, time=247),\n",
      "  Message('note_on', channel=0, note=83, velocity=66, time=0),\n",
      "  Message('note_on', channel=0, note=86, velocity=0, time=20),\n",
      "  Message('note_on', channel=0, note=83, velocity=0, time=0),\n",
      "  Message('note_on', channel=0, note=85, velocity=66, time=28),\n",
      "  Message('note_on', channel=0, note=81, velocity=66, time=0),\n",
      "  Message('note_on', channel=0, note=85, velocity=0, time=20),\n",
      "  Message('note_on', channel=0, note=81, velocity=0, time=0),\n",
      "  Message('note_on', channel=0, note=83, velocity=66, time=28),\n",
      "  Message('note_on', channel=0, note=79, velocity=66, time=0),\n",
      "  Message('note_on', channel=0, note=83, velocity=0, time=20),\n",
      "  Message('note_on', channel=0, note=79, velocity=0, time=0),\n",
      "  Message('note_on', channel=0, note=81, velocity=66, time=28),\n",
      "  Message('note_on', channel=0, note=78, velocity=66, time=0),\n",
      "  Message('note_on', channel=0, note=81, velocity=0, time=20),\n",
      "  Message('note_on', channel=0, note=78, velocity=0, time=0),\n",
      "  Message('note_on', channel=0, note=83, velocity=66, time=28),\n",
      "  Message('note_on', channel=0, note=79, velocity=66, time=0),\n",
      "  Message('note_on', channel=0, note=83, velocity=0, time=20),\n",
      "  Message('note_on', channel=0, note=79, velocity=0, time=0),\n",
      "  Message('note_on', channel=0, note=81, velocity=66, time=28),\n",
      "  Message('note_on', channel=0, note=78, velocity=66, time=0),\n",
      "  Message('note_on', channel=0, note=81, velocity=0, time=20),\n",
      "  Message('note_on', channel=0, note=78, velocity=0, time=0),\n",
      "  Message('note_on', channel=0, note=79, velocity=66, time=28),\n",
      "  Message('note_on', channel=0, note=76, velocity=66, time=0),\n",
      "  Message('note_on', channel=0, note=79, velocity=0, time=20),\n",
      "  Message('note_on', channel=0, note=76, velocity=0, time=0),\n",
      "  Message('note_on', channel=0, note=78, velocity=66, time=28),\n",
      "  Message('note_on', channel=0, note=74, velocity=66, time=0),\n",
      "  Message('note_on', channel=0, note=78, velocity=0, time=20),\n",
      "  Message('note_on', channel=0, note=74, velocity=0, time=0),\n",
      "  Message('note_on', channel=0, note=76, velocity=66, time=28),\n",
      "  Message('note_on', channel=0, note=73, velocity=66, time=0),\n",
      "  Message('note_on', channel=0, note=76, velocity=0, time=20),\n",
      "  Message('note_on', channel=0, note=73, velocity=0, time=0),\n",
      "  Message('note_on', channel=0, note=86, velocity=87, time=28),\n",
      "  Message('note_on', channel=0, note=81, velocity=87, time=0),\n",
      "  Message('note_on', channel=0, note=78, velocity=87, time=0),\n",
      "  Message('note_on', channel=0, note=74, velocity=87, time=0),\n",
      "  Message('note_on', channel=0, note=86, velocity=0, time=177),\n",
      "  Message('note_on', channel=0, note=81, velocity=0, time=0),\n",
      "  Message('note_on', channel=0, note=78, velocity=0, time=0),\n",
      "  Message('note_on', channel=0, note=74, velocity=0, time=0),\n",
      "  Message('note_on', channel=0, note=81, velocity=87, time=15),\n",
      "  Message('note_on', channel=0, note=81, velocity=0, time=177),\n",
      "  Message('note_on', channel=0, note=79, velocity=87, time=15),\n",
      "  Message('note_on', channel=0, note=79, velocity=0, time=18),\n",
      "  Message('note_on', channel=0, note=78, velocity=87, time=0),\n",
      "  Message('note_on', channel=0, note=78, velocity=0, time=18),\n",
      "  Message('note_on', channel=0, note=79, velocity=87, time=0),\n",
      "  Message('note_on', channel=0, note=79, velocity=0, time=18),\n",
      "  Message('note_on', channel=0, note=78, velocity=87, time=0),\n",
      "  Message('note_on', channel=0, note=78, velocity=0, time=18),\n",
      "  Message('note_on', channel=0, note=79, velocity=87, time=0),\n",
      "  Message('note_on', channel=0, note=79, velocity=0, time=18),\n",
      "  Message('note_on', channel=0, note=78, velocity=87, time=0),\n",
      "  Message('note_on', channel=0, note=78, velocity=0, time=18),\n",
      "  Message('note_on', channel=0, note=79, velocity=87, time=0),\n",
      "  Message('note_on', channel=0, note=79, velocity=0, time=18),\n",
      "  Message('note_on', channel=0, note=78, velocity=87, time=0),\n",
      "  Message('note_on', channel=0, note=78, velocity=0, time=7),\n",
      "  Message('note_on', channel=0, note=76, velocity=87, time=11),\n",
      "  Message('note_on', channel=0, note=76, velocity=0, time=23),\n",
      "  Message('note_on', channel=0, note=74, velocity=87, time=1),\n",
      "  Message('note_on', channel=0, note=74, velocity=0, time=23),\n",
      "  Message('note_on', channel=0, note=81, velocity=87, time=1),\n",
      "  Message('note_on', channel=0, note=81, velocity=0, time=89),\n",
      "  Message('note_on', channel=0, note=69, velocity=87, time=79),\n",
      "  Message('note_on', channel=0, note=69, velocity=0, time=8),\n",
      "  Message('note_on', channel=0, note=71, velocity=87, time=0),\n",
      "  Message('note_on', channel=0, note=71, velocity=0, time=8),\n",
      "  Message('note_on', channel=0, note=73, velocity=87, time=0),\n",
      "  Message('note_on', channel=0, note=73, velocity=0, time=8),\n",
      "  Message('note_on', channel=0, note=74, velocity=87, time=0),\n",
      "  Message('note_on', channel=0, note=74, velocity=0, time=89),\n",
      "  Message('note_on', channel=0, note=69, velocity=87, time=7),\n",
      "  Message('note_on', channel=0, note=69, velocity=0, time=67),\n",
      "  Message('note_on', channel=0, note=74, velocity=87, time=5),\n",
      "  Message('note_on', channel=0, note=74, velocity=0, time=23),\n",
      "  Message('note_on', channel=0, note=76, velocity=87, time=1),\n",
      "  Message('note_on', channel=0, note=76, velocity=0, time=89),\n",
      "  Message('note_on', channel=0, note=69, velocity=87, time=7),\n",
      "  Message('note_on', channel=0, note=69, velocity=0, time=67),\n",
      "  Message('note_on', channel=0, note=76, velocity=87, time=5),\n",
      "  Message('note_on', channel=0, note=76, velocity=0, time=23),\n",
      "  Message('note_on', channel=0, note=78, velocity=87, time=1),\n",
      "  Message('note_on', channel=0, note=78, velocity=0, time=89),\n",
      "  Message('note_on', channel=0, note=74, velocity=87, time=7),\n",
      "  Message('note_on', channel=0, note=74, velocity=0, time=67),\n",
      "  Message('note_on', channel=0, note=78, velocity=87, time=5),\n",
      "  Message('note_on', channel=0, note=78, velocity=0, time=23),\n",
      "  Message('note_on', channel=0, note=81, velocity=87, time=1),\n",
      "  Message('note_on', channel=0, note=81, velocity=0, time=89),\n",
      "  Message('note_on', channel=0, note=74, velocity=82, time=103),\n",
      "  Message('note_on', channel=0, note=66, velocity=82, time=0),\n",
      "  Message('note_on', channel=0, note=74, velocity=0, time=20),\n",
      "  Message('note_on', channel=0, note=66, velocity=0, time=0),\n",
      "  Message('note_on', channel=0, note=74, velocity=98, time=76),\n",
      "  Message('note_on', channel=0, note=66, velocity=98, time=0),\n",
      "  Message('note_on', channel=0, note=74, velocity=0, time=192),\n",
      "  Message('note_on', channel=0, note=66, velocity=0, time=0),\n",
      "  Message('note_on', channel=0, note=78, velocity=87, time=0),\n",
      "  Message('note_on', channel=0, note=69, velocity=87, time=0),\n",
      "  Message('note_on', channel=0, note=78, velocity=0, time=89),\n",
      "  Message('note_on', channel=0, note=69, velocity=0, time=0),\n",
      "  Message('note_on', channel=0, note=78, velocity=85, time=7),\n",
      "  Message('note_on', channel=0, note=78, velocity=0, time=45),\n",
      "  Message('note_on', channel=0, note=76, velocity=84, time=3),\n",
      "  Message('note_on', channel=0, note=76, velocity=0, time=45),\n",
      "  Message('note_on', channel=0, note=74, velocity=83, time=3),\n",
      "  Message('note_on', channel=0, note=74, velocity=0, time=89),\n",
      "  Message('note_on', channel=0, note=78, velocity=82, time=199),\n",
      "  Message('note_on', channel=0, note=74, velocity=82, time=0),\n",
      "  Message('note_on', channel=0, note=78, velocity=0, time=20),\n",
      "  Message('note_on', channel=0, note=74, velocity=0, time=0),\n",
      "  Message('note_on', channel=0, note=78, velocity=98, time=76),\n",
      "  Message('note_on', channel=0, note=74, velocity=98, time=0),\n",
      "  Message('note_on', channel=0, note=74, velocity=0, time=192),\n",
      "  Message('note_on', channel=0, note=81, velocity=87, time=0),\n",
      "  Message('note_on', channel=0, note=81, velocity=0, time=89),\n",
      "  Message('note_on', channel=0, note=78, velocity=0, time=0),\n",
      "  Message('note_on', channel=0, note=81, velocity=85, time=7),\n",
      "  Message('note_on', channel=0, note=78, velocity=85, time=0),\n",
      "  Message('note_on', channel=0, note=81, velocity=0, time=45),\n",
      "  Message('note_on', channel=0, note=78, velocity=0, time=0),\n",
      "  Message('note_on', channel=0, note=79, velocity=84, time=3),\n",
      "  Message('note_on', channel=0, note=76, velocity=84, time=0),\n",
      "  Message('note_on', channel=0, note=79, velocity=0, time=45),\n",
      "  Message('note_on', channel=0, note=76, velocity=0, time=0),\n",
      "  Message('note_on', channel=0, note=78, velocity=83, time=3),\n",
      "  Message('note_on', channel=0, note=74, velocity=83, time=0),\n",
      "  Message('note_on', channel=0, note=78, velocity=0, time=89),\n",
      "  Message('note_on', channel=0, note=74, velocity=0, time=0),\n",
      "  Message('note_on', channel=0, note=69, velocity=82, time=223),\n",
      "  Message('note_on', channel=0, note=69, velocity=0, time=23),\n",
      "  Message('note_on', channel=0, note=71, velocity=82, time=1),\n",
      "  Message('note_on', channel=0, note=71, velocity=0, time=23),\n",
      "  Message('note_on', channel=0, note=73, velocity=82, time=1),\n",
      "  Message('note_on', channel=0, note=73, velocity=0, time=23),\n",
      "  Message('note_on', channel=0, note=74, velocity=83, time=1),\n",
      "  Message('note_on', channel=0, note=74, velocity=0, time=23),\n",
      "  Message('note_on', channel=0, note=76, velocity=83, time=1),\n",
      "  Message('note_on', channel=0, note=76, velocity=0, time=23),\n",
      "  Message('note_on', channel=0, note=78, velocity=83, time=1),\n",
      "  Message('note_on', channel=0, note=78, velocity=0, time=23),\n",
      "  Message('note_on', channel=0, note=79, velocity=84, time=1),\n",
      "  Message('note_on', channel=0, note=79, velocity=0, time=23),\n",
      "  Message('note_on', channel=0, note=81, velocity=84, time=1),\n",
      "  Message('note_on', channel=0, note=81, velocity=0, time=23),\n",
      "  Message('note_on', channel=0, note=83, velocity=85, time=1),\n",
      "  Message('note_on', channel=0, note=83, velocity=0, time=23),\n",
      "  Message('note_on', channel=0, note=85, velocity=85, time=1),\n",
      "  Message('note_on', channel=0, note=85, velocity=0, time=23),\n",
      "  Message('note_on', channel=0, note=86, velocity=85, time=1),\n",
      "  Message('note_on', channel=0, note=86, velocity=0, time=23),\n",
      "  Message('note_on', channel=0, note=81, velocity=86, time=1),\n",
      "  Message('note_on', channel=0, note=81, velocity=0, time=45),\n",
      "  Message('note_on', channel=0, note=69, velocity=82, time=75),\n",
      "  Message('note_on', channel=0, note=69, velocity=0, time=23),\n",
      "  Message('note_on', channel=0, note=71, velocity=82, time=1),\n",
      "  Message('note_on', channel=0, note=71, velocity=0, time=23),\n",
      "  Message('note_on', channel=0, note=73, velocity=82, time=1),\n",
      "  Message('note_on', channel=0, note=73, velocity=0, time=23),\n",
      "  Message('note_on', channel=0, note=74, velocity=83, time=1),\n",
      "  Message('note_on', channel=0, note=74, velocity=0, time=23),\n",
      "  Message('note_on', channel=0, note=76, velocity=83, time=1),\n",
      "  Message('note_on', channel=0, note=76, velocity=0, time=23),\n",
      "  Message('note_on', channel=0, note=78, velocity=83, time=1),\n",
      "  Message('note_on', channel=0, note=78, velocity=0, time=23),\n",
      "  Message('note_on', channel=0, note=80, velocity=84, time=1),\n",
      "  Message('note_on', channel=0, note=80, velocity=0, time=23),\n",
      "  Message('note_on', channel=0, note=81, velocity=84, time=1),\n",
      "  Message('note_on', channel=0, note=81, velocity=0, time=23),\n",
      "  Message('note_on', channel=0, note=85, velocity=85, time=1),\n",
      "  Message('note_on', channel=0, note=85, velocity=0, time=23),\n",
      "  Message('note_on', channel=0, note=86, velocity=85, time=1),\n",
      "  Message('note_on', channel=0, note=86, velocity=0, time=23),\n",
      "  Message('note_on', channel=0, note=88, velocity=85, time=1),\n",
      "  Message('note_on', channel=0, note=88, velocity=0, time=23),\n",
      "  Message('note_on', channel=0, note=81, velocity=86, time=1),\n",
      "  Message('note_on', channel=0, note=81, velocity=0, time=45),\n",
      "  Message('note_on', channel=0, note=69, velocity=82, time=75),\n",
      "  Message('note_on', channel=0, note=69, velocity=0, time=23),\n",
      "  Message('note_on', channel=0, note=71, velocity=82, time=1),\n",
      "  Message('note_on', channel=0, note=71, velocity=0, time=23),\n",
      "  Message('note_on', channel=0, note=73, velocity=82, time=1),\n",
      "  Message('note_on', channel=0, note=73, velocity=0, time=23),\n",
      "  Message('note_on', channel=0, note=74, velocity=83, time=1),\n",
      "  Message('note_on', channel=0, note=74, velocity=0, time=23),\n",
      "  Message('note_on', channel=0, note=76, velocity=83, time=1),\n",
      "  Message('note_on', channel=0, note=76, velocity=0, time=23),\n",
      "  Message('note_on', channel=0, note=78, velocity=83, time=1),\n",
      "  Message('note_on', channel=0, note=78, velocity=0, time=23),\n",
      "  Message('note_on', channel=0, note=79, velocity=84, time=1),\n",
      "  Message('note_on', channel=0, note=79, velocity=0, time=23),\n",
      "  Message('note_on', channel=0, note=81, velocity=84, time=1),\n",
      "  Message('note_on', channel=0, note=81, velocity=0, time=23),\n",
      "  Message('note_on', channel=0, note=83, velocity=85, time=1),\n",
      "  Message('note_on', channel=0, note=83, velocity=0, time=23),\n",
      "  Message('note_on', channel=0, note=85, velocity=85, time=1),\n",
      "  Message('note_on', channel=0, note=85, velocity=0, time=23),\n",
      "  Message('note_on', channel=0, note=86, velocity=85, time=1),\n",
      "  Message('note_on', channel=0, note=86, velocity=0, time=23),\n",
      "  Message('note_on', channel=0, note=81, velocity=86, time=1),\n",
      "  Message('note_on', channel=0, note=81, velocity=0, time=45),\n",
      "  Message('note_on', channel=0, note=83, velocity=87, time=51),\n",
      "  Message('note_on', channel=0, note=83, velocity=0, time=23),\n",
      "  Message('note_on', channel=0, note=86, velocity=86, time=1),\n",
      "  Message('note_on', channel=0, note=86, velocity=0, time=23),\n",
      "  Message('note_on', channel=0, note=83, velocity=86, time=1),\n",
      "  Message('note_on', channel=0, note=83, velocity=0, time=23),\n",
      "  Message('note_on', channel=0, note=86, velocity=86, time=1),\n",
      "  Message('note_on', channel=0, note=86, velocity=0, time=23),\n",
      "  Message('note_on', channel=0, note=76, velocity=85, time=1),\n",
      "  Message('note_on', channel=0, note=76, velocity=0, time=23),\n",
      "  Message('note_on', channel=0, note=79, velocity=85, time=1),\n",
      "  Message('note_on', channel=0, note=79, velocity=0, time=23),\n",
      "  Message('note_on', channel=0, note=76, velocity=85, time=1),\n",
      "  Message('note_on', channel=0, note=76, velocity=0, time=23),\n",
      "  Message('note_on', channel=0, note=79, velocity=84, time=1),\n",
      "  Message('note_on', channel=0, note=79, velocity=0, time=23),\n",
      "  Message('note_on', channel=0, note=78, velocity=84, time=1),\n",
      "  Message('note_on', channel=0, note=78, velocity=0, time=23),\n",
      "  Message('note_on', channel=0, note=81, velocity=84, time=1),\n",
      "  Message('note_on', channel=0, note=81, velocity=0, time=23),\n",
      "  Message('note_on', channel=0, note=78, velocity=83, time=1),\n",
      "  Message('note_on', channel=0, note=78, velocity=0, time=23),\n",
      "  Message('note_on', channel=0, note=81, velocity=83, time=1),\n",
      "  Message('note_on', channel=0, note=81, velocity=0, time=23),\n",
      "  Message('note_on', channel=0, note=73, velocity=83, time=1),\n",
      "  Message('note_on', channel=0, note=73, velocity=0, time=23),\n",
      "  Message('note_on', channel=0, note=76, velocity=82, time=1),\n",
      "  Message('note_on', channel=0, note=76, velocity=0, time=23),\n",
      "  Message('note_on', channel=0, note=73, velocity=82, time=1),\n",
      "  Message('note_on', channel=0, note=73, velocity=0, time=23),\n",
      "  Message('note_on', channel=0, note=76, velocity=82, time=1),\n",
      "  Message('note_on', channel=0, note=76, velocity=0, time=23),\n",
      "  Message('note_on', channel=0, note=74, velocity=82, time=1),\n",
      "  Message('note_on', channel=0, note=74, velocity=0, time=89),\n",
      "  Message('note_on', channel=0, note=81, velocity=82, time=199),\n",
      "  Message('note_on', channel=0, note=81, velocity=0, time=23),\n",
      "  Message('note_on', channel=0, note=83, velocity=82, time=1),\n",
      "  Message('note_on', channel=0, note=83, velocity=0, time=23),\n",
      "  Message('note_on', channel=0, note=85, velocity=82, time=1),\n",
      "  Message('note_on', channel=0, note=85, velocity=0, time=23),\n",
      "  Message('note_on', channel=0, note=86, velocity=82, time=1),\n",
      "  Message('note_on', channel=0, note=86, velocity=0, time=23),\n",
      "  Message('note_on', channel=0, note=81, velocity=82, time=1),\n",
      "  Message('note_on', channel=0, note=81, velocity=0, time=89),\n",
      "  Message('note_on', channel=0, note=81, velocity=82, time=199),\n",
      "  Message('note_on', channel=0, note=81, velocity=0, time=23),\n",
      "  Message('note_on', channel=0, note=85, velocity=82, time=1),\n",
      "  Message('note_on', channel=0, note=85, velocity=0, time=23),\n",
      "  Message('note_on', channel=0, note=86, velocity=82, time=1),\n",
      "  Message('note_on', channel=0, note=86, velocity=0, time=23),\n",
      "  Message('note_on', channel=0, note=88, velocity=82, time=1),\n",
      "  Message('note_on', channel=0, note=88, velocity=0, time=23),\n",
      "  Message('note_on', channel=0, note=81, velocity=82, time=1),\n",
      "  Message('note_on', channel=0, note=81, velocity=0, time=89),\n",
      "  Message('note_on', channel=0, note=81, velocity=82, time=199),\n",
      "  Message('note_on', channel=0, note=81, velocity=0, time=23),\n",
      "  Message('note_on', channel=0, note=83, velocity=83, time=1),\n",
      "  Message('note_on', channel=0, note=83, velocity=0, time=23),\n",
      "  Message('note_on', channel=0, note=85, velocity=84, time=1),\n",
      "  Message('note_on', channel=0, note=85, velocity=0, time=23),\n",
      "  Message('note_on', channel=0, note=86, velocity=85, time=1),\n",
      "  Message('note_on', channel=0, note=86, velocity=0, time=23),\n",
      "  Message('note_on', channel=0, note=83, velocity=87, time=1),\n",
      "  Message('note_on', channel=0, note=83, velocity=0, time=89),\n",
      "  Message('note_on', channel=0, note=83, velocity=87, time=199),\n",
      "  Message('note_on', channel=0, note=83, velocity=0, time=23),\n",
      "  Message('note_on', channel=0, note=84, velocity=87, time=1),\n",
      "  Message('note_on', channel=0, note=84, velocity=0, time=23),\n",
      "  Message('note_on', channel=0, note=85, velocity=87, time=1),\n",
      "  Message('note_on', channel=0, note=85, velocity=0, time=23),\n",
      "  Message('note_on', channel=0, note=86, velocity=87, time=1),\n",
      "  Message('note_on', channel=0, note=86, velocity=0, time=23),\n",
      "  Message('note_on', channel=0, note=84, velocity=87, time=1),\n",
      "  Message('note_on', channel=0, note=84, velocity=0, time=89),\n",
      "  Message('note_on', channel=0, note=84, velocity=87, time=199),\n",
      "  Message('note_on', channel=0, note=84, velocity=0, time=23),\n",
      "  Message('note_on', channel=0, note=81, velocity=87, time=1),\n",
      "  Message('note_on', channel=0, note=81, velocity=0, time=23),\n",
      "  Message('note_on', channel=0, note=84, velocity=87, time=1),\n",
      "  Message('note_on', channel=0, note=84, velocity=0, time=23),\n",
      "  Message('note_on', channel=0, note=81, velocity=87, time=1),\n",
      "  Message('note_on', channel=0, note=81, velocity=0, time=23),\n",
      "  Message('note_on', channel=0, note=83, velocity=87, time=1),\n",
      "  Message('note_on', channel=0, note=83, velocity=0, time=20),\n",
      "  Message('note_on', channel=0, note=86, velocity=87, time=76),\n",
      "  Message('note_on', channel=0, note=86, velocity=0, time=23),\n",
      "  Message('note_on', channel=0, note=83, velocity=87, time=1),\n",
      "  Message('note_on', channel=0, note=83, velocity=0, time=23),\n",
      "  Message('note_on', channel=0, note=79, velocity=87, time=1),\n",
      "  Message('note_on', channel=0, note=79, velocity=0, time=23),\n",
      "  Message('note_on', channel=0, note=74, velocity=87, time=1),\n",
      "  Message('note_on', channel=0, note=74, velocity=0, time=23),\n",
      "  Message('note_on', channel=0, note=83, velocity=87, time=1),\n",
      "  Message('note_on', channel=0, note=83, velocity=0, time=23),\n",
      "  Message('note_on', channel=0, note=79, velocity=87, time=1),\n",
      "  Message('note_on', channel=0, note=79, velocity=0, time=23),\n",
      "  Message('note_on', channel=0, note=74, velocity=87, time=1),\n",
      "  Message('note_on', channel=0, note=74, velocity=0, time=23),\n",
      "  Message('note_on', channel=0, note=71, velocity=87, time=1),\n",
      "  Message('note_on', channel=0, note=71, velocity=0, time=23),\n",
      "  Message('note_on', channel=0, note=79, velocity=87, time=1),\n",
      "  Message('note_on', channel=0, note=79, velocity=0, time=23),\n",
      "  Message('note_on', channel=0, note=74, velocity=87, time=1),\n",
      "  Message('note_on', channel=0, note=74, velocity=0, time=23),\n",
      "  Message('note_on', channel=0, note=71, velocity=87, time=1),\n",
      "  Message('note_on', channel=0, note=71, velocity=0, time=23),\n",
      "  Message('note_on', channel=0, note=67, velocity=87, time=1),\n",
      "  Message('note_on', channel=0, note=67, velocity=0, time=23),\n",
      "  Message('note_on', channel=0, note=71, velocity=87, time=1),\n",
      "  Message('note_on', channel=0, note=71, velocity=0, time=23),\n",
      "  Message('note_on', channel=0, note=67, velocity=87, time=1),\n",
      "  Message('note_on', channel=0, note=67, velocity=0, time=23),\n",
      "  Message('note_on', channel=0, note=62, velocity=87, time=1),\n",
      "  Message('note_on', channel=0, note=62, velocity=0, time=23),\n",
      "  Message('note_on', channel=0, note=59, velocity=87, time=1),\n",
      "  Message('note_on', channel=0, note=59, velocity=0, time=23),\n",
      "  Message('note_on', channel=0, note=58, velocity=87, time=1),\n",
      "  Message('note_on', channel=0, note=58, velocity=0, time=23),\n",
      "  Message('note_on', channel=0, note=59, velocity=87, time=1),\n",
      "  Message('note_on', channel=0, note=59, velocity=0, time=23),\n",
      "  Message('note_on', channel=0, note=58, velocity=87, time=1),\n",
      "  Message('note_on', channel=0, note=58, velocity=0, time=23),\n",
      "  Message('note_on', channel=0, note=59, velocity=87, time=1),\n",
      "  Message('note_on', channel=0, note=59, velocity=0, time=23),\n",
      "  Message('note_on', channel=0, note=58, velocity=87, time=1),\n",
      "  Message('note_on', channel=0, note=58, velocity=0, time=23),\n",
      "  Message('note_on', channel=0, note=59, velocity=87, time=1),\n",
      "  Message('note_on', channel=0, note=59, velocity=0, time=23),\n",
      "  Message('note_on', channel=0, note=58, velocity=87, time=1),\n",
      "  Message('note_on', channel=0, note=58, velocity=0, time=23),\n",
      "  Message('note_on', channel=0, note=59, velocity=87, time=1),\n",
      "  Message('note_on', channel=0, note=59, velocity=0, time=23),\n",
      "  Message('note_on', channel=0, note=58, velocity=87, time=1),\n",
      "  Message('note_on', channel=0, note=58, velocity=0, time=23),\n",
      "  Message('note_on', channel=0, note=59, velocity=87, time=1),\n",
      "  Message('note_on', channel=0, note=59, velocity=0, time=23),\n",
      "  Message('note_on', channel=0, note=58, velocity=87, time=1),\n",
      "  Message('note_on', channel=0, note=58, velocity=0, time=23),\n",
      "  Message('note_on', channel=0, note=59, velocity=87, time=1),\n",
      "  Message('note_on', channel=0, note=59, velocity=0, time=23),\n",
      "  Message('note_on', channel=0, note=55, velocity=87, time=1),\n",
      "  Message('note_on', channel=0, note=55, velocity=0, time=45),\n",
      "  Message('note_on', channel=0, note=83, velocity=87, time=51),\n",
      "  Message('note_on', channel=0, note=83, velocity=0, time=23),\n",
      "  Message('note_on', channel=0, note=79, velocity=87, time=1),\n",
      "  Message('note_on', channel=0, note=79, velocity=0, time=23),\n",
      "  Message('note_on', channel=0, note=76, velocity=87, time=1),\n",
      "  Message('note_on', channel=0, note=76, velocity=0, time=23),\n",
      "  Message('note_on', channel=0, note=71, velocity=87, time=1),\n",
      "  Message('note_on', channel=0, note=71, velocity=0, time=23),\n",
      "  Message('note_on', channel=0, note=79, velocity=87, time=1),\n",
      "  Message('note_on', channel=0, note=79, velocity=0, time=23),\n",
      "  Message('note_on', channel=0, note=76, velocity=87, time=1),\n",
      "  Message('note_on', channel=0, note=76, velocity=0, time=23),\n",
      "  Message('note_on', channel=0, note=71, velocity=87, time=1),\n",
      "  Message('note_on', channel=0, note=71, velocity=0, time=23),\n",
      "  Message('note_on', channel=0, note=67, velocity=87, time=1),\n",
      "  Message('note_on', channel=0, note=67, velocity=0, time=23),\n",
      "  Message('note_on', channel=0, note=76, velocity=87, time=1),\n",
      "  Message('note_on', channel=0, note=76, velocity=0, time=23),\n",
      "  Message('note_on', channel=0, note=71, velocity=87, time=1),\n",
      "  Message('note_on', channel=0, note=71, velocity=0, time=23),\n",
      "  Message('note_on', channel=0, note=67, velocity=87, time=1),\n",
      "  Message('note_on', channel=0, note=67, velocity=0, time=23),\n",
      "  Message('note_on', channel=0, note=64, velocity=87, time=1),\n",
      "  Message('note_on', channel=0, note=64, velocity=0, time=23),\n",
      "  Message('note_on', channel=0, note=67, velocity=87, time=1),\n",
      "  Message('note_on', channel=0, note=67, velocity=0, time=23),\n",
      "  Message('note_on', channel=0, note=64, velocity=87, time=1),\n",
      "  Message('note_on', channel=0, note=64, velocity=0, time=23),\n",
      "  Message('note_on', channel=0, note=59, velocity=87, time=1),\n",
      "  Message('note_on', channel=0, note=59, velocity=0, time=23),\n",
      "  Message('note_on', channel=0, note=55, velocity=87, time=1),\n",
      "  Message('note_on', channel=0, note=55, velocity=0, time=23),\n",
      "  Message('note_on', channel=0, note=54, velocity=87, time=1),\n",
      "  Message('note_on', channel=0, note=54, velocity=0, time=23),\n",
      "  Message('note_on', channel=0, note=55, velocity=87, time=1),\n",
      "  Message('note_on', channel=0, note=55, velocity=0, time=23),\n",
      "  Message('note_on', channel=0, note=54, velocity=87, time=1),\n",
      "  Message('note_on', channel=0, note=54, velocity=0, time=23),\n",
      "  Message('note_on', channel=0, note=55, velocity=87, time=1),\n",
      "  Message('note_on', channel=0, note=55, velocity=0, time=23),\n",
      "  Message('note_on', channel=0, note=54, velocity=87, time=1),\n",
      "  Message('note_on', channel=0, note=54, velocity=0, time=23),\n",
      "  Message('note_on', channel=0, note=55, velocity=87, time=1),\n",
      "  Message('note_on', channel=0, note=55, velocity=0, time=23),\n",
      "  Message('note_on', channel=0, note=54, velocity=87, time=1),\n",
      "  Message('note_on', channel=0, note=54, velocity=0, time=23),\n",
      "  Message('note_on', channel=0, note=55, velocity=87, time=1),\n",
      "  Message('note_on', channel=0, note=55, velocity=0, time=23),\n",
      "  Message('note_on', channel=0, note=54, velocity=87, time=1),\n",
      "  Message('note_on', channel=0, note=54, velocity=0, time=23),\n",
      "  Message('note_on', channel=0, note=55, velocity=87, time=1),\n",
      "  Message('note_on', channel=0, note=55, velocity=0, time=23),\n",
      "  Message('note_on', channel=0, note=54, velocity=87, time=1),\n",
      "  Message('note_on', channel=0, note=54, velocity=0, time=23),\n",
      "  Message('note_on', channel=0, note=55, velocity=87, time=1),\n",
      "  Message('note_on', channel=0, note=55, velocity=0, time=23),\n",
      "  Message('note_on', channel=0, note=52, velocity=87, time=1),\n",
      "  Message('note_on', channel=0, note=52, velocity=0, time=45),\n",
      "  Message('note_on', channel=0, note=79, velocity=87, time=51),\n",
      "  Message('note_on', channel=0, note=79, velocity=0, time=23),\n",
      "  Message('note_on', channel=0, note=76, velocity=87, time=1),\n",
      "  Message('note_on', channel=0, note=76, velocity=0, time=23),\n",
      "  Message('note_on', channel=0, note=73, velocity=87, time=1),\n",
      "  Message('note_on', channel=0, note=73, velocity=0, time=23),\n",
      "  Message('note_on', channel=0, note=67, velocity=87, time=1),\n",
      "  Message('note_on', channel=0, note=67, velocity=0, time=23),\n",
      "  Message('note_on', channel=0, note=76, velocity=87, time=1),\n",
      "  Message('note_on', channel=0, note=76, velocity=0, time=23),\n",
      "  Message('note_on', channel=0, note=73, velocity=87, time=1),\n",
      "  Message('note_on', channel=0, note=73, velocity=0, time=23),\n",
      "  Message('note_on', channel=0, note=67, velocity=87, time=1),\n",
      "  Message('note_on', channel=0, note=67, velocity=0, time=23),\n",
      "  Message('note_on', channel=0, note=64, velocity=87, time=1),\n",
      "  Message('note_on', channel=0, note=64, velocity=0, time=23),\n",
      "  Message('note_on', channel=0, note=73, velocity=87, time=1),\n",
      "  Message('note_on', channel=0, note=73, velocity=0, time=23),\n",
      "  Message('note_on', channel=0, note=67, velocity=87, time=1),\n",
      "  Message('note_on', channel=0, note=67, velocity=0, time=23),\n",
      "  Message('note_on', channel=0, note=64, velocity=87, time=1),\n",
      "  Message('note_on', channel=0, note=64, velocity=0, time=23),\n",
      "  Message('note_on', channel=0, note=61, velocity=87, time=1),\n",
      "  Message('note_on', channel=0, note=61, velocity=0, time=23),\n",
      "  Message('note_on', channel=0, note=64, velocity=87, time=1),\n",
      "  Message('note_on', channel=0, note=64, velocity=0, time=23),\n",
      "  Message('note_on', channel=0, note=61, velocity=87, time=1),\n",
      "  Message('note_on', channel=0, note=61, velocity=0, time=23),\n",
      "  Message('note_on', channel=0, note=55, velocity=87, time=1),\n",
      "  Message('note_on', channel=0, note=55, velocity=0, time=23),\n",
      "  Message('note_on', channel=0, note=52, velocity=87, time=1),\n",
      "  Message('note_on', channel=0, note=52, velocity=0, time=23),\n",
      "  Message('note_on', channel=0, note=51, velocity=87, time=1),\n",
      "  Message('note_on', channel=0, note=51, velocity=0, time=23),\n",
      "  Message('note_on', channel=0, note=52, velocity=87, time=1),\n",
      "  Message('note_on', channel=0, note=52, velocity=0, time=23),\n",
      "  Message('note_on', channel=0, note=51, velocity=87, time=1),\n",
      "  Message('note_on', channel=0, note=51, velocity=0, time=23),\n",
      "  Message('note_on', channel=0, note=52, velocity=87, time=1),\n",
      "  Message('note_on', channel=0, note=52, velocity=0, time=23),\n",
      "  Message('note_on', channel=0, note=51, velocity=87, time=1),\n",
      "  Message('note_on', channel=0, note=51, velocity=0, time=23),\n",
      "  Message('note_on', channel=0, note=52, velocity=87, time=1),\n",
      "  Message('note_on', channel=0, note=52, velocity=0, time=23),\n",
      "  Message('note_on', channel=0, note=51, velocity=87, time=1),\n",
      "  Message('note_on', channel=0, note=51, velocity=0, time=23),\n",
      "  Message('note_on', channel=0, note=52, velocity=87, time=1),\n",
      "  Message('note_on', channel=0, note=52, velocity=0, time=23),\n",
      "  Message('note_on', channel=0, note=51, velocity=87, time=1),\n",
      "  Message('note_on', channel=0, note=51, velocity=0, time=23),\n",
      "  Message('note_on', channel=0, note=52, velocity=87, time=1),\n",
      "  Message('note_on', channel=0, note=52, velocity=0, time=23),\n",
      "  Message('note_on', channel=0, note=51, velocity=87, time=1),\n",
      "  Message('note_on', channel=0, note=51, velocity=0, time=23),\n",
      "  Message('note_on', channel=0, note=52, velocity=87, time=1),\n",
      "  Message('note_on', channel=0, note=52, velocity=0, time=23),\n",
      "  Message('note_on', channel=0, note=50, velocity=87, time=1),\n",
      "  Message('note_on', channel=0, note=50, velocity=0, time=45),\n",
      "  Message('note_on', channel=0, note=52, velocity=87, time=3),\n",
      "  Message('note_on', channel=0, note=52, velocity=0, time=23),\n",
      "  Message('note_on', channel=0, note=54, velocity=87, time=1),\n",
      "  Message('note_on', channel=0, note=54, velocity=0, time=23),\n",
      "  Message('note_on', channel=0, note=59, velocity=87, time=1),\n",
      "  Message('note_on', channel=0, note=59, velocity=0, time=23),\n",
      "  Message('note_on', channel=0, note=61, velocity=87, time=1),\n",
      "  Message('note_on', channel=0, note=61, velocity=0, time=23),\n",
      "  Message('note_on', channel=0, note=62, velocity=87, time=1),\n",
      "  Message('note_on', channel=0, note=62, velocity=0, time=23),\n",
      "  Message('note_on', channel=0, note=64, velocity=87, time=1),\n",
      "  Message('note_on', channel=0, note=64, velocity=0, time=23),\n",
      "  Message('note_on', channel=0, note=66, velocity=87, time=1),\n",
      "  Message('note_on', channel=0, note=66, velocity=0, time=23),\n",
      "  Message('note_on', channel=0, note=67, velocity=87, time=1),\n",
      "  Message('note_on', channel=0, note=67, velocity=0, time=23),\n",
      "  Message('note_on', channel=0, note=69, velocity=87, time=1),\n",
      "  Message('note_on', channel=0, note=69, velocity=0, time=23),\n",
      "  Message('note_on', channel=0, note=71, velocity=87, time=1),\n",
      "  Message('note_on', channel=0, note=71, velocity=0, time=23),\n",
      "  Message('note_on', channel=0, note=73, velocity=87, time=1),\n",
      "  Message('note_on', channel=0, note=73, velocity=0, time=23),\n",
      "  Message('note_on', channel=0, note=74, velocity=87, time=1),\n",
      "  Message('note_on', channel=0, note=74, velocity=0, time=23),\n",
      "  Message('note_on', channel=0, note=76, velocity=87, time=1),\n",
      "  Message('note_on', channel=0, note=76, velocity=0, time=23),\n",
      "  Message('note_on', channel=0, note=78, velocity=87, time=1),\n",
      "  Message('note_on', channel=0, note=78, velocity=0, time=23),\n",
      "  Message('note_on', channel=0, note=80, velocity=87, time=1),\n",
      "  Message('note_on', channel=0, note=74, velocity=87, time=0),\n",
      "  Message('note_on', channel=0, note=80, velocity=0, time=89),\n",
      "  Message('note_on', channel=0, note=74, velocity=0, time=0),\n",
      "  Message('note_on', channel=0, note=80, velocity=87, time=103),\n",
      "  Message('note_on', channel=0, note=74, velocity=87, time=0),\n",
      "  Message('note_on', channel=0, note=71, velocity=87, time=0),\n",
      "  Message('note_on', channel=0, note=80, velocity=0, time=89),\n",
      "  Message('note_on', channel=0, note=74, velocity=0, time=0),\n",
      "  Message('note_on', channel=0, note=71, velocity=0, time=0),\n",
      "  Message('note_on', channel=0, note=81, velocity=87, time=103),\n",
      "  Message('note_on', channel=0, note=81, velocity=0, time=23),\n",
      "  Message('note_on', channel=0, note=76, velocity=87, time=1),\n",
      "  Message('note_on', channel=0, note=76, velocity=0, time=23),\n",
      "  Message('note_on', channel=0, note=73, velocity=87, time=1),\n",
      "  Message('note_on', channel=0, note=73, velocity=0, time=23),\n",
      "  Message('note_on', channel=0, note=76, velocity=87, time=1),\n",
      "  Message('note_on', channel=0, note=76, velocity=0, time=23),\n",
      "  Message('note_on', channel=0, note=81, velocity=87, time=1),\n",
      "  Message('note_on', channel=0, note=81, velocity=0, time=20),\n",
      "  Message('note_on', channel=0, note=85, velocity=87, time=28),\n",
      "  Message('note_on', channel=0, note=85, velocity=0, time=20),\n",
      "  Message('note_on', channel=0, note=73, velocity=87, time=28),\n",
      "  Message('note_on', channel=0, note=76, velocity=87, time=8),\n",
      "  Message('note_on', channel=0, note=81, velocity=87, time=8),\n",
      "  Message('note_on', channel=0, note=81, velocity=0, time=77),\n",
      "  Message('note_on', channel=0, note=76, velocity=0, time=0),\n",
      "  Message('note_on', channel=0, note=73, velocity=0, time=0),\n",
      "  Message('note_on', channel=0, note=74, velocity=78, time=99),\n",
      "  Message('note_on', channel=0, note=74, velocity=0, time=45),\n",
      "  Message('note_on', channel=0, note=73, velocity=78, time=3),\n",
      "  Message('note_on', channel=0, note=73, velocity=0, time=45),\n",
      "  Message('note_on', channel=0, note=71, velocity=78, time=3),\n",
      "  Message('note_on', channel=0, note=71, velocity=0, time=45),\n",
      "  Message('note_on', channel=0, note=69, velocity=78, time=3),\n",
      "  Message('note_on', channel=0, note=69, velocity=0, time=45),\n",
      "  Message('note_on', channel=0, note=74, velocity=78, time=3),\n",
      "  Message('note_on', channel=0, note=74, velocity=0, time=39),\n",
      "  Message('note_on', channel=0, note=76, velocity=80, time=57),\n",
      "  Message('note_on', channel=0, note=69, velocity=80, time=0),\n",
      "  Message('note_on', channel=0, note=76, velocity=0, time=39),\n",
      "  Message('note_on', channel=0, note=69, velocity=0, time=0),\n",
      "  Message('note_on', channel=0, note=76, velocity=98, time=57),\n",
      "  Message('note_on', channel=0, note=69, velocity=98, time=0),\n",
      "  Message('note_on', channel=0, note=76, velocity=0, time=96),\n",
      "  Message('note_on', channel=0, note=69, velocity=0, time=0),\n",
      "  Message('note_on', channel=0, note=79, velocity=80, time=0),\n",
      "  Message('note_on', channel=0, note=79, velocity=0, time=45),\n",
      "  Message('note_on', channel=0, note=78, velocity=80, time=3),\n",
      "  Message('note_on', channel=0, note=78, velocity=0, time=45),\n",
      "  Message('note_on', channel=0, note=76, velocity=79, time=3),\n",
      "  Message('note_on', channel=0, note=73, velocity=79, time=0),\n",
      "  Message('note_on', channel=0, note=76, velocity=0, time=89),\n",
      "  Message('note_on', channel=0, note=73, velocity=0, time=0),\n",
      "  Message('note_on', channel=0, note=74, velocity=78, time=103),\n",
      "  Message('note_on', channel=0, note=74, velocity=0, time=45),\n",
      "  Message('note_on', channel=0, note=73, velocity=78, time=3),\n",
      "  Message('note_on', channel=0, note=73, velocity=0, time=45),\n",
      "  Message('note_on', channel=0, note=71, velocity=78, time=3),\n",
      "  Message('note_on', channel=0, note=71, velocity=0, time=45),\n",
      "  Message('note_on', channel=0, note=69, velocity=78, time=3),\n",
      "  Message('note_on', channel=0, note=69, velocity=0, time=45),\n",
      "  Message('note_on', channel=0, note=74, velocity=78, time=3),\n",
      "  Message('note_on', channel=0, note=74, velocity=0, time=39),\n",
      "  Message('note_on', channel=0, note=81, velocity=80, time=57),\n",
      "  Message('note_on', channel=0, note=76, velocity=80, time=0),\n",
      "  Message('note_on', channel=0, note=81, velocity=0, time=39),\n",
      "  Message('note_on', channel=0, note=76, velocity=0, time=0),\n",
      "  Message('note_on', channel=0, note=79, velocity=98, time=57),\n",
      "  Message('note_on', channel=0, note=76, velocity=98, time=0),\n",
      "  Message('note_on', channel=0, note=79, velocity=0, time=96),\n",
      "  Message('note_on', channel=0, note=76, velocity=0, time=0),\n",
      "  Message('note_on', channel=0, note=78, velocity=80, time=0),\n",
      "  Message('note_on', channel=0, note=78, velocity=0, time=18),\n",
      "  Message('note_on', channel=0, note=79, velocity=80, time=0),\n",
      "  Message('note_on', channel=0, note=79, velocity=0, time=18),\n",
      "  Message('note_on', channel=0, note=78, velocity=80, time=0),\n",
      "  Message('note_on', channel=0, note=78, velocity=0, time=18),\n",
      "  Message('note_on', channel=0, note=79, velocity=80, time=0),\n",
      "  Message('note_on', channel=0, note=79, velocity=0, time=18),\n",
      "  Message('note_on', channel=0, note=78, velocity=80, time=0),\n",
      "  Message('note_on', channel=0, note=78, velocity=0, time=17),\n",
      "  Message('note_on', channel=0, note=76, velocity=79, time=7),\n",
      "  Message('note_on', channel=0, note=73, velocity=79, time=0),\n",
      "  Message('note_on', channel=0, note=76, velocity=0, time=89),\n",
      "  Message('note_on', channel=0, note=73, velocity=0, time=0),\n",
      "  Message('note_on', channel=0, note=74, velocity=78, time=103),\n",
      "  Message('note_on', channel=0, note=74, velocity=0, time=45),\n",
      "  Message('note_on', channel=0, note=73, velocity=78, time=3),\n",
      "  Message('note_on', channel=0, note=73, velocity=0, time=45),\n",
      "  Message('note_on', channel=0, note=71, velocity=78, time=3),\n",
      "  Message('note_on', channel=0, note=71, velocity=0, time=12),\n",
      "  Message('note_on', channel=0, note=73, velocity=78, time=0),\n",
      "  Message('note_on', channel=0, note=73, velocity=0, time=12),\n",
      "  Message('note_on', channel=0, note=71, velocity=78, time=0),\n",
      "  Message('note_on', channel=0, note=71, velocity=0, time=21),\n",
      "  Message('note_on', channel=0, note=69, velocity=78, time=3),\n",
      "  Message('note_on', channel=0, note=69, velocity=0, time=45),\n",
      "  Message('note_on', channel=0, note=74, velocity=78, time=3),\n",
      "  Message('note_on', channel=0, note=74, velocity=0, time=39),\n",
      "  Message('note_on', channel=0, note=76, velocity=80, time=57),\n",
      "  Message('note_on', channel=0, note=69, velocity=80, time=0),\n",
      "  Message('note_on', channel=0, note=76, velocity=0, time=39),\n",
      "  Message('note_on', channel=0, note=69, velocity=0, time=0),\n",
      "  Message('note_on', channel=0, note=76, velocity=98, time=57),\n",
      "  Message('note_on', channel=0, note=69, velocity=98, time=0),\n",
      "  Message('note_on', channel=0, note=76, velocity=0, time=96),\n",
      "  Message('note_on', channel=0, note=69, velocity=0, time=0),\n",
      "  Message('note_on', channel=0, note=79, velocity=80, time=0),\n",
      "  Message('note_on', channel=0, note=79, velocity=0, time=45),\n",
      "  Message('note_on', channel=0, note=78, velocity=80, time=3),\n",
      "  Message('note_on', channel=0, note=78, velocity=0, time=45),\n",
      "  Message('note_on', channel=0, note=76, velocity=79, time=3),\n",
      "  Message('note_on', channel=0, note=73, velocity=79, time=0),\n",
      "  Message('note_on', channel=0, note=76, velocity=0, time=89),\n",
      "  Message('note_on', channel=0, note=73, velocity=0, time=0),\n",
      "  Message('note_on', channel=0, note=81, velocity=78, time=103),\n",
      "  Message('note_on', channel=0, note=81, velocity=0, time=20),\n",
      "  Message('note_on', channel=0, note=78, velocity=78, time=28),\n",
      "  Message('note_on', channel=0, note=78, velocity=0, time=20),\n",
      "  Message('note_on', channel=0, note=76, velocity=78, time=28),\n",
      "  Message('note_on', channel=0, note=76, velocity=0, time=23),\n",
      "  Message('note_on', channel=0, note=78, velocity=79, time=1),\n",
      "  Message('note_on', channel=0, note=78, velocity=0, time=23),\n",
      "  Message('note_on', channel=0, note=79, velocity=80, time=1),\n",
      "  Message('note_on', channel=0, note=79, velocity=0, time=23),\n",
      "  Message('note_on', channel=0, note=76, velocity=81, time=1),\n",
      "  Message('note_on', channel=0, note=76, velocity=0, time=23),\n",
      "  Message('note_on', channel=0, note=74, velocity=82, time=1),\n",
      "  Message('note_on', channel=0, note=74, velocity=0, time=89),\n",
      "  Message('note_on', channel=0, note=78, velocity=80, time=7),\n",
      "  Message('note_on', channel=0, note=78, velocity=0, time=67),\n",
      "  Message('note_on', channel=0, note=76, velocity=78, time=5),\n",
      "  Message('note_on', channel=0, note=76, velocity=0, time=23),\n",
      "  Message('note_on', channel=0, note=74, velocity=78, time=1),\n",
      "  Message('note_on', channel=0, note=74, velocity=0, time=89),\n",
      "  Message('note_on', channel=0, note=69, velocity=78, time=679),\n",
      "  Message('note_on', channel=0, note=69, velocity=0, time=23),\n",
      "  Message('note_on', channel=0, note=81, velocity=78, time=1),\n",
      "  Message('note_on', channel=0, note=81, velocity=0, time=23),\n",
      "  Message('note_on', channel=0, note=69, velocity=78, time=1),\n",
      "  Message('note_on', channel=0, note=69, velocity=0, time=23),\n",
      "  Message('note_on', channel=0, note=81, velocity=78, time=1),\n",
      "  Message('note_on', channel=0, note=81, velocity=0, time=23),\n",
      "  Message('note_on', channel=0, note=69, velocity=78, time=1),\n",
      "  Message('note_on', channel=0, note=69, velocity=0, time=23),\n",
      "  Message('note_on', channel=0, note=81, velocity=78, time=1),\n",
      "  Message('note_on', channel=0, note=81, velocity=0, time=23),\n",
      "  Message('note_on', channel=0, note=69, velocity=78, time=1),\n",
      "  Message('note_on', channel=0, note=69, velocity=0, time=23),\n",
      "  Message('note_on', channel=0, note=81, velocity=78, time=1),\n",
      "  Message('note_on', channel=0, note=81, velocity=0, time=23),\n",
      "  Message('note_on', channel=0, note=69, velocity=78, time=1),\n",
      "  Message('note_on', channel=0, note=69, velocity=0, time=23),\n",
      "  Message('note_on', channel=0, note=81, velocity=78, time=1),\n",
      "  Message('note_on', channel=0, note=81, velocity=0, time=23),\n",
      "  Message('note_on', channel=0, note=69, velocity=78, time=1),\n",
      "  Message('note_on', channel=0, note=69, velocity=0, time=23),\n",
      "  Message('note_on', channel=0, note=81, velocity=78, time=1),\n",
      "  Message('note_on', channel=0, note=81, velocity=0, time=23),\n",
      "  Message('note_on', channel=0, note=69, velocity=78, time=1),\n",
      "  Message('note_on', channel=0, note=69, velocity=0, time=23),\n",
      "  Message('note_on', channel=0, note=81, velocity=78, time=1),\n",
      "  Message('note_on', channel=0, note=81, velocity=0, time=23),\n",
      "  Message('note_on', channel=0, note=69, velocity=78, time=1),\n",
      "  Message('note_on', channel=0, note=69, velocity=0, time=23),\n",
      "  Message('note_on', channel=0, note=81, velocity=78, time=1),\n",
      "  Message('note_on', channel=0, note=81, velocity=0, time=23),\n",
      "  Message('note_on', channel=0, note=69, velocity=78, time=1),\n",
      "  Message('note_on', channel=0, note=69, velocity=0, time=23),\n",
      "  Message('note_on', channel=0, note=81, velocity=78, time=1),\n",
      "  Message('note_on', channel=0, note=81, velocity=0, time=23),\n",
      "  Message('note_on', channel=0, note=69, velocity=78, time=1),\n",
      "  Message('note_on', channel=0, note=69, velocity=0, time=23),\n",
      "  Message('note_on', channel=0, note=81, velocity=78, time=1),\n",
      "  Message('note_on', channel=0, note=81, velocity=0, time=23),\n",
      "  Message('note_on', channel=0, note=69, velocity=78, time=1),\n",
      "  Message('note_on', channel=0, note=69, velocity=0, time=23),\n",
      "  Message('note_on', channel=0, note=81, velocity=78, time=1),\n",
      "  Message('note_on', channel=0, note=81, velocity=0, time=23),\n",
      "  Message('note_on', channel=0, note=69, velocity=78, time=1),\n",
      "  Message('note_on', channel=0, note=69, velocity=0, time=23),\n",
      "  Message('note_on', channel=0, note=81, velocity=78, time=1),\n",
      "  Message('note_on', channel=0, note=81, velocity=0, time=23),\n",
      "  Message('note_on', channel=0, note=69, velocity=78, time=1),\n",
      "  Message('note_on', channel=0, note=69, velocity=0, time=23),\n",
      "  Message('note_on', channel=0, note=81, velocity=78, time=1),\n",
      "  Message('note_on', channel=0, note=81, velocity=0, time=23),\n",
      "  Message('note_on', channel=0, note=69, velocity=78, time=1),\n",
      "  Message('note_on', channel=0, note=69, velocity=0, time=23),\n",
      "  Message('note_on', channel=0, note=81, velocity=78, time=1),\n",
      "  Message('note_on', channel=0, note=81, velocity=0, time=23),\n",
      "  Message('note_on', channel=0, note=69, velocity=78, time=1),\n",
      "  Message('note_on', channel=0, note=69, velocity=0, time=23),\n",
      "  Message('note_on', channel=0, note=81, velocity=78, time=1),\n",
      "  Message('note_on', channel=0, note=81, velocity=0, time=23),\n",
      "  Message('note_on', channel=0, note=69, velocity=78, time=1),\n",
      "  Message('note_on', channel=0, note=69, velocity=0, time=23),\n",
      "  Message('note_on', channel=0, note=81, velocity=78, time=1),\n",
      "  Message('note_on', channel=0, note=81, velocity=0, time=23),\n",
      "  Message('note_on', channel=0, note=69, velocity=73, time=1),\n",
      "  Message('note_on', channel=0, note=69, velocity=0, time=23),\n",
      "  Message('note_on', channel=0, note=81, velocity=73, time=1),\n",
      "  Message('note_on', channel=0, note=81, velocity=0, time=23),\n",
      "  Message('note_on', channel=0, note=69, velocity=73, time=1),\n",
      "  Message('note_on', channel=0, note=69, velocity=0, time=23),\n",
      "  Message('note_on', channel=0, note=81, velocity=73, time=1),\n",
      "  Message('note_on', channel=0, note=81, velocity=0, time=23),\n",
      "  Message('note_on', channel=0, note=69, velocity=74, time=1),\n",
      "  Message('note_on', channel=0, note=69, velocity=0, time=23),\n",
      "  Message('note_on', channel=0, note=81, velocity=74, time=1),\n",
      "  Message('note_on', channel=0, note=81, velocity=0, time=23),\n",
      "  Message('note_on', channel=0, note=69, velocity=74, time=1),\n",
      "  Message('note_on', channel=0, note=69, velocity=0, time=23),\n",
      "  Message('note_on', channel=0, note=81, velocity=75, time=1),\n",
      "  Message('note_on', channel=0, note=81, velocity=0, time=23),\n",
      "  Message('note_on', channel=0, note=69, velocity=75, time=1),\n",
      "  Message('note_on', channel=0, note=69, velocity=0, time=23),\n",
      "  Message('note_on', channel=0, note=81, velocity=75, time=1),\n",
      "  Message('note_on', channel=0, note=81, velocity=0, time=23),\n",
      "  Message('note_on', channel=0, note=69, velocity=75, time=1),\n",
      "  Message('note_on', channel=0, note=69, velocity=0, time=23),\n",
      "  Message('note_on', channel=0, note=81, velocity=76, time=1),\n",
      "  Message('note_on', channel=0, note=81, velocity=0, time=23),\n",
      "  Message('note_on', channel=0, note=69, velocity=76, time=1),\n",
      "  Message('note_on', channel=0, note=69, velocity=0, time=23),\n",
      "  Message('note_on', channel=0, note=81, velocity=76, time=1),\n",
      "  Message('note_on', channel=0, note=81, velocity=0, time=23),\n",
      "  Message('note_on', channel=0, note=69, velocity=77, time=1),\n",
      "  Message('note_on', channel=0, note=69, velocity=0, time=23),\n",
      "  Message('note_on', channel=0, note=81, velocity=77, time=1),\n",
      "  Message('note_on', channel=0, note=81, velocity=0, time=23),\n",
      "  Message('note_on', channel=0, note=69, velocity=77, time=1),\n",
      "  Message('note_on', channel=0, note=69, velocity=0, time=23),\n",
      "  Message('note_on', channel=0, note=81, velocity=77, time=1),\n",
      "  Message('note_on', channel=0, note=81, velocity=0, time=23),\n",
      "  Message('note_on', channel=0, note=69, velocity=78, time=1),\n",
      "  Message('note_on', channel=0, note=69, velocity=0, time=23),\n",
      "  Message('note_on', channel=0, note=81, velocity=78, time=1),\n",
      "  Message('note_on', channel=0, note=81, velocity=0, time=23),\n",
      "  Message('note_on', channel=0, note=69, velocity=78, time=1),\n",
      "  Message('note_on', channel=0, note=69, velocity=0, time=23),\n",
      "  Message('note_on', channel=0, note=81, velocity=79, time=1),\n",
      "  Message('note_on', channel=0, note=81, velocity=0, time=23),\n",
      "  Message('note_on', channel=0, note=69, velocity=79, time=1),\n",
      "  Message('note_on', channel=0, note=69, velocity=0, time=23),\n",
      "  Message('note_on', channel=0, note=81, velocity=79, time=1),\n",
      "  Message('note_on', channel=0, note=81, velocity=0, time=23),\n",
      "  Message('note_on', channel=0, note=69, velocity=80, time=1),\n",
      "  Message('note_on', channel=0, note=69, velocity=0, time=23),\n",
      "  Message('note_on', channel=0, note=81, velocity=80, time=1),\n",
      "  Message('note_on', channel=0, note=81, velocity=0, time=23),\n",
      "  Message('note_on', channel=0, note=69, velocity=80, time=1),\n",
      "  Message('note_on', channel=0, note=69, velocity=0, time=23),\n",
      "  Message('note_on', channel=0, note=81, velocity=80, time=1),\n",
      "  Message('note_on', channel=0, note=81, velocity=0, time=23),\n",
      "  Message('note_on', channel=0, note=69, velocity=81, time=1),\n",
      "  Message('note_on', channel=0, note=69, velocity=0, time=23),\n",
      "  Message('note_on', channel=0, note=81, velocity=81, time=1),\n",
      "  Message('note_on', channel=0, note=81, velocity=0, time=23),\n",
      "  Message('note_on', channel=0, note=69, velocity=81, time=1),\n",
      "  Message('note_on', channel=0, note=69, velocity=0, time=23),\n",
      "  Message('note_on', channel=0, note=81, velocity=82, time=1),\n",
      "  Message('note_on', channel=0, note=81, velocity=0, time=23),\n",
      "  Message('note_on', channel=0, note=69, velocity=82, time=1),\n",
      "  Message('note_on', channel=0, note=69, velocity=0, time=23),\n",
      "  Message('note_on', channel=0, note=81, velocity=82, time=1),\n",
      "  Message('note_on', channel=0, note=81, velocity=0, time=23),\n",
      "  Message('note_on', channel=0, note=69, velocity=82, time=1),\n",
      "  Message('note_on', channel=0, note=69, velocity=0, time=23),\n",
      "  Message('note_on', channel=0, note=81, velocity=83, time=1),\n",
      "  Message('note_on', channel=0, note=81, velocity=0, time=23),\n",
      "  Message('note_on', channel=0, note=69, velocity=83, time=1),\n",
      "  Message('note_on', channel=0, note=69, velocity=0, time=23),\n",
      "  Message('note_on', channel=0, note=81, velocity=83, time=1),\n",
      "  Message('note_on', channel=0, note=81, velocity=0, time=23),\n",
      "  Message('note_on', channel=0, note=69, velocity=84, time=1),\n",
      "  Message('note_on', channel=0, note=69, velocity=0, time=23),\n",
      "  Message('note_on', channel=0, note=81, velocity=84, time=1),\n",
      "  Message('note_on', channel=0, note=81, velocity=0, time=23),\n",
      "  Message('note_on', channel=0, note=69, velocity=84, time=1),\n",
      "  Message('note_on', channel=0, note=69, velocity=0, time=23),\n",
      "  Message('note_on', channel=0, note=81, velocity=84, time=1),\n",
      "  Message('note_on', channel=0, note=81, velocity=0, time=23),\n",
      "  Message('note_on', channel=0, note=69, velocity=85, time=1),\n",
      "  Message('note_on', channel=0, note=69, velocity=0, time=23),\n",
      "  Message('note_on', channel=0, note=81, velocity=85, time=1),\n",
      "  Message('note_on', channel=0, note=81, velocity=0, time=23),\n",
      "  Message('note_on', channel=0, note=73, velocity=85, time=1),\n",
      "  Message('note_on', channel=0, note=73, velocity=0, time=23),\n",
      "  Message('note_on', channel=0, note=85, velocity=86, time=1),\n",
      "  Message('note_on', channel=0, note=85, velocity=0, time=23),\n",
      "  Message('note_on', channel=0, note=73, velocity=86, time=1),\n",
      "  Message('note_on', channel=0, note=73, velocity=0, time=23),\n",
      "  Message('note_on', channel=0, note=85, velocity=86, time=1),\n",
      "  Message('note_on', channel=0, note=85, velocity=0, time=23),\n",
      "  Message('note_on', channel=0, note=86, velocity=87, time=1),\n",
      "  Message('note_on', channel=0, note=86, velocity=0, time=39),\n",
      "  Message('note_on', channel=0, note=74, velocity=73, time=57),\n",
      "  Message('note_on', channel=0, note=74, velocity=0, time=89),\n",
      "  Message('note_on', channel=0, note=74, velocity=89, time=7),\n",
      "  Message('note_on', channel=0, note=74, velocity=0, time=96),\n",
      "  Message('note_on', channel=0, note=78, velocity=73, time=0),\n",
      "  Message('note_on', channel=0, note=78, velocity=0, time=45),\n",
      "  Message('note_on', channel=0, note=76, velocity=73, time=3),\n",
      "  Message('note_on', channel=0, note=76, velocity=0, time=45),\n",
      "  Message('note_on', channel=0, note=74, velocity=73, time=3),\n",
      "  Message('note_on', channel=0, note=74, velocity=0, time=89),\n",
      "  Message('note_on', channel=0, note=64, velocity=73, time=295),\n",
      "  Message('note_on', channel=0, note=64, velocity=0, time=23),\n",
      "  Message('note_on', channel=0, note=63, velocity=73, time=1),\n",
      "  Message('note_on', channel=0, note=63, velocity=0, time=23),\n",
      "  Message('note_on', channel=0, note=64, velocity=73, time=1),\n",
      "  Message('note_on', channel=0, note=64, velocity=0, time=23),\n",
      "  Message('note_on', channel=0, note=63, velocity=73, time=1),\n",
      "  Message('note_on', channel=0, note=63, velocity=0, time=23),\n",
      "  Message('note_on', channel=0, note=64, velocity=73, time=1),\n",
      "  Message('note_on', channel=0, note=64, velocity=0, time=23),\n",
      "  Message('note_on', channel=0, note=63, velocity=73, time=1),\n",
      "  Message('note_on', channel=0, note=63, velocity=0, time=23),\n",
      "  Message('note_on', channel=0, note=64, velocity=74, time=1),\n",
      "  Message('note_on', channel=0, note=64, velocity=0, time=23),\n",
      "  Message('note_on', channel=0, note=63, velocity=74, time=1),\n",
      "  Message('note_on', channel=0, note=63, velocity=0, time=23),\n",
      "  Message('note_on', channel=0, note=64, velocity=74, time=1),\n",
      "  Message('note_on', channel=0, note=64, velocity=0, time=23),\n",
      "  Message('note_on', channel=0, note=66, velocity=74, time=1),\n",
      "  Message('note_on', channel=0, note=66, velocity=0, time=23),\n",
      "  Message('note_on', channel=0, note=67, velocity=74, time=1),\n",
      "  Message('note_on', channel=0, note=67, velocity=0, time=23),\n",
      "  Message('note_on', channel=0, note=69, velocity=74, time=1),\n",
      "  Message('note_on', channel=0, note=69, velocity=0, time=23),\n",
      "  Message('note_on', channel=0, note=71, velocity=75, time=1),\n",
      "  Message('note_on', channel=0, note=71, velocity=0, time=23),\n",
      "  Message('note_on', channel=0, note=72, velocity=75, time=1),\n",
      "  Message('note_on', channel=0, note=72, velocity=0, time=23),\n",
      "  Message('note_on', channel=0, note=74, velocity=75, time=1),\n",
      "  Message('note_on', channel=0, note=74, velocity=0, time=23),\n",
      "  Message('note_on', channel=0, note=76, velocity=75, time=1),\n",
      "  Message('note_on', channel=0, note=76, velocity=0, time=23),\n",
      "  Message('note_on', channel=0, note=76, velocity=91, time=1),\n",
      "  Message('note_on', channel=0, note=76, velocity=0, time=192),\n",
      "  Message('note_on', channel=0, note=74, velocity=77, time=0),\n",
      "  Message('note_on', channel=0, note=74, velocity=0, time=67),\n",
      "  Message('note_on', channel=0, note=72, velocity=77, time=5),\n",
      "  Message('note_on', channel=0, note=72, velocity=0, time=24),\n",
      "  Message('note_on', channel=0, note=71, velocity=77, time=0),\n",
      "  Message('note_on', channel=0, note=71, velocity=0, time=29),\n",
      "  Message('note_on', channel=0, note=69, velocity=78, time=43),\n",
      "  Message('note_on', channel=0, note=69, velocity=0, time=23),\n",
      "  Message('note_on', channel=0, note=67, velocity=78, time=1),\n",
      "  Message('note_on', channel=0, note=67, velocity=0, time=23),\n",
      "  Message('note_on', channel=0, note=66, velocity=78, time=1),\n",
      "  Message('note_on', channel=0, note=66, velocity=0, time=23),\n",
      "  Message('note_on', channel=0, note=67, velocity=79, time=1),\n",
      "  Message('note_on', channel=0, note=67, velocity=0, time=23),\n",
      "  Message('note_on', channel=0, note=66, velocity=79, time=1),\n",
      "  Message('note_on', channel=0, note=66, velocity=0, time=23),\n",
      "  Message('note_on', channel=0, note=67, velocity=79, time=1),\n",
      "  Message('note_on', channel=0, note=67, velocity=0, time=23),\n",
      "  Message('note_on', channel=0, note=66, velocity=79, time=1),\n",
      "  Message('note_on', channel=0, note=66, velocity=0, time=23),\n",
      "  Message('note_on', channel=0, note=67, velocity=79, time=1),\n",
      "  Message('note_on', channel=0, note=67, velocity=0, time=23),\n",
      "  Message('note_on', channel=0, note=66, velocity=79, time=1),\n",
      "  Message('note_on', channel=0, note=66, velocity=0, time=23),\n",
      "  Message('note_on', channel=0, note=67, velocity=80, time=1),\n",
      "  Message('note_on', channel=0, note=67, velocity=0, time=23),\n",
      "  Message('note_on', channel=0, note=69, velocity=80, time=1),\n",
      "  Message('note_on', channel=0, note=69, velocity=0, time=23),\n",
      "  Message('note_on', channel=0, note=71, velocity=80, time=1),\n",
      "  Message('note_on', channel=0, note=71, velocity=0, time=23),\n",
      "  Message('note_on', channel=0, note=72, velocity=80, time=1),\n",
      "  Message('note_on', channel=0, note=72, velocity=0, time=23),\n",
      "  Message('note_on', channel=0, note=74, velocity=80, time=1),\n",
      "  Message('note_on', channel=0, note=74, velocity=0, time=23),\n",
      "  Message('note_on', channel=0, note=76, velocity=80, time=1),\n",
      "  Message('note_on', channel=0, note=76, velocity=0, time=23),\n",
      "  Message('note_on', channel=0, note=78, velocity=81, time=1),\n",
      "  Message('note_on', channel=0, note=78, velocity=0, time=23),\n",
      "  Message('note_on', channel=0, note=79, velocity=81, time=1),\n",
      "  Message('note_on', channel=0, note=79, velocity=0, time=23),\n",
      "  Message('note_on', channel=0, note=79, velocity=97, time=1),\n",
      "  Message('note_on', channel=0, note=79, velocity=0, time=192),\n",
      "  Message('note_on', channel=0, note=78, velocity=82, time=0),\n",
      "  Message('note_on', channel=0, note=78, velocity=0, time=67),\n",
      "  Message('note_on', channel=0, note=76, velocity=83, time=5),\n",
      "  Message('note_on', channel=0, note=76, velocity=0, time=24),\n",
      "  Message('note_on', channel=0, note=74, velocity=83, time=0),\n",
      "  Message('note_on', channel=0, note=74, velocity=0, time=29),\n",
      "  Message('note_on', channel=0, note=72, velocity=84, time=43),\n",
      "  Message('note_on', channel=0, note=72, velocity=0, time=23),\n",
      "  Message('note_on', channel=0, note=71, velocity=84, time=1),\n",
      "  Message('note_on', channel=0, note=71, velocity=0, time=23),\n",
      "  Message('note_on', channel=0, note=70, velocity=84, time=1),\n",
      "  Message('note_on', channel=0, note=70, velocity=0, time=23),\n",
      "  Message('note_on', channel=0, note=71, velocity=84, time=1),\n",
      "  Message('note_on', channel=0, note=71, velocity=0, time=23),\n",
      "  Message('note_on', channel=0, note=70, velocity=84, time=1),\n",
      "  Message('note_on', channel=0, note=70, velocity=0, time=23),\n",
      "  Message('note_on', channel=0, note=71, velocity=85, time=1),\n",
      "  Message('note_on', channel=0, note=71, velocity=0, time=23),\n",
      "  Message('note_on', channel=0, note=70, velocity=85, time=1),\n",
      "  Message('note_on', channel=0, note=70, velocity=0, time=23),\n",
      "  Message('note_on', channel=0, note=71, velocity=85, time=1),\n",
      "  Message('note_on', channel=0, note=71, velocity=0, time=23),\n",
      "  Message('note_on', channel=0, note=70, velocity=85, time=1),\n",
      "  Message('note_on', channel=0, note=70, velocity=0, time=23),\n",
      "  Message('note_on', channel=0, note=71, velocity=85, time=1),\n",
      "  Message('note_on', channel=0, note=71, velocity=0, time=23),\n",
      "  Message('note_on', channel=0, note=72, velocity=85, time=1),\n",
      "  Message('note_on', channel=0, note=72, velocity=0, time=23),\n",
      "  Message('note_on', channel=0, note=74, velocity=86, time=1),\n",
      "  Message('note_on', channel=0, note=74, velocity=0, time=23),\n",
      "  Message('note_on', channel=0, note=76, velocity=86, time=1),\n",
      "  Message('note_on', channel=0, note=76, velocity=0, time=23),\n",
      "  Message('note_on', channel=0, note=78, velocity=86, time=1),\n",
      "  Message('note_on', channel=0, note=78, velocity=0, time=23),\n",
      "  Message('note_on', channel=0, note=79, velocity=86, time=1),\n",
      "  Message('note_on', channel=0, note=79, velocity=0, time=23),\n",
      "  Message('note_on', channel=0, note=81, velocity=86, time=1),\n",
      "  Message('note_on', channel=0, note=81, velocity=0, time=23),\n",
      "  Message('note_on', channel=0, note=83, velocity=87, time=1),\n",
      "  Message('note_on', channel=0, note=83, velocity=0, time=23),\n",
      "  Message('note_on', channel=0, note=67, velocity=87, time=1),\n",
      "  Message('note_on', channel=0, note=67, velocity=0, time=23),\n",
      "  Message('note_on', channel=0, note=66, velocity=87, time=1),\n",
      "  Message('note_on', channel=0, note=66, velocity=0, time=23),\n",
      "  Message('note_on', channel=0, note=67, velocity=87, time=1),\n",
      "  Message('note_on', channel=0, note=67, velocity=0, time=23),\n",
      "  Message('note_on', channel=0, note=66, velocity=87, time=1),\n",
      "  Message('note_on', channel=0, note=66, velocity=0, time=23),\n",
      "  Message('note_on', channel=0, note=67, velocity=87, time=1),\n",
      "  Message('note_on', channel=0, note=67, velocity=0, time=23),\n",
      "  Message('note_on', channel=0, note=66, velocity=87, time=1),\n",
      "  Message('note_on', channel=0, note=66, velocity=0, time=23),\n",
      "  Message('note_on', channel=0, note=67, velocity=87, time=1),\n",
      "  Message('note_on', channel=0, note=67, velocity=0, time=23),\n",
      "  Message('note_on', channel=0, note=66, velocity=87, time=1),\n",
      "  Message('note_on', channel=0, note=66, velocity=0, time=23),\n",
      "  Message('note_on', channel=0, note=67, velocity=87, time=1),\n",
      "  Message('note_on', channel=0, note=67, velocity=0, time=23),\n",
      "  Message('note_on', channel=0, note=69, velocity=87, time=1),\n",
      "  Message('note_on', channel=0, note=69, velocity=0, time=23),\n",
      "  Message('note_on', channel=0, note=71, velocity=87, time=1),\n",
      "  Message('note_on', channel=0, note=71, velocity=0, time=23),\n",
      "  Message('note_on', channel=0, note=73, velocity=87, time=1),\n",
      "  Message('note_on', channel=0, note=73, velocity=0, time=23),\n",
      "  Message('note_on', channel=0, note=74, velocity=87, time=1),\n",
      "  Message('note_on', channel=0, note=74, velocity=0, time=23),\n",
      "  Message('note_on', channel=0, note=76, velocity=87, time=1),\n",
      "  Message('note_on', channel=0, note=76, velocity=0, time=23),\n",
      "  Message('note_on', channel=0, note=78, velocity=87, time=1),\n",
      "  Message('note_on', channel=0, note=78, velocity=0, time=23),\n",
      "  Message('note_on', channel=0, note=79, velocity=87, time=1),\n",
      "  Message('note_on', channel=0, note=79, velocity=0, time=23),\n",
      "  Message('note_on', channel=0, note=86, velocity=87, time=1),\n",
      "  Message('note_on', channel=0, note=81, velocity=87, time=0),\n",
      "  Message('note_on', channel=0, note=78, velocity=87, time=0),\n",
      "  Message('note_on', channel=0, note=86, velocity=0, time=45),\n",
      "  Message('note_on', channel=0, note=81, velocity=0, time=0),\n",
      "  Message('note_on', channel=0, note=78, velocity=0, time=0),\n",
      "  Message('note_on', channel=0, note=86, velocity=87, time=51),\n",
      "  Message('note_on', channel=0, note=81, velocity=87, time=0),\n",
      "  Message('note_on', channel=0, note=78, velocity=87, time=0),\n",
      "  Message('note_on', channel=0, note=86, velocity=0, time=45),\n",
      "  Message('note_on', channel=0, note=81, velocity=0, time=0),\n",
      "  Message('note_on', channel=0, note=78, velocity=0, time=0),\n",
      "  Message('note_on', channel=0, note=86, velocity=87, time=51),\n",
      "  Message('note_on', channel=0, note=81, velocity=87, time=0),\n",
      "  Message('note_on', channel=0, note=78, velocity=87, time=0),\n",
      "  Message('note_on', channel=0, note=86, velocity=0, time=45),\n",
      "  Message('note_on', channel=0, note=81, velocity=0, time=0),\n",
      "  Message('note_on', channel=0, note=78, velocity=0, time=0),\n",
      "  Message('note_on', channel=0, note=86, velocity=87, time=51),\n",
      "  Message('note_on', channel=0, note=81, velocity=87, time=0),\n",
      "  Message('note_on', channel=0, note=78, velocity=87, time=0),\n",
      "  Message('note_on', channel=0, note=86, velocity=0, time=45),\n",
      "  Message('note_on', channel=0, note=81, velocity=0, time=0),\n",
      "  Message('note_on', channel=0, note=78, velocity=0, time=0),\n",
      "  Message('note_on', channel=0, note=86, velocity=87, time=51),\n",
      "  Message('note_on', channel=0, note=83, velocity=87, time=0),\n",
      "  Message('note_on', channel=0, note=78, velocity=87, time=0),\n",
      "  Message('note_on', channel=0, note=86, velocity=0, time=45),\n",
      "  Message('note_on', channel=0, note=83, velocity=0, time=0),\n",
      "  Message('note_on', channel=0, note=78, velocity=0, time=0),\n",
      "  Message('note_on', channel=0, note=86, velocity=87, time=51),\n",
      "  Message('note_on', channel=0, note=83, velocity=87, time=0),\n",
      "  Message('note_on', channel=0, note=78, velocity=87, time=0),\n",
      "  Message('note_on', channel=0, note=86, velocity=0, time=45),\n",
      "  Message('note_on', channel=0, note=83, velocity=0, time=0),\n",
      "  Message('note_on', channel=0, note=78, velocity=0, time=0),\n",
      "  Message('note_on', channel=0, note=86, velocity=87, time=51),\n",
      "  Message('note_on', channel=0, note=83, velocity=87, time=0),\n",
      "  Message('note_on', channel=0, note=78, velocity=87, time=0),\n",
      "  Message('note_on', channel=0, note=86, velocity=0, time=45),\n",
      "  Message('note_on', channel=0, note=83, velocity=0, time=0),\n",
      "  Message('note_on', channel=0, note=78, velocity=0, time=0),\n",
      "  Message('note_on', channel=0, note=86, velocity=87, time=51),\n",
      "  Message('note_on', channel=0, note=83, velocity=87, time=0),\n",
      "  Message('note_on', channel=0, note=78, velocity=87, time=0),\n",
      "  Message('note_on', channel=0, note=86, velocity=0, time=45),\n",
      "  Message('note_on', channel=0, note=83, velocity=0, time=0),\n",
      "  Message('note_on', channel=0, note=78, velocity=0, time=0),\n",
      "  Message('note_on', channel=0, note=86, velocity=87, time=51),\n",
      "  Message('note_on', channel=0, note=83, velocity=87, time=0),\n",
      "  Message('note_on', channel=0, note=79, velocity=87, time=0),\n",
      "  Message('note_on', channel=0, note=86, velocity=0, time=45),\n",
      "  Message('note_on', channel=0, note=83, velocity=0, time=0),\n",
      "  Message('note_on', channel=0, note=79, velocity=0, time=0),\n",
      "  Message('note_on', channel=0, note=83, velocity=87, time=51),\n",
      "  Message('note_on', channel=0, note=79, velocity=87, time=0),\n",
      "  Message('note_on', channel=0, note=74, velocity=87, time=0),\n",
      "  Message('note_on', channel=0, note=83, velocity=0, time=45),\n",
      "  Message('note_on', channel=0, note=79, velocity=0, time=0),\n",
      "  Message('note_on', channel=0, note=74, velocity=0, time=0),\n",
      "  Message('note_on', channel=0, note=83, velocity=87, time=51),\n",
      "  Message('note_on', channel=0, note=79, velocity=87, time=0),\n",
      "  Message('note_on', channel=0, note=74, velocity=87, time=0),\n",
      "  Message('note_on', channel=0, note=83, velocity=0, time=45),\n",
      "  Message('note_on', channel=0, note=79, velocity=0, time=0),\n",
      "  Message('note_on', channel=0, note=74, velocity=0, time=0),\n",
      "  Message('note_on', channel=0, note=83, velocity=87, time=51),\n",
      "  Message('note_on', channel=0, note=79, velocity=87, time=0),\n",
      "  Message('note_on', channel=0, note=74, velocity=87, time=0),\n",
      "  Message('note_on', channel=0, note=83, velocity=0, time=45),\n",
      "  Message('note_on', channel=0, note=79, velocity=0, time=0),\n",
      "  Message('note_on', channel=0, note=74, velocity=0, time=0),\n",
      "  Message('note_on', channel=0, note=83, velocity=87, time=51),\n",
      "  Message('note_on', channel=0, note=79, velocity=87, time=0),\n",
      "  Message('note_on', channel=0, note=76, velocity=87, time=0),\n",
      "  Message('note_on', channel=0, note=83, velocity=0, time=45),\n",
      "  Message('note_on', channel=0, note=79, velocity=0, time=0),\n",
      "  Message('note_on', channel=0, note=76, velocity=0, time=0),\n",
      "  Message('note_on', channel=0, note=79, velocity=87, time=51),\n",
      "  Message('note_on', channel=0, note=76, velocity=87, time=0),\n",
      "  Message('note_on', channel=0, note=71, velocity=87, time=0),\n",
      "  Message('note_on', channel=0, note=79, velocity=0, time=45),\n",
      "  Message('note_on', channel=0, note=76, velocity=0, time=0),\n",
      "  Message('note_on', channel=0, note=71, velocity=0, time=0),\n",
      "  Message('note_on', channel=0, note=79, velocity=87, time=51),\n",
      "  Message('note_on', channel=0, note=76, velocity=87, time=0),\n",
      "  Message('note_on', channel=0, note=71, velocity=87, time=0),\n",
      "  Message('note_on', channel=0, note=79, velocity=0, time=45),\n",
      "  Message('note_on', channel=0, note=76, velocity=0, time=0),\n",
      "  Message('note_on', channel=0, note=71, velocity=0, time=0),\n",
      "  Message('note_on', channel=0, note=79, velocity=87, time=51),\n",
      "  Message('note_on', channel=0, note=76, velocity=87, time=0),\n",
      "  Message('note_on', channel=0, note=71, velocity=87, time=0),\n",
      "  Message('note_on', channel=0, note=79, velocity=0, time=45),\n",
      "  Message('note_on', channel=0, note=76, velocity=0, time=0),\n",
      "  Message('note_on', channel=0, note=71, velocity=0, time=0),\n",
      "  Message('note_on', channel=0, note=73, velocity=87, time=51),\n",
      "  Message('note_on', channel=0, note=73, velocity=0, time=23),\n",
      "  Message('note_on', channel=0, note=74, velocity=87, time=1),\n",
      "  Message('note_on', channel=0, note=74, velocity=0, time=23),\n",
      "  Message('note_on', channel=0, note=76, velocity=87, time=1),\n",
      "  Message('note_on', channel=0, note=76, velocity=0, time=23),\n",
      "  Message('note_on', channel=0, note=74, velocity=87, time=1),\n",
      "  Message('note_on', channel=0, note=74, velocity=0, time=23),\n",
      "  Message('note_on', channel=0, note=73, velocity=87, time=1),\n",
      "  Message('note_on', channel=0, note=73, velocity=0, time=23),\n",
      "  Message('note_on', channel=0, note=69, velocity=87, time=1),\n",
      "  Message('note_on', channel=0, note=69, velocity=0, time=23),\n",
      "  Message('note_on', channel=0, note=71, velocity=87, time=1),\n",
      "  Message('note_on', channel=0, note=71, velocity=0, time=23),\n",
      "  Message('note_on', channel=0, note=73, velocity=87, time=1),\n",
      "  Message('note_on', channel=0, note=73, velocity=0, time=23),\n",
      "  Message('note_on', channel=0, note=74, velocity=87, time=1),\n",
      "  Message('note_on', channel=0, note=74, velocity=0, time=23),\n",
      "  Message('note_on', channel=0, note=76, velocity=87, time=1),\n",
      "  Message('note_on', channel=0, note=76, velocity=0, time=23),\n",
      "  Message('note_on', channel=0, note=78, velocity=87, time=1),\n",
      "  Message('note_on', channel=0, note=78, velocity=0, time=23),\n",
      "  Message('note_on', channel=0, note=76, velocity=87, time=1),\n",
      "  Message('note_on', channel=0, note=76, velocity=0, time=23),\n",
      "  Message('note_on', channel=0, note=78, velocity=87, time=1),\n",
      "  Message('note_on', channel=0, note=78, velocity=0, time=23),\n",
      "  Message('note_on', channel=0, note=76, velocity=87, time=1),\n",
      "  Message('note_on', channel=0, note=76, velocity=0, time=23),\n",
      "  Message('note_on', channel=0, note=74, velocity=87, time=1),\n",
      "  Message('note_on', channel=0, note=74, velocity=0, time=23),\n",
      "  Message('note_on', channel=0, note=73, velocity=87, time=1),\n",
      "  Message('note_on', channel=0, note=73, velocity=0, time=23),\n",
      "  Message('note_on', channel=0, note=71, velocity=87, time=1),\n",
      "  Message('note_on', channel=0, note=71, velocity=0, time=23),\n",
      "  Message('note_on', channel=0, note=73, velocity=87, time=1),\n",
      "  Message('note_on', channel=0, note=73, velocity=0, time=23),\n",
      "  Message('note_on', channel=0, note=74, velocity=87, time=1),\n",
      "  Message('note_on', channel=0, note=74, velocity=0, time=23),\n",
      "  Message('note_on', channel=0, note=73, velocity=87, time=1),\n",
      "  Message('note_on', channel=0, note=73, velocity=0, time=23),\n",
      "  Message('note_on', channel=0, note=71, velocity=87, time=1),\n",
      "  Message('note_on', channel=0, note=71, velocity=0, time=23),\n",
      "  Message('note_on', channel=0, note=67, velocity=87, time=1),\n",
      "  Message('note_on', channel=0, note=67, velocity=0, time=23),\n",
      "  Message('note_on', channel=0, note=69, velocity=87, time=1),\n",
      "  Message('note_on', channel=0, note=69, velocity=0, time=23),\n",
      "  Message('note_on', channel=0, note=71, velocity=87, time=1),\n",
      "  Message('note_on', channel=0, note=71, velocity=0, time=23),\n",
      "  Message('note_on', channel=0, note=73, velocity=87, time=1),\n",
      "  Message('note_on', channel=0, note=73, velocity=0, time=23),\n",
      "  Message('note_on', channel=0, note=74, velocity=87, time=1),\n",
      "  Message('note_on', channel=0, note=74, velocity=0, time=23),\n",
      "  Message('note_on', channel=0, note=76, velocity=87, time=1),\n",
      "  Message('note_on', channel=0, note=76, velocity=0, time=23),\n",
      "  Message('note_on', channel=0, note=74, velocity=87, time=1),\n",
      "  Message('note_on', channel=0, note=74, velocity=0, time=23),\n",
      "  Message('note_on', channel=0, note=73, velocity=87, time=1),\n",
      "  Message('note_on', channel=0, note=73, velocity=0, time=23),\n",
      "  Message('note_on', channel=0, note=71, velocity=87, time=1),\n",
      "  Message('note_on', channel=0, note=71, velocity=0, time=23),\n",
      "  Message('note_on', channel=0, note=69, velocity=87, time=1),\n",
      "  Message('note_on', channel=0, note=69, velocity=0, time=23),\n",
      "  Message('note_on', channel=0, note=67, velocity=87, time=1),\n",
      "  Message('note_on', channel=0, note=67, velocity=0, time=23),\n",
      "  Message('note_on', channel=0, note=66, velocity=87, time=1),\n",
      "  Message('note_on', channel=0, note=66, velocity=0, time=23),\n",
      "  Message('note_on', channel=0, note=69, velocity=87, time=1),\n",
      "  Message('note_on', channel=0, note=69, velocity=0, time=23),\n",
      "  Message('note_on', channel=0, note=67, velocity=87, time=1),\n",
      "  Message('note_on', channel=0, note=67, velocity=0, time=23),\n",
      "  Message('note_on', channel=0, note=66, velocity=87, time=1),\n",
      "  Message('note_on', channel=0, note=66, velocity=0, time=23),\n",
      "  Message('note_on', channel=0, note=67, velocity=87, time=1),\n",
      "  Message('note_on', channel=0, note=67, velocity=0, time=23),\n",
      "  Message('note_on', channel=0, note=69, velocity=87, time=1),\n",
      "  Message('note_on', channel=0, note=69, velocity=0, time=23),\n",
      "  Message('note_on', channel=0, note=71, velocity=87, time=1),\n",
      "  Message('note_on', channel=0, note=71, velocity=0, time=23),\n",
      "  Message('note_on', channel=0, note=73, velocity=87, time=1),\n",
      "  Message('note_on', channel=0, note=73, velocity=0, time=23),\n",
      "  Message('note_on', channel=0, note=74, velocity=87, time=1),\n",
      "  Message('note_on', channel=0, note=74, velocity=0, time=23),\n",
      "  Message('note_on', channel=0, note=76, velocity=87, time=1),\n",
      "  Message('note_on', channel=0, note=76, velocity=0, time=23),\n",
      "  Message('note_on', channel=0, note=78, velocity=87, time=1),\n",
      "  Message('note_on', channel=0, note=78, velocity=0, time=23),\n",
      "  Message('note_on', channel=0, note=79, velocity=87, time=1),\n",
      "  Message('note_on', channel=0, note=79, velocity=0, time=23),\n",
      "  Message('note_on', channel=0, note=81, velocity=87, time=1),\n",
      "  Message('note_on', channel=0, note=81, velocity=0, time=23),\n",
      "  Message('note_on', channel=0, note=83, velocity=87, time=1),\n",
      "  Message('note_on', channel=0, note=83, velocity=0, time=23),\n",
      "  Message('note_on', channel=0, note=85, velocity=87, time=1),\n",
      "  Message('note_on', channel=0, note=85, velocity=0, time=23),\n",
      "  Message('note_on', channel=0, note=86, velocity=87, time=1),\n",
      "  Message('note_on', channel=0, note=86, velocity=0, time=23),\n",
      "  Message('note_on', channel=0, note=83, velocity=87, time=1),\n",
      "  Message('note_on', channel=0, note=83, velocity=0, time=23),\n",
      "  Message('note_on', channel=0, note=85, velocity=87, time=1),\n",
      "  Message('note_on', channel=0, note=85, velocity=0, time=23),\n",
      "  Message('note_on', channel=0, note=83, velocity=87, time=1),\n",
      "  Message('note_on', channel=0, note=83, velocity=0, time=23),\n",
      "  Message('note_on', channel=0, note=81, velocity=87, time=1),\n",
      "  Message('note_on', channel=0, note=81, velocity=0, time=23),\n",
      "  Message('note_on', channel=0, note=79, velocity=87, time=1),\n",
      "  Message('note_on', channel=0, note=79, velocity=0, time=23),\n",
      "  Message('note_on', channel=0, note=78, velocity=87, time=1),\n",
      "  Message('note_on', channel=0, note=78, velocity=0, time=23),\n",
      "  Message('note_on', channel=0, note=76, velocity=87, time=1),\n",
      "  Message('note_on', channel=0, note=76, velocity=0, time=23),\n",
      "  Message('note_on', channel=0, note=74, velocity=87, time=1),\n",
      "  Message('note_on', channel=0, note=74, velocity=0, time=23),\n",
      "  Message('note_on', channel=0, note=73, velocity=87, time=1),\n",
      "  Message('note_on', channel=0, note=73, velocity=0, time=23),\n",
      "  Message('note_on', channel=0, note=74, velocity=87, time=1),\n",
      "  Message('note_on', channel=0, note=74, velocity=0, time=23),\n",
      "  Message('note_on', channel=0, note=73, velocity=87, time=1),\n",
      "  Message('note_on', channel=0, note=73, velocity=0, time=23),\n",
      "  Message('note_on', channel=0, note=71, velocity=87, time=1),\n",
      "  Message('note_on', channel=0, note=71, velocity=0, time=23),\n",
      "  Message('note_on', channel=0, note=69, velocity=87, time=1),\n",
      "  Message('note_on', channel=0, note=69, velocity=0, time=23),\n",
      "  Message('note_on', channel=0, note=67, velocity=87, time=1),\n",
      "  Message('note_on', channel=0, note=67, velocity=0, time=23),\n",
      "  Message('note_on', channel=0, note=66, velocity=87, time=1),\n",
      "  Message('note_on', channel=0, note=66, velocity=0, time=23),\n",
      "  Message('note_on', channel=0, note=64, velocity=87, time=1),\n",
      "  Message('note_on', channel=0, note=64, velocity=0, time=23),\n",
      "  Message('note_on', channel=0, note=62, velocity=87, time=1),\n",
      "  Message('note_on', channel=0, note=62, velocity=0, time=23),\n",
      "  Message('note_on', channel=0, note=57, velocity=86, time=1),\n",
      "  Message('note_on', channel=0, note=57, velocity=0, time=23),\n",
      "  Message('note_on', channel=0, note=62, velocity=85, time=1),\n",
      "  Message('note_on', channel=0, note=62, velocity=0, time=23),\n",
      "  Message('note_on', channel=0, note=57, velocity=84, time=1),\n",
      "  Message('note_on', channel=0, note=57, velocity=0, time=23),\n",
      "  Message('note_on', channel=0, note=66, velocity=84, time=1),\n",
      "  Message('note_on', channel=0, note=66, velocity=0, time=23),\n",
      "  Message('note_on', channel=0, note=62, velocity=83, time=1),\n",
      "  Message('note_on', channel=0, note=62, velocity=0, time=23),\n",
      "  Message('note_on', channel=0, note=69, velocity=82, time=1),\n",
      "  Message('note_on', channel=0, note=69, velocity=0, time=23),\n",
      "  Message('note_on', channel=0, note=66, velocity=81, time=1),\n",
      "  Message('note_on', channel=0, note=66, velocity=0, time=23),\n",
      "  Message('note_on', channel=0, note=74, velocity=81, time=1),\n",
      "  Message('note_on', channel=0, note=74, velocity=0, time=23),\n",
      "  Message('note_on', channel=0, note=69, velocity=80, time=1),\n",
      "  Message('note_on', channel=0, note=69, velocity=0, time=23),\n",
      "  Message('note_on', channel=0, note=78, velocity=79, time=1),\n",
      "  Message('note_on', channel=0, note=78, velocity=0, time=23),\n",
      "  Message('note_on', channel=0, note=74, velocity=78, time=1),\n",
      "  Message('note_on', channel=0, note=74, velocity=0, time=23),\n",
      "  Message('note_on', channel=0, note=81, velocity=78, time=1),\n",
      "  Message('note_on', channel=0, note=81, velocity=0, time=20),\n",
      "  Message('note_on', channel=0, note=81, velocity=78, time=28),\n",
      "  Message('note_on', channel=0, note=81, velocity=0, time=20),\n",
      "  Message('note_on', channel=0, note=81, velocity=94, time=28),\n",
      "  Message('note_on', channel=0, note=81, velocity=0, time=48),\n",
      "  Message('note_on', channel=0, note=71, velocity=78, time=0),\n",
      "  Message('note_on', channel=0, note=71, velocity=0, time=45),\n",
      "  Message('note_on', channel=0, note=71, velocity=78, time=3),\n",
      "  Message('note_on', channel=0, note=71, velocity=0, time=140),\n",
      "  Message('note_on', channel=0, note=75, velocity=78, time=4),\n",
      "  Message('note_on', channel=0, note=75, velocity=0, time=23),\n",
      "  Message('note_on', channel=0, note=76, velocity=78, time=1),\n",
      "  Message('note_on', channel=0, note=76, velocity=0, time=23),\n",
      "  Message('note_on', channel=0, note=79, velocity=78, time=1),\n",
      "  Message('note_on', channel=0, note=79, velocity=0, time=20),\n",
      "  Message('note_on', channel=0, note=79, velocity=78, time=28),\n",
      "  Message('note_on', channel=0, note=79, velocity=0, time=20),\n",
      "  Message('note_on', channel=0, note=79, velocity=94, time=28),\n",
      "  Message('note_on', channel=0, note=79, velocity=0, time=48),\n",
      "  Message('note_on', channel=0, note=69, velocity=78, time=0),\n",
      "  Message('note_on', channel=0, note=69, velocity=0, time=45),\n",
      "  Message('note_on', channel=0, note=69, velocity=79, time=3),\n",
      "  Message('note_on', channel=0, note=69, velocity=0, time=140),\n",
      "  Message('note_on', channel=0, note=73, velocity=79, time=4),\n",
      "  Message('note_on', channel=0, note=73, velocity=0, time=23),\n",
      "  Message('note_on', channel=0, note=74, velocity=79, time=1),\n",
      "  Message('note_on', channel=0, note=74, velocity=0, time=23),\n",
      "  Message('note_on', channel=0, note=78, velocity=79, time=1),\n",
      "  Message('note_on', channel=0, note=78, velocity=0, time=20),\n",
      "  Message('note_on', channel=0, note=78, velocity=80, time=28),\n",
      "  Message('note_on', channel=0, note=78, velocity=0, time=20),\n",
      "  Message('note_on', channel=0, note=78, velocity=96, time=28),\n",
      "  Message('note_on', channel=0, note=78, velocity=0, time=48),\n",
      "  Message('note_on', channel=0, note=67, velocity=80, time=0),\n",
      "  Message('note_on', channel=0, note=67, velocity=0, time=45),\n",
      "  Message('note_on', channel=0, note=67, velocity=80, time=3),\n",
      "  Message('note_on', channel=0, note=67, velocity=0, time=140),\n",
      "  Message('note_on', channel=0, note=84, velocity=81, time=4),\n",
      "  Message('note_on', channel=0, note=84, velocity=0, time=23),\n",
      "  Message('note_on', channel=0, note=85, velocity=81, time=1),\n",
      "  Message('note_on', channel=0, note=85, velocity=0, time=23),\n",
      "  Message('note_on', channel=0, note=88, velocity=81, time=1),\n",
      "  Message('note_on', channel=0, note=88, velocity=0, time=20),\n",
      "  Message('note_on', channel=0, note=88, velocity=81, time=28),\n",
      "  Message('note_on', channel=0, note=88, velocity=0, time=20),\n",
      "  Message('note_on', channel=0, note=88, velocity=97, time=28),\n",
      "  Message('note_on', channel=0, note=88, velocity=0, time=48),\n",
      "  Message('note_on', channel=0, note=78, velocity=82, time=0),\n",
      "  Message('note_on', channel=0, note=78, velocity=0, time=45),\n",
      "  Message('note_on', channel=0, note=78, velocity=82, time=3),\n",
      "  Message('note_on', channel=0, note=78, velocity=0, time=140),\n",
      "  Message('note_on', channel=0, note=82, velocity=83, time=4),\n",
      "  Message('note_on', channel=0, note=82, velocity=0, time=23),\n",
      "  Message('note_on', channel=0, note=83, velocity=83, time=1),\n",
      "  Message('note_on', channel=0, note=83, velocity=0, time=23),\n",
      "  Message('note_on', channel=0, note=86, velocity=83, time=1),\n",
      "  Message('note_on', channel=0, note=86, velocity=0, time=20),\n",
      "  Message('note_on', channel=0, note=86, velocity=83, time=28),\n",
      "  Message('note_on', channel=0, note=86, velocity=0, time=20),\n",
      "  Message('note_on', channel=0, note=86, velocity=99, time=28),\n",
      "  Message('note_on', channel=0, note=86, velocity=0, time=48),\n",
      "  Message('note_on', channel=0, note=76, velocity=83, time=0),\n",
      "  Message('note_on', channel=0, note=76, velocity=0, time=45),\n",
      "  Message('note_on', channel=0, note=76, velocity=84, time=51),\n",
      "  Message('note_on', channel=0, note=76, velocity=0, time=20),\n",
      "  Message('note_on', channel=0, note=76, velocity=84, time=76),\n",
      "  Message('note_on', channel=0, note=76, velocity=0, time=20),\n",
      "  Message('note_on', channel=0, note=76, velocity=85, time=76),\n",
      "  Message('note_on', channel=0, note=76, velocity=0, time=12),\n",
      "  Message('note_on', channel=0, note=78, velocity=85, time=0),\n",
      "  Message('note_on', channel=0, note=78, velocity=0, time=12),\n",
      "  Message('note_on', channel=0, note=76, velocity=85, time=0),\n",
      "  Message('note_on', channel=0, note=76, velocity=0, time=12),\n",
      "  Message('note_on', channel=0, note=78, velocity=85, time=0),\n",
      "  Message('note_on', channel=0, note=78, velocity=0, time=9),\n",
      "  Message('note_on', channel=0, note=86, velocity=101, time=3),\n",
      "  Message('note_on', channel=0, note=86, velocity=0, time=48),\n",
      "  Message('note_on', channel=0, note=77, velocity=85, time=0),\n",
      "  Message('note_on', channel=0, note=77, velocity=0, time=45),\n",
      "  Message('note_on', channel=0, note=77, velocity=85, time=51),\n",
      "  Message('note_on', channel=0, note=77, velocity=0, time=20),\n",
      "  Message('note_on', channel=0, note=77, velocity=86, time=76),\n",
      "  Message('note_on', channel=0, note=77, velocity=0, time=20),\n",
      "  Message('note_on', channel=0, note=77, velocity=86, time=76),\n",
      "  Message('note_on', channel=0, note=77, velocity=0, time=12),\n",
      "  Message('note_on', channel=0, note=80, velocity=86, time=0),\n",
      "  Message('note_on', channel=0, note=80, velocity=0, time=12),\n",
      "  Message('note_on', channel=0, note=77, velocity=86, time=0),\n",
      "  Message('note_on', channel=0, note=77, velocity=0, time=12),\n",
      "  Message('note_on', channel=0, note=80, velocity=86, time=0),\n",
      "  Message('note_on', channel=0, note=80, velocity=0, time=9),\n",
      "  Message('note_on', channel=0, note=78, velocity=87, time=3),\n",
      "  Message('note_on', channel=0, note=78, velocity=0, time=23),\n",
      "  Message('note_on', channel=0, note=74, velocity=87, time=1),\n",
      "  Message('note_on', channel=0, note=74, velocity=0, time=23),\n",
      "  Message('note_on', channel=0, note=69, velocity=87, time=1),\n",
      "  Message('note_on', channel=0, note=69, velocity=0, time=23),\n",
      "  Message('note_on', channel=0, note=74, velocity=87, time=1),\n",
      "  Message('note_on', channel=0, note=74, velocity=0, time=23),\n",
      "  Message('note_on', channel=0, note=78, velocity=87, time=1),\n",
      "  Message('note_on', channel=0, note=78, velocity=0, time=23),\n",
      "  Message('note_on', channel=0, note=74, velocity=87, time=1),\n",
      "  Message('note_on', channel=0, note=74, velocity=0, time=23),\n",
      "  Message('note_on', channel=0, note=81, velocity=87, time=1),\n",
      "  Message('note_on', channel=0, note=81, velocity=0, time=23),\n",
      "  Message('note_on', channel=0, note=78, velocity=87, time=1),\n",
      "  Message('note_on', channel=0, note=78, velocity=0, time=23),\n",
      "  Message('note_on', channel=0, note=86, velocity=87, time=1),\n",
      "  Message('note_on', channel=0, note=86, velocity=0, time=23),\n",
      "  Message('note_on', channel=0, note=81, velocity=87, time=1),\n",
      "  Message('note_on', channel=0, note=81, velocity=0, time=23),\n",
      "  Message('note_on', channel=0, note=78, velocity=87, time=1),\n",
      "  Message('note_on', channel=0, note=78, velocity=0, time=23),\n",
      "  Message('note_on', channel=0, note=74, velocity=87, time=1),\n",
      "  Message('note_on', channel=0, note=74, velocity=0, time=23),\n",
      "  Message('note_on', channel=0, note=81, velocity=87, time=1),\n",
      "  Message('note_on', channel=0, note=81, velocity=0, time=23),\n",
      "  Message('note_on', channel=0, note=78, velocity=87, time=1),\n",
      "  Message('note_on', channel=0, note=78, velocity=0, time=23),\n",
      "  Message('note_on', channel=0, note=74, velocity=87, time=1),\n",
      "  Message('note_on', channel=0, note=74, velocity=0, time=23),\n",
      "  Message('note_on', channel=0, note=69, velocity=87, time=1),\n",
      "  Message('note_on', channel=0, note=69, velocity=0, time=23),\n",
      "  Message('note_on', channel=0, note=78, velocity=87, time=1),\n",
      "  Message('note_on', channel=0, note=78, velocity=0, time=177),\n",
      "  Message('note_on', channel=0, note=76, velocity=87, time=15),\n",
      "  Message('note_on', channel=0, note=76, velocity=0, time=18),\n",
      "  Message('note_on', channel=0, note=78, velocity=87, time=0),\n",
      "  Message('note_on', channel=0, note=78, velocity=0, time=18),\n",
      "  Message('note_on', channel=0, note=76, velocity=87, time=0),\n",
      "  Message('note_on', channel=0, note=76, velocity=0, time=18),\n",
      "  Message('note_on', channel=0, note=78, velocity=87, time=0),\n",
      "  Message('note_on', channel=0, note=78, velocity=0, time=18),\n",
      "  Message('note_on', channel=0, note=76, velocity=87, time=0),\n",
      "  Message('note_on', channel=0, note=76, velocity=0, time=18),\n",
      "  Message('note_on', channel=0, note=78, velocity=87, time=0),\n",
      "  Message('note_on', channel=0, note=78, velocity=0, time=18),\n",
      "  Message('note_on', channel=0, note=76, velocity=87, time=0),\n",
      "  Message('note_on', channel=0, note=76, velocity=0, time=18),\n",
      "  Message('note_on', channel=0, note=78, velocity=87, time=0),\n",
      "  Message('note_on', channel=0, note=78, velocity=0, time=7),\n",
      "  Message('note_on', channel=0, note=74, velocity=87, time=11),\n",
      "  Message('note_on', channel=0, note=74, velocity=0, time=23),\n",
      "  Message('note_on', channel=0, note=76, velocity=87, time=1),\n",
      "  Message('note_on', channel=0, note=76, velocity=0, time=23),\n",
      "  Message('note_on', channel=0, note=74, velocity=73, time=1),\n",
      "  Message('note_on', channel=0, note=74, velocity=0, time=18),\n",
      "  Message('note_on', channel=0, note=86, velocity=89, time=0),\n",
      "  Message('note_on', channel=0, note=86, velocity=0, time=174),\n",
      "  Message('note_on', channel=0, note=85, velocity=73, time=0),\n",
      "  Message('note_on', channel=0, note=85, velocity=0, time=89),\n",
      "  Message('note_on', channel=0, note=83, velocity=73, time=7),\n",
      "  Message('note_on', channel=0, note=83, velocity=0, time=89),\n",
      "  Message('note_on', channel=0, note=80, velocity=89, time=7),\n",
      "  Message('note_on', channel=0, note=80, velocity=0, time=96),\n",
      "  Message('note_on', channel=0, note=81, velocity=73, time=0),\n",
      "  Message('note_on', channel=0, note=81, velocity=0, time=133),\n",
      "  Message('note_on', channel=0, note=74, velocity=73, time=11),\n",
      "  Message('note_on', channel=0, note=74, velocity=0, time=45),\n",
      "  Message('note_on', channel=0, note=79, velocity=73, time=3),\n",
      "  Message('note_on', channel=0, note=79, velocity=0, time=45),\n",
      "  Message('note_on', channel=0, note=78, velocity=73, time=3),\n",
      "  Message('note_on', channel=0, note=78, velocity=0, time=45),\n",
      "  Message('note_on', channel=0, note=77, velocity=89, time=3),\n",
      "  Message('note_on', channel=0, note=77, velocity=0, time=96),\n",
      "  Message('note_on', channel=0, note=78, velocity=73, time=0),\n",
      "  Message('note_on', channel=0, note=78, velocity=0, time=133),\n",
      "  Message('note_on', channel=0, note=71, velocity=73, time=11),\n",
      "  Message('note_on', channel=0, note=71, velocity=0, time=45),\n",
      "  Message('note_on', channel=0, note=76, velocity=73, time=3),\n",
      "  Message('note_on', channel=0, note=76, velocity=0, time=45),\n",
      "  Message('note_on', channel=0, note=74, velocity=73, time=3),\n",
      "  Message('note_on', channel=0, note=74, velocity=0, time=45),\n",
      "  Message('note_on', channel=0, note=73, velocity=89, time=3),\n",
      "  Message('note_on', channel=0, note=73, velocity=0, time=96),\n",
      "  Message('note_on', channel=0, note=74, velocity=73, time=0),\n",
      "  Message('note_on', channel=0, note=74, velocity=0, time=89),\n",
      "  Message('note_on', channel=0, note=78, velocity=89, time=7),\n",
      "  Message('note_on', channel=0, note=78, velocity=0, time=48),\n",
      "  Message('note_on', channel=0, note=76, velocity=73, time=0),\n",
      "  Message('note_on', channel=0, note=76, velocity=0, time=45),\n",
      "  Message('note_on', channel=0, note=73, velocity=73, time=3),\n",
      "  Message('note_on', channel=0, note=73, velocity=0, time=20),\n",
      "  Message('note_on', channel=0, note=69, velocity=73, time=28),\n",
      "  Message('note_on', channel=0, note=69, velocity=0, time=20),\n",
      "  Message('note_on', channel=0, note=78, velocity=87, time=28),\n",
      "  Message('note_on', channel=0, note=74, velocity=87, time=0),\n",
      "  Message('note_on', channel=0, note=78, velocity=0, time=23),\n",
      "  Message('note_on', channel=0, note=74, velocity=0, time=0),\n",
      "  Message('note_on', channel=0, note=86, velocity=87, time=1),\n",
      "  Message('note_on', channel=0, note=86, velocity=0, time=23),\n",
      "  Message('note_on', channel=0, note=78, velocity=87, time=1),\n",
      "  Message('note_on', channel=0, note=74, velocity=87, time=0),\n",
      "  Message('note_on', channel=0, note=78, velocity=0, time=23),\n",
      "  Message('note_on', channel=0, note=74, velocity=0, time=0),\n",
      "  Message('note_on', channel=0, note=86, velocity=87, time=1),\n",
      "  Message('note_on', channel=0, note=86, velocity=0, time=23),\n",
      "  Message('note_on', channel=0, note=78, velocity=87, time=1),\n",
      "  Message('note_on', channel=0, note=74, velocity=87, time=0),\n",
      "  Message('note_on', channel=0, note=78, velocity=0, time=23),\n",
      "  Message('note_on', channel=0, note=74, velocity=0, time=0),\n",
      "  Message('note_on', channel=0, note=86, velocity=87, time=1),\n",
      "  Message('note_on', channel=0, note=86, velocity=0, time=23),\n",
      "  Message('note_on', channel=0, note=78, velocity=87, time=1),\n",
      "  Message('note_on', channel=0, note=74, velocity=87, time=0),\n",
      "  Message('note_on', channel=0, note=78, velocity=0, time=23),\n",
      "  Message('note_on', channel=0, note=74, velocity=0, time=0),\n",
      "  Message('note_on', channel=0, note=86, velocity=87, time=1),\n",
      "  Message('note_on', channel=0, note=86, velocity=0, time=23),\n",
      "  Message('note_on', channel=0, note=78, velocity=87, time=1),\n",
      "  Message('note_on', channel=0, note=74, velocity=87, time=0),\n",
      "  Message('note_on', channel=0, note=78, velocity=0, time=23),\n",
      "  Message('note_on', channel=0, note=74, velocity=0, time=0),\n",
      "  Message('note_on', channel=0, note=86, velocity=87, time=1),\n",
      "  Message('note_on', channel=0, note=86, velocity=0, time=23),\n",
      "  Message('note_on', channel=0, note=78, velocity=87, time=1),\n",
      "  Message('note_on', channel=0, note=74, velocity=87, time=0),\n",
      "  Message('note_on', channel=0, note=78, velocity=0, time=23),\n",
      "  Message('note_on', channel=0, note=74, velocity=0, time=0),\n",
      "  Message('note_on', channel=0, note=86, velocity=87, time=1),\n",
      "  Message('note_on', channel=0, note=86, velocity=0, time=23),\n",
      "  Message('note_on', channel=0, note=78, velocity=87, time=1),\n",
      "  Message('note_on', channel=0, note=74, velocity=87, time=0),\n",
      "  Message('note_on', channel=0, note=78, velocity=0, time=23),\n",
      "  Message('note_on', channel=0, note=74, velocity=0, time=0),\n",
      "  Message('note_on', channel=0, note=86, velocity=87, time=1),\n",
      "  Message('note_on', channel=0, note=86, velocity=0, time=23),\n",
      "  Message('note_on', channel=0, note=78, velocity=87, time=1),\n",
      "  Message('note_on', channel=0, note=74, velocity=87, time=0),\n",
      "  Message('note_on', channel=0, note=78, velocity=0, time=23),\n",
      "  Message('note_on', channel=0, note=74, velocity=0, time=0),\n",
      "  Message('note_on', channel=0, note=86, velocity=87, time=1),\n",
      "  Message('note_on', channel=0, note=86, velocity=0, time=23),\n",
      "  Message('note_on', channel=0, note=76, velocity=87, time=1),\n",
      "  Message('note_on', channel=0, note=76, velocity=0, time=23),\n",
      "  Message('note_on', channel=0, note=86, velocity=87, time=1),\n",
      "  Message('note_on', channel=0, note=86, velocity=0, time=23),\n",
      "  Message('note_on', channel=0, note=76, velocity=87, time=1),\n",
      "  Message('note_on', channel=0, note=76, velocity=0, time=23),\n",
      "  Message('note_on', channel=0, note=86, velocity=87, time=1),\n",
      "  Message('note_on', channel=0, note=86, velocity=0, time=23),\n",
      "  Message('note_on', channel=0, note=76, velocity=87, time=1),\n",
      "  Message('note_on', channel=0, note=76, velocity=0, time=23),\n",
      "  Message('note_on', channel=0, note=85, velocity=87, time=1),\n",
      "  Message('note_on', channel=0, note=85, velocity=0, time=23),\n",
      "  Message('note_on', channel=0, note=76, velocity=87, time=1),\n",
      "  Message('note_on', channel=0, note=76, velocity=0, time=23),\n",
      "  Message('note_on', channel=0, note=85, velocity=87, time=1),\n",
      "  Message('note_on', channel=0, note=85, velocity=0, time=23),\n",
      "  Message('note_on', channel=0, note=78, velocity=87, time=1),\n",
      "  Message('note_on', channel=0, note=78, velocity=0, time=23),\n",
      "  Message('note_on', channel=0, note=84, velocity=87, time=1),\n",
      "  Message('note_on', channel=0, note=84, velocity=0, time=23),\n",
      "  Message('note_on', channel=0, note=78, velocity=87, time=1),\n",
      "  Message('note_on', channel=0, note=78, velocity=0, time=23),\n",
      "  Message('note_on', channel=0, note=84, velocity=87, time=1),\n",
      "  Message('note_on', channel=0, note=84, velocity=0, time=23),\n",
      "  Message('note_on', channel=0, note=79, velocity=87, time=1),\n",
      "  Message('note_on', channel=0, note=79, velocity=0, time=23),\n",
      "  Message('note_on', channel=0, note=83, velocity=87, time=1),\n",
      "  Message('note_on', channel=0, note=83, velocity=0, time=23),\n",
      "  Message('note_on', channel=0, note=79, velocity=87, time=1),\n",
      "  Message('note_on', channel=0, note=79, velocity=0, time=23),\n",
      "  Message('note_on', channel=0, note=83, velocity=87, time=1),\n",
      "  Message('note_on', channel=0, note=83, velocity=0, time=23),\n",
      "  Message('note_on', channel=0, note=73, velocity=87, time=1),\n",
      "  Message('note_on', channel=0, note=73, velocity=0, time=23),\n",
      "  Message('note_on', channel=0, note=83, velocity=87, time=1),\n",
      "  Message('note_on', channel=0, note=83, velocity=0, time=23),\n",
      "  Message('note_on', channel=0, note=73, velocity=87, time=1),\n",
      "  Message('note_on', channel=0, note=73, velocity=0, time=23),\n",
      "  Message('note_on', channel=0, note=83, velocity=87, time=1),\n",
      "  Message('note_on', channel=0, note=83, velocity=0, time=23),\n",
      "  Message('note_on', channel=0, note=73, velocity=87, time=1),\n",
      "  Message('note_on', channel=0, note=73, velocity=0, time=23),\n",
      "  Message('note_on', channel=0, note=82, velocity=87, time=1),\n",
      "  Message('note_on', channel=0, note=82, velocity=0, time=23),\n",
      "  Message('note_on', channel=0, note=73, velocity=87, time=1),\n",
      "  Message('note_on', channel=0, note=73, velocity=0, time=23),\n",
      "  Message('note_on', channel=0, note=82, velocity=87, time=1),\n",
      "  Message('note_on', channel=0, note=82, velocity=0, time=23),\n",
      "  Message('note_on', channel=0, note=75, velocity=87, time=1),\n",
      "  Message('note_on', channel=0, note=75, velocity=0, time=23),\n",
      "  Message('note_on', channel=0, note=81, velocity=87, time=1),\n",
      "  Message('note_on', channel=0, note=81, velocity=0, time=23),\n",
      "  Message('note_on', channel=0, note=75, velocity=87, time=1),\n",
      "  Message('note_on', channel=0, note=75, velocity=0, time=23),\n",
      "  Message('note_on', channel=0, note=81, velocity=87, time=1),\n",
      "  Message('note_on', channel=0, note=81, velocity=0, time=23),\n",
      "  Message('note_on', channel=0, note=76, velocity=87, time=1),\n",
      "  Message('note_on', channel=0, note=76, velocity=0, time=23),\n",
      "  Message('note_on', channel=0, note=80, velocity=87, time=1),\n",
      "  Message('note_on', channel=0, note=80, velocity=0, time=23),\n",
      "  Message('note_on', channel=0, note=76, velocity=87, time=1),\n",
      "  Message('note_on', channel=0, note=76, velocity=0, time=23),\n",
      "  Message('note_on', channel=0, note=80, velocity=87, time=1),\n",
      "  Message('note_on', channel=0, note=80, velocity=0, time=23),\n",
      "  Message('note_on', channel=0, note=79, velocity=103, time=1),\n",
      "  Message('note_on', channel=0, note=76, velocity=103, time=0),\n",
      "  Message('note_on', channel=0, note=79, velocity=0, time=96),\n",
      "  Message('note_on', channel=0, note=76, velocity=0, time=0),\n",
      "  Message('note_on', channel=0, note=78, velocity=87, time=0),\n",
      "  Message('note_on', channel=0, note=74, velocity=87, time=0),\n",
      "  Message('note_on', channel=0, note=78, velocity=0, time=133),\n",
      "  Message('note_on', channel=0, note=74, velocity=0, time=0),\n",
      "  Message('note_on', channel=0, note=71, velocity=87, time=11),\n",
      "  Message('note_on', channel=0, note=71, velocity=0, time=45),\n",
      "  Message('note_on', channel=0, note=76, velocity=87, time=3),\n",
      "  Message('note_on', channel=0, note=76, velocity=0, time=45),\n",
      "  Message('note_on', channel=0, note=74, velocity=87, time=3),\n",
      "  Message('note_on', channel=0, note=74, velocity=0, time=45),\n",
      "  Message('note_on', channel=0, note=73, velocity=105, time=3),\n",
      "  Message('note_on', channel=0, note=70, velocity=105, time=0),\n",
      "  Message('note_on', channel=0, note=64, velocity=105, time=0),\n",
      "  Message('note_on', channel=0, note=73, velocity=0, time=89),\n",
      "  Message('note_on', channel=0, note=70, velocity=0, time=0),\n",
      "  Message('note_on', channel=0, note=64, velocity=0, time=0),\n",
      "  Message('note_on', channel=0, note=74, velocity=87, time=7),\n",
      "  Message('note_on', channel=0, note=69, velocity=87, time=0),\n",
      "  Message('note_on', channel=0, note=66, velocity=87, time=0),\n",
      "  Message('note_on', channel=0, note=74, velocity=0, time=89),\n",
      "  Message('note_on', channel=0, note=69, velocity=0, time=0),\n",
      "  Message('note_on', channel=0, note=66, velocity=0, time=0),\n",
      "  Message('note_on', channel=0, note=78, velocity=87, time=295),\n",
      "  Message('note_on', channel=0, note=74, velocity=87, time=0),\n",
      "  Message('note_on', channel=0, note=78, velocity=0, time=133),\n",
      "  Message('note_on', channel=0, note=74, velocity=0, time=0),\n",
      "  Message('note_on', channel=0, note=70, velocity=87, time=11),\n",
      "  Message('note_on', channel=0, note=70, velocity=0, time=45),\n",
      "  Message('note_on', channel=0, note=76, velocity=87, time=3),\n",
      "  Message('note_on', channel=0, note=76, velocity=0, time=45),\n",
      "  Message('note_on', channel=0, note=74, velocity=87, time=3),\n",
      "  Message('note_on', channel=0, note=74, velocity=0, time=45),\n",
      "  Message('note_on', channel=0, note=73, velocity=105, time=3),\n",
      "  Message('note_on', channel=0, note=70, velocity=105, time=0),\n",
      "  Message('note_on', channel=0, note=64, velocity=105, time=0),\n",
      "  Message('note_on', channel=0, note=73, velocity=0, time=89),\n",
      "  Message('note_on', channel=0, note=70, velocity=0, time=0),\n",
      "  Message('note_on', channel=0, note=64, velocity=0, time=0),\n",
      "  Message('note_on', channel=0, note=78, velocity=87, time=295),\n",
      "  Message('note_on', channel=0, note=74, velocity=87, time=0),\n",
      "  Message('note_on', channel=0, note=78, velocity=0, time=20),\n",
      "  Message('note_on', channel=0, note=74, velocity=0, time=0),\n",
      "  Message('note_on', channel=0, note=78, velocity=86, time=28),\n",
      "  Message('note_on', channel=0, note=74, velocity=86, time=0),\n",
      "  Message('note_on', channel=0, note=78, velocity=0, time=20),\n",
      "  Message('note_on', channel=0, note=74, velocity=0, time=0),\n",
      "  Message('note_on', channel=0, note=81, velocity=85, time=28),\n",
      "  Message('note_on', channel=0, note=78, velocity=85, time=0),\n",
      "  Message('note_on', channel=0, note=81, velocity=0, time=20),\n",
      "  Message('note_on', channel=0, note=78, velocity=0, time=0),\n",
      "  Message('note_on', channel=0, note=81, velocity=85, time=28),\n",
      "  Message('note_on', channel=0, note=78, velocity=85, time=0),\n",
      "  Message('note_on', channel=0, note=81, velocity=0, time=20),\n",
      "  Message('note_on', channel=0, note=78, velocity=0, time=0),\n",
      "  Message('note_on', channel=0, note=79, velocity=84, time=28),\n",
      "  Message('note_on', channel=0, note=76, velocity=84, time=0),\n",
      "  Message('note_on', channel=0, note=79, velocity=0, time=20),\n",
      "  Message('note_on', channel=0, note=76, velocity=0, time=0),\n",
      "  Message('note_on', channel=0, note=79, velocity=83, time=28),\n",
      "  Message('note_on', channel=0, note=76, velocity=83, time=0),\n",
      "  Message('note_on', channel=0, note=79, velocity=0, time=20),\n",
      "  Message('note_on', channel=0, note=76, velocity=0, time=0),\n",
      "  Message('note_on', channel=0, note=76, velocity=83, time=28),\n",
      "  Message('note_on', channel=0, note=73, velocity=83, time=0),\n",
      "  Message('note_on', channel=0, note=76, velocity=0, time=20),\n",
      "  Message('note_on', channel=0, note=73, velocity=0, time=0),\n",
      "  Message('note_on', channel=0, note=76, velocity=82, time=28),\n",
      "  Message('note_on', channel=0, note=73, velocity=82, time=0),\n",
      "  Message('note_on', channel=0, note=76, velocity=0, time=20),\n",
      "  Message('note_on', channel=0, note=73, velocity=0, time=0),\n",
      "  Message('note_on', channel=0, note=74, velocity=82, time=28),\n",
      "  Message('note_on', channel=0, note=74, velocity=0, time=89),\n",
      "  Message('note_on', channel=0, note=85, velocity=82, time=31),\n",
      "  Message('note_on', channel=0, note=85, velocity=0, time=23),\n",
      "  Message('note_on', channel=0, note=86, velocity=82, time=1),\n",
      "  Message('note_on', channel=0, note=86, velocity=0, time=23),\n",
      "  Message('note_on', channel=0, note=85, velocity=82, time=1),\n",
      "  Message('note_on', channel=0, note=85, velocity=0, time=23),\n",
      "  Message('note_on', channel=0, note=86, velocity=83, time=1),\n",
      "  Message('note_on', channel=0, note=86, velocity=0, time=23),\n",
      "  Message('note_on', channel=0, note=88, velocity=83, time=1),\n",
      "  Message('note_on', channel=0, note=88, velocity=0, time=23),\n",
      "  Message('note_on', channel=0, note=84, velocity=83, time=1),\n",
      "  Message('note_on', channel=0, note=84, velocity=0, time=23),\n",
      "  Message('note_on', channel=0, note=86, velocity=84, time=1),\n",
      "  Message('note_on', channel=0, note=86, velocity=0, time=23),\n",
      "  Message('note_on', channel=0, note=83, velocity=84, time=1),\n",
      "  Message('note_on', channel=0, note=83, velocity=0, time=23),\n",
      "  Message('note_on', channel=0, note=84, velocity=84, time=1),\n",
      "  Message('note_on', channel=0, note=84, velocity=0, time=23),\n",
      "  Message('note_on', channel=0, note=81, velocity=85, time=1),\n",
      "  Message('note_on', channel=0, note=81, velocity=0, time=23),\n",
      "  Message('note_on', channel=0, note=83, velocity=85, time=1),\n",
      "  Message('note_on', channel=0, note=83, velocity=0, time=23),\n",
      "  Message('note_on', channel=0, note=79, velocity=85, time=1),\n",
      "  Message('note_on', channel=0, note=79, velocity=0, time=89),\n",
      "  Message('note_on', channel=0, note=79, velocity=86, time=31),\n",
      "  Message('note_on', channel=0, note=79, velocity=0, time=23),\n",
      "  Message('note_on', channel=0, note=81, velocity=86, time=1),\n",
      "  Message('note_on', channel=0, note=81, velocity=0, time=23),\n",
      "  Message('note_on', channel=0, note=83, velocity=85, time=1),\n",
      "  Message('note_on', channel=0, note=83, velocity=0, time=23),\n",
      "  Message('note_on', channel=0, note=81, velocity=85, time=1),\n",
      "  Message('note_on', channel=0, note=81, velocity=0, time=23),\n",
      "  Message('note_on', channel=0, note=83, velocity=84, time=1),\n",
      "  Message('note_on', channel=0, note=83, velocity=0, time=23),\n",
      "  Message('note_on', channel=0, note=79, velocity=84, time=1),\n",
      "  Message('note_on', channel=0, note=79, velocity=0, time=23),\n",
      "  Message('note_on', channel=0, note=81, velocity=84, time=1),\n",
      "  Message('note_on', channel=0, note=81, velocity=0, time=23),\n",
      "  Message('note_on', channel=0, note=78, velocity=83, time=1),\n",
      "  Message('note_on', channel=0, note=78, velocity=0, time=23),\n",
      "  Message('note_on', channel=0, note=79, velocity=83, time=1),\n",
      "  Message('note_on', channel=0, note=79, velocity=0, time=23),\n",
      "  Message('note_on', channel=0, note=76, velocity=82, time=1),\n",
      "  Message('note_on', channel=0, note=76, velocity=0, time=23),\n",
      "  Message('note_on', channel=0, note=78, velocity=82, time=1),\n",
      "  Message('note_on', channel=0, note=78, velocity=0, time=23),\n",
      "  Message('note_on', channel=0, note=74, velocity=82, time=1),\n",
      "  Message('note_on', channel=0, note=74, velocity=0, time=89),\n",
      "  Message('note_on', channel=0, note=85, velocity=82, time=31),\n",
      "  Message('note_on', channel=0, note=85, velocity=0, time=23),\n",
      "  Message('note_on', channel=0, note=86, velocity=73, time=1),\n",
      "  Message('note_on', channel=0, note=86, velocity=0, time=23),\n",
      "  Message('note_on', channel=0, note=85, velocity=73, time=1),\n",
      "  Message('note_on', channel=0, note=85, velocity=0, time=23),\n",
      "  Message('note_on', channel=0, note=86, velocity=73, time=1),\n",
      "  Message('note_on', channel=0, note=86, velocity=0, time=23),\n",
      "  Message('note_on', channel=0, note=88, velocity=74, time=1),\n",
      "  Message('note_on', channel=0, note=88, velocity=0, time=23),\n",
      "  Message('note_on', channel=0, note=84, velocity=74, time=1),\n",
      "  Message('note_on', channel=0, note=84, velocity=0, time=23),\n",
      "  Message('note_on', channel=0, note=86, velocity=74, time=1),\n",
      "  Message('note_on', channel=0, note=86, velocity=0, time=23),\n",
      "  Message('note_on', channel=0, note=83, velocity=75, time=1),\n",
      "  Message('note_on', channel=0, note=83, velocity=0, time=23),\n",
      "  Message('note_on', channel=0, note=84, velocity=75, time=1),\n",
      "  Message('note_on', channel=0, note=84, velocity=0, time=23),\n",
      "  Message('note_on', channel=0, note=81, velocity=75, time=1),\n",
      "  Message('note_on', channel=0, note=81, velocity=0, time=23),\n",
      "  Message('note_on', channel=0, note=83, velocity=76, time=1),\n",
      "  Message('note_on', channel=0, note=83, velocity=0, time=23),\n",
      "  Message('note_on', channel=0, note=79, velocity=76, time=1),\n",
      "  Message('note_on', channel=0, note=79, velocity=0, time=89),\n",
      "  Message('note_on', channel=0, note=79, velocity=77, time=31),\n",
      "  Message('note_on', channel=0, note=79, velocity=0, time=23),\n",
      "  Message('note_on', channel=0, note=81, velocity=77, time=1),\n",
      "  Message('note_on', channel=0, note=81, velocity=0, time=23),\n",
      "  Message('note_on', channel=0, note=83, velocity=76, time=1),\n",
      "  Message('note_on', channel=0, note=83, velocity=0, time=23),\n",
      "  Message('note_on', channel=0, note=81, velocity=76, time=1),\n",
      "  Message('note_on', channel=0, note=81, velocity=0, time=23),\n",
      "  Message('note_on', channel=0, note=83, velocity=75, time=1),\n",
      "  Message('note_on', channel=0, note=83, velocity=0, time=23),\n",
      "  Message('note_on', channel=0, note=79, velocity=75, time=1),\n",
      "  Message('note_on', channel=0, note=79, velocity=0, time=23),\n",
      "  Message('note_on', channel=0, note=81, velocity=75, time=1),\n",
      "  Message('note_on', channel=0, note=81, velocity=0, time=23),\n",
      "  Message('note_on', channel=0, note=78, velocity=74, time=1),\n",
      "  Message('note_on', channel=0, note=78, velocity=0, time=23),\n",
      "  Message('note_on', channel=0, note=79, velocity=74, time=1),\n",
      "  Message('note_on', channel=0, note=79, velocity=0, time=23),\n",
      "  Message('note_on', channel=0, note=76, velocity=73, time=1),\n",
      "  Message('note_on', channel=0, note=76, velocity=0, time=23),\n",
      "  Message('note_on', channel=0, note=78, velocity=73, time=1),\n",
      "  Message('note_on', channel=0, note=78, velocity=0, time=23),\n",
      "  Message('note_on', channel=0, note=74, velocity=73, time=1),\n",
      "  Message('note_on', channel=0, note=74, velocity=0, time=23),\n",
      "  Message('note_on', channel=0, note=66, velocity=73, time=1),\n",
      "  Message('note_on', channel=0, note=66, velocity=0, time=23),\n",
      "  Message('note_on', channel=0, note=69, velocity=74, time=1),\n",
      "  Message('note_on', channel=0, note=69, velocity=0, time=23),\n",
      "  Message('note_on', channel=0, note=74, velocity=76, time=1),\n",
      "  Message('note_on', channel=0, note=74, velocity=0, time=23),\n",
      "  Message('note_on', channel=0, note=78, velocity=77, time=1),\n",
      "  Message('note_on', channel=0, note=78, velocity=0, time=23),\n",
      "  Message('note_on', channel=0, note=69, velocity=79, time=1),\n",
      "  Message('note_on', channel=0, note=69, velocity=0, time=23),\n",
      "  Message('note_on', channel=0, note=74, velocity=80, time=1),\n",
      "  Message('note_on', channel=0, note=74, velocity=0, time=23),\n",
      "  Message('note_on', channel=0, note=78, velocity=82, time=1),\n",
      "  Message('note_on', channel=0, note=78, velocity=0, time=23),\n",
      "  Message('note_on', channel=0, note=81, velocity=83, time=1),\n",
      "  Message('note_on', channel=0, note=81, velocity=0, time=20),\n",
      "  Message('note_on', channel=0, note=81, velocity=87, time=28),\n",
      "  Message('note_on', channel=0, note=81, velocity=0, time=20),\n",
      "  Message('note_on', channel=0, note=73, velocity=87, time=76),\n",
      "  Message('note_on', channel=0, note=69, velocity=87, time=0),\n",
      "  Message('note_on', channel=0, note=67, velocity=87, time=0),\n",
      "  Message('note_on', channel=0, note=64, velocity=87, time=0),\n",
      "  Message('note_on', channel=0, note=73, velocity=0, time=20),\n",
      "  Message('note_on', channel=0, note=69, velocity=0, time=0),\n",
      "  Message('note_on', channel=0, note=67, velocity=0, time=0),\n",
      "  Message('note_on', channel=0, note=64, velocity=0, time=0),\n",
      "  Message('note_on', channel=0, note=74, velocity=103, time=28),\n",
      "  Message('note_on', channel=0, note=69, velocity=103, time=0),\n",
      "  Message('note_on', channel=0, note=66, velocity=103, time=0),\n",
      "  Message('note_on', channel=0, note=74, velocity=0, time=96),\n",
      "  Message('note_on', channel=0, note=69, velocity=0, time=0),\n",
      "  Message('note_on', channel=0, note=66, velocity=0, time=0),\n",
      "  Message('note_on', channel=0, note=73, velocity=87, time=192),\n",
      "  Message('note_on', channel=0, note=69, velocity=87, time=0),\n",
      "  Message('note_on', channel=0, note=67, velocity=87, time=0),\n",
      "  Message('note_on', channel=0, note=64, velocity=87, time=0),\n",
      "  Message('note_on', channel=0, note=73, velocity=0, time=89),\n",
      "  Message('note_on', channel=0, note=69, velocity=0, time=0),\n",
      "  Message('note_on', channel=0, note=67, velocity=0, time=0),\n",
      "  Message('note_on', channel=0, note=64, velocity=0, time=0),\n",
      "  Message('note_on', channel=0, note=74, velocity=87, time=7),\n",
      "  Message('note_on', channel=0, note=74, velocity=0, time=10),\n",
      "  Message('note_on', channel=0, note=62, velocity=87, time=14),\n",
      "  Message('note_on', channel=0, note=62, velocity=0, time=23),\n",
      "  Message('note_on', channel=0, note=66, velocity=87, time=1),\n",
      "  Message('note_on', channel=0, note=66, velocity=0, time=23),\n",
      "  Message('note_on', channel=0, note=69, velocity=87, time=1),\n",
      "  Message('note_on', channel=0, note=69, velocity=0, time=23),\n",
      "  Message('note_on', channel=0, note=74, velocity=87, time=1),\n",
      "  Message('note_on', channel=0, note=74, velocity=0, time=23),\n",
      "  Message('note_on', channel=0, note=66, velocity=87, time=1),\n",
      "  Message('note_on', channel=0, note=66, velocity=0, time=23),\n",
      "  Message('note_on', channel=0, note=69, velocity=87, time=1),\n",
      "  Message('note_on', channel=0, note=69, velocity=0, time=23),\n",
      "  Message('note_on', channel=0, note=74, velocity=87, time=1),\n",
      "  Message('note_on', channel=0, note=74, velocity=0, time=23),\n",
      "  Message('note_on', channel=0, note=78, velocity=87, time=1),\n",
      "  Message('note_on', channel=0, note=78, velocity=0, time=23),\n",
      "  Message('note_on', channel=0, note=69, velocity=87, time=1),\n",
      "  Message('note_on', channel=0, note=69, velocity=0, time=23),\n",
      "  Message('note_on', channel=0, note=74, velocity=87, time=1),\n",
      "  Message('note_on', channel=0, note=74, velocity=0, time=23),\n",
      "  Message('note_on', channel=0, note=78, velocity=87, time=1),\n",
      "  Message('note_on', channel=0, note=78, velocity=0, time=23),\n",
      "  Message('note_on', channel=0, note=81, velocity=87, time=1),\n",
      "  Message('note_on', channel=0, note=81, velocity=0, time=23),\n",
      "  Message('note_on', channel=0, note=78, velocity=87, time=1),\n",
      "  Message('note_on', channel=0, note=78, velocity=0, time=23),\n",
      "  Message('note_on', channel=0, note=81, velocity=87, time=1),\n",
      "  Message('note_on', channel=0, note=81, velocity=0, time=23),\n",
      "  Message('note_on', channel=0, note=78, velocity=87, time=1),\n",
      "  Message('note_on', channel=0, note=78, velocity=0, time=23),\n",
      "  Message('note_on', channel=0, note=74, velocity=103, time=1),\n",
      "  Message('note_on', channel=0, note=74, velocity=0, time=39),\n",
      "  Message('note_on', channel=0, note=86, velocity=103, time=57),\n",
      "  Message('note_on', channel=0, note=86, velocity=0, time=39),\n",
      "  Message('note_on', channel=0, note=62, velocity=103, time=57),\n",
      "  Message('note_on', channel=0, note=62, velocity=0, time=96),\n",
      "  MetaMessage('end_of_track', time=96)])\n",
      "MidiTrack([\n",
      "  Message('control_change', channel=0, control=7, value=127, time=0),\n",
      "  Message('control_change', channel=0, control=10, value=64, time=0),\n",
      "  Message('note_on', channel=0, note=67, velocity=64, time=1920),\n",
      "  Message('note_on', channel=0, note=67, velocity=0, time=96),\n",
      "  Message('note_on', channel=0, note=66, velocity=64, time=0),\n",
      "  Message('note_on', channel=0, note=66, velocity=0, time=89),\n",
      "  Message('note_on', channel=0, note=76, velocity=64, time=14023),\n",
      "  Message('note_on', channel=0, note=76, velocity=0, time=354),\n",
      "  Message('note_on', channel=0, note=76, velocity=64, time=1182),\n",
      "  Message('note_on', channel=0, note=76, velocity=0, time=354),\n",
      "  Message('note_on', channel=0, note=67, velocity=64, time=14622),\n",
      "  Message('note_on', channel=0, note=67, velocity=0, time=96),\n",
      "  Message('note_on', channel=0, note=66, velocity=64, time=0),\n",
      "  Message('note_on', channel=0, note=66, velocity=0, time=89),\n",
      "  Message('note_on', channel=0, note=76, velocity=64, time=14023),\n",
      "  Message('note_on', channel=0, note=76, velocity=0, time=354),\n",
      "  Message('note_on', channel=0, note=76, velocity=64, time=1182),\n",
      "  Message('note_on', channel=0, note=76, velocity=0, time=354),\n",
      "  Message('note_on', channel=0, note=67, velocity=64, time=25758),\n",
      "  Message('note_on', channel=0, note=67, velocity=0, time=96),\n",
      "  Message('note_on', channel=0, note=66, velocity=64, time=0),\n",
      "  Message('note_on', channel=0, note=66, velocity=0, time=89),\n",
      "  Message('note_on', channel=0, note=74, velocity=73, time=8359),\n",
      "  Message('note_on', channel=0, note=74, velocity=0, time=89),\n",
      "  Message('note_on', channel=0, note=74, velocity=73, time=679),\n",
      "  Message('note_on', channel=0, note=74, velocity=0, time=89),\n",
      "  Message('note_on', channel=0, note=74, velocity=73, time=679),\n",
      "  Message('note_on', channel=0, note=74, velocity=0, time=89),\n",
      "  Message('note_on', channel=0, note=73, velocity=73, time=487),\n",
      "  Message('note_on', channel=0, note=73, velocity=0, time=89),\n",
      "  Message('note_on', channel=0, note=71, velocity=73, time=2791),\n",
      "  Message('note_on', channel=0, note=71, velocity=0, time=89),\n",
      "  Message('note_on', channel=0, note=69, velocity=73, time=7),\n",
      "  Message('note_on', channel=0, note=69, velocity=0, time=89),\n",
      "  Message('note_on', channel=0, note=73, velocity=77, time=7),\n",
      "  Message('note_on', channel=0, note=73, velocity=0, time=89),\n",
      "  Message('note_on', channel=0, note=74, velocity=82, time=7),\n",
      "  Message('note_on', channel=0, note=74, velocity=0, time=89),\n",
      "  Message('note_on', channel=0, note=69, velocity=73, time=11815),\n",
      "  Message('note_on', channel=0, note=69, velocity=0, time=185),\n",
      "  Message('note_on', channel=0, note=71, velocity=73, time=7),\n",
      "  Message('note_on', channel=0, note=67, velocity=73, time=0),\n",
      "  Message('note_on', channel=0, note=71, velocity=0, time=177),\n",
      "  Message('note_on', channel=0, note=67, velocity=0, time=0),\n",
      "  Message('note_on', channel=0, note=69, velocity=73, time=495),\n",
      "  Message('note_on', channel=0, note=69, velocity=0, time=96),\n",
      "  Message('note_on', channel=0, note=70, velocity=73, time=0),\n",
      "  Message('note_on', channel=0, note=67, velocity=73, time=0),\n",
      "  Message('note_on', channel=0, note=70, velocity=0, time=177),\n",
      "  Message('note_on', channel=0, note=67, velocity=0, time=0),\n",
      "  MetaMessage('end_of_track', time=3855)])\n",
      "MidiTrack([\n",
      "  Message('control_change', channel=0, control=7, value=127, time=0),\n",
      "  Message('control_change', channel=0, control=10, value=64, time=0),\n",
      "  Message('note_on', channel=0, note=62, velocity=87, time=0),\n",
      "  Message('note_on', channel=0, note=50, velocity=87, time=0),\n",
      "  Message('note_on', channel=0, note=62, velocity=0, time=177),\n",
      "  Message('note_on', channel=0, note=50, velocity=0, time=0),\n",
      "  Message('note_on', channel=0, note=57, velocity=87, time=15),\n",
      "  Message('note_on', channel=0, note=57, velocity=0, time=177),\n",
      "  Message('note_on', channel=0, note=55, velocity=87, time=15),\n",
      "  Message('note_on', channel=0, note=55, velocity=0, time=24),\n",
      "  Message('note_on', channel=0, note=54, velocity=87, time=0),\n",
      "  Message('note_on', channel=0, note=54, velocity=0, time=24),\n",
      "  Message('note_on', channel=0, note=55, velocity=87, time=0),\n",
      "  Message('note_on', channel=0, note=55, velocity=0, time=24),\n",
      "  Message('note_on', channel=0, note=54, velocity=87, time=0),\n",
      "  Message('note_on', channel=0, note=54, velocity=0, time=24),\n",
      "  Message('note_on', channel=0, note=55, velocity=87, time=0),\n",
      "  Message('note_on', channel=0, note=55, velocity=0, time=24),\n",
      "  Message('note_on', channel=0, note=54, velocity=87, time=0),\n",
      "  Message('note_on', channel=0, note=54, velocity=0, time=13),\n",
      "  Message('note_on', channel=0, note=52, velocity=87, time=11),\n",
      "  Message('note_on', channel=0, note=52, velocity=0, time=23),\n",
      "  Message('note_on', channel=0, note=50, velocity=87, time=1),\n",
      "  Message('note_on', channel=0, note=50, velocity=0, time=23),\n",
      "  Message('note_on', channel=0, note=57, velocity=87, time=1),\n",
      "  Message('note_on', channel=0, note=57, velocity=0, time=89),\n",
      "  Message('note_on', channel=0, note=45, velocity=87, time=79),\n",
      "  Message('note_on', channel=0, note=45, velocity=0, time=8),\n",
      "  Message('note_on', channel=0, note=47, velocity=87, time=0),\n",
      "  Message('note_on', channel=0, note=47, velocity=0, time=8),\n",
      "  Message('note_on', channel=0, note=49, velocity=87, time=0),\n",
      "  Message('note_on', channel=0, note=49, velocity=0, time=8),\n",
      "  Message('note_on', channel=0, note=50, velocity=87, time=0),\n",
      "  Message('note_on', channel=0, note=50, velocity=0, time=89),\n",
      "  Message('note_on', channel=0, note=45, velocity=87, time=7),\n",
      "  Message('note_on', channel=0, note=45, velocity=0, time=67),\n",
      "  Message('note_on', channel=0, note=50, velocity=87, time=5),\n",
      "  Message('note_on', channel=0, note=50, velocity=0, time=23),\n",
      "  Message('note_on', channel=0, note=52, velocity=87, time=1),\n",
      "  Message('note_on', channel=0, note=52, velocity=0, time=89),\n",
      "  Message('note_on', channel=0, note=45, velocity=87, time=7),\n",
      "  Message('note_on', channel=0, note=45, velocity=0, time=67),\n",
      "  Message('note_on', channel=0, note=52, velocity=87, time=5),\n",
      "  Message('note_on', channel=0, note=52, velocity=0, time=23),\n",
      "  Message('note_on', channel=0, note=54, velocity=87, time=1),\n",
      "  Message('note_on', channel=0, note=54, velocity=0, time=89),\n",
      "  Message('note_on', channel=0, note=50, velocity=87, time=7),\n",
      "  Message('note_on', channel=0, note=50, velocity=0, time=67),\n",
      "  Message('note_on', channel=0, note=54, velocity=87, time=5),\n",
      "  Message('note_on', channel=0, note=54, velocity=0, time=23),\n",
      "  Message('note_on', channel=0, note=57, velocity=87, time=1),\n",
      "  Message('note_on', channel=0, note=57, velocity=0, time=89),\n",
      "  Message('note_on', channel=0, note=38, velocity=98, time=103),\n",
      "  Message('note_on', channel=0, note=38, velocity=0, time=20),\n",
      "  Message('note_on', channel=0, note=50, velocity=82, time=28),\n",
      "  Message('note_on', channel=0, note=50, velocity=0, time=20),\n",
      "  Message('note_on', channel=0, note=50, velocity=82, time=28),\n",
      "  Message('note_on', channel=0, note=50, velocity=0, time=20),\n",
      "  Message('note_on', channel=0, note=50, velocity=82, time=28),\n",
      "  Message('note_on', channel=0, note=50, velocity=0, time=20),\n",
      "  Message('note_on', channel=0, note=50, velocity=82, time=28),\n",
      "  Message('note_on', channel=0, note=50, velocity=0, time=20),\n",
      "  Message('note_on', channel=0, note=50, velocity=82, time=28),\n",
      "  Message('note_on', channel=0, note=50, velocity=0, time=20),\n",
      "  Message('note_on', channel=0, note=50, velocity=82, time=28),\n",
      "  Message('note_on', channel=0, note=50, velocity=0, time=20),\n",
      "  Message('note_on', channel=0, note=50, velocity=82, time=28),\n",
      "  Message('note_on', channel=0, note=50, velocity=0, time=20),\n",
      "  Message('note_on', channel=0, note=50, velocity=82, time=28),\n",
      "  Message('note_on', channel=0, note=50, velocity=0, time=20),\n",
      "  Message('note_on', channel=0, note=50, velocity=82, time=28),\n",
      "  Message('note_on', channel=0, note=50, velocity=0, time=20),\n",
      "  Message('note_on', channel=0, note=50, velocity=82, time=28),\n",
      "  Message('note_on', channel=0, note=50, velocity=0, time=20),\n",
      "  Message('note_on', channel=0, note=50, velocity=82, time=28),\n",
      "  Message('note_on', channel=0, note=50, velocity=0, time=20),\n",
      "  Message('note_on', channel=0, note=50, velocity=82, time=28),\n",
      "  Message('note_on', channel=0, note=50, velocity=0, time=20),\n",
      "  Message('note_on', channel=0, note=50, velocity=82, time=28),\n",
      "  Message('note_on', channel=0, note=50, velocity=0, time=20),\n",
      "  Message('note_on', channel=0, note=50, velocity=82, time=28),\n",
      "  Message('note_on', channel=0, note=50, velocity=0, time=20),\n",
      "  Message('note_on', channel=0, note=50, velocity=82, time=28),\n",
      "  Message('note_on', channel=0, note=50, velocity=0, time=20),\n",
      "  Message('note_on', channel=0, note=38, velocity=98, time=28),\n",
      "  Message('note_on', channel=0, note=38, velocity=0, time=20),\n",
      "  Message('note_on', channel=0, note=50, velocity=82, time=28),\n",
      "  Message('note_on', channel=0, note=50, velocity=0, time=20),\n",
      "  Message('note_on', channel=0, note=50, velocity=82, time=28),\n",
      "  Message('note_on', channel=0, note=50, velocity=0, time=20),\n",
      "  Message('note_on', channel=0, note=50, velocity=82, time=28),\n",
      "  Message('note_on', channel=0, note=50, velocity=0, time=20),\n",
      "  Message('note_on', channel=0, note=50, velocity=82, time=28),\n",
      "  Message('note_on', channel=0, note=50, velocity=0, time=20),\n",
      "  Message('note_on', channel=0, note=50, velocity=82, time=28),\n",
      "  Message('note_on', channel=0, note=50, velocity=0, time=20),\n",
      "  Message('note_on', channel=0, note=50, velocity=82, time=28),\n",
      "  Message('note_on', channel=0, note=50, velocity=0, time=20),\n",
      "  Message('note_on', channel=0, note=50, velocity=82, time=28),\n",
      "  Message('note_on', channel=0, note=50, velocity=0, time=20),\n",
      "  Message('note_on', channel=0, note=50, velocity=82, time=28),\n",
      "  Message('note_on', channel=0, note=50, velocity=0, time=20),\n",
      "  Message('note_on', channel=0, note=50, velocity=82, time=28),\n",
      "  Message('note_on', channel=0, note=50, velocity=0, time=20),\n",
      "  Message('note_on', channel=0, note=50, velocity=82, time=28),\n",
      "  Message('note_on', channel=0, note=50, velocity=0, time=20),\n",
      "  Message('note_on', channel=0, note=50, velocity=82, time=28),\n",
      "  Message('note_on', channel=0, note=50, velocity=0, time=20),\n",
      "  Message('note_on', channel=0, note=50, velocity=82, time=28),\n",
      "  Message('note_on', channel=0, note=50, velocity=0, time=20),\n",
      "  Message('note_on', channel=0, note=50, velocity=82, time=28),\n",
      "  Message('note_on', channel=0, note=50, velocity=0, time=20),\n",
      "  Message('note_on', channel=0, note=50, velocity=82, time=28),\n",
      "  Message('note_on', channel=0, note=50, velocity=0, time=20),\n",
      "  Message('note_on', channel=0, note=50, velocity=82, time=28),\n",
      "  Message('note_on', channel=0, note=50, velocity=0, time=20),\n",
      "  Message('note_on', channel=0, note=50, velocity=98, time=28),\n",
      "  Message('note_on', channel=0, note=50, velocity=0, time=20),\n",
      "  Message('note_on', channel=0, note=66, velocity=78, time=28),\n",
      "  Message('note_on', channel=0, note=62, velocity=78, time=0),\n",
      "  Message('note_on', channel=0, note=66, velocity=0, time=20),\n",
      "  Message('note_on', channel=0, note=62, velocity=0, time=0),\n",
      "  Message('note_on', channel=0, note=66, velocity=78, time=28),\n",
      "  Message('note_on', channel=0, note=62, velocity=78, time=0),\n",
      "  Message('note_on', channel=0, note=66, velocity=0, time=20),\n",
      "  Message('note_on', channel=0, note=62, velocity=0, time=0),\n",
      "  Message('note_on', channel=0, note=66, velocity=78, time=28),\n",
      "  Message('note_on', channel=0, note=62, velocity=78, time=0),\n",
      "  Message('note_on', channel=0, note=66, velocity=0, time=20),\n",
      "  Message('note_on', channel=0, note=62, velocity=0, time=0),\n",
      "  Message('note_on', channel=0, note=57, velocity=78, time=28),\n",
      "  Message('note_on', channel=0, note=57, velocity=0, time=20),\n",
      "  Message('note_on', channel=0, note=66, velocity=78, time=28),\n",
      "  Message('note_on', channel=0, note=62, velocity=78, time=0),\n",
      "  Message('note_on', channel=0, note=66, velocity=0, time=20),\n",
      "  Message('note_on', channel=0, note=62, velocity=0, time=0),\n",
      "  Message('note_on', channel=0, note=66, velocity=78, time=28),\n",
      "  Message('note_on', channel=0, note=62, velocity=78, time=0),\n",
      "  Message('note_on', channel=0, note=66, velocity=0, time=20),\n",
      "  Message('note_on', channel=0, note=62, velocity=0, time=0),\n",
      "  Message('note_on', channel=0, note=66, velocity=78, time=28),\n",
      "  Message('note_on', channel=0, note=62, velocity=78, time=0),\n",
      "  Message('note_on', channel=0, note=66, velocity=0, time=20),\n",
      "  Message('note_on', channel=0, note=62, velocity=0, time=0),\n",
      "  Message('note_on', channel=0, note=57, velocity=94, time=28),\n",
      "  Message('note_on', channel=0, note=57, velocity=0, time=20),\n",
      "  Message('note_on', channel=0, note=67, velocity=78, time=28),\n",
      "  Message('note_on', channel=0, note=64, velocity=78, time=0),\n",
      "  Message('note_on', channel=0, note=67, velocity=0, time=20),\n",
      "  Message('note_on', channel=0, note=64, velocity=0, time=0),\n",
      "  Message('note_on', channel=0, note=67, velocity=78, time=28),\n",
      "  Message('note_on', channel=0, note=64, velocity=78, time=0),\n",
      "  Message('note_on', channel=0, note=67, velocity=0, time=20),\n",
      "  Message('note_on', channel=0, note=64, velocity=0, time=0),\n",
      "  Message('note_on', channel=0, note=67, velocity=78, time=28),\n",
      "  Message('note_on', channel=0, note=64, velocity=78, time=0),\n",
      "  Message('note_on', channel=0, note=67, velocity=0, time=20),\n",
      "  Message('note_on', channel=0, note=64, velocity=0, time=0),\n",
      "  Message('note_on', channel=0, note=57, velocity=78, time=28),\n",
      "  Message('note_on', channel=0, note=57, velocity=0, time=20),\n",
      "  Message('note_on', channel=0, note=67, velocity=78, time=28),\n",
      "  Message('note_on', channel=0, note=64, velocity=78, time=0),\n",
      "  Message('note_on', channel=0, note=67, velocity=0, time=20),\n",
      "  Message('note_on', channel=0, note=64, velocity=0, time=0),\n",
      "  Message('note_on', channel=0, note=67, velocity=78, time=28),\n",
      "  Message('note_on', channel=0, note=64, velocity=78, time=0),\n",
      "  Message('note_on', channel=0, note=67, velocity=0, time=20),\n",
      "  Message('note_on', channel=0, note=64, velocity=0, time=0),\n",
      "  Message('note_on', channel=0, note=67, velocity=78, time=28),\n",
      "  Message('note_on', channel=0, note=64, velocity=78, time=0),\n",
      "  Message('note_on', channel=0, note=67, velocity=0, time=20),\n",
      "  Message('note_on', channel=0, note=64, velocity=0, time=0),\n",
      "  Message('note_on', channel=0, note=57, velocity=94, time=28),\n",
      "  Message('note_on', channel=0, note=57, velocity=0, time=20),\n",
      "  Message('note_on', channel=0, note=66, velocity=78, time=28),\n",
      "  Message('note_on', channel=0, note=62, velocity=78, time=0),\n",
      "  Message('note_on', channel=0, note=66, velocity=0, time=20),\n",
      "  Message('note_on', channel=0, note=62, velocity=0, time=0),\n",
      "  Message('note_on', channel=0, note=66, velocity=78, time=28),\n",
      "  Message('note_on', channel=0, note=62, velocity=78, time=0),\n",
      "  Message('note_on', channel=0, note=66, velocity=0, time=20),\n",
      "  Message('note_on', channel=0, note=62, velocity=0, time=0),\n",
      "  Message('note_on', channel=0, note=66, velocity=78, time=28),\n",
      "  Message('note_on', channel=0, note=62, velocity=78, time=0),\n",
      "  Message('note_on', channel=0, note=66, velocity=0, time=20),\n",
      "  Message('note_on', channel=0, note=62, velocity=0, time=0),\n",
      "  Message('note_on', channel=0, note=57, velocity=78, time=28),\n",
      "  Message('note_on', channel=0, note=57, velocity=0, time=20),\n",
      "  Message('note_on', channel=0, note=66, velocity=78, time=28),\n",
      "  Message('note_on', channel=0, note=62, velocity=78, time=0),\n",
      "  Message('note_on', channel=0, note=66, velocity=0, time=20),\n",
      "  Message('note_on', channel=0, note=62, velocity=0, time=0),\n",
      "  Message('note_on', channel=0, note=66, velocity=78, time=28),\n",
      "  Message('note_on', channel=0, note=62, velocity=78, time=0),\n",
      "  Message('note_on', channel=0, note=66, velocity=0, time=20),\n",
      "  Message('note_on', channel=0, note=62, velocity=0, time=0),\n",
      "  Message('note_on', channel=0, note=66, velocity=78, time=28),\n",
      "  Message('note_on', channel=0, note=62, velocity=78, time=0),\n",
      "  Message('note_on', channel=0, note=66, velocity=0, time=20),\n",
      "  Message('note_on', channel=0, note=62, velocity=0, time=0),\n",
      "  Message('note_on', channel=0, note=55, velocity=78, time=124),\n",
      "  Message('note_on', channel=0, note=43, velocity=78, time=0),\n",
      "  Message('note_on', channel=0, note=55, velocity=0, time=89),\n",
      "  Message('note_on', channel=0, note=43, velocity=0, time=0),\n",
      "  Message('note_on', channel=0, note=57, velocity=78, time=7),\n",
      "  Message('note_on', channel=0, note=45, velocity=78, time=0),\n",
      "  Message('note_on', channel=0, note=57, velocity=0, time=89),\n",
      "  Message('note_on', channel=0, note=45, velocity=0, time=0),\n",
      "  Message('note_on', channel=0, note=45, velocity=78, time=7),\n",
      "  Message('note_on', channel=0, note=33, velocity=78, time=0),\n",
      "  Message('note_on', channel=0, note=45, velocity=0, time=89),\n",
      "  Message('note_on', channel=0, note=33, velocity=0, time=0),\n",
      "  Message('note_on', channel=0, note=50, velocity=78, time=7),\n",
      "  Message('note_on', channel=0, note=38, velocity=78, time=0),\n",
      "  Message('note_on', channel=0, note=50, velocity=0, time=89),\n",
      "  Message('note_on', channel=0, note=38, velocity=0, time=0),\n",
      "  Message('note_on', channel=0, note=50, velocity=82, time=103),\n",
      "  Message('note_on', channel=0, note=38, velocity=82, time=0),\n",
      "  Message('note_on', channel=0, note=50, velocity=0, time=89),\n",
      "  Message('note_on', channel=0, note=38, velocity=0, time=0),\n",
      "  Message('note_on', channel=0, note=49, velocity=82, time=103),\n",
      "  Message('note_on', channel=0, note=37, velocity=82, time=0),\n",
      "  Message('note_on', channel=0, note=49, velocity=0, time=89),\n",
      "  Message('note_on', channel=0, note=37, velocity=0, time=0),\n",
      "  Message('note_on', channel=0, note=49, velocity=82, time=103),\n",
      "  Message('note_on', channel=0, note=37, velocity=82, time=0),\n",
      "  Message('note_on', channel=0, note=49, velocity=0, time=89),\n",
      "  Message('note_on', channel=0, note=37, velocity=0, time=0),\n",
      "  Message('note_on', channel=0, note=50, velocity=82, time=103),\n",
      "  Message('note_on', channel=0, note=38, velocity=82, time=0),\n",
      "  Message('note_on', channel=0, note=50, velocity=0, time=89),\n",
      "  Message('note_on', channel=0, note=38, velocity=0, time=0),\n",
      "  Message('note_on', channel=0, note=50, velocity=82, time=103),\n",
      "  Message('note_on', channel=0, note=38, velocity=82, time=0),\n",
      "  Message('note_on', channel=0, note=50, velocity=0, time=89),\n",
      "  Message('note_on', channel=0, note=38, velocity=0, time=0),\n",
      "  Message('note_on', channel=0, note=67, velocity=82, time=199),\n",
      "  Message('note_on', channel=0, note=67, velocity=0, time=89),\n",
      "  Message('note_on', channel=0, note=69, velocity=82, time=7),\n",
      "  Message('note_on', channel=0, note=69, velocity=0, time=89),\n",
      "  Message('note_on', channel=0, note=57, velocity=82, time=7),\n",
      "  Message('note_on', channel=0, note=57, velocity=0, time=89),\n",
      "  Message('note_on', channel=0, note=50, velocity=87, time=7),\n",
      "  Message('note_on', channel=0, note=50, velocity=0, time=23),\n",
      "  Message('note_on', channel=0, note=62, velocity=87, time=1),\n",
      "  Message('note_on', channel=0, note=62, velocity=0, time=23),\n",
      "  Message('note_on', channel=0, note=54, velocity=87, time=1),\n",
      "  Message('note_on', channel=0, note=54, velocity=0, time=23),\n",
      "  Message('note_on', channel=0, note=62, velocity=87, time=1),\n",
      "  Message('note_on', channel=0, note=62, velocity=0, time=23),\n",
      "  Message('note_on', channel=0, note=57, velocity=87, time=1),\n",
      "  Message('note_on', channel=0, note=57, velocity=0, time=23),\n",
      "  Message('note_on', channel=0, note=62, velocity=87, time=1),\n",
      "  Message('note_on', channel=0, note=62, velocity=0, time=23),\n",
      "  Message('note_on', channel=0, note=54, velocity=87, time=1),\n",
      "  Message('note_on', channel=0, note=54, velocity=0, time=23),\n",
      "  Message('note_on', channel=0, note=61, velocity=87, time=1),\n",
      "  Message('note_on', channel=0, note=61, velocity=0, time=23),\n",
      "  Message('note_on', channel=0, note=50, velocity=87, time=1),\n",
      "  Message('note_on', channel=0, note=50, velocity=0, time=23),\n",
      "  Message('note_on', channel=0, note=62, velocity=87, time=1),\n",
      "  Message('note_on', channel=0, note=62, velocity=0, time=23),\n",
      "  Message('note_on', channel=0, note=54, velocity=87, time=1),\n",
      "  Message('note_on', channel=0, note=54, velocity=0, time=23),\n",
      "  Message('note_on', channel=0, note=62, velocity=87, time=1),\n",
      "  Message('note_on', channel=0, note=62, velocity=0, time=23),\n",
      "  Message('note_on', channel=0, note=57, velocity=87, time=1),\n",
      "  Message('note_on', channel=0, note=57, velocity=0, time=23),\n",
      "  Message('note_on', channel=0, note=62, velocity=87, time=1),\n",
      "  Message('note_on', channel=0, note=62, velocity=0, time=23),\n",
      "  Message('note_on', channel=0, note=54, velocity=87, time=1),\n",
      "  Message('note_on', channel=0, note=54, velocity=0, time=23),\n",
      "  Message('note_on', channel=0, note=62, velocity=87, time=1),\n",
      "  Message('note_on', channel=0, note=62, velocity=0, time=23),\n",
      "  Message('note_on', channel=0, note=50, velocity=87, time=1),\n",
      "  Message('note_on', channel=0, note=50, velocity=0, time=20),\n",
      "  Message('note_on', channel=0, note=50, velocity=87, time=28),\n",
      "  Message('note_on', channel=0, note=50, velocity=0, time=20),\n",
      "  Message('note_on', channel=0, note=45, velocity=87, time=28),\n",
      "  Message('note_on', channel=0, note=45, velocity=0, time=20),\n",
      "  Message('note_on', channel=0, note=42, velocity=87, time=28),\n",
      "  Message('note_on', channel=0, note=42, velocity=0, time=20),\n",
      "  Message('note_on', channel=0, note=38, velocity=87, time=28),\n",
      "  Message('note_on', channel=0, note=38, velocity=0, time=20),\n",
      "  Message('note_on', channel=0, note=42, velocity=87, time=28),\n",
      "  Message('note_on', channel=0, note=42, velocity=0, time=20),\n",
      "  Message('note_on', channel=0, note=45, velocity=87, time=28),\n",
      "  Message('note_on', channel=0, note=45, velocity=0, time=20),\n",
      "  Message('note_on', channel=0, note=50, velocity=87, time=28),\n",
      "  Message('note_on', channel=0, note=50, velocity=0, time=20),\n",
      "  Message('note_on', channel=0, note=47, velocity=87, time=28),\n",
      "  Message('note_on', channel=0, note=47, velocity=0, time=23),\n",
      "  Message('note_on', channel=0, note=59, velocity=87, time=1),\n",
      "  Message('note_on', channel=0, note=59, velocity=0, time=23),\n",
      "  Message('note_on', channel=0, note=50, velocity=87, time=1),\n",
      "  Message('note_on', channel=0, note=50, velocity=0, time=23),\n",
      "  Message('note_on', channel=0, note=59, velocity=87, time=1),\n",
      "  Message('note_on', channel=0, note=59, velocity=0, time=23),\n",
      "  Message('note_on', channel=0, note=54, velocity=87, time=1),\n",
      "  Message('note_on', channel=0, note=54, velocity=0, time=23),\n",
      "  Message('note_on', channel=0, note=59, velocity=87, time=1),\n",
      "  Message('note_on', channel=0, note=59, velocity=0, time=23),\n",
      "  Message('note_on', channel=0, note=50, velocity=87, time=1),\n",
      "  Message('note_on', channel=0, note=50, velocity=0, time=23),\n",
      "  Message('note_on', channel=0, note=59, velocity=87, time=1),\n",
      "  Message('note_on', channel=0, note=59, velocity=0, time=23),\n",
      "  Message('note_on', channel=0, note=47, velocity=87, time=1),\n",
      "  Message('note_on', channel=0, note=47, velocity=0, time=23),\n",
      "  Message('note_on', channel=0, note=59, velocity=87, time=1),\n",
      "  Message('note_on', channel=0, note=59, velocity=0, time=23),\n",
      "  Message('note_on', channel=0, note=50, velocity=87, time=1),\n",
      "  Message('note_on', channel=0, note=50, velocity=0, time=23),\n",
      "  Message('note_on', channel=0, note=59, velocity=87, time=1),\n",
      "  Message('note_on', channel=0, note=59, velocity=0, time=23),\n",
      "  Message('note_on', channel=0, note=54, velocity=87, time=1),\n",
      "  Message('note_on', channel=0, note=54, velocity=0, time=23),\n",
      "  Message('note_on', channel=0, note=59, velocity=87, time=1),\n",
      "  Message('note_on', channel=0, note=59, velocity=0, time=23),\n",
      "  Message('note_on', channel=0, note=50, velocity=87, time=1),\n",
      "  Message('note_on', channel=0, note=50, velocity=0, time=23),\n",
      "  Message('note_on', channel=0, note=59, velocity=87, time=1),\n",
      "  Message('note_on', channel=0, note=59, velocity=0, time=23),\n",
      "  Message('note_on', channel=0, note=47, velocity=87, time=1),\n",
      "  Message('note_on', channel=0, note=47, velocity=0, time=20),\n",
      "  Message('note_on', channel=0, note=47, velocity=87, time=28),\n",
      "  Message('note_on', channel=0, note=47, velocity=0, time=20),\n",
      "  Message('note_on', channel=0, note=42, velocity=87, time=28),\n",
      "  Message('note_on', channel=0, note=42, velocity=0, time=20),\n",
      "  Message('note_on', channel=0, note=38, velocity=87, time=28),\n",
      "  Message('note_on', channel=0, note=38, velocity=0, time=20),\n",
      "  Message('note_on', channel=0, note=35, velocity=87, time=28),\n",
      "  Message('note_on', channel=0, note=35, velocity=0, time=20),\n",
      "  Message('note_on', channel=0, note=38, velocity=87, time=28),\n",
      "  Message('note_on', channel=0, note=38, velocity=0, time=20),\n",
      "  Message('note_on', channel=0, note=42, velocity=87, time=28),\n",
      "  Message('note_on', channel=0, note=42, velocity=0, time=20),\n",
      "  Message('note_on', channel=0, note=47, velocity=87, time=28),\n",
      "  Message('note_on', channel=0, note=47, velocity=0, time=20),\n",
      "  Message('note_on', channel=0, note=43, velocity=87, time=28),\n",
      "  Message('note_on', channel=0, note=43, velocity=0, time=23),\n",
      "  Message('note_on', channel=0, note=55, velocity=87, time=1),\n",
      "  Message('note_on', channel=0, note=55, velocity=0, time=23),\n",
      "  Message('note_on', channel=0, note=47, velocity=87, time=1),\n",
      "  Message('note_on', channel=0, note=47, velocity=0, time=23),\n",
      "  Message('note_on', channel=0, note=55, velocity=87, time=1),\n",
      "  Message('note_on', channel=0, note=55, velocity=0, time=23),\n",
      "  Message('note_on', channel=0, note=50, velocity=87, time=1),\n",
      "  Message('note_on', channel=0, note=50, velocity=0, time=23),\n",
      "  Message('note_on', channel=0, note=55, velocity=87, time=1),\n",
      "  Message('note_on', channel=0, note=55, velocity=0, time=23),\n",
      "  Message('note_on', channel=0, note=47, velocity=87, time=1),\n",
      "  Message('note_on', channel=0, note=47, velocity=0, time=23),\n",
      "  Message('note_on', channel=0, note=55, velocity=87, time=1),\n",
      "  Message('note_on', channel=0, note=55, velocity=0, time=23),\n",
      "  Message('note_on', channel=0, note=43, velocity=87, time=1),\n",
      "  Message('note_on', channel=0, note=43, velocity=0, time=23),\n",
      "  Message('note_on', channel=0, note=55, velocity=87, time=1),\n",
      "  Message('note_on', channel=0, note=55, velocity=0, time=23),\n",
      "  Message('note_on', channel=0, note=47, velocity=87, time=1),\n",
      "  Message('note_on', channel=0, note=47, velocity=0, time=23),\n",
      "  Message('note_on', channel=0, note=55, velocity=87, time=1),\n",
      "  Message('note_on', channel=0, note=55, velocity=0, time=23),\n",
      "  Message('note_on', channel=0, note=50, velocity=87, time=1),\n",
      "  Message('note_on', channel=0, note=50, velocity=0, time=23),\n",
      "  Message('note_on', channel=0, note=55, velocity=87, time=1),\n",
      "  Message('note_on', channel=0, note=55, velocity=0, time=23),\n",
      "  Message('note_on', channel=0, note=47, velocity=87, time=1),\n",
      "  Message('note_on', channel=0, note=47, velocity=0, time=23),\n",
      "  Message('note_on', channel=0, note=55, velocity=87, time=1),\n",
      "  Message('note_on', channel=0, note=55, velocity=0, time=23),\n",
      "  Message('note_on', channel=0, note=43, velocity=87, time=1),\n",
      "  Message('note_on', channel=0, note=43, velocity=0, time=20),\n",
      "  Message('note_on', channel=0, note=43, velocity=87, time=28),\n",
      "  Message('note_on', channel=0, note=43, velocity=0, time=20),\n",
      "  Message('note_on', channel=0, note=38, velocity=87, time=28),\n",
      "  Message('note_on', channel=0, note=38, velocity=0, time=20),\n",
      "  Message('note_on', channel=0, note=35, velocity=87, time=28),\n",
      "  Message('note_on', channel=0, note=35, velocity=0, time=20),\n",
      "  Message('note_on', channel=0, note=31, velocity=87, time=28),\n",
      "  Message('note_on', channel=0, note=31, velocity=0, time=20),\n",
      "  Message('note_on', channel=0, note=35, velocity=87, time=28),\n",
      "  Message('note_on', channel=0, note=35, velocity=0, time=20),\n",
      "  Message('note_on', channel=0, note=38, velocity=87, time=28),\n",
      "  Message('note_on', channel=0, note=38, velocity=0, time=20),\n",
      "  Message('note_on', channel=0, note=43, velocity=87, time=28),\n",
      "  Message('note_on', channel=0, note=43, velocity=0, time=20),\n",
      "  Message('note_on', channel=0, note=44, velocity=87, time=28),\n",
      "  Message('note_on', channel=0, note=32, velocity=87, time=0),\n",
      "  Message('note_on', channel=0, note=44, velocity=0, time=177),\n",
      "  Message('note_on', channel=0, note=32, velocity=0, time=0),\n",
      "  Message('note_on', channel=0, note=52, velocity=87, time=15),\n",
      "  Message('note_on', channel=0, note=40, velocity=87, time=0),\n",
      "  Message('note_on', channel=0, note=52, velocity=0, time=177),\n",
      "  Message('note_on', channel=0, note=40, velocity=0, time=0),\n",
      "  Message('note_on', channel=0, note=57, velocity=87, time=15),\n",
      "  Message('note_on', channel=0, note=45, velocity=87, time=0),\n",
      "  Message('note_on', channel=0, note=57, velocity=0, time=89),\n",
      "  Message('note_on', channel=0, note=45, velocity=0, time=0),\n",
      "  Message('note_on', channel=0, note=63, velocity=87, time=103),\n",
      "  Message('note_on', channel=0, note=57, velocity=87, time=0),\n",
      "  Message('note_on', channel=0, note=54, velocity=87, time=0),\n",
      "  Message('note_on', channel=0, note=63, velocity=0, time=89),\n",
      "  Message('note_on', channel=0, note=57, velocity=0, time=0),\n",
      "  Message('note_on', channel=0, note=54, velocity=0, time=0),\n",
      "  Message('note_on', channel=0, note=64, velocity=87, time=103),\n",
      "  Message('note_on', channel=0, note=59, velocity=87, time=0),\n",
      "  Message('note_on', channel=0, note=56, velocity=87, time=0),\n",
      "  Message('note_on', channel=0, note=52, velocity=87, time=0),\n",
      "  Message('note_on', channel=0, note=64, velocity=0, time=89),\n",
      "  Message('note_on', channel=0, note=59, velocity=0, time=0),\n",
      "  Message('note_on', channel=0, note=56, velocity=0, time=0),\n",
      "  Message('note_on', channel=0, note=52, velocity=0, time=0),\n",
      "  Message('note_on', channel=0, note=52, velocity=87, time=103),\n",
      "  Message('note_on', channel=0, note=40, velocity=87, time=0),\n",
      "  Message('note_on', channel=0, note=52, velocity=0, time=177),\n",
      "  Message('note_on', channel=0, note=40, velocity=0, time=0),\n",
      "  Message('note_on', channel=0, note=52, velocity=87, time=15),\n",
      "  Message('note_on', channel=0, note=40, velocity=87, time=0),\n",
      "  Message('note_on', channel=0, note=52, velocity=0, time=177),\n",
      "  Message('note_on', channel=0, note=40, velocity=0, time=0),\n",
      "  Message('note_on', channel=0, note=52, velocity=87, time=15),\n",
      "  Message('note_on', channel=0, note=40, velocity=87, time=0),\n",
      "  Message('note_on', channel=0, note=52, velocity=0, time=177),\n",
      "  Message('note_on', channel=0, note=40, velocity=0, time=0),\n",
      "  Message('note_on', channel=0, note=52, velocity=87, time=15),\n",
      "  Message('note_on', channel=0, note=40, velocity=87, time=0),\n",
      "  Message('note_on', channel=0, note=52, velocity=0, time=177),\n",
      "  Message('note_on', channel=0, note=40, velocity=0, time=0),\n",
      "  Message('note_on', channel=0, note=52, velocity=87, time=15),\n",
      "  Message('note_on', channel=0, note=40, velocity=87, time=0),\n",
      "  Message('note_on', channel=0, note=52, velocity=0, time=177),\n",
      "  Message('note_on', channel=0, note=40, velocity=0, time=0),\n",
      "  Message('note_on', channel=0, note=52, velocity=87, time=15),\n",
      "  Message('note_on', channel=0, note=40, velocity=87, time=0),\n",
      "  Message('note_on', channel=0, note=52, velocity=0, time=177),\n",
      "  Message('note_on', channel=0, note=40, velocity=0, time=0),\n",
      "  Message('note_on', channel=0, note=52, velocity=87, time=15),\n",
      "  Message('note_on', channel=0, note=40, velocity=87, time=0),\n",
      "  Message('note_on', channel=0, note=52, velocity=0, time=177),\n",
      "  Message('note_on', channel=0, note=40, velocity=0, time=0),\n",
      "  Message('note_on', channel=0, note=52, velocity=87, time=15),\n",
      "  Message('note_on', channel=0, note=40, velocity=87, time=0),\n",
      "  Message('note_on', channel=0, note=52, velocity=0, time=177),\n",
      "  Message('note_on', channel=0, note=40, velocity=0, time=0),\n",
      "  Message('note_on', channel=0, note=52, velocity=87, time=15),\n",
      "  Message('note_on', channel=0, note=40, velocity=87, time=0),\n",
      "  Message('note_on', channel=0, note=52, velocity=0, time=177),\n",
      "  Message('note_on', channel=0, note=40, velocity=0, time=0),\n",
      "  Message('note_on', channel=0, note=52, velocity=87, time=15),\n",
      "  Message('note_on', channel=0, note=40, velocity=87, time=0),\n",
      "  Message('note_on', channel=0, note=52, velocity=0, time=89),\n",
      "  Message('note_on', channel=0, note=40, velocity=0, time=0),\n",
      "  Message('note_on', channel=0, note=50, velocity=87, time=7),\n",
      "  Message('note_on', channel=0, note=38, velocity=87, time=0),\n",
      "  Message('note_on', channel=0, note=50, velocity=0, time=89),\n",
      "  Message('note_on', channel=0, note=38, velocity=0, time=0),\n",
      "  Message('note_on', channel=0, note=49, velocity=87, time=7),\n",
      "  Message('note_on', channel=0, note=37, velocity=87, time=0),\n",
      "  Message('note_on', channel=0, note=49, velocity=0, time=89),\n",
      "  Message('note_on', channel=0, note=37, velocity=0, time=0),\n",
      "  Message('note_on', channel=0, note=47, velocity=87, time=7),\n",
      "  Message('note_on', channel=0, note=35, velocity=87, time=0),\n",
      "  Message('note_on', channel=0, note=47, velocity=0, time=89),\n",
      "  Message('note_on', channel=0, note=35, velocity=0, time=0),\n",
      "  Message('note_on', channel=0, note=57, velocity=87, time=103),\n",
      "  Message('note_on', channel=0, note=57, velocity=0, time=177),\n",
      "  Message('note_on', channel=0, note=57, velocity=87, time=15),\n",
      "  Message('note_on', channel=0, note=57, velocity=0, time=89),\n",
      "  Message('note_on', channel=0, note=57, velocity=87, time=7),\n",
      "  Message('note_on', channel=0, note=52, velocity=87, time=0),\n",
      "  Message('note_on', channel=0, note=57, velocity=0, time=20),\n",
      "  Message('note_on', channel=0, note=52, velocity=0, time=0),\n",
      "  Message('note_on', channel=0, note=57, velocity=87, time=28),\n",
      "  Message('note_on', channel=0, note=52, velocity=87, time=0),\n",
      "  Message('note_on', channel=0, note=57, velocity=0, time=20),\n",
      "  Message('note_on', channel=0, note=52, velocity=0, time=0),\n",
      "  Message('note_on', channel=0, note=61, velocity=87, time=28),\n",
      "  Message('note_on', channel=0, note=52, velocity=87, time=0),\n",
      "  Message('note_on', channel=0, note=61, velocity=0, time=20),\n",
      "  Message('note_on', channel=0, note=52, velocity=0, time=0),\n",
      "  Message('note_on', channel=0, note=61, velocity=87, time=28),\n",
      "  Message('note_on', channel=0, note=52, velocity=87, time=0),\n",
      "  Message('note_on', channel=0, note=61, velocity=0, time=20),\n",
      "  Message('note_on', channel=0, note=52, velocity=0, time=0),\n",
      "  Message('note_on', channel=0, note=62, velocity=87, time=28),\n",
      "  Message('note_on', channel=0, note=52, velocity=87, time=0),\n",
      "  Message('note_on', channel=0, note=62, velocity=0, time=20),\n",
      "  Message('note_on', channel=0, note=52, velocity=0, time=0),\n",
      "  Message('note_on', channel=0, note=62, velocity=87, time=28),\n",
      "  Message('note_on', channel=0, note=52, velocity=87, time=0),\n",
      "  Message('note_on', channel=0, note=62, velocity=0, time=20),\n",
      "  Message('note_on', channel=0, note=52, velocity=0, time=0),\n",
      "  Message('note_on', channel=0, note=59, velocity=87, time=28),\n",
      "  Message('note_on', channel=0, note=52, velocity=87, time=0),\n",
      "  Message('note_on', channel=0, note=59, velocity=0, time=20),\n",
      "  Message('note_on', channel=0, note=52, velocity=0, time=0),\n",
      "  Message('note_on', channel=0, note=59, velocity=87, time=28),\n",
      "  Message('note_on', channel=0, note=52, velocity=87, time=0),\n",
      "  Message('note_on', channel=0, note=59, velocity=0, time=20),\n",
      "  Message('note_on', channel=0, note=52, velocity=0, time=0),\n",
      "  Message('note_on', channel=0, note=57, velocity=87, time=28),\n",
      "  Message('note_on', channel=0, note=57, velocity=0, time=20),\n",
      "  Message('note_on', channel=0, note=52, velocity=87, time=28),\n",
      "  Message('note_on', channel=0, note=52, velocity=0, time=20),\n",
      "  Message('note_on', channel=0, note=49, velocity=87, time=28),\n",
      "  Message('note_on', channel=0, note=49, velocity=0, time=20),\n",
      "  Message('note_on', channel=0, note=52, velocity=87, time=28),\n",
      "  Message('note_on', channel=0, note=52, velocity=0, time=20),\n",
      "  Message('note_on', channel=0, note=45, velocity=87, time=28),\n",
      "  Message('note_on', channel=0, note=45, velocity=0, time=89),\n",
      "  Message('note_on', channel=0, note=57, velocity=87, time=3559),\n",
      "  Message('note_on', channel=0, note=57, velocity=0, time=45),\n",
      "  Message('note_on', channel=0, note=56, velocity=87, time=3),\n",
      "  Message('note_on', channel=0, note=56, velocity=0, time=45),\n",
      "  Message('note_on', channel=0, note=54, velocity=87, time=3),\n",
      "  Message('note_on', channel=0, note=54, velocity=0, time=45),\n",
      "  Message('note_on', channel=0, note=52, velocity=87, time=3),\n",
      "  Message('note_on', channel=0, note=52, velocity=0, time=45),\n",
      "  Message('note_on', channel=0, note=57, velocity=73, time=3),\n",
      "  Message('note_on', channel=0, note=57, velocity=0, time=39),\n",
      "  Message('note_on', channel=0, note=59, velocity=74, time=57),\n",
      "  Message('note_on', channel=0, note=59, velocity=0, time=39),\n",
      "  Message('note_on', channel=0, note=61, velocity=91, time=57),\n",
      "  Message('note_on', channel=0, note=61, velocity=0, time=237),\n",
      "  Message('note_on', channel=0, note=64, velocity=76, time=3),\n",
      "  Message('note_on', channel=0, note=64, velocity=0, time=45),\n",
      "  Message('note_on', channel=0, note=62, velocity=75, time=3),\n",
      "  Message('note_on', channel=0, note=62, velocity=0, time=45),\n",
      "  Message('note_on', channel=0, note=59, velocity=74, time=3),\n",
      "  Message('note_on', channel=0, note=59, velocity=0, time=45),\n",
      "  Message('note_on', channel=0, note=57, velocity=73, time=3),\n",
      "  Message('note_on', channel=0, note=57, velocity=0, time=45),\n",
      "  Message('note_on', channel=0, note=56, velocity=73, time=3),\n",
      "  Message('note_on', channel=0, note=56, velocity=0, time=45),\n",
      "  Message('note_on', channel=0, note=54, velocity=73, time=3),\n",
      "  Message('note_on', channel=0, note=54, velocity=0, time=45),\n",
      "  Message('note_on', channel=0, note=52, velocity=73, time=3),\n",
      "  Message('note_on', channel=0, note=52, velocity=0, time=45),\n",
      "  Message('note_on', channel=0, note=57, velocity=73, time=3),\n",
      "  Message('note_on', channel=0, note=57, velocity=0, time=39),\n",
      "  Message('note_on', channel=0, note=59, velocity=74, time=57),\n",
      "  Message('note_on', channel=0, note=59, velocity=0, time=39),\n",
      "  Message('note_on', channel=0, note=62, velocity=91, time=57),\n",
      "  Message('note_on', channel=0, note=62, velocity=0, time=192),\n",
      "  Message('note_on', channel=0, note=61, velocity=78, time=0),\n",
      "  Message('note_on', channel=0, note=61, velocity=0, time=67),\n",
      "  Message('note_on', channel=0, note=62, velocity=76, time=5),\n",
      "  Message('note_on', channel=0, note=62, velocity=0, time=23),\n",
      "  Message('note_on', channel=0, note=59, velocity=75, time=1),\n",
      "  Message('note_on', channel=0, note=59, velocity=0, time=67),\n",
      "  Message('note_on', channel=0, note=61, velocity=73, time=5),\n",
      "  Message('note_on', channel=0, note=61, velocity=0, time=23),\n",
      "  Message('note_on', channel=0, note=57, velocity=73, time=1),\n",
      "  Message('note_on', channel=0, note=57, velocity=0, time=45),\n",
      "  Message('note_on', channel=0, note=56, velocity=73, time=3),\n",
      "  Message('note_on', channel=0, note=56, velocity=0, time=45),\n",
      "  Message('note_on', channel=0, note=54, velocity=73, time=3),\n",
      "  Message('note_on', channel=0, note=54, velocity=0, time=12),\n",
      "  Message('note_on', channel=0, note=55, velocity=73, time=0),\n",
      "  Message('note_on', channel=0, note=55, velocity=0, time=12),\n",
      "  Message('note_on', channel=0, note=54, velocity=73, time=0),\n",
      "  Message('note_on', channel=0, note=54, velocity=0, time=21),\n",
      "  Message('note_on', channel=0, note=52, velocity=73, time=3),\n",
      "  Message('note_on', channel=0, note=52, velocity=0, time=45),\n",
      "  Message('note_on', channel=0, note=57, velocity=73, time=3),\n",
      "  Message('note_on', channel=0, note=57, velocity=0, time=39),\n",
      "  Message('note_on', channel=0, note=56, velocity=73, time=57),\n",
      "  Message('note_on', channel=0, note=53, velocity=73, time=0),\n",
      "  Message('note_on', channel=0, note=56, velocity=0, time=39),\n",
      "  Message('note_on', channel=0, note=53, velocity=0, time=0),\n",
      "  Message('note_on', channel=0, note=57, velocity=73, time=57),\n",
      "  Message('note_on', channel=0, note=54, velocity=73, time=0),\n",
      "  Message('note_on', channel=0, note=57, velocity=0, time=89),\n",
      "  Message('note_on', channel=0, note=54, velocity=0, time=0),\n",
      "  Message('note_on', channel=0, note=72, velocity=82, time=7),\n",
      "  Message('note_on', channel=0, note=72, velocity=0, time=89),\n",
      "  Message('note_on', channel=0, note=73, velocity=81, time=7),\n",
      "  Message('note_on', channel=0, note=73, velocity=0, time=89),\n",
      "  Message('note_on', channel=0, note=74, velocity=80, time=7),\n",
      "  Message('note_on', channel=0, note=74, velocity=0, time=89),\n",
      "  Message('note_on', channel=0, note=73, velocity=79, time=7),\n",
      "  Message('note_on', channel=0, note=73, velocity=0, time=89),\n",
      "  Message('note_on', channel=0, note=33, velocity=73, time=295),\n",
      "  Message('note_on', channel=0, note=33, velocity=0, time=45),\n",
      "  Message('note_on', channel=0, note=45, velocity=73, time=3),\n",
      "  Message('note_on', channel=0, note=45, velocity=0, time=45),\n",
      "  Message('note_on', channel=0, note=45, velocity=73, time=3),\n",
      "  Message('note_on', channel=0, note=45, velocity=0, time=45),\n",
      "  Message('note_on', channel=0, note=45, velocity=73, time=3),\n",
      "  Message('note_on', channel=0, note=45, velocity=0, time=45),\n",
      "  Message('note_on', channel=0, note=45, velocity=74, time=3),\n",
      "  Message('note_on', channel=0, note=45, velocity=0, time=45),\n",
      "  Message('note_on', channel=0, note=45, velocity=74, time=3),\n",
      "  Message('note_on', channel=0, note=45, velocity=0, time=45),\n",
      "  Message('note_on', channel=0, note=45, velocity=74, time=3),\n",
      "  Message('note_on', channel=0, note=45, velocity=0, time=45),\n",
      "  Message('note_on', channel=0, note=45, velocity=75, time=3),\n",
      "  Message('note_on', channel=0, note=45, velocity=0, time=45),\n",
      "  Message('note_on', channel=0, note=45, velocity=75, time=3),\n",
      "  Message('note_on', channel=0, note=45, velocity=0, time=89),\n",
      "  Message('note_on', channel=0, note=33, velocity=78, time=295),\n",
      "  Message('note_on', channel=0, note=33, velocity=0, time=45),\n",
      "  Message('note_on', channel=0, note=45, velocity=78, time=3),\n",
      "  Message('note_on', channel=0, note=45, velocity=0, time=45),\n",
      "  Message('note_on', channel=0, note=45, velocity=79, time=3),\n",
      "  Message('note_on', channel=0, note=45, velocity=0, time=45),\n",
      "  Message('note_on', channel=0, note=45, velocity=79, time=3),\n",
      "  Message('note_on', channel=0, note=45, velocity=0, time=45),\n",
      "  Message('note_on', channel=0, note=45, velocity=79, time=3),\n",
      "  Message('note_on', channel=0, note=45, velocity=0, time=45),\n",
      "  Message('note_on', channel=0, note=45, velocity=80, time=3),\n",
      "  Message('note_on', channel=0, note=45, velocity=0, time=45),\n",
      "  Message('note_on', channel=0, note=45, velocity=80, time=3),\n",
      "  Message('note_on', channel=0, note=45, velocity=0, time=45),\n",
      "  Message('note_on', channel=0, note=45, velocity=80, time=3),\n",
      "  Message('note_on', channel=0, note=45, velocity=0, time=45),\n",
      "  Message('note_on', channel=0, note=45, velocity=81, time=3),\n",
      "  Message('note_on', channel=0, note=45, velocity=0, time=89),\n",
      "  Message('note_on', channel=0, note=62, velocity=84, time=295),\n",
      "  Message('note_on', channel=0, note=62, velocity=0, time=23),\n",
      "  Message('note_on', channel=0, note=61, velocity=84, time=1),\n",
      "  Message('note_on', channel=0, note=61, velocity=0, time=23),\n",
      "  Message('note_on', channel=0, note=62, velocity=84, time=1),\n",
      "  Message('note_on', channel=0, note=62, velocity=0, time=23),\n",
      "  Message('note_on', channel=0, note=61, velocity=84, time=1),\n",
      "  Message('note_on', channel=0, note=61, velocity=0, time=23),\n",
      "  Message('note_on', channel=0, note=62, velocity=84, time=1),\n",
      "  Message('note_on', channel=0, note=62, velocity=0, time=23),\n",
      "  Message('note_on', channel=0, note=61, velocity=85, time=1),\n",
      "  Message('note_on', channel=0, note=61, velocity=0, time=23),\n",
      "  Message('note_on', channel=0, note=62, velocity=85, time=1),\n",
      "  Message('note_on', channel=0, note=62, velocity=0, time=23),\n",
      "  Message('note_on', channel=0, note=61, velocity=85, time=1),\n",
      "  Message('note_on', channel=0, note=61, velocity=0, time=23),\n",
      "  Message('note_on', channel=0, note=62, velocity=85, time=1),\n",
      "  Message('note_on', channel=0, note=62, velocity=0, time=23),\n",
      "  Message('note_on', channel=0, note=64, velocity=85, time=1),\n",
      "  Message('note_on', channel=0, note=64, velocity=0, time=23),\n",
      "  Message('note_on', channel=0, note=66, velocity=85, time=1),\n",
      "  Message('note_on', channel=0, note=66, velocity=0, time=23),\n",
      "  Message('note_on', channel=0, note=67, velocity=86, time=1),\n",
      "  Message('note_on', channel=0, note=67, velocity=0, time=23),\n",
      "  Message('note_on', channel=0, note=69, velocity=86, time=1),\n",
      "  Message('note_on', channel=0, note=69, velocity=0, time=23),\n",
      "  Message('note_on', channel=0, note=71, velocity=86, time=1),\n",
      "  Message('note_on', channel=0, note=71, velocity=0, time=23),\n",
      "  Message('note_on', channel=0, note=73, velocity=86, time=1),\n",
      "  Message('note_on', channel=0, note=73, velocity=0, time=23),\n",
      "  Message('note_on', channel=0, note=74, velocity=86, time=1),\n",
      "  Message('note_on', channel=0, note=74, velocity=0, time=23),\n",
      "  Message('note_on', channel=0, note=59, velocity=87, time=1),\n",
      "  Message('note_on', channel=0, note=59, velocity=0, time=23),\n",
      "  Message('note_on', channel=0, note=58, velocity=87, time=1),\n",
      "  Message('note_on', channel=0, note=58, velocity=0, time=23),\n",
      "  Message('note_on', channel=0, note=59, velocity=87, time=1),\n",
      "  Message('note_on', channel=0, note=59, velocity=0, time=23),\n",
      "  Message('note_on', channel=0, note=58, velocity=87, time=1),\n",
      "  Message('note_on', channel=0, note=58, velocity=0, time=23),\n",
      "  Message('note_on', channel=0, note=59, velocity=87, time=1),\n",
      "  Message('note_on', channel=0, note=59, velocity=0, time=23),\n",
      "  Message('note_on', channel=0, note=58, velocity=87, time=1),\n",
      "  Message('note_on', channel=0, note=58, velocity=0, time=23),\n",
      "  Message('note_on', channel=0, note=59, velocity=87, time=1),\n",
      "  Message('note_on', channel=0, note=59, velocity=0, time=23),\n",
      "  Message('note_on', channel=0, note=58, velocity=87, time=1),\n",
      "  Message('note_on', channel=0, note=58, velocity=0, time=23),\n",
      "  Message('note_on', channel=0, note=59, velocity=87, time=1),\n",
      "  Message('note_on', channel=0, note=59, velocity=0, time=23),\n",
      "  Message('note_on', channel=0, note=61, velocity=87, time=1),\n",
      "  Message('note_on', channel=0, note=61, velocity=0, time=23),\n",
      "  Message('note_on', channel=0, note=62, velocity=87, time=1),\n",
      "  Message('note_on', channel=0, note=62, velocity=0, time=23),\n",
      "  Message('note_on', channel=0, note=64, velocity=87, time=1),\n",
      "  Message('note_on', channel=0, note=64, velocity=0, time=23),\n",
      "  Message('note_on', channel=0, note=66, velocity=87, time=1),\n",
      "  Message('note_on', channel=0, note=66, velocity=0, time=23),\n",
      "  Message('note_on', channel=0, note=68, velocity=87, time=1),\n",
      "  Message('note_on', channel=0, note=68, velocity=0, time=23),\n",
      "  Message('note_on', channel=0, note=69, velocity=87, time=1),\n",
      "  Message('note_on', channel=0, note=69, velocity=0, time=23),\n",
      "  Message('note_on', channel=0, note=71, velocity=87, time=1),\n",
      "  Message('note_on', channel=0, note=71, velocity=0, time=23),\n",
      "  Message('note_on', channel=0, note=61, velocity=87, time=1),\n",
      "  Message('note_on', channel=0, note=61, velocity=0, time=23),\n",
      "  Message('note_on', channel=0, note=60, velocity=87, time=1),\n",
      "  Message('note_on', channel=0, note=60, velocity=0, time=23),\n",
      "  Message('note_on', channel=0, note=61, velocity=87, time=1),\n",
      "  Message('note_on', channel=0, note=61, velocity=0, time=23),\n",
      "  Message('note_on', channel=0, note=60, velocity=87, time=1),\n",
      "  Message('note_on', channel=0, note=60, velocity=0, time=23),\n",
      "  Message('note_on', channel=0, note=61, velocity=87, time=1),\n",
      "  Message('note_on', channel=0, note=61, velocity=0, time=23),\n",
      "  Message('note_on', channel=0, note=60, velocity=87, time=1),\n",
      "  Message('note_on', channel=0, note=60, velocity=0, time=23),\n",
      "  Message('note_on', channel=0, note=61, velocity=87, time=1),\n",
      "  Message('note_on', channel=0, note=61, velocity=0, time=23),\n",
      "  Message('note_on', channel=0, note=60, velocity=87, time=1),\n",
      "  Message('note_on', channel=0, note=60, velocity=0, time=23),\n",
      "  Message('note_on', channel=0, note=61, velocity=87, time=1),\n",
      "  Message('note_on', channel=0, note=61, velocity=0, time=23),\n",
      "  Message('note_on', channel=0, note=62, velocity=87, time=1),\n",
      "  Message('note_on', channel=0, note=62, velocity=0, time=23),\n",
      "  Message('note_on', channel=0, note=64, velocity=87, time=1),\n",
      "  Message('note_on', channel=0, note=64, velocity=0, time=23),\n",
      "  Message('note_on', channel=0, note=66, velocity=87, time=1),\n",
      "  Message('note_on', channel=0, note=66, velocity=0, time=23),\n",
      "  Message('note_on', channel=0, note=68, velocity=87, time=1),\n",
      "  Message('note_on', channel=0, note=68, velocity=0, time=23),\n",
      "  Message('note_on', channel=0, note=69, velocity=87, time=1),\n",
      "  Message('note_on', channel=0, note=69, velocity=0, time=23),\n",
      "  Message('note_on', channel=0, note=71, velocity=87, time=1),\n",
      "  Message('note_on', channel=0, note=71, velocity=0, time=23),\n",
      "  Message('note_on', channel=0, note=73, velocity=87, time=1),\n",
      "  Message('note_on', channel=0, note=73, velocity=0, time=23),\n",
      "  Message('note_on', channel=0, note=57, velocity=87, time=1),\n",
      "  Message('note_on', channel=0, note=57, velocity=0, time=23),\n",
      "  Message('note_on', channel=0, note=56, velocity=87, time=1),\n",
      "  Message('note_on', channel=0, note=56, velocity=0, time=23),\n",
      "  Message('note_on', channel=0, note=57, velocity=87, time=1),\n",
      "  Message('note_on', channel=0, note=57, velocity=0, time=23),\n",
      "  Message('note_on', channel=0, note=56, velocity=87, time=1),\n",
      "  Message('note_on', channel=0, note=56, velocity=0, time=23),\n",
      "  Message('note_on', channel=0, note=57, velocity=87, time=1),\n",
      "  Message('note_on', channel=0, note=57, velocity=0, time=23),\n",
      "  Message('note_on', channel=0, note=56, velocity=87, time=1),\n",
      "  Message('note_on', channel=0, note=56, velocity=0, time=23),\n",
      "  Message('note_on', channel=0, note=57, velocity=87, time=1),\n",
      "  Message('note_on', channel=0, note=57, velocity=0, time=23),\n",
      "  Message('note_on', channel=0, note=56, velocity=87, time=1),\n",
      "  Message('note_on', channel=0, note=56, velocity=0, time=23),\n",
      "  Message('note_on', channel=0, note=57, velocity=87, time=1),\n",
      "  Message('note_on', channel=0, note=57, velocity=0, time=23),\n",
      "  Message('note_on', channel=0, note=59, velocity=87, time=1),\n",
      "  Message('note_on', channel=0, note=59, velocity=0, time=23),\n",
      "  Message('note_on', channel=0, note=61, velocity=87, time=1),\n",
      "  Message('note_on', channel=0, note=61, velocity=0, time=23),\n",
      "  Message('note_on', channel=0, note=62, velocity=87, time=1),\n",
      "  Message('note_on', channel=0, note=62, velocity=0, time=23),\n",
      "  Message('note_on', channel=0, note=64, velocity=87, time=1),\n",
      "  Message('note_on', channel=0, note=64, velocity=0, time=23),\n",
      "  Message('note_on', channel=0, note=66, velocity=87, time=1),\n",
      "  Message('note_on', channel=0, note=66, velocity=0, time=23),\n",
      "  Message('note_on', channel=0, note=68, velocity=87, time=1),\n",
      "  Message('note_on', channel=0, note=68, velocity=0, time=23),\n",
      "  Message('note_on', channel=0, note=69, velocity=87, time=1),\n",
      "  Message('note_on', channel=0, note=69, velocity=0, time=23),\n",
      "  Message('note_on', channel=0, note=54, velocity=87, time=1),\n",
      "  Message('note_on', channel=0, note=54, velocity=0, time=23),\n",
      "  Message('note_on', channel=0, note=53, velocity=87, time=1),\n",
      "  Message('note_on', channel=0, note=53, velocity=0, time=23),\n",
      "  Message('note_on', channel=0, note=54, velocity=87, time=1),\n",
      "  Message('note_on', channel=0, note=54, velocity=0, time=23),\n",
      "  Message('note_on', channel=0, note=53, velocity=87, time=1),\n",
      "  Message('note_on', channel=0, note=53, velocity=0, time=23),\n",
      "  Message('note_on', channel=0, note=54, velocity=87, time=1),\n",
      "  Message('note_on', channel=0, note=54, velocity=0, time=23),\n",
      "  Message('note_on', channel=0, note=53, velocity=87, time=1),\n",
      "  Message('note_on', channel=0, note=53, velocity=0, time=23),\n",
      "  Message('note_on', channel=0, note=54, velocity=87, time=1),\n",
      "  Message('note_on', channel=0, note=54, velocity=0, time=23),\n",
      "  Message('note_on', channel=0, note=53, velocity=87, time=1),\n",
      "  Message('note_on', channel=0, note=53, velocity=0, time=23),\n",
      "  Message('note_on', channel=0, note=54, velocity=87, time=1),\n",
      "  Message('note_on', channel=0, note=54, velocity=0, time=23),\n",
      "  Message('note_on', channel=0, note=56, velocity=87, time=1),\n",
      "  Message('note_on', channel=0, note=56, velocity=0, time=23),\n",
      "  Message('note_on', channel=0, note=57, velocity=87, time=1),\n",
      "  Message('note_on', channel=0, note=57, velocity=0, time=23),\n",
      "  Message('note_on', channel=0, note=59, velocity=87, time=1),\n",
      "  Message('note_on', channel=0, note=59, velocity=0, time=23),\n",
      "  Message('note_on', channel=0, note=61, velocity=87, time=1),\n",
      "  Message('note_on', channel=0, note=61, velocity=0, time=23),\n",
      "  Message('note_on', channel=0, note=62, velocity=87, time=1),\n",
      "  Message('note_on', channel=0, note=62, velocity=0, time=23),\n",
      "  Message('note_on', channel=0, note=64, velocity=87, time=1),\n",
      "  Message('note_on', channel=0, note=64, velocity=0, time=23),\n",
      "  Message('note_on', channel=0, note=66, velocity=87, time=1),\n",
      "  Message('note_on', channel=0, note=66, velocity=0, time=23),\n",
      "  Message('note_on', channel=0, note=50, velocity=87, time=1),\n",
      "  Message('note_on', channel=0, note=50, velocity=0, time=23),\n",
      "  Message('note_on', channel=0, note=49, velocity=87, time=1),\n",
      "  Message('note_on', channel=0, note=49, velocity=0, time=23),\n",
      "  Message('note_on', channel=0, note=50, velocity=87, time=1),\n",
      "  Message('note_on', channel=0, note=50, velocity=0, time=23),\n",
      "  Message('note_on', channel=0, note=49, velocity=87, time=1),\n",
      "  Message('note_on', channel=0, note=49, velocity=0, time=23),\n",
      "  Message('note_on', channel=0, note=50, velocity=87, time=1),\n",
      "  Message('note_on', channel=0, note=50, velocity=0, time=23),\n",
      "  Message('note_on', channel=0, note=49, velocity=87, time=1),\n",
      "  Message('note_on', channel=0, note=49, velocity=0, time=23),\n",
      "  Message('note_on', channel=0, note=50, velocity=87, time=1),\n",
      "  Message('note_on', channel=0, note=50, velocity=0, time=23),\n",
      "  Message('note_on', channel=0, note=49, velocity=87, time=1),\n",
      "  Message('note_on', channel=0, note=49, velocity=0, time=23),\n",
      "  Message('note_on', channel=0, note=50, velocity=87, time=1),\n",
      "  Message('note_on', channel=0, note=50, velocity=0, time=23),\n",
      "  Message('note_on', channel=0, note=52, velocity=87, time=1),\n",
      "  Message('note_on', channel=0, note=52, velocity=0, time=23),\n",
      "  Message('note_on', channel=0, note=54, velocity=87, time=1),\n",
      "  Message('note_on', channel=0, note=54, velocity=0, time=23),\n",
      "  Message('note_on', channel=0, note=56, velocity=87, time=1),\n",
      "  Message('note_on', channel=0, note=56, velocity=0, time=23),\n",
      "  Message('note_on', channel=0, note=57, velocity=87, time=1),\n",
      "  Message('note_on', channel=0, note=57, velocity=0, time=23),\n",
      "  Message('note_on', channel=0, note=59, velocity=87, time=1),\n",
      "  Message('note_on', channel=0, note=59, velocity=0, time=23),\n",
      "  Message('note_on', channel=0, note=61, velocity=87, time=1),\n",
      "  Message('note_on', channel=0, note=61, velocity=0, time=23),\n",
      "  Message('note_on', channel=0, note=62, velocity=87, time=1),\n",
      "  Message('note_on', channel=0, note=62, velocity=0, time=23),\n",
      "  Message('note_on', channel=0, note=56, velocity=87, time=1),\n",
      "  Message('note_on', channel=0, note=56, velocity=0, time=23),\n",
      "  Message('note_on', channel=0, note=57, velocity=87, time=1),\n",
      "  Message('note_on', channel=0, note=57, velocity=0, time=23),\n",
      "  Message('note_on', channel=0, note=59, velocity=87, time=1),\n",
      "  Message('note_on', channel=0, note=59, velocity=0, time=23),\n",
      "  Message('note_on', channel=0, note=57, velocity=87, time=1),\n",
      "  Message('note_on', channel=0, note=57, velocity=0, time=23),\n",
      "  Message('note_on', channel=0, note=56, velocity=87, time=1),\n",
      "  Message('note_on', channel=0, note=56, velocity=0, time=23),\n",
      "  Message('note_on', channel=0, note=52, velocity=87, time=1),\n",
      "  Message('note_on', channel=0, note=52, velocity=0, time=23),\n",
      "  Message('note_on', channel=0, note=54, velocity=87, time=1),\n",
      "  Message('note_on', channel=0, note=54, velocity=0, time=23),\n",
      "  Message('note_on', channel=0, note=56, velocity=87, time=1),\n",
      "  Message('note_on', channel=0, note=56, velocity=0, time=23),\n",
      "  Message('note_on', channel=0, note=57, velocity=87, time=1),\n",
      "  Message('note_on', channel=0, note=57, velocity=0, time=23),\n",
      "  Message('note_on', channel=0, note=59, velocity=87, time=1),\n",
      "  Message('note_on', channel=0, note=59, velocity=0, time=23),\n",
      "  Message('note_on', channel=0, note=61, velocity=87, time=1),\n",
      "  Message('note_on', channel=0, note=61, velocity=0, time=23),\n",
      "  Message('note_on', channel=0, note=59, velocity=87, time=1),\n",
      "  Message('note_on', channel=0, note=59, velocity=0, time=23),\n",
      "  Message('note_on', channel=0, note=61, velocity=87, time=1),\n",
      "  Message('note_on', channel=0, note=61, velocity=0, time=23),\n",
      "  Message('note_on', channel=0, note=59, velocity=87, time=1),\n",
      "  Message('note_on', channel=0, note=59, velocity=0, time=23),\n",
      "  Message('note_on', channel=0, note=57, velocity=87, time=1),\n",
      "  Message('note_on', channel=0, note=57, velocity=0, time=23),\n",
      "  Message('note_on', channel=0, note=56, velocity=87, time=1),\n",
      "  Message('note_on', channel=0, note=56, velocity=0, time=23),\n",
      "  Message('note_on', channel=0, note=54, velocity=87, time=1),\n",
      "  Message('note_on', channel=0, note=54, velocity=0, time=23),\n",
      "  Message('note_on', channel=0, note=56, velocity=87, time=1),\n",
      "  Message('note_on', channel=0, note=56, velocity=0, time=23),\n",
      "  Message('note_on', channel=0, note=57, velocity=87, time=1),\n",
      "  Message('note_on', channel=0, note=57, velocity=0, time=23),\n",
      "  Message('note_on', channel=0, note=56, velocity=87, time=1),\n",
      "  Message('note_on', channel=0, note=56, velocity=0, time=23),\n",
      "  Message('note_on', channel=0, note=54, velocity=87, time=1),\n",
      "  Message('note_on', channel=0, note=54, velocity=0, time=23),\n",
      "  Message('note_on', channel=0, note=50, velocity=87, time=1),\n",
      "  Message('note_on', channel=0, note=50, velocity=0, time=23),\n",
      "  Message('note_on', channel=0, note=52, velocity=87, time=1),\n",
      "  Message('note_on', channel=0, note=52, velocity=0, time=23),\n",
      "  Message('note_on', channel=0, note=54, velocity=87, time=1),\n",
      "  Message('note_on', channel=0, note=54, velocity=0, time=23),\n",
      "  Message('note_on', channel=0, note=56, velocity=87, time=1),\n",
      "  Message('note_on', channel=0, note=56, velocity=0, time=23),\n",
      "  Message('note_on', channel=0, note=57, velocity=87, time=1),\n",
      "  Message('note_on', channel=0, note=57, velocity=0, time=23),\n",
      "  Message('note_on', channel=0, note=59, velocity=87, time=1),\n",
      "  Message('note_on', channel=0, note=59, velocity=0, time=23),\n",
      "  Message('note_on', channel=0, note=57, velocity=87, time=1),\n",
      "  Message('note_on', channel=0, note=57, velocity=0, time=23),\n",
      "  Message('note_on', channel=0, note=56, velocity=87, time=1),\n",
      "  Message('note_on', channel=0, note=56, velocity=0, time=23),\n",
      "  Message('note_on', channel=0, note=54, velocity=87, time=1),\n",
      "  Message('note_on', channel=0, note=54, velocity=0, time=23),\n",
      "  Message('note_on', channel=0, note=52, velocity=87, time=1),\n",
      "  Message('note_on', channel=0, note=52, velocity=0, time=23),\n",
      "  Message('note_on', channel=0, note=50, velocity=87, time=1),\n",
      "  Message('note_on', channel=0, note=50, velocity=0, time=23),\n",
      "  Message('note_on', channel=0, note=49, velocity=87, time=1),\n",
      "  Message('note_on', channel=0, note=49, velocity=0, time=23),\n",
      "  Message('note_on', channel=0, note=52, velocity=87, time=1),\n",
      "  Message('note_on', channel=0, note=52, velocity=0, time=23),\n",
      "  Message('note_on', channel=0, note=50, velocity=87, time=1),\n",
      "  Message('note_on', channel=0, note=50, velocity=0, time=23),\n",
      "  Message('note_on', channel=0, note=49, velocity=87, time=1),\n",
      "  Message('note_on', channel=0, note=49, velocity=0, time=23),\n",
      "  Message('note_on', channel=0, note=50, velocity=87, time=1),\n",
      "  Message('note_on', channel=0, note=50, velocity=0, time=23),\n",
      "  Message('note_on', channel=0, note=52, velocity=87, time=1),\n",
      "  Message('note_on', channel=0, note=52, velocity=0, time=23),\n",
      "  Message('note_on', channel=0, note=54, velocity=87, time=1),\n",
      "  Message('note_on', channel=0, note=54, velocity=0, time=23),\n",
      "  Message('note_on', channel=0, note=56, velocity=87, time=1),\n",
      "  Message('note_on', channel=0, note=56, velocity=0, time=23),\n",
      "  Message('note_on', channel=0, note=57, velocity=87, time=1),\n",
      "  Message('note_on', channel=0, note=57, velocity=0, time=23),\n",
      "  Message('note_on', channel=0, note=59, velocity=87, time=1),\n",
      "  Message('note_on', channel=0, note=59, velocity=0, time=23),\n",
      "  Message('note_on', channel=0, note=61, velocity=87, time=1),\n",
      "  Message('note_on', channel=0, note=61, velocity=0, time=23),\n",
      "  Message('note_on', channel=0, note=62, velocity=87, time=1),\n",
      "  Message('note_on', channel=0, note=62, velocity=0, time=23),\n",
      "  Message('note_on', channel=0, note=64, velocity=87, time=1),\n",
      "  Message('note_on', channel=0, note=64, velocity=0, time=23),\n",
      "  Message('note_on', channel=0, note=66, velocity=87, time=1),\n",
      "  Message('note_on', channel=0, note=66, velocity=0, time=23),\n",
      "  Message('note_on', channel=0, note=68, velocity=87, time=1),\n",
      "  Message('note_on', channel=0, note=68, velocity=0, time=23),\n",
      "  Message('note_on', channel=0, note=69, velocity=87, time=1),\n",
      "  Message('note_on', channel=0, note=69, velocity=0, time=23),\n",
      "  Message('note_on', channel=0, note=66, velocity=87, time=1),\n",
      "  Message('note_on', channel=0, note=66, velocity=0, time=23),\n",
      "  Message('note_on', channel=0, note=68, velocity=87, time=1),\n",
      "  Message('note_on', channel=0, note=68, velocity=0, time=23),\n",
      "  Message('note_on', channel=0, note=66, velocity=87, time=1),\n",
      "  Message('note_on', channel=0, note=66, velocity=0, time=23),\n",
      "  Message('note_on', channel=0, note=64, velocity=87, time=1),\n",
      "  Message('note_on', channel=0, note=64, velocity=0, time=23),\n",
      "  Message('note_on', channel=0, note=62, velocity=87, time=1),\n",
      "  Message('note_on', channel=0, note=62, velocity=0, time=23),\n",
      "  Message('note_on', channel=0, note=61, velocity=87, time=1),\n",
      "  Message('note_on', channel=0, note=61, velocity=0, time=23),\n",
      "  Message('note_on', channel=0, note=59, velocity=87, time=1),\n",
      "  Message('note_on', channel=0, note=59, velocity=0, time=23),\n",
      "  Message('note_on', channel=0, note=57, velocity=87, time=1),\n",
      "  Message('note_on', channel=0, note=57, velocity=0, time=23),\n",
      "  Message('note_on', channel=0, note=56, velocity=87, time=1),\n",
      "  Message('note_on', channel=0, note=56, velocity=0, time=23),\n",
      "  Message('note_on', channel=0, note=57, velocity=87, time=1),\n",
      "  Message('note_on', channel=0, note=57, velocity=0, time=23),\n",
      "  Message('note_on', channel=0, note=56, velocity=87, time=1),\n",
      "  Message('note_on', channel=0, note=56, velocity=0, time=23),\n",
      "  Message('note_on', channel=0, note=54, velocity=87, time=1),\n",
      "  Message('note_on', channel=0, note=54, velocity=0, time=23),\n",
      "  Message('note_on', channel=0, note=52, velocity=87, time=1),\n",
      "  Message('note_on', channel=0, note=52, velocity=0, time=23),\n",
      "  Message('note_on', channel=0, note=50, velocity=87, time=1),\n",
      "  Message('note_on', channel=0, note=50, velocity=0, time=23),\n",
      "  Message('note_on', channel=0, note=49, velocity=87, time=1),\n",
      "  Message('note_on', channel=0, note=49, velocity=0, time=23),\n",
      "  Message('note_on', channel=0, note=47, velocity=87, time=1),\n",
      "  Message('note_on', channel=0, note=47, velocity=0, time=23),\n",
      "  Message('note_on', channel=0, note=45, velocity=87, time=1),\n",
      "  Message('note_on', channel=0, note=45, velocity=0, time=89),\n",
      "  Message('note_on', channel=0, note=61, velocity=73, time=199),\n",
      "  Message('note_on', channel=0, note=49, velocity=73, time=0),\n",
      "  Message('note_on', channel=0, note=61, velocity=0, time=20),\n",
      "  Message('note_on', channel=0, note=49, velocity=0, time=0),\n",
      "  Message('note_on', channel=0, note=59, velocity=73, time=28),\n",
      "  Message('note_on', channel=0, note=47, velocity=73, time=0),\n",
      "  Message('note_on', channel=0, note=59, velocity=0, time=20),\n",
      "  Message('note_on', channel=0, note=47, velocity=0, time=0),\n",
      "  Message('note_on', channel=0, note=58, velocity=73, time=28),\n",
      "  Message('note_on', channel=0, note=46, velocity=73, time=0),\n",
      "  Message('note_on', channel=0, note=58, velocity=0, time=177),\n",
      "  Message('note_on', channel=0, note=46, velocity=0, time=0),\n",
      "  Message('note_on', channel=0, note=59, velocity=73, time=15),\n",
      "  Message('note_on', channel=0, note=47, velocity=73, time=0),\n",
      "  Message('note_on', channel=0, note=59, velocity=0, time=177),\n",
      "  Message('note_on', channel=0, note=47, velocity=0, time=0),\n",
      "  Message('note_on', channel=0, note=56, velocity=73, time=15),\n",
      "  Message('note_on', channel=0, note=44, velocity=73, time=0),\n",
      "  Message('note_on', channel=0, note=56, velocity=0, time=177),\n",
      "  Message('note_on', channel=0, note=44, velocity=0, time=0),\n",
      "  Message('note_on', channel=0, note=57, velocity=74, time=15),\n",
      "  Message('note_on', channel=0, note=45, velocity=74, time=0),\n",
      "  Message('note_on', channel=0, note=57, velocity=0, time=177),\n",
      "  Message('note_on', channel=0, note=45, velocity=0, time=0),\n",
      "  Message('note_on', channel=0, note=54, velocity=75, time=15),\n",
      "  Message('note_on', channel=0, note=42, velocity=75, time=0),\n",
      "  Message('note_on', channel=0, note=54, velocity=0, time=177),\n",
      "  Message('note_on', channel=0, note=42, velocity=0, time=0),\n",
      "  Message('note_on', channel=0, note=56, velocity=77, time=15),\n",
      "  Message('note_on', channel=0, note=44, velocity=77, time=0),\n",
      "  Message('note_on', channel=0, note=56, velocity=0, time=177),\n",
      "  Message('note_on', channel=0, note=44, velocity=0, time=0),\n",
      "  Message('note_on', channel=0, note=53, velocity=78, time=15),\n",
      "  Message('note_on', channel=0, note=41, velocity=78, time=0),\n",
      "  Message('note_on', channel=0, note=53, velocity=0, time=177),\n",
      "  Message('note_on', channel=0, note=41, velocity=0, time=0),\n",
      "  Message('note_on', channel=0, note=54, velocity=80, time=15),\n",
      "  Message('note_on', channel=0, note=42, velocity=80, time=0),\n",
      "  Message('note_on', channel=0, note=54, velocity=0, time=133),\n",
      "  Message('note_on', channel=0, note=42, velocity=0, time=0),\n",
      "  Message('note_on', channel=0, note=52, velocity=81, time=11),\n",
      "  Message('note_on', channel=0, note=40, velocity=81, time=0),\n",
      "  Message('note_on', channel=0, note=52, velocity=0, time=45),\n",
      "  Message('note_on', channel=0, note=40, velocity=0, time=0),\n",
      "  Message('note_on', channel=0, note=50, velocity=81, time=3),\n",
      "  Message('note_on', channel=0, note=38, velocity=81, time=0),\n",
      "  Message('note_on', channel=0, note=50, velocity=0, time=45),\n",
      "  Message('note_on', channel=0, note=38, velocity=0, time=0),\n",
      "  Message('note_on', channel=0, note=50, velocity=82, time=51),\n",
      "  Message('note_on', channel=0, note=38, velocity=82, time=0),\n",
      "  Message('note_on', channel=0, note=50, velocity=0, time=45),\n",
      "  Message('note_on', channel=0, note=38, velocity=0, time=0),\n",
      "  Message('note_on', channel=0, note=50, velocity=82, time=51),\n",
      "  Message('note_on', channel=0, note=38, velocity=82, time=0),\n",
      "  Message('note_on', channel=0, note=50, velocity=0, time=45),\n",
      "  Message('note_on', channel=0, note=38, velocity=0, time=0),\n",
      "  Message('note_on', channel=0, note=50, velocity=83, time=51),\n",
      "  Message('note_on', channel=0, note=38, velocity=83, time=0),\n",
      "  Message('note_on', channel=0, note=50, velocity=0, time=45),\n",
      "  Message('note_on', channel=0, note=38, velocity=0, time=0),\n",
      "  Message('note_on', channel=0, note=51, velocity=84, time=51),\n",
      "  Message('note_on', channel=0, note=39, velocity=84, time=0),\n",
      "  Message('note_on', channel=0, note=51, velocity=0, time=45),\n",
      "  Message('note_on', channel=0, note=39, velocity=0, time=0),\n",
      "  Message('note_on', channel=0, note=51, velocity=84, time=51),\n",
      "  Message('note_on', channel=0, note=39, velocity=84, time=0),\n",
      "  Message('note_on', channel=0, note=51, velocity=0, time=45),\n",
      "  Message('note_on', channel=0, note=39, velocity=0, time=0),\n",
      "  Message('note_on', channel=0, note=51, velocity=85, time=51),\n",
      "  Message('note_on', channel=0, note=39, velocity=85, time=0),\n",
      "  Message('note_on', channel=0, note=51, velocity=0, time=45),\n",
      "  Message('note_on', channel=0, note=39, velocity=0, time=0),\n",
      "  Message('note_on', channel=0, note=51, velocity=86, time=51),\n",
      "  Message('note_on', channel=0, note=39, velocity=86, time=0),\n",
      "  Message('note_on', channel=0, note=51, velocity=0, time=45),\n",
      "  Message('note_on', channel=0, note=39, velocity=0, time=0),\n",
      "  Message('note_on', channel=0, note=52, velocity=87, time=51),\n",
      "  Message('note_on', channel=0, note=52, velocity=0, time=89),\n",
      "  Message('note_on', channel=0, note=52, velocity=87, time=295),\n",
      "  Message('note_on', channel=0, note=52, velocity=0, time=23),\n",
      "  Message('note_on', channel=0, note=64, velocity=86, time=1),\n",
      "  Message('note_on', channel=0, note=64, velocity=0, time=23),\n",
      "  Message('note_on', channel=0, note=63, velocity=86, time=1),\n",
      "  Message('note_on', channel=0, note=63, velocity=0, time=23),\n",
      "  Message('note_on', channel=0, note=64, velocity=86, time=1),\n",
      "  Message('note_on', channel=0, note=64, velocity=0, time=23),\n",
      "  Message('note_on', channel=0, note=66, velocity=86, time=1),\n",
      "  Message('note_on', channel=0, note=66, velocity=0, time=23),\n",
      "  Message('note_on', channel=0, note=64, velocity=86, time=1),\n",
      "  Message('note_on', channel=0, note=64, velocity=0, time=23),\n",
      "  Message('note_on', channel=0, note=63, velocity=86, time=1),\n",
      "  Message('note_on', channel=0, note=63, velocity=0, time=23),\n",
      "  Message('note_on', channel=0, note=64, velocity=85, time=1),\n",
      "  Message('note_on', channel=0, note=64, velocity=0, time=23),\n",
      "  Message('note_on', channel=0, note=52, velocity=85, time=1),\n",
      "  Message('note_on', channel=0, note=52, velocity=0, time=23),\n",
      "  Message('note_on', channel=0, note=62, velocity=85, time=1),\n",
      "  Message('note_on', channel=0, note=62, velocity=0, time=23),\n",
      "  Message('note_on', channel=0, note=61, velocity=85, time=1),\n",
      "  Message('note_on', channel=0, note=61, velocity=0, time=23),\n",
      "  Message('note_on', channel=0, note=62, velocity=85, time=1),\n",
      "  Message('note_on', channel=0, note=62, velocity=0, time=23),\n",
      "  Message('note_on', channel=0, note=64, velocity=85, time=1),\n",
      "  Message('note_on', channel=0, note=64, velocity=0, time=23),\n",
      "  Message('note_on', channel=0, note=62, velocity=84, time=1),\n",
      "  Message('note_on', channel=0, note=62, velocity=0, time=23),\n",
      "  Message('note_on', channel=0, note=61, velocity=84, time=1),\n",
      "  Message('note_on', channel=0, note=61, velocity=0, time=23),\n",
      "  Message('note_on', channel=0, note=62, velocity=84, time=1),\n",
      "  Message('note_on', channel=0, note=62, velocity=0, time=23),\n",
      "  Message('note_on', channel=0, note=61, velocity=84, time=1),\n",
      "  Message('note_on', channel=0, note=57, velocity=84, time=0),\n",
      "  Message('note_on', channel=0, note=61, velocity=0, time=47),\n",
      "  Message('note_on', channel=0, note=57, velocity=0, time=0),\n",
      "  Message('note_on', channel=0, note=61, velocity=84, time=1),\n",
      "  Message('note_on', channel=0, note=57, velocity=84, time=0),\n",
      "  Message('note_on', channel=0, note=61, velocity=0, time=47),\n",
      "  Message('note_on', channel=0, note=57, velocity=0, time=0),\n",
      "  Message('note_on', channel=0, note=69, velocity=83, time=1),\n",
      "  Message('note_on', channel=0, note=57, velocity=83, time=0),\n",
      "  Message('note_on', channel=0, note=69, velocity=0, time=47),\n",
      "  Message('note_on', channel=0, note=57, velocity=0, time=0),\n",
      "  Message('note_on', channel=0, note=69, velocity=83, time=1),\n",
      "  Message('note_on', channel=0, note=57, velocity=83, time=0),\n",
      "  Message('note_on', channel=0, note=69, velocity=0, time=47),\n",
      "  Message('note_on', channel=0, note=57, velocity=0, time=0),\n",
      "  Message('note_on', channel=0, note=68, velocity=83, time=1),\n",
      "  Message('note_on', channel=0, note=59, velocity=83, time=0),\n",
      "  Message('note_on', channel=0, note=68, velocity=0, time=47),\n",
      "  Message('note_on', channel=0, note=59, velocity=0, time=0),\n",
      "  Message('note_on', channel=0, note=68, velocity=82, time=1),\n",
      "  Message('note_on', channel=0, note=59, velocity=82, time=0),\n",
      "  Message('note_on', channel=0, note=68, velocity=0, time=47),\n",
      "  Message('note_on', channel=0, note=59, velocity=0, time=0),\n",
      "  Message('note_on', channel=0, note=67, velocity=82, time=1),\n",
      "  Message('note_on', channel=0, note=61, velocity=82, time=0),\n",
      "  Message('note_on', channel=0, note=67, velocity=0, time=47),\n",
      "  Message('note_on', channel=0, note=61, velocity=0, time=0),\n",
      "  Message('note_on', channel=0, note=67, velocity=82, time=1),\n",
      "  Message('note_on', channel=0, note=64, velocity=82, time=0),\n",
      "  Message('note_on', channel=0, note=67, velocity=0, time=47),\n",
      "  Message('note_on', channel=0, note=64, velocity=0, time=0),\n",
      "  Message('note_on', channel=0, note=66, velocity=78, time=1),\n",
      "  Message('note_on', channel=0, note=62, velocity=78, time=0),\n",
      "  Message('note_on', channel=0, note=66, velocity=0, time=47),\n",
      "  Message('note_on', channel=0, note=62, velocity=0, time=0),\n",
      "  Message('note_on', channel=0, note=66, velocity=78, time=1),\n",
      "  Message('note_on', channel=0, note=62, velocity=78, time=0),\n",
      "  Message('note_on', channel=0, note=66, velocity=0, time=47),\n",
      "  Message('note_on', channel=0, note=62, velocity=0, time=0),\n",
      "  Message('note_on', channel=0, note=66, velocity=78, time=1),\n",
      "  Message('note_on', channel=0, note=62, velocity=78, time=0),\n",
      "  Message('note_on', channel=0, note=66, velocity=0, time=47),\n",
      "  Message('note_on', channel=0, note=62, velocity=0, time=0),\n",
      "  Message('note_on', channel=0, note=66, velocity=78, time=1),\n",
      "  Message('note_on', channel=0, note=62, velocity=78, time=0),\n",
      "  Message('note_on', channel=0, note=66, velocity=0, time=47),\n",
      "  Message('note_on', channel=0, note=62, velocity=0, time=0),\n",
      "  Message('note_on', channel=0, note=62, velocity=78, time=1),\n",
      "  Message('note_on', channel=0, note=59, velocity=78, time=0),\n",
      "  Message('note_on', channel=0, note=62, velocity=0, time=47),\n",
      "  Message('note_on', channel=0, note=59, velocity=0, time=0),\n",
      "  Message('note_on', channel=0, note=62, velocity=78, time=1),\n",
      "  Message('note_on', channel=0, note=59, velocity=78, time=0),\n",
      "  Message('note_on', channel=0, note=62, velocity=0, time=47),\n",
      "  Message('note_on', channel=0, note=59, velocity=0, time=0),\n",
      "  Message('note_on', channel=0, note=62, velocity=78, time=1),\n",
      "  Message('note_on', channel=0, note=59, velocity=78, time=0),\n",
      "  Message('note_on', channel=0, note=62, velocity=0, time=47),\n",
      "  Message('note_on', channel=0, note=59, velocity=0, time=0),\n",
      "  Message('note_on', channel=0, note=62, velocity=78, time=1),\n",
      "  Message('note_on', channel=0, note=59, velocity=78, time=0),\n",
      "  Message('note_on', channel=0, note=62, velocity=0, time=47),\n",
      "  Message('note_on', channel=0, note=59, velocity=0, time=0),\n",
      "  Message('note_on', channel=0, note=61, velocity=78, time=1),\n",
      "  Message('note_on', channel=0, note=57, velocity=78, time=0),\n",
      "  Message('note_on', channel=0, note=61, velocity=0, time=47),\n",
      "  Message('note_on', channel=0, note=57, velocity=0, time=0),\n",
      "  Message('note_on', channel=0, note=61, velocity=78, time=1),\n",
      "  Message('note_on', channel=0, note=57, velocity=78, time=0),\n",
      "  Message('note_on', channel=0, note=61, velocity=0, time=47),\n",
      "  Message('note_on', channel=0, note=57, velocity=0, time=0),\n",
      "  Message('note_on', channel=0, note=69, velocity=73, time=1),\n",
      "  Message('note_on', channel=0, note=57, velocity=73, time=0),\n",
      "  Message('note_on', channel=0, note=69, velocity=0, time=47),\n",
      "  Message('note_on', channel=0, note=57, velocity=0, time=0),\n",
      "  Message('note_on', channel=0, note=69, velocity=73, time=1),\n",
      "  Message('note_on', channel=0, note=57, velocity=73, time=0),\n",
      "  Message('note_on', channel=0, note=69, velocity=0, time=47),\n",
      "  Message('note_on', channel=0, note=57, velocity=0, time=0),\n",
      "  Message('note_on', channel=0, note=68, velocity=73, time=1),\n",
      "  Message('note_on', channel=0, note=59, velocity=73, time=0),\n",
      "  Message('note_on', channel=0, note=68, velocity=0, time=47),\n",
      "  Message('note_on', channel=0, note=59, velocity=0, time=0),\n",
      "  Message('note_on', channel=0, note=68, velocity=73, time=1),\n",
      "  Message('note_on', channel=0, note=59, velocity=73, time=0),\n",
      "  Message('note_on', channel=0, note=68, velocity=0, time=47),\n",
      "  Message('note_on', channel=0, note=59, velocity=0, time=0),\n",
      "  Message('note_on', channel=0, note=67, velocity=73, time=1),\n",
      "  Message('note_on', channel=0, note=61, velocity=73, time=0),\n",
      "  Message('note_on', channel=0, note=67, velocity=0, time=47),\n",
      "  Message('note_on', channel=0, note=61, velocity=0, time=0),\n",
      "  Message('note_on', channel=0, note=67, velocity=73, time=1),\n",
      "  Message('note_on', channel=0, note=64, velocity=73, time=0),\n",
      "  Message('note_on', channel=0, note=67, velocity=0, time=47),\n",
      "  Message('note_on', channel=0, note=64, velocity=0, time=0),\n",
      "  Message('note_on', channel=0, note=66, velocity=73, time=1),\n",
      "  Message('note_on', channel=0, note=62, velocity=73, time=0),\n",
      "  Message('note_on', channel=0, note=66, velocity=0, time=47),\n",
      "  Message('note_on', channel=0, note=62, velocity=0, time=0),\n",
      "  Message('note_on', channel=0, note=66, velocity=73, time=1),\n",
      "  Message('note_on', channel=0, note=62, velocity=73, time=0),\n",
      "  Message('note_on', channel=0, note=66, velocity=0, time=47),\n",
      "  Message('note_on', channel=0, note=62, velocity=0, time=0),\n",
      "  Message('note_on', channel=0, note=66, velocity=73, time=1),\n",
      "  Message('note_on', channel=0, note=62, velocity=73, time=0),\n",
      "  Message('note_on', channel=0, note=66, velocity=0, time=47),\n",
      "  Message('note_on', channel=0, note=62, velocity=0, time=0),\n",
      "  Message('note_on', channel=0, note=66, velocity=73, time=1),\n",
      "  Message('note_on', channel=0, note=62, velocity=73, time=0),\n",
      "  Message('note_on', channel=0, note=66, velocity=0, time=47),\n",
      "  Message('note_on', channel=0, note=62, velocity=0, time=0),\n",
      "  Message('note_on', channel=0, note=62, velocity=73, time=1),\n",
      "  Message('note_on', channel=0, note=59, velocity=73, time=0),\n",
      "  Message('note_on', channel=0, note=62, velocity=0, time=47),\n",
      "  Message('note_on', channel=0, note=59, velocity=0, time=0),\n",
      "  Message('note_on', channel=0, note=62, velocity=73, time=1),\n",
      "  Message('note_on', channel=0, note=59, velocity=73, time=0),\n",
      "  Message('note_on', channel=0, note=62, velocity=0, time=47),\n",
      "  Message('note_on', channel=0, note=59, velocity=0, time=0),\n",
      "  Message('note_on', channel=0, note=62, velocity=73, time=1),\n",
      "  Message('note_on', channel=0, note=59, velocity=73, time=0),\n",
      "  Message('note_on', channel=0, note=62, velocity=0, time=47),\n",
      "  Message('note_on', channel=0, note=59, velocity=0, time=0),\n",
      "  Message('note_on', channel=0, note=62, velocity=73, time=1),\n",
      "  Message('note_on', channel=0, note=59, velocity=73, time=0),\n",
      "  Message('note_on', channel=0, note=62, velocity=0, time=47),\n",
      "  Message('note_on', channel=0, note=59, velocity=0, time=0),\n",
      "  Message('note_on', channel=0, note=61, velocity=73, time=1),\n",
      "  Message('note_on', channel=0, note=61, velocity=0, time=45),\n",
      "  Message('note_on', channel=0, note=64, velocity=73, time=3),\n",
      "  Message('note_on', channel=0, note=64, velocity=0, time=23),\n",
      "  Message('note_on', channel=0, note=69, velocity=74, time=1),\n",
      "  Message('note_on', channel=0, note=69, velocity=0, time=23),\n",
      "  Message('note_on', channel=0, note=73, velocity=76, time=1),\n",
      "  Message('note_on', channel=0, note=73, velocity=0, time=23),\n",
      "  Message('note_on', channel=0, note=64, velocity=78, time=1),\n",
      "  Message('note_on', channel=0, note=64, velocity=0, time=23),\n",
      "  Message('note_on', channel=0, note=69, velocity=80, time=1),\n",
      "  Message('note_on', channel=0, note=69, velocity=0, time=23),\n",
      "  Message('note_on', channel=0, note=73, velocity=81, time=1),\n",
      "  Message('note_on', channel=0, note=73, velocity=0, time=23),\n",
      "  Message('note_on', channel=0, note=76, velocity=83, time=1),\n",
      "  Message('note_on', channel=0, note=76, velocity=0, time=45),\n",
      "  Message('note_on', channel=0, note=76, velocity=87, time=3),\n",
      "  Message('note_on', channel=0, note=76, velocity=0, time=45),\n",
      "  Message('note_on', channel=0, note=64, velocity=87, time=51),\n",
      "  Message('note_on', channel=0, note=52, velocity=87, time=0),\n",
      "  Message('note_on', channel=0, note=64, velocity=0, time=20),\n",
      "  Message('note_on', channel=0, note=52, velocity=0, time=0),\n",
      "  Message('note_on', channel=0, note=57, velocity=87, time=28),\n",
      "  Message('note_on', channel=0, note=45, velocity=87, time=0),\n",
      "  Message('note_on', channel=0, note=57, velocity=0, time=89),\n",
      "  Message('note_on', channel=0, note=45, velocity=0, time=0),\n",
      "  Message('note_on', channel=0, note=52, velocity=87, time=199),\n",
      "  Message('note_on', channel=0, note=40, velocity=87, time=0),\n",
      "  Message('note_on', channel=0, note=52, velocity=0, time=89),\n",
      "  Message('note_on', channel=0, note=40, velocity=0, time=0),\n",
      "  Message('note_on', channel=0, note=45, velocity=87, time=7),\n",
      "  Message('note_on', channel=0, note=45, velocity=0, time=23),\n",
      "  Message('note_on', channel=0, note=33, velocity=87, time=1),\n",
      "  Message('note_on', channel=0, note=33, velocity=0, time=23),\n",
      "  Message('note_on', channel=0, note=37, velocity=87, time=1),\n",
      "  Message('note_on', channel=0, note=37, velocity=0, time=23),\n",
      "  Message('note_on', channel=0, note=40, velocity=87, time=1),\n",
      "  Message('note_on', channel=0, note=40, velocity=0, time=23),\n",
      "  Message('note_on', channel=0, note=45, velocity=87, time=1),\n",
      "  Message('note_on', channel=0, note=45, velocity=0, time=23),\n",
      "  Message('note_on', channel=0, note=37, velocity=87, time=1),\n",
      "  Message('note_on', channel=0, note=37, velocity=0, time=23),\n",
      "  Message('note_on', channel=0, note=40, velocity=87, time=1),\n",
      "  Message('note_on', channel=0, note=40, velocity=0, time=23),\n",
      "  Message('note_on', channel=0, note=45, velocity=87, time=1),\n",
      "  Message('note_on', channel=0, note=45, velocity=0, time=23),\n",
      "  Message('note_on', channel=0, note=49, velocity=87, time=1),\n",
      "  Message('note_on', channel=0, note=49, velocity=0, time=23),\n",
      "  Message('note_on', channel=0, note=40, velocity=87, time=1),\n",
      "  Message('note_on', channel=0, note=40, velocity=0, time=23),\n",
      "  Message('note_on', channel=0, note=45, velocity=87, time=1),\n",
      "  Message('note_on', channel=0, note=45, velocity=0, time=23),\n",
      "  Message('note_on', channel=0, note=49, velocity=87, time=1),\n",
      "  Message('note_on', channel=0, note=49, velocity=0, time=23),\n",
      "  Message('note_on', channel=0, note=52, velocity=87, time=1),\n",
      "  Message('note_on', channel=0, note=52, velocity=0, time=23),\n",
      "  Message('note_on', channel=0, note=49, velocity=87, time=1),\n",
      "  Message('note_on', channel=0, note=49, velocity=0, time=23),\n",
      "  Message('note_on', channel=0, note=52, velocity=87, time=1),\n",
      "  Message('note_on', channel=0, note=52, velocity=0, time=23),\n",
      "  Message('note_on', channel=0, note=49, velocity=87, time=1),\n",
      "  Message('note_on', channel=0, note=49, velocity=0, time=23),\n",
      "  Message('note_on', channel=0, note=45, velocity=87, time=1),\n",
      "  Message('note_on', channel=0, note=45, velocity=0, time=89),\n",
      "  Message('note_on', channel=0, note=33, velocity=87, time=7),\n",
      "  Message('note_on', channel=0, note=33, velocity=0, time=67),\n",
      "  Message('note_on', channel=0, note=33, velocity=87, time=5),\n",
      "  Message('note_on', channel=0, note=33, velocity=0, time=23),\n",
      "  Message('note_on', channel=0, note=33, velocity=87, time=1),\n",
      "  Message('note_on', channel=0, note=33, velocity=0, time=89),\n",
      "  Message('note_on', channel=0, note=62, velocity=87, time=103),\n",
      "  Message('note_on', channel=0, note=50, velocity=87, time=0),\n",
      "  Message('note_on', channel=0, note=62, velocity=0, time=177),\n",
      "  Message('note_on', channel=0, note=50, velocity=0, time=0),\n",
      "  Message('note_on', channel=0, note=57, velocity=87, time=15),\n",
      "  Message('note_on', channel=0, note=57, velocity=0, time=177),\n",
      "  Message('note_on', channel=0, note=55, velocity=87, time=15),\n",
      "  Message('note_on', channel=0, note=55, velocity=0, time=24),\n",
      "  Message('note_on', channel=0, note=54, velocity=87, time=0),\n",
      "  Message('note_on', channel=0, note=54, velocity=0, time=24),\n",
      "  Message('note_on', channel=0, note=55, velocity=87, time=0),\n",
      "  Message('note_on', channel=0, note=55, velocity=0, time=24),\n",
      "  Message('note_on', channel=0, note=54, velocity=87, time=0),\n",
      "  Message('note_on', channel=0, note=54, velocity=0, time=24),\n",
      "  Message('note_on', channel=0, note=55, velocity=87, time=0),\n",
      "  Message('note_on', channel=0, note=55, velocity=0, time=24),\n",
      "  Message('note_on', channel=0, note=54, velocity=87, time=0),\n",
      "  Message('note_on', channel=0, note=54, velocity=0, time=13),\n",
      "  Message('note_on', channel=0, note=52, velocity=87, time=11),\n",
      "  Message('note_on', channel=0, note=52, velocity=0, time=23),\n",
      "  Message('note_on', channel=0, note=50, velocity=87, time=1),\n",
      "  Message('note_on', channel=0, note=50, velocity=0, time=23),\n",
      "  Message('note_on', channel=0, note=57, velocity=87, time=1),\n",
      "  Message('note_on', channel=0, note=57, velocity=0, time=89),\n",
      "  Message('note_on', channel=0, note=45, velocity=87, time=79),\n",
      "  Message('note_on', channel=0, note=45, velocity=0, time=8),\n",
      "  Message('note_on', channel=0, note=47, velocity=87, time=0),\n",
      "  Message('note_on', channel=0, note=47, velocity=0, time=8),\n",
      "  Message('note_on', channel=0, note=49, velocity=87, time=0),\n",
      "  Message('note_on', channel=0, note=49, velocity=0, time=8),\n",
      "  Message('note_on', channel=0, note=50, velocity=87, time=0),\n",
      "  Message('note_on', channel=0, note=50, velocity=0, time=89),\n",
      "  Message('note_on', channel=0, note=45, velocity=87, time=7),\n",
      "  Message('note_on', channel=0, note=45, velocity=0, time=67),\n",
      "  Message('note_on', channel=0, note=50, velocity=87, time=5),\n",
      "  Message('note_on', channel=0, note=50, velocity=0, time=23),\n",
      "  Message('note_on', channel=0, note=52, velocity=87, time=1),\n",
      "  Message('note_on', channel=0, note=52, velocity=0, time=89),\n",
      "  Message('note_on', channel=0, note=45, velocity=87, time=7),\n",
      "  Message('note_on', channel=0, note=45, velocity=0, time=67),\n",
      "  Message('note_on', channel=0, note=52, velocity=87, time=5),\n",
      "  Message('note_on', channel=0, note=52, velocity=0, time=23),\n",
      "  Message('note_on', channel=0, note=54, velocity=87, time=1),\n",
      "  Message('note_on', channel=0, note=54, velocity=0, time=89),\n",
      "  Message('note_on', channel=0, note=50, velocity=87, time=7),\n",
      "  Message('note_on', channel=0, note=50, velocity=0, time=67),\n",
      "  Message('note_on', channel=0, note=54, velocity=87, time=5),\n",
      "  Message('note_on', channel=0, note=54, velocity=0, time=23),\n",
      "  Message('note_on', channel=0, note=57, velocity=87, time=1),\n",
      "  Message('note_on', channel=0, note=57, velocity=0, time=89),\n",
      "  Message('note_on', channel=0, note=38, velocity=98, time=103),\n",
      "  Message('note_on', channel=0, note=38, velocity=0, time=20),\n",
      "  Message('note_on', channel=0, note=50, velocity=82, time=28),\n",
      "  Message('note_on', channel=0, note=50, velocity=0, time=20),\n",
      "  Message('note_on', channel=0, note=50, velocity=82, time=28),\n",
      "  Message('note_on', channel=0, note=50, velocity=0, time=20),\n",
      "  Message('note_on', channel=0, note=50, velocity=82, time=28),\n",
      "  Message('note_on', channel=0, note=50, velocity=0, time=20),\n",
      "  Message('note_on', channel=0, note=50, velocity=82, time=28),\n",
      "  Message('note_on', channel=0, note=50, velocity=0, time=20),\n",
      "  Message('note_on', channel=0, note=50, velocity=82, time=28),\n",
      "  Message('note_on', channel=0, note=50, velocity=0, time=20),\n",
      "  Message('note_on', channel=0, note=50, velocity=82, time=28),\n",
      "  Message('note_on', channel=0, note=50, velocity=0, time=20),\n",
      "  Message('note_on', channel=0, note=50, velocity=82, time=28),\n",
      "  Message('note_on', channel=0, note=50, velocity=0, time=20),\n",
      "  Message('note_on', channel=0, note=50, velocity=82, time=28),\n",
      "  Message('note_on', channel=0, note=50, velocity=0, time=20),\n",
      "  Message('note_on', channel=0, note=50, velocity=82, time=28),\n",
      "  Message('note_on', channel=0, note=50, velocity=0, time=20),\n",
      "  Message('note_on', channel=0, note=50, velocity=82, time=28),\n",
      "  Message('note_on', channel=0, note=50, velocity=0, time=20),\n",
      "  Message('note_on', channel=0, note=50, velocity=82, time=28),\n",
      "  Message('note_on', channel=0, note=50, velocity=0, time=20),\n",
      "  Message('note_on', channel=0, note=50, velocity=82, time=28),\n",
      "  Message('note_on', channel=0, note=50, velocity=0, time=20),\n",
      "  Message('note_on', channel=0, note=50, velocity=82, time=28),\n",
      "  Message('note_on', channel=0, note=50, velocity=0, time=20),\n",
      "  Message('note_on', channel=0, note=50, velocity=82, time=28),\n",
      "  Message('note_on', channel=0, note=50, velocity=0, time=20),\n",
      "  Message('note_on', channel=0, note=50, velocity=82, time=28),\n",
      "  Message('note_on', channel=0, note=50, velocity=0, time=20),\n",
      "  Message('note_on', channel=0, note=38, velocity=98, time=28),\n",
      "  Message('note_on', channel=0, note=38, velocity=0, time=20),\n",
      "  Message('note_on', channel=0, note=50, velocity=82, time=28),\n",
      "  Message('note_on', channel=0, note=50, velocity=0, time=20),\n",
      "  Message('note_on', channel=0, note=50, velocity=82, time=28),\n",
      "  Message('note_on', channel=0, note=50, velocity=0, time=20),\n",
      "  Message('note_on', channel=0, note=50, velocity=82, time=28),\n",
      "  Message('note_on', channel=0, note=50, velocity=0, time=20),\n",
      "  Message('note_on', channel=0, note=50, velocity=82, time=28),\n",
      "  Message('note_on', channel=0, note=50, velocity=0, time=20),\n",
      "  Message('note_on', channel=0, note=50, velocity=82, time=28),\n",
      "  Message('note_on', channel=0, note=50, velocity=0, time=20),\n",
      "  Message('note_on', channel=0, note=50, velocity=82, time=28),\n",
      "  Message('note_on', channel=0, note=50, velocity=0, time=20),\n",
      "  Message('note_on', channel=0, note=50, velocity=82, time=28),\n",
      "  Message('note_on', channel=0, note=50, velocity=0, time=20),\n",
      "  Message('note_on', channel=0, note=50, velocity=82, time=28),\n",
      "  Message('note_on', channel=0, note=50, velocity=0, time=20),\n",
      "  Message('note_on', channel=0, note=50, velocity=82, time=28),\n",
      "  Message('note_on', channel=0, note=50, velocity=0, time=20),\n",
      "  Message('note_on', channel=0, note=50, velocity=82, time=28),\n",
      "  Message('note_on', channel=0, note=50, velocity=0, time=20),\n",
      "  Message('note_on', channel=0, note=50, velocity=82, time=28),\n",
      "  Message('note_on', channel=0, note=50, velocity=0, time=20),\n",
      "  Message('note_on', channel=0, note=50, velocity=82, time=28),\n",
      "  Message('note_on', channel=0, note=50, velocity=0, time=20),\n",
      "  Message('note_on', channel=0, note=50, velocity=82, time=28),\n",
      "  Message('note_on', channel=0, note=50, velocity=0, time=20),\n",
      "  Message('note_on', channel=0, note=50, velocity=82, time=28),\n",
      "  Message('note_on', channel=0, note=50, velocity=0, time=20),\n",
      "  Message('note_on', channel=0, note=50, velocity=82, time=28),\n",
      "  Message('note_on', channel=0, note=50, velocity=0, time=20),\n",
      "  Message('note_on', channel=0, note=50, velocity=98, time=28),\n",
      "  Message('note_on', channel=0, note=50, velocity=0, time=20),\n",
      "  Message('note_on', channel=0, note=66, velocity=78, time=28),\n",
      "  Message('note_on', channel=0, note=62, velocity=78, time=0),\n",
      "  Message('note_on', channel=0, note=66, velocity=0, time=20),\n",
      "  Message('note_on', channel=0, note=62, velocity=0, time=0),\n",
      "  Message('note_on', channel=0, note=66, velocity=78, time=28),\n",
      "  Message('note_on', channel=0, note=62, velocity=78, time=0),\n",
      "  Message('note_on', channel=0, note=66, velocity=0, time=20),\n",
      "  Message('note_on', channel=0, note=62, velocity=0, time=0),\n",
      "  Message('note_on', channel=0, note=66, velocity=78, time=28),\n",
      "  Message('note_on', channel=0, note=62, velocity=78, time=0),\n",
      "  Message('note_on', channel=0, note=66, velocity=0, time=20),\n",
      "  Message('note_on', channel=0, note=62, velocity=0, time=0),\n",
      "  Message('note_on', channel=0, note=57, velocity=78, time=28),\n",
      "  Message('note_on', channel=0, note=57, velocity=0, time=20),\n",
      "  Message('note_on', channel=0, note=66, velocity=78, time=28),\n",
      "  Message('note_on', channel=0, note=62, velocity=78, time=0),\n",
      "  Message('note_on', channel=0, note=66, velocity=0, time=20),\n",
      "  Message('note_on', channel=0, note=62, velocity=0, time=0),\n",
      "  Message('note_on', channel=0, note=66, velocity=78, time=28),\n",
      "  Message('note_on', channel=0, note=62, velocity=78, time=0),\n",
      "  Message('note_on', channel=0, note=66, velocity=0, time=20),\n",
      "  Message('note_on', channel=0, note=62, velocity=0, time=0),\n",
      "  Message('note_on', channel=0, note=66, velocity=78, time=28),\n",
      "  Message('note_on', channel=0, note=62, velocity=78, time=0),\n",
      "  Message('note_on', channel=0, note=66, velocity=0, time=20),\n",
      "  Message('note_on', channel=0, note=62, velocity=0, time=0),\n",
      "  Message('note_on', channel=0, note=57, velocity=94, time=28),\n",
      "  Message('note_on', channel=0, note=57, velocity=0, time=20),\n",
      "  Message('note_on', channel=0, note=67, velocity=78, time=28),\n",
      "  Message('note_on', channel=0, note=64, velocity=78, time=0),\n",
      "  Message('note_on', channel=0, note=67, velocity=0, time=20),\n",
      "  Message('note_on', channel=0, note=64, velocity=0, time=0),\n",
      "  Message('note_on', channel=0, note=67, velocity=78, time=28),\n",
      "  Message('note_on', channel=0, note=64, velocity=78, time=0),\n",
      "  Message('note_on', channel=0, note=67, velocity=0, time=20),\n",
      "  Message('note_on', channel=0, note=64, velocity=0, time=0),\n",
      "  Message('note_on', channel=0, note=67, velocity=78, time=28),\n",
      "  Message('note_on', channel=0, note=64, velocity=78, time=0),\n",
      "  Message('note_on', channel=0, note=67, velocity=0, time=20),\n",
      "  Message('note_on', channel=0, note=64, velocity=0, time=0),\n",
      "  Message('note_on', channel=0, note=57, velocity=78, time=28),\n",
      "  Message('note_on', channel=0, note=57, velocity=0, time=20),\n",
      "  Message('note_on', channel=0, note=67, velocity=78, time=28),\n",
      "  Message('note_on', channel=0, note=64, velocity=78, time=0),\n",
      "  Message('note_on', channel=0, note=67, velocity=0, time=20),\n",
      "  Message('note_on', channel=0, note=64, velocity=0, time=0),\n",
      "  Message('note_on', channel=0, note=67, velocity=78, time=28),\n",
      "  Message('note_on', channel=0, note=64, velocity=78, time=0),\n",
      "  Message('note_on', channel=0, note=67, velocity=0, time=20),\n",
      "  Message('note_on', channel=0, note=64, velocity=0, time=0),\n",
      "  Message('note_on', channel=0, note=67, velocity=78, time=28),\n",
      "  Message('note_on', channel=0, note=64, velocity=78, time=0),\n",
      "  Message('note_on', channel=0, note=67, velocity=0, time=20),\n",
      "  Message('note_on', channel=0, note=64, velocity=0, time=0),\n",
      "  Message('note_on', channel=0, note=57, velocity=94, time=28),\n",
      "  Message('note_on', channel=0, note=57, velocity=0, time=20),\n",
      "  Message('note_on', channel=0, note=66, velocity=78, time=28),\n",
      "  Message('note_on', channel=0, note=62, velocity=78, time=0),\n",
      "  Message('note_on', channel=0, note=66, velocity=0, time=20),\n",
      "  Message('note_on', channel=0, note=62, velocity=0, time=0),\n",
      "  Message('note_on', channel=0, note=66, velocity=78, time=28),\n",
      "  Message('note_on', channel=0, note=62, velocity=78, time=0),\n",
      "  Message('note_on', channel=0, note=66, velocity=0, time=20),\n",
      "  Message('note_on', channel=0, note=62, velocity=0, time=0),\n",
      "  Message('note_on', channel=0, note=66, velocity=78, time=28),\n",
      "  Message('note_on', channel=0, note=62, velocity=78, time=0),\n",
      "  Message('note_on', channel=0, note=66, velocity=0, time=20),\n",
      "  Message('note_on', channel=0, note=62, velocity=0, time=0),\n",
      "  Message('note_on', channel=0, note=57, velocity=78, time=28),\n",
      "  Message('note_on', channel=0, note=57, velocity=0, time=20),\n",
      "  Message('note_on', channel=0, note=66, velocity=78, time=28),\n",
      "  Message('note_on', channel=0, note=62, velocity=78, time=0),\n",
      "  Message('note_on', channel=0, note=66, velocity=0, time=20),\n",
      "  Message('note_on', channel=0, note=62, velocity=0, time=0),\n",
      "  Message('note_on', channel=0, note=66, velocity=78, time=28),\n",
      "  Message('note_on', channel=0, note=62, velocity=78, time=0),\n",
      "  Message('note_on', channel=0, note=66, velocity=0, time=20),\n",
      "  Message('note_on', channel=0, note=62, velocity=0, time=0),\n",
      "  Message('note_on', channel=0, note=66, velocity=78, time=28),\n",
      "  Message('note_on', channel=0, note=62, velocity=78, time=0),\n",
      "  Message('note_on', channel=0, note=66, velocity=0, time=20),\n",
      "  Message('note_on', channel=0, note=62, velocity=0, time=0),\n",
      "  Message('note_on', channel=0, note=55, velocity=78, time=124),\n",
      "  Message('note_on', channel=0, note=43, velocity=78, time=0),\n",
      "  Message('note_on', channel=0, note=55, velocity=0, time=89),\n",
      "  Message('note_on', channel=0, note=43, velocity=0, time=0),\n",
      "  Message('note_on', channel=0, note=57, velocity=78, time=7),\n",
      "  Message('note_on', channel=0, note=45, velocity=78, time=0),\n",
      "  Message('note_on', channel=0, note=57, velocity=0, time=89),\n",
      "  Message('note_on', channel=0, note=45, velocity=0, time=0),\n",
      "  Message('note_on', channel=0, note=45, velocity=78, time=7),\n",
      "  Message('note_on', channel=0, note=33, velocity=78, time=0),\n",
      "  Message('note_on', channel=0, note=45, velocity=0, time=89),\n",
      "  Message('note_on', channel=0, note=33, velocity=0, time=0),\n",
      "  Message('note_on', channel=0, note=50, velocity=78, time=7),\n",
      "  Message('note_on', channel=0, note=38, velocity=78, time=0),\n",
      "  Message('note_on', channel=0, note=50, velocity=0, time=89),\n",
      "  Message('note_on', channel=0, note=38, velocity=0, time=0),\n",
      "  Message('note_on', channel=0, note=50, velocity=82, time=103),\n",
      "  Message('note_on', channel=0, note=38, velocity=82, time=0),\n",
      "  Message('note_on', channel=0, note=50, velocity=0, time=89),\n",
      "  Message('note_on', channel=0, note=38, velocity=0, time=0),\n",
      "  Message('note_on', channel=0, note=49, velocity=82, time=103),\n",
      "  Message('note_on', channel=0, note=37, velocity=82, time=0),\n",
      "  Message('note_on', channel=0, note=49, velocity=0, time=89),\n",
      "  Message('note_on', channel=0, note=37, velocity=0, time=0),\n",
      "  Message('note_on', channel=0, note=49, velocity=82, time=103),\n",
      "  Message('note_on', channel=0, note=37, velocity=82, time=0),\n",
      "  Message('note_on', channel=0, note=49, velocity=0, time=89),\n",
      "  Message('note_on', channel=0, note=37, velocity=0, time=0),\n",
      "  Message('note_on', channel=0, note=50, velocity=82, time=103),\n",
      "  Message('note_on', channel=0, note=38, velocity=82, time=0),\n",
      "  Message('note_on', channel=0, note=50, velocity=0, time=89),\n",
      "  Message('note_on', channel=0, note=38, velocity=0, time=0),\n",
      "  Message('note_on', channel=0, note=50, velocity=82, time=103),\n",
      "  Message('note_on', channel=0, note=38, velocity=82, time=0),\n",
      "  Message('note_on', channel=0, note=50, velocity=0, time=89),\n",
      "  Message('note_on', channel=0, note=38, velocity=0, time=0),\n",
      "  Message('note_on', channel=0, note=67, velocity=82, time=199),\n",
      "  Message('note_on', channel=0, note=67, velocity=0, time=89),\n",
      "  Message('note_on', channel=0, note=69, velocity=82, time=7),\n",
      "  Message('note_on', channel=0, note=69, velocity=0, time=89),\n",
      "  Message('note_on', channel=0, note=57, velocity=82, time=7),\n",
      "  Message('note_on', channel=0, note=57, velocity=0, time=89),\n",
      "  Message('note_on', channel=0, note=50, velocity=87, time=7),\n",
      "  Message('note_on', channel=0, note=50, velocity=0, time=23),\n",
      "  Message('note_on', channel=0, note=62, velocity=87, time=1),\n",
      "  Message('note_on', channel=0, note=62, velocity=0, time=23),\n",
      "  Message('note_on', channel=0, note=54, velocity=87, time=1),\n",
      "  Message('note_on', channel=0, note=54, velocity=0, time=23),\n",
      "  Message('note_on', channel=0, note=62, velocity=87, time=1),\n",
      "  Message('note_on', channel=0, note=62, velocity=0, time=23),\n",
      "  Message('note_on', channel=0, note=57, velocity=87, time=1),\n",
      "  Message('note_on', channel=0, note=57, velocity=0, time=23),\n",
      "  Message('note_on', channel=0, note=62, velocity=87, time=1),\n",
      "  Message('note_on', channel=0, note=62, velocity=0, time=23),\n",
      "  Message('note_on', channel=0, note=54, velocity=87, time=1),\n",
      "  Message('note_on', channel=0, note=54, velocity=0, time=23),\n",
      "  Message('note_on', channel=0, note=61, velocity=87, time=1),\n",
      "  Message('note_on', channel=0, note=61, velocity=0, time=23),\n",
      "  Message('note_on', channel=0, note=50, velocity=87, time=1),\n",
      "  Message('note_on', channel=0, note=50, velocity=0, time=23),\n",
      "  Message('note_on', channel=0, note=62, velocity=87, time=1),\n",
      "  Message('note_on', channel=0, note=62, velocity=0, time=23),\n",
      "  Message('note_on', channel=0, note=54, velocity=87, time=1),\n",
      "  Message('note_on', channel=0, note=54, velocity=0, time=23),\n",
      "  Message('note_on', channel=0, note=62, velocity=87, time=1),\n",
      "  Message('note_on', channel=0, note=62, velocity=0, time=23),\n",
      "  Message('note_on', channel=0, note=57, velocity=87, time=1),\n",
      "  Message('note_on', channel=0, note=57, velocity=0, time=23),\n",
      "  Message('note_on', channel=0, note=62, velocity=87, time=1),\n",
      "  Message('note_on', channel=0, note=62, velocity=0, time=23),\n",
      "  Message('note_on', channel=0, note=54, velocity=87, time=1),\n",
      "  Message('note_on', channel=0, note=54, velocity=0, time=23),\n",
      "  Message('note_on', channel=0, note=62, velocity=87, time=1),\n",
      "  Message('note_on', channel=0, note=62, velocity=0, time=23),\n",
      "  Message('note_on', channel=0, note=50, velocity=87, time=1),\n",
      "  Message('note_on', channel=0, note=50, velocity=0, time=20),\n",
      "  Message('note_on', channel=0, note=50, velocity=87, time=28),\n",
      "  Message('note_on', channel=0, note=50, velocity=0, time=20),\n",
      "  Message('note_on', channel=0, note=45, velocity=87, time=28),\n",
      "  Message('note_on', channel=0, note=45, velocity=0, time=20),\n",
      "  Message('note_on', channel=0, note=42, velocity=87, time=28),\n",
      "  Message('note_on', channel=0, note=42, velocity=0, time=20),\n",
      "  Message('note_on', channel=0, note=38, velocity=87, time=28),\n",
      "  Message('note_on', channel=0, note=38, velocity=0, time=20),\n",
      "  Message('note_on', channel=0, note=42, velocity=87, time=28),\n",
      "  Message('note_on', channel=0, note=42, velocity=0, time=20),\n",
      "  Message('note_on', channel=0, note=45, velocity=87, time=28),\n",
      "  Message('note_on', channel=0, note=45, velocity=0, time=20),\n",
      "  Message('note_on', channel=0, note=50, velocity=87, time=28),\n",
      "  Message('note_on', channel=0, note=50, velocity=0, time=20),\n",
      "  Message('note_on', channel=0, note=47, velocity=87, time=28),\n",
      "  Message('note_on', channel=0, note=47, velocity=0, time=23),\n",
      "  Message('note_on', channel=0, note=59, velocity=87, time=1),\n",
      "  Message('note_on', channel=0, note=59, velocity=0, time=23),\n",
      "  Message('note_on', channel=0, note=50, velocity=87, time=1),\n",
      "  Message('note_on', channel=0, note=50, velocity=0, time=23),\n",
      "  Message('note_on', channel=0, note=59, velocity=87, time=1),\n",
      "  Message('note_on', channel=0, note=59, velocity=0, time=23),\n",
      "  Message('note_on', channel=0, note=54, velocity=87, time=1),\n",
      "  Message('note_on', channel=0, note=54, velocity=0, time=23),\n",
      "  Message('note_on', channel=0, note=59, velocity=87, time=1),\n",
      "  Message('note_on', channel=0, note=59, velocity=0, time=23),\n",
      "  Message('note_on', channel=0, note=50, velocity=87, time=1),\n",
      "  Message('note_on', channel=0, note=50, velocity=0, time=23),\n",
      "  Message('note_on', channel=0, note=59, velocity=87, time=1),\n",
      "  Message('note_on', channel=0, note=59, velocity=0, time=23),\n",
      "  Message('note_on', channel=0, note=47, velocity=87, time=1),\n",
      "  Message('note_on', channel=0, note=47, velocity=0, time=23),\n",
      "  Message('note_on', channel=0, note=59, velocity=87, time=1),\n",
      "  Message('note_on', channel=0, note=59, velocity=0, time=23),\n",
      "  Message('note_on', channel=0, note=50, velocity=87, time=1),\n",
      "  Message('note_on', channel=0, note=50, velocity=0, time=23),\n",
      "  Message('note_on', channel=0, note=59, velocity=87, time=1),\n",
      "  Message('note_on', channel=0, note=59, velocity=0, time=23),\n",
      "  Message('note_on', channel=0, note=54, velocity=87, time=1),\n",
      "  Message('note_on', channel=0, note=54, velocity=0, time=23),\n",
      "  Message('note_on', channel=0, note=59, velocity=87, time=1),\n",
      "  Message('note_on', channel=0, note=59, velocity=0, time=23),\n",
      "  Message('note_on', channel=0, note=50, velocity=87, time=1),\n",
      "  Message('note_on', channel=0, note=50, velocity=0, time=23),\n",
      "  Message('note_on', channel=0, note=59, velocity=87, time=1),\n",
      "  Message('note_on', channel=0, note=59, velocity=0, time=23),\n",
      "  Message('note_on', channel=0, note=47, velocity=87, time=1),\n",
      "  Message('note_on', channel=0, note=47, velocity=0, time=20),\n",
      "  Message('note_on', channel=0, note=47, velocity=87, time=28),\n",
      "  Message('note_on', channel=0, note=47, velocity=0, time=20),\n",
      "  Message('note_on', channel=0, note=42, velocity=87, time=28),\n",
      "  Message('note_on', channel=0, note=42, velocity=0, time=20),\n",
      "  Message('note_on', channel=0, note=38, velocity=87, time=28),\n",
      "  Message('note_on', channel=0, note=38, velocity=0, time=20),\n",
      "  Message('note_on', channel=0, note=35, velocity=87, time=28),\n",
      "  Message('note_on', channel=0, note=35, velocity=0, time=20),\n",
      "  Message('note_on', channel=0, note=38, velocity=87, time=28),\n",
      "  Message('note_on', channel=0, note=38, velocity=0, time=20),\n",
      "  Message('note_on', channel=0, note=42, velocity=87, time=28),\n",
      "  Message('note_on', channel=0, note=42, velocity=0, time=20),\n",
      "  Message('note_on', channel=0, note=47, velocity=87, time=28),\n",
      "  Message('note_on', channel=0, note=47, velocity=0, time=20),\n",
      "  Message('note_on', channel=0, note=43, velocity=87, time=28),\n",
      "  Message('note_on', channel=0, note=43, velocity=0, time=23),\n",
      "  Message('note_on', channel=0, note=55, velocity=87, time=1),\n",
      "  Message('note_on', channel=0, note=55, velocity=0, time=23),\n",
      "  Message('note_on', channel=0, note=47, velocity=87, time=1),\n",
      "  Message('note_on', channel=0, note=47, velocity=0, time=23),\n",
      "  Message('note_on', channel=0, note=55, velocity=87, time=1),\n",
      "  Message('note_on', channel=0, note=55, velocity=0, time=23),\n",
      "  Message('note_on', channel=0, note=50, velocity=87, time=1),\n",
      "  Message('note_on', channel=0, note=50, velocity=0, time=23),\n",
      "  Message('note_on', channel=0, note=55, velocity=87, time=1),\n",
      "  Message('note_on', channel=0, note=55, velocity=0, time=23),\n",
      "  Message('note_on', channel=0, note=47, velocity=87, time=1),\n",
      "  Message('note_on', channel=0, note=47, velocity=0, time=23),\n",
      "  Message('note_on', channel=0, note=55, velocity=87, time=1),\n",
      "  Message('note_on', channel=0, note=55, velocity=0, time=23),\n",
      "  Message('note_on', channel=0, note=43, velocity=87, time=1),\n",
      "  Message('note_on', channel=0, note=43, velocity=0, time=23),\n",
      "  Message('note_on', channel=0, note=55, velocity=87, time=1),\n",
      "  Message('note_on', channel=0, note=55, velocity=0, time=23),\n",
      "  Message('note_on', channel=0, note=47, velocity=87, time=1),\n",
      "  Message('note_on', channel=0, note=47, velocity=0, time=23),\n",
      "  Message('note_on', channel=0, note=55, velocity=87, time=1),\n",
      "  Message('note_on', channel=0, note=55, velocity=0, time=23),\n",
      "  Message('note_on', channel=0, note=50, velocity=87, time=1),\n",
      "  Message('note_on', channel=0, note=50, velocity=0, time=23),\n",
      "  Message('note_on', channel=0, note=55, velocity=87, time=1),\n",
      "  Message('note_on', channel=0, note=55, velocity=0, time=23),\n",
      "  Message('note_on', channel=0, note=47, velocity=87, time=1),\n",
      "  Message('note_on', channel=0, note=47, velocity=0, time=23),\n",
      "  Message('note_on', channel=0, note=55, velocity=87, time=1),\n",
      "  Message('note_on', channel=0, note=55, velocity=0, time=23),\n",
      "  Message('note_on', channel=0, note=43, velocity=87, time=1),\n",
      "  Message('note_on', channel=0, note=43, velocity=0, time=20),\n",
      "  Message('note_on', channel=0, note=43, velocity=87, time=28),\n",
      "  Message('note_on', channel=0, note=43, velocity=0, time=20),\n",
      "  Message('note_on', channel=0, note=38, velocity=87, time=28),\n",
      "  Message('note_on', channel=0, note=38, velocity=0, time=20),\n",
      "  Message('note_on', channel=0, note=35, velocity=87, time=28),\n",
      "  Message('note_on', channel=0, note=35, velocity=0, time=20),\n",
      "  Message('note_on', channel=0, note=31, velocity=87, time=28),\n",
      "  Message('note_on', channel=0, note=31, velocity=0, time=20),\n",
      "  Message('note_on', channel=0, note=35, velocity=87, time=28),\n",
      "  Message('note_on', channel=0, note=35, velocity=0, time=20),\n",
      "  Message('note_on', channel=0, note=38, velocity=87, time=28),\n",
      "  Message('note_on', channel=0, note=38, velocity=0, time=20),\n",
      "  Message('note_on', channel=0, note=43, velocity=87, time=28),\n",
      "  Message('note_on', channel=0, note=43, velocity=0, time=20),\n",
      "  Message('note_on', channel=0, note=44, velocity=87, time=28),\n",
      "  Message('note_on', channel=0, note=32, velocity=87, time=0),\n",
      "  Message('note_on', channel=0, note=44, velocity=0, time=177),\n",
      "  Message('note_on', channel=0, note=32, velocity=0, time=0),\n",
      "  Message('note_on', channel=0, note=52, velocity=87, time=15),\n",
      "  Message('note_on', channel=0, note=40, velocity=87, time=0),\n",
      "  Message('note_on', channel=0, note=52, velocity=0, time=177),\n",
      "  Message('note_on', channel=0, note=40, velocity=0, time=0),\n",
      "  Message('note_on', channel=0, note=57, velocity=87, time=15),\n",
      "  Message('note_on', channel=0, note=45, velocity=87, time=0),\n",
      "  Message('note_on', channel=0, note=57, velocity=0, time=89),\n",
      "  Message('note_on', channel=0, note=45, velocity=0, time=0),\n",
      "  Message('note_on', channel=0, note=63, velocity=87, time=103),\n",
      "  Message('note_on', channel=0, note=57, velocity=87, time=0),\n",
      "  Message('note_on', channel=0, note=54, velocity=87, time=0),\n",
      "  Message('note_on', channel=0, note=63, velocity=0, time=89),\n",
      "  Message('note_on', channel=0, note=57, velocity=0, time=0),\n",
      "  Message('note_on', channel=0, note=54, velocity=0, time=0),\n",
      "  Message('note_on', channel=0, note=64, velocity=87, time=103),\n",
      "  Message('note_on', channel=0, note=59, velocity=87, time=0),\n",
      "  Message('note_on', channel=0, note=56, velocity=87, time=0),\n",
      "  Message('note_on', channel=0, note=52, velocity=87, time=0),\n",
      "  Message('note_on', channel=0, note=64, velocity=0, time=89),\n",
      "  Message('note_on', channel=0, note=59, velocity=0, time=0),\n",
      "  Message('note_on', channel=0, note=56, velocity=0, time=0),\n",
      "  Message('note_on', channel=0, note=52, velocity=0, time=0),\n",
      "  Message('note_on', channel=0, note=52, velocity=87, time=103),\n",
      "  Message('note_on', channel=0, note=40, velocity=87, time=0),\n",
      "  Message('note_on', channel=0, note=52, velocity=0, time=177),\n",
      "  Message('note_on', channel=0, note=40, velocity=0, time=0),\n",
      "  Message('note_on', channel=0, note=52, velocity=87, time=15),\n",
      "  Message('note_on', channel=0, note=40, velocity=87, time=0),\n",
      "  Message('note_on', channel=0, note=52, velocity=0, time=177),\n",
      "  Message('note_on', channel=0, note=40, velocity=0, time=0),\n",
      "  Message('note_on', channel=0, note=52, velocity=87, time=15),\n",
      "  Message('note_on', channel=0, note=40, velocity=87, time=0),\n",
      "  Message('note_on', channel=0, note=52, velocity=0, time=177),\n",
      "  Message('note_on', channel=0, note=40, velocity=0, time=0),\n",
      "  Message('note_on', channel=0, note=52, velocity=87, time=15),\n",
      "  Message('note_on', channel=0, note=40, velocity=87, time=0),\n",
      "  Message('note_on', channel=0, note=52, velocity=0, time=177),\n",
      "  Message('note_on', channel=0, note=40, velocity=0, time=0),\n",
      "  Message('note_on', channel=0, note=52, velocity=87, time=15),\n",
      "  Message('note_on', channel=0, note=40, velocity=87, time=0),\n",
      "  Message('note_on', channel=0, note=52, velocity=0, time=177),\n",
      "  Message('note_on', channel=0, note=40, velocity=0, time=0),\n",
      "  Message('note_on', channel=0, note=52, velocity=87, time=15),\n",
      "  Message('note_on', channel=0, note=40, velocity=87, time=0),\n",
      "  Message('note_on', channel=0, note=52, velocity=0, time=177),\n",
      "  Message('note_on', channel=0, note=40, velocity=0, time=0),\n",
      "  Message('note_on', channel=0, note=52, velocity=87, time=15),\n",
      "  Message('note_on', channel=0, note=40, velocity=87, time=0),\n",
      "  Message('note_on', channel=0, note=52, velocity=0, time=177),\n",
      "  Message('note_on', channel=0, note=40, velocity=0, time=0),\n",
      "  Message('note_on', channel=0, note=52, velocity=87, time=15),\n",
      "  Message('note_on', channel=0, note=40, velocity=87, time=0),\n",
      "  Message('note_on', channel=0, note=52, velocity=0, time=177),\n",
      "  Message('note_on', channel=0, note=40, velocity=0, time=0),\n",
      "  Message('note_on', channel=0, note=52, velocity=87, time=15),\n",
      "  Message('note_on', channel=0, note=40, velocity=87, time=0),\n",
      "  Message('note_on', channel=0, note=52, velocity=0, time=177),\n",
      "  Message('note_on', channel=0, note=40, velocity=0, time=0),\n",
      "  Message('note_on', channel=0, note=52, velocity=87, time=15),\n",
      "  Message('note_on', channel=0, note=40, velocity=87, time=0),\n",
      "  Message('note_on', channel=0, note=52, velocity=0, time=89),\n",
      "  Message('note_on', channel=0, note=40, velocity=0, time=0),\n",
      "  Message('note_on', channel=0, note=50, velocity=87, time=7),\n",
      "  Message('note_on', channel=0, note=38, velocity=87, time=0),\n",
      "  Message('note_on', channel=0, note=50, velocity=0, time=89),\n",
      "  Message('note_on', channel=0, note=38, velocity=0, time=0),\n",
      "  Message('note_on', channel=0, note=49, velocity=87, time=7),\n",
      "  Message('note_on', channel=0, note=37, velocity=87, time=0),\n",
      "  Message('note_on', channel=0, note=49, velocity=0, time=89),\n",
      "  Message('note_on', channel=0, note=37, velocity=0, time=0),\n",
      "  Message('note_on', channel=0, note=47, velocity=87, time=7),\n",
      "  Message('note_on', channel=0, note=35, velocity=87, time=0),\n",
      "  Message('note_on', channel=0, note=47, velocity=0, time=89),\n",
      "  Message('note_on', channel=0, note=35, velocity=0, time=0),\n",
      "  Message('note_on', channel=0, note=57, velocity=87, time=103),\n",
      "  Message('note_on', channel=0, note=57, velocity=0, time=177),\n",
      "  Message('note_on', channel=0, note=57, velocity=87, time=15),\n",
      "  Message('note_on', channel=0, note=57, velocity=0, time=89),\n",
      "  Message('note_on', channel=0, note=57, velocity=87, time=7),\n",
      "  Message('note_on', channel=0, note=52, velocity=87, time=0),\n",
      "  Message('note_on', channel=0, note=57, velocity=0, time=20),\n",
      "  Message('note_on', channel=0, note=52, velocity=0, time=0),\n",
      "  Message('note_on', channel=0, note=57, velocity=87, time=28),\n",
      "  Message('note_on', channel=0, note=52, velocity=87, time=0),\n",
      "  Message('note_on', channel=0, note=57, velocity=0, time=20),\n",
      "  Message('note_on', channel=0, note=52, velocity=0, time=0),\n",
      "  Message('note_on', channel=0, note=61, velocity=87, time=28),\n",
      "  Message('note_on', channel=0, note=52, velocity=87, time=0),\n",
      "  Message('note_on', channel=0, note=61, velocity=0, time=20),\n",
      "  Message('note_on', channel=0, note=52, velocity=0, time=0),\n",
      "  Message('note_on', channel=0, note=61, velocity=87, time=28),\n",
      "  Message('note_on', channel=0, note=52, velocity=87, time=0),\n",
      "  Message('note_on', channel=0, note=61, velocity=0, time=20),\n",
      "  Message('note_on', channel=0, note=52, velocity=0, time=0),\n",
      "  Message('note_on', channel=0, note=62, velocity=87, time=28),\n",
      "  Message('note_on', channel=0, note=52, velocity=87, time=0),\n",
      "  Message('note_on', channel=0, note=62, velocity=0, time=20),\n",
      "  Message('note_on', channel=0, note=52, velocity=0, time=0),\n",
      "  Message('note_on', channel=0, note=62, velocity=87, time=28),\n",
      "  Message('note_on', channel=0, note=52, velocity=87, time=0),\n",
      "  Message('note_on', channel=0, note=62, velocity=0, time=20),\n",
      "  Message('note_on', channel=0, note=52, velocity=0, time=0),\n",
      "  Message('note_on', channel=0, note=59, velocity=87, time=28),\n",
      "  Message('note_on', channel=0, note=52, velocity=87, time=0),\n",
      "  Message('note_on', channel=0, note=59, velocity=0, time=20),\n",
      "  Message('note_on', channel=0, note=52, velocity=0, time=0),\n",
      "  Message('note_on', channel=0, note=59, velocity=87, time=28),\n",
      "  Message('note_on', channel=0, note=52, velocity=87, time=0),\n",
      "  Message('note_on', channel=0, note=59, velocity=0, time=20),\n",
      "  Message('note_on', channel=0, note=52, velocity=0, time=0),\n",
      "  Message('note_on', channel=0, note=57, velocity=87, time=28),\n",
      "  Message('note_on', channel=0, note=57, velocity=0, time=20),\n",
      "  Message('note_on', channel=0, note=52, velocity=87, time=28),\n",
      "  Message('note_on', channel=0, note=52, velocity=0, time=20),\n",
      "  Message('note_on', channel=0, note=49, velocity=87, time=28),\n",
      "  Message('note_on', channel=0, note=49, velocity=0, time=20),\n",
      "  Message('note_on', channel=0, note=52, velocity=87, time=28),\n",
      "  Message('note_on', channel=0, note=52, velocity=0, time=20),\n",
      "  Message('note_on', channel=0, note=45, velocity=87, time=28),\n",
      "  Message('note_on', channel=0, note=45, velocity=0, time=89),\n",
      "  Message('note_on', channel=0, note=57, velocity=87, time=3559),\n",
      "  Message('note_on', channel=0, note=57, velocity=0, time=45),\n",
      "  Message('note_on', channel=0, note=56, velocity=87, time=3),\n",
      "  Message('note_on', channel=0, note=56, velocity=0, time=45),\n",
      "  Message('note_on', channel=0, note=54, velocity=87, time=3),\n",
      "  Message('note_on', channel=0, note=54, velocity=0, time=45),\n",
      "  Message('note_on', channel=0, note=52, velocity=87, time=3),\n",
      "  Message('note_on', channel=0, note=52, velocity=0, time=45),\n",
      "  Message('note_on', channel=0, note=57, velocity=73, time=3),\n",
      "  Message('note_on', channel=0, note=57, velocity=0, time=39),\n",
      "  Message('note_on', channel=0, note=59, velocity=74, time=57),\n",
      "  Message('note_on', channel=0, note=59, velocity=0, time=39),\n",
      "  Message('note_on', channel=0, note=61, velocity=91, time=57),\n",
      "  Message('note_on', channel=0, note=61, velocity=0, time=237),\n",
      "  Message('note_on', channel=0, note=64, velocity=76, time=3),\n",
      "  Message('note_on', channel=0, note=64, velocity=0, time=45),\n",
      "  Message('note_on', channel=0, note=62, velocity=75, time=3),\n",
      "  Message('note_on', channel=0, note=62, velocity=0, time=45),\n",
      "  Message('note_on', channel=0, note=59, velocity=74, time=3),\n",
      "  Message('note_on', channel=0, note=59, velocity=0, time=45),\n",
      "  Message('note_on', channel=0, note=57, velocity=73, time=3),\n",
      "  Message('note_on', channel=0, note=57, velocity=0, time=45),\n",
      "  Message('note_on', channel=0, note=56, velocity=73, time=3),\n",
      "  Message('note_on', channel=0, note=56, velocity=0, time=45),\n",
      "  Message('note_on', channel=0, note=54, velocity=73, time=3),\n",
      "  Message('note_on', channel=0, note=54, velocity=0, time=45),\n",
      "  Message('note_on', channel=0, note=52, velocity=73, time=3),\n",
      "  Message('note_on', channel=0, note=52, velocity=0, time=45),\n",
      "  Message('note_on', channel=0, note=57, velocity=73, time=3),\n",
      "  Message('note_on', channel=0, note=57, velocity=0, time=39),\n",
      "  Message('note_on', channel=0, note=59, velocity=74, time=57),\n",
      "  Message('note_on', channel=0, note=59, velocity=0, time=39),\n",
      "  Message('note_on', channel=0, note=62, velocity=91, time=57),\n",
      "  Message('note_on', channel=0, note=62, velocity=0, time=192),\n",
      "  Message('note_on', channel=0, note=61, velocity=78, time=0),\n",
      "  Message('note_on', channel=0, note=61, velocity=0, time=67),\n",
      "  Message('note_on', channel=0, note=62, velocity=76, time=5),\n",
      "  Message('note_on', channel=0, note=62, velocity=0, time=23),\n",
      "  Message('note_on', channel=0, note=59, velocity=75, time=1),\n",
      "  Message('note_on', channel=0, note=59, velocity=0, time=67),\n",
      "  Message('note_on', channel=0, note=61, velocity=73, time=5),\n",
      "  Message('note_on', channel=0, note=61, velocity=0, time=23),\n",
      "  Message('note_on', channel=0, note=57, velocity=73, time=1),\n",
      "  Message('note_on', channel=0, note=57, velocity=0, time=45),\n",
      "  Message('note_on', channel=0, note=56, velocity=73, time=3),\n",
      "  Message('note_on', channel=0, note=56, velocity=0, time=45),\n",
      "  Message('note_on', channel=0, note=54, velocity=73, time=3),\n",
      "  Message('note_on', channel=0, note=54, velocity=0, time=12),\n",
      "  Message('note_on', channel=0, note=55, velocity=73, time=0),\n",
      "  Message('note_on', channel=0, note=55, velocity=0, time=12),\n",
      "  Message('note_on', channel=0, note=54, velocity=73, time=0),\n",
      "  Message('note_on', channel=0, note=54, velocity=0, time=21),\n",
      "  Message('note_on', channel=0, note=52, velocity=73, time=3),\n",
      "  Message('note_on', channel=0, note=52, velocity=0, time=45),\n",
      "  Message('note_on', channel=0, note=57, velocity=73, time=3),\n",
      "  Message('note_on', channel=0, note=57, velocity=0, time=39),\n",
      "  Message('note_on', channel=0, note=56, velocity=73, time=57),\n",
      "  Message('note_on', channel=0, note=53, velocity=73, time=0),\n",
      "  Message('note_on', channel=0, note=56, velocity=0, time=39),\n",
      "  Message('note_on', channel=0, note=53, velocity=0, time=0),\n",
      "  Message('note_on', channel=0, note=57, velocity=73, time=57),\n",
      "  Message('note_on', channel=0, note=54, velocity=73, time=0),\n",
      "  Message('note_on', channel=0, note=57, velocity=0, time=89),\n",
      "  Message('note_on', channel=0, note=54, velocity=0, time=0),\n",
      "  Message('note_on', channel=0, note=72, velocity=82, time=7),\n",
      "  Message('note_on', channel=0, note=72, velocity=0, time=89),\n",
      "  Message('note_on', channel=0, note=73, velocity=81, time=7),\n",
      "  Message('note_on', channel=0, note=73, velocity=0, time=89),\n",
      "  Message('note_on', channel=0, note=74, velocity=80, time=7),\n",
      "  Message('note_on', channel=0, note=74, velocity=0, time=89),\n",
      "  Message('note_on', channel=0, note=73, velocity=79, time=7),\n",
      "  Message('note_on', channel=0, note=73, velocity=0, time=89),\n",
      "  Message('note_on', channel=0, note=33, velocity=73, time=295),\n",
      "  Message('note_on', channel=0, note=33, velocity=0, time=45),\n",
      "  Message('note_on', channel=0, note=45, velocity=73, time=3),\n",
      "  Message('note_on', channel=0, note=45, velocity=0, time=45),\n",
      "  Message('note_on', channel=0, note=45, velocity=73, time=3),\n",
      "  Message('note_on', channel=0, note=45, velocity=0, time=45),\n",
      "  Message('note_on', channel=0, note=45, velocity=73, time=3),\n",
      "  Message('note_on', channel=0, note=45, velocity=0, time=45),\n",
      "  Message('note_on', channel=0, note=45, velocity=74, time=3),\n",
      "  Message('note_on', channel=0, note=45, velocity=0, time=45),\n",
      "  Message('note_on', channel=0, note=45, velocity=74, time=3),\n",
      "  Message('note_on', channel=0, note=45, velocity=0, time=45),\n",
      "  Message('note_on', channel=0, note=45, velocity=74, time=3),\n",
      "  Message('note_on', channel=0, note=45, velocity=0, time=45),\n",
      "  Message('note_on', channel=0, note=45, velocity=75, time=3),\n",
      "  Message('note_on', channel=0, note=45, velocity=0, time=45),\n",
      "  Message('note_on', channel=0, note=45, velocity=75, time=3),\n",
      "  Message('note_on', channel=0, note=45, velocity=0, time=89),\n",
      "  Message('note_on', channel=0, note=33, velocity=78, time=295),\n",
      "  Message('note_on', channel=0, note=33, velocity=0, time=45),\n",
      "  Message('note_on', channel=0, note=45, velocity=78, time=3),\n",
      "  Message('note_on', channel=0, note=45, velocity=0, time=45),\n",
      "  Message('note_on', channel=0, note=45, velocity=79, time=3),\n",
      "  Message('note_on', channel=0, note=45, velocity=0, time=45),\n",
      "  Message('note_on', channel=0, note=45, velocity=79, time=3),\n",
      "  Message('note_on', channel=0, note=45, velocity=0, time=45),\n",
      "  Message('note_on', channel=0, note=45, velocity=79, time=3),\n",
      "  Message('note_on', channel=0, note=45, velocity=0, time=45),\n",
      "  Message('note_on', channel=0, note=45, velocity=80, time=3),\n",
      "  Message('note_on', channel=0, note=45, velocity=0, time=45),\n",
      "  Message('note_on', channel=0, note=45, velocity=80, time=3),\n",
      "  Message('note_on', channel=0, note=45, velocity=0, time=45),\n",
      "  Message('note_on', channel=0, note=45, velocity=80, time=3),\n",
      "  Message('note_on', channel=0, note=45, velocity=0, time=45),\n",
      "  Message('note_on', channel=0, note=45, velocity=81, time=3),\n",
      "  Message('note_on', channel=0, note=45, velocity=0, time=89),\n",
      "  Message('note_on', channel=0, note=62, velocity=84, time=295),\n",
      "  Message('note_on', channel=0, note=62, velocity=0, time=23),\n",
      "  Message('note_on', channel=0, note=61, velocity=84, time=1),\n",
      "  Message('note_on', channel=0, note=61, velocity=0, time=23),\n",
      "  Message('note_on', channel=0, note=62, velocity=84, time=1),\n",
      "  Message('note_on', channel=0, note=62, velocity=0, time=23),\n",
      "  Message('note_on', channel=0, note=61, velocity=84, time=1),\n",
      "  Message('note_on', channel=0, note=61, velocity=0, time=23),\n",
      "  Message('note_on', channel=0, note=62, velocity=84, time=1),\n",
      "  Message('note_on', channel=0, note=62, velocity=0, time=23),\n",
      "  Message('note_on', channel=0, note=61, velocity=85, time=1),\n",
      "  Message('note_on', channel=0, note=61, velocity=0, time=23),\n",
      "  Message('note_on', channel=0, note=62, velocity=85, time=1),\n",
      "  Message('note_on', channel=0, note=62, velocity=0, time=23),\n",
      "  Message('note_on', channel=0, note=61, velocity=85, time=1),\n",
      "  Message('note_on', channel=0, note=61, velocity=0, time=23),\n",
      "  Message('note_on', channel=0, note=62, velocity=85, time=1),\n",
      "  Message('note_on', channel=0, note=62, velocity=0, time=23),\n",
      "  Message('note_on', channel=0, note=64, velocity=85, time=1),\n",
      "  Message('note_on', channel=0, note=64, velocity=0, time=23),\n",
      "  Message('note_on', channel=0, note=66, velocity=85, time=1),\n",
      "  Message('note_on', channel=0, note=66, velocity=0, time=23),\n",
      "  Message('note_on', channel=0, note=67, velocity=86, time=1),\n",
      "  Message('note_on', channel=0, note=67, velocity=0, time=23),\n",
      "  Message('note_on', channel=0, note=69, velocity=86, time=1),\n",
      "  Message('note_on', channel=0, note=69, velocity=0, time=23),\n",
      "  Message('note_on', channel=0, note=71, velocity=86, time=1),\n",
      "  Message('note_on', channel=0, note=71, velocity=0, time=23),\n",
      "  Message('note_on', channel=0, note=73, velocity=86, time=1),\n",
      "  Message('note_on', channel=0, note=73, velocity=0, time=23),\n",
      "  Message('note_on', channel=0, note=74, velocity=86, time=1),\n",
      "  Message('note_on', channel=0, note=74, velocity=0, time=23),\n",
      "  Message('note_on', channel=0, note=59, velocity=87, time=1),\n",
      "  Message('note_on', channel=0, note=59, velocity=0, time=23),\n",
      "  Message('note_on', channel=0, note=58, velocity=87, time=1),\n",
      "  Message('note_on', channel=0, note=58, velocity=0, time=23),\n",
      "  Message('note_on', channel=0, note=59, velocity=87, time=1),\n",
      "  Message('note_on', channel=0, note=59, velocity=0, time=23),\n",
      "  Message('note_on', channel=0, note=58, velocity=87, time=1),\n",
      "  Message('note_on', channel=0, note=58, velocity=0, time=23),\n",
      "  Message('note_on', channel=0, note=59, velocity=87, time=1),\n",
      "  Message('note_on', channel=0, note=59, velocity=0, time=23),\n",
      "  Message('note_on', channel=0, note=58, velocity=87, time=1),\n",
      "  Message('note_on', channel=0, note=58, velocity=0, time=23),\n",
      "  Message('note_on', channel=0, note=59, velocity=87, time=1),\n",
      "  Message('note_on', channel=0, note=59, velocity=0, time=23),\n",
      "  Message('note_on', channel=0, note=58, velocity=87, time=1),\n",
      "  Message('note_on', channel=0, note=58, velocity=0, time=23),\n",
      "  Message('note_on', channel=0, note=59, velocity=87, time=1),\n",
      "  Message('note_on', channel=0, note=59, velocity=0, time=23),\n",
      "  Message('note_on', channel=0, note=61, velocity=87, time=1),\n",
      "  Message('note_on', channel=0, note=61, velocity=0, time=23),\n",
      "  Message('note_on', channel=0, note=62, velocity=87, time=1),\n",
      "  Message('note_on', channel=0, note=62, velocity=0, time=23),\n",
      "  Message('note_on', channel=0, note=64, velocity=87, time=1),\n",
      "  Message('note_on', channel=0, note=64, velocity=0, time=23),\n",
      "  Message('note_on', channel=0, note=66, velocity=87, time=1),\n",
      "  Message('note_on', channel=0, note=66, velocity=0, time=23),\n",
      "  Message('note_on', channel=0, note=68, velocity=87, time=1),\n",
      "  Message('note_on', channel=0, note=68, velocity=0, time=23),\n",
      "  Message('note_on', channel=0, note=69, velocity=87, time=1),\n",
      "  Message('note_on', channel=0, note=69, velocity=0, time=23),\n",
      "  Message('note_on', channel=0, note=71, velocity=87, time=1),\n",
      "  Message('note_on', channel=0, note=71, velocity=0, time=23),\n",
      "  Message('note_on', channel=0, note=61, velocity=87, time=1),\n",
      "  Message('note_on', channel=0, note=61, velocity=0, time=23),\n",
      "  Message('note_on', channel=0, note=60, velocity=87, time=1),\n",
      "  Message('note_on', channel=0, note=60, velocity=0, time=23),\n",
      "  Message('note_on', channel=0, note=61, velocity=87, time=1),\n",
      "  Message('note_on', channel=0, note=61, velocity=0, time=23),\n",
      "  Message('note_on', channel=0, note=60, velocity=87, time=1),\n",
      "  Message('note_on', channel=0, note=60, velocity=0, time=23),\n",
      "  Message('note_on', channel=0, note=61, velocity=87, time=1),\n",
      "  Message('note_on', channel=0, note=61, velocity=0, time=23),\n",
      "  Message('note_on', channel=0, note=60, velocity=87, time=1),\n",
      "  Message('note_on', channel=0, note=60, velocity=0, time=23),\n",
      "  Message('note_on', channel=0, note=61, velocity=87, time=1),\n",
      "  Message('note_on', channel=0, note=61, velocity=0, time=23),\n",
      "  Message('note_on', channel=0, note=60, velocity=87, time=1),\n",
      "  Message('note_on', channel=0, note=60, velocity=0, time=23),\n",
      "  Message('note_on', channel=0, note=61, velocity=87, time=1),\n",
      "  Message('note_on', channel=0, note=61, velocity=0, time=23),\n",
      "  Message('note_on', channel=0, note=62, velocity=87, time=1),\n",
      "  Message('note_on', channel=0, note=62, velocity=0, time=23),\n",
      "  Message('note_on', channel=0, note=64, velocity=87, time=1),\n",
      "  Message('note_on', channel=0, note=64, velocity=0, time=23),\n",
      "  Message('note_on', channel=0, note=66, velocity=87, time=1),\n",
      "  Message('note_on', channel=0, note=66, velocity=0, time=23),\n",
      "  Message('note_on', channel=0, note=68, velocity=87, time=1),\n",
      "  Message('note_on', channel=0, note=68, velocity=0, time=23),\n",
      "  Message('note_on', channel=0, note=69, velocity=87, time=1),\n",
      "  Message('note_on', channel=0, note=69, velocity=0, time=23),\n",
      "  Message('note_on', channel=0, note=71, velocity=87, time=1),\n",
      "  Message('note_on', channel=0, note=71, velocity=0, time=23),\n",
      "  Message('note_on', channel=0, note=73, velocity=87, time=1),\n",
      "  Message('note_on', channel=0, note=73, velocity=0, time=23),\n",
      "  Message('note_on', channel=0, note=57, velocity=87, time=1),\n",
      "  Message('note_on', channel=0, note=57, velocity=0, time=23),\n",
      "  Message('note_on', channel=0, note=56, velocity=87, time=1),\n",
      "  Message('note_on', channel=0, note=56, velocity=0, time=23),\n",
      "  Message('note_on', channel=0, note=57, velocity=87, time=1),\n",
      "  Message('note_on', channel=0, note=57, velocity=0, time=23),\n",
      "  Message('note_on', channel=0, note=56, velocity=87, time=1),\n",
      "  Message('note_on', channel=0, note=56, velocity=0, time=23),\n",
      "  Message('note_on', channel=0, note=57, velocity=87, time=1),\n",
      "  Message('note_on', channel=0, note=57, velocity=0, time=23),\n",
      "  Message('note_on', channel=0, note=56, velocity=87, time=1),\n",
      "  Message('note_on', channel=0, note=56, velocity=0, time=23),\n",
      "  Message('note_on', channel=0, note=57, velocity=87, time=1),\n",
      "  Message('note_on', channel=0, note=57, velocity=0, time=23),\n",
      "  Message('note_on', channel=0, note=56, velocity=87, time=1),\n",
      "  Message('note_on', channel=0, note=56, velocity=0, time=23),\n",
      "  Message('note_on', channel=0, note=57, velocity=87, time=1),\n",
      "  Message('note_on', channel=0, note=57, velocity=0, time=23),\n",
      "  Message('note_on', channel=0, note=59, velocity=87, time=1),\n",
      "  Message('note_on', channel=0, note=59, velocity=0, time=23),\n",
      "  Message('note_on', channel=0, note=61, velocity=87, time=1),\n",
      "  Message('note_on', channel=0, note=61, velocity=0, time=23),\n",
      "  Message('note_on', channel=0, note=62, velocity=87, time=1),\n",
      "  Message('note_on', channel=0, note=62, velocity=0, time=23),\n",
      "  Message('note_on', channel=0, note=64, velocity=87, time=1),\n",
      "  Message('note_on', channel=0, note=64, velocity=0, time=23),\n",
      "  Message('note_on', channel=0, note=66, velocity=87, time=1),\n",
      "  Message('note_on', channel=0, note=66, velocity=0, time=23),\n",
      "  Message('note_on', channel=0, note=68, velocity=87, time=1),\n",
      "  Message('note_on', channel=0, note=68, velocity=0, time=23),\n",
      "  Message('note_on', channel=0, note=69, velocity=87, time=1),\n",
      "  Message('note_on', channel=0, note=69, velocity=0, time=23),\n",
      "  Message('note_on', channel=0, note=54, velocity=87, time=1),\n",
      "  Message('note_on', channel=0, note=54, velocity=0, time=23),\n",
      "  Message('note_on', channel=0, note=53, velocity=87, time=1),\n",
      "  Message('note_on', channel=0, note=53, velocity=0, time=23),\n",
      "  Message('note_on', channel=0, note=54, velocity=87, time=1),\n",
      "  Message('note_on', channel=0, note=54, velocity=0, time=23),\n",
      "  Message('note_on', channel=0, note=53, velocity=87, time=1),\n",
      "  Message('note_on', channel=0, note=53, velocity=0, time=23),\n",
      "  Message('note_on', channel=0, note=54, velocity=87, time=1),\n",
      "  Message('note_on', channel=0, note=54, velocity=0, time=23),\n",
      "  Message('note_on', channel=0, note=53, velocity=87, time=1),\n",
      "  Message('note_on', channel=0, note=53, velocity=0, time=23),\n",
      "  Message('note_on', channel=0, note=54, velocity=87, time=1),\n",
      "  Message('note_on', channel=0, note=54, velocity=0, time=23),\n",
      "  Message('note_on', channel=0, note=53, velocity=87, time=1),\n",
      "  Message('note_on', channel=0, note=53, velocity=0, time=23),\n",
      "  Message('note_on', channel=0, note=54, velocity=87, time=1),\n",
      "  Message('note_on', channel=0, note=54, velocity=0, time=23),\n",
      "  Message('note_on', channel=0, note=56, velocity=87, time=1),\n",
      "  Message('note_on', channel=0, note=56, velocity=0, time=23),\n",
      "  Message('note_on', channel=0, note=57, velocity=87, time=1),\n",
      "  Message('note_on', channel=0, note=57, velocity=0, time=23),\n",
      "  Message('note_on', channel=0, note=59, velocity=87, time=1),\n",
      "  Message('note_on', channel=0, note=59, velocity=0, time=23),\n",
      "  Message('note_on', channel=0, note=61, velocity=87, time=1),\n",
      "  Message('note_on', channel=0, note=61, velocity=0, time=23),\n",
      "  Message('note_on', channel=0, note=62, velocity=87, time=1),\n",
      "  Message('note_on', channel=0, note=62, velocity=0, time=23),\n",
      "  Message('note_on', channel=0, note=64, velocity=87, time=1),\n",
      "  Message('note_on', channel=0, note=64, velocity=0, time=23),\n",
      "  Message('note_on', channel=0, note=66, velocity=87, time=1),\n",
      "  Message('note_on', channel=0, note=66, velocity=0, time=23),\n",
      "  Message('note_on', channel=0, note=50, velocity=87, time=1),\n",
      "  Message('note_on', channel=0, note=50, velocity=0, time=23),\n",
      "  Message('note_on', channel=0, note=49, velocity=87, time=1),\n",
      "  Message('note_on', channel=0, note=49, velocity=0, time=23),\n",
      "  Message('note_on', channel=0, note=50, velocity=87, time=1),\n",
      "  Message('note_on', channel=0, note=50, velocity=0, time=23),\n",
      "  Message('note_on', channel=0, note=49, velocity=87, time=1),\n",
      "  Message('note_on', channel=0, note=49, velocity=0, time=23),\n",
      "  Message('note_on', channel=0, note=50, velocity=87, time=1),\n",
      "  Message('note_on', channel=0, note=50, velocity=0, time=23),\n",
      "  Message('note_on', channel=0, note=49, velocity=87, time=1),\n",
      "  Message('note_on', channel=0, note=49, velocity=0, time=23),\n",
      "  Message('note_on', channel=0, note=50, velocity=87, time=1),\n",
      "  Message('note_on', channel=0, note=50, velocity=0, time=23),\n",
      "  Message('note_on', channel=0, note=49, velocity=87, time=1),\n",
      "  Message('note_on', channel=0, note=49, velocity=0, time=23),\n",
      "  Message('note_on', channel=0, note=50, velocity=87, time=1),\n",
      "  Message('note_on', channel=0, note=50, velocity=0, time=23),\n",
      "  Message('note_on', channel=0, note=52, velocity=87, time=1),\n",
      "  Message('note_on', channel=0, note=52, velocity=0, time=23),\n",
      "  Message('note_on', channel=0, note=54, velocity=87, time=1),\n",
      "  Message('note_on', channel=0, note=54, velocity=0, time=23),\n",
      "  Message('note_on', channel=0, note=56, velocity=87, time=1),\n",
      "  Message('note_on', channel=0, note=56, velocity=0, time=23),\n",
      "  Message('note_on', channel=0, note=57, velocity=87, time=1),\n",
      "  Message('note_on', channel=0, note=57, velocity=0, time=23),\n",
      "  Message('note_on', channel=0, note=59, velocity=87, time=1),\n",
      "  Message('note_on', channel=0, note=59, velocity=0, time=23),\n",
      "  Message('note_on', channel=0, note=61, velocity=87, time=1),\n",
      "  Message('note_on', channel=0, note=61, velocity=0, time=23),\n",
      "  Message('note_on', channel=0, note=62, velocity=87, time=1),\n",
      "  Message('note_on', channel=0, note=62, velocity=0, time=23),\n",
      "  Message('note_on', channel=0, note=56, velocity=87, time=1),\n",
      "  Message('note_on', channel=0, note=56, velocity=0, time=23),\n",
      "  Message('note_on', channel=0, note=57, velocity=87, time=1),\n",
      "  Message('note_on', channel=0, note=57, velocity=0, time=23),\n",
      "  Message('note_on', channel=0, note=59, velocity=87, time=1),\n",
      "  Message('note_on', channel=0, note=59, velocity=0, time=23),\n",
      "  Message('note_on', channel=0, note=57, velocity=87, time=1),\n",
      "  Message('note_on', channel=0, note=57, velocity=0, time=23),\n",
      "  Message('note_on', channel=0, note=56, velocity=87, time=1),\n",
      "  Message('note_on', channel=0, note=56, velocity=0, time=23),\n",
      "  Message('note_on', channel=0, note=52, velocity=87, time=1),\n",
      "  Message('note_on', channel=0, note=52, velocity=0, time=23),\n",
      "  Message('note_on', channel=0, note=54, velocity=87, time=1),\n",
      "  Message('note_on', channel=0, note=54, velocity=0, time=23),\n",
      "  Message('note_on', channel=0, note=56, velocity=87, time=1),\n",
      "  Message('note_on', channel=0, note=56, velocity=0, time=23),\n",
      "  Message('note_on', channel=0, note=57, velocity=87, time=1),\n",
      "  Message('note_on', channel=0, note=57, velocity=0, time=23),\n",
      "  Message('note_on', channel=0, note=59, velocity=87, time=1),\n",
      "  Message('note_on', channel=0, note=59, velocity=0, time=23),\n",
      "  Message('note_on', channel=0, note=61, velocity=87, time=1),\n",
      "  Message('note_on', channel=0, note=61, velocity=0, time=23),\n",
      "  Message('note_on', channel=0, note=59, velocity=87, time=1),\n",
      "  Message('note_on', channel=0, note=59, velocity=0, time=23),\n",
      "  Message('note_on', channel=0, note=61, velocity=87, time=1),\n",
      "  Message('note_on', channel=0, note=61, velocity=0, time=23),\n",
      "  Message('note_on', channel=0, note=59, velocity=87, time=1),\n",
      "  Message('note_on', channel=0, note=59, velocity=0, time=23),\n",
      "  Message('note_on', channel=0, note=57, velocity=87, time=1),\n",
      "  Message('note_on', channel=0, note=57, velocity=0, time=23),\n",
      "  Message('note_on', channel=0, note=56, velocity=87, time=1),\n",
      "  Message('note_on', channel=0, note=56, velocity=0, time=23),\n",
      "  Message('note_on', channel=0, note=54, velocity=87, time=1),\n",
      "  Message('note_on', channel=0, note=54, velocity=0, time=23),\n",
      "  Message('note_on', channel=0, note=56, velocity=87, time=1),\n",
      "  Message('note_on', channel=0, note=56, velocity=0, time=23),\n",
      "  Message('note_on', channel=0, note=57, velocity=87, time=1),\n",
      "  Message('note_on', channel=0, note=57, velocity=0, time=23),\n",
      "  Message('note_on', channel=0, note=56, velocity=87, time=1),\n",
      "  Message('note_on', channel=0, note=56, velocity=0, time=23),\n",
      "  Message('note_on', channel=0, note=54, velocity=87, time=1),\n",
      "  Message('note_on', channel=0, note=54, velocity=0, time=23),\n",
      "  Message('note_on', channel=0, note=50, velocity=87, time=1),\n",
      "  Message('note_on', channel=0, note=50, velocity=0, time=23),\n",
      "  Message('note_on', channel=0, note=52, velocity=87, time=1),\n",
      "  Message('note_on', channel=0, note=52, velocity=0, time=23),\n",
      "  Message('note_on', channel=0, note=54, velocity=87, time=1),\n",
      "  Message('note_on', channel=0, note=54, velocity=0, time=23),\n",
      "  Message('note_on', channel=0, note=56, velocity=87, time=1),\n",
      "  Message('note_on', channel=0, note=56, velocity=0, time=23),\n",
      "  Message('note_on', channel=0, note=57, velocity=87, time=1),\n",
      "  Message('note_on', channel=0, note=57, velocity=0, time=23),\n",
      "  Message('note_on', channel=0, note=59, velocity=87, time=1),\n",
      "  Message('note_on', channel=0, note=59, velocity=0, time=23),\n",
      "  Message('note_on', channel=0, note=57, velocity=87, time=1),\n",
      "  Message('note_on', channel=0, note=57, velocity=0, time=23),\n",
      "  Message('note_on', channel=0, note=56, velocity=87, time=1),\n",
      "  Message('note_on', channel=0, note=56, velocity=0, time=23),\n",
      "  Message('note_on', channel=0, note=54, velocity=87, time=1),\n",
      "  Message('note_on', channel=0, note=54, velocity=0, time=23),\n",
      "  Message('note_on', channel=0, note=52, velocity=87, time=1),\n",
      "  Message('note_on', channel=0, note=52, velocity=0, time=23),\n",
      "  Message('note_on', channel=0, note=50, velocity=87, time=1),\n",
      "  Message('note_on', channel=0, note=50, velocity=0, time=23),\n",
      "  Message('note_on', channel=0, note=49, velocity=87, time=1),\n",
      "  Message('note_on', channel=0, note=49, velocity=0, time=23),\n",
      "  Message('note_on', channel=0, note=52, velocity=87, time=1),\n",
      "  Message('note_on', channel=0, note=52, velocity=0, time=23),\n",
      "  Message('note_on', channel=0, note=50, velocity=87, time=1),\n",
      "  Message('note_on', channel=0, note=50, velocity=0, time=23),\n",
      "  Message('note_on', channel=0, note=49, velocity=87, time=1),\n",
      "  Message('note_on', channel=0, note=49, velocity=0, time=23),\n",
      "  Message('note_on', channel=0, note=50, velocity=87, time=1),\n",
      "  Message('note_on', channel=0, note=50, velocity=0, time=23),\n",
      "  Message('note_on', channel=0, note=52, velocity=87, time=1),\n",
      "  Message('note_on', channel=0, note=52, velocity=0, time=23),\n",
      "  Message('note_on', channel=0, note=54, velocity=87, time=1),\n",
      "  Message('note_on', channel=0, note=54, velocity=0, time=23),\n",
      "  Message('note_on', channel=0, note=56, velocity=87, time=1),\n",
      "  Message('note_on', channel=0, note=56, velocity=0, time=23),\n",
      "  Message('note_on', channel=0, note=57, velocity=87, time=1),\n",
      "  Message('note_on', channel=0, note=57, velocity=0, time=23),\n",
      "  Message('note_on', channel=0, note=59, velocity=87, time=1),\n",
      "  Message('note_on', channel=0, note=59, velocity=0, time=23),\n",
      "  Message('note_on', channel=0, note=61, velocity=87, time=1),\n",
      "  Message('note_on', channel=0, note=61, velocity=0, time=23),\n",
      "  Message('note_on', channel=0, note=62, velocity=87, time=1),\n",
      "  Message('note_on', channel=0, note=62, velocity=0, time=23),\n",
      "  Message('note_on', channel=0, note=64, velocity=87, time=1),\n",
      "  Message('note_on', channel=0, note=64, velocity=0, time=23),\n",
      "  Message('note_on', channel=0, note=66, velocity=87, time=1),\n",
      "  Message('note_on', channel=0, note=66, velocity=0, time=23),\n",
      "  Message('note_on', channel=0, note=68, velocity=87, time=1),\n",
      "  Message('note_on', channel=0, note=68, velocity=0, time=23),\n",
      "  Message('note_on', channel=0, note=69, velocity=87, time=1),\n",
      "  Message('note_on', channel=0, note=69, velocity=0, time=23),\n",
      "  Message('note_on', channel=0, note=66, velocity=87, time=1),\n",
      "  Message('note_on', channel=0, note=66, velocity=0, time=23),\n",
      "  Message('note_on', channel=0, note=68, velocity=87, time=1),\n",
      "  Message('note_on', channel=0, note=68, velocity=0, time=23),\n",
      "  Message('note_on', channel=0, note=66, velocity=87, time=1),\n",
      "  Message('note_on', channel=0, note=66, velocity=0, time=23),\n",
      "  Message('note_on', channel=0, note=64, velocity=87, time=1),\n",
      "  Message('note_on', channel=0, note=64, velocity=0, time=23),\n",
      "  Message('note_on', channel=0, note=62, velocity=87, time=1),\n",
      "  Message('note_on', channel=0, note=62, velocity=0, time=23),\n",
      "  Message('note_on', channel=0, note=61, velocity=87, time=1),\n",
      "  Message('note_on', channel=0, note=61, velocity=0, time=23),\n",
      "  Message('note_on', channel=0, note=59, velocity=87, time=1),\n",
      "  Message('note_on', channel=0, note=59, velocity=0, time=23),\n",
      "  Message('note_on', channel=0, note=57, velocity=87, time=1),\n",
      "  Message('note_on', channel=0, note=57, velocity=0, time=23),\n",
      "  Message('note_on', channel=0, note=56, velocity=87, time=1),\n",
      "  Message('note_on', channel=0, note=56, velocity=0, time=23),\n",
      "  Message('note_on', channel=0, note=57, velocity=87, time=1),\n",
      "  Message('note_on', channel=0, note=57, velocity=0, time=23),\n",
      "  Message('note_on', channel=0, note=56, velocity=87, time=1),\n",
      "  Message('note_on', channel=0, note=56, velocity=0, time=23),\n",
      "  Message('note_on', channel=0, note=54, velocity=87, time=1),\n",
      "  Message('note_on', channel=0, note=54, velocity=0, time=23),\n",
      "  Message('note_on', channel=0, note=52, velocity=87, time=1),\n",
      "  Message('note_on', channel=0, note=52, velocity=0, time=23),\n",
      "  Message('note_on', channel=0, note=50, velocity=87, time=1),\n",
      "  Message('note_on', channel=0, note=50, velocity=0, time=23),\n",
      "  Message('note_on', channel=0, note=49, velocity=87, time=1),\n",
      "  Message('note_on', channel=0, note=49, velocity=0, time=23),\n",
      "  Message('note_on', channel=0, note=47, velocity=87, time=1),\n",
      "  Message('note_on', channel=0, note=47, velocity=0, time=23),\n",
      "  Message('note_on', channel=0, note=45, velocity=87, time=1),\n",
      "  Message('note_on', channel=0, note=45, velocity=0, time=89),\n",
      "  Message('note_on', channel=0, note=61, velocity=73, time=199),\n",
      "  Message('note_on', channel=0, note=49, velocity=73, time=0),\n",
      "  Message('note_on', channel=0, note=61, velocity=0, time=20),\n",
      "  Message('note_on', channel=0, note=49, velocity=0, time=0),\n",
      "  Message('note_on', channel=0, note=59, velocity=73, time=28),\n",
      "  Message('note_on', channel=0, note=47, velocity=73, time=0),\n",
      "  Message('note_on', channel=0, note=59, velocity=0, time=20),\n",
      "  Message('note_on', channel=0, note=47, velocity=0, time=0),\n",
      "  Message('note_on', channel=0, note=58, velocity=73, time=28),\n",
      "  Message('note_on', channel=0, note=46, velocity=73, time=0),\n",
      "  Message('note_on', channel=0, note=58, velocity=0, time=177),\n",
      "  Message('note_on', channel=0, note=46, velocity=0, time=0),\n",
      "  Message('note_on', channel=0, note=59, velocity=73, time=15),\n",
      "  Message('note_on', channel=0, note=47, velocity=73, time=0),\n",
      "  Message('note_on', channel=0, note=59, velocity=0, time=177),\n",
      "  Message('note_on', channel=0, note=47, velocity=0, time=0),\n",
      "  Message('note_on', channel=0, note=56, velocity=73, time=15),\n",
      "  Message('note_on', channel=0, note=44, velocity=73, time=0),\n",
      "  Message('note_on', channel=0, note=56, velocity=0, time=177),\n",
      "  Message('note_on', channel=0, note=44, velocity=0, time=0),\n",
      "  Message('note_on', channel=0, note=57, velocity=74, time=15),\n",
      "  Message('note_on', channel=0, note=45, velocity=74, time=0),\n",
      "  Message('note_on', channel=0, note=57, velocity=0, time=177),\n",
      "  Message('note_on', channel=0, note=45, velocity=0, time=0),\n",
      "  Message('note_on', channel=0, note=54, velocity=75, time=15),\n",
      "  Message('note_on', channel=0, note=42, velocity=75, time=0),\n",
      "  Message('note_on', channel=0, note=54, velocity=0, time=177),\n",
      "  Message('note_on', channel=0, note=42, velocity=0, time=0),\n",
      "  Message('note_on', channel=0, note=56, velocity=77, time=15),\n",
      "  Message('note_on', channel=0, note=44, velocity=77, time=0),\n",
      "  Message('note_on', channel=0, note=56, velocity=0, time=177),\n",
      "  Message('note_on', channel=0, note=44, velocity=0, time=0),\n",
      "  Message('note_on', channel=0, note=53, velocity=78, time=15),\n",
      "  Message('note_on', channel=0, note=41, velocity=78, time=0),\n",
      "  Message('note_on', channel=0, note=53, velocity=0, time=177),\n",
      "  Message('note_on', channel=0, note=41, velocity=0, time=0),\n",
      "  Message('note_on', channel=0, note=54, velocity=80, time=15),\n",
      "  Message('note_on', channel=0, note=42, velocity=80, time=0),\n",
      "  Message('note_on', channel=0, note=54, velocity=0, time=133),\n",
      "  Message('note_on', channel=0, note=42, velocity=0, time=0),\n",
      "  Message('note_on', channel=0, note=52, velocity=81, time=11),\n",
      "  Message('note_on', channel=0, note=40, velocity=81, time=0),\n",
      "  Message('note_on', channel=0, note=52, velocity=0, time=45),\n",
      "  Message('note_on', channel=0, note=40, velocity=0, time=0),\n",
      "  Message('note_on', channel=0, note=50, velocity=81, time=3),\n",
      "  Message('note_on', channel=0, note=38, velocity=81, time=0),\n",
      "  Message('note_on', channel=0, note=50, velocity=0, time=45),\n",
      "  Message('note_on', channel=0, note=38, velocity=0, time=0),\n",
      "  Message('note_on', channel=0, note=50, velocity=82, time=51),\n",
      "  Message('note_on', channel=0, note=38, velocity=82, time=0),\n",
      "  Message('note_on', channel=0, note=50, velocity=0, time=45),\n",
      "  Message('note_on', channel=0, note=38, velocity=0, time=0),\n",
      "  Message('note_on', channel=0, note=50, velocity=82, time=51),\n",
      "  Message('note_on', channel=0, note=38, velocity=82, time=0),\n",
      "  Message('note_on', channel=0, note=50, velocity=0, time=45),\n",
      "  Message('note_on', channel=0, note=38, velocity=0, time=0),\n",
      "  Message('note_on', channel=0, note=50, velocity=83, time=51),\n",
      "  Message('note_on', channel=0, note=38, velocity=83, time=0),\n",
      "  Message('note_on', channel=0, note=50, velocity=0, time=45),\n",
      "  Message('note_on', channel=0, note=38, velocity=0, time=0),\n",
      "  Message('note_on', channel=0, note=51, velocity=84, time=51),\n",
      "  Message('note_on', channel=0, note=39, velocity=84, time=0),\n",
      "  Message('note_on', channel=0, note=51, velocity=0, time=45),\n",
      "  Message('note_on', channel=0, note=39, velocity=0, time=0),\n",
      "  Message('note_on', channel=0, note=51, velocity=84, time=51),\n",
      "  Message('note_on', channel=0, note=39, velocity=84, time=0),\n",
      "  Message('note_on', channel=0, note=51, velocity=0, time=45),\n",
      "  Message('note_on', channel=0, note=39, velocity=0, time=0),\n",
      "  Message('note_on', channel=0, note=51, velocity=85, time=51),\n",
      "  Message('note_on', channel=0, note=39, velocity=85, time=0),\n",
      "  Message('note_on', channel=0, note=51, velocity=0, time=45),\n",
      "  Message('note_on', channel=0, note=39, velocity=0, time=0),\n",
      "  Message('note_on', channel=0, note=51, velocity=86, time=51),\n",
      "  Message('note_on', channel=0, note=39, velocity=86, time=0),\n",
      "  Message('note_on', channel=0, note=51, velocity=0, time=45),\n",
      "  Message('note_on', channel=0, note=39, velocity=0, time=0),\n",
      "  Message('note_on', channel=0, note=52, velocity=87, time=51),\n",
      "  Message('note_on', channel=0, note=52, velocity=0, time=89),\n",
      "  Message('note_on', channel=0, note=52, velocity=87, time=295),\n",
      "  Message('note_on', channel=0, note=52, velocity=0, time=23),\n",
      "  Message('note_on', channel=0, note=64, velocity=86, time=1),\n",
      "  Message('note_on', channel=0, note=64, velocity=0, time=23),\n",
      "  Message('note_on', channel=0, note=63, velocity=86, time=1),\n",
      "  Message('note_on', channel=0, note=63, velocity=0, time=23),\n",
      "  Message('note_on', channel=0, note=64, velocity=86, time=1),\n",
      "  Message('note_on', channel=0, note=64, velocity=0, time=23),\n",
      "  Message('note_on', channel=0, note=66, velocity=86, time=1),\n",
      "  Message('note_on', channel=0, note=66, velocity=0, time=23),\n",
      "  Message('note_on', channel=0, note=64, velocity=86, time=1),\n",
      "  Message('note_on', channel=0, note=64, velocity=0, time=23),\n",
      "  Message('note_on', channel=0, note=63, velocity=86, time=1),\n",
      "  Message('note_on', channel=0, note=63, velocity=0, time=23),\n",
      "  Message('note_on', channel=0, note=64, velocity=85, time=1),\n",
      "  Message('note_on', channel=0, note=64, velocity=0, time=23),\n",
      "  Message('note_on', channel=0, note=52, velocity=85, time=1),\n",
      "  Message('note_on', channel=0, note=52, velocity=0, time=23),\n",
      "  Message('note_on', channel=0, note=62, velocity=85, time=1),\n",
      "  Message('note_on', channel=0, note=62, velocity=0, time=23),\n",
      "  Message('note_on', channel=0, note=61, velocity=85, time=1),\n",
      "  Message('note_on', channel=0, note=61, velocity=0, time=23),\n",
      "  Message('note_on', channel=0, note=62, velocity=85, time=1),\n",
      "  Message('note_on', channel=0, note=62, velocity=0, time=23),\n",
      "  Message('note_on', channel=0, note=64, velocity=85, time=1),\n",
      "  Message('note_on', channel=0, note=64, velocity=0, time=23),\n",
      "  Message('note_on', channel=0, note=62, velocity=84, time=1),\n",
      "  Message('note_on', channel=0, note=62, velocity=0, time=23),\n",
      "  Message('note_on', channel=0, note=61, velocity=84, time=1),\n",
      "  Message('note_on', channel=0, note=61, velocity=0, time=23),\n",
      "  Message('note_on', channel=0, note=62, velocity=84, time=1),\n",
      "  Message('note_on', channel=0, note=62, velocity=0, time=23),\n",
      "  Message('note_on', channel=0, note=61, velocity=84, time=1),\n",
      "  Message('note_on', channel=0, note=57, velocity=84, time=0),\n",
      "  Message('note_on', channel=0, note=61, velocity=0, time=47),\n",
      "  Message('note_on', channel=0, note=57, velocity=0, time=0),\n",
      "  Message('note_on', channel=0, note=61, velocity=84, time=1),\n",
      "  Message('note_on', channel=0, note=57, velocity=84, time=0),\n",
      "  Message('note_on', channel=0, note=61, velocity=0, time=47),\n",
      "  Message('note_on', channel=0, note=57, velocity=0, time=0),\n",
      "  Message('note_on', channel=0, note=69, velocity=83, time=1),\n",
      "  Message('note_on', channel=0, note=57, velocity=83, time=0),\n",
      "  Message('note_on', channel=0, note=69, velocity=0, time=47),\n",
      "  Message('note_on', channel=0, note=57, velocity=0, time=0),\n",
      "  Message('note_on', channel=0, note=69, velocity=83, time=1),\n",
      "  Message('note_on', channel=0, note=57, velocity=83, time=0),\n",
      "  Message('note_on', channel=0, note=69, velocity=0, time=47),\n",
      "  Message('note_on', channel=0, note=57, velocity=0, time=0),\n",
      "  Message('note_on', channel=0, note=68, velocity=83, time=1),\n",
      "  Message('note_on', channel=0, note=59, velocity=83, time=0),\n",
      "  Message('note_on', channel=0, note=68, velocity=0, time=47),\n",
      "  Message('note_on', channel=0, note=59, velocity=0, time=0),\n",
      "  Message('note_on', channel=0, note=68, velocity=82, time=1),\n",
      "  Message('note_on', channel=0, note=59, velocity=82, time=0),\n",
      "  Message('note_on', channel=0, note=68, velocity=0, time=47),\n",
      "  Message('note_on', channel=0, note=59, velocity=0, time=0),\n",
      "  Message('note_on', channel=0, note=67, velocity=82, time=1),\n",
      "  Message('note_on', channel=0, note=61, velocity=82, time=0),\n",
      "  Message('note_on', channel=0, note=67, velocity=0, time=47),\n",
      "  Message('note_on', channel=0, note=61, velocity=0, time=0),\n",
      "  Message('note_on', channel=0, note=67, velocity=82, time=1),\n",
      "  Message('note_on', channel=0, note=64, velocity=82, time=0),\n",
      "  Message('note_on', channel=0, note=67, velocity=0, time=47),\n",
      "  Message('note_on', channel=0, note=64, velocity=0, time=0),\n",
      "  Message('note_on', channel=0, note=66, velocity=78, time=1),\n",
      "  Message('note_on', channel=0, note=62, velocity=78, time=0),\n",
      "  Message('note_on', channel=0, note=66, velocity=0, time=47),\n",
      "  Message('note_on', channel=0, note=62, velocity=0, time=0),\n",
      "  Message('note_on', channel=0, note=66, velocity=78, time=1),\n",
      "  Message('note_on', channel=0, note=62, velocity=78, time=0),\n",
      "  Message('note_on', channel=0, note=66, velocity=0, time=47),\n",
      "  Message('note_on', channel=0, note=62, velocity=0, time=0),\n",
      "  Message('note_on', channel=0, note=66, velocity=78, time=1),\n",
      "  Message('note_on', channel=0, note=62, velocity=78, time=0),\n",
      "  Message('note_on', channel=0, note=66, velocity=0, time=47),\n",
      "  Message('note_on', channel=0, note=62, velocity=0, time=0),\n",
      "  Message('note_on', channel=0, note=66, velocity=78, time=1),\n",
      "  Message('note_on', channel=0, note=62, velocity=78, time=0),\n",
      "  Message('note_on', channel=0, note=66, velocity=0, time=47),\n",
      "  Message('note_on', channel=0, note=62, velocity=0, time=0),\n",
      "  Message('note_on', channel=0, note=62, velocity=78, time=1),\n",
      "  Message('note_on', channel=0, note=59, velocity=78, time=0),\n",
      "  Message('note_on', channel=0, note=62, velocity=0, time=47),\n",
      "  Message('note_on', channel=0, note=59, velocity=0, time=0),\n",
      "  Message('note_on', channel=0, note=62, velocity=78, time=1),\n",
      "  Message('note_on', channel=0, note=59, velocity=78, time=0),\n",
      "  Message('note_on', channel=0, note=62, velocity=0, time=47),\n",
      "  Message('note_on', channel=0, note=59, velocity=0, time=0),\n",
      "  Message('note_on', channel=0, note=62, velocity=78, time=1),\n",
      "  Message('note_on', channel=0, note=59, velocity=78, time=0),\n",
      "  Message('note_on', channel=0, note=62, velocity=0, time=47),\n",
      "  Message('note_on', channel=0, note=59, velocity=0, time=0),\n",
      "  Message('note_on', channel=0, note=62, velocity=78, time=1),\n",
      "  Message('note_on', channel=0, note=59, velocity=78, time=0),\n",
      "  Message('note_on', channel=0, note=62, velocity=0, time=47),\n",
      "  Message('note_on', channel=0, note=59, velocity=0, time=0),\n",
      "  Message('note_on', channel=0, note=61, velocity=78, time=1),\n",
      "  Message('note_on', channel=0, note=57, velocity=78, time=0),\n",
      "  Message('note_on', channel=0, note=61, velocity=0, time=47),\n",
      "  Message('note_on', channel=0, note=57, velocity=0, time=0),\n",
      "  Message('note_on', channel=0, note=61, velocity=78, time=1),\n",
      "  Message('note_on', channel=0, note=57, velocity=78, time=0),\n",
      "  Message('note_on', channel=0, note=61, velocity=0, time=47),\n",
      "  Message('note_on', channel=0, note=57, velocity=0, time=0),\n",
      "  Message('note_on', channel=0, note=69, velocity=73, time=1),\n",
      "  Message('note_on', channel=0, note=57, velocity=73, time=0),\n",
      "  Message('note_on', channel=0, note=69, velocity=0, time=47),\n",
      "  Message('note_on', channel=0, note=57, velocity=0, time=0),\n",
      "  Message('note_on', channel=0, note=69, velocity=73, time=1),\n",
      "  Message('note_on', channel=0, note=57, velocity=73, time=0),\n",
      "  Message('note_on', channel=0, note=69, velocity=0, time=47),\n",
      "  Message('note_on', channel=0, note=57, velocity=0, time=0),\n",
      "  Message('note_on', channel=0, note=68, velocity=73, time=1),\n",
      "  Message('note_on', channel=0, note=59, velocity=73, time=0),\n",
      "  Message('note_on', channel=0, note=68, velocity=0, time=47),\n",
      "  Message('note_on', channel=0, note=59, velocity=0, time=0),\n",
      "  Message('note_on', channel=0, note=68, velocity=73, time=1),\n",
      "  Message('note_on', channel=0, note=59, velocity=73, time=0),\n",
      "  Message('note_on', channel=0, note=68, velocity=0, time=47),\n",
      "  Message('note_on', channel=0, note=59, velocity=0, time=0),\n",
      "  Message('note_on', channel=0, note=67, velocity=73, time=1),\n",
      "  Message('note_on', channel=0, note=61, velocity=73, time=0),\n",
      "  Message('note_on', channel=0, note=67, velocity=0, time=47),\n",
      "  Message('note_on', channel=0, note=61, velocity=0, time=0),\n",
      "  Message('note_on', channel=0, note=67, velocity=73, time=1),\n",
      "  Message('note_on', channel=0, note=64, velocity=73, time=0),\n",
      "  Message('note_on', channel=0, note=67, velocity=0, time=47),\n",
      "  Message('note_on', channel=0, note=64, velocity=0, time=0),\n",
      "  Message('note_on', channel=0, note=66, velocity=73, time=1),\n",
      "  Message('note_on', channel=0, note=62, velocity=73, time=0),\n",
      "  Message('note_on', channel=0, note=66, velocity=0, time=47),\n",
      "  Message('note_on', channel=0, note=62, velocity=0, time=0),\n",
      "  Message('note_on', channel=0, note=66, velocity=73, time=1),\n",
      "  Message('note_on', channel=0, note=62, velocity=73, time=0),\n",
      "  Message('note_on', channel=0, note=66, velocity=0, time=47),\n",
      "  Message('note_on', channel=0, note=62, velocity=0, time=0),\n",
      "  Message('note_on', channel=0, note=66, velocity=73, time=1),\n",
      "  Message('note_on', channel=0, note=62, velocity=73, time=0),\n",
      "  Message('note_on', channel=0, note=66, velocity=0, time=47),\n",
      "  Message('note_on', channel=0, note=62, velocity=0, time=0),\n",
      "  Message('note_on', channel=0, note=66, velocity=73, time=1),\n",
      "  Message('note_on', channel=0, note=62, velocity=73, time=0),\n",
      "  Message('note_on', channel=0, note=66, velocity=0, time=47),\n",
      "  Message('note_on', channel=0, note=62, velocity=0, time=0),\n",
      "  Message('note_on', channel=0, note=62, velocity=73, time=1),\n",
      "  Message('note_on', channel=0, note=59, velocity=73, time=0),\n",
      "  Message('note_on', channel=0, note=62, velocity=0, time=47),\n",
      "  Message('note_on', channel=0, note=59, velocity=0, time=0),\n",
      "  Message('note_on', channel=0, note=62, velocity=73, time=1),\n",
      "  Message('note_on', channel=0, note=59, velocity=73, time=0),\n",
      "  Message('note_on', channel=0, note=62, velocity=0, time=47),\n",
      "  Message('note_on', channel=0, note=59, velocity=0, time=0),\n",
      "  Message('note_on', channel=0, note=62, velocity=73, time=1),\n",
      "  Message('note_on', channel=0, note=59, velocity=73, time=0),\n",
      "  Message('note_on', channel=0, note=62, velocity=0, time=47),\n",
      "  Message('note_on', channel=0, note=59, velocity=0, time=0),\n",
      "  Message('note_on', channel=0, note=62, velocity=73, time=1),\n",
      "  Message('note_on', channel=0, note=59, velocity=73, time=0),\n",
      "  Message('note_on', channel=0, note=62, velocity=0, time=47),\n",
      "  Message('note_on', channel=0, note=59, velocity=0, time=0),\n",
      "  Message('note_on', channel=0, note=61, velocity=73, time=1),\n",
      "  Message('note_on', channel=0, note=61, velocity=0, time=45),\n",
      "  Message('note_on', channel=0, note=64, velocity=73, time=3),\n",
      "  Message('note_on', channel=0, note=64, velocity=0, time=23),\n",
      "  Message('note_on', channel=0, note=69, velocity=74, time=1),\n",
      "  Message('note_on', channel=0, note=69, velocity=0, time=23),\n",
      "  Message('note_on', channel=0, note=73, velocity=76, time=1),\n",
      "  Message('note_on', channel=0, note=73, velocity=0, time=23),\n",
      "  Message('note_on', channel=0, note=64, velocity=78, time=1),\n",
      "  Message('note_on', channel=0, note=64, velocity=0, time=23),\n",
      "  Message('note_on', channel=0, note=69, velocity=80, time=1),\n",
      "  Message('note_on', channel=0, note=69, velocity=0, time=23),\n",
      "  Message('note_on', channel=0, note=73, velocity=81, time=1),\n",
      "  Message('note_on', channel=0, note=73, velocity=0, time=23),\n",
      "  Message('note_on', channel=0, note=76, velocity=83, time=1),\n",
      "  Message('note_on', channel=0, note=76, velocity=0, time=45),\n",
      "  Message('note_on', channel=0, note=76, velocity=87, time=3),\n",
      "  Message('note_on', channel=0, note=76, velocity=0, time=45),\n",
      "  Message('note_on', channel=0, note=64, velocity=87, time=51),\n",
      "  Message('note_on', channel=0, note=52, velocity=87, time=0),\n",
      "  Message('note_on', channel=0, note=64, velocity=0, time=20),\n",
      "  Message('note_on', channel=0, note=52, velocity=0, time=0),\n",
      "  Message('note_on', channel=0, note=57, velocity=87, time=28),\n",
      "  Message('note_on', channel=0, note=45, velocity=87, time=0),\n",
      "  Message('note_on', channel=0, note=57, velocity=0, time=89),\n",
      "  Message('note_on', channel=0, note=45, velocity=0, time=0),\n",
      "  Message('note_on', channel=0, note=52, velocity=87, time=199),\n",
      "  Message('note_on', channel=0, note=40, velocity=87, time=0),\n",
      "  Message('note_on', channel=0, note=52, velocity=0, time=89),\n",
      "  Message('note_on', channel=0, note=40, velocity=0, time=0),\n",
      "  Message('note_on', channel=0, note=45, velocity=87, time=7),\n",
      "  Message('note_on', channel=0, note=45, velocity=0, time=23),\n",
      "  Message('note_on', channel=0, note=33, velocity=87, time=1),\n",
      "  Message('note_on', channel=0, note=33, velocity=0, time=23),\n",
      "  Message('note_on', channel=0, note=37, velocity=87, time=1),\n",
      "  Message('note_on', channel=0, note=37, velocity=0, time=23),\n",
      "  Message('note_on', channel=0, note=40, velocity=87, time=1),\n",
      "  Message('note_on', channel=0, note=40, velocity=0, time=23),\n",
      "  Message('note_on', channel=0, note=45, velocity=87, time=1),\n",
      "  Message('note_on', channel=0, note=45, velocity=0, time=23),\n",
      "  Message('note_on', channel=0, note=37, velocity=87, time=1),\n",
      "  Message('note_on', channel=0, note=37, velocity=0, time=23),\n",
      "  Message('note_on', channel=0, note=40, velocity=87, time=1),\n",
      "  Message('note_on', channel=0, note=40, velocity=0, time=23),\n",
      "  Message('note_on', channel=0, note=45, velocity=87, time=1),\n",
      "  Message('note_on', channel=0, note=45, velocity=0, time=23),\n",
      "  Message('note_on', channel=0, note=49, velocity=87, time=1),\n",
      "  Message('note_on', channel=0, note=49, velocity=0, time=23),\n",
      "  Message('note_on', channel=0, note=40, velocity=87, time=1),\n",
      "  Message('note_on', channel=0, note=40, velocity=0, time=23),\n",
      "  Message('note_on', channel=0, note=45, velocity=87, time=1),\n",
      "  Message('note_on', channel=0, note=45, velocity=0, time=23),\n",
      "  Message('note_on', channel=0, note=49, velocity=87, time=1),\n",
      "  Message('note_on', channel=0, note=49, velocity=0, time=23),\n",
      "  Message('note_on', channel=0, note=52, velocity=87, time=1),\n",
      "  Message('note_on', channel=0, note=52, velocity=0, time=23),\n",
      "  Message('note_on', channel=0, note=49, velocity=87, time=1),\n",
      "  Message('note_on', channel=0, note=49, velocity=0, time=23),\n",
      "  Message('note_on', channel=0, note=52, velocity=87, time=1),\n",
      "  Message('note_on', channel=0, note=52, velocity=0, time=23),\n",
      "  Message('note_on', channel=0, note=49, velocity=87, time=1),\n",
      "  Message('note_on', channel=0, note=49, velocity=0, time=23),\n",
      "  Message('note_on', channel=0, note=45, velocity=87, time=1),\n",
      "  Message('note_on', channel=0, note=45, velocity=0, time=89),\n",
      "  Message('note_on', channel=0, note=33, velocity=87, time=7),\n",
      "  Message('note_on', channel=0, note=33, velocity=0, time=67),\n",
      "  Message('note_on', channel=0, note=33, velocity=87, time=5),\n",
      "  Message('note_on', channel=0, note=33, velocity=0, time=23),\n",
      "  Message('note_on', channel=0, note=33, velocity=87, time=1),\n",
      "  Message('note_on', channel=0, note=33, velocity=0, time=89),\n",
      "  Message('note_on', channel=0, note=69, velocity=87, time=1639),\n",
      "  Message('note_on', channel=0, note=69, velocity=0, time=177),\n",
      "  Message('note_on', channel=0, note=68, velocity=87, time=15),\n",
      "  Message('note_on', channel=0, note=68, velocity=0, time=89),\n",
      "  Message('note_on', channel=0, note=66, velocity=87, time=7),\n",
      "  Message('note_on', channel=0, note=66, velocity=0, time=89),\n",
      "  Message('note_on', channel=0, note=63, velocity=87, time=7),\n",
      "  Message('note_on', channel=0, note=63, velocity=0, time=89),\n",
      "  Message('note_on', channel=0, note=64, velocity=87, time=7),\n",
      "  Message('note_on', channel=0, note=64, velocity=0, time=141),\n",
      "  Message('note_on', channel=0, note=57, velocity=87, time=3),\n",
      "  Message('note_on', channel=0, note=57, velocity=0, time=45),\n",
      "  Message('note_on', channel=0, note=62, velocity=87, time=3),\n",
      "  Message('note_on', channel=0, note=62, velocity=0, time=45),\n",
      "  Message('note_on', channel=0, note=61, velocity=87, time=3),\n",
      "  Message('note_on', channel=0, note=61, velocity=0, time=45),\n",
      "  Message('note_on', channel=0, note=60, velocity=87, time=3),\n",
      "  Message('note_on', channel=0, note=60, velocity=0, time=89),\n",
      "  Message('note_on', channel=0, note=61, velocity=87, time=7),\n",
      "  Message('note_on', channel=0, note=61, velocity=0, time=141),\n",
      "  Message('note_on', channel=0, note=54, velocity=87, time=3),\n",
      "  Message('note_on', channel=0, note=54, velocity=0, time=45),\n",
      "  Message('note_on', channel=0, note=59, velocity=87, time=3),\n",
      "  Message('note_on', channel=0, note=59, velocity=0, time=45),\n",
      "  Message('note_on', channel=0, note=57, velocity=87, time=3),\n",
      "  Message('note_on', channel=0, note=57, velocity=0, time=45),\n",
      "  Message('note_on', channel=0, note=56, velocity=87, time=3),\n",
      "  Message('note_on', channel=0, note=56, velocity=0, time=89),\n",
      "  Message('note_on', channel=0, note=57, velocity=87, time=7),\n",
      "  Message('note_on', channel=0, note=57, velocity=0, time=89),\n",
      "  Message('note_on', channel=0, note=64, velocity=87, time=7),\n",
      "  Message('note_on', channel=0, note=64, velocity=0, time=18),\n",
      "  Message('note_on', channel=0, note=62, velocity=87, time=0),\n",
      "  Message('note_on', channel=0, note=62, velocity=0, time=18),\n",
      "  Message('note_on', channel=0, note=64, velocity=87, time=0),\n",
      "  Message('note_on', channel=0, note=64, velocity=0, time=18),\n",
      "  Message('note_on', channel=0, note=62, velocity=87, time=0),\n",
      "  Message('note_on', channel=0, note=62, velocity=0, time=18),\n",
      "  Message('note_on', channel=0, note=64, velocity=87, time=0),\n",
      "  Message('note_on', channel=0, note=64, velocity=0, time=18),\n",
      "  Message('note_on', channel=0, note=62, velocity=87, time=0),\n",
      "  Message('note_on', channel=0, note=62, velocity=0, time=18),\n",
      "  Message('note_on', channel=0, note=64, velocity=87, time=0),\n",
      "  Message('note_on', channel=0, note=64, velocity=0, time=18),\n",
      "  Message('note_on', channel=0, note=62, velocity=87, time=0),\n",
      "  Message('note_on', channel=0, note=62, velocity=0, time=7),\n",
      "  Message('note_on', channel=0, note=61, velocity=87, time=11),\n",
      "  Message('note_on', channel=0, note=61, velocity=0, time=23),\n",
      "  Message('note_on', channel=0, note=62, velocity=87, time=1),\n",
      "  Message('note_on', channel=0, note=62, velocity=0, time=23),\n",
      "  Message('note_on', channel=0, note=61, velocity=87, time=1),\n",
      "  Message('note_on', channel=0, note=57, velocity=87, time=0),\n",
      "  Message('note_on', channel=0, note=61, velocity=0, time=45),\n",
      "  Message('note_on', channel=0, note=57, velocity=0, time=0),\n",
      "  Message('note_on', channel=0, note=62, velocity=87, time=3),\n",
      "  Message('note_on', channel=0, note=59, velocity=87, time=0),\n",
      "  Message('note_on', channel=0, note=62, velocity=0, time=20),\n",
      "  Message('note_on', channel=0, note=59, velocity=0, time=0),\n",
      "  Message('note_on', channel=0, note=64, velocity=88, time=28),\n",
      "  Message('note_on', channel=0, note=61, velocity=88, time=0),\n",
      "  Message('note_on', channel=0, note=64, velocity=0, time=20),\n",
      "  Message('note_on', channel=0, note=61, velocity=0, time=0),\n",
      "  Message('note_on', channel=0, note=66, velocity=89, time=28),\n",
      "  Message('note_on', channel=0, note=62, velocity=89, time=0),\n",
      "  Message('note_on', channel=0, note=66, velocity=0, time=20),\n",
      "  Message('note_on', channel=0, note=62, velocity=0, time=0),\n",
      "  Message('note_on', channel=0, note=67, velocity=90, time=28),\n",
      "  Message('note_on', channel=0, note=64, velocity=90, time=0),\n",
      "  Message('note_on', channel=0, note=67, velocity=0, time=20),\n",
      "  Message('note_on', channel=0, note=64, velocity=0, time=0),\n",
      "  Message('note_on', channel=0, note=69, velocity=90, time=28),\n",
      "  Message('note_on', channel=0, note=66, velocity=90, time=0),\n",
      "  Message('note_on', channel=0, note=69, velocity=0, time=20),\n",
      "  Message('note_on', channel=0, note=66, velocity=0, time=0),\n",
      "  Message('note_on', channel=0, note=71, velocity=91, time=28),\n",
      "  Message('note_on', channel=0, note=67, velocity=91, time=0),\n",
      "  Message('note_on', channel=0, note=71, velocity=0, time=20),\n",
      "  Message('note_on', channel=0, note=67, velocity=0, time=0),\n",
      "  Message('note_on', channel=0, note=73, velocity=92, time=28),\n",
      "  Message('note_on', channel=0, note=69, velocity=92, time=0),\n",
      "  Message('note_on', channel=0, note=73, velocity=0, time=20),\n",
      "  Message('note_on', channel=0, note=69, velocity=0, time=0),\n",
      "  Message('note_on', channel=0, note=62, velocity=93, time=28),\n",
      "  Message('note_on', channel=0, note=50, velocity=93, time=0),\n",
      "  Message('note_on', channel=0, note=62, velocity=0, time=177),\n",
      "  Message('note_on', channel=0, note=50, velocity=0, time=0),\n",
      "  Message('note_on', channel=0, note=60, velocity=93, time=15),\n",
      "  Message('note_on', channel=0, note=48, velocity=93, time=0),\n",
      "  Message('note_on', channel=0, note=60, velocity=0, time=89),\n",
      "  Message('note_on', channel=0, note=48, velocity=0, time=0),\n",
      "  Message('note_on', channel=0, note=58, velocity=93, time=7),\n",
      "  Message('note_on', channel=0, note=46, velocity=93, time=0),\n",
      "  Message('note_on', channel=0, note=58, velocity=0, time=89),\n",
      "  Message('note_on', channel=0, note=46, velocity=0, time=0),\n",
      "  Message('note_on', channel=0, note=56, velocity=93, time=7),\n",
      "  Message('note_on', channel=0, note=44, velocity=93, time=0),\n",
      "  Message('note_on', channel=0, note=56, velocity=0, time=89),\n",
      "  Message('note_on', channel=0, note=44, velocity=0, time=0),\n",
      "  Message('note_on', channel=0, note=57, velocity=93, time=7),\n",
      "  Message('note_on', channel=0, note=45, velocity=93, time=0),\n",
      "  Message('note_on', channel=0, note=57, velocity=0, time=141),\n",
      "  Message('note_on', channel=0, note=45, velocity=0, time=0),\n",
      "  Message('note_on', channel=0, note=50, velocity=93, time=3),\n",
      "  Message('note_on', channel=0, note=38, velocity=93, time=0),\n",
      "  Message('note_on', channel=0, note=50, velocity=0, time=45),\n",
      "  Message('note_on', channel=0, note=38, velocity=0, time=0),\n",
      "  Message('note_on', channel=0, note=55, velocity=93, time=3),\n",
      "  Message('note_on', channel=0, note=43, velocity=93, time=0),\n",
      "  Message('note_on', channel=0, note=55, velocity=0, time=45),\n",
      "  Message('note_on', channel=0, note=43, velocity=0, time=0),\n",
      "  Message('note_on', channel=0, note=53, velocity=93, time=3),\n",
      "  Message('note_on', channel=0, note=41, velocity=93, time=0),\n",
      "  Message('note_on', channel=0, note=53, velocity=0, time=45),\n",
      "  Message('note_on', channel=0, note=41, velocity=0, time=0),\n",
      "  Message('note_on', channel=0, note=52, velocity=93, time=3),\n",
      "  Message('note_on', channel=0, note=40, velocity=93, time=0),\n",
      "  Message('note_on', channel=0, note=52, velocity=0, time=89),\n",
      "  Message('note_on', channel=0, note=40, velocity=0, time=0),\n",
      "  Message('note_on', channel=0, note=53, velocity=93, time=7),\n",
      "  Message('note_on', channel=0, note=41, velocity=93, time=0),\n",
      "  Message('note_on', channel=0, note=53, velocity=0, time=141),\n",
      "  Message('note_on', channel=0, note=41, velocity=0, time=0),\n",
      "  Message('note_on', channel=0, note=46, velocity=93, time=3),\n",
      "  Message('note_on', channel=0, note=34, velocity=93, time=0),\n",
      "  Message('note_on', channel=0, note=46, velocity=0, time=45),\n",
      "  Message('note_on', channel=0, note=34, velocity=0, time=0),\n",
      "  Message('note_on', channel=0, note=52, velocity=93, time=3),\n",
      "  Message('note_on', channel=0, note=40, velocity=93, time=0),\n",
      "  Message('note_on', channel=0, note=52, velocity=0, time=45),\n",
      "  Message('note_on', channel=0, note=40, velocity=0, time=0),\n",
      "  Message('note_on', channel=0, note=50, velocity=93, time=3),\n",
      "  Message('note_on', channel=0, note=38, velocity=93, time=0),\n",
      "  Message('note_on', channel=0, note=50, velocity=0, time=45),\n",
      "  Message('note_on', channel=0, note=38, velocity=0, time=0),\n",
      "  Message('note_on', channel=0, note=49, velocity=93, time=3),\n",
      "  Message('note_on', channel=0, note=37, velocity=93, time=0),\n",
      "  Message('note_on', channel=0, note=49, velocity=0, time=89),\n",
      "  Message('note_on', channel=0, note=37, velocity=0, time=0),\n",
      "  Message('note_on', channel=0, note=50, velocity=93, time=7),\n",
      "  Message('note_on', channel=0, note=38, velocity=93, time=0),\n",
      "  Message('note_on', channel=0, note=50, velocity=0, time=89),\n",
      "  Message('note_on', channel=0, note=38, velocity=0, time=0),\n",
      "  Message('note_on', channel=0, note=48, velocity=93, time=7),\n",
      "  Message('note_on', channel=0, note=36, velocity=93, time=0),\n",
      "  Message('note_on', channel=0, note=48, velocity=0, time=89),\n",
      "  Message('note_on', channel=0, note=36, velocity=0, time=0),\n",
      "  Message('note_on', channel=0, note=46, velocity=93, time=7),\n",
      "  Message('note_on', channel=0, note=34, velocity=93, time=0),\n",
      "  Message('note_on', channel=0, note=46, velocity=0, time=89),\n",
      "  Message('note_on', channel=0, note=34, velocity=0, time=0),\n",
      "  Message('note_on', channel=0, note=45, velocity=93, time=7),\n",
      "  Message('note_on', channel=0, note=33, velocity=93, time=0),\n",
      "  Message('note_on', channel=0, note=45, velocity=0, time=89),\n",
      "  Message('note_on', channel=0, note=33, velocity=0, time=0),\n",
      "  Message('note_on', channel=0, note=66, velocity=73, time=679),\n",
      "  Message('note_on', channel=0, note=57, velocity=73, time=0),\n",
      "  Message('note_on', channel=0, note=66, velocity=0, time=47),\n",
      "  Message('note_on', channel=0, note=57, velocity=0, time=0),\n",
      "  Message('note_on', channel=0, note=66, velocity=73, time=1),\n",
      "  Message('note_on', channel=0, note=57, velocity=73, time=0),\n",
      "  Message('note_on', channel=0, note=66, velocity=0, time=47),\n",
      "  Message('note_on', channel=0, note=57, velocity=0, time=0),\n",
      "  Message('note_on', channel=0, note=66, velocity=73, time=1),\n",
      "  Message('note_on', channel=0, note=57, velocity=73, time=0),\n",
      "  Message('note_on', channel=0, note=66, velocity=0, time=47),\n",
      "  Message('note_on', channel=0, note=57, velocity=0, time=0),\n",
      "  Message('note_on', channel=0, note=66, velocity=73, time=1),\n",
      "  Message('note_on', channel=0, note=57, velocity=73, time=0),\n",
      "  Message('note_on', channel=0, note=66, velocity=0, time=47),\n",
      "  Message('note_on', channel=0, note=57, velocity=0, time=0),\n",
      "  Message('note_on', channel=0, note=64, velocity=73, time=1),\n",
      "  Message('note_on', channel=0, note=57, velocity=73, time=0),\n",
      "  Message('note_on', channel=0, note=64, velocity=0, time=47),\n",
      "  Message('note_on', channel=0, note=57, velocity=0, time=0),\n",
      "  Message('note_on', channel=0, note=64, velocity=73, time=1),\n",
      "  Message('note_on', channel=0, note=57, velocity=73, time=0),\n",
      "  Message('note_on', channel=0, note=64, velocity=0, time=47),\n",
      "  Message('note_on', channel=0, note=57, velocity=0, time=0),\n",
      "  Message('note_on', channel=0, note=62, velocity=73, time=1),\n",
      "  Message('note_on', channel=0, note=57, velocity=73, time=0),\n",
      "  Message('note_on', channel=0, note=62, velocity=0, time=47),\n",
      "  Message('note_on', channel=0, note=57, velocity=0, time=0),\n",
      "  Message('note_on', channel=0, note=62, velocity=73, time=1),\n",
      "  Message('note_on', channel=0, note=57, velocity=73, time=0),\n",
      "  Message('note_on', channel=0, note=62, velocity=0, time=47),\n",
      "  Message('note_on', channel=0, note=57, velocity=0, time=0),\n",
      "  Message('note_on', channel=0, note=61, velocity=73, time=1),\n",
      "  Message('note_on', channel=0, note=57, velocity=73, time=0),\n",
      "  Message('note_on', channel=0, note=61, velocity=0, time=47),\n",
      "  Message('note_on', channel=0, note=57, velocity=0, time=0),\n",
      "  Message('note_on', channel=0, note=61, velocity=73, time=1),\n",
      "  Message('note_on', channel=0, note=57, velocity=73, time=0),\n",
      "  Message('note_on', channel=0, note=61, velocity=0, time=47),\n",
      "  Message('note_on', channel=0, note=57, velocity=0, time=0),\n",
      "  Message('note_on', channel=0, note=62, velocity=73, time=1),\n",
      "  Message('note_on', channel=0, note=57, velocity=73, time=0),\n",
      "  Message('note_on', channel=0, note=62, velocity=0, time=47),\n",
      "  Message('note_on', channel=0, note=57, velocity=0, time=0),\n",
      "  Message('note_on', channel=0, note=62, velocity=73, time=1),\n",
      "  Message('note_on', channel=0, note=57, velocity=73, time=0),\n",
      "  Message('note_on', channel=0, note=62, velocity=0, time=47),\n",
      "  Message('note_on', channel=0, note=57, velocity=0, time=0),\n",
      "  Message('note_on', channel=0, note=62, velocity=73, time=1),\n",
      "  Message('note_on', channel=0, note=57, velocity=73, time=0),\n",
      "  Message('note_on', channel=0, note=62, velocity=0, time=47),\n",
      "  Message('note_on', channel=0, note=57, velocity=0, time=0),\n",
      "  Message('note_on', channel=0, note=62, velocity=73, time=1),\n",
      "  Message('note_on', channel=0, note=57, velocity=73, time=0),\n",
      "  Message('note_on', channel=0, note=62, velocity=0, time=47),\n",
      "  Message('note_on', channel=0, note=57, velocity=0, time=0),\n",
      "  Message('note_on', channel=0, note=59, velocity=73, time=1),\n",
      "  Message('note_on', channel=0, note=57, velocity=73, time=0),\n",
      "  Message('note_on', channel=0, note=59, velocity=0, time=47),\n",
      "  Message('note_on', channel=0, note=57, velocity=0, time=0),\n",
      "  Message('note_on', channel=0, note=59, velocity=73, time=1),\n",
      "  Message('note_on', channel=0, note=57, velocity=73, time=0),\n",
      "  Message('note_on', channel=0, note=59, velocity=0, time=47),\n",
      "  Message('note_on', channel=0, note=57, velocity=0, time=0),\n",
      "  Message('note_on', channel=0, note=61, velocity=73, time=1),\n",
      "  Message('note_on', channel=0, note=57, velocity=73, time=0),\n",
      "  Message('note_on', channel=0, note=61, velocity=0, time=94),\n",
      "  Message('note_on', channel=0, note=57, velocity=0, time=0),\n",
      "  Message('note_on', channel=0, note=66, velocity=73, time=674),\n",
      "  Message('note_on', channel=0, note=57, velocity=73, time=0),\n",
      "  Message('note_on', channel=0, note=66, velocity=0, time=47),\n",
      "  Message('note_on', channel=0, note=57, velocity=0, time=0),\n",
      "  Message('note_on', channel=0, note=66, velocity=73, time=1),\n",
      "  Message('note_on', channel=0, note=57, velocity=73, time=0),\n",
      "  Message('note_on', channel=0, note=66, velocity=0, time=47),\n",
      "  Message('note_on', channel=0, note=57, velocity=0, time=0),\n",
      "  Message('note_on', channel=0, note=66, velocity=73, time=1),\n",
      "  Message('note_on', channel=0, note=57, velocity=73, time=0),\n",
      "  Message('note_on', channel=0, note=66, velocity=0, time=47),\n",
      "  Message('note_on', channel=0, note=57, velocity=0, time=0),\n",
      "  Message('note_on', channel=0, note=66, velocity=73, time=1),\n",
      "  Message('note_on', channel=0, note=57, velocity=73, time=0),\n",
      "  Message('note_on', channel=0, note=66, velocity=0, time=47),\n",
      "  Message('note_on', channel=0, note=57, velocity=0, time=0),\n",
      "  Message('note_on', channel=0, note=64, velocity=73, time=1),\n",
      "  Message('note_on', channel=0, note=57, velocity=73, time=0),\n",
      "  Message('note_on', channel=0, note=64, velocity=0, time=47),\n",
      "  Message('note_on', channel=0, note=57, velocity=0, time=0),\n",
      "  Message('note_on', channel=0, note=64, velocity=73, time=1),\n",
      "  Message('note_on', channel=0, note=57, velocity=73, time=0),\n",
      "  Message('note_on', channel=0, note=64, velocity=0, time=47),\n",
      "  Message('note_on', channel=0, note=57, velocity=0, time=0),\n",
      "  Message('note_on', channel=0, note=62, velocity=73, time=1),\n",
      "  Message('note_on', channel=0, note=57, velocity=73, time=0),\n",
      "  Message('note_on', channel=0, note=62, velocity=0, time=47),\n",
      "  Message('note_on', channel=0, note=57, velocity=0, time=0),\n",
      "  Message('note_on', channel=0, note=62, velocity=73, time=1),\n",
      "  Message('note_on', channel=0, note=57, velocity=73, time=0),\n",
      "  Message('note_on', channel=0, note=62, velocity=0, time=47),\n",
      "  Message('note_on', channel=0, note=57, velocity=0, time=0),\n",
      "  Message('note_on', channel=0, note=61, velocity=73, time=1),\n",
      "  Message('note_on', channel=0, note=57, velocity=73, time=0),\n",
      "  Message('note_on', channel=0, note=61, velocity=0, time=47),\n",
      "  Message('note_on', channel=0, note=57, velocity=0, time=0),\n",
      "  Message('note_on', channel=0, note=61, velocity=73, time=1),\n",
      "  Message('note_on', channel=0, note=57, velocity=73, time=0),\n",
      "  Message('note_on', channel=0, note=61, velocity=0, time=47),\n",
      "  Message('note_on', channel=0, note=57, velocity=0, time=0),\n",
      "  Message('note_on', channel=0, note=62, velocity=73, time=1),\n",
      "  Message('note_on', channel=0, note=57, velocity=73, time=0),\n",
      "  Message('note_on', channel=0, note=62, velocity=0, time=47),\n",
      "  Message('note_on', channel=0, note=57, velocity=0, time=0),\n",
      "  Message('note_on', channel=0, note=62, velocity=73, time=1),\n",
      "  Message('note_on', channel=0, note=57, velocity=73, time=0),\n",
      "  Message('note_on', channel=0, note=62, velocity=0, time=47),\n",
      "  Message('note_on', channel=0, note=57, velocity=0, time=0),\n",
      "  Message('note_on', channel=0, note=62, velocity=73, time=1),\n",
      "  Message('note_on', channel=0, note=57, velocity=73, time=0),\n",
      "  Message('note_on', channel=0, note=62, velocity=0, time=47),\n",
      "  Message('note_on', channel=0, note=57, velocity=0, time=0),\n",
      "  Message('note_on', channel=0, note=62, velocity=73, time=1),\n",
      "  Message('note_on', channel=0, note=57, velocity=73, time=0),\n",
      "  Message('note_on', channel=0, note=62, velocity=0, time=47),\n",
      "  Message('note_on', channel=0, note=57, velocity=0, time=0),\n",
      "  Message('note_on', channel=0, note=59, velocity=73, time=1),\n",
      "  Message('note_on', channel=0, note=57, velocity=73, time=0),\n",
      "  Message('note_on', channel=0, note=59, velocity=0, time=47),\n",
      "  Message('note_on', channel=0, note=57, velocity=0, time=0),\n",
      "  Message('note_on', channel=0, note=59, velocity=73, time=1),\n",
      "  Message('note_on', channel=0, note=57, velocity=73, time=0),\n",
      "  Message('note_on', channel=0, note=59, velocity=0, time=47),\n",
      "  Message('note_on', channel=0, note=57, velocity=0, time=0),\n",
      "  Message('note_on', channel=0, note=61, velocity=73, time=1),\n",
      "  Message('note_on', channel=0, note=57, velocity=73, time=0),\n",
      "  Message('note_on', channel=0, note=61, velocity=0, time=45),\n",
      "  Message('note_on', channel=0, note=57, velocity=0, time=0),\n",
      "  Message('note_on', channel=0, note=62, velocity=73, time=51),\n",
      "  Message('note_on', channel=0, note=57, velocity=73, time=0),\n",
      "  Message('note_on', channel=0, note=62, velocity=0, time=96),\n",
      "  Message('note_on', channel=0, note=61, velocity=73, time=0),\n",
      "  Message('note_on', channel=0, note=61, velocity=0, time=45),\n",
      "  Message('note_on', channel=0, note=57, velocity=0, time=0),\n",
      "  Message('note_on', channel=0, note=62, velocity=66, time=243),\n",
      "  Message('note_on', channel=0, note=57, velocity=66, time=0),\n",
      "  Message('note_on', channel=0, note=62, velocity=0, time=96),\n",
      "  Message('note_on', channel=0, note=61, velocity=66, time=0),\n",
      "  Message('note_on', channel=0, note=61, velocity=0, time=45),\n",
      "  Message('note_on', channel=0, note=57, velocity=0, time=0),\n",
      "  Message('note_on', channel=0, note=45, velocity=66, time=915),\n",
      "  Message('note_on', channel=0, note=33, velocity=66, time=0),\n",
      "  Message('note_on', channel=0, note=45, velocity=0, time=354),\n",
      "  Message('note_on', channel=0, note=33, velocity=0, time=0),\n",
      "  Message('note_on', channel=0, note=45, velocity=66, time=30),\n",
      "  Message('note_on', channel=0, note=33, velocity=66, time=0),\n",
      "  Message('note_on', channel=0, note=45, velocity=0, time=354),\n",
      "  Message('note_on', channel=0, note=33, velocity=0, time=0),\n",
      "  Message('note_on', channel=0, note=33, velocity=66, time=30),\n",
      "  Message('note_on', channel=0, note=33, velocity=0, time=89),\n",
      "  Message('note_on', channel=0, note=45, velocity=87, time=295),\n",
      "  Message('note_on', channel=0, note=45, velocity=0, time=23),\n",
      "  Message('note_on', channel=0, note=57, velocity=87, time=1),\n",
      "  Message('note_on', channel=0, note=57, velocity=0, time=23),\n",
      "  Message('note_on', channel=0, note=45, velocity=87, time=1),\n",
      "  Message('note_on', channel=0, note=45, velocity=0, time=23),\n",
      "  Message('note_on', channel=0, note=57, velocity=87, time=1),\n",
      "  Message('note_on', channel=0, note=57, velocity=0, time=23),\n",
      "  Message('note_on', channel=0, note=45, velocity=87, time=1),\n",
      "  Message('note_on', channel=0, note=45, velocity=0, time=23),\n",
      "  Message('note_on', channel=0, note=57, velocity=87, time=1),\n",
      "  Message('note_on', channel=0, note=57, velocity=0, time=23),\n",
      "  Message('note_on', channel=0, note=45, velocity=87, time=1),\n",
      "  Message('note_on', channel=0, note=45, velocity=0, time=23),\n",
      "  Message('note_on', channel=0, note=57, velocity=87, time=1),\n",
      "  Message('note_on', channel=0, note=57, velocity=0, time=23),\n",
      "  Message('note_on', channel=0, note=45, velocity=87, time=1),\n",
      "  Message('note_on', channel=0, note=45, velocity=0, time=23),\n",
      "  Message('note_on', channel=0, note=57, velocity=87, time=1),\n",
      "  Message('note_on', channel=0, note=57, velocity=0, time=23),\n",
      "  Message('note_on', channel=0, note=45, velocity=87, time=1),\n",
      "  Message('note_on', channel=0, note=45, velocity=0, time=23),\n",
      "  Message('note_on', channel=0, note=57, velocity=87, time=1),\n",
      "  Message('note_on', channel=0, note=57, velocity=0, time=23),\n",
      "  Message('note_on', channel=0, note=45, velocity=87, time=1),\n",
      "  Message('note_on', channel=0, note=45, velocity=0, time=23),\n",
      "  Message('note_on', channel=0, note=57, velocity=87, time=1),\n",
      "  Message('note_on', channel=0, note=57, velocity=0, time=23),\n",
      "  Message('note_on', channel=0, note=45, velocity=87, time=1),\n",
      "  Message('note_on', channel=0, note=45, velocity=0, time=23),\n",
      "  Message('note_on', channel=0, note=57, velocity=87, time=1),\n",
      "  Message('note_on', channel=0, note=57, velocity=0, time=23),\n",
      "  Message('note_on', channel=0, note=62, velocity=87, time=1),\n",
      "  Message('note_on', channel=0, note=50, velocity=87, time=0),\n",
      "  Message('note_on', channel=0, note=62, velocity=0, time=177),\n",
      "  Message('note_on', channel=0, note=50, velocity=0, time=0),\n",
      "  Message('note_on', channel=0, note=57, velocity=87, time=15),\n",
      "  Message('note_on', channel=0, note=57, velocity=0, time=177),\n",
      "  Message('note_on', channel=0, note=55, velocity=87, time=15),\n",
      "  Message('note_on', channel=0, note=55, velocity=0, time=24),\n",
      "  Message('note_on', channel=0, note=54, velocity=87, time=0),\n",
      "  Message('note_on', channel=0, note=54, velocity=0, time=24),\n",
      "  Message('note_on', channel=0, note=55, velocity=87, time=0),\n",
      "  Message('note_on', channel=0, note=55, velocity=0, time=24),\n",
      "  Message('note_on', channel=0, note=54, velocity=87, time=0),\n",
      "  Message('note_on', channel=0, note=54, velocity=0, time=24),\n",
      "  Message('note_on', channel=0, note=55, velocity=87, time=0),\n",
      "  Message('note_on', channel=0, note=55, velocity=0, time=24),\n",
      "  Message('note_on', channel=0, note=54, velocity=87, time=0),\n",
      "  Message('note_on', channel=0, note=54, velocity=0, time=13),\n",
      "  Message('note_on', channel=0, note=52, velocity=87, time=11),\n",
      "  Message('note_on', channel=0, note=52, velocity=0, time=23),\n",
      "  Message('note_on', channel=0, note=50, velocity=87, time=1),\n",
      "  Message('note_on', channel=0, note=50, velocity=0, time=23),\n",
      "  Message('note_on', channel=0, note=57, velocity=87, time=1),\n",
      "  Message('note_on', channel=0, note=57, velocity=0, time=89),\n",
      "  Message('note_on', channel=0, note=45, velocity=87, time=79),\n",
      "  Message('note_on', channel=0, note=45, velocity=0, time=8),\n",
      "  Message('note_on', channel=0, note=47, velocity=87, time=0),\n",
      "  Message('note_on', channel=0, note=47, velocity=0, time=8),\n",
      "  Message('note_on', channel=0, note=49, velocity=87, time=0),\n",
      "  Message('note_on', channel=0, note=49, velocity=0, time=8),\n",
      "  Message('note_on', channel=0, note=50, velocity=87, time=0),\n",
      "  Message('note_on', channel=0, note=50, velocity=0, time=89),\n",
      "  Message('note_on', channel=0, note=45, velocity=87, time=7),\n",
      "  Message('note_on', channel=0, note=45, velocity=0, time=67),\n",
      "  Message('note_on', channel=0, note=50, velocity=87, time=5),\n",
      "  Message('note_on', channel=0, note=50, velocity=0, time=23),\n",
      "  Message('note_on', channel=0, note=52, velocity=87, time=1),\n",
      "  Message('note_on', channel=0, note=52, velocity=0, time=89),\n",
      "  Message('note_on', channel=0, note=45, velocity=87, time=7),\n",
      "  Message('note_on', channel=0, note=45, velocity=0, time=67),\n",
      "  Message('note_on', channel=0, note=52, velocity=87, time=5),\n",
      "  Message('note_on', channel=0, note=52, velocity=0, time=23),\n",
      "  Message('note_on', channel=0, note=54, velocity=87, time=1),\n",
      "  Message('note_on', channel=0, note=54, velocity=0, time=89),\n",
      "  Message('note_on', channel=0, note=50, velocity=87, time=7),\n",
      "  Message('note_on', channel=0, note=50, velocity=0, time=67),\n",
      "  Message('note_on', channel=0, note=54, velocity=87, time=5),\n",
      "  Message('note_on', channel=0, note=54, velocity=0, time=23),\n",
      "  Message('note_on', channel=0, note=57, velocity=87, time=1),\n",
      "  Message('note_on', channel=0, note=57, velocity=0, time=89),\n",
      "  Message('note_on', channel=0, note=38, velocity=98, time=103),\n",
      "  Message('note_on', channel=0, note=38, velocity=0, time=20),\n",
      "  Message('note_on', channel=0, note=50, velocity=82, time=28),\n",
      "  Message('note_on', channel=0, note=50, velocity=0, time=20),\n",
      "  Message('note_on', channel=0, note=50, velocity=82, time=28),\n",
      "  Message('note_on', channel=0, note=50, velocity=0, time=20),\n",
      "  Message('note_on', channel=0, note=50, velocity=82, time=28),\n",
      "  Message('note_on', channel=0, note=50, velocity=0, time=20),\n",
      "  Message('note_on', channel=0, note=50, velocity=82, time=28),\n",
      "  Message('note_on', channel=0, note=50, velocity=0, time=20),\n",
      "  Message('note_on', channel=0, note=50, velocity=82, time=28),\n",
      "  Message('note_on', channel=0, note=50, velocity=0, time=20),\n",
      "  Message('note_on', channel=0, note=50, velocity=82, time=28),\n",
      "  Message('note_on', channel=0, note=50, velocity=0, time=20),\n",
      "  Message('note_on', channel=0, note=50, velocity=82, time=28),\n",
      "  Message('note_on', channel=0, note=50, velocity=0, time=20),\n",
      "  Message('note_on', channel=0, note=50, velocity=82, time=28),\n",
      "  Message('note_on', channel=0, note=50, velocity=0, time=20),\n",
      "  Message('note_on', channel=0, note=50, velocity=82, time=28),\n",
      "  Message('note_on', channel=0, note=50, velocity=0, time=20),\n",
      "  Message('note_on', channel=0, note=50, velocity=82, time=28),\n",
      "  Message('note_on', channel=0, note=50, velocity=0, time=20),\n",
      "  Message('note_on', channel=0, note=50, velocity=82, time=28),\n",
      "  Message('note_on', channel=0, note=50, velocity=0, time=20),\n",
      "  Message('note_on', channel=0, note=50, velocity=82, time=28),\n",
      "  Message('note_on', channel=0, note=50, velocity=0, time=20),\n",
      "  Message('note_on', channel=0, note=50, velocity=82, time=28),\n",
      "  Message('note_on', channel=0, note=50, velocity=0, time=20),\n",
      "  Message('note_on', channel=0, note=50, velocity=82, time=28),\n",
      "  Message('note_on', channel=0, note=50, velocity=0, time=20),\n",
      "  Message('note_on', channel=0, note=50, velocity=82, time=28),\n",
      "  Message('note_on', channel=0, note=50, velocity=0, time=20),\n",
      "  Message('note_on', channel=0, note=38, velocity=98, time=28),\n",
      "  Message('note_on', channel=0, note=38, velocity=0, time=20),\n",
      "  Message('note_on', channel=0, note=50, velocity=82, time=28),\n",
      "  Message('note_on', channel=0, note=50, velocity=0, time=20),\n",
      "  Message('note_on', channel=0, note=50, velocity=82, time=28),\n",
      "  Message('note_on', channel=0, note=50, velocity=0, time=20),\n",
      "  Message('note_on', channel=0, note=50, velocity=82, time=28),\n",
      "  Message('note_on', channel=0, note=50, velocity=0, time=20),\n",
      "  Message('note_on', channel=0, note=50, velocity=82, time=28),\n",
      "  Message('note_on', channel=0, note=50, velocity=0, time=20),\n",
      "  Message('note_on', channel=0, note=50, velocity=82, time=28),\n",
      "  Message('note_on', channel=0, note=50, velocity=0, time=20),\n",
      "  Message('note_on', channel=0, note=50, velocity=82, time=28),\n",
      "  Message('note_on', channel=0, note=50, velocity=0, time=20),\n",
      "  Message('note_on', channel=0, note=50, velocity=82, time=28),\n",
      "  Message('note_on', channel=0, note=50, velocity=0, time=20),\n",
      "  Message('note_on', channel=0, note=50, velocity=82, time=28),\n",
      "  Message('note_on', channel=0, note=50, velocity=0, time=20),\n",
      "  Message('note_on', channel=0, note=50, velocity=82, time=28),\n",
      "  Message('note_on', channel=0, note=50, velocity=0, time=20),\n",
      "  Message('note_on', channel=0, note=50, velocity=82, time=28),\n",
      "  Message('note_on', channel=0, note=50, velocity=0, time=20),\n",
      "  Message('note_on', channel=0, note=50, velocity=82, time=28),\n",
      "  Message('note_on', channel=0, note=50, velocity=0, time=20),\n",
      "  Message('note_on', channel=0, note=50, velocity=82, time=28),\n",
      "  Message('note_on', channel=0, note=50, velocity=0, time=20),\n",
      "  Message('note_on', channel=0, note=50, velocity=82, time=28),\n",
      "  Message('note_on', channel=0, note=50, velocity=0, time=20),\n",
      "  Message('note_on', channel=0, note=50, velocity=82, time=28),\n",
      "  Message('note_on', channel=0, note=50, velocity=0, time=20),\n",
      "  Message('note_on', channel=0, note=50, velocity=82, time=28),\n",
      "  Message('note_on', channel=0, note=50, velocity=0, time=20),\n",
      "  Message('note_on', channel=0, note=50, velocity=98, time=28),\n",
      "  Message('note_on', channel=0, note=50, velocity=0, time=20),\n",
      "  Message('note_on', channel=0, note=66, velocity=78, time=28),\n",
      "  Message('note_on', channel=0, note=62, velocity=78, time=0),\n",
      "  Message('note_on', channel=0, note=66, velocity=0, time=20),\n",
      "  Message('note_on', channel=0, note=62, velocity=0, time=0),\n",
      "  Message('note_on', channel=0, note=66, velocity=78, time=28),\n",
      "  Message('note_on', channel=0, note=62, velocity=78, time=0),\n",
      "  Message('note_on', channel=0, note=66, velocity=0, time=20),\n",
      "  Message('note_on', channel=0, note=62, velocity=0, time=0),\n",
      "  Message('note_on', channel=0, note=66, velocity=78, time=28),\n",
      "  Message('note_on', channel=0, note=62, velocity=78, time=0),\n",
      "  Message('note_on', channel=0, note=66, velocity=0, time=20),\n",
      "  Message('note_on', channel=0, note=62, velocity=0, time=0),\n",
      "  Message('note_on', channel=0, note=57, velocity=78, time=28),\n",
      "  Message('note_on', channel=0, note=57, velocity=0, time=20),\n",
      "  Message('note_on', channel=0, note=66, velocity=78, time=28),\n",
      "  Message('note_on', channel=0, note=62, velocity=78, time=0),\n",
      "  Message('note_on', channel=0, note=66, velocity=0, time=20),\n",
      "  Message('note_on', channel=0, note=62, velocity=0, time=0),\n",
      "  Message('note_on', channel=0, note=66, velocity=78, time=28),\n",
      "  Message('note_on', channel=0, note=62, velocity=78, time=0),\n",
      "  Message('note_on', channel=0, note=66, velocity=0, time=20),\n",
      "  Message('note_on', channel=0, note=62, velocity=0, time=0),\n",
      "  Message('note_on', channel=0, note=66, velocity=78, time=28),\n",
      "  Message('note_on', channel=0, note=62, velocity=78, time=0),\n",
      "  Message('note_on', channel=0, note=66, velocity=0, time=20),\n",
      "  Message('note_on', channel=0, note=62, velocity=0, time=0),\n",
      "  Message('note_on', channel=0, note=57, velocity=94, time=28),\n",
      "  Message('note_on', channel=0, note=57, velocity=0, time=20),\n",
      "  Message('note_on', channel=0, note=67, velocity=78, time=28),\n",
      "  Message('note_on', channel=0, note=64, velocity=78, time=0),\n",
      "  Message('note_on', channel=0, note=67, velocity=0, time=20),\n",
      "  Message('note_on', channel=0, note=64, velocity=0, time=0),\n",
      "  Message('note_on', channel=0, note=67, velocity=78, time=28),\n",
      "  Message('note_on', channel=0, note=64, velocity=78, time=0),\n",
      "  Message('note_on', channel=0, note=67, velocity=0, time=20),\n",
      "  Message('note_on', channel=0, note=64, velocity=0, time=0),\n",
      "  Message('note_on', channel=0, note=67, velocity=78, time=28),\n",
      "  Message('note_on', channel=0, note=64, velocity=78, time=0),\n",
      "  Message('note_on', channel=0, note=67, velocity=0, time=20),\n",
      "  Message('note_on', channel=0, note=64, velocity=0, time=0),\n",
      "  Message('note_on', channel=0, note=57, velocity=78, time=28),\n",
      "  Message('note_on', channel=0, note=57, velocity=0, time=20),\n",
      "  Message('note_on', channel=0, note=67, velocity=78, time=28),\n",
      "  Message('note_on', channel=0, note=64, velocity=78, time=0),\n",
      "  Message('note_on', channel=0, note=67, velocity=0, time=20),\n",
      "  Message('note_on', channel=0, note=64, velocity=0, time=0),\n",
      "  Message('note_on', channel=0, note=67, velocity=78, time=28),\n",
      "  Message('note_on', channel=0, note=64, velocity=78, time=0),\n",
      "  Message('note_on', channel=0, note=67, velocity=0, time=20),\n",
      "  Message('note_on', channel=0, note=64, velocity=0, time=0),\n",
      "  Message('note_on', channel=0, note=67, velocity=78, time=28),\n",
      "  Message('note_on', channel=0, note=64, velocity=78, time=0),\n",
      "  Message('note_on', channel=0, note=67, velocity=0, time=20),\n",
      "  Message('note_on', channel=0, note=64, velocity=0, time=0),\n",
      "  Message('note_on', channel=0, note=57, velocity=94, time=28),\n",
      "  Message('note_on', channel=0, note=57, velocity=0, time=20),\n",
      "  Message('note_on', channel=0, note=66, velocity=78, time=28),\n",
      "  Message('note_on', channel=0, note=62, velocity=78, time=0),\n",
      "  Message('note_on', channel=0, note=66, velocity=0, time=20),\n",
      "  Message('note_on', channel=0, note=62, velocity=0, time=0),\n",
      "  Message('note_on', channel=0, note=66, velocity=78, time=28),\n",
      "  Message('note_on', channel=0, note=62, velocity=78, time=0),\n",
      "  Message('note_on', channel=0, note=66, velocity=0, time=20),\n",
      "  Message('note_on', channel=0, note=62, velocity=0, time=0),\n",
      "  Message('note_on', channel=0, note=66, velocity=78, time=28),\n",
      "  Message('note_on', channel=0, note=62, velocity=78, time=0),\n",
      "  Message('note_on', channel=0, note=66, velocity=0, time=20),\n",
      "  Message('note_on', channel=0, note=62, velocity=0, time=0),\n",
      "  Message('note_on', channel=0, note=57, velocity=78, time=28),\n",
      "  Message('note_on', channel=0, note=57, velocity=0, time=20),\n",
      "  Message('note_on', channel=0, note=66, velocity=78, time=28),\n",
      "  Message('note_on', channel=0, note=62, velocity=78, time=0),\n",
      "  Message('note_on', channel=0, note=66, velocity=0, time=20),\n",
      "  Message('note_on', channel=0, note=62, velocity=0, time=0),\n",
      "  Message('note_on', channel=0, note=66, velocity=78, time=28),\n",
      "  Message('note_on', channel=0, note=62, velocity=78, time=0),\n",
      "  Message('note_on', channel=0, note=66, velocity=0, time=20),\n",
      "  Message('note_on', channel=0, note=62, velocity=0, time=0),\n",
      "  Message('note_on', channel=0, note=66, velocity=78, time=28),\n",
      "  Message('note_on', channel=0, note=62, velocity=78, time=0),\n",
      "  Message('note_on', channel=0, note=66, velocity=0, time=20),\n",
      "  Message('note_on', channel=0, note=62, velocity=0, time=0),\n",
      "  Message('note_on', channel=0, note=55, velocity=78, time=124),\n",
      "  Message('note_on', channel=0, note=43, velocity=78, time=0),\n",
      "  Message('note_on', channel=0, note=55, velocity=0, time=89),\n",
      "  Message('note_on', channel=0, note=43, velocity=0, time=0),\n",
      "  Message('note_on', channel=0, note=57, velocity=78, time=7),\n",
      "  Message('note_on', channel=0, note=45, velocity=78, time=0),\n",
      "  Message('note_on', channel=0, note=57, velocity=0, time=89),\n",
      "  Message('note_on', channel=0, note=45, velocity=0, time=0),\n",
      "  Message('note_on', channel=0, note=45, velocity=78, time=7),\n",
      "  Message('note_on', channel=0, note=33, velocity=78, time=0),\n",
      "  Message('note_on', channel=0, note=45, velocity=0, time=89),\n",
      "  Message('note_on', channel=0, note=33, velocity=0, time=0),\n",
      "  Message('note_on', channel=0, note=50, velocity=78, time=7),\n",
      "  Message('note_on', channel=0, note=38, velocity=78, time=0),\n",
      "  Message('note_on', channel=0, note=50, velocity=0, time=89),\n",
      "  Message('note_on', channel=0, note=38, velocity=0, time=0),\n",
      "  Message('note_on', channel=0, note=50, velocity=82, time=103),\n",
      "  Message('note_on', channel=0, note=38, velocity=82, time=0),\n",
      "  Message('note_on', channel=0, note=50, velocity=0, time=89),\n",
      "  Message('note_on', channel=0, note=38, velocity=0, time=0),\n",
      "  Message('note_on', channel=0, note=49, velocity=82, time=103),\n",
      "  Message('note_on', channel=0, note=37, velocity=82, time=0),\n",
      "  Message('note_on', channel=0, note=49, velocity=0, time=89),\n",
      "  Message('note_on', channel=0, note=37, velocity=0, time=0),\n",
      "  Message('note_on', channel=0, note=49, velocity=82, time=103),\n",
      "  Message('note_on', channel=0, note=37, velocity=82, time=0),\n",
      "  Message('note_on', channel=0, note=49, velocity=0, time=89),\n",
      "  Message('note_on', channel=0, note=37, velocity=0, time=0),\n",
      "  Message('note_on', channel=0, note=48, velocity=82, time=103),\n",
      "  Message('note_on', channel=0, note=36, velocity=82, time=0),\n",
      "  Message('note_on', channel=0, note=48, velocity=0, time=89),\n",
      "  Message('note_on', channel=0, note=36, velocity=0, time=0),\n",
      "  Message('note_on', channel=0, note=48, velocity=82, time=103),\n",
      "  Message('note_on', channel=0, note=36, velocity=82, time=0),\n",
      "  Message('note_on', channel=0, note=48, velocity=0, time=89),\n",
      "  Message('note_on', channel=0, note=36, velocity=0, time=0),\n",
      "  Message('note_on', channel=0, note=47, velocity=82, time=103),\n",
      "  Message('note_on', channel=0, note=35, velocity=82, time=0),\n",
      "  Message('note_on', channel=0, note=47, velocity=0, time=89),\n",
      "  Message('note_on', channel=0, note=35, velocity=0, time=0),\n",
      "  Message('note_on', channel=0, note=47, velocity=82, time=103),\n",
      "  Message('note_on', channel=0, note=35, velocity=82, time=0),\n",
      "  Message('note_on', channel=0, note=47, velocity=0, time=89),\n",
      "  Message('note_on', channel=0, note=35, velocity=0, time=0),\n",
      "  Message('note_on', channel=0, note=54, velocity=82, time=103),\n",
      "  Message('note_on', channel=0, note=42, velocity=82, time=0),\n",
      "  Message('note_on', channel=0, note=54, velocity=0, time=89),\n",
      "  Message('note_on', channel=0, note=42, velocity=0, time=0),\n",
      "  Message('note_on', channel=0, note=54, velocity=82, time=103),\n",
      "  Message('note_on', channel=0, note=42, velocity=82, time=0),\n",
      "  Message('note_on', channel=0, note=54, velocity=0, time=89),\n",
      "  Message('note_on', channel=0, note=42, velocity=0, time=0),\n",
      "  Message('note_on', channel=0, note=43, velocity=87, time=103),\n",
      "  Message('note_on', channel=0, note=43, velocity=0, time=23),\n",
      "  Message('note_on', channel=0, note=55, velocity=87, time=1),\n",
      "  Message('note_on', channel=0, note=55, velocity=0, time=23),\n",
      "  Message('note_on', channel=0, note=47, velocity=87, time=1),\n",
      "  Message('note_on', channel=0, note=47, velocity=0, time=23),\n",
      "  Message('note_on', channel=0, note=55, velocity=87, time=1),\n",
      "  Message('note_on', channel=0, note=55, velocity=0, time=23),\n",
      "  Message('note_on', channel=0, note=50, velocity=87, time=1),\n",
      "  Message('note_on', channel=0, note=50, velocity=0, time=23),\n",
      "  Message('note_on', channel=0, note=55, velocity=87, time=1),\n",
      "  Message('note_on', channel=0, note=55, velocity=0, time=23),\n",
      "  Message('note_on', channel=0, note=47, velocity=87, time=1),\n",
      "  Message('note_on', channel=0, note=47, velocity=0, time=23),\n",
      "  Message('note_on', channel=0, note=55, velocity=87, time=1),\n",
      "  Message('note_on', channel=0, note=55, velocity=0, time=23),\n",
      "  Message('note_on', channel=0, note=43, velocity=87, time=1),\n",
      "  Message('note_on', channel=0, note=43, velocity=0, time=23),\n",
      "  Message('note_on', channel=0, note=55, velocity=87, time=1),\n",
      "  Message('note_on', channel=0, note=55, velocity=0, time=23),\n",
      "  Message('note_on', channel=0, note=47, velocity=87, time=1),\n",
      "  Message('note_on', channel=0, note=47, velocity=0, time=23),\n",
      "  Message('note_on', channel=0, note=55, velocity=87, time=1),\n",
      "  Message('note_on', channel=0, note=55, velocity=0, time=23),\n",
      "  Message('note_on', channel=0, note=50, velocity=87, time=1),\n",
      "  Message('note_on', channel=0, note=50, velocity=0, time=23),\n",
      "  Message('note_on', channel=0, note=55, velocity=87, time=1),\n",
      "  Message('note_on', channel=0, note=55, velocity=0, time=23),\n",
      "  Message('note_on', channel=0, note=47, velocity=87, time=1),\n",
      "  Message('note_on', channel=0, note=47, velocity=0, time=23),\n",
      "  Message('note_on', channel=0, note=55, velocity=87, time=1),\n",
      "  Message('note_on', channel=0, note=55, velocity=0, time=23),\n",
      "  Message('note_on', channel=0, note=43, velocity=87, time=1),\n",
      "  Message('note_on', channel=0, note=43, velocity=0, time=20),\n",
      "  Message('note_on', channel=0, note=55, velocity=87, time=28),\n",
      "  Message('note_on', channel=0, note=55, velocity=0, time=20),\n",
      "  Message('note_on', channel=0, note=50, velocity=87, time=28),\n",
      "  Message('note_on', channel=0, note=50, velocity=0, time=20),\n",
      "  Message('note_on', channel=0, note=47, velocity=87, time=28),\n",
      "  Message('note_on', channel=0, note=47, velocity=0, time=20),\n",
      "  Message('note_on', channel=0, note=43, velocity=87, time=28),\n",
      "  Message('note_on', channel=0, note=43, velocity=0, time=20),\n",
      "  Message('note_on', channel=0, note=47, velocity=87, time=28),\n",
      "  Message('note_on', channel=0, note=47, velocity=0, time=20),\n",
      "  Message('note_on', channel=0, note=50, velocity=87, time=28),\n",
      "  Message('note_on', channel=0, note=50, velocity=0, time=20),\n",
      "  Message('note_on', channel=0, note=55, velocity=87, time=28),\n",
      "  Message('note_on', channel=0, note=55, velocity=0, time=20),\n",
      "  Message('note_on', channel=0, note=40, velocity=87, time=28),\n",
      "  Message('note_on', channel=0, note=40, velocity=0, time=23),\n",
      "  Message('note_on', channel=0, note=52, velocity=87, time=1),\n",
      "  Message('note_on', channel=0, note=52, velocity=0, time=23),\n",
      "  Message('note_on', channel=0, note=43, velocity=87, time=1),\n",
      "  Message('note_on', channel=0, note=43, velocity=0, time=23),\n",
      "  Message('note_on', channel=0, note=52, velocity=87, time=1),\n",
      "  Message('note_on', channel=0, note=52, velocity=0, time=23),\n",
      "  Message('note_on', channel=0, note=47, velocity=87, time=1),\n",
      "  Message('note_on', channel=0, note=47, velocity=0, time=23),\n",
      "  Message('note_on', channel=0, note=52, velocity=87, time=1),\n",
      "  Message('note_on', channel=0, note=52, velocity=0, time=23),\n",
      "  Message('note_on', channel=0, note=43, velocity=87, time=1),\n",
      "  Message('note_on', channel=0, note=43, velocity=0, time=23),\n",
      "  Message('note_on', channel=0, note=52, velocity=87, time=1),\n",
      "  Message('note_on', channel=0, note=52, velocity=0, time=23),\n",
      "  Message('note_on', channel=0, note=40, velocity=87, time=1),\n",
      "  Message('note_on', channel=0, note=40, velocity=0, time=23),\n",
      "  Message('note_on', channel=0, note=52, velocity=87, time=1),\n",
      "  Message('note_on', channel=0, note=52, velocity=0, time=23),\n",
      "  Message('note_on', channel=0, note=43, velocity=87, time=1),\n",
      "  Message('note_on', channel=0, note=43, velocity=0, time=23),\n",
      "  Message('note_on', channel=0, note=52, velocity=87, time=1),\n",
      "  Message('note_on', channel=0, note=52, velocity=0, time=23),\n",
      "  Message('note_on', channel=0, note=47, velocity=87, time=1),\n",
      "  Message('note_on', channel=0, note=47, velocity=0, time=23),\n",
      "  Message('note_on', channel=0, note=52, velocity=87, time=1),\n",
      "  Message('note_on', channel=0, note=52, velocity=0, time=23),\n",
      "  Message('note_on', channel=0, note=43, velocity=87, time=1),\n",
      "  Message('note_on', channel=0, note=43, velocity=0, time=23),\n",
      "  Message('note_on', channel=0, note=52, velocity=87, time=1),\n",
      "  Message('note_on', channel=0, note=52, velocity=0, time=23),\n",
      "  Message('note_on', channel=0, note=40, velocity=87, time=1),\n",
      "  Message('note_on', channel=0, note=40, velocity=0, time=20),\n",
      "  Message('note_on', channel=0, note=52, velocity=87, time=28),\n",
      "  Message('note_on', channel=0, note=52, velocity=0, time=20),\n",
      "  Message('note_on', channel=0, note=47, velocity=87, time=28),\n",
      "  Message('note_on', channel=0, note=47, velocity=0, time=20),\n",
      "  Message('note_on', channel=0, note=43, velocity=87, time=28),\n",
      "  Message('note_on', channel=0, note=43, velocity=0, time=20),\n",
      "  Message('note_on', channel=0, note=40, velocity=87, time=28),\n",
      "  Message('note_on', channel=0, note=40, velocity=0, time=20),\n",
      "  Message('note_on', channel=0, note=43, velocity=87, time=28),\n",
      "  Message('note_on', channel=0, note=43, velocity=0, time=20),\n",
      "  Message('note_on', channel=0, note=47, velocity=87, time=28),\n",
      "  Message('note_on', channel=0, note=47, velocity=0, time=20),\n",
      "  Message('note_on', channel=0, note=52, velocity=87, time=28),\n",
      "  Message('note_on', channel=0, note=52, velocity=0, time=20),\n",
      "  Message('note_on', channel=0, note=37, velocity=87, time=28),\n",
      "  Message('note_on', channel=0, note=37, velocity=0, time=23),\n",
      "  Message('note_on', channel=0, note=49, velocity=87, time=1),\n",
      "  Message('note_on', channel=0, note=49, velocity=0, time=23),\n",
      "  Message('note_on', channel=0, note=40, velocity=87, time=1),\n",
      "  Message('note_on', channel=0, note=40, velocity=0, time=23),\n",
      "  Message('note_on', channel=0, note=49, velocity=87, time=1),\n",
      "  Message('note_on', channel=0, note=49, velocity=0, time=23),\n",
      "  Message('note_on', channel=0, note=45, velocity=87, time=1),\n",
      "  Message('note_on', channel=0, note=45, velocity=0, time=23),\n",
      "  Message('note_on', channel=0, note=49, velocity=87, time=1),\n",
      "  Message('note_on', channel=0, note=49, velocity=0, time=23),\n",
      "  Message('note_on', channel=0, note=40, velocity=87, time=1),\n",
      "  Message('note_on', channel=0, note=40, velocity=0, time=23),\n",
      "  Message('note_on', channel=0, note=49, velocity=87, time=1),\n",
      "  Message('note_on', channel=0, note=49, velocity=0, time=23),\n",
      "  Message('note_on', channel=0, note=37, velocity=87, time=1),\n",
      "  Message('note_on', channel=0, note=37, velocity=0, time=23),\n",
      "  Message('note_on', channel=0, note=49, velocity=87, time=1),\n",
      "  Message('note_on', channel=0, note=49, velocity=0, time=23),\n",
      "  Message('note_on', channel=0, note=40, velocity=87, time=1),\n",
      "  Message('note_on', channel=0, note=40, velocity=0, time=23),\n",
      "  Message('note_on', channel=0, note=49, velocity=87, time=1),\n",
      "  Message('note_on', channel=0, note=49, velocity=0, time=23),\n",
      "  Message('note_on', channel=0, note=45, velocity=87, time=1),\n",
      "  Message('note_on', channel=0, note=45, velocity=0, time=23),\n",
      "  Message('note_on', channel=0, note=49, velocity=87, time=1),\n",
      "  Message('note_on', channel=0, note=49, velocity=0, time=23),\n",
      "  Message('note_on', channel=0, note=40, velocity=87, time=1),\n",
      "  Message('note_on', channel=0, note=40, velocity=0, time=23),\n",
      "  Message('note_on', channel=0, note=49, velocity=87, time=1),\n",
      "  Message('note_on', channel=0, note=49, velocity=0, time=23),\n",
      "  Message('note_on', channel=0, note=37, velocity=87, time=1),\n",
      "  Message('note_on', channel=0, note=37, velocity=0, time=20),\n",
      "  Message('note_on', channel=0, note=49, velocity=87, time=28),\n",
      "  Message('note_on', channel=0, note=49, velocity=0, time=20),\n",
      "  Message('note_on', channel=0, note=45, velocity=87, time=28),\n",
      "  Message('note_on', channel=0, note=45, velocity=0, time=20),\n",
      "  Message('note_on', channel=0, note=40, velocity=87, time=28),\n",
      "  Message('note_on', channel=0, note=40, velocity=0, time=20),\n",
      "  Message('note_on', channel=0, note=37, velocity=87, time=28),\n",
      "  Message('note_on', channel=0, note=37, velocity=0, time=20),\n",
      "  Message('note_on', channel=0, note=40, velocity=87, time=28),\n",
      "  Message('note_on', channel=0, note=40, velocity=0, time=20),\n",
      "  Message('note_on', channel=0, note=45, velocity=87, time=28),\n",
      "  Message('note_on', channel=0, note=45, velocity=0, time=20),\n",
      "  Message('note_on', channel=0, note=49, velocity=87, time=28),\n",
      "  Message('note_on', channel=0, note=49, velocity=0, time=20),\n",
      "  Message('note_on', channel=0, note=38, velocity=87, time=28),\n",
      "  Message('note_on', channel=0, note=38, velocity=0, time=23),\n",
      "  Message('note_on', channel=0, note=50, velocity=87, time=1),\n",
      "  Message('note_on', channel=0, note=50, velocity=0, time=23),\n",
      "  Message('note_on', channel=0, note=52, velocity=87, time=1),\n",
      "  Message('note_on', channel=0, note=52, velocity=0, time=23),\n",
      "  Message('note_on', channel=0, note=54, velocity=87, time=1),\n",
      "  Message('note_on', channel=0, note=54, velocity=0, time=23),\n",
      "  Message('note_on', channel=0, note=55, velocity=87, time=1),\n",
      "  Message('note_on', channel=0, note=55, velocity=0, time=23),\n",
      "  Message('note_on', channel=0, note=57, velocity=87, time=1),\n",
      "  Message('note_on', channel=0, note=57, velocity=0, time=23),\n",
      "  Message('note_on', channel=0, note=59, velocity=87, time=1),\n",
      "  Message('note_on', channel=0, note=59, velocity=0, time=23),\n",
      "  Message('note_on', channel=0, note=61, velocity=87, time=1),\n",
      "  Message('note_on', channel=0, note=61, velocity=0, time=23),\n",
      "  Message('note_on', channel=0, note=62, velocity=87, time=1),\n",
      "  Message('note_on', channel=0, note=62, velocity=0, time=23),\n",
      "  Message('note_on', channel=0, note=64, velocity=87, time=1),\n",
      "  Message('note_on', channel=0, note=64, velocity=0, time=23),\n",
      "  Message('note_on', channel=0, note=66, velocity=87, time=1),\n",
      "  Message('note_on', channel=0, note=66, velocity=0, time=23),\n",
      "  Message('note_on', channel=0, note=67, velocity=87, time=1),\n",
      "  Message('note_on', channel=0, note=67, velocity=0, time=23),\n",
      "  Message('note_on', channel=0, note=69, velocity=87, time=1),\n",
      "  Message('note_on', channel=0, note=69, velocity=0, time=23),\n",
      "  Message('note_on', channel=0, note=71, velocity=87, time=1),\n",
      "  Message('note_on', channel=0, note=71, velocity=0, time=23),\n",
      "  Message('note_on', channel=0, note=73, velocity=87, time=1),\n",
      "  Message('note_on', channel=0, note=73, velocity=0, time=23),\n",
      "  Message('note_on', channel=0, note=74, velocity=87, time=1),\n",
      "  Message('note_on', channel=0, note=74, velocity=0, time=23),\n",
      "  Message('note_on', channel=0, note=71, velocity=87, time=1),\n",
      "  Message('note_on', channel=0, note=71, velocity=0, time=89),\n",
      "  Message('note_on', channel=0, note=59, velocity=87, time=103),\n",
      "  Message('note_on', channel=0, note=47, velocity=87, time=0),\n",
      "  Message('note_on', channel=0, note=59, velocity=0, time=89),\n",
      "  Message('note_on', channel=0, note=47, velocity=0, time=0),\n",
      "  Message('note_on', channel=0, note=57, velocity=87, time=103),\n",
      "  Message('note_on', channel=0, note=57, velocity=0, time=20),\n",
      "  Message('note_on', channel=0, note=52, velocity=87, time=28),\n",
      "  Message('note_on', channel=0, note=52, velocity=0, time=20),\n",
      "  Message('note_on', channel=0, note=49, velocity=87, time=28),\n",
      "  Message('note_on', channel=0, note=49, velocity=0, time=20),\n",
      "  Message('note_on', channel=0, note=52, velocity=87, time=28),\n",
      "  Message('note_on', channel=0, note=52, velocity=0, time=20),\n",
      "  Message('note_on', channel=0, note=45, velocity=87, time=28),\n",
      "  Message('note_on', channel=0, note=45, velocity=0, time=89),\n",
      "  Message('note_on', channel=0, note=67, velocity=73, time=391),\n",
      "  Message('note_on', channel=0, note=67, velocity=0, time=39),\n",
      "  Message('note_on', channel=0, note=67, velocity=73, time=57),\n",
      "  Message('note_on', channel=0, note=67, velocity=0, time=89),\n",
      "  Message('note_on', channel=0, note=66, velocity=73, time=7),\n",
      "  Message('note_on', channel=0, note=66, velocity=0, time=89),\n",
      "  Message('note_on', channel=0, note=64, velocity=73, time=7),\n",
      "  Message('note_on', channel=0, note=64, velocity=0, time=89),\n",
      "  Message('note_on', channel=0, note=69, velocity=73, time=391),\n",
      "  Message('note_on', channel=0, note=69, velocity=0, time=39),\n",
      "  Message('note_on', channel=0, note=69, velocity=73, time=57),\n",
      "  Message('note_on', channel=0, note=69, velocity=0, time=281),\n",
      "  Message('note_on', channel=0, note=67, velocity=73, time=391),\n",
      "  Message('note_on', channel=0, note=67, velocity=0, time=39),\n",
      "  Message('note_on', channel=0, note=67, velocity=73, time=57),\n",
      "  Message('note_on', channel=0, note=67, velocity=0, time=89),\n",
      "  Message('note_on', channel=0, note=66, velocity=73, time=7),\n",
      "  Message('note_on', channel=0, note=66, velocity=0, time=89),\n",
      "  Message('note_on', channel=0, note=64, velocity=73, time=7),\n",
      "  Message('note_on', channel=0, note=64, velocity=0, time=89),\n",
      "  Message('note_on', channel=0, note=62, velocity=73, time=103),\n",
      "  Message('note_on', channel=0, note=54, velocity=73, time=0),\n",
      "  Message('note_on', channel=0, note=62, velocity=0, time=89),\n",
      "  Message('note_on', channel=0, note=54, velocity=0, time=0),\n",
      "  Message('note_on', channel=0, note=64, velocity=73, time=7),\n",
      "  Message('note_on', channel=0, note=55, velocity=73, time=0),\n",
      "  Message('note_on', channel=0, note=64, velocity=0, time=89),\n",
      "  Message('note_on', channel=0, note=55, velocity=0, time=0),\n",
      "  Message('note_on', channel=0, note=66, velocity=73, time=7),\n",
      "  Message('note_on', channel=0, note=57, velocity=73, time=0),\n",
      "  Message('note_on', channel=0, note=66, velocity=0, time=89),\n",
      "  Message('note_on', channel=0, note=57, velocity=0, time=0),\n",
      "  Message('note_on', channel=0, note=67, velocity=73, time=7),\n",
      "  Message('note_on', channel=0, note=57, velocity=73, time=0),\n",
      "  Message('note_on', channel=0, note=67, velocity=0, time=89),\n",
      "  Message('note_on', channel=0, note=57, velocity=0, time=0),\n",
      "  Message('note_on', channel=0, note=66, velocity=73, time=7),\n",
      "  Message('note_on', channel=0, note=62, velocity=73, time=0),\n",
      "  Message('note_on', channel=0, note=66, velocity=0, time=89),\n",
      "  Message('note_on', channel=0, note=62, velocity=0, time=0),\n",
      "  Message('note_on', channel=0, note=65, velocity=73, time=2695),\n",
      "  Message('note_on', channel=0, note=65, velocity=0, time=89),\n",
      "  Message('note_on', channel=0, note=66, velocity=73, time=7),\n",
      "  Message('note_on', channel=0, note=66, velocity=0, time=89),\n",
      "  Message('note_on', channel=0, note=67, velocity=73, time=7),\n",
      "  Message('note_on', channel=0, note=67, velocity=0, time=89),\n",
      "  Message('note_on', channel=0, note=66, velocity=73, time=7),\n",
      "  Message('note_on', channel=0, note=62, velocity=73, time=0),\n",
      "  Message('note_on', channel=0, note=66, velocity=0, time=89),\n",
      "  Message('note_on', channel=0, note=62, velocity=0, time=0),\n",
      "  Message('note_on', channel=0, note=38, velocity=73, time=295),\n",
      "  Message('note_on', channel=0, note=38, velocity=0, time=45),\n",
      "  Message('note_on', channel=0, note=50, velocity=73, time=3),\n",
      "  Message('note_on', channel=0, note=50, velocity=0, time=45),\n",
      "  Message('note_on', channel=0, note=50, velocity=73, time=3),\n",
      "  Message('note_on', channel=0, note=50, velocity=0, time=45),\n",
      "  Message('note_on', channel=0, note=50, velocity=74, time=3),\n",
      "  Message('note_on', channel=0, note=50, velocity=0, time=45),\n",
      "  Message('note_on', channel=0, note=50, velocity=74, time=3),\n",
      "  Message('note_on', channel=0, note=50, velocity=0, time=45),\n",
      "  Message('note_on', channel=0, note=50, velocity=74, time=3),\n",
      "  Message('note_on', channel=0, note=50, velocity=0, time=45),\n",
      "  Message('note_on', channel=0, note=50, velocity=75, time=3),\n",
      "  Message('note_on', channel=0, note=50, velocity=0, time=45),\n",
      "  Message('note_on', channel=0, note=50, velocity=75, time=3),\n",
      "  Message('note_on', channel=0, note=50, velocity=0, time=45),\n",
      "  Message('note_on', channel=0, note=50, velocity=75, time=3),\n",
      "  Message('note_on', channel=0, note=50, velocity=0, time=89),\n",
      "  Message('note_on', channel=0, note=38, velocity=78, time=295),\n",
      "  Message('note_on', channel=0, note=38, velocity=0, time=45),\n",
      "  Message('note_on', channel=0, note=50, velocity=78, time=3),\n",
      "  Message('note_on', channel=0, note=50, velocity=0, time=45),\n",
      "  Message('note_on', channel=0, note=50, velocity=79, time=3),\n",
      "  Message('note_on', channel=0, note=50, velocity=0, time=45),\n",
      "  Message('note_on', channel=0, note=50, velocity=79, time=3),\n",
      "  Message('note_on', channel=0, note=50, velocity=0, time=45),\n",
      "  Message('note_on', channel=0, note=50, velocity=80, time=3),\n",
      "  Message('note_on', channel=0, note=50, velocity=0, time=45),\n",
      "  Message('note_on', channel=0, note=50, velocity=80, time=3),\n",
      "  Message('note_on', channel=0, note=50, velocity=0, time=45),\n",
      "  Message('note_on', channel=0, note=50, velocity=80, time=3),\n",
      "  Message('note_on', channel=0, note=50, velocity=0, time=45),\n",
      "  Message('note_on', channel=0, note=50, velocity=81, time=3),\n",
      "  Message('note_on', channel=0, note=50, velocity=0, time=45),\n",
      "  Message('note_on', channel=0, note=50, velocity=81, time=3),\n",
      "  Message('note_on', channel=0, note=50, velocity=0, time=89),\n",
      "  Message('note_on', channel=0, note=67, velocity=84, time=295),\n",
      "  Message('note_on', channel=0, note=67, velocity=0, time=23),\n",
      "  Message('note_on', channel=0, note=66, velocity=84, time=1),\n",
      "  Message('note_on', channel=0, note=66, velocity=0, time=23),\n",
      "  Message('note_on', channel=0, note=67, velocity=84, time=1),\n",
      "  Message('note_on', channel=0, note=67, velocity=0, time=23),\n",
      "  Message('note_on', channel=0, note=66, velocity=84, time=1),\n",
      "  Message('note_on', channel=0, note=66, velocity=0, time=23),\n",
      "  Message('note_on', channel=0, note=67, velocity=84, time=1),\n",
      "  Message('note_on', channel=0, note=67, velocity=0, time=23),\n",
      "  Message('note_on', channel=0, note=66, velocity=85, time=1),\n",
      "  Message('note_on', channel=0, note=66, velocity=0, time=23),\n",
      "  Message('note_on', channel=0, note=67, velocity=85, time=1),\n",
      "  Message('note_on', channel=0, note=67, velocity=0, time=23),\n",
      "  Message('note_on', channel=0, note=66, velocity=85, time=1),\n",
      "  Message('note_on', channel=0, note=66, velocity=0, time=23),\n",
      "  Message('note_on', channel=0, note=67, velocity=85, time=1),\n",
      "  Message('note_on', channel=0, note=67, velocity=0, time=23),\n",
      "  Message('note_on', channel=0, note=69, velocity=85, time=1),\n",
      "  Message('note_on', channel=0, note=69, velocity=0, time=23),\n",
      "  Message('note_on', channel=0, note=71, velocity=85, time=1),\n",
      "  Message('note_on', channel=0, note=71, velocity=0, time=23),\n",
      "  Message('note_on', channel=0, note=72, velocity=86, time=1),\n",
      "  Message('note_on', channel=0, note=72, velocity=0, time=23),\n",
      "  Message('note_on', channel=0, note=74, velocity=86, time=1),\n",
      "  Message('note_on', channel=0, note=74, velocity=0, time=23),\n",
      "  Message('note_on', channel=0, note=76, velocity=86, time=1),\n",
      "  Message('note_on', channel=0, note=76, velocity=0, time=23),\n",
      "  Message('note_on', channel=0, note=78, velocity=86, time=1),\n",
      "  Message('note_on', channel=0, note=78, velocity=0, time=23),\n",
      "  Message('note_on', channel=0, note=79, velocity=86, time=1),\n",
      "  Message('note_on', channel=0, note=79, velocity=0, time=23),\n",
      "  Message('note_on', channel=0, note=64, velocity=87, time=1),\n",
      "  Message('note_on', channel=0, note=64, velocity=0, time=23),\n",
      "  Message('note_on', channel=0, note=63, velocity=87, time=1),\n",
      "  Message('note_on', channel=0, note=63, velocity=0, time=23),\n",
      "  Message('note_on', channel=0, note=64, velocity=87, time=1),\n",
      "  Message('note_on', channel=0, note=64, velocity=0, time=23),\n",
      "  Message('note_on', channel=0, note=63, velocity=87, time=1),\n",
      "  Message('note_on', channel=0, note=63, velocity=0, time=23),\n",
      "  Message('note_on', channel=0, note=64, velocity=87, time=1),\n",
      "  Message('note_on', channel=0, note=64, velocity=0, time=23),\n",
      "  Message('note_on', channel=0, note=63, velocity=87, time=1),\n",
      "  Message('note_on', channel=0, note=63, velocity=0, time=23),\n",
      "  Message('note_on', channel=0, note=64, velocity=87, time=1),\n",
      "  Message('note_on', channel=0, note=64, velocity=0, time=23),\n",
      "  Message('note_on', channel=0, note=63, velocity=87, time=1),\n",
      "  Message('note_on', channel=0, note=63, velocity=0, time=23),\n",
      "  Message('note_on', channel=0, note=64, velocity=87, time=1),\n",
      "  Message('note_on', channel=0, note=64, velocity=0, time=23),\n",
      "  Message('note_on', channel=0, note=66, velocity=87, time=1),\n",
      "  Message('note_on', channel=0, note=66, velocity=0, time=23),\n",
      "  Message('note_on', channel=0, note=67, velocity=87, time=1),\n",
      "  Message('note_on', channel=0, note=67, velocity=0, time=23),\n",
      "  Message('note_on', channel=0, note=69, velocity=87, time=1),\n",
      "  Message('note_on', channel=0, note=69, velocity=0, time=23),\n",
      "  Message('note_on', channel=0, note=71, velocity=87, time=1),\n",
      "  Message('note_on', channel=0, note=71, velocity=0, time=23),\n",
      "  Message('note_on', channel=0, note=73, velocity=87, time=1),\n",
      "  Message('note_on', channel=0, note=73, velocity=0, time=23),\n",
      "  Message('note_on', channel=0, note=74, velocity=87, time=1),\n",
      "  Message('note_on', channel=0, note=74, velocity=0, time=23),\n",
      "  Message('note_on', channel=0, note=76, velocity=87, time=1),\n",
      "  Message('note_on', channel=0, note=76, velocity=0, time=23),\n",
      "  Message('note_on', channel=0, note=66, velocity=87, time=1),\n",
      "  Message('note_on', channel=0, note=66, velocity=0, time=23),\n",
      "  Message('note_on', channel=0, note=65, velocity=87, time=1),\n",
      "  Message('note_on', channel=0, note=65, velocity=0, time=23),\n",
      "  Message('note_on', channel=0, note=66, velocity=87, time=1),\n",
      "  Message('note_on', channel=0, note=66, velocity=0, time=23),\n",
      "  Message('note_on', channel=0, note=65, velocity=87, time=1),\n",
      "  Message('note_on', channel=0, note=65, velocity=0, time=23),\n",
      "  Message('note_on', channel=0, note=66, velocity=87, time=1),\n",
      "  Message('note_on', channel=0, note=66, velocity=0, time=23),\n",
      "  Message('note_on', channel=0, note=65, velocity=87, time=1),\n",
      "  Message('note_on', channel=0, note=65, velocity=0, time=23),\n",
      "  Message('note_on', channel=0, note=66, velocity=87, time=1),\n",
      "  Message('note_on', channel=0, note=66, velocity=0, time=23),\n",
      "  Message('note_on', channel=0, note=65, velocity=87, time=1),\n",
      "  Message('note_on', channel=0, note=65, velocity=0, time=23),\n",
      "  Message('note_on', channel=0, note=66, velocity=87, time=1),\n",
      "  Message('note_on', channel=0, note=66, velocity=0, time=23),\n",
      "  Message('note_on', channel=0, note=67, velocity=87, time=1),\n",
      "  Message('note_on', channel=0, note=67, velocity=0, time=23),\n",
      "  Message('note_on', channel=0, note=69, velocity=87, time=1),\n",
      "  Message('note_on', channel=0, note=69, velocity=0, time=23),\n",
      "  Message('note_on', channel=0, note=71, velocity=87, time=1),\n",
      "  Message('note_on', channel=0, note=71, velocity=0, time=23),\n",
      "  Message('note_on', channel=0, note=73, velocity=87, time=1),\n",
      "  Message('note_on', channel=0, note=73, velocity=0, time=23),\n",
      "  Message('note_on', channel=0, note=74, velocity=87, time=1),\n",
      "  Message('note_on', channel=0, note=74, velocity=0, time=23),\n",
      "  Message('note_on', channel=0, note=76, velocity=87, time=1),\n",
      "  Message('note_on', channel=0, note=76, velocity=0, time=23),\n",
      "  Message('note_on', channel=0, note=78, velocity=87, time=1),\n",
      "  Message('note_on', channel=0, note=78, velocity=0, time=23),\n",
      "  Message('note_on', channel=0, note=62, velocity=87, time=1),\n",
      "  Message('note_on', channel=0, note=62, velocity=0, time=23),\n",
      "  Message('note_on', channel=0, note=61, velocity=87, time=1),\n",
      "  Message('note_on', channel=0, note=61, velocity=0, time=23),\n",
      "  Message('note_on', channel=0, note=62, velocity=87, time=1),\n",
      "  Message('note_on', channel=0, note=62, velocity=0, time=23),\n",
      "  Message('note_on', channel=0, note=61, velocity=87, time=1),\n",
      "  Message('note_on', channel=0, note=61, velocity=0, time=23),\n",
      "  Message('note_on', channel=0, note=62, velocity=87, time=1),\n",
      "  Message('note_on', channel=0, note=62, velocity=0, time=23),\n",
      "  Message('note_on', channel=0, note=61, velocity=87, time=1),\n",
      "  Message('note_on', channel=0, note=61, velocity=0, time=23),\n",
      "  Message('note_on', channel=0, note=62, velocity=87, time=1),\n",
      "  Message('note_on', channel=0, note=62, velocity=0, time=23),\n",
      "  Message('note_on', channel=0, note=61, velocity=87, time=1),\n",
      "  Message('note_on', channel=0, note=61, velocity=0, time=23),\n",
      "  Message('note_on', channel=0, note=62, velocity=87, time=1),\n",
      "  Message('note_on', channel=0, note=62, velocity=0, time=23),\n",
      "  Message('note_on', channel=0, note=64, velocity=87, time=1),\n",
      "  Message('note_on', channel=0, note=64, velocity=0, time=23),\n",
      "  Message('note_on', channel=0, note=66, velocity=87, time=1),\n",
      "  Message('note_on', channel=0, note=66, velocity=0, time=23),\n",
      "  Message('note_on', channel=0, note=67, velocity=87, time=1),\n",
      "  Message('note_on', channel=0, note=67, velocity=0, time=23),\n",
      "  Message('note_on', channel=0, note=69, velocity=87, time=1),\n",
      "  Message('note_on', channel=0, note=69, velocity=0, time=23),\n",
      "  Message('note_on', channel=0, note=71, velocity=87, time=1),\n",
      "  Message('note_on', channel=0, note=71, velocity=0, time=23),\n",
      "  Message('note_on', channel=0, note=73, velocity=87, time=1),\n",
      "  Message('note_on', channel=0, note=73, velocity=0, time=23),\n",
      "  Message('note_on', channel=0, note=74, velocity=87, time=1),\n",
      "  Message('note_on', channel=0, note=74, velocity=0, time=23),\n",
      "  Message('note_on', channel=0, note=59, velocity=87, time=1),\n",
      "  Message('note_on', channel=0, note=59, velocity=0, time=23),\n",
      "  Message('note_on', channel=0, note=58, velocity=87, time=1),\n",
      "  Message('note_on', channel=0, note=58, velocity=0, time=23),\n",
      "  Message('note_on', channel=0, note=59, velocity=87, time=1),\n",
      "  Message('note_on', channel=0, note=59, velocity=0, time=23),\n",
      "  Message('note_on', channel=0, note=58, velocity=87, time=1),\n",
      "  Message('note_on', channel=0, note=58, velocity=0, time=23),\n",
      "  Message('note_on', channel=0, note=59, velocity=87, time=1),\n",
      "  Message('note_on', channel=0, note=59, velocity=0, time=23),\n",
      "  Message('note_on', channel=0, note=58, velocity=87, time=1),\n",
      "  Message('note_on', channel=0, note=58, velocity=0, time=23),\n",
      "  Message('note_on', channel=0, note=59, velocity=87, time=1),\n",
      "  Message('note_on', channel=0, note=59, velocity=0, time=23),\n",
      "  Message('note_on', channel=0, note=58, velocity=87, time=1),\n",
      "  Message('note_on', channel=0, note=58, velocity=0, time=23),\n",
      "  Message('note_on', channel=0, note=59, velocity=87, time=1),\n",
      "  Message('note_on', channel=0, note=59, velocity=0, time=23),\n",
      "  Message('note_on', channel=0, note=61, velocity=87, time=1),\n",
      "  Message('note_on', channel=0, note=61, velocity=0, time=23),\n",
      "  Message('note_on', channel=0, note=62, velocity=87, time=1),\n",
      "  Message('note_on', channel=0, note=62, velocity=0, time=23),\n",
      "  Message('note_on', channel=0, note=64, velocity=87, time=1),\n",
      "  Message('note_on', channel=0, note=64, velocity=0, time=23),\n",
      "  Message('note_on', channel=0, note=66, velocity=87, time=1),\n",
      "  Message('note_on', channel=0, note=66, velocity=0, time=23),\n",
      "  Message('note_on', channel=0, note=67, velocity=87, time=1),\n",
      "  Message('note_on', channel=0, note=67, velocity=0, time=23),\n",
      "  Message('note_on', channel=0, note=69, velocity=87, time=1),\n",
      "  Message('note_on', channel=0, note=69, velocity=0, time=23),\n",
      "  Message('note_on', channel=0, note=71, velocity=87, time=1),\n",
      "  Message('note_on', channel=0, note=71, velocity=0, time=23),\n",
      "  Message('note_on', channel=0, note=55, velocity=87, time=1),\n",
      "  Message('note_on', channel=0, note=55, velocity=0, time=23),\n",
      "  Message('note_on', channel=0, note=54, velocity=87, time=1),\n",
      "  Message('note_on', channel=0, note=54, velocity=0, time=23),\n",
      "  Message('note_on', channel=0, note=55, velocity=87, time=1),\n",
      "  Message('note_on', channel=0, note=55, velocity=0, time=23),\n",
      "  Message('note_on', channel=0, note=54, velocity=87, time=1),\n",
      "  Message('note_on', channel=0, note=54, velocity=0, time=23),\n",
      "  Message('note_on', channel=0, note=55, velocity=87, time=1),\n",
      "  Message('note_on', channel=0, note=55, velocity=0, time=23),\n",
      "  Message('note_on', channel=0, note=54, velocity=87, time=1),\n",
      "  Message('note_on', channel=0, note=54, velocity=0, time=23),\n",
      "  Message('note_on', channel=0, note=55, velocity=87, time=1),\n",
      "  Message('note_on', channel=0, note=55, velocity=0, time=23),\n",
      "  Message('note_on', channel=0, note=54, velocity=87, time=1),\n",
      "  Message('note_on', channel=0, note=54, velocity=0, time=23),\n",
      "  Message('note_on', channel=0, note=55, velocity=87, time=1),\n",
      "  Message('note_on', channel=0, note=55, velocity=0, time=23),\n",
      "  Message('note_on', channel=0, note=57, velocity=87, time=1),\n",
      "  Message('note_on', channel=0, note=57, velocity=0, time=23),\n",
      "  Message('note_on', channel=0, note=59, velocity=87, time=1),\n",
      "  Message('note_on', channel=0, note=59, velocity=0, time=23),\n",
      "  Message('note_on', channel=0, note=61, velocity=87, time=1),\n",
      "  Message('note_on', channel=0, note=61, velocity=0, time=23),\n",
      "  Message('note_on', channel=0, note=62, velocity=87, time=1),\n",
      "  Message('note_on', channel=0, note=62, velocity=0, time=23),\n",
      "  Message('note_on', channel=0, note=64, velocity=87, time=1),\n",
      "  Message('note_on', channel=0, note=64, velocity=0, time=23),\n",
      "  Message('note_on', channel=0, note=66, velocity=87, time=1),\n",
      "  Message('note_on', channel=0, note=66, velocity=0, time=23),\n",
      "  Message('note_on', channel=0, note=67, velocity=87, time=1),\n",
      "  Message('note_on', channel=0, note=67, velocity=0, time=23),\n",
      "  Message('note_on', channel=0, note=61, velocity=87, time=1),\n",
      "  Message('note_on', channel=0, note=61, velocity=0, time=23),\n",
      "  Message('note_on', channel=0, note=62, velocity=87, time=1),\n",
      "  Message('note_on', channel=0, note=62, velocity=0, time=23),\n",
      "  Message('note_on', channel=0, note=64, velocity=87, time=1),\n",
      "  Message('note_on', channel=0, note=64, velocity=0, time=23),\n",
      "  Message('note_on', channel=0, note=62, velocity=87, time=1),\n",
      "  Message('note_on', channel=0, note=62, velocity=0, time=23),\n",
      "  Message('note_on', channel=0, note=61, velocity=87, time=1),\n",
      "  Message('note_on', channel=0, note=61, velocity=0, time=23),\n",
      "  Message('note_on', channel=0, note=57, velocity=87, time=1),\n",
      "  Message('note_on', channel=0, note=57, velocity=0, time=23),\n",
      "  Message('note_on', channel=0, note=59, velocity=87, time=1),\n",
      "  Message('note_on', channel=0, note=59, velocity=0, time=23),\n",
      "  Message('note_on', channel=0, note=61, velocity=87, time=1),\n",
      "  Message('note_on', channel=0, note=61, velocity=0, time=23),\n",
      "  Message('note_on', channel=0, note=62, velocity=87, time=1),\n",
      "  Message('note_on', channel=0, note=62, velocity=0, time=23),\n",
      "  Message('note_on', channel=0, note=64, velocity=87, time=1),\n",
      "  Message('note_on', channel=0, note=64, velocity=0, time=23),\n",
      "  Message('note_on', channel=0, note=66, velocity=87, time=1),\n",
      "  Message('note_on', channel=0, note=66, velocity=0, time=23),\n",
      "  Message('note_on', channel=0, note=64, velocity=87, time=1),\n",
      "  Message('note_on', channel=0, note=64, velocity=0, time=23),\n",
      "  Message('note_on', channel=0, note=66, velocity=87, time=1),\n",
      "  Message('note_on', channel=0, note=66, velocity=0, time=23),\n",
      "  Message('note_on', channel=0, note=64, velocity=87, time=1),\n",
      "  Message('note_on', channel=0, note=64, velocity=0, time=23),\n",
      "  Message('note_on', channel=0, note=62, velocity=87, time=1),\n",
      "  Message('note_on', channel=0, note=62, velocity=0, time=23),\n",
      "  Message('note_on', channel=0, note=61, velocity=87, time=1),\n",
      "  Message('note_on', channel=0, note=61, velocity=0, time=23),\n",
      "  Message('note_on', channel=0, note=59, velocity=87, time=1),\n",
      "  Message('note_on', channel=0, note=59, velocity=0, time=23),\n",
      "  Message('note_on', channel=0, note=61, velocity=87, time=1),\n",
      "  Message('note_on', channel=0, note=61, velocity=0, time=23),\n",
      "  Message('note_on', channel=0, note=62, velocity=87, time=1),\n",
      "  Message('note_on', channel=0, note=62, velocity=0, time=23),\n",
      "  Message('note_on', channel=0, note=61, velocity=87, time=1),\n",
      "  Message('note_on', channel=0, note=61, velocity=0, time=23),\n",
      "  Message('note_on', channel=0, note=59, velocity=87, time=1),\n",
      "  Message('note_on', channel=0, note=59, velocity=0, time=23),\n",
      "  Message('note_on', channel=0, note=55, velocity=87, time=1),\n",
      "  Message('note_on', channel=0, note=55, velocity=0, time=23),\n",
      "  Message('note_on', channel=0, note=57, velocity=87, time=1),\n",
      "  Message('note_on', channel=0, note=57, velocity=0, time=23),\n",
      "  Message('note_on', channel=0, note=59, velocity=87, time=1),\n",
      "  Message('note_on', channel=0, note=59, velocity=0, time=23),\n",
      "  Message('note_on', channel=0, note=61, velocity=87, time=1),\n",
      "  Message('note_on', channel=0, note=61, velocity=0, time=23),\n",
      "  Message('note_on', channel=0, note=62, velocity=87, time=1),\n",
      "  Message('note_on', channel=0, note=62, velocity=0, time=23),\n",
      "  Message('note_on', channel=0, note=64, velocity=87, time=1),\n",
      "  Message('note_on', channel=0, note=64, velocity=0, time=23),\n",
      "  Message('note_on', channel=0, note=62, velocity=87, time=1),\n",
      "  Message('note_on', channel=0, note=62, velocity=0, time=23),\n",
      "  Message('note_on', channel=0, note=61, velocity=87, time=1),\n",
      "  Message('note_on', channel=0, note=61, velocity=0, time=23),\n",
      "  Message('note_on', channel=0, note=59, velocity=87, time=1),\n",
      "  Message('note_on', channel=0, note=59, velocity=0, time=23),\n",
      "  Message('note_on', channel=0, note=57, velocity=87, time=1),\n",
      "  Message('note_on', channel=0, note=57, velocity=0, time=23),\n",
      "  Message('note_on', channel=0, note=55, velocity=87, time=1),\n",
      "  Message('note_on', channel=0, note=55, velocity=0, time=23),\n",
      "  Message('note_on', channel=0, note=54, velocity=87, time=1),\n",
      "  Message('note_on', channel=0, note=54, velocity=0, time=23),\n",
      "  Message('note_on', channel=0, note=57, velocity=87, time=1),\n",
      "  Message('note_on', channel=0, note=57, velocity=0, time=23),\n",
      "  Message('note_on', channel=0, note=55, velocity=87, time=1),\n",
      "  Message('note_on', channel=0, note=55, velocity=0, time=23),\n",
      "  Message('note_on', channel=0, note=54, velocity=87, time=1),\n",
      "  Message('note_on', channel=0, note=54, velocity=0, time=23),\n",
      "  Message('note_on', channel=0, note=55, velocity=87, time=1),\n",
      "  Message('note_on', channel=0, note=55, velocity=0, time=23),\n",
      "  Message('note_on', channel=0, note=57, velocity=87, time=1),\n",
      "  Message('note_on', channel=0, note=57, velocity=0, time=23),\n",
      "  Message('note_on', channel=0, note=59, velocity=87, time=1),\n",
      "  Message('note_on', channel=0, note=59, velocity=0, time=23),\n",
      "  Message('note_on', channel=0, note=61, velocity=87, time=1),\n",
      "  Message('note_on', channel=0, note=61, velocity=0, time=23),\n",
      "  Message('note_on', channel=0, note=62, velocity=87, time=1),\n",
      "  Message('note_on', channel=0, note=62, velocity=0, time=23),\n",
      "  Message('note_on', channel=0, note=64, velocity=87, time=1),\n",
      "  Message('note_on', channel=0, note=64, velocity=0, time=23),\n",
      "  Message('note_on', channel=0, note=66, velocity=87, time=1),\n",
      "  Message('note_on', channel=0, note=66, velocity=0, time=23),\n",
      "  Message('note_on', channel=0, note=67, velocity=87, time=1),\n",
      "  Message('note_on', channel=0, note=67, velocity=0, time=23),\n",
      "  Message('note_on', channel=0, note=69, velocity=87, time=1),\n",
      "  Message('note_on', channel=0, note=69, velocity=0, time=23),\n",
      "  Message('note_on', channel=0, note=71, velocity=87, time=1),\n",
      "  Message('note_on', channel=0, note=71, velocity=0, time=23),\n",
      "  Message('note_on', channel=0, note=73, velocity=87, time=1),\n",
      "  Message('note_on', channel=0, note=73, velocity=0, time=23),\n",
      "  Message('note_on', channel=0, note=74, velocity=87, time=1),\n",
      "  Message('note_on', channel=0, note=74, velocity=0, time=23),\n",
      "  Message('note_on', channel=0, note=71, velocity=87, time=1),\n",
      "  Message('note_on', channel=0, note=71, velocity=0, time=23),\n",
      "  Message('note_on', channel=0, note=73, velocity=87, time=1),\n",
      "  Message('note_on', channel=0, note=73, velocity=0, time=23),\n",
      "  Message('note_on', channel=0, note=71, velocity=87, time=1),\n",
      "  Message('note_on', channel=0, note=71, velocity=0, time=23),\n",
      "  Message('note_on', channel=0, note=69, velocity=87, time=1),\n",
      "  Message('note_on', channel=0, note=69, velocity=0, time=23),\n",
      "  Message('note_on', channel=0, note=67, velocity=87, time=1),\n",
      "  Message('note_on', channel=0, note=67, velocity=0, time=23),\n",
      "  Message('note_on', channel=0, note=66, velocity=87, time=1),\n",
      "  Message('note_on', channel=0, note=66, velocity=0, time=23),\n",
      "  Message('note_on', channel=0, note=64, velocity=87, time=1),\n",
      "  Message('note_on', channel=0, note=64, velocity=0, time=23),\n",
      "  Message('note_on', channel=0, note=62, velocity=87, time=1),\n",
      "  Message('note_on', channel=0, note=62, velocity=0, time=23),\n",
      "  Message('note_on', channel=0, note=61, velocity=87, time=1),\n",
      "  Message('note_on', channel=0, note=61, velocity=0, time=23),\n",
      "  Message('note_on', channel=0, note=62, velocity=87, time=1),\n",
      "  Message('note_on', channel=0, note=62, velocity=0, time=23),\n",
      "  Message('note_on', channel=0, note=61, velocity=87, time=1),\n",
      "  Message('note_on', channel=0, note=61, velocity=0, time=23),\n",
      "  Message('note_on', channel=0, note=59, velocity=87, time=1),\n",
      "  Message('note_on', channel=0, note=59, velocity=0, time=23),\n",
      "  Message('note_on', channel=0, note=57, velocity=87, time=1),\n",
      "  Message('note_on', channel=0, note=57, velocity=0, time=23),\n",
      "  Message('note_on', channel=0, note=55, velocity=87, time=1),\n",
      "  Message('note_on', channel=0, note=55, velocity=0, time=23),\n",
      "  Message('note_on', channel=0, note=54, velocity=87, time=1),\n",
      "  Message('note_on', channel=0, note=54, velocity=0, time=23),\n",
      "  Message('note_on', channel=0, note=52, velocity=87, time=1),\n",
      "  Message('note_on', channel=0, note=52, velocity=0, time=23),\n",
      "  Message('note_on', channel=0, note=50, velocity=87, time=1),\n",
      "  Message('note_on', channel=0, note=50, velocity=0, time=89),\n",
      "  Message('note_on', channel=0, note=54, velocity=73, time=199),\n",
      "  Message('note_on', channel=0, note=42, velocity=73, time=0),\n",
      "  Message('note_on', channel=0, note=54, velocity=0, time=20),\n",
      "  Message('note_on', channel=0, note=42, velocity=0, time=0),\n",
      "  Message('note_on', channel=0, note=52, velocity=73, time=28),\n",
      "  Message('note_on', channel=0, note=40, velocity=73, time=0),\n",
      "  Message('note_on', channel=0, note=52, velocity=0, time=20),\n",
      "  Message('note_on', channel=0, note=40, velocity=0, time=0),\n",
      "  Message('note_on', channel=0, note=51, velocity=73, time=28),\n",
      "  Message('note_on', channel=0, note=39, velocity=73, time=0),\n",
      "  Message('note_on', channel=0, note=51, velocity=0, time=177),\n",
      "  Message('note_on', channel=0, note=39, velocity=0, time=0),\n",
      "  Message('note_on', channel=0, note=52, velocity=73, time=15),\n",
      "  Message('note_on', channel=0, note=40, velocity=73, time=0),\n",
      "  Message('note_on', channel=0, note=52, velocity=0, time=177),\n",
      "  Message('note_on', channel=0, note=40, velocity=0, time=0),\n",
      "  Message('note_on', channel=0, note=49, velocity=73, time=15),\n",
      "  Message('note_on', channel=0, note=37, velocity=73, time=0),\n",
      "  Message('note_on', channel=0, note=49, velocity=0, time=177),\n",
      "  Message('note_on', channel=0, note=37, velocity=0, time=0),\n",
      "  Message('note_on', channel=0, note=50, velocity=74, time=15),\n",
      "  Message('note_on', channel=0, note=38, velocity=74, time=0),\n",
      "  Message('note_on', channel=0, note=50, velocity=0, time=177),\n",
      "  Message('note_on', channel=0, note=38, velocity=0, time=0),\n",
      "  Message('note_on', channel=0, note=47, velocity=75, time=15),\n",
      "  Message('note_on', channel=0, note=35, velocity=75, time=0),\n",
      "  Message('note_on', channel=0, note=47, velocity=0, time=177),\n",
      "  Message('note_on', channel=0, note=35, velocity=0, time=0),\n",
      "  Message('note_on', channel=0, note=49, velocity=77, time=15),\n",
      "  Message('note_on', channel=0, note=37, velocity=77, time=0),\n",
      "  Message('note_on', channel=0, note=49, velocity=0, time=177),\n",
      "  Message('note_on', channel=0, note=37, velocity=0, time=0),\n",
      "  Message('note_on', channel=0, note=58, velocity=78, time=15),\n",
      "  Message('note_on', channel=0, note=46, velocity=78, time=0),\n",
      "  Message('note_on', channel=0, note=58, velocity=0, time=177),\n",
      "  Message('note_on', channel=0, note=46, velocity=0, time=0),\n",
      "  Message('note_on', channel=0, note=59, velocity=80, time=15),\n",
      "  Message('note_on', channel=0, note=47, velocity=80, time=0),\n",
      "  Message('note_on', channel=0, note=59, velocity=0, time=133),\n",
      "  Message('note_on', channel=0, note=47, velocity=0, time=0),\n",
      "  Message('note_on', channel=0, note=57, velocity=81, time=11),\n",
      "  Message('note_on', channel=0, note=45, velocity=81, time=0),\n",
      "  Message('note_on', channel=0, note=57, velocity=0, time=45),\n",
      "  Message('note_on', channel=0, note=45, velocity=0, time=0),\n",
      "  Message('note_on', channel=0, note=55, velocity=81, time=3),\n",
      "  Message('note_on', channel=0, note=43, velocity=81, time=0),\n",
      "  Message('note_on', channel=0, note=55, velocity=0, time=45),\n",
      "  Message('note_on', channel=0, note=43, velocity=0, time=0),\n",
      "  Message('note_on', channel=0, note=55, velocity=82, time=51),\n",
      "  Message('note_on', channel=0, note=43, velocity=82, time=0),\n",
      "  Message('note_on', channel=0, note=55, velocity=0, time=45),\n",
      "  Message('note_on', channel=0, note=43, velocity=0, time=0),\n",
      "  Message('note_on', channel=0, note=55, velocity=82, time=51),\n",
      "  Message('note_on', channel=0, note=43, velocity=82, time=0),\n",
      "  Message('note_on', channel=0, note=55, velocity=0, time=45),\n",
      "  Message('note_on', channel=0, note=43, velocity=0, time=0),\n",
      "  Message('note_on', channel=0, note=55, velocity=83, time=51),\n",
      "  Message('note_on', channel=0, note=43, velocity=83, time=0),\n",
      "  Message('note_on', channel=0, note=55, velocity=0, time=45),\n",
      "  Message('note_on', channel=0, note=43, velocity=0, time=0),\n",
      "  Message('note_on', channel=0, note=56, velocity=84, time=51),\n",
      "  Message('note_on', channel=0, note=44, velocity=84, time=0),\n",
      "  Message('note_on', channel=0, note=56, velocity=0, time=45),\n",
      "  Message('note_on', channel=0, note=44, velocity=0, time=0),\n",
      "  Message('note_on', channel=0, note=56, velocity=84, time=51),\n",
      "  Message('note_on', channel=0, note=44, velocity=84, time=0),\n",
      "  Message('note_on', channel=0, note=56, velocity=0, time=45),\n",
      "  Message('note_on', channel=0, note=44, velocity=0, time=0),\n",
      "  Message('note_on', channel=0, note=56, velocity=85, time=51),\n",
      "  Message('note_on', channel=0, note=44, velocity=85, time=0),\n",
      "  Message('note_on', channel=0, note=56, velocity=0, time=45),\n",
      "  Message('note_on', channel=0, note=44, velocity=0, time=0),\n",
      "  Message('note_on', channel=0, note=56, velocity=86, time=51),\n",
      "  Message('note_on', channel=0, note=44, velocity=86, time=0),\n",
      "  Message('note_on', channel=0, note=56, velocity=0, time=45),\n",
      "  Message('note_on', channel=0, note=44, velocity=0, time=0),\n",
      "  Message('note_on', channel=0, note=57, velocity=87, time=51),\n",
      "  Message('note_on', channel=0, note=45, velocity=87, time=0),\n",
      "  Message('note_on', channel=0, note=57, velocity=0, time=89),\n",
      "  Message('note_on', channel=0, note=45, velocity=0, time=0),\n",
      "  Message('note_on', channel=0, note=57, velocity=87, time=295),\n",
      "  Message('note_on', channel=0, note=57, velocity=0, time=23),\n",
      "  Message('note_on', channel=0, note=69, velocity=87, time=1),\n",
      "  Message('note_on', channel=0, note=69, velocity=0, time=23),\n",
      "  Message('note_on', channel=0, note=68, velocity=87, time=1),\n",
      "  Message('note_on', channel=0, note=68, velocity=0, time=23),\n",
      "  Message('note_on', channel=0, note=69, velocity=87, time=1),\n",
      "  Message('note_on', channel=0, note=69, velocity=0, time=23),\n",
      "  Message('note_on', channel=0, note=71, velocity=87, time=1),\n",
      "  Message('note_on', channel=0, note=71, velocity=0, time=23),\n",
      "  Message('note_on', channel=0, note=69, velocity=87, time=1),\n",
      "  Message('note_on', channel=0, note=69, velocity=0, time=23),\n",
      "  Message('note_on', channel=0, note=68, velocity=87, time=1),\n",
      "  Message('note_on', channel=0, note=68, velocity=0, time=23),\n",
      "  Message('note_on', channel=0, note=69, velocity=87, time=1),\n",
      "  Message('note_on', channel=0, note=69, velocity=0, time=23),\n",
      "  Message('note_on', channel=0, note=57, velocity=87, time=1),\n",
      "  Message('note_on', channel=0, note=57, velocity=0, time=23),\n",
      "  Message('note_on', channel=0, note=67, velocity=87, time=1),\n",
      "  Message('note_on', channel=0, note=67, velocity=0, time=23),\n",
      "  Message('note_on', channel=0, note=66, velocity=86, time=1),\n",
      "  Message('note_on', channel=0, note=66, velocity=0, time=23),\n",
      "  Message('note_on', channel=0, note=67, velocity=85, time=1),\n",
      "  Message('note_on', channel=0, note=67, velocity=0, time=23),\n",
      "  Message('note_on', channel=0, note=69, velocity=84, time=1),\n",
      "  Message('note_on', channel=0, note=69, velocity=0, time=23),\n",
      "  Message('note_on', channel=0, note=67, velocity=84, time=1),\n",
      "  Message('note_on', channel=0, note=67, velocity=0, time=23),\n",
      "  Message('note_on', channel=0, note=66, velocity=83, time=1),\n",
      "  Message('note_on', channel=0, note=66, velocity=0, time=23),\n",
      "  Message('note_on', channel=0, note=67, velocity=82, time=1),\n",
      "  Message('note_on', channel=0, note=67, velocity=0, time=23),\n",
      "  Message('note_on', channel=0, note=62, velocity=73, time=1),\n",
      "  Message('note_on', channel=0, note=62, velocity=0, time=18),\n",
      "  Message('note_on', channel=0, note=74, velocity=89, time=0),\n",
      "  Message('note_on', channel=0, note=74, velocity=0, time=174),\n",
      "  Message('note_on', channel=0, note=73, velocity=73, time=0),\n",
      "  Message('note_on', channel=0, note=73, velocity=0, time=89),\n",
      "  Message('note_on', channel=0, note=71, velocity=73, time=7),\n",
      "  Message('note_on', channel=0, note=71, velocity=0, time=89),\n",
      "  Message('note_on', channel=0, note=68, velocity=89, time=7),\n",
      "  Message('note_on', channel=0, note=68, velocity=0, time=96),\n",
      "  Message('note_on', channel=0, note=69, velocity=73, time=0),\n",
      "  Message('note_on', channel=0, note=69, velocity=0, time=133),\n",
      "  Message('note_on', channel=0, note=62, velocity=73, time=11),\n",
      "  Message('note_on', channel=0, note=62, velocity=0, time=45),\n",
      "  Message('note_on', channel=0, note=67, velocity=73, time=3),\n",
      "  Message('note_on', channel=0, note=67, velocity=0, time=45),\n",
      "  Message('note_on', channel=0, note=66, velocity=73, time=3),\n",
      "  Message('note_on', channel=0, note=66, velocity=0, time=45),\n",
      "  Message('note_on', channel=0, note=65, velocity=89, time=3),\n",
      "  Message('note_on', channel=0, note=65, velocity=0, time=96),\n",
      "  Message('note_on', channel=0, note=66, velocity=73, time=0),\n",
      "  Message('note_on', channel=0, note=66, velocity=0, time=133),\n",
      "  Message('note_on', channel=0, note=59, velocity=73, time=11),\n",
      "  Message('note_on', channel=0, note=59, velocity=0, time=45),\n",
      "  Message('note_on', channel=0, note=64, velocity=73, time=3),\n",
      "  Message('note_on', channel=0, note=64, velocity=0, time=45),\n",
      "  Message('note_on', channel=0, note=62, velocity=73, time=3),\n",
      "  Message('note_on', channel=0, note=62, velocity=0, time=45),\n",
      "  Message('note_on', channel=0, note=61, velocity=89, time=3),\n",
      "  Message('note_on', channel=0, note=61, velocity=0, time=96),\n",
      "  Message('note_on', channel=0, note=62, velocity=73, time=0),\n",
      "  Message('note_on', channel=0, note=62, velocity=0, time=89),\n",
      "  Message('note_on', channel=0, note=66, velocity=89, time=7),\n",
      "  Message('note_on', channel=0, note=66, velocity=0, time=48),\n",
      "  Message('note_on', channel=0, note=64, velocity=73, time=0),\n",
      "  Message('note_on', channel=0, note=64, velocity=0, time=45),\n",
      "  Message('note_on', channel=0, note=61, velocity=73, time=3),\n",
      "  Message('note_on', channel=0, note=61, velocity=0, time=20),\n",
      "  Message('note_on', channel=0, note=57, velocity=73, time=28),\n",
      "  Message('note_on', channel=0, note=57, velocity=0, time=20),\n",
      "  Message('note_on', channel=0, note=62, velocity=87, time=28),\n",
      "  Message('note_on', channel=0, note=50, velocity=87, time=0),\n",
      "  Message('note_on', channel=0, note=62, velocity=0, time=177),\n",
      "  Message('note_on', channel=0, note=50, velocity=0, time=0),\n",
      "  Message('note_on', channel=0, note=61, velocity=87, time=15),\n",
      "  Message('note_on', channel=0, note=49, velocity=87, time=0),\n",
      "  Message('note_on', channel=0, note=61, velocity=0, time=89),\n",
      "  Message('note_on', channel=0, note=49, velocity=0, time=0),\n",
      "  Message('note_on', channel=0, note=59, velocity=87, time=7),\n",
      "  Message('note_on', channel=0, note=47, velocity=87, time=0),\n",
      "  Message('note_on', channel=0, note=59, velocity=0, time=89),\n",
      "  Message('note_on', channel=0, note=47, velocity=0, time=0),\n",
      "  Message('note_on', channel=0, note=56, velocity=103, time=7),\n",
      "  Message('note_on', channel=0, note=44, velocity=103, time=0),\n",
      "  Message('note_on', channel=0, note=56, velocity=0, time=96),\n",
      "  Message('note_on', channel=0, note=44, velocity=0, time=0),\n",
      "  Message('note_on', channel=0, note=57, velocity=87, time=0),\n",
      "  Message('note_on', channel=0, note=45, velocity=87, time=0),\n",
      "  Message('note_on', channel=0, note=57, velocity=0, time=133),\n",
      "  Message('note_on', channel=0, note=45, velocity=0, time=0),\n",
      "  Message('note_on', channel=0, note=50, velocity=87, time=11),\n",
      "  Message('note_on', channel=0, note=38, velocity=87, time=0),\n",
      "  Message('note_on', channel=0, note=50, velocity=0, time=45),\n",
      "  Message('note_on', channel=0, note=38, velocity=0, time=0),\n",
      "  Message('note_on', channel=0, note=55, velocity=87, time=3),\n",
      "  Message('note_on', channel=0, note=43, velocity=87, time=0),\n",
      "  Message('note_on', channel=0, note=55, velocity=0, time=45),\n",
      "  Message('note_on', channel=0, note=43, velocity=0, time=0),\n",
      "  Message('note_on', channel=0, note=54, velocity=87, time=3),\n",
      "  Message('note_on', channel=0, note=42, velocity=87, time=0),\n",
      "  Message('note_on', channel=0, note=54, velocity=0, time=45),\n",
      "  Message('note_on', channel=0, note=42, velocity=0, time=0),\n",
      "  Message('note_on', channel=0, note=53, velocity=103, time=3),\n",
      "  Message('note_on', channel=0, note=41, velocity=103, time=0),\n",
      "  Message('note_on', channel=0, note=53, velocity=0, time=96),\n",
      "  Message('note_on', channel=0, note=41, velocity=0, time=0),\n",
      "  Message('note_on', channel=0, note=54, velocity=87, time=0),\n",
      "  Message('note_on', channel=0, note=42, velocity=87, time=0),\n",
      "  Message('note_on', channel=0, note=54, velocity=0, time=133),\n",
      "  Message('note_on', channel=0, note=42, velocity=0, time=0),\n",
      "  Message('note_on', channel=0, note=47, velocity=87, time=11),\n",
      "  Message('note_on', channel=0, note=35, velocity=87, time=0),\n",
      "  Message('note_on', channel=0, note=47, velocity=0, time=45),\n",
      "  Message('note_on', channel=0, note=35, velocity=0, time=0),\n",
      "  Message('note_on', channel=0, note=52, velocity=87, time=3),\n",
      "  Message('note_on', channel=0, note=40, velocity=87, time=0),\n",
      "  Message('note_on', channel=0, note=52, velocity=0, time=45),\n",
      "  Message('note_on', channel=0, note=40, velocity=0, time=0),\n",
      "  Message('note_on', channel=0, note=50, velocity=87, time=3),\n",
      "  Message('note_on', channel=0, note=38, velocity=87, time=0),\n",
      "  Message('note_on', channel=0, note=50, velocity=0, time=45),\n",
      "  Message('note_on', channel=0, note=38, velocity=0, time=0),\n",
      "  Message('note_on', channel=0, note=37, velocity=87, time=3),\n",
      "  Message('note_on', channel=0, note=37, velocity=0, time=24),\n",
      "  Message('note_on', channel=0, note=49, velocity=87, time=0),\n",
      "  Message('note_on', channel=0, note=49, velocity=0, time=23),\n",
      "  Message('note_on', channel=0, note=37, velocity=87, time=1),\n",
      "  Message('note_on', channel=0, note=37, velocity=0, time=23),\n",
      "  Message('note_on', channel=0, note=49, velocity=87, time=1),\n",
      "  Message('note_on', channel=0, note=49, velocity=0, time=23),\n",
      "  Message('note_on', channel=0, note=38, velocity=87, time=1),\n",
      "  Message('note_on', channel=0, note=38, velocity=0, time=24),\n",
      "  Message('note_on', channel=0, note=50, velocity=87, time=0),\n",
      "  Message('note_on', channel=0, note=50, velocity=0, time=23),\n",
      "  Message('note_on', channel=0, note=38, velocity=87, time=1),\n",
      "  Message('note_on', channel=0, note=38, velocity=0, time=23),\n",
      "  Message('note_on', channel=0, note=50, velocity=87, time=1),\n",
      "  Message('note_on', channel=0, note=50, velocity=0, time=23),\n",
      "  Message('note_on', channel=0, note=43, velocity=87, time=1),\n",
      "  Message('note_on', channel=0, note=43, velocity=0, time=23),\n",
      "  Message('note_on', channel=0, note=55, velocity=87, time=1),\n",
      "  Message('note_on', channel=0, note=55, velocity=0, time=23),\n",
      "  Message('note_on', channel=0, note=43, velocity=87, time=1),\n",
      "  Message('note_on', channel=0, note=43, velocity=0, time=23),\n",
      "  Message('note_on', channel=0, note=55, velocity=87, time=1),\n",
      "  Message('note_on', channel=0, note=55, velocity=0, time=23),\n",
      "  Message('note_on', channel=0, note=43, velocity=87, time=1),\n",
      "  Message('note_on', channel=0, note=43, velocity=0, time=23),\n",
      "  Message('note_on', channel=0, note=55, velocity=87, time=1),\n",
      "  Message('note_on', channel=0, note=55, velocity=0, time=23),\n",
      "  Message('note_on', channel=0, note=43, velocity=87, time=1),\n",
      "  Message('note_on', channel=0, note=43, velocity=0, time=23),\n",
      "  Message('note_on', channel=0, note=55, velocity=87, time=1),\n",
      "  Message('note_on', channel=0, note=55, velocity=0, time=23),\n",
      "  Message('note_on', channel=0, note=43, velocity=87, time=1),\n",
      "  Message('note_on', channel=0, note=43, velocity=0, time=23),\n",
      "  Message('note_on', channel=0, note=55, velocity=87, time=1),\n",
      "  Message('note_on', channel=0, note=55, velocity=0, time=23),\n",
      "  Message('note_on', channel=0, note=43, velocity=87, time=1),\n",
      "  Message('note_on', channel=0, note=43, velocity=0, time=23),\n",
      "  Message('note_on', channel=0, note=55, velocity=87, time=1),\n",
      "  Message('note_on', channel=0, note=55, velocity=0, time=23),\n",
      "  Message('note_on', channel=0, note=54, velocity=87, time=1),\n",
      "  Message('note_on', channel=0, note=42, velocity=87, time=0),\n",
      "  Message('note_on', channel=0, note=54, velocity=0, time=89),\n",
      "  Message('note_on', channel=0, note=42, velocity=0, time=0),\n",
      "  Message('note_on', channel=0, note=42, velocity=87, time=295),\n",
      "  Message('note_on', channel=0, note=42, velocity=0, time=23),\n",
      "  Message('note_on', channel=0, note=54, velocity=87, time=1),\n",
      "  Message('note_on', channel=0, note=54, velocity=0, time=23),\n",
      "  Message('note_on', channel=0, note=42, velocity=87, time=1),\n",
      "  Message('note_on', channel=0, note=42, velocity=0, time=23),\n",
      "  Message('note_on', channel=0, note=54, velocity=87, time=1),\n",
      "  Message('note_on', channel=0, note=54, velocity=0, time=23),\n",
      "  Message('note_on', channel=0, note=43, velocity=87, time=1),\n",
      "  Message('note_on', channel=0, note=43, velocity=0, time=23),\n",
      "  Message('note_on', channel=0, note=55, velocity=87, time=1),\n",
      "  Message('note_on', channel=0, note=55, velocity=0, time=23),\n",
      "  Message('note_on', channel=0, note=43, velocity=87, time=1),\n",
      "  Message('note_on', channel=0, note=43, velocity=0, time=23),\n",
      "  Message('note_on', channel=0, note=55, velocity=87, time=1),\n",
      "  Message('note_on', channel=0, note=55, velocity=0, time=23),\n",
      "  Message('note_on', channel=0, note=43, velocity=87, time=1),\n",
      "  Message('note_on', channel=0, note=43, velocity=0, time=23),\n",
      "  Message('note_on', channel=0, note=55, velocity=87, time=1),\n",
      "  Message('note_on', channel=0, note=55, velocity=0, time=23),\n",
      "  Message('note_on', channel=0, note=43, velocity=87, time=1),\n",
      "  Message('note_on', channel=0, note=43, velocity=0, time=23),\n",
      "  Message('note_on', channel=0, note=55, velocity=87, time=1),\n",
      "  Message('note_on', channel=0, note=55, velocity=0, time=23),\n",
      "  Message('note_on', channel=0, note=43, velocity=87, time=1),\n",
      "  Message('note_on', channel=0, note=43, velocity=0, time=89),\n",
      "  Message('note_on', channel=0, note=66, velocity=87, time=295),\n",
      "  Message('note_on', channel=0, note=62, velocity=87, time=0),\n",
      "  Message('note_on', channel=0, note=66, velocity=0, time=20),\n",
      "  Message('note_on', channel=0, note=62, velocity=0, time=0),\n",
      "  Message('note_on', channel=0, note=66, velocity=86, time=28),\n",
      "  Message('note_on', channel=0, note=62, velocity=86, time=0),\n",
      "  Message('note_on', channel=0, note=66, velocity=0, time=20),\n",
      "  Message('note_on', channel=0, note=62, velocity=0, time=0),\n",
      "  Message('note_on', channel=0, note=69, velocity=85, time=28),\n",
      "  Message('note_on', channel=0, note=66, velocity=85, time=0),\n",
      "  Message('note_on', channel=0, note=69, velocity=0, time=20),\n",
      "  Message('note_on', channel=0, note=66, velocity=0, time=0),\n",
      "  Message('note_on', channel=0, note=69, velocity=85, time=28),\n",
      "  Message('note_on', channel=0, note=66, velocity=85, time=0),\n",
      "  Message('note_on', channel=0, note=69, velocity=0, time=20),\n",
      "  Message('note_on', channel=0, note=66, velocity=0, time=0),\n",
      "  Message('note_on', channel=0, note=67, velocity=84, time=28),\n",
      "  Message('note_on', channel=0, note=64, velocity=84, time=0),\n",
      "  Message('note_on', channel=0, note=67, velocity=0, time=20),\n",
      "  Message('note_on', channel=0, note=64, velocity=0, time=0),\n",
      "  Message('note_on', channel=0, note=67, velocity=83, time=28),\n",
      "  Message('note_on', channel=0, note=64, velocity=83, time=0),\n",
      "  Message('note_on', channel=0, note=67, velocity=0, time=20),\n",
      "  Message('note_on', channel=0, note=64, velocity=0, time=0),\n",
      "  Message('note_on', channel=0, note=64, velocity=83, time=28),\n",
      "  Message('note_on', channel=0, note=61, velocity=83, time=0),\n",
      "  Message('note_on', channel=0, note=64, velocity=0, time=20),\n",
      "  Message('note_on', channel=0, note=61, velocity=0, time=0),\n",
      "  Message('note_on', channel=0, note=64, velocity=82, time=28),\n",
      "  Message('note_on', channel=0, note=61, velocity=82, time=0),\n",
      "  Message('note_on', channel=0, note=64, velocity=0, time=20),\n",
      "  Message('note_on', channel=0, note=61, velocity=0, time=0),\n",
      "  Message('note_on', channel=0, note=66, velocity=82, time=28),\n",
      "  Message('note_on', channel=0, note=62, velocity=82, time=0),\n",
      "  Message('note_on', channel=0, note=66, velocity=0, time=20),\n",
      "  Message('note_on', channel=0, note=62, velocity=0, time=0),\n",
      "  Message('note_on', channel=0, note=66, velocity=82, time=28),\n",
      "  Message('note_on', channel=0, note=62, velocity=82, time=0),\n",
      "  Message('note_on', channel=0, note=66, velocity=0, time=20),\n",
      "  Message('note_on', channel=0, note=62, velocity=0, time=0),\n",
      "  Message('note_on', channel=0, note=66, velocity=83, time=28),\n",
      "  Message('note_on', channel=0, note=62, velocity=83, time=0),\n",
      "  Message('note_on', channel=0, note=66, velocity=0, time=20),\n",
      "  Message('note_on', channel=0, note=62, velocity=0, time=0),\n",
      "  Message('note_on', channel=0, note=66, velocity=83, time=28),\n",
      "  Message('note_on', channel=0, note=62, velocity=83, time=0),\n",
      "  Message('note_on', channel=0, note=66, velocity=0, time=20),\n",
      "  Message('note_on', channel=0, note=62, velocity=0, time=0),\n",
      "  Message('note_on', channel=0, note=67, velocity=84, time=28),\n",
      "  Message('note_on', channel=0, note=64, velocity=84, time=0),\n",
      "  Message('note_on', channel=0, note=67, velocity=0, time=20),\n",
      "  Message('note_on', channel=0, note=64, velocity=0, time=0),\n",
      "  Message('note_on', channel=0, note=69, velocity=85, time=28),\n",
      "  Message('note_on', channel=0, note=66, velocity=85, time=0),\n",
      "  Message('note_on', channel=0, note=69, velocity=0, time=20),\n",
      "  Message('note_on', channel=0, note=66, velocity=0, time=0),\n",
      "  Message('note_on', channel=0, note=71, velocity=85, time=28),\n",
      "  Message('note_on', channel=0, note=67, velocity=85, time=0),\n",
      "  Message('note_on', channel=0, note=71, velocity=0, time=20),\n",
      "  Message('note_on', channel=0, note=67, velocity=0, time=0),\n",
      "  Message('note_on', channel=0, note=72, velocity=86, time=28),\n",
      "  Message('note_on', channel=0, note=69, velocity=86, time=0),\n",
      "  Message('note_on', channel=0, note=72, velocity=0, time=20),\n",
      "  Message('note_on', channel=0, note=69, velocity=0, time=0),\n",
      "  Message('note_on', channel=0, note=74, velocity=87, time=28),\n",
      "  Message('note_on', channel=0, note=71, velocity=87, time=0),\n",
      "  Message('note_on', channel=0, note=74, velocity=0, time=20),\n",
      "  Message('note_on', channel=0, note=71, velocity=0, time=0),\n",
      "  Message('note_on', channel=0, note=71, velocity=85, time=28),\n",
      "  Message('note_on', channel=0, note=67, velocity=85, time=0),\n",
      "  Message('note_on', channel=0, note=71, velocity=0, time=20),\n",
      "  Message('note_on', channel=0, note=67, velocity=0, time=0),\n",
      "  Message('note_on', channel=0, note=67, velocity=84, time=28),\n",
      "  Message('note_on', channel=0, note=64, velocity=84, time=0),\n",
      "  Message('note_on', channel=0, note=67, velocity=0, time=20),\n",
      "  Message('note_on', channel=0, note=64, velocity=0, time=0),\n",
      "  Message('note_on', channel=0, note=66, velocity=83, time=28),\n",
      "  Message('note_on', channel=0, note=62, velocity=83, time=0),\n",
      "  Message('note_on', channel=0, note=66, velocity=0, time=20),\n",
      "  Message('note_on', channel=0, note=62, velocity=0, time=0),\n",
      "  Message('note_on', channel=0, note=64, velocity=81, time=28),\n",
      "  Message('note_on', channel=0, note=61, velocity=81, time=0),\n",
      "  Message('note_on', channel=0, note=64, velocity=0, time=20),\n",
      "  Message('note_on', channel=0, note=61, velocity=0, time=0),\n",
      "  Message('note_on', channel=0, note=61, velocity=80, time=28),\n",
      "  Message('note_on', channel=0, note=57, velocity=80, time=0),\n",
      "  Message('note_on', channel=0, note=61, velocity=0, time=20),\n",
      "  Message('note_on', channel=0, note=57, velocity=0, time=0),\n",
      "  Message('note_on', channel=0, note=62, velocity=79, time=28),\n",
      "  Message('note_on', channel=0, note=59, velocity=79, time=0),\n",
      "  Message('note_on', channel=0, note=62, velocity=0, time=20),\n",
      "  Message('note_on', channel=0, note=59, velocity=0, time=0),\n",
      "  Message('note_on', channel=0, note=64, velocity=78, time=28),\n",
      "  Message('note_on', channel=0, note=61, velocity=78, time=0),\n",
      "  Message('note_on', channel=0, note=64, velocity=0, time=20),\n",
      "  Message('note_on', channel=0, note=61, velocity=0, time=0),\n",
      "  Message('note_on', channel=0, note=66, velocity=76, time=28),\n",
      "  Message('note_on', channel=0, note=62, velocity=76, time=0),\n",
      "  Message('note_on', channel=0, note=66, velocity=0, time=20),\n",
      "  Message('note_on', channel=0, note=62, velocity=0, time=0),\n",
      "  Message('note_on', channel=0, note=66, velocity=75, time=28),\n",
      "  Message('note_on', channel=0, note=62, velocity=75, time=0),\n",
      "  Message('note_on', channel=0, note=66, velocity=0, time=20),\n",
      "  Message('note_on', channel=0, note=62, velocity=0, time=0),\n",
      "  Message('note_on', channel=0, note=66, velocity=74, time=28),\n",
      "  Message('note_on', channel=0, note=62, velocity=74, time=0),\n",
      "  Message('note_on', channel=0, note=66, velocity=0, time=20),\n",
      "  Message('note_on', channel=0, note=62, velocity=0, time=0),\n",
      "  Message('note_on', channel=0, note=66, velocity=73, time=28),\n",
      "  Message('note_on', channel=0, note=62, velocity=73, time=0),\n",
      "  Message('note_on', channel=0, note=66, velocity=0, time=20),\n",
      "  Message('note_on', channel=0, note=62, velocity=0, time=0),\n",
      "  Message('note_on', channel=0, note=67, velocity=74, time=28),\n",
      "  Message('note_on', channel=0, note=64, velocity=74, time=0),\n",
      "  Message('note_on', channel=0, note=67, velocity=0, time=20),\n",
      "  Message('note_on', channel=0, note=64, velocity=0, time=0),\n",
      "  Message('note_on', channel=0, note=69, velocity=75, time=28),\n",
      "  Message('note_on', channel=0, note=66, velocity=75, time=0),\n",
      "  Message('note_on', channel=0, note=69, velocity=0, time=20),\n",
      "  Message('note_on', channel=0, note=66, velocity=0, time=0),\n",
      "  Message('note_on', channel=0, note=71, velocity=76, time=28),\n",
      "  Message('note_on', channel=0, note=67, velocity=76, time=0),\n",
      "  Message('note_on', channel=0, note=71, velocity=0, time=20),\n",
      "  Message('note_on', channel=0, note=67, velocity=0, time=0),\n",
      "  Message('note_on', channel=0, note=72, velocity=77, time=28),\n",
      "  Message('note_on', channel=0, note=69, velocity=77, time=0),\n",
      "  Message('note_on', channel=0, note=72, velocity=0, time=20),\n",
      "  Message('note_on', channel=0, note=69, velocity=0, time=0),\n",
      "  Message('note_on', channel=0, note=74, velocity=78, time=28),\n",
      "  Message('note_on', channel=0, note=71, velocity=78, time=0),\n",
      "  Message('note_on', channel=0, note=74, velocity=0, time=20),\n",
      "  Message('note_on', channel=0, note=71, velocity=0, time=0),\n",
      "  Message('note_on', channel=0, note=71, velocity=77, time=28),\n",
      "  Message('note_on', channel=0, note=67, velocity=77, time=0),\n",
      "  Message('note_on', channel=0, note=71, velocity=0, time=20),\n",
      "  Message('note_on', channel=0, note=67, velocity=0, time=0),\n",
      "  Message('note_on', channel=0, note=67, velocity=76, time=28),\n",
      "  Message('note_on', channel=0, note=64, velocity=76, time=0),\n",
      "  Message('note_on', channel=0, note=67, velocity=0, time=20),\n",
      "  Message('note_on', channel=0, note=64, velocity=0, time=0),\n",
      "  Message('note_on', channel=0, note=66, velocity=76, time=28),\n",
      "  Message('note_on', channel=0, note=62, velocity=76, time=0),\n",
      "  Message('note_on', channel=0, note=66, velocity=0, time=20),\n",
      "  Message('note_on', channel=0, note=62, velocity=0, time=0),\n",
      "  Message('note_on', channel=0, note=64, velocity=75, time=28),\n",
      "  Message('note_on', channel=0, note=61, velocity=75, time=0),\n",
      "  Message('note_on', channel=0, note=64, velocity=0, time=20),\n",
      "  Message('note_on', channel=0, note=61, velocity=0, time=0),\n",
      "  Message('note_on', channel=0, note=61, velocity=74, time=28),\n",
      "  Message('note_on', channel=0, note=57, velocity=74, time=0),\n",
      "  Message('note_on', channel=0, note=61, velocity=0, time=20),\n",
      "  Message('note_on', channel=0, note=57, velocity=0, time=0),\n",
      "  Message('note_on', channel=0, note=62, velocity=74, time=28),\n",
      "  Message('note_on', channel=0, note=59, velocity=74, time=0),\n",
      "  Message('note_on', channel=0, note=62, velocity=0, time=20),\n",
      "  Message('note_on', channel=0, note=59, velocity=0, time=0),\n",
      "  Message('note_on', channel=0, note=64, velocity=73, time=28),\n",
      "  Message('note_on', channel=0, note=61, velocity=73, time=0),\n",
      "  Message('note_on', channel=0, note=64, velocity=0, time=20),\n",
      "  Message('note_on', channel=0, note=61, velocity=0, time=0),\n",
      "  Message('note_on', channel=0, note=62, velocity=73, time=28),\n",
      "  Message('note_on', channel=0, note=62, velocity=0, time=10),\n",
      "  Message('note_on', channel=0, note=54, velocity=74, time=14),\n",
      "  Message('note_on', channel=0, note=54, velocity=0, time=23),\n",
      "  Message('note_on', channel=0, note=57, velocity=75, time=1),\n",
      "  Message('note_on', channel=0, note=57, velocity=0, time=23),\n",
      "  Message('note_on', channel=0, note=62, velocity=77, time=1),\n",
      "  Message('note_on', channel=0, note=62, velocity=0, time=23),\n",
      "  Message('note_on', channel=0, note=66, velocity=78, time=1),\n",
      "  Message('note_on', channel=0, note=66, velocity=0, time=23),\n",
      "  Message('note_on', channel=0, note=57, velocity=80, time=1),\n",
      "  Message('note_on', channel=0, note=57, velocity=0, time=23),\n",
      "  Message('note_on', channel=0, note=62, velocity=81, time=1),\n",
      "  Message('note_on', channel=0, note=62, velocity=0, time=23),\n",
      "  Message('note_on', channel=0, note=66, velocity=82, time=1),\n",
      "  Message('note_on', channel=0, note=66, velocity=0, time=23),\n",
      "  Message('note_on', channel=0, note=69, velocity=84, time=1),\n",
      "  Message('note_on', channel=0, note=69, velocity=0, time=20),\n",
      "  Message('note_on', channel=0, note=69, velocity=87, time=28),\n",
      "  Message('note_on', channel=0, note=69, velocity=0, time=20),\n",
      "  Message('note_on', channel=0, note=57, velocity=87, time=76),\n",
      "  Message('note_on', channel=0, note=57, velocity=0, time=20),\n",
      "  Message('note_on', channel=0, note=50, velocity=103, time=28),\n",
      "  Message('note_on', channel=0, note=38, velocity=103, time=0),\n",
      "  Message('note_on', channel=0, note=50, velocity=0, time=96),\n",
      "  Message('note_on', channel=0, note=38, velocity=0, time=0),\n",
      "  Message('note_on', channel=0, note=45, velocity=87, time=192),\n",
      "  Message('note_on', channel=0, note=33, velocity=87, time=0),\n",
      "  Message('note_on', channel=0, note=45, velocity=0, time=89),\n",
      "  Message('note_on', channel=0, note=33, velocity=0, time=0),\n",
      "  Message('note_on', channel=0, note=38, velocity=87, time=7),\n",
      "  Message('note_on', channel=0, note=38, velocity=0, time=20),\n",
      "  Message('note_on', channel=0, note=42, velocity=87, time=28),\n",
      "  Message('note_on', channel=0, note=42, velocity=0, time=23),\n",
      "  Message('note_on', channel=0, note=45, velocity=87, time=1),\n",
      "  Message('note_on', channel=0, note=45, velocity=0, time=23),\n",
      "  Message('note_on', channel=0, note=50, velocity=87, time=1),\n",
      "  Message('note_on', channel=0, note=50, velocity=0, time=23),\n",
      "  Message('note_on', channel=0, note=42, velocity=87, time=1),\n",
      "  Message('note_on', channel=0, note=42, velocity=0, time=23),\n",
      "  Message('note_on', channel=0, note=45, velocity=87, time=1),\n",
      "  Message('note_on', channel=0, note=45, velocity=0, time=23),\n",
      "  Message('note_on', channel=0, note=50, velocity=87, time=1),\n",
      "  Message('note_on', channel=0, note=50, velocity=0, time=23),\n",
      "  Message('note_on', channel=0, note=54, velocity=87, time=1),\n",
      "  Message('note_on', channel=0, note=54, velocity=0, time=23),\n",
      "  Message('note_on', channel=0, note=45, velocity=87, time=1),\n",
      "  Message('note_on', channel=0, note=45, velocity=0, time=23),\n",
      "  Message('note_on', channel=0, note=50, velocity=87, time=1),\n",
      "  Message('note_on', channel=0, note=50, velocity=0, time=23),\n",
      "  Message('note_on', channel=0, note=54, velocity=87, time=1),\n",
      "  Message('note_on', channel=0, note=54, velocity=0, time=23),\n",
      "  Message('note_on', channel=0, note=57, velocity=87, time=1),\n",
      "  Message('note_on', channel=0, note=57, velocity=0, time=23),\n",
      "  Message('note_on', channel=0, note=54, velocity=87, time=1),\n",
      "  Message('note_on', channel=0, note=54, velocity=0, time=23),\n",
      "  Message('note_on', channel=0, note=57, velocity=87, time=1),\n",
      "  Message('note_on', channel=0, note=57, velocity=0, time=23),\n",
      "  Message('note_on', channel=0, note=54, velocity=87, time=1),\n",
      "  Message('note_on', channel=0, note=54, velocity=0, time=23),\n",
      "  Message('note_on', channel=0, note=50, velocity=103, time=1),\n",
      "  Message('note_on', channel=0, note=50, velocity=0, time=39),\n",
      "  Message('note_on', channel=0, note=62, velocity=103, time=57),\n",
      "  Message('note_on', channel=0, note=62, velocity=0, time=39),\n",
      "  Message('note_on', channel=0, note=38, velocity=103, time=57),\n",
      "  Message('note_on', channel=0, note=38, velocity=0, time=96),\n",
      "  MetaMessage('end_of_track', time=96)])\n",
      "MidiTrack([\n",
      "  Message('control_change', channel=0, control=7, value=127, time=0),\n",
      "  Message('control_change', channel=0, control=10, value=64, time=0),\n",
      "  Message('note_on', channel=0, note=45, velocity=64, time=11520),\n",
      "  Message('note_on', channel=0, note=33, velocity=64, time=0),\n",
      "  Message('note_on', channel=0, note=45, velocity=0, time=20),\n",
      "  Message('note_on', channel=0, note=33, velocity=0, time=0),\n",
      "  Message('note_on', channel=0, note=45, velocity=64, time=28),\n",
      "  Message('note_on', channel=0, note=45, velocity=0, time=20),\n",
      "  Message('note_on', channel=0, note=49, velocity=64, time=28),\n",
      "  Message('note_on', channel=0, note=49, velocity=0, time=20),\n",
      "  Message('note_on', channel=0, note=49, velocity=64, time=28),\n",
      "  Message('note_on', channel=0, note=49, velocity=0, time=20),\n",
      "  Message('note_on', channel=0, note=50, velocity=64, time=28),\n",
      "  Message('note_on', channel=0, note=50, velocity=0, time=20),\n",
      "  Message('note_on', channel=0, note=50, velocity=64, time=28),\n",
      "  Message('note_on', channel=0, note=50, velocity=0, time=20),\n",
      "  Message('note_on', channel=0, note=54, velocity=64, time=28),\n",
      "  Message('note_on', channel=0, note=54, velocity=0, time=20),\n",
      "  Message('note_on', channel=0, note=54, velocity=64, time=28),\n",
      "  Message('note_on', channel=0, note=54, velocity=0, time=20),\n",
      "  Message('note_on', channel=0, note=63, velocity=82, time=6268),\n",
      "  Message('note_on', channel=0, note=63, velocity=0, time=89),\n",
      "  Message('note_on', channel=0, note=64, velocity=81, time=7),\n",
      "  Message('note_on', channel=0, note=64, velocity=0, time=177),\n",
      "  Message('note_on', channel=0, note=69, velocity=79, time=15),\n",
      "  Message('note_on', channel=0, note=69, velocity=0, time=89),\n",
      "  Message('note_on', channel=0, note=57, velocity=78, time=10663),\n",
      "  Message('note_on', channel=0, note=57, velocity=0, time=89),\n",
      "  Message('note_on', channel=0, note=45, velocity=64, time=12967),\n",
      "  Message('note_on', channel=0, note=33, velocity=64, time=0),\n",
      "  Message('note_on', channel=0, note=45, velocity=0, time=20),\n",
      "  Message('note_on', channel=0, note=33, velocity=0, time=0),\n",
      "  Message('note_on', channel=0, note=45, velocity=64, time=28),\n",
      "  Message('note_on', channel=0, note=45, velocity=0, time=20),\n",
      "  Message('note_on', channel=0, note=49, velocity=64, time=28),\n",
      "  Message('note_on', channel=0, note=49, velocity=0, time=20),\n",
      "  Message('note_on', channel=0, note=49, velocity=64, time=28),\n",
      "  Message('note_on', channel=0, note=49, velocity=0, time=20),\n",
      "  Message('note_on', channel=0, note=50, velocity=64, time=28),\n",
      "  Message('note_on', channel=0, note=50, velocity=0, time=20),\n",
      "  Message('note_on', channel=0, note=50, velocity=64, time=28),\n",
      "  Message('note_on', channel=0, note=50, velocity=0, time=20),\n",
      "  Message('note_on', channel=0, note=54, velocity=64, time=28),\n",
      "  Message('note_on', channel=0, note=54, velocity=0, time=20),\n",
      "  Message('note_on', channel=0, note=54, velocity=64, time=28),\n",
      "  Message('note_on', channel=0, note=54, velocity=0, time=20),\n",
      "  Message('note_on', channel=0, note=63, velocity=82, time=6268),\n",
      "  Message('note_on', channel=0, note=63, velocity=0, time=89),\n",
      "  Message('note_on', channel=0, note=64, velocity=81, time=7),\n",
      "  Message('note_on', channel=0, note=64, velocity=0, time=177),\n",
      "  Message('note_on', channel=0, note=69, velocity=79, time=15),\n",
      "  Message('note_on', channel=0, note=69, velocity=0, time=89),\n",
      "  Message('note_on', channel=0, note=57, velocity=78, time=10663),\n",
      "  Message('note_on', channel=0, note=57, velocity=0, time=89),\n",
      "  Message('note_on', channel=0, note=61, velocity=73, time=22855),\n",
      "  Message('note_on', channel=0, note=61, velocity=0, time=39),\n",
      "  Message('note_on', channel=0, note=62, velocity=73, time=57),\n",
      "  Message('note_on', channel=0, note=62, velocity=0, time=192),\n",
      "  Message('note_on', channel=0, note=57, velocity=73, time=0),\n",
      "  Message('note_on', channel=0, note=57, velocity=0, time=89),\n",
      "  Message('note_on', channel=0, note=61, velocity=73, time=391),\n",
      "  Message('note_on', channel=0, note=61, velocity=0, time=39),\n",
      "  Message('note_on', channel=0, note=62, velocity=73, time=57),\n",
      "  Message('note_on', channel=0, note=62, velocity=0, time=192),\n",
      "  Message('note_on', channel=0, note=57, velocity=73, time=0),\n",
      "  Message('note_on', channel=0, note=57, velocity=0, time=89),\n",
      "  Message('note_on', channel=0, note=61, velocity=73, time=391),\n",
      "  Message('note_on', channel=0, note=61, velocity=0, time=39),\n",
      "  Message('note_on', channel=0, note=62, velocity=73, time=57),\n",
      "  Message('note_on', channel=0, note=62, velocity=0, time=192),\n",
      "  Message('note_on', channel=0, note=57, velocity=73, time=0),\n",
      "  Message('note_on', channel=0, note=57, velocity=0, time=89),\n",
      "  Message('note_on', channel=0, note=56, velocity=73, time=3271),\n",
      "  Message('note_on', channel=0, note=56, velocity=0, time=89),\n",
      "  Message('note_on', channel=0, note=57, velocity=73, time=7),\n",
      "  Message('note_on', channel=0, note=57, velocity=0, time=177),\n",
      "  MetaMessage('end_of_track', time=16911)])\n",
      "MidiTrack([\n",
      "  Message('program_change', channel=2, program=1, time=0),\n",
      "  Message('control_change', channel=2, control=7, value=127, time=0),\n",
      "  Message('control_change', channel=2, control=10, value=64, time=0),\n",
      "  Message('note_on', channel=2, note=74, velocity=87, time=0),\n",
      "  Message('note_on', channel=2, note=69, velocity=87, time=0),\n",
      "  Message('note_on', channel=2, note=66, velocity=87, time=0),\n",
      "  Message('note_on', channel=2, note=62, velocity=87, time=0),\n",
      "  Message('note_on', channel=2, note=74, velocity=0, time=177),\n",
      "  Message('note_on', channel=2, note=69, velocity=0, time=0),\n",
      "  Message('note_on', channel=2, note=66, velocity=0, time=0),\n",
      "  Message('note_on', channel=2, note=62, velocity=0, time=0),\n",
      "  Message('note_on', channel=2, note=69, velocity=87, time=15),\n",
      "  Message('note_on', channel=2, note=69, velocity=0, time=177),\n",
      "  Message('note_on', channel=2, note=67, velocity=87, time=15),\n",
      "  Message('note_on', channel=2, note=67, velocity=0, time=18),\n",
      "  Message('note_on', channel=2, note=66, velocity=87, time=0),\n",
      "  Message('note_on', channel=2, note=66, velocity=0, time=18),\n",
      "  Message('note_on', channel=2, note=67, velocity=87, time=0),\n",
      "  Message('note_on', channel=2, note=67, velocity=0, time=18),\n",
      "  Message('note_on', channel=2, note=66, velocity=87, time=0),\n",
      "  Message('note_on', channel=2, note=66, velocity=0, time=18),\n",
      "  Message('note_on', channel=2, note=67, velocity=87, time=0),\n",
      "  Message('note_on', channel=2, note=67, velocity=0, time=18),\n",
      "  Message('note_on', channel=2, note=66, velocity=87, time=0),\n",
      "  Message('note_on', channel=2, note=66, velocity=0, time=18),\n",
      "  Message('note_on', channel=2, note=67, velocity=87, time=0),\n",
      "  Message('note_on', channel=2, note=67, velocity=0, time=18),\n",
      "  Message('note_on', channel=2, note=66, velocity=87, time=0),\n",
      "  Message('note_on', channel=2, note=66, velocity=0, time=7),\n",
      "  Message('note_on', channel=2, note=64, velocity=87, time=11),\n",
      "  Message('note_on', channel=2, note=64, velocity=0, time=23),\n",
      "  Message('note_on', channel=2, note=62, velocity=87, time=1),\n",
      "  Message('note_on', channel=2, note=62, velocity=0, time=23),\n",
      "  Message('note_on', channel=2, note=69, velocity=87, time=1),\n",
      "  Message('note_on', channel=2, note=69, velocity=0, time=89),\n",
      "  Message('note_on', channel=2, note=57, velocity=87, time=79),\n",
      "  Message('note_on', channel=2, note=57, velocity=0, time=8),\n",
      "  Message('note_on', channel=2, note=59, velocity=87, time=0),\n",
      "  Message('note_on', channel=2, note=59, velocity=0, time=8),\n",
      "  Message('note_on', channel=2, note=61, velocity=87, time=0),\n",
      "  Message('note_on', channel=2, note=61, velocity=0, time=8),\n",
      "  Message('note_on', channel=2, note=62, velocity=87, time=0),\n",
      "  Message('note_on', channel=2, note=62, velocity=0, time=89),\n",
      "  Message('note_on', channel=2, note=57, velocity=87, time=7),\n",
      "  Message('note_on', channel=2, note=57, velocity=0, time=67),\n",
      "  Message('note_on', channel=2, note=62, velocity=87, time=5),\n",
      "  Message('note_on', channel=2, note=62, velocity=0, time=23),\n",
      "  Message('note_on', channel=2, note=64, velocity=87, time=1),\n",
      "  Message('note_on', channel=2, note=64, velocity=0, time=89),\n",
      "  Message('note_on', channel=2, note=57, velocity=87, time=7),\n",
      "  Message('note_on', channel=2, note=57, velocity=0, time=67),\n",
      "  Message('note_on', channel=2, note=64, velocity=87, time=5),\n",
      "  Message('note_on', channel=2, note=64, velocity=0, time=23),\n",
      "  Message('note_on', channel=2, note=66, velocity=87, time=1),\n",
      "  Message('note_on', channel=2, note=66, velocity=0, time=89),\n",
      "  Message('note_on', channel=2, note=62, velocity=87, time=7),\n",
      "  Message('note_on', channel=2, note=62, velocity=0, time=67),\n",
      "  Message('note_on', channel=2, note=66, velocity=87, time=5),\n",
      "  Message('note_on', channel=2, note=66, velocity=0, time=23),\n",
      "  Message('note_on', channel=2, note=69, velocity=87, time=1),\n",
      "  Message('note_on', channel=2, note=69, velocity=0, time=89),\n",
      "  Message('note_on', channel=2, note=69, velocity=82, time=607),\n",
      "  Message('note_on', channel=2, note=69, velocity=0, time=23),\n",
      "  Message('note_on', channel=2, note=71, velocity=82, time=1),\n",
      "  Message('note_on', channel=2, note=71, velocity=0, time=23),\n",
      "  Message('note_on', channel=2, note=73, velocity=82, time=1),\n",
      "  Message('note_on', channel=2, note=73, velocity=0, time=23),\n",
      "  Message('note_on', channel=2, note=74, velocity=83, time=1),\n",
      "  Message('note_on', channel=2, note=74, velocity=0, time=23),\n",
      "  Message('note_on', channel=2, note=73, velocity=83, time=1),\n",
      "  Message('note_on', channel=2, note=73, velocity=0, time=23),\n",
      "  Message('note_on', channel=2, note=74, velocity=83, time=1),\n",
      "  Message('note_on', channel=2, note=74, velocity=0, time=23),\n",
      "  Message('note_on', channel=2, note=69, velocity=84, time=1),\n",
      "  Message('note_on', channel=2, note=69, velocity=0, time=23),\n",
      "  Message('note_on', channel=2, note=76, velocity=84, time=1),\n",
      "  Message('note_on', channel=2, note=76, velocity=0, time=23),\n",
      "  Message('note_on', channel=2, note=74, velocity=84, time=1),\n",
      "  Message('note_on', channel=2, note=74, velocity=0, time=23),\n",
      "  Message('note_on', channel=2, note=76, velocity=85, time=1),\n",
      "  Message('note_on', channel=2, note=76, velocity=0, time=23),\n",
      "  Message('note_on', channel=2, note=69, velocity=85, time=1),\n",
      "  Message('note_on', channel=2, note=69, velocity=0, time=23),\n",
      "  Message('note_on', channel=2, note=78, velocity=85, time=1),\n",
      "  Message('note_on', channel=2, note=78, velocity=0, time=89),\n",
      "  Message('note_on', channel=2, note=73, velocity=82, time=415),\n",
      "  Message('note_on', channel=2, note=73, velocity=0, time=23),\n",
      "  Message('note_on', channel=2, note=74, velocity=82, time=1),\n",
      "  Message('note_on', channel=2, note=74, velocity=0, time=23),\n",
      "  Message('note_on', channel=2, note=76, velocity=82, time=1),\n",
      "  Message('note_on', channel=2, note=76, velocity=0, time=23),\n",
      "  Message('note_on', channel=2, note=78, velocity=83, time=1),\n",
      "  Message('note_on', channel=2, note=78, velocity=0, time=23),\n",
      "  Message('note_on', channel=2, note=76, velocity=83, time=1),\n",
      "  Message('note_on', channel=2, note=76, velocity=0, time=23),\n",
      "  Message('note_on', channel=2, note=78, velocity=83, time=1),\n",
      "  Message('note_on', channel=2, note=78, velocity=0, time=23),\n",
      "  Message('note_on', channel=2, note=74, velocity=84, time=1),\n",
      "  Message('note_on', channel=2, note=74, velocity=0, time=23),\n",
      "  Message('note_on', channel=2, note=79, velocity=84, time=1),\n",
      "  Message('note_on', channel=2, note=79, velocity=0, time=23),\n",
      "  Message('note_on', channel=2, note=78, velocity=84, time=1),\n",
      "  Message('note_on', channel=2, note=78, velocity=0, time=23),\n",
      "  Message('note_on', channel=2, note=79, velocity=85, time=1),\n",
      "  Message('note_on', channel=2, note=79, velocity=0, time=23),\n",
      "  Message('note_on', channel=2, note=76, velocity=85, time=1),\n",
      "  Message('note_on', channel=2, note=76, velocity=0, time=23),\n",
      "  Message('note_on', channel=2, note=81, velocity=85, time=1),\n",
      "  Message('note_on', channel=2, note=81, velocity=0, time=89),\n",
      "  Message('note_on', channel=2, note=69, velocity=82, time=1471),\n",
      "  Message('note_on', channel=2, note=69, velocity=0, time=23),\n",
      "  Message('note_on', channel=2, note=71, velocity=82, time=1),\n",
      "  Message('note_on', channel=2, note=71, velocity=0, time=23),\n",
      "  Message('note_on', channel=2, note=73, velocity=82, time=1),\n",
      "  Message('note_on', channel=2, note=73, velocity=0, time=23),\n",
      "  Message('note_on', channel=2, note=74, velocity=83, time=1),\n",
      "  Message('note_on', channel=2, note=74, velocity=0, time=23),\n",
      "  Message('note_on', channel=2, note=76, velocity=83, time=1),\n",
      "  Message('note_on', channel=2, note=76, velocity=0, time=23),\n",
      "  Message('note_on', channel=2, note=78, velocity=84, time=1),\n",
      "  Message('note_on', channel=2, note=78, velocity=0, time=23),\n",
      "  Message('note_on', channel=2, note=79, velocity=84, time=1),\n",
      "  Message('note_on', channel=2, note=79, velocity=0, time=23),\n",
      "  Message('note_on', channel=2, note=81, velocity=85, time=1),\n",
      "  Message('note_on', channel=2, note=81, velocity=0, time=23),\n",
      "  Message('note_on', channel=2, note=83, velocity=85, time=1),\n",
      "  Message('note_on', channel=2, note=83, velocity=0, time=23),\n",
      "  Message('note_on', channel=2, note=85, velocity=86, time=1),\n",
      "  Message('note_on', channel=2, note=85, velocity=0, time=23),\n",
      "  Message('note_on', channel=2, note=86, velocity=86, time=1),\n",
      "  Message('note_on', channel=2, note=86, velocity=0, time=23),\n",
      "  Message('note_on', channel=2, note=81, velocity=87, time=1),\n",
      "  Message('note_on', channel=2, note=81, velocity=0, time=45),\n",
      "  Message('note_on', channel=2, note=69, velocity=82, time=75),\n",
      "  Message('note_on', channel=2, note=69, velocity=0, time=23),\n",
      "  Message('note_on', channel=2, note=71, velocity=82, time=1),\n",
      "  Message('note_on', channel=2, note=71, velocity=0, time=23),\n",
      "  Message('note_on', channel=2, note=73, velocity=82, time=1),\n",
      "  Message('note_on', channel=2, note=73, velocity=0, time=23),\n",
      "  Message('note_on', channel=2, note=74, velocity=83, time=1),\n",
      "  Message('note_on', channel=2, note=74, velocity=0, time=23),\n",
      "  Message('note_on', channel=2, note=76, velocity=83, time=1),\n",
      "  Message('note_on', channel=2, note=76, velocity=0, time=23),\n",
      "  Message('note_on', channel=2, note=78, velocity=84, time=1),\n",
      "  Message('note_on', channel=2, note=78, velocity=0, time=23),\n",
      "  Message('note_on', channel=2, note=80, velocity=84, time=1),\n",
      "  Message('note_on', channel=2, note=80, velocity=0, time=23),\n",
      "  Message('note_on', channel=2, note=81, velocity=85, time=1),\n",
      "  Message('note_on', channel=2, note=81, velocity=0, time=23),\n",
      "  Message('note_on', channel=2, note=85, velocity=85, time=1),\n",
      "  Message('note_on', channel=2, note=85, velocity=0, time=23),\n",
      "  Message('note_on', channel=2, note=86, velocity=86, time=1),\n",
      "  Message('note_on', channel=2, note=86, velocity=0, time=23),\n",
      "  Message('note_on', channel=2, note=88, velocity=86, time=1),\n",
      "  Message('note_on', channel=2, note=88, velocity=0, time=23),\n",
      "  Message('note_on', channel=2, note=81, velocity=87, time=1),\n",
      "  Message('note_on', channel=2, note=81, velocity=0, time=45),\n",
      "  Message('note_on', channel=2, note=69, velocity=82, time=75),\n",
      "  Message('note_on', channel=2, note=69, velocity=0, time=23),\n",
      "  Message('note_on', channel=2, note=71, velocity=82, time=1),\n",
      "  Message('note_on', channel=2, note=71, velocity=0, time=23),\n",
      "  Message('note_on', channel=2, note=73, velocity=82, time=1),\n",
      "  Message('note_on', channel=2, note=73, velocity=0, time=23),\n",
      "  Message('note_on', channel=2, note=74, velocity=83, time=1),\n",
      "  Message('note_on', channel=2, note=74, velocity=0, time=23),\n",
      "  Message('note_on', channel=2, note=76, velocity=83, time=1),\n",
      "  Message('note_on', channel=2, note=76, velocity=0, time=23),\n",
      "  Message('note_on', channel=2, note=78, velocity=84, time=1),\n",
      "  Message('note_on', channel=2, note=78, velocity=0, time=23),\n",
      "  Message('note_on', channel=2, note=79, velocity=84, time=1),\n",
      "  Message('note_on', channel=2, note=79, velocity=0, time=23),\n",
      "  Message('note_on', channel=2, note=81, velocity=85, time=1),\n",
      "  Message('note_on', channel=2, note=81, velocity=0, time=23),\n",
      "  Message('note_on', channel=2, note=83, velocity=85, time=1),\n",
      "  Message('note_on', channel=2, note=83, velocity=0, time=23),\n",
      "  Message('note_on', channel=2, note=85, velocity=86, time=1),\n",
      "  Message('note_on', channel=2, note=85, velocity=0, time=23),\n",
      "  Message('note_on', channel=2, note=86, velocity=86, time=1),\n",
      "  Message('note_on', channel=2, note=86, velocity=0, time=23),\n",
      "  Message('note_on', channel=2, note=81, velocity=87, time=1),\n",
      "  Message('note_on', channel=2, note=81, velocity=0, time=45),\n",
      "  Message('note_on', channel=2, note=79, velocity=87, time=51),\n",
      "  Message('note_on', channel=2, note=79, velocity=0, time=23),\n",
      "  Message('note_on', channel=2, note=83, velocity=86, time=1),\n",
      "  Message('note_on', channel=2, note=83, velocity=0, time=23),\n",
      "  Message('note_on', channel=2, note=79, velocity=86, time=1),\n",
      "  Message('note_on', channel=2, note=79, velocity=0, time=23),\n",
      "  Message('note_on', channel=2, note=83, velocity=86, time=1),\n",
      "  Message('note_on', channel=2, note=83, velocity=0, time=23),\n",
      "  Message('note_on', channel=2, note=67, velocity=85, time=1),\n",
      "  Message('note_on', channel=2, note=67, velocity=0, time=23),\n",
      "  Message('note_on', channel=2, note=71, velocity=85, time=1),\n",
      "  Message('note_on', channel=2, note=71, velocity=0, time=23),\n",
      "  Message('note_on', channel=2, note=67, velocity=85, time=1),\n",
      "  Message('note_on', channel=2, note=67, velocity=0, time=23),\n",
      "  Message('note_on', channel=2, note=71, velocity=84, time=1),\n",
      "  Message('note_on', channel=2, note=71, velocity=0, time=23),\n",
      "  Message('note_on', channel=2, note=62, velocity=84, time=1),\n",
      "  Message('note_on', channel=2, note=62, velocity=0, time=23),\n",
      "  Message('note_on', channel=2, note=66, velocity=84, time=1),\n",
      "  Message('note_on', channel=2, note=66, velocity=0, time=23),\n",
      "  Message('note_on', channel=2, note=62, velocity=83, time=1),\n",
      "  Message('note_on', channel=2, note=62, velocity=0, time=23),\n",
      "  Message('note_on', channel=2, note=66, velocity=83, time=1),\n",
      "  Message('note_on', channel=2, note=66, velocity=0, time=23),\n",
      "  Message('note_on', channel=2, note=64, velocity=83, time=1),\n",
      "  Message('note_on', channel=2, note=64, velocity=0, time=23),\n",
      "  Message('note_on', channel=2, note=67, velocity=82, time=1),\n",
      "  Message('note_on', channel=2, note=67, velocity=0, time=23),\n",
      "  Message('note_on', channel=2, note=64, velocity=82, time=1),\n",
      "  Message('note_on', channel=2, note=64, velocity=0, time=23),\n",
      "  Message('note_on', channel=2, note=67, velocity=82, time=1),\n",
      "  Message('note_on', channel=2, note=67, velocity=0, time=23),\n",
      "  Message('note_on', channel=2, note=66, velocity=82, time=1),\n",
      "  Message('note_on', channel=2, note=66, velocity=0, time=89),\n",
      "  Message('note_on', channel=2, note=86, velocity=87, time=391),\n",
      "  Message('note_on', channel=2, note=86, velocity=0, time=23),\n",
      "  Message('note_on', channel=2, note=81, velocity=87, time=1),\n",
      "  Message('note_on', channel=2, note=81, velocity=0, time=23),\n",
      "  Message('note_on', channel=2, note=78, velocity=87, time=1),\n",
      "  Message('note_on', channel=2, note=78, velocity=0, time=23),\n",
      "  Message('note_on', channel=2, note=74, velocity=87, time=1),\n",
      "  Message('note_on', channel=2, note=74, velocity=0, time=23),\n",
      "  Message('note_on', channel=2, note=81, velocity=87, time=1),\n",
      "  Message('note_on', channel=2, note=81, velocity=0, time=23),\n",
      "  Message('note_on', channel=2, note=78, velocity=87, time=1),\n",
      "  Message('note_on', channel=2, note=78, velocity=0, time=23),\n",
      "  Message('note_on', channel=2, note=74, velocity=87, time=1),\n",
      "  Message('note_on', channel=2, note=74, velocity=0, time=23),\n",
      "  Message('note_on', channel=2, note=69, velocity=87, time=1),\n",
      "  Message('note_on', channel=2, note=69, velocity=0, time=23),\n",
      "  Message('note_on', channel=2, note=78, velocity=87, time=1),\n",
      "  Message('note_on', channel=2, note=78, velocity=0, time=23),\n",
      "  Message('note_on', channel=2, note=74, velocity=87, time=1),\n",
      "  Message('note_on', channel=2, note=74, velocity=0, time=23),\n",
      "  Message('note_on', channel=2, note=69, velocity=87, time=1),\n",
      "  Message('note_on', channel=2, note=69, velocity=0, time=23),\n",
      "  Message('note_on', channel=2, note=66, velocity=87, time=1),\n",
      "  Message('note_on', channel=2, note=66, velocity=0, time=23),\n",
      "  Message('note_on', channel=2, note=74, velocity=87, time=1),\n",
      "  Message('note_on', channel=2, note=74, velocity=0, time=23),\n",
      "  Message('note_on', channel=2, note=71, velocity=87, time=1),\n",
      "  Message('note_on', channel=2, note=71, velocity=0, time=23),\n",
      "  Message('note_on', channel=2, note=66, velocity=87, time=1),\n",
      "  Message('note_on', channel=2, note=66, velocity=0, time=23),\n",
      "  Message('note_on', channel=2, note=62, velocity=87, time=1),\n",
      "  Message('note_on', channel=2, note=62, velocity=0, time=23),\n",
      "  Message('note_on', channel=2, note=61, velocity=87, time=1),\n",
      "  Message('note_on', channel=2, note=61, velocity=0, time=23),\n",
      "  Message('note_on', channel=2, note=62, velocity=87, time=1),\n",
      "  Message('note_on', channel=2, note=62, velocity=0, time=23),\n",
      "  Message('note_on', channel=2, note=61, velocity=87, time=1),\n",
      "  Message('note_on', channel=2, note=61, velocity=0, time=23),\n",
      "  Message('note_on', channel=2, note=62, velocity=87, time=1),\n",
      "  Message('note_on', channel=2, note=62, velocity=0, time=23),\n",
      "  Message('note_on', channel=2, note=61, velocity=87, time=1),\n",
      "  Message('note_on', channel=2, note=61, velocity=0, time=23),\n",
      "  Message('note_on', channel=2, note=62, velocity=87, time=1),\n",
      "  Message('note_on', channel=2, note=62, velocity=0, time=23),\n",
      "  Message('note_on', channel=2, note=61, velocity=87, time=1),\n",
      "  Message('note_on', channel=2, note=61, velocity=0, time=23),\n",
      "  Message('note_on', channel=2, note=62, velocity=87, time=1),\n",
      "  Message('note_on', channel=2, note=62, velocity=0, time=23),\n",
      "  Message('note_on', channel=2, note=61, velocity=87, time=1),\n",
      "  Message('note_on', channel=2, note=61, velocity=0, time=23),\n",
      "  Message('note_on', channel=2, note=62, velocity=87, time=1),\n",
      "  Message('note_on', channel=2, note=62, velocity=0, time=23),\n",
      "  Message('note_on', channel=2, note=61, velocity=87, time=1),\n",
      "  Message('note_on', channel=2, note=61, velocity=0, time=23),\n",
      "  Message('note_on', channel=2, note=62, velocity=87, time=1),\n",
      "  Message('note_on', channel=2, note=62, velocity=0, time=23),\n",
      "  Message('note_on', channel=2, note=59, velocity=87, time=1),\n",
      "  Message('note_on', channel=2, note=59, velocity=0, time=45),\n",
      "  Message('note_on', channel=2, note=83, velocity=87, time=51),\n",
      "  Message('note_on', channel=2, note=83, velocity=0, time=23),\n",
      "  Message('note_on', channel=2, note=78, velocity=87, time=1),\n",
      "  Message('note_on', channel=2, note=78, velocity=0, time=23),\n",
      "  Message('note_on', channel=2, note=74, velocity=87, time=1),\n",
      "  Message('note_on', channel=2, note=74, velocity=0, time=23),\n",
      "  Message('note_on', channel=2, note=71, velocity=87, time=1),\n",
      "  Message('note_on', channel=2, note=71, velocity=0, time=23),\n",
      "  Message('note_on', channel=2, note=78, velocity=87, time=1),\n",
      "  Message('note_on', channel=2, note=78, velocity=0, time=23),\n",
      "  Message('note_on', channel=2, note=74, velocity=87, time=1),\n",
      "  Message('note_on', channel=2, note=74, velocity=0, time=23),\n",
      "  Message('note_on', channel=2, note=71, velocity=87, time=1),\n",
      "  Message('note_on', channel=2, note=71, velocity=0, time=23),\n",
      "  Message('note_on', channel=2, note=66, velocity=87, time=1),\n",
      "  Message('note_on', channel=2, note=66, velocity=0, time=23),\n",
      "  Message('note_on', channel=2, note=74, velocity=87, time=1),\n",
      "  Message('note_on', channel=2, note=74, velocity=0, time=23),\n",
      "  Message('note_on', channel=2, note=71, velocity=87, time=1),\n",
      "  Message('note_on', channel=2, note=71, velocity=0, time=23),\n",
      "  Message('note_on', channel=2, note=66, velocity=87, time=1),\n",
      "  Message('note_on', channel=2, note=66, velocity=0, time=23),\n",
      "  Message('note_on', channel=2, note=62, velocity=87, time=1),\n",
      "  Message('note_on', channel=2, note=62, velocity=0, time=23),\n",
      "  Message('note_on', channel=2, note=71, velocity=87, time=1),\n",
      "  Message('note_on', channel=2, note=71, velocity=0, time=23),\n",
      "  Message('note_on', channel=2, note=67, velocity=87, time=1),\n",
      "  Message('note_on', channel=2, note=67, velocity=0, time=23),\n",
      "  Message('note_on', channel=2, note=62, velocity=87, time=1),\n",
      "  Message('note_on', channel=2, note=62, velocity=0, time=23),\n",
      "  Message('note_on', channel=2, note=59, velocity=87, time=1),\n",
      "  Message('note_on', channel=2, note=59, velocity=0, time=23),\n",
      "  Message('note_on', channel=2, note=58, velocity=87, time=1),\n",
      "  Message('note_on', channel=2, note=58, velocity=0, time=23),\n",
      "  Message('note_on', channel=2, note=59, velocity=87, time=1),\n",
      "  Message('note_on', channel=2, note=59, velocity=0, time=23),\n",
      "  Message('note_on', channel=2, note=58, velocity=87, time=1),\n",
      "  Message('note_on', channel=2, note=58, velocity=0, time=23),\n",
      "  Message('note_on', channel=2, note=59, velocity=87, time=1),\n",
      "  Message('note_on', channel=2, note=59, velocity=0, time=23),\n",
      "  Message('note_on', channel=2, note=58, velocity=87, time=1),\n",
      "  Message('note_on', channel=2, note=58, velocity=0, time=23),\n",
      "  Message('note_on', channel=2, note=59, velocity=87, time=1),\n",
      "  Message('note_on', channel=2, note=59, velocity=0, time=23),\n",
      "  Message('note_on', channel=2, note=58, velocity=87, time=1),\n",
      "  Message('note_on', channel=2, note=58, velocity=0, time=23),\n",
      "  Message('note_on', channel=2, note=59, velocity=87, time=1),\n",
      "  Message('note_on', channel=2, note=59, velocity=0, time=23),\n",
      "  Message('note_on', channel=2, note=58, velocity=87, time=1),\n",
      "  Message('note_on', channel=2, note=58, velocity=0, time=23),\n",
      "  Message('note_on', channel=2, note=59, velocity=87, time=1),\n",
      "  Message('note_on', channel=2, note=59, velocity=0, time=23),\n",
      "  Message('note_on', channel=2, note=58, velocity=87, time=1),\n",
      "  Message('note_on', channel=2, note=58, velocity=0, time=23),\n",
      "  Message('note_on', channel=2, note=59, velocity=87, time=1),\n",
      "  Message('note_on', channel=2, note=59, velocity=0, time=23),\n",
      "  Message('note_on', channel=2, note=55, velocity=87, time=1),\n",
      "  Message('note_on', channel=2, note=55, velocity=0, time=45),\n",
      "  Message('note_on', channel=2, note=79, velocity=87, time=51),\n",
      "  Message('note_on', channel=2, note=79, velocity=0, time=23),\n",
      "  Message('note_on', channel=2, note=74, velocity=87, time=1),\n",
      "  Message('note_on', channel=2, note=74, velocity=0, time=23),\n",
      "  Message('note_on', channel=2, note=71, velocity=87, time=1),\n",
      "  Message('note_on', channel=2, note=71, velocity=0, time=23),\n",
      "  Message('note_on', channel=2, note=67, velocity=87, time=1),\n",
      "  Message('note_on', channel=2, note=67, velocity=0, time=23),\n",
      "  Message('note_on', channel=2, note=74, velocity=87, time=1),\n",
      "  Message('note_on', channel=2, note=74, velocity=0, time=23),\n",
      "  Message('note_on', channel=2, note=71, velocity=87, time=1),\n",
      "  Message('note_on', channel=2, note=71, velocity=0, time=23),\n",
      "  Message('note_on', channel=2, note=67, velocity=87, time=1),\n",
      "  Message('note_on', channel=2, note=67, velocity=0, time=23),\n",
      "  Message('note_on', channel=2, note=62, velocity=87, time=1),\n",
      "  Message('note_on', channel=2, note=62, velocity=0, time=23),\n",
      "  Message('note_on', channel=2, note=71, velocity=87, time=1),\n",
      "  Message('note_on', channel=2, note=71, velocity=0, time=23),\n",
      "  Message('note_on', channel=2, note=67, velocity=87, time=1),\n",
      "  Message('note_on', channel=2, note=67, velocity=0, time=23),\n",
      "  Message('note_on', channel=2, note=62, velocity=87, time=1),\n",
      "  Message('note_on', channel=2, note=62, velocity=0, time=23),\n",
      "  Message('note_on', channel=2, note=59, velocity=87, time=1),\n",
      "  Message('note_on', channel=2, note=59, velocity=0, time=23),\n",
      "  Message('note_on', channel=2, note=62, velocity=87, time=1),\n",
      "  Message('note_on', channel=2, note=59, velocity=87, time=0),\n",
      "  Message('note_on', channel=2, note=62, velocity=0, time=177),\n",
      "  Message('note_on', channel=2, note=59, velocity=0, time=0),\n",
      "  Message('note_on', channel=2, note=62, velocity=87, time=15),\n",
      "  Message('note_on', channel=2, note=59, velocity=87, time=0),\n",
      "  Message('note_on', channel=2, note=56, velocity=87, time=0),\n",
      "  Message('note_on', channel=2, note=62, velocity=0, time=177),\n",
      "  Message('note_on', channel=2, note=59, velocity=0, time=0),\n",
      "  Message('note_on', channel=2, note=56, velocity=0, time=0),\n",
      "  Message('note_on', channel=2, note=61, velocity=87, time=15),\n",
      "  Message('note_on', channel=2, note=61, velocity=0, time=23),\n",
      "  Message('note_on', channel=2, note=62, velocity=87, time=1),\n",
      "  Message('note_on', channel=2, note=62, velocity=0, time=23),\n",
      "  Message('note_on', channel=2, note=64, velocity=87, time=1),\n",
      "  Message('note_on', channel=2, note=64, velocity=0, time=23),\n",
      "  Message('note_on', channel=2, note=66, velocity=87, time=1),\n",
      "  Message('note_on', channel=2, note=66, velocity=0, time=23),\n",
      "  Message('note_on', channel=2, note=68, velocity=87, time=1),\n",
      "  Message('note_on', channel=2, note=68, velocity=0, time=23),\n",
      "  Message('note_on', channel=2, note=69, velocity=87, time=1),\n",
      "  Message('note_on', channel=2, note=69, velocity=0, time=23),\n",
      "  Message('note_on', channel=2, note=71, velocity=87, time=1),\n",
      "  Message('note_on', channel=2, note=71, velocity=0, time=23),\n",
      "  Message('note_on', channel=2, note=73, velocity=87, time=1),\n",
      "  Message('note_on', channel=2, note=73, velocity=0, time=23),\n",
      "  Message('note_on', channel=2, note=75, velocity=87, time=1),\n",
      "  Message('note_on', channel=2, note=75, velocity=0, time=23),\n",
      "  Message('note_on', channel=2, note=76, velocity=87, time=1),\n",
      "  Message('note_on', channel=2, note=76, velocity=0, time=23),\n",
      "  Message('note_on', channel=2, note=78, velocity=87, time=1),\n",
      "  Message('note_on', channel=2, note=78, velocity=0, time=23),\n",
      "  Message('note_on', channel=2, note=80, velocity=87, time=1),\n",
      "  Message('note_on', channel=2, note=80, velocity=0, time=23),\n",
      "  Message('note_on', channel=2, note=81, velocity=87, time=1),\n",
      "  Message('note_on', channel=2, note=81, velocity=0, time=23),\n",
      "  Message('note_on', channel=2, note=83, velocity=87, time=1),\n",
      "  Message('note_on', channel=2, note=83, velocity=0, time=23),\n",
      "  Message('note_on', channel=2, note=85, velocity=87, time=1),\n",
      "  Message('note_on', channel=2, note=85, velocity=0, time=23),\n",
      "  Message('note_on', channel=2, note=87, velocity=87, time=1),\n",
      "  Message('note_on', channel=2, note=87, velocity=0, time=23),\n",
      "  Message('note_on', channel=2, note=88, velocity=87, time=1),\n",
      "  Message('note_on', channel=2, note=88, velocity=0, time=23),\n",
      "  Message('note_on', channel=2, note=76, velocity=87, time=1),\n",
      "  Message('note_on', channel=2, note=76, velocity=0, time=23),\n",
      "  Message('note_on', channel=2, note=88, velocity=87, time=1),\n",
      "  Message('note_on', channel=2, note=88, velocity=0, time=23),\n",
      "  Message('note_on', channel=2, note=76, velocity=87, time=1),\n",
      "  Message('note_on', channel=2, note=76, velocity=0, time=23),\n",
      "  Message('note_on', channel=2, note=88, velocity=87, time=1),\n",
      "  Message('note_on', channel=2, note=88, velocity=0, time=23),\n",
      "  Message('note_on', channel=2, note=76, velocity=87, time=1),\n",
      "  Message('note_on', channel=2, note=76, velocity=0, time=23),\n",
      "  Message('note_on', channel=2, note=88, velocity=87, time=1),\n",
      "  Message('note_on', channel=2, note=88, velocity=0, time=23),\n",
      "  Message('note_on', channel=2, note=76, velocity=87, time=1),\n",
      "  Message('note_on', channel=2, note=76, velocity=0, time=23),\n",
      "  Message('note_on', channel=2, note=88, velocity=87, time=1),\n",
      "  Message('note_on', channel=2, note=88, velocity=0, time=23),\n",
      "  Message('note_on', channel=2, note=76, velocity=87, time=1),\n",
      "  Message('note_on', channel=2, note=76, velocity=0, time=23),\n",
      "  Message('note_on', channel=2, note=88, velocity=87, time=1),\n",
      "  Message('note_on', channel=2, note=88, velocity=0, time=23),\n",
      "  Message('note_on', channel=2, note=76, velocity=87, time=1),\n",
      "  Message('note_on', channel=2, note=76, velocity=0, time=23),\n",
      "  Message('note_on', channel=2, note=88, velocity=87, time=1),\n",
      "  Message('note_on', channel=2, note=88, velocity=0, time=23),\n",
      "  Message('note_on', channel=2, note=76, velocity=87, time=1),\n",
      "  Message('note_on', channel=2, note=76, velocity=0, time=23),\n",
      "  Message('note_on', channel=2, note=88, velocity=87, time=1),\n",
      "  Message('note_on', channel=2, note=88, velocity=0, time=23),\n",
      "  Message('note_on', channel=2, note=76, velocity=87, time=1),\n",
      "  Message('note_on', channel=2, note=76, velocity=0, time=23),\n",
      "  Message('note_on', channel=2, note=88, velocity=87, time=1),\n",
      "  Message('note_on', channel=2, note=88, velocity=0, time=23),\n",
      "  Message('note_on', channel=2, note=78, velocity=87, time=1),\n",
      "  Message('note_on', channel=2, note=78, velocity=0, time=23),\n",
      "  Message('note_on', channel=2, note=88, velocity=87, time=1),\n",
      "  Message('note_on', channel=2, note=88, velocity=0, time=23),\n",
      "  Message('note_on', channel=2, note=78, velocity=87, time=1),\n",
      "  Message('note_on', channel=2, note=78, velocity=0, time=23),\n",
      "  Message('note_on', channel=2, note=88, velocity=87, time=1),\n",
      "  Message('note_on', channel=2, note=88, velocity=0, time=23),\n",
      "  Message('note_on', channel=2, note=78, velocity=87, time=1),\n",
      "  Message('note_on', channel=2, note=78, velocity=0, time=23),\n",
      "  Message('note_on', channel=2, note=88, velocity=87, time=1),\n",
      "  Message('note_on', channel=2, note=88, velocity=0, time=23),\n",
      "  Message('note_on', channel=2, note=78, velocity=87, time=1),\n",
      "  Message('note_on', channel=2, note=78, velocity=0, time=23),\n",
      "  Message('note_on', channel=2, note=86, velocity=87, time=1),\n",
      "  Message('note_on', channel=2, note=86, velocity=0, time=23),\n",
      "  Message('note_on', channel=2, note=78, velocity=87, time=1),\n",
      "  Message('note_on', channel=2, note=78, velocity=0, time=23),\n",
      "  Message('note_on', channel=2, note=86, velocity=87, time=1),\n",
      "  Message('note_on', channel=2, note=86, velocity=0, time=23),\n",
      "  Message('note_on', channel=2, note=78, velocity=87, time=1),\n",
      "  Message('note_on', channel=2, note=78, velocity=0, time=23),\n",
      "  Message('note_on', channel=2, note=86, velocity=87, time=1),\n",
      "  Message('note_on', channel=2, note=86, velocity=0, time=23),\n",
      "  Message('note_on', channel=2, note=78, velocity=87, time=1),\n",
      "  Message('note_on', channel=2, note=78, velocity=0, time=23),\n",
      "  Message('note_on', channel=2, note=86, velocity=87, time=1),\n",
      "  Message('note_on', channel=2, note=86, velocity=0, time=23),\n",
      "  Message('note_on', channel=2, note=78, velocity=87, time=1),\n",
      "  Message('note_on', channel=2, note=78, velocity=0, time=23),\n",
      "  Message('note_on', channel=2, note=86, velocity=87, time=1),\n",
      "  Message('note_on', channel=2, note=86, velocity=0, time=23),\n",
      "  Message('note_on', channel=2, note=76, velocity=87, time=1),\n",
      "  Message('note_on', channel=2, note=76, velocity=0, time=23),\n",
      "  Message('note_on', channel=2, note=86, velocity=87, time=1),\n",
      "  Message('note_on', channel=2, note=86, velocity=0, time=23),\n",
      "  Message('note_on', channel=2, note=76, velocity=87, time=1),\n",
      "  Message('note_on', channel=2, note=76, velocity=0, time=23),\n",
      "  Message('note_on', channel=2, note=86, velocity=87, time=1),\n",
      "  Message('note_on', channel=2, note=86, velocity=0, time=23),\n",
      "  Message('note_on', channel=2, note=76, velocity=87, time=1),\n",
      "  Message('note_on', channel=2, note=76, velocity=0, time=23),\n",
      "  Message('note_on', channel=2, note=86, velocity=87, time=1),\n",
      "  Message('note_on', channel=2, note=86, velocity=0, time=23),\n",
      "  Message('note_on', channel=2, note=76, velocity=87, time=1),\n",
      "  Message('note_on', channel=2, note=76, velocity=0, time=23),\n",
      "  Message('note_on', channel=2, note=85, velocity=87, time=1),\n",
      "  Message('note_on', channel=2, note=85, velocity=0, time=23),\n",
      "  Message('note_on', channel=2, note=76, velocity=87, time=1),\n",
      "  Message('note_on', channel=2, note=76, velocity=0, time=23),\n",
      "  Message('note_on', channel=2, note=85, velocity=87, time=1),\n",
      "  Message('note_on', channel=2, note=85, velocity=0, time=23),\n",
      "  Message('note_on', channel=2, note=76, velocity=87, time=1),\n",
      "  Message('note_on', channel=2, note=76, velocity=0, time=23),\n",
      "  Message('note_on', channel=2, note=85, velocity=87, time=1),\n",
      "  Message('note_on', channel=2, note=85, velocity=0, time=23),\n",
      "  Message('note_on', channel=2, note=76, velocity=87, time=1),\n",
      "  Message('note_on', channel=2, note=76, velocity=0, time=23),\n",
      "  Message('note_on', channel=2, note=85, velocity=87, time=1),\n",
      "  Message('note_on', channel=2, note=85, velocity=0, time=23),\n",
      "  Message('note_on', channel=2, note=76, velocity=87, time=1),\n",
      "  Message('note_on', channel=2, note=76, velocity=0, time=23),\n",
      "  Message('note_on', channel=2, note=85, velocity=87, time=1),\n",
      "  Message('note_on', channel=2, note=85, velocity=0, time=23),\n",
      "  Message('note_on', channel=2, note=74, velocity=87, time=1),\n",
      "  Message('note_on', channel=2, note=74, velocity=0, time=23),\n",
      "  Message('note_on', channel=2, note=85, velocity=87, time=1),\n",
      "  Message('note_on', channel=2, note=85, velocity=0, time=23),\n",
      "  Message('note_on', channel=2, note=74, velocity=87, time=1),\n",
      "  Message('note_on', channel=2, note=74, velocity=0, time=23),\n",
      "  Message('note_on', channel=2, note=85, velocity=87, time=1),\n",
      "  Message('note_on', channel=2, note=85, velocity=0, time=23),\n",
      "  Message('note_on', channel=2, note=74, velocity=87, time=1),\n",
      "  Message('note_on', channel=2, note=74, velocity=0, time=23),\n",
      "  Message('note_on', channel=2, note=85, velocity=87, time=1),\n",
      "  Message('note_on', channel=2, note=85, velocity=0, time=23),\n",
      "  Message('note_on', channel=2, note=74, velocity=87, time=1),\n",
      "  Message('note_on', channel=2, note=74, velocity=0, time=23),\n",
      "  Message('note_on', channel=2, note=83, velocity=87, time=1),\n",
      "  Message('note_on', channel=2, note=83, velocity=0, time=23),\n",
      "  Message('note_on', channel=2, note=74, velocity=87, time=1),\n",
      "  Message('note_on', channel=2, note=74, velocity=0, time=23),\n",
      "  Message('note_on', channel=2, note=83, velocity=87, time=1),\n",
      "  Message('note_on', channel=2, note=83, velocity=0, time=23),\n",
      "  Message('note_on', channel=2, note=74, velocity=87, time=1),\n",
      "  Message('note_on', channel=2, note=74, velocity=0, time=23),\n",
      "  Message('note_on', channel=2, note=83, velocity=87, time=1),\n",
      "  Message('note_on', channel=2, note=83, velocity=0, time=23),\n",
      "  Message('note_on', channel=2, note=74, velocity=87, time=1),\n",
      "  Message('note_on', channel=2, note=74, velocity=0, time=23),\n",
      "  Message('note_on', channel=2, note=83, velocity=87, time=1),\n",
      "  Message('note_on', channel=2, note=83, velocity=0, time=23),\n",
      "  Message('note_on', channel=2, note=74, velocity=87, time=1),\n",
      "  Message('note_on', channel=2, note=74, velocity=0, time=23),\n",
      "  Message('note_on', channel=2, note=83, velocity=87, time=1),\n",
      "  Message('note_on', channel=2, note=83, velocity=0, time=23),\n",
      "  Message('note_on', channel=2, note=73, velocity=87, time=1),\n",
      "  Message('note_on', channel=2, note=73, velocity=0, time=23),\n",
      "  Message('note_on', channel=2, note=83, velocity=87, time=1),\n",
      "  Message('note_on', channel=2, note=83, velocity=0, time=23),\n",
      "  Message('note_on', channel=2, note=73, velocity=87, time=1),\n",
      "  Message('note_on', channel=2, note=73, velocity=0, time=23),\n",
      "  Message('note_on', channel=2, note=83, velocity=87, time=1),\n",
      "  Message('note_on', channel=2, note=83, velocity=0, time=23),\n",
      "  Message('note_on', channel=2, note=73, velocity=87, time=1),\n",
      "  Message('note_on', channel=2, note=73, velocity=0, time=23),\n",
      "  Message('note_on', channel=2, note=83, velocity=87, time=1),\n",
      "  Message('note_on', channel=2, note=83, velocity=0, time=23),\n",
      "  Message('note_on', channel=2, note=73, velocity=87, time=1),\n",
      "  Message('note_on', channel=2, note=73, velocity=0, time=23),\n",
      "  Message('note_on', channel=2, note=81, velocity=87, time=1),\n",
      "  Message('note_on', channel=2, note=81, velocity=0, time=23),\n",
      "  Message('note_on', channel=2, note=75, velocity=87, time=1),\n",
      "  Message('note_on', channel=2, note=75, velocity=0, time=23),\n",
      "  Message('note_on', channel=2, note=81, velocity=87, time=1),\n",
      "  Message('note_on', channel=2, note=81, velocity=0, time=23),\n",
      "  Message('note_on', channel=2, note=75, velocity=87, time=1),\n",
      "  Message('note_on', channel=2, note=75, velocity=0, time=23),\n",
      "  Message('note_on', channel=2, note=81, velocity=87, time=1),\n",
      "  Message('note_on', channel=2, note=81, velocity=0, time=23),\n",
      "  Message('note_on', channel=2, note=75, velocity=87, time=1),\n",
      "  Message('note_on', channel=2, note=75, velocity=0, time=23),\n",
      "  Message('note_on', channel=2, note=81, velocity=87, time=1),\n",
      "  Message('note_on', channel=2, note=81, velocity=0, time=23),\n",
      "  Message('note_on', channel=2, note=75, velocity=87, time=1),\n",
      "  Message('note_on', channel=2, note=75, velocity=0, time=23),\n",
      "  Message('note_on', channel=2, note=80, velocity=87, time=1),\n",
      "  Message('note_on', channel=2, note=76, velocity=87, time=0),\n",
      "  Message('note_on', channel=2, note=71, velocity=87, time=0),\n",
      "  Message('note_on', channel=2, note=80, velocity=0, time=45),\n",
      "  Message('note_on', channel=2, note=76, velocity=0, time=0),\n",
      "  Message('note_on', channel=2, note=71, velocity=0, time=0),\n",
      "  Message('note_on', channel=2, note=80, velocity=87, time=51),\n",
      "  Message('note_on', channel=2, note=80, velocity=0, time=18),\n",
      "  Message('note_on', channel=2, note=78, velocity=87, time=0),\n",
      "  Message('note_on', channel=2, note=78, velocity=0, time=18),\n",
      "  Message('note_on', channel=2, note=80, velocity=87, time=0),\n",
      "  Message('note_on', channel=2, note=80, velocity=0, time=18),\n",
      "  Message('note_on', channel=2, note=78, velocity=87, time=0),\n",
      "  Message('note_on', channel=2, note=78, velocity=0, time=13),\n",
      "  Message('note_on', channel=2, note=76, velocity=87, time=5),\n",
      "  Message('note_on', channel=2, note=76, velocity=0, time=12),\n",
      "  Message('note_on', channel=2, note=78, velocity=87, time=0),\n",
      "  Message('note_on', channel=2, note=78, velocity=0, time=12),\n",
      "  Message('note_on', channel=2, note=76, velocity=87, time=0),\n",
      "  Message('note_on', channel=2, note=76, velocity=0, time=45),\n",
      "  Message('note_on', channel=2, note=74, velocity=87, time=51),\n",
      "  Message('note_on', channel=2, note=68, velocity=87, time=0),\n",
      "  Message('note_on', channel=2, note=64, velocity=87, time=0),\n",
      "  Message('note_on', channel=2, note=74, velocity=0, time=45),\n",
      "  Message('note_on', channel=2, note=68, velocity=0, time=0),\n",
      "  Message('note_on', channel=2, note=64, velocity=0, time=0),\n",
      "  Message('note_on', channel=2, note=73, velocity=87, time=51),\n",
      "  Message('note_on', channel=2, note=69, velocity=87, time=0),\n",
      "  Message('note_on', channel=2, note=64, velocity=87, time=0),\n",
      "  Message('note_on', channel=2, note=73, velocity=0, time=45),\n",
      "  Message('note_on', channel=2, note=69, velocity=0, time=0),\n",
      "  Message('note_on', channel=2, note=64, velocity=0, time=0),\n",
      "  Message('note_on', channel=2, note=83, velocity=87, time=51),\n",
      "  Message('note_on', channel=2, note=83, velocity=0, time=23),\n",
      "  Message('note_on', channel=2, note=81, velocity=87, time=1),\n",
      "  Message('note_on', channel=2, note=81, velocity=0, time=23),\n",
      "  Message('note_on', channel=2, note=80, velocity=87, time=1),\n",
      "  Message('note_on', channel=2, note=80, velocity=0, time=23),\n",
      "  Message('note_on', channel=2, note=81, velocity=87, time=1),\n",
      "  Message('note_on', channel=2, note=81, velocity=0, time=23),\n",
      "  Message('note_on', channel=2, note=80, velocity=87, time=1),\n",
      "  Message('note_on', channel=2, note=80, velocity=0, time=23),\n",
      "  Message('note_on', channel=2, note=78, velocity=87, time=1),\n",
      "  Message('note_on', channel=2, note=78, velocity=0, time=23),\n",
      "  Message('note_on', channel=2, note=77, velocity=87, time=1),\n",
      "  Message('note_on', channel=2, note=77, velocity=0, time=23),\n",
      "  Message('note_on', channel=2, note=78, velocity=87, time=1),\n",
      "  Message('note_on', channel=2, note=78, velocity=0, time=23),\n",
      "  Message('note_on', channel=2, note=76, velocity=87, time=1),\n",
      "  Message('note_on', channel=2, note=76, velocity=0, time=23),\n",
      "  Message('note_on', channel=2, note=74, velocity=87, time=1),\n",
      "  Message('note_on', channel=2, note=74, velocity=0, time=23),\n",
      "  Message('note_on', channel=2, note=73, velocity=87, time=1),\n",
      "  Message('note_on', channel=2, note=73, velocity=0, time=23),\n",
      "  Message('note_on', channel=2, note=74, velocity=87, time=1),\n",
      "  Message('note_on', channel=2, note=74, velocity=0, time=23),\n",
      "  Message('note_on', channel=2, note=73, velocity=87, time=1),\n",
      "  Message('note_on', channel=2, note=73, velocity=0, time=45),\n",
      "  Message('note_on', channel=2, note=76, velocity=87, time=3),\n",
      "  Message('note_on', channel=2, note=76, velocity=0, time=23),\n",
      "  Message('note_on', channel=2, note=73, velocity=87, time=1),\n",
      "  Message('note_on', channel=2, note=73, velocity=0, time=23),\n",
      "  Message('note_on', channel=2, note=81, velocity=87, time=1),\n",
      "  Message('note_on', channel=2, note=81, velocity=0, time=20),\n",
      "  Message('note_on', channel=2, note=81, velocity=87, time=28),\n",
      "  Message('note_on', channel=2, note=81, velocity=0, time=20),\n",
      "  Message('note_on', channel=2, note=71, velocity=87, time=28),\n",
      "  Message('note_on', channel=2, note=71, velocity=0, time=45),\n",
      "  Message('note_on', channel=2, note=74, velocity=87, time=3),\n",
      "  Message('note_on', channel=2, note=74, velocity=0, time=23),\n",
      "  Message('note_on', channel=2, note=71, velocity=87, time=1),\n",
      "  Message('note_on', channel=2, note=71, velocity=0, time=23),\n",
      "  Message('note_on', channel=2, note=80, velocity=87, time=1),\n",
      "  Message('note_on', channel=2, note=80, velocity=0, time=20),\n",
      "  Message('note_on', channel=2, note=80, velocity=87, time=28),\n",
      "  Message('note_on', channel=2, note=80, velocity=0, time=20),\n",
      "  Message('note_on', channel=2, note=81, velocity=87, time=28),\n",
      "  Message('note_on', channel=2, note=81, velocity=0, time=23),\n",
      "  Message('note_on', channel=2, note=76, velocity=87, time=1),\n",
      "  Message('note_on', channel=2, note=76, velocity=0, time=23),\n",
      "  Message('note_on', channel=2, note=73, velocity=87, time=1),\n",
      "  Message('note_on', channel=2, note=73, velocity=0, time=23),\n",
      "  Message('note_on', channel=2, note=76, velocity=87, time=1),\n",
      "  Message('note_on', channel=2, note=76, velocity=0, time=23),\n",
      "  Message('note_on', channel=2, note=81, velocity=87, time=1),\n",
      "  Message('note_on', channel=2, note=81, velocity=0, time=20),\n",
      "  Message('note_on', channel=2, note=85, velocity=87, time=28),\n",
      "  Message('note_on', channel=2, note=85, velocity=0, time=20),\n",
      "  Message('note_on', channel=2, note=73, velocity=87, time=28),\n",
      "  Message('note_on', channel=2, note=76, velocity=87, time=8),\n",
      "  Message('note_on', channel=2, note=81, velocity=87, time=8),\n",
      "  Message('note_on', channel=2, note=81, velocity=0, time=77),\n",
      "  Message('note_on', channel=2, note=76, velocity=0, time=0),\n",
      "  Message('note_on', channel=2, note=73, velocity=0, time=0),\n",
      "  Message('note_on', channel=2, note=69, velocity=78, time=99),\n",
      "  Message('note_on', channel=2, note=69, velocity=0, time=45),\n",
      "  Message('note_on', channel=2, note=68, velocity=78, time=3),\n",
      "  Message('note_on', channel=2, note=68, velocity=0, time=45),\n",
      "  Message('note_on', channel=2, note=66, velocity=78, time=3),\n",
      "  Message('note_on', channel=2, note=66, velocity=0, time=45),\n",
      "  Message('note_on', channel=2, note=64, velocity=78, time=3),\n",
      "  Message('note_on', channel=2, note=64, velocity=0, time=45),\n",
      "  Message('note_on', channel=2, note=69, velocity=78, time=3),\n",
      "  Message('note_on', channel=2, note=69, velocity=0, time=39),\n",
      "  Message('note_on', channel=2, note=71, velocity=78, time=57),\n",
      "  Message('note_on', channel=2, note=64, velocity=78, time=0),\n",
      "  Message('note_on', channel=2, note=71, velocity=0, time=39),\n",
      "  Message('note_on', channel=2, note=64, velocity=0, time=0),\n",
      "  Message('note_on', channel=2, note=71, velocity=96, time=57),\n",
      "  Message('note_on', channel=2, note=64, velocity=96, time=0),\n",
      "  Message('note_on', channel=2, note=71, velocity=0, time=96),\n",
      "  Message('note_on', channel=2, note=64, velocity=0, time=0),\n",
      "  Message('note_on', channel=2, note=74, velocity=82, time=0),\n",
      "  Message('note_on', channel=2, note=74, velocity=0, time=45),\n",
      "  Message('note_on', channel=2, note=73, velocity=81, time=3),\n",
      "  Message('note_on', channel=2, note=73, velocity=0, time=45),\n",
      "  Message('note_on', channel=2, note=71, velocity=80, time=3),\n",
      "  Message('note_on', channel=2, note=68, velocity=80, time=0),\n",
      "  Message('note_on', channel=2, note=71, velocity=0, time=89),\n",
      "  Message('note_on', channel=2, note=68, velocity=0, time=0),\n",
      "  Message('note_on', channel=2, note=69, velocity=78, time=103),\n",
      "  Message('note_on', channel=2, note=69, velocity=0, time=45),\n",
      "  Message('note_on', channel=2, note=68, velocity=78, time=3),\n",
      "  Message('note_on', channel=2, note=68, velocity=0, time=45),\n",
      "  Message('note_on', channel=2, note=66, velocity=78, time=3),\n",
      "  Message('note_on', channel=2, note=66, velocity=0, time=45),\n",
      "  Message('note_on', channel=2, note=64, velocity=78, time=3),\n",
      "  Message('note_on', channel=2, note=64, velocity=0, time=45),\n",
      "  Message('note_on', channel=2, note=69, velocity=78, time=3),\n",
      "  Message('note_on', channel=2, note=69, velocity=0, time=89),\n",
      "  Message('note_on', channel=2, note=76, velocity=80, time=7),\n",
      "  Message('note_on', channel=2, note=71, velocity=80, time=0),\n",
      "  Message('note_on', channel=2, note=76, velocity=0, time=39),\n",
      "  Message('note_on', channel=2, note=71, velocity=0, time=0),\n",
      "  Message('note_on', channel=2, note=74, velocity=82, time=57),\n",
      "  Message('note_on', channel=2, note=71, velocity=82, time=0),\n",
      "  Message('note_on', channel=2, note=74, velocity=0, time=89),\n",
      "  Message('note_on', channel=2, note=71, velocity=0, time=0),\n",
      "  Message('note_on', channel=2, note=73, velocity=80, time=7),\n",
      "  Message('note_on', channel=2, note=73, velocity=0, time=18),\n",
      "  Message('note_on', channel=2, note=74, velocity=80, time=0),\n",
      "  Message('note_on', channel=2, note=74, velocity=0, time=18),\n",
      "  Message('note_on', channel=2, note=73, velocity=80, time=0),\n",
      "  Message('note_on', channel=2, note=73, velocity=0, time=18),\n",
      "  Message('note_on', channel=2, note=74, velocity=80, time=0),\n",
      "  Message('note_on', channel=2, note=74, velocity=0, time=18),\n",
      "  Message('note_on', channel=2, note=73, velocity=80, time=0),\n",
      "  Message('note_on', channel=2, note=73, velocity=0, time=17),\n",
      "  Message('note_on', channel=2, note=71, velocity=79, time=7),\n",
      "  Message('note_on', channel=2, note=68, velocity=79, time=0),\n",
      "  Message('note_on', channel=2, note=71, velocity=0, time=89),\n",
      "  Message('note_on', channel=2, note=68, velocity=0, time=0),\n",
      "  Message('note_on', channel=2, note=69, velocity=78, time=103),\n",
      "  Message('note_on', channel=2, note=69, velocity=0, time=45),\n",
      "  Message('note_on', channel=2, note=68, velocity=78, time=3),\n",
      "  Message('note_on', channel=2, note=68, velocity=0, time=45),\n",
      "  Message('note_on', channel=2, note=66, velocity=78, time=3),\n",
      "  Message('note_on', channel=2, note=66, velocity=0, time=12),\n",
      "  Message('note_on', channel=2, note=67, velocity=78, time=0),\n",
      "  Message('note_on', channel=2, note=67, velocity=0, time=12),\n",
      "  Message('note_on', channel=2, note=66, velocity=78, time=0),\n",
      "  Message('note_on', channel=2, note=66, velocity=0, time=21),\n",
      "  Message('note_on', channel=2, note=64, velocity=78, time=3),\n",
      "  Message('note_on', channel=2, note=64, velocity=0, time=45),\n",
      "  Message('note_on', channel=2, note=69, velocity=78, time=3),\n",
      "  Message('note_on', channel=2, note=69, velocity=0, time=39),\n",
      "  Message('note_on', channel=2, note=71, velocity=78, time=57),\n",
      "  Message('note_on', channel=2, note=64, velocity=78, time=0),\n",
      "  Message('note_on', channel=2, note=71, velocity=0, time=39),\n",
      "  Message('note_on', channel=2, note=64, velocity=0, time=0),\n",
      "  Message('note_on', channel=2, note=71, velocity=96, time=57),\n",
      "  Message('note_on', channel=2, note=64, velocity=96, time=0),\n",
      "  Message('note_on', channel=2, note=71, velocity=0, time=96),\n",
      "  Message('note_on', channel=2, note=64, velocity=0, time=0),\n",
      "  Message('note_on', channel=2, note=74, velocity=82, time=0),\n",
      "  Message('note_on', channel=2, note=74, velocity=0, time=45),\n",
      "  Message('note_on', channel=2, note=73, velocity=81, time=3),\n",
      "  Message('note_on', channel=2, note=73, velocity=0, time=45),\n",
      "  Message('note_on', channel=2, note=71, velocity=80, time=3),\n",
      "  Message('note_on', channel=2, note=68, velocity=80, time=0),\n",
      "  Message('note_on', channel=2, note=71, velocity=0, time=89),\n",
      "  Message('note_on', channel=2, note=68, velocity=0, time=0),\n",
      "  Message('note_on', channel=2, note=76, velocity=78, time=103),\n",
      "  Message('note_on', channel=2, note=76, velocity=0, time=67),\n",
      "  Message('note_on', channel=2, note=73, velocity=79, time=5),\n",
      "  Message('note_on', channel=2, note=73, velocity=0, time=23),\n",
      "  Message('note_on', channel=2, note=71, velocity=80, time=1),\n",
      "  Message('note_on', channel=2, note=71, velocity=0, time=67),\n",
      "  Message('note_on', channel=2, note=74, velocity=81, time=5),\n",
      "  Message('note_on', channel=2, note=74, velocity=0, time=23),\n",
      "  Message('note_on', channel=2, note=69, velocity=82, time=1),\n",
      "  Message('note_on', channel=2, note=69, velocity=0, time=89),\n",
      "  Message('note_on', channel=2, note=73, velocity=80, time=7),\n",
      "  Message('note_on', channel=2, note=73, velocity=0, time=45),\n",
      "  Message('note_on', channel=2, note=71, velocity=80, time=3),\n",
      "  Message('note_on', channel=2, note=71, velocity=0, time=45),\n",
      "  Message('note_on', channel=2, note=69, velocity=79, time=3),\n",
      "  Message('note_on', channel=2, note=69, velocity=0, time=89),\n",
      "  Message('note_on', channel=2, note=69, velocity=78, time=295),\n",
      "  Message('note_on', channel=2, note=69, velocity=0, time=45),\n",
      "  Message('note_on', channel=2, note=68, velocity=78, time=3),\n",
      "  Message('note_on', channel=2, note=68, velocity=0, time=45),\n",
      "  Message('note_on', channel=2, note=66, velocity=78, time=3),\n",
      "  Message('note_on', channel=2, note=66, velocity=0, time=45),\n",
      "  Message('note_on', channel=2, note=64, velocity=78, time=3),\n",
      "  Message('note_on', channel=2, note=64, velocity=0, time=45),\n",
      "  Message('note_on', channel=2, note=69, velocity=78, time=3),\n",
      "  Message('note_on', channel=2, note=69, velocity=0, time=39),\n",
      "  Message('note_on', channel=2, note=71, velocity=79, time=57),\n",
      "  Message('note_on', channel=2, note=71, velocity=0, time=39),\n",
      "  Message('note_on', channel=2, note=73, velocity=96, time=57),\n",
      "  Message('note_on', channel=2, note=73, velocity=0, time=237),\n",
      "  Message('note_on', channel=2, note=76, velocity=81, time=3),\n",
      "  Message('note_on', channel=2, note=76, velocity=0, time=45),\n",
      "  Message('note_on', channel=2, note=74, velocity=80, time=3),\n",
      "  Message('note_on', channel=2, note=74, velocity=0, time=45),\n",
      "  Message('note_on', channel=2, note=71, velocity=79, time=3),\n",
      "  Message('note_on', channel=2, note=71, velocity=0, time=45),\n",
      "  Message('note_on', channel=2, note=69, velocity=78, time=3),\n",
      "  Message('note_on', channel=2, note=69, velocity=0, time=45),\n",
      "  Message('note_on', channel=2, note=68, velocity=78, time=3),\n",
      "  Message('note_on', channel=2, note=68, velocity=0, time=45),\n",
      "  Message('note_on', channel=2, note=66, velocity=78, time=3),\n",
      "  Message('note_on', channel=2, note=66, velocity=0, time=45),\n",
      "  Message('note_on', channel=2, note=64, velocity=78, time=3),\n",
      "  Message('note_on', channel=2, note=64, velocity=0, time=45),\n",
      "  Message('note_on', channel=2, note=69, velocity=78, time=3),\n",
      "  Message('note_on', channel=2, note=69, velocity=0, time=39),\n",
      "  Message('note_on', channel=2, note=71, velocity=78, time=57),\n",
      "  Message('note_on', channel=2, note=71, velocity=0, time=39),\n",
      "  Message('note_on', channel=2, note=74, velocity=95, time=57),\n",
      "  Message('note_on', channel=2, note=74, velocity=0, time=192),\n",
      "  Message('note_on', channel=2, note=73, velocity=82, time=0),\n",
      "  Message('note_on', channel=2, note=73, velocity=0, time=67),\n",
      "  Message('note_on', channel=2, note=74, velocity=80, time=5),\n",
      "  Message('note_on', channel=2, note=74, velocity=0, time=23),\n",
      "  Message('note_on', channel=2, note=71, velocity=80, time=1),\n",
      "  Message('note_on', channel=2, note=71, velocity=0, time=67),\n",
      "  Message('note_on', channel=2, note=73, velocity=78, time=5),\n",
      "  Message('note_on', channel=2, note=73, velocity=0, time=23),\n",
      "  Message('note_on', channel=2, note=69, velocity=78, time=1),\n",
      "  Message('note_on', channel=2, note=69, velocity=0, time=45),\n",
      "  Message('note_on', channel=2, note=68, velocity=78, time=3),\n",
      "  Message('note_on', channel=2, note=68, velocity=0, time=45),\n",
      "  Message('note_on', channel=2, note=66, velocity=78, time=3),\n",
      "  Message('note_on', channel=2, note=66, velocity=0, time=12),\n",
      "  Message('note_on', channel=2, note=67, velocity=78, time=0),\n",
      "  Message('note_on', channel=2, note=67, velocity=0, time=12),\n",
      "  Message('note_on', channel=2, note=66, velocity=78, time=0),\n",
      "  Message('note_on', channel=2, note=66, velocity=0, time=21),\n",
      "  Message('note_on', channel=2, note=64, velocity=78, time=3),\n",
      "  Message('note_on', channel=2, note=64, velocity=0, time=45),\n",
      "  Message('note_on', channel=2, note=69, velocity=78, time=3),\n",
      "  Message('note_on', channel=2, note=69, velocity=0, time=39),\n",
      "  Message('note_on', channel=2, note=71, velocity=78, time=57),\n",
      "  Message('note_on', channel=2, note=71, velocity=0, time=39),\n",
      "  Message('note_on', channel=2, note=73, velocity=95, time=57),\n",
      "  Message('note_on', channel=2, note=73, velocity=0, time=237),\n",
      "  Message('note_on', channel=2, note=76, velocity=81, time=3),\n",
      "  Message('note_on', channel=2, note=76, velocity=0, time=45),\n",
      "  Message('note_on', channel=2, note=74, velocity=81, time=3),\n",
      "  Message('note_on', channel=2, note=74, velocity=0, time=45),\n",
      "  Message('note_on', channel=2, note=71, velocity=81, time=3),\n",
      "  Message('note_on', channel=2, note=71, velocity=0, time=45),\n",
      "  Message('note_on', channel=2, note=69, velocity=82, time=3),\n",
      "  Message('note_on', channel=2, note=69, velocity=0, time=89),\n",
      "  Message('note_on', channel=2, note=57, velocity=73, time=295),\n",
      "  Message('note_on', channel=2, note=57, velocity=0, time=23),\n",
      "  Message('note_on', channel=2, note=56, velocity=73, time=1),\n",
      "  Message('note_on', channel=2, note=56, velocity=0, time=23),\n",
      "  Message('note_on', channel=2, note=57, velocity=73, time=1),\n",
      "  Message('note_on', channel=2, note=57, velocity=0, time=23),\n",
      "  Message('note_on', channel=2, note=56, velocity=73, time=1),\n",
      "  Message('note_on', channel=2, note=56, velocity=0, time=23),\n",
      "  Message('note_on', channel=2, note=57, velocity=73, time=1),\n",
      "  Message('note_on', channel=2, note=57, velocity=0, time=23),\n",
      "  Message('note_on', channel=2, note=56, velocity=73, time=1),\n",
      "  Message('note_on', channel=2, note=56, velocity=0, time=23),\n",
      "  Message('note_on', channel=2, note=57, velocity=73, time=1),\n",
      "  Message('note_on', channel=2, note=57, velocity=0, time=23),\n",
      "  Message('note_on', channel=2, note=56, velocity=73, time=1),\n",
      "  Message('note_on', channel=2, note=56, velocity=0, time=23),\n",
      "  Message('note_on', channel=2, note=57, velocity=74, time=1),\n",
      "  Message('note_on', channel=2, note=57, velocity=0, time=23),\n",
      "  Message('note_on', channel=2, note=59, velocity=74, time=1),\n",
      "  Message('note_on', channel=2, note=59, velocity=0, time=23),\n",
      "  Message('note_on', channel=2, note=61, velocity=74, time=1),\n",
      "  Message('note_on', channel=2, note=61, velocity=0, time=23),\n",
      "  Message('note_on', channel=2, note=62, velocity=74, time=1),\n",
      "  Message('note_on', channel=2, note=62, velocity=0, time=23),\n",
      "  Message('note_on', channel=2, note=64, velocity=74, time=1),\n",
      "  Message('note_on', channel=2, note=64, velocity=0, time=23),\n",
      "  Message('note_on', channel=2, note=66, velocity=74, time=1),\n",
      "  Message('note_on', channel=2, note=66, velocity=0, time=23),\n",
      "  Message('note_on', channel=2, note=68, velocity=74, time=1),\n",
      "  Message('note_on', channel=2, note=68, velocity=0, time=23),\n",
      "  Message('note_on', channel=2, note=69, velocity=75, time=1),\n",
      "  Message('note_on', channel=2, note=69, velocity=0, time=23),\n",
      "  Message('note_on', channel=2, note=69, velocity=75, time=1),\n",
      "  Message('note_on', channel=2, note=69, velocity=0, time=192),\n",
      "  Message('note_on', channel=2, note=67, velocity=76, time=0),\n",
      "  Message('note_on', channel=2, note=67, velocity=0, time=67),\n",
      "  Message('note_on', channel=2, note=66, velocity=76, time=5),\n",
      "  Message('note_on', channel=2, note=66, velocity=0, time=24),\n",
      "  Message('note_on', channel=2, note=64, velocity=76, time=0),\n",
      "  Message('note_on', channel=2, note=64, velocity=0, time=29),\n",
      "  Message('note_on', channel=2, note=62, velocity=77, time=43),\n",
      "  Message('note_on', channel=2, note=62, velocity=0, time=23),\n",
      "  Message('note_on', channel=2, note=61, velocity=77, time=1),\n",
      "  Message('note_on', channel=2, note=61, velocity=0, time=23),\n",
      "  Message('note_on', channel=2, note=60, velocity=77, time=1),\n",
      "  Message('note_on', channel=2, note=60, velocity=0, time=23),\n",
      "  Message('note_on', channel=2, note=61, velocity=77, time=1),\n",
      "  Message('note_on', channel=2, note=61, velocity=0, time=23),\n",
      "  Message('note_on', channel=2, note=60, velocity=78, time=1),\n",
      "  Message('note_on', channel=2, note=60, velocity=0, time=23),\n",
      "  Message('note_on', channel=2, note=61, velocity=78, time=1),\n",
      "  Message('note_on', channel=2, note=61, velocity=0, time=23),\n",
      "  Message('note_on', channel=2, note=60, velocity=78, time=1),\n",
      "  Message('note_on', channel=2, note=60, velocity=0, time=23),\n",
      "  Message('note_on', channel=2, note=61, velocity=78, time=1),\n",
      "  Message('note_on', channel=2, note=61, velocity=0, time=23),\n",
      "  Message('note_on', channel=2, note=60, velocity=78, time=1),\n",
      "  Message('note_on', channel=2, note=60, velocity=0, time=23),\n",
      "  Message('note_on', channel=2, note=61, velocity=78, time=1),\n",
      "  Message('note_on', channel=2, note=61, velocity=0, time=23),\n",
      "  Message('note_on', channel=2, note=62, velocity=78, time=1),\n",
      "  Message('note_on', channel=2, note=62, velocity=0, time=23),\n",
      "  Message('note_on', channel=2, note=64, velocity=79, time=1),\n",
      "  Message('note_on', channel=2, note=64, velocity=0, time=23),\n",
      "  Message('note_on', channel=2, note=66, velocity=79, time=1),\n",
      "  Message('note_on', channel=2, note=66, velocity=0, time=23),\n",
      "  Message('note_on', channel=2, note=67, velocity=79, time=1),\n",
      "  Message('note_on', channel=2, note=67, velocity=0, time=23),\n",
      "  Message('note_on', channel=2, note=69, velocity=79, time=1),\n",
      "  Message('note_on', channel=2, note=69, velocity=0, time=23),\n",
      "  Message('note_on', channel=2, note=71, velocity=79, time=1),\n",
      "  Message('note_on', channel=2, note=71, velocity=0, time=23),\n",
      "  Message('note_on', channel=2, note=73, velocity=79, time=1),\n",
      "  Message('note_on', channel=2, note=73, velocity=0, time=23),\n",
      "  Message('note_on', channel=2, note=73, velocity=79, time=1),\n",
      "  Message('note_on', channel=2, note=73, velocity=0, time=192),\n",
      "  Message('note_on', channel=2, note=71, velocity=81, time=0),\n",
      "  Message('note_on', channel=2, note=71, velocity=0, time=67),\n",
      "  Message('note_on', channel=2, note=69, velocity=81, time=5),\n",
      "  Message('note_on', channel=2, note=69, velocity=0, time=24),\n",
      "  Message('note_on', channel=2, note=67, velocity=81, time=0),\n",
      "  Message('note_on', channel=2, note=67, velocity=0, time=29),\n",
      "  Message('note_on', channel=2, note=66, velocity=82, time=43),\n",
      "  Message('note_on', channel=2, note=66, velocity=0, time=23),\n",
      "  Message('note_on', channel=2, note=64, velocity=82, time=1),\n",
      "  Message('note_on', channel=2, note=64, velocity=0, time=23),\n",
      "  Message('note_on', channel=2, note=63, velocity=82, time=1),\n",
      "  Message('note_on', channel=2, note=63, velocity=0, time=23),\n",
      "  Message('note_on', channel=2, note=64, velocity=82, time=1),\n",
      "  Message('note_on', channel=2, note=64, velocity=0, time=23),\n",
      "  Message('note_on', channel=2, note=63, velocity=82, time=1),\n",
      "  Message('note_on', channel=2, note=63, velocity=0, time=23),\n",
      "  Message('note_on', channel=2, note=64, velocity=82, time=1),\n",
      "  Message('note_on', channel=2, note=64, velocity=0, time=23),\n",
      "  Message('note_on', channel=2, note=63, velocity=83, time=1),\n",
      "  Message('note_on', channel=2, note=63, velocity=0, time=23),\n",
      "  Message('note_on', channel=2, note=64, velocity=83, time=1),\n",
      "  Message('note_on', channel=2, note=64, velocity=0, time=23),\n",
      "  Message('note_on', channel=2, note=63, velocity=83, time=1),\n",
      "  Message('note_on', channel=2, note=63, velocity=0, time=23),\n",
      "  Message('note_on', channel=2, note=64, velocity=83, time=1),\n",
      "  Message('note_on', channel=2, note=64, velocity=0, time=23),\n",
      "  Message('note_on', channel=2, note=66, velocity=83, time=1),\n",
      "  Message('note_on', channel=2, note=66, velocity=0, time=23),\n",
      "  Message('note_on', channel=2, note=67, velocity=83, time=1),\n",
      "  Message('note_on', channel=2, note=67, velocity=0, time=23),\n",
      "  Message('note_on', channel=2, note=69, velocity=83, time=1),\n",
      "  Message('note_on', channel=2, note=69, velocity=0, time=23),\n",
      "  Message('note_on', channel=2, note=71, velocity=84, time=1),\n",
      "  Message('note_on', channel=2, note=71, velocity=0, time=23),\n",
      "  Message('note_on', channel=2, note=73, velocity=84, time=1),\n",
      "  Message('note_on', channel=2, note=73, velocity=0, time=23),\n",
      "  Message('note_on', channel=2, note=74, velocity=84, time=1),\n",
      "  Message('note_on', channel=2, note=74, velocity=0, time=23),\n",
      "  Message('note_on', channel=2, note=76, velocity=84, time=1),\n",
      "  Message('note_on', channel=2, note=76, velocity=0, time=23),\n",
      "  Message('note_on', channel=2, note=76, velocity=84, time=1),\n",
      "  Message('note_on', channel=2, note=76, velocity=0, time=192),\n",
      "  Message('note_on', channel=2, note=74, velocity=85, time=0),\n",
      "  Message('note_on', channel=2, note=74, velocity=0, time=67),\n",
      "  Message('note_on', channel=2, note=73, velocity=86, time=5),\n",
      "  Message('note_on', channel=2, note=73, velocity=0, time=24),\n",
      "  Message('note_on', channel=2, note=71, velocity=86, time=0),\n",
      "  Message('note_on', channel=2, note=71, velocity=0, time=29),\n",
      "  Message('note_on', channel=2, note=69, velocity=86, time=43),\n",
      "  Message('note_on', channel=2, note=69, velocity=0, time=23),\n",
      "  Message('note_on', channel=2, note=68, velocity=87, time=1),\n",
      "  Message('note_on', channel=2, note=68, velocity=0, time=23),\n",
      "  Message('note_on', channel=2, note=67, velocity=87, time=1),\n",
      "  Message('note_on', channel=2, note=67, velocity=0, time=23),\n",
      "  Message('note_on', channel=2, note=68, velocity=87, time=1),\n",
      "  Message('note_on', channel=2, note=68, velocity=0, time=23),\n",
      "  Message('note_on', channel=2, note=67, velocity=87, time=1),\n",
      "  Message('note_on', channel=2, note=67, velocity=0, time=23),\n",
      "  Message('note_on', channel=2, note=68, velocity=87, time=1),\n",
      "  Message('note_on', channel=2, note=68, velocity=0, time=23),\n",
      "  Message('note_on', channel=2, note=67, velocity=87, time=1),\n",
      "  Message('note_on', channel=2, note=67, velocity=0, time=23),\n",
      "  Message('note_on', channel=2, note=68, velocity=87, time=1),\n",
      "  Message('note_on', channel=2, note=68, velocity=0, time=23),\n",
      "  Message('note_on', channel=2, note=67, velocity=87, time=1),\n",
      "  Message('note_on', channel=2, note=67, velocity=0, time=23),\n",
      "  Message('note_on', channel=2, note=68, velocity=87, time=1),\n",
      "  Message('note_on', channel=2, note=68, velocity=0, time=23),\n",
      "  Message('note_on', channel=2, note=69, velocity=87, time=1),\n",
      "  Message('note_on', channel=2, note=69, velocity=0, time=23),\n",
      "  Message('note_on', channel=2, note=71, velocity=87, time=1),\n",
      "  Message('note_on', channel=2, note=71, velocity=0, time=23),\n",
      "  Message('note_on', channel=2, note=73, velocity=87, time=1),\n",
      "  Message('note_on', channel=2, note=73, velocity=0, time=23),\n",
      "  Message('note_on', channel=2, note=74, velocity=87, time=1),\n",
      "  Message('note_on', channel=2, note=74, velocity=0, time=23),\n",
      "  Message('note_on', channel=2, note=76, velocity=87, time=1),\n",
      "  Message('note_on', channel=2, note=76, velocity=0, time=23),\n",
      "  Message('note_on', channel=2, note=78, velocity=87, time=1),\n",
      "  Message('note_on', channel=2, note=78, velocity=0, time=23),\n",
      "  Message('note_on', channel=2, note=80, velocity=87, time=1),\n",
      "  Message('note_on', channel=2, note=80, velocity=0, time=23),\n",
      "  Message('note_on', channel=2, note=81, velocity=87, time=1),\n",
      "  Message('note_on', channel=2, note=81, velocity=0, time=45),\n",
      "  Message('note_on', channel=2, note=81, velocity=87, time=3),\n",
      "  Message('note_on', channel=2, note=76, velocity=87, time=0),\n",
      "  Message('note_on', channel=2, note=73, velocity=87, time=0),\n",
      "  Message('note_on', channel=2, note=69, velocity=87, time=0),\n",
      "  Message('note_on', channel=2, note=81, velocity=0, time=89),\n",
      "  Message('note_on', channel=2, note=76, velocity=0, time=0),\n",
      "  Message('note_on', channel=2, note=73, velocity=0, time=0),\n",
      "  Message('note_on', channel=2, note=69, velocity=0, time=0),\n",
      "  Message('note_on', channel=2, note=81, velocity=87, time=7),\n",
      "  Message('note_on', channel=2, note=76, velocity=87, time=0),\n",
      "  Message('note_on', channel=2, note=73, velocity=87, time=0),\n",
      "  Message('note_on', channel=2, note=69, velocity=87, time=0),\n",
      "  Message('note_on', channel=2, note=81, velocity=0, time=89),\n",
      "  Message('note_on', channel=2, note=76, velocity=0, time=0),\n",
      "  Message('note_on', channel=2, note=73, velocity=0, time=0),\n",
      "  Message('note_on', channel=2, note=69, velocity=0, time=0),\n",
      "  Message('note_on', channel=2, note=81, velocity=87, time=7),\n",
      "  Message('note_on', channel=2, note=76, velocity=87, time=0),\n",
      "  Message('note_on', channel=2, note=73, velocity=87, time=0),\n",
      "  Message('note_on', channel=2, note=69, velocity=87, time=0),\n",
      "  Message('note_on', channel=2, note=81, velocity=0, time=89),\n",
      "  Message('note_on', channel=2, note=76, velocity=0, time=0),\n",
      "  Message('note_on', channel=2, note=73, velocity=0, time=0),\n",
      "  Message('note_on', channel=2, note=69, velocity=0, time=0),\n",
      "  Message('note_on', channel=2, note=81, velocity=87, time=7),\n",
      "  Message('note_on', channel=2, note=76, velocity=87, time=0),\n",
      "  Message('note_on', channel=2, note=73, velocity=87, time=0),\n",
      "  Message('note_on', channel=2, note=69, velocity=87, time=0),\n",
      "  Message('note_on', channel=2, note=76, velocity=0, time=48),\n",
      "  Message('note_on', channel=2, note=78, velocity=87, time=0),\n",
      "  Message('note_on', channel=2, note=81, velocity=0, time=45),\n",
      "  Message('note_on', channel=2, note=78, velocity=0, time=0),\n",
      "  Message('note_on', channel=2, note=73, velocity=0, time=0),\n",
      "  Message('note_on', channel=2, note=69, velocity=0, time=0),\n",
      "  Message('note_on', channel=2, note=85, velocity=87, time=3),\n",
      "  Message('note_on', channel=2, note=81, velocity=87, time=0),\n",
      "  Message('note_on', channel=2, note=78, velocity=87, time=0),\n",
      "  Message('note_on', channel=2, note=73, velocity=87, time=0),\n",
      "  Message('note_on', channel=2, note=85, velocity=0, time=89),\n",
      "  Message('note_on', channel=2, note=81, velocity=0, time=0),\n",
      "  Message('note_on', channel=2, note=78, velocity=0, time=0),\n",
      "  Message('note_on', channel=2, note=73, velocity=0, time=0),\n",
      "  Message('note_on', channel=2, note=85, velocity=87, time=7),\n",
      "  Message('note_on', channel=2, note=81, velocity=87, time=0),\n",
      "  Message('note_on', channel=2, note=78, velocity=87, time=0),\n",
      "  Message('note_on', channel=2, note=73, velocity=87, time=0),\n",
      "  Message('note_on', channel=2, note=85, velocity=0, time=89),\n",
      "  Message('note_on', channel=2, note=81, velocity=0, time=0),\n",
      "  Message('note_on', channel=2, note=78, velocity=0, time=0),\n",
      "  Message('note_on', channel=2, note=73, velocity=0, time=0),\n",
      "  Message('note_on', channel=2, note=85, velocity=87, time=7),\n",
      "  Message('note_on', channel=2, note=81, velocity=87, time=0),\n",
      "  Message('note_on', channel=2, note=78, velocity=87, time=0),\n",
      "  Message('note_on', channel=2, note=73, velocity=87, time=0),\n",
      "  Message('note_on', channel=2, note=85, velocity=0, time=89),\n",
      "  Message('note_on', channel=2, note=81, velocity=0, time=0),\n",
      "  Message('note_on', channel=2, note=78, velocity=0, time=0),\n",
      "  Message('note_on', channel=2, note=73, velocity=0, time=0),\n",
      "  Message('note_on', channel=2, note=85, velocity=87, time=7),\n",
      "  Message('note_on', channel=2, note=81, velocity=87, time=0),\n",
      "  Message('note_on', channel=2, note=78, velocity=87, time=0),\n",
      "  Message('note_on', channel=2, note=73, velocity=87, time=0),\n",
      "  Message('note_on', channel=2, note=85, velocity=0, time=48),\n",
      "  Message('note_on', channel=2, note=73, velocity=0, time=0),\n",
      "  Message('note_on', channel=2, note=86, velocity=87, time=0),\n",
      "  Message('note_on', channel=2, note=74, velocity=87, time=0),\n",
      "  Message('note_on', channel=2, note=86, velocity=0, time=45),\n",
      "  Message('note_on', channel=2, note=81, velocity=0, time=0),\n",
      "  Message('note_on', channel=2, note=78, velocity=0, time=0),\n",
      "  Message('note_on', channel=2, note=74, velocity=0, time=0),\n",
      "  Message('note_on', channel=2, note=86, velocity=87, time=3),\n",
      "  Message('note_on', channel=2, note=81, velocity=87, time=0),\n",
      "  Message('note_on', channel=2, note=78, velocity=87, time=0),\n",
      "  Message('note_on', channel=2, note=74, velocity=87, time=0),\n",
      "  Message('note_on', channel=2, note=86, velocity=0, time=89),\n",
      "  Message('note_on', channel=2, note=81, velocity=0, time=0),\n",
      "  Message('note_on', channel=2, note=78, velocity=0, time=0),\n",
      "  Message('note_on', channel=2, note=74, velocity=0, time=0),\n",
      "  Message('note_on', channel=2, note=86, velocity=87, time=7),\n",
      "  Message('note_on', channel=2, note=81, velocity=87, time=0),\n",
      "  Message('note_on', channel=2, note=78, velocity=87, time=0),\n",
      "  Message('note_on', channel=2, note=74, velocity=87, time=0),\n",
      "  Message('note_on', channel=2, note=86, velocity=0, time=89),\n",
      "  Message('note_on', channel=2, note=81, velocity=0, time=0),\n",
      "  Message('note_on', channel=2, note=78, velocity=0, time=0),\n",
      "  Message('note_on', channel=2, note=74, velocity=0, time=0),\n",
      "  Message('note_on', channel=2, note=86, velocity=87, time=7),\n",
      "  Message('note_on', channel=2, note=81, velocity=87, time=0),\n",
      "  Message('note_on', channel=2, note=78, velocity=87, time=0),\n",
      "  Message('note_on', channel=2, note=74, velocity=87, time=0),\n",
      "  Message('note_on', channel=2, note=86, velocity=0, time=89),\n",
      "  Message('note_on', channel=2, note=81, velocity=0, time=0),\n",
      "  Message('note_on', channel=2, note=78, velocity=0, time=0),\n",
      "  Message('note_on', channel=2, note=74, velocity=0, time=0),\n",
      "  Message('note_on', channel=2, note=86, velocity=87, time=7),\n",
      "  Message('note_on', channel=2, note=81, velocity=87, time=0),\n",
      "  Message('note_on', channel=2, note=78, velocity=87, time=0),\n",
      "  Message('note_on', channel=2, note=74, velocity=87, time=0),\n",
      "  Message('note_on', channel=2, note=86, velocity=0, time=45),\n",
      "  Message('note_on', channel=2, note=81, velocity=0, time=0),\n",
      "  Message('note_on', channel=2, note=78, velocity=0, time=0),\n",
      "  Message('note_on', channel=2, note=74, velocity=0, time=0),\n",
      "  Message('note_on', channel=2, note=86, velocity=87, time=3),\n",
      "  Message('note_on', channel=2, note=83, velocity=87, time=0),\n",
      "  Message('note_on', channel=2, note=78, velocity=87, time=0),\n",
      "  Message('note_on', channel=2, note=74, velocity=87, time=0),\n",
      "  Message('note_on', channel=2, note=86, velocity=0, time=45),\n",
      "  Message('note_on', channel=2, note=83, velocity=0, time=0),\n",
      "  Message('note_on', channel=2, note=78, velocity=0, time=0),\n",
      "  Message('note_on', channel=2, note=74, velocity=0, time=0),\n",
      "  Message('note_on', channel=2, note=86, velocity=87, time=3),\n",
      "  Message('note_on', channel=2, note=83, velocity=87, time=0),\n",
      "  Message('note_on', channel=2, note=78, velocity=87, time=0),\n",
      "  Message('note_on', channel=2, note=74, velocity=87, time=0),\n",
      "  Message('note_on', channel=2, note=86, velocity=0, time=89),\n",
      "  Message('note_on', channel=2, note=83, velocity=0, time=0),\n",
      "  Message('note_on', channel=2, note=78, velocity=0, time=0),\n",
      "  Message('note_on', channel=2, note=74, velocity=0, time=0),\n",
      "  Message('note_on', channel=2, note=86, velocity=87, time=7),\n",
      "  Message('note_on', channel=2, note=83, velocity=87, time=0),\n",
      "  Message('note_on', channel=2, note=78, velocity=87, time=0),\n",
      "  Message('note_on', channel=2, note=74, velocity=87, time=0),\n",
      "  Message('note_on', channel=2, note=86, velocity=0, time=89),\n",
      "  Message('note_on', channel=2, note=83, velocity=0, time=0),\n",
      "  Message('note_on', channel=2, note=78, velocity=0, time=0),\n",
      "  Message('note_on', channel=2, note=74, velocity=0, time=0),\n",
      "  Message('note_on', channel=2, note=86, velocity=87, time=7),\n",
      "  Message('note_on', channel=2, note=83, velocity=87, time=0),\n",
      "  Message('note_on', channel=2, note=78, velocity=87, time=0),\n",
      "  Message('note_on', channel=2, note=74, velocity=87, time=0),\n",
      "  Message('note_on', channel=2, note=86, velocity=0, time=89),\n",
      "  Message('note_on', channel=2, note=83, velocity=0, time=0),\n",
      "  Message('note_on', channel=2, note=78, velocity=0, time=0),\n",
      "  Message('note_on', channel=2, note=74, velocity=0, time=0),\n",
      "  Message('note_on', channel=2, note=86, velocity=87, time=7),\n",
      "  Message('note_on', channel=2, note=83, velocity=87, time=0),\n",
      "  Message('note_on', channel=2, note=78, velocity=87, time=0),\n",
      "  Message('note_on', channel=2, note=74, velocity=87, time=0),\n",
      "  Message('note_on', channel=2, note=86, velocity=0, time=45),\n",
      "  Message('note_on', channel=2, note=83, velocity=0, time=0),\n",
      "  Message('note_on', channel=2, note=78, velocity=0, time=0),\n",
      "  Message('note_on', channel=2, note=74, velocity=0, time=0),\n",
      "  Message('note_on', channel=2, note=86, velocity=87, time=3),\n",
      "  Message('note_on', channel=2, note=83, velocity=87, time=0),\n",
      "  Message('note_on', channel=2, note=76, velocity=87, time=0),\n",
      "  Message('note_on', channel=2, note=86, velocity=0, time=89),\n",
      "  Message('note_on', channel=2, note=83, velocity=0, time=0),\n",
      "  Message('note_on', channel=2, note=76, velocity=0, time=0),\n",
      "  Message('note_on', channel=2, note=85, velocity=87, time=103),\n",
      "  Message('note_on', channel=2, note=81, velocity=87, time=0),\n",
      "  Message('note_on', channel=2, note=76, velocity=87, time=0),\n",
      "  Message('note_on', channel=2, note=85, velocity=0, time=89),\n",
      "  Message('note_on', channel=2, note=81, velocity=0, time=0),\n",
      "  Message('note_on', channel=2, note=76, velocity=0, time=0),\n",
      "  Message('note_on', channel=2, note=85, velocity=87, time=103),\n",
      "  Message('note_on', channel=2, note=81, velocity=87, time=0),\n",
      "  Message('note_on', channel=2, note=74, velocity=87, time=0),\n",
      "  Message('note_on', channel=2, note=85, velocity=0, time=89),\n",
      "  Message('note_on', channel=2, note=81, velocity=0, time=0),\n",
      "  Message('note_on', channel=2, note=74, velocity=0, time=0),\n",
      "  Message('note_on', channel=2, note=83, velocity=87, time=103),\n",
      "  Message('note_on', channel=2, note=76, velocity=87, time=0),\n",
      "  Message('note_on', channel=2, note=74, velocity=87, time=0),\n",
      "  Message('note_on', channel=2, note=83, velocity=0, time=89),\n",
      "  Message('note_on', channel=2, note=76, velocity=0, time=0),\n",
      "  Message('note_on', channel=2, note=74, velocity=0, time=0),\n",
      "  Message('note_on', channel=2, note=83, velocity=87, time=103),\n",
      "  Message('note_on', channel=2, note=76, velocity=87, time=0),\n",
      "  Message('note_on', channel=2, note=73, velocity=87, time=0),\n",
      "  Message('note_on', channel=2, note=83, velocity=0, time=89),\n",
      "  Message('note_on', channel=2, note=76, velocity=0, time=0),\n",
      "  Message('note_on', channel=2, note=73, velocity=0, time=0),\n",
      "  Message('note_on', channel=2, note=81, velocity=87, time=103),\n",
      "  Message('note_on', channel=2, note=78, velocity=87, time=0),\n",
      "  Message('note_on', channel=2, note=73, velocity=87, time=0),\n",
      "  Message('note_on', channel=2, note=81, velocity=0, time=89),\n",
      "  Message('note_on', channel=2, note=78, velocity=0, time=0),\n",
      "  Message('note_on', channel=2, note=73, velocity=0, time=0),\n",
      "  Message('note_on', channel=2, note=81, velocity=87, time=103),\n",
      "  Message('note_on', channel=2, note=78, velocity=87, time=0),\n",
      "  Message('note_on', channel=2, note=71, velocity=87, time=0),\n",
      "  Message('note_on', channel=2, note=81, velocity=0, time=89),\n",
      "  Message('note_on', channel=2, note=78, velocity=0, time=0),\n",
      "  Message('note_on', channel=2, note=71, velocity=0, time=0),\n",
      "  Message('note_on', channel=2, note=80, velocity=87, time=103),\n",
      "  Message('note_on', channel=2, note=76, velocity=87, time=0),\n",
      "  Message('note_on', channel=2, note=71, velocity=87, time=0),\n",
      "  Message('note_on', channel=2, note=80, velocity=0, time=89),\n",
      "  Message('note_on', channel=2, note=76, velocity=0, time=0),\n",
      "  Message('note_on', channel=2, note=71, velocity=0, time=0),\n",
      "  Message('note_on', channel=2, note=81, velocity=87, time=103),\n",
      "  Message('note_on', channel=2, note=76, velocity=87, time=0),\n",
      "  Message('note_on', channel=2, note=73, velocity=87, time=0),\n",
      "  Message('note_on', channel=2, note=69, velocity=87, time=0),\n",
      "  Message('note_on', channel=2, note=81, velocity=0, time=89),\n",
      "  Message('note_on', channel=2, note=76, velocity=0, time=0),\n",
      "  Message('note_on', channel=2, note=73, velocity=0, time=0),\n",
      "  Message('note_on', channel=2, note=69, velocity=0, time=0),\n",
      "  Message('note_on', channel=2, note=81, velocity=73, time=199),\n",
      "  Message('note_on', channel=2, note=81, velocity=0, time=20),\n",
      "  Message('note_on', channel=2, note=79, velocity=73, time=28),\n",
      "  Message('note_on', channel=2, note=79, velocity=0, time=20),\n",
      "  Message('note_on', channel=2, note=78, velocity=73, time=28),\n",
      "  Message('note_on', channel=2, note=78, velocity=0, time=23),\n",
      "  Message('note_on', channel=2, note=79, velocity=73, time=1),\n",
      "  Message('note_on', channel=2, note=79, velocity=0, time=23),\n",
      "  Message('note_on', channel=2, note=78, velocity=73, time=1),\n",
      "  Message('note_on', channel=2, note=78, velocity=0, time=23),\n",
      "  Message('note_on', channel=2, note=77, velocity=73, time=1),\n",
      "  Message('note_on', channel=2, note=77, velocity=0, time=23),\n",
      "  Message('note_on', channel=2, note=78, velocity=73, time=1),\n",
      "  Message('note_on', channel=2, note=78, velocity=0, time=23),\n",
      "  Message('note_on', channel=2, note=79, velocity=73, time=1),\n",
      "  Message('note_on', channel=2, note=79, velocity=0, time=23),\n",
      "  Message('note_on', channel=2, note=76, velocity=73, time=1),\n",
      "  Message('note_on', channel=2, note=76, velocity=0, time=23),\n",
      "  Message('note_on', channel=2, note=78, velocity=73, time=1),\n",
      "  Message('note_on', channel=2, note=78, velocity=0, time=23),\n",
      "  Message('note_on', channel=2, note=74, velocity=73, time=1),\n",
      "  Message('note_on', channel=2, note=74, velocity=0, time=23),\n",
      "  Message('note_on', channel=2, note=76, velocity=73, time=1),\n",
      "  Message('note_on', channel=2, note=76, velocity=0, time=23),\n",
      "  Message('note_on', channel=2, note=73, velocity=73, time=1),\n",
      "  Message('note_on', channel=2, note=73, velocity=0, time=23),\n",
      "  Message('note_on', channel=2, note=74, velocity=73, time=1),\n",
      "  Message('note_on', channel=2, note=74, velocity=0, time=23),\n",
      "  Message('note_on', channel=2, note=71, velocity=73, time=1),\n",
      "  Message('note_on', channel=2, note=71, velocity=0, time=23),\n",
      "  Message('note_on', channel=2, note=73, velocity=73, time=1),\n",
      "  Message('note_on', channel=2, note=73, velocity=0, time=23),\n",
      "  Message('note_on', channel=2, note=74, velocity=73, time=1),\n",
      "  Message('note_on', channel=2, note=74, velocity=0, time=23),\n",
      "  Message('note_on', channel=2, note=75, velocity=73, time=1),\n",
      "  Message('note_on', channel=2, note=75, velocity=0, time=23),\n",
      "  Message('note_on', channel=2, note=76, velocity=73, time=1),\n",
      "  Message('note_on', channel=2, note=76, velocity=0, time=23),\n",
      "  Message('note_on', channel=2, note=78, velocity=74, time=1),\n",
      "  Message('note_on', channel=2, note=78, velocity=0, time=23),\n",
      "  Message('note_on', channel=2, note=76, velocity=74, time=1),\n",
      "  Message('note_on', channel=2, note=76, velocity=0, time=23),\n",
      "  Message('note_on', channel=2, note=75, velocity=74, time=1),\n",
      "  Message('note_on', channel=2, note=75, velocity=0, time=23),\n",
      "  Message('note_on', channel=2, note=76, velocity=74, time=1),\n",
      "  Message('note_on', channel=2, note=76, velocity=0, time=23),\n",
      "  Message('note_on', channel=2, note=78, velocity=74, time=1),\n",
      "  Message('note_on', channel=2, note=78, velocity=0, time=23),\n",
      "  Message('note_on', channel=2, note=74, velocity=74, time=1),\n",
      "  Message('note_on', channel=2, note=74, velocity=0, time=23),\n",
      "  Message('note_on', channel=2, note=76, velocity=75, time=1),\n",
      "  Message('note_on', channel=2, note=76, velocity=0, time=23),\n",
      "  Message('note_on', channel=2, note=73, velocity=75, time=1),\n",
      "  Message('note_on', channel=2, note=73, velocity=0, time=23),\n",
      "  Message('note_on', channel=2, note=74, velocity=75, time=1),\n",
      "  Message('note_on', channel=2, note=74, velocity=0, time=23),\n",
      "  Message('note_on', channel=2, note=71, velocity=75, time=1),\n",
      "  Message('note_on', channel=2, note=71, velocity=0, time=23),\n",
      "  Message('note_on', channel=2, note=73, velocity=75, time=1),\n",
      "  Message('note_on', channel=2, note=73, velocity=0, time=23),\n",
      "  Message('note_on', channel=2, note=69, velocity=75, time=1),\n",
      "  Message('note_on', channel=2, note=69, velocity=0, time=23),\n",
      "  Message('note_on', channel=2, note=71, velocity=76, time=1),\n",
      "  Message('note_on', channel=2, note=71, velocity=0, time=23),\n",
      "  Message('note_on', channel=2, note=73, velocity=76, time=1),\n",
      "  Message('note_on', channel=2, note=73, velocity=0, time=23),\n",
      "  Message('note_on', channel=2, note=69, velocity=76, time=1),\n",
      "  Message('note_on', channel=2, note=69, velocity=0, time=23),\n",
      "  Message('note_on', channel=2, note=74, velocity=76, time=1),\n",
      "  Message('note_on', channel=2, note=74, velocity=0, time=23),\n",
      "  Message('note_on', channel=2, note=76, velocity=76, time=1),\n",
      "  Message('note_on', channel=2, note=76, velocity=0, time=23),\n",
      "  Message('note_on', channel=2, note=74, velocity=76, time=1),\n",
      "  Message('note_on', channel=2, note=74, velocity=0, time=23),\n",
      "  Message('note_on', channel=2, note=73, velocity=77, time=1),\n",
      "  Message('note_on', channel=2, note=73, velocity=0, time=23),\n",
      "  Message('note_on', channel=2, note=74, velocity=77, time=1),\n",
      "  Message('note_on', channel=2, note=74, velocity=0, time=23),\n",
      "  Message('note_on', channel=2, note=76, velocity=77, time=1),\n",
      "  Message('note_on', channel=2, note=76, velocity=0, time=23),\n",
      "  Message('note_on', channel=2, note=73, velocity=77, time=1),\n",
      "  Message('note_on', channel=2, note=73, velocity=0, time=23),\n",
      "  Message('note_on', channel=2, note=74, velocity=77, time=1),\n",
      "  Message('note_on', channel=2, note=74, velocity=0, time=23),\n",
      "  Message('note_on', channel=2, note=71, velocity=77, time=1),\n",
      "  Message('note_on', channel=2, note=71, velocity=0, time=23),\n",
      "  Message('note_on', channel=2, note=73, velocity=78, time=1),\n",
      "  Message('note_on', channel=2, note=73, velocity=0, time=23),\n",
      "  Message('note_on', channel=2, note=70, velocity=78, time=1),\n",
      "  Message('note_on', channel=2, note=70, velocity=0, time=23),\n",
      "  Message('note_on', channel=2, note=71, velocity=78, time=1),\n",
      "  Message('note_on', channel=2, note=71, velocity=0, time=23),\n",
      "  Message('note_on', channel=2, note=68, velocity=78, time=1),\n",
      "  Message('note_on', channel=2, note=68, velocity=0, time=23),\n",
      "  Message('note_on', channel=2, note=69, velocity=78, time=1),\n",
      "  Message('note_on', channel=2, note=69, velocity=0, time=23),\n",
      "  Message('note_on', channel=2, note=71, velocity=78, time=1),\n",
      "  Message('note_on', channel=2, note=71, velocity=0, time=23),\n",
      "  Message('note_on', channel=2, note=72, velocity=79, time=1),\n",
      "  Message('note_on', channel=2, note=72, velocity=0, time=23),\n",
      "  Message('note_on', channel=2, note=73, velocity=79, time=1),\n",
      "  Message('note_on', channel=2, note=73, velocity=0, time=23),\n",
      "  Message('note_on', channel=2, note=74, velocity=79, time=1),\n",
      "  Message('note_on', channel=2, note=74, velocity=0, time=23),\n",
      "  Message('note_on', channel=2, note=73, velocity=79, time=1),\n",
      "  Message('note_on', channel=2, note=73, velocity=0, time=23),\n",
      "  Message('note_on', channel=2, note=72, velocity=79, time=1),\n",
      "  Message('note_on', channel=2, note=72, velocity=0, time=23),\n",
      "  Message('note_on', channel=2, note=73, velocity=79, time=1),\n",
      "  Message('note_on', channel=2, note=73, velocity=0, time=23),\n",
      "  Message('note_on', channel=2, note=74, velocity=80, time=1),\n",
      "  Message('note_on', channel=2, note=74, velocity=0, time=23),\n",
      "  Message('note_on', channel=2, note=71, velocity=80, time=1),\n",
      "  Message('note_on', channel=2, note=71, velocity=0, time=23),\n",
      "  Message('note_on', channel=2, note=73, velocity=80, time=1),\n",
      "  Message('note_on', channel=2, note=73, velocity=0, time=23),\n",
      "  Message('note_on', channel=2, note=69, velocity=80, time=1),\n",
      "  Message('note_on', channel=2, note=69, velocity=0, time=23),\n",
      "  Message('note_on', channel=2, note=71, velocity=80, time=1),\n",
      "  Message('note_on', channel=2, note=71, velocity=0, time=23),\n",
      "  Message('note_on', channel=2, note=68, velocity=80, time=1),\n",
      "  Message('note_on', channel=2, note=68, velocity=0, time=23),\n",
      "  Message('note_on', channel=2, note=69, velocity=81, time=1),\n",
      "  Message('note_on', channel=2, note=69, velocity=0, time=23),\n",
      "  Message('note_on', channel=2, note=66, velocity=81, time=1),\n",
      "  Message('note_on', channel=2, note=66, velocity=0, time=23),\n",
      "  Message('note_on', channel=2, note=64, velocity=81, time=1),\n",
      "  Message('note_on', channel=2, note=64, velocity=0, time=23),\n",
      "  Message('note_on', channel=2, note=62, velocity=81, time=1),\n",
      "  Message('note_on', channel=2, note=62, velocity=0, time=23),\n",
      "  Message('note_on', channel=2, note=61, velocity=81, time=1),\n",
      "  Message('note_on', channel=2, note=61, velocity=0, time=23),\n",
      "  Message('note_on', channel=2, note=59, velocity=81, time=1),\n",
      "  Message('note_on', channel=2, note=59, velocity=0, time=23),\n",
      "  Message('note_on', channel=2, note=62, velocity=82, time=1),\n",
      "  Message('note_on', channel=2, note=62, velocity=0, time=23),\n",
      "  Message('note_on', channel=2, note=66, velocity=82, time=1),\n",
      "  Message('note_on', channel=2, note=66, velocity=0, time=23),\n",
      "  Message('note_on', channel=2, note=62, velocity=82, time=1),\n",
      "  Message('note_on', channel=2, note=62, velocity=0, time=23),\n",
      "  Message('note_on', channel=2, note=69, velocity=82, time=1),\n",
      "  Message('note_on', channel=2, note=69, velocity=0, time=23),\n",
      "  Message('note_on', channel=2, note=66, velocity=82, time=1),\n",
      "  Message('note_on', channel=2, note=66, velocity=0, time=23),\n",
      "  Message('note_on', channel=2, note=62, velocity=82, time=1),\n",
      "  Message('note_on', channel=2, note=62, velocity=0, time=23),\n",
      "  Message('note_on', channel=2, note=66, velocity=83, time=1),\n",
      "  Message('note_on', channel=2, note=66, velocity=0, time=23),\n",
      "  Message('note_on', channel=2, note=59, velocity=83, time=1),\n",
      "  Message('note_on', channel=2, note=59, velocity=0, time=23),\n",
      "  Message('note_on', channel=2, note=62, velocity=83, time=1),\n",
      "  Message('note_on', channel=2, note=62, velocity=0, time=23),\n",
      "  Message('note_on', channel=2, note=66, velocity=83, time=1),\n",
      "  Message('note_on', channel=2, note=66, velocity=0, time=23),\n",
      "  Message('note_on', channel=2, note=62, velocity=83, time=1),\n",
      "  Message('note_on', channel=2, note=62, velocity=0, time=23),\n",
      "  Message('note_on', channel=2, note=69, velocity=83, time=1),\n",
      "  Message('note_on', channel=2, note=69, velocity=0, time=23),\n",
      "  Message('note_on', channel=2, note=66, velocity=84, time=1),\n",
      "  Message('note_on', channel=2, note=66, velocity=0, time=23),\n",
      "  Message('note_on', channel=2, note=62, velocity=84, time=1),\n",
      "  Message('note_on', channel=2, note=62, velocity=0, time=23),\n",
      "  Message('note_on', channel=2, note=66, velocity=84, time=1),\n",
      "  Message('note_on', channel=2, note=66, velocity=0, time=23),\n",
      "  Message('note_on', channel=2, note=60, velocity=84, time=1),\n",
      "  Message('note_on', channel=2, note=60, velocity=0, time=23),\n",
      "  Message('note_on', channel=2, note=63, velocity=84, time=1),\n",
      "  Message('note_on', channel=2, note=63, velocity=0, time=23),\n",
      "  Message('note_on', channel=2, note=66, velocity=84, time=1),\n",
      "  Message('note_on', channel=2, note=66, velocity=0, time=23),\n",
      "  Message('note_on', channel=2, note=63, velocity=85, time=1),\n",
      "  Message('note_on', channel=2, note=63, velocity=0, time=23),\n",
      "  Message('note_on', channel=2, note=69, velocity=85, time=1),\n",
      "  Message('note_on', channel=2, note=69, velocity=0, time=23),\n",
      "  Message('note_on', channel=2, note=66, velocity=85, time=1),\n",
      "  Message('note_on', channel=2, note=66, velocity=0, time=23),\n",
      "  Message('note_on', channel=2, note=63, velocity=85, time=1),\n",
      "  Message('note_on', channel=2, note=63, velocity=0, time=23),\n",
      "  Message('note_on', channel=2, note=66, velocity=85, time=1),\n",
      "  Message('note_on', channel=2, note=66, velocity=0, time=23),\n",
      "  Message('note_on', channel=2, note=60, velocity=85, time=1),\n",
      "  Message('note_on', channel=2, note=60, velocity=0, time=23),\n",
      "  Message('note_on', channel=2, note=63, velocity=86, time=1),\n",
      "  Message('note_on', channel=2, note=63, velocity=0, time=23),\n",
      "  Message('note_on', channel=2, note=66, velocity=86, time=1),\n",
      "  Message('note_on', channel=2, note=66, velocity=0, time=23),\n",
      "  Message('note_on', channel=2, note=63, velocity=86, time=1),\n",
      "  Message('note_on', channel=2, note=63, velocity=0, time=23),\n",
      "  Message('note_on', channel=2, note=69, velocity=86, time=1),\n",
      "  Message('note_on', channel=2, note=69, velocity=0, time=23),\n",
      "  Message('note_on', channel=2, note=66, velocity=86, time=1),\n",
      "  Message('note_on', channel=2, note=66, velocity=0, time=23),\n",
      "  Message('note_on', channel=2, note=63, velocity=86, time=1),\n",
      "  Message('note_on', channel=2, note=63, velocity=0, time=23),\n",
      "  Message('note_on', channel=2, note=66, velocity=87, time=1),\n",
      "  Message('note_on', channel=2, note=66, velocity=0, time=23),\n",
      "  Message('note_on', channel=2, note=69, velocity=87, time=1),\n",
      "  Message('note_on', channel=2, note=64, velocity=87, time=0),\n",
      "  Message('note_on', channel=2, note=61, velocity=87, time=0),\n",
      "  Message('note_on', channel=2, note=69, velocity=0, time=89),\n",
      "  Message('note_on', channel=2, note=64, velocity=0, time=0),\n",
      "  Message('note_on', channel=2, note=61, velocity=0, time=0),\n",
      "  Message('note_on', channel=2, note=69, velocity=87, time=295),\n",
      "  Message('note_on', channel=2, note=69, velocity=0, time=177),\n",
      "  Message('note_on', channel=2, note=68, velocity=87, time=15),\n",
      "  Message('note_on', channel=2, note=68, velocity=0, time=18),\n",
      "  Message('note_on', channel=2, note=69, velocity=87, time=0),\n",
      "  Message('note_on', channel=2, note=69, velocity=0, time=18),\n",
      "  Message('note_on', channel=2, note=68, velocity=87, time=0),\n",
      "  Message('note_on', channel=2, note=68, velocity=0, time=18),\n",
      "  Message('note_on', channel=2, note=69, velocity=87, time=0),\n",
      "  Message('note_on', channel=2, note=69, velocity=0, time=18),\n",
      "  Message('note_on', channel=2, note=68, velocity=87, time=0),\n",
      "  Message('note_on', channel=2, note=68, velocity=0, time=18),\n",
      "  Message('note_on', channel=2, note=69, velocity=87, time=0),\n",
      "  Message('note_on', channel=2, note=69, velocity=0, time=18),\n",
      "  Message('note_on', channel=2, note=68, velocity=87, time=0),\n",
      "  Message('note_on', channel=2, note=68, velocity=0, time=18),\n",
      "  Message('note_on', channel=2, note=69, velocity=87, time=0),\n",
      "  Message('note_on', channel=2, note=69, velocity=0, time=7),\n",
      "  Message('note_on', channel=2, note=66, velocity=87, time=11),\n",
      "  Message('note_on', channel=2, note=66, velocity=0, time=23),\n",
      "  Message('note_on', channel=2, note=68, velocity=87, time=1),\n",
      "  Message('note_on', channel=2, note=68, velocity=0, time=23),\n",
      "  Message('note_on', channel=2, note=69, velocity=87, time=1),\n",
      "  Message('note_on', channel=2, note=69, velocity=0, time=89),\n",
      "  Message('note_on', channel=2, note=57, velocity=87, time=31),\n",
      "  Message('note_on', channel=2, note=57, velocity=0, time=23),\n",
      "  Message('note_on', channel=2, note=59, velocity=87, time=1),\n",
      "  Message('note_on', channel=2, note=59, velocity=0, time=23),\n",
      "  Message('note_on', channel=2, note=61, velocity=87, time=1),\n",
      "  Message('note_on', channel=2, note=61, velocity=0, time=23),\n",
      "  Message('note_on', channel=2, note=62, velocity=87, time=1),\n",
      "  Message('note_on', channel=2, note=62, velocity=0, time=23),\n",
      "  Message('note_on', channel=2, note=64, velocity=87, time=1),\n",
      "  Message('note_on', channel=2, note=64, velocity=0, time=23),\n",
      "  Message('note_on', channel=2, note=66, velocity=87, time=1),\n",
      "  Message('note_on', channel=2, note=66, velocity=0, time=23),\n",
      "  Message('note_on', channel=2, note=68, velocity=87, time=1),\n",
      "  Message('note_on', channel=2, note=68, velocity=0, time=23),\n",
      "  Message('note_on', channel=2, note=69, velocity=87, time=1),\n",
      "  Message('note_on', channel=2, note=69, velocity=0, time=23),\n",
      "  Message('note_on', channel=2, note=71, velocity=87, time=1),\n",
      "  Message('note_on', channel=2, note=71, velocity=0, time=23),\n",
      "  Message('note_on', channel=2, note=73, velocity=87, time=1),\n",
      "  Message('note_on', channel=2, note=73, velocity=0, time=23),\n",
      "  Message('note_on', channel=2, note=69, velocity=87, time=1),\n",
      "  Message('note_on', channel=2, note=69, velocity=0, time=23),\n",
      "  Message('note_on', channel=2, note=74, velocity=87, time=1),\n",
      "  Message('note_on', channel=2, note=74, velocity=0, time=20),\n",
      "  Message('note_on', channel=2, note=71, velocity=87, time=28),\n",
      "  Message('note_on', channel=2, note=71, velocity=0, time=20),\n",
      "  Message('note_on', channel=2, note=66, velocity=87, time=28),\n",
      "  Message('note_on', channel=2, note=66, velocity=0, time=119),\n",
      "  Message('note_on', channel=2, note=68, velocity=87, time=1),\n",
      "  Message('note_on', channel=2, note=68, velocity=0, time=23),\n",
      "  Message('note_on', channel=2, note=69, velocity=87, time=1),\n",
      "  Message('note_on', channel=2, note=69, velocity=0, time=23),\n",
      "  Message('note_on', channel=2, note=66, velocity=87, time=1),\n",
      "  Message('note_on', channel=2, note=66, velocity=0, time=23),\n",
      "  Message('note_on', channel=2, note=68, velocity=87, time=1),\n",
      "  Message('note_on', channel=2, note=68, velocity=0, time=23),\n",
      "  Message('note_on', channel=2, note=69, velocity=87, time=1),\n",
      "  Message('note_on', channel=2, note=69, velocity=0, time=23),\n",
      "  Message('note_on', channel=2, note=71, velocity=87, time=1),\n",
      "  Message('note_on', channel=2, note=71, velocity=0, time=23),\n",
      "  Message('note_on', channel=2, note=68, velocity=87, time=1),\n",
      "  Message('note_on', channel=2, note=68, velocity=0, time=23),\n",
      "  Message('note_on', channel=2, note=69, velocity=87, time=1),\n",
      "  Message('note_on', channel=2, note=69, velocity=0, time=89),\n",
      "  Message('note_on', channel=2, note=57, velocity=73, time=31),\n",
      "  Message('note_on', channel=2, note=57, velocity=0, time=23),\n",
      "  Message('note_on', channel=2, note=59, velocity=73, time=1),\n",
      "  Message('note_on', channel=2, note=59, velocity=0, time=23),\n",
      "  Message('note_on', channel=2, note=61, velocity=73, time=1),\n",
      "  Message('note_on', channel=2, note=61, velocity=0, time=23),\n",
      "  Message('note_on', channel=2, note=62, velocity=73, time=1),\n",
      "  Message('note_on', channel=2, note=62, velocity=0, time=23),\n",
      "  Message('note_on', channel=2, note=64, velocity=73, time=1),\n",
      "  Message('note_on', channel=2, note=64, velocity=0, time=23),\n",
      "  Message('note_on', channel=2, note=66, velocity=73, time=1),\n",
      "  Message('note_on', channel=2, note=66, velocity=0, time=23),\n",
      "  Message('note_on', channel=2, note=68, velocity=73, time=1),\n",
      "  Message('note_on', channel=2, note=68, velocity=0, time=23),\n",
      "  Message('note_on', channel=2, note=69, velocity=73, time=1),\n",
      "  Message('note_on', channel=2, note=69, velocity=0, time=23),\n",
      "  Message('note_on', channel=2, note=71, velocity=73, time=1),\n",
      "  Message('note_on', channel=2, note=71, velocity=0, time=23),\n",
      "  Message('note_on', channel=2, note=73, velocity=73, time=1),\n",
      "  Message('note_on', channel=2, note=73, velocity=0, time=23),\n",
      "  Message('note_on', channel=2, note=69, velocity=73, time=1),\n",
      "  Message('note_on', channel=2, note=69, velocity=0, time=23),\n",
      "  Message('note_on', channel=2, note=74, velocity=73, time=1),\n",
      "  Message('note_on', channel=2, note=74, velocity=0, time=20),\n",
      "  Message('note_on', channel=2, note=71, velocity=73, time=28),\n",
      "  Message('note_on', channel=2, note=71, velocity=0, time=20),\n",
      "  Message('note_on', channel=2, note=66, velocity=73, time=28),\n",
      "  Message('note_on', channel=2, note=66, velocity=0, time=119),\n",
      "  Message('note_on', channel=2, note=68, velocity=73, time=1),\n",
      "  Message('note_on', channel=2, note=68, velocity=0, time=23),\n",
      "  Message('note_on', channel=2, note=69, velocity=73, time=1),\n",
      "  Message('note_on', channel=2, note=69, velocity=0, time=23),\n",
      "  Message('note_on', channel=2, note=66, velocity=73, time=1),\n",
      "  Message('note_on', channel=2, note=66, velocity=0, time=23),\n",
      "  Message('note_on', channel=2, note=68, velocity=73, time=1),\n",
      "  Message('note_on', channel=2, note=68, velocity=0, time=23),\n",
      "  Message('note_on', channel=2, note=69, velocity=73, time=1),\n",
      "  Message('note_on', channel=2, note=69, velocity=0, time=23),\n",
      "  Message('note_on', channel=2, note=71, velocity=73, time=1),\n",
      "  Message('note_on', channel=2, note=71, velocity=0, time=23),\n",
      "  Message('note_on', channel=2, note=68, velocity=73, time=1),\n",
      "  Message('note_on', channel=2, note=68, velocity=0, time=23),\n",
      "  Message('note_on', channel=2, note=69, velocity=73, time=1),\n",
      "  Message('note_on', channel=2, note=69, velocity=0, time=89),\n",
      "  Message('note_on', channel=2, note=80, velocity=87, time=199),\n",
      "  Message('note_on', channel=2, note=76, velocity=87, time=0),\n",
      "  Message('note_on', channel=2, note=74, velocity=87, time=0),\n",
      "  Message('note_on', channel=2, note=71, velocity=87, time=0),\n",
      "  Message('note_on', channel=2, note=80, velocity=0, time=89),\n",
      "  Message('note_on', channel=2, note=76, velocity=0, time=0),\n",
      "  Message('note_on', channel=2, note=74, velocity=0, time=0),\n",
      "  Message('note_on', channel=2, note=71, velocity=0, time=0),\n",
      "  Message('note_on', channel=2, note=81, velocity=87, time=7),\n",
      "  Message('note_on', channel=2, note=81, velocity=0, time=10),\n",
      "  Message('note_on', channel=2, note=73, velocity=87, time=14),\n",
      "  Message('note_on', channel=2, note=73, velocity=0, time=23),\n",
      "  Message('note_on', channel=2, note=76, velocity=87, time=1),\n",
      "  Message('note_on', channel=2, note=76, velocity=0, time=23),\n",
      "  Message('note_on', channel=2, note=81, velocity=87, time=1),\n",
      "  Message('note_on', channel=2, note=81, velocity=0, time=23),\n",
      "  Message('note_on', channel=2, note=85, velocity=87, time=1),\n",
      "  Message('note_on', channel=2, note=85, velocity=0, time=23),\n",
      "  Message('note_on', channel=2, note=76, velocity=87, time=1),\n",
      "  Message('note_on', channel=2, note=76, velocity=0, time=23),\n",
      "  Message('note_on', channel=2, note=81, velocity=87, time=1),\n",
      "  Message('note_on', channel=2, note=81, velocity=0, time=23),\n",
      "  Message('note_on', channel=2, note=85, velocity=87, time=1),\n",
      "  Message('note_on', channel=2, note=85, velocity=0, time=23),\n",
      "  Message('note_on', channel=2, note=88, velocity=87, time=1),\n",
      "  Message('note_on', channel=2, note=88, velocity=0, time=20),\n",
      "  Message('note_on', channel=2, note=88, velocity=87, time=28),\n",
      "  Message('note_on', channel=2, note=88, velocity=0, time=20),\n",
      "  Message('note_on', channel=2, note=80, velocity=87, time=76),\n",
      "  Message('note_on', channel=2, note=76, velocity=87, time=0),\n",
      "  Message('note_on', channel=2, note=74, velocity=87, time=0),\n",
      "  Message('note_on', channel=2, note=71, velocity=87, time=0),\n",
      "  Message('note_on', channel=2, note=80, velocity=0, time=20),\n",
      "  Message('note_on', channel=2, note=76, velocity=0, time=0),\n",
      "  Message('note_on', channel=2, note=74, velocity=0, time=0),\n",
      "  Message('note_on', channel=2, note=71, velocity=0, time=0),\n",
      "  Message('note_on', channel=2, note=69, velocity=87, time=28),\n",
      "  Message('note_on', channel=2, note=73, velocity=87, time=6),\n",
      "  Message('note_on', channel=2, note=76, velocity=87, time=6),\n",
      "  Message('note_on', channel=2, note=81, velocity=87, time=6),\n",
      "  Message('note_on', channel=2, note=81, velocity=0, time=75),\n",
      "  Message('note_on', channel=2, note=76, velocity=0, time=0),\n",
      "  Message('note_on', channel=2, note=73, velocity=0, time=0),\n",
      "  Message('note_on', channel=2, note=69, velocity=0, time=0),\n",
      "  Message('note_on', channel=2, note=73, velocity=87, time=3),\n",
      "  Message('note_on', channel=2, note=76, velocity=87, time=6),\n",
      "  Message('note_on', channel=2, note=81, velocity=87, time=6),\n",
      "  Message('note_on', channel=2, note=85, velocity=87, time=6),\n",
      "  Message('note_on', channel=2, note=85, velocity=0, time=75),\n",
      "  Message('note_on', channel=2, note=81, velocity=0, time=0),\n",
      "  Message('note_on', channel=2, note=76, velocity=0, time=0),\n",
      "  Message('note_on', channel=2, note=73, velocity=0, time=0),\n",
      "  Message('note_on', channel=2, note=76, velocity=87, time=3),\n",
      "  Message('note_on', channel=2, note=81, velocity=87, time=6),\n",
      "  Message('note_on', channel=2, note=85, velocity=87, time=6),\n",
      "  Message('note_on', channel=2, note=88, velocity=87, time=6),\n",
      "  Message('note_on', channel=2, note=88, velocity=0, time=75),\n",
      "  Message('note_on', channel=2, note=85, velocity=0, time=0),\n",
      "  Message('note_on', channel=2, note=81, velocity=0, time=0),\n",
      "  Message('note_on', channel=2, note=76, velocity=0, time=0),\n",
      "  Message('note_on', channel=2, note=73, velocity=87, time=3),\n",
      "  Message('note_on', channel=2, note=76, velocity=87, time=6),\n",
      "  Message('note_on', channel=2, note=81, velocity=87, time=6),\n",
      "  Message('note_on', channel=2, note=85, velocity=87, time=6),\n",
      "  Message('note_on', channel=2, note=85, velocity=0, time=75),\n",
      "  Message('note_on', channel=2, note=81, velocity=0, time=0),\n",
      "  Message('note_on', channel=2, note=76, velocity=0, time=0),\n",
      "  Message('note_on', channel=2, note=73, velocity=0, time=0),\n",
      "  Message('note_on', channel=2, note=69, velocity=87, time=3),\n",
      "  Message('note_on', channel=2, note=73, velocity=87, time=6),\n",
      "  Message('note_on', channel=2, note=76, velocity=87, time=6),\n",
      "  Message('note_on', channel=2, note=81, velocity=87, time=6),\n",
      "  Message('note_on', channel=2, note=81, velocity=0, time=75),\n",
      "  Message('note_on', channel=2, note=76, velocity=0, time=0),\n",
      "  Message('note_on', channel=2, note=73, velocity=0, time=0),\n",
      "  Message('note_on', channel=2, note=69, velocity=0, time=0),\n",
      "  Message('note_on', channel=2, note=69, velocity=87, time=3),\n",
      "  Message('note_on', channel=2, note=69, velocity=0, time=67),\n",
      "  Message('note_on', channel=2, note=69, velocity=87, time=5),\n",
      "  Message('note_on', channel=2, note=69, velocity=0, time=23),\n",
      "  Message('note_on', channel=2, note=69, velocity=87, time=1),\n",
      "  Message('note_on', channel=2, note=69, velocity=0, time=89),\n",
      "  Message('note_on', channel=2, note=74, velocity=87, time=103),\n",
      "  Message('note_on', channel=2, note=69, velocity=87, time=0),\n",
      "  Message('note_on', channel=2, note=66, velocity=87, time=0),\n",
      "  Message('note_on', channel=2, note=62, velocity=87, time=0),\n",
      "  Message('note_on', channel=2, note=74, velocity=0, time=177),\n",
      "  Message('note_on', channel=2, note=69, velocity=0, time=0),\n",
      "  Message('note_on', channel=2, note=66, velocity=0, time=0),\n",
      "  Message('note_on', channel=2, note=62, velocity=0, time=0),\n",
      "  Message('note_on', channel=2, note=69, velocity=87, time=15),\n",
      "  Message('note_on', channel=2, note=69, velocity=0, time=177),\n",
      "  Message('note_on', channel=2, note=67, velocity=87, time=15),\n",
      "  Message('note_on', channel=2, note=67, velocity=0, time=18),\n",
      "  Message('note_on', channel=2, note=66, velocity=87, time=0),\n",
      "  Message('note_on', channel=2, note=66, velocity=0, time=18),\n",
      "  Message('note_on', channel=2, note=67, velocity=87, time=0),\n",
      "  Message('note_on', channel=2, note=67, velocity=0, time=18),\n",
      "  Message('note_on', channel=2, note=66, velocity=87, time=0),\n",
      "  Message('note_on', channel=2, note=66, velocity=0, time=18),\n",
      "  Message('note_on', channel=2, note=67, velocity=87, time=0),\n",
      "  Message('note_on', channel=2, note=67, velocity=0, time=18),\n",
      "  Message('note_on', channel=2, note=66, velocity=87, time=0),\n",
      "  Message('note_on', channel=2, note=66, velocity=0, time=18),\n",
      "  Message('note_on', channel=2, note=67, velocity=87, time=0),\n",
      "  Message('note_on', channel=2, note=67, velocity=0, time=18),\n",
      "  Message('note_on', channel=2, note=66, velocity=87, time=0),\n",
      "  Message('note_on', channel=2, note=66, velocity=0, time=7),\n",
      "  Message('note_on', channel=2, note=64, velocity=87, time=11),\n",
      "  Message('note_on', channel=2, note=64, velocity=0, time=23),\n",
      "  Message('note_on', channel=2, note=62, velocity=87, time=1),\n",
      "  Message('note_on', channel=2, note=62, velocity=0, time=23),\n",
      "  Message('note_on', channel=2, note=69, velocity=87, time=1),\n",
      "  Message('note_on', channel=2, note=69, velocity=0, time=89),\n",
      "  Message('note_on', channel=2, note=57, velocity=87, time=79),\n",
      "  Message('note_on', channel=2, note=57, velocity=0, time=8),\n",
      "  Message('note_on', channel=2, note=59, velocity=87, time=0),\n",
      "  Message('note_on', channel=2, note=59, velocity=0, time=8),\n",
      "  Message('note_on', channel=2, note=61, velocity=87, time=0),\n",
      "  Message('note_on', channel=2, note=61, velocity=0, time=8),\n",
      "  Message('note_on', channel=2, note=62, velocity=87, time=0),\n",
      "  Message('note_on', channel=2, note=62, velocity=0, time=89),\n",
      "  Message('note_on', channel=2, note=57, velocity=87, time=7),\n",
      "  Message('note_on', channel=2, note=57, velocity=0, time=67),\n",
      "  Message('note_on', channel=2, note=62, velocity=87, time=5),\n",
      "  Message('note_on', channel=2, note=62, velocity=0, time=23),\n",
      "  Message('note_on', channel=2, note=64, velocity=87, time=1),\n",
      "  Message('note_on', channel=2, note=64, velocity=0, time=89),\n",
      "  Message('note_on', channel=2, note=57, velocity=87, time=7),\n",
      "  Message('note_on', channel=2, note=57, velocity=0, time=67),\n",
      "  Message('note_on', channel=2, note=64, velocity=87, time=5),\n",
      "  Message('note_on', channel=2, note=64, velocity=0, time=23),\n",
      "  Message('note_on', channel=2, note=66, velocity=87, time=1),\n",
      "  Message('note_on', channel=2, note=66, velocity=0, time=89),\n",
      "  Message('note_on', channel=2, note=62, velocity=87, time=7),\n",
      "  Message('note_on', channel=2, note=62, velocity=0, time=67),\n",
      "  Message('note_on', channel=2, note=66, velocity=87, time=5),\n",
      "  Message('note_on', channel=2, note=66, velocity=0, time=23),\n",
      "  Message('note_on', channel=2, note=69, velocity=87, time=1),\n",
      "  Message('note_on', channel=2, note=69, velocity=0, time=89),\n",
      "  Message('note_on', channel=2, note=69, velocity=82, time=607),\n",
      "  Message('note_on', channel=2, note=69, velocity=0, time=23),\n",
      "  Message('note_on', channel=2, note=71, velocity=82, time=1),\n",
      "  Message('note_on', channel=2, note=71, velocity=0, time=23),\n",
      "  Message('note_on', channel=2, note=73, velocity=82, time=1),\n",
      "  Message('note_on', channel=2, note=73, velocity=0, time=23),\n",
      "  Message('note_on', channel=2, note=74, velocity=83, time=1),\n",
      "  Message('note_on', channel=2, note=74, velocity=0, time=23),\n",
      "  Message('note_on', channel=2, note=73, velocity=83, time=1),\n",
      "  Message('note_on', channel=2, note=73, velocity=0, time=23),\n",
      "  Message('note_on', channel=2, note=74, velocity=83, time=1),\n",
      "  Message('note_on', channel=2, note=74, velocity=0, time=23),\n",
      "  Message('note_on', channel=2, note=69, velocity=84, time=1),\n",
      "  Message('note_on', channel=2, note=69, velocity=0, time=23),\n",
      "  Message('note_on', channel=2, note=76, velocity=84, time=1),\n",
      "  Message('note_on', channel=2, note=76, velocity=0, time=23),\n",
      "  Message('note_on', channel=2, note=74, velocity=84, time=1),\n",
      "  Message('note_on', channel=2, note=74, velocity=0, time=23),\n",
      "  Message('note_on', channel=2, note=76, velocity=85, time=1),\n",
      "  Message('note_on', channel=2, note=76, velocity=0, time=23),\n",
      "  Message('note_on', channel=2, note=69, velocity=85, time=1),\n",
      "  Message('note_on', channel=2, note=69, velocity=0, time=23),\n",
      "  Message('note_on', channel=2, note=78, velocity=85, time=1),\n",
      "  Message('note_on', channel=2, note=78, velocity=0, time=89),\n",
      "  Message('note_on', channel=2, note=73, velocity=82, time=415),\n",
      "  Message('note_on', channel=2, note=73, velocity=0, time=23),\n",
      "  Message('note_on', channel=2, note=74, velocity=82, time=1),\n",
      "  Message('note_on', channel=2, note=74, velocity=0, time=23),\n",
      "  Message('note_on', channel=2, note=76, velocity=82, time=1),\n",
      "  Message('note_on', channel=2, note=76, velocity=0, time=23),\n",
      "  Message('note_on', channel=2, note=78, velocity=83, time=1),\n",
      "  Message('note_on', channel=2, note=78, velocity=0, time=23),\n",
      "  Message('note_on', channel=2, note=76, velocity=83, time=1),\n",
      "  Message('note_on', channel=2, note=76, velocity=0, time=23),\n",
      "  Message('note_on', channel=2, note=78, velocity=83, time=1),\n",
      "  Message('note_on', channel=2, note=78, velocity=0, time=23),\n",
      "  Message('note_on', channel=2, note=74, velocity=84, time=1),\n",
      "  Message('note_on', channel=2, note=74, velocity=0, time=23),\n",
      "  Message('note_on', channel=2, note=79, velocity=84, time=1),\n",
      "  Message('note_on', channel=2, note=79, velocity=0, time=23),\n",
      "  Message('note_on', channel=2, note=78, velocity=84, time=1),\n",
      "  Message('note_on', channel=2, note=78, velocity=0, time=23),\n",
      "  Message('note_on', channel=2, note=79, velocity=85, time=1),\n",
      "  Message('note_on', channel=2, note=79, velocity=0, time=23),\n",
      "  Message('note_on', channel=2, note=76, velocity=85, time=1),\n",
      "  Message('note_on', channel=2, note=76, velocity=0, time=23),\n",
      "  Message('note_on', channel=2, note=81, velocity=85, time=1),\n",
      "  Message('note_on', channel=2, note=81, velocity=0, time=89),\n",
      "  Message('note_on', channel=2, note=69, velocity=82, time=1471),\n",
      "  Message('note_on', channel=2, note=69, velocity=0, time=23),\n",
      "  Message('note_on', channel=2, note=71, velocity=82, time=1),\n",
      "  Message('note_on', channel=2, note=71, velocity=0, time=23),\n",
      "  Message('note_on', channel=2, note=73, velocity=82, time=1),\n",
      "  Message('note_on', channel=2, note=73, velocity=0, time=23),\n",
      "  Message('note_on', channel=2, note=74, velocity=83, time=1),\n",
      "  Message('note_on', channel=2, note=74, velocity=0, time=23),\n",
      "  Message('note_on', channel=2, note=76, velocity=83, time=1),\n",
      "  Message('note_on', channel=2, note=76, velocity=0, time=23),\n",
      "  Message('note_on', channel=2, note=78, velocity=84, time=1),\n",
      "  Message('note_on', channel=2, note=78, velocity=0, time=23),\n",
      "  Message('note_on', channel=2, note=79, velocity=84, time=1),\n",
      "  Message('note_on', channel=2, note=79, velocity=0, time=23),\n",
      "  Message('note_on', channel=2, note=81, velocity=85, time=1),\n",
      "  Message('note_on', channel=2, note=81, velocity=0, time=23),\n",
      "  Message('note_on', channel=2, note=83, velocity=85, time=1),\n",
      "  Message('note_on', channel=2, note=83, velocity=0, time=23),\n",
      "  Message('note_on', channel=2, note=85, velocity=86, time=1),\n",
      "  Message('note_on', channel=2, note=85, velocity=0, time=23),\n",
      "  Message('note_on', channel=2, note=86, velocity=86, time=1),\n",
      "  Message('note_on', channel=2, note=86, velocity=0, time=23),\n",
      "  Message('note_on', channel=2, note=81, velocity=87, time=1),\n",
      "  Message('note_on', channel=2, note=81, velocity=0, time=45),\n",
      "  Message('note_on', channel=2, note=69, velocity=82, time=75),\n",
      "  Message('note_on', channel=2, note=69, velocity=0, time=23),\n",
      "  Message('note_on', channel=2, note=71, velocity=82, time=1),\n",
      "  Message('note_on', channel=2, note=71, velocity=0, time=23),\n",
      "  Message('note_on', channel=2, note=73, velocity=82, time=1),\n",
      "  Message('note_on', channel=2, note=73, velocity=0, time=23),\n",
      "  Message('note_on', channel=2, note=74, velocity=83, time=1),\n",
      "  Message('note_on', channel=2, note=74, velocity=0, time=23),\n",
      "  Message('note_on', channel=2, note=76, velocity=83, time=1),\n",
      "  Message('note_on', channel=2, note=76, velocity=0, time=23),\n",
      "  Message('note_on', channel=2, note=78, velocity=84, time=1),\n",
      "  Message('note_on', channel=2, note=78, velocity=0, time=23),\n",
      "  Message('note_on', channel=2, note=80, velocity=84, time=1),\n",
      "  Message('note_on', channel=2, note=80, velocity=0, time=23),\n",
      "  Message('note_on', channel=2, note=81, velocity=85, time=1),\n",
      "  Message('note_on', channel=2, note=81, velocity=0, time=23),\n",
      "  Message('note_on', channel=2, note=85, velocity=85, time=1),\n",
      "  Message('note_on', channel=2, note=85, velocity=0, time=23),\n",
      "  Message('note_on', channel=2, note=86, velocity=86, time=1),\n",
      "  Message('note_on', channel=2, note=86, velocity=0, time=23),\n",
      "  Message('note_on', channel=2, note=88, velocity=86, time=1),\n",
      "  Message('note_on', channel=2, note=88, velocity=0, time=23),\n",
      "  Message('note_on', channel=2, note=81, velocity=87, time=1),\n",
      "  Message('note_on', channel=2, note=81, velocity=0, time=45),\n",
      "  Message('note_on', channel=2, note=69, velocity=82, time=75),\n",
      "  Message('note_on', channel=2, note=69, velocity=0, time=23),\n",
      "  Message('note_on', channel=2, note=71, velocity=82, time=1),\n",
      "  Message('note_on', channel=2, note=71, velocity=0, time=23),\n",
      "  Message('note_on', channel=2, note=73, velocity=82, time=1),\n",
      "  Message('note_on', channel=2, note=73, velocity=0, time=23),\n",
      "  Message('note_on', channel=2, note=74, velocity=83, time=1),\n",
      "  Message('note_on', channel=2, note=74, velocity=0, time=23),\n",
      "  Message('note_on', channel=2, note=76, velocity=83, time=1),\n",
      "  Message('note_on', channel=2, note=76, velocity=0, time=23),\n",
      "  Message('note_on', channel=2, note=78, velocity=84, time=1),\n",
      "  Message('note_on', channel=2, note=78, velocity=0, time=23),\n",
      "  Message('note_on', channel=2, note=79, velocity=84, time=1),\n",
      "  Message('note_on', channel=2, note=79, velocity=0, time=23),\n",
      "  Message('note_on', channel=2, note=81, velocity=85, time=1),\n",
      "  Message('note_on', channel=2, note=81, velocity=0, time=23),\n",
      "  Message('note_on', channel=2, note=83, velocity=85, time=1),\n",
      "  Message('note_on', channel=2, note=83, velocity=0, time=23),\n",
      "  Message('note_on', channel=2, note=85, velocity=86, time=1),\n",
      "  Message('note_on', channel=2, note=85, velocity=0, time=23),\n",
      "  Message('note_on', channel=2, note=86, velocity=86, time=1),\n",
      "  Message('note_on', channel=2, note=86, velocity=0, time=23),\n",
      "  Message('note_on', channel=2, note=81, velocity=87, time=1),\n",
      "  Message('note_on', channel=2, note=81, velocity=0, time=45),\n",
      "  Message('note_on', channel=2, note=79, velocity=87, time=51),\n",
      "  Message('note_on', channel=2, note=79, velocity=0, time=23),\n",
      "  Message('note_on', channel=2, note=83, velocity=86, time=1),\n",
      "  Message('note_on', channel=2, note=83, velocity=0, time=23),\n",
      "  Message('note_on', channel=2, note=79, velocity=86, time=1),\n",
      "  Message('note_on', channel=2, note=79, velocity=0, time=23),\n",
      "  Message('note_on', channel=2, note=83, velocity=86, time=1),\n",
      "  Message('note_on', channel=2, note=83, velocity=0, time=23),\n",
      "  Message('note_on', channel=2, note=67, velocity=85, time=1),\n",
      "  Message('note_on', channel=2, note=67, velocity=0, time=23),\n",
      "  Message('note_on', channel=2, note=71, velocity=85, time=1),\n",
      "  Message('note_on', channel=2, note=71, velocity=0, time=23),\n",
      "  Message('note_on', channel=2, note=67, velocity=85, time=1),\n",
      "  Message('note_on', channel=2, note=67, velocity=0, time=23),\n",
      "  Message('note_on', channel=2, note=71, velocity=84, time=1),\n",
      "  Message('note_on', channel=2, note=71, velocity=0, time=23),\n",
      "  Message('note_on', channel=2, note=62, velocity=84, time=1),\n",
      "  Message('note_on', channel=2, note=62, velocity=0, time=23),\n",
      "  Message('note_on', channel=2, note=66, velocity=84, time=1),\n",
      "  Message('note_on', channel=2, note=66, velocity=0, time=23),\n",
      "  Message('note_on', channel=2, note=62, velocity=83, time=1),\n",
      "  Message('note_on', channel=2, note=62, velocity=0, time=23),\n",
      "  Message('note_on', channel=2, note=66, velocity=83, time=1),\n",
      "  Message('note_on', channel=2, note=66, velocity=0, time=23),\n",
      "  Message('note_on', channel=2, note=64, velocity=83, time=1),\n",
      "  Message('note_on', channel=2, note=64, velocity=0, time=23),\n",
      "  Message('note_on', channel=2, note=67, velocity=82, time=1),\n",
      "  Message('note_on', channel=2, note=67, velocity=0, time=23),\n",
      "  Message('note_on', channel=2, note=64, velocity=82, time=1),\n",
      "  Message('note_on', channel=2, note=64, velocity=0, time=23),\n",
      "  Message('note_on', channel=2, note=67, velocity=82, time=1),\n",
      "  Message('note_on', channel=2, note=67, velocity=0, time=23),\n",
      "  Message('note_on', channel=2, note=66, velocity=82, time=1),\n",
      "  Message('note_on', channel=2, note=66, velocity=0, time=89),\n",
      "  Message('note_on', channel=2, note=86, velocity=87, time=391),\n",
      "  Message('note_on', channel=2, note=86, velocity=0, time=23),\n",
      "  Message('note_on', channel=2, note=81, velocity=87, time=1),\n",
      "  Message('note_on', channel=2, note=81, velocity=0, time=23),\n",
      "  Message('note_on', channel=2, note=78, velocity=87, time=1),\n",
      "  Message('note_on', channel=2, note=78, velocity=0, time=23),\n",
      "  Message('note_on', channel=2, note=74, velocity=87, time=1),\n",
      "  Message('note_on', channel=2, note=74, velocity=0, time=23),\n",
      "  Message('note_on', channel=2, note=81, velocity=87, time=1),\n",
      "  Message('note_on', channel=2, note=81, velocity=0, time=23),\n",
      "  Message('note_on', channel=2, note=78, velocity=87, time=1),\n",
      "  Message('note_on', channel=2, note=78, velocity=0, time=23),\n",
      "  Message('note_on', channel=2, note=74, velocity=87, time=1),\n",
      "  Message('note_on', channel=2, note=74, velocity=0, time=23),\n",
      "  Message('note_on', channel=2, note=69, velocity=87, time=1),\n",
      "  Message('note_on', channel=2, note=69, velocity=0, time=23),\n",
      "  Message('note_on', channel=2, note=78, velocity=87, time=1),\n",
      "  Message('note_on', channel=2, note=78, velocity=0, time=23),\n",
      "  Message('note_on', channel=2, note=74, velocity=87, time=1),\n",
      "  Message('note_on', channel=2, note=74, velocity=0, time=23),\n",
      "  Message('note_on', channel=2, note=69, velocity=87, time=1),\n",
      "  Message('note_on', channel=2, note=69, velocity=0, time=23),\n",
      "  Message('note_on', channel=2, note=66, velocity=87, time=1),\n",
      "  Message('note_on', channel=2, note=66, velocity=0, time=23),\n",
      "  Message('note_on', channel=2, note=74, velocity=87, time=1),\n",
      "  Message('note_on', channel=2, note=74, velocity=0, time=23),\n",
      "  Message('note_on', channel=2, note=71, velocity=87, time=1),\n",
      "  Message('note_on', channel=2, note=71, velocity=0, time=23),\n",
      "  Message('note_on', channel=2, note=66, velocity=87, time=1),\n",
      "  Message('note_on', channel=2, note=66, velocity=0, time=23),\n",
      "  Message('note_on', channel=2, note=62, velocity=87, time=1),\n",
      "  Message('note_on', channel=2, note=62, velocity=0, time=23),\n",
      "  Message('note_on', channel=2, note=61, velocity=87, time=1),\n",
      "  Message('note_on', channel=2, note=61, velocity=0, time=23),\n",
      "  Message('note_on', channel=2, note=62, velocity=87, time=1),\n",
      "  Message('note_on', channel=2, note=62, velocity=0, time=23),\n",
      "  Message('note_on', channel=2, note=61, velocity=87, time=1),\n",
      "  Message('note_on', channel=2, note=61, velocity=0, time=23),\n",
      "  Message('note_on', channel=2, note=62, velocity=87, time=1),\n",
      "  Message('note_on', channel=2, note=62, velocity=0, time=23),\n",
      "  Message('note_on', channel=2, note=61, velocity=87, time=1),\n",
      "  Message('note_on', channel=2, note=61, velocity=0, time=23),\n",
      "  Message('note_on', channel=2, note=62, velocity=87, time=1),\n",
      "  Message('note_on', channel=2, note=62, velocity=0, time=23),\n",
      "  Message('note_on', channel=2, note=61, velocity=87, time=1),\n",
      "  Message('note_on', channel=2, note=61, velocity=0, time=23),\n",
      "  Message('note_on', channel=2, note=62, velocity=87, time=1),\n",
      "  Message('note_on', channel=2, note=62, velocity=0, time=23),\n",
      "  Message('note_on', channel=2, note=61, velocity=87, time=1),\n",
      "  Message('note_on', channel=2, note=61, velocity=0, time=23),\n",
      "  Message('note_on', channel=2, note=62, velocity=87, time=1),\n",
      "  Message('note_on', channel=2, note=62, velocity=0, time=23),\n",
      "  Message('note_on', channel=2, note=61, velocity=87, time=1),\n",
      "  Message('note_on', channel=2, note=61, velocity=0, time=23),\n",
      "  Message('note_on', channel=2, note=62, velocity=87, time=1),\n",
      "  Message('note_on', channel=2, note=62, velocity=0, time=23),\n",
      "  Message('note_on', channel=2, note=59, velocity=87, time=1),\n",
      "  Message('note_on', channel=2, note=59, velocity=0, time=45),\n",
      "  Message('note_on', channel=2, note=83, velocity=87, time=51),\n",
      "  Message('note_on', channel=2, note=83, velocity=0, time=23),\n",
      "  Message('note_on', channel=2, note=78, velocity=87, time=1),\n",
      "  Message('note_on', channel=2, note=78, velocity=0, time=23),\n",
      "  Message('note_on', channel=2, note=74, velocity=87, time=1),\n",
      "  Message('note_on', channel=2, note=74, velocity=0, time=23),\n",
      "  Message('note_on', channel=2, note=71, velocity=87, time=1),\n",
      "  Message('note_on', channel=2, note=71, velocity=0, time=23),\n",
      "  Message('note_on', channel=2, note=78, velocity=87, time=1),\n",
      "  Message('note_on', channel=2, note=78, velocity=0, time=23),\n",
      "  Message('note_on', channel=2, note=74, velocity=87, time=1),\n",
      "  Message('note_on', channel=2, note=74, velocity=0, time=23),\n",
      "  Message('note_on', channel=2, note=71, velocity=87, time=1),\n",
      "  Message('note_on', channel=2, note=71, velocity=0, time=23),\n",
      "  Message('note_on', channel=2, note=66, velocity=87, time=1),\n",
      "  Message('note_on', channel=2, note=66, velocity=0, time=23),\n",
      "  Message('note_on', channel=2, note=74, velocity=87, time=1),\n",
      "  Message('note_on', channel=2, note=74, velocity=0, time=23),\n",
      "  Message('note_on', channel=2, note=71, velocity=87, time=1),\n",
      "  Message('note_on', channel=2, note=71, velocity=0, time=23),\n",
      "  Message('note_on', channel=2, note=66, velocity=87, time=1),\n",
      "  Message('note_on', channel=2, note=66, velocity=0, time=23),\n",
      "  Message('note_on', channel=2, note=62, velocity=87, time=1),\n",
      "  Message('note_on', channel=2, note=62, velocity=0, time=23),\n",
      "  Message('note_on', channel=2, note=71, velocity=87, time=1),\n",
      "  Message('note_on', channel=2, note=71, velocity=0, time=23),\n",
      "  Message('note_on', channel=2, note=67, velocity=87, time=1),\n",
      "  Message('note_on', channel=2, note=67, velocity=0, time=23),\n",
      "  Message('note_on', channel=2, note=62, velocity=87, time=1),\n",
      "  Message('note_on', channel=2, note=62, velocity=0, time=23),\n",
      "  Message('note_on', channel=2, note=59, velocity=87, time=1),\n",
      "  Message('note_on', channel=2, note=59, velocity=0, time=23),\n",
      "  Message('note_on', channel=2, note=58, velocity=87, time=1),\n",
      "  Message('note_on', channel=2, note=58, velocity=0, time=23),\n",
      "  Message('note_on', channel=2, note=59, velocity=87, time=1),\n",
      "  Message('note_on', channel=2, note=59, velocity=0, time=23),\n",
      "  Message('note_on', channel=2, note=58, velocity=87, time=1),\n",
      "  Message('note_on', channel=2, note=58, velocity=0, time=23),\n",
      "  Message('note_on', channel=2, note=59, velocity=87, time=1),\n",
      "  Message('note_on', channel=2, note=59, velocity=0, time=23),\n",
      "  Message('note_on', channel=2, note=58, velocity=87, time=1),\n",
      "  Message('note_on', channel=2, note=58, velocity=0, time=23),\n",
      "  Message('note_on', channel=2, note=59, velocity=87, time=1),\n",
      "  Message('note_on', channel=2, note=59, velocity=0, time=23),\n",
      "  Message('note_on', channel=2, note=58, velocity=87, time=1),\n",
      "  Message('note_on', channel=2, note=58, velocity=0, time=23),\n",
      "  Message('note_on', channel=2, note=59, velocity=87, time=1),\n",
      "  Message('note_on', channel=2, note=59, velocity=0, time=23),\n",
      "  Message('note_on', channel=2, note=58, velocity=87, time=1),\n",
      "  Message('note_on', channel=2, note=58, velocity=0, time=23),\n",
      "  Message('note_on', channel=2, note=59, velocity=87, time=1),\n",
      "  Message('note_on', channel=2, note=59, velocity=0, time=23),\n",
      "  Message('note_on', channel=2, note=58, velocity=87, time=1),\n",
      "  Message('note_on', channel=2, note=58, velocity=0, time=23),\n",
      "  Message('note_on', channel=2, note=59, velocity=87, time=1),\n",
      "  Message('note_on', channel=2, note=59, velocity=0, time=23),\n",
      "  Message('note_on', channel=2, note=55, velocity=87, time=1),\n",
      "  Message('note_on', channel=2, note=55, velocity=0, time=45),\n",
      "  Message('note_on', channel=2, note=79, velocity=87, time=51),\n",
      "  Message('note_on', channel=2, note=79, velocity=0, time=23),\n",
      "  Message('note_on', channel=2, note=74, velocity=87, time=1),\n",
      "  Message('note_on', channel=2, note=74, velocity=0, time=23),\n",
      "  Message('note_on', channel=2, note=71, velocity=87, time=1),\n",
      "  Message('note_on', channel=2, note=71, velocity=0, time=23),\n",
      "  Message('note_on', channel=2, note=67, velocity=87, time=1),\n",
      "  Message('note_on', channel=2, note=67, velocity=0, time=23),\n",
      "  Message('note_on', channel=2, note=74, velocity=87, time=1),\n",
      "  Message('note_on', channel=2, note=74, velocity=0, time=23),\n",
      "  Message('note_on', channel=2, note=71, velocity=87, time=1),\n",
      "  Message('note_on', channel=2, note=71, velocity=0, time=23),\n",
      "  Message('note_on', channel=2, note=67, velocity=87, time=1),\n",
      "  Message('note_on', channel=2, note=67, velocity=0, time=23),\n",
      "  Message('note_on', channel=2, note=62, velocity=87, time=1),\n",
      "  Message('note_on', channel=2, note=62, velocity=0, time=23),\n",
      "  Message('note_on', channel=2, note=71, velocity=87, time=1),\n",
      "  Message('note_on', channel=2, note=71, velocity=0, time=23),\n",
      "  Message('note_on', channel=2, note=67, velocity=87, time=1),\n",
      "  Message('note_on', channel=2, note=67, velocity=0, time=23),\n",
      "  Message('note_on', channel=2, note=62, velocity=87, time=1),\n",
      "  Message('note_on', channel=2, note=62, velocity=0, time=23),\n",
      "  Message('note_on', channel=2, note=59, velocity=87, time=1),\n",
      "  Message('note_on', channel=2, note=59, velocity=0, time=23),\n",
      "  Message('note_on', channel=2, note=62, velocity=87, time=1),\n",
      "  Message('note_on', channel=2, note=59, velocity=87, time=0),\n",
      "  Message('note_on', channel=2, note=62, velocity=0, time=177),\n",
      "  Message('note_on', channel=2, note=59, velocity=0, time=0),\n",
      "  Message('note_on', channel=2, note=62, velocity=87, time=15),\n",
      "  Message('note_on', channel=2, note=59, velocity=87, time=0),\n",
      "  Message('note_on', channel=2, note=56, velocity=87, time=0),\n",
      "  Message('note_on', channel=2, note=62, velocity=0, time=177),\n",
      "  Message('note_on', channel=2, note=59, velocity=0, time=0),\n",
      "  Message('note_on', channel=2, note=56, velocity=0, time=0),\n",
      "  Message('note_on', channel=2, note=61, velocity=87, time=15),\n",
      "  Message('note_on', channel=2, note=61, velocity=0, time=23),\n",
      "  Message('note_on', channel=2, note=62, velocity=87, time=1),\n",
      "  Message('note_on', channel=2, note=62, velocity=0, time=23),\n",
      "  Message('note_on', channel=2, note=64, velocity=87, time=1),\n",
      "  Message('note_on', channel=2, note=64, velocity=0, time=23),\n",
      "  Message('note_on', channel=2, note=66, velocity=87, time=1),\n",
      "  Message('note_on', channel=2, note=66, velocity=0, time=23),\n",
      "  Message('note_on', channel=2, note=68, velocity=87, time=1),\n",
      "  Message('note_on', channel=2, note=68, velocity=0, time=23),\n",
      "  Message('note_on', channel=2, note=69, velocity=87, time=1),\n",
      "  Message('note_on', channel=2, note=69, velocity=0, time=23),\n",
      "  Message('note_on', channel=2, note=71, velocity=87, time=1),\n",
      "  Message('note_on', channel=2, note=71, velocity=0, time=23),\n",
      "  Message('note_on', channel=2, note=73, velocity=87, time=1),\n",
      "  Message('note_on', channel=2, note=73, velocity=0, time=23),\n",
      "  Message('note_on', channel=2, note=75, velocity=87, time=1),\n",
      "  Message('note_on', channel=2, note=75, velocity=0, time=23),\n",
      "  Message('note_on', channel=2, note=76, velocity=87, time=1),\n",
      "  Message('note_on', channel=2, note=76, velocity=0, time=23),\n",
      "  Message('note_on', channel=2, note=78, velocity=87, time=1),\n",
      "  Message('note_on', channel=2, note=78, velocity=0, time=23),\n",
      "  Message('note_on', channel=2, note=80, velocity=87, time=1),\n",
      "  Message('note_on', channel=2, note=80, velocity=0, time=23),\n",
      "  Message('note_on', channel=2, note=81, velocity=87, time=1),\n",
      "  Message('note_on', channel=2, note=81, velocity=0, time=23),\n",
      "  Message('note_on', channel=2, note=83, velocity=87, time=1),\n",
      "  Message('note_on', channel=2, note=83, velocity=0, time=23),\n",
      "  Message('note_on', channel=2, note=85, velocity=87, time=1),\n",
      "  Message('note_on', channel=2, note=85, velocity=0, time=23),\n",
      "  Message('note_on', channel=2, note=87, velocity=87, time=1),\n",
      "  Message('note_on', channel=2, note=87, velocity=0, time=23),\n",
      "  Message('note_on', channel=2, note=88, velocity=87, time=1),\n",
      "  Message('note_on', channel=2, note=88, velocity=0, time=23),\n",
      "  Message('note_on', channel=2, note=76, velocity=87, time=1),\n",
      "  Message('note_on', channel=2, note=76, velocity=0, time=23),\n",
      "  Message('note_on', channel=2, note=88, velocity=87, time=1),\n",
      "  Message('note_on', channel=2, note=88, velocity=0, time=23),\n",
      "  Message('note_on', channel=2, note=76, velocity=87, time=1),\n",
      "  Message('note_on', channel=2, note=76, velocity=0, time=23),\n",
      "  Message('note_on', channel=2, note=88, velocity=87, time=1),\n",
      "  Message('note_on', channel=2, note=88, velocity=0, time=23),\n",
      "  Message('note_on', channel=2, note=76, velocity=87, time=1),\n",
      "  Message('note_on', channel=2, note=76, velocity=0, time=23),\n",
      "  Message('note_on', channel=2, note=88, velocity=87, time=1),\n",
      "  Message('note_on', channel=2, note=88, velocity=0, time=23),\n",
      "  Message('note_on', channel=2, note=76, velocity=87, time=1),\n",
      "  Message('note_on', channel=2, note=76, velocity=0, time=23),\n",
      "  Message('note_on', channel=2, note=88, velocity=87, time=1),\n",
      "  Message('note_on', channel=2, note=88, velocity=0, time=23),\n",
      "  Message('note_on', channel=2, note=76, velocity=87, time=1),\n",
      "  Message('note_on', channel=2, note=76, velocity=0, time=23),\n",
      "  Message('note_on', channel=2, note=88, velocity=87, time=1),\n",
      "  Message('note_on', channel=2, note=88, velocity=0, time=23),\n",
      "  Message('note_on', channel=2, note=76, velocity=87, time=1),\n",
      "  Message('note_on', channel=2, note=76, velocity=0, time=23),\n",
      "  Message('note_on', channel=2, note=88, velocity=87, time=1),\n",
      "  Message('note_on', channel=2, note=88, velocity=0, time=23),\n",
      "  Message('note_on', channel=2, note=76, velocity=87, time=1),\n",
      "  Message('note_on', channel=2, note=76, velocity=0, time=23),\n",
      "  Message('note_on', channel=2, note=88, velocity=87, time=1),\n",
      "  Message('note_on', channel=2, note=88, velocity=0, time=23),\n",
      "  Message('note_on', channel=2, note=76, velocity=87, time=1),\n",
      "  Message('note_on', channel=2, note=76, velocity=0, time=23),\n",
      "  Message('note_on', channel=2, note=88, velocity=87, time=1),\n",
      "  Message('note_on', channel=2, note=88, velocity=0, time=23),\n",
      "  Message('note_on', channel=2, note=78, velocity=87, time=1),\n",
      "  Message('note_on', channel=2, note=78, velocity=0, time=23),\n",
      "  Message('note_on', channel=2, note=88, velocity=87, time=1),\n",
      "  Message('note_on', channel=2, note=88, velocity=0, time=23),\n",
      "  Message('note_on', channel=2, note=78, velocity=87, time=1),\n",
      "  Message('note_on', channel=2, note=78, velocity=0, time=23),\n",
      "  Message('note_on', channel=2, note=88, velocity=87, time=1),\n",
      "  Message('note_on', channel=2, note=88, velocity=0, time=23),\n",
      "  Message('note_on', channel=2, note=78, velocity=87, time=1),\n",
      "  Message('note_on', channel=2, note=78, velocity=0, time=23),\n",
      "  Message('note_on', channel=2, note=88, velocity=87, time=1),\n",
      "  Message('note_on', channel=2, note=88, velocity=0, time=23),\n",
      "  Message('note_on', channel=2, note=78, velocity=87, time=1),\n",
      "  Message('note_on', channel=2, note=78, velocity=0, time=23),\n",
      "  Message('note_on', channel=2, note=86, velocity=87, time=1),\n",
      "  Message('note_on', channel=2, note=86, velocity=0, time=23),\n",
      "  Message('note_on', channel=2, note=78, velocity=87, time=1),\n",
      "  Message('note_on', channel=2, note=78, velocity=0, time=23),\n",
      "  Message('note_on', channel=2, note=86, velocity=87, time=1),\n",
      "  Message('note_on', channel=2, note=86, velocity=0, time=23),\n",
      "  Message('note_on', channel=2, note=78, velocity=87, time=1),\n",
      "  Message('note_on', channel=2, note=78, velocity=0, time=23),\n",
      "  Message('note_on', channel=2, note=86, velocity=87, time=1),\n",
      "  Message('note_on', channel=2, note=86, velocity=0, time=23),\n",
      "  Message('note_on', channel=2, note=78, velocity=87, time=1),\n",
      "  Message('note_on', channel=2, note=78, velocity=0, time=23),\n",
      "  Message('note_on', channel=2, note=86, velocity=87, time=1),\n",
      "  Message('note_on', channel=2, note=86, velocity=0, time=23),\n",
      "  Message('note_on', channel=2, note=78, velocity=87, time=1),\n",
      "  Message('note_on', channel=2, note=78, velocity=0, time=23),\n",
      "  Message('note_on', channel=2, note=86, velocity=87, time=1),\n",
      "  Message('note_on', channel=2, note=86, velocity=0, time=23),\n",
      "  Message('note_on', channel=2, note=76, velocity=87, time=1),\n",
      "  Message('note_on', channel=2, note=76, velocity=0, time=23),\n",
      "  Message('note_on', channel=2, note=86, velocity=87, time=1),\n",
      "  Message('note_on', channel=2, note=86, velocity=0, time=23),\n",
      "  Message('note_on', channel=2, note=76, velocity=87, time=1),\n",
      "  Message('note_on', channel=2, note=76, velocity=0, time=23),\n",
      "  Message('note_on', channel=2, note=86, velocity=87, time=1),\n",
      "  Message('note_on', channel=2, note=86, velocity=0, time=23),\n",
      "  Message('note_on', channel=2, note=76, velocity=87, time=1),\n",
      "  Message('note_on', channel=2, note=76, velocity=0, time=23),\n",
      "  Message('note_on', channel=2, note=86, velocity=87, time=1),\n",
      "  Message('note_on', channel=2, note=86, velocity=0, time=23),\n",
      "  Message('note_on', channel=2, note=76, velocity=87, time=1),\n",
      "  Message('note_on', channel=2, note=76, velocity=0, time=23),\n",
      "  Message('note_on', channel=2, note=85, velocity=87, time=1),\n",
      "  Message('note_on', channel=2, note=85, velocity=0, time=23),\n",
      "  Message('note_on', channel=2, note=76, velocity=87, time=1),\n",
      "  Message('note_on', channel=2, note=76, velocity=0, time=23),\n",
      "  Message('note_on', channel=2, note=85, velocity=87, time=1),\n",
      "  Message('note_on', channel=2, note=85, velocity=0, time=23),\n",
      "  Message('note_on', channel=2, note=76, velocity=87, time=1),\n",
      "  Message('note_on', channel=2, note=76, velocity=0, time=23),\n",
      "  Message('note_on', channel=2, note=85, velocity=87, time=1),\n",
      "  Message('note_on', channel=2, note=85, velocity=0, time=23),\n",
      "  Message('note_on', channel=2, note=76, velocity=87, time=1),\n",
      "  Message('note_on', channel=2, note=76, velocity=0, time=23),\n",
      "  Message('note_on', channel=2, note=85, velocity=87, time=1),\n",
      "  Message('note_on', channel=2, note=85, velocity=0, time=23),\n",
      "  Message('note_on', channel=2, note=76, velocity=87, time=1),\n",
      "  Message('note_on', channel=2, note=76, velocity=0, time=23),\n",
      "  Message('note_on', channel=2, note=85, velocity=87, time=1),\n",
      "  Message('note_on', channel=2, note=85, velocity=0, time=23),\n",
      "  Message('note_on', channel=2, note=74, velocity=87, time=1),\n",
      "  Message('note_on', channel=2, note=74, velocity=0, time=23),\n",
      "  Message('note_on', channel=2, note=85, velocity=87, time=1),\n",
      "  Message('note_on', channel=2, note=85, velocity=0, time=23),\n",
      "  Message('note_on', channel=2, note=74, velocity=87, time=1),\n",
      "  Message('note_on', channel=2, note=74, velocity=0, time=23),\n",
      "  Message('note_on', channel=2, note=85, velocity=87, time=1),\n",
      "  Message('note_on', channel=2, note=85, velocity=0, time=23),\n",
      "  Message('note_on', channel=2, note=74, velocity=87, time=1),\n",
      "  Message('note_on', channel=2, note=74, velocity=0, time=23),\n",
      "  Message('note_on', channel=2, note=85, velocity=87, time=1),\n",
      "  Message('note_on', channel=2, note=85, velocity=0, time=23),\n",
      "  Message('note_on', channel=2, note=74, velocity=87, time=1),\n",
      "  Message('note_on', channel=2, note=74, velocity=0, time=23),\n",
      "  Message('note_on', channel=2, note=83, velocity=87, time=1),\n",
      "  Message('note_on', channel=2, note=83, velocity=0, time=23),\n",
      "  Message('note_on', channel=2, note=74, velocity=87, time=1),\n",
      "  Message('note_on', channel=2, note=74, velocity=0, time=23),\n",
      "  Message('note_on', channel=2, note=83, velocity=87, time=1),\n",
      "  Message('note_on', channel=2, note=83, velocity=0, time=23),\n",
      "  Message('note_on', channel=2, note=74, velocity=87, time=1),\n",
      "  Message('note_on', channel=2, note=74, velocity=0, time=23),\n",
      "  Message('note_on', channel=2, note=83, velocity=87, time=1),\n",
      "  Message('note_on', channel=2, note=83, velocity=0, time=23),\n",
      "  Message('note_on', channel=2, note=74, velocity=87, time=1),\n",
      "  Message('note_on', channel=2, note=74, velocity=0, time=23),\n",
      "  Message('note_on', channel=2, note=83, velocity=87, time=1),\n",
      "  Message('note_on', channel=2, note=83, velocity=0, time=23),\n",
      "  Message('note_on', channel=2, note=74, velocity=87, time=1),\n",
      "  Message('note_on', channel=2, note=74, velocity=0, time=23),\n",
      "  Message('note_on', channel=2, note=83, velocity=87, time=1),\n",
      "  Message('note_on', channel=2, note=83, velocity=0, time=23),\n",
      "  Message('note_on', channel=2, note=73, velocity=87, time=1),\n",
      "  Message('note_on', channel=2, note=73, velocity=0, time=23),\n",
      "  Message('note_on', channel=2, note=83, velocity=87, time=1),\n",
      "  Message('note_on', channel=2, note=83, velocity=0, time=23),\n",
      "  Message('note_on', channel=2, note=73, velocity=87, time=1),\n",
      "  Message('note_on', channel=2, note=73, velocity=0, time=23),\n",
      "  Message('note_on', channel=2, note=83, velocity=87, time=1),\n",
      "  Message('note_on', channel=2, note=83, velocity=0, time=23),\n",
      "  Message('note_on', channel=2, note=73, velocity=87, time=1),\n",
      "  Message('note_on', channel=2, note=73, velocity=0, time=23),\n",
      "  Message('note_on', channel=2, note=83, velocity=87, time=1),\n",
      "  Message('note_on', channel=2, note=83, velocity=0, time=23),\n",
      "  Message('note_on', channel=2, note=73, velocity=87, time=1),\n",
      "  Message('note_on', channel=2, note=73, velocity=0, time=23),\n",
      "  Message('note_on', channel=2, note=81, velocity=87, time=1),\n",
      "  Message('note_on', channel=2, note=81, velocity=0, time=23),\n",
      "  Message('note_on', channel=2, note=75, velocity=87, time=1),\n",
      "  Message('note_on', channel=2, note=75, velocity=0, time=23),\n",
      "  Message('note_on', channel=2, note=81, velocity=87, time=1),\n",
      "  Message('note_on', channel=2, note=81, velocity=0, time=23),\n",
      "  Message('note_on', channel=2, note=75, velocity=87, time=1),\n",
      "  Message('note_on', channel=2, note=75, velocity=0, time=23),\n",
      "  Message('note_on', channel=2, note=81, velocity=87, time=1),\n",
      "  Message('note_on', channel=2, note=81, velocity=0, time=23),\n",
      "  Message('note_on', channel=2, note=75, velocity=87, time=1),\n",
      "  Message('note_on', channel=2, note=75, velocity=0, time=23),\n",
      "  Message('note_on', channel=2, note=81, velocity=87, time=1),\n",
      "  Message('note_on', channel=2, note=81, velocity=0, time=23),\n",
      "  Message('note_on', channel=2, note=75, velocity=87, time=1),\n",
      "  Message('note_on', channel=2, note=75, velocity=0, time=23),\n",
      "  Message('note_on', channel=2, note=80, velocity=87, time=1),\n",
      "  Message('note_on', channel=2, note=76, velocity=87, time=0),\n",
      "  Message('note_on', channel=2, note=71, velocity=87, time=0),\n",
      "  Message('note_on', channel=2, note=80, velocity=0, time=45),\n",
      "  Message('note_on', channel=2, note=76, velocity=0, time=0),\n",
      "  Message('note_on', channel=2, note=71, velocity=0, time=0),\n",
      "  Message('note_on', channel=2, note=80, velocity=87, time=51),\n",
      "  Message('note_on', channel=2, note=80, velocity=0, time=18),\n",
      "  Message('note_on', channel=2, note=78, velocity=87, time=0),\n",
      "  Message('note_on', channel=2, note=78, velocity=0, time=18),\n",
      "  Message('note_on', channel=2, note=80, velocity=87, time=0),\n",
      "  Message('note_on', channel=2, note=80, velocity=0, time=18),\n",
      "  Message('note_on', channel=2, note=78, velocity=87, time=0),\n",
      "  Message('note_on', channel=2, note=78, velocity=0, time=13),\n",
      "  Message('note_on', channel=2, note=76, velocity=87, time=5),\n",
      "  Message('note_on', channel=2, note=76, velocity=0, time=12),\n",
      "  Message('note_on', channel=2, note=78, velocity=87, time=0),\n",
      "  Message('note_on', channel=2, note=78, velocity=0, time=12),\n",
      "  Message('note_on', channel=2, note=76, velocity=87, time=0),\n",
      "  Message('note_on', channel=2, note=76, velocity=0, time=45),\n",
      "  Message('note_on', channel=2, note=74, velocity=87, time=51),\n",
      "  Message('note_on', channel=2, note=68, velocity=87, time=0),\n",
      "  Message('note_on', channel=2, note=64, velocity=87, time=0),\n",
      "  Message('note_on', channel=2, note=74, velocity=0, time=45),\n",
      "  Message('note_on', channel=2, note=68, velocity=0, time=0),\n",
      "  Message('note_on', channel=2, note=64, velocity=0, time=0),\n",
      "  Message('note_on', channel=2, note=73, velocity=87, time=51),\n",
      "  Message('note_on', channel=2, note=69, velocity=87, time=0),\n",
      "  Message('note_on', channel=2, note=64, velocity=87, time=0),\n",
      "  Message('note_on', channel=2, note=73, velocity=0, time=45),\n",
      "  Message('note_on', channel=2, note=69, velocity=0, time=0),\n",
      "  Message('note_on', channel=2, note=64, velocity=0, time=0),\n",
      "  Message('note_on', channel=2, note=83, velocity=87, time=51),\n",
      "  Message('note_on', channel=2, note=83, velocity=0, time=23),\n",
      "  Message('note_on', channel=2, note=81, velocity=87, time=1),\n",
      "  Message('note_on', channel=2, note=81, velocity=0, time=23),\n",
      "  Message('note_on', channel=2, note=80, velocity=87, time=1),\n",
      "  Message('note_on', channel=2, note=80, velocity=0, time=23),\n",
      "  Message('note_on', channel=2, note=81, velocity=87, time=1),\n",
      "  Message('note_on', channel=2, note=81, velocity=0, time=23),\n",
      "  Message('note_on', channel=2, note=80, velocity=87, time=1),\n",
      "  Message('note_on', channel=2, note=80, velocity=0, time=23),\n",
      "  Message('note_on', channel=2, note=78, velocity=87, time=1),\n",
      "  Message('note_on', channel=2, note=78, velocity=0, time=23),\n",
      "  Message('note_on', channel=2, note=77, velocity=87, time=1),\n",
      "  Message('note_on', channel=2, note=77, velocity=0, time=23),\n",
      "  Message('note_on', channel=2, note=78, velocity=87, time=1),\n",
      "  Message('note_on', channel=2, note=78, velocity=0, time=23),\n",
      "  Message('note_on', channel=2, note=76, velocity=87, time=1),\n",
      "  Message('note_on', channel=2, note=76, velocity=0, time=23),\n",
      "  Message('note_on', channel=2, note=74, velocity=87, time=1),\n",
      "  Message('note_on', channel=2, note=74, velocity=0, time=23),\n",
      "  Message('note_on', channel=2, note=73, velocity=87, time=1),\n",
      "  Message('note_on', channel=2, note=73, velocity=0, time=23),\n",
      "  Message('note_on', channel=2, note=74, velocity=87, time=1),\n",
      "  Message('note_on', channel=2, note=74, velocity=0, time=23),\n",
      "  Message('note_on', channel=2, note=73, velocity=87, time=1),\n",
      "  Message('note_on', channel=2, note=73, velocity=0, time=45),\n",
      "  Message('note_on', channel=2, note=76, velocity=87, time=3),\n",
      "  Message('note_on', channel=2, note=76, velocity=0, time=23),\n",
      "  Message('note_on', channel=2, note=73, velocity=87, time=1),\n",
      "  Message('note_on', channel=2, note=73, velocity=0, time=23),\n",
      "  Message('note_on', channel=2, note=81, velocity=87, time=1),\n",
      "  Message('note_on', channel=2, note=81, velocity=0, time=20),\n",
      "  Message('note_on', channel=2, note=81, velocity=87, time=28),\n",
      "  Message('note_on', channel=2, note=81, velocity=0, time=20),\n",
      "  Message('note_on', channel=2, note=71, velocity=87, time=28),\n",
      "  Message('note_on', channel=2, note=71, velocity=0, time=45),\n",
      "  Message('note_on', channel=2, note=74, velocity=87, time=3),\n",
      "  Message('note_on', channel=2, note=74, velocity=0, time=23),\n",
      "  Message('note_on', channel=2, note=71, velocity=87, time=1),\n",
      "  Message('note_on', channel=2, note=71, velocity=0, time=23),\n",
      "  Message('note_on', channel=2, note=80, velocity=87, time=1),\n",
      "  Message('note_on', channel=2, note=80, velocity=0, time=20),\n",
      "  Message('note_on', channel=2, note=80, velocity=87, time=28),\n",
      "  Message('note_on', channel=2, note=80, velocity=0, time=20),\n",
      "  Message('note_on', channel=2, note=81, velocity=87, time=28),\n",
      "  Message('note_on', channel=2, note=81, velocity=0, time=23),\n",
      "  Message('note_on', channel=2, note=76, velocity=87, time=1),\n",
      "  Message('note_on', channel=2, note=76, velocity=0, time=23),\n",
      "  Message('note_on', channel=2, note=73, velocity=87, time=1),\n",
      "  Message('note_on', channel=2, note=73, velocity=0, time=23),\n",
      "  Message('note_on', channel=2, note=76, velocity=87, time=1),\n",
      "  Message('note_on', channel=2, note=76, velocity=0, time=23),\n",
      "  Message('note_on', channel=2, note=81, velocity=87, time=1),\n",
      "  Message('note_on', channel=2, note=81, velocity=0, time=20),\n",
      "  Message('note_on', channel=2, note=85, velocity=87, time=28),\n",
      "  Message('note_on', channel=2, note=85, velocity=0, time=20),\n",
      "  Message('note_on', channel=2, note=73, velocity=87, time=28),\n",
      "  Message('note_on', channel=2, note=76, velocity=87, time=8),\n",
      "  Message('note_on', channel=2, note=81, velocity=87, time=8),\n",
      "  Message('note_on', channel=2, note=81, velocity=0, time=77),\n",
      "  Message('note_on', channel=2, note=76, velocity=0, time=0),\n",
      "  Message('note_on', channel=2, note=73, velocity=0, time=0),\n",
      "  Message('note_on', channel=2, note=69, velocity=78, time=99),\n",
      "  Message('note_on', channel=2, note=69, velocity=0, time=45),\n",
      "  Message('note_on', channel=2, note=68, velocity=78, time=3),\n",
      "  Message('note_on', channel=2, note=68, velocity=0, time=45),\n",
      "  Message('note_on', channel=2, note=66, velocity=78, time=3),\n",
      "  Message('note_on', channel=2, note=66, velocity=0, time=45),\n",
      "  Message('note_on', channel=2, note=64, velocity=78, time=3),\n",
      "  Message('note_on', channel=2, note=64, velocity=0, time=45),\n",
      "  Message('note_on', channel=2, note=69, velocity=78, time=3),\n",
      "  Message('note_on', channel=2, note=69, velocity=0, time=39),\n",
      "  Message('note_on', channel=2, note=71, velocity=78, time=57),\n",
      "  Message('note_on', channel=2, note=64, velocity=78, time=0),\n",
      "  Message('note_on', channel=2, note=71, velocity=0, time=39),\n",
      "  Message('note_on', channel=2, note=64, velocity=0, time=0),\n",
      "  Message('note_on', channel=2, note=71, velocity=96, time=57),\n",
      "  Message('note_on', channel=2, note=64, velocity=96, time=0),\n",
      "  Message('note_on', channel=2, note=71, velocity=0, time=96),\n",
      "  Message('note_on', channel=2, note=64, velocity=0, time=0),\n",
      "  Message('note_on', channel=2, note=74, velocity=82, time=0),\n",
      "  Message('note_on', channel=2, note=74, velocity=0, time=45),\n",
      "  Message('note_on', channel=2, note=73, velocity=81, time=3),\n",
      "  Message('note_on', channel=2, note=73, velocity=0, time=45),\n",
      "  Message('note_on', channel=2, note=71, velocity=80, time=3),\n",
      "  Message('note_on', channel=2, note=68, velocity=80, time=0),\n",
      "  Message('note_on', channel=2, note=71, velocity=0, time=89),\n",
      "  Message('note_on', channel=2, note=68, velocity=0, time=0),\n",
      "  Message('note_on', channel=2, note=69, velocity=78, time=103),\n",
      "  Message('note_on', channel=2, note=69, velocity=0, time=45),\n",
      "  Message('note_on', channel=2, note=68, velocity=78, time=3),\n",
      "  Message('note_on', channel=2, note=68, velocity=0, time=45),\n",
      "  Message('note_on', channel=2, note=66, velocity=78, time=3),\n",
      "  Message('note_on', channel=2, note=66, velocity=0, time=45),\n",
      "  Message('note_on', channel=2, note=64, velocity=78, time=3),\n",
      "  Message('note_on', channel=2, note=64, velocity=0, time=45),\n",
      "  Message('note_on', channel=2, note=69, velocity=78, time=3),\n",
      "  Message('note_on', channel=2, note=69, velocity=0, time=89),\n",
      "  Message('note_on', channel=2, note=76, velocity=80, time=7),\n",
      "  Message('note_on', channel=2, note=71, velocity=80, time=0),\n",
      "  Message('note_on', channel=2, note=76, velocity=0, time=39),\n",
      "  Message('note_on', channel=2, note=71, velocity=0, time=0),\n",
      "  Message('note_on', channel=2, note=74, velocity=82, time=57),\n",
      "  Message('note_on', channel=2, note=71, velocity=82, time=0),\n",
      "  Message('note_on', channel=2, note=74, velocity=0, time=89),\n",
      "  Message('note_on', channel=2, note=71, velocity=0, time=0),\n",
      "  Message('note_on', channel=2, note=73, velocity=80, time=7),\n",
      "  Message('note_on', channel=2, note=73, velocity=0, time=18),\n",
      "  Message('note_on', channel=2, note=74, velocity=80, time=0),\n",
      "  Message('note_on', channel=2, note=74, velocity=0, time=18),\n",
      "  Message('note_on', channel=2, note=73, velocity=80, time=0),\n",
      "  Message('note_on', channel=2, note=73, velocity=0, time=18),\n",
      "  Message('note_on', channel=2, note=74, velocity=80, time=0),\n",
      "  Message('note_on', channel=2, note=74, velocity=0, time=18),\n",
      "  Message('note_on', channel=2, note=73, velocity=80, time=0),\n",
      "  Message('note_on', channel=2, note=73, velocity=0, time=17),\n",
      "  Message('note_on', channel=2, note=71, velocity=79, time=7),\n",
      "  Message('note_on', channel=2, note=68, velocity=79, time=0),\n",
      "  Message('note_on', channel=2, note=71, velocity=0, time=89),\n",
      "  Message('note_on', channel=2, note=68, velocity=0, time=0),\n",
      "  Message('note_on', channel=2, note=69, velocity=78, time=103),\n",
      "  Message('note_on', channel=2, note=69, velocity=0, time=45),\n",
      "  Message('note_on', channel=2, note=68, velocity=78, time=3),\n",
      "  Message('note_on', channel=2, note=68, velocity=0, time=45),\n",
      "  Message('note_on', channel=2, note=66, velocity=78, time=3),\n",
      "  Message('note_on', channel=2, note=66, velocity=0, time=12),\n",
      "  Message('note_on', channel=2, note=67, velocity=78, time=0),\n",
      "  Message('note_on', channel=2, note=67, velocity=0, time=12),\n",
      "  Message('note_on', channel=2, note=66, velocity=78, time=0),\n",
      "  Message('note_on', channel=2, note=66, velocity=0, time=21),\n",
      "  Message('note_on', channel=2, note=64, velocity=78, time=3),\n",
      "  Message('note_on', channel=2, note=64, velocity=0, time=45),\n",
      "  Message('note_on', channel=2, note=69, velocity=78, time=3),\n",
      "  Message('note_on', channel=2, note=69, velocity=0, time=39),\n",
      "  Message('note_on', channel=2, note=71, velocity=78, time=57),\n",
      "  Message('note_on', channel=2, note=64, velocity=78, time=0),\n",
      "  Message('note_on', channel=2, note=71, velocity=0, time=39),\n",
      "  Message('note_on', channel=2, note=64, velocity=0, time=0),\n",
      "  Message('note_on', channel=2, note=71, velocity=96, time=57),\n",
      "  Message('note_on', channel=2, note=64, velocity=96, time=0),\n",
      "  Message('note_on', channel=2, note=71, velocity=0, time=96),\n",
      "  Message('note_on', channel=2, note=64, velocity=0, time=0),\n",
      "  Message('note_on', channel=2, note=74, velocity=82, time=0),\n",
      "  Message('note_on', channel=2, note=74, velocity=0, time=45),\n",
      "  Message('note_on', channel=2, note=73, velocity=81, time=3),\n",
      "  Message('note_on', channel=2, note=73, velocity=0, time=45),\n",
      "  Message('note_on', channel=2, note=71, velocity=80, time=3),\n",
      "  Message('note_on', channel=2, note=68, velocity=80, time=0),\n",
      "  Message('note_on', channel=2, note=71, velocity=0, time=89),\n",
      "  Message('note_on', channel=2, note=68, velocity=0, time=0),\n",
      "  Message('note_on', channel=2, note=76, velocity=78, time=103),\n",
      "  Message('note_on', channel=2, note=76, velocity=0, time=67),\n",
      "  Message('note_on', channel=2, note=73, velocity=79, time=5),\n",
      "  Message('note_on', channel=2, note=73, velocity=0, time=23),\n",
      "  Message('note_on', channel=2, note=71, velocity=80, time=1),\n",
      "  Message('note_on', channel=2, note=71, velocity=0, time=67),\n",
      "  Message('note_on', channel=2, note=74, velocity=81, time=5),\n",
      "  Message('note_on', channel=2, note=74, velocity=0, time=23),\n",
      "  Message('note_on', channel=2, note=69, velocity=82, time=1),\n",
      "  Message('note_on', channel=2, note=69, velocity=0, time=89),\n",
      "  Message('note_on', channel=2, note=73, velocity=80, time=7),\n",
      "  Message('note_on', channel=2, note=73, velocity=0, time=45),\n",
      "  Message('note_on', channel=2, note=71, velocity=80, time=3),\n",
      "  Message('note_on', channel=2, note=71, velocity=0, time=45),\n",
      "  Message('note_on', channel=2, note=69, velocity=79, time=3),\n",
      "  Message('note_on', channel=2, note=69, velocity=0, time=89),\n",
      "  Message('note_on', channel=2, note=69, velocity=78, time=295),\n",
      "  Message('note_on', channel=2, note=69, velocity=0, time=45),\n",
      "  Message('note_on', channel=2, note=68, velocity=78, time=3),\n",
      "  Message('note_on', channel=2, note=68, velocity=0, time=45),\n",
      "  Message('note_on', channel=2, note=66, velocity=78, time=3),\n",
      "  Message('note_on', channel=2, note=66, velocity=0, time=45),\n",
      "  Message('note_on', channel=2, note=64, velocity=78, time=3),\n",
      "  Message('note_on', channel=2, note=64, velocity=0, time=45),\n",
      "  Message('note_on', channel=2, note=69, velocity=78, time=3),\n",
      "  Message('note_on', channel=2, note=69, velocity=0, time=39),\n",
      "  Message('note_on', channel=2, note=71, velocity=79, time=57),\n",
      "  Message('note_on', channel=2, note=71, velocity=0, time=39),\n",
      "  Message('note_on', channel=2, note=73, velocity=96, time=57),\n",
      "  Message('note_on', channel=2, note=73, velocity=0, time=237),\n",
      "  Message('note_on', channel=2, note=76, velocity=81, time=3),\n",
      "  Message('note_on', channel=2, note=76, velocity=0, time=45),\n",
      "  Message('note_on', channel=2, note=74, velocity=80, time=3),\n",
      "  Message('note_on', channel=2, note=74, velocity=0, time=45),\n",
      "  Message('note_on', channel=2, note=71, velocity=79, time=3),\n",
      "  Message('note_on', channel=2, note=71, velocity=0, time=45),\n",
      "  Message('note_on', channel=2, note=69, velocity=78, time=3),\n",
      "  Message('note_on', channel=2, note=69, velocity=0, time=45),\n",
      "  Message('note_on', channel=2, note=68, velocity=78, time=3),\n",
      "  Message('note_on', channel=2, note=68, velocity=0, time=45),\n",
      "  Message('note_on', channel=2, note=66, velocity=78, time=3),\n",
      "  Message('note_on', channel=2, note=66, velocity=0, time=45),\n",
      "  Message('note_on', channel=2, note=64, velocity=78, time=3),\n",
      "  Message('note_on', channel=2, note=64, velocity=0, time=45),\n",
      "  Message('note_on', channel=2, note=69, velocity=78, time=3),\n",
      "  Message('note_on', channel=2, note=69, velocity=0, time=39),\n",
      "  Message('note_on', channel=2, note=71, velocity=78, time=57),\n",
      "  Message('note_on', channel=2, note=71, velocity=0, time=39),\n",
      "  Message('note_on', channel=2, note=74, velocity=95, time=57),\n",
      "  Message('note_on', channel=2, note=74, velocity=0, time=192),\n",
      "  Message('note_on', channel=2, note=73, velocity=82, time=0),\n",
      "  Message('note_on', channel=2, note=73, velocity=0, time=67),\n",
      "  Message('note_on', channel=2, note=74, velocity=80, time=5),\n",
      "  Message('note_on', channel=2, note=74, velocity=0, time=23),\n",
      "  Message('note_on', channel=2, note=71, velocity=80, time=1),\n",
      "  Message('note_on', channel=2, note=71, velocity=0, time=67),\n",
      "  Message('note_on', channel=2, note=73, velocity=78, time=5),\n",
      "  Message('note_on', channel=2, note=73, velocity=0, time=23),\n",
      "  Message('note_on', channel=2, note=69, velocity=78, time=1),\n",
      "  Message('note_on', channel=2, note=69, velocity=0, time=45),\n",
      "  Message('note_on', channel=2, note=68, velocity=78, time=3),\n",
      "  Message('note_on', channel=2, note=68, velocity=0, time=45),\n",
      "  Message('note_on', channel=2, note=66, velocity=78, time=3),\n",
      "  Message('note_on', channel=2, note=66, velocity=0, time=12),\n",
      "  Message('note_on', channel=2, note=67, velocity=78, time=0),\n",
      "  Message('note_on', channel=2, note=67, velocity=0, time=12),\n",
      "  Message('note_on', channel=2, note=66, velocity=78, time=0),\n",
      "  Message('note_on', channel=2, note=66, velocity=0, time=21),\n",
      "  Message('note_on', channel=2, note=64, velocity=78, time=3),\n",
      "  Message('note_on', channel=2, note=64, velocity=0, time=45),\n",
      "  Message('note_on', channel=2, note=69, velocity=78, time=3),\n",
      "  Message('note_on', channel=2, note=69, velocity=0, time=39),\n",
      "  Message('note_on', channel=2, note=71, velocity=78, time=57),\n",
      "  Message('note_on', channel=2, note=71, velocity=0, time=39),\n",
      "  Message('note_on', channel=2, note=73, velocity=95, time=57),\n",
      "  Message('note_on', channel=2, note=73, velocity=0, time=237),\n",
      "  Message('note_on', channel=2, note=76, velocity=81, time=3),\n",
      "  Message('note_on', channel=2, note=76, velocity=0, time=45),\n",
      "  Message('note_on', channel=2, note=74, velocity=81, time=3),\n",
      "  Message('note_on', channel=2, note=74, velocity=0, time=45),\n",
      "  Message('note_on', channel=2, note=71, velocity=81, time=3),\n",
      "  Message('note_on', channel=2, note=71, velocity=0, time=45),\n",
      "  Message('note_on', channel=2, note=69, velocity=82, time=3),\n",
      "  Message('note_on', channel=2, note=69, velocity=0, time=89),\n",
      "  Message('note_on', channel=2, note=57, velocity=73, time=295),\n",
      "  Message('note_on', channel=2, note=57, velocity=0, time=23),\n",
      "  Message('note_on', channel=2, note=56, velocity=73, time=1),\n",
      "  Message('note_on', channel=2, note=56, velocity=0, time=23),\n",
      "  Message('note_on', channel=2, note=57, velocity=73, time=1),\n",
      "  Message('note_on', channel=2, note=57, velocity=0, time=23),\n",
      "  Message('note_on', channel=2, note=56, velocity=73, time=1),\n",
      "  Message('note_on', channel=2, note=56, velocity=0, time=23),\n",
      "  Message('note_on', channel=2, note=57, velocity=73, time=1),\n",
      "  Message('note_on', channel=2, note=57, velocity=0, time=23),\n",
      "  Message('note_on', channel=2, note=56, velocity=73, time=1),\n",
      "  Message('note_on', channel=2, note=56, velocity=0, time=23),\n",
      "  Message('note_on', channel=2, note=57, velocity=73, time=1),\n",
      "  Message('note_on', channel=2, note=57, velocity=0, time=23),\n",
      "  Message('note_on', channel=2, note=56, velocity=73, time=1),\n",
      "  Message('note_on', channel=2, note=56, velocity=0, time=23),\n",
      "  Message('note_on', channel=2, note=57, velocity=74, time=1),\n",
      "  Message('note_on', channel=2, note=57, velocity=0, time=23),\n",
      "  Message('note_on', channel=2, note=59, velocity=74, time=1),\n",
      "  Message('note_on', channel=2, note=59, velocity=0, time=23),\n",
      "  Message('note_on', channel=2, note=61, velocity=74, time=1),\n",
      "  Message('note_on', channel=2, note=61, velocity=0, time=23),\n",
      "  Message('note_on', channel=2, note=62, velocity=74, time=1),\n",
      "  Message('note_on', channel=2, note=62, velocity=0, time=23),\n",
      "  Message('note_on', channel=2, note=64, velocity=74, time=1),\n",
      "  Message('note_on', channel=2, note=64, velocity=0, time=23),\n",
      "  Message('note_on', channel=2, note=66, velocity=74, time=1),\n",
      "  Message('note_on', channel=2, note=66, velocity=0, time=23),\n",
      "  Message('note_on', channel=2, note=68, velocity=74, time=1),\n",
      "  Message('note_on', channel=2, note=68, velocity=0, time=23),\n",
      "  Message('note_on', channel=2, note=69, velocity=75, time=1),\n",
      "  Message('note_on', channel=2, note=69, velocity=0, time=23),\n",
      "  Message('note_on', channel=2, note=69, velocity=75, time=1),\n",
      "  Message('note_on', channel=2, note=69, velocity=0, time=192),\n",
      "  Message('note_on', channel=2, note=67, velocity=76, time=0),\n",
      "  Message('note_on', channel=2, note=67, velocity=0, time=67),\n",
      "  Message('note_on', channel=2, note=66, velocity=76, time=5),\n",
      "  Message('note_on', channel=2, note=66, velocity=0, time=24),\n",
      "  Message('note_on', channel=2, note=64, velocity=76, time=0),\n",
      "  Message('note_on', channel=2, note=64, velocity=0, time=29),\n",
      "  Message('note_on', channel=2, note=62, velocity=77, time=43),\n",
      "  Message('note_on', channel=2, note=62, velocity=0, time=23),\n",
      "  Message('note_on', channel=2, note=61, velocity=77, time=1),\n",
      "  Message('note_on', channel=2, note=61, velocity=0, time=23),\n",
      "  Message('note_on', channel=2, note=60, velocity=77, time=1),\n",
      "  Message('note_on', channel=2, note=60, velocity=0, time=23),\n",
      "  Message('note_on', channel=2, note=61, velocity=77, time=1),\n",
      "  Message('note_on', channel=2, note=61, velocity=0, time=23),\n",
      "  Message('note_on', channel=2, note=60, velocity=78, time=1),\n",
      "  Message('note_on', channel=2, note=60, velocity=0, time=23),\n",
      "  Message('note_on', channel=2, note=61, velocity=78, time=1),\n",
      "  Message('note_on', channel=2, note=61, velocity=0, time=23),\n",
      "  Message('note_on', channel=2, note=60, velocity=78, time=1),\n",
      "  Message('note_on', channel=2, note=60, velocity=0, time=23),\n",
      "  Message('note_on', channel=2, note=61, velocity=78, time=1),\n",
      "  Message('note_on', channel=2, note=61, velocity=0, time=23),\n",
      "  Message('note_on', channel=2, note=60, velocity=78, time=1),\n",
      "  Message('note_on', channel=2, note=60, velocity=0, time=23),\n",
      "  Message('note_on', channel=2, note=61, velocity=78, time=1),\n",
      "  Message('note_on', channel=2, note=61, velocity=0, time=23),\n",
      "  Message('note_on', channel=2, note=62, velocity=78, time=1),\n",
      "  Message('note_on', channel=2, note=62, velocity=0, time=23),\n",
      "  Message('note_on', channel=2, note=64, velocity=79, time=1),\n",
      "  Message('note_on', channel=2, note=64, velocity=0, time=23),\n",
      "  Message('note_on', channel=2, note=66, velocity=79, time=1),\n",
      "  Message('note_on', channel=2, note=66, velocity=0, time=23),\n",
      "  Message('note_on', channel=2, note=67, velocity=79, time=1),\n",
      "  Message('note_on', channel=2, note=67, velocity=0, time=23),\n",
      "  Message('note_on', channel=2, note=69, velocity=79, time=1),\n",
      "  Message('note_on', channel=2, note=69, velocity=0, time=23),\n",
      "  Message('note_on', channel=2, note=71, velocity=79, time=1),\n",
      "  Message('note_on', channel=2, note=71, velocity=0, time=23),\n",
      "  Message('note_on', channel=2, note=73, velocity=79, time=1),\n",
      "  Message('note_on', channel=2, note=73, velocity=0, time=23),\n",
      "  Message('note_on', channel=2, note=73, velocity=79, time=1),\n",
      "  Message('note_on', channel=2, note=73, velocity=0, time=192),\n",
      "  Message('note_on', channel=2, note=71, velocity=81, time=0),\n",
      "  Message('note_on', channel=2, note=71, velocity=0, time=67),\n",
      "  Message('note_on', channel=2, note=69, velocity=81, time=5),\n",
      "  Message('note_on', channel=2, note=69, velocity=0, time=24),\n",
      "  Message('note_on', channel=2, note=67, velocity=81, time=0),\n",
      "  Message('note_on', channel=2, note=67, velocity=0, time=29),\n",
      "  Message('note_on', channel=2, note=66, velocity=82, time=43),\n",
      "  Message('note_on', channel=2, note=66, velocity=0, time=23),\n",
      "  Message('note_on', channel=2, note=64, velocity=82, time=1),\n",
      "  Message('note_on', channel=2, note=64, velocity=0, time=23),\n",
      "  Message('note_on', channel=2, note=63, velocity=82, time=1),\n",
      "  Message('note_on', channel=2, note=63, velocity=0, time=23),\n",
      "  Message('note_on', channel=2, note=64, velocity=82, time=1),\n",
      "  Message('note_on', channel=2, note=64, velocity=0, time=23),\n",
      "  Message('note_on', channel=2, note=63, velocity=82, time=1),\n",
      "  Message('note_on', channel=2, note=63, velocity=0, time=23),\n",
      "  Message('note_on', channel=2, note=64, velocity=82, time=1),\n",
      "  Message('note_on', channel=2, note=64, velocity=0, time=23),\n",
      "  Message('note_on', channel=2, note=63, velocity=83, time=1),\n",
      "  Message('note_on', channel=2, note=63, velocity=0, time=23),\n",
      "  Message('note_on', channel=2, note=64, velocity=83, time=1),\n",
      "  Message('note_on', channel=2, note=64, velocity=0, time=23),\n",
      "  Message('note_on', channel=2, note=63, velocity=83, time=1),\n",
      "  Message('note_on', channel=2, note=63, velocity=0, time=23),\n",
      "  Message('note_on', channel=2, note=64, velocity=83, time=1),\n",
      "  Message('note_on', channel=2, note=64, velocity=0, time=23),\n",
      "  Message('note_on', channel=2, note=66, velocity=83, time=1),\n",
      "  Message('note_on', channel=2, note=66, velocity=0, time=23),\n",
      "  Message('note_on', channel=2, note=67, velocity=83, time=1),\n",
      "  Message('note_on', channel=2, note=67, velocity=0, time=23),\n",
      "  Message('note_on', channel=2, note=69, velocity=83, time=1),\n",
      "  Message('note_on', channel=2, note=69, velocity=0, time=23),\n",
      "  Message('note_on', channel=2, note=71, velocity=84, time=1),\n",
      "  Message('note_on', channel=2, note=71, velocity=0, time=23),\n",
      "  Message('note_on', channel=2, note=73, velocity=84, time=1),\n",
      "  Message('note_on', channel=2, note=73, velocity=0, time=23),\n",
      "  Message('note_on', channel=2, note=74, velocity=84, time=1),\n",
      "  Message('note_on', channel=2, note=74, velocity=0, time=23),\n",
      "  Message('note_on', channel=2, note=76, velocity=84, time=1),\n",
      "  Message('note_on', channel=2, note=76, velocity=0, time=23),\n",
      "  Message('note_on', channel=2, note=76, velocity=84, time=1),\n",
      "  Message('note_on', channel=2, note=76, velocity=0, time=192),\n",
      "  Message('note_on', channel=2, note=74, velocity=85, time=0),\n",
      "  Message('note_on', channel=2, note=74, velocity=0, time=67),\n",
      "  Message('note_on', channel=2, note=73, velocity=86, time=5),\n",
      "  Message('note_on', channel=2, note=73, velocity=0, time=24),\n",
      "  Message('note_on', channel=2, note=71, velocity=86, time=0),\n",
      "  Message('note_on', channel=2, note=71, velocity=0, time=29),\n",
      "  Message('note_on', channel=2, note=69, velocity=86, time=43),\n",
      "  Message('note_on', channel=2, note=69, velocity=0, time=23),\n",
      "  Message('note_on', channel=2, note=68, velocity=87, time=1),\n",
      "  Message('note_on', channel=2, note=68, velocity=0, time=23),\n",
      "  Message('note_on', channel=2, note=67, velocity=87, time=1),\n",
      "  Message('note_on', channel=2, note=67, velocity=0, time=23),\n",
      "  Message('note_on', channel=2, note=68, velocity=87, time=1),\n",
      "  Message('note_on', channel=2, note=68, velocity=0, time=23),\n",
      "  Message('note_on', channel=2, note=67, velocity=87, time=1),\n",
      "  Message('note_on', channel=2, note=67, velocity=0, time=23),\n",
      "  Message('note_on', channel=2, note=68, velocity=87, time=1),\n",
      "  Message('note_on', channel=2, note=68, velocity=0, time=23),\n",
      "  Message('note_on', channel=2, note=67, velocity=87, time=1),\n",
      "  Message('note_on', channel=2, note=67, velocity=0, time=23),\n",
      "  Message('note_on', channel=2, note=68, velocity=87, time=1),\n",
      "  Message('note_on', channel=2, note=68, velocity=0, time=23),\n",
      "  Message('note_on', channel=2, note=67, velocity=87, time=1),\n",
      "  Message('note_on', channel=2, note=67, velocity=0, time=23),\n",
      "  Message('note_on', channel=2, note=68, velocity=87, time=1),\n",
      "  Message('note_on', channel=2, note=68, velocity=0, time=23),\n",
      "  Message('note_on', channel=2, note=69, velocity=87, time=1),\n",
      "  Message('note_on', channel=2, note=69, velocity=0, time=23),\n",
      "  Message('note_on', channel=2, note=71, velocity=87, time=1),\n",
      "  Message('note_on', channel=2, note=71, velocity=0, time=23),\n",
      "  Message('note_on', channel=2, note=73, velocity=87, time=1),\n",
      "  Message('note_on', channel=2, note=73, velocity=0, time=23),\n",
      "  Message('note_on', channel=2, note=74, velocity=87, time=1),\n",
      "  Message('note_on', channel=2, note=74, velocity=0, time=23),\n",
      "  Message('note_on', channel=2, note=76, velocity=87, time=1),\n",
      "  Message('note_on', channel=2, note=76, velocity=0, time=23),\n",
      "  Message('note_on', channel=2, note=78, velocity=87, time=1),\n",
      "  Message('note_on', channel=2, note=78, velocity=0, time=23),\n",
      "  Message('note_on', channel=2, note=80, velocity=87, time=1),\n",
      "  Message('note_on', channel=2, note=80, velocity=0, time=23),\n",
      "  Message('note_on', channel=2, note=81, velocity=87, time=1),\n",
      "  Message('note_on', channel=2, note=81, velocity=0, time=45),\n",
      "  Message('note_on', channel=2, note=81, velocity=87, time=3),\n",
      "  Message('note_on', channel=2, note=76, velocity=87, time=0),\n",
      "  Message('note_on', channel=2, note=73, velocity=87, time=0),\n",
      "  Message('note_on', channel=2, note=69, velocity=87, time=0),\n",
      "  Message('note_on', channel=2, note=81, velocity=0, time=89),\n",
      "  Message('note_on', channel=2, note=76, velocity=0, time=0),\n",
      "  Message('note_on', channel=2, note=73, velocity=0, time=0),\n",
      "  Message('note_on', channel=2, note=69, velocity=0, time=0),\n",
      "  Message('note_on', channel=2, note=81, velocity=87, time=7),\n",
      "  Message('note_on', channel=2, note=76, velocity=87, time=0),\n",
      "  Message('note_on', channel=2, note=73, velocity=87, time=0),\n",
      "  Message('note_on', channel=2, note=69, velocity=87, time=0),\n",
      "  Message('note_on', channel=2, note=81, velocity=0, time=89),\n",
      "  Message('note_on', channel=2, note=76, velocity=0, time=0),\n",
      "  Message('note_on', channel=2, note=73, velocity=0, time=0),\n",
      "  Message('note_on', channel=2, note=69, velocity=0, time=0),\n",
      "  Message('note_on', channel=2, note=81, velocity=87, time=7),\n",
      "  Message('note_on', channel=2, note=76, velocity=87, time=0),\n",
      "  Message('note_on', channel=2, note=73, velocity=87, time=0),\n",
      "  Message('note_on', channel=2, note=69, velocity=87, time=0),\n",
      "  Message('note_on', channel=2, note=81, velocity=0, time=89),\n",
      "  Message('note_on', channel=2, note=76, velocity=0, time=0),\n",
      "  Message('note_on', channel=2, note=73, velocity=0, time=0),\n",
      "  Message('note_on', channel=2, note=69, velocity=0, time=0),\n",
      "  Message('note_on', channel=2, note=81, velocity=87, time=7),\n",
      "  Message('note_on', channel=2, note=76, velocity=87, time=0),\n",
      "  Message('note_on', channel=2, note=73, velocity=87, time=0),\n",
      "  Message('note_on', channel=2, note=69, velocity=87, time=0),\n",
      "  Message('note_on', channel=2, note=76, velocity=0, time=48),\n",
      "  Message('note_on', channel=2, note=78, velocity=87, time=0),\n",
      "  Message('note_on', channel=2, note=81, velocity=0, time=45),\n",
      "  Message('note_on', channel=2, note=78, velocity=0, time=0),\n",
      "  Message('note_on', channel=2, note=73, velocity=0, time=0),\n",
      "  Message('note_on', channel=2, note=69, velocity=0, time=0),\n",
      "  Message('note_on', channel=2, note=85, velocity=87, time=3),\n",
      "  Message('note_on', channel=2, note=81, velocity=87, time=0),\n",
      "  Message('note_on', channel=2, note=78, velocity=87, time=0),\n",
      "  Message('note_on', channel=2, note=73, velocity=87, time=0),\n",
      "  Message('note_on', channel=2, note=85, velocity=0, time=89),\n",
      "  Message('note_on', channel=2, note=81, velocity=0, time=0),\n",
      "  Message('note_on', channel=2, note=78, velocity=0, time=0),\n",
      "  Message('note_on', channel=2, note=73, velocity=0, time=0),\n",
      "  Message('note_on', channel=2, note=85, velocity=87, time=7),\n",
      "  Message('note_on', channel=2, note=81, velocity=87, time=0),\n",
      "  Message('note_on', channel=2, note=78, velocity=87, time=0),\n",
      "  Message('note_on', channel=2, note=73, velocity=87, time=0),\n",
      "  Message('note_on', channel=2, note=85, velocity=0, time=89),\n",
      "  Message('note_on', channel=2, note=81, velocity=0, time=0),\n",
      "  Message('note_on', channel=2, note=78, velocity=0, time=0),\n",
      "  Message('note_on', channel=2, note=73, velocity=0, time=0),\n",
      "  Message('note_on', channel=2, note=85, velocity=87, time=7),\n",
      "  Message('note_on', channel=2, note=81, velocity=87, time=0),\n",
      "  Message('note_on', channel=2, note=78, velocity=87, time=0),\n",
      "  Message('note_on', channel=2, note=73, velocity=87, time=0),\n",
      "  Message('note_on', channel=2, note=85, velocity=0, time=89),\n",
      "  Message('note_on', channel=2, note=81, velocity=0, time=0),\n",
      "  Message('note_on', channel=2, note=78, velocity=0, time=0),\n",
      "  Message('note_on', channel=2, note=73, velocity=0, time=0),\n",
      "  Message('note_on', channel=2, note=85, velocity=87, time=7),\n",
      "  Message('note_on', channel=2, note=81, velocity=87, time=0),\n",
      "  Message('note_on', channel=2, note=78, velocity=87, time=0),\n",
      "  Message('note_on', channel=2, note=73, velocity=87, time=0),\n",
      "  Message('note_on', channel=2, note=85, velocity=0, time=48),\n",
      "  Message('note_on', channel=2, note=73, velocity=0, time=0),\n",
      "  Message('note_on', channel=2, note=86, velocity=87, time=0),\n",
      "  Message('note_on', channel=2, note=74, velocity=87, time=0),\n",
      "  Message('note_on', channel=2, note=86, velocity=0, time=45),\n",
      "  Message('note_on', channel=2, note=81, velocity=0, time=0),\n",
      "  Message('note_on', channel=2, note=78, velocity=0, time=0),\n",
      "  Message('note_on', channel=2, note=74, velocity=0, time=0),\n",
      "  Message('note_on', channel=2, note=86, velocity=87, time=3),\n",
      "  Message('note_on', channel=2, note=81, velocity=87, time=0),\n",
      "  Message('note_on', channel=2, note=78, velocity=87, time=0),\n",
      "  Message('note_on', channel=2, note=74, velocity=87, time=0),\n",
      "  Message('note_on', channel=2, note=86, velocity=0, time=89),\n",
      "  Message('note_on', channel=2, note=81, velocity=0, time=0),\n",
      "  Message('note_on', channel=2, note=78, velocity=0, time=0),\n",
      "  Message('note_on', channel=2, note=74, velocity=0, time=0),\n",
      "  Message('note_on', channel=2, note=86, velocity=87, time=7),\n",
      "  Message('note_on', channel=2, note=81, velocity=87, time=0),\n",
      "  Message('note_on', channel=2, note=78, velocity=87, time=0),\n",
      "  Message('note_on', channel=2, note=74, velocity=87, time=0),\n",
      "  Message('note_on', channel=2, note=86, velocity=0, time=89),\n",
      "  Message('note_on', channel=2, note=81, velocity=0, time=0),\n",
      "  Message('note_on', channel=2, note=78, velocity=0, time=0),\n",
      "  Message('note_on', channel=2, note=74, velocity=0, time=0),\n",
      "  Message('note_on', channel=2, note=86, velocity=87, time=7),\n",
      "  Message('note_on', channel=2, note=81, velocity=87, time=0),\n",
      "  Message('note_on', channel=2, note=78, velocity=87, time=0),\n",
      "  Message('note_on', channel=2, note=74, velocity=87, time=0),\n",
      "  Message('note_on', channel=2, note=86, velocity=0, time=89),\n",
      "  Message('note_on', channel=2, note=81, velocity=0, time=0),\n",
      "  Message('note_on', channel=2, note=78, velocity=0, time=0),\n",
      "  Message('note_on', channel=2, note=74, velocity=0, time=0),\n",
      "  Message('note_on', channel=2, note=86, velocity=87, time=7),\n",
      "  Message('note_on', channel=2, note=81, velocity=87, time=0),\n",
      "  Message('note_on', channel=2, note=78, velocity=87, time=0),\n",
      "  Message('note_on', channel=2, note=74, velocity=87, time=0),\n",
      "  Message('note_on', channel=2, note=86, velocity=0, time=45),\n",
      "  Message('note_on', channel=2, note=81, velocity=0, time=0),\n",
      "  Message('note_on', channel=2, note=78, velocity=0, time=0),\n",
      "  Message('note_on', channel=2, note=74, velocity=0, time=0),\n",
      "  Message('note_on', channel=2, note=86, velocity=87, time=3),\n",
      "  Message('note_on', channel=2, note=83, velocity=87, time=0),\n",
      "  Message('note_on', channel=2, note=78, velocity=87, time=0),\n",
      "  Message('note_on', channel=2, note=74, velocity=87, time=0),\n",
      "  Message('note_on', channel=2, note=86, velocity=0, time=45),\n",
      "  Message('note_on', channel=2, note=83, velocity=0, time=0),\n",
      "  Message('note_on', channel=2, note=78, velocity=0, time=0),\n",
      "  Message('note_on', channel=2, note=74, velocity=0, time=0),\n",
      "  Message('note_on', channel=2, note=86, velocity=87, time=3),\n",
      "  Message('note_on', channel=2, note=83, velocity=87, time=0),\n",
      "  Message('note_on', channel=2, note=78, velocity=87, time=0),\n",
      "  Message('note_on', channel=2, note=74, velocity=87, time=0),\n",
      "  Message('note_on', channel=2, note=86, velocity=0, time=89),\n",
      "  Message('note_on', channel=2, note=83, velocity=0, time=0),\n",
      "  Message('note_on', channel=2, note=78, velocity=0, time=0),\n",
      "  Message('note_on', channel=2, note=74, velocity=0, time=0),\n",
      "  Message('note_on', channel=2, note=86, velocity=87, time=7),\n",
      "  Message('note_on', channel=2, note=83, velocity=87, time=0),\n",
      "  Message('note_on', channel=2, note=78, velocity=87, time=0),\n",
      "  Message('note_on', channel=2, note=74, velocity=87, time=0),\n",
      "  Message('note_on', channel=2, note=86, velocity=0, time=89),\n",
      "  Message('note_on', channel=2, note=83, velocity=0, time=0),\n",
      "  Message('note_on', channel=2, note=78, velocity=0, time=0),\n",
      "  Message('note_on', channel=2, note=74, velocity=0, time=0),\n",
      "  Message('note_on', channel=2, note=86, velocity=87, time=7),\n",
      "  Message('note_on', channel=2, note=83, velocity=87, time=0),\n",
      "  Message('note_on', channel=2, note=78, velocity=87, time=0),\n",
      "  Message('note_on', channel=2, note=74, velocity=87, time=0),\n",
      "  Message('note_on', channel=2, note=86, velocity=0, time=89),\n",
      "  Message('note_on', channel=2, note=83, velocity=0, time=0),\n",
      "  Message('note_on', channel=2, note=78, velocity=0, time=0),\n",
      "  Message('note_on', channel=2, note=74, velocity=0, time=0),\n",
      "  Message('note_on', channel=2, note=86, velocity=87, time=7),\n",
      "  Message('note_on', channel=2, note=83, velocity=87, time=0),\n",
      "  Message('note_on', channel=2, note=78, velocity=87, time=0),\n",
      "  Message('note_on', channel=2, note=74, velocity=87, time=0),\n",
      "  Message('note_on', channel=2, note=86, velocity=0, time=45),\n",
      "  Message('note_on', channel=2, note=83, velocity=0, time=0),\n",
      "  Message('note_on', channel=2, note=78, velocity=0, time=0),\n",
      "  Message('note_on', channel=2, note=74, velocity=0, time=0),\n",
      "  Message('note_on', channel=2, note=86, velocity=87, time=3),\n",
      "  Message('note_on', channel=2, note=83, velocity=87, time=0),\n",
      "  Message('note_on', channel=2, note=76, velocity=87, time=0),\n",
      "  Message('note_on', channel=2, note=86, velocity=0, time=89),\n",
      "  Message('note_on', channel=2, note=83, velocity=0, time=0),\n",
      "  Message('note_on', channel=2, note=76, velocity=0, time=0),\n",
      "  Message('note_on', channel=2, note=85, velocity=87, time=103),\n",
      "  Message('note_on', channel=2, note=81, velocity=87, time=0),\n",
      "  Message('note_on', channel=2, note=76, velocity=87, time=0),\n",
      "  Message('note_on', channel=2, note=85, velocity=0, time=89),\n",
      "  Message('note_on', channel=2, note=81, velocity=0, time=0),\n",
      "  Message('note_on', channel=2, note=76, velocity=0, time=0),\n",
      "  Message('note_on', channel=2, note=85, velocity=87, time=103),\n",
      "  Message('note_on', channel=2, note=81, velocity=87, time=0),\n",
      "  Message('note_on', channel=2, note=74, velocity=87, time=0),\n",
      "  Message('note_on', channel=2, note=85, velocity=0, time=89),\n",
      "  Message('note_on', channel=2, note=81, velocity=0, time=0),\n",
      "  Message('note_on', channel=2, note=74, velocity=0, time=0),\n",
      "  Message('note_on', channel=2, note=83, velocity=87, time=103),\n",
      "  Message('note_on', channel=2, note=76, velocity=87, time=0),\n",
      "  Message('note_on', channel=2, note=74, velocity=87, time=0),\n",
      "  Message('note_on', channel=2, note=83, velocity=0, time=89),\n",
      "  Message('note_on', channel=2, note=76, velocity=0, time=0),\n",
      "  Message('note_on', channel=2, note=74, velocity=0, time=0),\n",
      "  Message('note_on', channel=2, note=83, velocity=87, time=103),\n",
      "  Message('note_on', channel=2, note=76, velocity=87, time=0),\n",
      "  Message('note_on', channel=2, note=73, velocity=87, time=0),\n",
      "  Message('note_on', channel=2, note=83, velocity=0, time=89),\n",
      "  Message('note_on', channel=2, note=76, velocity=0, time=0),\n",
      "  Message('note_on', channel=2, note=73, velocity=0, time=0),\n",
      "  Message('note_on', channel=2, note=81, velocity=87, time=103),\n",
      "  Message('note_on', channel=2, note=78, velocity=87, time=0),\n",
      "  Message('note_on', channel=2, note=73, velocity=87, time=0),\n",
      "  Message('note_on', channel=2, note=81, velocity=0, time=89),\n",
      "  Message('note_on', channel=2, note=78, velocity=0, time=0),\n",
      "  Message('note_on', channel=2, note=73, velocity=0, time=0),\n",
      "  Message('note_on', channel=2, note=81, velocity=87, time=103),\n",
      "  Message('note_on', channel=2, note=78, velocity=87, time=0),\n",
      "  Message('note_on', channel=2, note=71, velocity=87, time=0),\n",
      "  Message('note_on', channel=2, note=81, velocity=0, time=89),\n",
      "  Message('note_on', channel=2, note=78, velocity=0, time=0),\n",
      "  Message('note_on', channel=2, note=71, velocity=0, time=0),\n",
      "  Message('note_on', channel=2, note=80, velocity=87, time=103),\n",
      "  Message('note_on', channel=2, note=76, velocity=87, time=0),\n",
      "  Message('note_on', channel=2, note=71, velocity=87, time=0),\n",
      "  Message('note_on', channel=2, note=80, velocity=0, time=89),\n",
      "  Message('note_on', channel=2, note=76, velocity=0, time=0),\n",
      "  Message('note_on', channel=2, note=71, velocity=0, time=0),\n",
      "  Message('note_on', channel=2, note=81, velocity=87, time=103),\n",
      "  Message('note_on', channel=2, note=76, velocity=87, time=0),\n",
      "  Message('note_on', channel=2, note=73, velocity=87, time=0),\n",
      "  Message('note_on', channel=2, note=69, velocity=87, time=0),\n",
      "  Message('note_on', channel=2, note=81, velocity=0, time=89),\n",
      "  Message('note_on', channel=2, note=76, velocity=0, time=0),\n",
      "  Message('note_on', channel=2, note=73, velocity=0, time=0),\n",
      "  Message('note_on', channel=2, note=69, velocity=0, time=0),\n",
      "  Message('note_on', channel=2, note=81, velocity=73, time=199),\n",
      "  Message('note_on', channel=2, note=81, velocity=0, time=20),\n",
      "  Message('note_on', channel=2, note=79, velocity=73, time=28),\n",
      "  Message('note_on', channel=2, note=79, velocity=0, time=20),\n",
      "  Message('note_on', channel=2, note=78, velocity=73, time=28),\n",
      "  Message('note_on', channel=2, note=78, velocity=0, time=23),\n",
      "  Message('note_on', channel=2, note=79, velocity=73, time=1),\n",
      "  Message('note_on', channel=2, note=79, velocity=0, time=23),\n",
      "  Message('note_on', channel=2, note=78, velocity=73, time=1),\n",
      "  Message('note_on', channel=2, note=78, velocity=0, time=23),\n",
      "  Message('note_on', channel=2, note=77, velocity=73, time=1),\n",
      "  Message('note_on', channel=2, note=77, velocity=0, time=23),\n",
      "  Message('note_on', channel=2, note=78, velocity=73, time=1),\n",
      "  Message('note_on', channel=2, note=78, velocity=0, time=23),\n",
      "  Message('note_on', channel=2, note=79, velocity=73, time=1),\n",
      "  Message('note_on', channel=2, note=79, velocity=0, time=23),\n",
      "  Message('note_on', channel=2, note=76, velocity=73, time=1),\n",
      "  Message('note_on', channel=2, note=76, velocity=0, time=23),\n",
      "  Message('note_on', channel=2, note=78, velocity=73, time=1),\n",
      "  Message('note_on', channel=2, note=78, velocity=0, time=23),\n",
      "  Message('note_on', channel=2, note=74, velocity=73, time=1),\n",
      "  Message('note_on', channel=2, note=74, velocity=0, time=23),\n",
      "  Message('note_on', channel=2, note=76, velocity=73, time=1),\n",
      "  Message('note_on', channel=2, note=76, velocity=0, time=23),\n",
      "  Message('note_on', channel=2, note=73, velocity=73, time=1),\n",
      "  Message('note_on', channel=2, note=73, velocity=0, time=23),\n",
      "  Message('note_on', channel=2, note=74, velocity=73, time=1),\n",
      "  Message('note_on', channel=2, note=74, velocity=0, time=23),\n",
      "  Message('note_on', channel=2, note=71, velocity=73, time=1),\n",
      "  Message('note_on', channel=2, note=71, velocity=0, time=23),\n",
      "  Message('note_on', channel=2, note=73, velocity=73, time=1),\n",
      "  Message('note_on', channel=2, note=73, velocity=0, time=23),\n",
      "  Message('note_on', channel=2, note=74, velocity=73, time=1),\n",
      "  Message('note_on', channel=2, note=74, velocity=0, time=23),\n",
      "  Message('note_on', channel=2, note=75, velocity=73, time=1),\n",
      "  Message('note_on', channel=2, note=75, velocity=0, time=23),\n",
      "  Message('note_on', channel=2, note=76, velocity=73, time=1),\n",
      "  Message('note_on', channel=2, note=76, velocity=0, time=23),\n",
      "  Message('note_on', channel=2, note=78, velocity=74, time=1),\n",
      "  Message('note_on', channel=2, note=78, velocity=0, time=23),\n",
      "  Message('note_on', channel=2, note=76, velocity=74, time=1),\n",
      "  Message('note_on', channel=2, note=76, velocity=0, time=23),\n",
      "  Message('note_on', channel=2, note=75, velocity=74, time=1),\n",
      "  Message('note_on', channel=2, note=75, velocity=0, time=23),\n",
      "  Message('note_on', channel=2, note=76, velocity=74, time=1),\n",
      "  Message('note_on', channel=2, note=76, velocity=0, time=23),\n",
      "  Message('note_on', channel=2, note=78, velocity=74, time=1),\n",
      "  Message('note_on', channel=2, note=78, velocity=0, time=23),\n",
      "  Message('note_on', channel=2, note=74, velocity=74, time=1),\n",
      "  Message('note_on', channel=2, note=74, velocity=0, time=23),\n",
      "  Message('note_on', channel=2, note=76, velocity=75, time=1),\n",
      "  Message('note_on', channel=2, note=76, velocity=0, time=23),\n",
      "  Message('note_on', channel=2, note=73, velocity=75, time=1),\n",
      "  Message('note_on', channel=2, note=73, velocity=0, time=23),\n",
      "  Message('note_on', channel=2, note=74, velocity=75, time=1),\n",
      "  Message('note_on', channel=2, note=74, velocity=0, time=23),\n",
      "  Message('note_on', channel=2, note=71, velocity=75, time=1),\n",
      "  Message('note_on', channel=2, note=71, velocity=0, time=23),\n",
      "  Message('note_on', channel=2, note=73, velocity=75, time=1),\n",
      "  Message('note_on', channel=2, note=73, velocity=0, time=23),\n",
      "  Message('note_on', channel=2, note=69, velocity=75, time=1),\n",
      "  Message('note_on', channel=2, note=69, velocity=0, time=23),\n",
      "  Message('note_on', channel=2, note=71, velocity=76, time=1),\n",
      "  Message('note_on', channel=2, note=71, velocity=0, time=23),\n",
      "  Message('note_on', channel=2, note=73, velocity=76, time=1),\n",
      "  Message('note_on', channel=2, note=73, velocity=0, time=23),\n",
      "  Message('note_on', channel=2, note=69, velocity=76, time=1),\n",
      "  Message('note_on', channel=2, note=69, velocity=0, time=23),\n",
      "  Message('note_on', channel=2, note=74, velocity=76, time=1),\n",
      "  Message('note_on', channel=2, note=74, velocity=0, time=23),\n",
      "  Message('note_on', channel=2, note=76, velocity=76, time=1),\n",
      "  Message('note_on', channel=2, note=76, velocity=0, time=23),\n",
      "  Message('note_on', channel=2, note=74, velocity=76, time=1),\n",
      "  Message('note_on', channel=2, note=74, velocity=0, time=23),\n",
      "  Message('note_on', channel=2, note=73, velocity=77, time=1),\n",
      "  Message('note_on', channel=2, note=73, velocity=0, time=23),\n",
      "  Message('note_on', channel=2, note=74, velocity=77, time=1),\n",
      "  Message('note_on', channel=2, note=74, velocity=0, time=23),\n",
      "  Message('note_on', channel=2, note=76, velocity=77, time=1),\n",
      "  Message('note_on', channel=2, note=76, velocity=0, time=23),\n",
      "  Message('note_on', channel=2, note=73, velocity=77, time=1),\n",
      "  Message('note_on', channel=2, note=73, velocity=0, time=23),\n",
      "  Message('note_on', channel=2, note=74, velocity=77, time=1),\n",
      "  Message('note_on', channel=2, note=74, velocity=0, time=23),\n",
      "  Message('note_on', channel=2, note=71, velocity=77, time=1),\n",
      "  Message('note_on', channel=2, note=71, velocity=0, time=23),\n",
      "  Message('note_on', channel=2, note=73, velocity=78, time=1),\n",
      "  Message('note_on', channel=2, note=73, velocity=0, time=23),\n",
      "  Message('note_on', channel=2, note=70, velocity=78, time=1),\n",
      "  Message('note_on', channel=2, note=70, velocity=0, time=23),\n",
      "  Message('note_on', channel=2, note=71, velocity=78, time=1),\n",
      "  Message('note_on', channel=2, note=71, velocity=0, time=23),\n",
      "  Message('note_on', channel=2, note=68, velocity=78, time=1),\n",
      "  Message('note_on', channel=2, note=68, velocity=0, time=23),\n",
      "  Message('note_on', channel=2, note=69, velocity=78, time=1),\n",
      "  Message('note_on', channel=2, note=69, velocity=0, time=23),\n",
      "  Message('note_on', channel=2, note=71, velocity=78, time=1),\n",
      "  Message('note_on', channel=2, note=71, velocity=0, time=23),\n",
      "  Message('note_on', channel=2, note=72, velocity=79, time=1),\n",
      "  Message('note_on', channel=2, note=72, velocity=0, time=23),\n",
      "  Message('note_on', channel=2, note=73, velocity=79, time=1),\n",
      "  Message('note_on', channel=2, note=73, velocity=0, time=23),\n",
      "  Message('note_on', channel=2, note=74, velocity=79, time=1),\n",
      "  Message('note_on', channel=2, note=74, velocity=0, time=23),\n",
      "  Message('note_on', channel=2, note=73, velocity=79, time=1),\n",
      "  Message('note_on', channel=2, note=73, velocity=0, time=23),\n",
      "  Message('note_on', channel=2, note=72, velocity=79, time=1),\n",
      "  Message('note_on', channel=2, note=72, velocity=0, time=23),\n",
      "  Message('note_on', channel=2, note=73, velocity=79, time=1),\n",
      "  Message('note_on', channel=2, note=73, velocity=0, time=23),\n",
      "  Message('note_on', channel=2, note=74, velocity=80, time=1),\n",
      "  Message('note_on', channel=2, note=74, velocity=0, time=23),\n",
      "  Message('note_on', channel=2, note=71, velocity=80, time=1),\n",
      "  Message('note_on', channel=2, note=71, velocity=0, time=23),\n",
      "  Message('note_on', channel=2, note=73, velocity=80, time=1),\n",
      "  Message('note_on', channel=2, note=73, velocity=0, time=23),\n",
      "  Message('note_on', channel=2, note=69, velocity=80, time=1),\n",
      "  Message('note_on', channel=2, note=69, velocity=0, time=23),\n",
      "  Message('note_on', channel=2, note=71, velocity=80, time=1),\n",
      "  Message('note_on', channel=2, note=71, velocity=0, time=23),\n",
      "  Message('note_on', channel=2, note=68, velocity=80, time=1),\n",
      "  Message('note_on', channel=2, note=68, velocity=0, time=23),\n",
      "  Message('note_on', channel=2, note=69, velocity=81, time=1),\n",
      "  Message('note_on', channel=2, note=69, velocity=0, time=23),\n",
      "  Message('note_on', channel=2, note=66, velocity=81, time=1),\n",
      "  Message('note_on', channel=2, note=66, velocity=0, time=23),\n",
      "  Message('note_on', channel=2, note=64, velocity=81, time=1),\n",
      "  Message('note_on', channel=2, note=64, velocity=0, time=23),\n",
      "  Message('note_on', channel=2, note=62, velocity=81, time=1),\n",
      "  Message('note_on', channel=2, note=62, velocity=0, time=23),\n",
      "  Message('note_on', channel=2, note=61, velocity=81, time=1),\n",
      "  Message('note_on', channel=2, note=61, velocity=0, time=23),\n",
      "  Message('note_on', channel=2, note=59, velocity=81, time=1),\n",
      "  Message('note_on', channel=2, note=59, velocity=0, time=23),\n",
      "  Message('note_on', channel=2, note=62, velocity=82, time=1),\n",
      "  Message('note_on', channel=2, note=62, velocity=0, time=23),\n",
      "  Message('note_on', channel=2, note=66, velocity=82, time=1),\n",
      "  Message('note_on', channel=2, note=66, velocity=0, time=23),\n",
      "  Message('note_on', channel=2, note=62, velocity=82, time=1),\n",
      "  Message('note_on', channel=2, note=62, velocity=0, time=23),\n",
      "  Message('note_on', channel=2, note=69, velocity=82, time=1),\n",
      "  Message('note_on', channel=2, note=69, velocity=0, time=23),\n",
      "  Message('note_on', channel=2, note=66, velocity=82, time=1),\n",
      "  Message('note_on', channel=2, note=66, velocity=0, time=23),\n",
      "  Message('note_on', channel=2, note=62, velocity=82, time=1),\n",
      "  Message('note_on', channel=2, note=62, velocity=0, time=23),\n",
      "  Message('note_on', channel=2, note=66, velocity=83, time=1),\n",
      "  Message('note_on', channel=2, note=66, velocity=0, time=23),\n",
      "  Message('note_on', channel=2, note=59, velocity=83, time=1),\n",
      "  Message('note_on', channel=2, note=59, velocity=0, time=23),\n",
      "  Message('note_on', channel=2, note=62, velocity=83, time=1),\n",
      "  Message('note_on', channel=2, note=62, velocity=0, time=23),\n",
      "  Message('note_on', channel=2, note=66, velocity=83, time=1),\n",
      "  Message('note_on', channel=2, note=66, velocity=0, time=23),\n",
      "  Message('note_on', channel=2, note=62, velocity=83, time=1),\n",
      "  Message('note_on', channel=2, note=62, velocity=0, time=23),\n",
      "  Message('note_on', channel=2, note=69, velocity=83, time=1),\n",
      "  Message('note_on', channel=2, note=69, velocity=0, time=23),\n",
      "  Message('note_on', channel=2, note=66, velocity=84, time=1),\n",
      "  Message('note_on', channel=2, note=66, velocity=0, time=23),\n",
      "  Message('note_on', channel=2, note=62, velocity=84, time=1),\n",
      "  Message('note_on', channel=2, note=62, velocity=0, time=23),\n",
      "  Message('note_on', channel=2, note=66, velocity=84, time=1),\n",
      "  Message('note_on', channel=2, note=66, velocity=0, time=23),\n",
      "  Message('note_on', channel=2, note=60, velocity=84, time=1),\n",
      "  Message('note_on', channel=2, note=60, velocity=0, time=23),\n",
      "  Message('note_on', channel=2, note=63, velocity=84, time=1),\n",
      "  Message('note_on', channel=2, note=63, velocity=0, time=23),\n",
      "  Message('note_on', channel=2, note=66, velocity=84, time=1),\n",
      "  Message('note_on', channel=2, note=66, velocity=0, time=23),\n",
      "  Message('note_on', channel=2, note=63, velocity=85, time=1),\n",
      "  Message('note_on', channel=2, note=63, velocity=0, time=23),\n",
      "  Message('note_on', channel=2, note=69, velocity=85, time=1),\n",
      "  Message('note_on', channel=2, note=69, velocity=0, time=23),\n",
      "  Message('note_on', channel=2, note=66, velocity=85, time=1),\n",
      "  Message('note_on', channel=2, note=66, velocity=0, time=23),\n",
      "  Message('note_on', channel=2, note=63, velocity=85, time=1),\n",
      "  Message('note_on', channel=2, note=63, velocity=0, time=23),\n",
      "  Message('note_on', channel=2, note=66, velocity=85, time=1),\n",
      "  Message('note_on', channel=2, note=66, velocity=0, time=23),\n",
      "  Message('note_on', channel=2, note=60, velocity=85, time=1),\n",
      "  Message('note_on', channel=2, note=60, velocity=0, time=23),\n",
      "  Message('note_on', channel=2, note=63, velocity=86, time=1),\n",
      "  Message('note_on', channel=2, note=63, velocity=0, time=23),\n",
      "  Message('note_on', channel=2, note=66, velocity=86, time=1),\n",
      "  Message('note_on', channel=2, note=66, velocity=0, time=23),\n",
      "  Message('note_on', channel=2, note=63, velocity=86, time=1),\n",
      "  Message('note_on', channel=2, note=63, velocity=0, time=23),\n",
      "  Message('note_on', channel=2, note=69, velocity=86, time=1),\n",
      "  Message('note_on', channel=2, note=69, velocity=0, time=23),\n",
      "  Message('note_on', channel=2, note=66, velocity=86, time=1),\n",
      "  Message('note_on', channel=2, note=66, velocity=0, time=23),\n",
      "  Message('note_on', channel=2, note=63, velocity=86, time=1),\n",
      "  Message('note_on', channel=2, note=63, velocity=0, time=23),\n",
      "  Message('note_on', channel=2, note=66, velocity=87, time=1),\n",
      "  Message('note_on', channel=2, note=66, velocity=0, time=23),\n",
      "  Message('note_on', channel=2, note=69, velocity=87, time=1),\n",
      "  Message('note_on', channel=2, note=64, velocity=87, time=0),\n",
      "  Message('note_on', channel=2, note=61, velocity=87, time=0),\n",
      "  Message('note_on', channel=2, note=69, velocity=0, time=89),\n",
      "  Message('note_on', channel=2, note=64, velocity=0, time=0),\n",
      "  Message('note_on', channel=2, note=61, velocity=0, time=0),\n",
      "  Message('note_on', channel=2, note=69, velocity=87, time=295),\n",
      "  Message('note_on', channel=2, note=69, velocity=0, time=177),\n",
      "  Message('note_on', channel=2, note=68, velocity=87, time=15),\n",
      "  Message('note_on', channel=2, note=68, velocity=0, time=18),\n",
      "  Message('note_on', channel=2, note=69, velocity=87, time=0),\n",
      "  Message('note_on', channel=2, note=69, velocity=0, time=18),\n",
      "  Message('note_on', channel=2, note=68, velocity=87, time=0),\n",
      "  Message('note_on', channel=2, note=68, velocity=0, time=18),\n",
      "  Message('note_on', channel=2, note=69, velocity=87, time=0),\n",
      "  Message('note_on', channel=2, note=69, velocity=0, time=18),\n",
      "  Message('note_on', channel=2, note=68, velocity=87, time=0),\n",
      "  Message('note_on', channel=2, note=68, velocity=0, time=18),\n",
      "  Message('note_on', channel=2, note=69, velocity=87, time=0),\n",
      "  Message('note_on', channel=2, note=69, velocity=0, time=18),\n",
      "  Message('note_on', channel=2, note=68, velocity=87, time=0),\n",
      "  Message('note_on', channel=2, note=68, velocity=0, time=18),\n",
      "  Message('note_on', channel=2, note=69, velocity=87, time=0),\n",
      "  Message('note_on', channel=2, note=69, velocity=0, time=7),\n",
      "  Message('note_on', channel=2, note=66, velocity=87, time=11),\n",
      "  Message('note_on', channel=2, note=66, velocity=0, time=23),\n",
      "  Message('note_on', channel=2, note=68, velocity=87, time=1),\n",
      "  Message('note_on', channel=2, note=68, velocity=0, time=23),\n",
      "  Message('note_on', channel=2, note=69, velocity=87, time=1),\n",
      "  Message('note_on', channel=2, note=69, velocity=0, time=89),\n",
      "  Message('note_on', channel=2, note=57, velocity=87, time=31),\n",
      "  Message('note_on', channel=2, note=57, velocity=0, time=23),\n",
      "  Message('note_on', channel=2, note=59, velocity=87, time=1),\n",
      "  Message('note_on', channel=2, note=59, velocity=0, time=23),\n",
      "  Message('note_on', channel=2, note=61, velocity=87, time=1),\n",
      "  Message('note_on', channel=2, note=61, velocity=0, time=23),\n",
      "  Message('note_on', channel=2, note=62, velocity=87, time=1),\n",
      "  Message('note_on', channel=2, note=62, velocity=0, time=23),\n",
      "  Message('note_on', channel=2, note=64, velocity=87, time=1),\n",
      "  Message('note_on', channel=2, note=64, velocity=0, time=23),\n",
      "  Message('note_on', channel=2, note=66, velocity=87, time=1),\n",
      "  Message('note_on', channel=2, note=66, velocity=0, time=23),\n",
      "  Message('note_on', channel=2, note=68, velocity=87, time=1),\n",
      "  Message('note_on', channel=2, note=68, velocity=0, time=23),\n",
      "  Message('note_on', channel=2, note=69, velocity=87, time=1),\n",
      "  Message('note_on', channel=2, note=69, velocity=0, time=23),\n",
      "  Message('note_on', channel=2, note=71, velocity=87, time=1),\n",
      "  Message('note_on', channel=2, note=71, velocity=0, time=23),\n",
      "  Message('note_on', channel=2, note=73, velocity=87, time=1),\n",
      "  Message('note_on', channel=2, note=73, velocity=0, time=23),\n",
      "  Message('note_on', channel=2, note=69, velocity=87, time=1),\n",
      "  Message('note_on', channel=2, note=69, velocity=0, time=23),\n",
      "  Message('note_on', channel=2, note=74, velocity=87, time=1),\n",
      "  Message('note_on', channel=2, note=74, velocity=0, time=20),\n",
      "  Message('note_on', channel=2, note=71, velocity=87, time=28),\n",
      "  Message('note_on', channel=2, note=71, velocity=0, time=20),\n",
      "  Message('note_on', channel=2, note=66, velocity=87, time=28),\n",
      "  Message('note_on', channel=2, note=66, velocity=0, time=119),\n",
      "  Message('note_on', channel=2, note=68, velocity=87, time=1),\n",
      "  Message('note_on', channel=2, note=68, velocity=0, time=23),\n",
      "  Message('note_on', channel=2, note=69, velocity=87, time=1),\n",
      "  Message('note_on', channel=2, note=69, velocity=0, time=23),\n",
      "  Message('note_on', channel=2, note=66, velocity=87, time=1),\n",
      "  Message('note_on', channel=2, note=66, velocity=0, time=23),\n",
      "  Message('note_on', channel=2, note=68, velocity=87, time=1),\n",
      "  Message('note_on', channel=2, note=68, velocity=0, time=23),\n",
      "  Message('note_on', channel=2, note=69, velocity=87, time=1),\n",
      "  Message('note_on', channel=2, note=69, velocity=0, time=23),\n",
      "  Message('note_on', channel=2, note=71, velocity=87, time=1),\n",
      "  Message('note_on', channel=2, note=71, velocity=0, time=23),\n",
      "  Message('note_on', channel=2, note=68, velocity=87, time=1),\n",
      "  Message('note_on', channel=2, note=68, velocity=0, time=23),\n",
      "  Message('note_on', channel=2, note=69, velocity=87, time=1),\n",
      "  Message('note_on', channel=2, note=69, velocity=0, time=89),\n",
      "  Message('note_on', channel=2, note=57, velocity=73, time=31),\n",
      "  Message('note_on', channel=2, note=57, velocity=0, time=23),\n",
      "  Message('note_on', channel=2, note=59, velocity=73, time=1),\n",
      "  Message('note_on', channel=2, note=59, velocity=0, time=23),\n",
      "  Message('note_on', channel=2, note=61, velocity=73, time=1),\n",
      "  Message('note_on', channel=2, note=61, velocity=0, time=23),\n",
      "  Message('note_on', channel=2, note=62, velocity=73, time=1),\n",
      "  Message('note_on', channel=2, note=62, velocity=0, time=23),\n",
      "  Message('note_on', channel=2, note=64, velocity=73, time=1),\n",
      "  Message('note_on', channel=2, note=64, velocity=0, time=23),\n",
      "  Message('note_on', channel=2, note=66, velocity=73, time=1),\n",
      "  Message('note_on', channel=2, note=66, velocity=0, time=23),\n",
      "  Message('note_on', channel=2, note=68, velocity=73, time=1),\n",
      "  Message('note_on', channel=2, note=68, velocity=0, time=23),\n",
      "  Message('note_on', channel=2, note=69, velocity=73, time=1),\n",
      "  Message('note_on', channel=2, note=69, velocity=0, time=23),\n",
      "  Message('note_on', channel=2, note=71, velocity=73, time=1),\n",
      "  Message('note_on', channel=2, note=71, velocity=0, time=23),\n",
      "  Message('note_on', channel=2, note=73, velocity=73, time=1),\n",
      "  Message('note_on', channel=2, note=73, velocity=0, time=23),\n",
      "  Message('note_on', channel=2, note=69, velocity=73, time=1),\n",
      "  Message('note_on', channel=2, note=69, velocity=0, time=23),\n",
      "  Message('note_on', channel=2, note=74, velocity=73, time=1),\n",
      "  Message('note_on', channel=2, note=74, velocity=0, time=20),\n",
      "  Message('note_on', channel=2, note=71, velocity=73, time=28),\n",
      "  Message('note_on', channel=2, note=71, velocity=0, time=20),\n",
      "  Message('note_on', channel=2, note=66, velocity=73, time=28),\n",
      "  Message('note_on', channel=2, note=66, velocity=0, time=119),\n",
      "  Message('note_on', channel=2, note=68, velocity=73, time=1),\n",
      "  Message('note_on', channel=2, note=68, velocity=0, time=23),\n",
      "  Message('note_on', channel=2, note=69, velocity=73, time=1),\n",
      "  Message('note_on', channel=2, note=69, velocity=0, time=23),\n",
      "  Message('note_on', channel=2, note=66, velocity=73, time=1),\n",
      "  Message('note_on', channel=2, note=66, velocity=0, time=23),\n",
      "  Message('note_on', channel=2, note=68, velocity=73, time=1),\n",
      "  Message('note_on', channel=2, note=68, velocity=0, time=23),\n",
      "  Message('note_on', channel=2, note=69, velocity=73, time=1),\n",
      "  Message('note_on', channel=2, note=69, velocity=0, time=23),\n",
      "  Message('note_on', channel=2, note=71, velocity=73, time=1),\n",
      "  Message('note_on', channel=2, note=71, velocity=0, time=23),\n",
      "  Message('note_on', channel=2, note=68, velocity=73, time=1),\n",
      "  Message('note_on', channel=2, note=68, velocity=0, time=23),\n",
      "  Message('note_on', channel=2, note=69, velocity=73, time=1),\n",
      "  Message('note_on', channel=2, note=69, velocity=0, time=89),\n",
      "  Message('note_on', channel=2, note=80, velocity=87, time=199),\n",
      "  Message('note_on', channel=2, note=76, velocity=87, time=0),\n",
      "  Message('note_on', channel=2, note=74, velocity=87, time=0),\n",
      "  Message('note_on', channel=2, note=71, velocity=87, time=0),\n",
      "  Message('note_on', channel=2, note=80, velocity=0, time=89),\n",
      "  Message('note_on', channel=2, note=76, velocity=0, time=0),\n",
      "  Message('note_on', channel=2, note=74, velocity=0, time=0),\n",
      "  Message('note_on', channel=2, note=71, velocity=0, time=0),\n",
      "  Message('note_on', channel=2, note=81, velocity=87, time=7),\n",
      "  Message('note_on', channel=2, note=81, velocity=0, time=10),\n",
      "  Message('note_on', channel=2, note=73, velocity=87, time=14),\n",
      "  Message('note_on', channel=2, note=73, velocity=0, time=23),\n",
      "  Message('note_on', channel=2, note=76, velocity=87, time=1),\n",
      "  Message('note_on', channel=2, note=76, velocity=0, time=23),\n",
      "  Message('note_on', channel=2, note=81, velocity=87, time=1),\n",
      "  Message('note_on', channel=2, note=81, velocity=0, time=23),\n",
      "  Message('note_on', channel=2, note=85, velocity=87, time=1),\n",
      "  Message('note_on', channel=2, note=85, velocity=0, time=23),\n",
      "  Message('note_on', channel=2, note=76, velocity=87, time=1),\n",
      "  Message('note_on', channel=2, note=76, velocity=0, time=23),\n",
      "  Message('note_on', channel=2, note=81, velocity=87, time=1),\n",
      "  Message('note_on', channel=2, note=81, velocity=0, time=23),\n",
      "  Message('note_on', channel=2, note=85, velocity=87, time=1),\n",
      "  Message('note_on', channel=2, note=85, velocity=0, time=23),\n",
      "  Message('note_on', channel=2, note=88, velocity=87, time=1),\n",
      "  Message('note_on', channel=2, note=88, velocity=0, time=20),\n",
      "  Message('note_on', channel=2, note=88, velocity=87, time=28),\n",
      "  Message('note_on', channel=2, note=88, velocity=0, time=20),\n",
      "  Message('note_on', channel=2, note=80, velocity=87, time=76),\n",
      "  Message('note_on', channel=2, note=76, velocity=87, time=0),\n",
      "  Message('note_on', channel=2, note=74, velocity=87, time=0),\n",
      "  Message('note_on', channel=2, note=71, velocity=87, time=0),\n",
      "  Message('note_on', channel=2, note=80, velocity=0, time=20),\n",
      "  Message('note_on', channel=2, note=76, velocity=0, time=0),\n",
      "  Message('note_on', channel=2, note=74, velocity=0, time=0),\n",
      "  Message('note_on', channel=2, note=71, velocity=0, time=0),\n",
      "  Message('note_on', channel=2, note=69, velocity=87, time=28),\n",
      "  Message('note_on', channel=2, note=73, velocity=87, time=6),\n",
      "  Message('note_on', channel=2, note=76, velocity=87, time=6),\n",
      "  Message('note_on', channel=2, note=81, velocity=87, time=6),\n",
      "  Message('note_on', channel=2, note=81, velocity=0, time=75),\n",
      "  Message('note_on', channel=2, note=76, velocity=0, time=0),\n",
      "  Message('note_on', channel=2, note=73, velocity=0, time=0),\n",
      "  Message('note_on', channel=2, note=69, velocity=0, time=0),\n",
      "  Message('note_on', channel=2, note=73, velocity=87, time=3),\n",
      "  Message('note_on', channel=2, note=76, velocity=87, time=6),\n",
      "  Message('note_on', channel=2, note=81, velocity=87, time=6),\n",
      "  Message('note_on', channel=2, note=85, velocity=87, time=6),\n",
      "  Message('note_on', channel=2, note=85, velocity=0, time=75),\n",
      "  Message('note_on', channel=2, note=81, velocity=0, time=0),\n",
      "  Message('note_on', channel=2, note=76, velocity=0, time=0),\n",
      "  Message('note_on', channel=2, note=73, velocity=0, time=0),\n",
      "  Message('note_on', channel=2, note=76, velocity=87, time=3),\n",
      "  Message('note_on', channel=2, note=81, velocity=87, time=6),\n",
      "  Message('note_on', channel=2, note=85, velocity=87, time=6),\n",
      "  Message('note_on', channel=2, note=88, velocity=87, time=6),\n",
      "  Message('note_on', channel=2, note=88, velocity=0, time=75),\n",
      "  Message('note_on', channel=2, note=85, velocity=0, time=0),\n",
      "  Message('note_on', channel=2, note=81, velocity=0, time=0),\n",
      "  Message('note_on', channel=2, note=76, velocity=0, time=0),\n",
      "  Message('note_on', channel=2, note=73, velocity=87, time=3),\n",
      "  Message('note_on', channel=2, note=76, velocity=87, time=6),\n",
      "  Message('note_on', channel=2, note=81, velocity=87, time=6),\n",
      "  Message('note_on', channel=2, note=85, velocity=87, time=6),\n",
      "  Message('note_on', channel=2, note=85, velocity=0, time=75),\n",
      "  Message('note_on', channel=2, note=81, velocity=0, time=0),\n",
      "  Message('note_on', channel=2, note=76, velocity=0, time=0),\n",
      "  Message('note_on', channel=2, note=73, velocity=0, time=0),\n",
      "  Message('note_on', channel=2, note=69, velocity=87, time=3),\n",
      "  Message('note_on', channel=2, note=73, velocity=87, time=6),\n",
      "  Message('note_on', channel=2, note=76, velocity=87, time=6),\n",
      "  Message('note_on', channel=2, note=81, velocity=87, time=6),\n",
      "  Message('note_on', channel=2, note=81, velocity=0, time=75),\n",
      "  Message('note_on', channel=2, note=76, velocity=0, time=0),\n",
      "  Message('note_on', channel=2, note=73, velocity=0, time=0),\n",
      "  Message('note_on', channel=2, note=69, velocity=0, time=0),\n",
      "  Message('note_on', channel=2, note=69, velocity=87, time=3),\n",
      "  Message('note_on', channel=2, note=69, velocity=0, time=67),\n",
      "  Message('note_on', channel=2, note=69, velocity=87, time=5),\n",
      "  Message('note_on', channel=2, note=69, velocity=0, time=23),\n",
      "  Message('note_on', channel=2, note=69, velocity=87, time=1),\n",
      "  Message('note_on', channel=2, note=69, velocity=0, time=89),\n",
      "  Message('note_on', channel=2, note=81, velocity=78, time=103),\n",
      "  Message('note_on', channel=2, note=81, velocity=0, time=177),\n",
      "  Message('note_on', channel=2, note=80, velocity=78, time=15),\n",
      "  Message('note_on', channel=2, note=80, velocity=0, time=89),\n",
      "  Message('note_on', channel=2, note=78, velocity=78, time=7),\n",
      "  Message('note_on', channel=2, note=78, velocity=0, time=89),\n",
      "  Message('note_on', channel=2, note=75, velocity=78, time=7),\n",
      "  Message('note_on', channel=2, note=75, velocity=0, time=89),\n",
      "  Message('note_on', channel=2, note=76, velocity=78, time=7),\n",
      "  Message('note_on', channel=2, note=76, velocity=0, time=141),\n",
      "  Message('note_on', channel=2, note=69, velocity=78, time=3),\n",
      "  Message('note_on', channel=2, note=69, velocity=0, time=45),\n",
      "  Message('note_on', channel=2, note=74, velocity=78, time=3),\n",
      "  Message('note_on', channel=2, note=74, velocity=0, time=45),\n",
      "  Message('note_on', channel=2, note=73, velocity=78, time=3),\n",
      "  Message('note_on', channel=2, note=73, velocity=0, time=45),\n",
      "  Message('note_on', channel=2, note=72, velocity=78, time=3),\n",
      "  Message('note_on', channel=2, note=72, velocity=0, time=89),\n",
      "  Message('note_on', channel=2, note=73, velocity=78, time=7),\n",
      "  Message('note_on', channel=2, note=73, velocity=0, time=141),\n",
      "  Message('note_on', channel=2, note=66, velocity=78, time=3),\n",
      "  Message('note_on', channel=2, note=66, velocity=0, time=45),\n",
      "  Message('note_on', channel=2, note=71, velocity=78, time=3),\n",
      "  Message('note_on', channel=2, note=71, velocity=0, time=45),\n",
      "  Message('note_on', channel=2, note=69, velocity=78, time=3),\n",
      "  Message('note_on', channel=2, note=69, velocity=0, time=45),\n",
      "  Message('note_on', channel=2, note=68, velocity=78, time=3),\n",
      "  Message('note_on', channel=2, note=68, velocity=0, time=45),\n",
      "  Message('note_on', channel=2, note=64, velocity=78, time=3),\n",
      "  Message('note_on', channel=2, note=64, velocity=0, time=45),\n",
      "  Message('note_on', channel=2, note=69, velocity=79, time=3),\n",
      "  Message('note_on', channel=2, note=69, velocity=0, time=45),\n",
      "  Message('note_on', channel=2, note=66, velocity=80, time=3),\n",
      "  Message('note_on', channel=2, note=66, velocity=0, time=45),\n",
      "  Message('note_on', channel=2, note=62, velocity=81, time=3),\n",
      "  Message('note_on', channel=2, note=62, velocity=0, time=45),\n",
      "  Message('note_on', channel=2, note=59, velocity=82, time=3),\n",
      "  Message('note_on', channel=2, note=59, velocity=0, time=45),\n",
      "  Message('note_on', channel=2, note=64, velocity=83, time=3),\n",
      "  Message('note_on', channel=2, note=64, velocity=0, time=45),\n",
      "  Message('note_on', channel=2, note=62, velocity=84, time=3),\n",
      "  Message('note_on', channel=2, note=62, velocity=0, time=45),\n",
      "  Message('note_on', channel=2, note=61, velocity=85, time=3),\n",
      "  Message('note_on', channel=2, note=61, velocity=0, time=89),\n",
      "  Message('note_on', channel=2, note=76, velocity=87, time=7),\n",
      "  Message('note_on', channel=2, note=64, velocity=87, time=0),\n",
      "  Message('note_on', channel=2, note=76, velocity=0, time=89),\n",
      "  Message('note_on', channel=2, note=64, velocity=0, time=0),\n",
      "  Message('note_on', channel=2, note=75, velocity=87, time=7),\n",
      "  Message('note_on', channel=2, note=63, velocity=87, time=0),\n",
      "  Message('note_on', channel=2, note=75, velocity=0, time=89),\n",
      "  Message('note_on', channel=2, note=63, velocity=0, time=0),\n",
      "  Message('note_on', channel=2, note=73, velocity=87, time=7),\n",
      "  Message('note_on', channel=2, note=61, velocity=87, time=0),\n",
      "  Message('note_on', channel=2, note=73, velocity=0, time=89),\n",
      "  Message('note_on', channel=2, note=61, velocity=0, time=0),\n",
      "  Message('note_on', channel=2, note=72, velocity=87, time=7),\n",
      "  Message('note_on', channel=2, note=60, velocity=87, time=0),\n",
      "  Message('note_on', channel=2, note=72, velocity=0, time=89),\n",
      "  Message('note_on', channel=2, note=60, velocity=0, time=0),\n",
      "  Message('note_on', channel=2, note=71, velocity=87, time=7),\n",
      "  Message('note_on', channel=2, note=59, velocity=87, time=0),\n",
      "  Message('note_on', channel=2, note=71, velocity=0, time=45),\n",
      "  Message('note_on', channel=2, note=59, velocity=0, time=0),\n",
      "  Message('note_on', channel=2, note=70, velocity=87, time=3),\n",
      "  Message('note_on', channel=2, note=58, velocity=87, time=0),\n",
      "  Message('note_on', channel=2, note=70, velocity=0, time=45),\n",
      "  Message('note_on', channel=2, note=58, velocity=0, time=0),\n",
      "  Message('note_on', channel=2, note=69, velocity=87, time=3),\n",
      "  Message('note_on', channel=2, note=57, velocity=87, time=0),\n",
      "  Message('note_on', channel=2, note=69, velocity=0, time=89),\n",
      "  Message('note_on', channel=2, note=57, velocity=0, time=0),\n",
      "  Message('note_on', channel=2, note=81, velocity=87, time=7),\n",
      "  Message('note_on', channel=2, note=69, velocity=87, time=0),\n",
      "  Message('note_on', channel=2, note=81, velocity=0, time=141),\n",
      "  Message('note_on', channel=2, note=69, velocity=0, time=0),\n",
      "  Message('note_on', channel=2, note=81, velocity=87, time=3),\n",
      "  Message('note_on', channel=2, note=69, velocity=87, time=0),\n",
      "  Message('note_on', channel=2, note=81, velocity=0, time=45),\n",
      "  Message('note_on', channel=2, note=69, velocity=0, time=0),\n",
      "  Message('note_on', channel=2, note=80, velocity=87, time=3),\n",
      "  Message('note_on', channel=2, note=68, velocity=87, time=0),\n",
      "  Message('note_on', channel=2, note=80, velocity=0, time=45),\n",
      "  Message('note_on', channel=2, note=68, velocity=0, time=0),\n",
      "  Message('note_on', channel=2, note=79, velocity=87, time=3),\n",
      "  Message('note_on', channel=2, note=67, velocity=87, time=0),\n",
      "  Message('note_on', channel=2, note=79, velocity=0, time=45),\n",
      "  Message('note_on', channel=2, note=67, velocity=0, time=0),\n",
      "  Message('note_on', channel=2, note=78, velocity=87, time=3),\n",
      "  Message('note_on', channel=2, note=66, velocity=87, time=0),\n",
      "  Message('note_on', channel=2, note=78, velocity=0, time=89),\n",
      "  Message('note_on', channel=2, note=66, velocity=0, time=0),\n",
      "  Message('note_on', channel=2, note=77, velocity=87, time=7),\n",
      "  Message('note_on', channel=2, note=65, velocity=87, time=0),\n",
      "  Message('note_on', channel=2, note=77, velocity=0, time=89),\n",
      "  Message('note_on', channel=2, note=65, velocity=0, time=0),\n",
      "  Message('note_on', channel=2, note=76, velocity=87, time=7),\n",
      "  Message('note_on', channel=2, note=76, velocity=0, time=89),\n",
      "  Message('note_on', channel=2, note=69, velocity=87, time=7),\n",
      "  Message('note_on', channel=2, note=69, velocity=0, time=177),\n",
      "  Message('note_on', channel=2, note=71, velocity=87, time=15),\n",
      "  Message('note_on', channel=2, note=71, velocity=0, time=89),\n",
      "  Message('note_on', channel=2, note=73, velocity=87, time=7),\n",
      "  Message('note_on', channel=2, note=69, velocity=87, time=0),\n",
      "  Message('note_on', channel=2, note=73, velocity=0, time=89),\n",
      "  Message('note_on', channel=2, note=69, velocity=0, time=0),\n",
      "  Message('note_on', channel=2, note=77, velocity=93, time=295),\n",
      "  Message('note_on', channel=2, note=74, velocity=93, time=0),\n",
      "  Message('note_on', channel=2, note=77, velocity=0, time=23),\n",
      "  Message('note_on', channel=2, note=74, velocity=0, time=0),\n",
      "  Message('note_on', channel=2, note=86, velocity=93, time=1),\n",
      "  Message('note_on', channel=2, note=86, velocity=0, time=23),\n",
      "  Message('note_on', channel=2, note=77, velocity=93, time=1),\n",
      "  Message('note_on', channel=2, note=74, velocity=93, time=0),\n",
      "  Message('note_on', channel=2, note=77, velocity=0, time=23),\n",
      "  Message('note_on', channel=2, note=74, velocity=0, time=0),\n",
      "  Message('note_on', channel=2, note=86, velocity=93, time=1),\n",
      "  Message('note_on', channel=2, note=86, velocity=0, time=23),\n",
      "  Message('note_on', channel=2, note=77, velocity=93, time=1),\n",
      "  Message('note_on', channel=2, note=74, velocity=93, time=0),\n",
      "  Message('note_on', channel=2, note=77, velocity=0, time=23),\n",
      "  Message('note_on', channel=2, note=74, velocity=0, time=0),\n",
      "  Message('note_on', channel=2, note=86, velocity=93, time=1),\n",
      "  Message('note_on', channel=2, note=86, velocity=0, time=23),\n",
      "  Message('note_on', channel=2, note=77, velocity=93, time=1),\n",
      "  Message('note_on', channel=2, note=74, velocity=93, time=0),\n",
      "  Message('note_on', channel=2, note=77, velocity=0, time=23),\n",
      "  Message('note_on', channel=2, note=74, velocity=0, time=0),\n",
      "  Message('note_on', channel=2, note=86, velocity=93, time=1),\n",
      "  Message('note_on', channel=2, note=86, velocity=0, time=23),\n",
      "  Message('note_on', channel=2, note=77, velocity=93, time=1),\n",
      "  Message('note_on', channel=2, note=74, velocity=93, time=0),\n",
      "  Message('note_on', channel=2, note=77, velocity=0, time=23),\n",
      "  Message('note_on', channel=2, note=74, velocity=0, time=0),\n",
      "  Message('note_on', channel=2, note=86, velocity=93, time=1),\n",
      "  Message('note_on', channel=2, note=86, velocity=0, time=23),\n",
      "  Message('note_on', channel=2, note=77, velocity=93, time=1),\n",
      "  Message('note_on', channel=2, note=74, velocity=93, time=0),\n",
      "  Message('note_on', channel=2, note=77, velocity=0, time=23),\n",
      "  Message('note_on', channel=2, note=74, velocity=0, time=0),\n",
      "  Message('note_on', channel=2, note=86, velocity=93, time=1),\n",
      "  Message('note_on', channel=2, note=86, velocity=0, time=23),\n",
      "  Message('note_on', channel=2, note=77, velocity=93, time=1),\n",
      "  Message('note_on', channel=2, note=74, velocity=93, time=0),\n",
      "  Message('note_on', channel=2, note=77, velocity=0, time=23),\n",
      "  Message('note_on', channel=2, note=74, velocity=0, time=0),\n",
      "  Message('note_on', channel=2, note=86, velocity=93, time=1),\n",
      "  Message('note_on', channel=2, note=86, velocity=0, time=23),\n",
      "  Message('note_on', channel=2, note=77, velocity=93, time=1),\n",
      "  Message('note_on', channel=2, note=74, velocity=93, time=0),\n",
      "  Message('note_on', channel=2, note=77, velocity=0, time=23),\n",
      "  Message('note_on', channel=2, note=74, velocity=0, time=0),\n",
      "  Message('note_on', channel=2, note=86, velocity=93, time=1),\n",
      "  Message('note_on', channel=2, note=86, velocity=0, time=23),\n",
      "  Message('note_on', channel=2, note=74, velocity=93, time=1),\n",
      "  Message('note_on', channel=2, note=74, velocity=0, time=23),\n",
      "  Message('note_on', channel=2, note=83, velocity=93, time=1),\n",
      "  Message('note_on', channel=2, note=83, velocity=0, time=23),\n",
      "  Message('note_on', channel=2, note=74, velocity=93, time=1),\n",
      "  Message('note_on', channel=2, note=74, velocity=0, time=23),\n",
      "  Message('note_on', channel=2, note=83, velocity=93, time=1),\n",
      "  Message('note_on', channel=2, note=83, velocity=0, time=23),\n",
      "  Message('note_on', channel=2, note=73, velocity=93, time=1),\n",
      "  Message('note_on', channel=2, note=73, velocity=0, time=23),\n",
      "  Message('note_on', channel=2, note=81, velocity=93, time=1),\n",
      "  Message('note_on', channel=2, note=81, velocity=0, time=23),\n",
      "  Message('note_on', channel=2, note=73, velocity=93, time=1),\n",
      "  Message('note_on', channel=2, note=73, velocity=0, time=23),\n",
      "  Message('note_on', channel=2, note=81, velocity=93, time=1),\n",
      "  Message('note_on', channel=2, note=81, velocity=0, time=23),\n",
      "  Message('note_on', channel=2, note=72, velocity=93, time=1),\n",
      "  Message('note_on', channel=2, note=72, velocity=0, time=23),\n",
      "  Message('note_on', channel=2, note=81, velocity=93, time=1),\n",
      "  Message('note_on', channel=2, note=81, velocity=0, time=23),\n",
      "  Message('note_on', channel=2, note=72, velocity=93, time=1),\n",
      "  Message('note_on', channel=2, note=72, velocity=0, time=23),\n",
      "  Message('note_on', channel=2, note=81, velocity=93, time=1),\n",
      "  Message('note_on', channel=2, note=81, velocity=0, time=23),\n",
      "  Message('note_on', channel=2, note=71, velocity=93, time=1),\n",
      "  Message('note_on', channel=2, note=71, velocity=0, time=23),\n",
      "  Message('note_on', channel=2, note=79, velocity=93, time=1),\n",
      "  Message('note_on', channel=2, note=79, velocity=0, time=23),\n",
      "  Message('note_on', channel=2, note=71, velocity=93, time=1),\n",
      "  Message('note_on', channel=2, note=71, velocity=0, time=23),\n",
      "  Message('note_on', channel=2, note=79, velocity=93, time=1),\n",
      "  Message('note_on', channel=2, note=79, velocity=0, time=23),\n",
      "  Message('note_on', channel=2, note=70, velocity=93, time=1),\n",
      "  Message('note_on', channel=2, note=70, velocity=0, time=23),\n",
      "  Message('note_on', channel=2, note=79, velocity=93, time=1),\n",
      "  Message('note_on', channel=2, note=79, velocity=0, time=23),\n",
      "  Message('note_on', channel=2, note=70, velocity=93, time=1),\n",
      "  Message('note_on', channel=2, note=70, velocity=0, time=23),\n",
      "  Message('note_on', channel=2, note=79, velocity=93, time=1),\n",
      "  Message('note_on', channel=2, note=79, velocity=0, time=23),\n",
      "  Message('note_on', channel=2, note=69, velocity=93, time=1),\n",
      "  Message('note_on', channel=2, note=69, velocity=0, time=23),\n",
      "  Message('note_on', channel=2, note=77, velocity=93, time=1),\n",
      "  Message('note_on', channel=2, note=77, velocity=0, time=23),\n",
      "  Message('note_on', channel=2, note=69, velocity=93, time=1),\n",
      "  Message('note_on', channel=2, note=69, velocity=0, time=23),\n",
      "  Message('note_on', channel=2, note=77, velocity=93, time=1),\n",
      "  Message('note_on', channel=2, note=77, velocity=0, time=23),\n",
      "  Message('note_on', channel=2, note=69, velocity=93, time=1),\n",
      "  Message('note_on', channel=2, note=69, velocity=0, time=23),\n",
      "  Message('note_on', channel=2, note=77, velocity=93, time=1),\n",
      "  Message('note_on', channel=2, note=77, velocity=0, time=23),\n",
      "  Message('note_on', channel=2, note=69, velocity=93, time=1),\n",
      "  Message('note_on', channel=2, note=69, velocity=0, time=23),\n",
      "  Message('note_on', channel=2, note=77, velocity=93, time=1),\n",
      "  Message('note_on', channel=2, note=77, velocity=0, time=23),\n",
      "  Message('note_on', channel=2, note=67, velocity=93, time=1),\n",
      "  Message('note_on', channel=2, note=67, velocity=0, time=23),\n",
      "  Message('note_on', channel=2, note=76, velocity=93, time=1),\n",
      "  Message('note_on', channel=2, note=76, velocity=0, time=23),\n",
      "  Message('note_on', channel=2, note=67, velocity=93, time=1),\n",
      "  Message('note_on', channel=2, note=67, velocity=0, time=23),\n",
      "  Message('note_on', channel=2, note=76, velocity=93, time=1),\n",
      "  Message('note_on', channel=2, note=76, velocity=0, time=23),\n",
      "  Message('note_on', channel=2, note=67, velocity=93, time=1),\n",
      "  Message('note_on', channel=2, note=67, velocity=0, time=23),\n",
      "  Message('note_on', channel=2, note=76, velocity=93, time=1),\n",
      "  Message('note_on', channel=2, note=76, velocity=0, time=23),\n",
      "  Message('note_on', channel=2, note=67, velocity=93, time=1),\n",
      "  Message('note_on', channel=2, note=67, velocity=0, time=23),\n",
      "  Message('note_on', channel=2, note=76, velocity=93, time=1),\n",
      "  Message('note_on', channel=2, note=76, velocity=0, time=23),\n",
      "  Message('note_on', channel=2, note=65, velocity=93, time=1),\n",
      "  Message('note_on', channel=2, note=65, velocity=0, time=23),\n",
      "  Message('note_on', channel=2, note=74, velocity=93, time=1),\n",
      "  Message('note_on', channel=2, note=74, velocity=0, time=23),\n",
      "  Message('note_on', channel=2, note=65, velocity=93, time=1),\n",
      "  Message('note_on', channel=2, note=65, velocity=0, time=23),\n",
      "  Message('note_on', channel=2, note=74, velocity=93, time=1),\n",
      "  Message('note_on', channel=2, note=74, velocity=0, time=23),\n",
      "  Message('note_on', channel=2, note=69, velocity=93, time=1),\n",
      "  Message('note_on', channel=2, note=69, velocity=0, time=23),\n",
      "  Message('note_on', channel=2, note=76, velocity=93, time=1),\n",
      "  Message('note_on', channel=2, note=76, velocity=0, time=23),\n",
      "  Message('note_on', channel=2, note=69, velocity=93, time=1),\n",
      "  Message('note_on', channel=2, note=69, velocity=0, time=23),\n",
      "  Message('note_on', channel=2, note=76, velocity=93, time=1),\n",
      "  Message('note_on', channel=2, note=76, velocity=0, time=23),\n",
      "  Message('note_on', channel=2, note=74, velocity=93, time=1),\n",
      "  Message('note_on', channel=2, note=74, velocity=0, time=23),\n",
      "  Message('note_on', channel=2, note=80, velocity=93, time=1),\n",
      "  Message('note_on', channel=2, note=80, velocity=0, time=23),\n",
      "  Message('note_on', channel=2, note=74, velocity=93, time=1),\n",
      "  Message('note_on', channel=2, note=74, velocity=0, time=23),\n",
      "  Message('note_on', channel=2, note=80, velocity=93, time=1),\n",
      "  Message('note_on', channel=2, note=80, velocity=0, time=23),\n",
      "  Message('note_on', channel=2, note=81, velocity=94, time=1),\n",
      "  Message('note_on', channel=2, note=81, velocity=0, time=192),\n",
      "  Message('note_on', channel=2, note=79, velocity=78, time=0),\n",
      "  Message('note_on', channel=2, note=79, velocity=0, time=89),\n",
      "  Message('note_on', channel=2, note=78, velocity=80, time=7),\n",
      "  Message('note_on', channel=2, note=78, velocity=0, time=89),\n",
      "  Message('note_on', channel=2, note=75, velocity=98, time=7),\n",
      "  Message('note_on', channel=2, note=75, velocity=0, time=96),\n",
      "  Message('note_on', channel=2, note=76, velocity=81, time=0),\n",
      "  Message('note_on', channel=2, note=76, velocity=0, time=141),\n",
      "  Message('note_on', channel=2, note=79, velocity=79, time=3),\n",
      "  Message('note_on', channel=2, note=79, velocity=0, time=45),\n",
      "  Message('note_on', channel=2, note=73, velocity=79, time=3),\n",
      "  Message('note_on', channel=2, note=73, velocity=0, time=45),\n",
      "  Message('note_on', channel=2, note=76, velocity=78, time=3),\n",
      "  Message('note_on', channel=2, note=76, velocity=0, time=45),\n",
      "  Message('note_on', channel=2, note=74, velocity=78, time=3),\n",
      "  Message('note_on', channel=2, note=74, velocity=0, time=89),\n",
      "  Message('note_on', channel=2, note=69, velocity=78, time=679),\n",
      "  Message('note_on', channel=2, note=69, velocity=0, time=18),\n",
      "  Message('note_on', channel=2, note=81, velocity=94, time=0),\n",
      "  Message('note_on', channel=2, note=81, velocity=0, time=145),\n",
      "  Message('note_on', channel=2, note=83, velocity=79, time=5),\n",
      "  Message('note_on', channel=2, note=83, velocity=0, time=12),\n",
      "  Message('note_on', channel=2, note=81, velocity=79, time=0),\n",
      "  Message('note_on', channel=2, note=81, velocity=0, time=12),\n",
      "  Message('note_on', channel=2, note=79, velocity=80, time=0),\n",
      "  Message('note_on', channel=2, note=79, velocity=0, time=67),\n",
      "  Message('note_on', channel=2, note=81, velocity=80, time=5),\n",
      "  Message('note_on', channel=2, note=81, velocity=0, time=12),\n",
      "  Message('note_on', channel=2, note=79, velocity=80, time=0),\n",
      "  Message('note_on', channel=2, note=79, velocity=0, time=12),\n",
      "  Message('note_on', channel=2, note=78, velocity=81, time=0),\n",
      "  Message('note_on', channel=2, note=78, velocity=0, time=67),\n",
      "  Message('note_on', channel=2, note=79, velocity=81, time=5),\n",
      "  Message('note_on', channel=2, note=79, velocity=0, time=12),\n",
      "  Message('note_on', channel=2, note=78, velocity=81, time=0),\n",
      "  Message('note_on', channel=2, note=78, velocity=0, time=12),\n",
      "  Message('note_on', channel=2, note=75, velocity=98, time=0),\n",
      "  Message('note_on', channel=2, note=75, velocity=0, time=48),\n",
      "  Message('note_on', channel=2, note=78, velocity=81, time=0),\n",
      "  Message('note_on', channel=2, note=78, velocity=0, time=20),\n",
      "  Message('note_on', channel=2, note=76, velocity=81, time=28),\n",
      "  Message('note_on', channel=2, note=76, velocity=0, time=119),\n",
      "  Message('note_on', channel=2, note=78, velocity=79, time=1),\n",
      "  Message('note_on', channel=2, note=78, velocity=0, time=23),\n",
      "  Message('note_on', channel=2, note=79, velocity=79, time=1),\n",
      "  Message('note_on', channel=2, note=79, velocity=0, time=23),\n",
      "  Message('note_on', channel=2, note=76, velocity=79, time=1),\n",
      "  Message('note_on', channel=2, note=76, velocity=0, time=23),\n",
      "  Message('note_on', channel=2, note=73, velocity=79, time=1),\n",
      "  Message('note_on', channel=2, note=73, velocity=0, time=23),\n",
      "  Message('note_on', channel=2, note=74, velocity=78, time=1),\n",
      "  Message('note_on', channel=2, note=74, velocity=0, time=23),\n",
      "  Message('note_on', channel=2, note=76, velocity=78, time=1),\n",
      "  Message('note_on', channel=2, note=76, velocity=0, time=23),\n",
      "  Message('note_on', channel=2, note=73, velocity=78, time=1),\n",
      "  Message('note_on', channel=2, note=73, velocity=0, time=23),\n",
      "  Message('note_on', channel=2, note=74, velocity=78, time=1),\n",
      "  Message('note_on', channel=2, note=74, velocity=0, time=89),\n",
      "  Message('note_on', channel=2, note=78, velocity=73, time=967),\n",
      "  Message('note_on', channel=2, note=78, velocity=0, time=23),\n",
      "  Message('note_on', channel=2, note=81, velocity=73, time=1),\n",
      "  Message('note_on', channel=2, note=81, velocity=0, time=23),\n",
      "  Message('note_on', channel=2, note=80, velocity=73, time=1),\n",
      "  Message('note_on', channel=2, note=80, velocity=0, time=23),\n",
      "  Message('note_on', channel=2, note=83, velocity=73, time=1),\n",
      "  Message('note_on', channel=2, note=83, velocity=0, time=23),\n",
      "  Message('note_on', channel=2, note=81, velocity=73, time=1),\n",
      "  Message('note_on', channel=2, note=81, velocity=0, time=45),\n",
      "  Message('note_on', channel=2, note=78, velocity=66, time=243),\n",
      "  Message('note_on', channel=2, note=78, velocity=0, time=23),\n",
      "  Message('note_on', channel=2, note=81, velocity=66, time=1),\n",
      "  Message('note_on', channel=2, note=81, velocity=0, time=23),\n",
      "  Message('note_on', channel=2, note=80, velocity=66, time=1),\n",
      "  Message('note_on', channel=2, note=80, velocity=0, time=23),\n",
      "  Message('note_on', channel=2, note=83, velocity=66, time=1),\n",
      "  Message('note_on', channel=2, note=83, velocity=0, time=23),\n",
      "  Message('note_on', channel=2, note=81, velocity=66, time=1),\n",
      "  Message('note_on', channel=2, note=81, velocity=0, time=20),\n",
      "  Message('note_on', channel=2, note=81, velocity=66, time=28),\n",
      "  Message('note_on', channel=2, note=81, velocity=0, time=20),\n",
      "  Message('note_on', channel=2, note=76, velocity=73, time=220),\n",
      "  Message('note_on', channel=2, note=76, velocity=0, time=45),\n",
      "  Message('note_on', channel=2, note=78, velocity=73, time=3),\n",
      "  Message('note_on', channel=2, note=78, velocity=0, time=45),\n",
      "  Message('note_on', channel=2, note=81, velocity=73, time=3),\n",
      "  Message('note_on', channel=2, note=81, velocity=0, time=45),\n",
      "  Message('note_on', channel=2, note=79, velocity=73, time=3),\n",
      "  Message('note_on', channel=2, note=79, velocity=0, time=45),\n",
      "  Message('note_on', channel=2, note=71, velocity=73, time=195),\n",
      "  Message('note_on', channel=2, note=71, velocity=0, time=45),\n",
      "  Message('note_on', channel=2, note=76, velocity=73, time=3),\n",
      "  Message('note_on', channel=2, note=76, velocity=0, time=45),\n",
      "  Message('note_on', channel=2, note=74, velocity=73, time=3),\n",
      "  Message('note_on', channel=2, note=74, velocity=0, time=45),\n",
      "  Message('note_on', channel=2, note=73, velocity=73, time=3),\n",
      "  Message('note_on', channel=2, note=73, velocity=0, time=45),\n",
      "  Message('note_on', channel=2, note=67, velocity=73, time=3),\n",
      "  Message('note_on', channel=2, note=67, velocity=0, time=45),\n",
      "  Message('note_on', channel=2, note=66, velocity=73, time=3),\n",
      "  Message('note_on', channel=2, note=66, velocity=0, time=45),\n",
      "  Message('note_on', channel=2, note=64, velocity=89, time=3),\n",
      "  Message('note_on', channel=2, note=64, velocity=0, time=48),\n",
      "  Message('note_on', channel=2, note=67, velocity=74, time=0),\n",
      "  Message('note_on', channel=2, note=67, velocity=0, time=45),\n",
      "  Message('note_on', channel=2, note=71, velocity=75, time=3),\n",
      "  Message('note_on', channel=2, note=71, velocity=0, time=45),\n",
      "  Message('note_on', channel=2, note=69, velocity=76, time=3),\n",
      "  Message('note_on', channel=2, note=69, velocity=0, time=45),\n",
      "  Message('note_on', channel=2, note=67, velocity=77, time=3),\n",
      "  Message('note_on', channel=2, note=67, velocity=0, time=45),\n",
      "  Message('note_on', channel=2, note=71, velocity=78, time=3),\n",
      "  Message('note_on', channel=2, note=71, velocity=0, time=45),\n",
      "  Message('note_on', channel=2, note=76, velocity=79, time=3),\n",
      "  Message('note_on', channel=2, note=67, velocity=79, time=0),\n",
      "  Message('note_on', channel=2, note=76, velocity=0, time=45),\n",
      "  Message('note_on', channel=2, note=67, velocity=0, time=0),\n",
      "  Message('note_on', channel=2, note=74, velocity=80, time=3),\n",
      "  Message('note_on', channel=2, note=66, velocity=80, time=0),\n",
      "  Message('note_on', channel=2, note=74, velocity=0, time=45),\n",
      "  Message('note_on', channel=2, note=66, velocity=0, time=0),\n",
      "  Message('note_on', channel=2, note=73, velocity=97, time=3),\n",
      "  Message('note_on', channel=2, note=64, velocity=97, time=0),\n",
      "  Message('note_on', channel=2, note=73, velocity=0, time=48),\n",
      "  Message('note_on', channel=2, note=64, velocity=0, time=0),\n",
      "  Message('note_on', channel=2, note=76, velocity=82, time=0),\n",
      "  Message('note_on', channel=2, note=67, velocity=82, time=0),\n",
      "  Message('note_on', channel=2, note=76, velocity=0, time=45),\n",
      "  Message('note_on', channel=2, note=67, velocity=0, time=0),\n",
      "  Message('note_on', channel=2, note=79, velocity=83, time=3),\n",
      "  Message('note_on', channel=2, note=76, velocity=83, time=0),\n",
      "  Message('note_on', channel=2, note=79, velocity=0, time=45),\n",
      "  Message('note_on', channel=2, note=76, velocity=0, time=0),\n",
      "  Message('note_on', channel=2, note=78, velocity=84, time=3),\n",
      "  Message('note_on', channel=2, note=74, velocity=84, time=0),\n",
      "  Message('note_on', channel=2, note=78, velocity=0, time=45),\n",
      "  Message('note_on', channel=2, note=74, velocity=0, time=0),\n",
      "  Message('note_on', channel=2, note=76, velocity=85, time=3),\n",
      "  Message('note_on', channel=2, note=73, velocity=85, time=0),\n",
      "  Message('note_on', channel=2, note=76, velocity=0, time=45),\n",
      "  Message('note_on', channel=2, note=73, velocity=0, time=0),\n",
      "  Message('note_on', channel=2, note=79, velocity=87, time=3),\n",
      "  Message('note_on', channel=2, note=76, velocity=87, time=0),\n",
      "  Message('note_on', channel=2, note=79, velocity=0, time=45),\n",
      "  Message('note_on', channel=2, note=76, velocity=0, time=0),\n",
      "  Message('note_on', channel=2, note=83, velocity=87, time=3),\n",
      "  Message('note_on', channel=2, note=79, velocity=87, time=0),\n",
      "  Message('note_on', channel=2, note=83, velocity=0, time=20),\n",
      "  Message('note_on', channel=2, note=79, velocity=0, time=0),\n",
      "  Message('note_on', channel=2, note=81, velocity=87, time=28),\n",
      "  Message('note_on', channel=2, note=78, velocity=87, time=0),\n",
      "  Message('note_on', channel=2, note=81, velocity=0, time=20),\n",
      "  Message('note_on', channel=2, note=78, velocity=0, time=0),\n",
      "  Message('note_on', channel=2, note=79, velocity=87, time=28),\n",
      "  Message('note_on', channel=2, note=76, velocity=87, time=0),\n",
      "  Message('note_on', channel=2, note=79, velocity=0, time=20),\n",
      "  Message('note_on', channel=2, note=76, velocity=0, time=0),\n",
      "  Message('note_on', channel=2, note=78, velocity=87, time=28),\n",
      "  Message('note_on', channel=2, note=74, velocity=87, time=0),\n",
      "  Message('note_on', channel=2, note=78, velocity=0, time=20),\n",
      "  Message('note_on', channel=2, note=74, velocity=0, time=0),\n",
      "  Message('note_on', channel=2, note=76, velocity=87, time=28),\n",
      "  Message('note_on', channel=2, note=73, velocity=87, time=0),\n",
      "  Message('note_on', channel=2, note=76, velocity=0, time=20),\n",
      "  Message('note_on', channel=2, note=73, velocity=0, time=0),\n",
      "  Message('note_on', channel=2, note=74, velocity=87, time=28),\n",
      "  Message('note_on', channel=2, note=71, velocity=87, time=0),\n",
      "  Message('note_on', channel=2, note=74, velocity=0, time=20),\n",
      "  Message('note_on', channel=2, note=71, velocity=0, time=0),\n",
      "  Message('note_on', channel=2, note=73, velocity=87, time=28),\n",
      "  Message('note_on', channel=2, note=69, velocity=87, time=0),\n",
      "  Message('note_on', channel=2, note=73, velocity=0, time=20),\n",
      "  Message('note_on', channel=2, note=69, velocity=0, time=0),\n",
      "  Message('note_on', channel=2, note=71, velocity=87, time=28),\n",
      "  Message('note_on', channel=2, note=67, velocity=87, time=0),\n",
      "  Message('note_on', channel=2, note=71, velocity=0, time=20),\n",
      "  Message('note_on', channel=2, note=67, velocity=0, time=0),\n",
      "  Message('note_on', channel=2, note=69, velocity=87, time=28),\n",
      "  Message('note_on', channel=2, note=66, velocity=87, time=0),\n",
      "  Message('note_on', channel=2, note=69, velocity=0, time=20),\n",
      "  Message('note_on', channel=2, note=66, velocity=0, time=0),\n",
      "  Message('note_on', channel=2, note=71, velocity=87, time=28),\n",
      "  Message('note_on', channel=2, note=67, velocity=87, time=0),\n",
      "  Message('note_on', channel=2, note=71, velocity=0, time=20),\n",
      "  Message('note_on', channel=2, note=67, velocity=0, time=0),\n",
      "  Message('note_on', channel=2, note=69, velocity=87, time=28),\n",
      "  Message('note_on', channel=2, note=66, velocity=87, time=0),\n",
      "  Message('note_on', channel=2, note=69, velocity=0, time=20),\n",
      "  Message('note_on', channel=2, note=66, velocity=0, time=0),\n",
      "  Message('note_on', channel=2, note=67, velocity=87, time=28),\n",
      "  Message('note_on', channel=2, note=64, velocity=87, time=0),\n",
      "  Message('note_on', channel=2, note=67, velocity=0, time=20),\n",
      "  Message('note_on', channel=2, note=64, velocity=0, time=0),\n",
      "  Message('note_on', channel=2, note=66, velocity=87, time=28),\n",
      "  Message('note_on', channel=2, note=62, velocity=87, time=0),\n",
      "  Message('note_on', channel=2, note=66, velocity=0, time=20),\n",
      "  Message('note_on', channel=2, note=62, velocity=0, time=0),\n",
      "  Message('note_on', channel=2, note=64, velocity=87, time=28),\n",
      "  Message('note_on', channel=2, note=61, velocity=87, time=0),\n",
      "  Message('note_on', channel=2, note=64, velocity=0, time=20),\n",
      "  Message('note_on', channel=2, note=61, velocity=0, time=0),\n",
      "  Message('note_on', channel=2, note=74, velocity=87, time=28),\n",
      "  Message('note_on', channel=2, note=69, velocity=87, time=0),\n",
      "  Message('note_on', channel=2, note=66, velocity=87, time=0),\n",
      "  Message('note_on', channel=2, note=62, velocity=87, time=0),\n",
      "  Message('note_on', channel=2, note=74, velocity=0, time=177),\n",
      "  Message('note_on', channel=2, note=69, velocity=0, time=0),\n",
      "  Message('note_on', channel=2, note=66, velocity=0, time=0),\n",
      "  Message('note_on', channel=2, note=62, velocity=0, time=0),\n",
      "  Message('note_on', channel=2, note=69, velocity=87, time=15),\n",
      "  Message('note_on', channel=2, note=69, velocity=0, time=177),\n",
      "  Message('note_on', channel=2, note=67, velocity=87, time=15),\n",
      "  Message('note_on', channel=2, note=67, velocity=0, time=18),\n",
      "  Message('note_on', channel=2, note=66, velocity=87, time=0),\n",
      "  Message('note_on', channel=2, note=66, velocity=0, time=18),\n",
      "  Message('note_on', channel=2, note=67, velocity=87, time=0),\n",
      "  Message('note_on', channel=2, note=67, velocity=0, time=18),\n",
      "  Message('note_on', channel=2, note=66, velocity=87, time=0),\n",
      "  Message('note_on', channel=2, note=66, velocity=0, time=18),\n",
      "  Message('note_on', channel=2, note=67, velocity=87, time=0),\n",
      "  Message('note_on', channel=2, note=67, velocity=0, time=18),\n",
      "  Message('note_on', channel=2, note=66, velocity=87, time=0),\n",
      "  Message('note_on', channel=2, note=66, velocity=0, time=18),\n",
      "  Message('note_on', channel=2, note=67, velocity=87, time=0),\n",
      "  Message('note_on', channel=2, note=67, velocity=0, time=18),\n",
      "  Message('note_on', channel=2, note=66, velocity=87, time=0),\n",
      "  Message('note_on', channel=2, note=66, velocity=0, time=7),\n",
      "  Message('note_on', channel=2, note=64, velocity=87, time=11),\n",
      "  Message('note_on', channel=2, note=64, velocity=0, time=23),\n",
      "  Message('note_on', channel=2, note=62, velocity=87, time=1),\n",
      "  Message('note_on', channel=2, note=62, velocity=0, time=23),\n",
      "  Message('note_on', channel=2, note=69, velocity=87, time=1),\n",
      "  Message('note_on', channel=2, note=69, velocity=0, time=89),\n",
      "  Message('note_on', channel=2, note=57, velocity=87, time=79),\n",
      "  Message('note_on', channel=2, note=57, velocity=0, time=8),\n",
      "  Message('note_on', channel=2, note=59, velocity=87, time=0),\n",
      "  Message('note_on', channel=2, note=59, velocity=0, time=8),\n",
      "  Message('note_on', channel=2, note=61, velocity=87, time=0),\n",
      "  Message('note_on', channel=2, note=61, velocity=0, time=8),\n",
      "  Message('note_on', channel=2, note=62, velocity=87, time=0),\n",
      "  Message('note_on', channel=2, note=62, velocity=0, time=89),\n",
      "  Message('note_on', channel=2, note=57, velocity=87, time=7),\n",
      "  Message('note_on', channel=2, note=57, velocity=0, time=67),\n",
      "  Message('note_on', channel=2, note=62, velocity=87, time=5),\n",
      "  Message('note_on', channel=2, note=62, velocity=0, time=23),\n",
      "  Message('note_on', channel=2, note=64, velocity=87, time=1),\n",
      "  Message('note_on', channel=2, note=64, velocity=0, time=89),\n",
      "  Message('note_on', channel=2, note=57, velocity=87, time=7),\n",
      "  Message('note_on', channel=2, note=57, velocity=0, time=67),\n",
      "  Message('note_on', channel=2, note=64, velocity=87, time=5),\n",
      "  Message('note_on', channel=2, note=64, velocity=0, time=23),\n",
      "  Message('note_on', channel=2, note=66, velocity=87, time=1),\n",
      "  Message('note_on', channel=2, note=66, velocity=0, time=89),\n",
      "  Message('note_on', channel=2, note=62, velocity=87, time=7),\n",
      "  Message('note_on', channel=2, note=62, velocity=0, time=67),\n",
      "  Message('note_on', channel=2, note=66, velocity=87, time=5),\n",
      "  Message('note_on', channel=2, note=66, velocity=0, time=23),\n",
      "  Message('note_on', channel=2, note=69, velocity=87, time=1),\n",
      "  Message('note_on', channel=2, note=69, velocity=0, time=89),\n",
      "  Message('note_on', channel=2, note=69, velocity=82, time=607),\n",
      "  Message('note_on', channel=2, note=69, velocity=0, time=23),\n",
      "  Message('note_on', channel=2, note=71, velocity=82, time=1),\n",
      "  Message('note_on', channel=2, note=71, velocity=0, time=23),\n",
      "  Message('note_on', channel=2, note=73, velocity=82, time=1),\n",
      "  Message('note_on', channel=2, note=73, velocity=0, time=23),\n",
      "  Message('note_on', channel=2, note=74, velocity=83, time=1),\n",
      "  Message('note_on', channel=2, note=74, velocity=0, time=23),\n",
      "  Message('note_on', channel=2, note=73, velocity=83, time=1),\n",
      "  Message('note_on', channel=2, note=73, velocity=0, time=23),\n",
      "  Message('note_on', channel=2, note=74, velocity=83, time=1),\n",
      "  Message('note_on', channel=2, note=74, velocity=0, time=23),\n",
      "  Message('note_on', channel=2, note=69, velocity=84, time=1),\n",
      "  Message('note_on', channel=2, note=69, velocity=0, time=23),\n",
      "  Message('note_on', channel=2, note=76, velocity=84, time=1),\n",
      "  Message('note_on', channel=2, note=76, velocity=0, time=23),\n",
      "  Message('note_on', channel=2, note=74, velocity=84, time=1),\n",
      "  Message('note_on', channel=2, note=74, velocity=0, time=23),\n",
      "  Message('note_on', channel=2, note=76, velocity=85, time=1),\n",
      "  Message('note_on', channel=2, note=76, velocity=0, time=23),\n",
      "  Message('note_on', channel=2, note=69, velocity=85, time=1),\n",
      "  Message('note_on', channel=2, note=69, velocity=0, time=23),\n",
      "  Message('note_on', channel=2, note=78, velocity=85, time=1),\n",
      "  Message('note_on', channel=2, note=78, velocity=0, time=89),\n",
      "  Message('note_on', channel=2, note=73, velocity=82, time=415),\n",
      "  Message('note_on', channel=2, note=73, velocity=0, time=23),\n",
      "  Message('note_on', channel=2, note=74, velocity=82, time=1),\n",
      "  Message('note_on', channel=2, note=74, velocity=0, time=23),\n",
      "  Message('note_on', channel=2, note=76, velocity=82, time=1),\n",
      "  Message('note_on', channel=2, note=76, velocity=0, time=23),\n",
      "  Message('note_on', channel=2, note=78, velocity=83, time=1),\n",
      "  Message('note_on', channel=2, note=78, velocity=0, time=23),\n",
      "  Message('note_on', channel=2, note=76, velocity=83, time=1),\n",
      "  Message('note_on', channel=2, note=76, velocity=0, time=23),\n",
      "  Message('note_on', channel=2, note=78, velocity=83, time=1),\n",
      "  Message('note_on', channel=2, note=78, velocity=0, time=23),\n",
      "  Message('note_on', channel=2, note=74, velocity=84, time=1),\n",
      "  Message('note_on', channel=2, note=74, velocity=0, time=23),\n",
      "  Message('note_on', channel=2, note=79, velocity=84, time=1),\n",
      "  Message('note_on', channel=2, note=79, velocity=0, time=23),\n",
      "  Message('note_on', channel=2, note=78, velocity=84, time=1),\n",
      "  Message('note_on', channel=2, note=78, velocity=0, time=23),\n",
      "  Message('note_on', channel=2, note=79, velocity=85, time=1),\n",
      "  Message('note_on', channel=2, note=79, velocity=0, time=23),\n",
      "  Message('note_on', channel=2, note=76, velocity=85, time=1),\n",
      "  Message('note_on', channel=2, note=76, velocity=0, time=23),\n",
      "  Message('note_on', channel=2, note=81, velocity=85, time=1),\n",
      "  Message('note_on', channel=2, note=81, velocity=0, time=89),\n",
      "  Message('note_on', channel=2, note=69, velocity=82, time=1471),\n",
      "  Message('note_on', channel=2, note=69, velocity=0, time=23),\n",
      "  Message('note_on', channel=2, note=71, velocity=82, time=1),\n",
      "  Message('note_on', channel=2, note=71, velocity=0, time=23),\n",
      "  Message('note_on', channel=2, note=73, velocity=82, time=1),\n",
      "  Message('note_on', channel=2, note=73, velocity=0, time=23),\n",
      "  Message('note_on', channel=2, note=74, velocity=83, time=1),\n",
      "  Message('note_on', channel=2, note=74, velocity=0, time=23),\n",
      "  Message('note_on', channel=2, note=76, velocity=83, time=1),\n",
      "  Message('note_on', channel=2, note=76, velocity=0, time=23),\n",
      "  Message('note_on', channel=2, note=78, velocity=84, time=1),\n",
      "  Message('note_on', channel=2, note=78, velocity=0, time=23),\n",
      "  Message('note_on', channel=2, note=79, velocity=84, time=1),\n",
      "  Message('note_on', channel=2, note=79, velocity=0, time=23),\n",
      "  Message('note_on', channel=2, note=81, velocity=85, time=1),\n",
      "  Message('note_on', channel=2, note=81, velocity=0, time=23),\n",
      "  Message('note_on', channel=2, note=83, velocity=85, time=1),\n",
      "  Message('note_on', channel=2, note=83, velocity=0, time=23),\n",
      "  Message('note_on', channel=2, note=85, velocity=86, time=1),\n",
      "  Message('note_on', channel=2, note=85, velocity=0, time=23),\n",
      "  Message('note_on', channel=2, note=86, velocity=86, time=1),\n",
      "  Message('note_on', channel=2, note=86, velocity=0, time=23),\n",
      "  Message('note_on', channel=2, note=81, velocity=87, time=1),\n",
      "  Message('note_on', channel=2, note=81, velocity=0, time=45),\n",
      "  Message('note_on', channel=2, note=69, velocity=82, time=75),\n",
      "  Message('note_on', channel=2, note=69, velocity=0, time=23),\n",
      "  Message('note_on', channel=2, note=71, velocity=82, time=1),\n",
      "  Message('note_on', channel=2, note=71, velocity=0, time=23),\n",
      "  Message('note_on', channel=2, note=73, velocity=82, time=1),\n",
      "  Message('note_on', channel=2, note=73, velocity=0, time=23),\n",
      "  Message('note_on', channel=2, note=74, velocity=83, time=1),\n",
      "  Message('note_on', channel=2, note=74, velocity=0, time=23),\n",
      "  Message('note_on', channel=2, note=76, velocity=83, time=1),\n",
      "  Message('note_on', channel=2, note=76, velocity=0, time=23),\n",
      "  Message('note_on', channel=2, note=78, velocity=84, time=1),\n",
      "  Message('note_on', channel=2, note=78, velocity=0, time=23),\n",
      "  Message('note_on', channel=2, note=80, velocity=84, time=1),\n",
      "  Message('note_on', channel=2, note=80, velocity=0, time=23),\n",
      "  Message('note_on', channel=2, note=81, velocity=85, time=1),\n",
      "  Message('note_on', channel=2, note=81, velocity=0, time=23),\n",
      "  Message('note_on', channel=2, note=85, velocity=85, time=1),\n",
      "  Message('note_on', channel=2, note=85, velocity=0, time=23),\n",
      "  Message('note_on', channel=2, note=86, velocity=86, time=1),\n",
      "  Message('note_on', channel=2, note=86, velocity=0, time=23),\n",
      "  Message('note_on', channel=2, note=88, velocity=86, time=1),\n",
      "  Message('note_on', channel=2, note=88, velocity=0, time=23),\n",
      "  Message('note_on', channel=2, note=81, velocity=87, time=1),\n",
      "  Message('note_on', channel=2, note=81, velocity=0, time=45),\n",
      "  Message('note_on', channel=2, note=69, velocity=82, time=75),\n",
      "  Message('note_on', channel=2, note=69, velocity=0, time=23),\n",
      "  Message('note_on', channel=2, note=71, velocity=82, time=1),\n",
      "  Message('note_on', channel=2, note=71, velocity=0, time=23),\n",
      "  Message('note_on', channel=2, note=73, velocity=82, time=1),\n",
      "  Message('note_on', channel=2, note=73, velocity=0, time=23),\n",
      "  Message('note_on', channel=2, note=74, velocity=83, time=1),\n",
      "  Message('note_on', channel=2, note=74, velocity=0, time=23),\n",
      "  Message('note_on', channel=2, note=76, velocity=83, time=1),\n",
      "  Message('note_on', channel=2, note=76, velocity=0, time=23),\n",
      "  Message('note_on', channel=2, note=78, velocity=84, time=1),\n",
      "  Message('note_on', channel=2, note=78, velocity=0, time=23),\n",
      "  Message('note_on', channel=2, note=79, velocity=84, time=1),\n",
      "  Message('note_on', channel=2, note=79, velocity=0, time=23),\n",
      "  Message('note_on', channel=2, note=81, velocity=85, time=1),\n",
      "  Message('note_on', channel=2, note=81, velocity=0, time=23),\n",
      "  Message('note_on', channel=2, note=83, velocity=85, time=1),\n",
      "  Message('note_on', channel=2, note=83, velocity=0, time=23),\n",
      "  Message('note_on', channel=2, note=85, velocity=86, time=1),\n",
      "  Message('note_on', channel=2, note=85, velocity=0, time=23),\n",
      "  Message('note_on', channel=2, note=86, velocity=86, time=1),\n",
      "  Message('note_on', channel=2, note=86, velocity=0, time=23),\n",
      "  Message('note_on', channel=2, note=81, velocity=87, time=1),\n",
      "  Message('note_on', channel=2, note=81, velocity=0, time=45),\n",
      "  Message('note_on', channel=2, note=71, velocity=82, time=75),\n",
      "  Message('note_on', channel=2, note=71, velocity=0, time=23),\n",
      "  Message('note_on', channel=2, note=72, velocity=82, time=1),\n",
      "  Message('note_on', channel=2, note=72, velocity=0, time=23),\n",
      "  Message('note_on', channel=2, note=74, velocity=82, time=1),\n",
      "  Message('note_on', channel=2, note=74, velocity=0, time=23),\n",
      "  Message('note_on', channel=2, note=76, velocity=83, time=1),\n",
      "  Message('note_on', channel=2, note=76, velocity=0, time=23),\n",
      "  Message('note_on', channel=2, note=78, velocity=83, time=1),\n",
      "  Message('note_on', channel=2, note=78, velocity=0, time=23),\n",
      "  Message('note_on', channel=2, note=79, velocity=83, time=1),\n",
      "  Message('note_on', channel=2, note=79, velocity=0, time=23),\n",
      "  Message('note_on', channel=2, note=81, velocity=84, time=1),\n",
      "  Message('note_on', channel=2, note=81, velocity=0, time=23),\n",
      "  Message('note_on', channel=2, note=83, velocity=84, time=1),\n",
      "  Message('note_on', channel=2, note=83, velocity=0, time=23),\n",
      "  Message('note_on', channel=2, note=84, velocity=85, time=1),\n",
      "  Message('note_on', channel=2, note=84, velocity=0, time=23),\n",
      "  Message('note_on', channel=2, note=85, velocity=85, time=1),\n",
      "  Message('note_on', channel=2, note=85, velocity=0, time=23),\n",
      "  Message('note_on', channel=2, note=86, velocity=85, time=1),\n",
      "  Message('note_on', channel=2, note=86, velocity=0, time=23),\n",
      "  Message('note_on', channel=2, note=83, velocity=86, time=1),\n",
      "  Message('note_on', channel=2, note=83, velocity=0, time=45),\n",
      "  Message('note_on', channel=2, note=72, velocity=82, time=75),\n",
      "  Message('note_on', channel=2, note=72, velocity=0, time=23),\n",
      "  Message('note_on', channel=2, note=74, velocity=82, time=1),\n",
      "  Message('note_on', channel=2, note=74, velocity=0, time=23),\n",
      "  Message('note_on', channel=2, note=76, velocity=82, time=1),\n",
      "  Message('note_on', channel=2, note=76, velocity=0, time=23),\n",
      "  Message('note_on', channel=2, note=78, velocity=83, time=1),\n",
      "  Message('note_on', channel=2, note=78, velocity=0, time=23),\n",
      "  Message('note_on', channel=2, note=79, velocity=83, time=1),\n",
      "  Message('note_on', channel=2, note=79, velocity=0, time=23),\n",
      "  Message('note_on', channel=2, note=81, velocity=83, time=1),\n",
      "  Message('note_on', channel=2, note=81, velocity=0, time=23),\n",
      "  Message('note_on', channel=2, note=83, velocity=84, time=1),\n",
      "  Message('note_on', channel=2, note=83, velocity=0, time=23),\n",
      "  Message('note_on', channel=2, note=84, velocity=84, time=1),\n",
      "  Message('note_on', channel=2, note=84, velocity=0, time=23),\n",
      "  Message('note_on', channel=2, note=81, velocity=85, time=1),\n",
      "  Message('note_on', channel=2, note=81, velocity=0, time=23),\n",
      "  Message('note_on', channel=2, note=84, velocity=85, time=1),\n",
      "  Message('note_on', channel=2, note=84, velocity=0, time=23),\n",
      "  Message('note_on', channel=2, note=81, velocity=85, time=1),\n",
      "  Message('note_on', channel=2, note=81, velocity=0, time=23),\n",
      "  Message('note_on', channel=2, note=84, velocity=86, time=1),\n",
      "  Message('note_on', channel=2, note=84, velocity=0, time=45),\n",
      "  Message('note_on', channel=2, note=83, velocity=87, time=51),\n",
      "  Message('note_on', channel=2, note=83, velocity=0, time=89),\n",
      "  Message('note_on', channel=2, note=86, velocity=87, time=391),\n",
      "  Message('note_on', channel=2, note=86, velocity=0, time=23),\n",
      "  Message('note_on', channel=2, note=83, velocity=87, time=1),\n",
      "  Message('note_on', channel=2, note=83, velocity=0, time=23),\n",
      "  Message('note_on', channel=2, note=79, velocity=87, time=1),\n",
      "  Message('note_on', channel=2, note=79, velocity=0, time=23),\n",
      "  Message('note_on', channel=2, note=74, velocity=87, time=1),\n",
      "  Message('note_on', channel=2, note=74, velocity=0, time=23),\n",
      "  Message('note_on', channel=2, note=83, velocity=87, time=1),\n",
      "  Message('note_on', channel=2, note=83, velocity=0, time=23),\n",
      "  Message('note_on', channel=2, note=79, velocity=87, time=1),\n",
      "  Message('note_on', channel=2, note=79, velocity=0, time=23),\n",
      "  Message('note_on', channel=2, note=74, velocity=87, time=1),\n",
      "  Message('note_on', channel=2, note=74, velocity=0, time=23),\n",
      "  Message('note_on', channel=2, note=71, velocity=87, time=1),\n",
      "  Message('note_on', channel=2, note=71, velocity=0, time=23),\n",
      "  Message('note_on', channel=2, note=79, velocity=87, time=1),\n",
      "  Message('note_on', channel=2, note=79, velocity=0, time=23),\n",
      "  Message('note_on', channel=2, note=74, velocity=87, time=1),\n",
      "  Message('note_on', channel=2, note=74, velocity=0, time=23),\n",
      "  Message('note_on', channel=2, note=71, velocity=87, time=1),\n",
      "  Message('note_on', channel=2, note=71, velocity=0, time=23),\n",
      "  Message('note_on', channel=2, note=67, velocity=87, time=1),\n",
      "  Message('note_on', channel=2, note=67, velocity=0, time=23),\n",
      "  Message('note_on', channel=2, note=71, velocity=87, time=1),\n",
      "  Message('note_on', channel=2, note=71, velocity=0, time=23),\n",
      "  Message('note_on', channel=2, note=67, velocity=87, time=1),\n",
      "  Message('note_on', channel=2, note=67, velocity=0, time=23),\n",
      "  Message('note_on', channel=2, note=64, velocity=87, time=1),\n",
      "  Message('note_on', channel=2, note=64, velocity=0, time=23),\n",
      "  Message('note_on', channel=2, note=59, velocity=87, time=1),\n",
      "  Message('note_on', channel=2, note=59, velocity=0, time=23),\n",
      "  Message('note_on', channel=2, note=58, velocity=87, time=1),\n",
      "  Message('note_on', channel=2, note=58, velocity=0, time=23),\n",
      "  Message('note_on', channel=2, note=59, velocity=87, time=1),\n",
      "  Message('note_on', channel=2, note=59, velocity=0, time=23),\n",
      "  Message('note_on', channel=2, note=58, velocity=87, time=1),\n",
      "  Message('note_on', channel=2, note=58, velocity=0, time=23),\n",
      "  Message('note_on', channel=2, note=59, velocity=87, time=1),\n",
      "  Message('note_on', channel=2, note=59, velocity=0, time=23),\n",
      "  Message('note_on', channel=2, note=58, velocity=87, time=1),\n",
      "  Message('note_on', channel=2, note=58, velocity=0, time=23),\n",
      "  Message('note_on', channel=2, note=59, velocity=87, time=1),\n",
      "  Message('note_on', channel=2, note=59, velocity=0, time=23),\n",
      "  Message('note_on', channel=2, note=58, velocity=87, time=1),\n",
      "  Message('note_on', channel=2, note=58, velocity=0, time=23),\n",
      "  Message('note_on', channel=2, note=59, velocity=87, time=1),\n",
      "  Message('note_on', channel=2, note=59, velocity=0, time=23),\n",
      "  Message('note_on', channel=2, note=58, velocity=87, time=1),\n",
      "  Message('note_on', channel=2, note=58, velocity=0, time=23),\n",
      "  Message('note_on', channel=2, note=59, velocity=87, time=1),\n",
      "  Message('note_on', channel=2, note=59, velocity=0, time=23),\n",
      "  Message('note_on', channel=2, note=58, velocity=87, time=1),\n",
      "  Message('note_on', channel=2, note=58, velocity=0, time=23),\n",
      "  Message('note_on', channel=2, note=59, velocity=87, time=1),\n",
      "  Message('note_on', channel=2, note=59, velocity=0, time=23),\n",
      "  Message('note_on', channel=2, note=55, velocity=87, time=1),\n",
      "  Message('note_on', channel=2, note=55, velocity=0, time=45),\n",
      "  Message('note_on', channel=2, note=83, velocity=87, time=51),\n",
      "  Message('note_on', channel=2, note=83, velocity=0, time=23),\n",
      "  Message('note_on', channel=2, note=79, velocity=87, time=1),\n",
      "  Message('note_on', channel=2, note=79, velocity=0, time=23),\n",
      "  Message('note_on', channel=2, note=76, velocity=87, time=1),\n",
      "  Message('note_on', channel=2, note=76, velocity=0, time=23),\n",
      "  Message('note_on', channel=2, note=71, velocity=87, time=1),\n",
      "  Message('note_on', channel=2, note=71, velocity=0, time=23),\n",
      "  Message('note_on', channel=2, note=79, velocity=87, time=1),\n",
      "  Message('note_on', channel=2, note=79, velocity=0, time=23),\n",
      "  Message('note_on', channel=2, note=76, velocity=87, time=1),\n",
      "  Message('note_on', channel=2, note=76, velocity=0, time=23),\n",
      "  Message('note_on', channel=2, note=71, velocity=87, time=1),\n",
      "  Message('note_on', channel=2, note=71, velocity=0, time=23),\n",
      "  Message('note_on', channel=2, note=67, velocity=87, time=1),\n",
      "  Message('note_on', channel=2, note=67, velocity=0, time=23),\n",
      "  Message('note_on', channel=2, note=76, velocity=87, time=1),\n",
      "  Message('note_on', channel=2, note=76, velocity=0, time=23),\n",
      "  Message('note_on', channel=2, note=71, velocity=87, time=1),\n",
      "  Message('note_on', channel=2, note=71, velocity=0, time=23),\n",
      "  Message('note_on', channel=2, note=67, velocity=87, time=1),\n",
      "  Message('note_on', channel=2, note=67, velocity=0, time=23),\n",
      "  Message('note_on', channel=2, note=64, velocity=87, time=1),\n",
      "  Message('note_on', channel=2, note=64, velocity=0, time=23),\n",
      "  Message('note_on', channel=2, note=67, velocity=87, time=1),\n",
      "  Message('note_on', channel=2, note=67, velocity=0, time=23),\n",
      "  Message('note_on', channel=2, note=64, velocity=87, time=1),\n",
      "  Message('note_on', channel=2, note=64, velocity=0, time=23),\n",
      "  Message('note_on', channel=2, note=61, velocity=87, time=1),\n",
      "  Message('note_on', channel=2, note=61, velocity=0, time=23),\n",
      "  Message('note_on', channel=2, note=55, velocity=87, time=1),\n",
      "  Message('note_on', channel=2, note=55, velocity=0, time=23),\n",
      "  Message('note_on', channel=2, note=54, velocity=87, time=1),\n",
      "  Message('note_on', channel=2, note=54, velocity=0, time=23),\n",
      "  Message('note_on', channel=2, note=55, velocity=87, time=1),\n",
      "  Message('note_on', channel=2, note=55, velocity=0, time=23),\n",
      "  Message('note_on', channel=2, note=54, velocity=87, time=1),\n",
      "  Message('note_on', channel=2, note=54, velocity=0, time=23),\n",
      "  Message('note_on', channel=2, note=55, velocity=87, time=1),\n",
      "  Message('note_on', channel=2, note=55, velocity=0, time=23),\n",
      "  Message('note_on', channel=2, note=54, velocity=87, time=1),\n",
      "  Message('note_on', channel=2, note=54, velocity=0, time=23),\n",
      "  Message('note_on', channel=2, note=55, velocity=87, time=1),\n",
      "  Message('note_on', channel=2, note=55, velocity=0, time=23),\n",
      "  Message('note_on', channel=2, note=54, velocity=87, time=1),\n",
      "  Message('note_on', channel=2, note=54, velocity=0, time=23),\n",
      "  Message('note_on', channel=2, note=55, velocity=87, time=1),\n",
      "  Message('note_on', channel=2, note=55, velocity=0, time=23),\n",
      "  Message('note_on', channel=2, note=54, velocity=87, time=1),\n",
      "  Message('note_on', channel=2, note=54, velocity=0, time=23),\n",
      "  Message('note_on', channel=2, note=55, velocity=87, time=1),\n",
      "  Message('note_on', channel=2, note=55, velocity=0, time=23),\n",
      "  Message('note_on', channel=2, note=54, velocity=87, time=1),\n",
      "  Message('note_on', channel=2, note=54, velocity=0, time=23),\n",
      "  Message('note_on', channel=2, note=55, velocity=87, time=1),\n",
      "  Message('note_on', channel=2, note=55, velocity=0, time=23),\n",
      "  Message('note_on', channel=2, note=52, velocity=87, time=1),\n",
      "  Message('note_on', channel=2, note=52, velocity=0, time=45),\n",
      "  Message('note_on', channel=2, note=79, velocity=87, time=51),\n",
      "  Message('note_on', channel=2, note=79, velocity=0, time=23),\n",
      "  Message('note_on', channel=2, note=76, velocity=87, time=1),\n",
      "  Message('note_on', channel=2, note=76, velocity=0, time=23),\n",
      "  Message('note_on', channel=2, note=73, velocity=87, time=1),\n",
      "  Message('note_on', channel=2, note=73, velocity=0, time=23),\n",
      "  Message('note_on', channel=2, note=67, velocity=87, time=1),\n",
      "  Message('note_on', channel=2, note=67, velocity=0, time=23),\n",
      "  Message('note_on', channel=2, note=76, velocity=87, time=1),\n",
      "  Message('note_on', channel=2, note=76, velocity=0, time=23),\n",
      "  Message('note_on', channel=2, note=73, velocity=87, time=1),\n",
      "  Message('note_on', channel=2, note=73, velocity=0, time=23),\n",
      "  Message('note_on', channel=2, note=67, velocity=87, time=1),\n",
      "  Message('note_on', channel=2, note=67, velocity=0, time=23),\n",
      "  Message('note_on', channel=2, note=64, velocity=87, time=1),\n",
      "  Message('note_on', channel=2, note=64, velocity=0, time=23),\n",
      "  Message('note_on', channel=2, note=73, velocity=87, time=1),\n",
      "  Message('note_on', channel=2, note=73, velocity=0, time=23),\n",
      "  Message('note_on', channel=2, note=67, velocity=87, time=1),\n",
      "  Message('note_on', channel=2, note=67, velocity=0, time=23),\n",
      "  Message('note_on', channel=2, note=64, velocity=87, time=1),\n",
      "  Message('note_on', channel=2, note=64, velocity=0, time=23),\n",
      "  Message('note_on', channel=2, note=61, velocity=87, time=1),\n",
      "  Message('note_on', channel=2, note=61, velocity=0, time=23),\n",
      "  Message('note_on', channel=2, note=62, velocity=87, time=1),\n",
      "  Message('note_on', channel=2, note=62, velocity=0, time=89),\n",
      "  Message('note_on', channel=2, note=56, velocity=87, time=295),\n",
      "  Message('note_on', channel=2, note=56, velocity=0, time=45),\n",
      "  Message('note_on', channel=2, note=57, velocity=87, time=3),\n",
      "  Message('note_on', channel=2, note=57, velocity=0, time=23),\n",
      "  Message('note_on', channel=2, note=59, velocity=87, time=1),\n",
      "  Message('note_on', channel=2, note=59, velocity=0, time=23),\n",
      "  Message('note_on', channel=2, note=61, velocity=87, time=1),\n",
      "  Message('note_on', channel=2, note=61, velocity=0, time=23),\n",
      "  Message('note_on', channel=2, note=62, velocity=87, time=1),\n",
      "  Message('note_on', channel=2, note=62, velocity=0, time=23),\n",
      "  Message('note_on', channel=2, note=64, velocity=87, time=1),\n",
      "  Message('note_on', channel=2, note=64, velocity=0, time=23),\n",
      "  Message('note_on', channel=2, note=66, velocity=87, time=1),\n",
      "  Message('note_on', channel=2, note=66, velocity=0, time=23),\n",
      "  Message('note_on', channel=2, note=68, velocity=87, time=1),\n",
      "  Message('note_on', channel=2, note=68, velocity=0, time=23),\n",
      "  Message('note_on', channel=2, note=69, velocity=87, time=1),\n",
      "  Message('note_on', channel=2, note=69, velocity=0, time=23),\n",
      "  Message('note_on', channel=2, note=71, velocity=87, time=1),\n",
      "  Message('note_on', channel=2, note=71, velocity=0, time=23),\n",
      "  Message('note_on', channel=2, note=73, velocity=87, time=1),\n",
      "  Message('note_on', channel=2, note=73, velocity=0, time=23),\n",
      "  Message('note_on', channel=2, note=74, velocity=87, time=1),\n",
      "  Message('note_on', channel=2, note=74, velocity=0, time=23),\n",
      "  Message('note_on', channel=2, note=76, velocity=87, time=1),\n",
      "  Message('note_on', channel=2, note=76, velocity=0, time=23),\n",
      "  Message('note_on', channel=2, note=78, velocity=87, time=1),\n",
      "  Message('note_on', channel=2, note=78, velocity=0, time=23),\n",
      "  Message('note_on', channel=2, note=80, velocity=87, time=1),\n",
      "  Message('note_on', channel=2, note=80, velocity=0, time=23),\n",
      "  Message('note_on', channel=2, note=81, velocity=87, time=1),\n",
      "  Message('note_on', channel=2, note=81, velocity=0, time=89),\n",
      "  Message('note_on', channel=2, note=69, velocity=87, time=7),\n",
      "  Message('note_on', channel=2, note=64, velocity=87, time=0),\n",
      "  Message('note_on', channel=2, note=61, velocity=87, time=0),\n",
      "  Message('note_on', channel=2, note=69, velocity=0, time=89),\n",
      "  Message('note_on', channel=2, note=64, velocity=0, time=0),\n",
      "  Message('note_on', channel=2, note=61, velocity=0, time=0),\n",
      "  Message('note_on', channel=2, note=57, velocity=87, time=7),\n",
      "  Message('note_on', channel=2, note=57, velocity=0, time=89),\n",
      "  Message('note_on', channel=2, note=80, velocity=73, time=775),\n",
      "  Message('note_on', channel=2, note=80, velocity=0, time=12),\n",
      "  Message('note_on', channel=2, note=81, velocity=73, time=0),\n",
      "  Message('note_on', channel=2, note=81, velocity=0, time=77),\n",
      "  Message('note_on', channel=2, note=80, velocity=73, time=679),\n",
      "  Message('note_on', channel=2, note=80, velocity=0, time=12),\n",
      "  Message('note_on', channel=2, note=81, velocity=73, time=0),\n",
      "  Message('note_on', channel=2, note=81, velocity=0, time=77),\n",
      "  Message('note_on', channel=2, note=80, velocity=73, time=679),\n",
      "  Message('note_on', channel=2, note=80, velocity=0, time=12),\n",
      "  Message('note_on', channel=2, note=81, velocity=73, time=0),\n",
      "  Message('note_on', channel=2, note=81, velocity=0, time=77),\n",
      "  Message('note_on', channel=2, note=62, velocity=73, time=439),\n",
      "  Message('note_on', channel=2, note=62, velocity=0, time=23),\n",
      "  Message('note_on', channel=2, note=66, velocity=73, time=1),\n",
      "  Message('note_on', channel=2, note=66, velocity=0, time=23),\n",
      "  Message('note_on', channel=2, note=64, velocity=73, time=1),\n",
      "  Message('note_on', channel=2, note=64, velocity=0, time=23),\n",
      "  Message('note_on', channel=2, note=67, velocity=74, time=1),\n",
      "  Message('note_on', channel=2, note=67, velocity=0, time=23),\n",
      "  Message('note_on', channel=2, note=66, velocity=74, time=1),\n",
      "  Message('note_on', channel=2, note=66, velocity=0, time=23),\n",
      "  Message('note_on', channel=2, note=69, velocity=74, time=1),\n",
      "  Message('note_on', channel=2, note=69, velocity=0, time=23),\n",
      "  Message('note_on', channel=2, note=67, velocity=75, time=1),\n",
      "  Message('note_on', channel=2, note=67, velocity=0, time=23),\n",
      "  Message('note_on', channel=2, note=71, velocity=75, time=1),\n",
      "  Message('note_on', channel=2, note=71, velocity=0, time=23),\n",
      "  Message('note_on', channel=2, note=69, velocity=75, time=1),\n",
      "  Message('note_on', channel=2, note=69, velocity=0, time=23),\n",
      "  Message('note_on', channel=2, note=73, velocity=76, time=1),\n",
      "  Message('note_on', channel=2, note=73, velocity=0, time=23),\n",
      "  Message('note_on', channel=2, note=71, velocity=76, time=1),\n",
      "  Message('note_on', channel=2, note=71, velocity=0, time=23),\n",
      "  Message('note_on', channel=2, note=74, velocity=76, time=1),\n",
      "  Message('note_on', channel=2, note=74, velocity=0, time=23),\n",
      "  Message('note_on', channel=2, note=73, velocity=77, time=1),\n",
      "  Message('note_on', channel=2, note=73, velocity=0, time=23),\n",
      "  Message('note_on', channel=2, note=76, velocity=77, time=1),\n",
      "  Message('note_on', channel=2, note=76, velocity=0, time=23),\n",
      "  Message('note_on', channel=2, note=74, velocity=78, time=1),\n",
      "  Message('note_on', channel=2, note=74, velocity=0, time=45),\n",
      "  Message('note_on', channel=2, note=73, velocity=78, time=3),\n",
      "  Message('note_on', channel=2, note=73, velocity=0, time=45),\n",
      "  Message('note_on', channel=2, note=71, velocity=78, time=3),\n",
      "  Message('note_on', channel=2, note=71, velocity=0, time=45),\n",
      "  Message('note_on', channel=2, note=69, velocity=78, time=3),\n",
      "  Message('note_on', channel=2, note=69, velocity=0, time=45),\n",
      "  Message('note_on', channel=2, note=74, velocity=78, time=3),\n",
      "  Message('note_on', channel=2, note=74, velocity=0, time=39),\n",
      "  Message('note_on', channel=2, note=76, velocity=78, time=57),\n",
      "  Message('note_on', channel=2, note=76, velocity=0, time=39),\n",
      "  Message('note_on', channel=2, note=78, velocity=94, time=57),\n",
      "  Message('note_on', channel=2, note=78, velocity=0, time=237),\n",
      "  Message('note_on', channel=2, note=81, velocity=78, time=3),\n",
      "  Message('note_on', channel=2, note=81, velocity=0, time=45),\n",
      "  Message('note_on', channel=2, note=79, velocity=78, time=3),\n",
      "  Message('note_on', channel=2, note=79, velocity=0, time=45),\n",
      "  Message('note_on', channel=2, note=76, velocity=78, time=3),\n",
      "  Message('note_on', channel=2, note=76, velocity=0, time=45),\n",
      "  Message('note_on', channel=2, note=74, velocity=78, time=3),\n",
      "  Message('note_on', channel=2, note=74, velocity=0, time=45),\n",
      "  Message('note_on', channel=2, note=73, velocity=78, time=3),\n",
      "  Message('note_on', channel=2, note=73, velocity=0, time=45),\n",
      "  Message('note_on', channel=2, note=71, velocity=79, time=3),\n",
      "  Message('note_on', channel=2, note=71, velocity=0, time=45),\n",
      "  Message('note_on', channel=2, note=69, velocity=79, time=3),\n",
      "  Message('note_on', channel=2, note=69, velocity=0, time=45),\n",
      "  Message('note_on', channel=2, note=74, velocity=80, time=3),\n",
      "  Message('note_on', channel=2, note=74, velocity=0, time=39),\n",
      "  Message('note_on', channel=2, note=76, velocity=81, time=57),\n",
      "  Message('note_on', channel=2, note=76, velocity=0, time=39),\n",
      "  Message('note_on', channel=2, note=79, velocity=98, time=57),\n",
      "  Message('note_on', channel=2, note=79, velocity=0, time=192),\n",
      "  Message('note_on', channel=2, note=78, velocity=84, time=0),\n",
      "  Message('note_on', channel=2, note=78, velocity=0, time=67),\n",
      "  Message('note_on', channel=2, note=79, velocity=85, time=5),\n",
      "  Message('note_on', channel=2, note=79, velocity=0, time=23),\n",
      "  Message('note_on', channel=2, note=76, velocity=85, time=1),\n",
      "  Message('note_on', channel=2, note=76, velocity=0, time=67),\n",
      "  Message('note_on', channel=2, note=78, velocity=86, time=5),\n",
      "  Message('note_on', channel=2, note=78, velocity=0, time=24),\n",
      "  Message('note_on', channel=2, note=74, velocity=87, time=0),\n",
      "  Message('note_on', channel=2, note=62, velocity=87, time=0),\n",
      "  Message('note_on', channel=2, note=74, velocity=0, time=45),\n",
      "  Message('note_on', channel=2, note=62, velocity=0, time=0),\n",
      "  Message('note_on', channel=2, note=73, velocity=87, time=3),\n",
      "  Message('note_on', channel=2, note=61, velocity=87, time=0),\n",
      "  Message('note_on', channel=2, note=73, velocity=0, time=45),\n",
      "  Message('note_on', channel=2, note=61, velocity=0, time=0),\n",
      "  Message('note_on', channel=2, note=71, velocity=87, time=3),\n",
      "  Message('note_on', channel=2, note=59, velocity=87, time=0),\n",
      "  Message('note_on', channel=2, note=71, velocity=0, time=45),\n",
      "  Message('note_on', channel=2, note=59, velocity=0, time=0),\n",
      "  Message('note_on', channel=2, note=69, velocity=87, time=3),\n",
      "  Message('note_on', channel=2, note=57, velocity=87, time=0),\n",
      "  Message('note_on', channel=2, note=69, velocity=0, time=45),\n",
      "  Message('note_on', channel=2, note=57, velocity=0, time=0),\n",
      "  Message('note_on', channel=2, note=74, velocity=87, time=3),\n",
      "  Message('note_on', channel=2, note=62, velocity=87, time=0),\n",
      "  Message('note_on', channel=2, note=74, velocity=0, time=39),\n",
      "  Message('note_on', channel=2, note=62, velocity=0, time=0),\n",
      "  Message('note_on', channel=2, note=76, velocity=87, time=57),\n",
      "  Message('note_on', channel=2, note=64, velocity=87, time=0),\n",
      "  Message('note_on', channel=2, note=76, velocity=0, time=39),\n",
      "  Message('note_on', channel=2, note=64, velocity=0, time=0),\n",
      "  Message('note_on', channel=2, note=78, velocity=103, time=57),\n",
      "  Message('note_on', channel=2, note=66, velocity=103, time=0),\n",
      "  Message('note_on', channel=2, note=78, velocity=0, time=237),\n",
      "  Message('note_on', channel=2, note=66, velocity=0, time=0),\n",
      "  Message('note_on', channel=2, note=81, velocity=87, time=3),\n",
      "  Message('note_on', channel=2, note=69, velocity=87, time=0),\n",
      "  Message('note_on', channel=2, note=81, velocity=0, time=45),\n",
      "  Message('note_on', channel=2, note=69, velocity=0, time=0),\n",
      "  Message('note_on', channel=2, note=79, velocity=87, time=3),\n",
      "  Message('note_on', channel=2, note=67, velocity=87, time=0),\n",
      "  Message('note_on', channel=2, note=79, velocity=0, time=45),\n",
      "  Message('note_on', channel=2, note=67, velocity=0, time=0),\n",
      "  Message('note_on', channel=2, note=76, velocity=87, time=3),\n",
      "  Message('note_on', channel=2, note=64, velocity=87, time=0),\n",
      "  Message('note_on', channel=2, note=76, velocity=0, time=45),\n",
      "  Message('note_on', channel=2, note=64, velocity=0, time=0),\n",
      "  Message('note_on', channel=2, note=74, velocity=87, time=3),\n",
      "  Message('note_on', channel=2, note=62, velocity=87, time=0),\n",
      "  Message('note_on', channel=2, note=74, velocity=0, time=89),\n",
      "  Message('note_on', channel=2, note=62, velocity=0, time=0),\n",
      "  Message('note_on', channel=2, note=62, velocity=73, time=295),\n",
      "  Message('note_on', channel=2, note=62, velocity=0, time=23),\n",
      "  Message('note_on', channel=2, note=61, velocity=73, time=1),\n",
      "  Message('note_on', channel=2, note=61, velocity=0, time=23),\n",
      "  Message('note_on', channel=2, note=62, velocity=73, time=1),\n",
      "  Message('note_on', channel=2, note=62, velocity=0, time=23),\n",
      "  Message('note_on', channel=2, note=61, velocity=73, time=1),\n",
      "  Message('note_on', channel=2, note=61, velocity=0, time=23),\n",
      "  Message('note_on', channel=2, note=62, velocity=73, time=1),\n",
      "  Message('note_on', channel=2, note=62, velocity=0, time=23),\n",
      "  Message('note_on', channel=2, note=61, velocity=73, time=1),\n",
      "  Message('note_on', channel=2, note=61, velocity=0, time=23),\n",
      "  Message('note_on', channel=2, note=62, velocity=73, time=1),\n",
      "  Message('note_on', channel=2, note=62, velocity=0, time=23),\n",
      "  Message('note_on', channel=2, note=61, velocity=73, time=1),\n",
      "  Message('note_on', channel=2, note=61, velocity=0, time=23),\n",
      "  Message('note_on', channel=2, note=62, velocity=74, time=1),\n",
      "  Message('note_on', channel=2, note=62, velocity=0, time=23),\n",
      "  Message('note_on', channel=2, note=64, velocity=74, time=1),\n",
      "  Message('note_on', channel=2, note=64, velocity=0, time=23),\n",
      "  Message('note_on', channel=2, note=66, velocity=74, time=1),\n",
      "  Message('note_on', channel=2, note=66, velocity=0, time=23),\n",
      "  Message('note_on', channel=2, note=67, velocity=74, time=1),\n",
      "  Message('note_on', channel=2, note=67, velocity=0, time=23),\n",
      "  Message('note_on', channel=2, note=69, velocity=74, time=1),\n",
      "  Message('note_on', channel=2, note=69, velocity=0, time=23),\n",
      "  Message('note_on', channel=2, note=71, velocity=74, time=1),\n",
      "  Message('note_on', channel=2, note=71, velocity=0, time=23),\n",
      "  Message('note_on', channel=2, note=73, velocity=74, time=1),\n",
      "  Message('note_on', channel=2, note=73, velocity=0, time=23),\n",
      "  Message('note_on', channel=2, note=74, velocity=75, time=1),\n",
      "  Message('note_on', channel=2, note=74, velocity=0, time=23),\n",
      "  Message('note_on', channel=2, note=74, velocity=91, time=1),\n",
      "  Message('note_on', channel=2, note=74, velocity=0, time=192),\n",
      "  Message('note_on', channel=2, note=72, velocity=76, time=0),\n",
      "  Message('note_on', channel=2, note=72, velocity=0, time=67),\n",
      "  Message('note_on', channel=2, note=71, velocity=76, time=5),\n",
      "  Message('note_on', channel=2, note=71, velocity=0, time=24),\n",
      "  Message('note_on', channel=2, note=69, velocity=76, time=0),\n",
      "  Message('note_on', channel=2, note=69, velocity=0, time=29),\n",
      "  Message('note_on', channel=2, note=67, velocity=77, time=43),\n",
      "  Message('note_on', channel=2, note=67, velocity=0, time=23),\n",
      "  Message('note_on', channel=2, note=66, velocity=77, time=1),\n",
      "  Message('note_on', channel=2, note=66, velocity=0, time=23),\n",
      "  Message('note_on', channel=2, note=65, velocity=77, time=1),\n",
      "  Message('note_on', channel=2, note=65, velocity=0, time=23),\n",
      "  Message('note_on', channel=2, note=66, velocity=77, time=1),\n",
      "  Message('note_on', channel=2, note=66, velocity=0, time=23),\n",
      "  Message('note_on', channel=2, note=65, velocity=78, time=1),\n",
      "  Message('note_on', channel=2, note=65, velocity=0, time=23),\n",
      "  Message('note_on', channel=2, note=66, velocity=78, time=1),\n",
      "  Message('note_on', channel=2, note=66, velocity=0, time=23),\n",
      "  Message('note_on', channel=2, note=65, velocity=78, time=1),\n",
      "  Message('note_on', channel=2, note=65, velocity=0, time=23),\n",
      "  Message('note_on', channel=2, note=66, velocity=78, time=1),\n",
      "  Message('note_on', channel=2, note=66, velocity=0, time=23),\n",
      "  Message('note_on', channel=2, note=65, velocity=78, time=1),\n",
      "  Message('note_on', channel=2, note=65, velocity=0, time=23),\n",
      "  Message('note_on', channel=2, note=66, velocity=78, time=1),\n",
      "  Message('note_on', channel=2, note=66, velocity=0, time=23),\n",
      "  Message('note_on', channel=2, note=67, velocity=78, time=1),\n",
      "  Message('note_on', channel=2, note=67, velocity=0, time=23),\n",
      "  Message('note_on', channel=2, note=69, velocity=79, time=1),\n",
      "  Message('note_on', channel=2, note=69, velocity=0, time=23),\n",
      "  Message('note_on', channel=2, note=71, velocity=79, time=1),\n",
      "  Message('note_on', channel=2, note=71, velocity=0, time=23),\n",
      "  Message('note_on', channel=2, note=72, velocity=79, time=1),\n",
      "  Message('note_on', channel=2, note=72, velocity=0, time=23),\n",
      "  Message('note_on', channel=2, note=74, velocity=79, time=1),\n",
      "  Message('note_on', channel=2, note=74, velocity=0, time=23),\n",
      "  Message('note_on', channel=2, note=76, velocity=79, time=1),\n",
      "  Message('note_on', channel=2, note=76, velocity=0, time=23),\n",
      "  Message('note_on', channel=2, note=78, velocity=79, time=1),\n",
      "  Message('note_on', channel=2, note=78, velocity=0, time=23),\n",
      "  Message('note_on', channel=2, note=78, velocity=95, time=1),\n",
      "  Message('note_on', channel=2, note=78, velocity=0, time=192),\n",
      "  Message('note_on', channel=2, note=76, velocity=81, time=0),\n",
      "  Message('note_on', channel=2, note=76, velocity=0, time=67),\n",
      "  Message('note_on', channel=2, note=74, velocity=81, time=5),\n",
      "  Message('note_on', channel=2, note=74, velocity=0, time=24),\n",
      "  Message('note_on', channel=2, note=72, velocity=81, time=0),\n",
      "  Message('note_on', channel=2, note=72, velocity=0, time=29),\n",
      "  Message('note_on', channel=2, note=71, velocity=82, time=43),\n",
      "  Message('note_on', channel=2, note=71, velocity=0, time=23),\n",
      "  Message('note_on', channel=2, note=69, velocity=82, time=1),\n",
      "  Message('note_on', channel=2, note=69, velocity=0, time=23),\n",
      "  Message('note_on', channel=2, note=68, velocity=82, time=1),\n",
      "  Message('note_on', channel=2, note=68, velocity=0, time=23),\n",
      "  Message('note_on', channel=2, note=69, velocity=82, time=1),\n",
      "  Message('note_on', channel=2, note=69, velocity=0, time=23),\n",
      "  Message('note_on', channel=2, note=68, velocity=82, time=1),\n",
      "  Message('note_on', channel=2, note=68, velocity=0, time=23),\n",
      "  Message('note_on', channel=2, note=69, velocity=82, time=1),\n",
      "  Message('note_on', channel=2, note=69, velocity=0, time=23),\n",
      "  Message('note_on', channel=2, note=68, velocity=83, time=1),\n",
      "  Message('note_on', channel=2, note=68, velocity=0, time=23),\n",
      "  Message('note_on', channel=2, note=69, velocity=83, time=1),\n",
      "  Message('note_on', channel=2, note=69, velocity=0, time=23),\n",
      "  Message('note_on', channel=2, note=68, velocity=83, time=1),\n",
      "  Message('note_on', channel=2, note=68, velocity=0, time=23),\n",
      "  Message('note_on', channel=2, note=69, velocity=83, time=1),\n",
      "  Message('note_on', channel=2, note=69, velocity=0, time=23),\n",
      "  Message('note_on', channel=2, note=71, velocity=83, time=1),\n",
      "  Message('note_on', channel=2, note=71, velocity=0, time=23),\n",
      "  Message('note_on', channel=2, note=72, velocity=83, time=1),\n",
      "  Message('note_on', channel=2, note=72, velocity=0, time=23),\n",
      "  Message('note_on', channel=2, note=74, velocity=83, time=1),\n",
      "  Message('note_on', channel=2, note=74, velocity=0, time=23),\n",
      "  Message('note_on', channel=2, note=76, velocity=84, time=1),\n",
      "  Message('note_on', channel=2, note=76, velocity=0, time=23),\n",
      "  Message('note_on', channel=2, note=78, velocity=84, time=1),\n",
      "  Message('note_on', channel=2, note=78, velocity=0, time=23),\n",
      "  Message('note_on', channel=2, note=79, velocity=84, time=1),\n",
      "  Message('note_on', channel=2, note=79, velocity=0, time=23),\n",
      "  Message('note_on', channel=2, note=81, velocity=84, time=1),\n",
      "  Message('note_on', channel=2, note=81, velocity=0, time=23),\n",
      "  Message('note_on', channel=2, note=81, velocity=100, time=1),\n",
      "  Message('note_on', channel=2, note=81, velocity=0, time=192),\n",
      "  Message('note_on', channel=2, note=79, velocity=85, time=0),\n",
      "  Message('note_on', channel=2, note=79, velocity=0, time=67),\n",
      "  Message('note_on', channel=2, note=78, velocity=86, time=5),\n",
      "  Message('note_on', channel=2, note=78, velocity=0, time=24),\n",
      "  Message('note_on', channel=2, note=76, velocity=86, time=0),\n",
      "  Message('note_on', channel=2, note=76, velocity=0, time=29),\n",
      "  Message('note_on', channel=2, note=74, velocity=86, time=43),\n",
      "  Message('note_on', channel=2, note=74, velocity=0, time=23),\n",
      "  Message('note_on', channel=2, note=73, velocity=87, time=1),\n",
      "  Message('note_on', channel=2, note=73, velocity=0, time=23),\n",
      "  Message('note_on', channel=2, note=72, velocity=87, time=1),\n",
      "  Message('note_on', channel=2, note=72, velocity=0, time=23),\n",
      "  Message('note_on', channel=2, note=73, velocity=87, time=1),\n",
      "  Message('note_on', channel=2, note=73, velocity=0, time=23),\n",
      "  Message('note_on', channel=2, note=72, velocity=87, time=1),\n",
      "  Message('note_on', channel=2, note=72, velocity=0, time=23),\n",
      "  Message('note_on', channel=2, note=73, velocity=87, time=1),\n",
      "  Message('note_on', channel=2, note=73, velocity=0, time=23),\n",
      "  Message('note_on', channel=2, note=72, velocity=87, time=1),\n",
      "  Message('note_on', channel=2, note=72, velocity=0, time=23),\n",
      "  Message('note_on', channel=2, note=73, velocity=87, time=1),\n",
      "  Message('note_on', channel=2, note=73, velocity=0, time=23),\n",
      "  Message('note_on', channel=2, note=72, velocity=87, time=1),\n",
      "  Message('note_on', channel=2, note=72, velocity=0, time=23),\n",
      "  Message('note_on', channel=2, note=73, velocity=87, time=1),\n",
      "  Message('note_on', channel=2, note=73, velocity=0, time=23),\n",
      "  Message('note_on', channel=2, note=74, velocity=87, time=1),\n",
      "  Message('note_on', channel=2, note=74, velocity=0, time=23),\n",
      "  Message('note_on', channel=2, note=76, velocity=87, time=1),\n",
      "  Message('note_on', channel=2, note=76, velocity=0, time=23),\n",
      "  Message('note_on', channel=2, note=78, velocity=87, time=1),\n",
      "  Message('note_on', channel=2, note=78, velocity=0, time=23),\n",
      "  Message('note_on', channel=2, note=79, velocity=87, time=1),\n",
      "  Message('note_on', channel=2, note=79, velocity=0, time=23),\n",
      "  Message('note_on', channel=2, note=81, velocity=87, time=1),\n",
      "  Message('note_on', channel=2, note=81, velocity=0, time=23),\n",
      "  Message('note_on', channel=2, note=83, velocity=87, time=1),\n",
      "  Message('note_on', channel=2, note=83, velocity=0, time=23),\n",
      "  Message('note_on', channel=2, note=85, velocity=87, time=1),\n",
      "  Message('note_on', channel=2, note=85, velocity=0, time=23),\n",
      "  Message('note_on', channel=2, note=86, velocity=87, time=1),\n",
      "  Message('note_on', channel=2, note=86, velocity=0, time=45),\n",
      "  Message('note_on', channel=2, note=86, velocity=87, time=3),\n",
      "  Message('note_on', channel=2, note=81, velocity=87, time=0),\n",
      "  Message('note_on', channel=2, note=78, velocity=87, time=0),\n",
      "  Message('note_on', channel=2, note=74, velocity=87, time=0),\n",
      "  Message('note_on', channel=2, note=86, velocity=0, time=89),\n",
      "  Message('note_on', channel=2, note=81, velocity=0, time=0),\n",
      "  Message('note_on', channel=2, note=78, velocity=0, time=0),\n",
      "  Message('note_on', channel=2, note=74, velocity=0, time=0),\n",
      "  Message('note_on', channel=2, note=86, velocity=87, time=7),\n",
      "  Message('note_on', channel=2, note=81, velocity=87, time=0),\n",
      "  Message('note_on', channel=2, note=78, velocity=87, time=0),\n",
      "  Message('note_on', channel=2, note=74, velocity=87, time=0),\n",
      "  Message('note_on', channel=2, note=86, velocity=0, time=89),\n",
      "  Message('note_on', channel=2, note=81, velocity=0, time=0),\n",
      "  Message('note_on', channel=2, note=78, velocity=0, time=0),\n",
      "  Message('note_on', channel=2, note=74, velocity=0, time=0),\n",
      "  Message('note_on', channel=2, note=86, velocity=87, time=7),\n",
      "  Message('note_on', channel=2, note=81, velocity=87, time=0),\n",
      "  Message('note_on', channel=2, note=78, velocity=87, time=0),\n",
      "  Message('note_on', channel=2, note=74, velocity=87, time=0),\n",
      "  Message('note_on', channel=2, note=86, velocity=0, time=89),\n",
      "  Message('note_on', channel=2, note=81, velocity=0, time=0),\n",
      "  Message('note_on', channel=2, note=78, velocity=0, time=0),\n",
      "  Message('note_on', channel=2, note=74, velocity=0, time=0),\n",
      "  Message('note_on', channel=2, note=86, velocity=87, time=7),\n",
      "  Message('note_on', channel=2, note=81, velocity=87, time=0),\n",
      "  Message('note_on', channel=2, note=78, velocity=87, time=0),\n",
      "  Message('note_on', channel=2, note=74, velocity=87, time=0),\n",
      "  Message('note_on', channel=2, note=81, velocity=0, time=48),\n",
      "  Message('note_on', channel=2, note=83, velocity=87, time=0),\n",
      "  Message('note_on', channel=2, note=86, velocity=0, time=45),\n",
      "  Message('note_on', channel=2, note=83, velocity=0, time=0),\n",
      "  Message('note_on', channel=2, note=78, velocity=0, time=0),\n",
      "  Message('note_on', channel=2, note=74, velocity=0, time=0),\n",
      "  Message('note_on', channel=2, note=86, velocity=87, time=3),\n",
      "  Message('note_on', channel=2, note=83, velocity=87, time=0),\n",
      "  Message('note_on', channel=2, note=78, velocity=87, time=0),\n",
      "  Message('note_on', channel=2, note=74, velocity=87, time=0),\n",
      "  Message('note_on', channel=2, note=86, velocity=0, time=89),\n",
      "  Message('note_on', channel=2, note=83, velocity=0, time=0),\n",
      "  Message('note_on', channel=2, note=78, velocity=0, time=0),\n",
      "  Message('note_on', channel=2, note=74, velocity=0, time=0),\n",
      "  Message('note_on', channel=2, note=86, velocity=87, time=7),\n",
      "  Message('note_on', channel=2, note=83, velocity=87, time=0),\n",
      "  Message('note_on', channel=2, note=78, velocity=87, time=0),\n",
      "  Message('note_on', channel=2, note=74, velocity=87, time=0),\n",
      "  Message('note_on', channel=2, note=86, velocity=0, time=89),\n",
      "  Message('note_on', channel=2, note=83, velocity=0, time=0),\n",
      "  Message('note_on', channel=2, note=78, velocity=0, time=0),\n",
      "  Message('note_on', channel=2, note=74, velocity=0, time=0),\n",
      "  Message('note_on', channel=2, note=86, velocity=87, time=7),\n",
      "  Message('note_on', channel=2, note=83, velocity=87, time=0),\n",
      "  Message('note_on', channel=2, note=78, velocity=87, time=0),\n",
      "  Message('note_on', channel=2, note=74, velocity=87, time=0),\n",
      "  Message('note_on', channel=2, note=86, velocity=0, time=89),\n",
      "  Message('note_on', channel=2, note=83, velocity=0, time=0),\n",
      "  Message('note_on', channel=2, note=78, velocity=0, time=0),\n",
      "  Message('note_on', channel=2, note=74, velocity=0, time=0),\n",
      "  Message('note_on', channel=2, note=86, velocity=87, time=7),\n",
      "  Message('note_on', channel=2, note=83, velocity=87, time=0),\n",
      "  Message('note_on', channel=2, note=78, velocity=87, time=0),\n",
      "  Message('note_on', channel=2, note=74, velocity=87, time=0),\n",
      "  Message('note_on', channel=2, note=78, velocity=0, time=48),\n",
      "  Message('note_on', channel=2, note=79, velocity=87, time=0),\n",
      "  Message('note_on', channel=2, note=86, velocity=0, time=45),\n",
      "  Message('note_on', channel=2, note=83, velocity=0, time=0),\n",
      "  Message('note_on', channel=2, note=79, velocity=0, time=0),\n",
      "  Message('note_on', channel=2, note=74, velocity=0, time=0),\n",
      "  Message('note_on', channel=2, note=83, velocity=87, time=3),\n",
      "  Message('note_on', channel=2, note=79, velocity=87, time=0),\n",
      "  Message('note_on', channel=2, note=74, velocity=87, time=0),\n",
      "  Message('note_on', channel=2, note=71, velocity=87, time=0),\n",
      "  Message('note_on', channel=2, note=83, velocity=0, time=89),\n",
      "  Message('note_on', channel=2, note=79, velocity=0, time=0),\n",
      "  Message('note_on', channel=2, note=74, velocity=0, time=0),\n",
      "  Message('note_on', channel=2, note=71, velocity=0, time=0),\n",
      "  Message('note_on', channel=2, note=83, velocity=87, time=7),\n",
      "  Message('note_on', channel=2, note=79, velocity=87, time=0),\n",
      "  Message('note_on', channel=2, note=74, velocity=87, time=0),\n",
      "  Message('note_on', channel=2, note=71, velocity=87, time=0),\n",
      "  Message('note_on', channel=2, note=83, velocity=0, time=89),\n",
      "  Message('note_on', channel=2, note=79, velocity=0, time=0),\n",
      "  Message('note_on', channel=2, note=74, velocity=0, time=0),\n",
      "  Message('note_on', channel=2, note=71, velocity=0, time=0),\n",
      "  Message('note_on', channel=2, note=83, velocity=87, time=7),\n",
      "  Message('note_on', channel=2, note=79, velocity=87, time=0),\n",
      "  Message('note_on', channel=2, note=74, velocity=87, time=0),\n",
      "  Message('note_on', channel=2, note=71, velocity=87, time=0),\n",
      "  Message('note_on', channel=2, note=83, velocity=0, time=89),\n",
      "  Message('note_on', channel=2, note=79, velocity=0, time=0),\n",
      "  Message('note_on', channel=2, note=74, velocity=0, time=0),\n",
      "  Message('note_on', channel=2, note=71, velocity=0, time=0),\n",
      "  Message('note_on', channel=2, note=83, velocity=87, time=7),\n",
      "  Message('note_on', channel=2, note=79, velocity=87, time=0),\n",
      "  Message('note_on', channel=2, note=74, velocity=87, time=0),\n",
      "  Message('note_on', channel=2, note=71, velocity=87, time=0),\n",
      "  Message('note_on', channel=2, note=74, velocity=0, time=48),\n",
      "  Message('note_on', channel=2, note=76, velocity=87, time=0),\n",
      "  Message('note_on', channel=2, note=83, velocity=0, time=45),\n",
      "  Message('note_on', channel=2, note=79, velocity=0, time=0),\n",
      "  Message('note_on', channel=2, note=76, velocity=0, time=0),\n",
      "  Message('note_on', channel=2, note=71, velocity=0, time=0),\n",
      "  Message('note_on', channel=2, note=79, velocity=87, time=3),\n",
      "  Message('note_on', channel=2, note=76, velocity=87, time=0),\n",
      "  Message('note_on', channel=2, note=71, velocity=87, time=0),\n",
      "  Message('note_on', channel=2, note=67, velocity=87, time=0),\n",
      "  Message('note_on', channel=2, note=79, velocity=0, time=89),\n",
      "  Message('note_on', channel=2, note=76, velocity=0, time=0),\n",
      "  Message('note_on', channel=2, note=71, velocity=0, time=0),\n",
      "  Message('note_on', channel=2, note=67, velocity=0, time=0),\n",
      "  Message('note_on', channel=2, note=79, velocity=87, time=7),\n",
      "  Message('note_on', channel=2, note=76, velocity=87, time=0),\n",
      "  Message('note_on', channel=2, note=71, velocity=87, time=0),\n",
      "  Message('note_on', channel=2, note=67, velocity=87, time=0),\n",
      "  Message('note_on', channel=2, note=79, velocity=0, time=89),\n",
      "  Message('note_on', channel=2, note=76, velocity=0, time=0),\n",
      "  Message('note_on', channel=2, note=71, velocity=0, time=0),\n",
      "  Message('note_on', channel=2, note=67, velocity=0, time=0),\n",
      "  Message('note_on', channel=2, note=79, velocity=87, time=7),\n",
      "  Message('note_on', channel=2, note=76, velocity=87, time=0),\n",
      "  Message('note_on', channel=2, note=71, velocity=87, time=0),\n",
      "  Message('note_on', channel=2, note=67, velocity=87, time=0),\n",
      "  Message('note_on', channel=2, note=79, velocity=0, time=89),\n",
      "  Message('note_on', channel=2, note=76, velocity=0, time=0),\n",
      "  Message('note_on', channel=2, note=71, velocity=0, time=0),\n",
      "  Message('note_on', channel=2, note=67, velocity=0, time=0),\n",
      "  Message('note_on', channel=2, note=79, velocity=87, time=7),\n",
      "  Message('note_on', channel=2, note=76, velocity=87, time=0),\n",
      "  Message('note_on', channel=2, note=71, velocity=87, time=0),\n",
      "  Message('note_on', channel=2, note=67, velocity=87, time=0),\n",
      "  Message('note_on', channel=2, note=79, velocity=0, time=45),\n",
      "  Message('note_on', channel=2, note=76, velocity=0, time=0),\n",
      "  Message('note_on', channel=2, note=71, velocity=0, time=0),\n",
      "  Message('note_on', channel=2, note=67, velocity=0, time=0),\n",
      "  Message('note_on', channel=2, note=79, velocity=87, time=3),\n",
      "  Message('note_on', channel=2, note=76, velocity=87, time=0),\n",
      "  Message('note_on', channel=2, note=69, velocity=87, time=0),\n",
      "  Message('note_on', channel=2, note=79, velocity=0, time=89),\n",
      "  Message('note_on', channel=2, note=76, velocity=0, time=0),\n",
      "  Message('note_on', channel=2, note=69, velocity=0, time=0),\n",
      "  Message('note_on', channel=2, note=78, velocity=87, time=103),\n",
      "  Message('note_on', channel=2, note=74, velocity=87, time=0),\n",
      "  Message('note_on', channel=2, note=69, velocity=87, time=0),\n",
      "  Message('note_on', channel=2, note=78, velocity=0, time=89),\n",
      "  Message('note_on', channel=2, note=74, velocity=0, time=0),\n",
      "  Message('note_on', channel=2, note=69, velocity=0, time=0),\n",
      "  Message('note_on', channel=2, note=78, velocity=87, time=103),\n",
      "  Message('note_on', channel=2, note=74, velocity=87, time=0),\n",
      "  Message('note_on', channel=2, note=67, velocity=87, time=0),\n",
      "  Message('note_on', channel=2, note=78, velocity=0, time=89),\n",
      "  Message('note_on', channel=2, note=74, velocity=0, time=0),\n",
      "  Message('note_on', channel=2, note=67, velocity=0, time=0),\n",
      "  Message('note_on', channel=2, note=76, velocity=87, time=103),\n",
      "  Message('note_on', channel=2, note=69, velocity=87, time=0),\n",
      "  Message('note_on', channel=2, note=67, velocity=87, time=0),\n",
      "  Message('note_on', channel=2, note=76, velocity=0, time=89),\n",
      "  Message('note_on', channel=2, note=69, velocity=0, time=0),\n",
      "  Message('note_on', channel=2, note=67, velocity=0, time=0),\n",
      "  Message('note_on', channel=2, note=76, velocity=87, time=103),\n",
      "  Message('note_on', channel=2, note=69, velocity=87, time=0),\n",
      "  Message('note_on', channel=2, note=66, velocity=87, time=0),\n",
      "  Message('note_on', channel=2, note=76, velocity=0, time=89),\n",
      "  Message('note_on', channel=2, note=69, velocity=0, time=0),\n",
      "  Message('note_on', channel=2, note=66, velocity=0, time=0),\n",
      "  Message('note_on', channel=2, note=74, velocity=87, time=103),\n",
      "  Message('note_on', channel=2, note=71, velocity=87, time=0),\n",
      "  Message('note_on', channel=2, note=66, velocity=87, time=0),\n",
      "  Message('note_on', channel=2, note=74, velocity=0, time=89),\n",
      "  Message('note_on', channel=2, note=71, velocity=0, time=0),\n",
      "  Message('note_on', channel=2, note=66, velocity=0, time=0),\n",
      "  Message('note_on', channel=2, note=74, velocity=87, time=103),\n",
      "  Message('note_on', channel=2, note=71, velocity=87, time=0),\n",
      "  Message('note_on', channel=2, note=64, velocity=87, time=0),\n",
      "  Message('note_on', channel=2, note=74, velocity=0, time=89),\n",
      "  Message('note_on', channel=2, note=71, velocity=0, time=0),\n",
      "  Message('note_on', channel=2, note=64, velocity=0, time=0),\n",
      "  Message('note_on', channel=2, note=73, velocity=87, time=103),\n",
      "  Message('note_on', channel=2, note=69, velocity=87, time=0),\n",
      "  Message('note_on', channel=2, note=64, velocity=87, time=0),\n",
      "  Message('note_on', channel=2, note=73, velocity=0, time=89),\n",
      "  Message('note_on', channel=2, note=69, velocity=0, time=0),\n",
      "  Message('note_on', channel=2, note=64, velocity=0, time=0),\n",
      "  Message('note_on', channel=2, note=74, velocity=87, time=103),\n",
      "  Message('note_on', channel=2, note=69, velocity=87, time=0),\n",
      "  Message('note_on', channel=2, note=66, velocity=87, time=0),\n",
      "  Message('note_on', channel=2, note=74, velocity=0, time=89),\n",
      "  Message('note_on', channel=2, note=69, velocity=0, time=0),\n",
      "  Message('note_on', channel=2, note=66, velocity=0, time=0),\n",
      "  Message('note_on', channel=2, note=74, velocity=73, time=199),\n",
      "  Message('note_on', channel=2, note=74, velocity=0, time=20),\n",
      "  Message('note_on', channel=2, note=72, velocity=73, time=28),\n",
      "  Message('note_on', channel=2, note=72, velocity=0, time=20),\n",
      "  Message('note_on', channel=2, note=71, velocity=73, time=28),\n",
      "  Message('note_on', channel=2, note=71, velocity=0, time=23),\n",
      "  Message('note_on', channel=2, note=72, velocity=73, time=1),\n",
      "  Message('note_on', channel=2, note=72, velocity=0, time=23),\n",
      "  Message('note_on', channel=2, note=71, velocity=73, time=1),\n",
      "  Message('note_on', channel=2, note=71, velocity=0, time=23),\n",
      "  Message('note_on', channel=2, note=70, velocity=73, time=1),\n",
      "  Message('note_on', channel=2, note=70, velocity=0, time=23),\n",
      "  Message('note_on', channel=2, note=71, velocity=73, time=1),\n",
      "  Message('note_on', channel=2, note=71, velocity=0, time=23),\n",
      "  Message('note_on', channel=2, note=72, velocity=73, time=1),\n",
      "  Message('note_on', channel=2, note=72, velocity=0, time=23),\n",
      "  Message('note_on', channel=2, note=69, velocity=73, time=1),\n",
      "  Message('note_on', channel=2, note=69, velocity=0, time=23),\n",
      "  Message('note_on', channel=2, note=71, velocity=73, time=1),\n",
      "  Message('note_on', channel=2, note=71, velocity=0, time=23),\n",
      "  Message('note_on', channel=2, note=67, velocity=73, time=1),\n",
      "  Message('note_on', channel=2, note=67, velocity=0, time=23),\n",
      "  Message('note_on', channel=2, note=69, velocity=73, time=1),\n",
      "  Message('note_on', channel=2, note=69, velocity=0, time=23),\n",
      "  Message('note_on', channel=2, note=66, velocity=73, time=1),\n",
      "  Message('note_on', channel=2, note=66, velocity=0, time=23),\n",
      "  Message('note_on', channel=2, note=67, velocity=73, time=1),\n",
      "  Message('note_on', channel=2, note=67, velocity=0, time=23),\n",
      "  Message('note_on', channel=2, note=64, velocity=73, time=1),\n",
      "  Message('note_on', channel=2, note=64, velocity=0, time=23),\n",
      "  Message('note_on', channel=2, note=66, velocity=73, time=1),\n",
      "  Message('note_on', channel=2, note=66, velocity=0, time=23),\n",
      "  Message('note_on', channel=2, note=67, velocity=73, time=1),\n",
      "  Message('note_on', channel=2, note=67, velocity=0, time=23),\n",
      "  Message('note_on', channel=2, note=68, velocity=73, time=1),\n",
      "  Message('note_on', channel=2, note=68, velocity=0, time=23),\n",
      "  Message('note_on', channel=2, note=69, velocity=74, time=1),\n",
      "  Message('note_on', channel=2, note=69, velocity=0, time=23),\n",
      "  Message('note_on', channel=2, note=71, velocity=74, time=1),\n",
      "  Message('note_on', channel=2, note=71, velocity=0, time=23),\n",
      "  Message('note_on', channel=2, note=69, velocity=74, time=1),\n",
      "  Message('note_on', channel=2, note=69, velocity=0, time=23),\n",
      "  Message('note_on', channel=2, note=68, velocity=74, time=1),\n",
      "  Message('note_on', channel=2, note=68, velocity=0, time=23),\n",
      "  Message('note_on', channel=2, note=69, velocity=74, time=1),\n",
      "  Message('note_on', channel=2, note=69, velocity=0, time=23),\n",
      "  Message('note_on', channel=2, note=71, velocity=74, time=1),\n",
      "  Message('note_on', channel=2, note=71, velocity=0, time=23),\n",
      "  Message('note_on', channel=2, note=67, velocity=75, time=1),\n",
      "  Message('note_on', channel=2, note=67, velocity=0, time=23),\n",
      "  Message('note_on', channel=2, note=69, velocity=75, time=1),\n",
      "  Message('note_on', channel=2, note=69, velocity=0, time=23),\n",
      "  Message('note_on', channel=2, note=66, velocity=75, time=1),\n",
      "  Message('note_on', channel=2, note=66, velocity=0, time=23),\n",
      "  Message('note_on', channel=2, note=67, velocity=75, time=1),\n",
      "  Message('note_on', channel=2, note=67, velocity=0, time=23),\n",
      "  Message('note_on', channel=2, note=64, velocity=75, time=1),\n",
      "  Message('note_on', channel=2, note=64, velocity=0, time=23),\n",
      "  Message('note_on', channel=2, note=66, velocity=75, time=1),\n",
      "  Message('note_on', channel=2, note=66, velocity=0, time=23),\n",
      "  Message('note_on', channel=2, note=62, velocity=76, time=1),\n",
      "  Message('note_on', channel=2, note=62, velocity=0, time=23),\n",
      "  Message('note_on', channel=2, note=64, velocity=76, time=1),\n",
      "  Message('note_on', channel=2, note=64, velocity=0, time=23),\n",
      "  Message('note_on', channel=2, note=66, velocity=76, time=1),\n",
      "  Message('note_on', channel=2, note=66, velocity=0, time=23),\n",
      "  Message('note_on', channel=2, note=62, velocity=76, time=1),\n",
      "  Message('note_on', channel=2, note=62, velocity=0, time=23),\n",
      "  Message('note_on', channel=2, note=67, velocity=76, time=1),\n",
      "  Message('note_on', channel=2, note=67, velocity=0, time=23),\n",
      "  Message('note_on', channel=2, note=69, velocity=76, time=1),\n",
      "  Message('note_on', channel=2, note=69, velocity=0, time=23),\n",
      "  Message('note_on', channel=2, note=67, velocity=77, time=1),\n",
      "  Message('note_on', channel=2, note=67, velocity=0, time=23),\n",
      "  Message('note_on', channel=2, note=66, velocity=77, time=1),\n",
      "  Message('note_on', channel=2, note=66, velocity=0, time=23),\n",
      "  Message('note_on', channel=2, note=67, velocity=77, time=1),\n",
      "  Message('note_on', channel=2, note=67, velocity=0, time=23),\n",
      "  Message('note_on', channel=2, note=79, velocity=77, time=1),\n",
      "  Message('note_on', channel=2, note=79, velocity=0, time=23),\n",
      "  Message('note_on', channel=2, note=78, velocity=77, time=1),\n",
      "  Message('note_on', channel=2, note=78, velocity=0, time=23),\n",
      "  Message('note_on', channel=2, note=79, velocity=77, time=1),\n",
      "  Message('note_on', channel=2, note=79, velocity=0, time=23),\n",
      "  Message('note_on', channel=2, note=76, velocity=78, time=1),\n",
      "  Message('note_on', channel=2, note=76, velocity=0, time=23),\n",
      "  Message('note_on', channel=2, note=78, velocity=78, time=1),\n",
      "  Message('note_on', channel=2, note=78, velocity=0, time=23),\n",
      "  Message('note_on', channel=2, note=75, velocity=78, time=1),\n",
      "  Message('note_on', channel=2, note=75, velocity=0, time=23),\n",
      "  Message('note_on', channel=2, note=76, velocity=78, time=1),\n",
      "  Message('note_on', channel=2, note=76, velocity=0, time=23),\n",
      "  Message('note_on', channel=2, note=73, velocity=78, time=1),\n",
      "  Message('note_on', channel=2, note=73, velocity=0, time=23),\n",
      "  Message('note_on', channel=2, note=74, velocity=78, time=1),\n",
      "  Message('note_on', channel=2, note=74, velocity=0, time=23),\n",
      "  Message('note_on', channel=2, note=76, velocity=79, time=1),\n",
      "  Message('note_on', channel=2, note=76, velocity=0, time=23),\n",
      "  Message('note_on', channel=2, note=77, velocity=79, time=1),\n",
      "  Message('note_on', channel=2, note=77, velocity=0, time=23),\n",
      "  Message('note_on', channel=2, note=78, velocity=79, time=1),\n",
      "  Message('note_on', channel=2, note=78, velocity=0, time=23),\n",
      "  Message('note_on', channel=2, note=79, velocity=79, time=1),\n",
      "  Message('note_on', channel=2, note=79, velocity=0, time=23),\n",
      "  Message('note_on', channel=2, note=78, velocity=79, time=1),\n",
      "  Message('note_on', channel=2, note=78, velocity=0, time=23),\n",
      "  Message('note_on', channel=2, note=77, velocity=79, time=1),\n",
      "  Message('note_on', channel=2, note=77, velocity=0, time=23),\n",
      "  Message('note_on', channel=2, note=78, velocity=80, time=1),\n",
      "  Message('note_on', channel=2, note=78, velocity=0, time=23),\n",
      "  Message('note_on', channel=2, note=79, velocity=80, time=1),\n",
      "  Message('note_on', channel=2, note=79, velocity=0, time=23),\n",
      "  Message('note_on', channel=2, note=76, velocity=80, time=1),\n",
      "  Message('note_on', channel=2, note=76, velocity=0, time=23),\n",
      "  Message('note_on', channel=2, note=78, velocity=80, time=1),\n",
      "  Message('note_on', channel=2, note=78, velocity=0, time=23),\n",
      "  Message('note_on', channel=2, note=74, velocity=80, time=1),\n",
      "  Message('note_on', channel=2, note=74, velocity=0, time=23),\n",
      "  Message('note_on', channel=2, note=76, velocity=80, time=1),\n",
      "  Message('note_on', channel=2, note=76, velocity=0, time=23),\n",
      "  Message('note_on', channel=2, note=73, velocity=80, time=1),\n",
      "  Message('note_on', channel=2, note=73, velocity=0, time=23),\n",
      "  Message('note_on', channel=2, note=74, velocity=81, time=1),\n",
      "  Message('note_on', channel=2, note=74, velocity=0, time=23),\n",
      "  Message('note_on', channel=2, note=71, velocity=81, time=1),\n",
      "  Message('note_on', channel=2, note=71, velocity=0, time=23),\n",
      "  Message('note_on', channel=2, note=69, velocity=81, time=1),\n",
      "  Message('note_on', channel=2, note=69, velocity=0, time=23),\n",
      "  Message('note_on', channel=2, note=67, velocity=81, time=1),\n",
      "  Message('note_on', channel=2, note=67, velocity=0, time=23),\n",
      "  Message('note_on', channel=2, note=66, velocity=81, time=1),\n",
      "  Message('note_on', channel=2, note=66, velocity=0, time=23),\n",
      "  Message('note_on', channel=2, note=64, velocity=81, time=1),\n",
      "  Message('note_on', channel=2, note=64, velocity=0, time=23),\n",
      "  Message('note_on', channel=2, note=67, velocity=82, time=1),\n",
      "  Message('note_on', channel=2, note=67, velocity=0, time=23),\n",
      "  Message('note_on', channel=2, note=71, velocity=82, time=1),\n",
      "  Message('note_on', channel=2, note=71, velocity=0, time=23),\n",
      "  Message('note_on', channel=2, note=67, velocity=82, time=1),\n",
      "  Message('note_on', channel=2, note=67, velocity=0, time=23),\n",
      "  Message('note_on', channel=2, note=74, velocity=82, time=1),\n",
      "  Message('note_on', channel=2, note=74, velocity=0, time=23),\n",
      "  Message('note_on', channel=2, note=71, velocity=82, time=1),\n",
      "  Message('note_on', channel=2, note=71, velocity=0, time=23),\n",
      "  Message('note_on', channel=2, note=67, velocity=82, time=1),\n",
      "  Message('note_on', channel=2, note=67, velocity=0, time=23),\n",
      "  Message('note_on', channel=2, note=71, velocity=83, time=1),\n",
      "  Message('note_on', channel=2, note=71, velocity=0, time=23),\n",
      "  Message('note_on', channel=2, note=64, velocity=83, time=1),\n",
      "  Message('note_on', channel=2, note=64, velocity=0, time=23),\n",
      "  Message('note_on', channel=2, note=67, velocity=83, time=1),\n",
      "  Message('note_on', channel=2, note=67, velocity=0, time=23),\n",
      "  Message('note_on', channel=2, note=71, velocity=83, time=1),\n",
      "  Message('note_on', channel=2, note=71, velocity=0, time=23),\n",
      "  Message('note_on', channel=2, note=67, velocity=83, time=1),\n",
      "  Message('note_on', channel=2, note=67, velocity=0, time=23),\n",
      "  Message('note_on', channel=2, note=74, velocity=83, time=1),\n",
      "  Message('note_on', channel=2, note=74, velocity=0, time=23),\n",
      "  Message('note_on', channel=2, note=71, velocity=84, time=1),\n",
      "  Message('note_on', channel=2, note=71, velocity=0, time=23),\n",
      "  Message('note_on', channel=2, note=67, velocity=84, time=1),\n",
      "  Message('note_on', channel=2, note=67, velocity=0, time=23),\n",
      "  Message('note_on', channel=2, note=71, velocity=84, time=1),\n",
      "  Message('note_on', channel=2, note=71, velocity=0, time=23),\n",
      "  Message('note_on', channel=2, note=65, velocity=84, time=1),\n",
      "  Message('note_on', channel=2, note=65, velocity=0, time=23),\n",
      "  Message('note_on', channel=2, note=68, velocity=84, time=1),\n",
      "  Message('note_on', channel=2, note=68, velocity=0, time=23),\n",
      "  Message('note_on', channel=2, note=71, velocity=84, time=1),\n",
      "  Message('note_on', channel=2, note=71, velocity=0, time=23),\n",
      "  Message('note_on', channel=2, note=68, velocity=85, time=1),\n",
      "  Message('note_on', channel=2, note=68, velocity=0, time=23),\n",
      "  Message('note_on', channel=2, note=74, velocity=85, time=1),\n",
      "  Message('note_on', channel=2, note=74, velocity=0, time=23),\n",
      "  Message('note_on', channel=2, note=71, velocity=85, time=1),\n",
      "  Message('note_on', channel=2, note=71, velocity=0, time=23),\n",
      "  Message('note_on', channel=2, note=68, velocity=85, time=1),\n",
      "  Message('note_on', channel=2, note=68, velocity=0, time=23),\n",
      "  Message('note_on', channel=2, note=71, velocity=85, time=1),\n",
      "  Message('note_on', channel=2, note=71, velocity=0, time=23),\n",
      "  Message('note_on', channel=2, note=65, velocity=85, time=1),\n",
      "  Message('note_on', channel=2, note=65, velocity=0, time=23),\n",
      "  Message('note_on', channel=2, note=68, velocity=86, time=1),\n",
      "  Message('note_on', channel=2, note=68, velocity=0, time=23),\n",
      "  Message('note_on', channel=2, note=71, velocity=86, time=1),\n",
      "  Message('note_on', channel=2, note=71, velocity=0, time=23),\n",
      "  Message('note_on', channel=2, note=68, velocity=86, time=1),\n",
      "  Message('note_on', channel=2, note=68, velocity=0, time=23),\n",
      "  Message('note_on', channel=2, note=74, velocity=86, time=1),\n",
      "  Message('note_on', channel=2, note=74, velocity=0, time=23),\n",
      "  Message('note_on', channel=2, note=71, velocity=86, time=1),\n",
      "  Message('note_on', channel=2, note=71, velocity=0, time=23),\n",
      "  Message('note_on', channel=2, note=68, velocity=86, time=1),\n",
      "  Message('note_on', channel=2, note=68, velocity=0, time=23),\n",
      "  Message('note_on', channel=2, note=71, velocity=87, time=1),\n",
      "  Message('note_on', channel=2, note=71, velocity=0, time=23),\n",
      "  Message('note_on', channel=2, note=74, velocity=87, time=1),\n",
      "  Message('note_on', channel=2, note=69, velocity=87, time=0),\n",
      "  Message('note_on', channel=2, note=66, velocity=87, time=0),\n",
      "  Message('note_on', channel=2, note=74, velocity=0, time=89),\n",
      "  Message('note_on', channel=2, note=69, velocity=0, time=0),\n",
      "  Message('note_on', channel=2, note=66, velocity=0, time=0),\n",
      "  Message('note_on', channel=2, note=74, velocity=87, time=295),\n",
      "  Message('note_on', channel=2, note=74, velocity=0, time=177),\n",
      "  Message('note_on', channel=2, note=73, velocity=87, time=15),\n",
      "  Message('note_on', channel=2, note=73, velocity=0, time=18),\n",
      "  Message('note_on', channel=2, note=74, velocity=87, time=0),\n",
      "  Message('note_on', channel=2, note=74, velocity=0, time=18),\n",
      "  Message('note_on', channel=2, note=73, velocity=87, time=0),\n",
      "  Message('note_on', channel=2, note=73, velocity=0, time=18),\n",
      "  Message('note_on', channel=2, note=74, velocity=87, time=0),\n",
      "  Message('note_on', channel=2, note=74, velocity=0, time=18),\n",
      "  Message('note_on', channel=2, note=73, velocity=87, time=0),\n",
      "  Message('note_on', channel=2, note=73, velocity=0, time=18),\n",
      "  Message('note_on', channel=2, note=74, velocity=87, time=0),\n",
      "  Message('note_on', channel=2, note=74, velocity=0, time=18),\n",
      "  Message('note_on', channel=2, note=73, velocity=87, time=0),\n",
      "  Message('note_on', channel=2, note=73, velocity=0, time=18),\n",
      "  Message('note_on', channel=2, note=74, velocity=87, time=0),\n",
      "  Message('note_on', channel=2, note=74, velocity=0, time=7),\n",
      "  Message('note_on', channel=2, note=71, velocity=87, time=11),\n",
      "  Message('note_on', channel=2, note=71, velocity=0, time=23),\n",
      "  Message('note_on', channel=2, note=73, velocity=87, time=1),\n",
      "  Message('note_on', channel=2, note=73, velocity=0, time=23),\n",
      "  Message('note_on', channel=2, note=74, velocity=87, time=1),\n",
      "  Message('note_on', channel=2, note=74, velocity=0, time=89),\n",
      "  Message('note_on', channel=2, note=65, velocity=73, time=343),\n",
      "  Message('note_on', channel=2, note=65, velocity=0, time=45),\n",
      "  Message('note_on', channel=2, note=64, velocity=73, time=3),\n",
      "  Message('note_on', channel=2, note=64, velocity=0, time=45),\n",
      "  Message('note_on', channel=2, note=63, velocity=73, time=3),\n",
      "  Message('note_on', channel=2, note=63, velocity=0, time=45),\n",
      "  Message('note_on', channel=2, note=62, velocity=73, time=3),\n",
      "  Message('note_on', channel=2, note=62, velocity=0, time=89),\n",
      "  Message('note_on', channel=2, note=62, velocity=73, time=151),\n",
      "  Message('note_on', channel=2, note=62, velocity=0, time=45),\n",
      "  Message('note_on', channel=2, note=61, velocity=73, time=3),\n",
      "  Message('note_on', channel=2, note=61, velocity=0, time=45),\n",
      "  Message('note_on', channel=2, note=60, velocity=73, time=3),\n",
      "  Message('note_on', channel=2, note=60, velocity=0, time=45),\n",
      "  Message('note_on', channel=2, note=59, velocity=73, time=3),\n",
      "  Message('note_on', channel=2, note=59, velocity=0, time=89),\n",
      "  Message('note_on', channel=2, note=58, velocity=73, time=7),\n",
      "  Message('note_on', channel=2, note=58, velocity=0, time=89),\n",
      "  Message('note_on', channel=2, note=57, velocity=73, time=7),\n",
      "  Message('note_on', channel=2, note=57, velocity=0, time=177),\n",
      "  Message('note_on', channel=2, note=59, velocity=73, time=15),\n",
      "  Message('note_on', channel=2, note=59, velocity=0, time=89),\n",
      "  Message('note_on', channel=2, note=67, velocity=73, time=7),\n",
      "  Message('note_on', channel=2, note=64, velocity=73, time=0),\n",
      "  Message('note_on', channel=2, note=67, velocity=0, time=89),\n",
      "  Message('note_on', channel=2, note=64, velocity=0, time=0),\n",
      "  Message('note_on', channel=2, note=78, velocity=87, time=7),\n",
      "  Message('note_on', channel=2, note=74, velocity=87, time=0),\n",
      "  Message('note_on', channel=2, note=78, velocity=0, time=23),\n",
      "  Message('note_on', channel=2, note=74, velocity=0, time=0),\n",
      "  Message('note_on', channel=2, note=86, velocity=87, time=1),\n",
      "  Message('note_on', channel=2, note=86, velocity=0, time=23),\n",
      "  Message('note_on', channel=2, note=78, velocity=87, time=1),\n",
      "  Message('note_on', channel=2, note=74, velocity=87, time=0),\n",
      "  Message('note_on', channel=2, note=78, velocity=0, time=23),\n",
      "  Message('note_on', channel=2, note=74, velocity=0, time=0),\n",
      "  Message('note_on', channel=2, note=86, velocity=87, time=1),\n",
      "  Message('note_on', channel=2, note=86, velocity=0, time=23),\n",
      "  Message('note_on', channel=2, note=78, velocity=87, time=1),\n",
      "  Message('note_on', channel=2, note=74, velocity=87, time=0),\n",
      "  Message('note_on', channel=2, note=78, velocity=0, time=23),\n",
      "  Message('note_on', channel=2, note=74, velocity=0, time=0),\n",
      "  Message('note_on', channel=2, note=86, velocity=87, time=1),\n",
      "  Message('note_on', channel=2, note=86, velocity=0, time=23),\n",
      "  Message('note_on', channel=2, note=78, velocity=87, time=1),\n",
      "  Message('note_on', channel=2, note=74, velocity=87, time=0),\n",
      "  Message('note_on', channel=2, note=78, velocity=0, time=23),\n",
      "  Message('note_on', channel=2, note=74, velocity=0, time=0),\n",
      "  Message('note_on', channel=2, note=86, velocity=87, time=1),\n",
      "  Message('note_on', channel=2, note=86, velocity=0, time=23),\n",
      "  Message('note_on', channel=2, note=78, velocity=87, time=1),\n",
      "  Message('note_on', channel=2, note=74, velocity=87, time=0),\n",
      "  Message('note_on', channel=2, note=78, velocity=0, time=23),\n",
      "  Message('note_on', channel=2, note=74, velocity=0, time=0),\n",
      "  Message('note_on', channel=2, note=86, velocity=87, time=1),\n",
      "  Message('note_on', channel=2, note=86, velocity=0, time=23),\n",
      "  Message('note_on', channel=2, note=78, velocity=87, time=1),\n",
      "  Message('note_on', channel=2, note=74, velocity=87, time=0),\n",
      "  Message('note_on', channel=2, note=78, velocity=0, time=23),\n",
      "  Message('note_on', channel=2, note=74, velocity=0, time=0),\n",
      "  Message('note_on', channel=2, note=86, velocity=87, time=1),\n",
      "  Message('note_on', channel=2, note=86, velocity=0, time=23),\n",
      "  Message('note_on', channel=2, note=78, velocity=87, time=1),\n",
      "  Message('note_on', channel=2, note=74, velocity=87, time=0),\n",
      "  Message('note_on', channel=2, note=78, velocity=0, time=23),\n",
      "  Message('note_on', channel=2, note=74, velocity=0, time=0),\n",
      "  Message('note_on', channel=2, note=86, velocity=87, time=1),\n",
      "  Message('note_on', channel=2, note=86, velocity=0, time=23),\n",
      "  Message('note_on', channel=2, note=78, velocity=87, time=1),\n",
      "  Message('note_on', channel=2, note=74, velocity=87, time=0),\n",
      "  Message('note_on', channel=2, note=78, velocity=0, time=23),\n",
      "  Message('note_on', channel=2, note=74, velocity=0, time=0),\n",
      "  Message('note_on', channel=2, note=86, velocity=87, time=1),\n",
      "  Message('note_on', channel=2, note=86, velocity=0, time=23),\n",
      "  Message('note_on', channel=2, note=74, velocity=87, time=1),\n",
      "  Message('note_on', channel=2, note=74, velocity=0, time=23),\n",
      "  Message('note_on', channel=2, note=83, velocity=87, time=1),\n",
      "  Message('note_on', channel=2, note=83, velocity=0, time=23),\n",
      "  Message('note_on', channel=2, note=74, velocity=87, time=1),\n",
      "  Message('note_on', channel=2, note=74, velocity=0, time=23),\n",
      "  Message('note_on', channel=2, note=83, velocity=87, time=1),\n",
      "  Message('note_on', channel=2, note=83, velocity=0, time=23),\n",
      "  Message('note_on', channel=2, note=73, velocity=87, time=1),\n",
      "  Message('note_on', channel=2, note=73, velocity=0, time=23),\n",
      "  Message('note_on', channel=2, note=81, velocity=87, time=1),\n",
      "  Message('note_on', channel=2, note=81, velocity=0, time=23),\n",
      "  Message('note_on', channel=2, note=73, velocity=87, time=1),\n",
      "  Message('note_on', channel=2, note=73, velocity=0, time=23),\n",
      "  Message('note_on', channel=2, note=81, velocity=87, time=1),\n",
      "  Message('note_on', channel=2, note=81, velocity=0, time=23),\n",
      "  Message('note_on', channel=2, note=72, velocity=87, time=1),\n",
      "  Message('note_on', channel=2, note=72, velocity=0, time=23),\n",
      "  Message('note_on', channel=2, note=81, velocity=87, time=1),\n",
      "  Message('note_on', channel=2, note=81, velocity=0, time=23),\n",
      "  Message('note_on', channel=2, note=72, velocity=87, time=1),\n",
      "  Message('note_on', channel=2, note=72, velocity=0, time=23),\n",
      "  Message('note_on', channel=2, note=81, velocity=87, time=1),\n",
      "  Message('note_on', channel=2, note=81, velocity=0, time=23),\n",
      "  Message('note_on', channel=2, note=71, velocity=87, time=1),\n",
      "  Message('note_on', channel=2, note=71, velocity=0, time=23),\n",
      "  Message('note_on', channel=2, note=79, velocity=87, time=1),\n",
      "  Message('note_on', channel=2, note=79, velocity=0, time=23),\n",
      "  Message('note_on', channel=2, note=71, velocity=87, time=1),\n",
      "  Message('note_on', channel=2, note=71, velocity=0, time=23),\n",
      "  Message('note_on', channel=2, note=79, velocity=87, time=1),\n",
      "  Message('note_on', channel=2, note=79, velocity=0, time=23),\n",
      "  Message('note_on', channel=2, note=71, velocity=87, time=1),\n",
      "  Message('note_on', channel=2, note=71, velocity=0, time=23),\n",
      "  Message('note_on', channel=2, note=80, velocity=87, time=1),\n",
      "  Message('note_on', channel=2, note=80, velocity=0, time=23),\n",
      "  Message('note_on', channel=2, note=71, velocity=87, time=1),\n",
      "  Message('note_on', channel=2, note=71, velocity=0, time=23),\n",
      "  Message('note_on', channel=2, note=80, velocity=87, time=1),\n",
      "  Message('note_on', channel=2, note=80, velocity=0, time=23),\n",
      "  Message('note_on', channel=2, note=70, velocity=87, time=1),\n",
      "  Message('note_on', channel=2, note=70, velocity=0, time=23),\n",
      "  Message('note_on', channel=2, note=78, velocity=87, time=1),\n",
      "  Message('note_on', channel=2, note=78, velocity=0, time=23),\n",
      "  Message('note_on', channel=2, note=70, velocity=87, time=1),\n",
      "  Message('note_on', channel=2, note=70, velocity=0, time=23),\n",
      "  Message('note_on', channel=2, note=78, velocity=87, time=1),\n",
      "  Message('note_on', channel=2, note=78, velocity=0, time=23),\n",
      "  Message('note_on', channel=2, note=69, velocity=87, time=1),\n",
      "  Message('note_on', channel=2, note=69, velocity=0, time=23),\n",
      "  Message('note_on', channel=2, note=78, velocity=87, time=1),\n",
      "  Message('note_on', channel=2, note=78, velocity=0, time=23),\n",
      "  Message('note_on', channel=2, note=69, velocity=87, time=1),\n",
      "  Message('note_on', channel=2, note=69, velocity=0, time=23),\n",
      "  Message('note_on', channel=2, note=78, velocity=87, time=1),\n",
      "  Message('note_on', channel=2, note=78, velocity=0, time=23),\n",
      "  Message('note_on', channel=2, note=68, velocity=87, time=1),\n",
      "  Message('note_on', channel=2, note=68, velocity=0, time=23),\n",
      "  Message('note_on', channel=2, note=76, velocity=87, time=1),\n",
      "  Message('note_on', channel=2, note=76, velocity=0, time=23),\n",
      "  Message('note_on', channel=2, note=68, velocity=87, time=1),\n",
      "  Message('note_on', channel=2, note=68, velocity=0, time=23),\n",
      "  Message('note_on', channel=2, note=76, velocity=87, time=1),\n",
      "  Message('note_on', channel=2, note=76, velocity=0, time=23),\n",
      "  Message('note_on', channel=2, note=76, velocity=103, time=1),\n",
      "  Message('note_on', channel=2, note=69, velocity=103, time=0),\n",
      "  Message('note_on', channel=2, note=67, velocity=103, time=0),\n",
      "  Message('note_on', channel=2, note=76, velocity=0, time=96),\n",
      "  Message('note_on', channel=2, note=69, velocity=0, time=0),\n",
      "  Message('note_on', channel=2, note=67, velocity=0, time=0),\n",
      "  Message('note_on', channel=2, note=74, velocity=87, time=0),\n",
      "  Message('note_on', channel=2, note=69, velocity=87, time=0),\n",
      "  Message('note_on', channel=2, note=66, velocity=87, time=0),\n",
      "  Message('note_on', channel=2, note=74, velocity=0, time=89),\n",
      "  Message('note_on', channel=2, note=69, velocity=0, time=0),\n",
      "  Message('note_on', channel=2, note=66, velocity=0, time=0),\n",
      "  Message('note_on', channel=2, note=78, velocity=87, time=295),\n",
      "  Message('note_on', channel=2, note=74, velocity=87, time=0),\n",
      "  Message('note_on', channel=2, note=78, velocity=0, time=133),\n",
      "  Message('note_on', channel=2, note=74, velocity=0, time=0),\n",
      "  Message('note_on', channel=2, note=70, velocity=87, time=11),\n",
      "  Message('note_on', channel=2, note=70, velocity=0, time=45),\n",
      "  Message('note_on', channel=2, note=76, velocity=87, time=3),\n",
      "  Message('note_on', channel=2, note=76, velocity=0, time=45),\n",
      "  Message('note_on', channel=2, note=74, velocity=87, time=3),\n",
      "  Message('note_on', channel=2, note=74, velocity=0, time=45),\n",
      "  Message('note_on', channel=2, note=73, velocity=105, time=3),\n",
      "  Message('note_on', channel=2, note=70, velocity=105, time=0),\n",
      "  Message('note_on', channel=2, note=64, velocity=105, time=0),\n",
      "  Message('note_on', channel=2, note=73, velocity=0, time=89),\n",
      "  Message('note_on', channel=2, note=70, velocity=0, time=0),\n",
      "  Message('note_on', channel=2, note=64, velocity=0, time=0),\n",
      "  Message('note_on', channel=2, note=74, velocity=87, time=7),\n",
      "  Message('note_on', channel=2, note=69, velocity=87, time=0),\n",
      "  Message('note_on', channel=2, note=66, velocity=87, time=0),\n",
      "  Message('note_on', channel=2, note=74, velocity=0, time=89),\n",
      "  Message('note_on', channel=2, note=69, velocity=0, time=0),\n",
      "  Message('note_on', channel=2, note=66, velocity=0, time=0),\n",
      "  Message('note_on', channel=2, note=82, velocity=105, time=295),\n",
      "  Message('note_on', channel=2, note=74, velocity=105, time=0),\n",
      "  Message('note_on', channel=2, note=70, velocity=105, time=0),\n",
      "  Message('note_on', channel=2, note=82, velocity=0, time=133),\n",
      "  Message('note_on', channel=2, note=74, velocity=0, time=0),\n",
      "  Message('note_on', channel=2, note=70, velocity=0, time=0),\n",
      "  Message('note_on', channel=2, note=83, velocity=87, time=11),\n",
      "  Message('note_on', channel=2, note=74, velocity=87, time=0),\n",
      "  Message('note_on', channel=2, note=71, velocity=87, time=0),\n",
      "  Message('note_on', channel=2, note=83, velocity=0, time=45),\n",
      "  Message('note_on', channel=2, note=74, velocity=0, time=0),\n",
      "  Message('note_on', channel=2, note=71, velocity=0, time=0),\n",
      "  Message('note_on', channel=2, note=85, velocity=87, time=3),\n",
      "  Message('note_on', channel=2, note=76, velocity=87, time=0),\n",
      "  Message('note_on', channel=2, note=73, velocity=87, time=0),\n",
      "  Message('note_on', channel=2, note=85, velocity=0, time=45),\n",
      "  Message('note_on', channel=2, note=76, velocity=0, time=0),\n",
      "  Message('note_on', channel=2, note=73, velocity=0, time=0),\n",
      "  Message('note_on', channel=2, note=86, velocity=87, time=3),\n",
      "  Message('note_on', channel=2, note=77, velocity=87, time=0),\n",
      "  Message('note_on', channel=2, note=74, velocity=87, time=0),\n",
      "  Message('note_on', channel=2, note=86, velocity=0, time=45),\n",
      "  Message('note_on', channel=2, note=77, velocity=0, time=0),\n",
      "  Message('note_on', channel=2, note=74, velocity=0, time=0),\n",
      "  Message('note_on', channel=2, note=78, velocity=87, time=3),\n",
      "  Message('note_on', channel=2, note=74, velocity=87, time=0),\n",
      "  Message('note_on', channel=2, note=69, velocity=87, time=0),\n",
      "  Message('note_on', channel=2, note=78, velocity=0, time=89),\n",
      "  Message('note_on', channel=2, note=74, velocity=0, time=0),\n",
      "  Message('note_on', channel=2, note=69, velocity=0, time=0),\n",
      "  Message('note_on', channel=2, note=81, velocity=85, time=7),\n",
      "  Message('note_on', channel=2, note=78, velocity=85, time=0),\n",
      "  Message('note_on', channel=2, note=69, velocity=85, time=0),\n",
      "  Message('note_on', channel=2, note=81, velocity=0, time=89),\n",
      "  Message('note_on', channel=2, note=78, velocity=0, time=0),\n",
      "  Message('note_on', channel=2, note=69, velocity=0, time=0),\n",
      "  Message('note_on', channel=2, note=79, velocity=84, time=7),\n",
      "  Message('note_on', channel=2, note=76, velocity=84, time=0),\n",
      "  Message('note_on', channel=2, note=69, velocity=84, time=0),\n",
      "  Message('note_on', channel=2, note=79, velocity=0, time=89),\n",
      "  Message('note_on', channel=2, note=76, velocity=0, time=0),\n",
      "  Message('note_on', channel=2, note=69, velocity=0, time=0),\n",
      "  Message('note_on', channel=2, note=76, velocity=83, time=7),\n",
      "  Message('note_on', channel=2, note=73, velocity=83, time=0),\n",
      "  Message('note_on', channel=2, note=69, velocity=83, time=0),\n",
      "  Message('note_on', channel=2, note=76, velocity=0, time=89),\n",
      "  Message('note_on', channel=2, note=73, velocity=0, time=0),\n",
      "  Message('note_on', channel=2, note=69, velocity=0, time=0),\n",
      "  Message('note_on', channel=2, note=74, velocity=82, time=7),\n",
      "  Message('note_on', channel=2, note=69, velocity=82, time=0),\n",
      "  Message('note_on', channel=2, note=66, velocity=82, time=0),\n",
      "  Message('note_on', channel=2, note=74, velocity=0, time=89),\n",
      "  Message('note_on', channel=2, note=69, velocity=0, time=0),\n",
      "  Message('note_on', channel=2, note=66, velocity=0, time=0),\n",
      "  Message('note_on', channel=2, note=73, velocity=82, time=31),\n",
      "  Message('note_on', channel=2, note=73, velocity=0, time=23),\n",
      "  Message('note_on', channel=2, note=74, velocity=82, time=1),\n",
      "  Message('note_on', channel=2, note=74, velocity=0, time=23),\n",
      "  Message('note_on', channel=2, note=73, velocity=82, time=1),\n",
      "  Message('note_on', channel=2, note=73, velocity=0, time=23),\n",
      "  Message('note_on', channel=2, note=74, velocity=82, time=1),\n",
      "  Message('note_on', channel=2, note=74, velocity=0, time=23),\n",
      "  Message('note_on', channel=2, note=76, velocity=83, time=1),\n",
      "  Message('note_on', channel=2, note=76, velocity=0, time=23),\n",
      "  Message('note_on', channel=2, note=72, velocity=83, time=1),\n",
      "  Message('note_on', channel=2, note=72, velocity=0, time=23),\n",
      "  Message('note_on', channel=2, note=74, velocity=83, time=1),\n",
      "  Message('note_on', channel=2, note=74, velocity=0, time=23),\n",
      "  Message('note_on', channel=2, note=71, velocity=84, time=1),\n",
      "  Message('note_on', channel=2, note=71, velocity=0, time=23),\n",
      "  Message('note_on', channel=2, note=72, velocity=84, time=1),\n",
      "  Message('note_on', channel=2, note=72, velocity=0, time=23),\n",
      "  Message('note_on', channel=2, note=69, velocity=84, time=1),\n",
      "  Message('note_on', channel=2, note=69, velocity=0, time=23),\n",
      "  Message('note_on', channel=2, note=71, velocity=85, time=1),\n",
      "  Message('note_on', channel=2, note=71, velocity=0, time=23),\n",
      "  Message('note_on', channel=2, note=67, velocity=85, time=1),\n",
      "  Message('note_on', channel=2, note=67, velocity=0, time=89),\n",
      "  Message('note_on', channel=2, note=67, velocity=86, time=31),\n",
      "  Message('note_on', channel=2, note=67, velocity=0, time=23),\n",
      "  Message('note_on', channel=2, note=69, velocity=86, time=1),\n",
      "  Message('note_on', channel=2, note=69, velocity=0, time=23),\n",
      "  Message('note_on', channel=2, note=71, velocity=85, time=1),\n",
      "  Message('note_on', channel=2, note=71, velocity=0, time=23),\n",
      "  Message('note_on', channel=2, note=69, velocity=85, time=1),\n",
      "  Message('note_on', channel=2, note=69, velocity=0, time=23),\n",
      "  Message('note_on', channel=2, note=71, velocity=84, time=1),\n",
      "  Message('note_on', channel=2, note=71, velocity=0, time=23),\n",
      "  Message('note_on', channel=2, note=67, velocity=84, time=1),\n",
      "  Message('note_on', channel=2, note=67, velocity=0, time=23),\n",
      "  Message('note_on', channel=2, note=69, velocity=84, time=1),\n",
      "  Message('note_on', channel=2, note=69, velocity=0, time=23),\n",
      "  Message('note_on', channel=2, note=66, velocity=83, time=1),\n",
      "  Message('note_on', channel=2, note=66, velocity=0, time=23),\n",
      "  Message('note_on', channel=2, note=67, velocity=83, time=1),\n",
      "  Message('note_on', channel=2, note=67, velocity=0, time=23),\n",
      "  Message('note_on', channel=2, note=64, velocity=82, time=1),\n",
      "  Message('note_on', channel=2, note=64, velocity=0, time=23),\n",
      "  Message('note_on', channel=2, note=66, velocity=82, time=1),\n",
      "  Message('note_on', channel=2, note=66, velocity=0, time=23),\n",
      "  Message('note_on', channel=2, note=62, velocity=82, time=1),\n",
      "  Message('note_on', channel=2, note=62, velocity=0, time=89),\n",
      "  Message('note_on', channel=2, note=73, velocity=73, time=31),\n",
      "  Message('note_on', channel=2, note=73, velocity=0, time=23),\n",
      "  Message('note_on', channel=2, note=74, velocity=73, time=1),\n",
      "  Message('note_on', channel=2, note=74, velocity=0, time=23),\n",
      "  Message('note_on', channel=2, note=73, velocity=73, time=1),\n",
      "  Message('note_on', channel=2, note=73, velocity=0, time=23),\n",
      "  Message('note_on', channel=2, note=74, velocity=74, time=1),\n",
      "  Message('note_on', channel=2, note=74, velocity=0, time=23),\n",
      "  Message('note_on', channel=2, note=76, velocity=74, time=1),\n",
      "  Message('note_on', channel=2, note=76, velocity=0, time=23),\n",
      "  Message('note_on', channel=2, note=72, velocity=74, time=1),\n",
      "  Message('note_on', channel=2, note=72, velocity=0, time=23),\n",
      "  Message('note_on', channel=2, note=74, velocity=75, time=1),\n",
      "  Message('note_on', channel=2, note=74, velocity=0, time=23),\n",
      "  Message('note_on', channel=2, note=71, velocity=75, time=1),\n",
      "  Message('note_on', channel=2, note=71, velocity=0, time=23),\n",
      "  Message('note_on', channel=2, note=72, velocity=75, time=1),\n",
      "  Message('note_on', channel=2, note=72, velocity=0, time=23),\n",
      "  Message('note_on', channel=2, note=69, velocity=76, time=1),\n",
      "  Message('note_on', channel=2, note=69, velocity=0, time=23),\n",
      "  Message('note_on', channel=2, note=71, velocity=76, time=1),\n",
      "  Message('note_on', channel=2, note=71, velocity=0, time=23),\n",
      "  Message('note_on', channel=2, note=67, velocity=76, time=1),\n",
      "  Message('note_on', channel=2, note=67, velocity=0, time=89),\n",
      "  Message('note_on', channel=2, note=67, velocity=77, time=31),\n",
      "  Message('note_on', channel=2, note=67, velocity=0, time=23),\n",
      "  Message('note_on', channel=2, note=69, velocity=77, time=1),\n",
      "  Message('note_on', channel=2, note=69, velocity=0, time=23),\n",
      "  Message('note_on', channel=2, note=71, velocity=76, time=1),\n",
      "  Message('note_on', channel=2, note=71, velocity=0, time=23),\n",
      "  Message('note_on', channel=2, note=69, velocity=76, time=1),\n",
      "  Message('note_on', channel=2, note=69, velocity=0, time=23),\n",
      "  Message('note_on', channel=2, note=71, velocity=75, time=1),\n",
      "  Message('note_on', channel=2, note=71, velocity=0, time=23),\n",
      "  Message('note_on', channel=2, note=67, velocity=75, time=1),\n",
      "  Message('note_on', channel=2, note=67, velocity=0, time=23),\n",
      "  Message('note_on', channel=2, note=69, velocity=75, time=1),\n",
      "  Message('note_on', channel=2, note=69, velocity=0, time=23),\n",
      "  Message('note_on', channel=2, note=66, velocity=74, time=1),\n",
      "  Message('note_on', channel=2, note=66, velocity=0, time=23),\n",
      "  Message('note_on', channel=2, note=67, velocity=74, time=1),\n",
      "  Message('note_on', channel=2, note=67, velocity=0, time=23),\n",
      "  Message('note_on', channel=2, note=64, velocity=73, time=1),\n",
      "  Message('note_on', channel=2, note=64, velocity=0, time=23),\n",
      "  Message('note_on', channel=2, note=66, velocity=73, time=1),\n",
      "  Message('note_on', channel=2, note=66, velocity=0, time=23),\n",
      "  Message('note_on', channel=2, note=62, velocity=73, time=1),\n",
      "  Message('note_on', channel=2, note=62, velocity=0, time=89),\n",
      "  Message('note_on', channel=2, note=73, velocity=87, time=199),\n",
      "  Message('note_on', channel=2, note=69, velocity=87, time=0),\n",
      "  Message('note_on', channel=2, note=67, velocity=87, time=0),\n",
      "  Message('note_on', channel=2, note=64, velocity=87, time=0),\n",
      "  Message('note_on', channel=2, note=73, velocity=0, time=89),\n",
      "  Message('note_on', channel=2, note=69, velocity=0, time=0),\n",
      "  Message('note_on', channel=2, note=67, velocity=0, time=0),\n",
      "  Message('note_on', channel=2, note=64, velocity=0, time=0),\n",
      "  Message('note_on', channel=2, note=74, velocity=87, time=7),\n",
      "  Message('note_on', channel=2, note=74, velocity=0, time=23),\n",
      "  Message('note_on', channel=2, note=66, velocity=87, time=1),\n",
      "  Message('note_on', channel=2, note=66, velocity=0, time=23),\n",
      "  Message('note_on', channel=2, note=69, velocity=87, time=1),\n",
      "  Message('note_on', channel=2, note=69, velocity=0, time=23),\n",
      "  Message('note_on', channel=2, note=74, velocity=87, time=1),\n",
      "  Message('note_on', channel=2, note=74, velocity=0, time=23),\n",
      "  Message('note_on', channel=2, note=78, velocity=87, time=1),\n",
      "  Message('note_on', channel=2, note=78, velocity=0, time=23),\n",
      "  Message('note_on', channel=2, note=69, velocity=87, time=1),\n",
      "  Message('note_on', channel=2, note=69, velocity=0, time=23),\n",
      "  Message('note_on', channel=2, note=74, velocity=87, time=1),\n",
      "  Message('note_on', channel=2, note=74, velocity=0, time=23),\n",
      "  Message('note_on', channel=2, note=78, velocity=87, time=1),\n",
      "  Message('note_on', channel=2, note=78, velocity=0, time=23),\n",
      "  Message('note_on', channel=2, note=81, velocity=87, time=1),\n",
      "  Message('note_on', channel=2, note=81, velocity=0, time=20),\n",
      "  Message('note_on', channel=2, note=81, velocity=87, time=28),\n",
      "  Message('note_on', channel=2, note=81, velocity=0, time=20),\n",
      "  Message('note_on', channel=2, note=73, velocity=87, time=76),\n",
      "  Message('note_on', channel=2, note=69, velocity=87, time=0),\n",
      "  Message('note_on', channel=2, note=67, velocity=87, time=0),\n",
      "  Message('note_on', channel=2, note=64, velocity=87, time=0),\n",
      "  Message('note_on', channel=2, note=73, velocity=0, time=20),\n",
      "  Message('note_on', channel=2, note=69, velocity=0, time=0),\n",
      "  Message('note_on', channel=2, note=67, velocity=0, time=0),\n",
      "  Message('note_on', channel=2, note=64, velocity=0, time=0),\n",
      "  Message('note_on', channel=2, note=74, velocity=103, time=28),\n",
      "  Message('note_on', channel=2, note=69, velocity=103, time=0),\n",
      "  Message('note_on', channel=2, note=66, velocity=103, time=0),\n",
      "  Message('note_on', channel=2, note=62, velocity=103, time=0),\n",
      "  Message('note_on', channel=2, note=74, velocity=0, time=96),\n",
      "  Message('note_on', channel=2, note=69, velocity=0, time=0),\n",
      "  Message('note_on', channel=2, note=66, velocity=0, time=0),\n",
      "  Message('note_on', channel=2, note=62, velocity=0, time=0),\n",
      "  Message('note_on', channel=2, note=54, velocity=87, time=24),\n",
      "  Message('note_on', channel=2, note=54, velocity=0, time=23),\n",
      "  Message('note_on', channel=2, note=57, velocity=87, time=1),\n",
      "  Message('note_on', channel=2, note=57, velocity=0, time=23),\n",
      "  Message('note_on', channel=2, note=62, velocity=87, time=1),\n",
      "  Message('note_on', channel=2, note=62, velocity=0, time=23),\n",
      "  Message('note_on', channel=2, note=66, velocity=87, time=1),\n",
      "  Message('note_on', channel=2, note=66, velocity=0, time=23),\n",
      "  Message('note_on', channel=2, note=57, velocity=87, time=1),\n",
      "  Message('note_on', channel=2, note=57, velocity=0, time=23),\n",
      "  Message('note_on', channel=2, note=62, velocity=87, time=1),\n",
      "  Message('note_on', channel=2, note=62, velocity=0, time=23),\n",
      "  Message('note_on', channel=2, note=66, velocity=87, time=1),\n",
      "  Message('note_on', channel=2, note=66, velocity=0, time=23),\n",
      "  Message('note_on', channel=2, note=69, velocity=87, time=1),\n",
      "  Message('note_on', channel=2, note=69, velocity=0, time=23),\n",
      "  Message('note_on', channel=2, note=66, velocity=87, time=1),\n",
      "  Message('note_on', channel=2, note=66, velocity=0, time=23),\n",
      "  Message('note_on', channel=2, note=69, velocity=87, time=1),\n",
      "  Message('note_on', channel=2, note=69, velocity=0, time=23),\n",
      "  Message('note_on', channel=2, note=66, velocity=87, time=1),\n",
      "  Message('note_on', channel=2, note=66, velocity=0, time=23),\n",
      "  Message('note_on', channel=2, note=62, velocity=103, time=1),\n",
      "  Message('note_on', channel=2, note=62, velocity=0, time=39),\n",
      "  Message('note_on', channel=2, note=74, velocity=103, time=57),\n",
      "  Message('note_on', channel=2, note=69, velocity=103, time=0),\n",
      "  Message('note_on', channel=2, note=66, velocity=103, time=0),\n",
      "  Message('note_on', channel=2, note=62, velocity=103, time=0),\n",
      "  Message('note_on', channel=2, note=74, velocity=0, time=39),\n",
      "  Message('note_on', channel=2, note=69, velocity=0, time=0),\n",
      "  Message('note_on', channel=2, note=66, velocity=0, time=0),\n",
      "  Message('note_on', channel=2, note=62, velocity=0, time=0),\n",
      "  Message('note_on', channel=2, note=62, velocity=103, time=57),\n",
      "  Message('note_on', channel=2, note=62, velocity=0, time=96),\n",
      "  MetaMessage('end_of_track', time=96)])\n",
      "MidiTrack([\n",
      "  Message('program_change', channel=2, program=1, time=0),\n",
      "  Message('control_change', channel=2, control=7, value=127, time=0),\n",
      "  Message('control_change', channel=2, control=10, value=64, time=0),\n",
      "  Message('note_on', channel=2, note=64, velocity=73, time=13056),\n",
      "  Message('note_on', channel=2, note=64, velocity=0, time=89),\n",
      "  Message('note_on', channel=2, note=69, velocity=73, time=7),\n",
      "  Message('note_on', channel=2, note=69, velocity=0, time=89),\n",
      "  Message('note_on', channel=2, note=69, velocity=73, time=679),\n",
      "  Message('note_on', channel=2, note=69, velocity=0, time=89),\n",
      "  Message('note_on', channel=2, note=64, velocity=73, time=583),\n",
      "  Message('note_on', channel=2, note=64, velocity=0, time=89),\n",
      "  Message('note_on', channel=2, note=69, velocity=73, time=7),\n",
      "  Message('note_on', channel=2, note=69, velocity=0, time=89),\n",
      "  Message('note_on', channel=2, note=68, velocity=73, time=487),\n",
      "  Message('note_on', channel=2, note=68, velocity=0, time=89),\n",
      "  Message('note_on', channel=2, note=64, velocity=73, time=775),\n",
      "  Message('note_on', channel=2, note=64, velocity=0, time=354),\n",
      "  Message('note_on', channel=2, note=64, velocity=73, time=1182),\n",
      "  Message('note_on', channel=2, note=64, velocity=0, time=265),\n",
      "  Message('note_on', channel=2, note=62, velocity=73, time=23),\n",
      "  Message('note_on', channel=2, note=62, velocity=0, time=89),\n",
      "  Message('note_on', channel=2, note=61, velocity=73, time=7),\n",
      "  Message('note_on', channel=2, note=61, velocity=0, time=89),\n",
      "  Message('note_on', channel=2, note=64, velocity=73, time=25639),\n",
      "  Message('note_on', channel=2, note=64, velocity=0, time=89),\n",
      "  Message('note_on', channel=2, note=69, velocity=73, time=7),\n",
      "  Message('note_on', channel=2, note=69, velocity=0, time=89),\n",
      "  Message('note_on', channel=2, note=69, velocity=73, time=679),\n",
      "  Message('note_on', channel=2, note=69, velocity=0, time=89),\n",
      "  Message('note_on', channel=2, note=64, velocity=73, time=583),\n",
      "  Message('note_on', channel=2, note=64, velocity=0, time=89),\n",
      "  Message('note_on', channel=2, note=69, velocity=73, time=7),\n",
      "  Message('note_on', channel=2, note=69, velocity=0, time=89),\n",
      "  Message('note_on', channel=2, note=68, velocity=73, time=487),\n",
      "  Message('note_on', channel=2, note=68, velocity=0, time=89),\n",
      "  Message('note_on', channel=2, note=64, velocity=73, time=775),\n",
      "  Message('note_on', channel=2, note=64, velocity=0, time=354),\n",
      "  Message('note_on', channel=2, note=64, velocity=73, time=1182),\n",
      "  Message('note_on', channel=2, note=64, velocity=0, time=265),\n",
      "  Message('note_on', channel=2, note=62, velocity=73, time=23),\n",
      "  Message('note_on', channel=2, note=62, velocity=0, time=89),\n",
      "  Message('note_on', channel=2, note=61, velocity=73, time=7),\n",
      "  Message('note_on', channel=2, note=61, velocity=0, time=89),\n",
      "  Message('note_on', channel=2, note=64, velocity=73, time=15271),\n",
      "  Message('note_on', channel=2, note=64, velocity=0, time=177),\n",
      "  Message('note_on', channel=2, note=66, velocity=73, time=15),\n",
      "  Message('note_on', channel=2, note=66, velocity=0, time=89),\n",
      "  Message('note_on', channel=2, note=68, velocity=73, time=7),\n",
      "  Message('note_on', channel=2, note=64, velocity=73, time=0),\n",
      "  Message('note_on', channel=2, note=68, velocity=0, time=89),\n",
      "  Message('note_on', channel=2, note=64, velocity=0, time=0),\n",
      "  Message('note_on', channel=2, note=64, velocity=73, time=7),\n",
      "  Message('note_on', channel=2, note=64, velocity=0, time=89),\n",
      "  Message('note_on', channel=2, note=69, velocity=73, time=36103),\n",
      "  Message('note_on', channel=2, note=69, velocity=0, time=96),\n",
      "  Message('note_on', channel=2, note=70, velocity=73, time=0),\n",
      "  Message('note_on', channel=2, note=67, velocity=73, time=0),\n",
      "  Message('note_on', channel=2, note=70, velocity=0, time=177),\n",
      "  Message('note_on', channel=2, note=67, velocity=0, time=0),\n",
      "  MetaMessage('end_of_track', time=4239)])\n",
      "MidiTrack([\n",
      "  Message('program_change', channel=3, program=1, time=0),\n",
      "  Message('control_change', channel=3, control=7, value=127, time=0),\n",
      "  Message('control_change', channel=3, control=10, value=64, time=0),\n",
      "  Message('note_on', channel=3, note=50, velocity=87, time=0),\n",
      "  Message('note_on', channel=3, note=38, velocity=87, time=0),\n",
      "  Message('note_on', channel=3, note=50, velocity=0, time=177),\n",
      "  Message('note_on', channel=3, note=38, velocity=0, time=0),\n",
      "  Message('note_on', channel=3, note=45, velocity=87, time=15),\n",
      "  Message('note_on', channel=3, note=45, velocity=0, time=177),\n",
      "  Message('note_on', channel=3, note=43, velocity=87, time=15),\n",
      "  Message('note_on', channel=3, note=43, velocity=0, time=24),\n",
      "  Message('note_on', channel=3, note=42, velocity=87, time=0),\n",
      "  Message('note_on', channel=3, note=42, velocity=0, time=24),\n",
      "  Message('note_on', channel=3, note=43, velocity=87, time=0),\n",
      "  Message('note_on', channel=3, note=43, velocity=0, time=24),\n",
      "  Message('note_on', channel=3, note=42, velocity=87, time=0),\n",
      "  Message('note_on', channel=3, note=42, velocity=0, time=24),\n",
      "  Message('note_on', channel=3, note=43, velocity=87, time=0),\n",
      "  Message('note_on', channel=3, note=43, velocity=0, time=24),\n",
      "  Message('note_on', channel=3, note=42, velocity=87, time=0),\n",
      "  Message('note_on', channel=3, note=42, velocity=0, time=13),\n",
      "  Message('note_on', channel=3, note=40, velocity=87, time=11),\n",
      "  Message('note_on', channel=3, note=40, velocity=0, time=23),\n",
      "  Message('note_on', channel=3, note=38, velocity=87, time=1),\n",
      "  Message('note_on', channel=3, note=38, velocity=0, time=23),\n",
      "  Message('note_on', channel=3, note=45, velocity=87, time=1),\n",
      "  Message('note_on', channel=3, note=45, velocity=0, time=89),\n",
      "  Message('note_on', channel=3, note=33, velocity=87, time=79),\n",
      "  Message('note_on', channel=3, note=33, velocity=0, time=8),\n",
      "  Message('note_on', channel=3, note=35, velocity=87, time=0),\n",
      "  Message('note_on', channel=3, note=35, velocity=0, time=8),\n",
      "  Message('note_on', channel=3, note=37, velocity=87, time=0),\n",
      "  Message('note_on', channel=3, note=37, velocity=0, time=8),\n",
      "  Message('note_on', channel=3, note=38, velocity=87, time=0),\n",
      "  Message('note_on', channel=3, note=38, velocity=0, time=89),\n",
      "  Message('note_on', channel=3, note=33, velocity=87, time=7),\n",
      "  Message('note_on', channel=3, note=33, velocity=0, time=67),\n",
      "  Message('note_on', channel=3, note=38, velocity=87, time=5),\n",
      "  Message('note_on', channel=3, note=38, velocity=0, time=23),\n",
      "  Message('note_on', channel=3, note=40, velocity=87, time=1),\n",
      "  Message('note_on', channel=3, note=40, velocity=0, time=89),\n",
      "  Message('note_on', channel=3, note=33, velocity=87, time=7),\n",
      "  Message('note_on', channel=3, note=33, velocity=0, time=67),\n",
      "  Message('note_on', channel=3, note=40, velocity=87, time=5),\n",
      "  Message('note_on', channel=3, note=40, velocity=0, time=23),\n",
      "  Message('note_on', channel=3, note=42, velocity=87, time=1),\n",
      "  Message('note_on', channel=3, note=42, velocity=0, time=89),\n",
      "  Message('note_on', channel=3, note=38, velocity=87, time=7),\n",
      "  Message('note_on', channel=3, note=38, velocity=0, time=67),\n",
      "  Message('note_on', channel=3, note=42, velocity=87, time=5),\n",
      "  Message('note_on', channel=3, note=42, velocity=0, time=23),\n",
      "  Message('note_on', channel=3, note=45, velocity=87, time=1),\n",
      "  Message('note_on', channel=3, note=45, velocity=0, time=89),\n",
      "  Message('note_on', channel=3, note=62, velocity=82, time=679),\n",
      "  Message('note_on', channel=3, note=54, velocity=82, time=0),\n",
      "  Message('note_on', channel=3, note=62, velocity=0, time=20),\n",
      "  Message('note_on', channel=3, note=54, velocity=0, time=0),\n",
      "  Message('note_on', channel=3, note=62, velocity=83, time=28),\n",
      "  Message('note_on', channel=3, note=54, velocity=83, time=0),\n",
      "  Message('note_on', channel=3, note=62, velocity=0, time=20),\n",
      "  Message('note_on', channel=3, note=54, velocity=0, time=0),\n",
      "  Message('note_on', channel=3, note=64, velocity=84, time=28),\n",
      "  Message('note_on', channel=3, note=57, velocity=84, time=0),\n",
      "  Message('note_on', channel=3, note=64, velocity=0, time=20),\n",
      "  Message('note_on', channel=3, note=57, velocity=0, time=0),\n",
      "  Message('note_on', channel=3, note=64, velocity=85, time=28),\n",
      "  Message('note_on', channel=3, note=57, velocity=85, time=0),\n",
      "  Message('note_on', channel=3, note=64, velocity=0, time=20),\n",
      "  Message('note_on', channel=3, note=57, velocity=0, time=0),\n",
      "  Message('note_on', channel=3, note=66, velocity=87, time=28),\n",
      "  Message('note_on', channel=3, note=62, velocity=87, time=0),\n",
      "  Message('note_on', channel=3, note=66, velocity=0, time=89),\n",
      "  Message('note_on', channel=3, note=62, velocity=0, time=0),\n",
      "  Message('note_on', channel=3, note=66, velocity=82, time=487),\n",
      "  Message('note_on', channel=3, note=62, velocity=82, time=0),\n",
      "  Message('note_on', channel=3, note=66, velocity=0, time=20),\n",
      "  Message('note_on', channel=3, note=62, velocity=0, time=0),\n",
      "  Message('note_on', channel=3, note=66, velocity=83, time=28),\n",
      "  Message('note_on', channel=3, note=62, velocity=83, time=0),\n",
      "  Message('note_on', channel=3, note=66, velocity=0, time=20),\n",
      "  Message('note_on', channel=3, note=62, velocity=0, time=0),\n",
      "  Message('note_on', channel=3, note=67, velocity=84, time=28),\n",
      "  Message('note_on', channel=3, note=64, velocity=84, time=0),\n",
      "  Message('note_on', channel=3, note=67, velocity=0, time=20),\n",
      "  Message('note_on', channel=3, note=64, velocity=0, time=0),\n",
      "  Message('note_on', channel=3, note=67, velocity=85, time=28),\n",
      "  Message('note_on', channel=3, note=64, velocity=85, time=0),\n",
      "  Message('note_on', channel=3, note=67, velocity=0, time=20),\n",
      "  Message('note_on', channel=3, note=64, velocity=0, time=0),\n",
      "  Message('note_on', channel=3, note=69, velocity=86, time=28),\n",
      "  Message('note_on', channel=3, note=66, velocity=86, time=0),\n",
      "  Message('note_on', channel=3, note=69, velocity=0, time=45),\n",
      "  Message('note_on', channel=3, note=66, velocity=0, time=0),\n",
      "  Message('note_on', channel=3, note=50, velocity=87, time=147),\n",
      "  Message('note_on', channel=3, note=38, velocity=87, time=0),\n",
      "  Message('note_on', channel=3, note=50, velocity=0, time=89),\n",
      "  Message('note_on', channel=3, note=38, velocity=0, time=0),\n",
      "  Message('note_on', channel=3, note=49, velocity=87, time=103),\n",
      "  Message('note_on', channel=3, note=37, velocity=87, time=0),\n",
      "  Message('note_on', channel=3, note=49, velocity=0, time=89),\n",
      "  Message('note_on', channel=3, note=37, velocity=0, time=0),\n",
      "  Message('note_on', channel=3, note=49, velocity=87, time=103),\n",
      "  Message('note_on', channel=3, note=37, velocity=87, time=0),\n",
      "  Message('note_on', channel=3, note=49, velocity=0, time=89),\n",
      "  Message('note_on', channel=3, note=37, velocity=0, time=0),\n",
      "  Message('note_on', channel=3, note=50, velocity=87, time=103),\n",
      "  Message('note_on', channel=3, note=38, velocity=87, time=0),\n",
      "  Message('note_on', channel=3, note=50, velocity=0, time=89),\n",
      "  Message('note_on', channel=3, note=38, velocity=0, time=0),\n",
      "  Message('note_on', channel=3, note=50, velocity=87, time=103),\n",
      "  Message('note_on', channel=3, note=38, velocity=87, time=0),\n",
      "  Message('note_on', channel=3, note=50, velocity=0, time=89),\n",
      "  Message('note_on', channel=3, note=38, velocity=0, time=0),\n",
      "  Message('note_on', channel=3, note=64, velocity=82, time=103),\n",
      "  Message('note_on', channel=3, note=62, velocity=82, time=0),\n",
      "  Message('note_on', channel=3, note=64, velocity=0, time=177),\n",
      "  Message('note_on', channel=3, note=62, velocity=0, time=0),\n",
      "  Message('note_on', channel=3, note=66, velocity=82, time=15),\n",
      "  Message('note_on', channel=3, note=62, velocity=82, time=0),\n",
      "  Message('note_on', channel=3, note=66, velocity=0, time=89),\n",
      "  Message('note_on', channel=3, note=62, velocity=0, time=0),\n",
      "  Message('note_on', channel=3, note=67, velocity=87, time=7),\n",
      "  Message('note_on', channel=3, note=64, velocity=87, time=0),\n",
      "  Message('note_on', channel=3, note=67, velocity=0, time=89),\n",
      "  Message('note_on', channel=3, note=64, velocity=0, time=0),\n",
      "  Message('note_on', channel=3, note=66, velocity=99, time=7),\n",
      "  Message('note_on', channel=3, note=62, velocity=99, time=0),\n",
      "  Message('note_on', channel=3, note=66, velocity=0, time=20),\n",
      "  Message('note_on', channel=3, note=62, velocity=0, time=0),\n",
      "  Message('note_on', channel=3, note=66, velocity=78, time=28),\n",
      "  Message('note_on', channel=3, note=62, velocity=78, time=0),\n",
      "  Message('note_on', channel=3, note=66, velocity=0, time=20),\n",
      "  Message('note_on', channel=3, note=62, velocity=0, time=0),\n",
      "  Message('note_on', channel=3, note=66, velocity=78, time=28),\n",
      "  Message('note_on', channel=3, note=62, velocity=78, time=0),\n",
      "  Message('note_on', channel=3, note=66, velocity=0, time=20),\n",
      "  Message('note_on', channel=3, note=62, velocity=0, time=0),\n",
      "  Message('note_on', channel=3, note=66, velocity=78, time=28),\n",
      "  Message('note_on', channel=3, note=62, velocity=78, time=0),\n",
      "  Message('note_on', channel=3, note=66, velocity=0, time=20),\n",
      "  Message('note_on', channel=3, note=62, velocity=0, time=0),\n",
      "  Message('note_on', channel=3, note=57, velocity=78, time=28),\n",
      "  Message('note_on', channel=3, note=57, velocity=0, time=20),\n",
      "  Message('note_on', channel=3, note=66, velocity=78, time=28),\n",
      "  Message('note_on', channel=3, note=62, velocity=78, time=0),\n",
      "  Message('note_on', channel=3, note=66, velocity=0, time=20),\n",
      "  Message('note_on', channel=3, note=62, velocity=0, time=0),\n",
      "  Message('note_on', channel=3, note=66, velocity=78, time=28),\n",
      "  Message('note_on', channel=3, note=62, velocity=78, time=0),\n",
      "  Message('note_on', channel=3, note=66, velocity=0, time=20),\n",
      "  Message('note_on', channel=3, note=62, velocity=0, time=0),\n",
      "  Message('note_on', channel=3, note=66, velocity=78, time=28),\n",
      "  Message('note_on', channel=3, note=62, velocity=78, time=0),\n",
      "  Message('note_on', channel=3, note=66, velocity=0, time=20),\n",
      "  Message('note_on', channel=3, note=62, velocity=0, time=0),\n",
      "  Message('note_on', channel=3, note=57, velocity=94, time=28),\n",
      "  Message('note_on', channel=3, note=57, velocity=0, time=20),\n",
      "  Message('note_on', channel=3, note=67, velocity=78, time=28),\n",
      "  Message('note_on', channel=3, note=64, velocity=78, time=0),\n",
      "  Message('note_on', channel=3, note=67, velocity=0, time=20),\n",
      "  Message('note_on', channel=3, note=64, velocity=0, time=0),\n",
      "  Message('note_on', channel=3, note=67, velocity=78, time=28),\n",
      "  Message('note_on', channel=3, note=64, velocity=78, time=0),\n",
      "  Message('note_on', channel=3, note=67, velocity=0, time=20),\n",
      "  Message('note_on', channel=3, note=64, velocity=0, time=0),\n",
      "  Message('note_on', channel=3, note=67, velocity=78, time=28),\n",
      "  Message('note_on', channel=3, note=64, velocity=78, time=0),\n",
      "  Message('note_on', channel=3, note=67, velocity=0, time=20),\n",
      "  Message('note_on', channel=3, note=64, velocity=0, time=0),\n",
      "  Message('note_on', channel=3, note=57, velocity=78, time=28),\n",
      "  Message('note_on', channel=3, note=57, velocity=0, time=20),\n",
      "  Message('note_on', channel=3, note=67, velocity=78, time=28),\n",
      "  Message('note_on', channel=3, note=64, velocity=78, time=0),\n",
      "  Message('note_on', channel=3, note=67, velocity=0, time=20),\n",
      "  Message('note_on', channel=3, note=64, velocity=0, time=0),\n",
      "  Message('note_on', channel=3, note=67, velocity=78, time=28),\n",
      "  Message('note_on', channel=3, note=64, velocity=78, time=0),\n",
      "  Message('note_on', channel=3, note=67, velocity=0, time=20),\n",
      "  Message('note_on', channel=3, note=64, velocity=0, time=0),\n",
      "  Message('note_on', channel=3, note=67, velocity=78, time=28),\n",
      "  Message('note_on', channel=3, note=64, velocity=78, time=0),\n",
      "  Message('note_on', channel=3, note=67, velocity=0, time=20),\n",
      "  Message('note_on', channel=3, note=64, velocity=0, time=0),\n",
      "  Message('note_on', channel=3, note=57, velocity=94, time=28),\n",
      "  Message('note_on', channel=3, note=57, velocity=0, time=20),\n",
      "  Message('note_on', channel=3, note=66, velocity=78, time=28),\n",
      "  Message('note_on', channel=3, note=62, velocity=78, time=0),\n",
      "  Message('note_on', channel=3, note=66, velocity=0, time=20),\n",
      "  Message('note_on', channel=3, note=62, velocity=0, time=0),\n",
      "  Message('note_on', channel=3, note=66, velocity=78, time=28),\n",
      "  Message('note_on', channel=3, note=62, velocity=78, time=0),\n",
      "  Message('note_on', channel=3, note=66, velocity=0, time=20),\n",
      "  Message('note_on', channel=3, note=62, velocity=0, time=0),\n",
      "  Message('note_on', channel=3, note=66, velocity=78, time=28),\n",
      "  Message('note_on', channel=3, note=62, velocity=78, time=0),\n",
      "  Message('note_on', channel=3, note=66, velocity=0, time=20),\n",
      "  Message('note_on', channel=3, note=62, velocity=0, time=0),\n",
      "  Message('note_on', channel=3, note=57, velocity=78, time=28),\n",
      "  Message('note_on', channel=3, note=57, velocity=0, time=20),\n",
      "  Message('note_on', channel=3, note=66, velocity=78, time=28),\n",
      "  Message('note_on', channel=3, note=62, velocity=78, time=0),\n",
      "  Message('note_on', channel=3, note=66, velocity=0, time=20),\n",
      "  Message('note_on', channel=3, note=62, velocity=0, time=0),\n",
      "  Message('note_on', channel=3, note=66, velocity=78, time=28),\n",
      "  Message('note_on', channel=3, note=62, velocity=78, time=0),\n",
      "  Message('note_on', channel=3, note=66, velocity=0, time=20),\n",
      "  Message('note_on', channel=3, note=62, velocity=0, time=0),\n",
      "  Message('note_on', channel=3, note=66, velocity=78, time=28),\n",
      "  Message('note_on', channel=3, note=62, velocity=78, time=0),\n",
      "  Message('note_on', channel=3, note=66, velocity=0, time=20),\n",
      "  Message('note_on', channel=3, note=62, velocity=0, time=0),\n",
      "  Message('note_on', channel=3, note=55, velocity=78, time=124),\n",
      "  Message('note_on', channel=3, note=43, velocity=78, time=0),\n",
      "  Message('note_on', channel=3, note=55, velocity=0, time=89),\n",
      "  Message('note_on', channel=3, note=43, velocity=0, time=0),\n",
      "  Message('note_on', channel=3, note=57, velocity=78, time=7),\n",
      "  Message('note_on', channel=3, note=45, velocity=78, time=0),\n",
      "  Message('note_on', channel=3, note=57, velocity=0, time=89),\n",
      "  Message('note_on', channel=3, note=45, velocity=0, time=0),\n",
      "  Message('note_on', channel=3, note=45, velocity=78, time=7),\n",
      "  Message('note_on', channel=3, note=33, velocity=78, time=0),\n",
      "  Message('note_on', channel=3, note=45, velocity=0, time=89),\n",
      "  Message('note_on', channel=3, note=33, velocity=0, time=0),\n",
      "  Message('note_on', channel=3, note=50, velocity=78, time=7),\n",
      "  Message('note_on', channel=3, note=38, velocity=78, time=0),\n",
      "  Message('note_on', channel=3, note=50, velocity=0, time=89),\n",
      "  Message('note_on', channel=3, note=38, velocity=0, time=0),\n",
      "  Message('note_on', channel=3, note=50, velocity=87, time=295),\n",
      "  Message('note_on', channel=3, note=50, velocity=0, time=23),\n",
      "  Message('note_on', channel=3, note=62, velocity=87, time=1),\n",
      "  Message('note_on', channel=3, note=62, velocity=0, time=23),\n",
      "  Message('note_on', channel=3, note=54, velocity=87, time=1),\n",
      "  Message('note_on', channel=3, note=54, velocity=0, time=23),\n",
      "  Message('note_on', channel=3, note=62, velocity=87, time=1),\n",
      "  Message('note_on', channel=3, note=62, velocity=0, time=23),\n",
      "  Message('note_on', channel=3, note=57, velocity=87, time=1),\n",
      "  Message('note_on', channel=3, note=57, velocity=0, time=23),\n",
      "  Message('note_on', channel=3, note=62, velocity=87, time=1),\n",
      "  Message('note_on', channel=3, note=62, velocity=0, time=23),\n",
      "  Message('note_on', channel=3, note=54, velocity=87, time=1),\n",
      "  Message('note_on', channel=3, note=54, velocity=0, time=23),\n",
      "  Message('note_on', channel=3, note=62, velocity=87, time=1),\n",
      "  Message('note_on', channel=3, note=62, velocity=0, time=23),\n",
      "  Message('note_on', channel=3, note=50, velocity=87, time=1),\n",
      "  Message('note_on', channel=3, note=50, velocity=0, time=23),\n",
      "  Message('note_on', channel=3, note=62, velocity=87, time=1),\n",
      "  Message('note_on', channel=3, note=62, velocity=0, time=23),\n",
      "  Message('note_on', channel=3, note=54, velocity=87, time=1),\n",
      "  Message('note_on', channel=3, note=54, velocity=0, time=23),\n",
      "  Message('note_on', channel=3, note=62, velocity=87, time=1),\n",
      "  Message('note_on', channel=3, note=62, velocity=0, time=23),\n",
      "  Message('note_on', channel=3, note=57, velocity=87, time=1),\n",
      "  Message('note_on', channel=3, note=57, velocity=0, time=23),\n",
      "  Message('note_on', channel=3, note=62, velocity=87, time=1),\n",
      "  Message('note_on', channel=3, note=62, velocity=0, time=23),\n",
      "  Message('note_on', channel=3, note=54, velocity=87, time=1),\n",
      "  Message('note_on', channel=3, note=54, velocity=0, time=23),\n",
      "  Message('note_on', channel=3, note=62, velocity=87, time=1),\n",
      "  Message('note_on', channel=3, note=62, velocity=0, time=23),\n",
      "  Message('note_on', channel=3, note=47, velocity=87, time=1),\n",
      "  Message('note_on', channel=3, note=47, velocity=0, time=20),\n",
      "  Message('note_on', channel=3, note=47, velocity=87, time=28),\n",
      "  Message('note_on', channel=3, note=47, velocity=0, time=20),\n",
      "  Message('note_on', channel=3, note=42, velocity=87, time=28),\n",
      "  Message('note_on', channel=3, note=42, velocity=0, time=20),\n",
      "  Message('note_on', channel=3, note=38, velocity=87, time=28),\n",
      "  Message('note_on', channel=3, note=38, velocity=0, time=20),\n",
      "  Message('note_on', channel=3, note=35, velocity=87, time=28),\n",
      "  Message('note_on', channel=3, note=35, velocity=0, time=20),\n",
      "  Message('note_on', channel=3, note=38, velocity=87, time=28),\n",
      "  Message('note_on', channel=3, note=38, velocity=0, time=20),\n",
      "  Message('note_on', channel=3, note=42, velocity=87, time=28),\n",
      "  Message('note_on', channel=3, note=42, velocity=0, time=20),\n",
      "  Message('note_on', channel=3, note=47, velocity=87, time=28),\n",
      "  Message('note_on', channel=3, note=47, velocity=0, time=20),\n",
      "  Message('note_on', channel=3, note=47, velocity=87, time=28),\n",
      "  Message('note_on', channel=3, note=47, velocity=0, time=23),\n",
      "  Message('note_on', channel=3, note=59, velocity=87, time=1),\n",
      "  Message('note_on', channel=3, note=59, velocity=0, time=23),\n",
      "  Message('note_on', channel=3, note=50, velocity=87, time=1),\n",
      "  Message('note_on', channel=3, note=50, velocity=0, time=23),\n",
      "  Message('note_on', channel=3, note=59, velocity=87, time=1),\n",
      "  Message('note_on', channel=3, note=59, velocity=0, time=23),\n",
      "  Message('note_on', channel=3, note=54, velocity=87, time=1),\n",
      "  Message('note_on', channel=3, note=54, velocity=0, time=23),\n",
      "  Message('note_on', channel=3, note=59, velocity=87, time=1),\n",
      "  Message('note_on', channel=3, note=59, velocity=0, time=23),\n",
      "  Message('note_on', channel=3, note=50, velocity=87, time=1),\n",
      "  Message('note_on', channel=3, note=50, velocity=0, time=23),\n",
      "  Message('note_on', channel=3, note=59, velocity=87, time=1),\n",
      "  Message('note_on', channel=3, note=59, velocity=0, time=23),\n",
      "  Message('note_on', channel=3, note=47, velocity=87, time=1),\n",
      "  Message('note_on', channel=3, note=47, velocity=0, time=23),\n",
      "  Message('note_on', channel=3, note=59, velocity=87, time=1),\n",
      "  Message('note_on', channel=3, note=59, velocity=0, time=23),\n",
      "  Message('note_on', channel=3, note=50, velocity=87, time=1),\n",
      "  Message('note_on', channel=3, note=50, velocity=0, time=23),\n",
      "  Message('note_on', channel=3, note=59, velocity=87, time=1),\n",
      "  Message('note_on', channel=3, note=59, velocity=0, time=23),\n",
      "  Message('note_on', channel=3, note=54, velocity=87, time=1),\n",
      "  Message('note_on', channel=3, note=54, velocity=0, time=23),\n",
      "  Message('note_on', channel=3, note=59, velocity=87, time=1),\n",
      "  Message('note_on', channel=3, note=59, velocity=0, time=23),\n",
      "  Message('note_on', channel=3, note=50, velocity=87, time=1),\n",
      "  Message('note_on', channel=3, note=50, velocity=0, time=23),\n",
      "  Message('note_on', channel=3, note=59, velocity=87, time=1),\n",
      "  Message('note_on', channel=3, note=59, velocity=0, time=23),\n",
      "  Message('note_on', channel=3, note=43, velocity=87, time=1),\n",
      "  Message('note_on', channel=3, note=43, velocity=0, time=20),\n",
      "  Message('note_on', channel=3, note=43, velocity=87, time=28),\n",
      "  Message('note_on', channel=3, note=43, velocity=0, time=20),\n",
      "  Message('note_on', channel=3, note=38, velocity=87, time=28),\n",
      "  Message('note_on', channel=3, note=38, velocity=0, time=20),\n",
      "  Message('note_on', channel=3, note=35, velocity=87, time=28),\n",
      "  Message('note_on', channel=3, note=35, velocity=0, time=20),\n",
      "  Message('note_on', channel=3, note=31, velocity=87, time=28),\n",
      "  Message('note_on', channel=3, note=31, velocity=0, time=20),\n",
      "  Message('note_on', channel=3, note=35, velocity=87, time=28),\n",
      "  Message('note_on', channel=3, note=35, velocity=0, time=20),\n",
      "  Message('note_on', channel=3, note=38, velocity=87, time=28),\n",
      "  Message('note_on', channel=3, note=38, velocity=0, time=20),\n",
      "  Message('note_on', channel=3, note=43, velocity=87, time=28),\n",
      "  Message('note_on', channel=3, note=43, velocity=0, time=20),\n",
      "  Message('note_on', channel=3, note=43, velocity=87, time=28),\n",
      "  Message('note_on', channel=3, note=43, velocity=0, time=23),\n",
      "  Message('note_on', channel=3, note=55, velocity=87, time=1),\n",
      "  Message('note_on', channel=3, note=55, velocity=0, time=23),\n",
      "  Message('note_on', channel=3, note=47, velocity=87, time=1),\n",
      "  Message('note_on', channel=3, note=47, velocity=0, time=23),\n",
      "  Message('note_on', channel=3, note=55, velocity=87, time=1),\n",
      "  Message('note_on', channel=3, note=55, velocity=0, time=23),\n",
      "  Message('note_on', channel=3, note=50, velocity=87, time=1),\n",
      "  Message('note_on', channel=3, note=50, velocity=0, time=23),\n",
      "  Message('note_on', channel=3, note=55, velocity=87, time=1),\n",
      "  Message('note_on', channel=3, note=55, velocity=0, time=23),\n",
      "  Message('note_on', channel=3, note=47, velocity=87, time=1),\n",
      "  Message('note_on', channel=3, note=47, velocity=0, time=23),\n",
      "  Message('note_on', channel=3, note=55, velocity=87, time=1),\n",
      "  Message('note_on', channel=3, note=55, velocity=0, time=23),\n",
      "  Message('note_on', channel=3, note=43, velocity=87, time=1),\n",
      "  Message('note_on', channel=3, note=43, velocity=0, time=23),\n",
      "  Message('note_on', channel=3, note=55, velocity=87, time=1),\n",
      "  Message('note_on', channel=3, note=55, velocity=0, time=23),\n",
      "  Message('note_on', channel=3, note=47, velocity=87, time=1),\n",
      "  Message('note_on', channel=3, note=47, velocity=0, time=23),\n",
      "  Message('note_on', channel=3, note=55, velocity=87, time=1),\n",
      "  Message('note_on', channel=3, note=55, velocity=0, time=23),\n",
      "  Message('note_on', channel=3, note=50, velocity=87, time=1),\n",
      "  Message('note_on', channel=3, note=50, velocity=0, time=23),\n",
      "  Message('note_on', channel=3, note=55, velocity=87, time=1),\n",
      "  Message('note_on', channel=3, note=55, velocity=0, time=23),\n",
      "  Message('note_on', channel=3, note=47, velocity=87, time=1),\n",
      "  Message('note_on', channel=3, note=47, velocity=0, time=23),\n",
      "  Message('note_on', channel=3, note=55, velocity=87, time=1),\n",
      "  Message('note_on', channel=3, note=55, velocity=0, time=23),\n",
      "  Message('note_on', channel=3, note=52, velocity=87, time=1),\n",
      "  Message('note_on', channel=3, note=44, velocity=87, time=0),\n",
      "  Message('note_on', channel=3, note=52, velocity=0, time=177),\n",
      "  Message('note_on', channel=3, note=44, velocity=0, time=0),\n",
      "  Message('note_on', channel=3, note=40, velocity=87, time=15),\n",
      "  Message('note_on', channel=3, note=40, velocity=0, time=177),\n",
      "  Message('note_on', channel=3, note=45, velocity=87, time=15),\n",
      "  Message('note_on', channel=3, note=33, velocity=87, time=0),\n",
      "  Message('note_on', channel=3, note=45, velocity=0, time=177),\n",
      "  Message('note_on', channel=3, note=33, velocity=0, time=0),\n",
      "  Message('note_on', channel=3, note=54, velocity=87, time=15),\n",
      "  Message('note_on', channel=3, note=42, velocity=87, time=0),\n",
      "  Message('note_on', channel=3, note=54, velocity=0, time=177),\n",
      "  Message('note_on', channel=3, note=42, velocity=0, time=0),\n",
      "  Message('note_on', channel=3, note=52, velocity=87, time=15),\n",
      "  Message('note_on', channel=3, note=40, velocity=87, time=0),\n",
      "  Message('note_on', channel=3, note=52, velocity=0, time=177),\n",
      "  Message('note_on', channel=3, note=40, velocity=0, time=0),\n",
      "  Message('note_on', channel=3, note=56, velocity=87, time=63),\n",
      "  Message('note_on', channel=3, note=56, velocity=0, time=45),\n",
      "  Message('note_on', channel=3, note=59, velocity=87, time=3),\n",
      "  Message('note_on', channel=3, note=59, velocity=0, time=45),\n",
      "  Message('note_on', channel=3, note=56, velocity=87, time=3),\n",
      "  Message('note_on', channel=3, note=56, velocity=0, time=45),\n",
      "  Message('note_on', channel=3, note=57, velocity=87, time=51),\n",
      "  Message('note_on', channel=3, note=57, velocity=0, time=45),\n",
      "  Message('note_on', channel=3, note=61, velocity=87, time=3),\n",
      "  Message('note_on', channel=3, note=61, velocity=0, time=45),\n",
      "  Message('note_on', channel=3, note=58, velocity=87, time=3),\n",
      "  Message('note_on', channel=3, note=58, velocity=0, time=45),\n",
      "  Message('note_on', channel=3, note=59, velocity=87, time=51),\n",
      "  Message('note_on', channel=3, note=59, velocity=0, time=23),\n",
      "  Message('note_on', channel=3, note=61, velocity=87, time=1),\n",
      "  Message('note_on', channel=3, note=61, velocity=0, time=23),\n",
      "  Message('note_on', channel=3, note=62, velocity=87, time=1),\n",
      "  Message('note_on', channel=3, note=62, velocity=0, time=45),\n",
      "  Message('note_on', channel=3, note=59, velocity=87, time=3),\n",
      "  Message('note_on', channel=3, note=59, velocity=0, time=45),\n",
      "  Message('note_on', channel=3, note=56, velocity=87, time=51),\n",
      "  Message('note_on', channel=3, note=56, velocity=0, time=45),\n",
      "  Message('note_on', channel=3, note=59, velocity=87, time=3),\n",
      "  Message('note_on', channel=3, note=59, velocity=0, time=45),\n",
      "  Message('note_on', channel=3, note=56, velocity=87, time=3),\n",
      "  Message('note_on', channel=3, note=56, velocity=0, time=45),\n",
      "  Message('note_on', channel=3, note=57, velocity=87, time=51),\n",
      "  Message('note_on', channel=3, note=57, velocity=0, time=23),\n",
      "  Message('note_on', channel=3, note=59, velocity=87, time=1),\n",
      "  Message('note_on', channel=3, note=59, velocity=0, time=23),\n",
      "  Message('note_on', channel=3, note=61, velocity=87, time=1),\n",
      "  Message('note_on', channel=3, note=61, velocity=0, time=45),\n",
      "  Message('note_on', channel=3, note=57, velocity=87, time=3),\n",
      "  Message('note_on', channel=3, note=57, velocity=0, time=45),\n",
      "  Message('note_on', channel=3, note=54, velocity=87, time=51),\n",
      "  Message('note_on', channel=3, note=54, velocity=0, time=45),\n",
      "  Message('note_on', channel=3, note=57, velocity=87, time=3),\n",
      "  Message('note_on', channel=3, note=57, velocity=0, time=45),\n",
      "  Message('note_on', channel=3, note=54, velocity=87, time=3),\n",
      "  Message('note_on', channel=3, note=54, velocity=0, time=45),\n",
      "  Message('note_on', channel=3, note=56, velocity=87, time=51),\n",
      "  Message('note_on', channel=3, note=56, velocity=0, time=23),\n",
      "  Message('note_on', channel=3, note=57, velocity=87, time=1),\n",
      "  Message('note_on', channel=3, note=57, velocity=0, time=23),\n",
      "  Message('note_on', channel=3, note=59, velocity=87, time=1),\n",
      "  Message('note_on', channel=3, note=59, velocity=0, time=45),\n",
      "  Message('note_on', channel=3, note=56, velocity=87, time=3),\n",
      "  Message('note_on', channel=3, note=56, velocity=0, time=45),\n",
      "  Message('note_on', channel=3, note=57, velocity=87, time=51),\n",
      "  Message('note_on', channel=3, note=57, velocity=0, time=23),\n",
      "  Message('note_on', channel=3, note=59, velocity=87, time=1),\n",
      "  Message('note_on', channel=3, note=59, velocity=0, time=23),\n",
      "  Message('note_on', channel=3, note=61, velocity=87, time=1),\n",
      "  Message('note_on', channel=3, note=61, velocity=0, time=45),\n",
      "  Message('note_on', channel=3, note=57, velocity=87, time=3),\n",
      "  Message('note_on', channel=3, note=57, velocity=0, time=45),\n",
      "  Message('note_on', channel=3, note=66, velocity=87, time=51),\n",
      "  Message('note_on', channel=3, note=66, velocity=0, time=23),\n",
      "  Message('note_on', channel=3, note=68, velocity=87, time=1),\n",
      "  Message('note_on', channel=3, note=68, velocity=0, time=23),\n",
      "  Message('note_on', channel=3, note=69, velocity=87, time=1),\n",
      "  Message('note_on', channel=3, note=69, velocity=0, time=45),\n",
      "  Message('note_on', channel=3, note=66, velocity=87, time=3),\n",
      "  Message('note_on', channel=3, note=66, velocity=0, time=45),\n",
      "  Message('note_on', channel=3, note=52, velocity=87, time=3),\n",
      "  Message('note_on', channel=3, note=52, velocity=0, time=20),\n",
      "  Message('note_on', channel=3, note=64, velocity=87, time=28),\n",
      "  Message('note_on', channel=3, note=64, velocity=0, time=20),\n",
      "  Message('note_on', channel=3, note=50, velocity=87, time=28),\n",
      "  Message('note_on', channel=3, note=50, velocity=0, time=20),\n",
      "  Message('note_on', channel=3, note=62, velocity=87, time=28),\n",
      "  Message('note_on', channel=3, note=62, velocity=0, time=20),\n",
      "  Message('note_on', channel=3, note=49, velocity=87, time=28),\n",
      "  Message('note_on', channel=3, note=49, velocity=0, time=20),\n",
      "  Message('note_on', channel=3, note=61, velocity=87, time=28),\n",
      "  Message('note_on', channel=3, note=61, velocity=0, time=20),\n",
      "  Message('note_on', channel=3, note=47, velocity=87, time=28),\n",
      "  Message('note_on', channel=3, note=47, velocity=0, time=20),\n",
      "  Message('note_on', channel=3, note=59, velocity=87, time=28),\n",
      "  Message('note_on', channel=3, note=59, velocity=0, time=20),\n",
      "  Message('note_on', channel=3, note=57, velocity=87, time=28),\n",
      "  Message('note_on', channel=3, note=57, velocity=0, time=89),\n",
      "  Message('note_on', channel=3, note=57, velocity=87, time=7),\n",
      "  Message('note_on', channel=3, note=57, velocity=0, time=177),\n",
      "  Message('note_on', channel=3, note=57, velocity=87, time=15),\n",
      "  Message('note_on', channel=3, note=57, velocity=0, time=89),\n",
      "  Message('note_on', channel=3, note=57, velocity=87, time=7),\n",
      "  Message('note_on', channel=3, note=52, velocity=87, time=0),\n",
      "  Message('note_on', channel=3, note=57, velocity=0, time=20),\n",
      "  Message('note_on', channel=3, note=52, velocity=0, time=0),\n",
      "  Message('note_on', channel=3, note=57, velocity=87, time=28),\n",
      "  Message('note_on', channel=3, note=52, velocity=87, time=0),\n",
      "  Message('note_on', channel=3, note=57, velocity=0, time=20),\n",
      "  Message('note_on', channel=3, note=52, velocity=0, time=0),\n",
      "  Message('note_on', channel=3, note=61, velocity=87, time=28),\n",
      "  Message('note_on', channel=3, note=52, velocity=87, time=0),\n",
      "  Message('note_on', channel=3, note=61, velocity=0, time=20),\n",
      "  Message('note_on', channel=3, note=52, velocity=0, time=0),\n",
      "  Message('note_on', channel=3, note=61, velocity=87, time=28),\n",
      "  Message('note_on', channel=3, note=52, velocity=87, time=0),\n",
      "  Message('note_on', channel=3, note=61, velocity=0, time=20),\n",
      "  Message('note_on', channel=3, note=52, velocity=0, time=0),\n",
      "  Message('note_on', channel=3, note=62, velocity=87, time=28),\n",
      "  Message('note_on', channel=3, note=52, velocity=87, time=0),\n",
      "  Message('note_on', channel=3, note=62, velocity=0, time=20),\n",
      "  Message('note_on', channel=3, note=52, velocity=0, time=0),\n",
      "  Message('note_on', channel=3, note=62, velocity=87, time=28),\n",
      "  Message('note_on', channel=3, note=52, velocity=87, time=0),\n",
      "  Message('note_on', channel=3, note=62, velocity=0, time=20),\n",
      "  Message('note_on', channel=3, note=52, velocity=0, time=0),\n",
      "  Message('note_on', channel=3, note=62, velocity=87, time=28),\n",
      "  Message('note_on', channel=3, note=52, velocity=87, time=0),\n",
      "  Message('note_on', channel=3, note=62, velocity=0, time=20),\n",
      "  Message('note_on', channel=3, note=52, velocity=0, time=0),\n",
      "  Message('note_on', channel=3, note=62, velocity=87, time=28),\n",
      "  Message('note_on', channel=3, note=52, velocity=87, time=0),\n",
      "  Message('note_on', channel=3, note=62, velocity=0, time=20),\n",
      "  Message('note_on', channel=3, note=52, velocity=0, time=0),\n",
      "  Message('note_on', channel=3, note=57, velocity=87, time=28),\n",
      "  Message('note_on', channel=3, note=57, velocity=0, time=20),\n",
      "  Message('note_on', channel=3, note=52, velocity=87, time=28),\n",
      "  Message('note_on', channel=3, note=52, velocity=0, time=20),\n",
      "  Message('note_on', channel=3, note=49, velocity=87, time=28),\n",
      "  Message('note_on', channel=3, note=49, velocity=0, time=20),\n",
      "  Message('note_on', channel=3, note=52, velocity=87, time=28),\n",
      "  Message('note_on', channel=3, note=52, velocity=0, time=20),\n",
      "  Message('note_on', channel=3, note=45, velocity=87, time=28),\n",
      "  Message('note_on', channel=3, note=45, velocity=0, time=89),\n",
      "  Message('note_on', channel=3, note=62, velocity=73, time=391),\n",
      "  Message('note_on', channel=3, note=56, velocity=73, time=0),\n",
      "  Message('note_on', channel=3, note=62, velocity=0, time=39),\n",
      "  Message('note_on', channel=3, note=56, velocity=0, time=0),\n",
      "  Message('note_on', channel=3, note=62, velocity=73, time=57),\n",
      "  Message('note_on', channel=3, note=62, velocity=0, time=89),\n",
      "  Message('note_on', channel=3, note=61, velocity=73, time=7),\n",
      "  Message('note_on', channel=3, note=61, velocity=0, time=89),\n",
      "  Message('note_on', channel=3, note=59, velocity=73, time=7),\n",
      "  Message('note_on', channel=3, note=59, velocity=0, time=89),\n",
      "  Message('note_on', channel=3, note=64, velocity=73, time=391),\n",
      "  Message('note_on', channel=3, note=56, velocity=73, time=0),\n",
      "  Message('note_on', channel=3, note=64, velocity=0, time=89),\n",
      "  Message('note_on', channel=3, note=56, velocity=0, time=0),\n",
      "  Message('note_on', channel=3, note=64, velocity=73, time=7),\n",
      "  Message('note_on', channel=3, note=64, velocity=0, time=177),\n",
      "  Message('note_on', channel=3, note=64, velocity=73, time=15),\n",
      "  Message('note_on', channel=3, note=64, velocity=0, time=89),\n",
      "  Message('note_on', channel=3, note=62, velocity=73, time=391),\n",
      "  Message('note_on', channel=3, note=56, velocity=73, time=0),\n",
      "  Message('note_on', channel=3, note=62, velocity=0, time=39),\n",
      "  Message('note_on', channel=3, note=56, velocity=0, time=0),\n",
      "  Message('note_on', channel=3, note=62, velocity=73, time=57),\n",
      "  Message('note_on', channel=3, note=62, velocity=0, time=89),\n",
      "  Message('note_on', channel=3, note=61, velocity=73, time=7),\n",
      "  Message('note_on', channel=3, note=61, velocity=0, time=89),\n",
      "  Message('note_on', channel=3, note=59, velocity=73, time=7),\n",
      "  Message('note_on', channel=3, note=59, velocity=0, time=89),\n",
      "  Message('note_on', channel=3, note=57, velocity=73, time=103),\n",
      "  Message('note_on', channel=3, note=49, velocity=73, time=0),\n",
      "  Message('note_on', channel=3, note=57, velocity=0, time=89),\n",
      "  Message('note_on', channel=3, note=49, velocity=0, time=0),\n",
      "  Message('note_on', channel=3, note=59, velocity=77, time=7),\n",
      "  Message('note_on', channel=3, note=50, velocity=77, time=0),\n",
      "  Message('note_on', channel=3, note=59, velocity=0, time=89),\n",
      "  Message('note_on', channel=3, note=50, velocity=0, time=0),\n",
      "  Message('note_on', channel=3, note=61, velocity=82, time=7),\n",
      "  Message('note_on', channel=3, note=52, velocity=82, time=0),\n",
      "  Message('note_on', channel=3, note=61, velocity=0, time=89),\n",
      "  Message('note_on', channel=3, note=52, velocity=0, time=0),\n",
      "  Message('note_on', channel=3, note=62, velocity=79, time=7),\n",
      "  Message('note_on', channel=3, note=52, velocity=79, time=0),\n",
      "  Message('note_on', channel=3, note=62, velocity=0, time=89),\n",
      "  Message('note_on', channel=3, note=52, velocity=0, time=0),\n",
      "  Message('note_on', channel=3, note=61, velocity=76, time=7),\n",
      "  Message('note_on', channel=3, note=57, velocity=76, time=0),\n",
      "  Message('note_on', channel=3, note=61, velocity=0, time=89),\n",
      "  Message('note_on', channel=3, note=57, velocity=0, time=0),\n",
      "  Message('note_on', channel=3, note=45, velocity=73, time=679),\n",
      "  Message('note_on', channel=3, note=45, velocity=0, time=45),\n",
      "  Message('note_on', channel=3, note=44, velocity=73, time=3),\n",
      "  Message('note_on', channel=3, note=44, velocity=0, time=45),\n",
      "  Message('note_on', channel=3, note=42, velocity=73, time=3),\n",
      "  Message('note_on', channel=3, note=42, velocity=0, time=45),\n",
      "  Message('note_on', channel=3, note=40, velocity=73, time=3),\n",
      "  Message('note_on', channel=3, note=40, velocity=0, time=45),\n",
      "  Message('note_on', channel=3, note=45, velocity=73, time=3),\n",
      "  Message('note_on', channel=3, note=45, velocity=0, time=39),\n",
      "  Message('note_on', channel=3, note=47, velocity=74, time=57),\n",
      "  Message('note_on', channel=3, note=47, velocity=0, time=39),\n",
      "  Message('note_on', channel=3, note=49, velocity=91, time=57),\n",
      "  Message('note_on', channel=3, note=49, velocity=0, time=237),\n",
      "  Message('note_on', channel=3, note=52, velocity=76, time=3),\n",
      "  Message('note_on', channel=3, note=52, velocity=0, time=45),\n",
      "  Message('note_on', channel=3, note=50, velocity=75, time=3),\n",
      "  Message('note_on', channel=3, note=50, velocity=0, time=45),\n",
      "  Message('note_on', channel=3, note=47, velocity=74, time=3),\n",
      "  Message('note_on', channel=3, note=47, velocity=0, time=45),\n",
      "  Message('note_on', channel=3, note=45, velocity=73, time=3),\n",
      "  Message('note_on', channel=3, note=45, velocity=0, time=45),\n",
      "  Message('note_on', channel=3, note=44, velocity=73, time=3),\n",
      "  Message('note_on', channel=3, note=44, velocity=0, time=45),\n",
      "  Message('note_on', channel=3, note=42, velocity=73, time=3),\n",
      "  Message('note_on', channel=3, note=42, velocity=0, time=45),\n",
      "  Message('note_on', channel=3, note=40, velocity=73, time=3),\n",
      "  Message('note_on', channel=3, note=40, velocity=0, time=45),\n",
      "  Message('note_on', channel=3, note=45, velocity=73, time=3),\n",
      "  Message('note_on', channel=3, note=45, velocity=0, time=39),\n",
      "  Message('note_on', channel=3, note=47, velocity=74, time=57),\n",
      "  Message('note_on', channel=3, note=47, velocity=0, time=39),\n",
      "  Message('note_on', channel=3, note=50, velocity=91, time=57),\n",
      "  Message('note_on', channel=3, note=50, velocity=0, time=192),\n",
      "  Message('note_on', channel=3, note=49, velocity=78, time=0),\n",
      "  Message('note_on', channel=3, note=49, velocity=0, time=67),\n",
      "  Message('note_on', channel=3, note=50, velocity=76, time=5),\n",
      "  Message('note_on', channel=3, note=50, velocity=0, time=23),\n",
      "  Message('note_on', channel=3, note=47, velocity=75, time=1),\n",
      "  Message('note_on', channel=3, note=47, velocity=0, time=67),\n",
      "  Message('note_on', channel=3, note=49, velocity=73, time=5),\n",
      "  Message('note_on', channel=3, note=49, velocity=0, time=23),\n",
      "  Message('note_on', channel=3, note=45, velocity=73, time=1),\n",
      "  Message('note_on', channel=3, note=45, velocity=0, time=45),\n",
      "  Message('note_on', channel=3, note=44, velocity=73, time=3),\n",
      "  Message('note_on', channel=3, note=44, velocity=0, time=45),\n",
      "  Message('note_on', channel=3, note=42, velocity=73, time=3),\n",
      "  Message('note_on', channel=3, note=42, velocity=0, time=12),\n",
      "  Message('note_on', channel=3, note=43, velocity=73, time=0),\n",
      "  Message('note_on', channel=3, note=43, velocity=0, time=12),\n",
      "  Message('note_on', channel=3, note=42, velocity=73, time=0),\n",
      "  Message('note_on', channel=3, note=42, velocity=0, time=21),\n",
      "  Message('note_on', channel=3, note=40, velocity=73, time=3),\n",
      "  Message('note_on', channel=3, note=40, velocity=0, time=45),\n",
      "  Message('note_on', channel=3, note=45, velocity=73, time=3),\n",
      "  Message('note_on', channel=3, note=45, velocity=0, time=39),\n",
      "  Message('note_on', channel=3, note=44, velocity=73, time=57),\n",
      "  Message('note_on', channel=3, note=41, velocity=73, time=0),\n",
      "  Message('note_on', channel=3, note=44, velocity=0, time=39),\n",
      "  Message('note_on', channel=3, note=41, velocity=0, time=0),\n",
      "  Message('note_on', channel=3, note=45, velocity=73, time=57),\n",
      "  Message('note_on', channel=3, note=42, velocity=73, time=0),\n",
      "  Message('note_on', channel=3, note=45, velocity=0, time=89),\n",
      "  Message('note_on', channel=3, note=42, velocity=0, time=0),\n",
      "  Message('note_on', channel=3, note=33, velocity=73, time=295),\n",
      "  Message('note_on', channel=3, note=33, velocity=0, time=45),\n",
      "  Message('note_on', channel=3, note=45, velocity=73, time=3),\n",
      "  Message('note_on', channel=3, note=45, velocity=0, time=45),\n",
      "  Message('note_on', channel=3, note=45, velocity=73, time=3),\n",
      "  Message('note_on', channel=3, note=45, velocity=0, time=45),\n",
      "  Message('note_on', channel=3, note=45, velocity=73, time=3),\n",
      "  Message('note_on', channel=3, note=45, velocity=0, time=45),\n",
      "  Message('note_on', channel=3, note=45, velocity=73, time=3),\n",
      "  Message('note_on', channel=3, note=45, velocity=0, time=45),\n",
      "  Message('note_on', channel=3, note=45, velocity=74, time=3),\n",
      "  Message('note_on', channel=3, note=45, velocity=0, time=45),\n",
      "  Message('note_on', channel=3, note=45, velocity=74, time=3),\n",
      "  Message('note_on', channel=3, note=45, velocity=0, time=45),\n",
      "  Message('note_on', channel=3, note=45, velocity=74, time=3),\n",
      "  Message('note_on', channel=3, note=45, velocity=0, time=45),\n",
      "  Message('note_on', channel=3, note=45, velocity=75, time=3),\n",
      "  Message('note_on', channel=3, note=45, velocity=0, time=89),\n",
      "  Message('note_on', channel=3, note=33, velocity=77, time=295),\n",
      "  Message('note_on', channel=3, note=33, velocity=0, time=45),\n",
      "  Message('note_on', channel=3, note=45, velocity=77, time=3),\n",
      "  Message('note_on', channel=3, note=45, velocity=0, time=45),\n",
      "  Message('note_on', channel=3, note=45, velocity=78, time=3),\n",
      "  Message('note_on', channel=3, note=45, velocity=0, time=45),\n",
      "  Message('note_on', channel=3, note=45, velocity=78, time=3),\n",
      "  Message('note_on', channel=3, note=45, velocity=0, time=45),\n",
      "  Message('note_on', channel=3, note=45, velocity=78, time=3),\n",
      "  Message('note_on', channel=3, note=45, velocity=0, time=45),\n",
      "  Message('note_on', channel=3, note=45, velocity=78, time=3),\n",
      "  Message('note_on', channel=3, note=45, velocity=0, time=45),\n",
      "  Message('note_on', channel=3, note=45, velocity=79, time=3),\n",
      "  Message('note_on', channel=3, note=45, velocity=0, time=45),\n",
      "  Message('note_on', channel=3, note=45, velocity=79, time=3),\n",
      "  Message('note_on', channel=3, note=45, velocity=0, time=45),\n",
      "  Message('note_on', channel=3, note=45, velocity=79, time=3),\n",
      "  Message('note_on', channel=3, note=45, velocity=0, time=89),\n",
      "  Message('note_on', channel=3, note=33, velocity=82, time=295),\n",
      "  Message('note_on', channel=3, note=33, velocity=0, time=45),\n",
      "  Message('note_on', channel=3, note=45, velocity=82, time=3),\n",
      "  Message('note_on', channel=3, note=45, velocity=0, time=45),\n",
      "  Message('note_on', channel=3, note=45, velocity=82, time=3),\n",
      "  Message('note_on', channel=3, note=45, velocity=0, time=45),\n",
      "  Message('note_on', channel=3, note=45, velocity=83, time=3),\n",
      "  Message('note_on', channel=3, note=45, velocity=0, time=45),\n",
      "  Message('note_on', channel=3, note=45, velocity=83, time=3),\n",
      "  Message('note_on', channel=3, note=45, velocity=0, time=45),\n",
      "  Message('note_on', channel=3, note=45, velocity=83, time=3),\n",
      "  Message('note_on', channel=3, note=45, velocity=0, time=45),\n",
      "  Message('note_on', channel=3, note=45, velocity=84, time=3),\n",
      "  Message('note_on', channel=3, note=45, velocity=0, time=45),\n",
      "  Message('note_on', channel=3, note=45, velocity=84, time=3),\n",
      "  Message('note_on', channel=3, note=45, velocity=0, time=45),\n",
      "  Message('note_on', channel=3, note=33, velocity=84, time=3),\n",
      "  Message('note_on', channel=3, note=33, velocity=0, time=45),\n",
      "  Message('note_on', channel=3, note=45, velocity=84, time=3),\n",
      "  Message('note_on', channel=3, note=45, velocity=0, time=45),\n",
      "  Message('note_on', channel=3, note=45, velocity=85, time=3),\n",
      "  Message('note_on', channel=3, note=45, velocity=0, time=45),\n",
      "  Message('note_on', channel=3, note=45, velocity=85, time=3),\n",
      "  Message('note_on', channel=3, note=45, velocity=0, time=45),\n",
      "  Message('note_on', channel=3, note=45, velocity=85, time=3),\n",
      "  Message('note_on', channel=3, note=45, velocity=0, time=45),\n",
      "  Message('note_on', channel=3, note=45, velocity=86, time=3),\n",
      "  Message('note_on', channel=3, note=45, velocity=0, time=45),\n",
      "  Message('note_on', channel=3, note=45, velocity=86, time=3),\n",
      "  Message('note_on', channel=3, note=45, velocity=0, time=45),\n",
      "  Message('note_on', channel=3, note=45, velocity=86, time=3),\n",
      "  Message('note_on', channel=3, note=45, velocity=0, time=45),\n",
      "  Message('note_on', channel=3, note=45, velocity=87, time=3),\n",
      "  Message('note_on', channel=3, note=33, velocity=87, time=0),\n",
      "  Message('note_on', channel=3, note=45, velocity=0, time=45),\n",
      "  Message('note_on', channel=3, note=33, velocity=0, time=0),\n",
      "  Message('note_on', channel=3, note=45, velocity=87, time=3),\n",
      "  Message('note_on', channel=3, note=33, velocity=87, time=0),\n",
      "  Message('note_on', channel=3, note=45, velocity=0, time=45),\n",
      "  Message('note_on', channel=3, note=33, velocity=0, time=0),\n",
      "  Message('note_on', channel=3, note=45, velocity=87, time=3),\n",
      "  Message('note_on', channel=3, note=33, velocity=87, time=0),\n",
      "  Message('note_on', channel=3, note=45, velocity=0, time=45),\n",
      "  Message('note_on', channel=3, note=33, velocity=0, time=0),\n",
      "  Message('note_on', channel=3, note=45, velocity=87, time=3),\n",
      "  Message('note_on', channel=3, note=33, velocity=87, time=0),\n",
      "  Message('note_on', channel=3, note=45, velocity=0, time=45),\n",
      "  Message('note_on', channel=3, note=33, velocity=0, time=0),\n",
      "  Message('note_on', channel=3, note=45, velocity=87, time=3),\n",
      "  Message('note_on', channel=3, note=33, velocity=87, time=0),\n",
      "  Message('note_on', channel=3, note=45, velocity=0, time=45),\n",
      "  Message('note_on', channel=3, note=33, velocity=0, time=0),\n",
      "  Message('note_on', channel=3, note=45, velocity=87, time=3),\n",
      "  Message('note_on', channel=3, note=33, velocity=87, time=0),\n",
      "  Message('note_on', channel=3, note=45, velocity=0, time=45),\n",
      "  Message('note_on', channel=3, note=33, velocity=0, time=0),\n",
      "  Message('note_on', channel=3, note=45, velocity=87, time=3),\n",
      "  Message('note_on', channel=3, note=33, velocity=87, time=0),\n",
      "  Message('note_on', channel=3, note=45, velocity=0, time=45),\n",
      "  Message('note_on', channel=3, note=33, velocity=0, time=0),\n",
      "  Message('note_on', channel=3, note=45, velocity=87, time=3),\n",
      "  Message('note_on', channel=3, note=33, velocity=87, time=0),\n",
      "  Message('note_on', channel=3, note=45, velocity=0, time=45),\n",
      "  Message('note_on', channel=3, note=33, velocity=0, time=0),\n",
      "  Message('note_on', channel=3, note=45, velocity=87, time=3),\n",
      "  Message('note_on', channel=3, note=45, velocity=0, time=23),\n",
      "  Message('note_on', channel=3, note=44, velocity=87, time=1),\n",
      "  Message('note_on', channel=3, note=44, velocity=0, time=23),\n",
      "  Message('note_on', channel=3, note=45, velocity=87, time=1),\n",
      "  Message('note_on', channel=3, note=45, velocity=0, time=23),\n",
      "  Message('note_on', channel=3, note=44, velocity=87, time=1),\n",
      "  Message('note_on', channel=3, note=44, velocity=0, time=23),\n",
      "  Message('note_on', channel=3, note=45, velocity=87, time=1),\n",
      "  Message('note_on', channel=3, note=45, velocity=0, time=23),\n",
      "  Message('note_on', channel=3, note=44, velocity=87, time=1),\n",
      "  Message('note_on', channel=3, note=44, velocity=0, time=23),\n",
      "  Message('note_on', channel=3, note=45, velocity=87, time=1),\n",
      "  Message('note_on', channel=3, note=45, velocity=0, time=23),\n",
      "  Message('note_on', channel=3, note=44, velocity=87, time=1),\n",
      "  Message('note_on', channel=3, note=44, velocity=0, time=23),\n",
      "  Message('note_on', channel=3, note=45, velocity=87, time=1),\n",
      "  Message('note_on', channel=3, note=45, velocity=0, time=23),\n",
      "  Message('note_on', channel=3, note=47, velocity=87, time=1),\n",
      "  Message('note_on', channel=3, note=47, velocity=0, time=23),\n",
      "  Message('note_on', channel=3, note=49, velocity=87, time=1),\n",
      "  Message('note_on', channel=3, note=49, velocity=0, time=23),\n",
      "  Message('note_on', channel=3, note=50, velocity=87, time=1),\n",
      "  Message('note_on', channel=3, note=50, velocity=0, time=23),\n",
      "  Message('note_on', channel=3, note=52, velocity=87, time=1),\n",
      "  Message('note_on', channel=3, note=52, velocity=0, time=23),\n",
      "  Message('note_on', channel=3, note=54, velocity=87, time=1),\n",
      "  Message('note_on', channel=3, note=54, velocity=0, time=23),\n",
      "  Message('note_on', channel=3, note=56, velocity=87, time=1),\n",
      "  Message('note_on', channel=3, note=56, velocity=0, time=23),\n",
      "  Message('note_on', channel=3, note=57, velocity=87, time=1),\n",
      "  Message('note_on', channel=3, note=57, velocity=0, time=23),\n",
      "  Message('note_on', channel=3, note=42, velocity=87, time=1),\n",
      "  Message('note_on', channel=3, note=42, velocity=0, time=23),\n",
      "  Message('note_on', channel=3, note=41, velocity=87, time=1),\n",
      "  Message('note_on', channel=3, note=41, velocity=0, time=23),\n",
      "  Message('note_on', channel=3, note=42, velocity=87, time=1),\n",
      "  Message('note_on', channel=3, note=42, velocity=0, time=23),\n",
      "  Message('note_on', channel=3, note=41, velocity=87, time=1),\n",
      "  Message('note_on', channel=3, note=41, velocity=0, time=23),\n",
      "  Message('note_on', channel=3, note=42, velocity=87, time=1),\n",
      "  Message('note_on', channel=3, note=42, velocity=0, time=23),\n",
      "  Message('note_on', channel=3, note=41, velocity=87, time=1),\n",
      "  Message('note_on', channel=3, note=41, velocity=0, time=23),\n",
      "  Message('note_on', channel=3, note=42, velocity=87, time=1),\n",
      "  Message('note_on', channel=3, note=42, velocity=0, time=23),\n",
      "  Message('note_on', channel=3, note=41, velocity=87, time=1),\n",
      "  Message('note_on', channel=3, note=41, velocity=0, time=23),\n",
      "  Message('note_on', channel=3, note=42, velocity=87, time=1),\n",
      "  Message('note_on', channel=3, note=42, velocity=0, time=23),\n",
      "  Message('note_on', channel=3, note=44, velocity=87, time=1),\n",
      "  Message('note_on', channel=3, note=44, velocity=0, time=23),\n",
      "  Message('note_on', channel=3, note=45, velocity=87, time=1),\n",
      "  Message('note_on', channel=3, note=45, velocity=0, time=23),\n",
      "  Message('note_on', channel=3, note=47, velocity=87, time=1),\n",
      "  Message('note_on', channel=3, note=47, velocity=0, time=23),\n",
      "  Message('note_on', channel=3, note=49, velocity=87, time=1),\n",
      "  Message('note_on', channel=3, note=49, velocity=0, time=23),\n",
      "  Message('note_on', channel=3, note=50, velocity=87, time=1),\n",
      "  Message('note_on', channel=3, note=50, velocity=0, time=23),\n",
      "  Message('note_on', channel=3, note=52, velocity=87, time=1),\n",
      "  Message('note_on', channel=3, note=52, velocity=0, time=23),\n",
      "  Message('note_on', channel=3, note=54, velocity=87, time=1),\n",
      "  Message('note_on', channel=3, note=54, velocity=0, time=23),\n",
      "  Message('note_on', channel=3, note=38, velocity=87, time=1),\n",
      "  Message('note_on', channel=3, note=38, velocity=0, time=23),\n",
      "  Message('note_on', channel=3, note=37, velocity=87, time=1),\n",
      "  Message('note_on', channel=3, note=37, velocity=0, time=23),\n",
      "  Message('note_on', channel=3, note=38, velocity=87, time=1),\n",
      "  Message('note_on', channel=3, note=38, velocity=0, time=23),\n",
      "  Message('note_on', channel=3, note=37, velocity=87, time=1),\n",
      "  Message('note_on', channel=3, note=37, velocity=0, time=23),\n",
      "  Message('note_on', channel=3, note=38, velocity=87, time=1),\n",
      "  Message('note_on', channel=3, note=38, velocity=0, time=23),\n",
      "  Message('note_on', channel=3, note=37, velocity=87, time=1),\n",
      "  Message('note_on', channel=3, note=37, velocity=0, time=23),\n",
      "  Message('note_on', channel=3, note=38, velocity=87, time=1),\n",
      "  Message('note_on', channel=3, note=38, velocity=0, time=23),\n",
      "  Message('note_on', channel=3, note=37, velocity=87, time=1),\n",
      "  Message('note_on', channel=3, note=37, velocity=0, time=23),\n",
      "  Message('note_on', channel=3, note=38, velocity=87, time=1),\n",
      "  Message('note_on', channel=3, note=38, velocity=0, time=23),\n",
      "  Message('note_on', channel=3, note=40, velocity=87, time=1),\n",
      "  Message('note_on', channel=3, note=40, velocity=0, time=23),\n",
      "  Message('note_on', channel=3, note=42, velocity=87, time=1),\n",
      "  Message('note_on', channel=3, note=42, velocity=0, time=23),\n",
      "  Message('note_on', channel=3, note=44, velocity=87, time=1),\n",
      "  Message('note_on', channel=3, note=44, velocity=0, time=23),\n",
      "  Message('note_on', channel=3, note=45, velocity=87, time=1),\n",
      "  Message('note_on', channel=3, note=45, velocity=0, time=23),\n",
      "  Message('note_on', channel=3, note=47, velocity=87, time=1),\n",
      "  Message('note_on', channel=3, note=47, velocity=0, time=23),\n",
      "  Message('note_on', channel=3, note=49, velocity=87, time=1),\n",
      "  Message('note_on', channel=3, note=49, velocity=0, time=23),\n",
      "  Message('note_on', channel=3, note=50, velocity=87, time=1),\n",
      "  Message('note_on', channel=3, note=50, velocity=0, time=23),\n",
      "  Message('note_on', channel=3, note=35, velocity=87, time=1),\n",
      "  Message('note_on', channel=3, note=35, velocity=0, time=23),\n",
      "  Message('note_on', channel=3, note=34, velocity=87, time=1),\n",
      "  Message('note_on', channel=3, note=34, velocity=0, time=23),\n",
      "  Message('note_on', channel=3, note=35, velocity=87, time=1),\n",
      "  Message('note_on', channel=3, note=35, velocity=0, time=23),\n",
      "  Message('note_on', channel=3, note=34, velocity=87, time=1),\n",
      "  Message('note_on', channel=3, note=34, velocity=0, time=23),\n",
      "  Message('note_on', channel=3, note=35, velocity=87, time=1),\n",
      "  Message('note_on', channel=3, note=35, velocity=0, time=23),\n",
      "  Message('note_on', channel=3, note=34, velocity=87, time=1),\n",
      "  Message('note_on', channel=3, note=34, velocity=0, time=23),\n",
      "  Message('note_on', channel=3, note=35, velocity=87, time=1),\n",
      "  Message('note_on', channel=3, note=35, velocity=0, time=23),\n",
      "  Message('note_on', channel=3, note=34, velocity=87, time=1),\n",
      "  Message('note_on', channel=3, note=34, velocity=0, time=23),\n",
      "  Message('note_on', channel=3, note=35, velocity=87, time=1),\n",
      "  Message('note_on', channel=3, note=35, velocity=0, time=23),\n",
      "  Message('note_on', channel=3, note=37, velocity=87, time=1),\n",
      "  Message('note_on', channel=3, note=37, velocity=0, time=23),\n",
      "  Message('note_on', channel=3, note=38, velocity=87, time=1),\n",
      "  Message('note_on', channel=3, note=38, velocity=0, time=23),\n",
      "  Message('note_on', channel=3, note=40, velocity=87, time=1),\n",
      "  Message('note_on', channel=3, note=40, velocity=0, time=23),\n",
      "  Message('note_on', channel=3, note=42, velocity=87, time=1),\n",
      "  Message('note_on', channel=3, note=42, velocity=0, time=23),\n",
      "  Message('note_on', channel=3, note=44, velocity=87, time=1),\n",
      "  Message('note_on', channel=3, note=44, velocity=0, time=23),\n",
      "  Message('note_on', channel=3, note=45, velocity=87, time=1),\n",
      "  Message('note_on', channel=3, note=45, velocity=0, time=23),\n",
      "  Message('note_on', channel=3, note=47, velocity=87, time=1),\n",
      "  Message('note_on', channel=3, note=47, velocity=0, time=23),\n",
      "  Message('note_on', channel=3, note=44, velocity=87, time=1),\n",
      "  Message('note_on', channel=3, note=32, velocity=87, time=0),\n",
      "  Message('note_on', channel=3, note=44, velocity=0, time=89),\n",
      "  Message('note_on', channel=3, note=32, velocity=0, time=0),\n",
      "  Message('note_on', channel=3, note=45, velocity=87, time=103),\n",
      "  Message('note_on', channel=3, note=33, velocity=87, time=0),\n",
      "  Message('note_on', channel=3, note=45, velocity=0, time=89),\n",
      "  Message('note_on', channel=3, note=33, velocity=0, time=0),\n",
      "  Message('note_on', channel=3, note=42, velocity=87, time=103),\n",
      "  Message('note_on', channel=3, note=30, velocity=87, time=0),\n",
      "  Message('note_on', channel=3, note=42, velocity=0, time=89),\n",
      "  Message('note_on', channel=3, note=30, velocity=0, time=0),\n",
      "  Message('note_on', channel=3, note=44, velocity=87, time=103),\n",
      "  Message('note_on', channel=3, note=32, velocity=87, time=0),\n",
      "  Message('note_on', channel=3, note=44, velocity=0, time=89),\n",
      "  Message('note_on', channel=3, note=32, velocity=0, time=0),\n",
      "  Message('note_on', channel=3, note=45, velocity=87, time=103),\n",
      "  Message('note_on', channel=3, note=33, velocity=87, time=0),\n",
      "  Message('note_on', channel=3, note=45, velocity=0, time=89),\n",
      "  Message('note_on', channel=3, note=33, velocity=0, time=0),\n",
      "  Message('note_on', channel=3, note=54, velocity=87, time=103),\n",
      "  Message('note_on', channel=3, note=42, velocity=87, time=0),\n",
      "  Message('note_on', channel=3, note=54, velocity=0, time=89),\n",
      "  Message('note_on', channel=3, note=42, velocity=0, time=0),\n",
      "  Message('note_on', channel=3, note=50, velocity=87, time=103),\n",
      "  Message('note_on', channel=3, note=38, velocity=87, time=0),\n",
      "  Message('note_on', channel=3, note=50, velocity=0, time=89),\n",
      "  Message('note_on', channel=3, note=38, velocity=0, time=0),\n",
      "  Message('note_on', channel=3, note=52, velocity=87, time=103),\n",
      "  Message('note_on', channel=3, note=40, velocity=87, time=0),\n",
      "  Message('note_on', channel=3, note=52, velocity=0, time=89),\n",
      "  Message('note_on', channel=3, note=40, velocity=0, time=0),\n",
      "  Message('note_on', channel=3, note=45, velocity=87, time=103),\n",
      "  Message('note_on', channel=3, note=33, velocity=87, time=0),\n",
      "  Message('note_on', channel=3, note=45, velocity=0, time=89),\n",
      "  Message('note_on', channel=3, note=33, velocity=0, time=0),\n",
      "  Message('note_on', channel=3, note=49, velocity=73, time=199),\n",
      "  Message('note_on', channel=3, note=49, velocity=0, time=20),\n",
      "  Message('note_on', channel=3, note=47, velocity=73, time=28),\n",
      "  Message('note_on', channel=3, note=47, velocity=0, time=20),\n",
      "  Message('note_on', channel=3, note=66, velocity=73, time=28),\n",
      "  Message('note_on', channel=3, note=66, velocity=0, time=23),\n",
      "  Message('note_on', channel=3, note=67, velocity=73, time=1),\n",
      "  Message('note_on', channel=3, note=67, velocity=0, time=23),\n",
      "  Message('note_on', channel=3, note=66, velocity=73, time=1),\n",
      "  Message('note_on', channel=3, note=66, velocity=0, time=23),\n",
      "  Message('note_on', channel=3, note=65, velocity=73, time=1),\n",
      "  Message('note_on', channel=3, note=65, velocity=0, time=23),\n",
      "  Message('note_on', channel=3, note=66, velocity=73, time=1),\n",
      "  Message('note_on', channel=3, note=66, velocity=0, time=23),\n",
      "  Message('note_on', channel=3, note=67, velocity=73, time=1),\n",
      "  Message('note_on', channel=3, note=67, velocity=0, time=23),\n",
      "  Message('note_on', channel=3, note=64, velocity=73, time=1),\n",
      "  Message('note_on', channel=3, note=64, velocity=0, time=23),\n",
      "  Message('note_on', channel=3, note=66, velocity=73, time=1),\n",
      "  Message('note_on', channel=3, note=66, velocity=0, time=23),\n",
      "  Message('note_on', channel=3, note=62, velocity=73, time=1),\n",
      "  Message('note_on', channel=3, note=62, velocity=0, time=23),\n",
      "  Message('note_on', channel=3, note=64, velocity=73, time=1),\n",
      "  Message('note_on', channel=3, note=64, velocity=0, time=23),\n",
      "  Message('note_on', channel=3, note=61, velocity=73, time=1),\n",
      "  Message('note_on', channel=3, note=61, velocity=0, time=23),\n",
      "  Message('note_on', channel=3, note=62, velocity=73, time=1),\n",
      "  Message('note_on', channel=3, note=62, velocity=0, time=23),\n",
      "  Message('note_on', channel=3, note=59, velocity=73, time=1),\n",
      "  Message('note_on', channel=3, note=59, velocity=0, time=23),\n",
      "  Message('note_on', channel=3, note=61, velocity=73, time=1),\n",
      "  Message('note_on', channel=3, note=61, velocity=0, time=23),\n",
      "  Message('note_on', channel=3, note=62, velocity=73, time=1),\n",
      "  Message('note_on', channel=3, note=62, velocity=0, time=23),\n",
      "  Message('note_on', channel=3, note=63, velocity=73, time=1),\n",
      "  Message('note_on', channel=3, note=63, velocity=0, time=23),\n",
      "  Message('note_on', channel=3, note=64, velocity=73, time=1),\n",
      "  Message('note_on', channel=3, note=64, velocity=0, time=23),\n",
      "  Message('note_on', channel=3, note=66, velocity=74, time=1),\n",
      "  Message('note_on', channel=3, note=66, velocity=0, time=23),\n",
      "  Message('note_on', channel=3, note=64, velocity=74, time=1),\n",
      "  Message('note_on', channel=3, note=64, velocity=0, time=23),\n",
      "  Message('note_on', channel=3, note=63, velocity=74, time=1),\n",
      "  Message('note_on', channel=3, note=63, velocity=0, time=23),\n",
      "  Message('note_on', channel=3, note=64, velocity=74, time=1),\n",
      "  Message('note_on', channel=3, note=64, velocity=0, time=23),\n",
      "  Message('note_on', channel=3, note=66, velocity=74, time=1),\n",
      "  Message('note_on', channel=3, note=66, velocity=0, time=23),\n",
      "  Message('note_on', channel=3, note=62, velocity=74, time=1),\n",
      "  Message('note_on', channel=3, note=62, velocity=0, time=23),\n",
      "  Message('note_on', channel=3, note=64, velocity=75, time=1),\n",
      "  Message('note_on', channel=3, note=64, velocity=0, time=23),\n",
      "  Message('note_on', channel=3, note=61, velocity=75, time=1),\n",
      "  Message('note_on', channel=3, note=61, velocity=0, time=23),\n",
      "  Message('note_on', channel=3, note=62, velocity=75, time=1),\n",
      "  Message('note_on', channel=3, note=62, velocity=0, time=23),\n",
      "  Message('note_on', channel=3, note=59, velocity=75, time=1),\n",
      "  Message('note_on', channel=3, note=59, velocity=0, time=23),\n",
      "  Message('note_on', channel=3, note=61, velocity=75, time=1),\n",
      "  Message('note_on', channel=3, note=61, velocity=0, time=23),\n",
      "  Message('note_on', channel=3, note=57, velocity=75, time=1),\n",
      "  Message('note_on', channel=3, note=57, velocity=0, time=23),\n",
      "  Message('note_on', channel=3, note=59, velocity=76, time=1),\n",
      "  Message('note_on', channel=3, note=59, velocity=0, time=23),\n",
      "  Message('note_on', channel=3, note=61, velocity=76, time=1),\n",
      "  Message('note_on', channel=3, note=61, velocity=0, time=23),\n",
      "  Message('note_on', channel=3, note=57, velocity=76, time=1),\n",
      "  Message('note_on', channel=3, note=57, velocity=0, time=23),\n",
      "  Message('note_on', channel=3, note=62, velocity=76, time=1),\n",
      "  Message('note_on', channel=3, note=62, velocity=0, time=23),\n",
      "  Message('note_on', channel=3, note=64, velocity=76, time=1),\n",
      "  Message('note_on', channel=3, note=64, velocity=0, time=23),\n",
      "  Message('note_on', channel=3, note=62, velocity=76, time=1),\n",
      "  Message('note_on', channel=3, note=62, velocity=0, time=23),\n",
      "  Message('note_on', channel=3, note=61, velocity=77, time=1),\n",
      "  Message('note_on', channel=3, note=61, velocity=0, time=23),\n",
      "  Message('note_on', channel=3, note=62, velocity=77, time=1),\n",
      "  Message('note_on', channel=3, note=62, velocity=0, time=23),\n",
      "  Message('note_on', channel=3, note=64, velocity=77, time=1),\n",
      "  Message('note_on', channel=3, note=64, velocity=0, time=23),\n",
      "  Message('note_on', channel=3, note=61, velocity=77, time=1),\n",
      "  Message('note_on', channel=3, note=61, velocity=0, time=23),\n",
      "  Message('note_on', channel=3, note=62, velocity=77, time=1),\n",
      "  Message('note_on', channel=3, note=62, velocity=0, time=23),\n",
      "  Message('note_on', channel=3, note=59, velocity=77, time=1),\n",
      "  Message('note_on', channel=3, note=59, velocity=0, time=23),\n",
      "  Message('note_on', channel=3, note=61, velocity=78, time=1),\n",
      "  Message('note_on', channel=3, note=61, velocity=0, time=23),\n",
      "  Message('note_on', channel=3, note=58, velocity=78, time=1),\n",
      "  Message('note_on', channel=3, note=58, velocity=0, time=23),\n",
      "  Message('note_on', channel=3, note=59, velocity=78, time=1),\n",
      "  Message('note_on', channel=3, note=59, velocity=0, time=23),\n",
      "  Message('note_on', channel=3, note=56, velocity=78, time=1),\n",
      "  Message('note_on', channel=3, note=56, velocity=0, time=23),\n",
      "  Message('note_on', channel=3, note=57, velocity=78, time=1),\n",
      "  Message('note_on', channel=3, note=57, velocity=0, time=23),\n",
      "  Message('note_on', channel=3, note=59, velocity=78, time=1),\n",
      "  Message('note_on', channel=3, note=59, velocity=0, time=23),\n",
      "  Message('note_on', channel=3, note=60, velocity=79, time=1),\n",
      "  Message('note_on', channel=3, note=60, velocity=0, time=23),\n",
      "  Message('note_on', channel=3, note=61, velocity=79, time=1),\n",
      "  Message('note_on', channel=3, note=61, velocity=0, time=23),\n",
      "  Message('note_on', channel=3, note=62, velocity=79, time=1),\n",
      "  Message('note_on', channel=3, note=62, velocity=0, time=23),\n",
      "  Message('note_on', channel=3, note=61, velocity=79, time=1),\n",
      "  Message('note_on', channel=3, note=61, velocity=0, time=23),\n",
      "  Message('note_on', channel=3, note=60, velocity=79, time=1),\n",
      "  Message('note_on', channel=3, note=60, velocity=0, time=23),\n",
      "  Message('note_on', channel=3, note=61, velocity=79, time=1),\n",
      "  Message('note_on', channel=3, note=61, velocity=0, time=23),\n",
      "  Message('note_on', channel=3, note=62, velocity=80, time=1),\n",
      "  Message('note_on', channel=3, note=62, velocity=0, time=23),\n",
      "  Message('note_on', channel=3, note=59, velocity=80, time=1),\n",
      "  Message('note_on', channel=3, note=59, velocity=0, time=23),\n",
      "  Message('note_on', channel=3, note=61, velocity=80, time=1),\n",
      "  Message('note_on', channel=3, note=61, velocity=0, time=23),\n",
      "  Message('note_on', channel=3, note=57, velocity=80, time=1),\n",
      "  Message('note_on', channel=3, note=57, velocity=0, time=23),\n",
      "  Message('note_on', channel=3, note=59, velocity=80, time=1),\n",
      "  Message('note_on', channel=3, note=59, velocity=0, time=23),\n",
      "  Message('note_on', channel=3, note=56, velocity=80, time=1),\n",
      "  Message('note_on', channel=3, note=56, velocity=0, time=23),\n",
      "  Message('note_on', channel=3, note=57, velocity=80, time=1),\n",
      "  Message('note_on', channel=3, note=57, velocity=0, time=23),\n",
      "  Message('note_on', channel=3, note=54, velocity=81, time=1),\n",
      "  Message('note_on', channel=3, note=54, velocity=0, time=20),\n",
      "  Message('note_on', channel=3, note=52, velocity=81, time=28),\n",
      "  Message('note_on', channel=3, note=52, velocity=0, time=20),\n",
      "  Message('note_on', channel=3, note=50, velocity=81, time=28),\n",
      "  Message('note_on', channel=3, note=38, velocity=81, time=0),\n",
      "  Message('note_on', channel=3, note=50, velocity=0, time=354),\n",
      "  Message('note_on', channel=3, note=38, velocity=0, time=0),\n",
      "  Message('note_on', channel=3, note=51, velocity=84, time=30),\n",
      "  Message('note_on', channel=3, note=39, velocity=84, time=0),\n",
      "  Message('note_on', channel=3, note=51, velocity=0, time=354),\n",
      "  Message('note_on', channel=3, note=39, velocity=0, time=0),\n",
      "  Message('note_on', channel=3, note=52, velocity=87, time=30),\n",
      "  Message('note_on', channel=3, note=40, velocity=87, time=0),\n",
      "  Message('note_on', channel=3, note=52, velocity=0, time=89),\n",
      "  Message('note_on', channel=3, note=40, velocity=0, time=0),\n",
      "  Message('note_on', channel=3, note=52, velocity=87, time=295),\n",
      "  Message('note_on', channel=3, note=52, velocity=0, time=45),\n",
      "  Message('note_on', channel=3, note=52, velocity=86, time=3),\n",
      "  Message('note_on', channel=3, note=52, velocity=0, time=45),\n",
      "  Message('note_on', channel=3, note=52, velocity=85, time=3),\n",
      "  Message('note_on', channel=3, note=52, velocity=0, time=45),\n",
      "  Message('note_on', channel=3, note=52, velocity=85, time=3),\n",
      "  Message('note_on', channel=3, note=52, velocity=0, time=45),\n",
      "  Message('note_on', channel=3, note=40, velocity=84, time=3),\n",
      "  Message('note_on', channel=3, note=40, velocity=0, time=45),\n",
      "  Message('note_on', channel=3, note=40, velocity=84, time=3),\n",
      "  Message('note_on', channel=3, note=40, velocity=0, time=45),\n",
      "  Message('note_on', channel=3, note=40, velocity=83, time=3),\n",
      "  Message('note_on', channel=3, note=40, velocity=0, time=45),\n",
      "  Message('note_on', channel=3, note=40, velocity=83, time=3),\n",
      "  Message('note_on', channel=3, note=40, velocity=0, time=45),\n",
      "  Message('note_on', channel=3, note=45, velocity=82, time=3),\n",
      "  Message('note_on', channel=3, note=45, velocity=0, time=45),\n",
      "  Message('note_on', channel=3, note=33, velocity=82, time=3),\n",
      "  Message('note_on', channel=3, note=33, velocity=0, time=47),\n",
      "  Message('note_on', channel=3, note=45, velocity=82, time=1),\n",
      "  Message('note_on', channel=3, note=45, velocity=0, time=47),\n",
      "  Message('note_on', channel=3, note=45, velocity=82, time=1),\n",
      "  Message('note_on', channel=3, note=45, velocity=0, time=47),\n",
      "  Message('note_on', channel=3, note=45, velocity=82, time=1),\n",
      "  Message('note_on', channel=3, note=45, velocity=0, time=47),\n",
      "  Message('note_on', channel=3, note=45, velocity=82, time=1),\n",
      "  Message('note_on', channel=3, note=45, velocity=0, time=47),\n",
      "  Message('note_on', channel=3, note=45, velocity=82, time=1),\n",
      "  Message('note_on', channel=3, note=45, velocity=0, time=47),\n",
      "  Message('note_on', channel=3, note=45, velocity=82, time=1),\n",
      "  Message('note_on', channel=3, note=45, velocity=0, time=47),\n",
      "  Message('note_on', channel=3, note=45, velocity=82, time=1),\n",
      "  Message('note_on', channel=3, note=45, velocity=0, time=47),\n",
      "  Message('note_on', channel=3, note=57, velocity=82, time=1),\n",
      "  Message('note_on', channel=3, note=57, velocity=0, time=47),\n",
      "  Message('note_on', channel=3, note=45, velocity=78, time=1),\n",
      "  Message('note_on', channel=3, note=45, velocity=0, time=47),\n",
      "  Message('note_on', channel=3, note=57, velocity=78, time=1),\n",
      "  Message('note_on', channel=3, note=57, velocity=0, time=47),\n",
      "  Message('note_on', channel=3, note=45, velocity=78, time=1),\n",
      "  Message('note_on', channel=3, note=45, velocity=0, time=47),\n",
      "  Message('note_on', channel=3, note=57, velocity=78, time=1),\n",
      "  Message('note_on', channel=3, note=57, velocity=0, time=47),\n",
      "  Message('note_on', channel=3, note=45, velocity=78, time=1),\n",
      "  Message('note_on', channel=3, note=45, velocity=0, time=47),\n",
      "  Message('note_on', channel=3, note=57, velocity=78, time=1),\n",
      "  Message('note_on', channel=3, note=57, velocity=0, time=47),\n",
      "  Message('note_on', channel=3, note=45, velocity=78, time=1),\n",
      "  Message('note_on', channel=3, note=45, velocity=0, time=47),\n",
      "  Message('note_on', channel=3, note=33, velocity=78, time=1),\n",
      "  Message('note_on', channel=3, note=33, velocity=0, time=47),\n",
      "  Message('note_on', channel=3, note=45, velocity=73, time=1),\n",
      "  Message('note_on', channel=3, note=45, velocity=0, time=47),\n",
      "  Message('note_on', channel=3, note=45, velocity=73, time=1),\n",
      "  Message('note_on', channel=3, note=45, velocity=0, time=47),\n",
      "  Message('note_on', channel=3, note=45, velocity=73, time=1),\n",
      "  Message('note_on', channel=3, note=45, velocity=0, time=47),\n",
      "  Message('note_on', channel=3, note=45, velocity=73, time=1),\n",
      "  Message('note_on', channel=3, note=45, velocity=0, time=47),\n",
      "  Message('note_on', channel=3, note=45, velocity=73, time=1),\n",
      "  Message('note_on', channel=3, note=45, velocity=0, time=47),\n",
      "  Message('note_on', channel=3, note=45, velocity=73, time=1),\n",
      "  Message('note_on', channel=3, note=45, velocity=0, time=47),\n",
      "  Message('note_on', channel=3, note=45, velocity=73, time=1),\n",
      "  Message('note_on', channel=3, note=45, velocity=0, time=47),\n",
      "  Message('note_on', channel=3, note=57, velocity=73, time=1),\n",
      "  Message('note_on', channel=3, note=57, velocity=0, time=47),\n",
      "  Message('note_on', channel=3, note=45, velocity=73, time=1),\n",
      "  Message('note_on', channel=3, note=45, velocity=0, time=47),\n",
      "  Message('note_on', channel=3, note=57, velocity=73, time=1),\n",
      "  Message('note_on', channel=3, note=57, velocity=0, time=47),\n",
      "  Message('note_on', channel=3, note=45, velocity=73, time=1),\n",
      "  Message('note_on', channel=3, note=45, velocity=0, time=47),\n",
      "  Message('note_on', channel=3, note=57, velocity=73, time=1),\n",
      "  Message('note_on', channel=3, note=57, velocity=0, time=47),\n",
      "  Message('note_on', channel=3, note=45, velocity=73, time=1),\n",
      "  Message('note_on', channel=3, note=45, velocity=0, time=47),\n",
      "  Message('note_on', channel=3, note=57, velocity=73, time=1),\n",
      "  Message('note_on', channel=3, note=57, velocity=0, time=47),\n",
      "  Message('note_on', channel=3, note=45, velocity=73, time=1),\n",
      "  Message('note_on', channel=3, note=45, velocity=0, time=89),\n",
      "  Message('note_on', channel=3, note=52, velocity=87, time=199),\n",
      "  Message('note_on', channel=3, note=40, velocity=87, time=0),\n",
      "  Message('note_on', channel=3, note=52, velocity=0, time=89),\n",
      "  Message('note_on', channel=3, note=40, velocity=0, time=0),\n",
      "  Message('note_on', channel=3, note=57, velocity=87, time=7),\n",
      "  Message('note_on', channel=3, note=45, velocity=87, time=0),\n",
      "  Message('note_on', channel=3, note=57, velocity=0, time=10),\n",
      "  Message('note_on', channel=3, note=45, velocity=0, time=0),\n",
      "  Message('note_on', channel=3, note=61, velocity=87, time=14),\n",
      "  Message('note_on', channel=3, note=61, velocity=0, time=23),\n",
      "  Message('note_on', channel=3, note=64, velocity=87, time=1),\n",
      "  Message('note_on', channel=3, note=64, velocity=0, time=23),\n",
      "  Message('note_on', channel=3, note=69, velocity=87, time=1),\n",
      "  Message('note_on', channel=3, note=69, velocity=0, time=23),\n",
      "  Message('note_on', channel=3, note=73, velocity=87, time=1),\n",
      "  Message('note_on', channel=3, note=73, velocity=0, time=23),\n",
      "  Message('note_on', channel=3, note=64, velocity=87, time=1),\n",
      "  Message('note_on', channel=3, note=64, velocity=0, time=23),\n",
      "  Message('note_on', channel=3, note=69, velocity=87, time=1),\n",
      "  Message('note_on', channel=3, note=69, velocity=0, time=23),\n",
      "  Message('note_on', channel=3, note=73, velocity=87, time=1),\n",
      "  Message('note_on', channel=3, note=73, velocity=0, time=23),\n",
      "  Message('note_on', channel=3, note=76, velocity=87, time=1),\n",
      "  Message('note_on', channel=3, note=76, velocity=0, time=20),\n",
      "  Message('note_on', channel=3, note=76, velocity=87, time=28),\n",
      "  Message('note_on', channel=3, note=76, velocity=0, time=20),\n",
      "  Message('note_on', channel=3, note=64, velocity=87, time=76),\n",
      "  Message('note_on', channel=3, note=52, velocity=87, time=0),\n",
      "  Message('note_on', channel=3, note=64, velocity=0, time=20),\n",
      "  Message('note_on', channel=3, note=52, velocity=0, time=0),\n",
      "  Message('control_change', channel=3, control=64, value=127, time=28),\n",
      "  Message('note_on', channel=3, note=57, velocity=87, time=0),\n",
      "  Message('note_on', channel=3, note=57, velocity=0, time=23),\n",
      "  Message('note_on', channel=3, note=45, velocity=87, time=1),\n",
      "  Message('note_on', channel=3, note=45, velocity=0, time=23),\n",
      "  Message('note_on', channel=3, note=49, velocity=87, time=1),\n",
      "  Message('note_on', channel=3, note=49, velocity=0, time=23),\n",
      "  Message('note_on', channel=3, note=52, velocity=87, time=1),\n",
      "  Message('note_on', channel=3, note=52, velocity=0, time=23),\n",
      "  Message('note_on', channel=3, note=57, velocity=87, time=1),\n",
      "  Message('note_on', channel=3, note=57, velocity=0, time=23),\n",
      "  Message('note_on', channel=3, note=49, velocity=87, time=1),\n",
      "  Message('note_on', channel=3, note=49, velocity=0, time=23),\n",
      "  Message('note_on', channel=3, note=52, velocity=87, time=1),\n",
      "  Message('note_on', channel=3, note=52, velocity=0, time=23),\n",
      "  Message('note_on', channel=3, note=57, velocity=87, time=1),\n",
      "  Message('note_on', channel=3, note=57, velocity=0, time=23),\n",
      "  Message('note_on', channel=3, note=61, velocity=87, time=1),\n",
      "  Message('note_on', channel=3, note=61, velocity=0, time=23),\n",
      "  Message('note_on', channel=3, note=52, velocity=87, time=1),\n",
      "  Message('note_on', channel=3, note=52, velocity=0, time=23),\n",
      "  Message('note_on', channel=3, note=57, velocity=87, time=1),\n",
      "  Message('note_on', channel=3, note=57, velocity=0, time=23),\n",
      "  Message('note_on', channel=3, note=61, velocity=87, time=1),\n",
      "  Message('note_on', channel=3, note=61, velocity=0, time=23),\n",
      "  Message('note_on', channel=3, note=64, velocity=87, time=1),\n",
      "  Message('note_on', channel=3, note=64, velocity=0, time=23),\n",
      "  Message('note_on', channel=3, note=61, velocity=87, time=1),\n",
      "  Message('note_on', channel=3, note=61, velocity=0, time=23),\n",
      "  Message('note_on', channel=3, note=64, velocity=87, time=1),\n",
      "  Message('note_on', channel=3, note=64, velocity=0, time=23),\n",
      "  Message('note_on', channel=3, note=61, velocity=87, time=1),\n",
      "  Message('note_on', channel=3, note=61, velocity=0, time=23),\n",
      "  Message('note_on', channel=3, note=57, velocity=87, time=1),\n",
      "  Message('note_on', channel=3, note=57, velocity=0, time=89),\n",
      "  Message('note_on', channel=3, note=45, velocity=87, time=7),\n",
      "  Message('note_on', channel=3, note=45, velocity=0, time=67),\n",
      "  Message('note_on', channel=3, note=45, velocity=87, time=5),\n",
      "  Message('note_on', channel=3, note=45, velocity=0, time=23),\n",
      "  Message('control_change', channel=3, control=64, value=0, time=1),\n",
      "  Message('note_on', channel=3, note=45, velocity=87, time=0),\n",
      "  Message('note_on', channel=3, note=45, velocity=0, time=89),\n",
      "  Message('note_on', channel=3, note=50, velocity=87, time=103),\n",
      "  Message('note_on', channel=3, note=38, velocity=87, time=0),\n",
      "  Message('note_on', channel=3, note=50, velocity=0, time=177),\n",
      "  Message('note_on', channel=3, note=38, velocity=0, time=0),\n",
      "  Message('note_on', channel=3, note=45, velocity=87, time=15),\n",
      "  Message('note_on', channel=3, note=45, velocity=0, time=177),\n",
      "  Message('note_on', channel=3, note=43, velocity=87, time=15),\n",
      "  Message('note_on', channel=3, note=43, velocity=0, time=24),\n",
      "  Message('note_on', channel=3, note=42, velocity=87, time=0),\n",
      "  Message('note_on', channel=3, note=42, velocity=0, time=24),\n",
      "  Message('note_on', channel=3, note=43, velocity=87, time=0),\n",
      "  Message('note_on', channel=3, note=43, velocity=0, time=24),\n",
      "  Message('note_on', channel=3, note=42, velocity=87, time=0),\n",
      "  Message('note_on', channel=3, note=42, velocity=0, time=24),\n",
      "  Message('note_on', channel=3, note=43, velocity=87, time=0),\n",
      "  Message('note_on', channel=3, note=43, velocity=0, time=24),\n",
      "  Message('note_on', channel=3, note=42, velocity=87, time=0),\n",
      "  Message('note_on', channel=3, note=42, velocity=0, time=13),\n",
      "  Message('note_on', channel=3, note=40, velocity=87, time=11),\n",
      "  Message('note_on', channel=3, note=40, velocity=0, time=23),\n",
      "  Message('note_on', channel=3, note=38, velocity=87, time=1),\n",
      "  Message('note_on', channel=3, note=38, velocity=0, time=23),\n",
      "  Message('note_on', channel=3, note=45, velocity=87, time=1),\n",
      "  Message('note_on', channel=3, note=45, velocity=0, time=89),\n",
      "  Message('note_on', channel=3, note=33, velocity=87, time=79),\n",
      "  Message('note_on', channel=3, note=33, velocity=0, time=8),\n",
      "  Message('note_on', channel=3, note=35, velocity=87, time=0),\n",
      "  Message('note_on', channel=3, note=35, velocity=0, time=8),\n",
      "  Message('note_on', channel=3, note=37, velocity=87, time=0),\n",
      "  Message('note_on', channel=3, note=37, velocity=0, time=8),\n",
      "  Message('note_on', channel=3, note=38, velocity=87, time=0),\n",
      "  Message('note_on', channel=3, note=38, velocity=0, time=89),\n",
      "  Message('note_on', channel=3, note=33, velocity=87, time=7),\n",
      "  Message('note_on', channel=3, note=33, velocity=0, time=67),\n",
      "  Message('note_on', channel=3, note=38, velocity=87, time=5),\n",
      "  Message('note_on', channel=3, note=38, velocity=0, time=23),\n",
      "  Message('note_on', channel=3, note=40, velocity=87, time=1),\n",
      "  Message('note_on', channel=3, note=40, velocity=0, time=89),\n",
      "  Message('note_on', channel=3, note=33, velocity=87, time=7),\n",
      "  Message('note_on', channel=3, note=33, velocity=0, time=67),\n",
      "  Message('note_on', channel=3, note=40, velocity=87, time=5),\n",
      "  Message('note_on', channel=3, note=40, velocity=0, time=23),\n",
      "  Message('note_on', channel=3, note=42, velocity=87, time=1),\n",
      "  Message('note_on', channel=3, note=42, velocity=0, time=89),\n",
      "  Message('note_on', channel=3, note=38, velocity=87, time=7),\n",
      "  Message('note_on', channel=3, note=38, velocity=0, time=67),\n",
      "  Message('note_on', channel=3, note=42, velocity=87, time=5),\n",
      "  Message('note_on', channel=3, note=42, velocity=0, time=23),\n",
      "  Message('note_on', channel=3, note=45, velocity=87, time=1),\n",
      "  Message('note_on', channel=3, note=45, velocity=0, time=89),\n",
      "  Message('note_on', channel=3, note=62, velocity=82, time=679),\n",
      "  Message('note_on', channel=3, note=54, velocity=82, time=0),\n",
      "  Message('note_on', channel=3, note=62, velocity=0, time=20),\n",
      "  Message('note_on', channel=3, note=54, velocity=0, time=0),\n",
      "  Message('note_on', channel=3, note=62, velocity=83, time=28),\n",
      "  Message('note_on', channel=3, note=54, velocity=83, time=0),\n",
      "  Message('note_on', channel=3, note=62, velocity=0, time=20),\n",
      "  Message('note_on', channel=3, note=54, velocity=0, time=0),\n",
      "  Message('note_on', channel=3, note=64, velocity=84, time=28),\n",
      "  Message('note_on', channel=3, note=57, velocity=84, time=0),\n",
      "  Message('note_on', channel=3, note=64, velocity=0, time=20),\n",
      "  Message('note_on', channel=3, note=57, velocity=0, time=0),\n",
      "  Message('note_on', channel=3, note=64, velocity=85, time=28),\n",
      "  Message('note_on', channel=3, note=57, velocity=85, time=0),\n",
      "  Message('note_on', channel=3, note=64, velocity=0, time=20),\n",
      "  Message('note_on', channel=3, note=57, velocity=0, time=0),\n",
      "  Message('note_on', channel=3, note=66, velocity=87, time=28),\n",
      "  Message('note_on', channel=3, note=62, velocity=87, time=0),\n",
      "  Message('note_on', channel=3, note=66, velocity=0, time=89),\n",
      "  Message('note_on', channel=3, note=62, velocity=0, time=0),\n",
      "  Message('note_on', channel=3, note=66, velocity=82, time=487),\n",
      "  Message('note_on', channel=3, note=62, velocity=82, time=0),\n",
      "  Message('note_on', channel=3, note=66, velocity=0, time=20),\n",
      "  Message('note_on', channel=3, note=62, velocity=0, time=0),\n",
      "  Message('note_on', channel=3, note=66, velocity=83, time=28),\n",
      "  Message('note_on', channel=3, note=62, velocity=83, time=0),\n",
      "  Message('note_on', channel=3, note=66, velocity=0, time=20),\n",
      "  Message('note_on', channel=3, note=62, velocity=0, time=0),\n",
      "  Message('note_on', channel=3, note=67, velocity=84, time=28),\n",
      "  Message('note_on', channel=3, note=64, velocity=84, time=0),\n",
      "  Message('note_on', channel=3, note=67, velocity=0, time=20),\n",
      "  Message('note_on', channel=3, note=64, velocity=0, time=0),\n",
      "  Message('note_on', channel=3, note=67, velocity=85, time=28),\n",
      "  Message('note_on', channel=3, note=64, velocity=85, time=0),\n",
      "  Message('note_on', channel=3, note=67, velocity=0, time=20),\n",
      "  Message('note_on', channel=3, note=64, velocity=0, time=0),\n",
      "  Message('note_on', channel=3, note=69, velocity=86, time=28),\n",
      "  Message('note_on', channel=3, note=66, velocity=86, time=0),\n",
      "  Message('note_on', channel=3, note=69, velocity=0, time=45),\n",
      "  Message('note_on', channel=3, note=66, velocity=0, time=0),\n",
      "  Message('note_on', channel=3, note=50, velocity=87, time=147),\n",
      "  Message('note_on', channel=3, note=38, velocity=87, time=0),\n",
      "  Message('note_on', channel=3, note=50, velocity=0, time=89),\n",
      "  Message('note_on', channel=3, note=38, velocity=0, time=0),\n",
      "  Message('note_on', channel=3, note=49, velocity=87, time=103),\n",
      "  Message('note_on', channel=3, note=37, velocity=87, time=0),\n",
      "  Message('note_on', channel=3, note=49, velocity=0, time=89),\n",
      "  Message('note_on', channel=3, note=37, velocity=0, time=0),\n",
      "  Message('note_on', channel=3, note=49, velocity=87, time=103),\n",
      "  Message('note_on', channel=3, note=37, velocity=87, time=0),\n",
      "  Message('note_on', channel=3, note=49, velocity=0, time=89),\n",
      "  Message('note_on', channel=3, note=37, velocity=0, time=0),\n",
      "  Message('note_on', channel=3, note=50, velocity=87, time=103),\n",
      "  Message('note_on', channel=3, note=38, velocity=87, time=0),\n",
      "  Message('note_on', channel=3, note=50, velocity=0, time=89),\n",
      "  Message('note_on', channel=3, note=38, velocity=0, time=0),\n",
      "  Message('note_on', channel=3, note=50, velocity=87, time=103),\n",
      "  Message('note_on', channel=3, note=38, velocity=87, time=0),\n",
      "  Message('note_on', channel=3, note=50, velocity=0, time=89),\n",
      "  Message('note_on', channel=3, note=38, velocity=0, time=0),\n",
      "  Message('note_on', channel=3, note=64, velocity=82, time=103),\n",
      "  Message('note_on', channel=3, note=62, velocity=82, time=0),\n",
      "  Message('note_on', channel=3, note=64, velocity=0, time=177),\n",
      "  Message('note_on', channel=3, note=62, velocity=0, time=0),\n",
      "  Message('note_on', channel=3, note=66, velocity=82, time=15),\n",
      "  Message('note_on', channel=3, note=62, velocity=82, time=0),\n",
      "  Message('note_on', channel=3, note=66, velocity=0, time=89),\n",
      "  Message('note_on', channel=3, note=62, velocity=0, time=0),\n",
      "  Message('note_on', channel=3, note=67, velocity=87, time=7),\n",
      "  Message('note_on', channel=3, note=64, velocity=87, time=0),\n",
      "  Message('note_on', channel=3, note=67, velocity=0, time=89),\n",
      "  Message('note_on', channel=3, note=64, velocity=0, time=0),\n",
      "  Message('note_on', channel=3, note=66, velocity=99, time=7),\n",
      "  Message('note_on', channel=3, note=62, velocity=99, time=0),\n",
      "  Message('note_on', channel=3, note=66, velocity=0, time=20),\n",
      "  Message('note_on', channel=3, note=62, velocity=0, time=0),\n",
      "  Message('note_on', channel=3, note=66, velocity=78, time=28),\n",
      "  Message('note_on', channel=3, note=62, velocity=78, time=0),\n",
      "  Message('note_on', channel=3, note=66, velocity=0, time=20),\n",
      "  Message('note_on', channel=3, note=62, velocity=0, time=0),\n",
      "  Message('note_on', channel=3, note=66, velocity=78, time=28),\n",
      "  Message('note_on', channel=3, note=62, velocity=78, time=0),\n",
      "  Message('note_on', channel=3, note=66, velocity=0, time=20),\n",
      "  Message('note_on', channel=3, note=62, velocity=0, time=0),\n",
      "  Message('note_on', channel=3, note=66, velocity=78, time=28),\n",
      "  Message('note_on', channel=3, note=62, velocity=78, time=0),\n",
      "  Message('note_on', channel=3, note=66, velocity=0, time=20),\n",
      "  Message('note_on', channel=3, note=62, velocity=0, time=0),\n",
      "  Message('note_on', channel=3, note=57, velocity=78, time=28),\n",
      "  Message('note_on', channel=3, note=57, velocity=0, time=20),\n",
      "  Message('note_on', channel=3, note=66, velocity=78, time=28),\n",
      "  Message('note_on', channel=3, note=62, velocity=78, time=0),\n",
      "  Message('note_on', channel=3, note=66, velocity=0, time=20),\n",
      "  Message('note_on', channel=3, note=62, velocity=0, time=0),\n",
      "  Message('note_on', channel=3, note=66, velocity=78, time=28),\n",
      "  Message('note_on', channel=3, note=62, velocity=78, time=0),\n",
      "  Message('note_on', channel=3, note=66, velocity=0, time=20),\n",
      "  Message('note_on', channel=3, note=62, velocity=0, time=0),\n",
      "  Message('note_on', channel=3, note=66, velocity=78, time=28),\n",
      "  Message('note_on', channel=3, note=62, velocity=78, time=0),\n",
      "  Message('note_on', channel=3, note=66, velocity=0, time=20),\n",
      "  Message('note_on', channel=3, note=62, velocity=0, time=0),\n",
      "  Message('note_on', channel=3, note=57, velocity=94, time=28),\n",
      "  Message('note_on', channel=3, note=57, velocity=0, time=20),\n",
      "  Message('note_on', channel=3, note=67, velocity=78, time=28),\n",
      "  Message('note_on', channel=3, note=64, velocity=78, time=0),\n",
      "  Message('note_on', channel=3, note=67, velocity=0, time=20),\n",
      "  Message('note_on', channel=3, note=64, velocity=0, time=0),\n",
      "  Message('note_on', channel=3, note=67, velocity=78, time=28),\n",
      "  Message('note_on', channel=3, note=64, velocity=78, time=0),\n",
      "  Message('note_on', channel=3, note=67, velocity=0, time=20),\n",
      "  Message('note_on', channel=3, note=64, velocity=0, time=0),\n",
      "  Message('note_on', channel=3, note=67, velocity=78, time=28),\n",
      "  Message('note_on', channel=3, note=64, velocity=78, time=0),\n",
      "  Message('note_on', channel=3, note=67, velocity=0, time=20),\n",
      "  Message('note_on', channel=3, note=64, velocity=0, time=0),\n",
      "  Message('note_on', channel=3, note=57, velocity=78, time=28),\n",
      "  Message('note_on', channel=3, note=57, velocity=0, time=20),\n",
      "  Message('note_on', channel=3, note=67, velocity=78, time=28),\n",
      "  Message('note_on', channel=3, note=64, velocity=78, time=0),\n",
      "  Message('note_on', channel=3, note=67, velocity=0, time=20),\n",
      "  Message('note_on', channel=3, note=64, velocity=0, time=0),\n",
      "  Message('note_on', channel=3, note=67, velocity=78, time=28),\n",
      "  Message('note_on', channel=3, note=64, velocity=78, time=0),\n",
      "  Message('note_on', channel=3, note=67, velocity=0, time=20),\n",
      "  Message('note_on', channel=3, note=64, velocity=0, time=0),\n",
      "  Message('note_on', channel=3, note=67, velocity=78, time=28),\n",
      "  Message('note_on', channel=3, note=64, velocity=78, time=0),\n",
      "  Message('note_on', channel=3, note=67, velocity=0, time=20),\n",
      "  Message('note_on', channel=3, note=64, velocity=0, time=0),\n",
      "  Message('note_on', channel=3, note=57, velocity=94, time=28),\n",
      "  Message('note_on', channel=3, note=57, velocity=0, time=20),\n",
      "  Message('note_on', channel=3, note=66, velocity=78, time=28),\n",
      "  Message('note_on', channel=3, note=62, velocity=78, time=0),\n",
      "  Message('note_on', channel=3, note=66, velocity=0, time=20),\n",
      "  Message('note_on', channel=3, note=62, velocity=0, time=0),\n",
      "  Message('note_on', channel=3, note=66, velocity=78, time=28),\n",
      "  Message('note_on', channel=3, note=62, velocity=78, time=0),\n",
      "  Message('note_on', channel=3, note=66, velocity=0, time=20),\n",
      "  Message('note_on', channel=3, note=62, velocity=0, time=0),\n",
      "  Message('note_on', channel=3, note=66, velocity=78, time=28),\n",
      "  Message('note_on', channel=3, note=62, velocity=78, time=0),\n",
      "  Message('note_on', channel=3, note=66, velocity=0, time=20),\n",
      "  Message('note_on', channel=3, note=62, velocity=0, time=0),\n",
      "  Message('note_on', channel=3, note=57, velocity=78, time=28),\n",
      "  Message('note_on', channel=3, note=57, velocity=0, time=20),\n",
      "  Message('note_on', channel=3, note=66, velocity=78, time=28),\n",
      "  Message('note_on', channel=3, note=62, velocity=78, time=0),\n",
      "  Message('note_on', channel=3, note=66, velocity=0, time=20),\n",
      "  Message('note_on', channel=3, note=62, velocity=0, time=0),\n",
      "  Message('note_on', channel=3, note=66, velocity=78, time=28),\n",
      "  Message('note_on', channel=3, note=62, velocity=78, time=0),\n",
      "  Message('note_on', channel=3, note=66, velocity=0, time=20),\n",
      "  Message('note_on', channel=3, note=62, velocity=0, time=0),\n",
      "  Message('note_on', channel=3, note=66, velocity=78, time=28),\n",
      "  Message('note_on', channel=3, note=62, velocity=78, time=0),\n",
      "  Message('note_on', channel=3, note=66, velocity=0, time=20),\n",
      "  Message('note_on', channel=3, note=62, velocity=0, time=0),\n",
      "  Message('note_on', channel=3, note=55, velocity=78, time=124),\n",
      "  Message('note_on', channel=3, note=43, velocity=78, time=0),\n",
      "  Message('note_on', channel=3, note=55, velocity=0, time=89),\n",
      "  Message('note_on', channel=3, note=43, velocity=0, time=0),\n",
      "  Message('note_on', channel=3, note=57, velocity=78, time=7),\n",
      "  Message('note_on', channel=3, note=45, velocity=78, time=0),\n",
      "  Message('note_on', channel=3, note=57, velocity=0, time=89),\n",
      "  Message('note_on', channel=3, note=45, velocity=0, time=0),\n",
      "  Message('note_on', channel=3, note=45, velocity=78, time=7),\n",
      "  Message('note_on', channel=3, note=33, velocity=78, time=0),\n",
      "  Message('note_on', channel=3, note=45, velocity=0, time=89),\n",
      "  Message('note_on', channel=3, note=33, velocity=0, time=0),\n",
      "  Message('note_on', channel=3, note=50, velocity=78, time=7),\n",
      "  Message('note_on', channel=3, note=38, velocity=78, time=0),\n",
      "  Message('note_on', channel=3, note=50, velocity=0, time=89),\n",
      "  Message('note_on', channel=3, note=38, velocity=0, time=0),\n",
      "  Message('note_on', channel=3, note=50, velocity=87, time=295),\n",
      "  Message('note_on', channel=3, note=50, velocity=0, time=23),\n",
      "  Message('note_on', channel=3, note=62, velocity=87, time=1),\n",
      "  Message('note_on', channel=3, note=62, velocity=0, time=23),\n",
      "  Message('note_on', channel=3, note=54, velocity=87, time=1),\n",
      "  Message('note_on', channel=3, note=54, velocity=0, time=23),\n",
      "  Message('note_on', channel=3, note=62, velocity=87, time=1),\n",
      "  Message('note_on', channel=3, note=62, velocity=0, time=23),\n",
      "  Message('note_on', channel=3, note=57, velocity=87, time=1),\n",
      "  Message('note_on', channel=3, note=57, velocity=0, time=23),\n",
      "  Message('note_on', channel=3, note=62, velocity=87, time=1),\n",
      "  Message('note_on', channel=3, note=62, velocity=0, time=23),\n",
      "  Message('note_on', channel=3, note=54, velocity=87, time=1),\n",
      "  Message('note_on', channel=3, note=54, velocity=0, time=23),\n",
      "  Message('note_on', channel=3, note=62, velocity=87, time=1),\n",
      "  Message('note_on', channel=3, note=62, velocity=0, time=23),\n",
      "  Message('note_on', channel=3, note=50, velocity=87, time=1),\n",
      "  Message('note_on', channel=3, note=50, velocity=0, time=23),\n",
      "  Message('note_on', channel=3, note=62, velocity=87, time=1),\n",
      "  Message('note_on', channel=3, note=62, velocity=0, time=23),\n",
      "  Message('note_on', channel=3, note=54, velocity=87, time=1),\n",
      "  Message('note_on', channel=3, note=54, velocity=0, time=23),\n",
      "  Message('note_on', channel=3, note=62, velocity=87, time=1),\n",
      "  Message('note_on', channel=3, note=62, velocity=0, time=23),\n",
      "  Message('note_on', channel=3, note=57, velocity=87, time=1),\n",
      "  Message('note_on', channel=3, note=57, velocity=0, time=23),\n",
      "  Message('note_on', channel=3, note=62, velocity=87, time=1),\n",
      "  Message('note_on', channel=3, note=62, velocity=0, time=23),\n",
      "  Message('note_on', channel=3, note=54, velocity=87, time=1),\n",
      "  Message('note_on', channel=3, note=54, velocity=0, time=23),\n",
      "  Message('note_on', channel=3, note=62, velocity=87, time=1),\n",
      "  Message('note_on', channel=3, note=62, velocity=0, time=23),\n",
      "  Message('note_on', channel=3, note=47, velocity=87, time=1),\n",
      "  Message('note_on', channel=3, note=47, velocity=0, time=20),\n",
      "  Message('note_on', channel=3, note=47, velocity=87, time=28),\n",
      "  Message('note_on', channel=3, note=47, velocity=0, time=20),\n",
      "  Message('note_on', channel=3, note=42, velocity=87, time=28),\n",
      "  Message('note_on', channel=3, note=42, velocity=0, time=20),\n",
      "  Message('note_on', channel=3, note=38, velocity=87, time=28),\n",
      "  Message('note_on', channel=3, note=38, velocity=0, time=20),\n",
      "  Message('note_on', channel=3, note=35, velocity=87, time=28),\n",
      "  Message('note_on', channel=3, note=35, velocity=0, time=20),\n",
      "  Message('note_on', channel=3, note=38, velocity=87, time=28),\n",
      "  Message('note_on', channel=3, note=38, velocity=0, time=20),\n",
      "  Message('note_on', channel=3, note=42, velocity=87, time=28),\n",
      "  Message('note_on', channel=3, note=42, velocity=0, time=20),\n",
      "  Message('note_on', channel=3, note=47, velocity=87, time=28),\n",
      "  Message('note_on', channel=3, note=47, velocity=0, time=20),\n",
      "  Message('note_on', channel=3, note=47, velocity=87, time=28),\n",
      "  Message('note_on', channel=3, note=47, velocity=0, time=23),\n",
      "  Message('note_on', channel=3, note=59, velocity=87, time=1),\n",
      "  Message('note_on', channel=3, note=59, velocity=0, time=23),\n",
      "  Message('note_on', channel=3, note=50, velocity=87, time=1),\n",
      "  Message('note_on', channel=3, note=50, velocity=0, time=23),\n",
      "  Message('note_on', channel=3, note=59, velocity=87, time=1),\n",
      "  Message('note_on', channel=3, note=59, velocity=0, time=23),\n",
      "  Message('note_on', channel=3, note=54, velocity=87, time=1),\n",
      "  Message('note_on', channel=3, note=54, velocity=0, time=23),\n",
      "  Message('note_on', channel=3, note=59, velocity=87, time=1),\n",
      "  Message('note_on', channel=3, note=59, velocity=0, time=23),\n",
      "  Message('note_on', channel=3, note=50, velocity=87, time=1),\n",
      "  Message('note_on', channel=3, note=50, velocity=0, time=23),\n",
      "  Message('note_on', channel=3, note=59, velocity=87, time=1),\n",
      "  Message('note_on', channel=3, note=59, velocity=0, time=23),\n",
      "  Message('note_on', channel=3, note=47, velocity=87, time=1),\n",
      "  Message('note_on', channel=3, note=47, velocity=0, time=23),\n",
      "  Message('note_on', channel=3, note=59, velocity=87, time=1),\n",
      "  Message('note_on', channel=3, note=59, velocity=0, time=23),\n",
      "  Message('note_on', channel=3, note=50, velocity=87, time=1),\n",
      "  Message('note_on', channel=3, note=50, velocity=0, time=23),\n",
      "  Message('note_on', channel=3, note=59, velocity=87, time=1),\n",
      "  Message('note_on', channel=3, note=59, velocity=0, time=23),\n",
      "  Message('note_on', channel=3, note=54, velocity=87, time=1),\n",
      "  Message('note_on', channel=3, note=54, velocity=0, time=23),\n",
      "  Message('note_on', channel=3, note=59, velocity=87, time=1),\n",
      "  Message('note_on', channel=3, note=59, velocity=0, time=23),\n",
      "  Message('note_on', channel=3, note=50, velocity=87, time=1),\n",
      "  Message('note_on', channel=3, note=50, velocity=0, time=23),\n",
      "  Message('note_on', channel=3, note=59, velocity=87, time=1),\n",
      "  Message('note_on', channel=3, note=59, velocity=0, time=23),\n",
      "  Message('note_on', channel=3, note=43, velocity=87, time=1),\n",
      "  Message('note_on', channel=3, note=43, velocity=0, time=20),\n",
      "  Message('note_on', channel=3, note=43, velocity=87, time=28),\n",
      "  Message('note_on', channel=3, note=43, velocity=0, time=20),\n",
      "  Message('note_on', channel=3, note=38, velocity=87, time=28),\n",
      "  Message('note_on', channel=3, note=38, velocity=0, time=20),\n",
      "  Message('note_on', channel=3, note=35, velocity=87, time=28),\n",
      "  Message('note_on', channel=3, note=35, velocity=0, time=20),\n",
      "  Message('note_on', channel=3, note=31, velocity=87, time=28),\n",
      "  Message('note_on', channel=3, note=31, velocity=0, time=20),\n",
      "  Message('note_on', channel=3, note=35, velocity=87, time=28),\n",
      "  Message('note_on', channel=3, note=35, velocity=0, time=20),\n",
      "  Message('note_on', channel=3, note=38, velocity=87, time=28),\n",
      "  Message('note_on', channel=3, note=38, velocity=0, time=20),\n",
      "  Message('note_on', channel=3, note=43, velocity=87, time=28),\n",
      "  Message('note_on', channel=3, note=43, velocity=0, time=20),\n",
      "  Message('note_on', channel=3, note=43, velocity=87, time=28),\n",
      "  Message('note_on', channel=3, note=43, velocity=0, time=23),\n",
      "  Message('note_on', channel=3, note=55, velocity=87, time=1),\n",
      "  Message('note_on', channel=3, note=55, velocity=0, time=23),\n",
      "  Message('note_on', channel=3, note=47, velocity=87, time=1),\n",
      "  Message('note_on', channel=3, note=47, velocity=0, time=23),\n",
      "  Message('note_on', channel=3, note=55, velocity=87, time=1),\n",
      "  Message('note_on', channel=3, note=55, velocity=0, time=23),\n",
      "  Message('note_on', channel=3, note=50, velocity=87, time=1),\n",
      "  Message('note_on', channel=3, note=50, velocity=0, time=23),\n",
      "  Message('note_on', channel=3, note=55, velocity=87, time=1),\n",
      "  Message('note_on', channel=3, note=55, velocity=0, time=23),\n",
      "  Message('note_on', channel=3, note=47, velocity=87, time=1),\n",
      "  Message('note_on', channel=3, note=47, velocity=0, time=23),\n",
      "  Message('note_on', channel=3, note=55, velocity=87, time=1),\n",
      "  Message('note_on', channel=3, note=55, velocity=0, time=23),\n",
      "  Message('note_on', channel=3, note=43, velocity=87, time=1),\n",
      "  Message('note_on', channel=3, note=43, velocity=0, time=23),\n",
      "  Message('note_on', channel=3, note=55, velocity=87, time=1),\n",
      "  Message('note_on', channel=3, note=55, velocity=0, time=23),\n",
      "  Message('note_on', channel=3, note=47, velocity=87, time=1),\n",
      "  Message('note_on', channel=3, note=47, velocity=0, time=23),\n",
      "  Message('note_on', channel=3, note=55, velocity=87, time=1),\n",
      "  Message('note_on', channel=3, note=55, velocity=0, time=23),\n",
      "  Message('note_on', channel=3, note=50, velocity=87, time=1),\n",
      "  Message('note_on', channel=3, note=50, velocity=0, time=23),\n",
      "  Message('note_on', channel=3, note=55, velocity=87, time=1),\n",
      "  Message('note_on', channel=3, note=55, velocity=0, time=23),\n",
      "  Message('note_on', channel=3, note=47, velocity=87, time=1),\n",
      "  Message('note_on', channel=3, note=47, velocity=0, time=23),\n",
      "  Message('note_on', channel=3, note=55, velocity=87, time=1),\n",
      "  Message('note_on', channel=3, note=55, velocity=0, time=23),\n",
      "  Message('note_on', channel=3, note=52, velocity=87, time=1),\n",
      "  Message('note_on', channel=3, note=44, velocity=87, time=0),\n",
      "  Message('note_on', channel=3, note=52, velocity=0, time=177),\n",
      "  Message('note_on', channel=3, note=44, velocity=0, time=0),\n",
      "  Message('note_on', channel=3, note=40, velocity=87, time=15),\n",
      "  Message('note_on', channel=3, note=40, velocity=0, time=177),\n",
      "  Message('note_on', channel=3, note=45, velocity=87, time=15),\n",
      "  Message('note_on', channel=3, note=33, velocity=87, time=0),\n",
      "  Message('note_on', channel=3, note=45, velocity=0, time=177),\n",
      "  Message('note_on', channel=3, note=33, velocity=0, time=0),\n",
      "  Message('note_on', channel=3, note=54, velocity=87, time=15),\n",
      "  Message('note_on', channel=3, note=42, velocity=87, time=0),\n",
      "  Message('note_on', channel=3, note=54, velocity=0, time=177),\n",
      "  Message('note_on', channel=3, note=42, velocity=0, time=0),\n",
      "  Message('note_on', channel=3, note=52, velocity=87, time=15),\n",
      "  Message('note_on', channel=3, note=40, velocity=87, time=0),\n",
      "  Message('note_on', channel=3, note=52, velocity=0, time=177),\n",
      "  Message('note_on', channel=3, note=40, velocity=0, time=0),\n",
      "  Message('note_on', channel=3, note=56, velocity=87, time=63),\n",
      "  Message('note_on', channel=3, note=56, velocity=0, time=45),\n",
      "  Message('note_on', channel=3, note=59, velocity=87, time=3),\n",
      "  Message('note_on', channel=3, note=59, velocity=0, time=45),\n",
      "  Message('note_on', channel=3, note=56, velocity=87, time=3),\n",
      "  Message('note_on', channel=3, note=56, velocity=0, time=45),\n",
      "  Message('note_on', channel=3, note=57, velocity=87, time=51),\n",
      "  Message('note_on', channel=3, note=57, velocity=0, time=45),\n",
      "  Message('note_on', channel=3, note=61, velocity=87, time=3),\n",
      "  Message('note_on', channel=3, note=61, velocity=0, time=45),\n",
      "  Message('note_on', channel=3, note=58, velocity=87, time=3),\n",
      "  Message('note_on', channel=3, note=58, velocity=0, time=45),\n",
      "  Message('note_on', channel=3, note=59, velocity=87, time=51),\n",
      "  Message('note_on', channel=3, note=59, velocity=0, time=23),\n",
      "  Message('note_on', channel=3, note=61, velocity=87, time=1),\n",
      "  Message('note_on', channel=3, note=61, velocity=0, time=23),\n",
      "  Message('note_on', channel=3, note=62, velocity=87, time=1),\n",
      "  Message('note_on', channel=3, note=62, velocity=0, time=45),\n",
      "  Message('note_on', channel=3, note=59, velocity=87, time=3),\n",
      "  Message('note_on', channel=3, note=59, velocity=0, time=45),\n",
      "  Message('note_on', channel=3, note=56, velocity=87, time=51),\n",
      "  Message('note_on', channel=3, note=56, velocity=0, time=45),\n",
      "  Message('note_on', channel=3, note=59, velocity=87, time=3),\n",
      "  Message('note_on', channel=3, note=59, velocity=0, time=45),\n",
      "  Message('note_on', channel=3, note=56, velocity=87, time=3),\n",
      "  Message('note_on', channel=3, note=56, velocity=0, time=45),\n",
      "  Message('note_on', channel=3, note=57, velocity=87, time=51),\n",
      "  Message('note_on', channel=3, note=57, velocity=0, time=23),\n",
      "  Message('note_on', channel=3, note=59, velocity=87, time=1),\n",
      "  Message('note_on', channel=3, note=59, velocity=0, time=23),\n",
      "  Message('note_on', channel=3, note=61, velocity=87, time=1),\n",
      "  Message('note_on', channel=3, note=61, velocity=0, time=45),\n",
      "  Message('note_on', channel=3, note=57, velocity=87, time=3),\n",
      "  Message('note_on', channel=3, note=57, velocity=0, time=45),\n",
      "  Message('note_on', channel=3, note=54, velocity=87, time=51),\n",
      "  Message('note_on', channel=3, note=54, velocity=0, time=45),\n",
      "  Message('note_on', channel=3, note=57, velocity=87, time=3),\n",
      "  Message('note_on', channel=3, note=57, velocity=0, time=45),\n",
      "  Message('note_on', channel=3, note=54, velocity=87, time=3),\n",
      "  Message('note_on', channel=3, note=54, velocity=0, time=45),\n",
      "  Message('note_on', channel=3, note=56, velocity=87, time=51),\n",
      "  Message('note_on', channel=3, note=56, velocity=0, time=23),\n",
      "  Message('note_on', channel=3, note=57, velocity=87, time=1),\n",
      "  Message('note_on', channel=3, note=57, velocity=0, time=23),\n",
      "  Message('note_on', channel=3, note=59, velocity=87, time=1),\n",
      "  Message('note_on', channel=3, note=59, velocity=0, time=45),\n",
      "  Message('note_on', channel=3, note=56, velocity=87, time=3),\n",
      "  Message('note_on', channel=3, note=56, velocity=0, time=45),\n",
      "  Message('note_on', channel=3, note=57, velocity=87, time=51),\n",
      "  Message('note_on', channel=3, note=57, velocity=0, time=23),\n",
      "  Message('note_on', channel=3, note=59, velocity=87, time=1),\n",
      "  Message('note_on', channel=3, note=59, velocity=0, time=23),\n",
      "  Message('note_on', channel=3, note=61, velocity=87, time=1),\n",
      "  Message('note_on', channel=3, note=61, velocity=0, time=45),\n",
      "  Message('note_on', channel=3, note=57, velocity=87, time=3),\n",
      "  Message('note_on', channel=3, note=57, velocity=0, time=45),\n",
      "  Message('note_on', channel=3, note=66, velocity=87, time=51),\n",
      "  Message('note_on', channel=3, note=66, velocity=0, time=23),\n",
      "  Message('note_on', channel=3, note=68, velocity=87, time=1),\n",
      "  Message('note_on', channel=3, note=68, velocity=0, time=23),\n",
      "  Message('note_on', channel=3, note=69, velocity=87, time=1),\n",
      "  Message('note_on', channel=3, note=69, velocity=0, time=45),\n",
      "  Message('note_on', channel=3, note=66, velocity=87, time=3),\n",
      "  Message('note_on', channel=3, note=66, velocity=0, time=45),\n",
      "  Message('note_on', channel=3, note=52, velocity=87, time=3),\n",
      "  Message('note_on', channel=3, note=52, velocity=0, time=20),\n",
      "  Message('note_on', channel=3, note=64, velocity=87, time=28),\n",
      "  Message('note_on', channel=3, note=64, velocity=0, time=20),\n",
      "  Message('note_on', channel=3, note=50, velocity=87, time=28),\n",
      "  Message('note_on', channel=3, note=50, velocity=0, time=20),\n",
      "  Message('note_on', channel=3, note=62, velocity=87, time=28),\n",
      "  Message('note_on', channel=3, note=62, velocity=0, time=20),\n",
      "  Message('note_on', channel=3, note=49, velocity=87, time=28),\n",
      "  Message('note_on', channel=3, note=49, velocity=0, time=20),\n",
      "  Message('note_on', channel=3, note=61, velocity=87, time=28),\n",
      "  Message('note_on', channel=3, note=61, velocity=0, time=20),\n",
      "  Message('note_on', channel=3, note=47, velocity=87, time=28),\n",
      "  Message('note_on', channel=3, note=47, velocity=0, time=20),\n",
      "  Message('note_on', channel=3, note=59, velocity=87, time=28),\n",
      "  Message('note_on', channel=3, note=59, velocity=0, time=20),\n",
      "  Message('note_on', channel=3, note=57, velocity=87, time=28),\n",
      "  Message('note_on', channel=3, note=57, velocity=0, time=89),\n",
      "  Message('note_on', channel=3, note=57, velocity=87, time=7),\n",
      "  Message('note_on', channel=3, note=57, velocity=0, time=177),\n",
      "  Message('note_on', channel=3, note=57, velocity=87, time=15),\n",
      "  Message('note_on', channel=3, note=57, velocity=0, time=89),\n",
      "  Message('note_on', channel=3, note=57, velocity=87, time=7),\n",
      "  Message('note_on', channel=3, note=52, velocity=87, time=0),\n",
      "  Message('note_on', channel=3, note=57, velocity=0, time=20),\n",
      "  Message('note_on', channel=3, note=52, velocity=0, time=0),\n",
      "  Message('note_on', channel=3, note=57, velocity=87, time=28),\n",
      "  Message('note_on', channel=3, note=52, velocity=87, time=0),\n",
      "  Message('note_on', channel=3, note=57, velocity=0, time=20),\n",
      "  Message('note_on', channel=3, note=52, velocity=0, time=0),\n",
      "  Message('note_on', channel=3, note=61, velocity=87, time=28),\n",
      "  Message('note_on', channel=3, note=52, velocity=87, time=0),\n",
      "  Message('note_on', channel=3, note=61, velocity=0, time=20),\n",
      "  Message('note_on', channel=3, note=52, velocity=0, time=0),\n",
      "  Message('note_on', channel=3, note=61, velocity=87, time=28),\n",
      "  Message('note_on', channel=3, note=52, velocity=87, time=0),\n",
      "  Message('note_on', channel=3, note=61, velocity=0, time=20),\n",
      "  Message('note_on', channel=3, note=52, velocity=0, time=0),\n",
      "  Message('note_on', channel=3, note=62, velocity=87, time=28),\n",
      "  Message('note_on', channel=3, note=52, velocity=87, time=0),\n",
      "  Message('note_on', channel=3, note=62, velocity=0, time=20),\n",
      "  Message('note_on', channel=3, note=52, velocity=0, time=0),\n",
      "  Message('note_on', channel=3, note=62, velocity=87, time=28),\n",
      "  Message('note_on', channel=3, note=52, velocity=87, time=0),\n",
      "  Message('note_on', channel=3, note=62, velocity=0, time=20),\n",
      "  Message('note_on', channel=3, note=52, velocity=0, time=0),\n",
      "  Message('note_on', channel=3, note=62, velocity=87, time=28),\n",
      "  Message('note_on', channel=3, note=52, velocity=87, time=0),\n",
      "  Message('note_on', channel=3, note=62, velocity=0, time=20),\n",
      "  Message('note_on', channel=3, note=52, velocity=0, time=0),\n",
      "  Message('note_on', channel=3, note=62, velocity=87, time=28),\n",
      "  Message('note_on', channel=3, note=52, velocity=87, time=0),\n",
      "  Message('note_on', channel=3, note=62, velocity=0, time=20),\n",
      "  Message('note_on', channel=3, note=52, velocity=0, time=0),\n",
      "  Message('note_on', channel=3, note=57, velocity=87, time=28),\n",
      "  Message('note_on', channel=3, note=57, velocity=0, time=20),\n",
      "  Message('note_on', channel=3, note=52, velocity=87, time=28),\n",
      "  Message('note_on', channel=3, note=52, velocity=0, time=20),\n",
      "  Message('note_on', channel=3, note=49, velocity=87, time=28),\n",
      "  Message('note_on', channel=3, note=49, velocity=0, time=20),\n",
      "  Message('note_on', channel=3, note=52, velocity=87, time=28),\n",
      "  Message('note_on', channel=3, note=52, velocity=0, time=20),\n",
      "  Message('note_on', channel=3, note=45, velocity=87, time=28),\n",
      "  Message('note_on', channel=3, note=45, velocity=0, time=89),\n",
      "  Message('note_on', channel=3, note=62, velocity=73, time=391),\n",
      "  Message('note_on', channel=3, note=56, velocity=73, time=0),\n",
      "  Message('note_on', channel=3, note=62, velocity=0, time=39),\n",
      "  Message('note_on', channel=3, note=56, velocity=0, time=0),\n",
      "  Message('note_on', channel=3, note=62, velocity=73, time=57),\n",
      "  Message('note_on', channel=3, note=62, velocity=0, time=89),\n",
      "  Message('note_on', channel=3, note=61, velocity=73, time=7),\n",
      "  Message('note_on', channel=3, note=61, velocity=0, time=89),\n",
      "  Message('note_on', channel=3, note=59, velocity=73, time=7),\n",
      "  Message('note_on', channel=3, note=59, velocity=0, time=89),\n",
      "  Message('note_on', channel=3, note=64, velocity=73, time=391),\n",
      "  Message('note_on', channel=3, note=56, velocity=73, time=0),\n",
      "  Message('note_on', channel=3, note=64, velocity=0, time=89),\n",
      "  Message('note_on', channel=3, note=56, velocity=0, time=0),\n",
      "  Message('note_on', channel=3, note=64, velocity=73, time=7),\n",
      "  Message('note_on', channel=3, note=64, velocity=0, time=177),\n",
      "  Message('note_on', channel=3, note=64, velocity=73, time=15),\n",
      "  Message('note_on', channel=3, note=64, velocity=0, time=89),\n",
      "  Message('note_on', channel=3, note=62, velocity=73, time=391),\n",
      "  Message('note_on', channel=3, note=56, velocity=73, time=0),\n",
      "  Message('note_on', channel=3, note=62, velocity=0, time=39),\n",
      "  Message('note_on', channel=3, note=56, velocity=0, time=0),\n",
      "  Message('note_on', channel=3, note=62, velocity=73, time=57),\n",
      "  Message('note_on', channel=3, note=62, velocity=0, time=89),\n",
      "  Message('note_on', channel=3, note=61, velocity=73, time=7),\n",
      "  Message('note_on', channel=3, note=61, velocity=0, time=89),\n",
      "  Message('note_on', channel=3, note=59, velocity=73, time=7),\n",
      "  Message('note_on', channel=3, note=59, velocity=0, time=89),\n",
      "  Message('note_on', channel=3, note=57, velocity=73, time=103),\n",
      "  Message('note_on', channel=3, note=49, velocity=73, time=0),\n",
      "  Message('note_on', channel=3, note=57, velocity=0, time=89),\n",
      "  Message('note_on', channel=3, note=49, velocity=0, time=0),\n",
      "  Message('note_on', channel=3, note=59, velocity=77, time=7),\n",
      "  Message('note_on', channel=3, note=50, velocity=77, time=0),\n",
      "  Message('note_on', channel=3, note=59, velocity=0, time=89),\n",
      "  Message('note_on', channel=3, note=50, velocity=0, time=0),\n",
      "  Message('note_on', channel=3, note=61, velocity=82, time=7),\n",
      "  Message('note_on', channel=3, note=52, velocity=82, time=0),\n",
      "  Message('note_on', channel=3, note=61, velocity=0, time=89),\n",
      "  Message('note_on', channel=3, note=52, velocity=0, time=0),\n",
      "  Message('note_on', channel=3, note=62, velocity=79, time=7),\n",
      "  Message('note_on', channel=3, note=52, velocity=79, time=0),\n",
      "  Message('note_on', channel=3, note=62, velocity=0, time=89),\n",
      "  Message('note_on', channel=3, note=52, velocity=0, time=0),\n",
      "  Message('note_on', channel=3, note=61, velocity=76, time=7),\n",
      "  Message('note_on', channel=3, note=57, velocity=76, time=0),\n",
      "  Message('note_on', channel=3, note=61, velocity=0, time=89),\n",
      "  Message('note_on', channel=3, note=57, velocity=0, time=0),\n",
      "  Message('note_on', channel=3, note=45, velocity=73, time=679),\n",
      "  Message('note_on', channel=3, note=45, velocity=0, time=45),\n",
      "  Message('note_on', channel=3, note=44, velocity=73, time=3),\n",
      "  Message('note_on', channel=3, note=44, velocity=0, time=45),\n",
      "  Message('note_on', channel=3, note=42, velocity=73, time=3),\n",
      "  Message('note_on', channel=3, note=42, velocity=0, time=45),\n",
      "  Message('note_on', channel=3, note=40, velocity=73, time=3),\n",
      "  Message('note_on', channel=3, note=40, velocity=0, time=45),\n",
      "  Message('note_on', channel=3, note=45, velocity=73, time=3),\n",
      "  Message('note_on', channel=3, note=45, velocity=0, time=39),\n",
      "  Message('note_on', channel=3, note=47, velocity=74, time=57),\n",
      "  Message('note_on', channel=3, note=47, velocity=0, time=39),\n",
      "  Message('note_on', channel=3, note=49, velocity=91, time=57),\n",
      "  Message('note_on', channel=3, note=49, velocity=0, time=237),\n",
      "  Message('note_on', channel=3, note=52, velocity=76, time=3),\n",
      "  Message('note_on', channel=3, note=52, velocity=0, time=45),\n",
      "  Message('note_on', channel=3, note=50, velocity=75, time=3),\n",
      "  Message('note_on', channel=3, note=50, velocity=0, time=45),\n",
      "  Message('note_on', channel=3, note=47, velocity=74, time=3),\n",
      "  Message('note_on', channel=3, note=47, velocity=0, time=45),\n",
      "  Message('note_on', channel=3, note=45, velocity=73, time=3),\n",
      "  Message('note_on', channel=3, note=45, velocity=0, time=45),\n",
      "  Message('note_on', channel=3, note=44, velocity=73, time=3),\n",
      "  Message('note_on', channel=3, note=44, velocity=0, time=45),\n",
      "  Message('note_on', channel=3, note=42, velocity=73, time=3),\n",
      "  Message('note_on', channel=3, note=42, velocity=0, time=45),\n",
      "  Message('note_on', channel=3, note=40, velocity=73, time=3),\n",
      "  Message('note_on', channel=3, note=40, velocity=0, time=45),\n",
      "  Message('note_on', channel=3, note=45, velocity=73, time=3),\n",
      "  Message('note_on', channel=3, note=45, velocity=0, time=39),\n",
      "  Message('note_on', channel=3, note=47, velocity=74, time=57),\n",
      "  Message('note_on', channel=3, note=47, velocity=0, time=39),\n",
      "  Message('note_on', channel=3, note=50, velocity=91, time=57),\n",
      "  Message('note_on', channel=3, note=50, velocity=0, time=192),\n",
      "  Message('note_on', channel=3, note=49, velocity=78, time=0),\n",
      "  Message('note_on', channel=3, note=49, velocity=0, time=67),\n",
      "  Message('note_on', channel=3, note=50, velocity=76, time=5),\n",
      "  Message('note_on', channel=3, note=50, velocity=0, time=23),\n",
      "  Message('note_on', channel=3, note=47, velocity=75, time=1),\n",
      "  Message('note_on', channel=3, note=47, velocity=0, time=67),\n",
      "  Message('note_on', channel=3, note=49, velocity=73, time=5),\n",
      "  Message('note_on', channel=3, note=49, velocity=0, time=23),\n",
      "  Message('note_on', channel=3, note=45, velocity=73, time=1),\n",
      "  Message('note_on', channel=3, note=45, velocity=0, time=45),\n",
      "  Message('note_on', channel=3, note=44, velocity=73, time=3),\n",
      "  Message('note_on', channel=3, note=44, velocity=0, time=45),\n",
      "  Message('note_on', channel=3, note=42, velocity=73, time=3),\n",
      "  Message('note_on', channel=3, note=42, velocity=0, time=12),\n",
      "  Message('note_on', channel=3, note=43, velocity=73, time=0),\n",
      "  Message('note_on', channel=3, note=43, velocity=0, time=12),\n",
      "  Message('note_on', channel=3, note=42, velocity=73, time=0),\n",
      "  Message('note_on', channel=3, note=42, velocity=0, time=21),\n",
      "  Message('note_on', channel=3, note=40, velocity=73, time=3),\n",
      "  Message('note_on', channel=3, note=40, velocity=0, time=45),\n",
      "  Message('note_on', channel=3, note=45, velocity=73, time=3),\n",
      "  Message('note_on', channel=3, note=45, velocity=0, time=39),\n",
      "  Message('note_on', channel=3, note=44, velocity=73, time=57),\n",
      "  Message('note_on', channel=3, note=41, velocity=73, time=0),\n",
      "  Message('note_on', channel=3, note=44, velocity=0, time=39),\n",
      "  Message('note_on', channel=3, note=41, velocity=0, time=0),\n",
      "  Message('note_on', channel=3, note=45, velocity=73, time=57),\n",
      "  Message('note_on', channel=3, note=42, velocity=73, time=0),\n",
      "  Message('note_on', channel=3, note=45, velocity=0, time=89),\n",
      "  Message('note_on', channel=3, note=42, velocity=0, time=0),\n",
      "  Message('note_on', channel=3, note=33, velocity=73, time=295),\n",
      "  Message('note_on', channel=3, note=33, velocity=0, time=45),\n",
      "  Message('note_on', channel=3, note=45, velocity=73, time=3),\n",
      "  Message('note_on', channel=3, note=45, velocity=0, time=45),\n",
      "  Message('note_on', channel=3, note=45, velocity=73, time=3),\n",
      "  Message('note_on', channel=3, note=45, velocity=0, time=45),\n",
      "  Message('note_on', channel=3, note=45, velocity=73, time=3),\n",
      "  Message('note_on', channel=3, note=45, velocity=0, time=45),\n",
      "  Message('note_on', channel=3, note=45, velocity=73, time=3),\n",
      "  Message('note_on', channel=3, note=45, velocity=0, time=45),\n",
      "  Message('note_on', channel=3, note=45, velocity=74, time=3),\n",
      "  Message('note_on', channel=3, note=45, velocity=0, time=45),\n",
      "  Message('note_on', channel=3, note=45, velocity=74, time=3),\n",
      "  Message('note_on', channel=3, note=45, velocity=0, time=45),\n",
      "  Message('note_on', channel=3, note=45, velocity=74, time=3),\n",
      "  Message('note_on', channel=3, note=45, velocity=0, time=45),\n",
      "  Message('note_on', channel=3, note=45, velocity=75, time=3),\n",
      "  Message('note_on', channel=3, note=45, velocity=0, time=89),\n",
      "  Message('note_on', channel=3, note=33, velocity=77, time=295),\n",
      "  Message('note_on', channel=3, note=33, velocity=0, time=45),\n",
      "  Message('note_on', channel=3, note=45, velocity=77, time=3),\n",
      "  Message('note_on', channel=3, note=45, velocity=0, time=45),\n",
      "  Message('note_on', channel=3, note=45, velocity=78, time=3),\n",
      "  Message('note_on', channel=3, note=45, velocity=0, time=45),\n",
      "  Message('note_on', channel=3, note=45, velocity=78, time=3),\n",
      "  Message('note_on', channel=3, note=45, velocity=0, time=45),\n",
      "  Message('note_on', channel=3, note=45, velocity=78, time=3),\n",
      "  Message('note_on', channel=3, note=45, velocity=0, time=45),\n",
      "  Message('note_on', channel=3, note=45, velocity=78, time=3),\n",
      "  Message('note_on', channel=3, note=45, velocity=0, time=45),\n",
      "  Message('note_on', channel=3, note=45, velocity=79, time=3),\n",
      "  Message('note_on', channel=3, note=45, velocity=0, time=45),\n",
      "  Message('note_on', channel=3, note=45, velocity=79, time=3),\n",
      "  Message('note_on', channel=3, note=45, velocity=0, time=45),\n",
      "  Message('note_on', channel=3, note=45, velocity=79, time=3),\n",
      "  Message('note_on', channel=3, note=45, velocity=0, time=89),\n",
      "  Message('note_on', channel=3, note=33, velocity=82, time=295),\n",
      "  Message('note_on', channel=3, note=33, velocity=0, time=45),\n",
      "  Message('note_on', channel=3, note=45, velocity=82, time=3),\n",
      "  Message('note_on', channel=3, note=45, velocity=0, time=45),\n",
      "  Message('note_on', channel=3, note=45, velocity=82, time=3),\n",
      "  Message('note_on', channel=3, note=45, velocity=0, time=45),\n",
      "  Message('note_on', channel=3, note=45, velocity=83, time=3),\n",
      "  Message('note_on', channel=3, note=45, velocity=0, time=45),\n",
      "  Message('note_on', channel=3, note=45, velocity=83, time=3),\n",
      "  Message('note_on', channel=3, note=45, velocity=0, time=45),\n",
      "  Message('note_on', channel=3, note=45, velocity=83, time=3),\n",
      "  Message('note_on', channel=3, note=45, velocity=0, time=45),\n",
      "  Message('note_on', channel=3, note=45, velocity=84, time=3),\n",
      "  Message('note_on', channel=3, note=45, velocity=0, time=45),\n",
      "  Message('note_on', channel=3, note=45, velocity=84, time=3),\n",
      "  Message('note_on', channel=3, note=45, velocity=0, time=45),\n",
      "  Message('note_on', channel=3, note=33, velocity=84, time=3),\n",
      "  Message('note_on', channel=3, note=33, velocity=0, time=45),\n",
      "  Message('note_on', channel=3, note=45, velocity=84, time=3),\n",
      "  Message('note_on', channel=3, note=45, velocity=0, time=45),\n",
      "  Message('note_on', channel=3, note=45, velocity=85, time=3),\n",
      "  Message('note_on', channel=3, note=45, velocity=0, time=45),\n",
      "  Message('note_on', channel=3, note=45, velocity=85, time=3),\n",
      "  Message('note_on', channel=3, note=45, velocity=0, time=45),\n",
      "  Message('note_on', channel=3, note=45, velocity=85, time=3),\n",
      "  Message('note_on', channel=3, note=45, velocity=0, time=45),\n",
      "  Message('note_on', channel=3, note=45, velocity=86, time=3),\n",
      "  Message('note_on', channel=3, note=45, velocity=0, time=45),\n",
      "  Message('note_on', channel=3, note=45, velocity=86, time=3),\n",
      "  Message('note_on', channel=3, note=45, velocity=0, time=45),\n",
      "  Message('note_on', channel=3, note=45, velocity=86, time=3),\n",
      "  Message('note_on', channel=3, note=45, velocity=0, time=45),\n",
      "  Message('note_on', channel=3, note=45, velocity=87, time=3),\n",
      "  Message('note_on', channel=3, note=33, velocity=87, time=0),\n",
      "  Message('note_on', channel=3, note=45, velocity=0, time=45),\n",
      "  Message('note_on', channel=3, note=33, velocity=0, time=0),\n",
      "  Message('note_on', channel=3, note=45, velocity=87, time=3),\n",
      "  Message('note_on', channel=3, note=33, velocity=87, time=0),\n",
      "  Message('note_on', channel=3, note=45, velocity=0, time=45),\n",
      "  Message('note_on', channel=3, note=33, velocity=0, time=0),\n",
      "  Message('note_on', channel=3, note=45, velocity=87, time=3),\n",
      "  Message('note_on', channel=3, note=33, velocity=87, time=0),\n",
      "  Message('note_on', channel=3, note=45, velocity=0, time=45),\n",
      "  Message('note_on', channel=3, note=33, velocity=0, time=0),\n",
      "  Message('note_on', channel=3, note=45, velocity=87, time=3),\n",
      "  Message('note_on', channel=3, note=33, velocity=87, time=0),\n",
      "  Message('note_on', channel=3, note=45, velocity=0, time=45),\n",
      "  Message('note_on', channel=3, note=33, velocity=0, time=0),\n",
      "  Message('note_on', channel=3, note=45, velocity=87, time=3),\n",
      "  Message('note_on', channel=3, note=33, velocity=87, time=0),\n",
      "  Message('note_on', channel=3, note=45, velocity=0, time=45),\n",
      "  Message('note_on', channel=3, note=33, velocity=0, time=0),\n",
      "  Message('note_on', channel=3, note=45, velocity=87, time=3),\n",
      "  Message('note_on', channel=3, note=33, velocity=87, time=0),\n",
      "  Message('note_on', channel=3, note=45, velocity=0, time=45),\n",
      "  Message('note_on', channel=3, note=33, velocity=0, time=0),\n",
      "  Message('note_on', channel=3, note=45, velocity=87, time=3),\n",
      "  Message('note_on', channel=3, note=33, velocity=87, time=0),\n",
      "  Message('note_on', channel=3, note=45, velocity=0, time=45),\n",
      "  Message('note_on', channel=3, note=33, velocity=0, time=0),\n",
      "  Message('note_on', channel=3, note=45, velocity=87, time=3),\n",
      "  Message('note_on', channel=3, note=33, velocity=87, time=0),\n",
      "  Message('note_on', channel=3, note=45, velocity=0, time=45),\n",
      "  Message('note_on', channel=3, note=33, velocity=0, time=0),\n",
      "  Message('note_on', channel=3, note=45, velocity=87, time=3),\n",
      "  Message('note_on', channel=3, note=45, velocity=0, time=23),\n",
      "  Message('note_on', channel=3, note=44, velocity=87, time=1),\n",
      "  Message('note_on', channel=3, note=44, velocity=0, time=23),\n",
      "  Message('note_on', channel=3, note=45, velocity=87, time=1),\n",
      "  Message('note_on', channel=3, note=45, velocity=0, time=23),\n",
      "  Message('note_on', channel=3, note=44, velocity=87, time=1),\n",
      "  Message('note_on', channel=3, note=44, velocity=0, time=23),\n",
      "  Message('note_on', channel=3, note=45, velocity=87, time=1),\n",
      "  Message('note_on', channel=3, note=45, velocity=0, time=23),\n",
      "  Message('note_on', channel=3, note=44, velocity=87, time=1),\n",
      "  Message('note_on', channel=3, note=44, velocity=0, time=23),\n",
      "  Message('note_on', channel=3, note=45, velocity=87, time=1),\n",
      "  Message('note_on', channel=3, note=45, velocity=0, time=23),\n",
      "  Message('note_on', channel=3, note=44, velocity=87, time=1),\n",
      "  Message('note_on', channel=3, note=44, velocity=0, time=23),\n",
      "  Message('note_on', channel=3, note=45, velocity=87, time=1),\n",
      "  Message('note_on', channel=3, note=45, velocity=0, time=23),\n",
      "  Message('note_on', channel=3, note=47, velocity=87, time=1),\n",
      "  Message('note_on', channel=3, note=47, velocity=0, time=23),\n",
      "  Message('note_on', channel=3, note=49, velocity=87, time=1),\n",
      "  Message('note_on', channel=3, note=49, velocity=0, time=23),\n",
      "  Message('note_on', channel=3, note=50, velocity=87, time=1),\n",
      "  Message('note_on', channel=3, note=50, velocity=0, time=23),\n",
      "  Message('note_on', channel=3, note=52, velocity=87, time=1),\n",
      "  Message('note_on', channel=3, note=52, velocity=0, time=23),\n",
      "  Message('note_on', channel=3, note=54, velocity=87, time=1),\n",
      "  Message('note_on', channel=3, note=54, velocity=0, time=23),\n",
      "  Message('note_on', channel=3, note=56, velocity=87, time=1),\n",
      "  Message('note_on', channel=3, note=56, velocity=0, time=23),\n",
      "  Message('note_on', channel=3, note=57, velocity=87, time=1),\n",
      "  Message('note_on', channel=3, note=57, velocity=0, time=23),\n",
      "  Message('note_on', channel=3, note=42, velocity=87, time=1),\n",
      "  Message('note_on', channel=3, note=42, velocity=0, time=23),\n",
      "  Message('note_on', channel=3, note=41, velocity=87, time=1),\n",
      "  Message('note_on', channel=3, note=41, velocity=0, time=23),\n",
      "  Message('note_on', channel=3, note=42, velocity=87, time=1),\n",
      "  Message('note_on', channel=3, note=42, velocity=0, time=23),\n",
      "  Message('note_on', channel=3, note=41, velocity=87, time=1),\n",
      "  Message('note_on', channel=3, note=41, velocity=0, time=23),\n",
      "  Message('note_on', channel=3, note=42, velocity=87, time=1),\n",
      "  Message('note_on', channel=3, note=42, velocity=0, time=23),\n",
      "  Message('note_on', channel=3, note=41, velocity=87, time=1),\n",
      "  Message('note_on', channel=3, note=41, velocity=0, time=23),\n",
      "  Message('note_on', channel=3, note=42, velocity=87, time=1),\n",
      "  Message('note_on', channel=3, note=42, velocity=0, time=23),\n",
      "  Message('note_on', channel=3, note=41, velocity=87, time=1),\n",
      "  Message('note_on', channel=3, note=41, velocity=0, time=23),\n",
      "  Message('note_on', channel=3, note=42, velocity=87, time=1),\n",
      "  Message('note_on', channel=3, note=42, velocity=0, time=23),\n",
      "  Message('note_on', channel=3, note=44, velocity=87, time=1),\n",
      "  Message('note_on', channel=3, note=44, velocity=0, time=23),\n",
      "  Message('note_on', channel=3, note=45, velocity=87, time=1),\n",
      "  Message('note_on', channel=3, note=45, velocity=0, time=23),\n",
      "  Message('note_on', channel=3, note=47, velocity=87, time=1),\n",
      "  Message('note_on', channel=3, note=47, velocity=0, time=23),\n",
      "  Message('note_on', channel=3, note=49, velocity=87, time=1),\n",
      "  Message('note_on', channel=3, note=49, velocity=0, time=23),\n",
      "  Message('note_on', channel=3, note=50, velocity=87, time=1),\n",
      "  Message('note_on', channel=3, note=50, velocity=0, time=23),\n",
      "  Message('note_on', channel=3, note=52, velocity=87, time=1),\n",
      "  Message('note_on', channel=3, note=52, velocity=0, time=23),\n",
      "  Message('note_on', channel=3, note=54, velocity=87, time=1),\n",
      "  Message('note_on', channel=3, note=54, velocity=0, time=23),\n",
      "  Message('note_on', channel=3, note=38, velocity=87, time=1),\n",
      "  Message('note_on', channel=3, note=38, velocity=0, time=23),\n",
      "  Message('note_on', channel=3, note=37, velocity=87, time=1),\n",
      "  Message('note_on', channel=3, note=37, velocity=0, time=23),\n",
      "  Message('note_on', channel=3, note=38, velocity=87, time=1),\n",
      "  Message('note_on', channel=3, note=38, velocity=0, time=23),\n",
      "  Message('note_on', channel=3, note=37, velocity=87, time=1),\n",
      "  Message('note_on', channel=3, note=37, velocity=0, time=23),\n",
      "  Message('note_on', channel=3, note=38, velocity=87, time=1),\n",
      "  Message('note_on', channel=3, note=38, velocity=0, time=23),\n",
      "  Message('note_on', channel=3, note=37, velocity=87, time=1),\n",
      "  Message('note_on', channel=3, note=37, velocity=0, time=23),\n",
      "  Message('note_on', channel=3, note=38, velocity=87, time=1),\n",
      "  Message('note_on', channel=3, note=38, velocity=0, time=23),\n",
      "  Message('note_on', channel=3, note=37, velocity=87, time=1),\n",
      "  Message('note_on', channel=3, note=37, velocity=0, time=23),\n",
      "  Message('note_on', channel=3, note=38, velocity=87, time=1),\n",
      "  Message('note_on', channel=3, note=38, velocity=0, time=23),\n",
      "  Message('note_on', channel=3, note=40, velocity=87, time=1),\n",
      "  Message('note_on', channel=3, note=40, velocity=0, time=23),\n",
      "  Message('note_on', channel=3, note=42, velocity=87, time=1),\n",
      "  Message('note_on', channel=3, note=42, velocity=0, time=23),\n",
      "  Message('note_on', channel=3, note=44, velocity=87, time=1),\n",
      "  Message('note_on', channel=3, note=44, velocity=0, time=23),\n",
      "  Message('note_on', channel=3, note=45, velocity=87, time=1),\n",
      "  Message('note_on', channel=3, note=45, velocity=0, time=23),\n",
      "  Message('note_on', channel=3, note=47, velocity=87, time=1),\n",
      "  Message('note_on', channel=3, note=47, velocity=0, time=23),\n",
      "  Message('note_on', channel=3, note=49, velocity=87, time=1),\n",
      "  Message('note_on', channel=3, note=49, velocity=0, time=23),\n",
      "  Message('note_on', channel=3, note=50, velocity=87, time=1),\n",
      "  Message('note_on', channel=3, note=50, velocity=0, time=23),\n",
      "  Message('note_on', channel=3, note=35, velocity=87, time=1),\n",
      "  Message('note_on', channel=3, note=35, velocity=0, time=23),\n",
      "  Message('note_on', channel=3, note=34, velocity=87, time=1),\n",
      "  Message('note_on', channel=3, note=34, velocity=0, time=23),\n",
      "  Message('note_on', channel=3, note=35, velocity=87, time=1),\n",
      "  Message('note_on', channel=3, note=35, velocity=0, time=23),\n",
      "  Message('note_on', channel=3, note=34, velocity=87, time=1),\n",
      "  Message('note_on', channel=3, note=34, velocity=0, time=23),\n",
      "  Message('note_on', channel=3, note=35, velocity=87, time=1),\n",
      "  Message('note_on', channel=3, note=35, velocity=0, time=23),\n",
      "  Message('note_on', channel=3, note=34, velocity=87, time=1),\n",
      "  Message('note_on', channel=3, note=34, velocity=0, time=23),\n",
      "  Message('note_on', channel=3, note=35, velocity=87, time=1),\n",
      "  Message('note_on', channel=3, note=35, velocity=0, time=23),\n",
      "  Message('note_on', channel=3, note=34, velocity=87, time=1),\n",
      "  Message('note_on', channel=3, note=34, velocity=0, time=23),\n",
      "  Message('note_on', channel=3, note=35, velocity=87, time=1),\n",
      "  Message('note_on', channel=3, note=35, velocity=0, time=23),\n",
      "  Message('note_on', channel=3, note=37, velocity=87, time=1),\n",
      "  Message('note_on', channel=3, note=37, velocity=0, time=23),\n",
      "  Message('note_on', channel=3, note=38, velocity=87, time=1),\n",
      "  Message('note_on', channel=3, note=38, velocity=0, time=23),\n",
      "  Message('note_on', channel=3, note=40, velocity=87, time=1),\n",
      "  Message('note_on', channel=3, note=40, velocity=0, time=23),\n",
      "  Message('note_on', channel=3, note=42, velocity=87, time=1),\n",
      "  Message('note_on', channel=3, note=42, velocity=0, time=23),\n",
      "  Message('note_on', channel=3, note=44, velocity=87, time=1),\n",
      "  Message('note_on', channel=3, note=44, velocity=0, time=23),\n",
      "  Message('note_on', channel=3, note=45, velocity=87, time=1),\n",
      "  Message('note_on', channel=3, note=45, velocity=0, time=23),\n",
      "  Message('note_on', channel=3, note=47, velocity=87, time=1),\n",
      "  Message('note_on', channel=3, note=47, velocity=0, time=23),\n",
      "  Message('note_on', channel=3, note=44, velocity=87, time=1),\n",
      "  Message('note_on', channel=3, note=32, velocity=87, time=0),\n",
      "  Message('note_on', channel=3, note=44, velocity=0, time=89),\n",
      "  Message('note_on', channel=3, note=32, velocity=0, time=0),\n",
      "  Message('note_on', channel=3, note=45, velocity=87, time=103),\n",
      "  Message('note_on', channel=3, note=33, velocity=87, time=0),\n",
      "  Message('note_on', channel=3, note=45, velocity=0, time=89),\n",
      "  Message('note_on', channel=3, note=33, velocity=0, time=0),\n",
      "  Message('note_on', channel=3, note=42, velocity=87, time=103),\n",
      "  Message('note_on', channel=3, note=30, velocity=87, time=0),\n",
      "  Message('note_on', channel=3, note=42, velocity=0, time=89),\n",
      "  Message('note_on', channel=3, note=30, velocity=0, time=0),\n",
      "  Message('note_on', channel=3, note=44, velocity=87, time=103),\n",
      "  Message('note_on', channel=3, note=32, velocity=87, time=0),\n",
      "  Message('note_on', channel=3, note=44, velocity=0, time=89),\n",
      "  Message('note_on', channel=3, note=32, velocity=0, time=0),\n",
      "  Message('note_on', channel=3, note=45, velocity=87, time=103),\n",
      "  Message('note_on', channel=3, note=33, velocity=87, time=0),\n",
      "  Message('note_on', channel=3, note=45, velocity=0, time=89),\n",
      "  Message('note_on', channel=3, note=33, velocity=0, time=0),\n",
      "  Message('note_on', channel=3, note=54, velocity=87, time=103),\n",
      "  Message('note_on', channel=3, note=42, velocity=87, time=0),\n",
      "  Message('note_on', channel=3, note=54, velocity=0, time=89),\n",
      "  Message('note_on', channel=3, note=42, velocity=0, time=0),\n",
      "  Message('note_on', channel=3, note=50, velocity=87, time=103),\n",
      "  Message('note_on', channel=3, note=38, velocity=87, time=0),\n",
      "  Message('note_on', channel=3, note=50, velocity=0, time=89),\n",
      "  Message('note_on', channel=3, note=38, velocity=0, time=0),\n",
      "  Message('note_on', channel=3, note=52, velocity=87, time=103),\n",
      "  Message('note_on', channel=3, note=40, velocity=87, time=0),\n",
      "  Message('note_on', channel=3, note=52, velocity=0, time=89),\n",
      "  Message('note_on', channel=3, note=40, velocity=0, time=0),\n",
      "  Message('note_on', channel=3, note=45, velocity=87, time=103),\n",
      "  Message('note_on', channel=3, note=33, velocity=87, time=0),\n",
      "  Message('note_on', channel=3, note=45, velocity=0, time=89),\n",
      "  Message('note_on', channel=3, note=33, velocity=0, time=0),\n",
      "  Message('note_on', channel=3, note=49, velocity=73, time=199),\n",
      "  Message('note_on', channel=3, note=49, velocity=0, time=20),\n",
      "  Message('note_on', channel=3, note=47, velocity=73, time=28),\n",
      "  Message('note_on', channel=3, note=47, velocity=0, time=20),\n",
      "  Message('note_on', channel=3, note=66, velocity=73, time=28),\n",
      "  Message('note_on', channel=3, note=66, velocity=0, time=23),\n",
      "  Message('note_on', channel=3, note=67, velocity=73, time=1),\n",
      "  Message('note_on', channel=3, note=67, velocity=0, time=23),\n",
      "  Message('note_on', channel=3, note=66, velocity=73, time=1),\n",
      "  Message('note_on', channel=3, note=66, velocity=0, time=23),\n",
      "  Message('note_on', channel=3, note=65, velocity=73, time=1),\n",
      "  Message('note_on', channel=3, note=65, velocity=0, time=23),\n",
      "  Message('note_on', channel=3, note=66, velocity=73, time=1),\n",
      "  Message('note_on', channel=3, note=66, velocity=0, time=23),\n",
      "  Message('note_on', channel=3, note=67, velocity=73, time=1),\n",
      "  Message('note_on', channel=3, note=67, velocity=0, time=23),\n",
      "  Message('note_on', channel=3, note=64, velocity=73, time=1),\n",
      "  Message('note_on', channel=3, note=64, velocity=0, time=23),\n",
      "  Message('note_on', channel=3, note=66, velocity=73, time=1),\n",
      "  Message('note_on', channel=3, note=66, velocity=0, time=23),\n",
      "  Message('note_on', channel=3, note=62, velocity=73, time=1),\n",
      "  Message('note_on', channel=3, note=62, velocity=0, time=23),\n",
      "  Message('note_on', channel=3, note=64, velocity=73, time=1),\n",
      "  Message('note_on', channel=3, note=64, velocity=0, time=23),\n",
      "  Message('note_on', channel=3, note=61, velocity=73, time=1),\n",
      "  Message('note_on', channel=3, note=61, velocity=0, time=23),\n",
      "  Message('note_on', channel=3, note=62, velocity=73, time=1),\n",
      "  Message('note_on', channel=3, note=62, velocity=0, time=23),\n",
      "  Message('note_on', channel=3, note=59, velocity=73, time=1),\n",
      "  Message('note_on', channel=3, note=59, velocity=0, time=23),\n",
      "  Message('note_on', channel=3, note=61, velocity=73, time=1),\n",
      "  Message('note_on', channel=3, note=61, velocity=0, time=23),\n",
      "  Message('note_on', channel=3, note=62, velocity=73, time=1),\n",
      "  Message('note_on', channel=3, note=62, velocity=0, time=23),\n",
      "  Message('note_on', channel=3, note=63, velocity=73, time=1),\n",
      "  Message('note_on', channel=3, note=63, velocity=0, time=23),\n",
      "  Message('note_on', channel=3, note=64, velocity=73, time=1),\n",
      "  Message('note_on', channel=3, note=64, velocity=0, time=23),\n",
      "  Message('note_on', channel=3, note=66, velocity=74, time=1),\n",
      "  Message('note_on', channel=3, note=66, velocity=0, time=23),\n",
      "  Message('note_on', channel=3, note=64, velocity=74, time=1),\n",
      "  Message('note_on', channel=3, note=64, velocity=0, time=23),\n",
      "  Message('note_on', channel=3, note=63, velocity=74, time=1),\n",
      "  Message('note_on', channel=3, note=63, velocity=0, time=23),\n",
      "  Message('note_on', channel=3, note=64, velocity=74, time=1),\n",
      "  Message('note_on', channel=3, note=64, velocity=0, time=23),\n",
      "  Message('note_on', channel=3, note=66, velocity=74, time=1),\n",
      "  Message('note_on', channel=3, note=66, velocity=0, time=23),\n",
      "  Message('note_on', channel=3, note=62, velocity=74, time=1),\n",
      "  Message('note_on', channel=3, note=62, velocity=0, time=23),\n",
      "  Message('note_on', channel=3, note=64, velocity=75, time=1),\n",
      "  Message('note_on', channel=3, note=64, velocity=0, time=23),\n",
      "  Message('note_on', channel=3, note=61, velocity=75, time=1),\n",
      "  Message('note_on', channel=3, note=61, velocity=0, time=23),\n",
      "  Message('note_on', channel=3, note=62, velocity=75, time=1),\n",
      "  Message('note_on', channel=3, note=62, velocity=0, time=23),\n",
      "  Message('note_on', channel=3, note=59, velocity=75, time=1),\n",
      "  Message('note_on', channel=3, note=59, velocity=0, time=23),\n",
      "  Message('note_on', channel=3, note=61, velocity=75, time=1),\n",
      "  Message('note_on', channel=3, note=61, velocity=0, time=23),\n",
      "  Message('note_on', channel=3, note=57, velocity=75, time=1),\n",
      "  Message('note_on', channel=3, note=57, velocity=0, time=23),\n",
      "  Message('note_on', channel=3, note=59, velocity=76, time=1),\n",
      "  Message('note_on', channel=3, note=59, velocity=0, time=23),\n",
      "  Message('note_on', channel=3, note=61, velocity=76, time=1),\n",
      "  Message('note_on', channel=3, note=61, velocity=0, time=23),\n",
      "  Message('note_on', channel=3, note=57, velocity=76, time=1),\n",
      "  Message('note_on', channel=3, note=57, velocity=0, time=23),\n",
      "  Message('note_on', channel=3, note=62, velocity=76, time=1),\n",
      "  Message('note_on', channel=3, note=62, velocity=0, time=23),\n",
      "  Message('note_on', channel=3, note=64, velocity=76, time=1),\n",
      "  Message('note_on', channel=3, note=64, velocity=0, time=23),\n",
      "  Message('note_on', channel=3, note=62, velocity=76, time=1),\n",
      "  Message('note_on', channel=3, note=62, velocity=0, time=23),\n",
      "  Message('note_on', channel=3, note=61, velocity=77, time=1),\n",
      "  Message('note_on', channel=3, note=61, velocity=0, time=23),\n",
      "  Message('note_on', channel=3, note=62, velocity=77, time=1),\n",
      "  Message('note_on', channel=3, note=62, velocity=0, time=23),\n",
      "  Message('note_on', channel=3, note=64, velocity=77, time=1),\n",
      "  Message('note_on', channel=3, note=64, velocity=0, time=23),\n",
      "  Message('note_on', channel=3, note=61, velocity=77, time=1),\n",
      "  Message('note_on', channel=3, note=61, velocity=0, time=23),\n",
      "  Message('note_on', channel=3, note=62, velocity=77, time=1),\n",
      "  Message('note_on', channel=3, note=62, velocity=0, time=23),\n",
      "  Message('note_on', channel=3, note=59, velocity=77, time=1),\n",
      "  Message('note_on', channel=3, note=59, velocity=0, time=23),\n",
      "  Message('note_on', channel=3, note=61, velocity=78, time=1),\n",
      "  Message('note_on', channel=3, note=61, velocity=0, time=23),\n",
      "  Message('note_on', channel=3, note=58, velocity=78, time=1),\n",
      "  Message('note_on', channel=3, note=58, velocity=0, time=23),\n",
      "  Message('note_on', channel=3, note=59, velocity=78, time=1),\n",
      "  Message('note_on', channel=3, note=59, velocity=0, time=23),\n",
      "  Message('note_on', channel=3, note=56, velocity=78, time=1),\n",
      "  Message('note_on', channel=3, note=56, velocity=0, time=23),\n",
      "  Message('note_on', channel=3, note=57, velocity=78, time=1),\n",
      "  Message('note_on', channel=3, note=57, velocity=0, time=23),\n",
      "  Message('note_on', channel=3, note=59, velocity=78, time=1),\n",
      "  Message('note_on', channel=3, note=59, velocity=0, time=23),\n",
      "  Message('note_on', channel=3, note=60, velocity=79, time=1),\n",
      "  Message('note_on', channel=3, note=60, velocity=0, time=23),\n",
      "  Message('note_on', channel=3, note=61, velocity=79, time=1),\n",
      "  Message('note_on', channel=3, note=61, velocity=0, time=23),\n",
      "  Message('note_on', channel=3, note=62, velocity=79, time=1),\n",
      "  Message('note_on', channel=3, note=62, velocity=0, time=23),\n",
      "  Message('note_on', channel=3, note=61, velocity=79, time=1),\n",
      "  Message('note_on', channel=3, note=61, velocity=0, time=23),\n",
      "  Message('note_on', channel=3, note=60, velocity=79, time=1),\n",
      "  Message('note_on', channel=3, note=60, velocity=0, time=23),\n",
      "  Message('note_on', channel=3, note=61, velocity=79, time=1),\n",
      "  Message('note_on', channel=3, note=61, velocity=0, time=23),\n",
      "  Message('note_on', channel=3, note=62, velocity=80, time=1),\n",
      "  Message('note_on', channel=3, note=62, velocity=0, time=23),\n",
      "  Message('note_on', channel=3, note=59, velocity=80, time=1),\n",
      "  Message('note_on', channel=3, note=59, velocity=0, time=23),\n",
      "  Message('note_on', channel=3, note=61, velocity=80, time=1),\n",
      "  Message('note_on', channel=3, note=61, velocity=0, time=23),\n",
      "  Message('note_on', channel=3, note=57, velocity=80, time=1),\n",
      "  Message('note_on', channel=3, note=57, velocity=0, time=23),\n",
      "  Message('note_on', channel=3, note=59, velocity=80, time=1),\n",
      "  Message('note_on', channel=3, note=59, velocity=0, time=23),\n",
      "  Message('note_on', channel=3, note=56, velocity=80, time=1),\n",
      "  Message('note_on', channel=3, note=56, velocity=0, time=23),\n",
      "  Message('note_on', channel=3, note=57, velocity=80, time=1),\n",
      "  Message('note_on', channel=3, note=57, velocity=0, time=23),\n",
      "  Message('note_on', channel=3, note=54, velocity=81, time=1),\n",
      "  Message('note_on', channel=3, note=54, velocity=0, time=20),\n",
      "  Message('note_on', channel=3, note=52, velocity=81, time=28),\n",
      "  Message('note_on', channel=3, note=52, velocity=0, time=20),\n",
      "  Message('note_on', channel=3, note=50, velocity=81, time=28),\n",
      "  Message('note_on', channel=3, note=38, velocity=81, time=0),\n",
      "  Message('note_on', channel=3, note=50, velocity=0, time=354),\n",
      "  Message('note_on', channel=3, note=38, velocity=0, time=0),\n",
      "  Message('note_on', channel=3, note=51, velocity=84, time=30),\n",
      "  Message('note_on', channel=3, note=39, velocity=84, time=0),\n",
      "  Message('note_on', channel=3, note=51, velocity=0, time=354),\n",
      "  Message('note_on', channel=3, note=39, velocity=0, time=0),\n",
      "  Message('note_on', channel=3, note=52, velocity=87, time=30),\n",
      "  Message('note_on', channel=3, note=40, velocity=87, time=0),\n",
      "  Message('note_on', channel=3, note=52, velocity=0, time=89),\n",
      "  Message('note_on', channel=3, note=40, velocity=0, time=0),\n",
      "  Message('note_on', channel=3, note=52, velocity=87, time=295),\n",
      "  Message('note_on', channel=3, note=52, velocity=0, time=45),\n",
      "  Message('note_on', channel=3, note=52, velocity=86, time=3),\n",
      "  Message('note_on', channel=3, note=52, velocity=0, time=45),\n",
      "  Message('note_on', channel=3, note=52, velocity=85, time=3),\n",
      "  Message('note_on', channel=3, note=52, velocity=0, time=45),\n",
      "  Message('note_on', channel=3, note=52, velocity=85, time=3),\n",
      "  Message('note_on', channel=3, note=52, velocity=0, time=45),\n",
      "  Message('note_on', channel=3, note=40, velocity=84, time=3),\n",
      "  Message('note_on', channel=3, note=40, velocity=0, time=45),\n",
      "  Message('note_on', channel=3, note=40, velocity=84, time=3),\n",
      "  Message('note_on', channel=3, note=40, velocity=0, time=45),\n",
      "  Message('note_on', channel=3, note=40, velocity=83, time=3),\n",
      "  Message('note_on', channel=3, note=40, velocity=0, time=45),\n",
      "  Message('note_on', channel=3, note=40, velocity=83, time=3),\n",
      "  Message('note_on', channel=3, note=40, velocity=0, time=45),\n",
      "  Message('note_on', channel=3, note=45, velocity=82, time=3),\n",
      "  Message('note_on', channel=3, note=45, velocity=0, time=45),\n",
      "  Message('note_on', channel=3, note=33, velocity=82, time=3),\n",
      "  Message('note_on', channel=3, note=33, velocity=0, time=47),\n",
      "  Message('note_on', channel=3, note=45, velocity=82, time=1),\n",
      "  Message('note_on', channel=3, note=45, velocity=0, time=47),\n",
      "  Message('note_on', channel=3, note=45, velocity=82, time=1),\n",
      "  Message('note_on', channel=3, note=45, velocity=0, time=47),\n",
      "  Message('note_on', channel=3, note=45, velocity=82, time=1),\n",
      "  Message('note_on', channel=3, note=45, velocity=0, time=47),\n",
      "  Message('note_on', channel=3, note=45, velocity=82, time=1),\n",
      "  Message('note_on', channel=3, note=45, velocity=0, time=47),\n",
      "  Message('note_on', channel=3, note=45, velocity=82, time=1),\n",
      "  Message('note_on', channel=3, note=45, velocity=0, time=47),\n",
      "  Message('note_on', channel=3, note=45, velocity=82, time=1),\n",
      "  Message('note_on', channel=3, note=45, velocity=0, time=47),\n",
      "  Message('note_on', channel=3, note=45, velocity=82, time=1),\n",
      "  Message('note_on', channel=3, note=45, velocity=0, time=47),\n",
      "  Message('note_on', channel=3, note=57, velocity=82, time=1),\n",
      "  Message('note_on', channel=3, note=57, velocity=0, time=47),\n",
      "  Message('note_on', channel=3, note=45, velocity=78, time=1),\n",
      "  Message('note_on', channel=3, note=45, velocity=0, time=47),\n",
      "  Message('note_on', channel=3, note=57, velocity=78, time=1),\n",
      "  Message('note_on', channel=3, note=57, velocity=0, time=47),\n",
      "  Message('note_on', channel=3, note=45, velocity=78, time=1),\n",
      "  Message('note_on', channel=3, note=45, velocity=0, time=47),\n",
      "  Message('note_on', channel=3, note=57, velocity=78, time=1),\n",
      "  Message('note_on', channel=3, note=57, velocity=0, time=47),\n",
      "  Message('note_on', channel=3, note=45, velocity=78, time=1),\n",
      "  Message('note_on', channel=3, note=45, velocity=0, time=47),\n",
      "  Message('note_on', channel=3, note=57, velocity=78, time=1),\n",
      "  Message('note_on', channel=3, note=57, velocity=0, time=47),\n",
      "  Message('note_on', channel=3, note=45, velocity=78, time=1),\n",
      "  Message('note_on', channel=3, note=45, velocity=0, time=47),\n",
      "  Message('note_on', channel=3, note=33, velocity=78, time=1),\n",
      "  Message('note_on', channel=3, note=33, velocity=0, time=47),\n",
      "  Message('note_on', channel=3, note=45, velocity=73, time=1),\n",
      "  Message('note_on', channel=3, note=45, velocity=0, time=47),\n",
      "  Message('note_on', channel=3, note=45, velocity=73, time=1),\n",
      "  Message('note_on', channel=3, note=45, velocity=0, time=47),\n",
      "  Message('note_on', channel=3, note=45, velocity=73, time=1),\n",
      "  Message('note_on', channel=3, note=45, velocity=0, time=47),\n",
      "  Message('note_on', channel=3, note=45, velocity=73, time=1),\n",
      "  Message('note_on', channel=3, note=45, velocity=0, time=47),\n",
      "  Message('note_on', channel=3, note=45, velocity=73, time=1),\n",
      "  Message('note_on', channel=3, note=45, velocity=0, time=47),\n",
      "  Message('note_on', channel=3, note=45, velocity=73, time=1),\n",
      "  Message('note_on', channel=3, note=45, velocity=0, time=47),\n",
      "  Message('note_on', channel=3, note=45, velocity=73, time=1),\n",
      "  Message('note_on', channel=3, note=45, velocity=0, time=47),\n",
      "  Message('note_on', channel=3, note=57, velocity=73, time=1),\n",
      "  Message('note_on', channel=3, note=57, velocity=0, time=47),\n",
      "  Message('note_on', channel=3, note=45, velocity=73, time=1),\n",
      "  Message('note_on', channel=3, note=45, velocity=0, time=47),\n",
      "  Message('note_on', channel=3, note=57, velocity=73, time=1),\n",
      "  Message('note_on', channel=3, note=57, velocity=0, time=47),\n",
      "  Message('note_on', channel=3, note=45, velocity=73, time=1),\n",
      "  Message('note_on', channel=3, note=45, velocity=0, time=47),\n",
      "  Message('note_on', channel=3, note=57, velocity=73, time=1),\n",
      "  Message('note_on', channel=3, note=57, velocity=0, time=47),\n",
      "  Message('note_on', channel=3, note=45, velocity=73, time=1),\n",
      "  Message('note_on', channel=3, note=45, velocity=0, time=47),\n",
      "  Message('note_on', channel=3, note=57, velocity=73, time=1),\n",
      "  Message('note_on', channel=3, note=57, velocity=0, time=47),\n",
      "  Message('note_on', channel=3, note=45, velocity=73, time=1),\n",
      "  Message('note_on', channel=3, note=45, velocity=0, time=89),\n",
      "  Message('note_on', channel=3, note=52, velocity=87, time=199),\n",
      "  Message('note_on', channel=3, note=40, velocity=87, time=0),\n",
      "  Message('note_on', channel=3, note=52, velocity=0, time=89),\n",
      "  Message('note_on', channel=3, note=40, velocity=0, time=0),\n",
      "  Message('note_on', channel=3, note=57, velocity=87, time=7),\n",
      "  Message('note_on', channel=3, note=45, velocity=87, time=0),\n",
      "  Message('note_on', channel=3, note=57, velocity=0, time=10),\n",
      "  Message('note_on', channel=3, note=45, velocity=0, time=0),\n",
      "  Message('note_on', channel=3, note=61, velocity=87, time=14),\n",
      "  Message('note_on', channel=3, note=61, velocity=0, time=23),\n",
      "  Message('note_on', channel=3, note=64, velocity=87, time=1),\n",
      "  Message('note_on', channel=3, note=64, velocity=0, time=23),\n",
      "  Message('note_on', channel=3, note=69, velocity=87, time=1),\n",
      "  Message('note_on', channel=3, note=69, velocity=0, time=23),\n",
      "  Message('note_on', channel=3, note=73, velocity=87, time=1),\n",
      "  Message('note_on', channel=3, note=73, velocity=0, time=23),\n",
      "  Message('note_on', channel=3, note=64, velocity=87, time=1),\n",
      "  Message('note_on', channel=3, note=64, velocity=0, time=23),\n",
      "  Message('note_on', channel=3, note=69, velocity=87, time=1),\n",
      "  Message('note_on', channel=3, note=69, velocity=0, time=23),\n",
      "  Message('note_on', channel=3, note=73, velocity=87, time=1),\n",
      "  Message('note_on', channel=3, note=73, velocity=0, time=23),\n",
      "  Message('note_on', channel=3, note=76, velocity=87, time=1),\n",
      "  Message('note_on', channel=3, note=76, velocity=0, time=20),\n",
      "  Message('note_on', channel=3, note=76, velocity=87, time=28),\n",
      "  Message('note_on', channel=3, note=76, velocity=0, time=20),\n",
      "  Message('note_on', channel=3, note=64, velocity=87, time=76),\n",
      "  Message('note_on', channel=3, note=52, velocity=87, time=0),\n",
      "  Message('note_on', channel=3, note=64, velocity=0, time=20),\n",
      "  Message('note_on', channel=3, note=52, velocity=0, time=0),\n",
      "  Message('control_change', channel=3, control=64, value=127, time=28),\n",
      "  Message('note_on', channel=3, note=57, velocity=87, time=0),\n",
      "  Message('note_on', channel=3, note=57, velocity=0, time=23),\n",
      "  Message('note_on', channel=3, note=45, velocity=87, time=1),\n",
      "  Message('note_on', channel=3, note=45, velocity=0, time=23),\n",
      "  Message('note_on', channel=3, note=49, velocity=87, time=1),\n",
      "  Message('note_on', channel=3, note=49, velocity=0, time=23),\n",
      "  Message('note_on', channel=3, note=52, velocity=87, time=1),\n",
      "  Message('note_on', channel=3, note=52, velocity=0, time=23),\n",
      "  Message('note_on', channel=3, note=57, velocity=87, time=1),\n",
      "  Message('note_on', channel=3, note=57, velocity=0, time=23),\n",
      "  Message('note_on', channel=3, note=49, velocity=87, time=1),\n",
      "  Message('note_on', channel=3, note=49, velocity=0, time=23),\n",
      "  Message('note_on', channel=3, note=52, velocity=87, time=1),\n",
      "  Message('note_on', channel=3, note=52, velocity=0, time=23),\n",
      "  Message('note_on', channel=3, note=57, velocity=87, time=1),\n",
      "  Message('note_on', channel=3, note=57, velocity=0, time=23),\n",
      "  Message('note_on', channel=3, note=61, velocity=87, time=1),\n",
      "  Message('note_on', channel=3, note=61, velocity=0, time=23),\n",
      "  Message('note_on', channel=3, note=52, velocity=87, time=1),\n",
      "  Message('note_on', channel=3, note=52, velocity=0, time=23),\n",
      "  Message('note_on', channel=3, note=57, velocity=87, time=1),\n",
      "  Message('note_on', channel=3, note=57, velocity=0, time=23),\n",
      "  Message('note_on', channel=3, note=61, velocity=87, time=1),\n",
      "  Message('note_on', channel=3, note=61, velocity=0, time=23),\n",
      "  Message('note_on', channel=3, note=64, velocity=87, time=1),\n",
      "  Message('note_on', channel=3, note=64, velocity=0, time=23),\n",
      "  Message('note_on', channel=3, note=61, velocity=87, time=1),\n",
      "  Message('note_on', channel=3, note=61, velocity=0, time=23),\n",
      "  Message('note_on', channel=3, note=64, velocity=87, time=1),\n",
      "  Message('note_on', channel=3, note=64, velocity=0, time=23),\n",
      "  Message('note_on', channel=3, note=61, velocity=87, time=1),\n",
      "  Message('note_on', channel=3, note=61, velocity=0, time=23),\n",
      "  Message('note_on', channel=3, note=57, velocity=87, time=1),\n",
      "  Message('note_on', channel=3, note=57, velocity=0, time=89),\n",
      "  Message('note_on', channel=3, note=45, velocity=87, time=7),\n",
      "  Message('note_on', channel=3, note=45, velocity=0, time=67),\n",
      "  Message('note_on', channel=3, note=45, velocity=87, time=5),\n",
      "  Message('note_on', channel=3, note=45, velocity=0, time=23),\n",
      "  Message('control_change', channel=3, control=64, value=0, time=1),\n",
      "  Message('note_on', channel=3, note=45, velocity=87, time=0),\n",
      "  Message('note_on', channel=3, note=45, velocity=0, time=89),\n",
      "  Message('note_on', channel=3, note=69, velocity=73, time=103),\n",
      "  Message('note_on', channel=3, note=69, velocity=0, time=177),\n",
      "  Message('note_on', channel=3, note=68, velocity=73, time=15),\n",
      "  Message('note_on', channel=3, note=68, velocity=0, time=89),\n",
      "  Message('note_on', channel=3, note=66, velocity=73, time=7),\n",
      "  Message('note_on', channel=3, note=66, velocity=0, time=89),\n",
      "  Message('note_on', channel=3, note=63, velocity=73, time=7),\n",
      "  Message('note_on', channel=3, note=63, velocity=0, time=89),\n",
      "  Message('note_on', channel=3, note=64, velocity=73, time=7),\n",
      "  Message('note_on', channel=3, note=64, velocity=0, time=141),\n",
      "  Message('note_on', channel=3, note=57, velocity=73, time=3),\n",
      "  Message('note_on', channel=3, note=57, velocity=0, time=45),\n",
      "  Message('note_on', channel=3, note=62, velocity=73, time=3),\n",
      "  Message('note_on', channel=3, note=62, velocity=0, time=45),\n",
      "  Message('note_on', channel=3, note=61, velocity=73, time=3),\n",
      "  Message('note_on', channel=3, note=61, velocity=0, time=45),\n",
      "  Message('note_on', channel=3, note=60, velocity=73, time=3),\n",
      "  Message('note_on', channel=3, note=60, velocity=0, time=89),\n",
      "  Message('note_on', channel=3, note=61, velocity=73, time=7),\n",
      "  Message('note_on', channel=3, note=61, velocity=0, time=141),\n",
      "  Message('note_on', channel=3, note=54, velocity=73, time=3),\n",
      "  Message('note_on', channel=3, note=54, velocity=0, time=45),\n",
      "  Message('note_on', channel=3, note=59, velocity=73, time=3),\n",
      "  Message('note_on', channel=3, note=59, velocity=0, time=45),\n",
      "  Message('note_on', channel=3, note=57, velocity=73, time=3),\n",
      "  Message('note_on', channel=3, note=57, velocity=0, time=45),\n",
      "  Message('note_on', channel=3, note=56, velocity=73, time=3),\n",
      "  Message('note_on', channel=3, note=56, velocity=0, time=45),\n",
      "  Message('note_on', channel=3, note=52, velocity=74, time=3),\n",
      "  Message('note_on', channel=3, note=52, velocity=0, time=45),\n",
      "  Message('note_on', channel=3, note=57, velocity=75, time=3),\n",
      "  Message('note_on', channel=3, note=57, velocity=0, time=45),\n",
      "  Message('note_on', channel=3, note=54, velocity=77, time=3),\n",
      "  Message('note_on', channel=3, note=54, velocity=0, time=45),\n",
      "  Message('note_on', channel=3, note=50, velocity=78, time=3),\n",
      "  Message('note_on', channel=3, note=50, velocity=0, time=45),\n",
      "  Message('note_on', channel=3, note=47, velocity=80, time=3),\n",
      "  Message('note_on', channel=3, note=47, velocity=0, time=45),\n",
      "  Message('note_on', channel=3, note=52, velocity=81, time=3),\n",
      "  Message('note_on', channel=3, note=52, velocity=0, time=45),\n",
      "  Message('note_on', channel=3, note=50, velocity=82, time=3),\n",
      "  Message('note_on', channel=3, note=50, velocity=0, time=45),\n",
      "  Message('note_on', channel=3, note=49, velocity=84, time=3),\n",
      "  Message('note_on', channel=3, note=49, velocity=0, time=89),\n",
      "  Message('note_on', channel=3, note=61, velocity=87, time=7),\n",
      "  Message('note_on', channel=3, note=49, velocity=87, time=0),\n",
      "  Message('note_on', channel=3, note=61, velocity=0, time=89),\n",
      "  Message('note_on', channel=3, note=49, velocity=0, time=0),\n",
      "  Message('note_on', channel=3, note=59, velocity=87, time=7),\n",
      "  Message('note_on', channel=3, note=47, velocity=87, time=0),\n",
      "  Message('note_on', channel=3, note=59, velocity=0, time=89),\n",
      "  Message('note_on', channel=3, note=47, velocity=0, time=0),\n",
      "  Message('note_on', channel=3, note=57, velocity=87, time=7),\n",
      "  Message('note_on', channel=3, note=45, velocity=87, time=0),\n",
      "  Message('note_on', channel=3, note=57, velocity=0, time=185),\n",
      "  Message('note_on', channel=3, note=45, velocity=0, time=0),\n",
      "  Message('note_on', channel=3, note=56, velocity=87, time=7),\n",
      "  Message('note_on', channel=3, note=44, velocity=87, time=0),\n",
      "  Message('note_on', channel=3, note=56, velocity=0, time=45),\n",
      "  Message('note_on', channel=3, note=44, velocity=0, time=0),\n",
      "  Message('note_on', channel=3, note=55, velocity=87, time=3),\n",
      "  Message('note_on', channel=3, note=43, velocity=87, time=0),\n",
      "  Message('note_on', channel=3, note=55, velocity=0, time=45),\n",
      "  Message('note_on', channel=3, note=43, velocity=0, time=0),\n",
      "  Message('note_on', channel=3, note=54, velocity=87, time=3),\n",
      "  Message('note_on', channel=3, note=42, velocity=87, time=0),\n",
      "  Message('note_on', channel=3, note=54, velocity=0, time=237),\n",
      "  Message('note_on', channel=3, note=42, velocity=0, time=0),\n",
      "  Message('note_on', channel=3, note=54, velocity=87, time=3),\n",
      "  Message('note_on', channel=3, note=42, velocity=87, time=0),\n",
      "  Message('note_on', channel=3, note=54, velocity=0, time=45),\n",
      "  Message('note_on', channel=3, note=42, velocity=0, time=0),\n",
      "  Message('note_on', channel=3, note=53, velocity=87, time=3),\n",
      "  Message('note_on', channel=3, note=41, velocity=87, time=0),\n",
      "  Message('note_on', channel=3, note=53, velocity=0, time=45),\n",
      "  Message('note_on', channel=3, note=41, velocity=0, time=0),\n",
      "  Message('note_on', channel=3, note=52, velocity=87, time=3),\n",
      "  Message('note_on', channel=3, note=40, velocity=87, time=0),\n",
      "  Message('note_on', channel=3, note=52, velocity=0, time=45),\n",
      "  Message('note_on', channel=3, note=40, velocity=0, time=0),\n",
      "  Message('note_on', channel=3, note=51, velocity=87, time=3),\n",
      "  Message('note_on', channel=3, note=39, velocity=87, time=0),\n",
      "  Message('note_on', channel=3, note=51, velocity=0, time=89),\n",
      "  Message('note_on', channel=3, note=39, velocity=0, time=0),\n",
      "  Message('note_on', channel=3, note=50, velocity=87, time=7),\n",
      "  Message('note_on', channel=3, note=38, velocity=87, time=0),\n",
      "  Message('note_on', channel=3, note=50, velocity=0, time=185),\n",
      "  Message('note_on', channel=3, note=38, velocity=0, time=0),\n",
      "  Message('note_on', channel=3, note=49, velocity=87, time=7),\n",
      "  Message('note_on', channel=3, note=37, velocity=87, time=0),\n",
      "  Message('note_on', channel=3, note=49, velocity=0, time=89),\n",
      "  Message('note_on', channel=3, note=37, velocity=0, time=0),\n",
      "  Message('note_on', channel=3, note=47, velocity=87, time=7),\n",
      "  Message('note_on', channel=3, note=35, velocity=87, time=0),\n",
      "  Message('note_on', channel=3, note=47, velocity=0, time=89),\n",
      "  Message('note_on', channel=3, note=35, velocity=0, time=0),\n",
      "  Message('note_on', channel=3, note=52, velocity=87, time=7),\n",
      "  Message('note_on', channel=3, note=40, velocity=87, time=0),\n",
      "  Message('note_on', channel=3, note=52, velocity=0, time=89),\n",
      "  Message('note_on', channel=3, note=40, velocity=0, time=0),\n",
      "  Message('note_on', channel=3, note=45, velocity=87, time=7),\n",
      "  Message('note_on', channel=3, note=33, velocity=87, time=0),\n",
      "  Message('note_on', channel=3, note=45, velocity=0, time=89),\n",
      "  Message('note_on', channel=3, note=33, velocity=0, time=0),\n",
      "  Message('note_on', channel=3, note=62, velocity=93, time=295),\n",
      "  Message('note_on', channel=3, note=50, velocity=93, time=0),\n",
      "  Message('note_on', channel=3, note=62, velocity=0, time=177),\n",
      "  Message('note_on', channel=3, note=50, velocity=0, time=0),\n",
      "  Message('note_on', channel=3, note=60, velocity=93, time=15),\n",
      "  Message('note_on', channel=3, note=48, velocity=93, time=0),\n",
      "  Message('note_on', channel=3, note=60, velocity=0, time=89),\n",
      "  Message('note_on', channel=3, note=48, velocity=0, time=0),\n",
      "  Message('note_on', channel=3, note=58, velocity=93, time=7),\n",
      "  Message('note_on', channel=3, note=46, velocity=93, time=0),\n",
      "  Message('note_on', channel=3, note=58, velocity=0, time=89),\n",
      "  Message('note_on', channel=3, note=46, velocity=0, time=0),\n",
      "  Message('note_on', channel=3, note=56, velocity=93, time=7),\n",
      "  Message('note_on', channel=3, note=44, velocity=93, time=0),\n",
      "  Message('note_on', channel=3, note=56, velocity=0, time=89),\n",
      "  Message('note_on', channel=3, note=44, velocity=0, time=0),\n",
      "  Message('note_on', channel=3, note=57, velocity=93, time=7),\n",
      "  Message('note_on', channel=3, note=45, velocity=93, time=0),\n",
      "  Message('note_on', channel=3, note=57, velocity=0, time=141),\n",
      "  Message('note_on', channel=3, note=45, velocity=0, time=0),\n",
      "  Message('note_on', channel=3, note=50, velocity=93, time=3),\n",
      "  Message('note_on', channel=3, note=38, velocity=93, time=0),\n",
      "  Message('note_on', channel=3, note=50, velocity=0, time=45),\n",
      "  Message('note_on', channel=3, note=38, velocity=0, time=0),\n",
      "  Message('note_on', channel=3, note=55, velocity=93, time=3),\n",
      "  Message('note_on', channel=3, note=43, velocity=93, time=0),\n",
      "  Message('note_on', channel=3, note=55, velocity=0, time=45),\n",
      "  Message('note_on', channel=3, note=43, velocity=0, time=0),\n",
      "  Message('note_on', channel=3, note=53, velocity=93, time=3),\n",
      "  Message('note_on', channel=3, note=41, velocity=93, time=0),\n",
      "  Message('note_on', channel=3, note=53, velocity=0, time=45),\n",
      "  Message('note_on', channel=3, note=41, velocity=0, time=0),\n",
      "  Message('note_on', channel=3, note=52, velocity=93, time=3),\n",
      "  Message('note_on', channel=3, note=40, velocity=93, time=0),\n",
      "  Message('note_on', channel=3, note=52, velocity=0, time=89),\n",
      "  Message('note_on', channel=3, note=40, velocity=0, time=0),\n",
      "  Message('note_on', channel=3, note=53, velocity=93, time=7),\n",
      "  Message('note_on', channel=3, note=41, velocity=93, time=0),\n",
      "  Message('note_on', channel=3, note=53, velocity=0, time=141),\n",
      "  Message('note_on', channel=3, note=41, velocity=0, time=0),\n",
      "  Message('note_on', channel=3, note=46, velocity=93, time=3),\n",
      "  Message('note_on', channel=3, note=34, velocity=93, time=0),\n",
      "  Message('note_on', channel=3, note=46, velocity=0, time=45),\n",
      "  Message('note_on', channel=3, note=34, velocity=0, time=0),\n",
      "  Message('note_on', channel=3, note=52, velocity=93, time=3),\n",
      "  Message('note_on', channel=3, note=40, velocity=93, time=0),\n",
      "  Message('note_on', channel=3, note=52, velocity=0, time=45),\n",
      "  Message('note_on', channel=3, note=40, velocity=0, time=0),\n",
      "  Message('note_on', channel=3, note=50, velocity=93, time=3),\n",
      "  Message('note_on', channel=3, note=38, velocity=93, time=0),\n",
      "  Message('note_on', channel=3, note=50, velocity=0, time=45),\n",
      "  Message('note_on', channel=3, note=38, velocity=0, time=0),\n",
      "  Message('note_on', channel=3, note=49, velocity=93, time=3),\n",
      "  Message('note_on', channel=3, note=37, velocity=93, time=0),\n",
      "  Message('note_on', channel=3, note=49, velocity=0, time=89),\n",
      "  Message('note_on', channel=3, note=37, velocity=0, time=0),\n",
      "  Message('note_on', channel=3, note=50, velocity=93, time=7),\n",
      "  Message('note_on', channel=3, note=38, velocity=93, time=0),\n",
      "  Message('note_on', channel=3, note=50, velocity=0, time=89),\n",
      "  Message('note_on', channel=3, note=38, velocity=0, time=0),\n",
      "  Message('note_on', channel=3, note=48, velocity=93, time=7),\n",
      "  Message('note_on', channel=3, note=36, velocity=93, time=0),\n",
      "  Message('note_on', channel=3, note=48, velocity=0, time=89),\n",
      "  Message('note_on', channel=3, note=36, velocity=0, time=0),\n",
      "  Message('note_on', channel=3, note=46, velocity=93, time=7),\n",
      "  Message('note_on', channel=3, note=34, velocity=93, time=0),\n",
      "  Message('note_on', channel=3, note=46, velocity=0, time=89),\n",
      "  Message('note_on', channel=3, note=34, velocity=0, time=0),\n",
      "  Message('note_on', channel=3, note=45, velocity=93, time=7),\n",
      "  Message('note_on', channel=3, note=45, velocity=0, time=45),\n",
      "  Message('note_on', channel=3, note=57, velocity=73, time=3),\n",
      "  Message('note_on', channel=3, note=57, velocity=0, time=47),\n",
      "  Message('note_on', channel=3, note=57, velocity=73, time=1),\n",
      "  Message('note_on', channel=3, note=57, velocity=0, time=47),\n",
      "  Message('note_on', channel=3, note=57, velocity=73, time=1),\n",
      "  Message('note_on', channel=3, note=57, velocity=0, time=47),\n",
      "  Message('note_on', channel=3, note=61, velocity=73, time=1),\n",
      "  Message('note_on', channel=3, note=57, velocity=73, time=0),\n",
      "  Message('note_on', channel=3, note=61, velocity=0, time=47),\n",
      "  Message('note_on', channel=3, note=57, velocity=0, time=0),\n",
      "  Message('note_on', channel=3, note=61, velocity=73, time=1),\n",
      "  Message('note_on', channel=3, note=57, velocity=73, time=0),\n",
      "  Message('note_on', channel=3, note=61, velocity=0, time=47),\n",
      "  Message('note_on', channel=3, note=57, velocity=0, time=0),\n",
      "  Message('note_on', channel=3, note=62, velocity=73, time=1),\n",
      "  Message('note_on', channel=3, note=57, velocity=73, time=0),\n",
      "  Message('note_on', channel=3, note=62, velocity=0, time=47),\n",
      "  Message('note_on', channel=3, note=57, velocity=0, time=0),\n",
      "  Message('note_on', channel=3, note=62, velocity=73, time=1),\n",
      "  Message('note_on', channel=3, note=57, velocity=73, time=0),\n",
      "  Message('note_on', channel=3, note=62, velocity=0, time=47),\n",
      "  Message('note_on', channel=3, note=57, velocity=0, time=0),\n",
      "  Message('note_on', channel=3, note=66, velocity=73, time=1),\n",
      "  Message('note_on', channel=3, note=57, velocity=73, time=0),\n",
      "  Message('note_on', channel=3, note=66, velocity=0, time=47),\n",
      "  Message('note_on', channel=3, note=57, velocity=0, time=0),\n",
      "  Message('note_on', channel=3, note=66, velocity=73, time=1),\n",
      "  Message('note_on', channel=3, note=57, velocity=73, time=0),\n",
      "  Message('note_on', channel=3, note=66, velocity=0, time=47),\n",
      "  Message('note_on', channel=3, note=57, velocity=0, time=0),\n",
      "  Message('note_on', channel=3, note=67, velocity=73, time=1),\n",
      "  Message('note_on', channel=3, note=57, velocity=73, time=0),\n",
      "  Message('note_on', channel=3, note=67, velocity=0, time=47),\n",
      "  Message('note_on', channel=3, note=57, velocity=0, time=0),\n",
      "  Message('note_on', channel=3, note=67, velocity=73, time=1),\n",
      "  Message('note_on', channel=3, note=57, velocity=73, time=0),\n",
      "  Message('note_on', channel=3, note=67, velocity=0, time=47),\n",
      "  Message('note_on', channel=3, note=57, velocity=0, time=0),\n",
      "  Message('note_on', channel=3, note=67, velocity=73, time=1),\n",
      "  Message('note_on', channel=3, note=57, velocity=73, time=0),\n",
      "  Message('note_on', channel=3, note=67, velocity=0, time=47),\n",
      "  Message('note_on', channel=3, note=57, velocity=0, time=0),\n",
      "  Message('note_on', channel=3, note=67, velocity=73, time=1),\n",
      "  Message('note_on', channel=3, note=57, velocity=73, time=0),\n",
      "  Message('note_on', channel=3, note=67, velocity=0, time=47),\n",
      "  Message('note_on', channel=3, note=57, velocity=0, time=0),\n",
      "  Message('note_on', channel=3, note=64, velocity=73, time=1),\n",
      "  Message('note_on', channel=3, note=57, velocity=73, time=0),\n",
      "  Message('note_on', channel=3, note=64, velocity=0, time=47),\n",
      "  Message('note_on', channel=3, note=57, velocity=0, time=0),\n",
      "  Message('note_on', channel=3, note=64, velocity=73, time=1),\n",
      "  Message('note_on', channel=3, note=57, velocity=73, time=0),\n",
      "  Message('note_on', channel=3, note=64, velocity=0, time=47),\n",
      "  Message('note_on', channel=3, note=57, velocity=0, time=0),\n",
      "  Message('note_on', channel=3, note=66, velocity=73, time=1),\n",
      "  Message('note_on', channel=3, note=57, velocity=73, time=0),\n",
      "  Message('note_on', channel=3, note=66, velocity=0, time=94),\n",
      "  Message('note_on', channel=3, note=57, velocity=0, time=0),\n",
      "  Message('note_on', channel=3, note=61, velocity=73, time=674),\n",
      "  Message('note_on', channel=3, note=57, velocity=73, time=0),\n",
      "  Message('note_on', channel=3, note=61, velocity=0, time=45),\n",
      "  Message('note_on', channel=3, note=57, velocity=0, time=0),\n",
      "  Message('note_on', channel=3, note=61, velocity=73, time=3),\n",
      "  Message('note_on', channel=3, note=57, velocity=73, time=0),\n",
      "  Message('note_on', channel=3, note=61, velocity=0, time=47),\n",
      "  Message('note_on', channel=3, note=57, velocity=0, time=0),\n",
      "  Message('note_on', channel=3, note=61, velocity=73, time=1),\n",
      "  Message('note_on', channel=3, note=57, velocity=73, time=0),\n",
      "  Message('note_on', channel=3, note=61, velocity=0, time=47),\n",
      "  Message('note_on', channel=3, note=57, velocity=0, time=0),\n",
      "  Message('note_on', channel=3, note=61, velocity=73, time=1),\n",
      "  Message('note_on', channel=3, note=57, velocity=73, time=0),\n",
      "  Message('note_on', channel=3, note=61, velocity=0, time=47),\n",
      "  Message('note_on', channel=3, note=57, velocity=0, time=0),\n",
      "  Message('note_on', channel=3, note=61, velocity=73, time=1),\n",
      "  Message('note_on', channel=3, note=57, velocity=73, time=0),\n",
      "  Message('note_on', channel=3, note=61, velocity=0, time=47),\n",
      "  Message('note_on', channel=3, note=57, velocity=0, time=0),\n",
      "  Message('note_on', channel=3, note=61, velocity=73, time=1),\n",
      "  Message('note_on', channel=3, note=57, velocity=73, time=0),\n",
      "  Message('note_on', channel=3, note=61, velocity=0, time=47),\n",
      "  Message('note_on', channel=3, note=57, velocity=0, time=0),\n",
      "  Message('note_on', channel=3, note=62, velocity=73, time=1),\n",
      "  Message('note_on', channel=3, note=57, velocity=73, time=0),\n",
      "  Message('note_on', channel=3, note=62, velocity=0, time=47),\n",
      "  Message('note_on', channel=3, note=57, velocity=0, time=0),\n",
      "  Message('note_on', channel=3, note=62, velocity=73, time=1),\n",
      "  Message('note_on', channel=3, note=57, velocity=73, time=0),\n",
      "  Message('note_on', channel=3, note=62, velocity=0, time=47),\n",
      "  Message('note_on', channel=3, note=57, velocity=0, time=0),\n",
      "  Message('note_on', channel=3, note=66, velocity=73, time=1),\n",
      "  Message('note_on', channel=3, note=57, velocity=73, time=0),\n",
      "  Message('note_on', channel=3, note=66, velocity=0, time=47),\n",
      "  Message('note_on', channel=3, note=57, velocity=0, time=0),\n",
      "  Message('note_on', channel=3, note=66, velocity=73, time=1),\n",
      "  Message('note_on', channel=3, note=57, velocity=73, time=0),\n",
      "  Message('note_on', channel=3, note=66, velocity=0, time=47),\n",
      "  Message('note_on', channel=3, note=57, velocity=0, time=0),\n",
      "  Message('note_on', channel=3, note=67, velocity=73, time=1),\n",
      "  Message('note_on', channel=3, note=57, velocity=73, time=0),\n",
      "  Message('note_on', channel=3, note=67, velocity=0, time=47),\n",
      "  Message('note_on', channel=3, note=57, velocity=0, time=0),\n",
      "  Message('note_on', channel=3, note=67, velocity=73, time=1),\n",
      "  Message('note_on', channel=3, note=57, velocity=73, time=0),\n",
      "  Message('note_on', channel=3, note=67, velocity=0, time=47),\n",
      "  Message('note_on', channel=3, note=57, velocity=0, time=0),\n",
      "  Message('note_on', channel=3, note=67, velocity=73, time=1),\n",
      "  Message('note_on', channel=3, note=57, velocity=73, time=0),\n",
      "  Message('note_on', channel=3, note=67, velocity=0, time=47),\n",
      "  Message('note_on', channel=3, note=57, velocity=0, time=0),\n",
      "  Message('note_on', channel=3, note=67, velocity=73, time=1),\n",
      "  Message('note_on', channel=3, note=57, velocity=73, time=0),\n",
      "  Message('note_on', channel=3, note=67, velocity=0, time=47),\n",
      "  Message('note_on', channel=3, note=57, velocity=0, time=0),\n",
      "  Message('note_on', channel=3, note=64, velocity=73, time=1),\n",
      "  Message('note_on', channel=3, note=57, velocity=73, time=0),\n",
      "  Message('note_on', channel=3, note=64, velocity=0, time=47),\n",
      "  Message('note_on', channel=3, note=57, velocity=0, time=0),\n",
      "  Message('note_on', channel=3, note=64, velocity=73, time=1),\n",
      "  Message('note_on', channel=3, note=57, velocity=73, time=0),\n",
      "  Message('note_on', channel=3, note=64, velocity=0, time=47),\n",
      "  Message('note_on', channel=3, note=57, velocity=0, time=0),\n",
      "  Message('note_on', channel=3, note=66, velocity=73, time=1),\n",
      "  Message('note_on', channel=3, note=57, velocity=73, time=0),\n",
      "  Message('note_on', channel=3, note=66, velocity=0, time=94),\n",
      "  Message('note_on', channel=3, note=57, velocity=0, time=0),\n",
      "  Message('note_on', channel=3, note=62, velocity=73, time=962),\n",
      "  Message('note_on', channel=3, note=57, velocity=73, time=0),\n",
      "  Message('note_on', channel=3, note=62, velocity=0, time=96),\n",
      "  Message('note_on', channel=3, note=61, velocity=73, time=0),\n",
      "  Message('note_on', channel=3, note=61, velocity=0, time=45),\n",
      "  Message('note_on', channel=3, note=57, velocity=0, time=0),\n",
      "  Message('note_on', channel=3, note=62, velocity=66, time=243),\n",
      "  Message('note_on', channel=3, note=57, velocity=66, time=0),\n",
      "  Message('note_on', channel=3, note=62, velocity=0, time=96),\n",
      "  Message('note_on', channel=3, note=61, velocity=66, time=0),\n",
      "  Message('note_on', channel=3, note=61, velocity=0, time=45),\n",
      "  Message('note_on', channel=3, note=57, velocity=0, time=0),\n",
      "  Message('note_on', channel=3, note=55, velocity=66, time=723),\n",
      "  Message('note_on', channel=3, note=52, velocity=66, time=0),\n",
      "  Message('note_on', channel=3, note=49, velocity=66, time=0),\n",
      "  Message('note_on', channel=3, note=45, velocity=66, time=0),\n",
      "  Message('note_on', channel=3, note=55, velocity=0, time=354),\n",
      "  Message('note_on', channel=3, note=52, velocity=0, time=0),\n",
      "  Message('note_on', channel=3, note=49, velocity=0, time=0),\n",
      "  Message('note_on', channel=3, note=45, velocity=0, time=0),\n",
      "  Message('note_on', channel=3, note=55, velocity=66, time=30),\n",
      "  Message('note_on', channel=3, note=52, velocity=66, time=0),\n",
      "  Message('note_on', channel=3, note=49, velocity=66, time=0),\n",
      "  Message('note_on', channel=3, note=45, velocity=66, time=0),\n",
      "  Message('note_on', channel=3, note=55, velocity=0, time=354),\n",
      "  Message('note_on', channel=3, note=52, velocity=0, time=0),\n",
      "  Message('note_on', channel=3, note=49, velocity=0, time=0),\n",
      "  Message('note_on', channel=3, note=45, velocity=0, time=0),\n",
      "  Message('note_on', channel=3, note=55, velocity=66, time=30),\n",
      "  Message('note_on', channel=3, note=52, velocity=66, time=0),\n",
      "  Message('note_on', channel=3, note=49, velocity=66, time=0),\n",
      "  Message('note_on', channel=3, note=45, velocity=66, time=0),\n",
      "  Message('note_on', channel=3, note=55, velocity=0, time=89),\n",
      "  Message('note_on', channel=3, note=52, velocity=0, time=0),\n",
      "  Message('note_on', channel=3, note=49, velocity=0, time=0),\n",
      "  Message('note_on', channel=3, note=45, velocity=0, time=0),\n",
      "  Message('note_on', channel=3, note=33, velocity=66, time=295),\n",
      "  Message('note_on', channel=3, note=33, velocity=0, time=23),\n",
      "  Message('note_on', channel=3, note=45, velocity=66, time=1),\n",
      "  Message('note_on', channel=3, note=45, velocity=0, time=23),\n",
      "  Message('note_on', channel=3, note=33, velocity=66, time=1),\n",
      "  Message('note_on', channel=3, note=33, velocity=0, time=23),\n",
      "  Message('note_on', channel=3, note=45, velocity=66, time=1),\n",
      "  Message('note_on', channel=3, note=45, velocity=0, time=23),\n",
      "  Message('note_on', channel=3, note=33, velocity=66, time=1),\n",
      "  Message('note_on', channel=3, note=33, velocity=0, time=23),\n",
      "  Message('note_on', channel=3, note=45, velocity=66, time=1),\n",
      "  Message('note_on', channel=3, note=45, velocity=0, time=23),\n",
      "  Message('note_on', channel=3, note=33, velocity=66, time=1),\n",
      "  Message('note_on', channel=3, note=33, velocity=0, time=23),\n",
      "  Message('note_on', channel=3, note=45, velocity=66, time=1),\n",
      "  Message('note_on', channel=3, note=45, velocity=0, time=23),\n",
      "  Message('note_on', channel=3, note=33, velocity=66, time=1),\n",
      "  Message('note_on', channel=3, note=33, velocity=0, time=23),\n",
      "  Message('note_on', channel=3, note=45, velocity=66, time=1),\n",
      "  Message('note_on', channel=3, note=45, velocity=0, time=23),\n",
      "  Message('note_on', channel=3, note=33, velocity=66, time=1),\n",
      "  Message('note_on', channel=3, note=33, velocity=0, time=23),\n",
      "  Message('note_on', channel=3, note=45, velocity=66, time=1),\n",
      "  Message('note_on', channel=3, note=45, velocity=0, time=23),\n",
      "  Message('note_on', channel=3, note=33, velocity=66, time=1),\n",
      "  Message('note_on', channel=3, note=33, velocity=0, time=23),\n",
      "  Message('note_on', channel=3, note=45, velocity=66, time=1),\n",
      "  Message('note_on', channel=3, note=45, velocity=0, time=23),\n",
      "  Message('note_on', channel=3, note=33, velocity=66, time=1),\n",
      "  Message('note_on', channel=3, note=33, velocity=0, time=23),\n",
      "  Message('note_on', channel=3, note=45, velocity=66, time=1),\n",
      "  Message('note_on', channel=3, note=45, velocity=0, time=23),\n",
      "  Message('note_on', channel=3, note=50, velocity=87, time=1),\n",
      "  Message('note_on', channel=3, note=38, velocity=87, time=0),\n",
      "  Message('note_on', channel=3, note=50, velocity=0, time=177),\n",
      "  Message('note_on', channel=3, note=38, velocity=0, time=0),\n",
      "  Message('note_on', channel=3, note=45, velocity=87, time=15),\n",
      "  Message('note_on', channel=3, note=45, velocity=0, time=177),\n",
      "  Message('note_on', channel=3, note=43, velocity=87, time=15),\n",
      "  Message('note_on', channel=3, note=43, velocity=0, time=24),\n",
      "  Message('note_on', channel=3, note=42, velocity=87, time=0),\n",
      "  Message('note_on', channel=3, note=42, velocity=0, time=24),\n",
      "  Message('note_on', channel=3, note=43, velocity=87, time=0),\n",
      "  Message('note_on', channel=3, note=43, velocity=0, time=24),\n",
      "  Message('note_on', channel=3, note=42, velocity=87, time=0),\n",
      "  Message('note_on', channel=3, note=42, velocity=0, time=24),\n",
      "  Message('note_on', channel=3, note=43, velocity=87, time=0),\n",
      "  Message('note_on', channel=3, note=43, velocity=0, time=24),\n",
      "  Message('note_on', channel=3, note=42, velocity=87, time=0),\n",
      "  Message('note_on', channel=3, note=42, velocity=0, time=13),\n",
      "  Message('note_on', channel=3, note=40, velocity=87, time=11),\n",
      "  Message('note_on', channel=3, note=40, velocity=0, time=23),\n",
      "  Message('note_on', channel=3, note=38, velocity=87, time=1),\n",
      "  Message('note_on', channel=3, note=38, velocity=0, time=23),\n",
      "  Message('note_on', channel=3, note=45, velocity=87, time=1),\n",
      "  Message('note_on', channel=3, note=45, velocity=0, time=89),\n",
      "  Message('note_on', channel=3, note=33, velocity=87, time=79),\n",
      "  Message('note_on', channel=3, note=33, velocity=0, time=8),\n",
      "  Message('note_on', channel=3, note=35, velocity=87, time=0),\n",
      "  Message('note_on', channel=3, note=35, velocity=0, time=8),\n",
      "  Message('note_on', channel=3, note=37, velocity=87, time=0),\n",
      "  Message('note_on', channel=3, note=37, velocity=0, time=8),\n",
      "  Message('note_on', channel=3, note=38, velocity=87, time=0),\n",
      "  Message('note_on', channel=3, note=38, velocity=0, time=89),\n",
      "  Message('note_on', channel=3, note=33, velocity=87, time=7),\n",
      "  Message('note_on', channel=3, note=33, velocity=0, time=67),\n",
      "  Message('note_on', channel=3, note=38, velocity=87, time=5),\n",
      "  Message('note_on', channel=3, note=38, velocity=0, time=23),\n",
      "  Message('note_on', channel=3, note=40, velocity=87, time=1),\n",
      "  Message('note_on', channel=3, note=40, velocity=0, time=89),\n",
      "  Message('note_on', channel=3, note=33, velocity=87, time=7),\n",
      "  Message('note_on', channel=3, note=33, velocity=0, time=67),\n",
      "  Message('note_on', channel=3, note=40, velocity=87, time=5),\n",
      "  Message('note_on', channel=3, note=40, velocity=0, time=23),\n",
      "  Message('note_on', channel=3, note=42, velocity=87, time=1),\n",
      "  Message('note_on', channel=3, note=42, velocity=0, time=89),\n",
      "  Message('note_on', channel=3, note=38, velocity=87, time=7),\n",
      "  Message('note_on', channel=3, note=38, velocity=0, time=67),\n",
      "  Message('note_on', channel=3, note=42, velocity=87, time=5),\n",
      "  Message('note_on', channel=3, note=42, velocity=0, time=23),\n",
      "  Message('note_on', channel=3, note=45, velocity=87, time=1),\n",
      "  Message('note_on', channel=3, note=45, velocity=0, time=89),\n",
      "  Message('note_on', channel=3, note=62, velocity=82, time=679),\n",
      "  Message('note_on', channel=3, note=54, velocity=82, time=0),\n",
      "  Message('note_on', channel=3, note=62, velocity=0, time=20),\n",
      "  Message('note_on', channel=3, note=54, velocity=0, time=0),\n",
      "  Message('note_on', channel=3, note=62, velocity=83, time=28),\n",
      "  Message('note_on', channel=3, note=54, velocity=83, time=0),\n",
      "  Message('note_on', channel=3, note=62, velocity=0, time=20),\n",
      "  Message('note_on', channel=3, note=54, velocity=0, time=0),\n",
      "  Message('note_on', channel=3, note=64, velocity=84, time=28),\n",
      "  Message('note_on', channel=3, note=57, velocity=84, time=0),\n",
      "  Message('note_on', channel=3, note=64, velocity=0, time=20),\n",
      "  Message('note_on', channel=3, note=57, velocity=0, time=0),\n",
      "  Message('note_on', channel=3, note=64, velocity=85, time=28),\n",
      "  Message('note_on', channel=3, note=57, velocity=85, time=0),\n",
      "  Message('note_on', channel=3, note=64, velocity=0, time=20),\n",
      "  Message('note_on', channel=3, note=57, velocity=0, time=0),\n",
      "  Message('note_on', channel=3, note=66, velocity=87, time=28),\n",
      "  Message('note_on', channel=3, note=62, velocity=87, time=0),\n",
      "  Message('note_on', channel=3, note=66, velocity=0, time=89),\n",
      "  Message('note_on', channel=3, note=62, velocity=0, time=0),\n",
      "  Message('note_on', channel=3, note=66, velocity=82, time=487),\n",
      "  Message('note_on', channel=3, note=62, velocity=82, time=0),\n",
      "  Message('note_on', channel=3, note=66, velocity=0, time=20),\n",
      "  Message('note_on', channel=3, note=62, velocity=0, time=0),\n",
      "  Message('note_on', channel=3, note=66, velocity=83, time=28),\n",
      "  Message('note_on', channel=3, note=62, velocity=83, time=0),\n",
      "  Message('note_on', channel=3, note=66, velocity=0, time=20),\n",
      "  Message('note_on', channel=3, note=62, velocity=0, time=0),\n",
      "  Message('note_on', channel=3, note=67, velocity=84, time=28),\n",
      "  Message('note_on', channel=3, note=64, velocity=84, time=0),\n",
      "  Message('note_on', channel=3, note=67, velocity=0, time=20),\n",
      "  Message('note_on', channel=3, note=64, velocity=0, time=0),\n",
      "  Message('note_on', channel=3, note=67, velocity=85, time=28),\n",
      "  Message('note_on', channel=3, note=64, velocity=85, time=0),\n",
      "  Message('note_on', channel=3, note=67, velocity=0, time=20),\n",
      "  Message('note_on', channel=3, note=64, velocity=0, time=0),\n",
      "  Message('note_on', channel=3, note=69, velocity=86, time=28),\n",
      "  Message('note_on', channel=3, note=66, velocity=86, time=0),\n",
      "  Message('note_on', channel=3, note=69, velocity=0, time=45),\n",
      "  Message('note_on', channel=3, note=66, velocity=0, time=0),\n",
      "  Message('note_on', channel=3, note=50, velocity=87, time=147),\n",
      "  Message('note_on', channel=3, note=38, velocity=87, time=0),\n",
      "  Message('note_on', channel=3, note=50, velocity=0, time=89),\n",
      "  Message('note_on', channel=3, note=38, velocity=0, time=0),\n",
      "  Message('note_on', channel=3, note=49, velocity=87, time=103),\n",
      "  Message('note_on', channel=3, note=37, velocity=87, time=0),\n",
      "  Message('note_on', channel=3, note=49, velocity=0, time=89),\n",
      "  Message('note_on', channel=3, note=37, velocity=0, time=0),\n",
      "  Message('note_on', channel=3, note=49, velocity=87, time=103),\n",
      "  Message('note_on', channel=3, note=37, velocity=87, time=0),\n",
      "  Message('note_on', channel=3, note=49, velocity=0, time=89),\n",
      "  Message('note_on', channel=3, note=37, velocity=0, time=0),\n",
      "  Message('note_on', channel=3, note=50, velocity=87, time=103),\n",
      "  Message('note_on', channel=3, note=38, velocity=87, time=0),\n",
      "  Message('note_on', channel=3, note=50, velocity=0, time=89),\n",
      "  Message('note_on', channel=3, note=38, velocity=0, time=0),\n",
      "  Message('note_on', channel=3, note=50, velocity=87, time=103),\n",
      "  Message('note_on', channel=3, note=38, velocity=87, time=0),\n",
      "  Message('note_on', channel=3, note=50, velocity=0, time=89),\n",
      "  Message('note_on', channel=3, note=38, velocity=0, time=0),\n",
      "  Message('note_on', channel=3, note=64, velocity=82, time=103),\n",
      "  Message('note_on', channel=3, note=62, velocity=82, time=0),\n",
      "  Message('note_on', channel=3, note=64, velocity=0, time=177),\n",
      "  Message('note_on', channel=3, note=62, velocity=0, time=0),\n",
      "  Message('note_on', channel=3, note=66, velocity=82, time=15),\n",
      "  Message('note_on', channel=3, note=62, velocity=82, time=0),\n",
      "  Message('note_on', channel=3, note=66, velocity=0, time=89),\n",
      "  Message('note_on', channel=3, note=62, velocity=0, time=0),\n",
      "  Message('note_on', channel=3, note=67, velocity=87, time=7),\n",
      "  Message('note_on', channel=3, note=64, velocity=87, time=0),\n",
      "  Message('note_on', channel=3, note=67, velocity=0, time=89),\n",
      "  Message('note_on', channel=3, note=64, velocity=0, time=0),\n",
      "  Message('note_on', channel=3, note=66, velocity=99, time=7),\n",
      "  Message('note_on', channel=3, note=62, velocity=99, time=0),\n",
      "  Message('note_on', channel=3, note=66, velocity=0, time=20),\n",
      "  Message('note_on', channel=3, note=62, velocity=0, time=0),\n",
      "  Message('note_on', channel=3, note=66, velocity=78, time=28),\n",
      "  Message('note_on', channel=3, note=62, velocity=78, time=0),\n",
      "  Message('note_on', channel=3, note=66, velocity=0, time=20),\n",
      "  Message('note_on', channel=3, note=62, velocity=0, time=0),\n",
      "  Message('note_on', channel=3, note=66, velocity=78, time=28),\n",
      "  Message('note_on', channel=3, note=62, velocity=78, time=0),\n",
      "  Message('note_on', channel=3, note=66, velocity=0, time=20),\n",
      "  Message('note_on', channel=3, note=62, velocity=0, time=0),\n",
      "  Message('note_on', channel=3, note=66, velocity=78, time=28),\n",
      "  Message('note_on', channel=3, note=62, velocity=78, time=0),\n",
      "  Message('note_on', channel=3, note=66, velocity=0, time=20),\n",
      "  Message('note_on', channel=3, note=62, velocity=0, time=0),\n",
      "  Message('note_on', channel=3, note=57, velocity=78, time=28),\n",
      "  Message('note_on', channel=3, note=57, velocity=0, time=20),\n",
      "  Message('note_on', channel=3, note=66, velocity=78, time=28),\n",
      "  Message('note_on', channel=3, note=62, velocity=78, time=0),\n",
      "  Message('note_on', channel=3, note=66, velocity=0, time=20),\n",
      "  Message('note_on', channel=3, note=62, velocity=0, time=0),\n",
      "  Message('note_on', channel=3, note=66, velocity=78, time=28),\n",
      "  Message('note_on', channel=3, note=62, velocity=78, time=0),\n",
      "  Message('note_on', channel=3, note=66, velocity=0, time=20),\n",
      "  Message('note_on', channel=3, note=62, velocity=0, time=0),\n",
      "  Message('note_on', channel=3, note=66, velocity=78, time=28),\n",
      "  Message('note_on', channel=3, note=62, velocity=78, time=0),\n",
      "  Message('note_on', channel=3, note=66, velocity=0, time=20),\n",
      "  Message('note_on', channel=3, note=62, velocity=0, time=0),\n",
      "  Message('note_on', channel=3, note=57, velocity=94, time=28),\n",
      "  Message('note_on', channel=3, note=57, velocity=0, time=20),\n",
      "  Message('note_on', channel=3, note=67, velocity=78, time=28),\n",
      "  Message('note_on', channel=3, note=64, velocity=78, time=0),\n",
      "  Message('note_on', channel=3, note=67, velocity=0, time=20),\n",
      "  Message('note_on', channel=3, note=64, velocity=0, time=0),\n",
      "  Message('note_on', channel=3, note=67, velocity=78, time=28),\n",
      "  Message('note_on', channel=3, note=64, velocity=78, time=0),\n",
      "  Message('note_on', channel=3, note=67, velocity=0, time=20),\n",
      "  Message('note_on', channel=3, note=64, velocity=0, time=0),\n",
      "  Message('note_on', channel=3, note=67, velocity=78, time=28),\n",
      "  Message('note_on', channel=3, note=64, velocity=78, time=0),\n",
      "  Message('note_on', channel=3, note=67, velocity=0, time=20),\n",
      "  Message('note_on', channel=3, note=64, velocity=0, time=0),\n",
      "  Message('note_on', channel=3, note=57, velocity=78, time=28),\n",
      "  Message('note_on', channel=3, note=57, velocity=0, time=20),\n",
      "  Message('note_on', channel=3, note=67, velocity=78, time=28),\n",
      "  Message('note_on', channel=3, note=64, velocity=78, time=0),\n",
      "  Message('note_on', channel=3, note=67, velocity=0, time=20),\n",
      "  Message('note_on', channel=3, note=64, velocity=0, time=0),\n",
      "  Message('note_on', channel=3, note=67, velocity=78, time=28),\n",
      "  Message('note_on', channel=3, note=64, velocity=78, time=0),\n",
      "  Message('note_on', channel=3, note=67, velocity=0, time=20),\n",
      "  Message('note_on', channel=3, note=64, velocity=0, time=0),\n",
      "  Message('note_on', channel=3, note=67, velocity=78, time=28),\n",
      "  Message('note_on', channel=3, note=64, velocity=78, time=0),\n",
      "  Message('note_on', channel=3, note=67, velocity=0, time=20),\n",
      "  Message('note_on', channel=3, note=64, velocity=0, time=0),\n",
      "  Message('note_on', channel=3, note=57, velocity=94, time=28),\n",
      "  Message('note_on', channel=3, note=57, velocity=0, time=20),\n",
      "  Message('note_on', channel=3, note=66, velocity=78, time=28),\n",
      "  Message('note_on', channel=3, note=62, velocity=78, time=0),\n",
      "  Message('note_on', channel=3, note=66, velocity=0, time=20),\n",
      "  Message('note_on', channel=3, note=62, velocity=0, time=0),\n",
      "  Message('note_on', channel=3, note=66, velocity=78, time=28),\n",
      "  Message('note_on', channel=3, note=62, velocity=78, time=0),\n",
      "  Message('note_on', channel=3, note=66, velocity=0, time=20),\n",
      "  Message('note_on', channel=3, note=62, velocity=0, time=0),\n",
      "  Message('note_on', channel=3, note=66, velocity=78, time=28),\n",
      "  Message('note_on', channel=3, note=62, velocity=78, time=0),\n",
      "  Message('note_on', channel=3, note=66, velocity=0, time=20),\n",
      "  Message('note_on', channel=3, note=62, velocity=0, time=0),\n",
      "  Message('note_on', channel=3, note=57, velocity=78, time=28),\n",
      "  Message('note_on', channel=3, note=57, velocity=0, time=20),\n",
      "  Message('note_on', channel=3, note=66, velocity=78, time=28),\n",
      "  Message('note_on', channel=3, note=62, velocity=78, time=0),\n",
      "  Message('note_on', channel=3, note=66, velocity=0, time=20),\n",
      "  Message('note_on', channel=3, note=62, velocity=0, time=0),\n",
      "  Message('note_on', channel=3, note=66, velocity=78, time=28),\n",
      "  Message('note_on', channel=3, note=62, velocity=78, time=0),\n",
      "  Message('note_on', channel=3, note=66, velocity=0, time=20),\n",
      "  Message('note_on', channel=3, note=62, velocity=0, time=0),\n",
      "  Message('note_on', channel=3, note=66, velocity=78, time=28),\n",
      "  Message('note_on', channel=3, note=62, velocity=78, time=0),\n",
      "  Message('note_on', channel=3, note=66, velocity=0, time=20),\n",
      "  Message('note_on', channel=3, note=62, velocity=0, time=0),\n",
      "  Message('note_on', channel=3, note=59, velocity=94, time=28),\n",
      "  Message('note_on', channel=3, note=59, velocity=0, time=48),\n",
      "  Message('note_on', channel=3, note=67, velocity=78, time=0),\n",
      "  Message('note_on', channel=3, note=62, velocity=78, time=0),\n",
      "  Message('note_on', channel=3, note=67, velocity=0, time=20),\n",
      "  Message('note_on', channel=3, note=62, velocity=0, time=0),\n",
      "  Message('note_on', channel=3, note=67, velocity=78, time=28),\n",
      "  Message('note_on', channel=3, note=62, velocity=78, time=0),\n",
      "  Message('note_on', channel=3, note=67, velocity=0, time=20),\n",
      "  Message('note_on', channel=3, note=62, velocity=0, time=0),\n",
      "  Message('note_on', channel=3, note=67, velocity=78, time=28),\n",
      "  Message('note_on', channel=3, note=62, velocity=78, time=0),\n",
      "  Message('note_on', channel=3, note=67, velocity=0, time=20),\n",
      "  Message('note_on', channel=3, note=62, velocity=0, time=0),\n",
      "  Message('note_on', channel=3, note=59, velocity=78, time=28),\n",
      "  Message('note_on', channel=3, note=59, velocity=0, time=45),\n",
      "  Message('note_on', channel=3, note=67, velocity=78, time=3),\n",
      "  Message('note_on', channel=3, note=62, velocity=78, time=0),\n",
      "  Message('note_on', channel=3, note=67, velocity=0, time=20),\n",
      "  Message('note_on', channel=3, note=62, velocity=0, time=0),\n",
      "  Message('note_on', channel=3, note=67, velocity=78, time=28),\n",
      "  Message('note_on', channel=3, note=62, velocity=78, time=0),\n",
      "  Message('note_on', channel=3, note=67, velocity=0, time=20),\n",
      "  Message('note_on', channel=3, note=62, velocity=0, time=0),\n",
      "  Message('note_on', channel=3, note=67, velocity=78, time=28),\n",
      "  Message('note_on', channel=3, note=62, velocity=78, time=0),\n",
      "  Message('note_on', channel=3, note=67, velocity=0, time=20),\n",
      "  Message('note_on', channel=3, note=62, velocity=0, time=0),\n",
      "  Message('note_on', channel=3, note=57, velocity=94, time=28),\n",
      "  Message('note_on', channel=3, note=57, velocity=0, time=48),\n",
      "  Message('note_on', channel=3, note=69, velocity=78, time=0),\n",
      "  Message('note_on', channel=3, note=62, velocity=78, time=0),\n",
      "  Message('note_on', channel=3, note=69, velocity=0, time=20),\n",
      "  Message('note_on', channel=3, note=62, velocity=0, time=0),\n",
      "  Message('note_on', channel=3, note=69, velocity=78, time=28),\n",
      "  Message('note_on', channel=3, note=62, velocity=78, time=0),\n",
      "  Message('note_on', channel=3, note=69, velocity=0, time=20),\n",
      "  Message('note_on', channel=3, note=62, velocity=0, time=0),\n",
      "  Message('note_on', channel=3, note=69, velocity=78, time=28),\n",
      "  Message('note_on', channel=3, note=62, velocity=78, time=0),\n",
      "  Message('note_on', channel=3, note=69, velocity=0, time=20),\n",
      "  Message('note_on', channel=3, note=62, velocity=0, time=0),\n",
      "  Message('note_on', channel=3, note=57, velocity=78, time=28),\n",
      "  Message('note_on', channel=3, note=57, velocity=0, time=45),\n",
      "  Message('note_on', channel=3, note=69, velocity=78, time=3),\n",
      "  Message('note_on', channel=3, note=62, velocity=78, time=0),\n",
      "  Message('note_on', channel=3, note=69, velocity=0, time=20),\n",
      "  Message('note_on', channel=3, note=62, velocity=0, time=0),\n",
      "  Message('note_on', channel=3, note=69, velocity=78, time=28),\n",
      "  Message('note_on', channel=3, note=62, velocity=78, time=0),\n",
      "  Message('note_on', channel=3, note=69, velocity=0, time=20),\n",
      "  Message('note_on', channel=3, note=62, velocity=0, time=0),\n",
      "  Message('note_on', channel=3, note=69, velocity=78, time=28),\n",
      "  Message('note_on', channel=3, note=62, velocity=78, time=0),\n",
      "  Message('note_on', channel=3, note=69, velocity=0, time=20),\n",
      "  Message('note_on', channel=3, note=62, velocity=0, time=0),\n",
      "  Message('note_on', channel=3, note=67, velocity=78, time=28),\n",
      "  Message('note_on', channel=3, note=62, velocity=78, time=0),\n",
      "  Message('note_on', channel=3, note=59, velocity=78, time=0),\n",
      "  Message('note_on', channel=3, note=67, velocity=0, time=89),\n",
      "  Message('note_on', channel=3, note=62, velocity=0, time=0),\n",
      "  Message('note_on', channel=3, note=59, velocity=0, time=0),\n",
      "  Message('note_on', channel=3, note=43, velocity=87, time=295),\n",
      "  Message('note_on', channel=3, note=43, velocity=0, time=23),\n",
      "  Message('note_on', channel=3, note=55, velocity=87, time=1),\n",
      "  Message('note_on', channel=3, note=55, velocity=0, time=23),\n",
      "  Message('note_on', channel=3, note=47, velocity=87, time=1),\n",
      "  Message('note_on', channel=3, note=47, velocity=0, time=23),\n",
      "  Message('note_on', channel=3, note=55, velocity=87, time=1),\n",
      "  Message('note_on', channel=3, note=55, velocity=0, time=23),\n",
      "  Message('note_on', channel=3, note=50, velocity=87, time=1),\n",
      "  Message('note_on', channel=3, note=50, velocity=0, time=23),\n",
      "  Message('note_on', channel=3, note=55, velocity=87, time=1),\n",
      "  Message('note_on', channel=3, note=55, velocity=0, time=23),\n",
      "  Message('note_on', channel=3, note=47, velocity=87, time=1),\n",
      "  Message('note_on', channel=3, note=47, velocity=0, time=23),\n",
      "  Message('note_on', channel=3, note=55, velocity=87, time=1),\n",
      "  Message('note_on', channel=3, note=55, velocity=0, time=23),\n",
      "  Message('note_on', channel=3, note=43, velocity=87, time=1),\n",
      "  Message('note_on', channel=3, note=43, velocity=0, time=23),\n",
      "  Message('note_on', channel=3, note=55, velocity=87, time=1),\n",
      "  Message('note_on', channel=3, note=55, velocity=0, time=23),\n",
      "  Message('note_on', channel=3, note=47, velocity=87, time=1),\n",
      "  Message('note_on', channel=3, note=47, velocity=0, time=23),\n",
      "  Message('note_on', channel=3, note=55, velocity=87, time=1),\n",
      "  Message('note_on', channel=3, note=55, velocity=0, time=23),\n",
      "  Message('note_on', channel=3, note=50, velocity=87, time=1),\n",
      "  Message('note_on', channel=3, note=50, velocity=0, time=23),\n",
      "  Message('note_on', channel=3, note=55, velocity=87, time=1),\n",
      "  Message('note_on', channel=3, note=55, velocity=0, time=23),\n",
      "  Message('note_on', channel=3, note=47, velocity=87, time=1),\n",
      "  Message('note_on', channel=3, note=47, velocity=0, time=23),\n",
      "  Message('note_on', channel=3, note=55, velocity=87, time=1),\n",
      "  Message('note_on', channel=3, note=55, velocity=0, time=23),\n",
      "  Message('note_on', channel=3, note=40, velocity=87, time=1),\n",
      "  Message('note_on', channel=3, note=40, velocity=0, time=20),\n",
      "  Message('note_on', channel=3, note=52, velocity=87, time=28),\n",
      "  Message('note_on', channel=3, note=52, velocity=0, time=20),\n",
      "  Message('note_on', channel=3, note=47, velocity=87, time=28),\n",
      "  Message('note_on', channel=3, note=47, velocity=0, time=20),\n",
      "  Message('note_on', channel=3, note=43, velocity=87, time=28),\n",
      "  Message('note_on', channel=3, note=43, velocity=0, time=20),\n",
      "  Message('note_on', channel=3, note=40, velocity=87, time=28),\n",
      "  Message('note_on', channel=3, note=40, velocity=0, time=20),\n",
      "  Message('note_on', channel=3, note=43, velocity=87, time=28),\n",
      "  Message('note_on', channel=3, note=43, velocity=0, time=20),\n",
      "  Message('note_on', channel=3, note=47, velocity=87, time=28),\n",
      "  Message('note_on', channel=3, note=47, velocity=0, time=20),\n",
      "  Message('note_on', channel=3, note=52, velocity=87, time=28),\n",
      "  Message('note_on', channel=3, note=52, velocity=0, time=20),\n",
      "  Message('note_on', channel=3, note=40, velocity=87, time=28),\n",
      "  Message('note_on', channel=3, note=40, velocity=0, time=23),\n",
      "  Message('note_on', channel=3, note=52, velocity=87, time=1),\n",
      "  Message('note_on', channel=3, note=52, velocity=0, time=23),\n",
      "  Message('note_on', channel=3, note=43, velocity=87, time=1),\n",
      "  Message('note_on', channel=3, note=43, velocity=0, time=23),\n",
      "  Message('note_on', channel=3, note=52, velocity=87, time=1),\n",
      "  Message('note_on', channel=3, note=52, velocity=0, time=23),\n",
      "  Message('note_on', channel=3, note=47, velocity=87, time=1),\n",
      "  Message('note_on', channel=3, note=47, velocity=0, time=23),\n",
      "  Message('note_on', channel=3, note=52, velocity=87, time=1),\n",
      "  Message('note_on', channel=3, note=52, velocity=0, time=23),\n",
      "  Message('note_on', channel=3, note=43, velocity=87, time=1),\n",
      "  Message('note_on', channel=3, note=43, velocity=0, time=23),\n",
      "  Message('note_on', channel=3, note=52, velocity=87, time=1),\n",
      "  Message('note_on', channel=3, note=52, velocity=0, time=23),\n",
      "  Message('note_on', channel=3, note=40, velocity=87, time=1),\n",
      "  Message('note_on', channel=3, note=40, velocity=0, time=23),\n",
      "  Message('note_on', channel=3, note=52, velocity=87, time=1),\n",
      "  Message('note_on', channel=3, note=52, velocity=0, time=23),\n",
      "  Message('note_on', channel=3, note=43, velocity=87, time=1),\n",
      "  Message('note_on', channel=3, note=43, velocity=0, time=23),\n",
      "  Message('note_on', channel=3, note=52, velocity=87, time=1),\n",
      "  Message('note_on', channel=3, note=52, velocity=0, time=23),\n",
      "  Message('note_on', channel=3, note=47, velocity=87, time=1),\n",
      "  Message('note_on', channel=3, note=47, velocity=0, time=23),\n",
      "  Message('note_on', channel=3, note=52, velocity=87, time=1),\n",
      "  Message('note_on', channel=3, note=52, velocity=0, time=23),\n",
      "  Message('note_on', channel=3, note=43, velocity=87, time=1),\n",
      "  Message('note_on', channel=3, note=43, velocity=0, time=23),\n",
      "  Message('note_on', channel=3, note=52, velocity=87, time=1),\n",
      "  Message('note_on', channel=3, note=52, velocity=0, time=23),\n",
      "  Message('note_on', channel=3, note=37, velocity=87, time=1),\n",
      "  Message('note_on', channel=3, note=37, velocity=0, time=20),\n",
      "  Message('note_on', channel=3, note=49, velocity=87, time=28),\n",
      "  Message('note_on', channel=3, note=49, velocity=0, time=20),\n",
      "  Message('note_on', channel=3, note=45, velocity=87, time=28),\n",
      "  Message('note_on', channel=3, note=45, velocity=0, time=20),\n",
      "  Message('note_on', channel=3, note=40, velocity=87, time=28),\n",
      "  Message('note_on', channel=3, note=40, velocity=0, time=20),\n",
      "  Message('note_on', channel=3, note=37, velocity=87, time=28),\n",
      "  Message('note_on', channel=3, note=37, velocity=0, time=20),\n",
      "  Message('note_on', channel=3, note=40, velocity=87, time=28),\n",
      "  Message('note_on', channel=3, note=40, velocity=0, time=20),\n",
      "  Message('note_on', channel=3, note=45, velocity=87, time=28),\n",
      "  Message('note_on', channel=3, note=45, velocity=0, time=20),\n",
      "  Message('note_on', channel=3, note=49, velocity=87, time=28),\n",
      "  Message('note_on', channel=3, note=49, velocity=0, time=20),\n",
      "  Message('note_on', channel=3, note=33, velocity=87, time=28),\n",
      "  Message('note_on', channel=3, note=33, velocity=0, time=23),\n",
      "  Message('note_on', channel=3, note=45, velocity=87, time=1),\n",
      "  Message('note_on', channel=3, note=45, velocity=0, time=23),\n",
      "  Message('note_on', channel=3, note=37, velocity=87, time=1),\n",
      "  Message('note_on', channel=3, note=37, velocity=0, time=23),\n",
      "  Message('note_on', channel=3, note=45, velocity=87, time=1),\n",
      "  Message('note_on', channel=3, note=45, velocity=0, time=23),\n",
      "  Message('note_on', channel=3, note=40, velocity=87, time=1),\n",
      "  Message('note_on', channel=3, note=40, velocity=0, time=23),\n",
      "  Message('note_on', channel=3, note=45, velocity=87, time=1),\n",
      "  Message('note_on', channel=3, note=45, velocity=0, time=23),\n",
      "  Message('note_on', channel=3, note=37, velocity=87, time=1),\n",
      "  Message('note_on', channel=3, note=37, velocity=0, time=23),\n",
      "  Message('note_on', channel=3, note=45, velocity=87, time=1),\n",
      "  Message('note_on', channel=3, note=45, velocity=0, time=23),\n",
      "  Message('note_on', channel=3, note=33, velocity=87, time=1),\n",
      "  Message('note_on', channel=3, note=33, velocity=0, time=23),\n",
      "  Message('note_on', channel=3, note=45, velocity=87, time=1),\n",
      "  Message('note_on', channel=3, note=45, velocity=0, time=23),\n",
      "  Message('note_on', channel=3, note=37, velocity=87, time=1),\n",
      "  Message('note_on', channel=3, note=37, velocity=0, time=23),\n",
      "  Message('note_on', channel=3, note=45, velocity=87, time=1),\n",
      "  Message('note_on', channel=3, note=45, velocity=0, time=23),\n",
      "  Message('note_on', channel=3, note=40, velocity=87, time=1),\n",
      "  Message('note_on', channel=3, note=40, velocity=0, time=23),\n",
      "  Message('note_on', channel=3, note=45, velocity=87, time=1),\n",
      "  Message('note_on', channel=3, note=45, velocity=0, time=23),\n",
      "  Message('note_on', channel=3, note=37, velocity=87, time=1),\n",
      "  Message('note_on', channel=3, note=37, velocity=0, time=23),\n",
      "  Message('note_on', channel=3, note=45, velocity=87, time=1),\n",
      "  Message('note_on', channel=3, note=45, velocity=0, time=23),\n",
      "  Message('note_on', channel=3, note=38, velocity=87, time=1),\n",
      "  Message('note_on', channel=3, note=38, velocity=0, time=89),\n",
      "  Message('note_on', channel=3, note=47, velocity=87, time=295),\n",
      "  Message('note_on', channel=3, note=47, velocity=0, time=45),\n",
      "  Message('note_on', channel=3, note=49, velocity=87, time=3),\n",
      "  Message('note_on', channel=3, note=49, velocity=0, time=23),\n",
      "  Message('note_on', channel=3, note=50, velocity=87, time=1),\n",
      "  Message('note_on', channel=3, note=50, velocity=0, time=23),\n",
      "  Message('note_on', channel=3, note=52, velocity=87, time=1),\n",
      "  Message('note_on', channel=3, note=52, velocity=0, time=23),\n",
      "  Message('note_on', channel=3, note=54, velocity=87, time=1),\n",
      "  Message('note_on', channel=3, note=54, velocity=0, time=23),\n",
      "  Message('note_on', channel=3, note=56, velocity=87, time=1),\n",
      "  Message('note_on', channel=3, note=56, velocity=0, time=23),\n",
      "  Message('note_on', channel=3, note=57, velocity=87, time=1),\n",
      "  Message('note_on', channel=3, note=57, velocity=0, time=23),\n",
      "  Message('note_on', channel=3, note=59, velocity=87, time=1),\n",
      "  Message('note_on', channel=3, note=59, velocity=0, time=23),\n",
      "  Message('note_on', channel=3, note=61, velocity=87, time=1),\n",
      "  Message('note_on', channel=3, note=61, velocity=0, time=23),\n",
      "  Message('note_on', channel=3, note=62, velocity=87, time=1),\n",
      "  Message('note_on', channel=3, note=62, velocity=0, time=23),\n",
      "  Message('note_on', channel=3, note=64, velocity=87, time=1),\n",
      "  Message('note_on', channel=3, note=64, velocity=0, time=23),\n",
      "  Message('note_on', channel=3, note=66, velocity=87, time=1),\n",
      "  Message('note_on', channel=3, note=66, velocity=0, time=23),\n",
      "  Message('note_on', channel=3, note=68, velocity=87, time=1),\n",
      "  Message('note_on', channel=3, note=68, velocity=0, time=23),\n",
      "  Message('note_on', channel=3, note=69, velocity=87, time=1),\n",
      "  Message('note_on', channel=3, note=69, velocity=0, time=23),\n",
      "  Message('note_on', channel=3, note=71, velocity=87, time=1),\n",
      "  Message('note_on', channel=3, note=71, velocity=0, time=23),\n",
      "  Message('note_on', channel=3, note=73, velocity=87, time=1),\n",
      "  Message('note_on', channel=3, note=73, velocity=0, time=89),\n",
      "  Message('note_on', channel=3, note=57, velocity=87, time=7),\n",
      "  Message('note_on', channel=3, note=57, velocity=0, time=89),\n",
      "  Message('note_on', channel=3, note=45, velocity=87, time=7),\n",
      "  Message('note_on', channel=3, note=33, velocity=87, time=0),\n",
      "  Message('note_on', channel=3, note=45, velocity=0, time=89),\n",
      "  Message('note_on', channel=3, note=33, velocity=0, time=0),\n",
      "  Message('note_on', channel=3, note=50, velocity=73, time=3559),\n",
      "  Message('note_on', channel=3, note=50, velocity=0, time=45),\n",
      "  Message('note_on', channel=3, note=49, velocity=73, time=3),\n",
      "  Message('note_on', channel=3, note=49, velocity=0, time=45),\n",
      "  Message('note_on', channel=3, note=47, velocity=73, time=3),\n",
      "  Message('note_on', channel=3, note=47, velocity=0, time=45),\n",
      "  Message('note_on', channel=3, note=45, velocity=73, time=3),\n",
      "  Message('note_on', channel=3, note=45, velocity=0, time=45),\n",
      "  Message('note_on', channel=3, note=50, velocity=73, time=3),\n",
      "  Message('note_on', channel=3, note=50, velocity=0, time=39),\n",
      "  Message('note_on', channel=3, note=52, velocity=73, time=57),\n",
      "  Message('note_on', channel=3, note=52, velocity=0, time=39),\n",
      "  Message('note_on', channel=3, note=54, velocity=89, time=57),\n",
      "  Message('note_on', channel=3, note=54, velocity=0, time=237),\n",
      "  Message('note_on', channel=3, note=57, velocity=77, time=3),\n",
      "  Message('note_on', channel=3, note=57, velocity=0, time=45),\n",
      "  Message('note_on', channel=3, note=55, velocity=78, time=3),\n",
      "  Message('note_on', channel=3, note=55, velocity=0, time=45),\n",
      "  Message('note_on', channel=3, note=52, velocity=79, time=3),\n",
      "  Message('note_on', channel=3, note=52, velocity=0, time=45),\n",
      "  Message('note_on', channel=3, note=50, velocity=80, time=3),\n",
      "  Message('note_on', channel=3, note=50, velocity=0, time=45),\n",
      "  Message('note_on', channel=3, note=49, velocity=80, time=3),\n",
      "  Message('note_on', channel=3, note=49, velocity=0, time=45),\n",
      "  Message('note_on', channel=3, note=47, velocity=81, time=3),\n",
      "  Message('note_on', channel=3, note=47, velocity=0, time=45),\n",
      "  Message('note_on', channel=3, note=45, velocity=82, time=3),\n",
      "  Message('note_on', channel=3, note=45, velocity=0, time=45),\n",
      "  Message('note_on', channel=3, note=50, velocity=83, time=3),\n",
      "  Message('note_on', channel=3, note=50, velocity=0, time=39),\n",
      "  Message('note_on', channel=3, note=52, velocity=85, time=57),\n",
      "  Message('note_on', channel=3, note=52, velocity=0, time=39),\n",
      "  Message('note_on', channel=3, note=55, velocity=103, time=57),\n",
      "  Message('note_on', channel=3, note=55, velocity=0, time=192),\n",
      "  Message('note_on', channel=3, note=54, velocity=87, time=0),\n",
      "  Message('note_on', channel=3, note=54, velocity=0, time=67),\n",
      "  Message('note_on', channel=3, note=55, velocity=87, time=5),\n",
      "  Message('note_on', channel=3, note=55, velocity=0, time=23),\n",
      "  Message('note_on', channel=3, note=52, velocity=87, time=1),\n",
      "  Message('note_on', channel=3, note=52, velocity=0, time=67),\n",
      "  Message('note_on', channel=3, note=54, velocity=87, time=5),\n",
      "  Message('note_on', channel=3, note=54, velocity=0, time=24),\n",
      "  Message('note_on', channel=3, note=50, velocity=87, time=0),\n",
      "  Message('note_on', channel=3, note=38, velocity=87, time=0),\n",
      "  Message('note_on', channel=3, note=50, velocity=0, time=45),\n",
      "  Message('note_on', channel=3, note=38, velocity=0, time=0),\n",
      "  Message('note_on', channel=3, note=49, velocity=87, time=3),\n",
      "  Message('note_on', channel=3, note=37, velocity=87, time=0),\n",
      "  Message('note_on', channel=3, note=49, velocity=0, time=45),\n",
      "  Message('note_on', channel=3, note=37, velocity=0, time=0),\n",
      "  Message('note_on', channel=3, note=47, velocity=87, time=3),\n",
      "  Message('note_on', channel=3, note=35, velocity=87, time=0),\n",
      "  Message('note_on', channel=3, note=47, velocity=0, time=45),\n",
      "  Message('note_on', channel=3, note=35, velocity=0, time=0),\n",
      "  Message('note_on', channel=3, note=45, velocity=87, time=3),\n",
      "  Message('note_on', channel=3, note=33, velocity=87, time=0),\n",
      "  Message('note_on', channel=3, note=45, velocity=0, time=45),\n",
      "  Message('note_on', channel=3, note=33, velocity=0, time=0),\n",
      "  Message('note_on', channel=3, note=50, velocity=87, time=3),\n",
      "  Message('note_on', channel=3, note=38, velocity=87, time=0),\n",
      "  Message('note_on', channel=3, note=50, velocity=0, time=39),\n",
      "  Message('note_on', channel=3, note=38, velocity=0, time=0),\n",
      "  Message('note_on', channel=3, note=46, velocity=87, time=57),\n",
      "  Message('note_on', channel=3, note=34, velocity=87, time=0),\n",
      "  Message('note_on', channel=3, note=46, velocity=0, time=39),\n",
      "  Message('note_on', channel=3, note=34, velocity=0, time=0),\n",
      "  Message('note_on', channel=3, note=47, velocity=87, time=57),\n",
      "  Message('note_on', channel=3, note=35, velocity=87, time=0),\n",
      "  Message('note_on', channel=3, note=47, velocity=0, time=94),\n",
      "  Message('note_on', channel=3, note=35, velocity=0, time=0),\n",
      "  Message('note_on', channel=3, note=38, velocity=73, time=290),\n",
      "  Message('note_on', channel=3, note=38, velocity=0, time=45),\n",
      "  Message('note_on', channel=3, note=50, velocity=73, time=3),\n",
      "  Message('note_on', channel=3, note=50, velocity=0, time=45),\n",
      "  Message('note_on', channel=3, note=50, velocity=73, time=3),\n",
      "  Message('note_on', channel=3, note=50, velocity=0, time=45),\n",
      "  Message('note_on', channel=3, note=50, velocity=73, time=3),\n",
      "  Message('note_on', channel=3, note=50, velocity=0, time=45),\n",
      "  Message('note_on', channel=3, note=50, velocity=73, time=3),\n",
      "  Message('note_on', channel=3, note=50, velocity=0, time=45),\n",
      "  Message('note_on', channel=3, note=50, velocity=74, time=3),\n",
      "  Message('note_on', channel=3, note=50, velocity=0, time=45),\n",
      "  Message('note_on', channel=3, note=50, velocity=74, time=3),\n",
      "  Message('note_on', channel=3, note=50, velocity=0, time=45),\n",
      "  Message('note_on', channel=3, note=50, velocity=74, time=3),\n",
      "  Message('note_on', channel=3, note=50, velocity=0, time=45),\n",
      "  Message('note_on', channel=3, note=50, velocity=75, time=3),\n",
      "  Message('note_on', channel=3, note=50, velocity=0, time=89),\n",
      "  Message('note_on', channel=3, note=38, velocity=77, time=295),\n",
      "  Message('note_on', channel=3, note=38, velocity=0, time=45),\n",
      "  Message('note_on', channel=3, note=50, velocity=77, time=3),\n",
      "  Message('note_on', channel=3, note=50, velocity=0, time=45),\n",
      "  Message('note_on', channel=3, note=50, velocity=78, time=3),\n",
      "  Message('note_on', channel=3, note=50, velocity=0, time=45),\n",
      "  Message('note_on', channel=3, note=50, velocity=78, time=3),\n",
      "  Message('note_on', channel=3, note=50, velocity=0, time=45),\n",
      "  Message('note_on', channel=3, note=50, velocity=78, time=3),\n",
      "  Message('note_on', channel=3, note=50, velocity=0, time=45),\n",
      "  Message('note_on', channel=3, note=50, velocity=78, time=3),\n",
      "  Message('note_on', channel=3, note=50, velocity=0, time=45),\n",
      "  Message('note_on', channel=3, note=50, velocity=79, time=3),\n",
      "  Message('note_on', channel=3, note=50, velocity=0, time=45),\n",
      "  Message('note_on', channel=3, note=50, velocity=79, time=3),\n",
      "  Message('note_on', channel=3, note=50, velocity=0, time=45),\n",
      "  Message('note_on', channel=3, note=50, velocity=79, time=3),\n",
      "  Message('note_on', channel=3, note=50, velocity=0, time=89),\n",
      "  Message('note_on', channel=3, note=38, velocity=82, time=295),\n",
      "  Message('note_on', channel=3, note=38, velocity=0, time=45),\n",
      "  Message('note_on', channel=3, note=50, velocity=82, time=3),\n",
      "  Message('note_on', channel=3, note=50, velocity=0, time=45),\n",
      "  Message('note_on', channel=3, note=50, velocity=82, time=3),\n",
      "  Message('note_on', channel=3, note=50, velocity=0, time=45),\n",
      "  Message('note_on', channel=3, note=50, velocity=83, time=3),\n",
      "  Message('note_on', channel=3, note=50, velocity=0, time=45),\n",
      "  Message('note_on', channel=3, note=50, velocity=83, time=3),\n",
      "  Message('note_on', channel=3, note=50, velocity=0, time=45),\n",
      "  Message('note_on', channel=3, note=50, velocity=83, time=3),\n",
      "  Message('note_on', channel=3, note=50, velocity=0, time=45),\n",
      "  Message('note_on', channel=3, note=50, velocity=84, time=3),\n",
      "  Message('note_on', channel=3, note=50, velocity=0, time=45),\n",
      "  Message('note_on', channel=3, note=50, velocity=84, time=3),\n",
      "  Message('note_on', channel=3, note=50, velocity=0, time=45),\n",
      "  Message('note_on', channel=3, note=38, velocity=84, time=3),\n",
      "  Message('note_on', channel=3, note=38, velocity=0, time=45),\n",
      "  Message('note_on', channel=3, note=50, velocity=84, time=3),\n",
      "  Message('note_on', channel=3, note=50, velocity=0, time=45),\n",
      "  Message('note_on', channel=3, note=50, velocity=85, time=3),\n",
      "  Message('note_on', channel=3, note=50, velocity=0, time=45),\n",
      "  Message('note_on', channel=3, note=50, velocity=85, time=3),\n",
      "  Message('note_on', channel=3, note=50, velocity=0, time=45),\n",
      "  Message('note_on', channel=3, note=50, velocity=85, time=3),\n",
      "  Message('note_on', channel=3, note=50, velocity=0, time=45),\n",
      "  Message('note_on', channel=3, note=50, velocity=86, time=3),\n",
      "  Message('note_on', channel=3, note=50, velocity=0, time=45),\n",
      "  Message('note_on', channel=3, note=50, velocity=86, time=3),\n",
      "  Message('note_on', channel=3, note=50, velocity=0, time=45),\n",
      "  Message('note_on', channel=3, note=50, velocity=86, time=3),\n",
      "  Message('note_on', channel=3, note=50, velocity=0, time=45),\n",
      "  Message('note_on', channel=3, note=50, velocity=87, time=3),\n",
      "  Message('note_on', channel=3, note=38, velocity=87, time=0),\n",
      "  Message('note_on', channel=3, note=50, velocity=0, time=45),\n",
      "  Message('note_on', channel=3, note=38, velocity=0, time=0),\n",
      "  Message('note_on', channel=3, note=50, velocity=87, time=3),\n",
      "  Message('note_on', channel=3, note=38, velocity=87, time=0),\n",
      "  Message('note_on', channel=3, note=50, velocity=0, time=45),\n",
      "  Message('note_on', channel=3, note=38, velocity=0, time=0),\n",
      "  Message('note_on', channel=3, note=50, velocity=87, time=3),\n",
      "  Message('note_on', channel=3, note=38, velocity=87, time=0),\n",
      "  Message('note_on', channel=3, note=50, velocity=0, time=45),\n",
      "  Message('note_on', channel=3, note=38, velocity=0, time=0),\n",
      "  Message('note_on', channel=3, note=50, velocity=87, time=3),\n",
      "  Message('note_on', channel=3, note=38, velocity=87, time=0),\n",
      "  Message('note_on', channel=3, note=50, velocity=0, time=45),\n",
      "  Message('note_on', channel=3, note=38, velocity=0, time=0),\n",
      "  Message('note_on', channel=3, note=50, velocity=87, time=3),\n",
      "  Message('note_on', channel=3, note=38, velocity=87, time=0),\n",
      "  Message('note_on', channel=3, note=50, velocity=0, time=45),\n",
      "  Message('note_on', channel=3, note=38, velocity=0, time=0),\n",
      "  Message('note_on', channel=3, note=50, velocity=87, time=3),\n",
      "  Message('note_on', channel=3, note=38, velocity=87, time=0),\n",
      "  Message('note_on', channel=3, note=50, velocity=0, time=45),\n",
      "  Message('note_on', channel=3, note=38, velocity=0, time=0),\n",
      "  Message('note_on', channel=3, note=50, velocity=87, time=3),\n",
      "  Message('note_on', channel=3, note=38, velocity=87, time=0),\n",
      "  Message('note_on', channel=3, note=50, velocity=0, time=45),\n",
      "  Message('note_on', channel=3, note=38, velocity=0, time=0),\n",
      "  Message('note_on', channel=3, note=50, velocity=87, time=3),\n",
      "  Message('note_on', channel=3, note=38, velocity=87, time=0),\n",
      "  Message('note_on', channel=3, note=50, velocity=0, time=45),\n",
      "  Message('note_on', channel=3, note=38, velocity=0, time=0),\n",
      "  Message('note_on', channel=3, note=50, velocity=87, time=3),\n",
      "  Message('note_on', channel=3, note=50, velocity=0, time=23),\n",
      "  Message('note_on', channel=3, note=49, velocity=87, time=1),\n",
      "  Message('note_on', channel=3, note=49, velocity=0, time=23),\n",
      "  Message('note_on', channel=3, note=50, velocity=87, time=1),\n",
      "  Message('note_on', channel=3, note=50, velocity=0, time=23),\n",
      "  Message('note_on', channel=3, note=49, velocity=87, time=1),\n",
      "  Message('note_on', channel=3, note=49, velocity=0, time=23),\n",
      "  Message('note_on', channel=3, note=50, velocity=87, time=1),\n",
      "  Message('note_on', channel=3, note=50, velocity=0, time=23),\n",
      "  Message('note_on', channel=3, note=49, velocity=87, time=1),\n",
      "  Message('note_on', channel=3, note=49, velocity=0, time=23),\n",
      "  Message('note_on', channel=3, note=50, velocity=87, time=1),\n",
      "  Message('note_on', channel=3, note=50, velocity=0, time=23),\n",
      "  Message('note_on', channel=3, note=49, velocity=87, time=1),\n",
      "  Message('note_on', channel=3, note=49, velocity=0, time=23),\n",
      "  Message('note_on', channel=3, note=50, velocity=87, time=1),\n",
      "  Message('note_on', channel=3, note=50, velocity=0, time=23),\n",
      "  Message('note_on', channel=3, note=52, velocity=87, time=1),\n",
      "  Message('note_on', channel=3, note=52, velocity=0, time=23),\n",
      "  Message('note_on', channel=3, note=54, velocity=87, time=1),\n",
      "  Message('note_on', channel=3, note=54, velocity=0, time=23),\n",
      "  Message('note_on', channel=3, note=55, velocity=87, time=1),\n",
      "  Message('note_on', channel=3, note=55, velocity=0, time=23),\n",
      "  Message('note_on', channel=3, note=57, velocity=87, time=1),\n",
      "  Message('note_on', channel=3, note=57, velocity=0, time=23),\n",
      "  Message('note_on', channel=3, note=59, velocity=87, time=1),\n",
      "  Message('note_on', channel=3, note=59, velocity=0, time=23),\n",
      "  Message('note_on', channel=3, note=61, velocity=87, time=1),\n",
      "  Message('note_on', channel=3, note=61, velocity=0, time=23),\n",
      "  Message('note_on', channel=3, note=62, velocity=87, time=1),\n",
      "  Message('note_on', channel=3, note=62, velocity=0, time=23),\n",
      "  Message('note_on', channel=3, note=47, velocity=87, time=1),\n",
      "  Message('note_on', channel=3, note=47, velocity=0, time=23),\n",
      "  Message('note_on', channel=3, note=46, velocity=87, time=1),\n",
      "  Message('note_on', channel=3, note=46, velocity=0, time=23),\n",
      "  Message('note_on', channel=3, note=47, velocity=87, time=1),\n",
      "  Message('note_on', channel=3, note=47, velocity=0, time=23),\n",
      "  Message('note_on', channel=3, note=46, velocity=87, time=1),\n",
      "  Message('note_on', channel=3, note=46, velocity=0, time=23),\n",
      "  Message('note_on', channel=3, note=47, velocity=87, time=1),\n",
      "  Message('note_on', channel=3, note=47, velocity=0, time=23),\n",
      "  Message('note_on', channel=3, note=46, velocity=87, time=1),\n",
      "  Message('note_on', channel=3, note=46, velocity=0, time=23),\n",
      "  Message('note_on', channel=3, note=47, velocity=87, time=1),\n",
      "  Message('note_on', channel=3, note=47, velocity=0, time=23),\n",
      "  Message('note_on', channel=3, note=46, velocity=87, time=1),\n",
      "  Message('note_on', channel=3, note=46, velocity=0, time=23),\n",
      "  Message('note_on', channel=3, note=47, velocity=87, time=1),\n",
      "  Message('note_on', channel=3, note=47, velocity=0, time=23),\n",
      "  Message('note_on', channel=3, note=49, velocity=87, time=1),\n",
      "  Message('note_on', channel=3, note=49, velocity=0, time=23),\n",
      "  Message('note_on', channel=3, note=50, velocity=87, time=1),\n",
      "  Message('note_on', channel=3, note=50, velocity=0, time=23),\n",
      "  Message('note_on', channel=3, note=52, velocity=87, time=1),\n",
      "  Message('note_on', channel=3, note=52, velocity=0, time=23),\n",
      "  Message('note_on', channel=3, note=54, velocity=87, time=1),\n",
      "  Message('note_on', channel=3, note=54, velocity=0, time=23),\n",
      "  Message('note_on', channel=3, note=55, velocity=87, time=1),\n",
      "  Message('note_on', channel=3, note=55, velocity=0, time=23),\n",
      "  Message('note_on', channel=3, note=57, velocity=87, time=1),\n",
      "  Message('note_on', channel=3, note=57, velocity=0, time=23),\n",
      "  Message('note_on', channel=3, note=59, velocity=87, time=1),\n",
      "  Message('note_on', channel=3, note=59, velocity=0, time=23),\n",
      "  Message('note_on', channel=3, note=43, velocity=87, time=1),\n",
      "  Message('note_on', channel=3, note=43, velocity=0, time=23),\n",
      "  Message('note_on', channel=3, note=42, velocity=87, time=1),\n",
      "  Message('note_on', channel=3, note=42, velocity=0, time=23),\n",
      "  Message('note_on', channel=3, note=43, velocity=87, time=1),\n",
      "  Message('note_on', channel=3, note=43, velocity=0, time=23),\n",
      "  Message('note_on', channel=3, note=42, velocity=87, time=1),\n",
      "  Message('note_on', channel=3, note=42, velocity=0, time=23),\n",
      "  Message('note_on', channel=3, note=43, velocity=87, time=1),\n",
      "  Message('note_on', channel=3, note=43, velocity=0, time=23),\n",
      "  Message('note_on', channel=3, note=42, velocity=87, time=1),\n",
      "  Message('note_on', channel=3, note=42, velocity=0, time=23),\n",
      "  Message('note_on', channel=3, note=43, velocity=87, time=1),\n",
      "  Message('note_on', channel=3, note=43, velocity=0, time=23),\n",
      "  Message('note_on', channel=3, note=42, velocity=87, time=1),\n",
      "  Message('note_on', channel=3, note=42, velocity=0, time=23),\n",
      "  Message('note_on', channel=3, note=43, velocity=87, time=1),\n",
      "  Message('note_on', channel=3, note=43, velocity=0, time=23),\n",
      "  Message('note_on', channel=3, note=45, velocity=87, time=1),\n",
      "  Message('note_on', channel=3, note=45, velocity=0, time=23),\n",
      "  Message('note_on', channel=3, note=47, velocity=87, time=1),\n",
      "  Message('note_on', channel=3, note=47, velocity=0, time=23),\n",
      "  Message('note_on', channel=3, note=49, velocity=87, time=1),\n",
      "  Message('note_on', channel=3, note=49, velocity=0, time=23),\n",
      "  Message('note_on', channel=3, note=50, velocity=87, time=1),\n",
      "  Message('note_on', channel=3, note=50, velocity=0, time=23),\n",
      "  Message('note_on', channel=3, note=52, velocity=87, time=1),\n",
      "  Message('note_on', channel=3, note=52, velocity=0, time=23),\n",
      "  Message('note_on', channel=3, note=54, velocity=87, time=1),\n",
      "  Message('note_on', channel=3, note=54, velocity=0, time=23),\n",
      "  Message('note_on', channel=3, note=55, velocity=87, time=1),\n",
      "  Message('note_on', channel=3, note=55, velocity=0, time=23),\n",
      "  Message('note_on', channel=3, note=40, velocity=87, time=1),\n",
      "  Message('note_on', channel=3, note=40, velocity=0, time=23),\n",
      "  Message('note_on', channel=3, note=39, velocity=87, time=1),\n",
      "  Message('note_on', channel=3, note=39, velocity=0, time=23),\n",
      "  Message('note_on', channel=3, note=40, velocity=87, time=1),\n",
      "  Message('note_on', channel=3, note=40, velocity=0, time=23),\n",
      "  Message('note_on', channel=3, note=39, velocity=87, time=1),\n",
      "  Message('note_on', channel=3, note=39, velocity=0, time=23),\n",
      "  Message('note_on', channel=3, note=40, velocity=87, time=1),\n",
      "  Message('note_on', channel=3, note=40, velocity=0, time=23),\n",
      "  Message('note_on', channel=3, note=39, velocity=87, time=1),\n",
      "  Message('note_on', channel=3, note=39, velocity=0, time=23),\n",
      "  Message('note_on', channel=3, note=40, velocity=87, time=1),\n",
      "  Message('note_on', channel=3, note=40, velocity=0, time=23),\n",
      "  Message('note_on', channel=3, note=39, velocity=87, time=1),\n",
      "  Message('note_on', channel=3, note=39, velocity=0, time=23),\n",
      "  Message('note_on', channel=3, note=40, velocity=87, time=1),\n",
      "  Message('note_on', channel=3, note=40, velocity=0, time=23),\n",
      "  Message('note_on', channel=3, note=42, velocity=87, time=1),\n",
      "  Message('note_on', channel=3, note=42, velocity=0, time=23),\n",
      "  Message('note_on', channel=3, note=43, velocity=87, time=1),\n",
      "  Message('note_on', channel=3, note=43, velocity=0, time=23),\n",
      "  Message('note_on', channel=3, note=45, velocity=87, time=1),\n",
      "  Message('note_on', channel=3, note=45, velocity=0, time=23),\n",
      "  Message('note_on', channel=3, note=47, velocity=87, time=1),\n",
      "  Message('note_on', channel=3, note=47, velocity=0, time=23),\n",
      "  Message('note_on', channel=3, note=49, velocity=87, time=1),\n",
      "  Message('note_on', channel=3, note=49, velocity=0, time=23),\n",
      "  Message('note_on', channel=3, note=50, velocity=87, time=1),\n",
      "  Message('note_on', channel=3, note=50, velocity=0, time=23),\n",
      "  Message('note_on', channel=3, note=52, velocity=87, time=1),\n",
      "  Message('note_on', channel=3, note=52, velocity=0, time=23),\n",
      "  Message('note_on', channel=3, note=49, velocity=87, time=1),\n",
      "  Message('note_on', channel=3, note=37, velocity=87, time=0),\n",
      "  Message('note_on', channel=3, note=49, velocity=0, time=89),\n",
      "  Message('note_on', channel=3, note=37, velocity=0, time=0),\n",
      "  Message('note_on', channel=3, note=50, velocity=87, time=103),\n",
      "  Message('note_on', channel=3, note=38, velocity=87, time=0),\n",
      "  Message('note_on', channel=3, note=50, velocity=0, time=89),\n",
      "  Message('note_on', channel=3, note=38, velocity=0, time=0),\n",
      "  Message('note_on', channel=3, note=47, velocity=87, time=103),\n",
      "  Message('note_on', channel=3, note=35, velocity=87, time=0),\n",
      "  Message('note_on', channel=3, note=47, velocity=0, time=89),\n",
      "  Message('note_on', channel=3, note=35, velocity=0, time=0),\n",
      "  Message('note_on', channel=3, note=49, velocity=87, time=103),\n",
      "  Message('note_on', channel=3, note=37, velocity=87, time=0),\n",
      "  Message('note_on', channel=3, note=49, velocity=0, time=89),\n",
      "  Message('note_on', channel=3, note=37, velocity=0, time=0),\n",
      "  Message('note_on', channel=3, note=50, velocity=87, time=103),\n",
      "  Message('note_on', channel=3, note=38, velocity=87, time=0),\n",
      "  Message('note_on', channel=3, note=50, velocity=0, time=89),\n",
      "  Message('note_on', channel=3, note=38, velocity=0, time=0),\n",
      "  Message('note_on', channel=3, note=47, velocity=87, time=103),\n",
      "  Message('note_on', channel=3, note=35, velocity=87, time=0),\n",
      "  Message('note_on', channel=3, note=47, velocity=0, time=89),\n",
      "  Message('note_on', channel=3, note=35, velocity=0, time=0),\n",
      "  Message('note_on', channel=3, note=43, velocity=87, time=103),\n",
      "  Message('note_on', channel=3, note=31, velocity=87, time=0),\n",
      "  Message('note_on', channel=3, note=43, velocity=0, time=89),\n",
      "  Message('note_on', channel=3, note=31, velocity=0, time=0),\n",
      "  Message('note_on', channel=3, note=45, velocity=87, time=103),\n",
      "  Message('note_on', channel=3, note=33, velocity=87, time=0),\n",
      "  Message('note_on', channel=3, note=45, velocity=0, time=89),\n",
      "  Message('note_on', channel=3, note=33, velocity=0, time=0),\n",
      "  Message('note_on', channel=3, note=50, velocity=87, time=103),\n",
      "  Message('note_on', channel=3, note=38, velocity=87, time=0),\n",
      "  Message('note_on', channel=3, note=50, velocity=0, time=89),\n",
      "  Message('note_on', channel=3, note=38, velocity=0, time=0),\n",
      "  Message('note_on', channel=3, note=62, velocity=73, time=199),\n",
      "  Message('note_on', channel=3, note=62, velocity=0, time=20),\n",
      "  Message('note_on', channel=3, note=60, velocity=73, time=28),\n",
      "  Message('note_on', channel=3, note=60, velocity=0, time=20),\n",
      "  Message('note_on', channel=3, note=59, velocity=73, time=28),\n",
      "  Message('note_on', channel=3, note=59, velocity=0, time=23),\n",
      "  Message('note_on', channel=3, note=60, velocity=73, time=1),\n",
      "  Message('note_on', channel=3, note=60, velocity=0, time=23),\n",
      "  Message('note_on', channel=3, note=59, velocity=73, time=1),\n",
      "  Message('note_on', channel=3, note=59, velocity=0, time=23),\n",
      "  Message('note_on', channel=3, note=58, velocity=73, time=1),\n",
      "  Message('note_on', channel=3, note=58, velocity=0, time=23),\n",
      "  Message('note_on', channel=3, note=59, velocity=73, time=1),\n",
      "  Message('note_on', channel=3, note=59, velocity=0, time=23),\n",
      "  Message('note_on', channel=3, note=60, velocity=73, time=1),\n",
      "  Message('note_on', channel=3, note=60, velocity=0, time=23),\n",
      "  Message('note_on', channel=3, note=57, velocity=73, time=1),\n",
      "  Message('note_on', channel=3, note=57, velocity=0, time=23),\n",
      "  Message('note_on', channel=3, note=59, velocity=73, time=1),\n",
      "  Message('note_on', channel=3, note=59, velocity=0, time=23),\n",
      "  Message('note_on', channel=3, note=55, velocity=73, time=1),\n",
      "  Message('note_on', channel=3, note=55, velocity=0, time=23),\n",
      "  Message('note_on', channel=3, note=57, velocity=73, time=1),\n",
      "  Message('note_on', channel=3, note=57, velocity=0, time=23),\n",
      "  Message('note_on', channel=3, note=54, velocity=73, time=1),\n",
      "  Message('note_on', channel=3, note=54, velocity=0, time=23),\n",
      "  Message('note_on', channel=3, note=55, velocity=73, time=1),\n",
      "  Message('note_on', channel=3, note=55, velocity=0, time=23),\n",
      "  Message('note_on', channel=3, note=52, velocity=73, time=1),\n",
      "  Message('note_on', channel=3, note=52, velocity=0, time=23),\n",
      "  Message('note_on', channel=3, note=54, velocity=73, time=1),\n",
      "  Message('note_on', channel=3, note=54, velocity=0, time=23),\n",
      "  Message('note_on', channel=3, note=55, velocity=73, time=1),\n",
      "  Message('note_on', channel=3, note=55, velocity=0, time=23),\n",
      "  Message('note_on', channel=3, note=56, velocity=73, time=1),\n",
      "  Message('note_on', channel=3, note=56, velocity=0, time=23),\n",
      "  Message('note_on', channel=3, note=57, velocity=74, time=1),\n",
      "  Message('note_on', channel=3, note=57, velocity=0, time=23),\n",
      "  Message('note_on', channel=3, note=59, velocity=74, time=1),\n",
      "  Message('note_on', channel=3, note=59, velocity=0, time=23),\n",
      "  Message('note_on', channel=3, note=57, velocity=74, time=1),\n",
      "  Message('note_on', channel=3, note=57, velocity=0, time=23),\n",
      "  Message('note_on', channel=3, note=56, velocity=74, time=1),\n",
      "  Message('note_on', channel=3, note=56, velocity=0, time=23),\n",
      "  Message('note_on', channel=3, note=57, velocity=74, time=1),\n",
      "  Message('note_on', channel=3, note=57, velocity=0, time=23),\n",
      "  Message('note_on', channel=3, note=59, velocity=74, time=1),\n",
      "  Message('note_on', channel=3, note=59, velocity=0, time=23),\n",
      "  Message('note_on', channel=3, note=55, velocity=75, time=1),\n",
      "  Message('note_on', channel=3, note=55, velocity=0, time=23),\n",
      "  Message('note_on', channel=3, note=57, velocity=75, time=1),\n",
      "  Message('note_on', channel=3, note=57, velocity=0, time=23),\n",
      "  Message('note_on', channel=3, note=54, velocity=75, time=1),\n",
      "  Message('note_on', channel=3, note=54, velocity=0, time=23),\n",
      "  Message('note_on', channel=3, note=55, velocity=75, time=1),\n",
      "  Message('note_on', channel=3, note=55, velocity=0, time=23),\n",
      "  Message('note_on', channel=3, note=52, velocity=75, time=1),\n",
      "  Message('note_on', channel=3, note=52, velocity=0, time=23),\n",
      "  Message('note_on', channel=3, note=54, velocity=75, time=1),\n",
      "  Message('note_on', channel=3, note=54, velocity=0, time=23),\n",
      "  Message('note_on', channel=3, note=50, velocity=76, time=1),\n",
      "  Message('note_on', channel=3, note=50, velocity=0, time=23),\n",
      "  Message('note_on', channel=3, note=52, velocity=76, time=1),\n",
      "  Message('note_on', channel=3, note=52, velocity=0, time=23),\n",
      "  Message('note_on', channel=3, note=54, velocity=76, time=1),\n",
      "  Message('note_on', channel=3, note=54, velocity=0, time=23),\n",
      "  Message('note_on', channel=3, note=50, velocity=76, time=1),\n",
      "  Message('note_on', channel=3, note=50, velocity=0, time=23),\n",
      "  Message('note_on', channel=3, note=55, velocity=76, time=1),\n",
      "  Message('note_on', channel=3, note=55, velocity=0, time=23),\n",
      "  Message('note_on', channel=3, note=57, velocity=76, time=1),\n",
      "  Message('note_on', channel=3, note=57, velocity=0, time=23),\n",
      "  Message('note_on', channel=3, note=55, velocity=77, time=1),\n",
      "  Message('note_on', channel=3, note=55, velocity=0, time=23),\n",
      "  Message('note_on', channel=3, note=54, velocity=77, time=1),\n",
      "  Message('note_on', channel=3, note=54, velocity=0, time=23),\n",
      "  Message('note_on', channel=3, note=55, velocity=77, time=1),\n",
      "  Message('note_on', channel=3, note=55, velocity=0, time=23),\n",
      "  Message('note_on', channel=3, note=67, velocity=77, time=1),\n",
      "  Message('note_on', channel=3, note=67, velocity=0, time=23),\n",
      "  Message('note_on', channel=3, note=66, velocity=77, time=1),\n",
      "  Message('note_on', channel=3, note=66, velocity=0, time=23),\n",
      "  Message('note_on', channel=3, note=67, velocity=77, time=1),\n",
      "  Message('note_on', channel=3, note=67, velocity=0, time=23),\n",
      "  Message('note_on', channel=3, note=64, velocity=77, time=1),\n",
      "  Message('note_on', channel=3, note=64, velocity=0, time=23),\n",
      "  Message('note_on', channel=3, note=66, velocity=78, time=1),\n",
      "  Message('note_on', channel=3, note=66, velocity=0, time=23),\n",
      "  Message('note_on', channel=3, note=63, velocity=78, time=1),\n",
      "  Message('note_on', channel=3, note=63, velocity=0, time=23),\n",
      "  Message('note_on', channel=3, note=64, velocity=78, time=1),\n",
      "  Message('note_on', channel=3, note=64, velocity=0, time=23),\n",
      "  Message('note_on', channel=3, note=61, velocity=78, time=1),\n",
      "  Message('note_on', channel=3, note=61, velocity=0, time=23),\n",
      "  Message('note_on', channel=3, note=62, velocity=78, time=1),\n",
      "  Message('note_on', channel=3, note=62, velocity=0, time=23),\n",
      "  Message('note_on', channel=3, note=64, velocity=78, time=1),\n",
      "  Message('note_on', channel=3, note=64, velocity=0, time=23),\n",
      "  Message('note_on', channel=3, note=65, velocity=79, time=1),\n",
      "  Message('note_on', channel=3, note=65, velocity=0, time=23),\n",
      "  Message('note_on', channel=3, note=66, velocity=79, time=1),\n",
      "  Message('note_on', channel=3, note=66, velocity=0, time=23),\n",
      "  Message('note_on', channel=3, note=67, velocity=79, time=1),\n",
      "  Message('note_on', channel=3, note=67, velocity=0, time=23),\n",
      "  Message('note_on', channel=3, note=66, velocity=79, time=1),\n",
      "  Message('note_on', channel=3, note=66, velocity=0, time=23),\n",
      "  Message('note_on', channel=3, note=65, velocity=79, time=1),\n",
      "  Message('note_on', channel=3, note=65, velocity=0, time=23),\n",
      "  Message('note_on', channel=3, note=66, velocity=79, time=1),\n",
      "  Message('note_on', channel=3, note=66, velocity=0, time=23),\n",
      "  Message('note_on', channel=3, note=67, velocity=80, time=1),\n",
      "  Message('note_on', channel=3, note=67, velocity=0, time=23),\n",
      "  Message('note_on', channel=3, note=64, velocity=80, time=1),\n",
      "  Message('note_on', channel=3, note=64, velocity=0, time=23),\n",
      "  Message('note_on', channel=3, note=66, velocity=80, time=1),\n",
      "  Message('note_on', channel=3, note=66, velocity=0, time=23),\n",
      "  Message('note_on', channel=3, note=62, velocity=80, time=1),\n",
      "  Message('note_on', channel=3, note=62, velocity=0, time=23),\n",
      "  Message('note_on', channel=3, note=64, velocity=80, time=1),\n",
      "  Message('note_on', channel=3, note=64, velocity=0, time=23),\n",
      "  Message('note_on', channel=3, note=61, velocity=80, time=1),\n",
      "  Message('note_on', channel=3, note=61, velocity=0, time=23),\n",
      "  Message('note_on', channel=3, note=62, velocity=81, time=1),\n",
      "  Message('note_on', channel=3, note=62, velocity=0, time=23),\n",
      "  Message('note_on', channel=3, note=59, velocity=81, time=1),\n",
      "  Message('note_on', channel=3, note=59, velocity=0, time=23),\n",
      "  Message('note_on', channel=3, note=57, velocity=81, time=1),\n",
      "  Message('note_on', channel=3, note=57, velocity=0, time=23),\n",
      "  Message('note_on', channel=3, note=55, velocity=81, time=1),\n",
      "  Message('note_on', channel=3, note=55, velocity=0, time=23),\n",
      "  Message('note_on', channel=3, note=54, velocity=81, time=1),\n",
      "  Message('note_on', channel=3, note=54, velocity=0, time=23),\n",
      "  Message('note_on', channel=3, note=55, velocity=81, time=1),\n",
      "  Message('note_on', channel=3, note=43, velocity=81, time=0),\n",
      "  Message('note_on', channel=3, note=55, velocity=0, time=354),\n",
      "  Message('note_on', channel=3, note=43, velocity=0, time=0),\n",
      "  Message('note_on', channel=3, note=56, velocity=84, time=30),\n",
      "  Message('note_on', channel=3, note=44, velocity=84, time=0),\n",
      "  Message('note_on', channel=3, note=56, velocity=0, time=354),\n",
      "  Message('note_on', channel=3, note=44, velocity=0, time=0),\n",
      "  Message('note_on', channel=3, note=57, velocity=87, time=30),\n",
      "  Message('note_on', channel=3, note=45, velocity=87, time=0),\n",
      "  Message('note_on', channel=3, note=57, velocity=0, time=89),\n",
      "  Message('note_on', channel=3, note=45, velocity=0, time=0),\n",
      "  Message('note_on', channel=3, note=57, velocity=87, time=295),\n",
      "  Message('note_on', channel=3, note=57, velocity=0, time=45),\n",
      "  Message('note_on', channel=3, note=57, velocity=87, time=3),\n",
      "  Message('note_on', channel=3, note=57, velocity=0, time=45),\n",
      "  Message('note_on', channel=3, note=57, velocity=87, time=3),\n",
      "  Message('note_on', channel=3, note=57, velocity=0, time=45),\n",
      "  Message('note_on', channel=3, note=57, velocity=87, time=3),\n",
      "  Message('note_on', channel=3, note=57, velocity=0, time=45),\n",
      "  Message('note_on', channel=3, note=45, velocity=87, time=3),\n",
      "  Message('note_on', channel=3, note=45, velocity=0, time=45),\n",
      "  Message('note_on', channel=3, note=45, velocity=87, time=3),\n",
      "  Message('note_on', channel=3, note=45, velocity=0, time=45),\n",
      "  Message('note_on', channel=3, note=45, velocity=87, time=3),\n",
      "  Message('note_on', channel=3, note=45, velocity=0, time=45),\n",
      "  Message('note_on', channel=3, note=45, velocity=87, time=3),\n",
      "  Message('note_on', channel=3, note=45, velocity=0, time=45),\n",
      "  Message('note_on', channel=3, note=50, velocity=87, time=3),\n",
      "  Message('note_on', channel=3, note=50, velocity=0, time=89),\n",
      "  Message('note_on', channel=3, note=62, velocity=73, time=343),\n",
      "  Message('note_on', channel=3, note=62, velocity=0, time=45),\n",
      "  Message('note_on', channel=3, note=61, velocity=73, time=3),\n",
      "  Message('note_on', channel=3, note=61, velocity=0, time=45),\n",
      "  Message('note_on', channel=3, note=60, velocity=73, time=3),\n",
      "  Message('note_on', channel=3, note=60, velocity=0, time=45),\n",
      "  Message('note_on', channel=3, note=59, velocity=73, time=3),\n",
      "  Message('note_on', channel=3, note=59, velocity=0, time=89),\n",
      "  Message('note_on', channel=3, note=59, velocity=73, time=151),\n",
      "  Message('note_on', channel=3, note=59, velocity=0, time=45),\n",
      "  Message('note_on', channel=3, note=58, velocity=73, time=3),\n",
      "  Message('note_on', channel=3, note=58, velocity=0, time=45),\n",
      "  Message('note_on', channel=3, note=57, velocity=73, time=3),\n",
      "  Message('note_on', channel=3, note=57, velocity=0, time=45),\n",
      "  Message('note_on', channel=3, note=56, velocity=73, time=3),\n",
      "  Message('note_on', channel=3, note=56, velocity=0, time=89),\n",
      "  Message('note_on', channel=3, note=55, velocity=73, time=7),\n",
      "  Message('note_on', channel=3, note=55, velocity=0, time=185),\n",
      "  Message('note_on', channel=3, note=54, velocity=73, time=7),\n",
      "  Message('note_on', channel=3, note=54, velocity=0, time=89),\n",
      "  Message('note_on', channel=3, note=55, velocity=73, time=7),\n",
      "  Message('note_on', channel=3, note=55, velocity=0, time=89),\n",
      "  Message('note_on', channel=3, note=57, velocity=73, time=7),\n",
      "  Message('note_on', channel=3, note=45, velocity=73, time=0),\n",
      "  Message('note_on', channel=3, note=57, velocity=0, time=89),\n",
      "  Message('note_on', channel=3, note=45, velocity=0, time=0),\n",
      "  Message('note_on', channel=3, note=62, velocity=87, time=7),\n",
      "  Message('note_on', channel=3, note=50, velocity=87, time=0),\n",
      "  Message('note_on', channel=3, note=62, velocity=0, time=177),\n",
      "  Message('note_on', channel=3, note=50, velocity=0, time=0),\n",
      "  Message('note_on', channel=3, note=61, velocity=87, time=15),\n",
      "  Message('note_on', channel=3, note=49, velocity=87, time=0),\n",
      "  Message('note_on', channel=3, note=61, velocity=0, time=89),\n",
      "  Message('note_on', channel=3, note=49, velocity=0, time=0),\n",
      "  Message('note_on', channel=3, note=59, velocity=87, time=7),\n",
      "  Message('note_on', channel=3, note=47, velocity=87, time=0),\n",
      "  Message('note_on', channel=3, note=59, velocity=0, time=89),\n",
      "  Message('note_on', channel=3, note=47, velocity=0, time=0),\n",
      "  Message('note_on', channel=3, note=56, velocity=103, time=7),\n",
      "  Message('note_on', channel=3, note=44, velocity=103, time=0),\n",
      "  Message('note_on', channel=3, note=56, velocity=0, time=96),\n",
      "  Message('note_on', channel=3, note=44, velocity=0, time=0),\n",
      "  Message('note_on', channel=3, note=57, velocity=87, time=0),\n",
      "  Message('note_on', channel=3, note=45, velocity=87, time=0),\n",
      "  Message('note_on', channel=3, note=57, velocity=0, time=133),\n",
      "  Message('note_on', channel=3, note=45, velocity=0, time=0),\n",
      "  Message('note_on', channel=3, note=50, velocity=87, time=11),\n",
      "  Message('note_on', channel=3, note=38, velocity=87, time=0),\n",
      "  Message('note_on', channel=3, note=50, velocity=0, time=45),\n",
      "  Message('note_on', channel=3, note=38, velocity=0, time=0),\n",
      "  Message('note_on', channel=3, note=55, velocity=87, time=3),\n",
      "  Message('note_on', channel=3, note=43, velocity=87, time=0),\n",
      "  Message('note_on', channel=3, note=55, velocity=0, time=45),\n",
      "  Message('note_on', channel=3, note=43, velocity=0, time=0),\n",
      "  Message('note_on', channel=3, note=54, velocity=87, time=3),\n",
      "  Message('note_on', channel=3, note=42, velocity=87, time=0),\n",
      "  Message('note_on', channel=3, note=54, velocity=0, time=45),\n",
      "  Message('note_on', channel=3, note=42, velocity=0, time=0),\n",
      "  Message('note_on', channel=3, note=53, velocity=103, time=3),\n",
      "  Message('note_on', channel=3, note=41, velocity=103, time=0),\n",
      "  Message('note_on', channel=3, note=53, velocity=0, time=96),\n",
      "  Message('note_on', channel=3, note=41, velocity=0, time=0),\n",
      "  Message('note_on', channel=3, note=54, velocity=87, time=0),\n",
      "  Message('note_on', channel=3, note=42, velocity=87, time=0),\n",
      "  Message('note_on', channel=3, note=54, velocity=0, time=133),\n",
      "  Message('note_on', channel=3, note=42, velocity=0, time=0),\n",
      "  Message('note_on', channel=3, note=47, velocity=87, time=11),\n",
      "  Message('note_on', channel=3, note=35, velocity=87, time=0),\n",
      "  Message('note_on', channel=3, note=47, velocity=0, time=45),\n",
      "  Message('note_on', channel=3, note=35, velocity=0, time=0),\n",
      "  Message('note_on', channel=3, note=52, velocity=87, time=3),\n",
      "  Message('note_on', channel=3, note=40, velocity=87, time=0),\n",
      "  Message('note_on', channel=3, note=52, velocity=0, time=45),\n",
      "  Message('note_on', channel=3, note=40, velocity=0, time=0),\n",
      "  Message('note_on', channel=3, note=50, velocity=87, time=3),\n",
      "  Message('note_on', channel=3, note=38, velocity=87, time=0),\n",
      "  Message('note_on', channel=3, note=50, velocity=0, time=45),\n",
      "  Message('note_on', channel=3, note=38, velocity=0, time=0),\n",
      "  Message('note_on', channel=3, note=37, velocity=87, time=3),\n",
      "  Message('note_on', channel=3, note=37, velocity=0, time=24),\n",
      "  Message('note_on', channel=3, note=49, velocity=87, time=0),\n",
      "  Message('note_on', channel=3, note=49, velocity=0, time=23),\n",
      "  Message('note_on', channel=3, note=37, velocity=87, time=1),\n",
      "  Message('note_on', channel=3, note=37, velocity=0, time=23),\n",
      "  Message('note_on', channel=3, note=49, velocity=87, time=1),\n",
      "  Message('note_on', channel=3, note=49, velocity=0, time=23),\n",
      "  Message('note_on', channel=3, note=38, velocity=87, time=1),\n",
      "  Message('note_on', channel=3, note=38, velocity=0, time=94),\n",
      "  Message('note_on', channel=3, note=42, velocity=87, time=290),\n",
      "  Message('note_on', channel=3, note=42, velocity=0, time=23),\n",
      "  Message('note_on', channel=3, note=54, velocity=87, time=1),\n",
      "  Message('note_on', channel=3, note=54, velocity=0, time=23),\n",
      "  Message('note_on', channel=3, note=42, velocity=87, time=1),\n",
      "  Message('note_on', channel=3, note=42, velocity=0, time=23),\n",
      "  Message('note_on', channel=3, note=54, velocity=87, time=1),\n",
      "  Message('note_on', channel=3, note=54, velocity=0, time=23),\n",
      "  Message('note_on', channel=3, note=43, velocity=87, time=1),\n",
      "  Message('note_on', channel=3, note=43, velocity=0, time=23),\n",
      "  Message('note_on', channel=3, note=55, velocity=87, time=1),\n",
      "  Message('note_on', channel=3, note=55, velocity=0, time=23),\n",
      "  Message('note_on', channel=3, note=43, velocity=87, time=1),\n",
      "  Message('note_on', channel=3, note=43, velocity=0, time=23),\n",
      "  Message('note_on', channel=3, note=55, velocity=87, time=1),\n",
      "  Message('note_on', channel=3, note=55, velocity=0, time=23),\n",
      "  Message('note_on', channel=3, note=43, velocity=87, time=1),\n",
      "  Message('note_on', channel=3, note=43, velocity=0, time=23),\n",
      "  Message('note_on', channel=3, note=55, velocity=87, time=1),\n",
      "  Message('note_on', channel=3, note=55, velocity=0, time=23),\n",
      "  Message('note_on', channel=3, note=43, velocity=87, time=1),\n",
      "  Message('note_on', channel=3, note=43, velocity=0, time=23),\n",
      "  Message('note_on', channel=3, note=55, velocity=87, time=1),\n",
      "  Message('note_on', channel=3, note=55, velocity=0, time=23),\n",
      "  Message('note_on', channel=3, note=43, velocity=87, time=1),\n",
      "  Message('note_on', channel=3, note=43, velocity=0, time=23),\n",
      "  Message('note_on', channel=3, note=55, velocity=87, time=1),\n",
      "  Message('note_on', channel=3, note=55, velocity=0, time=23),\n",
      "  Message('note_on', channel=3, note=43, velocity=87, time=1),\n",
      "  Message('note_on', channel=3, note=43, velocity=0, time=23),\n",
      "  Message('note_on', channel=3, note=55, velocity=87, time=1),\n",
      "  Message('note_on', channel=3, note=55, velocity=0, time=23),\n",
      "  Message('note_on', channel=3, note=54, velocity=87, time=1),\n",
      "  Message('note_on', channel=3, note=42, velocity=87, time=0),\n",
      "  Message('note_on', channel=3, note=54, velocity=0, time=89),\n",
      "  Message('note_on', channel=3, note=42, velocity=0, time=0),\n",
      "  Message('note_on', channel=3, note=43, velocity=87, time=199),\n",
      "  Message('note_on', channel=3, note=43, velocity=0, time=23),\n",
      "  Message('note_on', channel=3, note=55, velocity=87, time=1),\n",
      "  Message('note_on', channel=3, note=55, velocity=0, time=23),\n",
      "  Message('note_on', channel=3, note=43, velocity=87, time=1),\n",
      "  Message('note_on', channel=3, note=43, velocity=0, time=23),\n",
      "  Message('note_on', channel=3, note=55, velocity=87, time=1),\n",
      "  Message('note_on', channel=3, note=55, velocity=0, time=23),\n",
      "  Message('note_on', channel=3, note=42, velocity=87, time=1),\n",
      "  Message('note_on', channel=3, note=42, velocity=0, time=23),\n",
      "  Message('note_on', channel=3, note=54, velocity=87, time=1),\n",
      "  Message('note_on', channel=3, note=54, velocity=0, time=23),\n",
      "  Message('note_on', channel=3, note=42, velocity=87, time=1),\n",
      "  Message('note_on', channel=3, note=42, velocity=0, time=23),\n",
      "  Message('note_on', channel=3, note=54, velocity=87, time=1),\n",
      "  Message('note_on', channel=3, note=54, velocity=0, time=23),\n",
      "  Message('note_on', channel=3, note=43, velocity=87, time=1),\n",
      "  Message('note_on', channel=3, note=43, velocity=0, time=23),\n",
      "  Message('note_on', channel=3, note=55, velocity=87, time=1),\n",
      "  Message('note_on', channel=3, note=55, velocity=0, time=23),\n",
      "  Message('note_on', channel=3, note=43, velocity=87, time=1),\n",
      "  Message('note_on', channel=3, note=43, velocity=0, time=23),\n",
      "  Message('note_on', channel=3, note=55, velocity=87, time=1),\n",
      "  Message('note_on', channel=3, note=55, velocity=0, time=23),\n",
      "  Message('note_on', channel=3, note=44, velocity=87, time=1),\n",
      "  Message('note_on', channel=3, note=44, velocity=0, time=23),\n",
      "  Message('note_on', channel=3, note=56, velocity=87, time=1),\n",
      "  Message('note_on', channel=3, note=56, velocity=0, time=23),\n",
      "  Message('note_on', channel=3, note=44, velocity=87, time=1),\n",
      "  Message('note_on', channel=3, note=44, velocity=0, time=23),\n",
      "  Message('note_on', channel=3, note=56, velocity=87, time=1),\n",
      "  Message('note_on', channel=3, note=56, velocity=0, time=23),\n",
      "  Message('note_on', channel=3, note=45, velocity=87, time=1),\n",
      "  Message('note_on', channel=3, note=45, velocity=0, time=23),\n",
      "  Message('note_on', channel=3, note=57, velocity=86, time=1),\n",
      "  Message('note_on', channel=3, note=57, velocity=0, time=23),\n",
      "  Message('note_on', channel=3, note=56, velocity=86, time=1),\n",
      "  Message('note_on', channel=3, note=56, velocity=0, time=23),\n",
      "  Message('note_on', channel=3, note=57, velocity=86, time=1),\n",
      "  Message('note_on', channel=3, note=57, velocity=0, time=23),\n",
      "  Message('note_on', channel=3, note=45, velocity=85, time=1),\n",
      "  Message('note_on', channel=3, note=45, velocity=0, time=23),\n",
      "  Message('note_on', channel=3, note=57, velocity=85, time=1),\n",
      "  Message('note_on', channel=3, note=57, velocity=0, time=23),\n",
      "  Message('note_on', channel=3, note=56, velocity=85, time=1),\n",
      "  Message('note_on', channel=3, note=56, velocity=0, time=23),\n",
      "  Message('note_on', channel=3, note=57, velocity=84, time=1),\n",
      "  Message('note_on', channel=3, note=57, velocity=0, time=23),\n",
      "  Message('note_on', channel=3, note=45, velocity=84, time=1),\n",
      "  Message('note_on', channel=3, note=45, velocity=0, time=23),\n",
      "  Message('note_on', channel=3, note=57, velocity=84, time=1),\n",
      "  Message('note_on', channel=3, note=57, velocity=0, time=23),\n",
      "  Message('note_on', channel=3, note=56, velocity=83, time=1),\n",
      "  Message('note_on', channel=3, note=56, velocity=0, time=23),\n",
      "  Message('note_on', channel=3, note=57, velocity=83, time=1),\n",
      "  Message('note_on', channel=3, note=57, velocity=0, time=23),\n",
      "  Message('note_on', channel=3, note=45, velocity=83, time=1),\n",
      "  Message('note_on', channel=3, note=45, velocity=0, time=23),\n",
      "  Message('note_on', channel=3, note=57, velocity=82, time=1),\n",
      "  Message('note_on', channel=3, note=57, velocity=0, time=23),\n",
      "  Message('note_on', channel=3, note=56, velocity=82, time=1),\n",
      "  Message('note_on', channel=3, note=56, velocity=0, time=23),\n",
      "  Message('note_on', channel=3, note=57, velocity=82, time=1),\n",
      "  Message('note_on', channel=3, note=57, velocity=0, time=23),\n",
      "  Message('note_on', channel=3, note=50, velocity=82, time=1),\n",
      "  Message('note_on', channel=3, note=50, velocity=0, time=20),\n",
      "  Message('note_on', channel=3, note=38, velocity=82, time=28),\n",
      "  Message('note_on', channel=3, note=38, velocity=0, time=20),\n",
      "  Message('note_on', channel=3, note=50, velocity=83, time=28),\n",
      "  Message('note_on', channel=3, note=50, velocity=0, time=20),\n",
      "  Message('note_on', channel=3, note=50, velocity=83, time=28),\n",
      "  Message('note_on', channel=3, note=50, velocity=0, time=20),\n",
      "  Message('note_on', channel=3, note=50, velocity=84, time=28),\n",
      "  Message('note_on', channel=3, note=50, velocity=0, time=20),\n",
      "  Message('note_on', channel=3, note=50, velocity=85, time=28),\n",
      "  Message('note_on', channel=3, note=50, velocity=0, time=20),\n",
      "  Message('note_on', channel=3, note=50, velocity=85, time=28),\n",
      "  Message('note_on', channel=3, note=50, velocity=0, time=20),\n",
      "  Message('note_on', channel=3, note=50, velocity=86, time=28),\n",
      "  Message('note_on', channel=3, note=50, velocity=0, time=20),\n",
      "  Message('note_on', channel=3, note=50, velocity=87, time=28),\n",
      "  Message('note_on', channel=3, note=50, velocity=0, time=20),\n",
      "  Message('note_on', channel=3, note=38, velocity=85, time=28),\n",
      "  Message('note_on', channel=3, note=38, velocity=0, time=20),\n",
      "  Message('note_on', channel=3, note=50, velocity=84, time=28),\n",
      "  Message('note_on', channel=3, note=50, velocity=0, time=20),\n",
      "  Message('note_on', channel=3, note=50, velocity=83, time=28),\n",
      "  Message('note_on', channel=3, note=50, velocity=0, time=20),\n",
      "  Message('note_on', channel=3, note=50, velocity=81, time=28),\n",
      "  Message('note_on', channel=3, note=50, velocity=0, time=20),\n",
      "  Message('note_on', channel=3, note=50, velocity=80, time=28),\n",
      "  Message('note_on', channel=3, note=50, velocity=0, time=20),\n",
      "  Message('note_on', channel=3, note=50, velocity=79, time=28),\n",
      "  Message('note_on', channel=3, note=50, velocity=0, time=20),\n",
      "  Message('note_on', channel=3, note=50, velocity=78, time=28),\n",
      "  Message('note_on', channel=3, note=50, velocity=0, time=20),\n",
      "  Message('note_on', channel=3, note=50, velocity=76, time=28),\n",
      "  Message('note_on', channel=3, note=50, velocity=0, time=20),\n",
      "  Message('note_on', channel=3, note=38, velocity=75, time=28),\n",
      "  Message('note_on', channel=3, note=38, velocity=0, time=20),\n",
      "  Message('note_on', channel=3, note=50, velocity=74, time=28),\n",
      "  Message('note_on', channel=3, note=50, velocity=0, time=20),\n",
      "  Message('note_on', channel=3, note=50, velocity=73, time=28),\n",
      "  Message('note_on', channel=3, note=50, velocity=0, time=20),\n",
      "  Message('note_on', channel=3, note=50, velocity=73, time=28),\n",
      "  Message('note_on', channel=3, note=50, velocity=0, time=20),\n",
      "  Message('note_on', channel=3, note=50, velocity=74, time=28),\n",
      "  Message('note_on', channel=3, note=50, velocity=0, time=20),\n",
      "  Message('note_on', channel=3, note=50, velocity=75, time=28),\n",
      "  Message('note_on', channel=3, note=50, velocity=0, time=20),\n",
      "  Message('note_on', channel=3, note=50, velocity=76, time=28),\n",
      "  Message('note_on', channel=3, note=50, velocity=0, time=20),\n",
      "  Message('note_on', channel=3, note=50, velocity=78, time=28),\n",
      "  Message('note_on', channel=3, note=50, velocity=0, time=20),\n",
      "  Message('note_on', channel=3, note=38, velocity=77, time=28),\n",
      "  Message('note_on', channel=3, note=38, velocity=0, time=20),\n",
      "  Message('note_on', channel=3, note=50, velocity=76, time=28),\n",
      "  Message('note_on', channel=3, note=50, velocity=0, time=20),\n",
      "  Message('note_on', channel=3, note=50, velocity=76, time=28),\n",
      "  Message('note_on', channel=3, note=50, velocity=0, time=20),\n",
      "  Message('note_on', channel=3, note=50, velocity=75, time=28),\n",
      "  Message('note_on', channel=3, note=50, velocity=0, time=20),\n",
      "  Message('note_on', channel=3, note=50, velocity=74, time=28),\n",
      "  Message('note_on', channel=3, note=50, velocity=0, time=20),\n",
      "  Message('note_on', channel=3, note=50, velocity=74, time=28),\n",
      "  Message('note_on', channel=3, note=50, velocity=0, time=20),\n",
      "  Message('note_on', channel=3, note=50, velocity=73, time=28),\n",
      "  Message('note_on', channel=3, note=50, velocity=0, time=20),\n",
      "  Message('note_on', channel=3, note=50, velocity=73, time=28),\n",
      "  Message('note_on', channel=3, note=38, velocity=73, time=0),\n",
      "  Message('note_on', channel=3, note=50, velocity=0, time=89),\n",
      "  Message('note_on', channel=3, note=38, velocity=0, time=0),\n",
      "  Message('note_on', channel=3, note=45, velocity=87, time=199),\n",
      "  Message('note_on', channel=3, note=33, velocity=87, time=0),\n",
      "  Message('note_on', channel=3, note=45, velocity=0, time=89),\n",
      "  Message('note_on', channel=3, note=33, velocity=0, time=0),\n",
      "  Message('note_on', channel=3, note=62, velocity=87, time=7),\n",
      "  Message('note_on', channel=3, note=62, velocity=0, time=23),\n",
      "  Message('note_on', channel=3, note=54, velocity=87, time=1),\n",
      "  Message('note_on', channel=3, note=54, velocity=0, time=23),\n",
      "  Message('note_on', channel=3, note=57, velocity=87, time=1),\n",
      "  Message('note_on', channel=3, note=57, velocity=0, time=23),\n",
      "  Message('note_on', channel=3, note=62, velocity=87, time=1),\n",
      "  Message('note_on', channel=3, note=62, velocity=0, time=23),\n",
      "  Message('note_on', channel=3, note=66, velocity=87, time=1),\n",
      "  Message('note_on', channel=3, note=66, velocity=0, time=23),\n",
      "  Message('note_on', channel=3, note=57, velocity=87, time=1),\n",
      "  Message('note_on', channel=3, note=57, velocity=0, time=23),\n",
      "  Message('note_on', channel=3, note=62, velocity=87, time=1),\n",
      "  Message('note_on', channel=3, note=62, velocity=0, time=23),\n",
      "  Message('note_on', channel=3, note=66, velocity=87, time=1),\n",
      "  Message('note_on', channel=3, note=66, velocity=0, time=23),\n",
      "  Message('note_on', channel=3, note=69, velocity=87, time=1),\n",
      "  Message('note_on', channel=3, note=69, velocity=0, time=20),\n",
      "  Message('note_on', channel=3, note=69, velocity=87, time=28),\n",
      "  Message('note_on', channel=3, note=69, velocity=0, time=20),\n",
      "  Message('note_on', channel=3, note=57, velocity=87, time=76),\n",
      "  Message('note_on', channel=3, note=45, velocity=87, time=0),\n",
      "  Message('note_on', channel=3, note=57, velocity=0, time=20),\n",
      "  Message('note_on', channel=3, note=45, velocity=0, time=0),\n",
      "  Message('note_on', channel=3, note=50, velocity=103, time=28),\n",
      "  Message('note_on', channel=3, note=38, velocity=103, time=0),\n",
      "  Message('note_on', channel=3, note=50, velocity=0, time=96),\n",
      "  Message('note_on', channel=3, note=38, velocity=0, time=0),\n",
      "  Message('note_on', channel=3, note=30, velocity=87, time=24),\n",
      "  Message('note_on', channel=3, note=30, velocity=0, time=23),\n",
      "  Message('note_on', channel=3, note=33, velocity=87, time=1),\n",
      "  Message('note_on', channel=3, note=33, velocity=0, time=23),\n",
      "  Message('note_on', channel=3, note=38, velocity=87, time=1),\n",
      "  Message('note_on', channel=3, note=38, velocity=0, time=23),\n",
      "  Message('note_on', channel=3, note=42, velocity=87, time=1),\n",
      "  Message('note_on', channel=3, note=42, velocity=0, time=23),\n",
      "  Message('note_on', channel=3, note=33, velocity=87, time=1),\n",
      "  Message('note_on', channel=3, note=33, velocity=0, time=23),\n",
      "  Message('note_on', channel=3, note=38, velocity=87, time=1),\n",
      "  Message('note_on', channel=3, note=38, velocity=0, time=23),\n",
      "  Message('note_on', channel=3, note=42, velocity=87, time=1),\n",
      "  Message('note_on', channel=3, note=42, velocity=0, time=23),\n",
      "  Message('note_on', channel=3, note=45, velocity=87, time=1),\n",
      "  Message('note_on', channel=3, note=45, velocity=0, time=23),\n",
      "  Message('note_on', channel=3, note=42, velocity=87, time=1),\n",
      "  Message('note_on', channel=3, note=42, velocity=0, time=23),\n",
      "  Message('note_on', channel=3, note=45, velocity=87, time=1),\n",
      "  Message('note_on', channel=3, note=45, velocity=0, time=23),\n",
      "  Message('note_on', channel=3, note=42, velocity=87, time=1),\n",
      "  Message('note_on', channel=3, note=42, velocity=0, time=23),\n",
      "  Message('note_on', channel=3, note=38, velocity=103, time=1),\n",
      "  Message('note_on', channel=3, note=38, velocity=0, time=96),\n",
      "  Message('note_on', channel=3, note=50, velocity=103, time=0),\n",
      "  Message('note_on', channel=3, note=38, velocity=103, time=0),\n",
      "  Message('note_on', channel=3, note=50, velocity=0, time=39),\n",
      "  Message('note_on', channel=3, note=38, velocity=0, time=0),\n",
      "  Message('note_on', channel=3, note=50, velocity=103, time=57),\n",
      "  Message('note_on', channel=3, note=38, velocity=103, time=0),\n",
      "  Message('note_on', channel=3, note=50, velocity=0, time=96),\n",
      "  Message('note_on', channel=3, note=38, velocity=0, time=0),\n",
      "  Message('note_on', channel=3, note=38, velocity=0, time=96),\n",
      "  Message('note_on', channel=3, note=38, velocity=0, time=89),\n",
      "  MetaMessage('end_of_track', time=7)])\n",
      "MidiTrack([\n",
      "  Message('program_change', channel=3, program=1, time=0),\n",
      "  Message('control_change', channel=3, control=7, value=127, time=0),\n",
      "  Message('control_change', channel=3, control=10, value=64, time=0),\n",
      "  Message('note_on', channel=3, note=59, velocity=64, time=4224),\n",
      "  Message('note_on', channel=3, note=59, velocity=0, time=177),\n",
      "  Message('note_on', channel=3, note=57, velocity=64, time=15),\n",
      "  Message('note_on', channel=3, note=57, velocity=0, time=177),\n",
      "  Message('note_on', channel=3, note=45, velocity=64, time=6927),\n",
      "  Message('note_on', channel=3, note=45, velocity=0, time=20),\n",
      "  Message('note_on', channel=3, note=45, velocity=64, time=28),\n",
      "  Message('note_on', channel=3, note=45, velocity=0, time=20),\n",
      "  Message('note_on', channel=3, note=49, velocity=64, time=28),\n",
      "  Message('note_on', channel=3, note=49, velocity=0, time=20),\n",
      "  Message('note_on', channel=3, note=49, velocity=64, time=28),\n",
      "  Message('note_on', channel=3, note=49, velocity=0, time=20),\n",
      "  Message('note_on', channel=3, note=50, velocity=64, time=28),\n",
      "  Message('note_on', channel=3, note=50, velocity=0, time=20),\n",
      "  Message('note_on', channel=3, note=50, velocity=64, time=28),\n",
      "  Message('note_on', channel=3, note=50, velocity=0, time=20),\n",
      "  Message('note_on', channel=3, note=54, velocity=64, time=28),\n",
      "  Message('note_on', channel=3, note=54, velocity=0, time=20),\n",
      "  Message('note_on', channel=3, note=54, velocity=64, time=28),\n",
      "  Message('note_on', channel=3, note=54, velocity=0, time=20),\n",
      "  Message('note_on', channel=3, note=57, velocity=73, time=1180),\n",
      "  Message('note_on', channel=3, note=57, velocity=0, time=192),\n",
      "  Message('note_on', channel=3, note=52, velocity=73, time=0),\n",
      "  Message('note_on', channel=3, note=52, velocity=0, time=89),\n",
      "  Message('note_on', channel=3, note=57, velocity=73, time=487),\n",
      "  Message('note_on', channel=3, note=57, velocity=0, time=192),\n",
      "  Message('note_on', channel=3, note=52, velocity=73, time=0),\n",
      "  Message('note_on', channel=3, note=52, velocity=0, time=89),\n",
      "  Message('note_on', channel=3, note=57, velocity=73, time=487),\n",
      "  Message('note_on', channel=3, note=57, velocity=0, time=192),\n",
      "  Message('note_on', channel=3, note=52, velocity=73, time=0),\n",
      "  Message('note_on', channel=3, note=52, velocity=0, time=89),\n",
      "  Message('note_on', channel=3, note=59, velocity=64, time=20071),\n",
      "  Message('note_on', channel=3, note=59, velocity=0, time=177),\n",
      "  Message('note_on', channel=3, note=57, velocity=64, time=15),\n",
      "  Message('note_on', channel=3, note=57, velocity=0, time=177),\n",
      "  Message('note_on', channel=3, note=45, velocity=64, time=6927),\n",
      "  Message('note_on', channel=3, note=45, velocity=0, time=20),\n",
      "  Message('note_on', channel=3, note=45, velocity=64, time=28),\n",
      "  Message('note_on', channel=3, note=45, velocity=0, time=20),\n",
      "  Message('note_on', channel=3, note=49, velocity=64, time=28),\n",
      "  Message('note_on', channel=3, note=49, velocity=0, time=20),\n",
      "  Message('note_on', channel=3, note=49, velocity=64, time=28),\n",
      "  Message('note_on', channel=3, note=49, velocity=0, time=20),\n",
      "  Message('note_on', channel=3, note=50, velocity=64, time=28),\n",
      "  Message('note_on', channel=3, note=50, velocity=0, time=20),\n",
      "  Message('note_on', channel=3, note=50, velocity=64, time=28),\n",
      "  Message('note_on', channel=3, note=50, velocity=0, time=20),\n",
      "  Message('note_on', channel=3, note=54, velocity=64, time=28),\n",
      "  Message('note_on', channel=3, note=54, velocity=0, time=20),\n",
      "  Message('note_on', channel=3, note=54, velocity=64, time=28),\n",
      "  Message('note_on', channel=3, note=54, velocity=0, time=20),\n",
      "  Message('note_on', channel=3, note=57, velocity=73, time=1180),\n",
      "  Message('note_on', channel=3, note=57, velocity=0, time=192),\n",
      "  Message('note_on', channel=3, note=52, velocity=73, time=0),\n",
      "  Message('note_on', channel=3, note=52, velocity=0, time=89),\n",
      "  Message('note_on', channel=3, note=57, velocity=73, time=487),\n",
      "  Message('note_on', channel=3, note=57, velocity=0, time=192),\n",
      "  Message('note_on', channel=3, note=52, velocity=73, time=0),\n",
      "  Message('note_on', channel=3, note=52, velocity=0, time=89),\n",
      "  Message('note_on', channel=3, note=57, velocity=73, time=487),\n",
      "  Message('note_on', channel=3, note=57, velocity=0, time=192),\n",
      "  Message('note_on', channel=3, note=52, velocity=73, time=0),\n",
      "  Message('note_on', channel=3, note=52, velocity=0, time=89),\n",
      "  Message('note_on', channel=3, note=59, velocity=73, time=31207),\n",
      "  Message('note_on', channel=3, note=59, velocity=0, time=177),\n",
      "  Message('note_on', channel=3, note=57, velocity=73, time=15),\n",
      "  Message('note_on', channel=3, note=57, velocity=0, time=177),\n",
      "  MetaMessage('end_of_track', time=28047)])\n",
      "MidiTrack([\n",
      "  MetaMessage('track_name', name='<No Title>', time=0),\n",
      "  MetaMessage('end_of_track', time=0)])\n",
      "MidiTrack([\n",
      "  MetaMessage('copyright', text=\"___________________________________________________\\n\\nKUNSTDERFUGE.COM LARGE CLASSICAL MIDI COLLECTION\\nONCLASSICAL BY ALESSANDRO SIMONETTO, PROPRIETOR\\n___________________________________________________\\n\\n! Attention: this file is under copyright !\\n\\n(c)onclassical, (c)ishenko, 2010\\n___________________________________________________\\n\\nNO ONE MAY REPUBLISH THIS FILE WITHOUT PERMISSION\\nCOMMERCIAL USES OF THIS FILE IS STRICTLY PROHIBITED\\n___________________________________________________\\n\\nFiles & contributor's list: http://kunstderfuge.com/\\nTerms and conditions: http://kunstderfuge.com/notes.htm\", time=1),\n",
      "  MetaMessage('end_of_track', time=0)])\n"
     ]
    }
   ],
   "source": [
    "for track in mid.tracks:\n",
    "    print(track)"
   ]
  },
  {
   "cell_type": "code",
   "execution_count": 12,
   "metadata": {},
   "outputs": [
    {
     "name": "stdout",
     "output_type": "stream",
     "text": [
      "MidiTrack([\n",
      "  MetaMessage('sequencer_specific', data=(68, 87, 77, 90, 86, 82, 83, 78, 32, 56, 46, 48, 46, 53, 46, 48), time=0),\n",
      "  MetaMessage('time_signature', numerator=4, denominator=4, clocks_per_click=24, notated_32nd_notes_per_beat=8, time=0),\n",
      "  MetaMessage('set_tempo', tempo=428571, time=0),\n",
      "  MetaMessage('key_signature', key='D', time=0),\n",
      "  MetaMessage('end_of_track', time=105216)])\n"
     ]
    }
   ],
   "source": [
    "print(mid.tracks[0])"
   ]
  },
  {
   "cell_type": "code",
   "execution_count": null,
   "metadata": {},
   "outputs": [
    {
     "name": "stdout",
     "output_type": "stream",
     "text": [
      "MidiTrack([\n",
      "  MetaMessage('sequencer_specific', data=(68, 87, 77, 90, 86, 82, 83, 78, 32, 56, 46, 48, 46, 53, 46, 48), time=0),\n",
      "  MetaMessage('time_signature', numerator=4, denominator=4, clocks_per_click=24, notated_32nd_notes_per_beat=8, time=0),\n",
      "  MetaMessage('set_tempo', tempo=428571, time=0),\n",
      "  MetaMessage('key_signature', key='D', time=0),\n",
      "  MetaMessage('end_of_track', time=105216)])\n"
     ]
    }
   ],
   "source": [
    "print(mid.tracks[0])"
   ]
  },
  {
   "cell_type": "code",
   "execution_count": 13,
   "metadata": {},
   "outputs": [
    {
     "name": "stdout",
     "output_type": "stream",
     "text": [
      "MidiTrack([\n",
      "  Message('control_change', channel=0, control=7, value=127, time=0),\n",
      "  Message('control_change', channel=0, control=10, value=64, time=0),\n",
      "  Message('note_on', channel=0, note=86, velocity=87, time=0),\n",
      "  Message('note_on', channel=0, note=81, velocity=87, time=0),\n",
      "  Message('note_on', channel=0, note=78, velocity=87, time=0),\n",
      "  Message('note_on', channel=0, note=74, velocity=87, time=0),\n",
      "  Message('note_on', channel=0, note=86, velocity=0, time=177),\n",
      "  Message('note_on', channel=0, note=81, velocity=0, time=0),\n",
      "  Message('note_on', channel=0, note=78, velocity=0, time=0),\n",
      "  Message('note_on', channel=0, note=74, velocity=0, time=0),\n",
      "  Message('note_on', channel=0, note=81, velocity=87, time=15),\n",
      "  Message('note_on', channel=0, note=81, velocity=0, time=177),\n",
      "  Message('note_on', channel=0, note=79, velocity=87, time=15),\n",
      "  Message('note_on', channel=0, note=79, velocity=0, time=18),\n",
      "  Message('note_on', channel=0, note=78, velocity=87, time=0),\n",
      "  Message('note_on', channel=0, note=78, velocity=0, time=18),\n",
      "  Message('note_on', channel=0, note=79, velocity=87, time=0),\n",
      "  Message('note_on', channel=0, note=79, velocity=0, time=18),\n",
      "  Message('note_on', channel=0, note=78, velocity=87, time=0),\n",
      "  Message('note_on', channel=0, note=78, velocity=0, time=18),\n",
      "  Message('note_on', channel=0, note=79, velocity=87, time=0),\n",
      "  Message('note_on', channel=0, note=79, velocity=0, time=18),\n",
      "  Message('note_on', channel=0, note=78, velocity=87, time=0),\n",
      "  Message('note_on', channel=0, note=78, velocity=0, time=18),\n",
      "  Message('note_on', channel=0, note=79, velocity=87, time=0),\n",
      "  Message('note_on', channel=0, note=79, velocity=0, time=18),\n",
      "  Message('note_on', channel=0, note=78, velocity=87, time=0),\n",
      "  Message('note_on', channel=0, note=78, velocity=0, time=7),\n",
      "  Message('note_on', channel=0, note=76, velocity=87, time=11),\n",
      "  Message('note_on', channel=0, note=76, velocity=0, time=23),\n",
      "  Message('note_on', channel=0, note=74, velocity=87, time=1),\n",
      "  Message('note_on', channel=0, note=74, velocity=0, time=23),\n",
      "  Message('note_on', channel=0, note=81, velocity=87, time=1),\n",
      "  Message('note_on', channel=0, note=81, velocity=0, time=89),\n",
      "  Message('note_on', channel=0, note=69, velocity=87, time=79),\n",
      "  Message('note_on', channel=0, note=69, velocity=0, time=8),\n",
      "  Message('note_on', channel=0, note=71, velocity=87, time=0),\n",
      "  Message('note_on', channel=0, note=71, velocity=0, time=8),\n",
      "  Message('note_on', channel=0, note=73, velocity=87, time=0),\n",
      "  Message('note_on', channel=0, note=73, velocity=0, time=8),\n",
      "  Message('note_on', channel=0, note=74, velocity=87, time=0),\n",
      "  Message('note_on', channel=0, note=74, velocity=0, time=89),\n",
      "  Message('note_on', channel=0, note=69, velocity=87, time=7),\n",
      "  Message('note_on', channel=0, note=69, velocity=0, time=67),\n",
      "  Message('note_on', channel=0, note=74, velocity=87, time=5),\n",
      "  Message('note_on', channel=0, note=74, velocity=0, time=23),\n",
      "  Message('note_on', channel=0, note=76, velocity=87, time=1),\n",
      "  Message('note_on', channel=0, note=76, velocity=0, time=89),\n",
      "  Message('note_on', channel=0, note=69, velocity=87, time=7),\n",
      "  Message('note_on', channel=0, note=69, velocity=0, time=67),\n",
      "  Message('note_on', channel=0, note=76, velocity=87, time=5),\n",
      "  Message('note_on', channel=0, note=76, velocity=0, time=23),\n",
      "  Message('note_on', channel=0, note=78, velocity=87, time=1),\n",
      "  Message('note_on', channel=0, note=78, velocity=0, time=89),\n",
      "  Message('note_on', channel=0, note=74, velocity=87, time=7),\n",
      "  Message('note_on', channel=0, note=74, velocity=0, time=67),\n",
      "  Message('note_on', channel=0, note=78, velocity=87, time=5),\n",
      "  Message('note_on', channel=0, note=78, velocity=0, time=23),\n",
      "  Message('note_on', channel=0, note=81, velocity=87, time=1),\n",
      "  Message('note_on', channel=0, note=81, velocity=0, time=89),\n",
      "  Message('note_on', channel=0, note=74, velocity=82, time=103),\n",
      "  Message('note_on', channel=0, note=66, velocity=82, time=0),\n",
      "  Message('note_on', channel=0, note=74, velocity=0, time=20),\n",
      "  Message('note_on', channel=0, note=66, velocity=0, time=0),\n",
      "  Message('note_on', channel=0, note=74, velocity=98, time=76),\n",
      "  Message('note_on', channel=0, note=66, velocity=98, time=0),\n",
      "  Message('note_on', channel=0, note=74, velocity=0, time=192),\n",
      "  Message('note_on', channel=0, note=66, velocity=0, time=0),\n",
      "  Message('note_on', channel=0, note=78, velocity=87, time=0),\n",
      "  Message('note_on', channel=0, note=69, velocity=87, time=0),\n",
      "  Message('note_on', channel=0, note=78, velocity=0, time=89),\n",
      "  Message('note_on', channel=0, note=69, velocity=0, time=0),\n",
      "  Message('note_on', channel=0, note=78, velocity=85, time=7),\n",
      "  Message('note_on', channel=0, note=78, velocity=0, time=45),\n",
      "  Message('note_on', channel=0, note=76, velocity=84, time=3),\n",
      "  Message('note_on', channel=0, note=76, velocity=0, time=45),\n",
      "  Message('note_on', channel=0, note=74, velocity=83, time=3),\n",
      "  Message('note_on', channel=0, note=74, velocity=0, time=89),\n",
      "  Message('note_on', channel=0, note=78, velocity=82, time=199),\n",
      "  Message('note_on', channel=0, note=74, velocity=82, time=0),\n",
      "  Message('note_on', channel=0, note=78, velocity=0, time=20),\n",
      "  Message('note_on', channel=0, note=74, velocity=0, time=0),\n",
      "  Message('note_on', channel=0, note=78, velocity=98, time=76),\n",
      "  Message('note_on', channel=0, note=74, velocity=98, time=0),\n",
      "  Message('note_on', channel=0, note=74, velocity=0, time=192),\n",
      "  Message('note_on', channel=0, note=81, velocity=87, time=0),\n",
      "  Message('note_on', channel=0, note=81, velocity=0, time=89),\n",
      "  Message('note_on', channel=0, note=78, velocity=0, time=0),\n",
      "  Message('note_on', channel=0, note=81, velocity=84, time=7),\n",
      "  Message('note_on', channel=0, note=78, velocity=84, time=0),\n",
      "  Message('note_on', channel=0, note=81, velocity=0, time=45),\n",
      "  Message('note_on', channel=0, note=78, velocity=0, time=0),\n",
      "  Message('note_on', channel=0, note=79, velocity=83, time=3),\n",
      "  Message('note_on', channel=0, note=76, velocity=83, time=0),\n",
      "  Message('note_on', channel=0, note=79, velocity=0, time=45),\n",
      "  Message('note_on', channel=0, note=76, velocity=0, time=0),\n",
      "  Message('note_on', channel=0, note=78, velocity=82, time=3),\n",
      "  Message('note_on', channel=0, note=74, velocity=82, time=0),\n",
      "  Message('note_on', channel=0, note=78, velocity=0, time=89),\n",
      "  Message('note_on', channel=0, note=74, velocity=0, time=0),\n",
      "  Message('note_on', channel=0, note=69, velocity=82, time=223),\n",
      "  Message('note_on', channel=0, note=69, velocity=0, time=23),\n",
      "  Message('note_on', channel=0, note=71, velocity=82, time=1),\n",
      "  Message('note_on', channel=0, note=71, velocity=0, time=23),\n",
      "  Message('note_on', channel=0, note=73, velocity=82, time=1),\n",
      "  Message('note_on', channel=0, note=73, velocity=0, time=23),\n",
      "  Message('note_on', channel=0, note=74, velocity=83, time=1),\n",
      "  Message('note_on', channel=0, note=74, velocity=0, time=23),\n",
      "  Message('note_on', channel=0, note=76, velocity=83, time=1),\n",
      "  Message('note_on', channel=0, note=76, velocity=0, time=23),\n",
      "  Message('note_on', channel=0, note=78, velocity=83, time=1),\n",
      "  Message('note_on', channel=0, note=78, velocity=0, time=23),\n",
      "  Message('note_on', channel=0, note=79, velocity=84, time=1),\n",
      "  Message('note_on', channel=0, note=79, velocity=0, time=23),\n",
      "  Message('note_on', channel=0, note=81, velocity=84, time=1),\n",
      "  Message('note_on', channel=0, note=81, velocity=0, time=23),\n",
      "  Message('note_on', channel=0, note=83, velocity=85, time=1),\n",
      "  Message('note_on', channel=0, note=83, velocity=0, time=23),\n",
      "  Message('note_on', channel=0, note=85, velocity=85, time=1),\n",
      "  Message('note_on', channel=0, note=85, velocity=0, time=23),\n",
      "  Message('note_on', channel=0, note=86, velocity=85, time=1),\n",
      "  Message('note_on', channel=0, note=86, velocity=0, time=23),\n",
      "  Message('note_on', channel=0, note=81, velocity=86, time=1),\n",
      "  Message('note_on', channel=0, note=81, velocity=0, time=45),\n",
      "  Message('note_on', channel=0, note=69, velocity=82, time=75),\n",
      "  Message('note_on', channel=0, note=69, velocity=0, time=23),\n",
      "  Message('note_on', channel=0, note=71, velocity=82, time=1),\n",
      "  Message('note_on', channel=0, note=71, velocity=0, time=23),\n",
      "  Message('note_on', channel=0, note=73, velocity=82, time=1),\n",
      "  Message('note_on', channel=0, note=73, velocity=0, time=23),\n",
      "  Message('note_on', channel=0, note=74, velocity=83, time=1),\n",
      "  Message('note_on', channel=0, note=74, velocity=0, time=23),\n",
      "  Message('note_on', channel=0, note=76, velocity=83, time=1),\n",
      "  Message('note_on', channel=0, note=76, velocity=0, time=23),\n",
      "  Message('note_on', channel=0, note=78, velocity=83, time=1),\n",
      "  Message('note_on', channel=0, note=78, velocity=0, time=23),\n",
      "  Message('note_on', channel=0, note=80, velocity=84, time=1),\n",
      "  Message('note_on', channel=0, note=80, velocity=0, time=23),\n",
      "  Message('note_on', channel=0, note=81, velocity=84, time=1),\n",
      "  Message('note_on', channel=0, note=81, velocity=0, time=23),\n",
      "  Message('note_on', channel=0, note=85, velocity=85, time=1),\n",
      "  Message('note_on', channel=0, note=85, velocity=0, time=23),\n",
      "  Message('note_on', channel=0, note=86, velocity=85, time=1),\n",
      "  Message('note_on', channel=0, note=86, velocity=0, time=23),\n",
      "  Message('note_on', channel=0, note=88, velocity=85, time=1),\n",
      "  Message('note_on', channel=0, note=88, velocity=0, time=23),\n",
      "  Message('note_on', channel=0, note=81, velocity=86, time=1),\n",
      "  Message('note_on', channel=0, note=81, velocity=0, time=45),\n",
      "  Message('note_on', channel=0, note=69, velocity=82, time=75),\n",
      "  Message('note_on', channel=0, note=69, velocity=0, time=23),\n",
      "  Message('note_on', channel=0, note=71, velocity=82, time=1),\n",
      "  Message('note_on', channel=0, note=71, velocity=0, time=23),\n",
      "  Message('note_on', channel=0, note=73, velocity=82, time=1),\n",
      "  Message('note_on', channel=0, note=73, velocity=0, time=23),\n",
      "  Message('note_on', channel=0, note=74, velocity=83, time=1),\n",
      "  Message('note_on', channel=0, note=74, velocity=0, time=23),\n",
      "  Message('note_on', channel=0, note=76, velocity=83, time=1),\n",
      "  Message('note_on', channel=0, note=76, velocity=0, time=23),\n",
      "  Message('note_on', channel=0, note=78, velocity=83, time=1),\n",
      "  Message('note_on', channel=0, note=78, velocity=0, time=23),\n",
      "  Message('note_on', channel=0, note=79, velocity=84, time=1),\n",
      "  Message('note_on', channel=0, note=79, velocity=0, time=23),\n",
      "  Message('note_on', channel=0, note=81, velocity=84, time=1),\n",
      "  Message('note_on', channel=0, note=81, velocity=0, time=23),\n",
      "  Message('note_on', channel=0, note=83, velocity=85, time=1),\n",
      "  Message('note_on', channel=0, note=83, velocity=0, time=23),\n",
      "  Message('note_on', channel=0, note=85, velocity=85, time=1),\n",
      "  Message('note_on', channel=0, note=85, velocity=0, time=23),\n",
      "  Message('note_on', channel=0, note=86, velocity=85, time=1),\n",
      "  Message('note_on', channel=0, note=86, velocity=0, time=23),\n",
      "  Message('note_on', channel=0, note=81, velocity=86, time=1),\n",
      "  Message('note_on', channel=0, note=81, velocity=0, time=45),\n",
      "  Message('note_on', channel=0, note=83, velocity=87, time=51),\n",
      "  Message('note_on', channel=0, note=83, velocity=0, time=23),\n",
      "  Message('note_on', channel=0, note=86, velocity=86, time=1),\n",
      "  Message('note_on', channel=0, note=86, velocity=0, time=23),\n",
      "  Message('note_on', channel=0, note=83, velocity=86, time=1),\n",
      "  Message('note_on', channel=0, note=83, velocity=0, time=23),\n",
      "  Message('note_on', channel=0, note=86, velocity=86, time=1),\n",
      "  Message('note_on', channel=0, note=86, velocity=0, time=23),\n",
      "  Message('note_on', channel=0, note=76, velocity=85, time=1),\n",
      "  Message('note_on', channel=0, note=76, velocity=0, time=23),\n",
      "  Message('note_on', channel=0, note=79, velocity=85, time=1),\n",
      "  Message('note_on', channel=0, note=79, velocity=0, time=23),\n",
      "  Message('note_on', channel=0, note=76, velocity=85, time=1),\n",
      "  Message('note_on', channel=0, note=76, velocity=0, time=23),\n",
      "  Message('note_on', channel=0, note=79, velocity=84, time=1),\n",
      "  Message('note_on', channel=0, note=79, velocity=0, time=23),\n",
      "  Message('note_on', channel=0, note=78, velocity=84, time=1),\n",
      "  Message('note_on', channel=0, note=78, velocity=0, time=23),\n",
      "  Message('note_on', channel=0, note=81, velocity=84, time=1),\n",
      "  Message('note_on', channel=0, note=81, velocity=0, time=23),\n",
      "  Message('note_on', channel=0, note=78, velocity=83, time=1),\n",
      "  Message('note_on', channel=0, note=78, velocity=0, time=23),\n",
      "  Message('note_on', channel=0, note=81, velocity=83, time=1),\n",
      "  Message('note_on', channel=0, note=81, velocity=0, time=23),\n",
      "  Message('note_on', channel=0, note=73, velocity=83, time=1),\n",
      "  Message('note_on', channel=0, note=73, velocity=0, time=23),\n",
      "  Message('note_on', channel=0, note=76, velocity=82, time=1),\n",
      "  Message('note_on', channel=0, note=76, velocity=0, time=23),\n",
      "  Message('note_on', channel=0, note=73, velocity=82, time=1),\n",
      "  Message('note_on', channel=0, note=73, velocity=0, time=23),\n",
      "  Message('note_on', channel=0, note=76, velocity=82, time=1),\n",
      "  Message('note_on', channel=0, note=76, velocity=0, time=23),\n",
      "  Message('note_on', channel=0, note=74, velocity=82, time=1),\n",
      "  Message('note_on', channel=0, note=74, velocity=0, time=89),\n",
      "  Message('note_on', channel=0, note=81, velocity=82, time=199),\n",
      "  Message('note_on', channel=0, note=81, velocity=0, time=23),\n",
      "  Message('note_on', channel=0, note=83, velocity=82, time=1),\n",
      "  Message('note_on', channel=0, note=83, velocity=0, time=23),\n",
      "  Message('note_on', channel=0, note=85, velocity=82, time=1),\n",
      "  Message('note_on', channel=0, note=85, velocity=0, time=23),\n",
      "  Message('note_on', channel=0, note=86, velocity=82, time=1),\n",
      "  Message('note_on', channel=0, note=86, velocity=0, time=23),\n",
      "  Message('note_on', channel=0, note=81, velocity=82, time=1),\n",
      "  Message('note_on', channel=0, note=81, velocity=0, time=89),\n",
      "  Message('note_on', channel=0, note=81, velocity=82, time=199),\n",
      "  Message('note_on', channel=0, note=81, velocity=0, time=23),\n",
      "  Message('note_on', channel=0, note=85, velocity=82, time=1),\n",
      "  Message('note_on', channel=0, note=85, velocity=0, time=23),\n",
      "  Message('note_on', channel=0, note=86, velocity=82, time=1),\n",
      "  Message('note_on', channel=0, note=86, velocity=0, time=23),\n",
      "  Message('note_on', channel=0, note=88, velocity=82, time=1),\n",
      "  Message('note_on', channel=0, note=88, velocity=0, time=23),\n",
      "  Message('note_on', channel=0, note=81, velocity=82, time=1),\n",
      "  Message('note_on', channel=0, note=81, velocity=0, time=89),\n",
      "  Message('note_on', channel=0, note=81, velocity=82, time=199),\n",
      "  Message('note_on', channel=0, note=81, velocity=0, time=23),\n",
      "  Message('note_on', channel=0, note=83, velocity=83, time=1),\n",
      "  Message('note_on', channel=0, note=83, velocity=0, time=23),\n",
      "  Message('note_on', channel=0, note=85, velocity=84, time=1),\n",
      "  Message('note_on', channel=0, note=85, velocity=0, time=23),\n",
      "  Message('note_on', channel=0, note=86, velocity=85, time=1),\n",
      "  Message('note_on', channel=0, note=86, velocity=0, time=23),\n",
      "  Message('note_on', channel=0, note=83, velocity=87, time=1),\n",
      "  Message('note_on', channel=0, note=83, velocity=0, time=23),\n",
      "  Message('note_on', channel=0, note=86, velocity=86, time=1),\n",
      "  Message('note_on', channel=0, note=86, velocity=0, time=23),\n",
      "  Message('note_on', channel=0, note=83, velocity=86, time=1),\n",
      "  Message('note_on', channel=0, note=83, velocity=0, time=23),\n",
      "  Message('note_on', channel=0, note=86, velocity=86, time=1),\n",
      "  Message('note_on', channel=0, note=86, velocity=0, time=23),\n",
      "  Message('note_on', channel=0, note=76, velocity=85, time=1),\n",
      "  Message('note_on', channel=0, note=76, velocity=0, time=23),\n",
      "  Message('note_on', channel=0, note=79, velocity=85, time=1),\n",
      "  Message('note_on', channel=0, note=79, velocity=0, time=23),\n",
      "  Message('note_on', channel=0, note=76, velocity=85, time=1),\n",
      "  Message('note_on', channel=0, note=76, velocity=0, time=23),\n",
      "  Message('note_on', channel=0, note=79, velocity=84, time=1),\n",
      "  Message('note_on', channel=0, note=79, velocity=0, time=23),\n",
      "  Message('note_on', channel=0, note=78, velocity=84, time=1),\n",
      "  Message('note_on', channel=0, note=78, velocity=0, time=23),\n",
      "  Message('note_on', channel=0, note=81, velocity=84, time=1),\n",
      "  Message('note_on', channel=0, note=81, velocity=0, time=23),\n",
      "  Message('note_on', channel=0, note=78, velocity=83, time=1),\n",
      "  Message('note_on', channel=0, note=78, velocity=0, time=23),\n",
      "  Message('note_on', channel=0, note=81, velocity=83, time=1),\n",
      "  Message('note_on', channel=0, note=81, velocity=0, time=23),\n",
      "  Message('note_on', channel=0, note=73, velocity=83, time=1),\n",
      "  Message('note_on', channel=0, note=73, velocity=0, time=23),\n",
      "  Message('note_on', channel=0, note=76, velocity=82, time=1),\n",
      "  Message('note_on', channel=0, note=76, velocity=0, time=23),\n",
      "  Message('note_on', channel=0, note=73, velocity=82, time=1),\n",
      "  Message('note_on', channel=0, note=73, velocity=0, time=23),\n",
      "  Message('note_on', channel=0, note=76, velocity=82, time=1),\n",
      "  Message('note_on', channel=0, note=76, velocity=0, time=23),\n",
      "  Message('note_on', channel=0, note=74, velocity=82, time=1),\n",
      "  Message('note_on', channel=0, note=74, velocity=0, time=89),\n",
      "  Message('note_on', channel=0, note=86, velocity=87, time=7),\n",
      "  Message('note_on', channel=0, note=86, velocity=0, time=23),\n",
      "  Message('note_on', channel=0, note=81, velocity=87, time=1),\n",
      "  Message('note_on', channel=0, note=81, velocity=0, time=23),\n",
      "  Message('note_on', channel=0, note=78, velocity=87, time=1),\n",
      "  Message('note_on', channel=0, note=78, velocity=0, time=23),\n",
      "  Message('note_on', channel=0, note=74, velocity=87, time=1),\n",
      "  Message('note_on', channel=0, note=74, velocity=0, time=23),\n",
      "  Message('note_on', channel=0, note=81, velocity=87, time=1),\n",
      "  Message('note_on', channel=0, note=81, velocity=0, time=23),\n",
      "  Message('note_on', channel=0, note=78, velocity=87, time=1),\n",
      "  Message('note_on', channel=0, note=78, velocity=0, time=23),\n",
      "  Message('note_on', channel=0, note=74, velocity=87, time=1),\n",
      "  Message('note_on', channel=0, note=74, velocity=0, time=23),\n",
      "  Message('note_on', channel=0, note=69, velocity=87, time=1),\n",
      "  Message('note_on', channel=0, note=69, velocity=0, time=23),\n",
      "  Message('note_on', channel=0, note=78, velocity=87, time=1),\n",
      "  Message('note_on', channel=0, note=78, velocity=0, time=23),\n",
      "  Message('note_on', channel=0, note=74, velocity=87, time=1),\n",
      "  Message('note_on', channel=0, note=74, velocity=0, time=23),\n",
      "  Message('note_on', channel=0, note=69, velocity=87, time=1),\n",
      "  Message('note_on', channel=0, note=69, velocity=0, time=23),\n",
      "  Message('note_on', channel=0, note=66, velocity=87, time=1),\n",
      "  Message('note_on', channel=0, note=66, velocity=0, time=23),\n",
      "  Message('note_on', channel=0, note=74, velocity=87, time=1),\n",
      "  Message('note_on', channel=0, note=74, velocity=0, time=23),\n",
      "  Message('note_on', channel=0, note=69, velocity=87, time=1),\n",
      "  Message('note_on', channel=0, note=69, velocity=0, time=23),\n",
      "  Message('note_on', channel=0, note=66, velocity=87, time=1),\n",
      "  Message('note_on', channel=0, note=66, velocity=0, time=23),\n",
      "  Message('note_on', channel=0, note=62, velocity=87, time=1),\n",
      "  Message('note_on', channel=0, note=62, velocity=0, time=23),\n",
      "  Message('note_on', channel=0, note=61, velocity=87, time=1),\n",
      "  Message('note_on', channel=0, note=61, velocity=0, time=23),\n",
      "  Message('note_on', channel=0, note=62, velocity=87, time=1),\n",
      "  Message('note_on', channel=0, note=62, velocity=0, time=23),\n",
      "  Message('note_on', channel=0, note=61, velocity=87, time=1),\n",
      "  Message('note_on', channel=0, note=61, velocity=0, time=23),\n",
      "  Message('note_on', channel=0, note=62, velocity=87, time=1),\n",
      "  Message('note_on', channel=0, note=62, velocity=0, time=23),\n",
      "  Message('note_on', channel=0, note=61, velocity=87, time=1),\n",
      "  Message('note_on', channel=0, note=61, velocity=0, time=23),\n",
      "  Message('note_on', channel=0, note=62, velocity=87, time=1),\n",
      "  Message('note_on', channel=0, note=62, velocity=0, time=23),\n",
      "  Message('note_on', channel=0, note=61, velocity=87, time=1),\n",
      "  Message('note_on', channel=0, note=61, velocity=0, time=23),\n",
      "  Message('note_on', channel=0, note=62, velocity=87, time=1),\n",
      "  Message('note_on', channel=0, note=62, velocity=0, time=23),\n",
      "  Message('note_on', channel=0, note=61, velocity=87, time=1),\n",
      "  Message('note_on', channel=0, note=61, velocity=0, time=23),\n",
      "  Message('note_on', channel=0, note=62, velocity=87, time=1),\n",
      "  Message('note_on', channel=0, note=62, velocity=0, time=23),\n",
      "  Message('note_on', channel=0, note=61, velocity=87, time=1),\n",
      "  Message('note_on', channel=0, note=61, velocity=0, time=23),\n",
      "  Message('note_on', channel=0, note=62, velocity=87, time=1),\n",
      "  Message('note_on', channel=0, note=62, velocity=0, time=23),\n",
      "  Message('note_on', channel=0, note=59, velocity=87, time=1),\n",
      "  Message('note_on', channel=0, note=59, velocity=0, time=45),\n",
      "  Message('note_on', channel=0, note=83, velocity=87, time=51),\n",
      "  Message('note_on', channel=0, note=83, velocity=0, time=23),\n",
      "  Message('note_on', channel=0, note=78, velocity=87, time=1),\n",
      "  Message('note_on', channel=0, note=78, velocity=0, time=23),\n",
      "  Message('note_on', channel=0, note=74, velocity=87, time=1),\n",
      "  Message('note_on', channel=0, note=74, velocity=0, time=23),\n",
      "  Message('note_on', channel=0, note=71, velocity=87, time=1),\n",
      "  Message('note_on', channel=0, note=71, velocity=0, time=23),\n",
      "  Message('note_on', channel=0, note=78, velocity=87, time=1),\n",
      "  Message('note_on', channel=0, note=78, velocity=0, time=23),\n",
      "  Message('note_on', channel=0, note=74, velocity=87, time=1),\n",
      "  Message('note_on', channel=0, note=74, velocity=0, time=23),\n",
      "  Message('note_on', channel=0, note=71, velocity=87, time=1),\n",
      "  Message('note_on', channel=0, note=71, velocity=0, time=23),\n",
      "  Message('note_on', channel=0, note=66, velocity=87, time=1),\n",
      "  Message('note_on', channel=0, note=66, velocity=0, time=23),\n",
      "  Message('note_on', channel=0, note=74, velocity=87, time=1),\n",
      "  Message('note_on', channel=0, note=74, velocity=0, time=23),\n",
      "  Message('note_on', channel=0, note=71, velocity=87, time=1),\n",
      "  Message('note_on', channel=0, note=71, velocity=0, time=23),\n",
      "  Message('note_on', channel=0, note=66, velocity=87, time=1),\n",
      "  Message('note_on', channel=0, note=66, velocity=0, time=23),\n",
      "  Message('note_on', channel=0, note=62, velocity=87, time=1),\n",
      "  Message('note_on', channel=0, note=62, velocity=0, time=23),\n",
      "  Message('note_on', channel=0, note=71, velocity=87, time=1),\n",
      "  Message('note_on', channel=0, note=71, velocity=0, time=23),\n",
      "  Message('note_on', channel=0, note=66, velocity=87, time=1),\n",
      "  Message('note_on', channel=0, note=66, velocity=0, time=23),\n",
      "  Message('note_on', channel=0, note=62, velocity=87, time=1),\n",
      "  Message('note_on', channel=0, note=62, velocity=0, time=23),\n",
      "  Message('note_on', channel=0, note=59, velocity=87, time=1),\n",
      "  Message('note_on', channel=0, note=59, velocity=0, time=23),\n",
      "  Message('note_on', channel=0, note=58, velocity=87, time=1),\n",
      "  Message('note_on', channel=0, note=58, velocity=0, time=23),\n",
      "  Message('note_on', channel=0, note=59, velocity=87, time=1),\n",
      "  Message('note_on', channel=0, note=59, velocity=0, time=23),\n",
      "  Message('note_on', channel=0, note=58, velocity=87, time=1),\n",
      "  Message('note_on', channel=0, note=58, velocity=0, time=23),\n",
      "  Message('note_on', channel=0, note=59, velocity=87, time=1),\n",
      "  Message('note_on', channel=0, note=59, velocity=0, time=23),\n",
      "  Message('note_on', channel=0, note=58, velocity=87, time=1),\n",
      "  Message('note_on', channel=0, note=58, velocity=0, time=23),\n",
      "  Message('note_on', channel=0, note=59, velocity=87, time=1),\n",
      "  Message('note_on', channel=0, note=59, velocity=0, time=23),\n",
      "  Message('note_on', channel=0, note=58, velocity=87, time=1),\n",
      "  Message('note_on', channel=0, note=58, velocity=0, time=23),\n",
      "  Message('note_on', channel=0, note=59, velocity=87, time=1),\n",
      "  Message('note_on', channel=0, note=59, velocity=0, time=23),\n",
      "  Message('note_on', channel=0, note=58, velocity=87, time=1),\n",
      "  Message('note_on', channel=0, note=58, velocity=0, time=23),\n",
      "  Message('note_on', channel=0, note=59, velocity=87, time=1),\n",
      "  Message('note_on', channel=0, note=59, velocity=0, time=23),\n",
      "  Message('note_on', channel=0, note=58, velocity=87, time=1),\n",
      "  Message('note_on', channel=0, note=58, velocity=0, time=23),\n",
      "  Message('note_on', channel=0, note=59, velocity=87, time=1),\n",
      "  Message('note_on', channel=0, note=59, velocity=0, time=23),\n",
      "  Message('note_on', channel=0, note=55, velocity=87, time=1),\n",
      "  Message('note_on', channel=0, note=55, velocity=0, time=45),\n",
      "  Message('note_on', channel=0, note=79, velocity=87, time=51),\n",
      "  Message('note_on', channel=0, note=79, velocity=0, time=23),\n",
      "  Message('note_on', channel=0, note=74, velocity=87, time=1),\n",
      "  Message('note_on', channel=0, note=74, velocity=0, time=23),\n",
      "  Message('note_on', channel=0, note=71, velocity=87, time=1),\n",
      "  Message('note_on', channel=0, note=71, velocity=0, time=23),\n",
      "  Message('note_on', channel=0, note=67, velocity=87, time=1),\n",
      "  Message('note_on', channel=0, note=67, velocity=0, time=23),\n",
      "  Message('note_on', channel=0, note=74, velocity=87, time=1),\n",
      "  Message('note_on', channel=0, note=74, velocity=0, time=23),\n",
      "  Message('note_on', channel=0, note=71, velocity=87, time=1),\n",
      "  Message('note_on', channel=0, note=71, velocity=0, time=23),\n",
      "  Message('note_on', channel=0, note=67, velocity=87, time=1),\n",
      "  Message('note_on', channel=0, note=67, velocity=0, time=23),\n",
      "  Message('note_on', channel=0, note=62, velocity=87, time=1),\n",
      "  Message('note_on', channel=0, note=62, velocity=0, time=23),\n",
      "  Message('note_on', channel=0, note=71, velocity=87, time=1),\n",
      "  Message('note_on', channel=0, note=71, velocity=0, time=23),\n",
      "  Message('note_on', channel=0, note=67, velocity=87, time=1),\n",
      "  Message('note_on', channel=0, note=67, velocity=0, time=23),\n",
      "  Message('note_on', channel=0, note=62, velocity=87, time=1),\n",
      "  Message('note_on', channel=0, note=62, velocity=0, time=23),\n",
      "  Message('note_on', channel=0, note=59, velocity=87, time=1),\n",
      "  Message('note_on', channel=0, note=59, velocity=0, time=23),\n",
      "  Message('note_on', channel=0, note=67, velocity=87, time=1),\n",
      "  Message('note_on', channel=0, note=67, velocity=0, time=23),\n",
      "  Message('note_on', channel=0, note=62, velocity=87, time=1),\n",
      "  Message('note_on', channel=0, note=62, velocity=0, time=23),\n",
      "  Message('note_on', channel=0, note=59, velocity=87, time=1),\n",
      "  Message('note_on', channel=0, note=59, velocity=0, time=23),\n",
      "  Message('note_on', channel=0, note=55, velocity=87, time=1),\n",
      "  Message('note_on', channel=0, note=55, velocity=0, time=23),\n",
      "  Message('note_on', channel=0, note=54, velocity=87, time=1),\n",
      "  Message('note_on', channel=0, note=54, velocity=0, time=23),\n",
      "  Message('note_on', channel=0, note=55, velocity=87, time=1),\n",
      "  Message('note_on', channel=0, note=55, velocity=0, time=23),\n",
      "  Message('note_on', channel=0, note=54, velocity=87, time=1),\n",
      "  Message('note_on', channel=0, note=54, velocity=0, time=23),\n",
      "  Message('note_on', channel=0, note=55, velocity=87, time=1),\n",
      "  Message('note_on', channel=0, note=55, velocity=0, time=23),\n",
      "  Message('note_on', channel=0, note=54, velocity=87, time=1),\n",
      "  Message('note_on', channel=0, note=54, velocity=0, time=23),\n",
      "  Message('note_on', channel=0, note=55, velocity=87, time=1),\n",
      "  Message('note_on', channel=0, note=55, velocity=0, time=23),\n",
      "  Message('note_on', channel=0, note=54, velocity=87, time=1),\n",
      "  Message('note_on', channel=0, note=54, velocity=0, time=23),\n",
      "  Message('note_on', channel=0, note=55, velocity=87, time=1),\n",
      "  Message('note_on', channel=0, note=55, velocity=0, time=23),\n",
      "  Message('note_on', channel=0, note=54, velocity=87, time=1),\n",
      "  Message('note_on', channel=0, note=54, velocity=0, time=23),\n",
      "  Message('note_on', channel=0, note=55, velocity=87, time=1),\n",
      "  Message('note_on', channel=0, note=55, velocity=0, time=23),\n",
      "  Message('note_on', channel=0, note=54, velocity=87, time=1),\n",
      "  Message('note_on', channel=0, note=54, velocity=0, time=23),\n",
      "  Message('note_on', channel=0, note=55, velocity=87, time=1),\n",
      "  Message('note_on', channel=0, note=55, velocity=0, time=23),\n",
      "  Message('note_on', channel=0, note=56, velocity=87, time=1),\n",
      "  Message('note_on', channel=0, note=56, velocity=0, time=45),\n",
      "  Message('note_on', channel=0, note=57, velocity=87, time=3),\n",
      "  Message('note_on', channel=0, note=57, velocity=0, time=23),\n",
      "  Message('note_on', channel=0, note=59, velocity=87, time=1),\n",
      "  Message('note_on', channel=0, note=59, velocity=0, time=23),\n",
      "  Message('note_on', channel=0, note=61, velocity=87, time=1),\n",
      "  Message('note_on', channel=0, note=61, velocity=0, time=23),\n",
      "  Message('note_on', channel=0, note=62, velocity=87, time=1),\n",
      "  Message('note_on', channel=0, note=62, velocity=0, time=23),\n",
      "  Message('note_on', channel=0, note=64, velocity=87, time=1),\n",
      "  Message('note_on', channel=0, note=64, velocity=0, time=23),\n",
      "  Message('note_on', channel=0, note=66, velocity=87, time=1),\n",
      "  Message('note_on', channel=0, note=66, velocity=0, time=23),\n",
      "  Message('note_on', channel=0, note=68, velocity=87, time=1),\n",
      "  Message('note_on', channel=0, note=68, velocity=0, time=23),\n",
      "  Message('note_on', channel=0, note=69, velocity=87, time=1),\n",
      "  Message('note_on', channel=0, note=69, velocity=0, time=23),\n",
      "  Message('note_on', channel=0, note=71, velocity=87, time=1),\n",
      "  Message('note_on', channel=0, note=71, velocity=0, time=23),\n",
      "  Message('note_on', channel=0, note=73, velocity=87, time=1),\n",
      "  Message('note_on', channel=0, note=73, velocity=0, time=23),\n",
      "  Message('note_on', channel=0, note=74, velocity=87, time=1),\n",
      "  Message('note_on', channel=0, note=74, velocity=0, time=23),\n",
      "  Message('note_on', channel=0, note=76, velocity=87, time=1),\n",
      "  Message('note_on', channel=0, note=76, velocity=0, time=23),\n",
      "  Message('note_on', channel=0, note=78, velocity=87, time=1),\n",
      "  Message('note_on', channel=0, note=78, velocity=0, time=23),\n",
      "  Message('note_on', channel=0, note=80, velocity=87, time=1),\n",
      "  Message('note_on', channel=0, note=80, velocity=0, time=23),\n",
      "  Message('note_on', channel=0, note=81, velocity=87, time=1),\n",
      "  Message('note_on', channel=0, note=81, velocity=0, time=89),\n",
      "  Message('note_on', channel=0, note=75, velocity=87, time=103),\n",
      "  Message('note_on', channel=0, note=69, velocity=87, time=0),\n",
      "  Message('note_on', channel=0, note=66, velocity=87, time=0),\n",
      "  Message('note_on', channel=0, note=75, velocity=0, time=89),\n",
      "  Message('note_on', channel=0, note=69, velocity=0, time=0),\n",
      "  Message('note_on', channel=0, note=66, velocity=0, time=0),\n",
      "  Message('note_on', channel=0, note=76, velocity=87, time=103),\n",
      "  Message('note_on', channel=0, note=71, velocity=87, time=0),\n",
      "  Message('note_on', channel=0, note=68, velocity=87, time=0),\n",
      "  Message('note_on', channel=0, note=76, velocity=0, time=89),\n",
      "  Message('note_on', channel=0, note=71, velocity=0, time=0),\n",
      "  Message('note_on', channel=0, note=68, velocity=0, time=0),\n",
      "  Message('note_on', channel=0, note=63, velocity=87, time=103),\n",
      "  Message('note_on', channel=0, note=63, velocity=0, time=12),\n",
      "  Message('note_on', channel=0, note=64, velocity=87, time=0),\n",
      "  Message('note_on', channel=0, note=64, velocity=0, time=165),\n",
      "  Message('note_on', channel=0, note=63, velocity=87, time=15),\n",
      "  Message('note_on', channel=0, note=63, velocity=0, time=12),\n",
      "  Message('note_on', channel=0, note=64, velocity=87, time=0),\n",
      "  Message('note_on', channel=0, note=64, velocity=0, time=165),\n",
      "  Message('note_on', channel=0, note=63, velocity=87, time=15),\n",
      "  Message('note_on', channel=0, note=63, velocity=0, time=12),\n",
      "  Message('note_on', channel=0, note=64, velocity=87, time=0),\n",
      "  Message('note_on', channel=0, note=64, velocity=0, time=165),\n",
      "  Message('note_on', channel=0, note=63, velocity=87, time=15),\n",
      "  Message('note_on', channel=0, note=63, velocity=0, time=12),\n",
      "  Message('note_on', channel=0, note=64, velocity=87, time=0),\n",
      "  Message('note_on', channel=0, note=64, velocity=0, time=165),\n",
      "  Message('note_on', channel=0, note=63, velocity=87, time=15),\n",
      "  Message('note_on', channel=0, note=63, velocity=0, time=12),\n",
      "  Message('note_on', channel=0, note=64, velocity=87, time=0),\n",
      "  Message('note_on', channel=0, note=64, velocity=0, time=165),\n",
      "  Message('note_on', channel=0, note=63, velocity=87, time=15),\n",
      "  Message('note_on', channel=0, note=63, velocity=0, time=12),\n",
      "  Message('note_on', channel=0, note=64, velocity=87, time=0),\n",
      "  Message('note_on', channel=0, note=64, velocity=0, time=165),\n",
      "  Message('note_on', channel=0, note=63, velocity=87, time=15),\n",
      "  Message('note_on', channel=0, note=63, velocity=0, time=12),\n",
      "  Message('note_on', channel=0, note=64, velocity=87, time=0),\n",
      "  Message('note_on', channel=0, note=64, velocity=0, time=165),\n",
      "  Message('note_on', channel=0, note=63, velocity=87, time=15),\n",
      "  Message('note_on', channel=0, note=63, velocity=0, time=12),\n",
      "  Message('note_on', channel=0, note=64, velocity=87, time=0),\n",
      "  Message('note_on', channel=0, note=64, velocity=0, time=165),\n",
      "  Message('note_on', channel=0, note=63, velocity=87, time=15),\n",
      "  Message('note_on', channel=0, note=63, velocity=0, time=12),\n",
      "  Message('note_on', channel=0, note=64, velocity=87, time=0),\n",
      "  Message('note_on', channel=0, note=64, velocity=0, time=165),\n",
      "  Message('note_on', channel=0, note=68, velocity=87, time=15),\n",
      "  Message('note_on', channel=0, note=68, velocity=0, time=23),\n",
      "  Message('note_on', channel=0, note=71, velocity=87, time=1),\n",
      "  Message('note_on', channel=0, note=71, velocity=0, time=23),\n",
      "  Message('note_on', channel=0, note=76, velocity=87, time=1),\n",
      "  Message('note_on', channel=0, note=76, velocity=0, time=23),\n",
      "  Message('note_on', channel=0, note=80, velocity=87, time=1),\n",
      "  Message('note_on', channel=0, note=80, velocity=0, time=23),\n",
      "  Message('note_on', channel=0, note=66, velocity=87, time=1),\n",
      "  Message('note_on', channel=0, note=66, velocity=0, time=23),\n",
      "  Message('note_on', channel=0, note=71, velocity=87, time=1),\n",
      "  Message('note_on', channel=0, note=71, velocity=0, time=23),\n",
      "  Message('note_on', channel=0, note=74, velocity=87, time=1),\n",
      "  Message('note_on', channel=0, note=74, velocity=0, time=23),\n",
      "  Message('note_on', channel=0, note=78, velocity=87, time=1),\n",
      "  Message('note_on', channel=0, note=78, velocity=0, time=23),\n",
      "  Message('note_on', channel=0, note=64, velocity=87, time=1),\n",
      "  Message('note_on', channel=0, note=64, velocity=0, time=23),\n",
      "  Message('note_on', channel=0, note=69, velocity=87, time=1),\n",
      "  Message('note_on', channel=0, note=69, velocity=0, time=23),\n",
      "  Message('note_on', channel=0, note=73, velocity=87, time=1),\n",
      "  Message('note_on', channel=0, note=73, velocity=0, time=23),\n",
      "  Message('note_on', channel=0, note=76, velocity=87, time=1),\n",
      "  Message('note_on', channel=0, note=76, velocity=0, time=23),\n",
      "  Message('note_on', channel=0, note=62, velocity=87, time=1),\n",
      "  Message('note_on', channel=0, note=62, velocity=0, time=23),\n",
      "  Message('note_on', channel=0, note=68, velocity=87, time=1),\n",
      "  Message('note_on', channel=0, note=68, velocity=0, time=23),\n",
      "  Message('note_on', channel=0, note=71, velocity=87, time=1),\n",
      "  Message('note_on', channel=0, note=71, velocity=0, time=23),\n",
      "  Message('note_on', channel=0, note=74, velocity=87, time=1),\n",
      "  Message('note_on', channel=0, note=74, velocity=0, time=23),\n",
      "  Message('note_on', channel=0, note=73, velocity=87, time=1),\n",
      "  Message('note_on', channel=0, note=73, velocity=0, time=45),\n",
      "  Message('note_on', channel=0, note=83, velocity=87, time=51),\n",
      "  Message('note_on', channel=0, note=83, velocity=0, time=23),\n",
      "  Message('note_on', channel=0, note=81, velocity=87, time=1),\n",
      "  Message('note_on', channel=0, note=81, velocity=0, time=23),\n",
      "  Message('note_on', channel=0, note=80, velocity=87, time=1),\n",
      "  Message('note_on', channel=0, note=80, velocity=0, time=23),\n",
      "  Message('note_on', channel=0, note=81, velocity=87, time=1),\n",
      "  Message('note_on', channel=0, note=81, velocity=0, time=23),\n",
      "  Message('note_on', channel=0, note=80, velocity=87, time=1),\n",
      "  Message('note_on', channel=0, note=80, velocity=0, time=23),\n",
      "  Message('note_on', channel=0, note=78, velocity=87, time=1),\n",
      "  Message('note_on', channel=0, note=78, velocity=0, time=23),\n",
      "  Message('note_on', channel=0, note=77, velocity=87, time=1),\n",
      "  Message('note_on', channel=0, note=77, velocity=0, time=23),\n",
      "  Message('note_on', channel=0, note=78, velocity=87, time=1),\n",
      "  Message('note_on', channel=0, note=78, velocity=0, time=23),\n",
      "  Message('note_on', channel=0, note=76, velocity=87, time=1),\n",
      "  Message('note_on', channel=0, note=76, velocity=0, time=23),\n",
      "  Message('note_on', channel=0, note=74, velocity=87, time=1),\n",
      "  Message('note_on', channel=0, note=74, velocity=0, time=23),\n",
      "  Message('note_on', channel=0, note=73, velocity=87, time=1),\n",
      "  Message('note_on', channel=0, note=73, velocity=0, time=23),\n",
      "  Message('note_on', channel=0, note=74, velocity=87, time=1),\n",
      "  Message('note_on', channel=0, note=74, velocity=0, time=23),\n",
      "  Message('note_on', channel=0, note=73, velocity=87, time=1),\n",
      "  Message('note_on', channel=0, note=73, velocity=0, time=45),\n",
      "  Message('note_on', channel=0, note=76, velocity=87, time=3),\n",
      "  Message('note_on', channel=0, note=76, velocity=0, time=23),\n",
      "  Message('note_on', channel=0, note=73, velocity=87, time=1),\n",
      "  Message('note_on', channel=0, note=73, velocity=0, time=23),\n",
      "  Message('note_on', channel=0, note=81, velocity=87, time=1),\n",
      "  Message('note_on', channel=0, note=81, velocity=0, time=20),\n",
      "  Message('note_on', channel=0, note=81, velocity=87, time=28),\n",
      "  Message('note_on', channel=0, note=81, velocity=0, time=20),\n",
      "  Message('note_on', channel=0, note=71, velocity=87, time=28),\n",
      "  Message('note_on', channel=0, note=71, velocity=0, time=20),\n",
      "  Message('note_on', channel=0, note=74, velocity=87, time=28),\n",
      "  Message('note_on', channel=0, note=74, velocity=0, time=23),\n",
      "  Message('note_on', channel=0, note=71, velocity=87, time=1),\n",
      "  Message('note_on', channel=0, note=71, velocity=0, time=23),\n",
      "  Message('note_on', channel=0, note=80, velocity=87, time=1),\n",
      "  Message('note_on', channel=0, note=80, velocity=0, time=20),\n",
      "  Message('note_on', channel=0, note=80, velocity=87, time=28),\n",
      "  Message('note_on', channel=0, note=80, velocity=0, time=20),\n",
      "  Message('note_on', channel=0, note=81, velocity=87, time=28),\n",
      "  Message('note_on', channel=0, note=81, velocity=0, time=23),\n",
      "  Message('note_on', channel=0, note=76, velocity=87, time=1),\n",
      "  Message('note_on', channel=0, note=76, velocity=0, time=23),\n",
      "  Message('note_on', channel=0, note=73, velocity=87, time=1),\n",
      "  Message('note_on', channel=0, note=73, velocity=0, time=23),\n",
      "  Message('note_on', channel=0, note=76, velocity=87, time=1),\n",
      "  Message('note_on', channel=0, note=76, velocity=0, time=23),\n",
      "  Message('note_on', channel=0, note=81, velocity=87, time=1),\n",
      "  Message('note_on', channel=0, note=81, velocity=0, time=20),\n",
      "  Message('note_on', channel=0, note=85, velocity=87, time=28),\n",
      "  Message('note_on', channel=0, note=85, velocity=0, time=20),\n",
      "  Message('note_on', channel=0, note=73, velocity=87, time=28),\n",
      "  Message('note_on', channel=0, note=76, velocity=87, time=8),\n",
      "  Message('note_on', channel=0, note=81, velocity=87, time=8),\n",
      "  Message('note_on', channel=0, note=81, velocity=0, time=77),\n",
      "  Message('note_on', channel=0, note=76, velocity=0, time=0),\n",
      "  Message('note_on', channel=0, note=73, velocity=0, time=0),\n",
      "  Message('note_on', channel=0, note=75, velocity=73, time=771),\n",
      "  Message('note_on', channel=0, note=75, velocity=0, time=12),\n",
      "  Message('note_on', channel=0, note=76, velocity=73, time=0),\n",
      "  Message('note_on', channel=0, note=76, velocity=0, time=77),\n",
      "  Message('note_on', channel=0, note=75, velocity=73, time=679),\n",
      "  Message('note_on', channel=0, note=75, velocity=0, time=12),\n",
      "  Message('note_on', channel=0, note=76, velocity=73, time=0),\n",
      "  Message('note_on', channel=0, note=76, velocity=0, time=77),\n",
      "  Message('note_on', channel=0, note=75, velocity=73, time=679),\n",
      "  Message('note_on', channel=0, note=75, velocity=0, time=12),\n",
      "  Message('note_on', channel=0, note=76, velocity=73, time=0),\n",
      "  Message('note_on', channel=0, note=76, velocity=0, time=77),\n",
      "  Message('note_on', channel=0, note=69, velocity=73, time=439),\n",
      "  Message('note_on', channel=0, note=69, velocity=0, time=23),\n",
      "  Message('note_on', channel=0, note=73, velocity=73, time=1),\n",
      "  Message('note_on', channel=0, note=73, velocity=0, time=23),\n",
      "  Message('note_on', channel=0, note=71, velocity=73, time=1),\n",
      "  Message('note_on', channel=0, note=71, velocity=0, time=23),\n",
      "  Message('note_on', channel=0, note=74, velocity=74, time=1),\n",
      "  Message('note_on', channel=0, note=74, velocity=0, time=23),\n",
      "  Message('note_on', channel=0, note=73, velocity=74, time=1),\n",
      "  Message('note_on', channel=0, note=73, velocity=0, time=23),\n",
      "  Message('note_on', channel=0, note=76, velocity=74, time=1),\n",
      "  Message('note_on', channel=0, note=76, velocity=0, time=23),\n",
      "  Message('note_on', channel=0, note=74, velocity=75, time=1),\n",
      "  Message('note_on', channel=0, note=74, velocity=0, time=23),\n",
      "  Message('note_on', channel=0, note=78, velocity=75, time=1),\n",
      "  Message('note_on', channel=0, note=78, velocity=0, time=23),\n",
      "  Message('note_on', channel=0, note=76, velocity=75, time=1),\n",
      "  Message('note_on', channel=0, note=76, velocity=0, time=23),\n",
      "  Message('note_on', channel=0, note=80, velocity=76, time=1),\n",
      "  Message('note_on', channel=0, note=80, velocity=0, time=23),\n",
      "  Message('note_on', channel=0, note=78, velocity=76, time=1),\n",
      "  Message('note_on', channel=0, note=78, velocity=0, time=23),\n",
      "  Message('note_on', channel=0, note=81, velocity=76, time=1),\n",
      "  Message('note_on', channel=0, note=81, velocity=0, time=23),\n",
      "  Message('note_on', channel=0, note=80, velocity=77, time=1),\n",
      "  Message('note_on', channel=0, note=80, velocity=0, time=23),\n",
      "  Message('note_on', channel=0, note=83, velocity=77, time=1),\n",
      "  Message('note_on', channel=0, note=83, velocity=0, time=23),\n",
      "  Message('note_on', channel=0, note=81, velocity=78, time=1),\n",
      "  Message('note_on', channel=0, note=81, velocity=0, time=45),\n",
      "  Message('note_on', channel=0, note=80, velocity=78, time=3),\n",
      "  Message('note_on', channel=0, note=80, velocity=0, time=45),\n",
      "  Message('note_on', channel=0, note=78, velocity=78, time=3),\n",
      "  Message('note_on', channel=0, note=78, velocity=0, time=45),\n",
      "  Message('note_on', channel=0, note=76, velocity=78, time=3),\n",
      "  Message('note_on', channel=0, note=76, velocity=0, time=45),\n",
      "  Message('note_on', channel=0, note=81, velocity=78, time=3),\n",
      "  Message('note_on', channel=0, note=81, velocity=0, time=39),\n",
      "  Message('note_on', channel=0, note=83, velocity=79, time=57),\n",
      "  Message('note_on', channel=0, note=83, velocity=0, time=39),\n",
      "  Message('note_on', channel=0, note=85, velocity=96, time=57),\n",
      "  Message('note_on', channel=0, note=85, velocity=0, time=237),\n",
      "  Message('note_on', channel=0, note=88, velocity=81, time=3),\n",
      "  Message('note_on', channel=0, note=88, velocity=0, time=45),\n",
      "  Message('note_on', channel=0, note=86, velocity=80, time=3),\n",
      "  Message('note_on', channel=0, note=86, velocity=0, time=45),\n",
      "  Message('note_on', channel=0, note=83, velocity=79, time=3),\n",
      "  Message('note_on', channel=0, note=83, velocity=0, time=45),\n",
      "  Message('note_on', channel=0, note=81, velocity=78, time=3),\n",
      "  Message('note_on', channel=0, note=81, velocity=0, time=45),\n",
      "  Message('note_on', channel=0, note=80, velocity=78, time=3),\n",
      "  Message('note_on', channel=0, note=80, velocity=0, time=45),\n",
      "  Message('note_on', channel=0, note=78, velocity=78, time=3),\n",
      "  Message('note_on', channel=0, note=78, velocity=0, time=45),\n",
      "  Message('note_on', channel=0, note=76, velocity=78, time=3),\n",
      "  Message('note_on', channel=0, note=76, velocity=0, time=45),\n",
      "  Message('note_on', channel=0, note=81, velocity=78, time=3),\n",
      "  Message('note_on', channel=0, note=81, velocity=0, time=39),\n",
      "  Message('note_on', channel=0, note=83, velocity=78, time=57),\n",
      "  Message('note_on', channel=0, note=83, velocity=0, time=39),\n",
      "  Message('note_on', channel=0, note=86, velocity=95, time=57),\n",
      "  Message('note_on', channel=0, note=86, velocity=0, time=192),\n",
      "  Message('note_on', channel=0, note=85, velocity=82, time=0),\n",
      "  Message('note_on', channel=0, note=85, velocity=0, time=67),\n",
      "  Message('note_on', channel=0, note=86, velocity=80, time=5),\n",
      "  Message('note_on', channel=0, note=86, velocity=0, time=23),\n",
      "  Message('note_on', channel=0, note=83, velocity=80, time=1),\n",
      "  Message('note_on', channel=0, note=83, velocity=0, time=67),\n",
      "  Message('note_on', channel=0, note=85, velocity=78, time=5),\n",
      "  Message('note_on', channel=0, note=85, velocity=0, time=23),\n",
      "  Message('note_on', channel=0, note=81, velocity=78, time=1),\n",
      "  Message('note_on', channel=0, note=81, velocity=0, time=45),\n",
      "  Message('note_on', channel=0, note=80, velocity=78, time=3),\n",
      "  Message('note_on', channel=0, note=80, velocity=0, time=45),\n",
      "  Message('note_on', channel=0, note=78, velocity=78, time=3),\n",
      "  Message('note_on', channel=0, note=78, velocity=0, time=12),\n",
      "  Message('note_on', channel=0, note=79, velocity=78, time=0),\n",
      "  Message('note_on', channel=0, note=79, velocity=0, time=12),\n",
      "  Message('note_on', channel=0, note=78, velocity=78, time=0),\n",
      "  Message('note_on', channel=0, note=78, velocity=0, time=21),\n",
      "  Message('note_on', channel=0, note=76, velocity=78, time=3),\n",
      "  Message('note_on', channel=0, note=76, velocity=0, time=45),\n",
      "  Message('note_on', channel=0, note=81, velocity=78, time=3),\n",
      "  Message('note_on', channel=0, note=81, velocity=0, time=39),\n",
      "  Message('note_on', channel=0, note=83, velocity=79, time=57),\n",
      "  Message('note_on', channel=0, note=83, velocity=0, time=39),\n",
      "  Message('note_on', channel=0, note=85, velocity=95, time=57),\n",
      "  Message('note_on', channel=0, note=85, velocity=0, time=237),\n",
      "  Message('note_on', channel=0, note=88, velocity=81, time=3),\n",
      "  Message('note_on', channel=0, note=88, velocity=0, time=45),\n",
      "  Message('note_on', channel=0, note=86, velocity=81, time=3),\n",
      "  Message('note_on', channel=0, note=86, velocity=0, time=45),\n",
      "  Message('note_on', channel=0, note=83, velocity=81, time=3),\n",
      "  Message('note_on', channel=0, note=83, velocity=0, time=45),\n",
      "  Message('note_on', channel=0, note=83, velocity=82, time=3),\n",
      "  Message('note_on', channel=0, note=83, velocity=0, time=48),\n",
      "  Message('note_on', channel=0, note=81, velocity=81, time=0),\n",
      "  Message('note_on', channel=0, note=81, velocity=0, time=45),\n",
      "  Message('note_on', channel=0, note=81, velocity=81, time=3),\n",
      "  Message('note_on', channel=0, note=81, velocity=0, time=89),\n",
      "  Message('note_on', channel=0, note=81, velocity=96, time=7),\n",
      "  Message('note_on', channel=0, note=81, velocity=0, time=96),\n",
      "  Message('note_on', channel=0, note=85, velocity=79, time=0),\n",
      "  Message('note_on', channel=0, note=85, velocity=0, time=45),\n",
      "  Message('note_on', channel=0, note=83, velocity=78, time=3),\n",
      "  Message('note_on', channel=0, note=83, velocity=0, time=45),\n",
      "  Message('note_on', channel=0, note=81, velocity=78, time=3),\n",
      "  Message('note_on', channel=0, note=81, velocity=0, time=89),\n",
      "  Message('note_on', channel=0, note=59, velocity=73, time=295),\n",
      "  Message('note_on', channel=0, note=59, velocity=0, time=23),\n",
      "  Message('note_on', channel=0, note=58, velocity=73, time=1),\n",
      "  Message('note_on', channel=0, note=58, velocity=0, time=23),\n",
      "  Message('note_on', channel=0, note=59, velocity=73, time=1),\n",
      "  Message('note_on', channel=0, note=59, velocity=0, time=23),\n",
      "  Message('note_on', channel=0, note=58, velocity=73, time=1),\n",
      "  Message('note_on', channel=0, note=58, velocity=0, time=23),\n",
      "  Message('note_on', channel=0, note=59, velocity=73, time=1),\n",
      "  Message('note_on', channel=0, note=59, velocity=0, time=23),\n",
      "  Message('note_on', channel=0, note=58, velocity=73, time=1),\n",
      "  Message('note_on', channel=0, note=58, velocity=0, time=23),\n",
      "  Message('note_on', channel=0, note=59, velocity=73, time=1),\n",
      "  Message('note_on', channel=0, note=59, velocity=0, time=23),\n",
      "  Message('note_on', channel=0, note=58, velocity=74, time=1),\n",
      "  Message('note_on', channel=0, note=58, velocity=0, time=23),\n",
      "  Message('note_on', channel=0, note=59, velocity=74, time=1),\n",
      "  Message('note_on', channel=0, note=59, velocity=0, time=23),\n",
      "  Message('note_on', channel=0, note=61, velocity=74, time=1),\n",
      "  Message('note_on', channel=0, note=61, velocity=0, time=23),\n",
      "  Message('note_on', channel=0, note=62, velocity=74, time=1),\n",
      "  Message('note_on', channel=0, note=62, velocity=0, time=23),\n",
      "  Message('note_on', channel=0, note=64, velocity=74, time=1),\n",
      "  Message('note_on', channel=0, note=64, velocity=0, time=23),\n",
      "  Message('note_on', channel=0, note=66, velocity=74, time=1),\n",
      "  Message('note_on', channel=0, note=66, velocity=0, time=23),\n",
      "  Message('note_on', channel=0, note=67, velocity=75, time=1),\n",
      "  Message('note_on', channel=0, note=67, velocity=0, time=23),\n",
      "  Message('note_on', channel=0, note=69, velocity=75, time=1),\n",
      "  Message('note_on', channel=0, note=69, velocity=0, time=23),\n",
      "  Message('note_on', channel=0, note=71, velocity=75, time=1),\n",
      "  Message('note_on', channel=0, note=71, velocity=0, time=23),\n",
      "  Message('note_on', channel=0, note=71, velocity=75, time=1),\n",
      "  Message('note_on', channel=0, note=71, velocity=0, time=192),\n",
      "  Message('note_on', channel=0, note=69, velocity=77, time=0),\n",
      "  Message('note_on', channel=0, note=69, velocity=0, time=67),\n",
      "  Message('note_on', channel=0, note=67, velocity=77, time=5),\n",
      "  Message('note_on', channel=0, note=67, velocity=0, time=24),\n",
      "  Message('note_on', channel=0, note=66, velocity=77, time=0),\n",
      "  Message('note_on', channel=0, note=66, velocity=0, time=29),\n",
      "  Message('note_on', channel=0, note=64, velocity=78, time=43),\n",
      "  Message('note_on', channel=0, note=64, velocity=0, time=23),\n",
      "  Message('note_on', channel=0, note=62, velocity=78, time=1),\n",
      "  Message('note_on', channel=0, note=62, velocity=0, time=23),\n",
      "  Message('note_on', channel=0, note=61, velocity=78, time=1),\n",
      "  Message('note_on', channel=0, note=61, velocity=0, time=23),\n",
      "  Message('note_on', channel=0, note=62, velocity=78, time=1),\n",
      "  Message('note_on', channel=0, note=62, velocity=0, time=23),\n",
      "  Message('note_on', channel=0, note=61, velocity=79, time=1),\n",
      "  Message('note_on', channel=0, note=61, velocity=0, time=23),\n",
      "  Message('note_on', channel=0, note=62, velocity=79, time=1),\n",
      "  Message('note_on', channel=0, note=62, velocity=0, time=23),\n",
      "  Message('note_on', channel=0, note=61, velocity=79, time=1),\n",
      "  Message('note_on', channel=0, note=61, velocity=0, time=23),\n",
      "  Message('note_on', channel=0, note=62, velocity=79, time=1),\n",
      "  Message('note_on', channel=0, note=62, velocity=0, time=23),\n",
      "  Message('note_on', channel=0, note=61, velocity=79, time=1),\n",
      "  Message('note_on', channel=0, note=61, velocity=0, time=23),\n",
      "  Message('note_on', channel=0, note=62, velocity=79, time=1),\n",
      "  Message('note_on', channel=0, note=62, velocity=0, time=23),\n",
      "  Message('note_on', channel=0, note=64, velocity=80, time=1),\n",
      "  Message('note_on', channel=0, note=64, velocity=0, time=23),\n",
      "  Message('note_on', channel=0, note=66, velocity=80, time=1),\n",
      "  Message('note_on', channel=0, note=66, velocity=0, time=23),\n",
      "  Message('note_on', channel=0, note=67, velocity=80, time=1),\n",
      "  Message('note_on', channel=0, note=67, velocity=0, time=23),\n",
      "  Message('note_on', channel=0, note=69, velocity=80, time=1),\n",
      "  Message('note_on', channel=0, note=69, velocity=0, time=23),\n",
      "  Message('note_on', channel=0, note=71, velocity=80, time=1),\n",
      "  Message('note_on', channel=0, note=71, velocity=0, time=23),\n",
      "  Message('note_on', channel=0, note=73, velocity=80, time=1),\n",
      "  Message('note_on', channel=0, note=73, velocity=0, time=23),\n",
      "  Message('note_on', channel=0, note=74, velocity=81, time=1),\n",
      "  Message('note_on', channel=0, note=74, velocity=0, time=23),\n",
      "  Message('note_on', channel=0, note=76, velocity=81, time=1),\n",
      "  Message('note_on', channel=0, note=76, velocity=0, time=192),\n",
      "  Message('note_on', channel=0, note=74, velocity=82, time=0),\n",
      "  Message('note_on', channel=0, note=74, velocity=0, time=67),\n",
      "  Message('note_on', channel=0, note=73, velocity=83, time=5),\n",
      "  Message('note_on', channel=0, note=73, velocity=0, time=24),\n",
      "  Message('note_on', channel=0, note=71, velocity=83, time=0),\n",
      "  Message('note_on', channel=0, note=71, velocity=0, time=29),\n",
      "  Message('note_on', channel=0, note=69, velocity=83, time=43),\n",
      "  Message('note_on', channel=0, note=69, velocity=0, time=23),\n",
      "  Message('note_on', channel=0, note=66, velocity=84, time=1),\n",
      "  Message('note_on', channel=0, note=66, velocity=0, time=23),\n",
      "  Message('note_on', channel=0, note=65, velocity=84, time=1),\n",
      "  Message('note_on', channel=0, note=65, velocity=0, time=23),\n",
      "  Message('note_on', channel=0, note=66, velocity=84, time=1),\n",
      "  Message('note_on', channel=0, note=66, velocity=0, time=23),\n",
      "  Message('note_on', channel=0, note=65, velocity=84, time=1),\n",
      "  Message('note_on', channel=0, note=65, velocity=0, time=23),\n",
      "  Message('note_on', channel=0, note=66, velocity=84, time=1),\n",
      "  Message('note_on', channel=0, note=66, velocity=0, time=23),\n",
      "  Message('note_on', channel=0, note=65, velocity=85, time=1),\n",
      "  Message('note_on', channel=0, note=65, velocity=0, time=23),\n",
      "  Message('note_on', channel=0, note=66, velocity=85, time=1),\n",
      "  Message('note_on', channel=0, note=66, velocity=0, time=23),\n",
      "  Message('note_on', channel=0, note=65, velocity=85, time=1),\n",
      "  Message('note_on', channel=0, note=65, velocity=0, time=23),\n",
      "  Message('note_on', channel=0, note=66, velocity=85, time=1),\n",
      "  Message('note_on', channel=0, note=66, velocity=0, time=23),\n",
      "  Message('note_on', channel=0, note=67, velocity=85, time=1),\n",
      "  Message('note_on', channel=0, note=67, velocity=0, time=23),\n",
      "  Message('note_on', channel=0, note=69, velocity=85, time=1),\n",
      "  Message('note_on', channel=0, note=69, velocity=0, time=23),\n",
      "  Message('note_on', channel=0, note=71, velocity=86, time=1),\n",
      "  Message('note_on', channel=0, note=71, velocity=0, time=23),\n",
      "  Message('note_on', channel=0, note=73, velocity=86, time=1),\n",
      "  Message('note_on', channel=0, note=73, velocity=0, time=23),\n",
      "  Message('note_on', channel=0, note=74, velocity=86, time=1),\n",
      "  Message('note_on', channel=0, note=74, velocity=0, time=23),\n",
      "  Message('note_on', channel=0, note=76, velocity=86, time=1),\n",
      "  Message('note_on', channel=0, note=76, velocity=0, time=23),\n",
      "  Message('note_on', channel=0, note=78, velocity=86, time=1),\n",
      "  Message('note_on', channel=0, note=78, velocity=0, time=23),\n",
      "  Message('note_on', channel=0, note=62, velocity=87, time=1),\n",
      "  Message('note_on', channel=0, note=62, velocity=0, time=23),\n",
      "  Message('note_on', channel=0, note=61, velocity=87, time=1),\n",
      "  Message('note_on', channel=0, note=61, velocity=0, time=23),\n",
      "  Message('note_on', channel=0, note=62, velocity=87, time=1),\n",
      "  Message('note_on', channel=0, note=62, velocity=0, time=23),\n",
      "  Message('note_on', channel=0, note=61, velocity=87, time=1),\n",
      "  Message('note_on', channel=0, note=61, velocity=0, time=23),\n",
      "  Message('note_on', channel=0, note=62, velocity=87, time=1),\n",
      "  Message('note_on', channel=0, note=62, velocity=0, time=23),\n",
      "  Message('note_on', channel=0, note=61, velocity=87, time=1),\n",
      "  Message('note_on', channel=0, note=61, velocity=0, time=23),\n",
      "  Message('note_on', channel=0, note=62, velocity=87, time=1),\n",
      "  Message('note_on', channel=0, note=62, velocity=0, time=23),\n",
      "  Message('note_on', channel=0, note=61, velocity=87, time=1),\n",
      "  Message('note_on', channel=0, note=61, velocity=0, time=23),\n",
      "  Message('note_on', channel=0, note=62, velocity=87, time=1),\n",
      "  Message('note_on', channel=0, note=62, velocity=0, time=23),\n",
      "  Message('note_on', channel=0, note=64, velocity=87, time=1),\n",
      "  Message('note_on', channel=0, note=64, velocity=0, time=23),\n",
      "  Message('note_on', channel=0, note=66, velocity=87, time=1),\n",
      "  Message('note_on', channel=0, note=66, velocity=0, time=23),\n",
      "  Message('note_on', channel=0, note=68, velocity=87, time=1),\n",
      "  Message('note_on', channel=0, note=68, velocity=0, time=23),\n",
      "  Message('note_on', channel=0, note=69, velocity=87, time=1),\n",
      "  Message('note_on', channel=0, note=69, velocity=0, time=23),\n",
      "  Message('note_on', channel=0, note=71, velocity=87, time=1),\n",
      "  Message('note_on', channel=0, note=71, velocity=0, time=23),\n",
      "  Message('note_on', channel=0, note=73, velocity=87, time=1),\n",
      "  Message('note_on', channel=0, note=73, velocity=0, time=23),\n",
      "  Message('note_on', channel=0, note=74, velocity=87, time=1),\n",
      "  Message('note_on', channel=0, note=74, velocity=0, time=23),\n",
      "  Message('note_on', channel=0, note=81, velocity=87, time=1),\n",
      "  Message('note_on', channel=0, note=76, velocity=87, time=0),\n",
      "  Message('note_on', channel=0, note=73, velocity=87, time=0),\n",
      "  Message('note_on', channel=0, note=81, velocity=0, time=45),\n",
      "  Message('note_on', channel=0, note=76, velocity=0, time=0),\n",
      "  Message('note_on', channel=0, note=73, velocity=0, time=0),\n",
      "  Message('note_on', channel=0, note=81, velocity=87, time=51),\n",
      "  Message('note_on', channel=0, note=76, velocity=87, time=0),\n",
      "  Message('note_on', channel=0, note=73, velocity=87, time=0),\n",
      "  Message('note_on', channel=0, note=81, velocity=0, time=45),\n",
      "  Message('note_on', channel=0, note=76, velocity=0, time=0),\n",
      "  Message('note_on', channel=0, note=73, velocity=0, time=0),\n",
      "  Message('note_on', channel=0, note=81, velocity=87, time=51),\n",
      "  Message('note_on', channel=0, note=76, velocity=87, time=0),\n",
      "  Message('note_on', channel=0, note=73, velocity=87, time=0),\n",
      "  Message('note_on', channel=0, note=81, velocity=0, time=45),\n",
      "  Message('note_on', channel=0, note=76, velocity=0, time=0),\n",
      "  Message('note_on', channel=0, note=73, velocity=0, time=0),\n",
      "  Message('note_on', channel=0, note=81, velocity=87, time=51),\n",
      "  Message('note_on', channel=0, note=76, velocity=87, time=0),\n",
      "  Message('note_on', channel=0, note=73, velocity=87, time=0),\n",
      "  Message('note_on', channel=0, note=81, velocity=0, time=45),\n",
      "  Message('note_on', channel=0, note=76, velocity=0, time=0),\n",
      "  Message('note_on', channel=0, note=73, velocity=0, time=0),\n",
      "  Message('note_on', channel=0, note=85, velocity=87, time=51),\n",
      "  Message('note_on', channel=0, note=81, velocity=87, time=0),\n",
      "  Message('note_on', channel=0, note=78, velocity=87, time=0),\n",
      "  Message('note_on', channel=0, note=85, velocity=0, time=45),\n",
      "  Message('note_on', channel=0, note=81, velocity=0, time=0),\n",
      "  Message('note_on', channel=0, note=78, velocity=0, time=0),\n",
      "  Message('note_on', channel=0, note=85, velocity=87, time=51),\n",
      "  Message('note_on', channel=0, note=81, velocity=87, time=0),\n",
      "  Message('note_on', channel=0, note=78, velocity=87, time=0),\n",
      "  Message('note_on', channel=0, note=85, velocity=0, time=45),\n",
      "  Message('note_on', channel=0, note=81, velocity=0, time=0),\n",
      "  Message('note_on', channel=0, note=78, velocity=0, time=0),\n",
      "  Message('note_on', channel=0, note=85, velocity=87, time=51),\n",
      "  Message('note_on', channel=0, note=81, velocity=87, time=0),\n",
      "  Message('note_on', channel=0, note=78, velocity=87, time=0),\n",
      "  Message('note_on', channel=0, note=85, velocity=0, time=45),\n",
      "  Message('note_on', channel=0, note=81, velocity=0, time=0),\n",
      "  Message('note_on', channel=0, note=78, velocity=0, time=0),\n",
      "  Message('note_on', channel=0, note=85, velocity=87, time=51),\n",
      "  Message('note_on', channel=0, note=81, velocity=87, time=0),\n",
      "  Message('note_on', channel=0, note=78, velocity=87, time=0),\n",
      "  Message('note_on', channel=0, note=85, velocity=0, time=45),\n",
      "  Message('note_on', channel=0, note=81, velocity=0, time=0),\n",
      "  Message('note_on', channel=0, note=78, velocity=0, time=0),\n",
      "  Message('note_on', channel=0, note=86, velocity=87, time=51),\n",
      "  Message('note_on', channel=0, note=81, velocity=87, time=0),\n",
      "  Message('note_on', channel=0, note=78, velocity=87, time=0),\n",
      "  Message('note_on', channel=0, note=86, velocity=0, time=45),\n",
      "  Message('note_on', channel=0, note=81, velocity=0, time=0),\n",
      "  Message('note_on', channel=0, note=78, velocity=0, time=0),\n",
      "  Message('note_on', channel=0, note=86, velocity=87, time=51),\n",
      "  Message('note_on', channel=0, note=81, velocity=87, time=0),\n",
      "  Message('note_on', channel=0, note=78, velocity=87, time=0),\n",
      "  Message('note_on', channel=0, note=86, velocity=0, time=45),\n",
      "  Message('note_on', channel=0, note=81, velocity=0, time=0),\n",
      "  Message('note_on', channel=0, note=78, velocity=0, time=0),\n",
      "  Message('note_on', channel=0, note=86, velocity=87, time=51),\n",
      "  Message('note_on', channel=0, note=81, velocity=87, time=0),\n",
      "  Message('note_on', channel=0, note=78, velocity=87, time=0),\n",
      "  Message('note_on', channel=0, note=86, velocity=0, time=45),\n",
      "  Message('note_on', channel=0, note=81, velocity=0, time=0),\n",
      "  Message('note_on', channel=0, note=78, velocity=0, time=0),\n",
      "  Message('note_on', channel=0, note=86, velocity=87, time=51),\n",
      "  Message('note_on', channel=0, note=81, velocity=87, time=0),\n",
      "  Message('note_on', channel=0, note=78, velocity=87, time=0),\n",
      "  Message('note_on', channel=0, note=86, velocity=0, time=45),\n",
      "  Message('note_on', channel=0, note=81, velocity=0, time=0),\n",
      "  Message('note_on', channel=0, note=78, velocity=0, time=0),\n",
      "  Message('note_on', channel=0, note=86, velocity=87, time=51),\n",
      "  Message('note_on', channel=0, note=83, velocity=87, time=0),\n",
      "  Message('note_on', channel=0, note=78, velocity=87, time=0),\n",
      "  Message('note_on', channel=0, note=86, velocity=0, time=45),\n",
      "  Message('note_on', channel=0, note=83, velocity=0, time=0),\n",
      "  Message('note_on', channel=0, note=78, velocity=0, time=0),\n",
      "  Message('note_on', channel=0, note=86, velocity=87, time=51),\n",
      "  Message('note_on', channel=0, note=83, velocity=87, time=0),\n",
      "  Message('note_on', channel=0, note=78, velocity=87, time=0),\n",
      "  Message('note_on', channel=0, note=86, velocity=0, time=45),\n",
      "  Message('note_on', channel=0, note=83, velocity=0, time=0),\n",
      "  Message('note_on', channel=0, note=78, velocity=0, time=0),\n",
      "  Message('note_on', channel=0, note=86, velocity=87, time=51),\n",
      "  Message('note_on', channel=0, note=83, velocity=87, time=0),\n",
      "  Message('note_on', channel=0, note=78, velocity=87, time=0),\n",
      "  Message('note_on', channel=0, note=86, velocity=0, time=45),\n",
      "  Message('note_on', channel=0, note=83, velocity=0, time=0),\n",
      "  Message('note_on', channel=0, note=78, velocity=0, time=0),\n",
      "  Message('note_on', channel=0, note=86, velocity=87, time=51),\n",
      "  Message('note_on', channel=0, note=83, velocity=87, time=0),\n",
      "  Message('note_on', channel=0, note=78, velocity=87, time=0),\n",
      "  Message('note_on', channel=0, note=86, velocity=0, time=45),\n",
      "  Message('note_on', channel=0, note=83, velocity=0, time=0),\n",
      "  Message('note_on', channel=0, note=78, velocity=0, time=0),\n",
      "  Message('note_on', channel=0, note=68, velocity=87, time=51),\n",
      "  Message('note_on', channel=0, note=68, velocity=0, time=23),\n",
      "  Message('note_on', channel=0, note=69, velocity=87, time=1),\n",
      "  Message('note_on', channel=0, note=69, velocity=0, time=23),\n",
      "  Message('note_on', channel=0, note=71, velocity=87, time=1),\n",
      "  Message('note_on', channel=0, note=71, velocity=0, time=23),\n",
      "  Message('note_on', channel=0, note=69, velocity=87, time=1),\n",
      "  Message('note_on', channel=0, note=69, velocity=0, time=23),\n",
      "  Message('note_on', channel=0, note=68, velocity=87, time=1),\n",
      "  Message('note_on', channel=0, note=68, velocity=0, time=23),\n",
      "  Message('note_on', channel=0, note=64, velocity=87, time=1),\n",
      "  Message('note_on', channel=0, note=64, velocity=0, time=23),\n",
      "  Message('note_on', channel=0, note=66, velocity=87, time=1),\n",
      "  Message('note_on', channel=0, note=66, velocity=0, time=23),\n",
      "  Message('note_on', channel=0, note=68, velocity=87, time=1),\n",
      "  Message('note_on', channel=0, note=68, velocity=0, time=23),\n",
      "  Message('note_on', channel=0, note=69, velocity=87, time=1),\n",
      "  Message('note_on', channel=0, note=69, velocity=0, time=23),\n",
      "  Message('note_on', channel=0, note=71, velocity=87, time=1),\n",
      "  Message('note_on', channel=0, note=71, velocity=0, time=23),\n",
      "  Message('note_on', channel=0, note=73, velocity=87, time=1),\n",
      "  Message('note_on', channel=0, note=73, velocity=0, time=23),\n",
      "  Message('note_on', channel=0, note=71, velocity=87, time=1),\n",
      "  Message('note_on', channel=0, note=71, velocity=0, time=23),\n",
      "  Message('note_on', channel=0, note=73, velocity=87, time=1),\n",
      "  Message('note_on', channel=0, note=73, velocity=0, time=23),\n",
      "  Message('note_on', channel=0, note=71, velocity=87, time=1),\n",
      "  Message('note_on', channel=0, note=71, velocity=0, time=23),\n",
      "  Message('note_on', channel=0, note=69, velocity=87, time=1),\n",
      "  Message('note_on', channel=0, note=69, velocity=0, time=23),\n",
      "  Message('note_on', channel=0, note=68, velocity=87, time=1),\n",
      "  Message('note_on', channel=0, note=68, velocity=0, time=23),\n",
      "  Message('note_on', channel=0, note=66, velocity=87, time=1),\n",
      "  Message('note_on', channel=0, note=66, velocity=0, time=23),\n",
      "  Message('note_on', channel=0, note=68, velocity=87, time=1),\n",
      "  Message('note_on', channel=0, note=68, velocity=0, time=23),\n",
      "  Message('note_on', channel=0, note=69, velocity=87, time=1),\n",
      "  Message('note_on', channel=0, note=69, velocity=0, time=23),\n",
      "  Message('note_on', channel=0, note=68, velocity=87, time=1),\n",
      "  Message('note_on', channel=0, note=68, velocity=0, time=23),\n",
      "  Message('note_on', channel=0, note=66, velocity=87, time=1),\n",
      "  Message('note_on', channel=0, note=66, velocity=0, time=23),\n",
      "  Message('note_on', channel=0, note=62, velocity=87, time=1),\n",
      "  Message('note_on', channel=0, note=62, velocity=0, time=23),\n",
      "  Message('note_on', channel=0, note=64, velocity=87, time=1),\n",
      "  Message('note_on', channel=0, note=64, velocity=0, time=23),\n",
      "  Message('note_on', channel=0, note=66, velocity=87, time=1),\n",
      "  Message('note_on', channel=0, note=66, velocity=0, time=23),\n",
      "  Message('note_on', channel=0, note=68, velocity=87, time=1),\n",
      "  Message('note_on', channel=0, note=68, velocity=0, time=23),\n",
      "  Message('note_on', channel=0, note=69, velocity=87, time=1),\n",
      "  Message('note_on', channel=0, note=69, velocity=0, time=23),\n",
      "  Message('note_on', channel=0, note=71, velocity=87, time=1),\n",
      "  Message('note_on', channel=0, note=71, velocity=0, time=23),\n",
      "  Message('note_on', channel=0, note=69, velocity=87, time=1),\n",
      "  Message('note_on', channel=0, note=69, velocity=0, time=23),\n",
      "  Message('note_on', channel=0, note=68, velocity=87, time=1),\n",
      "  Message('note_on', channel=0, note=68, velocity=0, time=23),\n",
      "  Message('note_on', channel=0, note=66, velocity=87, time=1),\n",
      "  Message('note_on', channel=0, note=66, velocity=0, time=23),\n",
      "  Message('note_on', channel=0, note=64, velocity=87, time=1),\n",
      "  Message('note_on', channel=0, note=64, velocity=0, time=23),\n",
      "  Message('note_on', channel=0, note=62, velocity=87, time=1),\n",
      "  Message('note_on', channel=0, note=62, velocity=0, time=23),\n",
      "  Message('note_on', channel=0, note=61, velocity=87, time=1),\n",
      "  Message('note_on', channel=0, note=61, velocity=0, time=23),\n",
      "  Message('note_on', channel=0, note=64, velocity=87, time=1),\n",
      "  Message('note_on', channel=0, note=64, velocity=0, time=23),\n",
      "  Message('note_on', channel=0, note=62, velocity=87, time=1),\n",
      "  Message('note_on', channel=0, note=62, velocity=0, time=23),\n",
      "  Message('note_on', channel=0, note=61, velocity=87, time=1),\n",
      "  Message('note_on', channel=0, note=61, velocity=0, time=23),\n",
      "  Message('note_on', channel=0, note=62, velocity=87, time=1),\n",
      "  Message('note_on', channel=0, note=62, velocity=0, time=23),\n",
      "  Message('note_on', channel=0, note=64, velocity=87, time=1),\n",
      "  Message('note_on', channel=0, note=64, velocity=0, time=23),\n",
      "  Message('note_on', channel=0, note=66, velocity=87, time=1),\n",
      "  Message('note_on', channel=0, note=66, velocity=0, time=23),\n",
      "  Message('note_on', channel=0, note=68, velocity=87, time=1),\n",
      "  Message('note_on', channel=0, note=68, velocity=0, time=23),\n",
      "  Message('note_on', channel=0, note=69, velocity=87, time=1),\n",
      "  Message('note_on', channel=0, note=69, velocity=0, time=23),\n",
      "  Message('note_on', channel=0, note=71, velocity=87, time=1),\n",
      "  Message('note_on', channel=0, note=71, velocity=0, time=23),\n",
      "  Message('note_on', channel=0, note=73, velocity=87, time=1),\n",
      "  Message('note_on', channel=0, note=73, velocity=0, time=23),\n",
      "  Message('note_on', channel=0, note=74, velocity=87, time=1),\n",
      "  Message('note_on', channel=0, note=74, velocity=0, time=23),\n",
      "  Message('note_on', channel=0, note=76, velocity=87, time=1),\n",
      "  Message('note_on', channel=0, note=76, velocity=0, time=23),\n",
      "  Message('note_on', channel=0, note=78, velocity=87, time=1),\n",
      "  Message('note_on', channel=0, note=78, velocity=0, time=23),\n",
      "  Message('note_on', channel=0, note=80, velocity=87, time=1),\n",
      "  Message('note_on', channel=0, note=80, velocity=0, time=23),\n",
      "  Message('note_on', channel=0, note=81, velocity=87, time=1),\n",
      "  Message('note_on', channel=0, note=81, velocity=0, time=23),\n",
      "  Message('note_on', channel=0, note=78, velocity=87, time=1),\n",
      "  Message('note_on', channel=0, note=78, velocity=0, time=23),\n",
      "  Message('note_on', channel=0, note=80, velocity=87, time=1),\n",
      "  Message('note_on', channel=0, note=80, velocity=0, time=23),\n",
      "  Message('note_on', channel=0, note=78, velocity=87, time=1),\n",
      "  Message('note_on', channel=0, note=78, velocity=0, time=23),\n",
      "  Message('note_on', channel=0, note=76, velocity=87, time=1),\n",
      "  Message('note_on', channel=0, note=76, velocity=0, time=23),\n",
      "  Message('note_on', channel=0, note=74, velocity=87, time=1),\n",
      "  Message('note_on', channel=0, note=74, velocity=0, time=23),\n",
      "  Message('note_on', channel=0, note=73, velocity=87, time=1),\n",
      "  Message('note_on', channel=0, note=73, velocity=0, time=23),\n",
      "  Message('note_on', channel=0, note=71, velocity=87, time=1),\n",
      "  Message('note_on', channel=0, note=71, velocity=0, time=23),\n",
      "  Message('note_on', channel=0, note=69, velocity=87, time=1),\n",
      "  Message('note_on', channel=0, note=69, velocity=0, time=23),\n",
      "  Message('note_on', channel=0, note=68, velocity=87, time=1),\n",
      "  Message('note_on', channel=0, note=68, velocity=0, time=23),\n",
      "  Message('note_on', channel=0, note=69, velocity=87, time=1),\n",
      "  Message('note_on', channel=0, note=69, velocity=0, time=23),\n",
      "  Message('note_on', channel=0, note=68, velocity=87, time=1),\n",
      "  Message('note_on', channel=0, note=68, velocity=0, time=23),\n",
      "  Message('note_on', channel=0, note=66, velocity=87, time=1),\n",
      "  Message('note_on', channel=0, note=66, velocity=0, time=23),\n",
      "  Message('note_on', channel=0, note=64, velocity=87, time=1),\n",
      "  Message('note_on', channel=0, note=64, velocity=0, time=23),\n",
      "  Message('note_on', channel=0, note=62, velocity=87, time=1),\n",
      "  Message('note_on', channel=0, note=62, velocity=0, time=23),\n",
      "  Message('note_on', channel=0, note=61, velocity=87, time=1),\n",
      "  Message('note_on', channel=0, note=61, velocity=0, time=23),\n",
      "  Message('note_on', channel=0, note=59, velocity=87, time=1),\n",
      "  Message('note_on', channel=0, note=59, velocity=0, time=23),\n",
      "  Message('note_on', channel=0, note=57, velocity=87, time=1),\n",
      "  Message('note_on', channel=0, note=57, velocity=0, time=23),\n",
      "  Message('note_on', channel=0, note=61, velocity=86, time=1),\n",
      "  Message('note_on', channel=0, note=61, velocity=0, time=23),\n",
      "  Message('note_on', channel=0, note=64, velocity=85, time=1),\n",
      "  Message('note_on', channel=0, note=64, velocity=0, time=23),\n",
      "  Message('note_on', channel=0, note=69, velocity=84, time=1),\n",
      "  Message('note_on', channel=0, note=69, velocity=0, time=23),\n",
      "  Message('note_on', channel=0, note=73, velocity=84, time=1),\n",
      "  Message('note_on', channel=0, note=73, velocity=0, time=23),\n",
      "  Message('note_on', channel=0, note=69, velocity=83, time=1),\n",
      "  Message('note_on', channel=0, note=69, velocity=0, time=23),\n",
      "  Message('note_on', channel=0, note=76, velocity=82, time=1),\n",
      "  Message('note_on', channel=0, note=76, velocity=0, time=23),\n",
      "  Message('note_on', channel=0, note=73, velocity=81, time=1),\n",
      "  Message('note_on', channel=0, note=73, velocity=0, time=23),\n",
      "  Message('note_on', channel=0, note=81, velocity=81, time=1),\n",
      "  Message('note_on', channel=0, note=81, velocity=0, time=23),\n",
      "  Message('note_on', channel=0, note=76, velocity=80, time=1),\n",
      "  Message('note_on', channel=0, note=76, velocity=0, time=23),\n",
      "  Message('note_on', channel=0, note=85, velocity=79, time=1),\n",
      "  Message('note_on', channel=0, note=85, velocity=0, time=23),\n",
      "  Message('note_on', channel=0, note=81, velocity=78, time=1),\n",
      "  Message('note_on', channel=0, note=81, velocity=0, time=23),\n",
      "  Message('note_on', channel=0, note=88, velocity=78, time=1),\n",
      "  Message('note_on', channel=0, note=88, velocity=0, time=20),\n",
      "  Message('note_on', channel=0, note=88, velocity=78, time=28),\n",
      "  Message('note_on', channel=0, note=88, velocity=0, time=20),\n",
      "  Message('note_on', channel=0, note=88, velocity=94, time=28),\n",
      "  Message('note_on', channel=0, note=88, velocity=0, time=48),\n",
      "  Message('note_on', channel=0, note=78, velocity=78, time=0),\n",
      "  Message('note_on', channel=0, note=78, velocity=0, time=45),\n",
      "  Message('note_on', channel=0, note=78, velocity=78, time=3),\n",
      "  Message('note_on', channel=0, note=78, velocity=0, time=140),\n",
      "  Message('note_on', channel=0, note=82, velocity=78, time=4),\n",
      "  Message('note_on', channel=0, note=82, velocity=0, time=23),\n",
      "  Message('note_on', channel=0, note=83, velocity=78, time=1),\n",
      "  Message('note_on', channel=0, note=83, velocity=0, time=23),\n",
      "  Message('note_on', channel=0, note=86, velocity=78, time=1),\n",
      "  Message('note_on', channel=0, note=86, velocity=0, time=20),\n",
      "  Message('note_on', channel=0, note=86, velocity=78, time=28),\n",
      "  Message('note_on', channel=0, note=86, velocity=0, time=20),\n",
      "  Message('note_on', channel=0, note=86, velocity=94, time=28),\n",
      "  Message('note_on', channel=0, note=86, velocity=0, time=48),\n",
      "  Message('note_on', channel=0, note=76, velocity=78, time=0),\n",
      "  Message('note_on', channel=0, note=76, velocity=0, time=45),\n",
      "  Message('note_on', channel=0, note=76, velocity=79, time=3),\n",
      "  Message('note_on', channel=0, note=76, velocity=0, time=140),\n",
      "  Message('note_on', channel=0, note=80, velocity=79, time=4),\n",
      "  Message('note_on', channel=0, note=80, velocity=0, time=23),\n",
      "  Message('note_on', channel=0, note=81, velocity=79, time=1),\n",
      "  Message('note_on', channel=0, note=81, velocity=0, time=23),\n",
      "  Message('note_on', channel=0, note=85, velocity=79, time=1),\n",
      "  Message('note_on', channel=0, note=85, velocity=0, time=20),\n",
      "  Message('note_on', channel=0, note=85, velocity=80, time=28),\n",
      "  Message('note_on', channel=0, note=85, velocity=0, time=20),\n",
      "  Message('note_on', channel=0, note=85, velocity=96, time=28),\n",
      "  Message('note_on', channel=0, note=85, velocity=0, time=48),\n",
      "  Message('note_on', channel=0, note=74, velocity=80, time=0),\n",
      "  Message('note_on', channel=0, note=74, velocity=0, time=45),\n",
      "  Message('note_on', channel=0, note=74, velocity=80, time=3),\n",
      "  Message('note_on', channel=0, note=74, velocity=0, time=140),\n",
      "  Message('note_on', channel=0, note=79, velocity=81, time=4),\n",
      "  Message('note_on', channel=0, note=79, velocity=0, time=23),\n",
      "  Message('note_on', channel=0, note=80, velocity=81, time=1),\n",
      "  Message('note_on', channel=0, note=80, velocity=0, time=23),\n",
      "  Message('note_on', channel=0, note=83, velocity=81, time=1),\n",
      "  Message('note_on', channel=0, note=83, velocity=0, time=20),\n",
      "  Message('note_on', channel=0, note=83, velocity=81, time=28),\n",
      "  Message('note_on', channel=0, note=83, velocity=0, time=20),\n",
      "  Message('note_on', channel=0, note=83, velocity=97, time=28),\n",
      "  Message('note_on', channel=0, note=83, velocity=0, time=48),\n",
      "  Message('note_on', channel=0, note=73, velocity=82, time=0),\n",
      "  Message('note_on', channel=0, note=73, velocity=0, time=45),\n",
      "  Message('note_on', channel=0, note=73, velocity=82, time=3),\n",
      "  Message('note_on', channel=0, note=73, velocity=0, time=140),\n",
      "  Message('note_on', channel=0, note=77, velocity=83, time=4),\n",
      "  Message('note_on', channel=0, note=77, velocity=0, time=23),\n",
      "  Message('note_on', channel=0, note=78, velocity=83, time=1),\n",
      "  Message('note_on', channel=0, note=78, velocity=0, time=23),\n",
      "  Message('note_on', channel=0, note=81, velocity=83, time=1),\n",
      "  Message('note_on', channel=0, note=81, velocity=0, time=20),\n",
      "  Message('note_on', channel=0, note=81, velocity=83, time=28),\n",
      "  Message('note_on', channel=0, note=81, velocity=0, time=20),\n",
      "  Message('note_on', channel=0, note=81, velocity=99, time=28),\n",
      "  Message('note_on', channel=0, note=81, velocity=0, time=48),\n",
      "  Message('note_on', channel=0, note=71, velocity=83, time=0),\n",
      "  Message('note_on', channel=0, note=71, velocity=0, time=45),\n",
      "  Message('note_on', channel=0, note=71, velocity=84, time=51),\n",
      "  Message('note_on', channel=0, note=71, velocity=0, time=20),\n",
      "  Message('note_on', channel=0, note=71, velocity=84, time=76),\n",
      "  Message('note_on', channel=0, note=71, velocity=0, time=20),\n",
      "  Message('note_on', channel=0, note=71, velocity=85, time=76),\n",
      "  Message('note_on', channel=0, note=71, velocity=0, time=12),\n",
      "  Message('note_on', channel=0, note=73, velocity=85, time=0),\n",
      "  Message('note_on', channel=0, note=73, velocity=0, time=12),\n",
      "  Message('note_on', channel=0, note=71, velocity=85, time=0),\n",
      "  Message('note_on', channel=0, note=71, velocity=0, time=12),\n",
      "  Message('note_on', channel=0, note=73, velocity=85, time=0),\n",
      "  Message('note_on', channel=0, note=73, velocity=0, time=9),\n",
      "  Message('note_on', channel=0, note=81, velocity=101, time=3),\n",
      "  Message('note_on', channel=0, note=81, velocity=0, time=48),\n",
      "  Message('note_on', channel=0, note=72, velocity=85, time=0),\n",
      "  Message('note_on', channel=0, note=72, velocity=0, time=45),\n",
      "  Message('note_on', channel=0, note=72, velocity=85, time=51),\n",
      "  Message('note_on', channel=0, note=72, velocity=0, time=20),\n",
      "  Message('note_on', channel=0, note=72, velocity=86, time=76),\n",
      "  Message('note_on', channel=0, note=72, velocity=0, time=20),\n",
      "  Message('note_on', channel=0, note=72, velocity=86, time=76),\n",
      "  Message('note_on', channel=0, note=72, velocity=0, time=12),\n",
      "  Message('note_on', channel=0, note=74, velocity=86, time=0),\n",
      "  Message('note_on', channel=0, note=74, velocity=0, time=12),\n",
      "  Message('note_on', channel=0, note=72, velocity=86, time=0),\n",
      "  Message('note_on', channel=0, note=72, velocity=0, time=12),\n",
      "  Message('note_on', channel=0, note=74, velocity=86, time=0),\n",
      "  Message('note_on', channel=0, note=74, velocity=0, time=9),\n",
      "  Message('note_on', channel=0, note=73, velocity=87, time=3),\n",
      "  Message('note_on', channel=0, note=73, velocity=0, time=23),\n",
      "  Message('note_on', channel=0, note=69, velocity=87, time=1),\n",
      "  Message('note_on', channel=0, note=69, velocity=0, time=23),\n",
      "  Message('note_on', channel=0, note=76, velocity=87, time=1),\n",
      "  Message('note_on', channel=0, note=76, velocity=0, time=23),\n",
      "  Message('note_on', channel=0, note=73, velocity=87, time=1),\n",
      "  Message('note_on', channel=0, note=73, velocity=0, time=23),\n",
      "  Message('note_on', channel=0, note=81, velocity=87, time=1),\n",
      "  Message('note_on', channel=0, note=81, velocity=0, time=23),\n",
      "  Message('note_on', channel=0, note=76, velocity=87, time=1),\n",
      "  Message('note_on', channel=0, note=76, velocity=0, time=23),\n",
      "  Message('note_on', channel=0, note=85, velocity=87, time=1),\n",
      "  Message('note_on', channel=0, note=85, velocity=0, time=23),\n",
      "  Message('note_on', channel=0, note=81, velocity=87, time=1),\n",
      "  Message('note_on', channel=0, note=81, velocity=0, time=23),\n",
      "  Message('note_on', channel=0, note=88, velocity=87, time=1),\n",
      "  Message('note_on', channel=0, note=88, velocity=0, time=23),\n",
      "  Message('note_on', channel=0, note=85, velocity=87, time=1),\n",
      "  Message('note_on', channel=0, note=85, velocity=0, time=23),\n",
      "  Message('note_on', channel=0, note=81, velocity=87, time=1),\n",
      "  Message('note_on', channel=0, note=81, velocity=0, time=23),\n",
      "  Message('note_on', channel=0, note=76, velocity=87, time=1),\n",
      "  Message('note_on', channel=0, note=76, velocity=0, time=23),\n",
      "  Message('note_on', channel=0, note=81, velocity=87, time=1),\n",
      "  Message('note_on', channel=0, note=81, velocity=0, time=23),\n",
      "  Message('note_on', channel=0, note=76, velocity=87, time=1),\n",
      "  Message('note_on', channel=0, note=76, velocity=0, time=23),\n",
      "  Message('note_on', channel=0, note=73, velocity=87, time=1),\n",
      "  Message('note_on', channel=0, note=73, velocity=0, time=23),\n",
      "  Message('note_on', channel=0, note=69, velocity=87, time=1),\n",
      "  Message('note_on', channel=0, note=69, velocity=0, time=23),\n",
      "  Message('note_on', channel=0, note=73, velocity=87, time=1),\n",
      "  Message('note_on', channel=0, note=73, velocity=0, time=177),\n",
      "  Message('note_on', channel=0, note=71, velocity=85, time=15),\n",
      "  Message('note_on', channel=0, note=71, velocity=0, time=18),\n",
      "  Message('note_on', channel=0, note=73, velocity=85, time=0),\n",
      "  Message('note_on', channel=0, note=73, velocity=0, time=18),\n",
      "  Message('note_on', channel=0, note=71, velocity=85, time=0),\n",
      "  Message('note_on', channel=0, note=71, velocity=0, time=18),\n",
      "  Message('note_on', channel=0, note=73, velocity=85, time=0),\n",
      "  Message('note_on', channel=0, note=73, velocity=0, time=18),\n",
      "  Message('note_on', channel=0, note=71, velocity=85, time=0),\n",
      "  Message('note_on', channel=0, note=71, velocity=0, time=18),\n",
      "  Message('note_on', channel=0, note=73, velocity=85, time=0),\n",
      "  Message('note_on', channel=0, note=73, velocity=0, time=18),\n",
      "  Message('note_on', channel=0, note=71, velocity=85, time=0),\n",
      "  Message('note_on', channel=0, note=71, velocity=0, time=18),\n",
      "  Message('note_on', channel=0, note=73, velocity=85, time=0),\n",
      "  Message('note_on', channel=0, note=73, velocity=0, time=7),\n",
      "  Message('note_on', channel=0, note=69, velocity=83, time=11),\n",
      "  Message('note_on', channel=0, note=69, velocity=0, time=23),\n",
      "  Message('note_on', channel=0, note=71, velocity=83, time=1),\n",
      "  Message('note_on', channel=0, note=71, velocity=0, time=23),\n",
      "  Message('note_on', channel=0, note=69, velocity=83, time=1),\n",
      "  Message('note_on', channel=0, note=69, velocity=0, time=89),\n",
      "  Message('note_on', channel=0, note=69, velocity=82, time=31),\n",
      "  Message('note_on', channel=0, note=69, velocity=0, time=23),\n",
      "  Message('note_on', channel=0, note=71, velocity=82, time=1),\n",
      "  Message('note_on', channel=0, note=71, velocity=0, time=23),\n",
      "  Message('note_on', channel=0, note=73, velocity=82, time=1),\n",
      "  Message('note_on', channel=0, note=73, velocity=0, time=23),\n",
      "  Message('note_on', channel=0, note=74, velocity=82, time=1),\n",
      "  Message('note_on', channel=0, note=74, velocity=0, time=23),\n",
      "  Message('note_on', channel=0, note=76, velocity=82, time=1),\n",
      "  Message('note_on', channel=0, note=76, velocity=0, time=23),\n",
      "  Message('note_on', channel=0, note=78, velocity=82, time=1),\n",
      "  Message('note_on', channel=0, note=78, velocity=0, time=23),\n",
      "  Message('note_on', channel=0, note=80, velocity=82, time=1),\n",
      "  Message('note_on', channel=0, note=80, velocity=0, time=23),\n",
      "  Message('note_on', channel=0, note=81, velocity=82, time=1),\n",
      "  Message('note_on', channel=0, note=81, velocity=0, time=23),\n",
      "  Message('note_on', channel=0, note=83, velocity=82, time=1),\n",
      "  Message('note_on', channel=0, note=83, velocity=0, time=23),\n",
      "  Message('note_on', channel=0, note=85, velocity=82, time=1),\n",
      "  Message('note_on', channel=0, note=85, velocity=0, time=23),\n",
      "  Message('note_on', channel=0, note=81, velocity=82, time=1),\n",
      "  Message('note_on', channel=0, note=81, velocity=0, time=23),\n",
      "  Message('note_on', channel=0, note=86, velocity=82, time=1),\n",
      "  Message('note_on', channel=0, note=86, velocity=0, time=20),\n",
      "  Message('note_on', channel=0, note=83, velocity=82, time=28),\n",
      "  Message('note_on', channel=0, note=83, velocity=0, time=20),\n",
      "  Message('note_on', channel=0, note=78, velocity=82, time=28),\n",
      "  Message('note_on', channel=0, note=78, velocity=0, time=119),\n",
      "  Message('note_on', channel=0, note=80, velocity=82, time=1),\n",
      "  Message('note_on', channel=0, note=80, velocity=0, time=23),\n",
      "  Message('note_on', channel=0, note=81, velocity=82, time=1),\n",
      "  Message('note_on', channel=0, note=81, velocity=0, time=23),\n",
      "  Message('note_on', channel=0, note=78, velocity=82, time=1),\n",
      "  Message('note_on', channel=0, note=78, velocity=0, time=23),\n",
      "  Message('note_on', channel=0, note=80, velocity=82, time=1),\n",
      "  Message('note_on', channel=0, note=80, velocity=0, time=23),\n",
      "  Message('note_on', channel=0, note=81, velocity=82, time=1),\n",
      "  Message('note_on', channel=0, note=81, velocity=0, time=23),\n",
      "  Message('note_on', channel=0, note=83, velocity=82, time=1),\n",
      "  Message('note_on', channel=0, note=83, velocity=0, time=23),\n",
      "  Message('note_on', channel=0, note=80, velocity=82, time=1),\n",
      "  Message('note_on', channel=0, note=80, velocity=0, time=23),\n",
      "  Message('note_on', channel=0, note=81, velocity=82, time=1),\n",
      "  Message('note_on', channel=0, note=81, velocity=0, time=89),\n",
      "  Message('note_on', channel=0, note=69, velocity=78, time=31),\n",
      "  Message('note_on', channel=0, note=69, velocity=0, time=23),\n",
      "  Message('note_on', channel=0, note=71, velocity=78, time=1),\n",
      "  Message('note_on', channel=0, note=71, velocity=0, time=23),\n",
      "  Message('note_on', channel=0, note=73, velocity=78, time=1),\n",
      "  Message('note_on', channel=0, note=73, velocity=0, time=23),\n",
      "  Message('note_on', channel=0, note=74, velocity=78, time=1),\n",
      "  Message('note_on', channel=0, note=74, velocity=0, time=23),\n",
      "  Message('note_on', channel=0, note=76, velocity=78, time=1),\n",
      "  Message('note_on', channel=0, note=76, velocity=0, time=23),\n",
      "  Message('note_on', channel=0, note=78, velocity=78, time=1),\n",
      "  Message('note_on', channel=0, note=78, velocity=0, time=23),\n",
      "  Message('note_on', channel=0, note=80, velocity=78, time=1),\n",
      "  Message('note_on', channel=0, note=80, velocity=0, time=23),\n",
      "  Message('note_on', channel=0, note=81, velocity=78, time=1),\n",
      "  Message('note_on', channel=0, note=81, velocity=0, time=23),\n",
      "  Message('note_on', channel=0, note=83, velocity=78, time=1),\n",
      "  Message('note_on', channel=0, note=83, velocity=0, time=23),\n",
      "  Message('note_on', channel=0, note=85, velocity=78, time=1),\n",
      "  Message('note_on', channel=0, note=85, velocity=0, time=23),\n",
      "  Message('note_on', channel=0, note=81, velocity=78, time=1),\n",
      "  Message('note_on', channel=0, note=81, velocity=0, time=23),\n",
      "  Message('note_on', channel=0, note=86, velocity=78, time=1),\n",
      "  Message('note_on', channel=0, note=86, velocity=0, time=20),\n",
      "  Message('note_on', channel=0, note=83, velocity=78, time=28),\n",
      "  Message('note_on', channel=0, note=83, velocity=0, time=20),\n",
      "  Message('note_on', channel=0, note=78, velocity=78, time=28),\n",
      "  Message('note_on', channel=0, note=78, velocity=0, time=119),\n",
      "  Message('note_on', channel=0, note=80, velocity=78, time=1),\n",
      "  Message('note_on', channel=0, note=80, velocity=0, time=23),\n",
      "  Message('note_on', channel=0, note=81, velocity=78, time=1),\n",
      "  Message('note_on', channel=0, note=81, velocity=0, time=23),\n",
      "  Message('note_on', channel=0, note=78, velocity=78, time=1),\n",
      "  Message('note_on', channel=0, note=78, velocity=0, time=23),\n",
      "  Message('note_on', channel=0, note=80, velocity=78, time=1),\n",
      "  Message('note_on', channel=0, note=80, velocity=0, time=23),\n",
      "  Message('note_on', channel=0, note=81, velocity=78, time=1),\n",
      "  Message('note_on', channel=0, note=81, velocity=0, time=23),\n",
      "  Message('note_on', channel=0, note=83, velocity=78, time=1),\n",
      "  Message('note_on', channel=0, note=83, velocity=0, time=23),\n",
      "  Message('note_on', channel=0, note=80, velocity=78, time=1),\n",
      "  Message('note_on', channel=0, note=80, velocity=0, time=23),\n",
      "  Message('note_on', channel=0, note=81, velocity=78, time=1),\n",
      "  Message('note_on', channel=0, note=81, velocity=0, time=10),\n",
      "  Message('note_on', channel=0, note=73, velocity=78, time=14),\n",
      "  Message('note_on', channel=0, note=73, velocity=0, time=23),\n",
      "  Message('note_on', channel=0, note=76, velocity=79, time=1),\n",
      "  Message('note_on', channel=0, note=76, velocity=0, time=23),\n",
      "  Message('note_on', channel=0, note=81, velocity=80, time=1),\n",
      "  Message('note_on', channel=0, note=81, velocity=0, time=23),\n",
      "  Message('note_on', channel=0, note=85, velocity=81, time=1),\n",
      "  Message('note_on', channel=0, note=85, velocity=0, time=23),\n",
      "  Message('note_on', channel=0, note=76, velocity=82, time=1),\n",
      "  Message('note_on', channel=0, note=76, velocity=0, time=23),\n",
      "  Message('note_on', channel=0, note=81, velocity=83, time=1),\n",
      "  Message('note_on', channel=0, note=81, velocity=0, time=23),\n",
      "  Message('note_on', channel=0, note=85, velocity=84, time=1),\n",
      "  Message('note_on', channel=0, note=85, velocity=0, time=23),\n",
      "  Message('note_on', channel=0, note=88, velocity=85, time=1),\n",
      "  Message('note_on', channel=0, note=88, velocity=0, time=20),\n",
      "  Message('note_on', channel=0, note=88, velocity=87, time=28),\n",
      "  Message('note_on', channel=0, note=88, velocity=0, time=20),\n",
      "  Message('note_on', channel=0, note=80, velocity=87, time=76),\n",
      "  Message('note_on', channel=0, note=76, velocity=87, time=0),\n",
      "  Message('note_on', channel=0, note=74, velocity=87, time=0),\n",
      "  Message('note_on', channel=0, note=71, velocity=87, time=0),\n",
      "  Message('note_on', channel=0, note=80, velocity=0, time=20),\n",
      "  Message('note_on', channel=0, note=76, velocity=0, time=0),\n",
      "  Message('note_on', channel=0, note=74, velocity=0, time=0),\n",
      "  Message('note_on', channel=0, note=71, velocity=0, time=0),\n",
      "  Message('note_on', channel=0, note=81, velocity=87, time=28),\n",
      "  Message('note_on', channel=0, note=76, velocity=87, time=0),\n",
      "  Message('note_on', channel=0, note=73, velocity=87, time=0),\n",
      "  Message('note_on', channel=0, note=81, velocity=0, time=89),\n",
      "  Message('note_on', channel=0, note=76, velocity=0, time=0),\n",
      "  Message('note_on', channel=0, note=73, velocity=0, time=0),\n",
      "  Message('note_on', channel=0, note=80, velocity=87, time=199),\n",
      "  Message('note_on', channel=0, note=76, velocity=87, time=0),\n",
      "  Message('note_on', channel=0, note=74, velocity=87, time=0),\n",
      "  Message('note_on', channel=0, note=71, velocity=87, time=0),\n",
      "  Message('note_on', channel=0, note=80, velocity=0, time=89),\n",
      "  Message('note_on', channel=0, note=76, velocity=0, time=0),\n",
      "  Message('note_on', channel=0, note=74, velocity=0, time=0),\n",
      "  Message('note_on', channel=0, note=71, velocity=0, time=0),\n",
      "  Message('note_on', channel=0, note=69, velocity=87, time=7),\n",
      "  Message('note_on', channel=0, note=73, velocity=87, time=6),\n",
      "  Message('note_on', channel=0, note=76, velocity=87, time=6),\n",
      "  Message('note_on', channel=0, note=81, velocity=87, time=6),\n",
      "  Message('note_on', channel=0, note=81, velocity=0, time=75),\n",
      "  Message('note_on', channel=0, note=76, velocity=0, time=0),\n",
      "  Message('note_on', channel=0, note=73, velocity=0, time=0),\n",
      "  Message('note_on', channel=0, note=69, velocity=0, time=0),\n",
      "  Message('note_on', channel=0, note=73, velocity=87, time=3),\n",
      "  Message('note_on', channel=0, note=76, velocity=87, time=6),\n",
      "  Message('note_on', channel=0, note=81, velocity=87, time=6),\n",
      "  Message('note_on', channel=0, note=85, velocity=87, time=6),\n",
      "  Message('note_on', channel=0, note=85, velocity=0, time=75),\n",
      "  Message('note_on', channel=0, note=81, velocity=0, time=0),\n",
      "  Message('note_on', channel=0, note=76, velocity=0, time=0),\n",
      "  Message('note_on', channel=0, note=73, velocity=0, time=0),\n",
      "  Message('note_on', channel=0, note=76, velocity=87, time=3),\n",
      "  Message('note_on', channel=0, note=81, velocity=87, time=6),\n",
      "  Message('note_on', channel=0, note=85, velocity=87, time=6),\n",
      "  Message('note_on', channel=0, note=88, velocity=87, time=6),\n",
      "  Message('note_on', channel=0, note=88, velocity=0, time=75),\n",
      "  Message('note_on', channel=0, note=85, velocity=0, time=0),\n",
      "  Message('note_on', channel=0, note=81, velocity=0, time=0),\n",
      "  Message('note_on', channel=0, note=76, velocity=0, time=0),\n",
      "  Message('note_on', channel=0, note=73, velocity=87, time=3),\n",
      "  Message('note_on', channel=0, note=76, velocity=87, time=6),\n",
      "  Message('note_on', channel=0, note=81, velocity=87, time=6),\n",
      "  Message('note_on', channel=0, note=85, velocity=87, time=6),\n",
      "  Message('note_on', channel=0, note=85, velocity=0, time=75),\n",
      "  Message('note_on', channel=0, note=81, velocity=0, time=0),\n",
      "  Message('note_on', channel=0, note=76, velocity=0, time=0),\n",
      "  Message('note_on', channel=0, note=73, velocity=0, time=0),\n",
      "  Message('note_on', channel=0, note=69, velocity=87, time=3),\n",
      "  Message('note_on', channel=0, note=73, velocity=87, time=6),\n",
      "  Message('note_on', channel=0, note=76, velocity=87, time=6),\n",
      "  Message('note_on', channel=0, note=81, velocity=87, time=6),\n",
      "  Message('note_on', channel=0, note=81, velocity=0, time=75),\n",
      "  Message('note_on', channel=0, note=76, velocity=0, time=0),\n",
      "  Message('note_on', channel=0, note=73, velocity=0, time=0),\n",
      "  Message('note_on', channel=0, note=69, velocity=0, time=0),\n",
      "  Message('note_on', channel=0, note=69, velocity=87, time=3),\n",
      "  Message('note_on', channel=0, note=69, velocity=0, time=67),\n",
      "  Message('note_on', channel=0, note=69, velocity=87, time=5),\n",
      "  Message('note_on', channel=0, note=69, velocity=0, time=23),\n",
      "  Message('note_on', channel=0, note=69, velocity=87, time=1),\n",
      "  Message('note_on', channel=0, note=69, velocity=0, time=89),\n",
      "  Message('note_on', channel=0, note=86, velocity=87, time=103),\n",
      "  Message('note_on', channel=0, note=81, velocity=87, time=0),\n",
      "  Message('note_on', channel=0, note=78, velocity=87, time=0),\n",
      "  Message('note_on', channel=0, note=74, velocity=87, time=0),\n",
      "  Message('note_on', channel=0, note=86, velocity=0, time=177),\n",
      "  Message('note_on', channel=0, note=81, velocity=0, time=0),\n",
      "  Message('note_on', channel=0, note=78, velocity=0, time=0),\n",
      "  Message('note_on', channel=0, note=74, velocity=0, time=0),\n",
      "  Message('note_on', channel=0, note=81, velocity=87, time=15),\n",
      "  Message('note_on', channel=0, note=81, velocity=0, time=177),\n",
      "  Message('note_on', channel=0, note=79, velocity=87, time=15),\n",
      "  Message('note_on', channel=0, note=79, velocity=0, time=18),\n",
      "  Message('note_on', channel=0, note=78, velocity=87, time=0),\n",
      "  Message('note_on', channel=0, note=78, velocity=0, time=18),\n",
      "  Message('note_on', channel=0, note=79, velocity=87, time=0),\n",
      "  Message('note_on', channel=0, note=79, velocity=0, time=18),\n",
      "  Message('note_on', channel=0, note=78, velocity=87, time=0),\n",
      "  Message('note_on', channel=0, note=78, velocity=0, time=18),\n",
      "  Message('note_on', channel=0, note=79, velocity=87, time=0),\n",
      "  Message('note_on', channel=0, note=79, velocity=0, time=18),\n",
      "  Message('note_on', channel=0, note=78, velocity=87, time=0),\n",
      "  Message('note_on', channel=0, note=78, velocity=0, time=18),\n",
      "  Message('note_on', channel=0, note=79, velocity=87, time=0),\n",
      "  Message('note_on', channel=0, note=79, velocity=0, time=18),\n",
      "  Message('note_on', channel=0, note=78, velocity=87, time=0),\n",
      "  Message('note_on', channel=0, note=78, velocity=0, time=7),\n",
      "  Message('note_on', channel=0, note=76, velocity=87, time=11),\n",
      "  Message('note_on', channel=0, note=76, velocity=0, time=23),\n",
      "  Message('note_on', channel=0, note=74, velocity=87, time=1),\n",
      "  Message('note_on', channel=0, note=74, velocity=0, time=23),\n",
      "  Message('note_on', channel=0, note=81, velocity=87, time=1),\n",
      "  Message('note_on', channel=0, note=81, velocity=0, time=89),\n",
      "  Message('note_on', channel=0, note=69, velocity=87, time=79),\n",
      "  Message('note_on', channel=0, note=69, velocity=0, time=8),\n",
      "  Message('note_on', channel=0, note=71, velocity=87, time=0),\n",
      "  Message('note_on', channel=0, note=71, velocity=0, time=8),\n",
      "  Message('note_on', channel=0, note=73, velocity=87, time=0),\n",
      "  Message('note_on', channel=0, note=73, velocity=0, time=8),\n",
      "  Message('note_on', channel=0, note=74, velocity=87, time=0),\n",
      "  Message('note_on', channel=0, note=74, velocity=0, time=89),\n",
      "  Message('note_on', channel=0, note=69, velocity=87, time=7),\n",
      "  Message('note_on', channel=0, note=69, velocity=0, time=67),\n",
      "  Message('note_on', channel=0, note=74, velocity=87, time=5),\n",
      "  Message('note_on', channel=0, note=74, velocity=0, time=23),\n",
      "  Message('note_on', channel=0, note=76, velocity=87, time=1),\n",
      "  Message('note_on', channel=0, note=76, velocity=0, time=89),\n",
      "  Message('note_on', channel=0, note=69, velocity=87, time=7),\n",
      "  Message('note_on', channel=0, note=69, velocity=0, time=67),\n",
      "  Message('note_on', channel=0, note=76, velocity=87, time=5),\n",
      "  Message('note_on', channel=0, note=76, velocity=0, time=23),\n",
      "  Message('note_on', channel=0, note=78, velocity=87, time=1),\n",
      "  Message('note_on', channel=0, note=78, velocity=0, time=89),\n",
      "  Message('note_on', channel=0, note=74, velocity=87, time=7),\n",
      "  Message('note_on', channel=0, note=74, velocity=0, time=67),\n",
      "  Message('note_on', channel=0, note=78, velocity=87, time=5),\n",
      "  Message('note_on', channel=0, note=78, velocity=0, time=23),\n",
      "  Message('note_on', channel=0, note=81, velocity=87, time=1),\n",
      "  Message('note_on', channel=0, note=81, velocity=0, time=89),\n",
      "  Message('note_on', channel=0, note=74, velocity=82, time=103),\n",
      "  Message('note_on', channel=0, note=66, velocity=82, time=0),\n",
      "  Message('note_on', channel=0, note=74, velocity=0, time=20),\n",
      "  Message('note_on', channel=0, note=66, velocity=0, time=0),\n",
      "  Message('note_on', channel=0, note=74, velocity=98, time=76),\n",
      "  Message('note_on', channel=0, note=66, velocity=98, time=0),\n",
      "  Message('note_on', channel=0, note=74, velocity=0, time=192),\n",
      "  Message('note_on', channel=0, note=66, velocity=0, time=0),\n",
      "  Message('note_on', channel=0, note=78, velocity=87, time=0),\n",
      "  Message('note_on', channel=0, note=69, velocity=87, time=0),\n",
      "  Message('note_on', channel=0, note=78, velocity=0, time=89),\n",
      "  Message('note_on', channel=0, note=69, velocity=0, time=0),\n",
      "  Message('note_on', channel=0, note=78, velocity=85, time=7),\n",
      "  Message('note_on', channel=0, note=78, velocity=0, time=45),\n",
      "  Message('note_on', channel=0, note=76, velocity=84, time=3),\n",
      "  Message('note_on', channel=0, note=76, velocity=0, time=45),\n",
      "  Message('note_on', channel=0, note=74, velocity=83, time=3),\n",
      "  Message('note_on', channel=0, note=74, velocity=0, time=89),\n",
      "  Message('note_on', channel=0, note=78, velocity=82, time=199),\n",
      "  Message('note_on', channel=0, note=74, velocity=82, time=0),\n",
      "  Message('note_on', channel=0, note=78, velocity=0, time=20),\n",
      "  Message('note_on', channel=0, note=74, velocity=0, time=0),\n",
      "  Message('note_on', channel=0, note=78, velocity=98, time=76),\n",
      "  Message('note_on', channel=0, note=74, velocity=98, time=0),\n",
      "  Message('note_on', channel=0, note=74, velocity=0, time=192),\n",
      "  Message('note_on', channel=0, note=81, velocity=87, time=0),\n",
      "  Message('note_on', channel=0, note=81, velocity=0, time=89),\n",
      "  Message('note_on', channel=0, note=78, velocity=0, time=0),\n",
      "  Message('note_on', channel=0, note=81, velocity=84, time=7),\n",
      "  Message('note_on', channel=0, note=78, velocity=84, time=0),\n",
      "  Message('note_on', channel=0, note=81, velocity=0, time=45),\n",
      "  Message('note_on', channel=0, note=78, velocity=0, time=0),\n",
      "  Message('note_on', channel=0, note=79, velocity=83, time=3),\n",
      "  Message('note_on', channel=0, note=76, velocity=83, time=0),\n",
      "  Message('note_on', channel=0, note=79, velocity=0, time=45),\n",
      "  Message('note_on', channel=0, note=76, velocity=0, time=0),\n",
      "  Message('note_on', channel=0, note=78, velocity=82, time=3),\n",
      "  Message('note_on', channel=0, note=74, velocity=82, time=0),\n",
      "  Message('note_on', channel=0, note=78, velocity=0, time=89),\n",
      "  Message('note_on', channel=0, note=74, velocity=0, time=0),\n",
      "  Message('note_on', channel=0, note=69, velocity=82, time=223),\n",
      "  Message('note_on', channel=0, note=69, velocity=0, time=23),\n",
      "  Message('note_on', channel=0, note=71, velocity=82, time=1),\n",
      "  Message('note_on', channel=0, note=71, velocity=0, time=23),\n",
      "  Message('note_on', channel=0, note=73, velocity=82, time=1),\n",
      "  Message('note_on', channel=0, note=73, velocity=0, time=23),\n",
      "  Message('note_on', channel=0, note=74, velocity=83, time=1),\n",
      "  Message('note_on', channel=0, note=74, velocity=0, time=23),\n",
      "  Message('note_on', channel=0, note=76, velocity=83, time=1),\n",
      "  Message('note_on', channel=0, note=76, velocity=0, time=23),\n",
      "  Message('note_on', channel=0, note=78, velocity=83, time=1),\n",
      "  Message('note_on', channel=0, note=78, velocity=0, time=23),\n",
      "  Message('note_on', channel=0, note=79, velocity=84, time=1),\n",
      "  Message('note_on', channel=0, note=79, velocity=0, time=23),\n",
      "  Message('note_on', channel=0, note=81, velocity=84, time=1),\n",
      "  Message('note_on', channel=0, note=81, velocity=0, time=23),\n",
      "  Message('note_on', channel=0, note=83, velocity=85, time=1),\n",
      "  Message('note_on', channel=0, note=83, velocity=0, time=23),\n",
      "  Message('note_on', channel=0, note=85, velocity=85, time=1),\n",
      "  Message('note_on', channel=0, note=85, velocity=0, time=23),\n",
      "  Message('note_on', channel=0, note=86, velocity=85, time=1),\n",
      "  Message('note_on', channel=0, note=86, velocity=0, time=23),\n",
      "  Message('note_on', channel=0, note=81, velocity=86, time=1),\n",
      "  Message('note_on', channel=0, note=81, velocity=0, time=45),\n",
      "  Message('note_on', channel=0, note=69, velocity=82, time=75),\n",
      "  Message('note_on', channel=0, note=69, velocity=0, time=23),\n",
      "  Message('note_on', channel=0, note=71, velocity=82, time=1),\n",
      "  Message('note_on', channel=0, note=71, velocity=0, time=23),\n",
      "  Message('note_on', channel=0, note=73, velocity=82, time=1),\n",
      "  Message('note_on', channel=0, note=73, velocity=0, time=23),\n",
      "  Message('note_on', channel=0, note=74, velocity=83, time=1),\n",
      "  Message('note_on', channel=0, note=74, velocity=0, time=23),\n",
      "  Message('note_on', channel=0, note=76, velocity=83, time=1),\n",
      "  Message('note_on', channel=0, note=76, velocity=0, time=23),\n",
      "  Message('note_on', channel=0, note=78, velocity=83, time=1),\n",
      "  Message('note_on', channel=0, note=78, velocity=0, time=23),\n",
      "  Message('note_on', channel=0, note=80, velocity=84, time=1),\n",
      "  Message('note_on', channel=0, note=80, velocity=0, time=23),\n",
      "  Message('note_on', channel=0, note=81, velocity=84, time=1),\n",
      "  Message('note_on', channel=0, note=81, velocity=0, time=23),\n",
      "  Message('note_on', channel=0, note=85, velocity=85, time=1),\n",
      "  Message('note_on', channel=0, note=85, velocity=0, time=23),\n",
      "  Message('note_on', channel=0, note=86, velocity=85, time=1),\n",
      "  Message('note_on', channel=0, note=86, velocity=0, time=23),\n",
      "  Message('note_on', channel=0, note=88, velocity=85, time=1),\n",
      "  Message('note_on', channel=0, note=88, velocity=0, time=23),\n",
      "  Message('note_on', channel=0, note=81, velocity=86, time=1),\n",
      "  Message('note_on', channel=0, note=81, velocity=0, time=45),\n",
      "  Message('note_on', channel=0, note=69, velocity=82, time=75),\n",
      "  Message('note_on', channel=0, note=69, velocity=0, time=23),\n",
      "  Message('note_on', channel=0, note=71, velocity=82, time=1),\n",
      "  Message('note_on', channel=0, note=71, velocity=0, time=23),\n",
      "  Message('note_on', channel=0, note=73, velocity=82, time=1),\n",
      "  Message('note_on', channel=0, note=73, velocity=0, time=23),\n",
      "  Message('note_on', channel=0, note=74, velocity=83, time=1),\n",
      "  Message('note_on', channel=0, note=74, velocity=0, time=23),\n",
      "  Message('note_on', channel=0, note=76, velocity=83, time=1),\n",
      "  Message('note_on', channel=0, note=76, velocity=0, time=23),\n",
      "  Message('note_on', channel=0, note=78, velocity=83, time=1),\n",
      "  Message('note_on', channel=0, note=78, velocity=0, time=23),\n",
      "  Message('note_on', channel=0, note=79, velocity=84, time=1),\n",
      "  Message('note_on', channel=0, note=79, velocity=0, time=23),\n",
      "  Message('note_on', channel=0, note=81, velocity=84, time=1),\n",
      "  Message('note_on', channel=0, note=81, velocity=0, time=23),\n",
      "  Message('note_on', channel=0, note=83, velocity=85, time=1),\n",
      "  Message('note_on', channel=0, note=83, velocity=0, time=23),\n",
      "  Message('note_on', channel=0, note=85, velocity=85, time=1),\n",
      "  Message('note_on', channel=0, note=85, velocity=0, time=23),\n",
      "  Message('note_on', channel=0, note=86, velocity=85, time=1),\n",
      "  Message('note_on', channel=0, note=86, velocity=0, time=23),\n",
      "  Message('note_on', channel=0, note=81, velocity=86, time=1),\n",
      "  Message('note_on', channel=0, note=81, velocity=0, time=45),\n",
      "  Message('note_on', channel=0, note=83, velocity=87, time=51),\n",
      "  Message('note_on', channel=0, note=83, velocity=0, time=23),\n",
      "  Message('note_on', channel=0, note=86, velocity=86, time=1),\n",
      "  Message('note_on', channel=0, note=86, velocity=0, time=23),\n",
      "  Message('note_on', channel=0, note=83, velocity=86, time=1),\n",
      "  Message('note_on', channel=0, note=83, velocity=0, time=23),\n",
      "  Message('note_on', channel=0, note=86, velocity=86, time=1),\n",
      "  Message('note_on', channel=0, note=86, velocity=0, time=23),\n",
      "  Message('note_on', channel=0, note=76, velocity=85, time=1),\n",
      "  Message('note_on', channel=0, note=76, velocity=0, time=23),\n",
      "  Message('note_on', channel=0, note=79, velocity=85, time=1),\n",
      "  Message('note_on', channel=0, note=79, velocity=0, time=23),\n",
      "  Message('note_on', channel=0, note=76, velocity=85, time=1),\n",
      "  Message('note_on', channel=0, note=76, velocity=0, time=23),\n",
      "  Message('note_on', channel=0, note=79, velocity=84, time=1),\n",
      "  Message('note_on', channel=0, note=79, velocity=0, time=23),\n",
      "  Message('note_on', channel=0, note=78, velocity=84, time=1),\n",
      "  Message('note_on', channel=0, note=78, velocity=0, time=23),\n",
      "  Message('note_on', channel=0, note=81, velocity=84, time=1),\n",
      "  Message('note_on', channel=0, note=81, velocity=0, time=23),\n",
      "  Message('note_on', channel=0, note=78, velocity=83, time=1),\n",
      "  Message('note_on', channel=0, note=78, velocity=0, time=23),\n",
      "  Message('note_on', channel=0, note=81, velocity=83, time=1),\n",
      "  Message('note_on', channel=0, note=81, velocity=0, time=23),\n",
      "  Message('note_on', channel=0, note=73, velocity=83, time=1),\n",
      "  Message('note_on', channel=0, note=73, velocity=0, time=23),\n",
      "  Message('note_on', channel=0, note=76, velocity=82, time=1),\n",
      "  Message('note_on', channel=0, note=76, velocity=0, time=23),\n",
      "  Message('note_on', channel=0, note=73, velocity=82, time=1),\n",
      "  Message('note_on', channel=0, note=73, velocity=0, time=23),\n",
      "  Message('note_on', channel=0, note=76, velocity=82, time=1),\n",
      "  Message('note_on', channel=0, note=76, velocity=0, time=23),\n",
      "  Message('note_on', channel=0, note=74, velocity=82, time=1),\n",
      "  Message('note_on', channel=0, note=74, velocity=0, time=89),\n",
      "  Message('note_on', channel=0, note=81, velocity=82, time=199),\n",
      "  Message('note_on', channel=0, note=81, velocity=0, time=23),\n",
      "  Message('note_on', channel=0, note=83, velocity=82, time=1),\n",
      "  Message('note_on', channel=0, note=83, velocity=0, time=23),\n",
      "  Message('note_on', channel=0, note=85, velocity=82, time=1),\n",
      "  Message('note_on', channel=0, note=85, velocity=0, time=23),\n",
      "  Message('note_on', channel=0, note=86, velocity=82, time=1),\n",
      "  Message('note_on', channel=0, note=86, velocity=0, time=23),\n",
      "  Message('note_on', channel=0, note=81, velocity=82, time=1),\n",
      "  Message('note_on', channel=0, note=81, velocity=0, time=89),\n",
      "  Message('note_on', channel=0, note=81, velocity=82, time=199),\n",
      "  Message('note_on', channel=0, note=81, velocity=0, time=23),\n",
      "  Message('note_on', channel=0, note=85, velocity=82, time=1),\n",
      "  Message('note_on', channel=0, note=85, velocity=0, time=23),\n",
      "  Message('note_on', channel=0, note=86, velocity=82, time=1),\n",
      "  Message('note_on', channel=0, note=86, velocity=0, time=23),\n",
      "  Message('note_on', channel=0, note=88, velocity=82, time=1),\n",
      "  Message('note_on', channel=0, note=88, velocity=0, time=23),\n",
      "  Message('note_on', channel=0, note=81, velocity=82, time=1),\n",
      "  Message('note_on', channel=0, note=81, velocity=0, time=89),\n",
      "  Message('note_on', channel=0, note=81, velocity=82, time=199),\n",
      "  Message('note_on', channel=0, note=81, velocity=0, time=23),\n",
      "  Message('note_on', channel=0, note=83, velocity=83, time=1),\n",
      "  Message('note_on', channel=0, note=83, velocity=0, time=23),\n",
      "  Message('note_on', channel=0, note=85, velocity=84, time=1),\n",
      "  Message('note_on', channel=0, note=85, velocity=0, time=23),\n",
      "  Message('note_on', channel=0, note=86, velocity=85, time=1),\n",
      "  Message('note_on', channel=0, note=86, velocity=0, time=23),\n",
      "  Message('note_on', channel=0, note=83, velocity=87, time=1),\n",
      "  Message('note_on', channel=0, note=83, velocity=0, time=23),\n",
      "  Message('note_on', channel=0, note=86, velocity=86, time=1),\n",
      "  Message('note_on', channel=0, note=86, velocity=0, time=23),\n",
      "  Message('note_on', channel=0, note=83, velocity=86, time=1),\n",
      "  Message('note_on', channel=0, note=83, velocity=0, time=23),\n",
      "  Message('note_on', channel=0, note=86, velocity=86, time=1),\n",
      "  Message('note_on', channel=0, note=86, velocity=0, time=23),\n",
      "  Message('note_on', channel=0, note=76, velocity=85, time=1),\n",
      "  Message('note_on', channel=0, note=76, velocity=0, time=23),\n",
      "  Message('note_on', channel=0, note=79, velocity=85, time=1),\n",
      "  Message('note_on', channel=0, note=79, velocity=0, time=23),\n",
      "  Message('note_on', channel=0, note=76, velocity=85, time=1),\n",
      "  Message('note_on', channel=0, note=76, velocity=0, time=23),\n",
      "  Message('note_on', channel=0, note=79, velocity=84, time=1),\n",
      "  Message('note_on', channel=0, note=79, velocity=0, time=23),\n",
      "  Message('note_on', channel=0, note=78, velocity=84, time=1),\n",
      "  Message('note_on', channel=0, note=78, velocity=0, time=23),\n",
      "  Message('note_on', channel=0, note=81, velocity=84, time=1),\n",
      "  Message('note_on', channel=0, note=81, velocity=0, time=23),\n",
      "  Message('note_on', channel=0, note=78, velocity=83, time=1),\n",
      "  Message('note_on', channel=0, note=78, velocity=0, time=23),\n",
      "  Message('note_on', channel=0, note=81, velocity=83, time=1),\n",
      "  Message('note_on', channel=0, note=81, velocity=0, time=23),\n",
      "  Message('note_on', channel=0, note=73, velocity=83, time=1),\n",
      "  Message('note_on', channel=0, note=73, velocity=0, time=23),\n",
      "  Message('note_on', channel=0, note=76, velocity=82, time=1),\n",
      "  Message('note_on', channel=0, note=76, velocity=0, time=23),\n",
      "  Message('note_on', channel=0, note=73, velocity=82, time=1),\n",
      "  Message('note_on', channel=0, note=73, velocity=0, time=23),\n",
      "  Message('note_on', channel=0, note=76, velocity=82, time=1),\n",
      "  Message('note_on', channel=0, note=76, velocity=0, time=23),\n",
      "  Message('note_on', channel=0, note=74, velocity=82, time=1),\n",
      "  Message('note_on', channel=0, note=74, velocity=0, time=89),\n",
      "  Message('note_on', channel=0, note=86, velocity=87, time=7),\n",
      "  Message('note_on', channel=0, note=86, velocity=0, time=23),\n",
      "  Message('note_on', channel=0, note=81, velocity=87, time=1),\n",
      "  Message('note_on', channel=0, note=81, velocity=0, time=23),\n",
      "  Message('note_on', channel=0, note=78, velocity=87, time=1),\n",
      "  Message('note_on', channel=0, note=78, velocity=0, time=23),\n",
      "  Message('note_on', channel=0, note=74, velocity=87, time=1),\n",
      "  Message('note_on', channel=0, note=74, velocity=0, time=23),\n",
      "  Message('note_on', channel=0, note=81, velocity=87, time=1),\n",
      "  Message('note_on', channel=0, note=81, velocity=0, time=23),\n",
      "  Message('note_on', channel=0, note=78, velocity=87, time=1),\n",
      "  Message('note_on', channel=0, note=78, velocity=0, time=23),\n",
      "  Message('note_on', channel=0, note=74, velocity=87, time=1),\n",
      "  Message('note_on', channel=0, note=74, velocity=0, time=23),\n",
      "  Message('note_on', channel=0, note=69, velocity=87, time=1),\n",
      "  Message('note_on', channel=0, note=69, velocity=0, time=23),\n",
      "  Message('note_on', channel=0, note=78, velocity=87, time=1),\n",
      "  Message('note_on', channel=0, note=78, velocity=0, time=23),\n",
      "  Message('note_on', channel=0, note=74, velocity=87, time=1),\n",
      "  Message('note_on', channel=0, note=74, velocity=0, time=23),\n",
      "  Message('note_on', channel=0, note=69, velocity=87, time=1),\n",
      "  Message('note_on', channel=0, note=69, velocity=0, time=23),\n",
      "  Message('note_on', channel=0, note=66, velocity=87, time=1),\n",
      "  Message('note_on', channel=0, note=66, velocity=0, time=23),\n",
      "  Message('note_on', channel=0, note=74, velocity=87, time=1),\n",
      "  Message('note_on', channel=0, note=74, velocity=0, time=23),\n",
      "  Message('note_on', channel=0, note=69, velocity=87, time=1),\n",
      "  Message('note_on', channel=0, note=69, velocity=0, time=23),\n",
      "  Message('note_on', channel=0, note=66, velocity=87, time=1),\n",
      "  Message('note_on', channel=0, note=66, velocity=0, time=23),\n",
      "  Message('note_on', channel=0, note=62, velocity=87, time=1),\n",
      "  Message('note_on', channel=0, note=62, velocity=0, time=23),\n",
      "  Message('note_on', channel=0, note=61, velocity=87, time=1),\n",
      "  Message('note_on', channel=0, note=61, velocity=0, time=23),\n",
      "  Message('note_on', channel=0, note=62, velocity=87, time=1),\n",
      "  Message('note_on', channel=0, note=62, velocity=0, time=23),\n",
      "  Message('note_on', channel=0, note=61, velocity=87, time=1),\n",
      "  Message('note_on', channel=0, note=61, velocity=0, time=23),\n",
      "  Message('note_on', channel=0, note=62, velocity=87, time=1),\n",
      "  Message('note_on', channel=0, note=62, velocity=0, time=23),\n",
      "  Message('note_on', channel=0, note=61, velocity=87, time=1),\n",
      "  Message('note_on', channel=0, note=61, velocity=0, time=23),\n",
      "  Message('note_on', channel=0, note=62, velocity=87, time=1),\n",
      "  Message('note_on', channel=0, note=62, velocity=0, time=23),\n",
      "  Message('note_on', channel=0, note=61, velocity=87, time=1),\n",
      "  Message('note_on', channel=0, note=61, velocity=0, time=23),\n",
      "  Message('note_on', channel=0, note=62, velocity=87, time=1),\n",
      "  Message('note_on', channel=0, note=62, velocity=0, time=23),\n",
      "  Message('note_on', channel=0, note=61, velocity=87, time=1),\n",
      "  Message('note_on', channel=0, note=61, velocity=0, time=23),\n",
      "  Message('note_on', channel=0, note=62, velocity=87, time=1),\n",
      "  Message('note_on', channel=0, note=62, velocity=0, time=23),\n",
      "  Message('note_on', channel=0, note=61, velocity=87, time=1),\n",
      "  Message('note_on', channel=0, note=61, velocity=0, time=23),\n",
      "  Message('note_on', channel=0, note=62, velocity=87, time=1),\n",
      "  Message('note_on', channel=0, note=62, velocity=0, time=23),\n",
      "  Message('note_on', channel=0, note=59, velocity=87, time=1),\n",
      "  Message('note_on', channel=0, note=59, velocity=0, time=45),\n",
      "  Message('note_on', channel=0, note=83, velocity=87, time=51),\n",
      "  Message('note_on', channel=0, note=83, velocity=0, time=23),\n",
      "  Message('note_on', channel=0, note=78, velocity=87, time=1),\n",
      "  Message('note_on', channel=0, note=78, velocity=0, time=23),\n",
      "  Message('note_on', channel=0, note=74, velocity=87, time=1),\n",
      "  Message('note_on', channel=0, note=74, velocity=0, time=23),\n",
      "  Message('note_on', channel=0, note=71, velocity=87, time=1),\n",
      "  Message('note_on', channel=0, note=71, velocity=0, time=23),\n",
      "  Message('note_on', channel=0, note=78, velocity=87, time=1),\n",
      "  Message('note_on', channel=0, note=78, velocity=0, time=23),\n",
      "  Message('note_on', channel=0, note=74, velocity=87, time=1),\n",
      "  Message('note_on', channel=0, note=74, velocity=0, time=23),\n",
      "  Message('note_on', channel=0, note=71, velocity=87, time=1),\n",
      "  Message('note_on', channel=0, note=71, velocity=0, time=23),\n",
      "  Message('note_on', channel=0, note=66, velocity=87, time=1),\n",
      "  Message('note_on', channel=0, note=66, velocity=0, time=23),\n",
      "  Message('note_on', channel=0, note=74, velocity=87, time=1),\n",
      "  Message('note_on', channel=0, note=74, velocity=0, time=23),\n",
      "  Message('note_on', channel=0, note=71, velocity=87, time=1),\n",
      "  Message('note_on', channel=0, note=71, velocity=0, time=23),\n",
      "  Message('note_on', channel=0, note=66, velocity=87, time=1),\n",
      "  Message('note_on', channel=0, note=66, velocity=0, time=23),\n",
      "  Message('note_on', channel=0, note=62, velocity=87, time=1),\n",
      "  Message('note_on', channel=0, note=62, velocity=0, time=23),\n",
      "  Message('note_on', channel=0, note=71, velocity=87, time=1),\n",
      "  Message('note_on', channel=0, note=71, velocity=0, time=23),\n",
      "  Message('note_on', channel=0, note=66, velocity=87, time=1),\n",
      "  Message('note_on', channel=0, note=66, velocity=0, time=23),\n",
      "  Message('note_on', channel=0, note=62, velocity=87, time=1),\n",
      "  Message('note_on', channel=0, note=62, velocity=0, time=23),\n",
      "  Message('note_on', channel=0, note=59, velocity=87, time=1),\n",
      "  Message('note_on', channel=0, note=59, velocity=0, time=23),\n",
      "  Message('note_on', channel=0, note=58, velocity=87, time=1),\n",
      "  Message('note_on', channel=0, note=58, velocity=0, time=23),\n",
      "  Message('note_on', channel=0, note=59, velocity=87, time=1),\n",
      "  Message('note_on', channel=0, note=59, velocity=0, time=23),\n",
      "  Message('note_on', channel=0, note=58, velocity=87, time=1),\n",
      "  Message('note_on', channel=0, note=58, velocity=0, time=23),\n",
      "  Message('note_on', channel=0, note=59, velocity=87, time=1),\n",
      "  Message('note_on', channel=0, note=59, velocity=0, time=23),\n",
      "  Message('note_on', channel=0, note=58, velocity=87, time=1),\n",
      "  Message('note_on', channel=0, note=58, velocity=0, time=23),\n",
      "  Message('note_on', channel=0, note=59, velocity=87, time=1),\n",
      "  Message('note_on', channel=0, note=59, velocity=0, time=23),\n",
      "  Message('note_on', channel=0, note=58, velocity=87, time=1),\n",
      "  Message('note_on', channel=0, note=58, velocity=0, time=23),\n",
      "  Message('note_on', channel=0, note=59, velocity=87, time=1),\n",
      "  Message('note_on', channel=0, note=59, velocity=0, time=23),\n",
      "  Message('note_on', channel=0, note=58, velocity=87, time=1),\n",
      "  Message('note_on', channel=0, note=58, velocity=0, time=23),\n",
      "  Message('note_on', channel=0, note=59, velocity=87, time=1),\n",
      "  Message('note_on', channel=0, note=59, velocity=0, time=23),\n",
      "  Message('note_on', channel=0, note=58, velocity=87, time=1),\n",
      "  Message('note_on', channel=0, note=58, velocity=0, time=23),\n",
      "  Message('note_on', channel=0, note=59, velocity=87, time=1),\n",
      "  Message('note_on', channel=0, note=59, velocity=0, time=23),\n",
      "  Message('note_on', channel=0, note=55, velocity=87, time=1),\n",
      "  Message('note_on', channel=0, note=55, velocity=0, time=45),\n",
      "  Message('note_on', channel=0, note=79, velocity=87, time=51),\n",
      "  Message('note_on', channel=0, note=79, velocity=0, time=23),\n",
      "  Message('note_on', channel=0, note=74, velocity=87, time=1),\n",
      "  Message('note_on', channel=0, note=74, velocity=0, time=23),\n",
      "  Message('note_on', channel=0, note=71, velocity=87, time=1),\n",
      "  Message('note_on', channel=0, note=71, velocity=0, time=23),\n",
      "  Message('note_on', channel=0, note=67, velocity=87, time=1),\n",
      "  Message('note_on', channel=0, note=67, velocity=0, time=23),\n",
      "  Message('note_on', channel=0, note=74, velocity=87, time=1),\n",
      "  Message('note_on', channel=0, note=74, velocity=0, time=23),\n",
      "  Message('note_on', channel=0, note=71, velocity=87, time=1),\n",
      "  Message('note_on', channel=0, note=71, velocity=0, time=23),\n",
      "  Message('note_on', channel=0, note=67, velocity=87, time=1),\n",
      "  Message('note_on', channel=0, note=67, velocity=0, time=23),\n",
      "  Message('note_on', channel=0, note=62, velocity=87, time=1),\n",
      "  Message('note_on', channel=0, note=62, velocity=0, time=23),\n",
      "  Message('note_on', channel=0, note=71, velocity=87, time=1),\n",
      "  Message('note_on', channel=0, note=71, velocity=0, time=23),\n",
      "  Message('note_on', channel=0, note=67, velocity=87, time=1),\n",
      "  Message('note_on', channel=0, note=67, velocity=0, time=23),\n",
      "  Message('note_on', channel=0, note=62, velocity=87, time=1),\n",
      "  Message('note_on', channel=0, note=62, velocity=0, time=23),\n",
      "  Message('note_on', channel=0, note=59, velocity=87, time=1),\n",
      "  Message('note_on', channel=0, note=59, velocity=0, time=23),\n",
      "  Message('note_on', channel=0, note=67, velocity=87, time=1),\n",
      "  Message('note_on', channel=0, note=67, velocity=0, time=23),\n",
      "  Message('note_on', channel=0, note=62, velocity=87, time=1),\n",
      "  Message('note_on', channel=0, note=62, velocity=0, time=23),\n",
      "  Message('note_on', channel=0, note=59, velocity=87, time=1),\n",
      "  Message('note_on', channel=0, note=59, velocity=0, time=23),\n",
      "  Message('note_on', channel=0, note=55, velocity=87, time=1),\n",
      "  Message('note_on', channel=0, note=55, velocity=0, time=23),\n",
      "  Message('note_on', channel=0, note=54, velocity=87, time=1),\n",
      "  Message('note_on', channel=0, note=54, velocity=0, time=23),\n",
      "  Message('note_on', channel=0, note=55, velocity=87, time=1),\n",
      "  Message('note_on', channel=0, note=55, velocity=0, time=23),\n",
      "  Message('note_on', channel=0, note=54, velocity=87, time=1),\n",
      "  Message('note_on', channel=0, note=54, velocity=0, time=23),\n",
      "  Message('note_on', channel=0, note=55, velocity=87, time=1),\n",
      "  Message('note_on', channel=0, note=55, velocity=0, time=23),\n",
      "  Message('note_on', channel=0, note=54, velocity=87, time=1),\n",
      "  Message('note_on', channel=0, note=54, velocity=0, time=23),\n",
      "  Message('note_on', channel=0, note=55, velocity=87, time=1),\n",
      "  Message('note_on', channel=0, note=55, velocity=0, time=23),\n",
      "  Message('note_on', channel=0, note=54, velocity=87, time=1),\n",
      "  Message('note_on', channel=0, note=54, velocity=0, time=23),\n",
      "  Message('note_on', channel=0, note=55, velocity=87, time=1),\n",
      "  Message('note_on', channel=0, note=55, velocity=0, time=23),\n",
      "  Message('note_on', channel=0, note=54, velocity=87, time=1),\n",
      "  Message('note_on', channel=0, note=54, velocity=0, time=23),\n",
      "  Message('note_on', channel=0, note=55, velocity=87, time=1),\n",
      "  Message('note_on', channel=0, note=55, velocity=0, time=23),\n",
      "  Message('note_on', channel=0, note=54, velocity=87, time=1),\n",
      "  Message('note_on', channel=0, note=54, velocity=0, time=23),\n",
      "  Message('note_on', channel=0, note=55, velocity=87, time=1),\n",
      "  Message('note_on', channel=0, note=55, velocity=0, time=23),\n",
      "  Message('note_on', channel=0, note=56, velocity=87, time=1),\n",
      "  Message('note_on', channel=0, note=56, velocity=0, time=45),\n",
      "  Message('note_on', channel=0, note=57, velocity=87, time=3),\n",
      "  Message('note_on', channel=0, note=57, velocity=0, time=23),\n",
      "  Message('note_on', channel=0, note=59, velocity=87, time=1),\n",
      "  Message('note_on', channel=0, note=59, velocity=0, time=23),\n",
      "  Message('note_on', channel=0, note=61, velocity=87, time=1),\n",
      "  Message('note_on', channel=0, note=61, velocity=0, time=23),\n",
      "  Message('note_on', channel=0, note=62, velocity=87, time=1),\n",
      "  Message('note_on', channel=0, note=62, velocity=0, time=23),\n",
      "  Message('note_on', channel=0, note=64, velocity=87, time=1),\n",
      "  Message('note_on', channel=0, note=64, velocity=0, time=23),\n",
      "  Message('note_on', channel=0, note=66, velocity=87, time=1),\n",
      "  Message('note_on', channel=0, note=66, velocity=0, time=23),\n",
      "  Message('note_on', channel=0, note=68, velocity=87, time=1),\n",
      "  Message('note_on', channel=0, note=68, velocity=0, time=23),\n",
      "  Message('note_on', channel=0, note=69, velocity=87, time=1),\n",
      "  Message('note_on', channel=0, note=69, velocity=0, time=23),\n",
      "  Message('note_on', channel=0, note=71, velocity=87, time=1),\n",
      "  Message('note_on', channel=0, note=71, velocity=0, time=23),\n",
      "  Message('note_on', channel=0, note=73, velocity=87, time=1),\n",
      "  Message('note_on', channel=0, note=73, velocity=0, time=23),\n",
      "  Message('note_on', channel=0, note=74, velocity=87, time=1),\n",
      "  Message('note_on', channel=0, note=74, velocity=0, time=23),\n",
      "  Message('note_on', channel=0, note=76, velocity=87, time=1),\n",
      "  Message('note_on', channel=0, note=76, velocity=0, time=23),\n",
      "  Message('note_on', channel=0, note=78, velocity=87, time=1),\n",
      "  Message('note_on', channel=0, note=78, velocity=0, time=23),\n",
      "  Message('note_on', channel=0, note=80, velocity=87, time=1),\n",
      "  Message('note_on', channel=0, note=80, velocity=0, time=23),\n",
      "  Message('note_on', channel=0, note=81, velocity=87, time=1),\n",
      "  Message('note_on', channel=0, note=81, velocity=0, time=89),\n",
      "  Message('note_on', channel=0, note=75, velocity=87, time=103),\n",
      "  Message('note_on', channel=0, note=69, velocity=87, time=0),\n",
      "  Message('note_on', channel=0, note=66, velocity=87, time=0),\n",
      "  Message('note_on', channel=0, note=75, velocity=0, time=89),\n",
      "  Message('note_on', channel=0, note=69, velocity=0, time=0),\n",
      "  Message('note_on', channel=0, note=66, velocity=0, time=0),\n",
      "  Message('note_on', channel=0, note=76, velocity=87, time=103),\n",
      "  Message('note_on', channel=0, note=71, velocity=87, time=0),\n",
      "  Message('note_on', channel=0, note=68, velocity=87, time=0),\n",
      "  Message('note_on', channel=0, note=76, velocity=0, time=89),\n",
      "  Message('note_on', channel=0, note=71, velocity=0, time=0),\n",
      "  Message('note_on', channel=0, note=68, velocity=0, time=0),\n",
      "  Message('note_on', channel=0, note=63, velocity=87, time=103),\n",
      "  Message('note_on', channel=0, note=63, velocity=0, time=12),\n",
      "  Message('note_on', channel=0, note=64, velocity=87, time=0),\n",
      "  Message('note_on', channel=0, note=64, velocity=0, time=165),\n",
      "  Message('note_on', channel=0, note=63, velocity=87, time=15),\n",
      "  Message('note_on', channel=0, note=63, velocity=0, time=12),\n",
      "  Message('note_on', channel=0, note=64, velocity=87, time=0),\n",
      "  Message('note_on', channel=0, note=64, velocity=0, time=165),\n",
      "  Message('note_on', channel=0, note=63, velocity=87, time=15),\n",
      "  Message('note_on', channel=0, note=63, velocity=0, time=12),\n",
      "  Message('note_on', channel=0, note=64, velocity=87, time=0),\n",
      "  Message('note_on', channel=0, note=64, velocity=0, time=165),\n",
      "  Message('note_on', channel=0, note=63, velocity=87, time=15),\n",
      "  Message('note_on', channel=0, note=63, velocity=0, time=12),\n",
      "  Message('note_on', channel=0, note=64, velocity=87, time=0),\n",
      "  Message('note_on', channel=0, note=64, velocity=0, time=165),\n",
      "  Message('note_on', channel=0, note=63, velocity=87, time=15),\n",
      "  Message('note_on', channel=0, note=63, velocity=0, time=12),\n",
      "  Message('note_on', channel=0, note=64, velocity=87, time=0),\n",
      "  Message('note_on', channel=0, note=64, velocity=0, time=165),\n",
      "  Message('note_on', channel=0, note=63, velocity=87, time=15),\n",
      "  Message('note_on', channel=0, note=63, velocity=0, time=12),\n",
      "  Message('note_on', channel=0, note=64, velocity=87, time=0),\n",
      "  Message('note_on', channel=0, note=64, velocity=0, time=165),\n",
      "  Message('note_on', channel=0, note=63, velocity=87, time=15),\n",
      "  Message('note_on', channel=0, note=63, velocity=0, time=12),\n",
      "  Message('note_on', channel=0, note=64, velocity=87, time=0),\n",
      "  Message('note_on', channel=0, note=64, velocity=0, time=165),\n",
      "  Message('note_on', channel=0, note=63, velocity=87, time=15),\n",
      "  Message('note_on', channel=0, note=63, velocity=0, time=12),\n",
      "  Message('note_on', channel=0, note=64, velocity=87, time=0),\n",
      "  Message('note_on', channel=0, note=64, velocity=0, time=165),\n",
      "  Message('note_on', channel=0, note=63, velocity=87, time=15),\n",
      "  Message('note_on', channel=0, note=63, velocity=0, time=12),\n",
      "  Message('note_on', channel=0, note=64, velocity=87, time=0),\n",
      "  Message('note_on', channel=0, note=64, velocity=0, time=165),\n",
      "  Message('note_on', channel=0, note=68, velocity=87, time=15),\n",
      "  Message('note_on', channel=0, note=68, velocity=0, time=23),\n",
      "  Message('note_on', channel=0, note=71, velocity=87, time=1),\n",
      "  Message('note_on', channel=0, note=71, velocity=0, time=23),\n",
      "  Message('note_on', channel=0, note=76, velocity=87, time=1),\n",
      "  Message('note_on', channel=0, note=76, velocity=0, time=23),\n",
      "  Message('note_on', channel=0, note=80, velocity=87, time=1),\n",
      "  Message('note_on', channel=0, note=80, velocity=0, time=23),\n",
      "  Message('note_on', channel=0, note=66, velocity=87, time=1),\n",
      "  Message('note_on', channel=0, note=66, velocity=0, time=23),\n",
      "  Message('note_on', channel=0, note=71, velocity=87, time=1),\n",
      "  Message('note_on', channel=0, note=71, velocity=0, time=23),\n",
      "  Message('note_on', channel=0, note=74, velocity=87, time=1),\n",
      "  Message('note_on', channel=0, note=74, velocity=0, time=23),\n",
      "  Message('note_on', channel=0, note=78, velocity=87, time=1),\n",
      "  Message('note_on', channel=0, note=78, velocity=0, time=23),\n",
      "  Message('note_on', channel=0, note=64, velocity=87, time=1),\n",
      "  Message('note_on', channel=0, note=64, velocity=0, time=23),\n",
      "  Message('note_on', channel=0, note=69, velocity=87, time=1),\n",
      "  Message('note_on', channel=0, note=69, velocity=0, time=23),\n",
      "  Message('note_on', channel=0, note=73, velocity=87, time=1),\n",
      "  Message('note_on', channel=0, note=73, velocity=0, time=23),\n",
      "  Message('note_on', channel=0, note=76, velocity=87, time=1),\n",
      "  Message('note_on', channel=0, note=76, velocity=0, time=23),\n",
      "  Message('note_on', channel=0, note=62, velocity=87, time=1),\n",
      "  Message('note_on', channel=0, note=62, velocity=0, time=23),\n",
      "  Message('note_on', channel=0, note=68, velocity=87, time=1),\n",
      "  Message('note_on', channel=0, note=68, velocity=0, time=23),\n",
      "  Message('note_on', channel=0, note=71, velocity=87, time=1),\n",
      "  Message('note_on', channel=0, note=71, velocity=0, time=23),\n",
      "  Message('note_on', channel=0, note=74, velocity=87, time=1),\n",
      "  Message('note_on', channel=0, note=74, velocity=0, time=23),\n",
      "  Message('note_on', channel=0, note=73, velocity=87, time=1),\n",
      "  Message('note_on', channel=0, note=73, velocity=0, time=45),\n",
      "  Message('note_on', channel=0, note=83, velocity=87, time=51),\n",
      "  Message('note_on', channel=0, note=83, velocity=0, time=23),\n",
      "  Message('note_on', channel=0, note=81, velocity=87, time=1),\n",
      "  Message('note_on', channel=0, note=81, velocity=0, time=23),\n",
      "  Message('note_on', channel=0, note=80, velocity=87, time=1),\n",
      "  Message('note_on', channel=0, note=80, velocity=0, time=23),\n",
      "  Message('note_on', channel=0, note=81, velocity=87, time=1),\n",
      "  Message('note_on', channel=0, note=81, velocity=0, time=23),\n",
      "  Message('note_on', channel=0, note=80, velocity=87, time=1),\n",
      "  Message('note_on', channel=0, note=80, velocity=0, time=23),\n",
      "  Message('note_on', channel=0, note=78, velocity=87, time=1),\n",
      "  Message('note_on', channel=0, note=78, velocity=0, time=23),\n",
      "  Message('note_on', channel=0, note=77, velocity=87, time=1),\n",
      "  Message('note_on', channel=0, note=77, velocity=0, time=23),\n",
      "  Message('note_on', channel=0, note=78, velocity=87, time=1),\n",
      "  Message('note_on', channel=0, note=78, velocity=0, time=23),\n",
      "  Message('note_on', channel=0, note=76, velocity=87, time=1),\n",
      "  Message('note_on', channel=0, note=76, velocity=0, time=23),\n",
      "  Message('note_on', channel=0, note=74, velocity=87, time=1),\n",
      "  Message('note_on', channel=0, note=74, velocity=0, time=23),\n",
      "  Message('note_on', channel=0, note=73, velocity=87, time=1),\n",
      "  Message('note_on', channel=0, note=73, velocity=0, time=23),\n",
      "  Message('note_on', channel=0, note=74, velocity=87, time=1),\n",
      "  Message('note_on', channel=0, note=74, velocity=0, time=23),\n",
      "  Message('note_on', channel=0, note=73, velocity=87, time=1),\n",
      "  Message('note_on', channel=0, note=73, velocity=0, time=45),\n",
      "  Message('note_on', channel=0, note=76, velocity=87, time=3),\n",
      "  Message('note_on', channel=0, note=76, velocity=0, time=23),\n",
      "  Message('note_on', channel=0, note=73, velocity=87, time=1),\n",
      "  Message('note_on', channel=0, note=73, velocity=0, time=23),\n",
      "  Message('note_on', channel=0, note=81, velocity=87, time=1),\n",
      "  Message('note_on', channel=0, note=81, velocity=0, time=20),\n",
      "  Message('note_on', channel=0, note=81, velocity=87, time=28),\n",
      "  Message('note_on', channel=0, note=81, velocity=0, time=20),\n",
      "  Message('note_on', channel=0, note=71, velocity=87, time=28),\n",
      "  Message('note_on', channel=0, note=71, velocity=0, time=20),\n",
      "  Message('note_on', channel=0, note=74, velocity=87, time=28),\n",
      "  Message('note_on', channel=0, note=74, velocity=0, time=23),\n",
      "  Message('note_on', channel=0, note=71, velocity=87, time=1),\n",
      "  Message('note_on', channel=0, note=71, velocity=0, time=23),\n",
      "  Message('note_on', channel=0, note=80, velocity=87, time=1),\n",
      "  Message('note_on', channel=0, note=80, velocity=0, time=20),\n",
      "  Message('note_on', channel=0, note=80, velocity=87, time=28),\n",
      "  Message('note_on', channel=0, note=80, velocity=0, time=20),\n",
      "  Message('note_on', channel=0, note=81, velocity=87, time=28),\n",
      "  Message('note_on', channel=0, note=81, velocity=0, time=23),\n",
      "  Message('note_on', channel=0, note=76, velocity=87, time=1),\n",
      "  Message('note_on', channel=0, note=76, velocity=0, time=23),\n",
      "  Message('note_on', channel=0, note=73, velocity=87, time=1),\n",
      "  Message('note_on', channel=0, note=73, velocity=0, time=23),\n",
      "  Message('note_on', channel=0, note=76, velocity=87, time=1),\n",
      "  Message('note_on', channel=0, note=76, velocity=0, time=23),\n",
      "  Message('note_on', channel=0, note=81, velocity=87, time=1),\n",
      "  Message('note_on', channel=0, note=81, velocity=0, time=20),\n",
      "  Message('note_on', channel=0, note=85, velocity=87, time=28),\n",
      "  Message('note_on', channel=0, note=85, velocity=0, time=20),\n",
      "  Message('note_on', channel=0, note=73, velocity=87, time=28),\n",
      "  Message('note_on', channel=0, note=76, velocity=87, time=8),\n",
      "  Message('note_on', channel=0, note=81, velocity=87, time=8),\n",
      "  Message('note_on', channel=0, note=81, velocity=0, time=77),\n",
      "  Message('note_on', channel=0, note=76, velocity=0, time=0),\n",
      "  Message('note_on', channel=0, note=73, velocity=0, time=0),\n",
      "  Message('note_on', channel=0, note=75, velocity=73, time=771),\n",
      "  Message('note_on', channel=0, note=75, velocity=0, time=12),\n",
      "  Message('note_on', channel=0, note=76, velocity=73, time=0),\n",
      "  Message('note_on', channel=0, note=76, velocity=0, time=77),\n",
      "  Message('note_on', channel=0, note=75, velocity=73, time=679),\n",
      "  Message('note_on', channel=0, note=75, velocity=0, time=12),\n",
      "  Message('note_on', channel=0, note=76, velocity=73, time=0),\n",
      "  Message('note_on', channel=0, note=76, velocity=0, time=77),\n",
      "  Message('note_on', channel=0, note=75, velocity=73, time=679),\n",
      "  Message('note_on', channel=0, note=75, velocity=0, time=12),\n",
      "  Message('note_on', channel=0, note=76, velocity=73, time=0),\n",
      "  Message('note_on', channel=0, note=76, velocity=0, time=77),\n",
      "  Message('note_on', channel=0, note=69, velocity=73, time=439),\n",
      "  Message('note_on', channel=0, note=69, velocity=0, time=23),\n",
      "  Message('note_on', channel=0, note=73, velocity=73, time=1),\n",
      "  Message('note_on', channel=0, note=73, velocity=0, time=23),\n",
      "  Message('note_on', channel=0, note=71, velocity=73, time=1),\n",
      "  Message('note_on', channel=0, note=71, velocity=0, time=23),\n",
      "  Message('note_on', channel=0, note=74, velocity=74, time=1),\n",
      "  Message('note_on', channel=0, note=74, velocity=0, time=23),\n",
      "  Message('note_on', channel=0, note=73, velocity=74, time=1),\n",
      "  Message('note_on', channel=0, note=73, velocity=0, time=23),\n",
      "  Message('note_on', channel=0, note=76, velocity=74, time=1),\n",
      "  Message('note_on', channel=0, note=76, velocity=0, time=23),\n",
      "  Message('note_on', channel=0, note=74, velocity=75, time=1),\n",
      "  Message('note_on', channel=0, note=74, velocity=0, time=23),\n",
      "  Message('note_on', channel=0, note=78, velocity=75, time=1),\n",
      "  Message('note_on', channel=0, note=78, velocity=0, time=23),\n",
      "  Message('note_on', channel=0, note=76, velocity=75, time=1),\n",
      "  Message('note_on', channel=0, note=76, velocity=0, time=23),\n",
      "  Message('note_on', channel=0, note=80, velocity=76, time=1),\n",
      "  Message('note_on', channel=0, note=80, velocity=0, time=23),\n",
      "  Message('note_on', channel=0, note=78, velocity=76, time=1),\n",
      "  Message('note_on', channel=0, note=78, velocity=0, time=23),\n",
      "  Message('note_on', channel=0, note=81, velocity=76, time=1),\n",
      "  Message('note_on', channel=0, note=81, velocity=0, time=23),\n",
      "  Message('note_on', channel=0, note=80, velocity=77, time=1),\n",
      "  Message('note_on', channel=0, note=80, velocity=0, time=23),\n",
      "  Message('note_on', channel=0, note=83, velocity=77, time=1),\n",
      "  Message('note_on', channel=0, note=83, velocity=0, time=23),\n",
      "  Message('note_on', channel=0, note=81, velocity=78, time=1),\n",
      "  Message('note_on', channel=0, note=81, velocity=0, time=45),\n",
      "  Message('note_on', channel=0, note=80, velocity=78, time=3),\n",
      "  Message('note_on', channel=0, note=80, velocity=0, time=45),\n",
      "  Message('note_on', channel=0, note=78, velocity=78, time=3),\n",
      "  Message('note_on', channel=0, note=78, velocity=0, time=45),\n",
      "  Message('note_on', channel=0, note=76, velocity=78, time=3),\n",
      "  Message('note_on', channel=0, note=76, velocity=0, time=45),\n",
      "  Message('note_on', channel=0, note=81, velocity=78, time=3),\n",
      "  Message('note_on', channel=0, note=81, velocity=0, time=39),\n",
      "  Message('note_on', channel=0, note=83, velocity=79, time=57),\n",
      "  Message('note_on', channel=0, note=83, velocity=0, time=39),\n",
      "  Message('note_on', channel=0, note=85, velocity=96, time=57),\n",
      "  Message('note_on', channel=0, note=85, velocity=0, time=237),\n",
      "  Message('note_on', channel=0, note=88, velocity=81, time=3),\n",
      "  Message('note_on', channel=0, note=88, velocity=0, time=45),\n",
      "  Message('note_on', channel=0, note=86, velocity=80, time=3),\n",
      "  Message('note_on', channel=0, note=86, velocity=0, time=45),\n",
      "  Message('note_on', channel=0, note=83, velocity=79, time=3),\n",
      "  Message('note_on', channel=0, note=83, velocity=0, time=45),\n",
      "  Message('note_on', channel=0, note=81, velocity=78, time=3),\n",
      "  Message('note_on', channel=0, note=81, velocity=0, time=45),\n",
      "  Message('note_on', channel=0, note=80, velocity=78, time=3),\n",
      "  Message('note_on', channel=0, note=80, velocity=0, time=45),\n",
      "  Message('note_on', channel=0, note=78, velocity=78, time=3),\n",
      "  Message('note_on', channel=0, note=78, velocity=0, time=45),\n",
      "  Message('note_on', channel=0, note=76, velocity=78, time=3),\n",
      "  Message('note_on', channel=0, note=76, velocity=0, time=45),\n",
      "  Message('note_on', channel=0, note=81, velocity=78, time=3),\n",
      "  Message('note_on', channel=0, note=81, velocity=0, time=39),\n",
      "  Message('note_on', channel=0, note=83, velocity=78, time=57),\n",
      "  Message('note_on', channel=0, note=83, velocity=0, time=39),\n",
      "  Message('note_on', channel=0, note=86, velocity=95, time=57),\n",
      "  Message('note_on', channel=0, note=86, velocity=0, time=192),\n",
      "  Message('note_on', channel=0, note=85, velocity=82, time=0),\n",
      "  Message('note_on', channel=0, note=85, velocity=0, time=67),\n",
      "  Message('note_on', channel=0, note=86, velocity=80, time=5),\n",
      "  Message('note_on', channel=0, note=86, velocity=0, time=23),\n",
      "  Message('note_on', channel=0, note=83, velocity=80, time=1),\n",
      "  Message('note_on', channel=0, note=83, velocity=0, time=67),\n",
      "  Message('note_on', channel=0, note=85, velocity=78, time=5),\n",
      "  Message('note_on', channel=0, note=85, velocity=0, time=23),\n",
      "  Message('note_on', channel=0, note=81, velocity=78, time=1),\n",
      "  Message('note_on', channel=0, note=81, velocity=0, time=45),\n",
      "  Message('note_on', channel=0, note=80, velocity=78, time=3),\n",
      "  Message('note_on', channel=0, note=80, velocity=0, time=45),\n",
      "  Message('note_on', channel=0, note=78, velocity=78, time=3),\n",
      "  Message('note_on', channel=0, note=78, velocity=0, time=12),\n",
      "  Message('note_on', channel=0, note=79, velocity=78, time=0),\n",
      "  Message('note_on', channel=0, note=79, velocity=0, time=12),\n",
      "  Message('note_on', channel=0, note=78, velocity=78, time=0),\n",
      "  Message('note_on', channel=0, note=78, velocity=0, time=21),\n",
      "  Message('note_on', channel=0, note=76, velocity=78, time=3),\n",
      "  Message('note_on', channel=0, note=76, velocity=0, time=45),\n",
      "  Message('note_on', channel=0, note=81, velocity=78, time=3),\n",
      "  Message('note_on', channel=0, note=81, velocity=0, time=39),\n",
      "  Message('note_on', channel=0, note=83, velocity=79, time=57),\n",
      "  Message('note_on', channel=0, note=83, velocity=0, time=39),\n",
      "  Message('note_on', channel=0, note=85, velocity=95, time=57),\n",
      "  Message('note_on', channel=0, note=85, velocity=0, time=237),\n",
      "  Message('note_on', channel=0, note=88, velocity=81, time=3),\n",
      "  Message('note_on', channel=0, note=88, velocity=0, time=45),\n",
      "  Message('note_on', channel=0, note=86, velocity=81, time=3),\n",
      "  Message('note_on', channel=0, note=86, velocity=0, time=45),\n",
      "  Message('note_on', channel=0, note=83, velocity=81, time=3),\n",
      "  Message('note_on', channel=0, note=83, velocity=0, time=45),\n",
      "  Message('note_on', channel=0, note=83, velocity=82, time=3),\n",
      "  Message('note_on', channel=0, note=83, velocity=0, time=48),\n",
      "  Message('note_on', channel=0, note=81, velocity=81, time=0),\n",
      "  Message('note_on', channel=0, note=81, velocity=0, time=45),\n",
      "  Message('note_on', channel=0, note=81, velocity=81, time=3),\n",
      "  Message('note_on', channel=0, note=81, velocity=0, time=89),\n",
      "  Message('note_on', channel=0, note=81, velocity=96, time=7),\n",
      "  Message('note_on', channel=0, note=81, velocity=0, time=96),\n",
      "  Message('note_on', channel=0, note=85, velocity=79, time=0),\n",
      "  Message('note_on', channel=0, note=85, velocity=0, time=45),\n",
      "  Message('note_on', channel=0, note=83, velocity=78, time=3),\n",
      "  Message('note_on', channel=0, note=83, velocity=0, time=45),\n",
      "  Message('note_on', channel=0, note=81, velocity=78, time=3),\n",
      "  Message('note_on', channel=0, note=81, velocity=0, time=89),\n",
      "  Message('note_on', channel=0, note=59, velocity=73, time=295),\n",
      "  Message('note_on', channel=0, note=59, velocity=0, time=23),\n",
      "  Message('note_on', channel=0, note=58, velocity=73, time=1),\n",
      "  Message('note_on', channel=0, note=58, velocity=0, time=23),\n",
      "  Message('note_on', channel=0, note=59, velocity=73, time=1),\n",
      "  Message('note_on', channel=0, note=59, velocity=0, time=23),\n",
      "  Message('note_on', channel=0, note=58, velocity=73, time=1),\n",
      "  Message('note_on', channel=0, note=58, velocity=0, time=23),\n",
      "  Message('note_on', channel=0, note=59, velocity=73, time=1),\n",
      "  Message('note_on', channel=0, note=59, velocity=0, time=23),\n",
      "  Message('note_on', channel=0, note=58, velocity=73, time=1),\n",
      "  Message('note_on', channel=0, note=58, velocity=0, time=23),\n",
      "  Message('note_on', channel=0, note=59, velocity=73, time=1),\n",
      "  Message('note_on', channel=0, note=59, velocity=0, time=23),\n",
      "  Message('note_on', channel=0, note=58, velocity=74, time=1),\n",
      "  Message('note_on', channel=0, note=58, velocity=0, time=23),\n",
      "  Message('note_on', channel=0, note=59, velocity=74, time=1),\n",
      "  Message('note_on', channel=0, note=59, velocity=0, time=23),\n",
      "  Message('note_on', channel=0, note=61, velocity=74, time=1),\n",
      "  Message('note_on', channel=0, note=61, velocity=0, time=23),\n",
      "  Message('note_on', channel=0, note=62, velocity=74, time=1),\n",
      "  Message('note_on', channel=0, note=62, velocity=0, time=23),\n",
      "  Message('note_on', channel=0, note=64, velocity=74, time=1),\n",
      "  Message('note_on', channel=0, note=64, velocity=0, time=23),\n",
      "  Message('note_on', channel=0, note=66, velocity=74, time=1),\n",
      "  Message('note_on', channel=0, note=66, velocity=0, time=23),\n",
      "  Message('note_on', channel=0, note=67, velocity=75, time=1),\n",
      "  Message('note_on', channel=0, note=67, velocity=0, time=23),\n",
      "  Message('note_on', channel=0, note=69, velocity=75, time=1),\n",
      "  Message('note_on', channel=0, note=69, velocity=0, time=23),\n",
      "  Message('note_on', channel=0, note=71, velocity=75, time=1),\n",
      "  Message('note_on', channel=0, note=71, velocity=0, time=23),\n",
      "  Message('note_on', channel=0, note=71, velocity=75, time=1),\n",
      "  Message('note_on', channel=0, note=71, velocity=0, time=192),\n",
      "  Message('note_on', channel=0, note=69, velocity=77, time=0),\n",
      "  Message('note_on', channel=0, note=69, velocity=0, time=67),\n",
      "  Message('note_on', channel=0, note=67, velocity=77, time=5),\n",
      "  Message('note_on', channel=0, note=67, velocity=0, time=24),\n",
      "  Message('note_on', channel=0, note=66, velocity=77, time=0),\n",
      "  Message('note_on', channel=0, note=66, velocity=0, time=29),\n",
      "  Message('note_on', channel=0, note=64, velocity=78, time=43),\n",
      "  Message('note_on', channel=0, note=64, velocity=0, time=23),\n",
      "  Message('note_on', channel=0, note=62, velocity=78, time=1),\n",
      "  Message('note_on', channel=0, note=62, velocity=0, time=23),\n",
      "  Message('note_on', channel=0, note=61, velocity=78, time=1),\n",
      "  Message('note_on', channel=0, note=61, velocity=0, time=23),\n",
      "  Message('note_on', channel=0, note=62, velocity=78, time=1),\n",
      "  Message('note_on', channel=0, note=62, velocity=0, time=23),\n",
      "  Message('note_on', channel=0, note=61, velocity=79, time=1),\n",
      "  Message('note_on', channel=0, note=61, velocity=0, time=23),\n",
      "  Message('note_on', channel=0, note=62, velocity=79, time=1),\n",
      "  Message('note_on', channel=0, note=62, velocity=0, time=23),\n",
      "  Message('note_on', channel=0, note=61, velocity=79, time=1),\n",
      "  Message('note_on', channel=0, note=61, velocity=0, time=23),\n",
      "  Message('note_on', channel=0, note=62, velocity=79, time=1),\n",
      "  Message('note_on', channel=0, note=62, velocity=0, time=23),\n",
      "  Message('note_on', channel=0, note=61, velocity=79, time=1),\n",
      "  Message('note_on', channel=0, note=61, velocity=0, time=23),\n",
      "  Message('note_on', channel=0, note=62, velocity=79, time=1),\n",
      "  Message('note_on', channel=0, note=62, velocity=0, time=23),\n",
      "  Message('note_on', channel=0, note=64, velocity=80, time=1),\n",
      "  Message('note_on', channel=0, note=64, velocity=0, time=23),\n",
      "  Message('note_on', channel=0, note=66, velocity=80, time=1),\n",
      "  Message('note_on', channel=0, note=66, velocity=0, time=23),\n",
      "  Message('note_on', channel=0, note=67, velocity=80, time=1),\n",
      "  Message('note_on', channel=0, note=67, velocity=0, time=23),\n",
      "  Message('note_on', channel=0, note=69, velocity=80, time=1),\n",
      "  Message('note_on', channel=0, note=69, velocity=0, time=23),\n",
      "  Message('note_on', channel=0, note=71, velocity=80, time=1),\n",
      "  Message('note_on', channel=0, note=71, velocity=0, time=23),\n",
      "  Message('note_on', channel=0, note=73, velocity=80, time=1),\n",
      "  Message('note_on', channel=0, note=73, velocity=0, time=23),\n",
      "  Message('note_on', channel=0, note=74, velocity=81, time=1),\n",
      "  Message('note_on', channel=0, note=74, velocity=0, time=23),\n",
      "  Message('note_on', channel=0, note=76, velocity=81, time=1),\n",
      "  Message('note_on', channel=0, note=76, velocity=0, time=192),\n",
      "  Message('note_on', channel=0, note=74, velocity=82, time=0),\n",
      "  Message('note_on', channel=0, note=74, velocity=0, time=67),\n",
      "  Message('note_on', channel=0, note=73, velocity=83, time=5),\n",
      "  Message('note_on', channel=0, note=73, velocity=0, time=24),\n",
      "  Message('note_on', channel=0, note=71, velocity=83, time=0),\n",
      "  Message('note_on', channel=0, note=71, velocity=0, time=29),\n",
      "  Message('note_on', channel=0, note=69, velocity=83, time=43),\n",
      "  Message('note_on', channel=0, note=69, velocity=0, time=23),\n",
      "  Message('note_on', channel=0, note=66, velocity=84, time=1),\n",
      "  Message('note_on', channel=0, note=66, velocity=0, time=23),\n",
      "  Message('note_on', channel=0, note=65, velocity=84, time=1),\n",
      "  Message('note_on', channel=0, note=65, velocity=0, time=23),\n",
      "  Message('note_on', channel=0, note=66, velocity=84, time=1),\n",
      "  Message('note_on', channel=0, note=66, velocity=0, time=23),\n",
      "  Message('note_on', channel=0, note=65, velocity=84, time=1),\n",
      "  Message('note_on', channel=0, note=65, velocity=0, time=23),\n",
      "  Message('note_on', channel=0, note=66, velocity=84, time=1),\n",
      "  Message('note_on', channel=0, note=66, velocity=0, time=23),\n",
      "  Message('note_on', channel=0, note=65, velocity=85, time=1),\n",
      "  Message('note_on', channel=0, note=65, velocity=0, time=23),\n",
      "  Message('note_on', channel=0, note=66, velocity=85, time=1),\n",
      "  Message('note_on', channel=0, note=66, velocity=0, time=23),\n",
      "  Message('note_on', channel=0, note=65, velocity=85, time=1),\n",
      "  Message('note_on', channel=0, note=65, velocity=0, time=23),\n",
      "  Message('note_on', channel=0, note=66, velocity=85, time=1),\n",
      "  Message('note_on', channel=0, note=66, velocity=0, time=23),\n",
      "  Message('note_on', channel=0, note=67, velocity=85, time=1),\n",
      "  Message('note_on', channel=0, note=67, velocity=0, time=23),\n",
      "  Message('note_on', channel=0, note=69, velocity=85, time=1),\n",
      "  Message('note_on', channel=0, note=69, velocity=0, time=23),\n",
      "  Message('note_on', channel=0, note=71, velocity=86, time=1),\n",
      "  Message('note_on', channel=0, note=71, velocity=0, time=23),\n",
      "  Message('note_on', channel=0, note=73, velocity=86, time=1),\n",
      "  Message('note_on', channel=0, note=73, velocity=0, time=23),\n",
      "  Message('note_on', channel=0, note=74, velocity=86, time=1),\n",
      "  Message('note_on', channel=0, note=74, velocity=0, time=23),\n",
      "  Message('note_on', channel=0, note=76, velocity=86, time=1),\n",
      "  Message('note_on', channel=0, note=76, velocity=0, time=23),\n",
      "  Message('note_on', channel=0, note=78, velocity=86, time=1),\n",
      "  Message('note_on', channel=0, note=78, velocity=0, time=23),\n",
      "  Message('note_on', channel=0, note=62, velocity=87, time=1),\n",
      "  Message('note_on', channel=0, note=62, velocity=0, time=23),\n",
      "  Message('note_on', channel=0, note=61, velocity=87, time=1),\n",
      "  Message('note_on', channel=0, note=61, velocity=0, time=23),\n",
      "  Message('note_on', channel=0, note=62, velocity=87, time=1),\n",
      "  Message('note_on', channel=0, note=62, velocity=0, time=23),\n",
      "  Message('note_on', channel=0, note=61, velocity=87, time=1),\n",
      "  Message('note_on', channel=0, note=61, velocity=0, time=23),\n",
      "  Message('note_on', channel=0, note=62, velocity=87, time=1),\n",
      "  Message('note_on', channel=0, note=62, velocity=0, time=23),\n",
      "  Message('note_on', channel=0, note=61, velocity=87, time=1),\n",
      "  Message('note_on', channel=0, note=61, velocity=0, time=23),\n",
      "  Message('note_on', channel=0, note=62, velocity=87, time=1),\n",
      "  Message('note_on', channel=0, note=62, velocity=0, time=23),\n",
      "  Message('note_on', channel=0, note=61, velocity=87, time=1),\n",
      "  Message('note_on', channel=0, note=61, velocity=0, time=23),\n",
      "  Message('note_on', channel=0, note=62, velocity=87, time=1),\n",
      "  Message('note_on', channel=0, note=62, velocity=0, time=23),\n",
      "  Message('note_on', channel=0, note=64, velocity=87, time=1),\n",
      "  Message('note_on', channel=0, note=64, velocity=0, time=23),\n",
      "  Message('note_on', channel=0, note=66, velocity=87, time=1),\n",
      "  Message('note_on', channel=0, note=66, velocity=0, time=23),\n",
      "  Message('note_on', channel=0, note=68, velocity=87, time=1),\n",
      "  Message('note_on', channel=0, note=68, velocity=0, time=23),\n",
      "  Message('note_on', channel=0, note=69, velocity=87, time=1),\n",
      "  Message('note_on', channel=0, note=69, velocity=0, time=23),\n",
      "  Message('note_on', channel=0, note=71, velocity=87, time=1),\n",
      "  Message('note_on', channel=0, note=71, velocity=0, time=23),\n",
      "  Message('note_on', channel=0, note=73, velocity=87, time=1),\n",
      "  Message('note_on', channel=0, note=73, velocity=0, time=23),\n",
      "  Message('note_on', channel=0, note=74, velocity=87, time=1),\n",
      "  Message('note_on', channel=0, note=74, velocity=0, time=23),\n",
      "  Message('note_on', channel=0, note=81, velocity=87, time=1),\n",
      "  Message('note_on', channel=0, note=76, velocity=87, time=0),\n",
      "  Message('note_on', channel=0, note=73, velocity=87, time=0),\n",
      "  Message('note_on', channel=0, note=81, velocity=0, time=45),\n",
      "  Message('note_on', channel=0, note=76, velocity=0, time=0),\n",
      "  Message('note_on', channel=0, note=73, velocity=0, time=0),\n",
      "  Message('note_on', channel=0, note=81, velocity=87, time=51),\n",
      "  Message('note_on', channel=0, note=76, velocity=87, time=0),\n",
      "  Message('note_on', channel=0, note=73, velocity=87, time=0),\n",
      "  Message('note_on', channel=0, note=81, velocity=0, time=45),\n",
      "  Message('note_on', channel=0, note=76, velocity=0, time=0),\n",
      "  Message('note_on', channel=0, note=73, velocity=0, time=0),\n",
      "  Message('note_on', channel=0, note=81, velocity=87, time=51),\n",
      "  Message('note_on', channel=0, note=76, velocity=87, time=0),\n",
      "  Message('note_on', channel=0, note=73, velocity=87, time=0),\n",
      "  Message('note_on', channel=0, note=81, velocity=0, time=45),\n",
      "  Message('note_on', channel=0, note=76, velocity=0, time=0),\n",
      "  Message('note_on', channel=0, note=73, velocity=0, time=0),\n",
      "  Message('note_on', channel=0, note=81, velocity=87, time=51),\n",
      "  Message('note_on', channel=0, note=76, velocity=87, time=0),\n",
      "  Message('note_on', channel=0, note=73, velocity=87, time=0),\n",
      "  Message('note_on', channel=0, note=81, velocity=0, time=45),\n",
      "  Message('note_on', channel=0, note=76, velocity=0, time=0),\n",
      "  Message('note_on', channel=0, note=73, velocity=0, time=0),\n",
      "  Message('note_on', channel=0, note=85, velocity=87, time=51),\n",
      "  Message('note_on', channel=0, note=81, velocity=87, time=0),\n",
      "  Message('note_on', channel=0, note=78, velocity=87, time=0),\n",
      "  Message('note_on', channel=0, note=85, velocity=0, time=45),\n",
      "  Message('note_on', channel=0, note=81, velocity=0, time=0),\n",
      "  Message('note_on', channel=0, note=78, velocity=0, time=0),\n",
      "  Message('note_on', channel=0, note=85, velocity=87, time=51),\n",
      "  Message('note_on', channel=0, note=81, velocity=87, time=0),\n",
      "  Message('note_on', channel=0, note=78, velocity=87, time=0),\n",
      "  Message('note_on', channel=0, note=85, velocity=0, time=45),\n",
      "  Message('note_on', channel=0, note=81, velocity=0, time=0),\n",
      "  Message('note_on', channel=0, note=78, velocity=0, time=0),\n",
      "  Message('note_on', channel=0, note=85, velocity=87, time=51),\n",
      "  Message('note_on', channel=0, note=81, velocity=87, time=0),\n",
      "  Message('note_on', channel=0, note=78, velocity=87, time=0),\n",
      "  Message('note_on', channel=0, note=85, velocity=0, time=45),\n",
      "  Message('note_on', channel=0, note=81, velocity=0, time=0),\n",
      "  Message('note_on', channel=0, note=78, velocity=0, time=0),\n",
      "  Message('note_on', channel=0, note=85, velocity=87, time=51),\n",
      "  Message('note_on', channel=0, note=81, velocity=87, time=0),\n",
      "  Message('note_on', channel=0, note=78, velocity=87, time=0),\n",
      "  Message('note_on', channel=0, note=85, velocity=0, time=45),\n",
      "  Message('note_on', channel=0, note=81, velocity=0, time=0),\n",
      "  Message('note_on', channel=0, note=78, velocity=0, time=0),\n",
      "  Message('note_on', channel=0, note=86, velocity=87, time=51),\n",
      "  Message('note_on', channel=0, note=81, velocity=87, time=0),\n",
      "  Message('note_on', channel=0, note=78, velocity=87, time=0),\n",
      "  Message('note_on', channel=0, note=86, velocity=0, time=45),\n",
      "  Message('note_on', channel=0, note=81, velocity=0, time=0),\n",
      "  Message('note_on', channel=0, note=78, velocity=0, time=0),\n",
      "  Message('note_on', channel=0, note=86, velocity=87, time=51),\n",
      "  Message('note_on', channel=0, note=81, velocity=87, time=0),\n",
      "  Message('note_on', channel=0, note=78, velocity=87, time=0),\n",
      "  Message('note_on', channel=0, note=86, velocity=0, time=45),\n",
      "  Message('note_on', channel=0, note=81, velocity=0, time=0),\n",
      "  Message('note_on', channel=0, note=78, velocity=0, time=0),\n",
      "  Message('note_on', channel=0, note=86, velocity=87, time=51),\n",
      "  Message('note_on', channel=0, note=81, velocity=87, time=0),\n",
      "  Message('note_on', channel=0, note=78, velocity=87, time=0),\n",
      "  Message('note_on', channel=0, note=86, velocity=0, time=45),\n",
      "  Message('note_on', channel=0, note=81, velocity=0, time=0),\n",
      "  Message('note_on', channel=0, note=78, velocity=0, time=0),\n",
      "  Message('note_on', channel=0, note=86, velocity=87, time=51),\n",
      "  Message('note_on', channel=0, note=81, velocity=87, time=0),\n",
      "  Message('note_on', channel=0, note=78, velocity=87, time=0),\n",
      "  Message('note_on', channel=0, note=86, velocity=0, time=45),\n",
      "  Message('note_on', channel=0, note=81, velocity=0, time=0),\n",
      "  Message('note_on', channel=0, note=78, velocity=0, time=0),\n",
      "  Message('note_on', channel=0, note=86, velocity=87, time=51),\n",
      "  Message('note_on', channel=0, note=83, velocity=87, time=0),\n",
      "  Message('note_on', channel=0, note=78, velocity=87, time=0),\n",
      "  Message('note_on', channel=0, note=86, velocity=0, time=45),\n",
      "  Message('note_on', channel=0, note=83, velocity=0, time=0),\n",
      "  Message('note_on', channel=0, note=78, velocity=0, time=0),\n",
      "  Message('note_on', channel=0, note=86, velocity=87, time=51),\n",
      "  Message('note_on', channel=0, note=83, velocity=87, time=0),\n",
      "  Message('note_on', channel=0, note=78, velocity=87, time=0),\n",
      "  Message('note_on', channel=0, note=86, velocity=0, time=45),\n",
      "  Message('note_on', channel=0, note=83, velocity=0, time=0),\n",
      "  Message('note_on', channel=0, note=78, velocity=0, time=0),\n",
      "  Message('note_on', channel=0, note=86, velocity=87, time=51),\n",
      "  Message('note_on', channel=0, note=83, velocity=87, time=0),\n",
      "  Message('note_on', channel=0, note=78, velocity=87, time=0),\n",
      "  Message('note_on', channel=0, note=86, velocity=0, time=45),\n",
      "  Message('note_on', channel=0, note=83, velocity=0, time=0),\n",
      "  Message('note_on', channel=0, note=78, velocity=0, time=0),\n",
      "  Message('note_on', channel=0, note=86, velocity=87, time=51),\n",
      "  Message('note_on', channel=0, note=83, velocity=87, time=0),\n",
      "  Message('note_on', channel=0, note=78, velocity=87, time=0),\n",
      "  Message('note_on', channel=0, note=86, velocity=0, time=45),\n",
      "  Message('note_on', channel=0, note=83, velocity=0, time=0),\n",
      "  Message('note_on', channel=0, note=78, velocity=0, time=0),\n",
      "  Message('note_on', channel=0, note=68, velocity=87, time=51),\n",
      "  Message('note_on', channel=0, note=68, velocity=0, time=23),\n",
      "  Message('note_on', channel=0, note=69, velocity=87, time=1),\n",
      "  Message('note_on', channel=0, note=69, velocity=0, time=23),\n",
      "  Message('note_on', channel=0, note=71, velocity=87, time=1),\n",
      "  Message('note_on', channel=0, note=71, velocity=0, time=23),\n",
      "  Message('note_on', channel=0, note=69, velocity=87, time=1),\n",
      "  Message('note_on', channel=0, note=69, velocity=0, time=23),\n",
      "  Message('note_on', channel=0, note=68, velocity=87, time=1),\n",
      "  Message('note_on', channel=0, note=68, velocity=0, time=23),\n",
      "  Message('note_on', channel=0, note=64, velocity=87, time=1),\n",
      "  Message('note_on', channel=0, note=64, velocity=0, time=23),\n",
      "  Message('note_on', channel=0, note=66, velocity=87, time=1),\n",
      "  Message('note_on', channel=0, note=66, velocity=0, time=23),\n",
      "  Message('note_on', channel=0, note=68, velocity=87, time=1),\n",
      "  Message('note_on', channel=0, note=68, velocity=0, time=23),\n",
      "  Message('note_on', channel=0, note=69, velocity=87, time=1),\n",
      "  Message('note_on', channel=0, note=69, velocity=0, time=23),\n",
      "  Message('note_on', channel=0, note=71, velocity=87, time=1),\n",
      "  Message('note_on', channel=0, note=71, velocity=0, time=23),\n",
      "  Message('note_on', channel=0, note=73, velocity=87, time=1),\n",
      "  Message('note_on', channel=0, note=73, velocity=0, time=23),\n",
      "  Message('note_on', channel=0, note=71, velocity=87, time=1),\n",
      "  Message('note_on', channel=0, note=71, velocity=0, time=23),\n",
      "  Message('note_on', channel=0, note=73, velocity=87, time=1),\n",
      "  Message('note_on', channel=0, note=73, velocity=0, time=23),\n",
      "  Message('note_on', channel=0, note=71, velocity=87, time=1),\n",
      "  Message('note_on', channel=0, note=71, velocity=0, time=23),\n",
      "  Message('note_on', channel=0, note=69, velocity=87, time=1),\n",
      "  Message('note_on', channel=0, note=69, velocity=0, time=23),\n",
      "  Message('note_on', channel=0, note=68, velocity=87, time=1),\n",
      "  Message('note_on', channel=0, note=68, velocity=0, time=23),\n",
      "  Message('note_on', channel=0, note=66, velocity=87, time=1),\n",
      "  Message('note_on', channel=0, note=66, velocity=0, time=23),\n",
      "  Message('note_on', channel=0, note=68, velocity=87, time=1),\n",
      "  Message('note_on', channel=0, note=68, velocity=0, time=23),\n",
      "  Message('note_on', channel=0, note=69, velocity=87, time=1),\n",
      "  Message('note_on', channel=0, note=69, velocity=0, time=23),\n",
      "  Message('note_on', channel=0, note=68, velocity=87, time=1),\n",
      "  Message('note_on', channel=0, note=68, velocity=0, time=23),\n",
      "  Message('note_on', channel=0, note=66, velocity=87, time=1),\n",
      "  Message('note_on', channel=0, note=66, velocity=0, time=23),\n",
      "  Message('note_on', channel=0, note=62, velocity=87, time=1),\n",
      "  Message('note_on', channel=0, note=62, velocity=0, time=23),\n",
      "  Message('note_on', channel=0, note=64, velocity=87, time=1),\n",
      "  Message('note_on', channel=0, note=64, velocity=0, time=23),\n",
      "  Message('note_on', channel=0, note=66, velocity=87, time=1),\n",
      "  Message('note_on', channel=0, note=66, velocity=0, time=23),\n",
      "  Message('note_on', channel=0, note=68, velocity=87, time=1),\n",
      "  Message('note_on', channel=0, note=68, velocity=0, time=23),\n",
      "  Message('note_on', channel=0, note=69, velocity=87, time=1),\n",
      "  Message('note_on', channel=0, note=69, velocity=0, time=23),\n",
      "  Message('note_on', channel=0, note=71, velocity=87, time=1),\n",
      "  Message('note_on', channel=0, note=71, velocity=0, time=23),\n",
      "  Message('note_on', channel=0, note=69, velocity=87, time=1),\n",
      "  Message('note_on', channel=0, note=69, velocity=0, time=23),\n",
      "  Message('note_on', channel=0, note=68, velocity=87, time=1),\n",
      "  Message('note_on', channel=0, note=68, velocity=0, time=23),\n",
      "  Message('note_on', channel=0, note=66, velocity=87, time=1),\n",
      "  Message('note_on', channel=0, note=66, velocity=0, time=23),\n",
      "  Message('note_on', channel=0, note=64, velocity=87, time=1),\n",
      "  Message('note_on', channel=0, note=64, velocity=0, time=23),\n",
      "  Message('note_on', channel=0, note=62, velocity=87, time=1),\n",
      "  Message('note_on', channel=0, note=62, velocity=0, time=23),\n",
      "  Message('note_on', channel=0, note=61, velocity=87, time=1),\n",
      "  Message('note_on', channel=0, note=61, velocity=0, time=23),\n",
      "  Message('note_on', channel=0, note=64, velocity=87, time=1),\n",
      "  Message('note_on', channel=0, note=64, velocity=0, time=23),\n",
      "  Message('note_on', channel=0, note=62, velocity=87, time=1),\n",
      "  Message('note_on', channel=0, note=62, velocity=0, time=23),\n",
      "  Message('note_on', channel=0, note=61, velocity=87, time=1),\n",
      "  Message('note_on', channel=0, note=61, velocity=0, time=23),\n",
      "  Message('note_on', channel=0, note=62, velocity=87, time=1),\n",
      "  Message('note_on', channel=0, note=62, velocity=0, time=23),\n",
      "  Message('note_on', channel=0, note=64, velocity=87, time=1),\n",
      "  Message('note_on', channel=0, note=64, velocity=0, time=23),\n",
      "  Message('note_on', channel=0, note=66, velocity=87, time=1),\n",
      "  Message('note_on', channel=0, note=66, velocity=0, time=23),\n",
      "  Message('note_on', channel=0, note=68, velocity=87, time=1),\n",
      "  Message('note_on', channel=0, note=68, velocity=0, time=23),\n",
      "  Message('note_on', channel=0, note=69, velocity=87, time=1),\n",
      "  Message('note_on', channel=0, note=69, velocity=0, time=23),\n",
      "  Message('note_on', channel=0, note=71, velocity=87, time=1),\n",
      "  Message('note_on', channel=0, note=71, velocity=0, time=23),\n",
      "  Message('note_on', channel=0, note=73, velocity=87, time=1),\n",
      "  Message('note_on', channel=0, note=73, velocity=0, time=23),\n",
      "  Message('note_on', channel=0, note=74, velocity=87, time=1),\n",
      "  Message('note_on', channel=0, note=74, velocity=0, time=23),\n",
      "  Message('note_on', channel=0, note=76, velocity=87, time=1),\n",
      "  Message('note_on', channel=0, note=76, velocity=0, time=23),\n",
      "  Message('note_on', channel=0, note=78, velocity=87, time=1),\n",
      "  Message('note_on', channel=0, note=78, velocity=0, time=23),\n",
      "  Message('note_on', channel=0, note=80, velocity=87, time=1),\n",
      "  Message('note_on', channel=0, note=80, velocity=0, time=23),\n",
      "  Message('note_on', channel=0, note=81, velocity=87, time=1),\n",
      "  Message('note_on', channel=0, note=81, velocity=0, time=23),\n",
      "  Message('note_on', channel=0, note=78, velocity=87, time=1),\n",
      "  Message('note_on', channel=0, note=78, velocity=0, time=23),\n",
      "  Message('note_on', channel=0, note=80, velocity=87, time=1),\n",
      "  Message('note_on', channel=0, note=80, velocity=0, time=23),\n",
      "  Message('note_on', channel=0, note=78, velocity=87, time=1),\n",
      "  Message('note_on', channel=0, note=78, velocity=0, time=23),\n",
      "  Message('note_on', channel=0, note=76, velocity=87, time=1),\n",
      "  Message('note_on', channel=0, note=76, velocity=0, time=23),\n",
      "  Message('note_on', channel=0, note=74, velocity=87, time=1),\n",
      "  Message('note_on', channel=0, note=74, velocity=0, time=23),\n",
      "  Message('note_on', channel=0, note=73, velocity=87, time=1),\n",
      "  Message('note_on', channel=0, note=73, velocity=0, time=23),\n",
      "  Message('note_on', channel=0, note=71, velocity=87, time=1),\n",
      "  Message('note_on', channel=0, note=71, velocity=0, time=23),\n",
      "  Message('note_on', channel=0, note=69, velocity=87, time=1),\n",
      "  Message('note_on', channel=0, note=69, velocity=0, time=23),\n",
      "  Message('note_on', channel=0, note=68, velocity=87, time=1),\n",
      "  Message('note_on', channel=0, note=68, velocity=0, time=23),\n",
      "  Message('note_on', channel=0, note=69, velocity=87, time=1),\n",
      "  Message('note_on', channel=0, note=69, velocity=0, time=23),\n",
      "  Message('note_on', channel=0, note=68, velocity=87, time=1),\n",
      "  Message('note_on', channel=0, note=68, velocity=0, time=23),\n",
      "  Message('note_on', channel=0, note=66, velocity=87, time=1),\n",
      "  Message('note_on', channel=0, note=66, velocity=0, time=23),\n",
      "  Message('note_on', channel=0, note=64, velocity=87, time=1),\n",
      "  Message('note_on', channel=0, note=64, velocity=0, time=23),\n",
      "  Message('note_on', channel=0, note=62, velocity=87, time=1),\n",
      "  Message('note_on', channel=0, note=62, velocity=0, time=23),\n",
      "  Message('note_on', channel=0, note=61, velocity=87, time=1),\n",
      "  Message('note_on', channel=0, note=61, velocity=0, time=23),\n",
      "  Message('note_on', channel=0, note=59, velocity=87, time=1),\n",
      "  Message('note_on', channel=0, note=59, velocity=0, time=23),\n",
      "  Message('note_on', channel=0, note=57, velocity=87, time=1),\n",
      "  Message('note_on', channel=0, note=57, velocity=0, time=23),\n",
      "  Message('note_on', channel=0, note=61, velocity=86, time=1),\n",
      "  Message('note_on', channel=0, note=61, velocity=0, time=23),\n",
      "  Message('note_on', channel=0, note=64, velocity=85, time=1),\n",
      "  Message('note_on', channel=0, note=64, velocity=0, time=23),\n",
      "  Message('note_on', channel=0, note=69, velocity=84, time=1),\n",
      "  Message('note_on', channel=0, note=69, velocity=0, time=23),\n",
      "  Message('note_on', channel=0, note=73, velocity=84, time=1),\n",
      "  Message('note_on', channel=0, note=73, velocity=0, time=23),\n",
      "  Message('note_on', channel=0, note=69, velocity=83, time=1),\n",
      "  Message('note_on', channel=0, note=69, velocity=0, time=23),\n",
      "  Message('note_on', channel=0, note=76, velocity=82, time=1),\n",
      "  Message('note_on', channel=0, note=76, velocity=0, time=23),\n",
      "  Message('note_on', channel=0, note=73, velocity=81, time=1),\n",
      "  Message('note_on', channel=0, note=73, velocity=0, time=23),\n",
      "  Message('note_on', channel=0, note=81, velocity=81, time=1),\n",
      "  Message('note_on', channel=0, note=81, velocity=0, time=23),\n",
      "  Message('note_on', channel=0, note=76, velocity=80, time=1),\n",
      "  Message('note_on', channel=0, note=76, velocity=0, time=23),\n",
      "  Message('note_on', channel=0, note=85, velocity=79, time=1),\n",
      "  Message('note_on', channel=0, note=85, velocity=0, time=23),\n",
      "  Message('note_on', channel=0, note=81, velocity=78, time=1),\n",
      "  Message('note_on', channel=0, note=81, velocity=0, time=23),\n",
      "  Message('note_on', channel=0, note=88, velocity=78, time=1),\n",
      "  Message('note_on', channel=0, note=88, velocity=0, time=20),\n",
      "  Message('note_on', channel=0, note=88, velocity=78, time=28),\n",
      "  Message('note_on', channel=0, note=88, velocity=0, time=20),\n",
      "  Message('note_on', channel=0, note=88, velocity=94, time=28),\n",
      "  Message('note_on', channel=0, note=88, velocity=0, time=48),\n",
      "  Message('note_on', channel=0, note=78, velocity=78, time=0),\n",
      "  Message('note_on', channel=0, note=78, velocity=0, time=45),\n",
      "  Message('note_on', channel=0, note=78, velocity=78, time=3),\n",
      "  Message('note_on', channel=0, note=78, velocity=0, time=140),\n",
      "  Message('note_on', channel=0, note=82, velocity=78, time=4),\n",
      "  Message('note_on', channel=0, note=82, velocity=0, time=23),\n",
      "  Message('note_on', channel=0, note=83, velocity=78, time=1),\n",
      "  Message('note_on', channel=0, note=83, velocity=0, time=23),\n",
      "  Message('note_on', channel=0, note=86, velocity=78, time=1),\n",
      "  Message('note_on', channel=0, note=86, velocity=0, time=20),\n",
      "  Message('note_on', channel=0, note=86, velocity=78, time=28),\n",
      "  Message('note_on', channel=0, note=86, velocity=0, time=20),\n",
      "  Message('note_on', channel=0, note=86, velocity=94, time=28),\n",
      "  Message('note_on', channel=0, note=86, velocity=0, time=48),\n",
      "  Message('note_on', channel=0, note=76, velocity=78, time=0),\n",
      "  Message('note_on', channel=0, note=76, velocity=0, time=45),\n",
      "  Message('note_on', channel=0, note=76, velocity=79, time=3),\n",
      "  Message('note_on', channel=0, note=76, velocity=0, time=140),\n",
      "  Message('note_on', channel=0, note=80, velocity=79, time=4),\n",
      "  Message('note_on', channel=0, note=80, velocity=0, time=23),\n",
      "  Message('note_on', channel=0, note=81, velocity=79, time=1),\n",
      "  Message('note_on', channel=0, note=81, velocity=0, time=23),\n",
      "  Message('note_on', channel=0, note=85, velocity=79, time=1),\n",
      "  Message('note_on', channel=0, note=85, velocity=0, time=20),\n",
      "  Message('note_on', channel=0, note=85, velocity=80, time=28),\n",
      "  Message('note_on', channel=0, note=85, velocity=0, time=20),\n",
      "  Message('note_on', channel=0, note=85, velocity=96, time=28),\n",
      "  Message('note_on', channel=0, note=85, velocity=0, time=48),\n",
      "  Message('note_on', channel=0, note=74, velocity=80, time=0),\n",
      "  Message('note_on', channel=0, note=74, velocity=0, time=45),\n",
      "  Message('note_on', channel=0, note=74, velocity=80, time=3),\n",
      "  Message('note_on', channel=0, note=74, velocity=0, time=140),\n",
      "  Message('note_on', channel=0, note=79, velocity=81, time=4),\n",
      "  Message('note_on', channel=0, note=79, velocity=0, time=23),\n",
      "  Message('note_on', channel=0, note=80, velocity=81, time=1),\n",
      "  Message('note_on', channel=0, note=80, velocity=0, time=23),\n",
      "  Message('note_on', channel=0, note=83, velocity=81, time=1),\n",
      "  Message('note_on', channel=0, note=83, velocity=0, time=20),\n",
      "  Message('note_on', channel=0, note=83, velocity=81, time=28),\n",
      "  Message('note_on', channel=0, note=83, velocity=0, time=20),\n",
      "  Message('note_on', channel=0, note=83, velocity=97, time=28),\n",
      "  Message('note_on', channel=0, note=83, velocity=0, time=48),\n",
      "  Message('note_on', channel=0, note=73, velocity=82, time=0),\n",
      "  Message('note_on', channel=0, note=73, velocity=0, time=45),\n",
      "  Message('note_on', channel=0, note=73, velocity=82, time=3),\n",
      "  Message('note_on', channel=0, note=73, velocity=0, time=140),\n",
      "  Message('note_on', channel=0, note=77, velocity=83, time=4),\n",
      "  Message('note_on', channel=0, note=77, velocity=0, time=23),\n",
      "  Message('note_on', channel=0, note=78, velocity=83, time=1),\n",
      "  Message('note_on', channel=0, note=78, velocity=0, time=23),\n",
      "  Message('note_on', channel=0, note=81, velocity=83, time=1),\n",
      "  Message('note_on', channel=0, note=81, velocity=0, time=20),\n",
      "  Message('note_on', channel=0, note=81, velocity=83, time=28),\n",
      "  Message('note_on', channel=0, note=81, velocity=0, time=20),\n",
      "  Message('note_on', channel=0, note=81, velocity=99, time=28),\n",
      "  Message('note_on', channel=0, note=81, velocity=0, time=48),\n",
      "  Message('note_on', channel=0, note=71, velocity=83, time=0),\n",
      "  Message('note_on', channel=0, note=71, velocity=0, time=45),\n",
      "  Message('note_on', channel=0, note=71, velocity=84, time=51),\n",
      "  Message('note_on', channel=0, note=71, velocity=0, time=20),\n",
      "  Message('note_on', channel=0, note=71, velocity=84, time=76),\n",
      "  Message('note_on', channel=0, note=71, velocity=0, time=20),\n",
      "  Message('note_on', channel=0, note=71, velocity=85, time=76),\n",
      "  Message('note_on', channel=0, note=71, velocity=0, time=12),\n",
      "  Message('note_on', channel=0, note=73, velocity=85, time=0),\n",
      "  Message('note_on', channel=0, note=73, velocity=0, time=12),\n",
      "  Message('note_on', channel=0, note=71, velocity=85, time=0),\n",
      "  Message('note_on', channel=0, note=71, velocity=0, time=12),\n",
      "  Message('note_on', channel=0, note=73, velocity=85, time=0),\n",
      "  Message('note_on', channel=0, note=73, velocity=0, time=9),\n",
      "  Message('note_on', channel=0, note=81, velocity=101, time=3),\n",
      "  Message('note_on', channel=0, note=81, velocity=0, time=48),\n",
      "  Message('note_on', channel=0, note=72, velocity=85, time=0),\n",
      "  Message('note_on', channel=0, note=72, velocity=0, time=45),\n",
      "  Message('note_on', channel=0, note=72, velocity=85, time=51),\n",
      "  Message('note_on', channel=0, note=72, velocity=0, time=20),\n",
      "  Message('note_on', channel=0, note=72, velocity=86, time=76),\n",
      "  Message('note_on', channel=0, note=72, velocity=0, time=20),\n",
      "  Message('note_on', channel=0, note=72, velocity=86, time=76),\n",
      "  Message('note_on', channel=0, note=72, velocity=0, time=12),\n",
      "  Message('note_on', channel=0, note=74, velocity=86, time=0),\n",
      "  Message('note_on', channel=0, note=74, velocity=0, time=12),\n",
      "  Message('note_on', channel=0, note=72, velocity=86, time=0),\n",
      "  Message('note_on', channel=0, note=72, velocity=0, time=12),\n",
      "  Message('note_on', channel=0, note=74, velocity=86, time=0),\n",
      "  Message('note_on', channel=0, note=74, velocity=0, time=9),\n",
      "  Message('note_on', channel=0, note=73, velocity=87, time=3),\n",
      "  Message('note_on', channel=0, note=73, velocity=0, time=23),\n",
      "  Message('note_on', channel=0, note=69, velocity=87, time=1),\n",
      "  Message('note_on', channel=0, note=69, velocity=0, time=23),\n",
      "  Message('note_on', channel=0, note=76, velocity=87, time=1),\n",
      "  Message('note_on', channel=0, note=76, velocity=0, time=23),\n",
      "  Message('note_on', channel=0, note=73, velocity=87, time=1),\n",
      "  Message('note_on', channel=0, note=73, velocity=0, time=23),\n",
      "  Message('note_on', channel=0, note=81, velocity=87, time=1),\n",
      "  Message('note_on', channel=0, note=81, velocity=0, time=23),\n",
      "  Message('note_on', channel=0, note=76, velocity=87, time=1),\n",
      "  Message('note_on', channel=0, note=76, velocity=0, time=23),\n",
      "  Message('note_on', channel=0, note=85, velocity=87, time=1),\n",
      "  Message('note_on', channel=0, note=85, velocity=0, time=23),\n",
      "  Message('note_on', channel=0, note=81, velocity=87, time=1),\n",
      "  Message('note_on', channel=0, note=81, velocity=0, time=23),\n",
      "  Message('note_on', channel=0, note=88, velocity=87, time=1),\n",
      "  Message('note_on', channel=0, note=88, velocity=0, time=23),\n",
      "  Message('note_on', channel=0, note=85, velocity=87, time=1),\n",
      "  Message('note_on', channel=0, note=85, velocity=0, time=23),\n",
      "  Message('note_on', channel=0, note=81, velocity=87, time=1),\n",
      "  Message('note_on', channel=0, note=81, velocity=0, time=23),\n",
      "  Message('note_on', channel=0, note=76, velocity=87, time=1),\n",
      "  Message('note_on', channel=0, note=76, velocity=0, time=23),\n",
      "  Message('note_on', channel=0, note=81, velocity=87, time=1),\n",
      "  Message('note_on', channel=0, note=81, velocity=0, time=23),\n",
      "  Message('note_on', channel=0, note=76, velocity=87, time=1),\n",
      "  Message('note_on', channel=0, note=76, velocity=0, time=23),\n",
      "  Message('note_on', channel=0, note=73, velocity=87, time=1),\n",
      "  Message('note_on', channel=0, note=73, velocity=0, time=23),\n",
      "  Message('note_on', channel=0, note=69, velocity=87, time=1),\n",
      "  Message('note_on', channel=0, note=69, velocity=0, time=23),\n",
      "  Message('note_on', channel=0, note=73, velocity=87, time=1),\n",
      "  Message('note_on', channel=0, note=73, velocity=0, time=177),\n",
      "  Message('note_on', channel=0, note=71, velocity=85, time=15),\n",
      "  Message('note_on', channel=0, note=71, velocity=0, time=18),\n",
      "  Message('note_on', channel=0, note=73, velocity=85, time=0),\n",
      "  Message('note_on', channel=0, note=73, velocity=0, time=18),\n",
      "  Message('note_on', channel=0, note=71, velocity=85, time=0),\n",
      "  Message('note_on', channel=0, note=71, velocity=0, time=18),\n",
      "  Message('note_on', channel=0, note=73, velocity=85, time=0),\n",
      "  Message('note_on', channel=0, note=73, velocity=0, time=18),\n",
      "  Message('note_on', channel=0, note=71, velocity=85, time=0),\n",
      "  Message('note_on', channel=0, note=71, velocity=0, time=18),\n",
      "  Message('note_on', channel=0, note=73, velocity=85, time=0),\n",
      "  Message('note_on', channel=0, note=73, velocity=0, time=18),\n",
      "  Message('note_on', channel=0, note=71, velocity=85, time=0),\n",
      "  Message('note_on', channel=0, note=71, velocity=0, time=18),\n",
      "  Message('note_on', channel=0, note=73, velocity=85, time=0),\n",
      "  Message('note_on', channel=0, note=73, velocity=0, time=7),\n",
      "  Message('note_on', channel=0, note=69, velocity=83, time=11),\n",
      "  Message('note_on', channel=0, note=69, velocity=0, time=23),\n",
      "  Message('note_on', channel=0, note=71, velocity=83, time=1),\n",
      "  Message('note_on', channel=0, note=71, velocity=0, time=23),\n",
      "  Message('note_on', channel=0, note=69, velocity=83, time=1),\n",
      "  Message('note_on', channel=0, note=69, velocity=0, time=89),\n",
      "  Message('note_on', channel=0, note=69, velocity=82, time=31),\n",
      "  Message('note_on', channel=0, note=69, velocity=0, time=23),\n",
      "  Message('note_on', channel=0, note=71, velocity=82, time=1),\n",
      "  Message('note_on', channel=0, note=71, velocity=0, time=23),\n",
      "  Message('note_on', channel=0, note=73, velocity=82, time=1),\n",
      "  Message('note_on', channel=0, note=73, velocity=0, time=23),\n",
      "  Message('note_on', channel=0, note=74, velocity=82, time=1),\n",
      "  Message('note_on', channel=0, note=74, velocity=0, time=23),\n",
      "  Message('note_on', channel=0, note=76, velocity=82, time=1),\n",
      "  Message('note_on', channel=0, note=76, velocity=0, time=23),\n",
      "  Message('note_on', channel=0, note=78, velocity=82, time=1),\n",
      "  Message('note_on', channel=0, note=78, velocity=0, time=23),\n",
      "  Message('note_on', channel=0, note=80, velocity=82, time=1),\n",
      "  Message('note_on', channel=0, note=80, velocity=0, time=23),\n",
      "  Message('note_on', channel=0, note=81, velocity=82, time=1),\n",
      "  Message('note_on', channel=0, note=81, velocity=0, time=23),\n",
      "  Message('note_on', channel=0, note=83, velocity=82, time=1),\n",
      "  Message('note_on', channel=0, note=83, velocity=0, time=23),\n",
      "  Message('note_on', channel=0, note=85, velocity=82, time=1),\n",
      "  Message('note_on', channel=0, note=85, velocity=0, time=23),\n",
      "  Message('note_on', channel=0, note=81, velocity=82, time=1),\n",
      "  Message('note_on', channel=0, note=81, velocity=0, time=23),\n",
      "  Message('note_on', channel=0, note=86, velocity=82, time=1),\n",
      "  Message('note_on', channel=0, note=86, velocity=0, time=20),\n",
      "  Message('note_on', channel=0, note=83, velocity=82, time=28),\n",
      "  Message('note_on', channel=0, note=83, velocity=0, time=20),\n",
      "  Message('note_on', channel=0, note=78, velocity=82, time=28),\n",
      "  Message('note_on', channel=0, note=78, velocity=0, time=119),\n",
      "  Message('note_on', channel=0, note=80, velocity=82, time=1),\n",
      "  Message('note_on', channel=0, note=80, velocity=0, time=23),\n",
      "  Message('note_on', channel=0, note=81, velocity=82, time=1),\n",
      "  Message('note_on', channel=0, note=81, velocity=0, time=23),\n",
      "  Message('note_on', channel=0, note=78, velocity=82, time=1),\n",
      "  Message('note_on', channel=0, note=78, velocity=0, time=23),\n",
      "  Message('note_on', channel=0, note=80, velocity=82, time=1),\n",
      "  Message('note_on', channel=0, note=80, velocity=0, time=23),\n",
      "  Message('note_on', channel=0, note=81, velocity=82, time=1),\n",
      "  Message('note_on', channel=0, note=81, velocity=0, time=23),\n",
      "  Message('note_on', channel=0, note=83, velocity=82, time=1),\n",
      "  Message('note_on', channel=0, note=83, velocity=0, time=23),\n",
      "  Message('note_on', channel=0, note=80, velocity=82, time=1),\n",
      "  Message('note_on', channel=0, note=80, velocity=0, time=23),\n",
      "  Message('note_on', channel=0, note=81, velocity=82, time=1),\n",
      "  Message('note_on', channel=0, note=81, velocity=0, time=89),\n",
      "  Message('note_on', channel=0, note=69, velocity=78, time=31),\n",
      "  Message('note_on', channel=0, note=69, velocity=0, time=23),\n",
      "  Message('note_on', channel=0, note=71, velocity=78, time=1),\n",
      "  Message('note_on', channel=0, note=71, velocity=0, time=23),\n",
      "  Message('note_on', channel=0, note=73, velocity=78, time=1),\n",
      "  Message('note_on', channel=0, note=73, velocity=0, time=23),\n",
      "  Message('note_on', channel=0, note=74, velocity=78, time=1),\n",
      "  Message('note_on', channel=0, note=74, velocity=0, time=23),\n",
      "  Message('note_on', channel=0, note=76, velocity=78, time=1),\n",
      "  Message('note_on', channel=0, note=76, velocity=0, time=23),\n",
      "  Message('note_on', channel=0, note=78, velocity=78, time=1),\n",
      "  Message('note_on', channel=0, note=78, velocity=0, time=23),\n",
      "  Message('note_on', channel=0, note=80, velocity=78, time=1),\n",
      "  Message('note_on', channel=0, note=80, velocity=0, time=23),\n",
      "  Message('note_on', channel=0, note=81, velocity=78, time=1),\n",
      "  Message('note_on', channel=0, note=81, velocity=0, time=23),\n",
      "  Message('note_on', channel=0, note=83, velocity=78, time=1),\n",
      "  Message('note_on', channel=0, note=83, velocity=0, time=23),\n",
      "  Message('note_on', channel=0, note=85, velocity=78, time=1),\n",
      "  Message('note_on', channel=0, note=85, velocity=0, time=23),\n",
      "  Message('note_on', channel=0, note=81, velocity=78, time=1),\n",
      "  Message('note_on', channel=0, note=81, velocity=0, time=23),\n",
      "  Message('note_on', channel=0, note=86, velocity=78, time=1),\n",
      "  Message('note_on', channel=0, note=86, velocity=0, time=20),\n",
      "  Message('note_on', channel=0, note=83, velocity=78, time=28),\n",
      "  Message('note_on', channel=0, note=83, velocity=0, time=20),\n",
      "  Message('note_on', channel=0, note=78, velocity=78, time=28),\n",
      "  Message('note_on', channel=0, note=78, velocity=0, time=119),\n",
      "  Message('note_on', channel=0, note=80, velocity=78, time=1),\n",
      "  Message('note_on', channel=0, note=80, velocity=0, time=23),\n",
      "  Message('note_on', channel=0, note=81, velocity=78, time=1),\n",
      "  Message('note_on', channel=0, note=81, velocity=0, time=23),\n",
      "  Message('note_on', channel=0, note=78, velocity=78, time=1),\n",
      "  Message('note_on', channel=0, note=78, velocity=0, time=23),\n",
      "  Message('note_on', channel=0, note=80, velocity=78, time=1),\n",
      "  Message('note_on', channel=0, note=80, velocity=0, time=23),\n",
      "  Message('note_on', channel=0, note=81, velocity=78, time=1),\n",
      "  Message('note_on', channel=0, note=81, velocity=0, time=23),\n",
      "  Message('note_on', channel=0, note=83, velocity=78, time=1),\n",
      "  Message('note_on', channel=0, note=83, velocity=0, time=23),\n",
      "  Message('note_on', channel=0, note=80, velocity=78, time=1),\n",
      "  Message('note_on', channel=0, note=80, velocity=0, time=23),\n",
      "  Message('note_on', channel=0, note=81, velocity=78, time=1),\n",
      "  Message('note_on', channel=0, note=81, velocity=0, time=10),\n",
      "  Message('note_on', channel=0, note=73, velocity=78, time=14),\n",
      "  Message('note_on', channel=0, note=73, velocity=0, time=23),\n",
      "  Message('note_on', channel=0, note=76, velocity=79, time=1),\n",
      "  Message('note_on', channel=0, note=76, velocity=0, time=23),\n",
      "  Message('note_on', channel=0, note=81, velocity=80, time=1),\n",
      "  Message('note_on', channel=0, note=81, velocity=0, time=23),\n",
      "  Message('note_on', channel=0, note=85, velocity=81, time=1),\n",
      "  Message('note_on', channel=0, note=85, velocity=0, time=23),\n",
      "  Message('note_on', channel=0, note=76, velocity=82, time=1),\n",
      "  Message('note_on', channel=0, note=76, velocity=0, time=23),\n",
      "  Message('note_on', channel=0, note=81, velocity=83, time=1),\n",
      "  Message('note_on', channel=0, note=81, velocity=0, time=23),\n",
      "  Message('note_on', channel=0, note=85, velocity=84, time=1),\n",
      "  Message('note_on', channel=0, note=85, velocity=0, time=23),\n",
      "  Message('note_on', channel=0, note=88, velocity=85, time=1),\n",
      "  Message('note_on', channel=0, note=88, velocity=0, time=20),\n",
      "  Message('note_on', channel=0, note=88, velocity=87, time=28),\n",
      "  Message('note_on', channel=0, note=88, velocity=0, time=20),\n",
      "  Message('note_on', channel=0, note=80, velocity=87, time=76),\n",
      "  Message('note_on', channel=0, note=76, velocity=87, time=0),\n",
      "  Message('note_on', channel=0, note=74, velocity=87, time=0),\n",
      "  Message('note_on', channel=0, note=71, velocity=87, time=0),\n",
      "  Message('note_on', channel=0, note=80, velocity=0, time=20),\n",
      "  Message('note_on', channel=0, note=76, velocity=0, time=0),\n",
      "  Message('note_on', channel=0, note=74, velocity=0, time=0),\n",
      "  Message('note_on', channel=0, note=71, velocity=0, time=0),\n",
      "  Message('note_on', channel=0, note=81, velocity=87, time=28),\n",
      "  Message('note_on', channel=0, note=76, velocity=87, time=0),\n",
      "  Message('note_on', channel=0, note=73, velocity=87, time=0),\n",
      "  Message('note_on', channel=0, note=81, velocity=0, time=89),\n",
      "  Message('note_on', channel=0, note=76, velocity=0, time=0),\n",
      "  Message('note_on', channel=0, note=73, velocity=0, time=0),\n",
      "  Message('note_on', channel=0, note=80, velocity=87, time=199),\n",
      "  Message('note_on', channel=0, note=76, velocity=87, time=0),\n",
      "  Message('note_on', channel=0, note=74, velocity=87, time=0),\n",
      "  Message('note_on', channel=0, note=71, velocity=87, time=0),\n",
      "  Message('note_on', channel=0, note=80, velocity=0, time=89),\n",
      "  Message('note_on', channel=0, note=76, velocity=0, time=0),\n",
      "  Message('note_on', channel=0, note=74, velocity=0, time=0),\n",
      "  Message('note_on', channel=0, note=71, velocity=0, time=0),\n",
      "  Message('note_on', channel=0, note=69, velocity=87, time=7),\n",
      "  Message('note_on', channel=0, note=73, velocity=87, time=6),\n",
      "  Message('note_on', channel=0, note=76, velocity=87, time=6),\n",
      "  Message('note_on', channel=0, note=81, velocity=87, time=6),\n",
      "  Message('note_on', channel=0, note=81, velocity=0, time=75),\n",
      "  Message('note_on', channel=0, note=76, velocity=0, time=0),\n",
      "  Message('note_on', channel=0, note=73, velocity=0, time=0),\n",
      "  Message('note_on', channel=0, note=69, velocity=0, time=0),\n",
      "  Message('note_on', channel=0, note=73, velocity=87, time=3),\n",
      "  Message('note_on', channel=0, note=76, velocity=87, time=6),\n",
      "  Message('note_on', channel=0, note=81, velocity=87, time=6),\n",
      "  Message('note_on', channel=0, note=85, velocity=87, time=6),\n",
      "  Message('note_on', channel=0, note=85, velocity=0, time=75),\n",
      "  Message('note_on', channel=0, note=81, velocity=0, time=0),\n",
      "  Message('note_on', channel=0, note=76, velocity=0, time=0),\n",
      "  Message('note_on', channel=0, note=73, velocity=0, time=0),\n",
      "  Message('note_on', channel=0, note=76, velocity=87, time=3),\n",
      "  Message('note_on', channel=0, note=81, velocity=87, time=6),\n",
      "  Message('note_on', channel=0, note=85, velocity=87, time=6),\n",
      "  Message('note_on', channel=0, note=88, velocity=87, time=6),\n",
      "  Message('note_on', channel=0, note=88, velocity=0, time=75),\n",
      "  Message('note_on', channel=0, note=85, velocity=0, time=0),\n",
      "  Message('note_on', channel=0, note=81, velocity=0, time=0),\n",
      "  Message('note_on', channel=0, note=76, velocity=0, time=0),\n",
      "  Message('note_on', channel=0, note=73, velocity=87, time=3),\n",
      "  Message('note_on', channel=0, note=76, velocity=87, time=6),\n",
      "  Message('note_on', channel=0, note=81, velocity=87, time=6),\n",
      "  Message('note_on', channel=0, note=85, velocity=87, time=6),\n",
      "  Message('note_on', channel=0, note=85, velocity=0, time=75),\n",
      "  Message('note_on', channel=0, note=81, velocity=0, time=0),\n",
      "  Message('note_on', channel=0, note=76, velocity=0, time=0),\n",
      "  Message('note_on', channel=0, note=73, velocity=0, time=0),\n",
      "  Message('note_on', channel=0, note=69, velocity=87, time=3),\n",
      "  Message('note_on', channel=0, note=73, velocity=87, time=6),\n",
      "  Message('note_on', channel=0, note=76, velocity=87, time=6),\n",
      "  Message('note_on', channel=0, note=81, velocity=87, time=6),\n",
      "  Message('note_on', channel=0, note=81, velocity=0, time=75),\n",
      "  Message('note_on', channel=0, note=76, velocity=0, time=0),\n",
      "  Message('note_on', channel=0, note=73, velocity=0, time=0),\n",
      "  Message('note_on', channel=0, note=69, velocity=0, time=0),\n",
      "  Message('note_on', channel=0, note=69, velocity=87, time=3),\n",
      "  Message('note_on', channel=0, note=69, velocity=0, time=67),\n",
      "  Message('note_on', channel=0, note=69, velocity=87, time=5),\n",
      "  Message('note_on', channel=0, note=69, velocity=0, time=23),\n",
      "  Message('note_on', channel=0, note=69, velocity=87, time=1),\n",
      "  Message('note_on', channel=0, note=69, velocity=0, time=89),\n",
      "  Message('note_on', channel=0, note=81, velocity=87, time=1639),\n",
      "  Message('note_on', channel=0, note=81, velocity=0, time=177),\n",
      "  Message('note_on', channel=0, note=80, velocity=87, time=15),\n",
      "  Message('note_on', channel=0, note=80, velocity=0, time=89),\n",
      "  Message('note_on', channel=0, note=78, velocity=87, time=7),\n",
      "  Message('note_on', channel=0, note=78, velocity=0, time=89),\n",
      "  Message('note_on', channel=0, note=75, velocity=87, time=7),\n",
      "  Message('note_on', channel=0, note=75, velocity=0, time=89),\n",
      "  Message('note_on', channel=0, note=76, velocity=87, time=7),\n",
      "  Message('note_on', channel=0, note=76, velocity=0, time=141),\n",
      "  Message('note_on', channel=0, note=69, velocity=87, time=3),\n",
      "  Message('note_on', channel=0, note=69, velocity=0, time=45),\n",
      "  Message('note_on', channel=0, note=74, velocity=87, time=3),\n",
      "  Message('note_on', channel=0, note=74, velocity=0, time=45),\n",
      "  Message('note_on', channel=0, note=73, velocity=87, time=3),\n",
      "  Message('note_on', channel=0, note=73, velocity=0, time=45),\n",
      "  Message('note_on', channel=0, note=72, velocity=87, time=3),\n",
      "  Message('note_on', channel=0, note=72, velocity=0, time=89),\n",
      "  Message('note_on', channel=0, note=73, velocity=87, time=7),\n",
      "  Message('note_on', channel=0, note=73, velocity=0, time=141),\n",
      "  Message('note_on', channel=0, note=66, velocity=87, time=3),\n",
      "  Message('note_on', channel=0, note=66, velocity=0, time=45),\n",
      "  Message('note_on', channel=0, note=71, velocity=87, time=3),\n",
      "  Message('note_on', channel=0, note=71, velocity=0, time=45),\n",
      "  Message('note_on', channel=0, note=69, velocity=87, time=3),\n",
      "  Message('note_on', channel=0, note=69, velocity=0, time=45),\n",
      "  Message('note_on', channel=0, note=68, velocity=87, time=3),\n",
      "  Message('note_on', channel=0, note=68, velocity=0, time=89),\n",
      "  Message('note_on', channel=0, note=69, velocity=87, time=7),\n",
      "  Message('note_on', channel=0, note=69, velocity=0, time=89),\n",
      "  Message('note_on', channel=0, note=76, velocity=87, time=7),\n",
      "  Message('note_on', channel=0, note=76, velocity=0, time=18),\n",
      "  Message('note_on', channel=0, note=74, velocity=87, time=0),\n",
      "  Message('note_on', channel=0, note=74, velocity=0, time=18),\n",
      "  Message('note_on', channel=0, note=76, velocity=87, time=0),\n",
      "  Message('note_on', channel=0, note=76, velocity=0, time=18),\n",
      "  Message('note_on', channel=0, note=74, velocity=87, time=0),\n",
      "  Message('note_on', channel=0, note=74, velocity=0, time=18),\n",
      "  Message('note_on', channel=0, note=76, velocity=87, time=0),\n",
      "  Message('note_on', channel=0, note=76, velocity=0, time=18),\n",
      "  Message('note_on', channel=0, note=74, velocity=87, time=0),\n",
      "  Message('note_on', channel=0, note=74, velocity=0, time=18),\n",
      "  Message('note_on', channel=0, note=76, velocity=87, time=0),\n",
      "  Message('note_on', channel=0, note=76, velocity=0, time=18),\n",
      "  Message('note_on', channel=0, note=74, velocity=87, time=0),\n",
      "  Message('note_on', channel=0, note=74, velocity=0, time=7),\n",
      "  Message('note_on', channel=0, note=73, velocity=87, time=11),\n",
      "  Message('note_on', channel=0, note=73, velocity=0, time=23),\n",
      "  Message('note_on', channel=0, note=74, velocity=87, time=1),\n",
      "  Message('note_on', channel=0, note=74, velocity=0, time=23),\n",
      "  Message('note_on', channel=0, note=73, velocity=87, time=1),\n",
      "  Message('note_on', channel=0, note=73, velocity=0, time=23),\n",
      "  Message('note_on', channel=0, note=69, velocity=87, time=1),\n",
      "  Message('note_on', channel=0, note=69, velocity=0, time=23),\n",
      "  Message('note_on', channel=0, note=74, velocity=87, time=1),\n",
      "  Message('note_on', channel=0, note=74, velocity=0, time=23),\n",
      "  Message('note_on', channel=0, note=71, velocity=88, time=1),\n",
      "  Message('note_on', channel=0, note=71, velocity=0, time=23),\n",
      "  Message('note_on', channel=0, note=76, velocity=88, time=1),\n",
      "  Message('note_on', channel=0, note=76, velocity=0, time=23),\n",
      "  Message('note_on', channel=0, note=73, velocity=88, time=1),\n",
      "  Message('note_on', channel=0, note=73, velocity=0, time=23),\n",
      "  Message('note_on', channel=0, note=78, velocity=89, time=1),\n",
      "  Message('note_on', channel=0, note=78, velocity=0, time=23),\n",
      "  Message('note_on', channel=0, note=74, velocity=89, time=1),\n",
      "  Message('note_on', channel=0, note=74, velocity=0, time=23),\n",
      "  Message('note_on', channel=0, note=79, velocity=90, time=1),\n",
      "  Message('note_on', channel=0, note=79, velocity=0, time=23),\n",
      "  Message('note_on', channel=0, note=76, velocity=90, time=1),\n",
      "  Message('note_on', channel=0, note=76, velocity=0, time=23),\n",
      "  Message('note_on', channel=0, note=81, velocity=90, time=1),\n",
      "  Message('note_on', channel=0, note=81, velocity=0, time=23),\n",
      "  Message('note_on', channel=0, note=78, velocity=91, time=1),\n",
      "  Message('note_on', channel=0, note=78, velocity=0, time=23),\n",
      "  Message('note_on', channel=0, note=83, velocity=91, time=1),\n",
      "  Message('note_on', channel=0, note=83, velocity=0, time=23),\n",
      "  Message('note_on', channel=0, note=79, velocity=91, time=1),\n",
      "  Message('note_on', channel=0, note=79, velocity=0, time=23),\n",
      "  Message('note_on', channel=0, note=85, velocity=92, time=1),\n",
      "  Message('note_on', channel=0, note=85, velocity=0, time=23),\n",
      "  Message('note_on', channel=0, note=81, velocity=92, time=1),\n",
      "  Message('note_on', channel=0, note=81, velocity=0, time=23),\n",
      "  Message('note_on', channel=0, note=77, velocity=93, time=1),\n",
      "  Message('note_on', channel=0, note=74, velocity=93, time=0),\n",
      "  Message('note_on', channel=0, note=77, velocity=0, time=23),\n",
      "  Message('note_on', channel=0, note=74, velocity=0, time=0),\n",
      "  Message('note_on', channel=0, note=86, velocity=93, time=1),\n",
      "  Message('note_on', channel=0, note=86, velocity=0, time=23),\n",
      "  Message('note_on', channel=0, note=77, velocity=93, time=1),\n",
      "  Message('note_on', channel=0, note=74, velocity=93, time=0),\n",
      "  Message('note_on', channel=0, note=77, velocity=0, time=23),\n",
      "  Message('note_on', channel=0, note=74, velocity=0, time=0),\n",
      "  Message('note_on', channel=0, note=86, velocity=93, time=1),\n",
      "  Message('note_on', channel=0, note=86, velocity=0, time=23),\n",
      "  Message('note_on', channel=0, note=77, velocity=93, time=1),\n",
      "  Message('note_on', channel=0, note=74, velocity=93, time=0),\n",
      "  Message('note_on', channel=0, note=77, velocity=0, time=23),\n",
      "  Message('note_on', channel=0, note=74, velocity=0, time=0),\n",
      "  Message('note_on', channel=0, note=86, velocity=93, time=1),\n",
      "  Message('note_on', channel=0, note=86, velocity=0, time=23),\n",
      "  Message('note_on', channel=0, note=77, velocity=93, time=1),\n",
      "  Message('note_on', channel=0, note=74, velocity=93, time=0),\n",
      "  Message('note_on', channel=0, note=77, velocity=0, time=23),\n",
      "  Message('note_on', channel=0, note=74, velocity=0, time=0),\n",
      "  Message('note_on', channel=0, note=86, velocity=93, time=1),\n",
      "  Message('note_on', channel=0, note=86, velocity=0, time=23),\n",
      "  Message('note_on', channel=0, note=77, velocity=93, time=1),\n",
      "  Message('note_on', channel=0, note=74, velocity=93, time=0),\n",
      "  Message('note_on', channel=0, note=77, velocity=0, time=23),\n",
      "  Message('note_on', channel=0, note=74, velocity=0, time=0),\n",
      "  Message('note_on', channel=0, note=86, velocity=93, time=1),\n",
      "  Message('note_on', channel=0, note=86, velocity=0, time=23),\n",
      "  Message('note_on', channel=0, note=77, velocity=93, time=1),\n",
      "  Message('note_on', channel=0, note=74, velocity=93, time=0),\n",
      "  Message('note_on', channel=0, note=77, velocity=0, time=23),\n",
      "  Message('note_on', channel=0, note=74, velocity=0, time=0),\n",
      "  Message('note_on', channel=0, note=86, velocity=93, time=1),\n",
      "  Message('note_on', channel=0, note=86, velocity=0, time=23),\n",
      "  Message('note_on', channel=0, note=77, velocity=93, time=1),\n",
      "  Message('note_on', channel=0, note=74, velocity=93, time=0),\n",
      "  Message('note_on', channel=0, note=77, velocity=0, time=23),\n",
      "  Message('note_on', channel=0, note=74, velocity=0, time=0),\n",
      "  Message('note_on', channel=0, note=86, velocity=93, time=1),\n",
      "  Message('note_on', channel=0, note=86, velocity=0, time=23),\n",
      "  Message('note_on', channel=0, note=77, velocity=93, time=1),\n",
      "  Message('note_on', channel=0, note=74, velocity=93, time=0),\n",
      "  Message('note_on', channel=0, note=77, velocity=0, time=23),\n",
      "  Message('note_on', channel=0, note=74, velocity=0, time=0),\n",
      "  Message('note_on', channel=0, note=86, velocity=93, time=1),\n",
      "  Message('note_on', channel=0, note=86, velocity=0, time=23),\n",
      "  Message('note_on', channel=0, note=76, velocity=93, time=1),\n",
      "  Message('note_on', channel=0, note=76, velocity=0, time=23),\n",
      "  Message('note_on', channel=0, note=86, velocity=93, time=1),\n",
      "  Message('note_on', channel=0, note=86, velocity=0, time=23),\n",
      "  Message('note_on', channel=0, note=76, velocity=93, time=1),\n",
      "  Message('note_on', channel=0, note=76, velocity=0, time=23),\n",
      "  Message('note_on', channel=0, note=86, velocity=93, time=1),\n",
      "  Message('note_on', channel=0, note=86, velocity=0, time=23),\n",
      "  Message('note_on', channel=0, note=76, velocity=93, time=1),\n",
      "  Message('note_on', channel=0, note=76, velocity=0, time=23),\n",
      "  Message('note_on', channel=0, note=85, velocity=93, time=1),\n",
      "  Message('note_on', channel=0, note=85, velocity=0, time=23),\n",
      "  Message('note_on', channel=0, note=76, velocity=93, time=1),\n",
      "  Message('note_on', channel=0, note=76, velocity=0, time=23),\n",
      "  Message('note_on', channel=0, note=85, velocity=93, time=1),\n",
      "  Message('note_on', channel=0, note=85, velocity=0, time=23),\n",
      "  Message('note_on', channel=0, note=78, velocity=93, time=1),\n",
      "  Message('note_on', channel=0, note=78, velocity=0, time=23),\n",
      "  Message('note_on', channel=0, note=84, velocity=93, time=1),\n",
      "  Message('note_on', channel=0, note=84, velocity=0, time=23),\n",
      "  Message('note_on', channel=0, note=78, velocity=93, time=1),\n",
      "  Message('note_on', channel=0, note=78, velocity=0, time=23),\n",
      "  Message('note_on', channel=0, note=84, velocity=93, time=1),\n",
      "  Message('note_on', channel=0, note=84, velocity=0, time=23),\n",
      "  Message('note_on', channel=0, note=79, velocity=93, time=1),\n",
      "  Message('note_on', channel=0, note=79, velocity=0, time=23),\n",
      "  Message('note_on', channel=0, note=83, velocity=93, time=1),\n",
      "  Message('note_on', channel=0, note=83, velocity=0, time=23),\n",
      "  Message('note_on', channel=0, note=79, velocity=93, time=1),\n",
      "  Message('note_on', channel=0, note=79, velocity=0, time=23),\n",
      "  Message('note_on', channel=0, note=83, velocity=93, time=1),\n",
      "  Message('note_on', channel=0, note=83, velocity=0, time=23),\n",
      "  Message('note_on', channel=0, note=72, velocity=93, time=1),\n",
      "  Message('note_on', channel=0, note=72, velocity=0, time=23),\n",
      "  Message('note_on', channel=0, note=82, velocity=93, time=1),\n",
      "  Message('note_on', channel=0, note=82, velocity=0, time=23),\n",
      "  Message('note_on', channel=0, note=72, velocity=93, time=1),\n",
      "  Message('note_on', channel=0, note=72, velocity=0, time=23),\n",
      "  Message('note_on', channel=0, note=82, velocity=93, time=1),\n",
      "  Message('note_on', channel=0, note=82, velocity=0, time=23),\n",
      "  Message('note_on', channel=0, note=72, velocity=93, time=1),\n",
      "  Message('note_on', channel=0, note=72, velocity=0, time=23),\n",
      "  Message('note_on', channel=0, note=81, velocity=93, time=1),\n",
      "  Message('note_on', channel=0, note=81, velocity=0, time=23),\n",
      "  Message('note_on', channel=0, note=72, velocity=93, time=1),\n",
      "  Message('note_on', channel=0, note=72, velocity=0, time=23),\n",
      "  Message('note_on', channel=0, note=81, velocity=93, time=1),\n",
      "  Message('note_on', channel=0, note=81, velocity=0, time=23),\n",
      "  Message('note_on', channel=0, note=70, velocity=93, time=1),\n",
      "  Message('note_on', channel=0, note=70, velocity=0, time=23),\n",
      "  Message('note_on', channel=0, note=81, velocity=93, time=1),\n",
      "  Message('note_on', channel=0, note=81, velocity=0, time=23),\n",
      "  Message('note_on', channel=0, note=70, velocity=93, time=1),\n",
      "  Message('note_on', channel=0, note=70, velocity=0, time=23),\n",
      "  Message('note_on', channel=0, note=81, velocity=93, time=1),\n",
      "  Message('note_on', channel=0, note=81, velocity=0, time=23),\n",
      "  Message('note_on', channel=0, note=70, velocity=93, time=1),\n",
      "  Message('note_on', channel=0, note=70, velocity=0, time=23),\n",
      "  Message('note_on', channel=0, note=79, velocity=93, time=1),\n",
      "  Message('note_on', channel=0, note=79, velocity=0, time=23),\n",
      "  Message('note_on', channel=0, note=70, velocity=93, time=1),\n",
      "  Message('note_on', channel=0, note=70, velocity=0, time=23),\n",
      "  Message('note_on', channel=0, note=79, velocity=93, time=1),\n",
      "  Message('note_on', channel=0, note=79, velocity=0, time=23),\n",
      "  Message('note_on', channel=0, note=69, velocity=93, time=1),\n",
      "  Message('note_on', channel=0, note=69, velocity=0, time=23),\n",
      "  Message('note_on', channel=0, note=79, velocity=93, time=1),\n",
      "  Message('note_on', channel=0, note=79, velocity=0, time=23),\n",
      "  Message('note_on', channel=0, note=69, velocity=93, time=1),\n",
      "  Message('note_on', channel=0, note=69, velocity=0, time=23),\n",
      "  Message('note_on', channel=0, note=79, velocity=93, time=1),\n",
      "  Message('note_on', channel=0, note=79, velocity=0, time=23),\n",
      "  Message('note_on', channel=0, note=69, velocity=93, time=1),\n",
      "  Message('note_on', channel=0, note=69, velocity=0, time=23),\n",
      "  Message('note_on', channel=0, note=77, velocity=93, time=1),\n",
      "  Message('note_on', channel=0, note=77, velocity=0, time=23),\n",
      "  Message('note_on', channel=0, note=69, velocity=93, time=1),\n",
      "  Message('note_on', channel=0, note=69, velocity=0, time=23),\n",
      "  Message('note_on', channel=0, note=77, velocity=93, time=1),\n",
      "  Message('note_on', channel=0, note=77, velocity=0, time=23),\n",
      "  Message('note_on', channel=0, note=76, velocity=93, time=1),\n",
      "  Message('note_on', channel=0, note=76, velocity=0, time=23),\n",
      "  Message('note_on', channel=0, note=81, velocity=93, time=1),\n",
      "  Message('note_on', channel=0, note=81, velocity=0, time=23),\n",
      "  Message('note_on', channel=0, note=76, velocity=93, time=1),\n",
      "  Message('note_on', channel=0, note=76, velocity=0, time=23),\n",
      "  Message('note_on', channel=0, note=81, velocity=93, time=1),\n",
      "  Message('note_on', channel=0, note=81, velocity=0, time=23),\n",
      "  Message('note_on', channel=0, note=80, velocity=93, time=1),\n",
      "  Message('note_on', channel=0, note=80, velocity=0, time=23),\n",
      "  Message('note_on', channel=0, note=86, velocity=93, time=1),\n",
      "  Message('note_on', channel=0, note=86, velocity=0, time=23),\n",
      "  Message('note_on', channel=0, note=80, velocity=93, time=1),\n",
      "  Message('note_on', channel=0, note=80, velocity=0, time=23),\n",
      "  Message('note_on', channel=0, note=86, velocity=93, time=1),\n",
      "  Message('note_on', channel=0, note=86, velocity=0, time=23),\n",
      "  Message('note_on', channel=0, note=85, velocity=93, time=1),\n",
      "  Message('note_on', channel=0, note=81, velocity=93, time=0),\n",
      "  Message('note_on', channel=0, note=76, velocity=93, time=0),\n",
      "  Message('note_on', channel=0, note=85, velocity=0, time=89),\n",
      "  Message('note_on', channel=0, note=81, velocity=0, time=0),\n",
      "  Message('note_on', channel=0, note=76, velocity=0, time=0),\n",
      "  Message('note_on', channel=0, note=86, velocity=94, time=679),\n",
      "  Message('note_on', channel=0, note=86, velocity=0, time=192),\n",
      "  Message('note_on', channel=0, note=85, velocity=78, time=0),\n",
      "  Message('note_on', channel=0, note=85, velocity=0, time=89),\n",
      "  Message('note_on', channel=0, note=83, velocity=79, time=7),\n",
      "  Message('note_on', channel=0, note=83, velocity=0, time=89),\n",
      "  Message('note_on', channel=0, note=82, velocity=96, time=7),\n",
      "  Message('note_on', channel=0, note=82, velocity=0, time=96),\n",
      "  Message('note_on', channel=0, note=83, velocity=82, time=0),\n",
      "  Message('note_on', channel=0, note=83, velocity=0, time=141),\n",
      "  Message('note_on', channel=0, note=86, velocity=80, time=3),\n",
      "  Message('note_on', channel=0, note=86, velocity=0, time=45),\n",
      "  Message('note_on', channel=0, note=80, velocity=79, time=3),\n",
      "  Message('note_on', channel=0, note=80, velocity=0, time=45),\n",
      "  Message('note_on', channel=0, note=83, velocity=78, time=3),\n",
      "  Message('note_on', channel=0, note=83, velocity=0, time=45),\n",
      "  Message('note_on', channel=0, note=81, velocity=78, time=3),\n",
      "  Message('note_on', channel=0, note=81, velocity=0, time=89),\n",
      "  Message('note_on', channel=0, note=74, velocity=78, time=679),\n",
      "  Message('note_on', channel=0, note=74, velocity=0, time=18),\n",
      "  Message('note_on', channel=0, note=86, velocity=94, time=0),\n",
      "  Message('note_on', channel=0, note=86, velocity=0, time=145),\n",
      "  Message('note_on', channel=0, note=88, velocity=79, time=5),\n",
      "  Message('note_on', channel=0, note=88, velocity=0, time=12),\n",
      "  Message('note_on', channel=0, note=86, velocity=79, time=0),\n",
      "  Message('note_on', channel=0, note=86, velocity=0, time=12),\n",
      "  Message('note_on', channel=0, note=85, velocity=80, time=0),\n",
      "  Message('note_on', channel=0, note=85, velocity=0, time=67),\n",
      "  Message('note_on', channel=0, note=86, velocity=80, time=5),\n",
      "  Message('note_on', channel=0, note=86, velocity=0, time=12),\n",
      "  Message('note_on', channel=0, note=85, velocity=80, time=0),\n",
      "  Message('note_on', channel=0, note=85, velocity=0, time=12),\n",
      "  Message('note_on', channel=0, note=83, velocity=81, time=0),\n",
      "  Message('note_on', channel=0, note=83, velocity=0, time=67),\n",
      "  Message('note_on', channel=0, note=85, velocity=81, time=5),\n",
      "  Message('note_on', channel=0, note=85, velocity=0, time=12),\n",
      "  Message('note_on', channel=0, note=83, velocity=81, time=0),\n",
      "  Message('note_on', channel=0, note=83, velocity=0, time=12),\n",
      "  Message('note_on', channel=0, note=82, velocity=98, time=0),\n",
      "  Message('note_on', channel=0, note=82, velocity=0, time=48),\n",
      "  Message('note_on', channel=0, note=85, velocity=81, time=0),\n",
      "  Message('note_on', channel=0, note=85, velocity=0, time=20),\n",
      "  Message('note_on', channel=0, note=83, velocity=81, time=28),\n",
      "  Message('note_on', channel=0, note=83, velocity=0, time=119),\n",
      "  Message('note_on', channel=0, note=85, velocity=79, time=1),\n",
      "  Message('note_on', channel=0, note=85, velocity=0, time=23),\n",
      "  Message('note_on', channel=0, note=86, velocity=79, time=1),\n",
      "  Message('note_on', channel=0, note=86, velocity=0, time=23),\n",
      "  Message('note_on', channel=0, note=83, velocity=79, time=1),\n",
      "  Message('note_on', channel=0, note=83, velocity=0, time=23),\n",
      "  Message('note_on', channel=0, note=80, velocity=79, time=1),\n",
      "  Message('note_on', channel=0, note=80, velocity=0, time=23),\n",
      "  Message('note_on', channel=0, note=81, velocity=78, time=1),\n",
      "  Message('note_on', channel=0, note=81, velocity=0, time=23),\n",
      "  Message('note_on', channel=0, note=83, velocity=78, time=1),\n",
      "  Message('note_on', channel=0, note=83, velocity=0, time=23),\n",
      "  Message('note_on', channel=0, note=80, velocity=78, time=1),\n",
      "  Message('note_on', channel=0, note=80, velocity=0, time=23),\n",
      "  Message('note_on', channel=0, note=81, velocity=78, time=1),\n",
      "  Message('note_on', channel=0, note=81, velocity=0, time=45),\n",
      "  Message('note_on', channel=0, note=78, velocity=73, time=51),\n",
      "  Message('note_on', channel=0, note=78, velocity=0, time=23),\n",
      "  Message('note_on', channel=0, note=81, velocity=73, time=1),\n",
      "  Message('note_on', channel=0, note=81, velocity=0, time=23),\n",
      "  Message('note_on', channel=0, note=80, velocity=73, time=1),\n",
      "  Message('note_on', channel=0, note=80, velocity=0, time=23),\n",
      "  Message('note_on', channel=0, note=83, velocity=73, time=1),\n",
      "  Message('note_on', channel=0, note=83, velocity=0, time=23),\n",
      "  Message('note_on', channel=0, note=81, velocity=73, time=1),\n",
      "  Message('note_on', channel=0, note=81, velocity=0, time=45),\n",
      "  Message('note_on', channel=0, note=78, velocity=66, time=243),\n",
      "  Message('note_on', channel=0, note=78, velocity=0, time=23),\n",
      "  Message('note_on', channel=0, note=81, velocity=66, time=1),\n",
      "  Message('note_on', channel=0, note=81, velocity=0, time=23),\n",
      "  Message('note_on', channel=0, note=80, velocity=66, time=1),\n",
      "  Message('note_on', channel=0, note=80, velocity=0, time=23),\n",
      "  Message('note_on', channel=0, note=83, velocity=66, time=1),\n",
      "  Message('note_on', channel=0, note=83, velocity=0, time=23),\n",
      "  Message('note_on', channel=0, note=81, velocity=66, time=1),\n",
      "  Message('note_on', channel=0, note=81, velocity=0, time=20),\n",
      "  Message('note_on', channel=0, note=81, velocity=66, time=28),\n",
      "  Message('note_on', channel=0, note=81, velocity=0, time=20),\n",
      "  Message('note_on', channel=0, note=81, velocity=73, time=220),\n",
      "  Message('note_on', channel=0, note=81, velocity=0, time=45),\n",
      "  Message('note_on', channel=0, note=82, velocity=73, time=3),\n",
      "  Message('note_on', channel=0, note=82, velocity=0, time=45),\n",
      "  Message('note_on', channel=0, note=83, velocity=73, time=3),\n",
      "  Message('note_on', channel=0, note=83, velocity=0, time=45),\n",
      "  Message('note_on', channel=0, note=75, velocity=73, time=3),\n",
      "  Message('note_on', channel=0, note=75, velocity=0, time=45),\n",
      "  Message('note_on', channel=0, note=76, velocity=73, time=195),\n",
      "  Message('note_on', channel=0, note=76, velocity=0, time=45),\n",
      "  Message('note_on', channel=0, note=78, velocity=73, time=3),\n",
      "  Message('note_on', channel=0, note=78, velocity=0, time=45),\n",
      "  Message('note_on', channel=0, note=79, velocity=73, time=3),\n",
      "  Message('note_on', channel=0, note=79, velocity=0, time=45),\n",
      "  Message('note_on', channel=0, note=70, velocity=73, time=3),\n",
      "  Message('note_on', channel=0, note=70, velocity=0, time=45),\n",
      "  Message('note_on', channel=0, note=55, velocity=66, time=99),\n",
      "  Message('note_on', channel=0, note=55, velocity=0, time=23),\n",
      "  Message('note_on', channel=0, note=61, velocity=66, time=1),\n",
      "  Message('note_on', channel=0, note=61, velocity=0, time=23),\n",
      "  Message('note_on', channel=0, note=64, velocity=66, time=1),\n",
      "  Message('note_on', channel=0, note=64, velocity=0, time=23),\n",
      "  Message('note_on', channel=0, note=61, velocity=66, time=1),\n",
      "  Message('note_on', channel=0, note=61, velocity=0, time=23),\n",
      "  Message('note_on', channel=0, note=64, velocity=66, time=1),\n",
      "  Message('note_on', channel=0, note=64, velocity=0, time=23),\n",
      "  Message('note_on', channel=0, note=61, velocity=66, time=1),\n",
      "  Message('note_on', channel=0, note=61, velocity=0, time=23),\n",
      "  Message('note_on', channel=0, note=64, velocity=66, time=1),\n",
      "  Message('note_on', channel=0, note=64, velocity=0, time=23),\n",
      "  Message('note_on', channel=0, note=61, velocity=66, time=1),\n",
      "  Message('note_on', channel=0, note=61, velocity=0, time=23),\n",
      "  Message('note_on', channel=0, note=55, velocity=66, time=1),\n",
      "  Message('note_on', channel=0, note=55, velocity=0, time=23),\n",
      "  Message('note_on', channel=0, note=61, velocity=66, time=1),\n",
      "  Message('note_on', channel=0, note=61, velocity=0, time=23),\n",
      "  Message('note_on', channel=0, note=64, velocity=66, time=1),\n",
      "  Message('note_on', channel=0, note=64, velocity=0, time=23),\n",
      "  Message('note_on', channel=0, note=61, velocity=66, time=1),\n",
      "  Message('note_on', channel=0, note=61, velocity=0, time=23),\n",
      "  Message('note_on', channel=0, note=64, velocity=66, time=1),\n",
      "  Message('note_on', channel=0, note=64, velocity=0, time=23),\n",
      "  Message('note_on', channel=0, note=61, velocity=66, time=1),\n",
      "  Message('note_on', channel=0, note=61, velocity=0, time=23),\n",
      "  Message('note_on', channel=0, note=64, velocity=66, time=1),\n",
      "  Message('note_on', channel=0, note=64, velocity=0, time=23),\n",
      "  Message('note_on', channel=0, note=61, velocity=66, time=1),\n",
      "  Message('note_on', channel=0, note=61, velocity=0, time=23),\n",
      "  Message('note_on', channel=0, note=55, velocity=66, time=1),\n",
      "  Message('note_on', channel=0, note=55, velocity=0, time=23),\n",
      "  Message('note_on', channel=0, note=61, velocity=66, time=1),\n",
      "  Message('note_on', channel=0, note=61, velocity=0, time=23),\n",
      "  Message('note_on', channel=0, note=64, velocity=66, time=1),\n",
      "  Message('note_on', channel=0, note=64, velocity=0, time=23),\n",
      "  Message('note_on', channel=0, note=61, velocity=66, time=1),\n",
      "  Message('note_on', channel=0, note=61, velocity=0, time=23),\n",
      "  Message('note_on', channel=0, note=64, velocity=66, time=1),\n",
      "  Message('note_on', channel=0, note=64, velocity=0, time=23),\n",
      "  Message('note_on', channel=0, note=61, velocity=66, time=1),\n",
      "  Message('note_on', channel=0, note=61, velocity=0, time=23),\n",
      "  Message('note_on', channel=0, note=64, velocity=66, time=1),\n",
      "  Message('note_on', channel=0, note=64, velocity=0, time=23),\n",
      "  Message('note_on', channel=0, note=61, velocity=66, time=1),\n",
      "  Message('note_on', channel=0, note=61, velocity=0, time=23),\n",
      "  Message('note_on', channel=0, note=55, velocity=66, time=1),\n",
      "  Message('note_on', channel=0, note=55, velocity=0, time=23),\n",
      "  Message('note_on', channel=0, note=61, velocity=66, time=1),\n",
      "  Message('note_on', channel=0, note=61, velocity=0, time=23),\n",
      "  Message('note_on', channel=0, note=64, velocity=66, time=1),\n",
      "  Message('note_on', channel=0, note=64, velocity=0, time=23),\n",
      "  Message('note_on', channel=0, note=61, velocity=66, time=1),\n",
      "  Message('note_on', channel=0, note=61, velocity=0, time=23),\n",
      "  Message('note_on', channel=0, note=64, velocity=66, time=1),\n",
      "  Message('note_on', channel=0, note=64, velocity=0, time=23),\n",
      "  Message('note_on', channel=0, note=61, velocity=66, time=1),\n",
      "  Message('note_on', channel=0, note=61, velocity=0, time=23),\n",
      "  Message('note_on', channel=0, note=64, velocity=66, time=1),\n",
      "  Message('note_on', channel=0, note=64, velocity=0, time=23),\n",
      "  Message('note_on', channel=0, note=61, velocity=66, time=1),\n",
      "  Message('note_on', channel=0, note=61, velocity=0, time=23),\n",
      "  Message('note_on', channel=0, note=55, velocity=66, time=1),\n",
      "  Message('note_on', channel=0, note=55, velocity=0, time=89),\n",
      "  Message('note_on', channel=0, note=86, velocity=66, time=247),\n",
      "  Message('note_on', channel=0, note=83, velocity=66, time=0),\n",
      "  Message('note_on', channel=0, note=86, velocity=0, time=20),\n",
      "  Message('note_on', channel=0, note=83, velocity=0, time=0),\n",
      "  Message('note_on', channel=0, note=85, velocity=66, time=28),\n",
      "  Message('note_on', channel=0, note=81, velocity=66, time=0),\n",
      "  Message('note_on', channel=0, note=85, velocity=0, time=20),\n",
      "  Message('note_on', channel=0, note=81, velocity=0, time=0),\n",
      "  Message('note_on', channel=0, note=83, velocity=66, time=28),\n",
      "  Message('note_on', channel=0, note=79, velocity=66, time=0),\n",
      "  Message('note_on', channel=0, note=83, velocity=0, time=20),\n",
      "  Message('note_on', channel=0, note=79, velocity=0, time=0),\n",
      "  Message('note_on', channel=0, note=81, velocity=66, time=28),\n",
      "  Message('note_on', channel=0, note=78, velocity=66, time=0),\n",
      "  Message('note_on', channel=0, note=81, velocity=0, time=20),\n",
      "  Message('note_on', channel=0, note=78, velocity=0, time=0),\n",
      "  Message('note_on', channel=0, note=83, velocity=66, time=28),\n",
      "  Message('note_on', channel=0, note=79, velocity=66, time=0),\n",
      "  Message('note_on', channel=0, note=83, velocity=0, time=20),\n",
      "  Message('note_on', channel=0, note=79, velocity=0, time=0),\n",
      "  Message('note_on', channel=0, note=81, velocity=66, time=28),\n",
      "  Message('note_on', channel=0, note=78, velocity=66, time=0),\n",
      "  Message('note_on', channel=0, note=81, velocity=0, time=20),\n",
      "  Message('note_on', channel=0, note=78, velocity=0, time=0),\n",
      "  Message('note_on', channel=0, note=79, velocity=66, time=28),\n",
      "  Message('note_on', channel=0, note=76, velocity=66, time=0),\n",
      "  Message('note_on', channel=0, note=79, velocity=0, time=20),\n",
      "  Message('note_on', channel=0, note=76, velocity=0, time=0),\n",
      "  Message('note_on', channel=0, note=78, velocity=66, time=28),\n",
      "  Message('note_on', channel=0, note=74, velocity=66, time=0),\n",
      "  Message('note_on', channel=0, note=78, velocity=0, time=20),\n",
      "  Message('note_on', channel=0, note=74, velocity=0, time=0),\n",
      "  Message('note_on', channel=0, note=76, velocity=66, time=28),\n",
      "  Message('note_on', channel=0, note=73, velocity=66, time=0),\n",
      "  Message('note_on', channel=0, note=76, velocity=0, time=20),\n",
      "  Message('note_on', channel=0, note=73, velocity=0, time=0),\n",
      "  Message('note_on', channel=0, note=86, velocity=87, time=28),\n",
      "  Message('note_on', channel=0, note=81, velocity=87, time=0),\n",
      "  Message('note_on', channel=0, note=78, velocity=87, time=0),\n",
      "  Message('note_on', channel=0, note=74, velocity=87, time=0),\n",
      "  Message('note_on', channel=0, note=86, velocity=0, time=177),\n",
      "  Message('note_on', channel=0, note=81, velocity=0, time=0),\n",
      "  Message('note_on', channel=0, note=78, velocity=0, time=0),\n",
      "  Message('note_on', channel=0, note=74, velocity=0, time=0),\n",
      "  Message('note_on', channel=0, note=81, velocity=87, time=15),\n",
      "  Message('note_on', channel=0, note=81, velocity=0, time=177),\n",
      "  Message('note_on', channel=0, note=79, velocity=87, time=15),\n",
      "  Message('note_on', channel=0, note=79, velocity=0, time=18),\n",
      "  Message('note_on', channel=0, note=78, velocity=87, time=0),\n",
      "  Message('note_on', channel=0, note=78, velocity=0, time=18),\n",
      "  Message('note_on', channel=0, note=79, velocity=87, time=0),\n",
      "  Message('note_on', channel=0, note=79, velocity=0, time=18),\n",
      "  Message('note_on', channel=0, note=78, velocity=87, time=0),\n",
      "  Message('note_on', channel=0, note=78, velocity=0, time=18),\n",
      "  Message('note_on', channel=0, note=79, velocity=87, time=0),\n",
      "  Message('note_on', channel=0, note=79, velocity=0, time=18),\n",
      "  Message('note_on', channel=0, note=78, velocity=87, time=0),\n",
      "  Message('note_on', channel=0, note=78, velocity=0, time=18),\n",
      "  Message('note_on', channel=0, note=79, velocity=87, time=0),\n",
      "  Message('note_on', channel=0, note=79, velocity=0, time=18),\n",
      "  Message('note_on', channel=0, note=78, velocity=87, time=0),\n",
      "  Message('note_on', channel=0, note=78, velocity=0, time=7),\n",
      "  Message('note_on', channel=0, note=76, velocity=87, time=11),\n",
      "  Message('note_on', channel=0, note=76, velocity=0, time=23),\n",
      "  Message('note_on', channel=0, note=74, velocity=87, time=1),\n",
      "  Message('note_on', channel=0, note=74, velocity=0, time=23),\n",
      "  Message('note_on', channel=0, note=81, velocity=87, time=1),\n",
      "  Message('note_on', channel=0, note=81, velocity=0, time=89),\n",
      "  Message('note_on', channel=0, note=69, velocity=87, time=79),\n",
      "  Message('note_on', channel=0, note=69, velocity=0, time=8),\n",
      "  Message('note_on', channel=0, note=71, velocity=87, time=0),\n",
      "  Message('note_on', channel=0, note=71, velocity=0, time=8),\n",
      "  Message('note_on', channel=0, note=73, velocity=87, time=0),\n",
      "  Message('note_on', channel=0, note=73, velocity=0, time=8),\n",
      "  Message('note_on', channel=0, note=74, velocity=87, time=0),\n",
      "  Message('note_on', channel=0, note=74, velocity=0, time=89),\n",
      "  Message('note_on', channel=0, note=69, velocity=87, time=7),\n",
      "  Message('note_on', channel=0, note=69, velocity=0, time=67),\n",
      "  Message('note_on', channel=0, note=74, velocity=87, time=5),\n",
      "  Message('note_on', channel=0, note=74, velocity=0, time=23),\n",
      "  Message('note_on', channel=0, note=76, velocity=87, time=1),\n",
      "  Message('note_on', channel=0, note=76, velocity=0, time=89),\n",
      "  Message('note_on', channel=0, note=69, velocity=87, time=7),\n",
      "  Message('note_on', channel=0, note=69, velocity=0, time=67),\n",
      "  Message('note_on', channel=0, note=76, velocity=87, time=5),\n",
      "  Message('note_on', channel=0, note=76, velocity=0, time=23),\n",
      "  Message('note_on', channel=0, note=78, velocity=87, time=1),\n",
      "  Message('note_on', channel=0, note=78, velocity=0, time=89),\n",
      "  Message('note_on', channel=0, note=74, velocity=87, time=7),\n",
      "  Message('note_on', channel=0, note=74, velocity=0, time=67),\n",
      "  Message('note_on', channel=0, note=78, velocity=87, time=5),\n",
      "  Message('note_on', channel=0, note=78, velocity=0, time=23),\n",
      "  Message('note_on', channel=0, note=81, velocity=87, time=1),\n",
      "  Message('note_on', channel=0, note=81, velocity=0, time=89),\n",
      "  Message('note_on', channel=0, note=74, velocity=82, time=103),\n",
      "  Message('note_on', channel=0, note=66, velocity=82, time=0),\n",
      "  Message('note_on', channel=0, note=74, velocity=0, time=20),\n",
      "  Message('note_on', channel=0, note=66, velocity=0, time=0),\n",
      "  Message('note_on', channel=0, note=74, velocity=98, time=76),\n",
      "  Message('note_on', channel=0, note=66, velocity=98, time=0),\n",
      "  Message('note_on', channel=0, note=74, velocity=0, time=192),\n",
      "  Message('note_on', channel=0, note=66, velocity=0, time=0),\n",
      "  Message('note_on', channel=0, note=78, velocity=87, time=0),\n",
      "  Message('note_on', channel=0, note=69, velocity=87, time=0),\n",
      "  Message('note_on', channel=0, note=78, velocity=0, time=89),\n",
      "  Message('note_on', channel=0, note=69, velocity=0, time=0),\n",
      "  Message('note_on', channel=0, note=78, velocity=85, time=7),\n",
      "  Message('note_on', channel=0, note=78, velocity=0, time=45),\n",
      "  Message('note_on', channel=0, note=76, velocity=84, time=3),\n",
      "  Message('note_on', channel=0, note=76, velocity=0, time=45),\n",
      "  Message('note_on', channel=0, note=74, velocity=83, time=3),\n",
      "  Message('note_on', channel=0, note=74, velocity=0, time=89),\n",
      "  Message('note_on', channel=0, note=78, velocity=82, time=199),\n",
      "  Message('note_on', channel=0, note=74, velocity=82, time=0),\n",
      "  Message('note_on', channel=0, note=78, velocity=0, time=20),\n",
      "  Message('note_on', channel=0, note=74, velocity=0, time=0),\n",
      "  Message('note_on', channel=0, note=78, velocity=98, time=76),\n",
      "  Message('note_on', channel=0, note=74, velocity=98, time=0),\n",
      "  Message('note_on', channel=0, note=74, velocity=0, time=192),\n",
      "  Message('note_on', channel=0, note=81, velocity=87, time=0),\n",
      "  Message('note_on', channel=0, note=81, velocity=0, time=89),\n",
      "  Message('note_on', channel=0, note=78, velocity=0, time=0),\n",
      "  Message('note_on', channel=0, note=81, velocity=85, time=7),\n",
      "  Message('note_on', channel=0, note=78, velocity=85, time=0),\n",
      "  Message('note_on', channel=0, note=81, velocity=0, time=45),\n",
      "  Message('note_on', channel=0, note=78, velocity=0, time=0),\n",
      "  Message('note_on', channel=0, note=79, velocity=84, time=3),\n",
      "  Message('note_on', channel=0, note=76, velocity=84, time=0),\n",
      "  Message('note_on', channel=0, note=79, velocity=0, time=45),\n",
      "  Message('note_on', channel=0, note=76, velocity=0, time=0),\n",
      "  Message('note_on', channel=0, note=78, velocity=83, time=3),\n",
      "  Message('note_on', channel=0, note=74, velocity=83, time=0),\n",
      "  Message('note_on', channel=0, note=78, velocity=0, time=89),\n",
      "  Message('note_on', channel=0, note=74, velocity=0, time=0),\n",
      "  Message('note_on', channel=0, note=69, velocity=82, time=223),\n",
      "  Message('note_on', channel=0, note=69, velocity=0, time=23),\n",
      "  Message('note_on', channel=0, note=71, velocity=82, time=1),\n",
      "  Message('note_on', channel=0, note=71, velocity=0, time=23),\n",
      "  Message('note_on', channel=0, note=73, velocity=82, time=1),\n",
      "  Message('note_on', channel=0, note=73, velocity=0, time=23),\n",
      "  Message('note_on', channel=0, note=74, velocity=83, time=1),\n",
      "  Message('note_on', channel=0, note=74, velocity=0, time=23),\n",
      "  Message('note_on', channel=0, note=76, velocity=83, time=1),\n",
      "  Message('note_on', channel=0, note=76, velocity=0, time=23),\n",
      "  Message('note_on', channel=0, note=78, velocity=83, time=1),\n",
      "  Message('note_on', channel=0, note=78, velocity=0, time=23),\n",
      "  Message('note_on', channel=0, note=79, velocity=84, time=1),\n",
      "  Message('note_on', channel=0, note=79, velocity=0, time=23),\n",
      "  Message('note_on', channel=0, note=81, velocity=84, time=1),\n",
      "  Message('note_on', channel=0, note=81, velocity=0, time=23),\n",
      "  Message('note_on', channel=0, note=83, velocity=85, time=1),\n",
      "  Message('note_on', channel=0, note=83, velocity=0, time=23),\n",
      "  Message('note_on', channel=0, note=85, velocity=85, time=1),\n",
      "  Message('note_on', channel=0, note=85, velocity=0, time=23),\n",
      "  Message('note_on', channel=0, note=86, velocity=85, time=1),\n",
      "  Message('note_on', channel=0, note=86, velocity=0, time=23),\n",
      "  Message('note_on', channel=0, note=81, velocity=86, time=1),\n",
      "  Message('note_on', channel=0, note=81, velocity=0, time=45),\n",
      "  Message('note_on', channel=0, note=69, velocity=82, time=75),\n",
      "  Message('note_on', channel=0, note=69, velocity=0, time=23),\n",
      "  Message('note_on', channel=0, note=71, velocity=82, time=1),\n",
      "  Message('note_on', channel=0, note=71, velocity=0, time=23),\n",
      "  Message('note_on', channel=0, note=73, velocity=82, time=1),\n",
      "  Message('note_on', channel=0, note=73, velocity=0, time=23),\n",
      "  Message('note_on', channel=0, note=74, velocity=83, time=1),\n",
      "  Message('note_on', channel=0, note=74, velocity=0, time=23),\n",
      "  Message('note_on', channel=0, note=76, velocity=83, time=1),\n",
      "  Message('note_on', channel=0, note=76, velocity=0, time=23),\n",
      "  Message('note_on', channel=0, note=78, velocity=83, time=1),\n",
      "  Message('note_on', channel=0, note=78, velocity=0, time=23),\n",
      "  Message('note_on', channel=0, note=80, velocity=84, time=1),\n",
      "  Message('note_on', channel=0, note=80, velocity=0, time=23),\n",
      "  Message('note_on', channel=0, note=81, velocity=84, time=1),\n",
      "  Message('note_on', channel=0, note=81, velocity=0, time=23),\n",
      "  Message('note_on', channel=0, note=85, velocity=85, time=1),\n",
      "  Message('note_on', channel=0, note=85, velocity=0, time=23),\n",
      "  Message('note_on', channel=0, note=86, velocity=85, time=1),\n",
      "  Message('note_on', channel=0, note=86, velocity=0, time=23),\n",
      "  Message('note_on', channel=0, note=88, velocity=85, time=1),\n",
      "  Message('note_on', channel=0, note=88, velocity=0, time=23),\n",
      "  Message('note_on', channel=0, note=81, velocity=86, time=1),\n",
      "  Message('note_on', channel=0, note=81, velocity=0, time=45),\n",
      "  Message('note_on', channel=0, note=69, velocity=82, time=75),\n",
      "  Message('note_on', channel=0, note=69, velocity=0, time=23),\n",
      "  Message('note_on', channel=0, note=71, velocity=82, time=1),\n",
      "  Message('note_on', channel=0, note=71, velocity=0, time=23),\n",
      "  Message('note_on', channel=0, note=73, velocity=82, time=1),\n",
      "  Message('note_on', channel=0, note=73, velocity=0, time=23),\n",
      "  Message('note_on', channel=0, note=74, velocity=83, time=1),\n",
      "  Message('note_on', channel=0, note=74, velocity=0, time=23),\n",
      "  Message('note_on', channel=0, note=76, velocity=83, time=1),\n",
      "  Message('note_on', channel=0, note=76, velocity=0, time=23),\n",
      "  Message('note_on', channel=0, note=78, velocity=83, time=1),\n",
      "  Message('note_on', channel=0, note=78, velocity=0, time=23),\n",
      "  Message('note_on', channel=0, note=79, velocity=84, time=1),\n",
      "  Message('note_on', channel=0, note=79, velocity=0, time=23),\n",
      "  Message('note_on', channel=0, note=81, velocity=84, time=1),\n",
      "  Message('note_on', channel=0, note=81, velocity=0, time=23),\n",
      "  Message('note_on', channel=0, note=83, velocity=85, time=1),\n",
      "  Message('note_on', channel=0, note=83, velocity=0, time=23),\n",
      "  Message('note_on', channel=0, note=85, velocity=85, time=1),\n",
      "  Message('note_on', channel=0, note=85, velocity=0, time=23),\n",
      "  Message('note_on', channel=0, note=86, velocity=85, time=1),\n",
      "  Message('note_on', channel=0, note=86, velocity=0, time=23),\n",
      "  Message('note_on', channel=0, note=81, velocity=86, time=1),\n",
      "  Message('note_on', channel=0, note=81, velocity=0, time=45),\n",
      "  Message('note_on', channel=0, note=83, velocity=87, time=51),\n",
      "  Message('note_on', channel=0, note=83, velocity=0, time=23),\n",
      "  Message('note_on', channel=0, note=86, velocity=86, time=1),\n",
      "  Message('note_on', channel=0, note=86, velocity=0, time=23),\n",
      "  Message('note_on', channel=0, note=83, velocity=86, time=1),\n",
      "  Message('note_on', channel=0, note=83, velocity=0, time=23),\n",
      "  Message('note_on', channel=0, note=86, velocity=86, time=1),\n",
      "  Message('note_on', channel=0, note=86, velocity=0, time=23),\n",
      "  Message('note_on', channel=0, note=76, velocity=85, time=1),\n",
      "  Message('note_on', channel=0, note=76, velocity=0, time=23),\n",
      "  Message('note_on', channel=0, note=79, velocity=85, time=1),\n",
      "  Message('note_on', channel=0, note=79, velocity=0, time=23),\n",
      "  Message('note_on', channel=0, note=76, velocity=85, time=1),\n",
      "  Message('note_on', channel=0, note=76, velocity=0, time=23),\n",
      "  Message('note_on', channel=0, note=79, velocity=84, time=1),\n",
      "  Message('note_on', channel=0, note=79, velocity=0, time=23),\n",
      "  Message('note_on', channel=0, note=78, velocity=84, time=1),\n",
      "  Message('note_on', channel=0, note=78, velocity=0, time=23),\n",
      "  Message('note_on', channel=0, note=81, velocity=84, time=1),\n",
      "  Message('note_on', channel=0, note=81, velocity=0, time=23),\n",
      "  Message('note_on', channel=0, note=78, velocity=83, time=1),\n",
      "  Message('note_on', channel=0, note=78, velocity=0, time=23),\n",
      "  Message('note_on', channel=0, note=81, velocity=83, time=1),\n",
      "  Message('note_on', channel=0, note=81, velocity=0, time=23),\n",
      "  Message('note_on', channel=0, note=73, velocity=83, time=1),\n",
      "  Message('note_on', channel=0, note=73, velocity=0, time=23),\n",
      "  Message('note_on', channel=0, note=76, velocity=82, time=1),\n",
      "  Message('note_on', channel=0, note=76, velocity=0, time=23),\n",
      "  Message('note_on', channel=0, note=73, velocity=82, time=1),\n",
      "  Message('note_on', channel=0, note=73, velocity=0, time=23),\n",
      "  Message('note_on', channel=0, note=76, velocity=82, time=1),\n",
      "  Message('note_on', channel=0, note=76, velocity=0, time=23),\n",
      "  Message('note_on', channel=0, note=74, velocity=82, time=1),\n",
      "  Message('note_on', channel=0, note=74, velocity=0, time=89),\n",
      "  Message('note_on', channel=0, note=81, velocity=82, time=199),\n",
      "  Message('note_on', channel=0, note=81, velocity=0, time=23),\n",
      "  Message('note_on', channel=0, note=83, velocity=82, time=1),\n",
      "  Message('note_on', channel=0, note=83, velocity=0, time=23),\n",
      "  Message('note_on', channel=0, note=85, velocity=82, time=1),\n",
      "  Message('note_on', channel=0, note=85, velocity=0, time=23),\n",
      "  Message('note_on', channel=0, note=86, velocity=82, time=1),\n",
      "  Message('note_on', channel=0, note=86, velocity=0, time=23),\n",
      "  Message('note_on', channel=0, note=81, velocity=82, time=1),\n",
      "  Message('note_on', channel=0, note=81, velocity=0, time=89),\n",
      "  Message('note_on', channel=0, note=81, velocity=82, time=199),\n",
      "  Message('note_on', channel=0, note=81, velocity=0, time=23),\n",
      "  Message('note_on', channel=0, note=85, velocity=82, time=1),\n",
      "  Message('note_on', channel=0, note=85, velocity=0, time=23),\n",
      "  Message('note_on', channel=0, note=86, velocity=82, time=1),\n",
      "  Message('note_on', channel=0, note=86, velocity=0, time=23),\n",
      "  Message('note_on', channel=0, note=88, velocity=82, time=1),\n",
      "  Message('note_on', channel=0, note=88, velocity=0, time=23),\n",
      "  Message('note_on', channel=0, note=81, velocity=82, time=1),\n",
      "  Message('note_on', channel=0, note=81, velocity=0, time=89),\n",
      "  Message('note_on', channel=0, note=81, velocity=82, time=199),\n",
      "  Message('note_on', channel=0, note=81, velocity=0, time=23),\n",
      "  Message('note_on', channel=0, note=83, velocity=83, time=1),\n",
      "  Message('note_on', channel=0, note=83, velocity=0, time=23),\n",
      "  Message('note_on', channel=0, note=85, velocity=84, time=1),\n",
      "  Message('note_on', channel=0, note=85, velocity=0, time=23),\n",
      "  Message('note_on', channel=0, note=86, velocity=85, time=1),\n",
      "  Message('note_on', channel=0, note=86, velocity=0, time=23),\n",
      "  Message('note_on', channel=0, note=83, velocity=87, time=1),\n",
      "  Message('note_on', channel=0, note=83, velocity=0, time=89),\n",
      "  Message('note_on', channel=0, note=83, velocity=87, time=199),\n",
      "  Message('note_on', channel=0, note=83, velocity=0, time=23),\n",
      "  Message('note_on', channel=0, note=84, velocity=87, time=1),\n",
      "  Message('note_on', channel=0, note=84, velocity=0, time=23),\n",
      "  Message('note_on', channel=0, note=85, velocity=87, time=1),\n",
      "  Message('note_on', channel=0, note=85, velocity=0, time=23),\n",
      "  Message('note_on', channel=0, note=86, velocity=87, time=1),\n",
      "  Message('note_on', channel=0, note=86, velocity=0, time=23),\n",
      "  Message('note_on', channel=0, note=84, velocity=87, time=1),\n",
      "  Message('note_on', channel=0, note=84, velocity=0, time=89),\n",
      "  Message('note_on', channel=0, note=84, velocity=87, time=199),\n",
      "  Message('note_on', channel=0, note=84, velocity=0, time=23),\n",
      "  Message('note_on', channel=0, note=81, velocity=87, time=1),\n",
      "  Message('note_on', channel=0, note=81, velocity=0, time=23),\n",
      "  Message('note_on', channel=0, note=84, velocity=87, time=1),\n",
      "  Message('note_on', channel=0, note=84, velocity=0, time=23),\n",
      "  Message('note_on', channel=0, note=81, velocity=87, time=1),\n",
      "  Message('note_on', channel=0, note=81, velocity=0, time=23),\n",
      "  Message('note_on', channel=0, note=83, velocity=87, time=1),\n",
      "  Message('note_on', channel=0, note=83, velocity=0, time=20),\n",
      "  Message('note_on', channel=0, note=86, velocity=87, time=76),\n",
      "  Message('note_on', channel=0, note=86, velocity=0, time=23),\n",
      "  Message('note_on', channel=0, note=83, velocity=87, time=1),\n",
      "  Message('note_on', channel=0, note=83, velocity=0, time=23),\n",
      "  Message('note_on', channel=0, note=79, velocity=87, time=1),\n",
      "  Message('note_on', channel=0, note=79, velocity=0, time=23),\n",
      "  Message('note_on', channel=0, note=74, velocity=87, time=1),\n",
      "  Message('note_on', channel=0, note=74, velocity=0, time=23),\n",
      "  Message('note_on', channel=0, note=83, velocity=87, time=1),\n",
      "  Message('note_on', channel=0, note=83, velocity=0, time=23),\n",
      "  Message('note_on', channel=0, note=79, velocity=87, time=1),\n",
      "  Message('note_on', channel=0, note=79, velocity=0, time=23),\n",
      "  Message('note_on', channel=0, note=74, velocity=87, time=1),\n",
      "  Message('note_on', channel=0, note=74, velocity=0, time=23),\n",
      "  Message('note_on', channel=0, note=71, velocity=87, time=1),\n",
      "  Message('note_on', channel=0, note=71, velocity=0, time=23),\n",
      "  Message('note_on', channel=0, note=79, velocity=87, time=1),\n",
      "  Message('note_on', channel=0, note=79, velocity=0, time=23),\n",
      "  Message('note_on', channel=0, note=74, velocity=87, time=1),\n",
      "  Message('note_on', channel=0, note=74, velocity=0, time=23),\n",
      "  Message('note_on', channel=0, note=71, velocity=87, time=1),\n",
      "  Message('note_on', channel=0, note=71, velocity=0, time=23),\n",
      "  Message('note_on', channel=0, note=67, velocity=87, time=1),\n",
      "  Message('note_on', channel=0, note=67, velocity=0, time=23),\n",
      "  Message('note_on', channel=0, note=71, velocity=87, time=1),\n",
      "  Message('note_on', channel=0, note=71, velocity=0, time=23),\n",
      "  Message('note_on', channel=0, note=67, velocity=87, time=1),\n",
      "  Message('note_on', channel=0, note=67, velocity=0, time=23),\n",
      "  Message('note_on', channel=0, note=62, velocity=87, time=1),\n",
      "  Message('note_on', channel=0, note=62, velocity=0, time=23),\n",
      "  Message('note_on', channel=0, note=59, velocity=87, time=1),\n",
      "  Message('note_on', channel=0, note=59, velocity=0, time=23),\n",
      "  Message('note_on', channel=0, note=58, velocity=87, time=1),\n",
      "  Message('note_on', channel=0, note=58, velocity=0, time=23),\n",
      "  Message('note_on', channel=0, note=59, velocity=87, time=1),\n",
      "  Message('note_on', channel=0, note=59, velocity=0, time=23),\n",
      "  Message('note_on', channel=0, note=58, velocity=87, time=1),\n",
      "  Message('note_on', channel=0, note=58, velocity=0, time=23),\n",
      "  Message('note_on', channel=0, note=59, velocity=87, time=1),\n",
      "  Message('note_on', channel=0, note=59, velocity=0, time=23),\n",
      "  Message('note_on', channel=0, note=58, velocity=87, time=1),\n",
      "  Message('note_on', channel=0, note=58, velocity=0, time=23),\n",
      "  Message('note_on', channel=0, note=59, velocity=87, time=1),\n",
      "  Message('note_on', channel=0, note=59, velocity=0, time=23),\n",
      "  Message('note_on', channel=0, note=58, velocity=87, time=1),\n",
      "  Message('note_on', channel=0, note=58, velocity=0, time=23),\n",
      "  Message('note_on', channel=0, note=59, velocity=87, time=1),\n",
      "  Message('note_on', channel=0, note=59, velocity=0, time=23),\n",
      "  Message('note_on', channel=0, note=58, velocity=87, time=1),\n",
      "  Message('note_on', channel=0, note=58, velocity=0, time=23),\n",
      "  Message('note_on', channel=0, note=59, velocity=87, time=1),\n",
      "  Message('note_on', channel=0, note=59, velocity=0, time=23),\n",
      "  Message('note_on', channel=0, note=58, velocity=87, time=1),\n",
      "  Message('note_on', channel=0, note=58, velocity=0, time=23),\n",
      "  Message('note_on', channel=0, note=59, velocity=87, time=1),\n",
      "  Message('note_on', channel=0, note=59, velocity=0, time=23),\n",
      "  Message('note_on', channel=0, note=55, velocity=87, time=1),\n",
      "  Message('note_on', channel=0, note=55, velocity=0, time=45),\n",
      "  Message('note_on', channel=0, note=83, velocity=87, time=51),\n",
      "  Message('note_on', channel=0, note=83, velocity=0, time=23),\n",
      "  Message('note_on', channel=0, note=79, velocity=87, time=1),\n",
      "  Message('note_on', channel=0, note=79, velocity=0, time=23),\n",
      "  Message('note_on', channel=0, note=76, velocity=87, time=1),\n",
      "  Message('note_on', channel=0, note=76, velocity=0, time=23),\n",
      "  Message('note_on', channel=0, note=71, velocity=87, time=1),\n",
      "  Message('note_on', channel=0, note=71, velocity=0, time=23),\n",
      "  Message('note_on', channel=0, note=79, velocity=87, time=1),\n",
      "  Message('note_on', channel=0, note=79, velocity=0, time=23),\n",
      "  Message('note_on', channel=0, note=76, velocity=87, time=1),\n",
      "  Message('note_on', channel=0, note=76, velocity=0, time=23),\n",
      "  Message('note_on', channel=0, note=71, velocity=87, time=1),\n",
      "  Message('note_on', channel=0, note=71, velocity=0, time=23),\n",
      "  Message('note_on', channel=0, note=67, velocity=87, time=1),\n",
      "  Message('note_on', channel=0, note=67, velocity=0, time=23),\n",
      "  Message('note_on', channel=0, note=76, velocity=87, time=1),\n",
      "  Message('note_on', channel=0, note=76, velocity=0, time=23),\n",
      "  Message('note_on', channel=0, note=71, velocity=87, time=1),\n",
      "  Message('note_on', channel=0, note=71, velocity=0, time=23),\n",
      "  Message('note_on', channel=0, note=67, velocity=87, time=1),\n",
      "  Message('note_on', channel=0, note=67, velocity=0, time=23),\n",
      "  Message('note_on', channel=0, note=64, velocity=87, time=1),\n",
      "  Message('note_on', channel=0, note=64, velocity=0, time=23),\n",
      "  Message('note_on', channel=0, note=67, velocity=87, time=1),\n",
      "  Message('note_on', channel=0, note=67, velocity=0, time=23),\n",
      "  Message('note_on', channel=0, note=64, velocity=87, time=1),\n",
      "  Message('note_on', channel=0, note=64, velocity=0, time=23),\n",
      "  Message('note_on', channel=0, note=59, velocity=87, time=1),\n",
      "  Message('note_on', channel=0, note=59, velocity=0, time=23),\n",
      "  Message('note_on', channel=0, note=55, velocity=87, time=1),\n",
      "  Message('note_on', channel=0, note=55, velocity=0, time=23),\n",
      "  Message('note_on', channel=0, note=54, velocity=87, time=1),\n",
      "  Message('note_on', channel=0, note=54, velocity=0, time=23),\n",
      "  Message('note_on', channel=0, note=55, velocity=87, time=1),\n",
      "  Message('note_on', channel=0, note=55, velocity=0, time=23),\n",
      "  Message('note_on', channel=0, note=54, velocity=87, time=1),\n",
      "  Message('note_on', channel=0, note=54, velocity=0, time=23),\n",
      "  Message('note_on', channel=0, note=55, velocity=87, time=1),\n",
      "  Message('note_on', channel=0, note=55, velocity=0, time=23),\n",
      "  Message('note_on', channel=0, note=54, velocity=87, time=1),\n",
      "  Message('note_on', channel=0, note=54, velocity=0, time=23),\n",
      "  Message('note_on', channel=0, note=55, velocity=87, time=1),\n",
      "  Message('note_on', channel=0, note=55, velocity=0, time=23),\n",
      "  Message('note_on', channel=0, note=54, velocity=87, time=1),\n",
      "  Message('note_on', channel=0, note=54, velocity=0, time=23),\n",
      "  Message('note_on', channel=0, note=55, velocity=87, time=1),\n",
      "  Message('note_on', channel=0, note=55, velocity=0, time=23),\n",
      "  Message('note_on', channel=0, note=54, velocity=87, time=1),\n",
      "  Message('note_on', channel=0, note=54, velocity=0, time=23),\n",
      "  Message('note_on', channel=0, note=55, velocity=87, time=1),\n",
      "  Message('note_on', channel=0, note=55, velocity=0, time=23),\n",
      "  Message('note_on', channel=0, note=54, velocity=87, time=1),\n",
      "  Message('note_on', channel=0, note=54, velocity=0, time=23),\n",
      "  Message('note_on', channel=0, note=55, velocity=87, time=1),\n",
      "  Message('note_on', channel=0, note=55, velocity=0, time=23),\n",
      "  Message('note_on', channel=0, note=52, velocity=87, time=1),\n",
      "  Message('note_on', channel=0, note=52, velocity=0, time=45),\n",
      "  Message('note_on', channel=0, note=79, velocity=87, time=51),\n",
      "  Message('note_on', channel=0, note=79, velocity=0, time=23),\n",
      "  Message('note_on', channel=0, note=76, velocity=87, time=1),\n",
      "  Message('note_on', channel=0, note=76, velocity=0, time=23),\n",
      "  Message('note_on', channel=0, note=73, velocity=87, time=1),\n",
      "  Message('note_on', channel=0, note=73, velocity=0, time=23),\n",
      "  Message('note_on', channel=0, note=67, velocity=87, time=1),\n",
      "  Message('note_on', channel=0, note=67, velocity=0, time=23),\n",
      "  Message('note_on', channel=0, note=76, velocity=87, time=1),\n",
      "  Message('note_on', channel=0, note=76, velocity=0, time=23),\n",
      "  Message('note_on', channel=0, note=73, velocity=87, time=1),\n",
      "  Message('note_on', channel=0, note=73, velocity=0, time=23),\n",
      "  Message('note_on', channel=0, note=67, velocity=87, time=1),\n",
      "  Message('note_on', channel=0, note=67, velocity=0, time=23),\n",
      "  Message('note_on', channel=0, note=64, velocity=87, time=1),\n",
      "  Message('note_on', channel=0, note=64, velocity=0, time=23),\n",
      "  Message('note_on', channel=0, note=73, velocity=87, time=1),\n",
      "  Message('note_on', channel=0, note=73, velocity=0, time=23),\n",
      "  Message('note_on', channel=0, note=67, velocity=87, time=1),\n",
      "  Message('note_on', channel=0, note=67, velocity=0, time=23),\n",
      "  Message('note_on', channel=0, note=64, velocity=87, time=1),\n",
      "  Message('note_on', channel=0, note=64, velocity=0, time=23),\n",
      "  Message('note_on', channel=0, note=61, velocity=87, time=1),\n",
      "  Message('note_on', channel=0, note=61, velocity=0, time=23),\n",
      "  Message('note_on', channel=0, note=64, velocity=87, time=1),\n",
      "  Message('note_on', channel=0, note=64, velocity=0, time=23),\n",
      "  Message('note_on', channel=0, note=61, velocity=87, time=1),\n",
      "  Message('note_on', channel=0, note=61, velocity=0, time=23),\n",
      "  Message('note_on', channel=0, note=55, velocity=87, time=1),\n",
      "  Message('note_on', channel=0, note=55, velocity=0, time=23),\n",
      "  Message('note_on', channel=0, note=52, velocity=87, time=1),\n",
      "  Message('note_on', channel=0, note=52, velocity=0, time=23),\n",
      "  Message('note_on', channel=0, note=51, velocity=87, time=1),\n",
      "  Message('note_on', channel=0, note=51, velocity=0, time=23),\n",
      "  Message('note_on', channel=0, note=52, velocity=87, time=1),\n",
      "  Message('note_on', channel=0, note=52, velocity=0, time=23),\n",
      "  Message('note_on', channel=0, note=51, velocity=87, time=1),\n",
      "  Message('note_on', channel=0, note=51, velocity=0, time=23),\n",
      "  Message('note_on', channel=0, note=52, velocity=87, time=1),\n",
      "  Message('note_on', channel=0, note=52, velocity=0, time=23),\n",
      "  Message('note_on', channel=0, note=51, velocity=87, time=1),\n",
      "  Message('note_on', channel=0, note=51, velocity=0, time=23),\n",
      "  Message('note_on', channel=0, note=52, velocity=87, time=1),\n",
      "  Message('note_on', channel=0, note=52, velocity=0, time=23),\n",
      "  Message('note_on', channel=0, note=51, velocity=87, time=1),\n",
      "  Message('note_on', channel=0, note=51, velocity=0, time=23),\n",
      "  Message('note_on', channel=0, note=52, velocity=87, time=1),\n",
      "  Message('note_on', channel=0, note=52, velocity=0, time=23),\n",
      "  Message('note_on', channel=0, note=51, velocity=87, time=1),\n",
      "  Message('note_on', channel=0, note=51, velocity=0, time=23),\n",
      "  Message('note_on', channel=0, note=52, velocity=87, time=1),\n",
      "  Message('note_on', channel=0, note=52, velocity=0, time=23),\n",
      "  Message('note_on', channel=0, note=51, velocity=87, time=1),\n",
      "  Message('note_on', channel=0, note=51, velocity=0, time=23),\n",
      "  Message('note_on', channel=0, note=52, velocity=87, time=1),\n",
      "  Message('note_on', channel=0, note=52, velocity=0, time=23),\n",
      "  Message('note_on', channel=0, note=50, velocity=87, time=1),\n",
      "  Message('note_on', channel=0, note=50, velocity=0, time=45),\n",
      "  Message('note_on', channel=0, note=52, velocity=87, time=3),\n",
      "  Message('note_on', channel=0, note=52, velocity=0, time=23),\n",
      "  Message('note_on', channel=0, note=54, velocity=87, time=1),\n",
      "  Message('note_on', channel=0, note=54, velocity=0, time=23),\n",
      "  Message('note_on', channel=0, note=59, velocity=87, time=1),\n",
      "  Message('note_on', channel=0, note=59, velocity=0, time=23),\n",
      "  Message('note_on', channel=0, note=61, velocity=87, time=1),\n",
      "  Message('note_on', channel=0, note=61, velocity=0, time=23),\n",
      "  Message('note_on', channel=0, note=62, velocity=87, time=1),\n",
      "  Message('note_on', channel=0, note=62, velocity=0, time=23),\n",
      "  Message('note_on', channel=0, note=64, velocity=87, time=1),\n",
      "  Message('note_on', channel=0, note=64, velocity=0, time=23),\n",
      "  Message('note_on', channel=0, note=66, velocity=87, time=1),\n",
      "  Message('note_on', channel=0, note=66, velocity=0, time=23),\n",
      "  Message('note_on', channel=0, note=67, velocity=87, time=1),\n",
      "  Message('note_on', channel=0, note=67, velocity=0, time=23),\n",
      "  Message('note_on', channel=0, note=69, velocity=87, time=1),\n",
      "  Message('note_on', channel=0, note=69, velocity=0, time=23),\n",
      "  Message('note_on', channel=0, note=71, velocity=87, time=1),\n",
      "  Message('note_on', channel=0, note=71, velocity=0, time=23),\n",
      "  Message('note_on', channel=0, note=73, velocity=87, time=1),\n",
      "  Message('note_on', channel=0, note=73, velocity=0, time=23),\n",
      "  Message('note_on', channel=0, note=74, velocity=87, time=1),\n",
      "  Message('note_on', channel=0, note=74, velocity=0, time=23),\n",
      "  Message('note_on', channel=0, note=76, velocity=87, time=1),\n",
      "  Message('note_on', channel=0, note=76, velocity=0, time=23),\n",
      "  Message('note_on', channel=0, note=78, velocity=87, time=1),\n",
      "  Message('note_on', channel=0, note=78, velocity=0, time=23),\n",
      "  Message('note_on', channel=0, note=80, velocity=87, time=1),\n",
      "  Message('note_on', channel=0, note=74, velocity=87, time=0),\n",
      "  Message('note_on', channel=0, note=80, velocity=0, time=89),\n",
      "  Message('note_on', channel=0, note=74, velocity=0, time=0),\n",
      "  Message('note_on', channel=0, note=80, velocity=87, time=103),\n",
      "  Message('note_on', channel=0, note=74, velocity=87, time=0),\n",
      "  Message('note_on', channel=0, note=71, velocity=87, time=0),\n",
      "  Message('note_on', channel=0, note=80, velocity=0, time=89),\n",
      "  Message('note_on', channel=0, note=74, velocity=0, time=0),\n",
      "  Message('note_on', channel=0, note=71, velocity=0, time=0),\n",
      "  Message('note_on', channel=0, note=81, velocity=87, time=103),\n",
      "  Message('note_on', channel=0, note=81, velocity=0, time=23),\n",
      "  Message('note_on', channel=0, note=76, velocity=87, time=1),\n",
      "  Message('note_on', channel=0, note=76, velocity=0, time=23),\n",
      "  Message('note_on', channel=0, note=73, velocity=87, time=1),\n",
      "  Message('note_on', channel=0, note=73, velocity=0, time=23),\n",
      "  Message('note_on', channel=0, note=76, velocity=87, time=1),\n",
      "  Message('note_on', channel=0, note=76, velocity=0, time=23),\n",
      "  Message('note_on', channel=0, note=81, velocity=87, time=1),\n",
      "  Message('note_on', channel=0, note=81, velocity=0, time=20),\n",
      "  Message('note_on', channel=0, note=85, velocity=87, time=28),\n",
      "  Message('note_on', channel=0, note=85, velocity=0, time=20),\n",
      "  Message('note_on', channel=0, note=73, velocity=87, time=28),\n",
      "  Message('note_on', channel=0, note=76, velocity=87, time=8),\n",
      "  Message('note_on', channel=0, note=81, velocity=87, time=8),\n",
      "  Message('note_on', channel=0, note=81, velocity=0, time=77),\n",
      "  Message('note_on', channel=0, note=76, velocity=0, time=0),\n",
      "  Message('note_on', channel=0, note=73, velocity=0, time=0),\n",
      "  Message('note_on', channel=0, note=74, velocity=78, time=99),\n",
      "  Message('note_on', channel=0, note=74, velocity=0, time=45),\n",
      "  Message('note_on', channel=0, note=73, velocity=78, time=3),\n",
      "  Message('note_on', channel=0, note=73, velocity=0, time=45),\n",
      "  Message('note_on', channel=0, note=71, velocity=78, time=3),\n",
      "  Message('note_on', channel=0, note=71, velocity=0, time=45),\n",
      "  Message('note_on', channel=0, note=69, velocity=78, time=3),\n",
      "  Message('note_on', channel=0, note=69, velocity=0, time=45),\n",
      "  Message('note_on', channel=0, note=74, velocity=78, time=3),\n",
      "  Message('note_on', channel=0, note=74, velocity=0, time=39),\n",
      "  Message('note_on', channel=0, note=76, velocity=80, time=57),\n",
      "  Message('note_on', channel=0, note=69, velocity=80, time=0),\n",
      "  Message('note_on', channel=0, note=76, velocity=0, time=39),\n",
      "  Message('note_on', channel=0, note=69, velocity=0, time=0),\n",
      "  Message('note_on', channel=0, note=76, velocity=98, time=57),\n",
      "  Message('note_on', channel=0, note=69, velocity=98, time=0),\n",
      "  Message('note_on', channel=0, note=76, velocity=0, time=96),\n",
      "  Message('note_on', channel=0, note=69, velocity=0, time=0),\n",
      "  Message('note_on', channel=0, note=79, velocity=80, time=0),\n",
      "  Message('note_on', channel=0, note=79, velocity=0, time=45),\n",
      "  Message('note_on', channel=0, note=78, velocity=80, time=3),\n",
      "  Message('note_on', channel=0, note=78, velocity=0, time=45),\n",
      "  Message('note_on', channel=0, note=76, velocity=79, time=3),\n",
      "  Message('note_on', channel=0, note=73, velocity=79, time=0),\n",
      "  Message('note_on', channel=0, note=76, velocity=0, time=89),\n",
      "  Message('note_on', channel=0, note=73, velocity=0, time=0),\n",
      "  Message('note_on', channel=0, note=74, velocity=78, time=103),\n",
      "  Message('note_on', channel=0, note=74, velocity=0, time=45),\n",
      "  Message('note_on', channel=0, note=73, velocity=78, time=3),\n",
      "  Message('note_on', channel=0, note=73, velocity=0, time=45),\n",
      "  Message('note_on', channel=0, note=71, velocity=78, time=3),\n",
      "  Message('note_on', channel=0, note=71, velocity=0, time=45),\n",
      "  Message('note_on', channel=0, note=69, velocity=78, time=3),\n",
      "  Message('note_on', channel=0, note=69, velocity=0, time=45),\n",
      "  Message('note_on', channel=0, note=74, velocity=78, time=3),\n",
      "  Message('note_on', channel=0, note=74, velocity=0, time=39),\n",
      "  Message('note_on', channel=0, note=81, velocity=80, time=57),\n",
      "  Message('note_on', channel=0, note=76, velocity=80, time=0),\n",
      "  Message('note_on', channel=0, note=81, velocity=0, time=39),\n",
      "  Message('note_on', channel=0, note=76, velocity=0, time=0),\n",
      "  Message('note_on', channel=0, note=79, velocity=98, time=57),\n",
      "  Message('note_on', channel=0, note=76, velocity=98, time=0),\n",
      "  Message('note_on', channel=0, note=79, velocity=0, time=96),\n",
      "  Message('note_on', channel=0, note=76, velocity=0, time=0),\n",
      "  Message('note_on', channel=0, note=78, velocity=80, time=0),\n",
      "  Message('note_on', channel=0, note=78, velocity=0, time=18),\n",
      "  Message('note_on', channel=0, note=79, velocity=80, time=0),\n",
      "  Message('note_on', channel=0, note=79, velocity=0, time=18),\n",
      "  Message('note_on', channel=0, note=78, velocity=80, time=0),\n",
      "  Message('note_on', channel=0, note=78, velocity=0, time=18),\n",
      "  Message('note_on', channel=0, note=79, velocity=80, time=0),\n",
      "  Message('note_on', channel=0, note=79, velocity=0, time=18),\n",
      "  Message('note_on', channel=0, note=78, velocity=80, time=0),\n",
      "  Message('note_on', channel=0, note=78, velocity=0, time=17),\n",
      "  Message('note_on', channel=0, note=76, velocity=79, time=7),\n",
      "  Message('note_on', channel=0, note=73, velocity=79, time=0),\n",
      "  Message('note_on', channel=0, note=76, velocity=0, time=89),\n",
      "  Message('note_on', channel=0, note=73, velocity=0, time=0),\n",
      "  Message('note_on', channel=0, note=74, velocity=78, time=103),\n",
      "  Message('note_on', channel=0, note=74, velocity=0, time=45),\n",
      "  Message('note_on', channel=0, note=73, velocity=78, time=3),\n",
      "  Message('note_on', channel=0, note=73, velocity=0, time=45),\n",
      "  Message('note_on', channel=0, note=71, velocity=78, time=3),\n",
      "  Message('note_on', channel=0, note=71, velocity=0, time=12),\n",
      "  Message('note_on', channel=0, note=73, velocity=78, time=0),\n",
      "  Message('note_on', channel=0, note=73, velocity=0, time=12),\n",
      "  Message('note_on', channel=0, note=71, velocity=78, time=0),\n",
      "  Message('note_on', channel=0, note=71, velocity=0, time=21),\n",
      "  Message('note_on', channel=0, note=69, velocity=78, time=3),\n",
      "  Message('note_on', channel=0, note=69, velocity=0, time=45),\n",
      "  Message('note_on', channel=0, note=74, velocity=78, time=3),\n",
      "  Message('note_on', channel=0, note=74, velocity=0, time=39),\n",
      "  Message('note_on', channel=0, note=76, velocity=80, time=57),\n",
      "  Message('note_on', channel=0, note=69, velocity=80, time=0),\n",
      "  Message('note_on', channel=0, note=76, velocity=0, time=39),\n",
      "  Message('note_on', channel=0, note=69, velocity=0, time=0),\n",
      "  Message('note_on', channel=0, note=76, velocity=98, time=57),\n",
      "  Message('note_on', channel=0, note=69, velocity=98, time=0),\n",
      "  Message('note_on', channel=0, note=76, velocity=0, time=96),\n",
      "  Message('note_on', channel=0, note=69, velocity=0, time=0),\n",
      "  Message('note_on', channel=0, note=79, velocity=80, time=0),\n",
      "  Message('note_on', channel=0, note=79, velocity=0, time=45),\n",
      "  Message('note_on', channel=0, note=78, velocity=80, time=3),\n",
      "  Message('note_on', channel=0, note=78, velocity=0, time=45),\n",
      "  Message('note_on', channel=0, note=76, velocity=79, time=3),\n",
      "  Message('note_on', channel=0, note=73, velocity=79, time=0),\n",
      "  Message('note_on', channel=0, note=76, velocity=0, time=89),\n",
      "  Message('note_on', channel=0, note=73, velocity=0, time=0),\n",
      "  Message('note_on', channel=0, note=81, velocity=78, time=103),\n",
      "  Message('note_on', channel=0, note=81, velocity=0, time=20),\n",
      "  Message('note_on', channel=0, note=78, velocity=78, time=28),\n",
      "  Message('note_on', channel=0, note=78, velocity=0, time=20),\n",
      "  Message('note_on', channel=0, note=76, velocity=78, time=28),\n",
      "  Message('note_on', channel=0, note=76, velocity=0, time=23),\n",
      "  Message('note_on', channel=0, note=78, velocity=79, time=1),\n",
      "  Message('note_on', channel=0, note=78, velocity=0, time=23),\n",
      "  Message('note_on', channel=0, note=79, velocity=80, time=1),\n",
      "  Message('note_on', channel=0, note=79, velocity=0, time=23),\n",
      "  Message('note_on', channel=0, note=76, velocity=81, time=1),\n",
      "  Message('note_on', channel=0, note=76, velocity=0, time=23),\n",
      "  Message('note_on', channel=0, note=74, velocity=82, time=1),\n",
      "  Message('note_on', channel=0, note=74, velocity=0, time=89),\n",
      "  Message('note_on', channel=0, note=78, velocity=80, time=7),\n",
      "  Message('note_on', channel=0, note=78, velocity=0, time=67),\n",
      "  Message('note_on', channel=0, note=76, velocity=78, time=5),\n",
      "  Message('note_on', channel=0, note=76, velocity=0, time=23),\n",
      "  Message('note_on', channel=0, note=74, velocity=78, time=1),\n",
      "  Message('note_on', channel=0, note=74, velocity=0, time=89),\n",
      "  Message('note_on', channel=0, note=69, velocity=78, time=679),\n",
      "  Message('note_on', channel=0, note=69, velocity=0, time=23),\n",
      "  Message('note_on', channel=0, note=81, velocity=78, time=1),\n",
      "  Message('note_on', channel=0, note=81, velocity=0, time=23),\n",
      "  Message('note_on', channel=0, note=69, velocity=78, time=1),\n",
      "  Message('note_on', channel=0, note=69, velocity=0, time=23),\n",
      "  Message('note_on', channel=0, note=81, velocity=78, time=1),\n",
      "  Message('note_on', channel=0, note=81, velocity=0, time=23),\n",
      "  Message('note_on', channel=0, note=69, velocity=78, time=1),\n",
      "  Message('note_on', channel=0, note=69, velocity=0, time=23),\n",
      "  Message('note_on', channel=0, note=81, velocity=78, time=1),\n",
      "  Message('note_on', channel=0, note=81, velocity=0, time=23),\n",
      "  Message('note_on', channel=0, note=69, velocity=78, time=1),\n",
      "  Message('note_on', channel=0, note=69, velocity=0, time=23),\n",
      "  Message('note_on', channel=0, note=81, velocity=78, time=1),\n",
      "  Message('note_on', channel=0, note=81, velocity=0, time=23),\n",
      "  Message('note_on', channel=0, note=69, velocity=78, time=1),\n",
      "  Message('note_on', channel=0, note=69, velocity=0, time=23),\n",
      "  Message('note_on', channel=0, note=81, velocity=78, time=1),\n",
      "  Message('note_on', channel=0, note=81, velocity=0, time=23),\n",
      "  Message('note_on', channel=0, note=69, velocity=78, time=1),\n",
      "  Message('note_on', channel=0, note=69, velocity=0, time=23),\n",
      "  Message('note_on', channel=0, note=81, velocity=78, time=1),\n",
      "  Message('note_on', channel=0, note=81, velocity=0, time=23),\n",
      "  Message('note_on', channel=0, note=69, velocity=78, time=1),\n",
      "  Message('note_on', channel=0, note=69, velocity=0, time=23),\n",
      "  Message('note_on', channel=0, note=81, velocity=78, time=1),\n",
      "  Message('note_on', channel=0, note=81, velocity=0, time=23),\n",
      "  Message('note_on', channel=0, note=69, velocity=78, time=1),\n",
      "  Message('note_on', channel=0, note=69, velocity=0, time=23),\n",
      "  Message('note_on', channel=0, note=81, velocity=78, time=1),\n",
      "  Message('note_on', channel=0, note=81, velocity=0, time=23),\n",
      "  Message('note_on', channel=0, note=69, velocity=78, time=1),\n",
      "  Message('note_on', channel=0, note=69, velocity=0, time=23),\n",
      "  Message('note_on', channel=0, note=81, velocity=78, time=1),\n",
      "  Message('note_on', channel=0, note=81, velocity=0, time=23),\n",
      "  Message('note_on', channel=0, note=69, velocity=78, time=1),\n",
      "  Message('note_on', channel=0, note=69, velocity=0, time=23),\n",
      "  Message('note_on', channel=0, note=81, velocity=78, time=1),\n",
      "  Message('note_on', channel=0, note=81, velocity=0, time=23),\n",
      "  Message('note_on', channel=0, note=69, velocity=78, time=1),\n",
      "  Message('note_on', channel=0, note=69, velocity=0, time=23),\n",
      "  Message('note_on', channel=0, note=81, velocity=78, time=1),\n",
      "  Message('note_on', channel=0, note=81, velocity=0, time=23),\n",
      "  Message('note_on', channel=0, note=69, velocity=78, time=1),\n",
      "  Message('note_on', channel=0, note=69, velocity=0, time=23),\n",
      "  Message('note_on', channel=0, note=81, velocity=78, time=1),\n",
      "  Message('note_on', channel=0, note=81, velocity=0, time=23),\n",
      "  Message('note_on', channel=0, note=69, velocity=78, time=1),\n",
      "  Message('note_on', channel=0, note=69, velocity=0, time=23),\n",
      "  Message('note_on', channel=0, note=81, velocity=78, time=1),\n",
      "  Message('note_on', channel=0, note=81, velocity=0, time=23),\n",
      "  Message('note_on', channel=0, note=69, velocity=78, time=1),\n",
      "  Message('note_on', channel=0, note=69, velocity=0, time=23),\n",
      "  Message('note_on', channel=0, note=81, velocity=78, time=1),\n",
      "  Message('note_on', channel=0, note=81, velocity=0, time=23),\n",
      "  Message('note_on', channel=0, note=69, velocity=78, time=1),\n",
      "  Message('note_on', channel=0, note=69, velocity=0, time=23),\n",
      "  Message('note_on', channel=0, note=81, velocity=78, time=1),\n",
      "  Message('note_on', channel=0, note=81, velocity=0, time=23),\n",
      "  Message('note_on', channel=0, note=69, velocity=78, time=1),\n",
      "  Message('note_on', channel=0, note=69, velocity=0, time=23),\n",
      "  Message('note_on', channel=0, note=81, velocity=78, time=1),\n",
      "  Message('note_on', channel=0, note=81, velocity=0, time=23),\n",
      "  Message('note_on', channel=0, note=69, velocity=73, time=1),\n",
      "  Message('note_on', channel=0, note=69, velocity=0, time=23),\n",
      "  Message('note_on', channel=0, note=81, velocity=73, time=1),\n",
      "  Message('note_on', channel=0, note=81, velocity=0, time=23),\n",
      "  Message('note_on', channel=0, note=69, velocity=73, time=1),\n",
      "  Message('note_on', channel=0, note=69, velocity=0, time=23),\n",
      "  Message('note_on', channel=0, note=81, velocity=73, time=1),\n",
      "  Message('note_on', channel=0, note=81, velocity=0, time=23),\n",
      "  Message('note_on', channel=0, note=69, velocity=74, time=1),\n",
      "  Message('note_on', channel=0, note=69, velocity=0, time=23),\n",
      "  Message('note_on', channel=0, note=81, velocity=74, time=1),\n",
      "  Message('note_on', channel=0, note=81, velocity=0, time=23),\n",
      "  Message('note_on', channel=0, note=69, velocity=74, time=1),\n",
      "  Message('note_on', channel=0, note=69, velocity=0, time=23),\n",
      "  Message('note_on', channel=0, note=81, velocity=75, time=1),\n",
      "  Message('note_on', channel=0, note=81, velocity=0, time=23),\n",
      "  Message('note_on', channel=0, note=69, velocity=75, time=1),\n",
      "  Message('note_on', channel=0, note=69, velocity=0, time=23),\n",
      "  Message('note_on', channel=0, note=81, velocity=75, time=1),\n",
      "  Message('note_on', channel=0, note=81, velocity=0, time=23),\n",
      "  Message('note_on', channel=0, note=69, velocity=75, time=1),\n",
      "  Message('note_on', channel=0, note=69, velocity=0, time=23),\n",
      "  Message('note_on', channel=0, note=81, velocity=76, time=1),\n",
      "  Message('note_on', channel=0, note=81, velocity=0, time=23),\n",
      "  Message('note_on', channel=0, note=69, velocity=76, time=1),\n",
      "  Message('note_on', channel=0, note=69, velocity=0, time=23),\n",
      "  Message('note_on', channel=0, note=81, velocity=76, time=1),\n",
      "  Message('note_on', channel=0, note=81, velocity=0, time=23),\n",
      "  Message('note_on', channel=0, note=69, velocity=77, time=1),\n",
      "  Message('note_on', channel=0, note=69, velocity=0, time=23),\n",
      "  Message('note_on', channel=0, note=81, velocity=77, time=1),\n",
      "  Message('note_on', channel=0, note=81, velocity=0, time=23),\n",
      "  Message('note_on', channel=0, note=69, velocity=77, time=1),\n",
      "  Message('note_on', channel=0, note=69, velocity=0, time=23),\n",
      "  Message('note_on', channel=0, note=81, velocity=77, time=1),\n",
      "  Message('note_on', channel=0, note=81, velocity=0, time=23),\n",
      "  Message('note_on', channel=0, note=69, velocity=78, time=1),\n",
      "  Message('note_on', channel=0, note=69, velocity=0, time=23),\n",
      "  Message('note_on', channel=0, note=81, velocity=78, time=1),\n",
      "  Message('note_on', channel=0, note=81, velocity=0, time=23),\n",
      "  Message('note_on', channel=0, note=69, velocity=78, time=1),\n",
      "  Message('note_on', channel=0, note=69, velocity=0, time=23),\n",
      "  Message('note_on', channel=0, note=81, velocity=79, time=1),\n",
      "  Message('note_on', channel=0, note=81, velocity=0, time=23),\n",
      "  Message('note_on', channel=0, note=69, velocity=79, time=1),\n",
      "  Message('note_on', channel=0, note=69, velocity=0, time=23),\n",
      "  Message('note_on', channel=0, note=81, velocity=79, time=1),\n",
      "  Message('note_on', channel=0, note=81, velocity=0, time=23),\n",
      "  Message('note_on', channel=0, note=69, velocity=80, time=1),\n",
      "  Message('note_on', channel=0, note=69, velocity=0, time=23),\n",
      "  Message('note_on', channel=0, note=81, velocity=80, time=1),\n",
      "  Message('note_on', channel=0, note=81, velocity=0, time=23),\n",
      "  Message('note_on', channel=0, note=69, velocity=80, time=1),\n",
      "  Message('note_on', channel=0, note=69, velocity=0, time=23),\n",
      "  Message('note_on', channel=0, note=81, velocity=80, time=1),\n",
      "  Message('note_on', channel=0, note=81, velocity=0, time=23),\n",
      "  Message('note_on', channel=0, note=69, velocity=81, time=1),\n",
      "  Message('note_on', channel=0, note=69, velocity=0, time=23),\n",
      "  Message('note_on', channel=0, note=81, velocity=81, time=1),\n",
      "  Message('note_on', channel=0, note=81, velocity=0, time=23),\n",
      "  Message('note_on', channel=0, note=69, velocity=81, time=1),\n",
      "  Message('note_on', channel=0, note=69, velocity=0, time=23),\n",
      "  Message('note_on', channel=0, note=81, velocity=82, time=1),\n",
      "  Message('note_on', channel=0, note=81, velocity=0, time=23),\n",
      "  Message('note_on', channel=0, note=69, velocity=82, time=1),\n",
      "  Message('note_on', channel=0, note=69, velocity=0, time=23),\n",
      "  Message('note_on', channel=0, note=81, velocity=82, time=1),\n",
      "  Message('note_on', channel=0, note=81, velocity=0, time=23),\n",
      "  Message('note_on', channel=0, note=69, velocity=82, time=1),\n",
      "  Message('note_on', channel=0, note=69, velocity=0, time=23),\n",
      "  Message('note_on', channel=0, note=81, velocity=83, time=1),\n",
      "  Message('note_on', channel=0, note=81, velocity=0, time=23),\n",
      "  Message('note_on', channel=0, note=69, velocity=83, time=1),\n",
      "  Message('note_on', channel=0, note=69, velocity=0, time=23),\n",
      "  Message('note_on', channel=0, note=81, velocity=83, time=1),\n",
      "  Message('note_on', channel=0, note=81, velocity=0, time=23),\n",
      "  Message('note_on', channel=0, note=69, velocity=84, time=1),\n",
      "  Message('note_on', channel=0, note=69, velocity=0, time=23),\n",
      "  Message('note_on', channel=0, note=81, velocity=84, time=1),\n",
      "  Message('note_on', channel=0, note=81, velocity=0, time=23),\n",
      "  Message('note_on', channel=0, note=69, velocity=84, time=1),\n",
      "  Message('note_on', channel=0, note=69, velocity=0, time=23),\n",
      "  Message('note_on', channel=0, note=81, velocity=84, time=1),\n",
      "  Message('note_on', channel=0, note=81, velocity=0, time=23),\n",
      "  Message('note_on', channel=0, note=69, velocity=85, time=1),\n",
      "  Message('note_on', channel=0, note=69, velocity=0, time=23),\n",
      "  Message('note_on', channel=0, note=81, velocity=85, time=1),\n",
      "  Message('note_on', channel=0, note=81, velocity=0, time=23),\n",
      "  Message('note_on', channel=0, note=73, velocity=85, time=1),\n",
      "  Message('note_on', channel=0, note=73, velocity=0, time=23),\n",
      "  Message('note_on', channel=0, note=85, velocity=86, time=1),\n",
      "  Message('note_on', channel=0, note=85, velocity=0, time=23),\n",
      "  Message('note_on', channel=0, note=73, velocity=86, time=1),\n",
      "  Message('note_on', channel=0, note=73, velocity=0, time=23),\n",
      "  Message('note_on', channel=0, note=85, velocity=86, time=1),\n",
      "  Message('note_on', channel=0, note=85, velocity=0, time=23),\n",
      "  Message('note_on', channel=0, note=86, velocity=87, time=1),\n",
      "  Message('note_on', channel=0, note=86, velocity=0, time=39),\n",
      "  Message('note_on', channel=0, note=74, velocity=73, time=57),\n",
      "  Message('note_on', channel=0, note=74, velocity=0, time=89),\n",
      "  Message('note_on', channel=0, note=74, velocity=89, time=7),\n",
      "  Message('note_on', channel=0, note=74, velocity=0, time=96),\n",
      "  Message('note_on', channel=0, note=78, velocity=73, time=0),\n",
      "  Message('note_on', channel=0, note=78, velocity=0, time=45),\n",
      "  Message('note_on', channel=0, note=76, velocity=73, time=3),\n",
      "  Message('note_on', channel=0, note=76, velocity=0, time=45),\n",
      "  Message('note_on', channel=0, note=74, velocity=73, time=3),\n",
      "  Message('note_on', channel=0, note=74, velocity=0, time=89),\n",
      "  Message('note_on', channel=0, note=64, velocity=73, time=295),\n",
      "  Message('note_on', channel=0, note=64, velocity=0, time=23),\n",
      "  Message('note_on', channel=0, note=63, velocity=73, time=1),\n",
      "  Message('note_on', channel=0, note=63, velocity=0, time=23),\n",
      "  Message('note_on', channel=0, note=64, velocity=73, time=1),\n",
      "  Message('note_on', channel=0, note=64, velocity=0, time=23),\n",
      "  Message('note_on', channel=0, note=63, velocity=73, time=1),\n",
      "  Message('note_on', channel=0, note=63, velocity=0, time=23),\n",
      "  Message('note_on', channel=0, note=64, velocity=73, time=1),\n",
      "  Message('note_on', channel=0, note=64, velocity=0, time=23),\n",
      "  Message('note_on', channel=0, note=63, velocity=73, time=1),\n",
      "  Message('note_on', channel=0, note=63, velocity=0, time=23),\n",
      "  Message('note_on', channel=0, note=64, velocity=74, time=1),\n",
      "  Message('note_on', channel=0, note=64, velocity=0, time=23),\n",
      "  Message('note_on', channel=0, note=63, velocity=74, time=1),\n",
      "  Message('note_on', channel=0, note=63, velocity=0, time=23),\n",
      "  Message('note_on', channel=0, note=64, velocity=74, time=1),\n",
      "  Message('note_on', channel=0, note=64, velocity=0, time=23),\n",
      "  Message('note_on', channel=0, note=66, velocity=74, time=1),\n",
      "  Message('note_on', channel=0, note=66, velocity=0, time=23),\n",
      "  Message('note_on', channel=0, note=67, velocity=74, time=1),\n",
      "  Message('note_on', channel=0, note=67, velocity=0, time=23),\n",
      "  Message('note_on', channel=0, note=69, velocity=74, time=1),\n",
      "  Message('note_on', channel=0, note=69, velocity=0, time=23),\n",
      "  Message('note_on', channel=0, note=71, velocity=75, time=1),\n",
      "  Message('note_on', channel=0, note=71, velocity=0, time=23),\n",
      "  Message('note_on', channel=0, note=72, velocity=75, time=1),\n",
      "  Message('note_on', channel=0, note=72, velocity=0, time=23),\n",
      "  Message('note_on', channel=0, note=74, velocity=75, time=1),\n",
      "  Message('note_on', channel=0, note=74, velocity=0, time=23),\n",
      "  Message('note_on', channel=0, note=76, velocity=75, time=1),\n",
      "  Message('note_on', channel=0, note=76, velocity=0, time=23),\n",
      "  Message('note_on', channel=0, note=76, velocity=91, time=1),\n",
      "  Message('note_on', channel=0, note=76, velocity=0, time=192),\n",
      "  Message('note_on', channel=0, note=74, velocity=77, time=0),\n",
      "  Message('note_on', channel=0, note=74, velocity=0, time=67),\n",
      "  Message('note_on', channel=0, note=72, velocity=77, time=5),\n",
      "  Message('note_on', channel=0, note=72, velocity=0, time=24),\n",
      "  Message('note_on', channel=0, note=71, velocity=77, time=0),\n",
      "  Message('note_on', channel=0, note=71, velocity=0, time=29),\n",
      "  Message('note_on', channel=0, note=69, velocity=78, time=43),\n",
      "  Message('note_on', channel=0, note=69, velocity=0, time=23),\n",
      "  Message('note_on', channel=0, note=67, velocity=78, time=1),\n",
      "  Message('note_on', channel=0, note=67, velocity=0, time=23),\n",
      "  Message('note_on', channel=0, note=66, velocity=78, time=1),\n",
      "  Message('note_on', channel=0, note=66, velocity=0, time=23),\n",
      "  Message('note_on', channel=0, note=67, velocity=79, time=1),\n",
      "  Message('note_on', channel=0, note=67, velocity=0, time=23),\n",
      "  Message('note_on', channel=0, note=66, velocity=79, time=1),\n",
      "  Message('note_on', channel=0, note=66, velocity=0, time=23),\n",
      "  Message('note_on', channel=0, note=67, velocity=79, time=1),\n",
      "  Message('note_on', channel=0, note=67, velocity=0, time=23),\n",
      "  Message('note_on', channel=0, note=66, velocity=79, time=1),\n",
      "  Message('note_on', channel=0, note=66, velocity=0, time=23),\n",
      "  Message('note_on', channel=0, note=67, velocity=79, time=1),\n",
      "  Message('note_on', channel=0, note=67, velocity=0, time=23),\n",
      "  Message('note_on', channel=0, note=66, velocity=79, time=1),\n",
      "  Message('note_on', channel=0, note=66, velocity=0, time=23),\n",
      "  Message('note_on', channel=0, note=67, velocity=80, time=1),\n",
      "  Message('note_on', channel=0, note=67, velocity=0, time=23),\n",
      "  Message('note_on', channel=0, note=69, velocity=80, time=1),\n",
      "  Message('note_on', channel=0, note=69, velocity=0, time=23),\n",
      "  Message('note_on', channel=0, note=71, velocity=80, time=1),\n",
      "  Message('note_on', channel=0, note=71, velocity=0, time=23),\n",
      "  Message('note_on', channel=0, note=72, velocity=80, time=1),\n",
      "  Message('note_on', channel=0, note=72, velocity=0, time=23),\n",
      "  Message('note_on', channel=0, note=74, velocity=80, time=1),\n",
      "  Message('note_on', channel=0, note=74, velocity=0, time=23),\n",
      "  Message('note_on', channel=0, note=76, velocity=80, time=1),\n",
      "  Message('note_on', channel=0, note=76, velocity=0, time=23),\n",
      "  Message('note_on', channel=0, note=78, velocity=81, time=1),\n",
      "  Message('note_on', channel=0, note=78, velocity=0, time=23),\n",
      "  Message('note_on', channel=0, note=79, velocity=81, time=1),\n",
      "  Message('note_on', channel=0, note=79, velocity=0, time=23),\n",
      "  Message('note_on', channel=0, note=79, velocity=97, time=1),\n",
      "  Message('note_on', channel=0, note=79, velocity=0, time=192),\n",
      "  Message('note_on', channel=0, note=78, velocity=82, time=0),\n",
      "  Message('note_on', channel=0, note=78, velocity=0, time=67),\n",
      "  Message('note_on', channel=0, note=76, velocity=83, time=5),\n",
      "  Message('note_on', channel=0, note=76, velocity=0, time=24),\n",
      "  Message('note_on', channel=0, note=74, velocity=83, time=0),\n",
      "  Message('note_on', channel=0, note=74, velocity=0, time=29),\n",
      "  Message('note_on', channel=0, note=72, velocity=84, time=43),\n",
      "  Message('note_on', channel=0, note=72, velocity=0, time=23),\n",
      "  Message('note_on', channel=0, note=71, velocity=84, time=1),\n",
      "  Message('note_on', channel=0, note=71, velocity=0, time=23),\n",
      "  Message('note_on', channel=0, note=70, velocity=84, time=1),\n",
      "  Message('note_on', channel=0, note=70, velocity=0, time=23),\n",
      "  Message('note_on', channel=0, note=71, velocity=84, time=1),\n",
      "  Message('note_on', channel=0, note=71, velocity=0, time=23),\n",
      "  Message('note_on', channel=0, note=70, velocity=84, time=1),\n",
      "  Message('note_on', channel=0, note=70, velocity=0, time=23),\n",
      "  Message('note_on', channel=0, note=71, velocity=85, time=1),\n",
      "  Message('note_on', channel=0, note=71, velocity=0, time=23),\n",
      "  Message('note_on', channel=0, note=70, velocity=85, time=1),\n",
      "  Message('note_on', channel=0, note=70, velocity=0, time=23),\n",
      "  Message('note_on', channel=0, note=71, velocity=85, time=1),\n",
      "  Message('note_on', channel=0, note=71, velocity=0, time=23),\n",
      "  Message('note_on', channel=0, note=70, velocity=85, time=1),\n",
      "  Message('note_on', channel=0, note=70, velocity=0, time=23),\n",
      "  Message('note_on', channel=0, note=71, velocity=85, time=1),\n",
      "  Message('note_on', channel=0, note=71, velocity=0, time=23),\n",
      "  Message('note_on', channel=0, note=72, velocity=85, time=1),\n",
      "  Message('note_on', channel=0, note=72, velocity=0, time=23),\n",
      "  Message('note_on', channel=0, note=74, velocity=86, time=1),\n",
      "  Message('note_on', channel=0, note=74, velocity=0, time=23),\n",
      "  Message('note_on', channel=0, note=76, velocity=86, time=1),\n",
      "  Message('note_on', channel=0, note=76, velocity=0, time=23),\n",
      "  Message('note_on', channel=0, note=78, velocity=86, time=1),\n",
      "  Message('note_on', channel=0, note=78, velocity=0, time=23),\n",
      "  Message('note_on', channel=0, note=79, velocity=86, time=1),\n",
      "  Message('note_on', channel=0, note=79, velocity=0, time=23),\n",
      "  Message('note_on', channel=0, note=81, velocity=86, time=1),\n",
      "  Message('note_on', channel=0, note=81, velocity=0, time=23),\n",
      "  Message('note_on', channel=0, note=83, velocity=87, time=1),\n",
      "  Message('note_on', channel=0, note=83, velocity=0, time=23),\n",
      "  Message('note_on', channel=0, note=67, velocity=87, time=1),\n",
      "  Message('note_on', channel=0, note=67, velocity=0, time=23),\n",
      "  Message('note_on', channel=0, note=66, velocity=87, time=1),\n",
      "  Message('note_on', channel=0, note=66, velocity=0, time=23),\n",
      "  Message('note_on', channel=0, note=67, velocity=87, time=1),\n",
      "  Message('note_on', channel=0, note=67, velocity=0, time=23),\n",
      "  Message('note_on', channel=0, note=66, velocity=87, time=1),\n",
      "  Message('note_on', channel=0, note=66, velocity=0, time=23),\n",
      "  Message('note_on', channel=0, note=67, velocity=87, time=1),\n",
      "  Message('note_on', channel=0, note=67, velocity=0, time=23),\n",
      "  Message('note_on', channel=0, note=66, velocity=87, time=1),\n",
      "  Message('note_on', channel=0, note=66, velocity=0, time=23),\n",
      "  Message('note_on', channel=0, note=67, velocity=87, time=1),\n",
      "  Message('note_on', channel=0, note=67, velocity=0, time=23),\n",
      "  Message('note_on', channel=0, note=66, velocity=87, time=1),\n",
      "  Message('note_on', channel=0, note=66, velocity=0, time=23),\n",
      "  Message('note_on', channel=0, note=67, velocity=87, time=1),\n",
      "  Message('note_on', channel=0, note=67, velocity=0, time=23),\n",
      "  Message('note_on', channel=0, note=69, velocity=87, time=1),\n",
      "  Message('note_on', channel=0, note=69, velocity=0, time=23),\n",
      "  Message('note_on', channel=0, note=71, velocity=87, time=1),\n",
      "  Message('note_on', channel=0, note=71, velocity=0, time=23),\n",
      "  Message('note_on', channel=0, note=73, velocity=87, time=1),\n",
      "  Message('note_on', channel=0, note=73, velocity=0, time=23),\n",
      "  Message('note_on', channel=0, note=74, velocity=87, time=1),\n",
      "  Message('note_on', channel=0, note=74, velocity=0, time=23),\n",
      "  Message('note_on', channel=0, note=76, velocity=87, time=1),\n",
      "  Message('note_on', channel=0, note=76, velocity=0, time=23),\n",
      "  Message('note_on', channel=0, note=78, velocity=87, time=1),\n",
      "  Message('note_on', channel=0, note=78, velocity=0, time=23),\n",
      "  Message('note_on', channel=0, note=79, velocity=87, time=1),\n",
      "  Message('note_on', channel=0, note=79, velocity=0, time=23),\n",
      "  Message('note_on', channel=0, note=86, velocity=87, time=1),\n",
      "  Message('note_on', channel=0, note=81, velocity=87, time=0),\n",
      "  Message('note_on', channel=0, note=78, velocity=87, time=0),\n",
      "  Message('note_on', channel=0, note=86, velocity=0, time=45),\n",
      "  Message('note_on', channel=0, note=81, velocity=0, time=0),\n",
      "  Message('note_on', channel=0, note=78, velocity=0, time=0),\n",
      "  Message('note_on', channel=0, note=86, velocity=87, time=51),\n",
      "  Message('note_on', channel=0, note=81, velocity=87, time=0),\n",
      "  Message('note_on', channel=0, note=78, velocity=87, time=0),\n",
      "  Message('note_on', channel=0, note=86, velocity=0, time=45),\n",
      "  Message('note_on', channel=0, note=81, velocity=0, time=0),\n",
      "  Message('note_on', channel=0, note=78, velocity=0, time=0),\n",
      "  Message('note_on', channel=0, note=86, velocity=87, time=51),\n",
      "  Message('note_on', channel=0, note=81, velocity=87, time=0),\n",
      "  Message('note_on', channel=0, note=78, velocity=87, time=0),\n",
      "  Message('note_on', channel=0, note=86, velocity=0, time=45),\n",
      "  Message('note_on', channel=0, note=81, velocity=0, time=0),\n",
      "  Message('note_on', channel=0, note=78, velocity=0, time=0),\n",
      "  Message('note_on', channel=0, note=86, velocity=87, time=51),\n",
      "  Message('note_on', channel=0, note=81, velocity=87, time=0),\n",
      "  Message('note_on', channel=0, note=78, velocity=87, time=0),\n",
      "  Message('note_on', channel=0, note=86, velocity=0, time=45),\n",
      "  Message('note_on', channel=0, note=81, velocity=0, time=0),\n",
      "  Message('note_on', channel=0, note=78, velocity=0, time=0),\n",
      "  Message('note_on', channel=0, note=86, velocity=87, time=51),\n",
      "  Message('note_on', channel=0, note=83, velocity=87, time=0),\n",
      "  Message('note_on', channel=0, note=78, velocity=87, time=0),\n",
      "  Message('note_on', channel=0, note=86, velocity=0, time=45),\n",
      "  Message('note_on', channel=0, note=83, velocity=0, time=0),\n",
      "  Message('note_on', channel=0, note=78, velocity=0, time=0),\n",
      "  Message('note_on', channel=0, note=86, velocity=87, time=51),\n",
      "  Message('note_on', channel=0, note=83, velocity=87, time=0),\n",
      "  Message('note_on', channel=0, note=78, velocity=87, time=0),\n",
      "  Message('note_on', channel=0, note=86, velocity=0, time=45),\n",
      "  Message('note_on', channel=0, note=83, velocity=0, time=0),\n",
      "  Message('note_on', channel=0, note=78, velocity=0, time=0),\n",
      "  Message('note_on', channel=0, note=86, velocity=87, time=51),\n",
      "  Message('note_on', channel=0, note=83, velocity=87, time=0),\n",
      "  Message('note_on', channel=0, note=78, velocity=87, time=0),\n",
      "  Message('note_on', channel=0, note=86, velocity=0, time=45),\n",
      "  Message('note_on', channel=0, note=83, velocity=0, time=0),\n",
      "  Message('note_on', channel=0, note=78, velocity=0, time=0),\n",
      "  Message('note_on', channel=0, note=86, velocity=87, time=51),\n",
      "  Message('note_on', channel=0, note=83, velocity=87, time=0),\n",
      "  Message('note_on', channel=0, note=78, velocity=87, time=0),\n",
      "  Message('note_on', channel=0, note=86, velocity=0, time=45),\n",
      "  Message('note_on', channel=0, note=83, velocity=0, time=0),\n",
      "  Message('note_on', channel=0, note=78, velocity=0, time=0),\n",
      "  Message('note_on', channel=0, note=86, velocity=87, time=51),\n",
      "  Message('note_on', channel=0, note=83, velocity=87, time=0),\n",
      "  Message('note_on', channel=0, note=79, velocity=87, time=0),\n",
      "  Message('note_on', channel=0, note=86, velocity=0, time=45),\n",
      "  Message('note_on', channel=0, note=83, velocity=0, time=0),\n",
      "  Message('note_on', channel=0, note=79, velocity=0, time=0),\n",
      "  Message('note_on', channel=0, note=83, velocity=87, time=51),\n",
      "  Message('note_on', channel=0, note=79, velocity=87, time=0),\n",
      "  Message('note_on', channel=0, note=74, velocity=87, time=0),\n",
      "  Message('note_on', channel=0, note=83, velocity=0, time=45),\n",
      "  Message('note_on', channel=0, note=79, velocity=0, time=0),\n",
      "  Message('note_on', channel=0, note=74, velocity=0, time=0),\n",
      "  Message('note_on', channel=0, note=83, velocity=87, time=51),\n",
      "  Message('note_on', channel=0, note=79, velocity=87, time=0),\n",
      "  Message('note_on', channel=0, note=74, velocity=87, time=0),\n",
      "  Message('note_on', channel=0, note=83, velocity=0, time=45),\n",
      "  Message('note_on', channel=0, note=79, velocity=0, time=0),\n",
      "  Message('note_on', channel=0, note=74, velocity=0, time=0),\n",
      "  Message('note_on', channel=0, note=83, velocity=87, time=51),\n",
      "  Message('note_on', channel=0, note=79, velocity=87, time=0),\n",
      "  Message('note_on', channel=0, note=74, velocity=87, time=0),\n",
      "  Message('note_on', channel=0, note=83, velocity=0, time=45),\n",
      "  Message('note_on', channel=0, note=79, velocity=0, time=0),\n",
      "  Message('note_on', channel=0, note=74, velocity=0, time=0),\n",
      "  Message('note_on', channel=0, note=83, velocity=87, time=51),\n",
      "  Message('note_on', channel=0, note=79, velocity=87, time=0),\n",
      "  Message('note_on', channel=0, note=76, velocity=87, time=0),\n",
      "  Message('note_on', channel=0, note=83, velocity=0, time=45),\n",
      "  Message('note_on', channel=0, note=79, velocity=0, time=0),\n",
      "  Message('note_on', channel=0, note=76, velocity=0, time=0),\n",
      "  Message('note_on', channel=0, note=79, velocity=87, time=51),\n",
      "  Message('note_on', channel=0, note=76, velocity=87, time=0),\n",
      "  Message('note_on', channel=0, note=71, velocity=87, time=0),\n",
      "  Message('note_on', channel=0, note=79, velocity=0, time=45),\n",
      "  Message('note_on', channel=0, note=76, velocity=0, time=0),\n",
      "  Message('note_on', channel=0, note=71, velocity=0, time=0),\n",
      "  Message('note_on', channel=0, note=79, velocity=87, time=51),\n",
      "  Message('note_on', channel=0, note=76, velocity=87, time=0),\n",
      "  Message('note_on', channel=0, note=71, velocity=87, time=0),\n",
      "  Message('note_on', channel=0, note=79, velocity=0, time=45),\n",
      "  Message('note_on', channel=0, note=76, velocity=0, time=0),\n",
      "  Message('note_on', channel=0, note=71, velocity=0, time=0),\n",
      "  Message('note_on', channel=0, note=79, velocity=87, time=51),\n",
      "  Message('note_on', channel=0, note=76, velocity=87, time=0),\n",
      "  Message('note_on', channel=0, note=71, velocity=87, time=0),\n",
      "  Message('note_on', channel=0, note=79, velocity=0, time=45),\n",
      "  Message('note_on', channel=0, note=76, velocity=0, time=0),\n",
      "  Message('note_on', channel=0, note=71, velocity=0, time=0),\n",
      "  Message('note_on', channel=0, note=73, velocity=87, time=51),\n",
      "  Message('note_on', channel=0, note=73, velocity=0, time=23),\n",
      "  Message('note_on', channel=0, note=74, velocity=87, time=1),\n",
      "  Message('note_on', channel=0, note=74, velocity=0, time=23),\n",
      "  Message('note_on', channel=0, note=76, velocity=87, time=1),\n",
      "  Message('note_on', channel=0, note=76, velocity=0, time=23),\n",
      "  Message('note_on', channel=0, note=74, velocity=87, time=1),\n",
      "  Message('note_on', channel=0, note=74, velocity=0, time=23),\n",
      "  Message('note_on', channel=0, note=73, velocity=87, time=1),\n",
      "  Message('note_on', channel=0, note=73, velocity=0, time=23),\n",
      "  Message('note_on', channel=0, note=69, velocity=87, time=1),\n",
      "  Message('note_on', channel=0, note=69, velocity=0, time=23),\n",
      "  Message('note_on', channel=0, note=71, velocity=87, time=1),\n",
      "  Message('note_on', channel=0, note=71, velocity=0, time=23),\n",
      "  Message('note_on', channel=0, note=73, velocity=87, time=1),\n",
      "  Message('note_on', channel=0, note=73, velocity=0, time=23),\n",
      "  Message('note_on', channel=0, note=74, velocity=87, time=1),\n",
      "  Message('note_on', channel=0, note=74, velocity=0, time=23),\n",
      "  Message('note_on', channel=0, note=76, velocity=87, time=1),\n",
      "  Message('note_on', channel=0, note=76, velocity=0, time=23),\n",
      "  Message('note_on', channel=0, note=78, velocity=87, time=1),\n",
      "  Message('note_on', channel=0, note=78, velocity=0, time=23),\n",
      "  Message('note_on', channel=0, note=76, velocity=87, time=1),\n",
      "  Message('note_on', channel=0, note=76, velocity=0, time=23),\n",
      "  Message('note_on', channel=0, note=78, velocity=87, time=1),\n",
      "  Message('note_on', channel=0, note=78, velocity=0, time=23),\n",
      "  Message('note_on', channel=0, note=76, velocity=87, time=1),\n",
      "  Message('note_on', channel=0, note=76, velocity=0, time=23),\n",
      "  Message('note_on', channel=0, note=74, velocity=87, time=1),\n",
      "  Message('note_on', channel=0, note=74, velocity=0, time=23),\n",
      "  Message('note_on', channel=0, note=73, velocity=87, time=1),\n",
      "  Message('note_on', channel=0, note=73, velocity=0, time=23),\n",
      "  Message('note_on', channel=0, note=71, velocity=87, time=1),\n",
      "  Message('note_on', channel=0, note=71, velocity=0, time=23),\n",
      "  Message('note_on', channel=0, note=73, velocity=87, time=1),\n",
      "  Message('note_on', channel=0, note=73, velocity=0, time=23),\n",
      "  Message('note_on', channel=0, note=74, velocity=87, time=1),\n",
      "  Message('note_on', channel=0, note=74, velocity=0, time=23),\n",
      "  Message('note_on', channel=0, note=73, velocity=87, time=1),\n",
      "  Message('note_on', channel=0, note=73, velocity=0, time=23),\n",
      "  Message('note_on', channel=0, note=71, velocity=87, time=1),\n",
      "  Message('note_on', channel=0, note=71, velocity=0, time=23),\n",
      "  Message('note_on', channel=0, note=67, velocity=87, time=1),\n",
      "  Message('note_on', channel=0, note=67, velocity=0, time=23),\n",
      "  Message('note_on', channel=0, note=69, velocity=87, time=1),\n",
      "  Message('note_on', channel=0, note=69, velocity=0, time=23),\n",
      "  Message('note_on', channel=0, note=71, velocity=87, time=1),\n",
      "  Message('note_on', channel=0, note=71, velocity=0, time=23),\n",
      "  Message('note_on', channel=0, note=73, velocity=87, time=1),\n",
      "  Message('note_on', channel=0, note=73, velocity=0, time=23),\n",
      "  Message('note_on', channel=0, note=74, velocity=87, time=1),\n",
      "  Message('note_on', channel=0, note=74, velocity=0, time=23),\n",
      "  Message('note_on', channel=0, note=76, velocity=87, time=1),\n",
      "  Message('note_on', channel=0, note=76, velocity=0, time=23),\n",
      "  Message('note_on', channel=0, note=74, velocity=87, time=1),\n",
      "  Message('note_on', channel=0, note=74, velocity=0, time=23),\n",
      "  Message('note_on', channel=0, note=73, velocity=87, time=1),\n",
      "  Message('note_on', channel=0, note=73, velocity=0, time=23),\n",
      "  Message('note_on', channel=0, note=71, velocity=87, time=1),\n",
      "  Message('note_on', channel=0, note=71, velocity=0, time=23),\n",
      "  Message('note_on', channel=0, note=69, velocity=87, time=1),\n",
      "  Message('note_on', channel=0, note=69, velocity=0, time=23),\n",
      "  Message('note_on', channel=0, note=67, velocity=87, time=1),\n",
      "  Message('note_on', channel=0, note=67, velocity=0, time=23),\n",
      "  Message('note_on', channel=0, note=66, velocity=87, time=1),\n",
      "  Message('note_on', channel=0, note=66, velocity=0, time=23),\n",
      "  Message('note_on', channel=0, note=69, velocity=87, time=1),\n",
      "  Message('note_on', channel=0, note=69, velocity=0, time=23),\n",
      "  Message('note_on', channel=0, note=67, velocity=87, time=1),\n",
      "  Message('note_on', channel=0, note=67, velocity=0, time=23),\n",
      "  Message('note_on', channel=0, note=66, velocity=87, time=1),\n",
      "  Message('note_on', channel=0, note=66, velocity=0, time=23),\n",
      "  Message('note_on', channel=0, note=67, velocity=87, time=1),\n",
      "  Message('note_on', channel=0, note=67, velocity=0, time=23),\n",
      "  Message('note_on', channel=0, note=69, velocity=87, time=1),\n",
      "  Message('note_on', channel=0, note=69, velocity=0, time=23),\n",
      "  Message('note_on', channel=0, note=71, velocity=87, time=1),\n",
      "  Message('note_on', channel=0, note=71, velocity=0, time=23),\n",
      "  Message('note_on', channel=0, note=73, velocity=87, time=1),\n",
      "  Message('note_on', channel=0, note=73, velocity=0, time=23),\n",
      "  Message('note_on', channel=0, note=74, velocity=87, time=1),\n",
      "  Message('note_on', channel=0, note=74, velocity=0, time=23),\n",
      "  Message('note_on', channel=0, note=76, velocity=87, time=1),\n",
      "  Message('note_on', channel=0, note=76, velocity=0, time=23),\n",
      "  Message('note_on', channel=0, note=78, velocity=87, time=1),\n",
      "  Message('note_on', channel=0, note=78, velocity=0, time=23),\n",
      "  Message('note_on', channel=0, note=79, velocity=87, time=1),\n",
      "  Message('note_on', channel=0, note=79, velocity=0, time=23),\n",
      "  Message('note_on', channel=0, note=81, velocity=87, time=1),\n",
      "  Message('note_on', channel=0, note=81, velocity=0, time=23),\n",
      "  Message('note_on', channel=0, note=83, velocity=87, time=1),\n",
      "  Message('note_on', channel=0, note=83, velocity=0, time=23),\n",
      "  Message('note_on', channel=0, note=85, velocity=87, time=1),\n",
      "  Message('note_on', channel=0, note=85, velocity=0, time=23),\n",
      "  Message('note_on', channel=0, note=86, velocity=87, time=1),\n",
      "  Message('note_on', channel=0, note=86, velocity=0, time=23),\n",
      "  Message('note_on', channel=0, note=83, velocity=87, time=1),\n",
      "  Message('note_on', channel=0, note=83, velocity=0, time=23),\n",
      "  Message('note_on', channel=0, note=85, velocity=87, time=1),\n",
      "  Message('note_on', channel=0, note=85, velocity=0, time=23),\n",
      "  Message('note_on', channel=0, note=83, velocity=87, time=1),\n",
      "  Message('note_on', channel=0, note=83, velocity=0, time=23),\n",
      "  Message('note_on', channel=0, note=81, velocity=87, time=1),\n",
      "  Message('note_on', channel=0, note=81, velocity=0, time=23),\n",
      "  Message('note_on', channel=0, note=79, velocity=87, time=1),\n",
      "  Message('note_on', channel=0, note=79, velocity=0, time=23),\n",
      "  Message('note_on', channel=0, note=78, velocity=87, time=1),\n",
      "  Message('note_on', channel=0, note=78, velocity=0, time=23),\n",
      "  Message('note_on', channel=0, note=76, velocity=87, time=1),\n",
      "  Message('note_on', channel=0, note=76, velocity=0, time=23),\n",
      "  Message('note_on', channel=0, note=74, velocity=87, time=1),\n",
      "  Message('note_on', channel=0, note=74, velocity=0, time=23),\n",
      "  Message('note_on', channel=0, note=73, velocity=87, time=1),\n",
      "  Message('note_on', channel=0, note=73, velocity=0, time=23),\n",
      "  Message('note_on', channel=0, note=74, velocity=87, time=1),\n",
      "  Message('note_on', channel=0, note=74, velocity=0, time=23),\n",
      "  Message('note_on', channel=0, note=73, velocity=87, time=1),\n",
      "  Message('note_on', channel=0, note=73, velocity=0, time=23),\n",
      "  Message('note_on', channel=0, note=71, velocity=87, time=1),\n",
      "  Message('note_on', channel=0, note=71, velocity=0, time=23),\n",
      "  Message('note_on', channel=0, note=69, velocity=87, time=1),\n",
      "  Message('note_on', channel=0, note=69, velocity=0, time=23),\n",
      "  Message('note_on', channel=0, note=67, velocity=87, time=1),\n",
      "  Message('note_on', channel=0, note=67, velocity=0, time=23),\n",
      "  Message('note_on', channel=0, note=66, velocity=87, time=1),\n",
      "  Message('note_on', channel=0, note=66, velocity=0, time=23),\n",
      "  Message('note_on', channel=0, note=64, velocity=87, time=1),\n",
      "  Message('note_on', channel=0, note=64, velocity=0, time=23),\n",
      "  Message('note_on', channel=0, note=62, velocity=87, time=1),\n",
      "  Message('note_on', channel=0, note=62, velocity=0, time=23),\n",
      "  Message('note_on', channel=0, note=57, velocity=86, time=1),\n",
      "  Message('note_on', channel=0, note=57, velocity=0, time=23),\n",
      "  Message('note_on', channel=0, note=62, velocity=85, time=1),\n",
      "  Message('note_on', channel=0, note=62, velocity=0, time=23),\n",
      "  Message('note_on', channel=0, note=57, velocity=84, time=1),\n",
      "  Message('note_on', channel=0, note=57, velocity=0, time=23),\n",
      "  Message('note_on', channel=0, note=66, velocity=84, time=1),\n",
      "  Message('note_on', channel=0, note=66, velocity=0, time=23),\n",
      "  Message('note_on', channel=0, note=62, velocity=83, time=1),\n",
      "  Message('note_on', channel=0, note=62, velocity=0, time=23),\n",
      "  Message('note_on', channel=0, note=69, velocity=82, time=1),\n",
      "  Message('note_on', channel=0, note=69, velocity=0, time=23),\n",
      "  Message('note_on', channel=0, note=66, velocity=81, time=1),\n",
      "  Message('note_on', channel=0, note=66, velocity=0, time=23),\n",
      "  Message('note_on', channel=0, note=74, velocity=81, time=1),\n",
      "  Message('note_on', channel=0, note=74, velocity=0, time=23),\n",
      "  Message('note_on', channel=0, note=69, velocity=80, time=1),\n",
      "  Message('note_on', channel=0, note=69, velocity=0, time=23),\n",
      "  Message('note_on', channel=0, note=78, velocity=79, time=1),\n",
      "  Message('note_on', channel=0, note=78, velocity=0, time=23),\n",
      "  Message('note_on', channel=0, note=74, velocity=78, time=1),\n",
      "  Message('note_on', channel=0, note=74, velocity=0, time=23),\n",
      "  Message('note_on', channel=0, note=81, velocity=78, time=1),\n",
      "  Message('note_on', channel=0, note=81, velocity=0, time=20),\n",
      "  Message('note_on', channel=0, note=81, velocity=78, time=28),\n",
      "  Message('note_on', channel=0, note=81, velocity=0, time=20),\n",
      "  Message('note_on', channel=0, note=81, velocity=94, time=28),\n",
      "  Message('note_on', channel=0, note=81, velocity=0, time=48),\n",
      "  Message('note_on', channel=0, note=71, velocity=78, time=0),\n",
      "  Message('note_on', channel=0, note=71, velocity=0, time=45),\n",
      "  Message('note_on', channel=0, note=71, velocity=78, time=3),\n",
      "  Message('note_on', channel=0, note=71, velocity=0, time=140),\n",
      "  Message('note_on', channel=0, note=75, velocity=78, time=4),\n",
      "  Message('note_on', channel=0, note=75, velocity=0, time=23),\n",
      "  Message('note_on', channel=0, note=76, velocity=78, time=1),\n",
      "  Message('note_on', channel=0, note=76, velocity=0, time=23),\n",
      "  Message('note_on', channel=0, note=79, velocity=78, time=1),\n",
      "  Message('note_on', channel=0, note=79, velocity=0, time=20),\n",
      "  Message('note_on', channel=0, note=79, velocity=78, time=28),\n",
      "  Message('note_on', channel=0, note=79, velocity=0, time=20),\n",
      "  Message('note_on', channel=0, note=79, velocity=94, time=28),\n",
      "  Message('note_on', channel=0, note=79, velocity=0, time=48),\n",
      "  Message('note_on', channel=0, note=69, velocity=78, time=0),\n",
      "  Message('note_on', channel=0, note=69, velocity=0, time=45),\n",
      "  Message('note_on', channel=0, note=69, velocity=79, time=3),\n",
      "  Message('note_on', channel=0, note=69, velocity=0, time=140),\n",
      "  Message('note_on', channel=0, note=73, velocity=79, time=4),\n",
      "  Message('note_on', channel=0, note=73, velocity=0, time=23),\n",
      "  Message('note_on', channel=0, note=74, velocity=79, time=1),\n",
      "  Message('note_on', channel=0, note=74, velocity=0, time=23),\n",
      "  Message('note_on', channel=0, note=78, velocity=79, time=1),\n",
      "  Message('note_on', channel=0, note=78, velocity=0, time=20),\n",
      "  Message('note_on', channel=0, note=78, velocity=80, time=28),\n",
      "  Message('note_on', channel=0, note=78, velocity=0, time=20),\n",
      "  Message('note_on', channel=0, note=78, velocity=96, time=28),\n",
      "  Message('note_on', channel=0, note=78, velocity=0, time=48),\n",
      "  Message('note_on', channel=0, note=67, velocity=80, time=0),\n",
      "  Message('note_on', channel=0, note=67, velocity=0, time=45),\n",
      "  Message('note_on', channel=0, note=67, velocity=80, time=3),\n",
      "  Message('note_on', channel=0, note=67, velocity=0, time=140),\n",
      "  Message('note_on', channel=0, note=84, velocity=81, time=4),\n",
      "  Message('note_on', channel=0, note=84, velocity=0, time=23),\n",
      "  Message('note_on', channel=0, note=85, velocity=81, time=1),\n",
      "  Message('note_on', channel=0, note=85, velocity=0, time=23),\n",
      "  Message('note_on', channel=0, note=88, velocity=81, time=1),\n",
      "  Message('note_on', channel=0, note=88, velocity=0, time=20),\n",
      "  Message('note_on', channel=0, note=88, velocity=81, time=28),\n",
      "  Message('note_on', channel=0, note=88, velocity=0, time=20),\n",
      "  Message('note_on', channel=0, note=88, velocity=97, time=28),\n",
      "  Message('note_on', channel=0, note=88, velocity=0, time=48),\n",
      "  Message('note_on', channel=0, note=78, velocity=82, time=0),\n",
      "  Message('note_on', channel=0, note=78, velocity=0, time=45),\n",
      "  Message('note_on', channel=0, note=78, velocity=82, time=3),\n",
      "  Message('note_on', channel=0, note=78, velocity=0, time=140),\n",
      "  Message('note_on', channel=0, note=82, velocity=83, time=4),\n",
      "  Message('note_on', channel=0, note=82, velocity=0, time=23),\n",
      "  Message('note_on', channel=0, note=83, velocity=83, time=1),\n",
      "  Message('note_on', channel=0, note=83, velocity=0, time=23),\n",
      "  Message('note_on', channel=0, note=86, velocity=83, time=1),\n",
      "  Message('note_on', channel=0, note=86, velocity=0, time=20),\n",
      "  Message('note_on', channel=0, note=86, velocity=83, time=28),\n",
      "  Message('note_on', channel=0, note=86, velocity=0, time=20),\n",
      "  Message('note_on', channel=0, note=86, velocity=99, time=28),\n",
      "  Message('note_on', channel=0, note=86, velocity=0, time=48),\n",
      "  Message('note_on', channel=0, note=76, velocity=83, time=0),\n",
      "  Message('note_on', channel=0, note=76, velocity=0, time=45),\n",
      "  Message('note_on', channel=0, note=76, velocity=84, time=51),\n",
      "  Message('note_on', channel=0, note=76, velocity=0, time=20),\n",
      "  Message('note_on', channel=0, note=76, velocity=84, time=76),\n",
      "  Message('note_on', channel=0, note=76, velocity=0, time=20),\n",
      "  Message('note_on', channel=0, note=76, velocity=85, time=76),\n",
      "  Message('note_on', channel=0, note=76, velocity=0, time=12),\n",
      "  Message('note_on', channel=0, note=78, velocity=85, time=0),\n",
      "  Message('note_on', channel=0, note=78, velocity=0, time=12),\n",
      "  Message('note_on', channel=0, note=76, velocity=85, time=0),\n",
      "  Message('note_on', channel=0, note=76, velocity=0, time=12),\n",
      "  Message('note_on', channel=0, note=78, velocity=85, time=0),\n",
      "  Message('note_on', channel=0, note=78, velocity=0, time=9),\n",
      "  Message('note_on', channel=0, note=86, velocity=101, time=3),\n",
      "  Message('note_on', channel=0, note=86, velocity=0, time=48),\n",
      "  Message('note_on', channel=0, note=77, velocity=85, time=0),\n",
      "  Message('note_on', channel=0, note=77, velocity=0, time=45),\n",
      "  Message('note_on', channel=0, note=77, velocity=85, time=51),\n",
      "  Message('note_on', channel=0, note=77, velocity=0, time=20),\n",
      "  Message('note_on', channel=0, note=77, velocity=86, time=76),\n",
      "  Message('note_on', channel=0, note=77, velocity=0, time=20),\n",
      "  Message('note_on', channel=0, note=77, velocity=86, time=76),\n",
      "  Message('note_on', channel=0, note=77, velocity=0, time=12),\n",
      "  Message('note_on', channel=0, note=80, velocity=86, time=0),\n",
      "  Message('note_on', channel=0, note=80, velocity=0, time=12),\n",
      "  Message('note_on', channel=0, note=77, velocity=86, time=0),\n",
      "  Message('note_on', channel=0, note=77, velocity=0, time=12),\n",
      "  Message('note_on', channel=0, note=80, velocity=86, time=0),\n",
      "  Message('note_on', channel=0, note=80, velocity=0, time=9),\n",
      "  Message('note_on', channel=0, note=78, velocity=87, time=3),\n",
      "  Message('note_on', channel=0, note=78, velocity=0, time=23),\n",
      "  Message('note_on', channel=0, note=74, velocity=87, time=1),\n",
      "  Message('note_on', channel=0, note=74, velocity=0, time=23),\n",
      "  Message('note_on', channel=0, note=69, velocity=87, time=1),\n",
      "  Message('note_on', channel=0, note=69, velocity=0, time=23),\n",
      "  Message('note_on', channel=0, note=74, velocity=87, time=1),\n",
      "  Message('note_on', channel=0, note=74, velocity=0, time=23),\n",
      "  Message('note_on', channel=0, note=78, velocity=87, time=1),\n",
      "  Message('note_on', channel=0, note=78, velocity=0, time=23),\n",
      "  Message('note_on', channel=0, note=74, velocity=87, time=1),\n",
      "  Message('note_on', channel=0, note=74, velocity=0, time=23),\n",
      "  Message('note_on', channel=0, note=81, velocity=87, time=1),\n",
      "  Message('note_on', channel=0, note=81, velocity=0, time=23),\n",
      "  Message('note_on', channel=0, note=78, velocity=87, time=1),\n",
      "  Message('note_on', channel=0, note=78, velocity=0, time=23),\n",
      "  Message('note_on', channel=0, note=86, velocity=87, time=1),\n",
      "  Message('note_on', channel=0, note=86, velocity=0, time=23),\n",
      "  Message('note_on', channel=0, note=81, velocity=87, time=1),\n",
      "  Message('note_on', channel=0, note=81, velocity=0, time=23),\n",
      "  Message('note_on', channel=0, note=78, velocity=87, time=1),\n",
      "  Message('note_on', channel=0, note=78, velocity=0, time=23),\n",
      "  Message('note_on', channel=0, note=74, velocity=87, time=1),\n",
      "  Message('note_on', channel=0, note=74, velocity=0, time=23),\n",
      "  Message('note_on', channel=0, note=81, velocity=87, time=1),\n",
      "  Message('note_on', channel=0, note=81, velocity=0, time=23),\n",
      "  Message('note_on', channel=0, note=78, velocity=87, time=1),\n",
      "  Message('note_on', channel=0, note=78, velocity=0, time=23),\n",
      "  Message('note_on', channel=0, note=74, velocity=87, time=1),\n",
      "  Message('note_on', channel=0, note=74, velocity=0, time=23),\n",
      "  Message('note_on', channel=0, note=69, velocity=87, time=1),\n",
      "  Message('note_on', channel=0, note=69, velocity=0, time=23),\n",
      "  Message('note_on', channel=0, note=78, velocity=87, time=1),\n",
      "  Message('note_on', channel=0, note=78, velocity=0, time=177),\n",
      "  Message('note_on', channel=0, note=76, velocity=87, time=15),\n",
      "  Message('note_on', channel=0, note=76, velocity=0, time=18),\n",
      "  Message('note_on', channel=0, note=78, velocity=87, time=0),\n",
      "  Message('note_on', channel=0, note=78, velocity=0, time=18),\n",
      "  Message('note_on', channel=0, note=76, velocity=87, time=0),\n",
      "  Message('note_on', channel=0, note=76, velocity=0, time=18),\n",
      "  Message('note_on', channel=0, note=78, velocity=87, time=0),\n",
      "  Message('note_on', channel=0, note=78, velocity=0, time=18),\n",
      "  Message('note_on', channel=0, note=76, velocity=87, time=0),\n",
      "  Message('note_on', channel=0, note=76, velocity=0, time=18),\n",
      "  Message('note_on', channel=0, note=78, velocity=87, time=0),\n",
      "  Message('note_on', channel=0, note=78, velocity=0, time=18),\n",
      "  Message('note_on', channel=0, note=76, velocity=87, time=0),\n",
      "  Message('note_on', channel=0, note=76, velocity=0, time=18),\n",
      "  Message('note_on', channel=0, note=78, velocity=87, time=0),\n",
      "  Message('note_on', channel=0, note=78, velocity=0, time=7),\n",
      "  Message('note_on', channel=0, note=74, velocity=87, time=11),\n",
      "  Message('note_on', channel=0, note=74, velocity=0, time=23),\n",
      "  Message('note_on', channel=0, note=76, velocity=87, time=1),\n",
      "  Message('note_on', channel=0, note=76, velocity=0, time=23),\n",
      "  Message('note_on', channel=0, note=74, velocity=73, time=1),\n",
      "  Message('note_on', channel=0, note=74, velocity=0, time=18),\n",
      "  Message('note_on', channel=0, note=86, velocity=89, time=0),\n",
      "  Message('note_on', channel=0, note=86, velocity=0, time=174),\n",
      "  Message('note_on', channel=0, note=85, velocity=73, time=0),\n",
      "  Message('note_on', channel=0, note=85, velocity=0, time=89),\n",
      "  Message('note_on', channel=0, note=83, velocity=73, time=7),\n",
      "  Message('note_on', channel=0, note=83, velocity=0, time=89),\n",
      "  Message('note_on', channel=0, note=80, velocity=89, time=7),\n",
      "  Message('note_on', channel=0, note=80, velocity=0, time=96),\n",
      "  Message('note_on', channel=0, note=81, velocity=73, time=0),\n",
      "  Message('note_on', channel=0, note=81, velocity=0, time=133),\n",
      "  Message('note_on', channel=0, note=74, velocity=73, time=11),\n",
      "  Message('note_on', channel=0, note=74, velocity=0, time=45),\n",
      "  Message('note_on', channel=0, note=79, velocity=73, time=3),\n",
      "  Message('note_on', channel=0, note=79, velocity=0, time=45),\n",
      "  Message('note_on', channel=0, note=78, velocity=73, time=3),\n",
      "  Message('note_on', channel=0, note=78, velocity=0, time=45),\n",
      "  Message('note_on', channel=0, note=77, velocity=89, time=3),\n",
      "  Message('note_on', channel=0, note=77, velocity=0, time=96),\n",
      "  Message('note_on', channel=0, note=78, velocity=73, time=0),\n",
      "  Message('note_on', channel=0, note=78, velocity=0, time=133),\n",
      "  Message('note_on', channel=0, note=71, velocity=73, time=11),\n",
      "  Message('note_on', channel=0, note=71, velocity=0, time=45),\n",
      "  Message('note_on', channel=0, note=76, velocity=73, time=3),\n",
      "  Message('note_on', channel=0, note=76, velocity=0, time=45),\n",
      "  Message('note_on', channel=0, note=74, velocity=73, time=3),\n",
      "  Message('note_on', channel=0, note=74, velocity=0, time=45),\n",
      "  Message('note_on', channel=0, note=73, velocity=89, time=3),\n",
      "  Message('note_on', channel=0, note=73, velocity=0, time=96),\n",
      "  Message('note_on', channel=0, note=74, velocity=73, time=0),\n",
      "  Message('note_on', channel=0, note=74, velocity=0, time=89),\n",
      "  Message('note_on', channel=0, note=78, velocity=89, time=7),\n",
      "  Message('note_on', channel=0, note=78, velocity=0, time=48),\n",
      "  Message('note_on', channel=0, note=76, velocity=73, time=0),\n",
      "  Message('note_on', channel=0, note=76, velocity=0, time=45),\n",
      "  Message('note_on', channel=0, note=73, velocity=73, time=3),\n",
      "  Message('note_on', channel=0, note=73, velocity=0, time=20),\n",
      "  Message('note_on', channel=0, note=69, velocity=73, time=28),\n",
      "  Message('note_on', channel=0, note=69, velocity=0, time=20),\n",
      "  Message('note_on', channel=0, note=78, velocity=87, time=28),\n",
      "  Message('note_on', channel=0, note=74, velocity=87, time=0),\n",
      "  Message('note_on', channel=0, note=78, velocity=0, time=23),\n",
      "  Message('note_on', channel=0, note=74, velocity=0, time=0),\n",
      "  Message('note_on', channel=0, note=86, velocity=87, time=1),\n",
      "  Message('note_on', channel=0, note=86, velocity=0, time=23),\n",
      "  Message('note_on', channel=0, note=78, velocity=87, time=1),\n",
      "  Message('note_on', channel=0, note=74, velocity=87, time=0),\n",
      "  Message('note_on', channel=0, note=78, velocity=0, time=23),\n",
      "  Message('note_on', channel=0, note=74, velocity=0, time=0),\n",
      "  Message('note_on', channel=0, note=86, velocity=87, time=1),\n",
      "  Message('note_on', channel=0, note=86, velocity=0, time=23),\n",
      "  Message('note_on', channel=0, note=78, velocity=87, time=1),\n",
      "  Message('note_on', channel=0, note=74, velocity=87, time=0),\n",
      "  Message('note_on', channel=0, note=78, velocity=0, time=23),\n",
      "  Message('note_on', channel=0, note=74, velocity=0, time=0),\n",
      "  Message('note_on', channel=0, note=86, velocity=87, time=1),\n",
      "  Message('note_on', channel=0, note=86, velocity=0, time=23),\n",
      "  Message('note_on', channel=0, note=78, velocity=87, time=1),\n",
      "  Message('note_on', channel=0, note=74, velocity=87, time=0),\n",
      "  Message('note_on', channel=0, note=78, velocity=0, time=23),\n",
      "  Message('note_on', channel=0, note=74, velocity=0, time=0),\n",
      "  Message('note_on', channel=0, note=86, velocity=87, time=1),\n",
      "  Message('note_on', channel=0, note=86, velocity=0, time=23),\n",
      "  Message('note_on', channel=0, note=78, velocity=87, time=1),\n",
      "  Message('note_on', channel=0, note=74, velocity=87, time=0),\n",
      "  Message('note_on', channel=0, note=78, velocity=0, time=23),\n",
      "  Message('note_on', channel=0, note=74, velocity=0, time=0),\n",
      "  Message('note_on', channel=0, note=86, velocity=87, time=1),\n",
      "  Message('note_on', channel=0, note=86, velocity=0, time=23),\n",
      "  Message('note_on', channel=0, note=78, velocity=87, time=1),\n",
      "  Message('note_on', channel=0, note=74, velocity=87, time=0),\n",
      "  Message('note_on', channel=0, note=78, velocity=0, time=23),\n",
      "  Message('note_on', channel=0, note=74, velocity=0, time=0),\n",
      "  Message('note_on', channel=0, note=86, velocity=87, time=1),\n",
      "  Message('note_on', channel=0, note=86, velocity=0, time=23),\n",
      "  Message('note_on', channel=0, note=78, velocity=87, time=1),\n",
      "  Message('note_on', channel=0, note=74, velocity=87, time=0),\n",
      "  Message('note_on', channel=0, note=78, velocity=0, time=23),\n",
      "  Message('note_on', channel=0, note=74, velocity=0, time=0),\n",
      "  Message('note_on', channel=0, note=86, velocity=87, time=1),\n",
      "  Message('note_on', channel=0, note=86, velocity=0, time=23),\n",
      "  Message('note_on', channel=0, note=78, velocity=87, time=1),\n",
      "  Message('note_on', channel=0, note=74, velocity=87, time=0),\n",
      "  Message('note_on', channel=0, note=78, velocity=0, time=23),\n",
      "  Message('note_on', channel=0, note=74, velocity=0, time=0),\n",
      "  Message('note_on', channel=0, note=86, velocity=87, time=1),\n",
      "  Message('note_on', channel=0, note=86, velocity=0, time=23),\n",
      "  Message('note_on', channel=0, note=76, velocity=87, time=1),\n",
      "  Message('note_on', channel=0, note=76, velocity=0, time=23),\n",
      "  Message('note_on', channel=0, note=86, velocity=87, time=1),\n",
      "  Message('note_on', channel=0, note=86, velocity=0, time=23),\n",
      "  Message('note_on', channel=0, note=76, velocity=87, time=1),\n",
      "  Message('note_on', channel=0, note=76, velocity=0, time=23),\n",
      "  Message('note_on', channel=0, note=86, velocity=87, time=1),\n",
      "  Message('note_on', channel=0, note=86, velocity=0, time=23),\n",
      "  Message('note_on', channel=0, note=76, velocity=87, time=1),\n",
      "  Message('note_on', channel=0, note=76, velocity=0, time=23),\n",
      "  Message('note_on', channel=0, note=85, velocity=87, time=1),\n",
      "  Message('note_on', channel=0, note=85, velocity=0, time=23),\n",
      "  Message('note_on', channel=0, note=76, velocity=87, time=1),\n",
      "  Message('note_on', channel=0, note=76, velocity=0, time=23),\n",
      "  Message('note_on', channel=0, note=85, velocity=87, time=1),\n",
      "  Message('note_on', channel=0, note=85, velocity=0, time=23),\n",
      "  Message('note_on', channel=0, note=78, velocity=87, time=1),\n",
      "  Message('note_on', channel=0, note=78, velocity=0, time=23),\n",
      "  Message('note_on', channel=0, note=84, velocity=87, time=1),\n",
      "  Message('note_on', channel=0, note=84, velocity=0, time=23),\n",
      "  Message('note_on', channel=0, note=78, velocity=87, time=1),\n",
      "  Message('note_on', channel=0, note=78, velocity=0, time=23),\n",
      "  Message('note_on', channel=0, note=84, velocity=87, time=1),\n",
      "  Message('note_on', channel=0, note=84, velocity=0, time=23),\n",
      "  Message('note_on', channel=0, note=79, velocity=87, time=1),\n",
      "  Message('note_on', channel=0, note=79, velocity=0, time=23),\n",
      "  Message('note_on', channel=0, note=83, velocity=87, time=1),\n",
      "  Message('note_on', channel=0, note=83, velocity=0, time=23),\n",
      "  Message('note_on', channel=0, note=79, velocity=87, time=1),\n",
      "  Message('note_on', channel=0, note=79, velocity=0, time=23),\n",
      "  Message('note_on', channel=0, note=83, velocity=87, time=1),\n",
      "  Message('note_on', channel=0, note=83, velocity=0, time=23),\n",
      "  Message('note_on', channel=0, note=73, velocity=87, time=1),\n",
      "  Message('note_on', channel=0, note=73, velocity=0, time=23),\n",
      "  Message('note_on', channel=0, note=83, velocity=87, time=1),\n",
      "  Message('note_on', channel=0, note=83, velocity=0, time=23),\n",
      "  Message('note_on', channel=0, note=73, velocity=87, time=1),\n",
      "  Message('note_on', channel=0, note=73, velocity=0, time=23),\n",
      "  Message('note_on', channel=0, note=83, velocity=87, time=1),\n",
      "  Message('note_on', channel=0, note=83, velocity=0, time=23),\n",
      "  Message('note_on', channel=0, note=73, velocity=87, time=1),\n",
      "  Message('note_on', channel=0, note=73, velocity=0, time=23),\n",
      "  Message('note_on', channel=0, note=82, velocity=87, time=1),\n",
      "  Message('note_on', channel=0, note=82, velocity=0, time=23),\n",
      "  Message('note_on', channel=0, note=73, velocity=87, time=1),\n",
      "  Message('note_on', channel=0, note=73, velocity=0, time=23),\n",
      "  Message('note_on', channel=0, note=82, velocity=87, time=1),\n",
      "  Message('note_on', channel=0, note=82, velocity=0, time=23),\n",
      "  Message('note_on', channel=0, note=75, velocity=87, time=1),\n",
      "  Message('note_on', channel=0, note=75, velocity=0, time=23),\n",
      "  Message('note_on', channel=0, note=81, velocity=87, time=1),\n",
      "  Message('note_on', channel=0, note=81, velocity=0, time=23),\n",
      "  Message('note_on', channel=0, note=75, velocity=87, time=1),\n",
      "  Message('note_on', channel=0, note=75, velocity=0, time=23),\n",
      "  Message('note_on', channel=0, note=81, velocity=87, time=1),\n",
      "  Message('note_on', channel=0, note=81, velocity=0, time=23),\n",
      "  Message('note_on', channel=0, note=76, velocity=87, time=1),\n",
      "  Message('note_on', channel=0, note=76, velocity=0, time=23),\n",
      "  Message('note_on', channel=0, note=80, velocity=87, time=1),\n",
      "  Message('note_on', channel=0, note=80, velocity=0, time=23),\n",
      "  Message('note_on', channel=0, note=76, velocity=87, time=1),\n",
      "  Message('note_on', channel=0, note=76, velocity=0, time=23),\n",
      "  Message('note_on', channel=0, note=80, velocity=87, time=1),\n",
      "  Message('note_on', channel=0, note=80, velocity=0, time=23),\n",
      "  Message('note_on', channel=0, note=79, velocity=103, time=1),\n",
      "  Message('note_on', channel=0, note=76, velocity=103, time=0),\n",
      "  Message('note_on', channel=0, note=79, velocity=0, time=96),\n",
      "  Message('note_on', channel=0, note=76, velocity=0, time=0),\n",
      "  Message('note_on', channel=0, note=78, velocity=87, time=0),\n",
      "  Message('note_on', channel=0, note=74, velocity=87, time=0),\n",
      "  Message('note_on', channel=0, note=78, velocity=0, time=133),\n",
      "  Message('note_on', channel=0, note=74, velocity=0, time=0),\n",
      "  Message('note_on', channel=0, note=71, velocity=87, time=11),\n",
      "  Message('note_on', channel=0, note=71, velocity=0, time=45),\n",
      "  Message('note_on', channel=0, note=76, velocity=87, time=3),\n",
      "  Message('note_on', channel=0, note=76, velocity=0, time=45),\n",
      "  Message('note_on', channel=0, note=74, velocity=87, time=3),\n",
      "  Message('note_on', channel=0, note=74, velocity=0, time=45),\n",
      "  Message('note_on', channel=0, note=73, velocity=105, time=3),\n",
      "  Message('note_on', channel=0, note=70, velocity=105, time=0),\n",
      "  Message('note_on', channel=0, note=64, velocity=105, time=0),\n",
      "  Message('note_on', channel=0, note=73, velocity=0, time=89),\n",
      "  Message('note_on', channel=0, note=70, velocity=0, time=0),\n",
      "  Message('note_on', channel=0, note=64, velocity=0, time=0),\n",
      "  Message('note_on', channel=0, note=74, velocity=87, time=7),\n",
      "  Message('note_on', channel=0, note=69, velocity=87, time=0),\n",
      "  Message('note_on', channel=0, note=66, velocity=87, time=0),\n",
      "  Message('note_on', channel=0, note=74, velocity=0, time=89),\n",
      "  Message('note_on', channel=0, note=69, velocity=0, time=0),\n",
      "  Message('note_on', channel=0, note=66, velocity=0, time=0),\n",
      "  Message('note_on', channel=0, note=78, velocity=87, time=295),\n",
      "  Message('note_on', channel=0, note=74, velocity=87, time=0),\n",
      "  Message('note_on', channel=0, note=78, velocity=0, time=133),\n",
      "  Message('note_on', channel=0, note=74, velocity=0, time=0),\n",
      "  Message('note_on', channel=0, note=70, velocity=87, time=11),\n",
      "  Message('note_on', channel=0, note=70, velocity=0, time=45),\n",
      "  Message('note_on', channel=0, note=76, velocity=87, time=3),\n",
      "  Message('note_on', channel=0, note=76, velocity=0, time=45),\n",
      "  Message('note_on', channel=0, note=74, velocity=87, time=3),\n",
      "  Message('note_on', channel=0, note=74, velocity=0, time=45),\n",
      "  Message('note_on', channel=0, note=73, velocity=105, time=3),\n",
      "  Message('note_on', channel=0, note=70, velocity=105, time=0),\n",
      "  Message('note_on', channel=0, note=64, velocity=105, time=0),\n",
      "  Message('note_on', channel=0, note=73, velocity=0, time=89),\n",
      "  Message('note_on', channel=0, note=70, velocity=0, time=0),\n",
      "  Message('note_on', channel=0, note=64, velocity=0, time=0),\n",
      "  Message('note_on', channel=0, note=78, velocity=87, time=295),\n",
      "  Message('note_on', channel=0, note=74, velocity=87, time=0),\n",
      "  Message('note_on', channel=0, note=78, velocity=0, time=20),\n",
      "  Message('note_on', channel=0, note=74, velocity=0, time=0),\n",
      "  Message('note_on', channel=0, note=78, velocity=86, time=28),\n",
      "  Message('note_on', channel=0, note=74, velocity=86, time=0),\n",
      "  Message('note_on', channel=0, note=78, velocity=0, time=20),\n",
      "  Message('note_on', channel=0, note=74, velocity=0, time=0),\n",
      "  Message('note_on', channel=0, note=81, velocity=85, time=28),\n",
      "  Message('note_on', channel=0, note=78, velocity=85, time=0),\n",
      "  Message('note_on', channel=0, note=81, velocity=0, time=20),\n",
      "  Message('note_on', channel=0, note=78, velocity=0, time=0),\n",
      "  Message('note_on', channel=0, note=81, velocity=85, time=28),\n",
      "  Message('note_on', channel=0, note=78, velocity=85, time=0),\n",
      "  Message('note_on', channel=0, note=81, velocity=0, time=20),\n",
      "  Message('note_on', channel=0, note=78, velocity=0, time=0),\n",
      "  Message('note_on', channel=0, note=79, velocity=84, time=28),\n",
      "  Message('note_on', channel=0, note=76, velocity=84, time=0),\n",
      "  Message('note_on', channel=0, note=79, velocity=0, time=20),\n",
      "  Message('note_on', channel=0, note=76, velocity=0, time=0),\n",
      "  Message('note_on', channel=0, note=79, velocity=83, time=28),\n",
      "  Message('note_on', channel=0, note=76, velocity=83, time=0),\n",
      "  Message('note_on', channel=0, note=79, velocity=0, time=20),\n",
      "  Message('note_on', channel=0, note=76, velocity=0, time=0),\n",
      "  Message('note_on', channel=0, note=76, velocity=83, time=28),\n",
      "  Message('note_on', channel=0, note=73, velocity=83, time=0),\n",
      "  Message('note_on', channel=0, note=76, velocity=0, time=20),\n",
      "  Message('note_on', channel=0, note=73, velocity=0, time=0),\n",
      "  Message('note_on', channel=0, note=76, velocity=82, time=28),\n",
      "  Message('note_on', channel=0, note=73, velocity=82, time=0),\n",
      "  Message('note_on', channel=0, note=76, velocity=0, time=20),\n",
      "  Message('note_on', channel=0, note=73, velocity=0, time=0),\n",
      "  Message('note_on', channel=0, note=74, velocity=82, time=28),\n",
      "  Message('note_on', channel=0, note=74, velocity=0, time=89),\n",
      "  Message('note_on', channel=0, note=85, velocity=82, time=31),\n",
      "  Message('note_on', channel=0, note=85, velocity=0, time=23),\n",
      "  Message('note_on', channel=0, note=86, velocity=82, time=1),\n",
      "  Message('note_on', channel=0, note=86, velocity=0, time=23),\n",
      "  Message('note_on', channel=0, note=85, velocity=82, time=1),\n",
      "  Message('note_on', channel=0, note=85, velocity=0, time=23),\n",
      "  Message('note_on', channel=0, note=86, velocity=83, time=1),\n",
      "  Message('note_on', channel=0, note=86, velocity=0, time=23),\n",
      "  Message('note_on', channel=0, note=88, velocity=83, time=1),\n",
      "  Message('note_on', channel=0, note=88, velocity=0, time=23),\n",
      "  Message('note_on', channel=0, note=84, velocity=83, time=1),\n",
      "  Message('note_on', channel=0, note=84, velocity=0, time=23),\n",
      "  Message('note_on', channel=0, note=86, velocity=84, time=1),\n",
      "  Message('note_on', channel=0, note=86, velocity=0, time=23),\n",
      "  Message('note_on', channel=0, note=83, velocity=84, time=1),\n",
      "  Message('note_on', channel=0, note=83, velocity=0, time=23),\n",
      "  Message('note_on', channel=0, note=84, velocity=84, time=1),\n",
      "  Message('note_on', channel=0, note=84, velocity=0, time=23),\n",
      "  Message('note_on', channel=0, note=81, velocity=85, time=1),\n",
      "  Message('note_on', channel=0, note=81, velocity=0, time=23),\n",
      "  Message('note_on', channel=0, note=83, velocity=85, time=1),\n",
      "  Message('note_on', channel=0, note=83, velocity=0, time=23),\n",
      "  Message('note_on', channel=0, note=79, velocity=85, time=1),\n",
      "  Message('note_on', channel=0, note=79, velocity=0, time=89),\n",
      "  Message('note_on', channel=0, note=79, velocity=86, time=31),\n",
      "  Message('note_on', channel=0, note=79, velocity=0, time=23),\n",
      "  Message('note_on', channel=0, note=81, velocity=86, time=1),\n",
      "  Message('note_on', channel=0, note=81, velocity=0, time=23),\n",
      "  Message('note_on', channel=0, note=83, velocity=85, time=1),\n",
      "  Message('note_on', channel=0, note=83, velocity=0, time=23),\n",
      "  Message('note_on', channel=0, note=81, velocity=85, time=1),\n",
      "  Message('note_on', channel=0, note=81, velocity=0, time=23),\n",
      "  Message('note_on', channel=0, note=83, velocity=84, time=1),\n",
      "  Message('note_on', channel=0, note=83, velocity=0, time=23),\n",
      "  Message('note_on', channel=0, note=79, velocity=84, time=1),\n",
      "  Message('note_on', channel=0, note=79, velocity=0, time=23),\n",
      "  Message('note_on', channel=0, note=81, velocity=84, time=1),\n",
      "  Message('note_on', channel=0, note=81, velocity=0, time=23),\n",
      "  Message('note_on', channel=0, note=78, velocity=83, time=1),\n",
      "  Message('note_on', channel=0, note=78, velocity=0, time=23),\n",
      "  Message('note_on', channel=0, note=79, velocity=83, time=1),\n",
      "  Message('note_on', channel=0, note=79, velocity=0, time=23),\n",
      "  Message('note_on', channel=0, note=76, velocity=82, time=1),\n",
      "  Message('note_on', channel=0, note=76, velocity=0, time=23),\n",
      "  Message('note_on', channel=0, note=78, velocity=82, time=1),\n",
      "  Message('note_on', channel=0, note=78, velocity=0, time=23),\n",
      "  Message('note_on', channel=0, note=74, velocity=82, time=1),\n",
      "  Message('note_on', channel=0, note=74, velocity=0, time=89),\n",
      "  Message('note_on', channel=0, note=85, velocity=82, time=31),\n",
      "  Message('note_on', channel=0, note=85, velocity=0, time=23),\n",
      "  Message('note_on', channel=0, note=86, velocity=73, time=1),\n",
      "  Message('note_on', channel=0, note=86, velocity=0, time=23),\n",
      "  Message('note_on', channel=0, note=85, velocity=73, time=1),\n",
      "  Message('note_on', channel=0, note=85, velocity=0, time=23),\n",
      "  Message('note_on', channel=0, note=86, velocity=73, time=1),\n",
      "  Message('note_on', channel=0, note=86, velocity=0, time=23),\n",
      "  Message('note_on', channel=0, note=88, velocity=74, time=1),\n",
      "  Message('note_on', channel=0, note=88, velocity=0, time=23),\n",
      "  Message('note_on', channel=0, note=84, velocity=74, time=1),\n",
      "  Message('note_on', channel=0, note=84, velocity=0, time=23),\n",
      "  Message('note_on', channel=0, note=86, velocity=74, time=1),\n",
      "  Message('note_on', channel=0, note=86, velocity=0, time=23),\n",
      "  Message('note_on', channel=0, note=83, velocity=75, time=1),\n",
      "  Message('note_on', channel=0, note=83, velocity=0, time=23),\n",
      "  Message('note_on', channel=0, note=84, velocity=75, time=1),\n",
      "  Message('note_on', channel=0, note=84, velocity=0, time=23),\n",
      "  Message('note_on', channel=0, note=81, velocity=75, time=1),\n",
      "  Message('note_on', channel=0, note=81, velocity=0, time=23),\n",
      "  Message('note_on', channel=0, note=83, velocity=76, time=1),\n",
      "  Message('note_on', channel=0, note=83, velocity=0, time=23),\n",
      "  Message('note_on', channel=0, note=79, velocity=76, time=1),\n",
      "  Message('note_on', channel=0, note=79, velocity=0, time=89),\n",
      "  Message('note_on', channel=0, note=79, velocity=77, time=31),\n",
      "  Message('note_on', channel=0, note=79, velocity=0, time=23),\n",
      "  Message('note_on', channel=0, note=81, velocity=77, time=1),\n",
      "  Message('note_on', channel=0, note=81, velocity=0, time=23),\n",
      "  Message('note_on', channel=0, note=83, velocity=76, time=1),\n",
      "  Message('note_on', channel=0, note=83, velocity=0, time=23),\n",
      "  Message('note_on', channel=0, note=81, velocity=76, time=1),\n",
      "  Message('note_on', channel=0, note=81, velocity=0, time=23),\n",
      "  Message('note_on', channel=0, note=83, velocity=75, time=1),\n",
      "  Message('note_on', channel=0, note=83, velocity=0, time=23),\n",
      "  Message('note_on', channel=0, note=79, velocity=75, time=1),\n",
      "  Message('note_on', channel=0, note=79, velocity=0, time=23),\n",
      "  Message('note_on', channel=0, note=81, velocity=75, time=1),\n",
      "  Message('note_on', channel=0, note=81, velocity=0, time=23),\n",
      "  Message('note_on', channel=0, note=78, velocity=74, time=1),\n",
      "  Message('note_on', channel=0, note=78, velocity=0, time=23),\n",
      "  Message('note_on', channel=0, note=79, velocity=74, time=1),\n",
      "  Message('note_on', channel=0, note=79, velocity=0, time=23),\n",
      "  Message('note_on', channel=0, note=76, velocity=73, time=1),\n",
      "  Message('note_on', channel=0, note=76, velocity=0, time=23),\n",
      "  Message('note_on', channel=0, note=78, velocity=73, time=1),\n",
      "  Message('note_on', channel=0, note=78, velocity=0, time=23),\n",
      "  Message('note_on', channel=0, note=74, velocity=73, time=1),\n",
      "  Message('note_on', channel=0, note=74, velocity=0, time=23),\n",
      "  Message('note_on', channel=0, note=66, velocity=73, time=1),\n",
      "  Message('note_on', channel=0, note=66, velocity=0, time=23),\n",
      "  Message('note_on', channel=0, note=69, velocity=74, time=1),\n",
      "  Message('note_on', channel=0, note=69, velocity=0, time=23),\n",
      "  Message('note_on', channel=0, note=74, velocity=76, time=1),\n",
      "  Message('note_on', channel=0, note=74, velocity=0, time=23),\n",
      "  Message('note_on', channel=0, note=78, velocity=77, time=1),\n",
      "  Message('note_on', channel=0, note=78, velocity=0, time=23),\n",
      "  Message('note_on', channel=0, note=69, velocity=79, time=1),\n",
      "  Message('note_on', channel=0, note=69, velocity=0, time=23),\n",
      "  Message('note_on', channel=0, note=74, velocity=80, time=1),\n",
      "  Message('note_on', channel=0, note=74, velocity=0, time=23),\n",
      "  Message('note_on', channel=0, note=78, velocity=82, time=1),\n",
      "  Message('note_on', channel=0, note=78, velocity=0, time=23),\n",
      "  Message('note_on', channel=0, note=81, velocity=83, time=1),\n",
      "  Message('note_on', channel=0, note=81, velocity=0, time=20),\n",
      "  Message('note_on', channel=0, note=81, velocity=87, time=28),\n",
      "  Message('note_on', channel=0, note=81, velocity=0, time=20),\n",
      "  Message('note_on', channel=0, note=73, velocity=87, time=76),\n",
      "  Message('note_on', channel=0, note=69, velocity=87, time=0),\n",
      "  Message('note_on', channel=0, note=67, velocity=87, time=0),\n",
      "  Message('note_on', channel=0, note=64, velocity=87, time=0),\n",
      "  Message('note_on', channel=0, note=73, velocity=0, time=20),\n",
      "  Message('note_on', channel=0, note=69, velocity=0, time=0),\n",
      "  Message('note_on', channel=0, note=67, velocity=0, time=0),\n",
      "  Message('note_on', channel=0, note=64, velocity=0, time=0),\n",
      "  Message('note_on', channel=0, note=74, velocity=103, time=28),\n",
      "  Message('note_on', channel=0, note=69, velocity=103, time=0),\n",
      "  Message('note_on', channel=0, note=66, velocity=103, time=0),\n",
      "  Message('note_on', channel=0, note=74, velocity=0, time=96),\n",
      "  Message('note_on', channel=0, note=69, velocity=0, time=0),\n",
      "  Message('note_on', channel=0, note=66, velocity=0, time=0),\n",
      "  Message('note_on', channel=0, note=73, velocity=87, time=192),\n",
      "  Message('note_on', channel=0, note=69, velocity=87, time=0),\n",
      "  Message('note_on', channel=0, note=67, velocity=87, time=0),\n",
      "  Message('note_on', channel=0, note=64, velocity=87, time=0),\n",
      "  Message('note_on', channel=0, note=73, velocity=0, time=89),\n",
      "  Message('note_on', channel=0, note=69, velocity=0, time=0),\n",
      "  Message('note_on', channel=0, note=67, velocity=0, time=0),\n",
      "  Message('note_on', channel=0, note=64, velocity=0, time=0),\n",
      "  Message('note_on', channel=0, note=74, velocity=87, time=7),\n",
      "  Message('note_on', channel=0, note=74, velocity=0, time=10),\n",
      "  Message('note_on', channel=0, note=62, velocity=87, time=14),\n",
      "  Message('note_on', channel=0, note=62, velocity=0, time=23),\n",
      "  Message('note_on', channel=0, note=66, velocity=87, time=1),\n",
      "  Message('note_on', channel=0, note=66, velocity=0, time=23),\n",
      "  Message('note_on', channel=0, note=69, velocity=87, time=1),\n",
      "  Message('note_on', channel=0, note=69, velocity=0, time=23),\n",
      "  Message('note_on', channel=0, note=74, velocity=87, time=1),\n",
      "  Message('note_on', channel=0, note=74, velocity=0, time=23),\n",
      "  Message('note_on', channel=0, note=66, velocity=87, time=1),\n",
      "  Message('note_on', channel=0, note=66, velocity=0, time=23),\n",
      "  Message('note_on', channel=0, note=69, velocity=87, time=1),\n",
      "  Message('note_on', channel=0, note=69, velocity=0, time=23),\n",
      "  Message('note_on', channel=0, note=74, velocity=87, time=1),\n",
      "  Message('note_on', channel=0, note=74, velocity=0, time=23),\n",
      "  Message('note_on', channel=0, note=78, velocity=87, time=1),\n",
      "  Message('note_on', channel=0, note=78, velocity=0, time=23),\n",
      "  Message('note_on', channel=0, note=69, velocity=87, time=1),\n",
      "  Message('note_on', channel=0, note=69, velocity=0, time=23),\n",
      "  Message('note_on', channel=0, note=74, velocity=87, time=1),\n",
      "  Message('note_on', channel=0, note=74, velocity=0, time=23),\n",
      "  Message('note_on', channel=0, note=78, velocity=87, time=1),\n",
      "  Message('note_on', channel=0, note=78, velocity=0, time=23),\n",
      "  Message('note_on', channel=0, note=81, velocity=87, time=1),\n",
      "  Message('note_on', channel=0, note=81, velocity=0, time=23),\n",
      "  Message('note_on', channel=0, note=78, velocity=87, time=1),\n",
      "  Message('note_on', channel=0, note=78, velocity=0, time=23),\n",
      "  Message('note_on', channel=0, note=81, velocity=87, time=1),\n",
      "  Message('note_on', channel=0, note=81, velocity=0, time=23),\n",
      "  Message('note_on', channel=0, note=78, velocity=87, time=1),\n",
      "  Message('note_on', channel=0, note=78, velocity=0, time=23),\n",
      "  Message('note_on', channel=0, note=74, velocity=103, time=1),\n",
      "  Message('note_on', channel=0, note=74, velocity=0, time=39),\n",
      "  Message('note_on', channel=0, note=86, velocity=103, time=57),\n",
      "  Message('note_on', channel=0, note=86, velocity=0, time=39),\n",
      "  Message('note_on', channel=0, note=62, velocity=103, time=57),\n",
      "  Message('note_on', channel=0, note=62, velocity=0, time=96),\n",
      "  MetaMessage('end_of_track', time=96)])\n"
     ]
    }
   ],
   "source": [
    "print(mid.tracks[1])"
   ]
  },
  {
   "cell_type": "code",
   "execution_count": 14,
   "metadata": {},
   "outputs": [
    {
     "name": "stdout",
     "output_type": "stream",
     "text": [
      "MetaMessage('sequencer_specific', data=(68, 87, 77, 90, 86, 82, 83, 78, 32, 56, 46, 48, 46, 53, 46, 48), time=0)\n",
      "MetaMessage('time_signature', numerator=4, denominator=4, clocks_per_click=24, notated_32nd_notes_per_beat=8, time=0)\n",
      "MetaMessage('set_tempo', tempo=428571, time=0)\n",
      "MetaMessage('key_signature', key='D', time=0)\n",
      "MetaMessage('end_of_track', time=105216)\n"
     ]
    }
   ],
   "source": [
    "for i in mid.tracks[0]:\n",
    "    print(i)"
   ]
  }
 ],
 "metadata": {
  "kernelspec": {
   "display_name": "Music",
   "language": "python",
   "name": "python3"
  },
  "language_info": {
   "codemirror_mode": {
    "name": "ipython",
    "version": 3
   },
   "file_extension": ".py",
   "mimetype": "text/x-python",
   "name": "python",
   "nbconvert_exporter": "python",
   "pygments_lexer": "ipython3",
   "version": "3.9.6"
  }
 },
 "nbformat": 4,
 "nbformat_minor": 2
}
