{
 "cells": [
  {
   "cell_type": "code",
   "execution_count": 1,
   "metadata": {},
   "outputs": [],
   "source": [
    "from mido import MidiFile"
   ]
  },
  {
   "cell_type": "code",
   "execution_count": 3,
   "metadata": {},
   "outputs": [
    {
     "name": "stdout",
     "output_type": "stream",
     "text": [
      "4\n"
     ]
    }
   ],
   "source": [
    "mid = MidiFile('./Dataset-RAW/Beethoven_Piano_Concerto_No_4,_3rd_Mvmt_(Arr_for_2_pianos).mid')\n",
    "print(len(mid.tracks))"
   ]
  },
  {
   "cell_type": "code",
   "execution_count": 7,
   "metadata": {},
   "outputs": [
    {
     "name": "stdout",
     "output_type": "stream",
     "text": [
      "Track 0: \n",
      "MetaMessage('time_signature', numerator=2, denominator=4, clocks_per_click=24, notated_32nd_notes_per_beat=8, time=0)\n",
      "MetaMessage('key_signature', key='G', time=0)\n",
      "MetaMessage('set_tempo', tempo=416667, time=0)\n",
      "control_change channel=0 control=121 value=0 time=0\n",
      "program_change channel=0 program=0 time=0\n",
      "control_change channel=0 control=7 value=100 time=0\n",
      "control_change channel=0 control=10 value=64 time=0\n",
      "control_change channel=0 control=91 value=0 time=0\n",
      "control_change channel=0 control=93 value=0 time=0\n",
      "MetaMessage('midi_port', port=0, time=0)\n",
      "note_on channel=0 note=76 velocity=64 time=9600\n",
      "note_on channel=0 note=76 velocity=0 time=455\n",
      "note_on channel=0 note=76 velocity=64 time=145\n",
      "note_on channel=0 note=76 velocity=0 time=113\n",
      "note_on channel=0 note=79 velocity=64 time=7\n",
      "note_on channel=0 note=79 velocity=0 time=113\n",
      "note_on channel=0 note=77 velocity=64 time=7\n",
      "note_on channel=0 note=77 velocity=0 time=113\n",
      "note_on channel=0 note=76 velocity=64 time=7\n",
      "note_on channel=0 note=76 velocity=0 time=455\n",
      "note_on channel=0 note=76 velocity=64 time=145\n",
      "note_on channel=0 note=76 velocity=0 time=113\n",
      "note_on channel=0 note=79 velocity=64 time=7\n",
      "note_on channel=0 note=79 velocity=0 time=113\n",
      "note_on channel=0 note=77 velocity=64 time=7\n",
      "note_on channel=0 note=77 velocity=0 time=113\n",
      "note_on channel=0 note=76 velocity=64 time=7\n",
      "note_on channel=0 note=76 velocity=0 time=113\n",
      "note_on channel=0 note=76 velocity=64 time=7\n",
      "note_on channel=0 note=76 velocity=0 time=113\n",
      "note_on channel=0 note=79 velocity=64 time=7\n",
      "note_on channel=0 note=79 velocity=0 time=113\n",
      "note_on channel=0 note=77 velocity=64 time=7\n",
      "note_on channel=0 note=77 velocity=0 time=113\n",
      "note_on channel=0 note=76 velocity=64 time=7\n",
      "note_on channel=0 note=76 velocity=0 time=113\n",
      "note_on channel=0 note=76 velocity=64 time=7\n",
      "note_on channel=0 note=76 velocity=0 time=113\n",
      "note_on channel=0 note=79 velocity=64 time=7\n",
      "note_on channel=0 note=79 velocity=0 time=113\n",
      "note_on channel=0 note=84 velocity=64 time=7\n",
      "note_on channel=0 note=84 velocity=0 time=113\n",
      "note_on channel=0 note=88 velocity=64 time=7\n",
      "note_on channel=0 note=88 velocity=0 time=227\n",
      "note_on channel=0 note=88 velocity=64 time=733\n",
      "note_on channel=0 note=88 velocity=0 time=56\n",
      "note_on channel=0 note=89 velocity=64 time=4\n",
      "note_on channel=0 note=89 velocity=0 time=56\n",
      "note_on channel=0 note=88 velocity=64 time=4\n",
      "note_on channel=0 note=88 velocity=0 time=56\n",
      "note_on channel=0 note=89 velocity=64 time=4\n",
      "note_on channel=0 note=89 velocity=0 time=56\n",
      "note_on channel=0 note=86 velocity=64 time=4\n",
      "note_on channel=0 note=86 velocity=0 time=113\n",
      "note_on channel=0 note=88 velocity=64 time=7\n",
      "note_on channel=0 note=88 velocity=0 time=113\n",
      "note_on channel=0 note=84 velocity=64 time=7\n",
      "note_on channel=0 note=84 velocity=0 time=55\n",
      "note_on channel=0 note=86 velocity=64 time=5\n",
      "note_on channel=0 note=86 velocity=0 time=55\n",
      "note_on channel=0 note=84 velocity=64 time=5\n",
      "note_on channel=0 note=84 velocity=0 time=55\n",
      "note_on channel=0 note=86 velocity=64 time=5\n",
      "note_on channel=0 note=86 velocity=0 time=55\n",
      "note_on channel=0 note=83 velocity=64 time=5\n",
      "note_on channel=0 note=83 velocity=0 time=113\n",
      "note_on channel=0 note=84 velocity=64 time=7\n",
      "note_on channel=0 note=84 velocity=0 time=113\n",
      "note_on channel=0 note=81 velocity=64 time=7\n",
      "note_on channel=0 note=81 velocity=0 time=227\n",
      "note_on channel=0 note=81 velocity=64 time=733\n",
      "note_on channel=0 note=81 velocity=0 time=55\n",
      "note_on channel=0 note=83 velocity=64 time=5\n",
      "note_on channel=0 note=83 velocity=0 time=55\n",
      "note_on channel=0 note=81 velocity=64 time=5\n",
      "note_on channel=0 note=81 velocity=0 time=55\n",
      "note_on channel=0 note=83 velocity=64 time=5\n",
      "note_on channel=0 note=83 velocity=0 time=55\n",
      "note_on channel=0 note=79 velocity=64 time=5\n",
      "note_on channel=0 note=79 velocity=0 time=113\n",
      "note_on channel=0 note=81 velocity=64 time=7\n",
      "note_on channel=0 note=81 velocity=0 time=113\n",
      "note_on channel=0 note=86 velocity=64 time=7\n",
      "note_on channel=0 note=86 velocity=0 time=55\n",
      "note_on channel=0 note=88 velocity=64 time=5\n",
      "note_on channel=0 note=88 velocity=0 time=55\n",
      "note_on channel=0 note=86 velocity=64 time=5\n",
      "note_on channel=0 note=86 velocity=0 time=55\n",
      "note_on channel=0 note=88 velocity=64 time=5\n",
      "note_on channel=0 note=88 velocity=0 time=55\n",
      "note_on channel=0 note=84 velocity=64 time=5\n",
      "note_on channel=0 note=84 velocity=0 time=113\n",
      "note_on channel=0 note=86 velocity=64 time=7\n",
      "note_on channel=0 note=86 velocity=0 time=113\n",
      "note_on channel=0 note=83 velocity=64 time=7\n",
      "note_on channel=0 note=83 velocity=0 time=55\n",
      "note_on channel=0 note=84 velocity=64 time=5\n",
      "note_on channel=0 note=84 velocity=0 time=55\n",
      "note_on channel=0 note=83 velocity=64 time=5\n",
      "note_on channel=0 note=83 velocity=0 time=55\n",
      "note_on channel=0 note=84 velocity=64 time=5\n",
      "note_on channel=0 note=84 velocity=0 time=55\n",
      "note_on channel=0 note=81 velocity=64 time=5\n",
      "note_on channel=0 note=81 velocity=0 time=113\n",
      "note_on channel=0 note=83 velocity=64 time=7\n",
      "note_on channel=0 note=83 velocity=0 time=113\n",
      "note_on channel=0 note=79 velocity=64 time=7\n",
      "note_on channel=0 note=79 velocity=0 time=227\n",
      "note_on channel=0 note=81 velocity=96 time=253\n",
      "note_on channel=0 note=81 velocity=0 time=119\n",
      "note_on channel=0 note=74 velocity=96 time=361\n",
      "note_on channel=0 note=74 velocity=0 time=119\n",
      "note_on channel=0 note=71 velocity=115 time=361\n",
      "note_on channel=0 note=71 velocity=0 time=959\n",
      "note_on channel=0 note=79 velocity=64 time=3841\n",
      "note_on channel=0 note=74 velocity=64 time=0\n",
      "note_on channel=0 note=79 velocity=0 time=227\n",
      "note_on channel=0 note=78 velocity=64 time=13\n",
      "note_on channel=0 note=78 velocity=0 time=113\n",
      "note_on channel=0 note=79 velocity=64 time=7\n",
      "note_on channel=0 note=79 velocity=0 time=113\n",
      "note_on channel=0 note=81 velocity=64 time=7\n",
      "note_on channel=0 note=81 velocity=0 time=227\n",
      "note_on channel=0 note=79 velocity=64 time=13\n",
      "note_on channel=0 note=79 velocity=0 time=113\n",
      "note_on channel=0 note=78 velocity=64 time=7\n",
      "note_on channel=0 note=78 velocity=0 time=113\n",
      "note_on channel=0 note=79 velocity=64 time=7\n",
      "note_on channel=0 note=74 velocity=0 time=179\n",
      "note_on channel=0 note=79 velocity=0 time=48\n",
      "note_on channel=0 note=86 velocity=64 time=13\n",
      "note_on channel=0 note=74 velocity=64 time=0\n",
      "note_on channel=0 note=86 velocity=0 time=227\n",
      "note_on channel=0 note=74 velocity=0 time=0\n",
      "note_on channel=0 note=84 velocity=64 time=13\n",
      "note_on channel=0 note=72 velocity=64 time=0\n",
      "note_on channel=0 note=84 velocity=0 time=455\n",
      "note_on channel=0 note=72 velocity=0 time=0\n",
      "note_on channel=0 note=83 velocity=64 time=25\n",
      "note_on channel=0 note=71 velocity=64 time=0\n",
      "note_on channel=0 note=83 velocity=0 time=227\n",
      "note_on channel=0 note=81 velocity=64 time=13\n",
      "note_on channel=0 note=81 velocity=0 time=113\n",
      "note_on channel=0 note=79 velocity=64 time=7\n",
      "note_on channel=0 note=71 velocity=0 time=95\n",
      "note_on channel=0 note=79 velocity=0 time=18\n",
      "note_on channel=0 note=81 velocity=64 time=7\n",
      "note_on channel=0 note=69 velocity=64 time=0\n",
      "note_on channel=0 note=81 velocity=0 time=227\n",
      "note_on channel=0 note=79 velocity=64 time=13\n",
      "note_on channel=0 note=79 velocity=0 time=113\n",
      "note_on channel=0 note=78 velocity=64 time=7\n",
      "note_on channel=0 note=69 velocity=0 time=95\n",
      "note_on channel=0 note=78 velocity=0 time=18\n",
      "note_on channel=0 note=79 velocity=64 time=7\n",
      "note_on channel=0 note=71 velocity=64 time=0\n",
      "note_on channel=0 note=79 velocity=0 time=227\n",
      "note_on channel=0 note=71 velocity=0 time=0\n",
      "note_on channel=0 note=76 velocity=64 time=13\n",
      "note_on channel=0 note=73 velocity=64 time=0\n",
      "note_on channel=0 note=76 velocity=0 time=227\n",
      "note_on channel=0 note=73 velocity=0 time=0\n",
      "note_on channel=0 note=74 velocity=64 time=13\n",
      "note_on channel=0 note=74 velocity=0 time=0\n",
      "note_on channel=0 note=74 velocity=64 time=0\n",
      "note_on channel=0 note=74 velocity=0 time=227\n",
      "note_on channel=0 note=71 velocity=115 time=1213\n",
      "note_on channel=0 note=79 velocity=115 time=0\n",
      "note_on channel=0 note=71 velocity=0 time=119\n",
      "note_on channel=0 note=79 velocity=0 time=0\n",
      "note_on channel=0 note=73 velocity=96 time=1\n",
      "note_on channel=0 note=76 velocity=96 time=0\n",
      "note_on channel=0 note=73 velocity=0 time=113\n",
      "note_on channel=0 note=76 velocity=0 time=0\n",
      "note_on channel=0 note=74 velocity=96 time=7\n",
      "note_on channel=0 note=74 velocity=0 time=119\n",
      "note_on channel=0 note=86 velocity=106 time=14281\n",
      "note_on channel=0 note=86 velocity=0 time=455\n",
      "note_on channel=0 note=74 velocity=96 time=25\n",
      "note_on channel=0 note=74 velocity=0 time=119\n",
      "note_on channel=0 note=84 velocity=96 time=121\n",
      "note_on channel=0 note=84 velocity=0 time=119\n",
      "note_on channel=0 note=72 velocity=96 time=121\n",
      "note_on channel=0 note=72 velocity=0 time=119\n",
      "note_on channel=0 note=83 velocity=96 time=121\n",
      "note_on channel=0 note=83 velocity=0 time=119\n",
      "note_on channel=0 note=71 velocity=96 time=121\n",
      "note_on channel=0 note=71 velocity=0 time=119\n",
      "note_on channel=0 note=81 velocity=96 time=121\n",
      "note_on channel=0 note=81 velocity=0 time=227\n",
      "note_on channel=0 note=69 velocity=96 time=13\n",
      "note_on channel=0 note=69 velocity=0 time=227\n",
      "note_on channel=0 note=79 velocity=96 time=13\n",
      "note_on channel=0 note=79 velocity=0 time=227\n",
      "note_on channel=0 note=67 velocity=96 time=13\n",
      "note_on channel=0 note=67 velocity=0 time=227\n",
      "note_on channel=0 note=81 velocity=96 time=13\n",
      "note_on channel=0 note=81 velocity=0 time=227\n",
      "note_on channel=0 note=69 velocity=96 time=13\n",
      "note_on channel=0 note=69 velocity=0 time=227\n",
      "note_on channel=0 note=78 velocity=96 time=13\n",
      "note_on channel=0 note=78 velocity=0 time=227\n",
      "note_on channel=0 note=66 velocity=96 time=13\n",
      "note_on channel=0 note=66 velocity=0 time=227\n",
      "note_on channel=0 note=83 velocity=106 time=4093\n",
      "note_on channel=0 note=83 velocity=0 time=455\n",
      "note_on channel=0 note=71 velocity=96 time=25\n",
      "note_on channel=0 note=71 velocity=0 time=227\n",
      "note_on channel=0 note=81 velocity=96 time=13\n",
      "note_on channel=0 note=81 velocity=0 time=227\n",
      "note_on channel=0 note=69 velocity=96 time=13\n",
      "note_on channel=0 note=69 velocity=0 time=227\n",
      "note_on channel=0 note=79 velocity=96 time=13\n",
      "note_on channel=0 note=79 velocity=0 time=227\n",
      "note_on channel=0 note=67 velocity=96 time=13\n",
      "note_on channel=0 note=67 velocity=0 time=227\n",
      "note_on channel=0 note=78 velocity=96 time=13\n",
      "note_on channel=0 note=78 velocity=0 time=227\n",
      "note_on channel=0 note=66 velocity=96 time=13\n",
      "note_on channel=0 note=66 velocity=0 time=227\n",
      "note_on channel=0 note=76 velocity=96 time=13\n",
      "note_on channel=0 note=76 velocity=0 time=227\n",
      "note_on channel=0 note=64 velocity=96 time=13\n",
      "note_on channel=0 note=64 velocity=0 time=227\n",
      "note_on channel=0 note=75 velocity=96 time=13\n",
      "note_on channel=0 note=75 velocity=0 time=227\n",
      "note_on channel=0 note=63 velocity=96 time=13\n",
      "note_on channel=0 note=63 velocity=0 time=227\n",
      "note_on channel=0 note=74 velocity=96 time=13\n",
      "note_on channel=0 note=74 velocity=0 time=227\n",
      "note_on channel=0 note=62 velocity=96 time=13\n",
      "note_on channel=0 note=62 velocity=0 time=227\n",
      "note_on channel=0 note=73 velocity=64 time=973\n",
      "note_on channel=0 note=81 velocity=64 time=0\n",
      "note_on channel=0 note=73 velocity=0 time=227\n",
      "note_on channel=0 note=81 velocity=0 time=0\n",
      "note_on channel=0 note=69 velocity=64 time=13\n",
      "note_on channel=0 note=73 velocity=64 time=0\n",
      "note_on channel=0 note=69 velocity=0 time=227\n",
      "note_on channel=0 note=73 velocity=0 time=0\n",
      "note_on channel=0 note=74 velocity=64 time=13\n",
      "note_on channel=0 note=83 velocity=64 time=0\n",
      "note_on channel=0 note=74 velocity=0 time=227\n",
      "note_on channel=0 note=83 velocity=0 time=0\n",
      "note_on channel=0 note=71 velocity=64 time=13\n",
      "note_on channel=0 note=74 velocity=64 time=0\n",
      "note_on channel=0 note=71 velocity=0 time=227\n",
      "note_on channel=0 note=74 velocity=0 time=0\n",
      "note_on channel=0 note=73 velocity=64 time=973\n",
      "note_on channel=0 note=81 velocity=64 time=0\n",
      "note_on channel=0 note=73 velocity=0 time=227\n",
      "note_on channel=0 note=81 velocity=0 time=0\n",
      "note_on channel=0 note=69 velocity=64 time=13\n",
      "note_on channel=0 note=73 velocity=64 time=0\n",
      "note_on channel=0 note=69 velocity=0 time=227\n",
      "note_on channel=0 note=73 velocity=0 time=0\n",
      "note_on channel=0 note=74 velocity=64 time=13\n",
      "note_on channel=0 note=83 velocity=64 time=0\n",
      "note_on channel=0 note=74 velocity=0 time=227\n",
      "note_on channel=0 note=83 velocity=0 time=0\n",
      "note_on channel=0 note=71 velocity=64 time=13\n",
      "note_on channel=0 note=74 velocity=64 time=0\n",
      "note_on channel=0 note=71 velocity=0 time=227\n",
      "note_on channel=0 note=74 velocity=0 time=0\n",
      "note_on channel=0 note=73 velocity=64 time=13\n",
      "note_on channel=0 note=81 velocity=64 time=0\n",
      "note_on channel=0 note=73 velocity=0 time=227\n",
      "note_on channel=0 note=81 velocity=0 time=0\n",
      "note_on channel=0 note=77 velocity=64 time=13\n",
      "note_on channel=0 note=77 velocity=0 time=113\n",
      "note_on channel=0 note=74 velocity=64 time=7\n",
      "note_on channel=0 note=74 velocity=0 time=113\n",
      "note_on channel=0 note=76 velocity=64 time=7\n",
      "note_on channel=0 note=76 velocity=0 time=113\n",
      "note_on channel=0 note=73 velocity=64 time=7\n",
      "note_on channel=0 note=73 velocity=0 time=113\n",
      "note_on channel=0 note=77 velocity=64 time=7\n",
      "note_on channel=0 note=77 velocity=0 time=113\n",
      "note_on channel=0 note=74 velocity=64 time=7\n",
      "note_on channel=0 note=74 velocity=0 time=113\n",
      "note_on channel=0 note=76 velocity=64 time=7\n",
      "note_on channel=0 note=76 velocity=0 time=113\n",
      "note_on channel=0 note=73 velocity=64 time=7\n",
      "note_on channel=0 note=73 velocity=0 time=113\n",
      "note_on channel=0 note=77 velocity=64 time=7\n",
      "note_on channel=0 note=77 velocity=0 time=113\n",
      "note_on channel=0 note=74 velocity=64 time=7\n",
      "note_on channel=0 note=74 velocity=0 time=113\n",
      "note_on channel=0 note=76 velocity=64 time=7\n",
      "note_on channel=0 note=76 velocity=0 time=113\n",
      "note_on channel=0 note=73 velocity=64 time=7\n",
      "note_on channel=0 note=73 velocity=0 time=113\n",
      "note_on channel=0 note=79 velocity=112 time=7\n",
      "note_on channel=0 note=79 velocity=0 time=113\n",
      "note_on channel=0 note=76 velocity=64 time=7\n",
      "note_on channel=0 note=76 velocity=0 time=113\n",
      "note_on channel=0 note=78 velocity=64 time=7\n",
      "note_on channel=0 note=78 velocity=0 time=113\n",
      "note_on channel=0 note=75 velocity=64 time=7\n",
      "note_on channel=0 note=75 velocity=0 time=113\n",
      "note_on channel=0 note=79 velocity=64 time=7\n",
      "note_on channel=0 note=79 velocity=0 time=113\n",
      "note_on channel=0 note=76 velocity=64 time=7\n",
      "note_on channel=0 note=76 velocity=0 time=113\n",
      "note_on channel=0 note=78 velocity=64 time=7\n",
      "note_on channel=0 note=78 velocity=0 time=113\n",
      "note_on channel=0 note=75 velocity=64 time=7\n",
      "note_on channel=0 note=75 velocity=0 time=113\n",
      "note_on channel=0 note=81 velocity=112 time=7\n",
      "note_on channel=0 note=81 velocity=0 time=113\n",
      "note_on channel=0 note=78 velocity=64 time=7\n",
      "note_on channel=0 note=78 velocity=0 time=113\n",
      "note_on channel=0 note=80 velocity=64 time=7\n",
      "note_on channel=0 note=80 velocity=0 time=113\n",
      "note_on channel=0 note=77 velocity=64 time=7\n",
      "note_on channel=0 note=77 velocity=0 time=113\n",
      "note_on channel=0 note=82 velocity=112 time=7\n",
      "note_on channel=0 note=82 velocity=0 time=113\n",
      "note_on channel=0 note=79 velocity=64 time=7\n",
      "note_on channel=0 note=79 velocity=0 time=113\n",
      "note_on channel=0 note=81 velocity=64 time=7\n",
      "note_on channel=0 note=81 velocity=0 time=113\n",
      "note_on channel=0 note=78 velocity=64 time=7\n",
      "note_on channel=0 note=78 velocity=0 time=113\n",
      "note_on channel=0 note=84 velocity=112 time=7\n",
      "note_on channel=0 note=84 velocity=0 time=113\n",
      "note_on channel=0 note=81 velocity=64 time=7\n",
      "note_on channel=0 note=81 velocity=0 time=113\n",
      "note_on channel=0 note=83 velocity=64 time=7\n",
      "note_on channel=0 note=83 velocity=0 time=113\n",
      "note_on channel=0 note=80 velocity=64 time=7\n",
      "note_on channel=0 note=80 velocity=0 time=113\n",
      "note_on channel=0 note=86 velocity=112 time=7\n",
      "note_on channel=0 note=86 velocity=0 time=113\n",
      "note_on channel=0 note=83 velocity=64 time=7\n",
      "note_on channel=0 note=83 velocity=0 time=113\n",
      "note_on channel=0 note=85 velocity=64 time=7\n",
      "note_on channel=0 note=85 velocity=0 time=113\n",
      "note_on channel=0 note=82 velocity=64 time=7\n",
      "note_on channel=0 note=82 velocity=0 time=113\n",
      "note_on channel=0 note=87 velocity=112 time=7\n",
      "note_on channel=0 note=87 velocity=0 time=113\n",
      "note_on channel=0 note=84 velocity=64 time=7\n",
      "note_on channel=0 note=84 velocity=0 time=113\n",
      "note_on channel=0 note=86 velocity=64 time=7\n",
      "note_on channel=0 note=86 velocity=0 time=113\n",
      "note_on channel=0 note=83 velocity=64 time=7\n",
      "note_on channel=0 note=83 velocity=0 time=113\n",
      "note_on channel=0 note=89 velocity=64 time=7\n",
      "note_on channel=0 note=89 velocity=0 time=113\n",
      "note_on channel=0 note=86 velocity=64 time=7\n",
      "note_on channel=0 note=86 velocity=0 time=113\n",
      "note_on channel=0 note=88 velocity=64 time=7\n",
      "note_on channel=0 note=88 velocity=0 time=113\n",
      "note_on channel=0 note=85 velocity=64 time=7\n",
      "note_on channel=0 note=85 velocity=0 time=113\n",
      "note_on channel=0 note=89 velocity=64 time=7\n",
      "note_on channel=0 note=89 velocity=0 time=113\n",
      "note_on channel=0 note=86 velocity=64 time=7\n",
      "note_on channel=0 note=86 velocity=0 time=113\n",
      "MetaMessage('set_tempo', tempo=468751, time=7)\n",
      "note_on channel=0 note=88 velocity=64 time=0\n",
      "note_on channel=0 note=88 velocity=0 time=113\n",
      "note_on channel=0 note=85 velocity=63 time=7\n",
      "note_on channel=0 note=85 velocity=0 time=113\n",
      "note_on channel=0 note=89 velocity=61 time=7\n",
      "note_on channel=0 note=89 velocity=0 time=113\n",
      "note_on channel=0 note=86 velocity=59 time=7\n",
      "note_on channel=0 note=86 velocity=0 time=113\n",
      "note_on channel=0 note=88 velocity=57 time=7\n",
      "note_on channel=0 note=88 velocity=0 time=113\n",
      "note_on channel=0 note=85 velocity=55 time=7\n",
      "note_on channel=0 note=85 velocity=0 time=113\n",
      "note_on channel=0 note=89 velocity=53 time=7\n",
      "note_on channel=0 note=89 velocity=0 time=113\n",
      "note_on channel=0 note=86 velocity=51 time=7\n",
      "note_on channel=0 note=86 velocity=0 time=113\n",
      "MetaMessage('set_tempo', tempo=416667, time=7)\n",
      "note_on channel=0 note=85 velocity=33 time=0\n",
      "note_on channel=0 note=88 velocity=33 time=0\n",
      "note_on channel=0 note=85 velocity=0 time=151\n",
      "note_on channel=0 note=88 velocity=0 time=0\n",
      "note_on channel=0 note=86 velocity=33 time=9\n",
      "note_on channel=0 note=86 velocity=0 time=151\n",
      "note_on channel=0 note=85 velocity=33 time=9\n",
      "note_on channel=0 note=85 velocity=0 time=151\n",
      "note_on channel=0 note=83 velocity=33 time=9\n",
      "note_on channel=0 note=83 velocity=0 time=151\n",
      "note_on channel=0 note=85 velocity=33 time=9\n",
      "note_on channel=0 note=85 velocity=0 time=151\n",
      "note_on channel=0 note=81 velocity=33 time=9\n",
      "note_on channel=0 note=81 velocity=0 time=151\n",
      "note_on channel=0 note=80 velocity=33 time=9\n",
      "note_on channel=0 note=80 velocity=0 time=151\n",
      "note_on channel=0 note=81 velocity=33 time=9\n",
      "note_on channel=0 note=81 velocity=0 time=151\n",
      "note_on channel=0 note=83 velocity=33 time=9\n",
      "note_on channel=0 note=83 velocity=0 time=151\n",
      "note_on channel=0 note=85 velocity=33 time=9\n",
      "note_on channel=0 note=85 velocity=0 time=151\n",
      "note_on channel=0 note=86 velocity=33 time=9\n",
      "note_on channel=0 note=86 velocity=0 time=151\n",
      "note_on channel=0 note=83 velocity=33 time=9\n",
      "note_on channel=0 note=83 velocity=0 time=151\n",
      "note_on channel=0 note=88 velocity=33 time=9\n",
      "note_on channel=0 note=88 velocity=0 time=151\n",
      "note_on channel=0 note=86 velocity=33 time=9\n",
      "note_on channel=0 note=86 velocity=0 time=151\n",
      "note_on channel=0 note=85 velocity=33 time=9\n",
      "note_on channel=0 note=85 velocity=0 time=151\n",
      "note_on channel=0 note=83 velocity=33 time=9\n",
      "note_on channel=0 note=83 velocity=0 time=151\n",
      "note_on channel=0 note=85 velocity=33 time=9\n",
      "note_on channel=0 note=85 velocity=0 time=151\n",
      "note_on channel=0 note=81 velocity=33 time=9\n",
      "note_on channel=0 note=81 velocity=0 time=151\n",
      "note_on channel=0 note=80 velocity=33 time=9\n",
      "note_on channel=0 note=80 velocity=0 time=151\n",
      "note_on channel=0 note=81 velocity=33 time=9\n",
      "note_on channel=0 note=81 velocity=0 time=151\n",
      "note_on channel=0 note=83 velocity=33 time=9\n",
      "note_on channel=0 note=83 velocity=0 time=151\n",
      "note_on channel=0 note=85 velocity=33 time=9\n",
      "note_on channel=0 note=85 velocity=0 time=151\n",
      "note_on channel=0 note=86 velocity=33 time=9\n",
      "note_on channel=0 note=86 velocity=0 time=151\n",
      "note_on channel=0 note=83 velocity=33 time=9\n",
      "note_on channel=0 note=83 velocity=0 time=151\n",
      "note_on channel=0 note=85 velocity=49 time=9\n",
      "note_on channel=0 note=85 velocity=0 time=151\n",
      "note_on channel=0 note=86 velocity=49 time=9\n",
      "note_on channel=0 note=86 velocity=0 time=151\n",
      "note_on channel=0 note=83 velocity=50 time=9\n",
      "note_on channel=0 note=83 velocity=0 time=151\n",
      "note_on channel=0 note=86 velocity=51 time=9\n",
      "note_on channel=0 note=86 velocity=0 time=151\n",
      "note_on channel=0 note=88 velocity=52 time=9\n",
      "note_on channel=0 note=88 velocity=0 time=151\n",
      "note_on channel=0 note=85 velocity=53 time=9\n",
      "note_on channel=0 note=85 velocity=0 time=151\n",
      "note_on channel=0 note=86 velocity=54 time=9\n",
      "note_on channel=0 note=86 velocity=0 time=151\n",
      "note_on channel=0 note=88 velocity=55 time=9\n",
      "note_on channel=0 note=88 velocity=0 time=151\n",
      "note_on channel=0 note=85 velocity=56 time=9\n",
      "note_on channel=0 note=85 velocity=0 time=151\n",
      "note_on channel=0 note=88 velocity=56 time=9\n",
      "note_on channel=0 note=88 velocity=0 time=151\n",
      "note_on channel=0 note=90 velocity=57 time=9\n",
      "note_on channel=0 note=90 velocity=0 time=151\n",
      "note_on channel=0 note=86 velocity=58 time=9\n",
      "note_on channel=0 note=86 velocity=0 time=151\n",
      "note_on channel=0 note=88 velocity=59 time=9\n",
      "note_on channel=0 note=88 velocity=0 time=151\n",
      "note_on channel=0 note=90 velocity=60 time=9\n",
      "note_on channel=0 note=90 velocity=0 time=151\n",
      "note_on channel=0 note=86 velocity=61 time=9\n",
      "note_on channel=0 note=86 velocity=0 time=151\n",
      "note_on channel=0 note=90 velocity=62 time=9\n",
      "note_on channel=0 note=90 velocity=0 time=151\n",
      "note_on channel=0 note=91 velocity=63 time=9\n",
      "note_on channel=0 note=91 velocity=0 time=151\n",
      "note_on channel=0 note=88 velocity=64 time=9\n",
      "note_on channel=0 note=88 velocity=0 time=151\n",
      "note_on channel=0 note=90 velocity=64 time=9\n",
      "note_on channel=0 note=90 velocity=0 time=151\n",
      "note_on channel=0 note=91 velocity=65 time=9\n",
      "note_on channel=0 note=91 velocity=0 time=151\n",
      "note_on channel=0 note=88 velocity=66 time=9\n",
      "note_on channel=0 note=88 velocity=0 time=151\n",
      "note_on channel=0 note=90 velocity=67 time=9\n",
      "note_on channel=0 note=90 velocity=0 time=151\n",
      "note_on channel=0 note=91 velocity=68 time=9\n",
      "note_on channel=0 note=91 velocity=0 time=151\n",
      "note_on channel=0 note=88 velocity=69 time=9\n",
      "note_on channel=0 note=88 velocity=0 time=151\n",
      "note_on channel=0 note=90 velocity=70 time=9\n",
      "note_on channel=0 note=90 velocity=0 time=151\n",
      "note_on channel=0 note=91 velocity=71 time=9\n",
      "note_on channel=0 note=91 velocity=0 time=151\n",
      "note_on channel=0 note=88 velocity=72 time=9\n",
      "note_on channel=0 note=88 velocity=0 time=151\n",
      "note_on channel=0 note=90 velocity=72 time=9\n",
      "note_on channel=0 note=90 velocity=0 time=151\n",
      "note_on channel=0 note=92 velocity=73 time=9\n",
      "note_on channel=0 note=92 velocity=0 time=151\n",
      "note_on channel=0 note=89 velocity=74 time=9\n",
      "note_on channel=0 note=89 velocity=0 time=151\n",
      "note_on channel=0 note=90 velocity=75 time=9\n",
      "note_on channel=0 note=90 velocity=0 time=151\n",
      "note_on channel=0 note=92 velocity=76 time=9\n",
      "note_on channel=0 note=92 velocity=0 time=151\n",
      "note_on channel=0 note=89 velocity=77 time=9\n",
      "note_on channel=0 note=89 velocity=0 time=151\n",
      "note_on channel=0 note=90 velocity=78 time=9\n",
      "note_on channel=0 note=90 velocity=0 time=151\n",
      "note_on channel=0 note=92 velocity=79 time=9\n",
      "note_on channel=0 note=92 velocity=0 time=151\n",
      "note_on channel=0 note=89 velocity=80 time=9\n",
      "note_on channel=0 note=89 velocity=0 time=151\n",
      "note_on channel=0 note=90 velocity=80 time=9\n",
      "note_on channel=0 note=90 velocity=0 time=151\n",
      "note_on channel=0 note=92 velocity=77 time=9\n",
      "note_on channel=0 note=92 velocity=0 time=151\n",
      "note_on channel=0 note=89 velocity=74 time=9\n",
      "note_on channel=0 note=89 velocity=0 time=151\n",
      "note_on channel=0 note=90 velocity=70 time=9\n",
      "note_on channel=0 note=90 velocity=0 time=151\n",
      "note_on channel=0 note=92 velocity=67 time=9\n",
      "note_on channel=0 note=92 velocity=0 time=151\n",
      "note_on channel=0 note=89 velocity=64 time=9\n",
      "note_on channel=0 note=89 velocity=0 time=151\n",
      "MetaMessage('set_tempo', tempo=461538, time=9)\n",
      "note_on channel=0 note=90 velocity=60 time=0\n",
      "note_on channel=0 note=90 velocity=0 time=151\n",
      "note_on channel=0 note=92 velocity=57 time=9\n",
      "note_on channel=0 note=92 velocity=0 time=151\n",
      "note_on channel=0 note=89 velocity=54 time=9\n",
      "note_on channel=0 note=89 velocity=0 time=151\n",
      "note_on channel=0 note=90 velocity=50 time=9\n",
      "note_on channel=0 note=90 velocity=0 time=151\n",
      "note_on channel=0 note=92 velocity=47 time=9\n",
      "note_on channel=0 note=92 velocity=0 time=151\n",
      "note_on channel=0 note=89 velocity=44 time=9\n",
      "note_on channel=0 note=89 velocity=0 time=151\n",
      "MetaMessage('set_tempo', tempo=447762, time=9)\n",
      "note_on channel=0 note=93 velocity=39 time=0\n",
      "note_on channel=0 note=93 velocity=0 time=1415\n",
      "note_on channel=0 note=91 velocity=33 time=25\n",
      "note_on channel=0 note=91 velocity=0 time=227\n",
      "note_on channel=0 note=90 velocity=33 time=13\n",
      "note_on channel=0 note=90 velocity=0 time=227\n",
      "MetaMessage('set_tempo', tempo=895524, time=13)\n",
      "note_on channel=0 note=88 velocity=33 time=0\n",
      "note_on channel=0 note=88 velocity=0 time=78\n",
      "note_on channel=0 note=90 velocity=33 time=1\n",
      "note_on channel=0 note=90 velocity=0 time=78\n",
      "note_on channel=0 note=91 velocity=33 time=2\n",
      "note_on channel=0 note=91 velocity=0 time=78\n",
      "note_on channel=0 note=90 velocity=33 time=3\n",
      "note_on channel=0 note=90 velocity=0 time=227\n",
      "MetaMessage('set_tempo', tempo=447762, time=12)\n",
      "note_on channel=0 note=88 velocity=33 time=1\n",
      "note_on channel=0 note=88 velocity=0 time=683\n",
      "note_on channel=0 note=81 velocity=33 time=37\n",
      "note_on channel=0 note=81 velocity=0 time=227\n",
      "note_on channel=0 note=83 velocity=33 time=13\n",
      "note_on channel=0 note=83 velocity=0 time=227\n",
      "note_on channel=0 note=85 velocity=33 time=13\n",
      "note_on channel=0 note=85 velocity=0 time=227\n",
      "note_on channel=0 note=86 velocity=33 time=13\n",
      "note_on channel=0 note=86 velocity=0 time=911\n",
      "MetaMessage('set_tempo', tempo=1343286, time=49)\n",
      "note_on channel=0 note=88 velocity=33 time=0\n",
      "note_on channel=0 note=88 velocity=0 time=38\n",
      "note_on channel=0 note=86 velocity=33 time=1\n",
      "note_on channel=0 note=86 velocity=0 time=38\n",
      "note_on channel=0 note=85 velocity=33 time=2\n",
      "note_on channel=0 note=85 velocity=0 time=38\n",
      "note_on channel=0 note=86 velocity=33 time=3\n",
      "note_on channel=0 note=86 velocity=0 time=113\n",
      "MetaMessage('set_tempo', tempo=447762, time=6)\n",
      "note_on channel=0 note=88 velocity=33 time=1\n",
      "note_on channel=0 note=88 velocity=0 time=227\n",
      "note_on channel=0 note=90 velocity=33 time=13\n",
      "note_on channel=0 note=90 velocity=0 time=227\n",
      "note_on channel=0 note=91 velocity=33 time=13\n",
      "note_on channel=0 note=91 velocity=0 time=227\n",
      "note_on channel=0 note=90 velocity=33 time=13\n",
      "note_on channel=0 note=90 velocity=0 time=455\n",
      "note_on channel=0 note=88 velocity=33 time=25\n",
      "MetaMessage('set_tempo', tempo=500000, time=480)\n",
      "note_on channel=0 note=88 velocity=0 time=431\n",
      "note_on channel=0 note=90 velocity=33 time=49\n",
      "note_on channel=0 note=90 velocity=0 time=227\n",
      "note_on channel=0 note=91 velocity=33 time=13\n",
      "note_on channel=0 note=91 velocity=0 time=227\n",
      "MetaMessage('time_signature', numerator=3, denominator=4, clocks_per_click=24, notated_32nd_notes_per_beat=8, time=13)\n",
      "MetaMessage('set_tempo', tempo=300000, time=0)\n",
      "note_on channel=0 note=81 velocity=33 time=0\n",
      "note_on channel=0 note=81 velocity=0 time=455\n",
      "MetaMessage('set_tempo', tempo=447762, time=25)\n",
      "note_on channel=0 note=93 velocity=33 time=0\n",
      "MetaMessage('time_signature', numerator=2, denominator=4, clocks_per_click=24, notated_32nd_notes_per_beat=8, time=960)\n",
      "note_on channel=0 note=93 velocity=0 time=179\n",
      "note_on channel=0 note=95 velocity=33 time=61\n",
      "note_on channel=0 note=95 velocity=0 time=113\n",
      "note_on channel=0 note=93 velocity=33 time=7\n",
      "note_on channel=0 note=93 velocity=0 time=113\n",
      "note_on channel=0 note=91 velocity=33 time=7\n",
      "note_on channel=0 note=91 velocity=0 time=227\n",
      "note_on channel=0 note=90 velocity=33 time=13\n",
      "note_on channel=0 note=90 velocity=0 time=227\n",
      "MetaMessage('set_tempo', tempo=895524, time=13)\n",
      "note_on channel=0 note=88 velocity=33 time=0\n",
      "note_on channel=0 note=88 velocity=0 time=78\n",
      "note_on channel=0 note=90 velocity=33 time=1\n",
      "note_on channel=0 note=90 velocity=0 time=78\n",
      "note_on channel=0 note=91 velocity=33 time=2\n",
      "note_on channel=0 note=91 velocity=0 time=78\n",
      "note_on channel=0 note=90 velocity=33 time=3\n",
      "note_on channel=0 note=90 velocity=0 time=227\n",
      "MetaMessage('set_tempo', tempo=447762, time=12)\n",
      "note_on channel=0 note=88 velocity=33 time=1\n",
      "note_on channel=0 note=88 velocity=0 time=455\n",
      "note_on channel=0 note=88 velocity=33 time=25\n",
      "note_on channel=0 note=88 velocity=0 time=227\n",
      "note_on channel=0 note=81 velocity=33 time=13\n",
      "note_on channel=0 note=81 velocity=0 time=227\n",
      "note_on channel=0 note=83 velocity=33 time=13\n",
      "note_on channel=0 note=83 velocity=0 time=227\n",
      "note_on channel=0 note=85 velocity=33 time=13\n",
      "note_on channel=0 note=85 velocity=0 time=227\n",
      "note_on channel=0 note=74 velocity=80 time=13\n",
      "note_on channel=0 note=86 velocity=80 time=0\n",
      "note_on channel=0 note=74 velocity=0 time=239\n",
      "note_on channel=0 note=86 velocity=0 time=0\n",
      "MetaMessage('set_tempo', tempo=434783, time=241)\n",
      "note_on channel=0 note=76 velocity=80 time=0\n",
      "note_on channel=0 note=88 velocity=80 time=0\n",
      "note_on channel=0 note=76 velocity=0 time=227\n",
      "note_on channel=0 note=88 velocity=0 time=0\n",
      "MetaMessage('set_tempo', tempo=434783, time=13213)\n",
      "MetaMessage('set_tempo', tempo=425532, time=1920)\n",
      "MetaMessage('set_tempo', tempo=416667, time=1440)\n",
      "note_on channel=0 note=57 velocity=96 time=240\n",
      "note_on channel=0 note=57 velocity=0 time=113\n",
      "note_on channel=0 note=66 velocity=96 time=7\n",
      "note_on channel=0 note=66 velocity=0 time=113\n",
      "note_on channel=0 note=62 velocity=96 time=7\n",
      "note_on channel=0 note=62 velocity=0 time=113\n",
      "note_on channel=0 note=69 velocity=96 time=7\n",
      "note_on channel=0 note=69 velocity=0 time=113\n",
      "note_on channel=0 note=66 velocity=96 time=7\n",
      "note_on channel=0 note=66 velocity=0 time=113\n",
      "note_on channel=0 note=74 velocity=96 time=7\n",
      "note_on channel=0 note=74 velocity=0 time=113\n",
      "note_on channel=0 note=69 velocity=96 time=7\n",
      "note_on channel=0 note=69 velocity=0 time=113\n",
      "note_on channel=0 note=78 velocity=96 time=7\n",
      "note_on channel=0 note=78 velocity=0 time=113\n",
      "note_on channel=0 note=74 velocity=96 time=7\n",
      "note_on channel=0 note=74 velocity=0 time=113\n",
      "note_on channel=0 note=81 velocity=96 time=7\n",
      "note_on channel=0 note=81 velocity=0 time=113\n",
      "note_on channel=0 note=78 velocity=96 time=7\n",
      "note_on channel=0 note=78 velocity=0 time=113\n",
      "note_on channel=0 note=86 velocity=96 time=7\n",
      "note_on channel=0 note=86 velocity=0 time=113\n",
      "note_on channel=0 note=81 velocity=96 time=7\n",
      "note_on channel=0 note=81 velocity=0 time=113\n",
      "note_on channel=0 note=90 velocity=96 time=7\n",
      "note_on channel=0 note=90 velocity=0 time=113\n",
      "note_on channel=0 note=88 velocity=96 time=127\n",
      "note_on channel=0 note=88 velocity=0 time=113\n",
      "note_on channel=0 note=91 velocity=115 time=7\n",
      "note_on channel=0 note=91 velocity=0 time=119\n",
      "note_on channel=0 note=85 velocity=96 time=1\n",
      "note_on channel=0 note=85 velocity=0 time=113\n",
      "note_on channel=0 note=88 velocity=96 time=7\n",
      "note_on channel=0 note=88 velocity=0 time=113\n",
      "note_on channel=0 note=79 velocity=96 time=7\n",
      "note_on channel=0 note=79 velocity=0 time=113\n",
      "note_on channel=0 note=85 velocity=96 time=7\n",
      "note_on channel=0 note=85 velocity=0 time=113\n",
      "note_on channel=0 note=76 velocity=96 time=7\n",
      "note_on channel=0 note=76 velocity=0 time=113\n",
      "note_on channel=0 note=79 velocity=96 time=7\n",
      "note_on channel=0 note=79 velocity=0 time=113\n",
      "note_on channel=0 note=73 velocity=96 time=7\n",
      "note_on channel=0 note=73 velocity=0 time=113\n",
      "note_on channel=0 note=76 velocity=96 time=7\n",
      "note_on channel=0 note=76 velocity=0 time=113\n",
      "note_on channel=0 note=67 velocity=96 time=7\n",
      "note_on channel=0 note=67 velocity=0 time=113\n",
      "note_on channel=0 note=73 velocity=96 time=7\n",
      "note_on channel=0 note=73 velocity=0 time=113\n",
      "note_on channel=0 note=64 velocity=96 time=7\n",
      "note_on channel=0 note=64 velocity=0 time=113\n",
      "note_on channel=0 note=67 velocity=96 time=7\n",
      "note_on channel=0 note=67 velocity=0 time=113\n",
      "note_on channel=0 note=61 velocity=96 time=7\n",
      "note_on channel=0 note=61 velocity=0 time=113\n",
      "note_on channel=0 note=57 velocity=96 time=247\n",
      "note_on channel=0 note=57 velocity=0 time=113\n",
      "note_on channel=0 note=66 velocity=96 time=7\n",
      "note_on channel=0 note=66 velocity=0 time=113\n",
      "note_on channel=0 note=62 velocity=96 time=7\n",
      "note_on channel=0 note=62 velocity=0 time=113\n",
      "note_on channel=0 note=69 velocity=96 time=7\n",
      "note_on channel=0 note=69 velocity=0 time=113\n",
      "note_on channel=0 note=66 velocity=96 time=7\n",
      "note_on channel=0 note=66 velocity=0 time=113\n",
      "note_on channel=0 note=74 velocity=96 time=7\n",
      "note_on channel=0 note=74 velocity=0 time=113\n",
      "note_on channel=0 note=69 velocity=96 time=7\n",
      "note_on channel=0 note=69 velocity=0 time=113\n",
      "note_on channel=0 note=78 velocity=96 time=7\n",
      "note_on channel=0 note=78 velocity=0 time=113\n",
      "note_on channel=0 note=74 velocity=96 time=7\n",
      "note_on channel=0 note=74 velocity=0 time=113\n",
      "note_on channel=0 note=81 velocity=96 time=7\n",
      "note_on channel=0 note=81 velocity=0 time=113\n",
      "note_on channel=0 note=78 velocity=96 time=7\n",
      "note_on channel=0 note=78 velocity=0 time=113\n",
      "note_on channel=0 note=86 velocity=96 time=7\n",
      "note_on channel=0 note=86 velocity=0 time=113\n",
      "note_on channel=0 note=81 velocity=96 time=7\n",
      "note_on channel=0 note=81 velocity=0 time=113\n",
      "note_on channel=0 note=90 velocity=96 time=7\n",
      "note_on channel=0 note=90 velocity=0 time=113\n",
      "note_on channel=0 note=88 velocity=96 time=127\n",
      "note_on channel=0 note=88 velocity=0 time=113\n",
      "note_on channel=0 note=91 velocity=115 time=7\n",
      "note_on channel=0 note=91 velocity=0 time=119\n",
      "note_on channel=0 note=85 velocity=96 time=1\n",
      "note_on channel=0 note=85 velocity=0 time=113\n",
      "note_on channel=0 note=88 velocity=96 time=7\n",
      "note_on channel=0 note=88 velocity=0 time=113\n",
      "note_on channel=0 note=79 velocity=96 time=7\n",
      "note_on channel=0 note=79 velocity=0 time=113\n",
      "note_on channel=0 note=85 velocity=96 time=7\n",
      "note_on channel=0 note=85 velocity=0 time=113\n",
      "note_on channel=0 note=76 velocity=96 time=7\n",
      "note_on channel=0 note=76 velocity=0 time=113\n",
      "note_on channel=0 note=79 velocity=96 time=7\n",
      "note_on channel=0 note=79 velocity=0 time=113\n",
      "note_on channel=0 note=73 velocity=96 time=7\n",
      "note_on channel=0 note=73 velocity=0 time=113\n",
      "note_on channel=0 note=76 velocity=96 time=7\n",
      "note_on channel=0 note=76 velocity=0 time=113\n",
      "note_on channel=0 note=67 velocity=96 time=7\n",
      "note_on channel=0 note=67 velocity=0 time=113\n",
      "note_on channel=0 note=73 velocity=96 time=7\n",
      "note_on channel=0 note=73 velocity=0 time=113\n",
      "note_on channel=0 note=64 velocity=96 time=7\n",
      "note_on channel=0 note=64 velocity=0 time=113\n",
      "note_on channel=0 note=67 velocity=96 time=7\n",
      "note_on channel=0 note=67 velocity=0 time=113\n",
      "note_on channel=0 note=61 velocity=96 time=7\n",
      "note_on channel=0 note=61 velocity=0 time=113\n",
      "note_on channel=0 note=86 velocity=96 time=127\n",
      "note_on channel=0 note=86 velocity=0 time=113\n",
      "note_on channel=0 note=90 velocity=115 time=7\n",
      "note_on channel=0 note=90 velocity=0 time=119\n",
      "note_on channel=0 note=81 velocity=96 time=1\n",
      "note_on channel=0 note=81 velocity=0 time=113\n",
      "note_on channel=0 note=86 velocity=96 time=7\n",
      "note_on channel=0 note=86 velocity=0 time=113\n",
      "note_on channel=0 note=78 velocity=96 time=7\n",
      "note_on channel=0 note=78 velocity=0 time=113\n",
      "note_on channel=0 note=81 velocity=96 time=7\n",
      "note_on channel=0 note=81 velocity=0 time=113\n",
      "note_on channel=0 note=74 velocity=96 time=7\n",
      "note_on channel=0 note=74 velocity=0 time=113\n",
      "note_on channel=0 note=85 velocity=96 time=127\n",
      "note_on channel=0 note=85 velocity=0 time=113\n",
      "note_on channel=0 note=88 velocity=115 time=7\n",
      "note_on channel=0 note=88 velocity=0 time=119\n",
      "note_on channel=0 note=82 velocity=96 time=1\n",
      "note_on channel=0 note=82 velocity=0 time=113\n",
      "note_on channel=0 note=85 velocity=96 time=7\n",
      "note_on channel=0 note=85 velocity=0 time=113\n",
      "note_on channel=0 note=76 velocity=96 time=7\n",
      "note_on channel=0 note=76 velocity=0 time=113\n",
      "note_on channel=0 note=82 velocity=96 time=7\n",
      "note_on channel=0 note=82 velocity=0 time=113\n",
      "note_on channel=0 note=73 velocity=96 time=7\n",
      "note_on channel=0 note=73 velocity=0 time=113\n",
      "note_on channel=0 note=83 velocity=80 time=127\n",
      "note_on channel=0 note=83 velocity=0 time=113\n",
      "note_on channel=0 note=86 velocity=80 time=7\n",
      "note_on channel=0 note=86 velocity=0 time=113\n",
      "note_on channel=0 note=78 velocity=80 time=7\n",
      "note_on channel=0 note=78 velocity=0 time=113\n",
      "note_on channel=0 note=81 velocity=80 time=127\n",
      "note_on channel=0 note=81 velocity=0 time=113\n",
      "note_on channel=0 note=84 velocity=80 time=7\n",
      "note_on channel=0 note=84 velocity=0 time=113\n",
      "note_on channel=0 note=78 velocity=80 time=7\n",
      "note_on channel=0 note=78 velocity=0 time=113\n",
      "note_on channel=0 note=79 velocity=79 time=127\n",
      "note_on channel=0 note=79 velocity=0 time=113\n",
      "note_on channel=0 note=83 velocity=78 time=7\n",
      "note_on channel=0 note=83 velocity=0 time=113\n",
      "note_on channel=0 note=74 velocity=77 time=7\n",
      "note_on channel=0 note=74 velocity=0 time=113\n",
      "note_on channel=0 note=78 velocity=74 time=127\n",
      "note_on channel=0 note=78 velocity=0 time=113\n",
      "note_on channel=0 note=81 velocity=73 time=7\n",
      "note_on channel=0 note=81 velocity=0 time=113\n",
      "note_on channel=0 note=75 velocity=71 time=7\n",
      "note_on channel=0 note=75 velocity=0 time=113\n",
      "note_on channel=0 note=76 velocity=69 time=127\n",
      "note_on channel=0 note=76 velocity=0 time=113\n",
      "note_on channel=0 note=79 velocity=68 time=7\n",
      "note_on channel=0 note=79 velocity=0 time=113\n",
      "note_on channel=0 note=71 velocity=66 time=7\n",
      "note_on channel=0 note=71 velocity=0 time=113\n",
      "note_on channel=0 note=71 velocity=64 time=127\n",
      "note_on channel=0 note=71 velocity=0 time=113\n",
      "note_on channel=0 note=76 velocity=62 time=7\n",
      "note_on channel=0 note=76 velocity=0 time=113\n",
      "note_on channel=0 note=67 velocity=61 time=7\n",
      "note_on channel=0 note=67 velocity=0 time=113\n",
      "note_on channel=0 note=73 velocity=59 time=127\n",
      "note_on channel=0 note=73 velocity=0 time=113\n",
      "note_on channel=0 note=76 velocity=57 time=7\n",
      "note_on channel=0 note=76 velocity=0 time=113\n",
      "note_on channel=0 note=74 velocity=56 time=7\n",
      "note_on channel=0 note=74 velocity=0 time=113\n",
      "note_on channel=0 note=73 velocity=55 time=7\n",
      "note_on channel=0 note=73 velocity=0 time=113\n",
      "note_on channel=0 note=71 velocity=53 time=7\n",
      "note_on channel=0 note=71 velocity=0 time=113\n",
      "note_on channel=0 note=69 velocity=52 time=7\n",
      "note_on channel=0 note=69 velocity=0 time=113\n",
      "note_on channel=0 note=67 velocity=51 time=7\n",
      "note_on channel=0 note=67 velocity=0 time=113\n",
      "note_on channel=0 note=66 velocity=49 time=7\n",
      "note_on channel=0 note=66 velocity=0 time=227\n",
      "note_on channel=0 note=57 velocity=49 time=13\n",
      "note_on channel=0 note=57 velocity=0 time=113\n",
      "note_on channel=0 note=66 velocity=49 time=7\n",
      "note_on channel=0 note=66 velocity=0 time=113\n",
      "note_on channel=0 note=62 velocity=49 time=7\n",
      "note_on channel=0 note=62 velocity=0 time=113\n",
      "note_on channel=0 note=69 velocity=49 time=7\n",
      "note_on channel=0 note=69 velocity=0 time=113\n",
      "note_on channel=0 note=66 velocity=49 time=7\n",
      "note_on channel=0 note=66 velocity=0 time=113\n",
      "note_on channel=0 note=74 velocity=49 time=7\n",
      "note_on channel=0 note=74 velocity=0 time=113\n",
      "note_on channel=0 note=69 velocity=49 time=7\n",
      "note_on channel=0 note=69 velocity=0 time=113\n",
      "note_on channel=0 note=78 velocity=49 time=7\n",
      "note_on channel=0 note=78 velocity=0 time=113\n",
      "note_on channel=0 note=74 velocity=49 time=7\n",
      "note_on channel=0 note=74 velocity=0 time=113\n",
      "note_on channel=0 note=81 velocity=49 time=7\n",
      "note_on channel=0 note=81 velocity=0 time=113\n",
      "note_on channel=0 note=78 velocity=49 time=7\n",
      "note_on channel=0 note=78 velocity=0 time=113\n",
      "note_on channel=0 note=86 velocity=49 time=7\n",
      "note_on channel=0 note=86 velocity=0 time=113\n",
      "note_on channel=0 note=81 velocity=49 time=7\n",
      "note_on channel=0 note=81 velocity=0 time=113\n",
      "note_on channel=0 note=90 velocity=49 time=7\n",
      "note_on channel=0 note=90 velocity=0 time=113\n",
      "note_on channel=0 note=88 velocity=49 time=127\n",
      "note_on channel=0 note=88 velocity=0 time=113\n",
      "note_on channel=0 note=91 velocity=49 time=7\n",
      "note_on channel=0 note=91 velocity=0 time=113\n",
      "note_on channel=0 note=85 velocity=49 time=7\n",
      "note_on channel=0 note=85 velocity=0 time=113\n",
      "note_on channel=0 note=88 velocity=49 time=7\n",
      "note_on channel=0 note=88 velocity=0 time=113\n",
      "note_on channel=0 note=79 velocity=49 time=7\n",
      "note_on channel=0 note=79 velocity=0 time=113\n",
      "note_on channel=0 note=85 velocity=49 time=7\n",
      "note_on channel=0 note=85 velocity=0 time=113\n",
      "note_on channel=0 note=76 velocity=49 time=7\n",
      "note_on channel=0 note=76 velocity=0 time=113\n",
      "note_on channel=0 note=79 velocity=49 time=7\n",
      "note_on channel=0 note=79 velocity=0 time=113\n",
      "note_on channel=0 note=73 velocity=49 time=7\n",
      "note_on channel=0 note=73 velocity=0 time=113\n",
      "note_on channel=0 note=76 velocity=49 time=7\n",
      "note_on channel=0 note=76 velocity=0 time=113\n",
      "note_on channel=0 note=67 velocity=49 time=7\n",
      "note_on channel=0 note=67 velocity=0 time=113\n",
      "note_on channel=0 note=73 velocity=49 time=7\n",
      "note_on channel=0 note=73 velocity=0 time=113\n",
      "note_on channel=0 note=64 velocity=49 time=7\n",
      "note_on channel=0 note=64 velocity=0 time=113\n",
      "note_on channel=0 note=67 velocity=49 time=7\n",
      "note_on channel=0 note=67 velocity=0 time=113\n",
      "note_on channel=0 note=61 velocity=49 time=7\n",
      "note_on channel=0 note=61 velocity=0 time=113\n",
      "note_on channel=0 note=57 velocity=49 time=247\n",
      "note_on channel=0 note=57 velocity=0 time=113\n",
      "note_on channel=0 note=66 velocity=49 time=7\n",
      "note_on channel=0 note=66 velocity=0 time=113\n",
      "note_on channel=0 note=62 velocity=49 time=7\n",
      "note_on channel=0 note=62 velocity=0 time=113\n",
      "note_on channel=0 note=69 velocity=49 time=7\n",
      "note_on channel=0 note=69 velocity=0 time=113\n",
      "note_on channel=0 note=66 velocity=49 time=7\n",
      "note_on channel=0 note=66 velocity=0 time=113\n",
      "note_on channel=0 note=74 velocity=49 time=7\n",
      "note_on channel=0 note=74 velocity=0 time=113\n",
      "note_on channel=0 note=69 velocity=49 time=7\n",
      "note_on channel=0 note=69 velocity=0 time=113\n",
      "note_on channel=0 note=78 velocity=49 time=7\n",
      "note_on channel=0 note=78 velocity=0 time=113\n",
      "note_on channel=0 note=74 velocity=49 time=7\n",
      "note_on channel=0 note=74 velocity=0 time=113\n",
      "note_on channel=0 note=81 velocity=49 time=7\n",
      "note_on channel=0 note=81 velocity=0 time=113\n",
      "note_on channel=0 note=78 velocity=49 time=7\n",
      "note_on channel=0 note=78 velocity=0 time=113\n",
      "note_on channel=0 note=86 velocity=49 time=7\n",
      "note_on channel=0 note=86 velocity=0 time=113\n",
      "note_on channel=0 note=81 velocity=49 time=7\n",
      "note_on channel=0 note=81 velocity=0 time=113\n",
      "note_on channel=0 note=90 velocity=49 time=7\n",
      "note_on channel=0 note=90 velocity=0 time=113\n",
      "note_on channel=0 note=57 velocity=49 time=247\n",
      "note_on channel=0 note=57 velocity=0 time=113\n",
      "note_on channel=0 note=65 velocity=49 time=7\n",
      "note_on channel=0 note=65 velocity=0 time=113\n",
      "note_on channel=0 note=62 velocity=49 time=7\n",
      "note_on channel=0 note=62 velocity=0 time=113\n",
      "note_on channel=0 note=69 velocity=49 time=7\n",
      "note_on channel=0 note=69 velocity=0 time=113\n",
      "note_on channel=0 note=65 velocity=49 time=7\n",
      "note_on channel=0 note=65 velocity=0 time=113\n",
      "note_on channel=0 note=74 velocity=49 time=7\n",
      "note_on channel=0 note=74 velocity=0 time=113\n",
      "note_on channel=0 note=69 velocity=49 time=7\n",
      "note_on channel=0 note=69 velocity=0 time=113\n",
      "note_on channel=0 note=77 velocity=49 time=7\n",
      "note_on channel=0 note=77 velocity=0 time=113\n",
      "note_on channel=0 note=74 velocity=49 time=7\n",
      "note_on channel=0 note=74 velocity=0 time=113\n",
      "note_on channel=0 note=81 velocity=49 time=7\n",
      "note_on channel=0 note=81 velocity=0 time=113\n",
      "note_on channel=0 note=77 velocity=49 time=7\n",
      "note_on channel=0 note=77 velocity=0 time=113\n",
      "note_on channel=0 note=86 velocity=49 time=7\n",
      "note_on channel=0 note=86 velocity=0 time=113\n",
      "note_on channel=0 note=81 velocity=49 time=7\n",
      "note_on channel=0 note=81 velocity=0 time=113\n",
      "note_on channel=0 note=89 velocity=49 time=7\n",
      "note_on channel=0 note=89 velocity=0 time=113\n",
      "note_on channel=0 note=59 velocity=49 time=247\n",
      "note_on channel=0 note=59 velocity=0 time=113\n",
      "note_on channel=0 note=65 velocity=53 time=7\n",
      "note_on channel=0 note=65 velocity=0 time=113\n",
      "note_on channel=0 note=62 velocity=58 time=7\n",
      "note_on channel=0 note=62 velocity=0 time=113\n",
      "note_on channel=0 note=71 velocity=62 time=7\n",
      "note_on channel=0 note=71 velocity=0 time=113\n",
      "note_on channel=0 note=65 velocity=67 time=7\n",
      "note_on channel=0 note=65 velocity=0 time=113\n",
      "note_on channel=0 note=74 velocity=71 time=7\n",
      "note_on channel=0 note=74 velocity=0 time=113\n",
      "note_on channel=0 note=71 velocity=76 time=7\n",
      "note_on channel=0 note=71 velocity=0 time=113\n",
      "note_on channel=0 note=77 velocity=80 time=7\n",
      "note_on channel=0 note=77 velocity=0 time=113\n",
      "note_on channel=0 note=74 velocity=85 time=7\n",
      "note_on channel=0 note=74 velocity=0 time=113\n",
      "note_on channel=0 note=83 velocity=89 time=7\n",
      "note_on channel=0 note=83 velocity=0 time=113\n",
      "note_on channel=0 note=77 velocity=112 time=7\n",
      "note_on channel=0 note=77 velocity=0 time=159\n",
      "note_on channel=0 note=86 velocity=120 time=1\n",
      "note_on channel=0 note=86 velocity=0 time=159\n",
      "note_on channel=0 note=83 velocity=127 time=1\n",
      "note_on channel=0 note=83 velocity=0 time=159\n",
      "note_on channel=0 note=89 velocity=127 time=1\n",
      "note_on channel=0 note=89 velocity=0 time=159\n",
      "note_on channel=0 note=83 velocity=112 time=1\n",
      "note_on channel=0 note=83 velocity=0 time=151\n",
      "note_on channel=0 note=86 velocity=112 time=9\n",
      "note_on channel=0 note=86 velocity=0 time=151\n",
      "note_on channel=0 note=77 velocity=112 time=9\n",
      "note_on channel=0 note=77 velocity=0 time=151\n",
      "note_on channel=0 note=83 velocity=112 time=9\n",
      "note_on channel=0 note=83 velocity=0 time=151\n",
      "note_on channel=0 note=74 velocity=112 time=9\n",
      "note_on channel=0 note=74 velocity=0 time=151\n",
      "note_on channel=0 note=77 velocity=112 time=9\n",
      "note_on channel=0 note=77 velocity=0 time=151\n",
      "note_on channel=0 note=71 velocity=112 time=9\n",
      "note_on channel=0 note=71 velocity=0 time=151\n",
      "note_on channel=0 note=74 velocity=112 time=9\n",
      "note_on channel=0 note=74 velocity=0 time=151\n",
      "note_on channel=0 note=65 velocity=112 time=9\n",
      "note_on channel=0 note=65 velocity=0 time=151\n",
      "note_on channel=0 note=71 velocity=112 time=9\n",
      "note_on channel=0 note=71 velocity=0 time=151\n",
      "note_on channel=0 note=62 velocity=112 time=9\n",
      "note_on channel=0 note=62 velocity=0 time=151\n",
      "note_on channel=0 note=65 velocity=112 time=9\n",
      "note_on channel=0 note=65 velocity=0 time=151\n",
      "note_on channel=0 note=59 velocity=112 time=9\n",
      "note_on channel=0 note=59 velocity=0 time=151\n",
      "note_on channel=0 note=62 velocity=112 time=9\n",
      "note_on channel=0 note=62 velocity=0 time=151\n",
      "note_on channel=0 note=53 velocity=112 time=9\n",
      "note_on channel=0 note=53 velocity=0 time=151\n",
      "note_on channel=0 note=59 velocity=112 time=9\n",
      "note_on channel=0 note=59 velocity=0 time=151\n",
      "note_on channel=0 note=50 velocity=112 time=9\n",
      "note_on channel=0 note=50 velocity=0 time=151\n",
      "note_on channel=0 note=83 velocity=112 time=649\n",
      "note_on channel=0 note=83 velocity=0 time=151\n",
      "note_on channel=0 note=86 velocity=112 time=9\n",
      "note_on channel=0 note=86 velocity=0 time=151\n",
      "note_on channel=0 note=89 velocity=112 time=9\n",
      "note_on channel=0 note=89 velocity=0 time=151\n",
      "note_on channel=0 note=83 velocity=112 time=9\n",
      "note_on channel=0 note=83 velocity=0 time=151\n",
      "note_on channel=0 note=86 velocity=112 time=9\n",
      "note_on channel=0 note=86 velocity=0 time=151\n",
      "note_on channel=0 note=77 velocity=112 time=9\n",
      "note_on channel=0 note=77 velocity=0 time=151\n",
      "note_on channel=0 note=83 velocity=112 time=9\n",
      "note_on channel=0 note=83 velocity=0 time=151\n",
      "note_on channel=0 note=74 velocity=112 time=9\n",
      "note_on channel=0 note=74 velocity=0 time=151\n",
      "note_on channel=0 note=77 velocity=112 time=9\n",
      "note_on channel=0 note=77 velocity=0 time=151\n",
      "note_on channel=0 note=71 velocity=112 time=9\n",
      "note_on channel=0 note=71 velocity=0 time=151\n",
      "note_on channel=0 note=74 velocity=112 time=9\n",
      "note_on channel=0 note=74 velocity=0 time=151\n",
      "note_on channel=0 note=65 velocity=112 time=9\n",
      "note_on channel=0 note=65 velocity=0 time=151\n",
      "note_on channel=0 note=71 velocity=112 time=9\n",
      "note_on channel=0 note=71 velocity=0 time=151\n",
      "note_on channel=0 note=62 velocity=112 time=9\n",
      "note_on channel=0 note=62 velocity=0 time=151\n",
      "note_on channel=0 note=65 velocity=112 time=9\n",
      "note_on channel=0 note=65 velocity=0 time=151\n",
      "note_on channel=0 note=59 velocity=110 time=9\n",
      "note_on channel=0 note=59 velocity=0 time=151\n",
      "note_on channel=0 note=62 velocity=107 time=9\n",
      "note_on channel=0 note=62 velocity=0 time=151\n",
      "note_on channel=0 note=53 velocity=104 time=9\n",
      "note_on channel=0 note=53 velocity=0 time=151\n",
      "note_on channel=0 note=59 velocity=102 time=9\n",
      "note_on channel=0 note=59 velocity=0 time=151\n",
      "note_on channel=0 note=50 velocity=99 time=9\n",
      "note_on channel=0 note=50 velocity=0 time=151\n",
      "note_on channel=0 note=83 velocity=86 time=649\n",
      "note_on channel=0 note=83 velocity=0 time=151\n",
      "note_on channel=0 note=86 velocity=83 time=9\n",
      "note_on channel=0 note=86 velocity=0 time=151\n",
      "note_on channel=0 note=89 velocity=80 time=9\n",
      "note_on channel=0 note=89 velocity=0 time=151\n",
      "note_on channel=0 note=83 velocity=80 time=9\n",
      "note_on channel=0 note=83 velocity=0 time=151\n",
      "note_on channel=0 note=86 velocity=79 time=9\n",
      "note_on channel=0 note=86 velocity=0 time=151\n",
      "note_on channel=0 note=77 velocity=77 time=9\n",
      "note_on channel=0 note=77 velocity=0 time=607\n",
      "note_on channel=0 note=71 velocity=70 time=33\n",
      "note_on channel=0 note=71 velocity=0 time=151\n",
      "note_on channel=0 note=74 velocity=68 time=9\n",
      "note_on channel=0 note=74 velocity=0 time=151\n",
      "note_on channel=0 note=65 velocity=66 time=9\n",
      "note_on channel=0 note=65 velocity=0 time=607\n",
      "note_on channel=0 note=71 velocity=59 time=33\n",
      "note_on channel=0 note=71 velocity=0 time=151\n",
      "note_on channel=0 note=74 velocity=57 time=9\n",
      "note_on channel=0 note=74 velocity=0 time=151\n",
      "note_on channel=0 note=77 velocity=55 time=9\n",
      "note_on channel=0 note=77 velocity=0 time=607\n",
      "note_on channel=0 note=83 velocity=49 time=33\n",
      "note_on channel=0 note=83 velocity=0 time=151\n",
      "note_on channel=0 note=86 velocity=49 time=9\n",
      "note_on channel=0 note=86 velocity=0 time=151\n",
      "note_on channel=0 note=89 velocity=49 time=9\n",
      "note_on channel=0 note=89 velocity=0 time=607\n",
      "note_on channel=0 note=83 velocity=49 time=33\n",
      "note_on channel=0 note=83 velocity=0 time=151\n",
      "note_on channel=0 note=86 velocity=49 time=9\n",
      "note_on channel=0 note=86 velocity=0 time=151\n",
      "note_on channel=0 note=89 velocity=49 time=9\n",
      "note_on channel=0 note=89 velocity=0 time=607\n",
      "note_on channel=0 note=83 velocity=51 time=33\n",
      "note_on channel=0 note=83 velocity=0 time=151\n",
      "note_on channel=0 note=86 velocity=53 time=9\n",
      "note_on channel=0 note=86 velocity=0 time=151\n",
      "note_on channel=0 note=89 velocity=55 time=9\n",
      "note_on channel=0 note=89 velocity=0 time=607\n",
      "note_on channel=0 note=83 velocity=64 time=33\n",
      "note_on channel=0 note=83 velocity=0 time=151\n",
      "note_on channel=0 note=89 velocity=66 time=9\n",
      "note_on channel=0 note=89 velocity=0 time=151\n",
      "note_on channel=0 note=93 velocity=69 time=9\n",
      "note_on channel=0 note=93 velocity=0 time=607\n",
      "note_on channel=0 note=86 velocity=78 time=33\n",
      "note_on channel=0 note=86 velocity=0 time=151\n",
      "note_on channel=0 note=89 velocity=80 time=9\n",
      "note_on channel=0 note=89 velocity=0 time=151\n",
      "note_on channel=0 note=93 velocity=82 time=9\n",
      "note_on channel=0 note=93 velocity=0 time=607\n",
      "note_on channel=0 note=86 velocity=91 time=33\n",
      "note_on channel=0 note=86 velocity=0 time=151\n",
      "note_on channel=0 note=89 velocity=93 time=9\n",
      "note_on channel=0 note=89 velocity=0 time=151\n",
      "note_on channel=0 note=93 velocity=115 time=9\n",
      "note_on channel=0 note=93 velocity=0 time=479\n",
      "note_on channel=0 note=93 velocity=96 time=1\n",
      "note_on channel=0 note=93 velocity=0 time=151\n",
      "note_on channel=0 note=91 velocity=96 time=9\n",
      "note_on channel=0 note=91 velocity=0 time=151\n",
      "note_on channel=0 note=89 velocity=96 time=9\n",
      "note_on channel=0 note=89 velocity=0 time=151\n",
      "note_on channel=0 note=88 velocity=96 time=9\n",
      "note_on channel=0 note=88 velocity=0 time=151\n",
      "note_on channel=0 note=89 velocity=96 time=9\n",
      "note_on channel=0 note=89 velocity=0 time=151\n",
      "note_on channel=0 note=86 velocity=96 time=9\n",
      "note_on channel=0 note=86 velocity=0 time=151\n",
      "note_on channel=0 note=93 velocity=96 time=9\n",
      "note_on channel=0 note=93 velocity=0 time=151\n",
      "note_on channel=0 note=86 velocity=96 time=9\n",
      "note_on channel=0 note=86 velocity=0 time=151\n",
      "note_on channel=0 note=89 velocity=96 time=9\n",
      "note_on channel=0 note=89 velocity=0 time=151\n",
      "note_on channel=0 note=93 velocity=96 time=9\n",
      "note_on channel=0 note=93 velocity=0 time=607\n",
      "note_on channel=0 note=91 velocity=96 time=33\n",
      "note_on channel=0 note=91 velocity=0 time=151\n",
      "note_on channel=0 note=89 velocity=93 time=9\n",
      "note_on channel=0 note=89 velocity=0 time=151\n",
      "note_on channel=0 note=88 velocity=89 time=9\n",
      "note_on channel=0 note=88 velocity=0 time=151\n",
      "note_on channel=0 note=89 velocity=85 time=9\n",
      "note_on channel=0 note=89 velocity=0 time=151\n",
      "note_on channel=0 note=86 velocity=82 time=9\n",
      "note_on channel=0 note=86 velocity=0 time=151\n",
      "note_on channel=0 note=93 velocity=78 time=9\n",
      "note_on channel=0 note=93 velocity=0 time=151\n",
      "note_on channel=0 note=91 velocity=74 time=9\n",
      "note_on channel=0 note=91 velocity=0 time=151\n",
      "note_on channel=0 note=89 velocity=71 time=9\n",
      "note_on channel=0 note=89 velocity=0 time=151\n",
      "note_on channel=0 note=88 velocity=67 time=9\n",
      "note_on channel=0 note=88 velocity=0 time=151\n",
      "note_on channel=0 note=89 velocity=63 time=9\n",
      "note_on channel=0 note=89 velocity=0 time=151\n",
      "note_on channel=0 note=86 velocity=59 time=9\n",
      "note_on channel=0 note=86 velocity=0 time=151\n",
      "note_on channel=0 note=93 velocity=56 time=9\n",
      "note_on channel=0 note=93 velocity=0 time=151\n",
      "note_on channel=0 note=91 velocity=52 time=9\n",
      "note_on channel=0 note=91 velocity=0 time=151\n",
      "note_on channel=0 note=89 velocity=48 time=9\n",
      "note_on channel=0 note=89 velocity=0 time=151\n",
      "note_on channel=0 note=88 velocity=45 time=9\n",
      "note_on channel=0 note=88 velocity=0 time=151\n",
      "note_on channel=0 note=89 velocity=41 time=9\n",
      "note_on channel=0 note=89 velocity=0 time=151\n",
      "note_on channel=0 note=86 velocity=37 time=9\n",
      "note_on channel=0 note=86 velocity=0 time=151\n",
      "MetaMessage('set_tempo', tempo=461538, time=9)\n",
      "note_on channel=0 note=93 velocity=33 time=0\n",
      "note_on channel=0 note=93 velocity=0 time=455\n",
      "note_on channel=0 note=92 velocity=33 time=25\n",
      "note_on channel=0 note=92 velocity=0 time=455\n",
      "note_on channel=0 note=91 velocity=33 time=25\n",
      "note_on channel=0 note=91 velocity=0 time=455\n",
      "note_on channel=0 note=90 velocity=33 time=25\n",
      "note_on channel=0 note=90 velocity=0 time=455\n",
      "MetaMessage('set_tempo', tempo=500000, time=25)\n",
      "note_on channel=0 note=89 velocity=33 time=0\n",
      "note_on channel=0 note=89 velocity=0 time=455\n",
      "note_on channel=0 note=88 velocity=33 time=25\n",
      "note_on channel=0 note=88 velocity=0 time=455\n",
      "MetaMessage('set_tempo', tempo=1000000, time=25)\n",
      "note_on channel=0 note=86 velocity=33 time=0\n",
      "note_on channel=0 note=86 velocity=0 time=455\n",
      "MetaMessage('set_tempo', tempo=500000, time=24)\n",
      "MetaMessage('set_tempo', tempo=125000, time=1)\n",
      "MetaMessage('set_tempo', tempo=1500000, time=960)\n",
      "note_on channel=0 note=91 velocity=33 time=0\n",
      "note_on channel=0 note=91 velocity=0 time=455\n",
      "MetaMessage('set_tempo', tempo=500000, time=24)\n",
      "MetaMessage('set_tempo', tempo=326087, time=1)\n",
      "note_on channel=0 note=91 velocity=33 time=0\n",
      "note_on channel=0 note=91 velocity=0 time=113\n",
      "note_on channel=0 note=89 velocity=33 time=7\n",
      "note_on channel=0 note=89 velocity=0 time=113\n",
      "note_on channel=0 note=88 velocity=34 time=7\n",
      "note_on channel=0 note=88 velocity=0 time=113\n",
      "note_on channel=0 note=86 velocity=35 time=7\n",
      "note_on channel=0 note=86 velocity=0 time=113\n",
      "note_on channel=0 note=84 velocity=36 time=7\n",
      "note_on channel=0 note=84 velocity=0 time=113\n",
      "note_on channel=0 note=83 velocity=37 time=7\n",
      "note_on channel=0 note=83 velocity=0 time=113\n",
      "note_on channel=0 note=81 velocity=38 time=7\n",
      "note_on channel=0 note=81 velocity=0 time=113\n",
      "note_on channel=0 note=79 velocity=39 time=7\n",
      "note_on channel=0 note=79 velocity=0 time=113\n",
      "note_on channel=0 note=78 velocity=41 time=7\n",
      "note_on channel=0 note=78 velocity=0 time=113\n",
      "note_on channel=0 note=76 velocity=42 time=7\n",
      "note_on channel=0 note=76 velocity=0 time=113\n",
      "note_on channel=0 note=74 velocity=43 time=7\n",
      "note_on channel=0 note=74 velocity=0 time=113\n",
      "note_on channel=0 note=72 velocity=44 time=7\n",
      "note_on channel=0 note=72 velocity=0 time=113\n",
      "note_on channel=0 note=71 velocity=45 time=7\n",
      "note_on channel=0 note=71 velocity=0 time=113\n",
      "note_on channel=0 note=69 velocity=46 time=7\n",
      "note_on channel=0 note=69 velocity=0 time=113\n",
      "note_on channel=0 note=67 velocity=47 time=7\n",
      "note_on channel=0 note=67 velocity=0 time=113\n",
      "note_on channel=0 note=65 velocity=49 time=7\n",
      "note_on channel=0 note=65 velocity=0 time=113\n",
      "note_on channel=0 note=64 velocity=50 time=7\n",
      "note_on channel=0 note=64 velocity=0 time=113\n",
      "note_on channel=0 note=62 velocity=51 time=7\n",
      "note_on channel=0 note=62 velocity=0 time=113\n",
      "note_on channel=0 note=60 velocity=52 time=7\n",
      "note_on channel=0 note=60 velocity=0 time=113\n",
      "note_on channel=0 note=59 velocity=53 time=7\n",
      "note_on channel=0 note=59 velocity=0 time=113\n",
      "note_on channel=0 note=57 velocity=54 time=7\n",
      "note_on channel=0 note=57 velocity=0 time=113\n",
      "note_on channel=0 note=55 velocity=55 time=7\n",
      "note_on channel=0 note=55 velocity=0 time=113\n",
      "note_on channel=0 note=53 velocity=57 time=7\n",
      "note_on channel=0 note=53 velocity=0 time=113\n",
      "note_on channel=0 note=52 velocity=58 time=7\n",
      "note_on channel=0 note=52 velocity=0 time=113\n",
      "note_on channel=0 note=50 velocity=59 time=7\n",
      "note_on channel=0 note=50 velocity=0 time=113\n",
      "note_on channel=0 note=48 velocity=60 time=7\n",
      "note_on channel=0 note=48 velocity=0 time=113\n",
      "note_on channel=0 note=47 velocity=61 time=7\n",
      "note_on channel=0 note=47 velocity=0 time=113\n",
      "note_on channel=0 note=45 velocity=62 time=7\n",
      "note_on channel=0 note=45 velocity=0 time=113\n",
      "note_on channel=0 note=43 velocity=64 time=7\n",
      "note_on channel=0 note=43 velocity=0 time=113\n",
      "note_on channel=0 note=44 velocity=64 time=7\n",
      "note_on channel=0 note=44 velocity=0 time=113\n",
      "note_on channel=0 note=45 velocity=64 time=7\n",
      "note_on channel=0 note=45 velocity=0 time=113\n",
      "note_on channel=0 note=46 velocity=64 time=7\n",
      "note_on channel=0 note=46 velocity=0 time=113\n",
      "note_on channel=0 note=47 velocity=64 time=7\n",
      "note_on channel=0 note=47 velocity=0 time=113\n",
      "note_on channel=0 note=48 velocity=64 time=7\n",
      "note_on channel=0 note=48 velocity=0 time=113\n",
      "note_on channel=0 note=49 velocity=63 time=7\n",
      "note_on channel=0 note=49 velocity=0 time=113\n",
      "note_on channel=0 note=50 velocity=62 time=7\n",
      "note_on channel=0 note=50 velocity=0 time=113\n",
      "note_on channel=0 note=51 velocity=61 time=7\n",
      "note_on channel=0 note=51 velocity=0 time=113\n",
      "note_on channel=0 note=52 velocity=61 time=7\n",
      "note_on channel=0 note=52 velocity=0 time=113\n",
      "note_on channel=0 note=53 velocity=60 time=7\n",
      "note_on channel=0 note=53 velocity=0 time=113\n",
      "note_on channel=0 note=54 velocity=59 time=7\n",
      "note_on channel=0 note=54 velocity=0 time=113\n",
      "note_on channel=0 note=55 velocity=58 time=7\n",
      "note_on channel=0 note=55 velocity=0 time=113\n",
      "note_on channel=0 note=56 velocity=58 time=7\n",
      "note_on channel=0 note=56 velocity=0 time=113\n",
      "note_on channel=0 note=57 velocity=57 time=7\n",
      "note_on channel=0 note=57 velocity=0 time=113\n",
      "note_on channel=0 note=58 velocity=56 time=7\n",
      "note_on channel=0 note=58 velocity=0 time=113\n",
      "note_on channel=0 note=59 velocity=55 time=7\n",
      "note_on channel=0 note=59 velocity=0 time=113\n",
      "note_on channel=0 note=60 velocity=54 time=7\n",
      "note_on channel=0 note=60 velocity=0 time=113\n",
      "note_on channel=0 note=61 velocity=54 time=7\n",
      "note_on channel=0 note=61 velocity=0 time=113\n",
      "note_on channel=0 note=62 velocity=53 time=7\n",
      "note_on channel=0 note=62 velocity=0 time=113\n",
      "note_on channel=0 note=63 velocity=52 time=7\n",
      "note_on channel=0 note=63 velocity=0 time=113\n",
      "note_on channel=0 note=64 velocity=51 time=7\n",
      "note_on channel=0 note=64 velocity=0 time=113\n",
      "note_on channel=0 note=65 velocity=51 time=7\n",
      "note_on channel=0 note=65 velocity=0 time=113\n",
      "note_on channel=0 note=66 velocity=50 time=7\n",
      "note_on channel=0 note=66 velocity=0 time=113\n",
      "note_on channel=0 note=67 velocity=49 time=7\n",
      "note_on channel=0 note=67 velocity=0 time=113\n",
      "note_on channel=0 note=68 velocity=48 time=7\n",
      "note_on channel=0 note=68 velocity=0 time=113\n",
      "note_on channel=0 note=69 velocity=47 time=7\n",
      "note_on channel=0 note=69 velocity=0 time=113\n",
      "note_on channel=0 note=70 velocity=47 time=7\n",
      "note_on channel=0 note=70 velocity=0 time=113\n",
      "note_on channel=0 note=71 velocity=46 time=7\n",
      "note_on channel=0 note=71 velocity=0 time=113\n",
      "note_on channel=0 note=72 velocity=45 time=7\n",
      "note_on channel=0 note=72 velocity=0 time=113\n",
      "note_on channel=0 note=73 velocity=44 time=7\n",
      "note_on channel=0 note=73 velocity=0 time=113\n",
      "note_on channel=0 note=74 velocity=44 time=7\n",
      "note_on channel=0 note=74 velocity=0 time=113\n",
      "note_on channel=0 note=75 velocity=43 time=7\n",
      "note_on channel=0 note=75 velocity=0 time=113\n",
      "note_on channel=0 note=76 velocity=42 time=7\n",
      "note_on channel=0 note=76 velocity=0 time=113\n",
      "note_on channel=0 note=77 velocity=41 time=7\n",
      "note_on channel=0 note=77 velocity=0 time=113\n",
      "note_on channel=0 note=78 velocity=40 time=7\n",
      "note_on channel=0 note=78 velocity=0 time=113\n",
      "note_on channel=0 note=79 velocity=40 time=7\n",
      "note_on channel=0 note=79 velocity=0 time=100\n",
      "note_on channel=0 note=80 velocity=39 time=7\n",
      "note_on channel=0 note=80 velocity=0 time=100\n",
      "note_on channel=0 note=81 velocity=38 time=7\n",
      "note_on channel=0 note=81 velocity=0 time=100\n",
      "note_on channel=0 note=82 velocity=38 time=7\n",
      "note_on channel=0 note=82 velocity=0 time=100\n",
      "note_on channel=0 note=83 velocity=37 time=7\n",
      "note_on channel=0 note=83 velocity=0 time=100\n",
      "note_on channel=0 note=84 velocity=36 time=7\n",
      "note_on channel=0 note=84 velocity=0 time=100\n",
      "note_on channel=0 note=85 velocity=36 time=7\n",
      "note_on channel=0 note=85 velocity=0 time=100\n",
      "note_on channel=0 note=86 velocity=35 time=7\n",
      "note_on channel=0 note=86 velocity=0 time=100\n",
      "note_on channel=0 note=87 velocity=34 time=7\n",
      "note_on channel=0 note=87 velocity=0 time=100\n",
      "MetaMessage('set_tempo', tempo=416667, time=4)\n",
      "note_on channel=0 note=88 velocity=33 time=0\n",
      "note_on channel=0 note=88 velocity=0 time=455\n",
      "note_on channel=0 note=76 velocity=64 time=9145\n",
      "note_on channel=0 note=76 velocity=0 time=455\n",
      "note_on channel=0 note=76 velocity=64 time=145\n",
      "note_on channel=0 note=76 velocity=0 time=113\n",
      "note_on channel=0 note=79 velocity=64 time=7\n",
      "note_on channel=0 note=79 velocity=0 time=113\n",
      "note_on channel=0 note=77 velocity=64 time=7\n",
      "note_on channel=0 note=77 velocity=0 time=113\n",
      "note_on channel=0 note=76 velocity=64 time=7\n",
      "note_on channel=0 note=76 velocity=0 time=455\n",
      "note_on channel=0 note=76 velocity=64 time=145\n",
      "note_on channel=0 note=76 velocity=0 time=113\n",
      "note_on channel=0 note=79 velocity=64 time=7\n",
      "note_on channel=0 note=79 velocity=0 time=113\n",
      "note_on channel=0 note=77 velocity=64 time=7\n",
      "note_on channel=0 note=77 velocity=0 time=113\n",
      "note_on channel=0 note=76 velocity=64 time=7\n",
      "note_on channel=0 note=76 velocity=0 time=113\n",
      "note_on channel=0 note=76 velocity=64 time=7\n",
      "note_on channel=0 note=76 velocity=0 time=113\n",
      "note_on channel=0 note=79 velocity=64 time=7\n",
      "note_on channel=0 note=79 velocity=0 time=113\n",
      "note_on channel=0 note=77 velocity=64 time=7\n",
      "note_on channel=0 note=77 velocity=0 time=113\n",
      "note_on channel=0 note=76 velocity=64 time=7\n",
      "note_on channel=0 note=76 velocity=0 time=113\n",
      "note_on channel=0 note=76 velocity=64 time=7\n",
      "note_on channel=0 note=76 velocity=0 time=113\n",
      "note_on channel=0 note=79 velocity=64 time=7\n",
      "note_on channel=0 note=79 velocity=0 time=113\n",
      "note_on channel=0 note=84 velocity=64 time=7\n",
      "note_on channel=0 note=84 velocity=0 time=113\n",
      "note_on channel=0 note=88 velocity=64 time=7\n",
      "note_on channel=0 note=88 velocity=0 time=227\n",
      "note_on channel=0 note=88 velocity=64 time=733\n",
      "note_on channel=0 note=88 velocity=0 time=56\n",
      "note_on channel=0 note=89 velocity=64 time=4\n",
      "note_on channel=0 note=89 velocity=0 time=56\n",
      "note_on channel=0 note=88 velocity=64 time=4\n",
      "note_on channel=0 note=88 velocity=0 time=56\n",
      "note_on channel=0 note=89 velocity=64 time=4\n",
      "note_on channel=0 note=89 velocity=0 time=56\n",
      "note_on channel=0 note=86 velocity=64 time=4\n",
      "note_on channel=0 note=86 velocity=0 time=113\n",
      "note_on channel=0 note=88 velocity=64 time=7\n",
      "note_on channel=0 note=88 velocity=0 time=113\n",
      "note_on channel=0 note=84 velocity=64 time=7\n",
      "note_on channel=0 note=84 velocity=0 time=55\n",
      "note_on channel=0 note=86 velocity=64 time=5\n",
      "note_on channel=0 note=86 velocity=0 time=55\n",
      "note_on channel=0 note=84 velocity=64 time=5\n",
      "note_on channel=0 note=84 velocity=0 time=55\n",
      "note_on channel=0 note=86 velocity=64 time=5\n",
      "note_on channel=0 note=86 velocity=0 time=55\n",
      "note_on channel=0 note=83 velocity=64 time=5\n",
      "note_on channel=0 note=83 velocity=0 time=113\n",
      "note_on channel=0 note=84 velocity=64 time=7\n",
      "note_on channel=0 note=84 velocity=0 time=113\n",
      "note_on channel=0 note=81 velocity=64 time=7\n",
      "note_on channel=0 note=81 velocity=0 time=227\n",
      "note_on channel=0 note=81 velocity=64 time=733\n",
      "note_on channel=0 note=81 velocity=0 time=55\n",
      "note_on channel=0 note=83 velocity=64 time=5\n",
      "note_on channel=0 note=83 velocity=0 time=55\n",
      "note_on channel=0 note=81 velocity=64 time=5\n",
      "note_on channel=0 note=81 velocity=0 time=55\n",
      "note_on channel=0 note=83 velocity=64 time=5\n",
      "note_on channel=0 note=83 velocity=0 time=55\n",
      "note_on channel=0 note=79 velocity=64 time=5\n",
      "note_on channel=0 note=79 velocity=0 time=113\n",
      "note_on channel=0 note=81 velocity=64 time=7\n",
      "note_on channel=0 note=81 velocity=0 time=113\n",
      "note_on channel=0 note=86 velocity=64 time=7\n",
      "note_on channel=0 note=86 velocity=0 time=55\n",
      "note_on channel=0 note=88 velocity=64 time=5\n",
      "note_on channel=0 note=88 velocity=0 time=55\n",
      "note_on channel=0 note=86 velocity=64 time=5\n",
      "note_on channel=0 note=86 velocity=0 time=55\n",
      "note_on channel=0 note=88 velocity=64 time=5\n",
      "note_on channel=0 note=88 velocity=0 time=55\n",
      "note_on channel=0 note=84 velocity=64 time=5\n",
      "note_on channel=0 note=84 velocity=0 time=113\n",
      "note_on channel=0 note=86 velocity=64 time=7\n",
      "note_on channel=0 note=86 velocity=0 time=113\n",
      "note_on channel=0 note=83 velocity=64 time=7\n",
      "note_on channel=0 note=83 velocity=0 time=55\n",
      "note_on channel=0 note=84 velocity=64 time=5\n",
      "note_on channel=0 note=84 velocity=0 time=55\n",
      "note_on channel=0 note=83 velocity=64 time=5\n",
      "note_on channel=0 note=83 velocity=0 time=55\n",
      "note_on channel=0 note=84 velocity=64 time=5\n",
      "note_on channel=0 note=84 velocity=0 time=55\n",
      "note_on channel=0 note=81 velocity=64 time=5\n",
      "note_on channel=0 note=81 velocity=0 time=113\n",
      "note_on channel=0 note=83 velocity=64 time=7\n",
      "note_on channel=0 note=83 velocity=0 time=113\n",
      "note_on channel=0 note=79 velocity=64 time=7\n",
      "note_on channel=0 note=79 velocity=0 time=227\n",
      "note_on channel=0 note=81 velocity=64 time=253\n",
      "note_on channel=0 note=81 velocity=0 time=227\n",
      "note_on channel=0 note=74 velocity=64 time=253\n",
      "note_on channel=0 note=74 velocity=0 time=227\n",
      "note_on channel=0 note=71 velocity=64 time=253\n",
      "note_on channel=0 note=71 velocity=0 time=911\n",
      "note_on channel=0 note=79 velocity=64 time=3889\n",
      "note_on channel=0 note=74 velocity=64 time=0\n",
      "note_on channel=0 note=79 velocity=0 time=227\n",
      "note_on channel=0 note=78 velocity=64 time=13\n",
      "note_on channel=0 note=78 velocity=0 time=113\n",
      "note_on channel=0 note=79 velocity=64 time=7\n",
      "note_on channel=0 note=79 velocity=0 time=113\n",
      "note_on channel=0 note=81 velocity=64 time=7\n",
      "note_on channel=0 note=81 velocity=0 time=227\n",
      "note_on channel=0 note=79 velocity=64 time=13\n",
      "note_on channel=0 note=79 velocity=0 time=113\n",
      "note_on channel=0 note=78 velocity=64 time=7\n",
      "note_on channel=0 note=78 velocity=0 time=113\n",
      "note_on channel=0 note=79 velocity=64 time=7\n",
      "note_on channel=0 note=74 velocity=0 time=179\n",
      "note_on channel=0 note=79 velocity=0 time=48\n",
      "note_on channel=0 note=86 velocity=64 time=13\n",
      "note_on channel=0 note=74 velocity=64 time=0\n",
      "note_on channel=0 note=86 velocity=0 time=227\n",
      "note_on channel=0 note=74 velocity=0 time=0\n",
      "note_on channel=0 note=84 velocity=64 time=13\n",
      "note_on channel=0 note=72 velocity=64 time=0\n",
      "note_on channel=0 note=84 velocity=0 time=455\n",
      "note_on channel=0 note=72 velocity=0 time=0\n",
      "note_on channel=0 note=83 velocity=64 time=25\n",
      "note_on channel=0 note=71 velocity=64 time=0\n",
      "note_on channel=0 note=83 velocity=0 time=227\n",
      "note_on channel=0 note=81 velocity=64 time=13\n",
      "note_on channel=0 note=81 velocity=0 time=113\n",
      "note_on channel=0 note=79 velocity=64 time=7\n",
      "note_on channel=0 note=71 velocity=0 time=95\n",
      "note_on channel=0 note=79 velocity=0 time=18\n",
      "note_on channel=0 note=81 velocity=64 time=7\n",
      "note_on channel=0 note=69 velocity=64 time=0\n",
      "note_on channel=0 note=81 velocity=0 time=227\n",
      "note_on channel=0 note=79 velocity=64 time=13\n",
      "note_on channel=0 note=79 velocity=0 time=113\n",
      "note_on channel=0 note=78 velocity=64 time=7\n",
      "note_on channel=0 note=69 velocity=0 time=95\n",
      "note_on channel=0 note=78 velocity=0 time=18\n",
      "note_on channel=0 note=79 velocity=64 time=7\n",
      "note_on channel=0 note=71 velocity=64 time=0\n",
      "note_on channel=0 note=79 velocity=0 time=227\n",
      "note_on channel=0 note=71 velocity=0 time=0\n",
      "note_on channel=0 note=76 velocity=64 time=13\n",
      "note_on channel=0 note=73 velocity=64 time=0\n",
      "note_on channel=0 note=76 velocity=0 time=227\n",
      "note_on channel=0 note=73 velocity=0 time=0\n",
      "note_on channel=0 note=74 velocity=64 time=13\n",
      "note_on channel=0 note=74 velocity=0 time=0\n",
      "note_on channel=0 note=74 velocity=64 time=0\n",
      "note_on channel=0 note=74 velocity=0 time=227\n",
      "note_on channel=0 note=71 velocity=64 time=1213\n",
      "note_on channel=0 note=79 velocity=64 time=0\n",
      "note_on channel=0 note=71 velocity=0 time=113\n",
      "note_on channel=0 note=79 velocity=0 time=0\n",
      "note_on channel=0 note=73 velocity=64 time=7\n",
      "note_on channel=0 note=76 velocity=64 time=0\n",
      "note_on channel=0 note=73 velocity=0 time=113\n",
      "note_on channel=0 note=76 velocity=0 time=0\n",
      "note_on channel=0 note=74 velocity=64 time=7\n",
      "note_on channel=0 note=74 velocity=0 time=119\n",
      "note_on channel=0 note=86 velocity=112 time=14281\n",
      "note_on channel=0 note=86 velocity=0 time=455\n",
      "note_on channel=0 note=74 velocity=96 time=25\n",
      "note_on channel=0 note=74 velocity=0 time=119\n",
      "note_on channel=0 note=84 velocity=96 time=121\n",
      "note_on channel=0 note=84 velocity=0 time=119\n",
      "note_on channel=0 note=72 velocity=96 time=121\n",
      "note_on channel=0 note=72 velocity=0 time=119\n",
      "note_on channel=0 note=82 velocity=96 time=121\n",
      "note_on channel=0 note=82 velocity=0 time=119\n",
      "note_on channel=0 note=70 velocity=96 time=121\n",
      "note_on channel=0 note=70 velocity=0 time=119\n",
      "note_on channel=0 note=81 velocity=96 time=121\n",
      "note_on channel=0 note=81 velocity=0 time=227\n",
      "note_on channel=0 note=69 velocity=96 time=13\n",
      "note_on channel=0 note=69 velocity=0 time=227\n",
      "note_on channel=0 note=79 velocity=96 time=13\n",
      "note_on channel=0 note=79 velocity=0 time=227\n",
      "note_on channel=0 note=67 velocity=96 time=13\n",
      "note_on channel=0 note=67 velocity=0 time=227\n",
      "note_on channel=0 note=81 velocity=96 time=13\n",
      "note_on channel=0 note=81 velocity=0 time=227\n",
      "note_on channel=0 note=69 velocity=96 time=13\n",
      "note_on channel=0 note=69 velocity=0 time=227\n",
      "note_on channel=0 note=78 velocity=96 time=13\n",
      "note_on channel=0 note=78 velocity=0 time=227\n",
      "note_on channel=0 note=66 velocity=96 time=13\n",
      "note_on channel=0 note=66 velocity=0 time=227\n",
      "note_on channel=0 note=94 velocity=112 time=4093\n",
      "note_on channel=0 note=94 velocity=0 time=239\n",
      "note_on channel=0 note=82 velocity=80 time=241\n",
      "note_on channel=0 note=82 velocity=0 time=119\n",
      "note_on channel=0 note=92 velocity=80 time=121\n",
      "note_on channel=0 note=92 velocity=0 time=119\n",
      "note_on channel=0 note=80 velocity=80 time=121\n",
      "note_on channel=0 note=80 velocity=0 time=119\n",
      "note_on channel=0 note=91 velocity=80 time=121\n",
      "note_on channel=0 note=91 velocity=0 time=119\n",
      "note_on channel=0 note=79 velocity=80 time=121\n",
      "note_on channel=0 note=79 velocity=0 time=119\n",
      "note_on channel=0 note=89 velocity=80 time=121\n",
      "note_on channel=0 note=89 velocity=0 time=227\n",
      "note_on channel=0 note=77 velocity=80 time=13\n",
      "note_on channel=0 note=77 velocity=0 time=227\n",
      "note_on channel=0 note=87 velocity=80 time=13\n",
      "note_on channel=0 note=87 velocity=0 time=227\n",
      "note_on channel=0 note=75 velocity=80 time=13\n",
      "note_on channel=0 note=75 velocity=0 time=227\n",
      "note_on channel=0 note=89 velocity=80 time=13\n",
      "note_on channel=0 note=89 velocity=0 time=227\n",
      "note_on channel=0 note=77 velocity=80 time=13\n",
      "note_on channel=0 note=77 velocity=0 time=227\n",
      "note_on channel=0 note=86 velocity=80 time=13\n",
      "note_on channel=0 note=86 velocity=0 time=227\n",
      "note_on channel=0 note=74 velocity=80 time=13\n",
      "note_on channel=0 note=74 velocity=0 time=227\n",
      "note_on channel=0 note=87 velocity=96 time=13\n",
      "note_on channel=0 note=87 velocity=0 time=113\n",
      "note_on channel=0 note=75 velocity=96 time=7\n",
      "note_on channel=0 note=75 velocity=0 time=113\n",
      "note_on channel=0 note=79 velocity=96 time=7\n",
      "note_on channel=0 note=79 velocity=0 time=113\n",
      "note_on channel=0 note=82 velocity=96 time=7\n",
      "note_on channel=0 note=82 velocity=0 time=113\n",
      "note_on channel=0 note=87 velocity=96 time=7\n",
      "note_on channel=0 note=87 velocity=0 time=113\n",
      "note_on channel=0 note=82 velocity=96 time=7\n",
      "note_on channel=0 note=82 velocity=0 time=113\n",
      "note_on channel=0 note=79 velocity=96 time=7\n",
      "note_on channel=0 note=79 velocity=0 time=113\n",
      "note_on channel=0 note=75 velocity=96 time=7\n",
      "note_on channel=0 note=75 velocity=0 time=113\n",
      "note_on channel=0 note=91 velocity=106 time=7\n",
      "note_on channel=0 note=91 velocity=0 time=113\n",
      "note_on channel=0 note=87 velocity=96 time=7\n",
      "note_on channel=0 note=87 velocity=0 time=113\n",
      "note_on channel=0 note=82 velocity=96 time=7\n",
      "note_on channel=0 note=82 velocity=0 time=113\n",
      "note_on channel=0 note=79 velocity=96 time=7\n",
      "note_on channel=0 note=79 velocity=0 time=113\n",
      "note_on channel=0 note=87 velocity=96 time=7\n",
      "note_on channel=0 note=87 velocity=0 time=113\n",
      "note_on channel=0 note=82 velocity=96 time=7\n",
      "note_on channel=0 note=82 velocity=0 time=113\n",
      "note_on channel=0 note=79 velocity=96 time=7\n",
      "note_on channel=0 note=79 velocity=0 time=113\n",
      "note_on channel=0 note=75 velocity=96 time=7\n",
      "note_on channel=0 note=75 velocity=0 time=113\n",
      "note_on channel=0 note=91 velocity=106 time=7\n",
      "note_on channel=0 note=91 velocity=0 time=113\n",
      "note_on channel=0 note=87 velocity=96 time=7\n",
      "note_on channel=0 note=87 velocity=0 time=113\n",
      "note_on channel=0 note=82 velocity=96 time=7\n",
      "note_on channel=0 note=82 velocity=0 time=113\n",
      "note_on channel=0 note=79 velocity=96 time=7\n",
      "note_on channel=0 note=79 velocity=0 time=113\n",
      "note_on channel=0 note=87 velocity=96 time=7\n",
      "note_on channel=0 note=87 velocity=0 time=113\n",
      "note_on channel=0 note=82 velocity=96 time=7\n",
      "note_on channel=0 note=82 velocity=0 time=113\n",
      "note_on channel=0 note=79 velocity=96 time=7\n",
      "note_on channel=0 note=79 velocity=0 time=113\n",
      "note_on channel=0 note=75 velocity=96 time=7\n",
      "note_on channel=0 note=75 velocity=0 time=113\n",
      "note_on channel=0 note=91 velocity=106 time=7\n",
      "note_on channel=0 note=91 velocity=0 time=113\n",
      "note_on channel=0 note=87 velocity=96 time=7\n",
      "note_on channel=0 note=87 velocity=0 time=113\n",
      "note_on channel=0 note=82 velocity=96 time=7\n",
      "note_on channel=0 note=82 velocity=0 time=113\n",
      "note_on channel=0 note=79 velocity=96 time=7\n",
      "note_on channel=0 note=79 velocity=0 time=113\n",
      "note_on channel=0 note=87 velocity=96 time=7\n",
      "note_on channel=0 note=87 velocity=0 time=113\n",
      "note_on channel=0 note=82 velocity=96 time=7\n",
      "note_on channel=0 note=82 velocity=0 time=113\n",
      "note_on channel=0 note=79 velocity=96 time=7\n",
      "note_on channel=0 note=79 velocity=0 time=113\n",
      "note_on channel=0 note=75 velocity=96 time=7\n",
      "note_on channel=0 note=75 velocity=0 time=113\n",
      "note_on channel=0 note=77 velocity=96 time=127\n",
      "note_on channel=0 note=77 velocity=0 time=113\n",
      "note_on channel=0 note=82 velocity=96 time=7\n",
      "note_on channel=0 note=82 velocity=0 time=113\n",
      "note_on channel=0 note=86 velocity=96 time=7\n",
      "note_on channel=0 note=86 velocity=0 time=113\n",
      "note_on channel=0 note=89 velocity=96 time=7\n",
      "note_on channel=0 note=89 velocity=0 time=113\n",
      "note_on channel=0 note=82 velocity=96 time=7\n",
      "note_on channel=0 note=82 velocity=0 time=113\n",
      "note_on channel=0 note=86 velocity=96 time=7\n",
      "note_on channel=0 note=86 velocity=0 time=113\n",
      "note_on channel=0 note=89 velocity=96 time=7\n",
      "note_on channel=0 note=89 velocity=0 time=113\n",
      "note_on channel=0 note=92 velocity=106 time=7\n",
      "note_on channel=0 note=92 velocity=0 time=113\n",
      "note_on channel=0 note=89 velocity=96 time=7\n",
      "note_on channel=0 note=89 velocity=0 time=113\n",
      "note_on channel=0 note=86 velocity=96 time=7\n",
      "note_on channel=0 note=86 velocity=0 time=113\n",
      "note_on channel=0 note=82 velocity=96 time=7\n",
      "note_on channel=0 note=82 velocity=0 time=113\n",
      "note_on channel=0 note=89 velocity=96 time=7\n",
      "note_on channel=0 note=89 velocity=0 time=113\n",
      "note_on channel=0 note=86 velocity=96 time=7\n",
      "note_on channel=0 note=86 velocity=0 time=113\n",
      "note_on channel=0 note=82 velocity=96 time=7\n",
      "note_on channel=0 note=82 velocity=0 time=113\n",
      "note_on channel=0 note=80 velocity=96 time=7\n",
      "note_on channel=0 note=80 velocity=0 time=113\n",
      "note_on channel=0 note=92 velocity=106 time=7\n",
      "note_on channel=0 note=92 velocity=0 time=113\n",
      "note_on channel=0 note=89 velocity=96 time=7\n",
      "note_on channel=0 note=89 velocity=0 time=113\n",
      "note_on channel=0 note=86 velocity=96 time=7\n",
      "note_on channel=0 note=86 velocity=0 time=113\n",
      "note_on channel=0 note=82 velocity=96 time=7\n",
      "note_on channel=0 note=82 velocity=0 time=113\n",
      "note_on channel=0 note=89 velocity=96 time=7\n",
      "note_on channel=0 note=89 velocity=0 time=113\n",
      "note_on channel=0 note=86 velocity=96 time=7\n",
      "note_on channel=0 note=86 velocity=0 time=113\n",
      "note_on channel=0 note=82 velocity=96 time=7\n",
      "note_on channel=0 note=82 velocity=0 time=113\n",
      "note_on channel=0 note=80 velocity=96 time=7\n",
      "note_on channel=0 note=80 velocity=0 time=113\n",
      "note_on channel=0 note=92 velocity=106 time=7\n",
      "note_on channel=0 note=92 velocity=0 time=113\n",
      "note_on channel=0 note=89 velocity=96 time=7\n",
      "note_on channel=0 note=89 velocity=0 time=113\n",
      "note_on channel=0 note=86 velocity=96 time=7\n",
      "note_on channel=0 note=86 velocity=0 time=113\n",
      "note_on channel=0 note=82 velocity=96 time=7\n",
      "note_on channel=0 note=82 velocity=0 time=113\n",
      "note_on channel=0 note=89 velocity=96 time=7\n",
      "note_on channel=0 note=89 velocity=0 time=113\n",
      "note_on channel=0 note=86 velocity=96 time=7\n",
      "note_on channel=0 note=86 velocity=0 time=113\n",
      "note_on channel=0 note=82 velocity=96 time=7\n",
      "note_on channel=0 note=82 velocity=0 time=113\n",
      "note_on channel=0 note=80 velocity=96 time=7\n",
      "note_on channel=0 note=80 velocity=0 time=113\n",
      "note_on channel=0 note=82 velocity=96 time=7\n",
      "note_on channel=0 note=91 velocity=96 time=0\n",
      "note_on channel=0 note=82 velocity=0 time=227\n",
      "note_on channel=0 note=91 velocity=0 time=0\n",
      "note_on channel=0 note=70 velocity=64 time=3733\n",
      "note_on channel=0 note=70 velocity=0 time=113\n",
      "note_on channel=0 note=73 velocity=64 time=7\n",
      "note_on channel=0 note=73 velocity=0 time=113\n",
      "note_on channel=0 note=77 velocity=64 time=7\n",
      "note_on channel=0 note=77 velocity=0 time=113\n",
      "note_on channel=0 note=82 velocity=64 time=7\n",
      "note_on channel=0 note=82 velocity=0 time=113\n",
      "note_on channel=0 note=73 velocity=64 time=7\n",
      "note_on channel=0 note=73 velocity=0 time=113\n",
      "note_on channel=0 note=77 velocity=64 time=7\n",
      "note_on channel=0 note=77 velocity=0 time=113\n",
      "note_on channel=0 note=82 velocity=64 time=7\n",
      "note_on channel=0 note=82 velocity=0 time=113\n",
      "note_on channel=0 note=85 velocity=64 time=7\n",
      "note_on channel=0 note=85 velocity=0 time=113\n",
      "note_on channel=0 note=82 velocity=64 time=7\n",
      "note_on channel=0 note=82 velocity=0 time=113\n",
      "note_on channel=0 note=77 velocity=64 time=7\n",
      "note_on channel=0 note=77 velocity=0 time=113\n",
      "note_on channel=0 note=73 velocity=64 time=7\n",
      "note_on channel=0 note=73 velocity=0 time=113\n",
      "note_on channel=0 note=82 velocity=64 time=7\n",
      "note_on channel=0 note=82 velocity=0 time=113\n",
      "note_on channel=0 note=77 velocity=64 time=7\n",
      "note_on channel=0 note=77 velocity=0 time=113\n",
      "note_on channel=0 note=73 velocity=64 time=7\n",
      "note_on channel=0 note=73 velocity=0 time=113\n",
      "note_on channel=0 note=70 velocity=64 time=7\n",
      "note_on channel=0 note=70 velocity=0 time=113\n",
      "note_on channel=0 note=85 velocity=64 time=7\n",
      "note_on channel=0 note=85 velocity=0 time=113\n",
      "note_on channel=0 note=82 velocity=64 time=7\n",
      "note_on channel=0 note=82 velocity=0 time=113\n",
      "note_on channel=0 note=77 velocity=64 time=7\n",
      "note_on channel=0 note=77 velocity=0 time=113\n",
      "note_on channel=0 note=73 velocity=64 time=7\n",
      "note_on channel=0 note=73 velocity=0 time=113\n",
      "note_on channel=0 note=82 velocity=64 time=7\n",
      "note_on channel=0 note=82 velocity=0 time=113\n",
      "note_on channel=0 note=77 velocity=64 time=7\n",
      "note_on channel=0 note=77 velocity=0 time=113\n",
      "note_on channel=0 note=73 velocity=64 time=7\n",
      "note_on channel=0 note=73 velocity=0 time=113\n",
      "note_on channel=0 note=70 velocity=64 time=7\n",
      "note_on channel=0 note=70 velocity=0 time=113\n",
      "note_on channel=0 note=85 velocity=64 time=7\n",
      "note_on channel=0 note=85 velocity=0 time=113\n",
      "note_on channel=0 note=82 velocity=64 time=7\n",
      "note_on channel=0 note=82 velocity=0 time=113\n",
      "note_on channel=0 note=77 velocity=64 time=7\n",
      "note_on channel=0 note=77 velocity=0 time=113\n",
      "note_on channel=0 note=73 velocity=64 time=7\n",
      "note_on channel=0 note=73 velocity=0 time=113\n",
      "note_on channel=0 note=82 velocity=64 time=7\n",
      "note_on channel=0 note=82 velocity=0 time=113\n",
      "note_on channel=0 note=77 velocity=64 time=7\n",
      "note_on channel=0 note=77 velocity=0 time=113\n",
      "note_on channel=0 note=73 velocity=64 time=7\n",
      "note_on channel=0 note=73 velocity=0 time=113\n",
      "note_on channel=0 note=70 velocity=64 time=7\n",
      "note_on channel=0 note=70 velocity=0 time=113\n",
      "note_on channel=0 note=72 velocity=64 time=127\n",
      "note_on channel=0 note=72 velocity=0 time=113\n",
      "note_on channel=0 note=77 velocity=64 time=7\n",
      "note_on channel=0 note=77 velocity=0 time=113\n",
      "note_on channel=0 note=81 velocity=64 time=7\n",
      "note_on channel=0 note=81 velocity=0 time=113\n",
      "note_on channel=0 note=84 velocity=64 time=7\n",
      "note_on channel=0 note=84 velocity=0 time=113\n",
      "note_on channel=0 note=77 velocity=64 time=7\n",
      "note_on channel=0 note=77 velocity=0 time=113\n",
      "note_on channel=0 note=81 velocity=64 time=7\n",
      "note_on channel=0 note=81 velocity=0 time=113\n",
      "note_on channel=0 note=84 velocity=64 time=7\n",
      "note_on channel=0 note=84 velocity=0 time=113\n",
      "note_on channel=0 note=87 velocity=64 time=7\n",
      "note_on channel=0 note=87 velocity=0 time=113\n",
      "note_on channel=0 note=84 velocity=64 time=7\n",
      "note_on channel=0 note=84 velocity=0 time=113\n",
      "note_on channel=0 note=81 velocity=64 time=7\n",
      "note_on channel=0 note=81 velocity=0 time=113\n",
      "note_on channel=0 note=77 velocity=64 time=7\n",
      "note_on channel=0 note=77 velocity=0 time=113\n",
      "note_on channel=0 note=84 velocity=64 time=7\n",
      "note_on channel=0 note=84 velocity=0 time=113\n",
      "note_on channel=0 note=81 velocity=64 time=7\n",
      "note_on channel=0 note=81 velocity=0 time=113\n",
      "note_on channel=0 note=77 velocity=64 time=7\n",
      "note_on channel=0 note=77 velocity=0 time=113\n",
      "note_on channel=0 note=75 velocity=64 time=7\n",
      "note_on channel=0 note=75 velocity=0 time=113\n",
      "note_on channel=0 note=87 velocity=64 time=7\n",
      "note_on channel=0 note=87 velocity=0 time=113\n",
      "note_on channel=0 note=84 velocity=64 time=7\n",
      "note_on channel=0 note=84 velocity=0 time=113\n",
      "note_on channel=0 note=81 velocity=64 time=7\n",
      "note_on channel=0 note=81 velocity=0 time=113\n",
      "note_on channel=0 note=77 velocity=64 time=7\n",
      "note_on channel=0 note=77 velocity=0 time=113\n",
      "note_on channel=0 note=84 velocity=64 time=7\n",
      "note_on channel=0 note=84 velocity=0 time=113\n",
      "note_on channel=0 note=81 velocity=64 time=7\n",
      "note_on channel=0 note=81 velocity=0 time=113\n",
      "note_on channel=0 note=77 velocity=64 time=7\n",
      "note_on channel=0 note=77 velocity=0 time=113\n",
      "note_on channel=0 note=75 velocity=64 time=7\n",
      "note_on channel=0 note=75 velocity=0 time=113\n",
      "note_on channel=0 note=87 velocity=64 time=7\n",
      "note_on channel=0 note=87 velocity=0 time=113\n",
      "note_on channel=0 note=84 velocity=64 time=7\n",
      "note_on channel=0 note=84 velocity=0 time=113\n",
      "note_on channel=0 note=81 velocity=64 time=7\n",
      "note_on channel=0 note=81 velocity=0 time=113\n",
      "note_on channel=0 note=77 velocity=64 time=7\n",
      "note_on channel=0 note=77 velocity=0 time=113\n",
      "note_on channel=0 note=84 velocity=64 time=7\n",
      "note_on channel=0 note=84 velocity=0 time=113\n",
      "note_on channel=0 note=81 velocity=64 time=7\n",
      "note_on channel=0 note=81 velocity=0 time=113\n",
      "note_on channel=0 note=77 velocity=64 time=7\n",
      "note_on channel=0 note=77 velocity=0 time=113\n",
      "note_on channel=0 note=75 velocity=64 time=7\n",
      "note_on channel=0 note=75 velocity=0 time=113\n",
      "note_on channel=0 note=77 velocity=64 time=7\n",
      "note_on channel=0 note=85 velocity=64 time=0\n",
      "note_on channel=0 note=77 velocity=0 time=227\n",
      "note_on channel=0 note=85 velocity=0 time=0\n",
      "note_on channel=0 note=77 velocity=64 time=3733\n",
      "note_on channel=0 note=77 velocity=0 time=113\n",
      "note_on channel=0 note=80 velocity=64 time=7\n",
      "note_on channel=0 note=80 velocity=0 time=113\n",
      "note_on channel=0 note=84 velocity=64 time=7\n",
      "note_on channel=0 note=84 velocity=0 time=113\n",
      "note_on channel=0 note=89 velocity=64 time=7\n",
      "note_on channel=0 note=89 velocity=0 time=113\n",
      "note_on channel=0 note=80 velocity=64 time=7\n",
      "note_on channel=0 note=80 velocity=0 time=113\n",
      "note_on channel=0 note=84 velocity=64 time=7\n",
      "note_on channel=0 note=84 velocity=0 time=113\n",
      "note_on channel=0 note=89 velocity=64 time=7\n",
      "note_on channel=0 note=89 velocity=0 time=113\n",
      "note_on channel=0 note=92 velocity=64 time=7\n",
      "note_on channel=0 note=92 velocity=0 time=113\n",
      "note_on channel=0 note=89 velocity=64 time=7\n",
      "note_on channel=0 note=89 velocity=0 time=113\n",
      "note_on channel=0 note=84 velocity=64 time=7\n",
      "note_on channel=0 note=84 velocity=0 time=113\n",
      "note_on channel=0 note=80 velocity=64 time=7\n",
      "note_on channel=0 note=80 velocity=0 time=113\n",
      "note_on channel=0 note=89 velocity=64 time=7\n",
      "note_on channel=0 note=89 velocity=0 time=113\n",
      "note_on channel=0 note=84 velocity=64 time=7\n",
      "note_on channel=0 note=84 velocity=0 time=113\n",
      "note_on channel=0 note=80 velocity=64 time=7\n",
      "note_on channel=0 note=80 velocity=0 time=113\n",
      "note_on channel=0 note=77 velocity=64 time=7\n",
      "note_on channel=0 note=77 velocity=0 time=113\n",
      "note_on channel=0 note=92 velocity=64 time=7\n",
      "note_on channel=0 note=92 velocity=0 time=113\n",
      "note_on channel=0 note=89 velocity=64 time=7\n",
      "note_on channel=0 note=89 velocity=0 time=113\n",
      "note_on channel=0 note=84 velocity=64 time=7\n",
      "note_on channel=0 note=84 velocity=0 time=113\n",
      "note_on channel=0 note=80 velocity=64 time=7\n",
      "note_on channel=0 note=80 velocity=0 time=113\n",
      "note_on channel=0 note=89 velocity=64 time=7\n",
      "note_on channel=0 note=89 velocity=0 time=113\n",
      "note_on channel=0 note=84 velocity=64 time=7\n",
      "note_on channel=0 note=84 velocity=0 time=113\n",
      "note_on channel=0 note=80 velocity=64 time=7\n",
      "note_on channel=0 note=80 velocity=0 time=113\n",
      "note_on channel=0 note=77 velocity=64 time=7\n",
      "note_on channel=0 note=77 velocity=0 time=113\n",
      "note_on channel=0 note=92 velocity=64 time=7\n",
      "note_on channel=0 note=92 velocity=0 time=113\n",
      "note_on channel=0 note=89 velocity=64 time=7\n",
      "note_on channel=0 note=89 velocity=0 time=113\n",
      "note_on channel=0 note=84 velocity=64 time=7\n",
      "note_on channel=0 note=84 velocity=0 time=113\n",
      "note_on channel=0 note=80 velocity=64 time=7\n",
      "note_on channel=0 note=80 velocity=0 time=113\n",
      "note_on channel=0 note=89 velocity=64 time=7\n",
      "note_on channel=0 note=89 velocity=0 time=113\n",
      "note_on channel=0 note=84 velocity=64 time=7\n",
      "note_on channel=0 note=84 velocity=0 time=113\n",
      "note_on channel=0 note=80 velocity=64 time=7\n",
      "note_on channel=0 note=80 velocity=0 time=113\n",
      "note_on channel=0 note=77 velocity=64 time=7\n",
      "note_on channel=0 note=77 velocity=0 time=113\n",
      "note_on channel=0 note=79 velocity=64 time=127\n",
      "note_on channel=0 note=79 velocity=0 time=113\n",
      "note_on channel=0 note=84 velocity=64 time=7\n",
      "note_on channel=0 note=84 velocity=0 time=113\n",
      "note_on channel=0 note=88 velocity=64 time=7\n",
      "note_on channel=0 note=88 velocity=0 time=113\n",
      "note_on channel=0 note=91 velocity=64 time=7\n",
      "note_on channel=0 note=91 velocity=0 time=113\n",
      "note_on channel=0 note=84 velocity=64 time=7\n",
      "note_on channel=0 note=84 velocity=0 time=113\n",
      "note_on channel=0 note=88 velocity=64 time=7\n",
      "note_on channel=0 note=88 velocity=0 time=113\n",
      "note_on channel=0 note=91 velocity=64 time=7\n",
      "note_on channel=0 note=91 velocity=0 time=113\n",
      "note_on channel=0 note=94 velocity=64 time=7\n",
      "note_on channel=0 note=94 velocity=0 time=113\n",
      "note_on channel=0 note=91 velocity=64 time=7\n",
      "note_on channel=0 note=91 velocity=0 time=113\n",
      "note_on channel=0 note=88 velocity=64 time=7\n",
      "note_on channel=0 note=88 velocity=0 time=113\n",
      "note_on channel=0 note=84 velocity=64 time=7\n",
      "note_on channel=0 note=84 velocity=0 time=113\n",
      "note_on channel=0 note=91 velocity=64 time=7\n",
      "note_on channel=0 note=91 velocity=0 time=113\n",
      "note_on channel=0 note=88 velocity=64 time=7\n",
      "note_on channel=0 note=88 velocity=0 time=113\n",
      "note_on channel=0 note=84 velocity=64 time=7\n",
      "note_on channel=0 note=84 velocity=0 time=113\n",
      "note_on channel=0 note=82 velocity=64 time=7\n",
      "note_on channel=0 note=82 velocity=0 time=113\n",
      "note_on channel=0 note=94 velocity=64 time=7\n",
      "note_on channel=0 note=94 velocity=0 time=113\n",
      "note_on channel=0 note=91 velocity=64 time=7\n",
      "note_on channel=0 note=91 velocity=0 time=113\n",
      "note_on channel=0 note=88 velocity=64 time=7\n",
      "note_on channel=0 note=88 velocity=0 time=113\n",
      "note_on channel=0 note=84 velocity=64 time=7\n",
      "note_on channel=0 note=84 velocity=0 time=113\n",
      "note_on channel=0 note=82 velocity=64 time=7\n",
      "note_on channel=0 note=82 velocity=0 time=113\n",
      "note_on channel=0 note=79 velocity=64 time=7\n",
      "note_on channel=0 note=79 velocity=0 time=113\n",
      "note_on channel=0 note=76 velocity=64 time=7\n",
      "note_on channel=0 note=76 velocity=0 time=113\n",
      "note_on channel=0 note=72 velocity=64 time=7\n",
      "note_on channel=0 note=72 velocity=0 time=113\n",
      "note_on channel=0 note=70 velocity=64 time=7\n",
      "note_on channel=0 note=70 velocity=0 time=113\n",
      "note_on channel=0 note=67 velocity=64 time=7\n",
      "note_on channel=0 note=67 velocity=0 time=113\n",
      "note_on channel=0 note=64 velocity=64 time=7\n",
      "note_on channel=0 note=64 velocity=0 time=113\n",
      "note_on channel=0 note=60 velocity=64 time=7\n",
      "note_on channel=0 note=60 velocity=0 time=113\n",
      "note_on channel=0 note=70 velocity=64 time=7\n",
      "note_on channel=0 note=70 velocity=0 time=113\n",
      "note_on channel=0 note=67 velocity=64 time=7\n",
      "note_on channel=0 note=67 velocity=0 time=113\n",
      "note_on channel=0 note=64 velocity=64 time=7\n",
      "note_on channel=0 note=64 velocity=0 time=113\n",
      "note_on channel=0 note=60 velocity=64 time=7\n",
      "note_on channel=0 note=60 velocity=0 time=113\n",
      "note_on channel=0 note=57 velocity=96 time=7\n",
      "note_on channel=0 note=60 velocity=96 time=0\n",
      "note_on channel=0 note=57 velocity=0 time=227\n",
      "note_on channel=0 note=60 velocity=0 time=0\n",
      "note_on channel=0 note=60 velocity=96 time=253\n",
      "note_on channel=0 note=66 velocity=96 time=0\n",
      "note_on channel=0 note=60 velocity=0 time=119\n",
      "note_on channel=0 note=66 velocity=0 time=0\n",
      "note_on channel=0 note=66 velocity=96 time=121\n",
      "note_on channel=0 note=69 velocity=96 time=0\n",
      "note_on channel=0 note=66 velocity=0 time=119\n",
      "note_on channel=0 note=69 velocity=0 time=0\n",
      "note_on channel=0 note=69 velocity=96 time=121\n",
      "note_on channel=0 note=72 velocity=96 time=0\n",
      "note_on channel=0 note=69 velocity=0 time=227\n",
      "note_on channel=0 note=72 velocity=0 time=0\n",
      "note_on channel=0 note=69 velocity=96 time=733\n",
      "note_on channel=0 note=72 velocity=96 time=0\n",
      "note_on channel=0 note=69 velocity=0 time=227\n",
      "note_on channel=0 note=72 velocity=0 time=0\n",
      "note_on channel=0 note=72 velocity=96 time=253\n",
      "note_on channel=0 note=78 velocity=96 time=0\n",
      "note_on channel=0 note=72 velocity=0 time=119\n",
      "note_on channel=0 note=78 velocity=0 time=0\n",
      "note_on channel=0 note=78 velocity=96 time=121\n",
      "note_on channel=0 note=81 velocity=96 time=0\n",
      "note_on channel=0 note=78 velocity=0 time=119\n",
      "note_on channel=0 note=81 velocity=0 time=0\n",
      "note_on channel=0 note=81 velocity=96 time=121\n",
      "note_on channel=0 note=84 velocity=96 time=0\n",
      "note_on channel=0 note=81 velocity=0 time=227\n",
      "note_on channel=0 note=84 velocity=0 time=0\n",
      "note_on channel=0 note=87 velocity=55 time=733\n",
      "note_on channel=0 note=87 velocity=0 time=151\n",
      "note_on channel=0 note=86 velocity=55 time=9\n",
      "note_on channel=0 note=86 velocity=0 time=151\n",
      "note_on channel=0 note=87 velocity=55 time=9\n",
      "note_on channel=0 note=87 velocity=0 time=151\n",
      "note_on channel=0 note=84 velocity=55 time=9\n",
      "note_on channel=0 note=84 velocity=0 time=151\n",
      "note_on channel=0 note=83 velocity=55 time=9\n",
      "note_on channel=0 note=83 velocity=0 time=151\n",
      "note_on channel=0 note=84 velocity=55 time=9\n",
      "note_on channel=0 note=84 velocity=0 time=151\n",
      "note_on channel=0 note=81 velocity=66 time=9\n",
      "note_on channel=0 note=75 velocity=55 time=0\n",
      "note_on channel=0 note=75 velocity=0 time=151\n",
      "note_on channel=0 note=74 velocity=55 time=9\n",
      "note_on channel=0 note=74 velocity=0 time=151\n",
      "note_on channel=0 note=75 velocity=55 time=9\n",
      "note_on channel=0 note=75 velocity=0 time=151\n",
      "note_on channel=0 note=81 velocity=0 time=8\n",
      "note_on channel=0 note=78 velocity=66 time=1\n",
      "note_on channel=0 note=74 velocity=55 time=0\n",
      "note_on channel=0 note=74 velocity=0 time=151\n",
      "note_on channel=0 note=71 velocity=55 time=9\n",
      "note_on channel=0 note=71 velocity=0 time=151\n",
      "note_on channel=0 note=72 velocity=55 time=9\n",
      "note_on channel=0 note=72 velocity=0 time=151\n",
      "note_on channel=0 note=78 velocity=0 time=8\n",
      "note_on channel=0 note=75 velocity=66 time=1\n",
      "note_on channel=0 note=69 velocity=55 time=0\n",
      "note_on channel=0 note=69 velocity=0 time=151\n",
      "note_on channel=0 note=68 velocity=55 time=9\n",
      "note_on channel=0 note=68 velocity=0 time=151\n",
      "note_on channel=0 note=69 velocity=55 time=9\n",
      "note_on channel=0 note=69 velocity=0 time=151\n",
      "note_on channel=0 note=75 velocity=0 time=8\n",
      "note_on channel=0 note=72 velocity=66 time=1\n",
      "note_on channel=0 note=66 velocity=55 time=0\n",
      "note_on channel=0 note=66 velocity=0 time=151\n",
      "note_on channel=0 note=65 velocity=55 time=9\n",
      "note_on channel=0 note=65 velocity=0 time=151\n",
      "note_on channel=0 note=66 velocity=55 time=9\n",
      "note_on channel=0 note=66 velocity=0 time=151\n",
      "note_on channel=0 note=72 velocity=0 time=8\n",
      "note_on channel=0 note=69 velocity=66 time=1\n",
      "note_on channel=0 note=63 velocity=55 time=0\n",
      "note_on channel=0 note=63 velocity=0 time=151\n",
      "note_on channel=0 note=62 velocity=55 time=9\n",
      "note_on channel=0 note=62 velocity=0 time=151\n",
      "note_on channel=0 note=63 velocity=55 time=9\n",
      "note_on channel=0 note=63 velocity=0 time=151\n",
      "note_on channel=0 note=69 velocity=0 time=8\n",
      "note_on channel=0 note=66 velocity=66 time=1\n",
      "note_on channel=0 note=60 velocity=55 time=0\n",
      "note_on channel=0 note=60 velocity=0 time=151\n",
      "note_on channel=0 note=59 velocity=55 time=9\n",
      "note_on channel=0 note=59 velocity=0 time=151\n",
      "note_on channel=0 note=60 velocity=55 time=9\n",
      "note_on channel=0 note=60 velocity=0 time=151\n",
      "note_on channel=0 note=66 velocity=0 time=8\n",
      "note_on channel=0 note=86 velocity=55 time=1\n",
      "note_on channel=0 note=86 velocity=0 time=151\n",
      "note_on channel=0 note=85 velocity=55 time=9\n",
      "note_on channel=0 note=85 velocity=0 time=151\n",
      "note_on channel=0 note=86 velocity=55 time=9\n",
      "note_on channel=0 note=86 velocity=0 time=151\n",
      "note_on channel=0 note=82 velocity=55 time=9\n",
      "note_on channel=0 note=82 velocity=0 time=151\n",
      "note_on channel=0 note=81 velocity=55 time=9\n",
      "note_on channel=0 note=81 velocity=0 time=151\n",
      "note_on channel=0 note=82 velocity=55 time=9\n",
      "note_on channel=0 note=82 velocity=0 time=151\n",
      "note_on channel=0 note=79 velocity=66 time=9\n",
      "note_on channel=0 note=74 velocity=55 time=0\n",
      "note_on channel=0 note=74 velocity=0 time=151\n",
      "note_on channel=0 note=73 velocity=55 time=9\n",
      "note_on channel=0 note=73 velocity=0 time=151\n",
      "note_on channel=0 note=74 velocity=55 time=9\n",
      "note_on channel=0 note=74 velocity=0 time=151\n",
      "note_on channel=0 note=79 velocity=0 time=8\n",
      "note_on channel=0 note=74 velocity=66 time=1\n",
      "note_on channel=0 note=70 velocity=55 time=0\n",
      "note_on channel=0 note=70 velocity=0 time=151\n",
      "note_on channel=0 note=69 velocity=55 time=9\n",
      "note_on channel=0 note=69 velocity=0 time=151\n",
      "note_on channel=0 note=70 velocity=55 time=9\n",
      "note_on channel=0 note=70 velocity=0 time=151\n",
      "note_on channel=0 note=74 velocity=0 time=8\n",
      "note_on channel=0 note=70 velocity=55 time=1\n",
      "note_on channel=0 note=67 velocity=55 time=0\n",
      "note_on channel=0 note=70 velocity=0 time=151\n",
      "note_on channel=0 note=69 velocity=55 time=9\n",
      "note_on channel=0 note=69 velocity=0 time=151\n",
      "note_on channel=0 note=70 velocity=55 time=9\n",
      "note_on channel=0 note=67 velocity=0 time=135\n",
      "note_on channel=0 note=70 velocity=0 time=16\n",
      "note_on channel=0 note=67 velocity=66 time=9\n",
      "note_on channel=0 note=62 velocity=55 time=0\n",
      "note_on channel=0 note=62 velocity=0 time=151\n",
      "note_on channel=0 note=61 velocity=55 time=9\n",
      "note_on channel=0 note=61 velocity=0 time=151\n",
      "note_on channel=0 note=62 velocity=55 time=9\n",
      "note_on channel=0 note=62 velocity=0 time=151\n",
      "note_on channel=0 note=67 velocity=0 time=8\n",
      "note_on channel=0 note=62 velocity=66 time=1\n",
      "note_on channel=0 note=58 velocity=55 time=0\n",
      "note_on channel=0 note=58 velocity=0 time=151\n",
      "note_on channel=0 note=57 velocity=55 time=9\n",
      "note_on channel=0 note=57 velocity=0 time=151\n",
      "note_on channel=0 note=58 velocity=55 time=9\n",
      "note_on channel=0 note=58 velocity=0 time=151\n",
      "note_on channel=0 note=62 velocity=0 time=8\n",
      "note_on channel=0 note=92 velocity=55 time=481\n",
      "note_on channel=0 note=92 velocity=0 time=151\n",
      "note_on channel=0 note=91 velocity=55 time=9\n",
      "note_on channel=0 note=91 velocity=0 time=151\n",
      "note_on channel=0 note=92 velocity=55 time=9\n",
      "note_on channel=0 note=92 velocity=0 time=151\n",
      "note_on channel=0 note=89 velocity=55 time=9\n",
      "note_on channel=0 note=89 velocity=0 time=151\n",
      "note_on channel=0 note=88 velocity=55 time=9\n",
      "note_on channel=0 note=88 velocity=0 time=151\n",
      "note_on channel=0 note=89 velocity=55 time=9\n",
      "note_on channel=0 note=89 velocity=0 time=151\n",
      "note_on channel=0 note=86 velocity=66 time=9\n",
      "note_on channel=0 note=80 velocity=55 time=0\n",
      "note_on channel=0 note=80 velocity=0 time=151\n",
      "note_on channel=0 note=79 velocity=55 time=9\n",
      "note_on channel=0 note=79 velocity=0 time=151\n",
      "note_on channel=0 note=80 velocity=55 time=9\n",
      "note_on channel=0 note=80 velocity=0 time=151\n",
      "note_on channel=0 note=86 velocity=0 time=8\n",
      "note_on channel=0 note=83 velocity=66 time=1\n",
      "note_on channel=0 note=77 velocity=55 time=0\n",
      "note_on channel=0 note=77 velocity=0 time=151\n",
      "note_on channel=0 note=76 velocity=55 time=9\n",
      "note_on channel=0 note=76 velocity=0 time=151\n",
      "note_on channel=0 note=77 velocity=55 time=9\n",
      "note_on channel=0 note=77 velocity=0 time=151\n",
      "note_on channel=0 note=83 velocity=0 time=8\n",
      "note_on channel=0 note=80 velocity=66 time=1\n",
      "note_on channel=0 note=74 velocity=55 time=0\n",
      "note_on channel=0 note=74 velocity=0 time=151\n",
      "note_on channel=0 note=73 velocity=55 time=9\n",
      "note_on channel=0 note=73 velocity=0 time=151\n",
      "note_on channel=0 note=74 velocity=55 time=9\n",
      "note_on channel=0 note=74 velocity=0 time=151\n",
      "note_on channel=0 note=80 velocity=0 time=8\n",
      "note_on channel=0 note=77 velocity=66 time=1\n",
      "note_on channel=0 note=71 velocity=55 time=0\n",
      "note_on channel=0 note=71 velocity=0 time=151\n",
      "note_on channel=0 note=70 velocity=55 time=9\n",
      "note_on channel=0 note=70 velocity=0 time=151\n",
      "note_on channel=0 note=71 velocity=55 time=9\n",
      "note_on channel=0 note=71 velocity=0 time=151\n",
      "note_on channel=0 note=77 velocity=0 time=8\n",
      "note_on channel=0 note=74 velocity=66 time=1\n",
      "note_on channel=0 note=68 velocity=55 time=0\n",
      "note_on channel=0 note=68 velocity=0 time=151\n",
      "note_on channel=0 note=67 velocity=55 time=9\n",
      "note_on channel=0 note=67 velocity=0 time=151\n",
      "note_on channel=0 note=68 velocity=55 time=9\n",
      "note_on channel=0 note=68 velocity=0 time=151\n",
      "note_on channel=0 note=74 velocity=0 time=8\n",
      "note_on channel=0 note=71 velocity=66 time=1\n",
      "note_on channel=0 note=65 velocity=55 time=0\n",
      "note_on channel=0 note=65 velocity=0 time=151\n",
      "note_on channel=0 note=64 velocity=55 time=9\n",
      "note_on channel=0 note=64 velocity=0 time=151\n",
      "note_on channel=0 note=65 velocity=55 time=9\n",
      "note_on channel=0 note=65 velocity=0 time=151\n",
      "note_on channel=0 note=71 velocity=0 time=8\n",
      "note_on channel=0 note=91 velocity=55 time=1\n",
      "note_on channel=0 note=91 velocity=0 time=151\n",
      "note_on channel=0 note=90 velocity=55 time=9\n",
      "note_on channel=0 note=90 velocity=0 time=151\n",
      "note_on channel=0 note=91 velocity=55 time=9\n",
      "note_on channel=0 note=91 velocity=0 time=151\n",
      "note_on channel=0 note=87 velocity=55 time=9\n",
      "note_on channel=0 note=87 velocity=0 time=151\n",
      "note_on channel=0 note=86 velocity=55 time=9\n",
      "note_on channel=0 note=86 velocity=0 time=151\n",
      "note_on channel=0 note=87 velocity=55 time=9\n",
      "note_on channel=0 note=87 velocity=0 time=151\n",
      "note_on channel=0 note=84 velocity=66 time=9\n",
      "note_on channel=0 note=79 velocity=55 time=0\n",
      "note_on channel=0 note=79 velocity=0 time=151\n",
      "note_on channel=0 note=78 velocity=55 time=9\n",
      "note_on channel=0 note=78 velocity=0 time=151\n",
      "note_on channel=0 note=79 velocity=55 time=9\n",
      "note_on channel=0 note=79 velocity=0 time=151\n",
      "note_on channel=0 note=84 velocity=0 time=8\n",
      "note_on channel=0 note=79 velocity=66 time=1\n",
      "note_on channel=0 note=75 velocity=55 time=0\n",
      "note_on channel=0 note=75 velocity=0 time=151\n",
      "note_on channel=0 note=74 velocity=55 time=9\n",
      "note_on channel=0 note=74 velocity=0 time=151\n",
      "note_on channel=0 note=75 velocity=55 time=9\n",
      "note_on channel=0 note=75 velocity=0 time=151\n",
      "note_on channel=0 note=79 velocity=0 time=8\n",
      "note_on channel=0 note=75 velocity=55 time=1\n",
      "note_on channel=0 note=72 velocity=55 time=0\n",
      "note_on channel=0 note=75 velocity=0 time=151\n",
      "note_on channel=0 note=72 velocity=0 time=0\n",
      "note_on channel=0 note=74 velocity=55 time=9\n",
      "note_on channel=0 note=71 velocity=55 time=0\n",
      "note_on channel=0 note=74 velocity=0 time=151\n",
      "note_on channel=0 note=71 velocity=0 time=0\n",
      "note_on channel=0 note=75 velocity=55 time=9\n",
      "note_on channel=0 note=72 velocity=55 time=0\n",
      "note_on channel=0 note=75 velocity=0 time=151\n",
      "note_on channel=0 note=72 velocity=0 time=0\n",
      "note_on channel=0 note=72 velocity=66 time=9\n",
      "note_on channel=0 note=67 velocity=55 time=0\n",
      "note_on channel=0 note=67 velocity=0 time=151\n",
      "note_on channel=0 note=65 velocity=55 time=9\n",
      "note_on channel=0 note=65 velocity=0 time=151\n",
      "note_on channel=0 note=67 velocity=55 time=9\n",
      "note_on channel=0 note=67 velocity=0 time=151\n",
      "note_on channel=0 note=72 velocity=0 time=8\n",
      "note_on channel=0 note=67 velocity=66 time=1\n",
      "note_on channel=0 note=63 velocity=55 time=0\n",
      "note_on channel=0 note=63 velocity=0 time=151\n",
      "note_on channel=0 note=62 velocity=55 time=9\n",
      "note_on channel=0 note=62 velocity=0 time=151\n",
      "note_on channel=0 note=63 velocity=55 time=9\n",
      "note_on channel=0 note=63 velocity=0 time=151\n",
      "note_on channel=0 note=67 velocity=0 time=8\n",
      "note_on channel=0 note=60 velocity=55 time=1\n",
      "note_on channel=0 note=63 velocity=55 time=0\n",
      "note_on channel=0 note=60 velocity=0 time=151\n",
      "note_on channel=0 note=63 velocity=0 time=0\n",
      "note_on channel=0 note=59 velocity=55 time=9\n",
      "note_on channel=0 note=62 velocity=55 time=0\n",
      "note_on channel=0 note=59 velocity=0 time=151\n",
      "note_on channel=0 note=62 velocity=0 time=0\n",
      "note_on channel=0 note=60 velocity=55 time=9\n",
      "note_on channel=0 note=63 velocity=55 time=0\n",
      "note_on channel=0 note=60 velocity=0 time=151\n",
      "note_on channel=0 note=63 velocity=0 time=0\n",
      "note_on channel=0 note=91 velocity=55 time=9\n",
      "note_on channel=0 note=91 velocity=0 time=151\n",
      "note_on channel=0 note=90 velocity=55 time=9\n",
      "note_on channel=0 note=90 velocity=0 time=151\n",
      "note_on channel=0 note=91 velocity=55 time=9\n",
      "note_on channel=0 note=91 velocity=0 time=151\n",
      "note_on channel=0 note=88 velocity=55 time=9\n",
      "note_on channel=0 note=88 velocity=0 time=151\n",
      "note_on channel=0 note=87 velocity=55 time=9\n",
      "note_on channel=0 note=87 velocity=0 time=151\n",
      "note_on channel=0 note=88 velocity=55 time=9\n",
      "note_on channel=0 note=88 velocity=0 time=151\n",
      "note_on channel=0 note=85 velocity=66 time=9\n",
      "note_on channel=0 note=79 velocity=55 time=0\n",
      "note_on channel=0 note=79 velocity=0 time=151\n",
      "note_on channel=0 note=78 velocity=55 time=9\n",
      "note_on channel=0 note=78 velocity=0 time=151\n",
      "note_on channel=0 note=79 velocity=55 time=9\n",
      "note_on channel=0 note=79 velocity=0 time=151\n",
      "note_on channel=0 note=85 velocity=0 time=8\n",
      "note_on channel=0 note=79 velocity=66 time=1\n",
      "note_on channel=0 note=76 velocity=55 time=0\n",
      "note_on channel=0 note=76 velocity=0 time=151\n",
      "note_on channel=0 note=75 velocity=55 time=9\n",
      "note_on channel=0 note=75 velocity=0 time=151\n",
      "note_on channel=0 note=76 velocity=55 time=9\n",
      "note_on channel=0 note=76 velocity=0 time=151\n",
      "note_on channel=0 note=79 velocity=0 time=8\n",
      "note_on channel=0 note=76 velocity=55 time=1\n",
      "note_on channel=0 note=73 velocity=55 time=0\n",
      "note_on channel=0 note=76 velocity=0 time=151\n",
      "note_on channel=0 note=73 velocity=0 time=0\n",
      "note_on channel=0 note=75 velocity=55 time=9\n",
      "note_on channel=0 note=72 velocity=55 time=0\n",
      "note_on channel=0 note=75 velocity=0 time=151\n",
      "note_on channel=0 note=72 velocity=0 time=0\n",
      "note_on channel=0 note=76 velocity=55 time=9\n",
      "note_on channel=0 note=73 velocity=55 time=0\n",
      "note_on channel=0 note=76 velocity=0 time=151\n",
      "note_on channel=0 note=73 velocity=0 time=0\n",
      "note_on channel=0 note=73 velocity=66 time=9\n",
      "note_on channel=0 note=67 velocity=55 time=0\n",
      "note_on channel=0 note=67 velocity=0 time=151\n",
      "note_on channel=0 note=66 velocity=55 time=9\n",
      "note_on channel=0 note=66 velocity=0 time=151\n",
      "note_on channel=0 note=67 velocity=55 time=9\n",
      "note_on channel=0 note=67 velocity=0 time=151\n",
      "note_on channel=0 note=73 velocity=0 time=8\n",
      "note_on channel=0 note=67 velocity=66 time=1\n",
      "note_on channel=0 note=64 velocity=55 time=0\n",
      "note_on channel=0 note=64 velocity=0 time=151\n",
      "note_on channel=0 note=63 velocity=55 time=9\n",
      "note_on channel=0 note=63 velocity=0 time=151\n",
      "note_on channel=0 note=64 velocity=55 time=9\n",
      "note_on channel=0 note=64 velocity=0 time=151\n",
      "note_on channel=0 note=67 velocity=0 time=8\n",
      "note_on channel=0 note=61 velocity=55 time=1\n",
      "note_on channel=0 note=64 velocity=55 time=0\n",
      "note_on channel=0 note=61 velocity=0 time=151\n",
      "note_on channel=0 note=64 velocity=0 time=0\n",
      "note_on channel=0 note=60 velocity=55 time=9\n",
      "note_on channel=0 note=63 velocity=55 time=0\n",
      "note_on channel=0 note=60 velocity=0 time=151\n",
      "note_on channel=0 note=63 velocity=0 time=0\n",
      "note_on channel=0 note=61 velocity=55 time=9\n",
      "note_on channel=0 note=64 velocity=55 time=0\n",
      "note_on channel=0 note=61 velocity=0 time=151\n",
      "note_on channel=0 note=64 velocity=0 time=0\n",
      "note_on channel=0 note=62 velocity=90 time=129\n",
      "note_on channel=0 note=66 velocity=90 time=0\n",
      "note_on channel=0 note=74 velocity=90 time=0\n",
      "note_on channel=0 note=62 velocity=0 time=113\n",
      "note_on channel=0 note=66 velocity=0 time=0\n",
      "note_on channel=0 note=74 velocity=0 time=0\n",
      "note_on channel=0 note=62 velocity=90 time=127\n",
      "note_on channel=0 note=67 velocity=90 time=0\n",
      "note_on channel=0 note=73 velocity=90 time=0\n",
      "note_on channel=0 note=62 velocity=0 time=113\n",
      "note_on channel=0 note=67 velocity=0 time=0\n",
      "note_on channel=0 note=73 velocity=0 time=0\n",
      "note_on channel=0 note=62 velocity=90 time=127\n",
      "note_on channel=0 note=66 velocity=90 time=0\n",
      "note_on channel=0 note=74 velocity=90 time=0\n",
      "note_on channel=0 note=62 velocity=0 time=113\n",
      "note_on channel=0 note=66 velocity=0 time=0\n",
      "note_on channel=0 note=74 velocity=0 time=0\n",
      "note_on channel=0 note=62 velocity=90 time=127\n",
      "note_on channel=0 note=67 velocity=90 time=0\n",
      "note_on channel=0 note=73 velocity=90 time=0\n",
      "note_on channel=0 note=62 velocity=0 time=113\n",
      "note_on channel=0 note=67 velocity=0 time=0\n",
      "note_on channel=0 note=73 velocity=0 time=0\n",
      "note_on channel=0 note=62 velocity=90 time=127\n",
      "note_on channel=0 note=66 velocity=90 time=0\n",
      "note_on channel=0 note=74 velocity=90 time=0\n",
      "note_on channel=0 note=62 velocity=0 time=113\n",
      "note_on channel=0 note=66 velocity=0 time=0\n",
      "note_on channel=0 note=74 velocity=0 time=0\n",
      "note_on channel=0 note=62 velocity=90 time=127\n",
      "note_on channel=0 note=67 velocity=90 time=0\n",
      "note_on channel=0 note=73 velocity=90 time=0\n",
      "note_on channel=0 note=62 velocity=0 time=113\n",
      "note_on channel=0 note=67 velocity=0 time=0\n",
      "note_on channel=0 note=73 velocity=0 time=0\n",
      "note_on channel=0 note=62 velocity=90 time=127\n",
      "note_on channel=0 note=66 velocity=90 time=0\n",
      "note_on channel=0 note=74 velocity=90 time=0\n",
      "note_on channel=0 note=62 velocity=0 time=113\n",
      "note_on channel=0 note=66 velocity=0 time=0\n",
      "note_on channel=0 note=74 velocity=0 time=0\n",
      "note_on channel=0 note=62 velocity=90 time=127\n",
      "note_on channel=0 note=67 velocity=90 time=0\n",
      "note_on channel=0 note=73 velocity=90 time=0\n",
      "note_on channel=0 note=62 velocity=0 time=113\n",
      "note_on channel=0 note=67 velocity=0 time=0\n",
      "note_on channel=0 note=73 velocity=0 time=0\n",
      "note_on channel=0 note=62 velocity=90 time=127\n",
      "note_on channel=0 note=66 velocity=90 time=0\n",
      "note_on channel=0 note=74 velocity=90 time=0\n",
      "note_on channel=0 note=62 velocity=0 time=113\n",
      "note_on channel=0 note=66 velocity=0 time=0\n",
      "note_on channel=0 note=74 velocity=0 time=0\n",
      "note_on channel=0 note=66 velocity=90 time=127\n",
      "note_on channel=0 note=74 velocity=90 time=0\n",
      "note_on channel=0 note=66 velocity=0 time=113\n",
      "note_on channel=0 note=74 velocity=0 time=0\n",
      "note_on channel=0 note=67 velocity=90 time=127\n",
      "note_on channel=0 note=73 velocity=90 time=0\n",
      "note_on channel=0 note=74 velocity=90 time=0\n",
      "note_on channel=0 note=67 velocity=0 time=113\n",
      "note_on channel=0 note=73 velocity=0 time=0\n",
      "note_on channel=0 note=74 velocity=0 time=0\n",
      "note_on channel=0 note=67 velocity=90 time=127\n",
      "note_on channel=0 note=72 velocity=90 time=0\n",
      "note_on channel=0 note=74 velocity=90 time=0\n",
      "note_on channel=0 note=67 velocity=0 time=113\n",
      "note_on channel=0 note=72 velocity=0 time=0\n",
      "note_on channel=0 note=74 velocity=0 time=0\n",
      "note_on channel=0 note=69 velocity=90 time=127\n",
      "note_on channel=0 note=72 velocity=90 time=0\n",
      "note_on channel=0 note=74 velocity=90 time=0\n",
      "note_on channel=0 note=69 velocity=0 time=113\n",
      "note_on channel=0 note=72 velocity=0 time=0\n",
      "note_on channel=0 note=74 velocity=0 time=0\n",
      "note_on channel=0 note=69 velocity=90 time=127\n",
      "note_on channel=0 note=72 velocity=90 time=0\n",
      "note_on channel=0 note=74 velocity=90 time=0\n",
      "note_on channel=0 note=69 velocity=0 time=113\n",
      "note_on channel=0 note=72 velocity=0 time=0\n",
      "note_on channel=0 note=74 velocity=0 time=0\n",
      "note_on channel=0 note=67 velocity=90 time=127\n",
      "note_on channel=0 note=70 velocity=90 time=0\n",
      "note_on channel=0 note=74 velocity=90 time=0\n",
      "note_on channel=0 note=67 velocity=0 time=113\n",
      "note_on channel=0 note=70 velocity=0 time=0\n",
      "note_on channel=0 note=74 velocity=0 time=0\n",
      "note_on channel=0 note=67 velocity=90 time=127\n",
      "note_on channel=0 note=70 velocity=90 time=0\n",
      "note_on channel=0 note=76 velocity=90 time=0\n",
      "note_on channel=0 note=67 velocity=0 time=113\n",
      "note_on channel=0 note=70 velocity=0 time=0\n",
      "note_on channel=0 note=76 velocity=0 time=0\n",
      "note_on channel=0 note=62 velocity=90 time=127\n",
      "note_on channel=0 note=66 velocity=90 time=0\n",
      "note_on channel=0 note=74 velocity=90 time=0\n",
      "note_on channel=0 note=62 velocity=0 time=113\n",
      "note_on channel=0 note=66 velocity=0 time=0\n",
      "note_on channel=0 note=74 velocity=0 time=0\n",
      "note_on channel=0 note=62 velocity=90 time=127\n",
      "note_on channel=0 note=67 velocity=90 time=0\n",
      "note_on channel=0 note=73 velocity=90 time=0\n",
      "note_on channel=0 note=62 velocity=0 time=113\n",
      "note_on channel=0 note=67 velocity=0 time=0\n",
      "note_on channel=0 note=73 velocity=0 time=0\n",
      "note_on channel=0 note=62 velocity=90 time=127\n",
      "note_on channel=0 note=66 velocity=90 time=0\n",
      "note_on channel=0 note=74 velocity=90 time=0\n",
      "note_on channel=0 note=62 velocity=0 time=113\n",
      "note_on channel=0 note=66 velocity=0 time=0\n",
      "note_on channel=0 note=74 velocity=0 time=0\n",
      "note_on channel=0 note=62 velocity=90 time=127\n",
      "note_on channel=0 note=67 velocity=90 time=0\n",
      "note_on channel=0 note=73 velocity=90 time=0\n",
      "note_on channel=0 note=62 velocity=0 time=113\n",
      "note_on channel=0 note=67 velocity=0 time=0\n",
      "note_on channel=0 note=73 velocity=0 time=0\n",
      "note_on channel=0 note=62 velocity=90 time=127\n",
      "note_on channel=0 note=66 velocity=90 time=0\n",
      "note_on channel=0 note=74 velocity=90 time=0\n",
      "note_on channel=0 note=62 velocity=0 time=113\n",
      "note_on channel=0 note=66 velocity=0 time=0\n",
      "note_on channel=0 note=74 velocity=0 time=0\n",
      "note_on channel=0 note=62 velocity=90 time=127\n",
      "note_on channel=0 note=67 velocity=90 time=0\n",
      "note_on channel=0 note=73 velocity=90 time=0\n",
      "note_on channel=0 note=62 velocity=0 time=113\n",
      "note_on channel=0 note=67 velocity=0 time=0\n",
      "note_on channel=0 note=73 velocity=0 time=0\n",
      "note_on channel=0 note=62 velocity=90 time=127\n",
      "note_on channel=0 note=66 velocity=90 time=0\n",
      "note_on channel=0 note=74 velocity=90 time=0\n",
      "note_on channel=0 note=62 velocity=0 time=113\n",
      "note_on channel=0 note=66 velocity=0 time=0\n",
      "note_on channel=0 note=74 velocity=0 time=0\n",
      "note_on channel=0 note=62 velocity=90 time=127\n",
      "note_on channel=0 note=67 velocity=90 time=0\n",
      "note_on channel=0 note=73 velocity=90 time=0\n",
      "note_on channel=0 note=62 velocity=0 time=113\n",
      "note_on channel=0 note=67 velocity=0 time=0\n",
      "note_on channel=0 note=73 velocity=0 time=0\n",
      "note_on channel=0 note=62 velocity=90 time=127\n",
      "note_on channel=0 note=66 velocity=90 time=0\n",
      "note_on channel=0 note=74 velocity=90 time=0\n",
      "note_on channel=0 note=62 velocity=0 time=113\n",
      "note_on channel=0 note=66 velocity=0 time=0\n",
      "note_on channel=0 note=74 velocity=0 time=0\n",
      "note_on channel=0 note=66 velocity=90 time=127\n",
      "note_on channel=0 note=74 velocity=90 time=0\n",
      "note_on channel=0 note=66 velocity=0 time=113\n",
      "note_on channel=0 note=74 velocity=0 time=0\n",
      "note_on channel=0 note=67 velocity=90 time=127\n",
      "note_on channel=0 note=73 velocity=90 time=0\n",
      "note_on channel=0 note=74 velocity=90 time=0\n",
      "note_on channel=0 note=67 velocity=0 time=113\n",
      "note_on channel=0 note=73 velocity=0 time=0\n",
      "note_on channel=0 note=74 velocity=0 time=0\n",
      "note_on channel=0 note=67 velocity=90 time=127\n",
      "note_on channel=0 note=72 velocity=90 time=0\n",
      "note_on channel=0 note=74 velocity=90 time=0\n",
      "note_on channel=0 note=67 velocity=0 time=113\n",
      "note_on channel=0 note=72 velocity=0 time=0\n",
      "note_on channel=0 note=74 velocity=0 time=0\n",
      "note_on channel=0 note=69 velocity=90 time=127\n",
      "note_on channel=0 note=72 velocity=90 time=0\n",
      "note_on channel=0 note=74 velocity=90 time=0\n",
      "note_on channel=0 note=69 velocity=0 time=113\n",
      "note_on channel=0 note=72 velocity=0 time=0\n",
      "note_on channel=0 note=74 velocity=0 time=0\n",
      "note_on channel=0 note=69 velocity=90 time=127\n",
      "note_on channel=0 note=72 velocity=90 time=0\n",
      "note_on channel=0 note=74 velocity=90 time=0\n",
      "note_on channel=0 note=69 velocity=0 time=113\n",
      "note_on channel=0 note=72 velocity=0 time=0\n",
      "note_on channel=0 note=74 velocity=0 time=0\n",
      "note_on channel=0 note=67 velocity=90 time=127\n",
      "note_on channel=0 note=70 velocity=90 time=0\n",
      "note_on channel=0 note=74 velocity=90 time=0\n",
      "note_on channel=0 note=67 velocity=0 time=113\n",
      "note_on channel=0 note=70 velocity=0 time=0\n",
      "note_on channel=0 note=74 velocity=0 time=0\n",
      "note_on channel=0 note=67 velocity=90 time=127\n",
      "note_on channel=0 note=70 velocity=90 time=0\n",
      "note_on channel=0 note=76 velocity=90 time=0\n",
      "note_on channel=0 note=67 velocity=0 time=113\n",
      "note_on channel=0 note=70 velocity=0 time=0\n",
      "note_on channel=0 note=76 velocity=0 time=0\n",
      "note_on channel=0 note=66 velocity=90 time=7\n",
      "note_on channel=0 note=74 velocity=90 time=0\n",
      "note_on channel=0 note=66 velocity=0 time=227\n",
      "note_on channel=0 note=74 velocity=0 time=0\n",
      "note_on channel=0 note=71 velocity=90 time=13\n",
      "note_on channel=0 note=71 velocity=0 time=113\n",
      "note_on channel=0 note=67 velocity=90 time=7\n",
      "note_on channel=0 note=67 velocity=0 time=113\n",
      "note_on channel=0 note=69 velocity=90 time=7\n",
      "note_on channel=0 note=69 velocity=0 time=113\n",
      "note_on channel=0 note=66 velocity=90 time=7\n",
      "note_on channel=0 note=66 velocity=0 time=113\n",
      "note_on channel=0 note=71 velocity=90 time=7\n",
      "note_on channel=0 note=71 velocity=0 time=113\n",
      "note_on channel=0 note=67 velocity=90 time=7\n",
      "note_on channel=0 note=67 velocity=0 time=113\n",
      "note_on channel=0 note=69 velocity=90 time=7\n",
      "note_on channel=0 note=69 velocity=0 time=113\n",
      "note_on channel=0 note=66 velocity=90 time=7\n",
      "note_on channel=0 note=66 velocity=0 time=113\n",
      "note_on channel=0 note=71 velocity=90 time=7\n",
      "note_on channel=0 note=71 velocity=0 time=113\n",
      "note_on channel=0 note=67 velocity=90 time=7\n",
      "note_on channel=0 note=67 velocity=0 time=113\n",
      "note_on channel=0 note=69 velocity=90 time=7\n",
      "note_on channel=0 note=69 velocity=0 time=113\n",
      "note_on channel=0 note=66 velocity=90 time=7\n",
      "note_on channel=0 note=66 velocity=0 time=113\n",
      "note_on channel=0 note=72 velocity=106 time=7\n",
      "note_on channel=0 note=72 velocity=0 time=113\n",
      "note_on channel=0 note=69 velocity=90 time=7\n",
      "note_on channel=0 note=69 velocity=0 time=113\n",
      "note_on channel=0 note=71 velocity=90 time=7\n",
      "note_on channel=0 note=71 velocity=0 time=113\n",
      "note_on channel=0 note=68 velocity=90 time=7\n",
      "note_on channel=0 note=68 velocity=0 time=113\n",
      "note_on channel=0 note=72 velocity=90 time=7\n",
      "note_on channel=0 note=72 velocity=0 time=113\n",
      "note_on channel=0 note=69 velocity=90 time=7\n",
      "note_on channel=0 note=69 velocity=0 time=113\n",
      "note_on channel=0 note=71 velocity=90 time=7\n",
      "note_on channel=0 note=71 velocity=0 time=113\n",
      "note_on channel=0 note=68 velocity=90 time=7\n",
      "note_on channel=0 note=68 velocity=0 time=113\n",
      "note_on channel=0 note=74 velocity=106 time=7\n",
      "note_on channel=0 note=74 velocity=0 time=113\n",
      "note_on channel=0 note=71 velocity=90 time=7\n",
      "note_on channel=0 note=71 velocity=0 time=113\n",
      "note_on channel=0 note=73 velocity=90 time=7\n",
      "note_on channel=0 note=73 velocity=0 time=113\n",
      "note_on channel=0 note=70 velocity=90 time=7\n",
      "note_on channel=0 note=70 velocity=0 time=113\n",
      "note_on channel=0 note=75 velocity=106 time=7\n",
      "note_on channel=0 note=75 velocity=0 time=113\n",
      "note_on channel=0 note=72 velocity=90 time=7\n",
      "note_on channel=0 note=72 velocity=0 time=113\n",
      "note_on channel=0 note=74 velocity=90 time=7\n",
      "note_on channel=0 note=74 velocity=0 time=113\n",
      "note_on channel=0 note=71 velocity=90 time=7\n",
      "note_on channel=0 note=71 velocity=0 time=113\n",
      "note_on channel=0 note=77 velocity=106 time=7\n",
      "note_on channel=0 note=77 velocity=0 time=113\n",
      "note_on channel=0 note=74 velocity=90 time=7\n",
      "note_on channel=0 note=74 velocity=0 time=113\n",
      "note_on channel=0 note=76 velocity=90 time=7\n",
      "note_on channel=0 note=76 velocity=0 time=113\n",
      "note_on channel=0 note=73 velocity=106 time=7\n",
      "note_on channel=0 note=73 velocity=0 time=113\n",
      "note_on channel=0 note=79 velocity=90 time=7\n",
      "note_on channel=0 note=79 velocity=0 time=113\n",
      "note_on channel=0 note=76 velocity=90 time=7\n",
      "note_on channel=0 note=76 velocity=0 time=113\n",
      "note_on channel=0 note=78 velocity=90 time=7\n",
      "note_on channel=0 note=78 velocity=0 time=113\n",
      "note_on channel=0 note=75 velocity=90 time=7\n",
      "note_on channel=0 note=75 velocity=0 time=113\n",
      "note_on channel=0 note=80 velocity=106 time=7\n",
      "note_on channel=0 note=80 velocity=0 time=113\n",
      "note_on channel=0 note=77 velocity=90 time=7\n",
      "note_on channel=0 note=77 velocity=0 time=113\n",
      "note_on channel=0 note=79 velocity=90 time=7\n",
      "note_on channel=0 note=79 velocity=0 time=113\n",
      "note_on channel=0 note=76 velocity=90 time=7\n",
      "note_on channel=0 note=76 velocity=0 time=113\n",
      "note_on channel=0 note=82 velocity=90 time=7\n",
      "note_on channel=0 note=82 velocity=0 time=113\n",
      "note_on channel=0 note=79 velocity=90 time=7\n",
      "note_on channel=0 note=79 velocity=0 time=113\n",
      "note_on channel=0 note=81 velocity=90 time=7\n",
      "note_on channel=0 note=81 velocity=0 time=113\n",
      "note_on channel=0 note=78 velocity=90 time=7\n",
      "note_on channel=0 note=78 velocity=0 time=113\n",
      "note_on channel=0 note=82 velocity=90 time=7\n",
      "note_on channel=0 note=82 velocity=0 time=113\n",
      "note_on channel=0 note=79 velocity=90 time=7\n",
      "note_on channel=0 note=79 velocity=0 time=113\n",
      "MetaMessage('set_tempo', tempo=500000, time=7)\n",
      "note_on channel=0 note=81 velocity=90 time=0\n",
      "note_on channel=0 note=81 velocity=0 time=113\n",
      "note_on channel=0 note=78 velocity=85 time=7\n",
      "note_on channel=0 note=78 velocity=0 time=113\n",
      "note_on channel=0 note=91 velocity=80 time=7\n",
      "note_on channel=0 note=91 velocity=0 time=113\n",
      "note_on channel=0 note=82 velocity=75 time=7\n",
      "note_on channel=0 note=82 velocity=0 time=113\n",
      "note_on channel=0 note=90 velocity=70 time=7\n",
      "note_on channel=0 note=90 velocity=0 time=113\n",
      "note_on channel=0 note=81 velocity=65 time=7\n",
      "note_on channel=0 note=81 velocity=0 time=113\n",
      "note_on channel=0 note=91 velocity=60 time=7\n",
      "note_on channel=0 note=91 velocity=0 time=113\n",
      "note_on channel=0 note=82 velocity=55 time=7\n",
      "note_on channel=0 note=82 velocity=0 time=113\n",
      "MetaMessage('set_tempo', tempo=416667, time=7)\n",
      "note_on channel=0 note=81 velocity=49 time=0\n",
      "note_on channel=0 note=90 velocity=49 time=0\n",
      "note_on channel=0 note=81 velocity=0 time=151\n",
      "note_on channel=0 note=90 velocity=0 time=0\n",
      "note_on channel=0 note=79 velocity=49 time=9\n",
      "note_on channel=0 note=79 velocity=0 time=151\n",
      "note_on channel=0 note=78 velocity=49 time=9\n",
      "note_on channel=0 note=78 velocity=0 time=151\n",
      "note_on channel=0 note=76 velocity=49 time=9\n",
      "note_on channel=0 note=76 velocity=0 time=151\n",
      "note_on channel=0 note=78 velocity=49 time=9\n",
      "note_on channel=0 note=78 velocity=0 time=151\n",
      "note_on channel=0 note=74 velocity=49 time=9\n",
      "note_on channel=0 note=74 velocity=0 time=151\n",
      "note_on channel=0 note=73 velocity=49 time=9\n",
      "note_on channel=0 note=73 velocity=0 time=151\n",
      "note_on channel=0 note=74 velocity=49 time=9\n",
      "note_on channel=0 note=74 velocity=0 time=151\n",
      "note_on channel=0 note=76 velocity=49 time=9\n",
      "note_on channel=0 note=76 velocity=0 time=151\n",
      "note_on channel=0 note=78 velocity=49 time=9\n",
      "note_on channel=0 note=78 velocity=0 time=151\n",
      "note_on channel=0 note=79 velocity=49 time=9\n",
      "note_on channel=0 note=79 velocity=0 time=151\n",
      "note_on channel=0 note=76 velocity=49 time=9\n",
      "note_on channel=0 note=76 velocity=0 time=151\n",
      "note_on channel=0 note=81 velocity=49 time=9\n",
      "note_on channel=0 note=81 velocity=0 time=151\n",
      "note_on channel=0 note=79 velocity=49 time=9\n",
      "note_on channel=0 note=79 velocity=0 time=151\n",
      "note_on channel=0 note=78 velocity=49 time=9\n",
      "note_on channel=0 note=78 velocity=0 time=151\n",
      "note_on channel=0 note=76 velocity=49 time=9\n",
      "note_on channel=0 note=76 velocity=0 time=151\n",
      "note_on channel=0 note=78 velocity=49 time=9\n",
      "note_on channel=0 note=78 velocity=0 time=151\n",
      "note_on channel=0 note=74 velocity=49 time=9\n",
      "note_on channel=0 note=74 velocity=0 time=151\n",
      "note_on channel=0 note=73 velocity=49 time=9\n",
      "note_on channel=0 note=73 velocity=0 time=151\n",
      "note_on channel=0 note=74 velocity=49 time=9\n",
      "note_on channel=0 note=74 velocity=0 time=151\n",
      "note_on channel=0 note=76 velocity=49 time=9\n",
      "note_on channel=0 note=76 velocity=0 time=151\n",
      "note_on channel=0 note=78 velocity=49 time=9\n",
      "note_on channel=0 note=78 velocity=0 time=151\n",
      "note_on channel=0 note=79 velocity=49 time=9\n",
      "note_on channel=0 note=79 velocity=0 time=151\n",
      "note_on channel=0 note=78 velocity=49 time=9\n",
      "note_on channel=0 note=78 velocity=0 time=151\n",
      "note_on channel=0 note=78 velocity=49 time=9\n",
      "note_on channel=0 note=78 velocity=0 time=151\n",
      "note_on channel=0 note=79 velocity=50 time=9\n",
      "note_on channel=0 note=79 velocity=0 time=151\n",
      "note_on channel=0 note=76 velocity=51 time=9\n",
      "note_on channel=0 note=76 velocity=0 time=151\n",
      "note_on channel=0 note=79 velocity=52 time=9\n",
      "note_on channel=0 note=79 velocity=0 time=151\n",
      "note_on channel=0 note=81 velocity=53 time=9\n",
      "note_on channel=0 note=81 velocity=0 time=151\n",
      "note_on channel=0 note=78 velocity=54 time=9\n",
      "note_on channel=0 note=78 velocity=0 time=151\n",
      "note_on channel=0 note=79 velocity=55 time=9\n",
      "note_on channel=0 note=79 velocity=0 time=151\n",
      "note_on channel=0 note=81 velocity=56 time=9\n",
      "note_on channel=0 note=81 velocity=0 time=151\n",
      "note_on channel=0 note=78 velocity=57 time=9\n",
      "note_on channel=0 note=78 velocity=0 time=151\n",
      "note_on channel=0 note=81 velocity=58 time=9\n",
      "note_on channel=0 note=81 velocity=0 time=151\n",
      "note_on channel=0 note=83 velocity=59 time=9\n",
      "note_on channel=0 note=83 velocity=0 time=151\n",
      "note_on channel=0 note=79 velocity=60 time=9\n",
      "note_on channel=0 note=79 velocity=0 time=151\n",
      "note_on channel=0 note=81 velocity=61 time=9\n",
      "note_on channel=0 note=81 velocity=0 time=151\n",
      "note_on channel=0 note=83 velocity=62 time=9\n",
      "note_on channel=0 note=83 velocity=0 time=151\n",
      "note_on channel=0 note=79 velocity=63 time=9\n",
      "note_on channel=0 note=79 velocity=0 time=151\n",
      "note_on channel=0 note=83 velocity=64 time=9\n",
      "note_on channel=0 note=83 velocity=0 time=151\n",
      "note_on channel=0 note=84 velocity=65 time=9\n",
      "note_on channel=0 note=84 velocity=0 time=151\n",
      "note_on channel=0 note=81 velocity=66 time=9\n",
      "note_on channel=0 note=81 velocity=0 time=151\n",
      "note_on channel=0 note=83 velocity=67 time=9\n",
      "note_on channel=0 note=83 velocity=0 time=151\n",
      "note_on channel=0 note=84 velocity=68 time=9\n",
      "note_on channel=0 note=84 velocity=0 time=151\n",
      "note_on channel=0 note=81 velocity=69 time=9\n",
      "note_on channel=0 note=81 velocity=0 time=151\n",
      "note_on channel=0 note=83 velocity=70 time=9\n",
      "note_on channel=0 note=83 velocity=0 time=151\n",
      "note_on channel=0 note=84 velocity=71 time=9\n",
      "note_on channel=0 note=84 velocity=0 time=151\n",
      "note_on channel=0 note=81 velocity=72 time=9\n",
      "note_on channel=0 note=81 velocity=0 time=151\n",
      "note_on channel=0 note=83 velocity=73 time=9\n",
      "note_on channel=0 note=83 velocity=0 time=151\n",
      "note_on channel=0 note=84 velocity=74 time=9\n",
      "note_on channel=0 note=84 velocity=0 time=151\n",
      "note_on channel=0 note=81 velocity=75 time=9\n",
      "note_on channel=0 note=81 velocity=0 time=151\n",
      "note_on channel=0 note=84 velocity=76 time=9\n",
      "note_on channel=0 note=84 velocity=0 time=151\n",
      "note_on channel=0 note=85 velocity=77 time=9\n",
      "note_on channel=0 note=85 velocity=0 time=151\n",
      "note_on channel=0 note=82 velocity=78 time=9\n",
      "note_on channel=0 note=82 velocity=0 time=151\n",
      "note_on channel=0 note=84 velocity=80 time=9\n",
      "note_on channel=0 note=84 velocity=0 time=151\n",
      "note_on channel=0 note=85 velocity=80 time=9\n",
      "note_on channel=0 note=85 velocity=0 time=151\n",
      "note_on channel=0 note=82 velocity=80 time=9\n",
      "note_on channel=0 note=82 velocity=0 time=151\n",
      "note_on channel=0 note=84 velocity=80 time=9\n",
      "note_on channel=0 note=84 velocity=0 time=151\n",
      "note_on channel=0 note=85 velocity=80 time=9\n",
      "note_on channel=0 note=85 velocity=0 time=151\n",
      "note_on channel=0 note=82 velocity=80 time=9\n",
      "note_on channel=0 note=82 velocity=0 time=151\n",
      "note_on channel=0 note=84 velocity=80 time=9\n",
      "note_on channel=0 note=84 velocity=0 time=151\n",
      "note_on channel=0 note=85 velocity=77 time=9\n",
      "note_on channel=0 note=85 velocity=0 time=151\n",
      "note_on channel=0 note=82 velocity=74 time=9\n",
      "note_on channel=0 note=82 velocity=0 time=151\n",
      "note_on channel=0 note=84 velocity=70 time=9\n",
      "note_on channel=0 note=84 velocity=0 time=151\n",
      "note_on channel=0 note=85 velocity=67 time=9\n",
      "note_on channel=0 note=85 velocity=0 time=151\n",
      "note_on channel=0 note=82 velocity=64 time=9\n",
      "note_on channel=0 note=82 velocity=0 time=151\n",
      "MetaMessage('set_tempo', tempo=500000, time=9)\n",
      "note_on channel=0 note=84 velocity=60 time=0\n",
      "note_on channel=0 note=84 velocity=0 time=151\n",
      "note_on channel=0 note=85 velocity=57 time=9\n",
      "note_on channel=0 note=85 velocity=0 time=151\n",
      "note_on channel=0 note=82 velocity=54 time=9\n",
      "note_on channel=0 note=82 velocity=0 time=151\n",
      "note_on channel=0 note=84 velocity=50 time=9\n",
      "note_on channel=0 note=84 velocity=0 time=151\n",
      "note_on channel=0 note=85 velocity=47 time=9\n",
      "note_on channel=0 note=85 velocity=0 time=151\n",
      "MetaMessage('set_tempo', tempo=1000000, time=9)\n",
      "note_on channel=0 note=82 velocity=44 time=0\n",
      "note_on channel=0 note=82 velocity=0 time=151\n",
      "MetaMessage('set_tempo', tempo=500000, time=8)\n",
      "MetaMessage('set_tempo', tempo=447762, time=1)\n",
      "note_on channel=0 note=86 velocity=48 time=0\n",
      "note_on channel=0 note=86 velocity=0 time=1415\n",
      "note_on channel=0 note=84 velocity=40 time=25\n",
      "note_on channel=0 note=84 velocity=0 time=227\n",
      "note_on channel=0 note=83 velocity=40 time=13\n",
      "note_on channel=0 note=83 velocity=0 time=227\n",
      "MetaMessage('set_tempo', tempo=895524, time=13)\n",
      "note_on channel=0 note=81 velocity=40 time=0\n",
      "note_on channel=0 note=81 velocity=0 time=78\n",
      "note_on channel=0 note=83 velocity=40 time=1\n",
      "note_on channel=0 note=83 velocity=0 time=78\n",
      "note_on channel=0 note=84 velocity=40 time=2\n",
      "note_on channel=0 note=84 velocity=0 time=78\n",
      "note_on channel=0 note=83 velocity=40 time=3\n",
      "note_on channel=0 note=83 velocity=0 time=227\n",
      "MetaMessage('set_tempo', tempo=447762, time=12)\n",
      "note_on channel=0 note=81 velocity=40 time=1\n",
      "note_on channel=0 note=81 velocity=0 time=683\n",
      "note_on channel=0 note=74 velocity=40 time=37\n",
      "note_on channel=0 note=74 velocity=0 time=227\n",
      "note_on channel=0 note=76 velocity=40 time=13\n",
      "note_on channel=0 note=76 velocity=0 time=227\n",
      "note_on channel=0 note=78 velocity=40 time=13\n",
      "note_on channel=0 note=78 velocity=0 time=227\n",
      "note_on channel=0 note=79 velocity=40 time=13\n",
      "note_on channel=0 note=79 velocity=0 time=911\n",
      "MetaMessage('set_tempo', tempo=895524, time=49)\n",
      "note_on channel=0 note=81 velocity=40 time=0\n",
      "note_on channel=0 note=81 velocity=0 time=38\n",
      "note_on channel=0 note=79 velocity=40 time=1\n",
      "note_on channel=0 note=79 velocity=0 time=38\n",
      "note_on channel=0 note=78 velocity=40 time=2\n",
      "note_on channel=0 note=78 velocity=0 time=38\n",
      "note_on channel=0 note=79 velocity=40 time=3\n",
      "note_on channel=0 note=79 velocity=0 time=113\n",
      "MetaMessage('set_tempo', tempo=447762, time=6)\n",
      "note_on channel=0 note=81 velocity=40 time=1\n",
      "note_on channel=0 note=81 velocity=0 time=227\n",
      "note_on channel=0 note=83 velocity=40 time=13\n",
      "note_on channel=0 note=83 velocity=0 time=227\n",
      "note_on channel=0 note=84 velocity=40 time=13\n",
      "note_on channel=0 note=84 velocity=0 time=227\n",
      "note_on channel=0 note=83 velocity=40 time=13\n",
      "note_on channel=0 note=83 velocity=0 time=455\n",
      "note_on channel=0 note=81 velocity=40 time=25\n",
      "MetaMessage('set_tempo', tempo=500000, time=480)\n",
      "note_on channel=0 note=81 velocity=0 time=431\n",
      "note_on channel=0 note=83 velocity=40 time=49\n",
      "note_on channel=0 note=83 velocity=0 time=227\n",
      "note_on channel=0 note=84 velocity=40 time=13\n",
      "note_on channel=0 note=84 velocity=0 time=227\n",
      "MetaMessage('time_signature', numerator=3, denominator=4, clocks_per_click=24, notated_32nd_notes_per_beat=8, time=13)\n",
      "MetaMessage('set_tempo', tempo=300000, time=0)\n",
      "note_on channel=0 note=74 velocity=40 time=0\n",
      "note_on channel=0 note=74 velocity=0 time=455\n",
      "MetaMessage('set_tempo', tempo=447762, time=25)\n",
      "note_on channel=0 note=86 velocity=40 time=0\n",
      "note_on channel=0 note=86 velocity=0 time=911\n",
      "MetaMessage('time_signature', numerator=2, denominator=4, clocks_per_click=24, notated_32nd_notes_per_beat=8, time=49)\n",
      "note_on channel=0 note=86 velocity=40 time=0\n",
      "note_on channel=0 note=86 velocity=0 time=227\n",
      "note_on channel=0 note=88 velocity=40 time=13\n",
      "note_on channel=0 note=88 velocity=0 time=113\n",
      "note_on channel=0 note=86 velocity=40 time=7\n",
      "note_on channel=0 note=86 velocity=0 time=113\n",
      "note_on channel=0 note=84 velocity=40 time=7\n",
      "note_on channel=0 note=84 velocity=0 time=227\n",
      "note_on channel=0 note=83 velocity=40 time=13\n",
      "note_on channel=0 note=83 velocity=0 time=227\n",
      "MetaMessage('set_tempo', tempo=895524, time=13)\n",
      "note_on channel=0 note=81 velocity=40 time=0\n",
      "note_on channel=0 note=81 velocity=0 time=78\n",
      "note_on channel=0 note=83 velocity=40 time=1\n",
      "note_on channel=0 note=83 velocity=0 time=78\n",
      "note_on channel=0 note=84 velocity=40 time=2\n",
      "note_on channel=0 note=84 velocity=0 time=78\n",
      "note_on channel=0 note=83 velocity=40 time=3\n",
      "note_on channel=0 note=83 velocity=0 time=227\n",
      "MetaMessage('set_tempo', tempo=447762, time=12)\n",
      "note_on channel=0 note=81 velocity=40 time=1\n",
      "note_on channel=0 note=81 velocity=0 time=683\n",
      "note_on channel=0 note=74 velocity=50 time=37\n",
      "note_on channel=0 note=74 velocity=0 time=227\n",
      "note_on channel=0 note=76 velocity=60 time=13\n",
      "note_on channel=0 note=76 velocity=0 time=227\n",
      "note_on channel=0 note=78 velocity=70 time=13\n",
      "note_on channel=0 note=78 velocity=0 time=227\n",
      "note_on channel=0 note=67 velocity=80 time=13\n",
      "note_on channel=0 note=79 velocity=80 time=0\n",
      "note_on channel=0 note=67 velocity=0 time=239\n",
      "note_on channel=0 note=79 velocity=0 time=0\n",
      "note_on channel=0 note=69 velocity=80 time=241\n",
      "note_on channel=0 note=81 velocity=80 time=0\n",
      "note_on channel=0 note=69 velocity=0 time=227\n",
      "note_on channel=0 note=81 velocity=0 time=0\n",
      "MetaMessage('set_tempo', tempo=895524, time=7933)\n",
      "MetaMessage('set_tempo', tempo=447762, time=239)\n",
      "MetaMessage('set_tempo', tempo=437957, time=4561)\n",
      "MetaMessage('set_tempo', tempo=425532, time=2400)\n",
      "MetaMessage('set_tempo', tempo=416667, time=1440)\n",
      "note_on channel=0 note=59 velocity=96 time=240\n",
      "note_on channel=0 note=59 velocity=0 time=113\n",
      "note_on channel=0 note=67 velocity=96 time=7\n",
      "note_on channel=0 note=67 velocity=0 time=113\n",
      "note_on channel=0 note=62 velocity=96 time=7\n",
      "note_on channel=0 note=62 velocity=0 time=113\n",
      "note_on channel=0 note=71 velocity=96 time=7\n",
      "note_on channel=0 note=71 velocity=0 time=113\n",
      "note_on channel=0 note=67 velocity=96 time=7\n",
      "note_on channel=0 note=67 velocity=0 time=113\n",
      "note_on channel=0 note=74 velocity=96 time=7\n",
      "note_on channel=0 note=74 velocity=0 time=113\n",
      "note_on channel=0 note=71 velocity=96 time=7\n",
      "note_on channel=0 note=71 velocity=0 time=113\n",
      "note_on channel=0 note=79 velocity=96 time=7\n",
      "note_on channel=0 note=79 velocity=0 time=113\n",
      "note_on channel=0 note=74 velocity=96 time=7\n",
      "note_on channel=0 note=74 velocity=0 time=113\n",
      "note_on channel=0 note=83 velocity=96 time=7\n",
      "note_on channel=0 note=83 velocity=0 time=113\n",
      "note_on channel=0 note=79 velocity=96 time=7\n",
      "note_on channel=0 note=79 velocity=0 time=113\n",
      "note_on channel=0 note=86 velocity=96 time=7\n",
      "note_on channel=0 note=86 velocity=0 time=113\n",
      "note_on channel=0 note=83 velocity=96 time=7\n",
      "note_on channel=0 note=83 velocity=0 time=113\n",
      "note_on channel=0 note=91 velocity=96 time=7\n",
      "note_on channel=0 note=91 velocity=0 time=113\n",
      "note_on channel=0 note=90 velocity=96 time=127\n",
      "note_on channel=0 note=90 velocity=0 time=113\n",
      "note_on channel=0 note=93 velocity=115 time=7\n",
      "note_on channel=0 note=93 velocity=0 time=119\n",
      "note_on channel=0 note=84 velocity=96 time=1\n",
      "note_on channel=0 note=84 velocity=0 time=113\n",
      "note_on channel=0 note=90 velocity=96 time=7\n",
      "note_on channel=0 note=90 velocity=0 time=113\n",
      "note_on channel=0 note=81 velocity=96 time=7\n",
      "note_on channel=0 note=81 velocity=0 time=113\n",
      "note_on channel=0 note=84 velocity=96 time=7\n",
      "note_on channel=0 note=84 velocity=0 time=113\n",
      "note_on channel=0 note=78 velocity=96 time=7\n",
      "note_on channel=0 note=78 velocity=0 time=113\n",
      "note_on channel=0 note=81 velocity=96 time=7\n",
      "note_on channel=0 note=81 velocity=0 time=113\n",
      "note_on channel=0 note=72 velocity=96 time=7\n",
      "note_on channel=0 note=72 velocity=0 time=113\n",
      "note_on channel=0 note=78 velocity=96 time=7\n",
      "note_on channel=0 note=78 velocity=0 time=113\n",
      "note_on channel=0 note=69 velocity=96 time=7\n",
      "note_on channel=0 note=69 velocity=0 time=113\n",
      "note_on channel=0 note=72 velocity=96 time=7\n",
      "note_on channel=0 note=72 velocity=0 time=113\n",
      "note_on channel=0 note=66 velocity=96 time=7\n",
      "note_on channel=0 note=66 velocity=0 time=113\n",
      "note_on channel=0 note=69 velocity=96 time=7\n",
      "note_on channel=0 note=69 velocity=0 time=113\n",
      "note_on channel=0 note=60 velocity=96 time=7\n",
      "note_on channel=0 note=60 velocity=0 time=113\n",
      "note_on channel=0 note=59 velocity=96 time=247\n",
      "note_on channel=0 note=59 velocity=0 time=113\n",
      "note_on channel=0 note=67 velocity=96 time=7\n",
      "note_on channel=0 note=67 velocity=0 time=113\n",
      "note_on channel=0 note=62 velocity=96 time=7\n",
      "note_on channel=0 note=62 velocity=0 time=113\n",
      "note_on channel=0 note=71 velocity=96 time=7\n",
      "note_on channel=0 note=71 velocity=0 time=113\n",
      "note_on channel=0 note=67 velocity=96 time=7\n",
      "note_on channel=0 note=67 velocity=0 time=113\n",
      "note_on channel=0 note=74 velocity=96 time=7\n",
      "note_on channel=0 note=74 velocity=0 time=113\n",
      "note_on channel=0 note=71 velocity=96 time=7\n",
      "note_on channel=0 note=71 velocity=0 time=113\n",
      "note_on channel=0 note=79 velocity=96 time=7\n",
      "note_on channel=0 note=79 velocity=0 time=113\n",
      "note_on channel=0 note=74 velocity=96 time=7\n",
      "note_on channel=0 note=74 velocity=0 time=113\n",
      "note_on channel=0 note=83 velocity=96 time=7\n",
      "note_on channel=0 note=83 velocity=0 time=113\n",
      "note_on channel=0 note=79 velocity=96 time=7\n",
      "note_on channel=0 note=79 velocity=0 time=113\n",
      "note_on channel=0 note=86 velocity=96 time=7\n",
      "note_on channel=0 note=86 velocity=0 time=113\n",
      "note_on channel=0 note=83 velocity=96 time=7\n",
      "note_on channel=0 note=83 velocity=0 time=113\n",
      "note_on channel=0 note=91 velocity=96 time=7\n",
      "note_on channel=0 note=91 velocity=0 time=113\n",
      "note_on channel=0 note=90 velocity=96 time=127\n",
      "note_on channel=0 note=90 velocity=0 time=113\n",
      "note_on channel=0 note=93 velocity=115 time=7\n",
      "note_on channel=0 note=93 velocity=0 time=119\n",
      "note_on channel=0 note=84 velocity=96 time=1\n",
      "note_on channel=0 note=84 velocity=0 time=113\n",
      "note_on channel=0 note=90 velocity=96 time=7\n",
      "note_on channel=0 note=90 velocity=0 time=113\n",
      "note_on channel=0 note=81 velocity=96 time=7\n",
      "note_on channel=0 note=81 velocity=0 time=113\n",
      "note_on channel=0 note=84 velocity=96 time=7\n",
      "note_on channel=0 note=84 velocity=0 time=113\n",
      "note_on channel=0 note=78 velocity=96 time=7\n",
      "note_on channel=0 note=78 velocity=0 time=113\n",
      "note_on channel=0 note=81 velocity=96 time=7\n",
      "note_on channel=0 note=81 velocity=0 time=113\n",
      "note_on channel=0 note=72 velocity=96 time=7\n",
      "note_on channel=0 note=72 velocity=0 time=113\n",
      "note_on channel=0 note=78 velocity=96 time=7\n",
      "note_on channel=0 note=78 velocity=0 time=113\n",
      "note_on channel=0 note=69 velocity=96 time=7\n",
      "note_on channel=0 note=69 velocity=0 time=113\n",
      "note_on channel=0 note=72 velocity=96 time=7\n",
      "note_on channel=0 note=72 velocity=0 time=113\n",
      "note_on channel=0 note=66 velocity=96 time=7\n",
      "note_on channel=0 note=66 velocity=0 time=113\n",
      "note_on channel=0 note=69 velocity=96 time=7\n",
      "note_on channel=0 note=69 velocity=0 time=113\n",
      "note_on channel=0 note=60 velocity=96 time=7\n",
      "note_on channel=0 note=60 velocity=0 time=113\n",
      "note_on channel=0 note=91 velocity=96 time=127\n",
      "note_on channel=0 note=91 velocity=0 time=113\n",
      "note_on channel=0 note=95 velocity=115 time=7\n",
      "note_on channel=0 note=95 velocity=0 time=119\n",
      "note_on channel=0 note=86 velocity=96 time=1\n",
      "note_on channel=0 note=86 velocity=0 time=113\n",
      "note_on channel=0 note=91 velocity=96 time=7\n",
      "note_on channel=0 note=91 velocity=0 time=113\n",
      "note_on channel=0 note=83 velocity=96 time=7\n",
      "note_on channel=0 note=83 velocity=0 time=113\n",
      "note_on channel=0 note=86 velocity=96 time=7\n",
      "note_on channel=0 note=86 velocity=0 time=113\n",
      "note_on channel=0 note=79 velocity=96 time=7\n",
      "note_on channel=0 note=79 velocity=0 time=113\n",
      "note_on channel=0 note=90 velocity=96 time=127\n",
      "note_on channel=0 note=90 velocity=0 time=113\n",
      "note_on channel=0 note=93 velocity=115 time=7\n",
      "note_on channel=0 note=93 velocity=0 time=119\n",
      "note_on channel=0 note=87 velocity=96 time=1\n",
      "note_on channel=0 note=87 velocity=0 time=113\n",
      "note_on channel=0 note=90 velocity=96 time=7\n",
      "note_on channel=0 note=90 velocity=0 time=113\n",
      "note_on channel=0 note=81 velocity=96 time=7\n",
      "note_on channel=0 note=81 velocity=0 time=113\n",
      "note_on channel=0 note=87 velocity=96 time=7\n",
      "note_on channel=0 note=87 velocity=0 time=113\n",
      "note_on channel=0 note=78 velocity=96 time=7\n",
      "note_on channel=0 note=78 velocity=0 time=113\n",
      "note_on channel=0 note=88 velocity=80 time=127\n",
      "note_on channel=0 note=88 velocity=0 time=113\n",
      "note_on channel=0 note=91 velocity=80 time=7\n",
      "note_on channel=0 note=91 velocity=0 time=113\n",
      "note_on channel=0 note=83 velocity=80 time=7\n",
      "note_on channel=0 note=83 velocity=0 time=113\n",
      "note_on channel=0 note=86 velocity=80 time=127\n",
      "note_on channel=0 note=86 velocity=0 time=113\n",
      "note_on channel=0 note=89 velocity=80 time=7\n",
      "note_on channel=0 note=89 velocity=0 time=113\n",
      "note_on channel=0 note=83 velocity=80 time=7\n",
      "note_on channel=0 note=83 velocity=0 time=113\n",
      "note_on channel=0 note=84 velocity=79 time=127\n",
      "note_on channel=0 note=84 velocity=0 time=113\n",
      "note_on channel=0 note=88 velocity=78 time=7\n",
      "note_on channel=0 note=88 velocity=0 time=113\n",
      "note_on channel=0 note=79 velocity=77 time=7\n",
      "note_on channel=0 note=79 velocity=0 time=113\n",
      "note_on channel=0 note=83 velocity=74 time=127\n",
      "note_on channel=0 note=83 velocity=0 time=113\n",
      "note_on channel=0 note=86 velocity=73 time=7\n",
      "note_on channel=0 note=86 velocity=0 time=113\n",
      "note_on channel=0 note=80 velocity=71 time=7\n",
      "note_on channel=0 note=80 velocity=0 time=113\n",
      "note_on channel=0 note=81 velocity=69 time=127\n",
      "note_on channel=0 note=81 velocity=0 time=113\n",
      "note_on channel=0 note=84 velocity=68 time=7\n",
      "note_on channel=0 note=84 velocity=0 time=113\n",
      "note_on channel=0 note=76 velocity=66 time=7\n",
      "note_on channel=0 note=76 velocity=0 time=113\n",
      "note_on channel=0 note=81 velocity=64 time=127\n",
      "note_on channel=0 note=81 velocity=0 time=113\n",
      "note_on channel=0 note=88 velocity=62 time=7\n",
      "note_on channel=0 note=88 velocity=0 time=113\n",
      "note_on channel=0 note=76 velocity=61 time=7\n",
      "note_on channel=0 note=76 velocity=0 time=113\n",
      "note_on channel=0 note=78 velocity=59 time=127\n",
      "note_on channel=0 note=78 velocity=0 time=113\n",
      "note_on channel=0 note=81 velocity=57 time=7\n",
      "note_on channel=0 note=81 velocity=0 time=113\n",
      "note_on channel=0 note=79 velocity=56 time=7\n",
      "note_on channel=0 note=79 velocity=0 time=113\n",
      "note_on channel=0 note=78 velocity=55 time=7\n",
      "note_on channel=0 note=78 velocity=0 time=113\n",
      "note_on channel=0 note=76 velocity=53 time=7\n",
      "note_on channel=0 note=76 velocity=0 time=113\n",
      "note_on channel=0 note=74 velocity=52 time=7\n",
      "note_on channel=0 note=74 velocity=0 time=113\n",
      "note_on channel=0 note=72 velocity=51 time=7\n",
      "note_on channel=0 note=72 velocity=0 time=113\n",
      "note_on channel=0 note=71 velocity=49 time=7\n",
      "note_on channel=0 note=71 velocity=0 time=227\n",
      "note_on channel=0 note=59 velocity=49 time=13\n",
      "note_on channel=0 note=59 velocity=0 time=113\n",
      "note_on channel=0 note=67 velocity=49 time=7\n",
      "note_on channel=0 note=67 velocity=0 time=113\n",
      "note_on channel=0 note=62 velocity=49 time=7\n",
      "note_on channel=0 note=62 velocity=0 time=113\n",
      "note_on channel=0 note=71 velocity=49 time=7\n",
      "note_on channel=0 note=71 velocity=0 time=113\n",
      "note_on channel=0 note=67 velocity=49 time=7\n",
      "note_on channel=0 note=67 velocity=0 time=113\n",
      "note_on channel=0 note=74 velocity=49 time=7\n",
      "note_on channel=0 note=74 velocity=0 time=113\n",
      "note_on channel=0 note=71 velocity=49 time=7\n",
      "note_on channel=0 note=71 velocity=0 time=113\n",
      "note_on channel=0 note=79 velocity=49 time=7\n",
      "note_on channel=0 note=79 velocity=0 time=113\n",
      "note_on channel=0 note=74 velocity=49 time=7\n",
      "note_on channel=0 note=74 velocity=0 time=113\n",
      "note_on channel=0 note=83 velocity=49 time=7\n",
      "note_on channel=0 note=83 velocity=0 time=113\n",
      "note_on channel=0 note=79 velocity=49 time=7\n",
      "note_on channel=0 note=79 velocity=0 time=113\n",
      "note_on channel=0 note=86 velocity=49 time=7\n",
      "note_on channel=0 note=86 velocity=0 time=113\n",
      "note_on channel=0 note=83 velocity=49 time=7\n",
      "note_on channel=0 note=83 velocity=0 time=113\n",
      "note_on channel=0 note=91 velocity=49 time=7\n",
      "note_on channel=0 note=91 velocity=0 time=113\n",
      "note_on channel=0 note=90 velocity=49 time=127\n",
      "note_on channel=0 note=90 velocity=0 time=113\n",
      "note_on channel=0 note=93 velocity=58 time=7\n",
      "note_on channel=0 note=93 velocity=0 time=119\n",
      "note_on channel=0 note=84 velocity=49 time=1\n",
      "note_on channel=0 note=84 velocity=0 time=113\n",
      "note_on channel=0 note=90 velocity=49 time=7\n",
      "note_on channel=0 note=90 velocity=0 time=113\n",
      "note_on channel=0 note=81 velocity=49 time=7\n",
      "note_on channel=0 note=81 velocity=0 time=113\n",
      "note_on channel=0 note=84 velocity=49 time=7\n",
      "note_on channel=0 note=84 velocity=0 time=113\n",
      "note_on channel=0 note=78 velocity=49 time=7\n",
      "note_on channel=0 note=78 velocity=0 time=113\n",
      "note_on channel=0 note=81 velocity=49 time=7\n",
      "note_on channel=0 note=81 velocity=0 time=113\n",
      "note_on channel=0 note=72 velocity=49 time=7\n",
      "note_on channel=0 note=72 velocity=0 time=113\n",
      "note_on channel=0 note=78 velocity=49 time=7\n",
      "note_on channel=0 note=78 velocity=0 time=113\n",
      "note_on channel=0 note=69 velocity=49 time=7\n",
      "note_on channel=0 note=69 velocity=0 time=113\n",
      "note_on channel=0 note=72 velocity=49 time=7\n",
      "note_on channel=0 note=72 velocity=0 time=113\n",
      "note_on channel=0 note=66 velocity=49 time=7\n",
      "note_on channel=0 note=66 velocity=0 time=113\n",
      "note_on channel=0 note=69 velocity=49 time=7\n",
      "note_on channel=0 note=69 velocity=0 time=113\n",
      "note_on channel=0 note=60 velocity=49 time=7\n",
      "note_on channel=0 note=60 velocity=0 time=113\n",
      "note_on channel=0 note=59 velocity=49 time=247\n",
      "note_on channel=0 note=59 velocity=0 time=113\n",
      "note_on channel=0 note=67 velocity=49 time=7\n",
      "note_on channel=0 note=67 velocity=0 time=113\n",
      "note_on channel=0 note=62 velocity=49 time=7\n",
      "note_on channel=0 note=62 velocity=0 time=113\n",
      "note_on channel=0 note=71 velocity=49 time=7\n",
      "note_on channel=0 note=71 velocity=0 time=113\n",
      "note_on channel=0 note=67 velocity=49 time=7\n",
      "note_on channel=0 note=67 velocity=0 time=113\n",
      "note_on channel=0 note=74 velocity=49 time=7\n",
      "note_on channel=0 note=74 velocity=0 time=113\n",
      "note_on channel=0 note=71 velocity=49 time=7\n",
      "note_on channel=0 note=71 velocity=0 time=113\n",
      "note_on channel=0 note=79 velocity=47 time=7\n",
      "note_on channel=0 note=79 velocity=0 time=113\n",
      "note_on channel=0 note=74 velocity=45 time=7\n",
      "note_on channel=0 note=74 velocity=0 time=113\n",
      "note_on channel=0 note=83 velocity=43 time=7\n",
      "note_on channel=0 note=83 velocity=0 time=113\n",
      "note_on channel=0 note=79 velocity=41 time=7\n",
      "note_on channel=0 note=79 velocity=0 time=113\n",
      "note_on channel=0 note=86 velocity=39 time=7\n",
      "note_on channel=0 note=86 velocity=0 time=113\n",
      "note_on channel=0 note=83 velocity=37 time=7\n",
      "note_on channel=0 note=83 velocity=0 time=113\n",
      "note_on channel=0 note=91 velocity=35 time=7\n",
      "note_on channel=0 note=91 velocity=0 time=113\n",
      "note_on channel=0 note=58 velocity=33 time=247\n",
      "note_on channel=0 note=58 velocity=0 time=113\n",
      "note_on channel=0 note=67 velocity=33 time=7\n",
      "note_on channel=0 note=67 velocity=0 time=113\n",
      "note_on channel=0 note=62 velocity=33 time=7\n",
      "note_on channel=0 note=62 velocity=0 time=113\n",
      "note_on channel=0 note=70 velocity=33 time=7\n",
      "note_on channel=0 note=70 velocity=0 time=113\n",
      "note_on channel=0 note=67 velocity=33 time=7\n",
      "note_on channel=0 note=67 velocity=0 time=113\n",
      "note_on channel=0 note=74 velocity=33 time=7\n",
      "note_on channel=0 note=74 velocity=0 time=113\n",
      "note_on channel=0 note=70 velocity=33 time=7\n",
      "note_on channel=0 note=70 velocity=0 time=113\n",
      "note_on channel=0 note=79 velocity=33 time=7\n",
      "note_on channel=0 note=79 velocity=0 time=113\n",
      "note_on channel=0 note=74 velocity=33 time=7\n",
      "note_on channel=0 note=74 velocity=0 time=113\n",
      "note_on channel=0 note=82 velocity=33 time=7\n",
      "note_on channel=0 note=82 velocity=0 time=113\n",
      "note_on channel=0 note=79 velocity=33 time=7\n",
      "note_on channel=0 note=79 velocity=0 time=113\n",
      "note_on channel=0 note=86 velocity=33 time=7\n",
      "note_on channel=0 note=86 velocity=0 time=113\n",
      "note_on channel=0 note=82 velocity=33 time=7\n",
      "note_on channel=0 note=82 velocity=0 time=113\n",
      "note_on channel=0 note=91 velocity=33 time=7\n",
      "note_on channel=0 note=91 velocity=0 time=113\n",
      "note_on channel=0 note=58 velocity=33 time=247\n",
      "note_on channel=0 note=58 velocity=0 time=113\n",
      "note_on channel=0 note=67 velocity=33 time=7\n",
      "note_on channel=0 note=67 velocity=0 time=113\n",
      "note_on channel=0 note=63 velocity=39 time=7\n",
      "note_on channel=0 note=63 velocity=0 time=113\n",
      "note_on channel=0 note=70 velocity=45 time=7\n",
      "note_on channel=0 note=70 velocity=0 time=113\n",
      "note_on channel=0 note=67 velocity=51 time=7\n",
      "note_on channel=0 note=67 velocity=0 time=113\n",
      "note_on channel=0 note=75 velocity=57 time=7\n",
      "note_on channel=0 note=75 velocity=0 time=113\n",
      "note_on channel=0 note=70 velocity=63 time=7\n",
      "note_on channel=0 note=70 velocity=0 time=113\n",
      "note_on channel=0 note=79 velocity=69 time=7\n",
      "note_on channel=0 note=79 velocity=0 time=113\n",
      "note_on channel=0 note=75 velocity=75 time=7\n",
      "note_on channel=0 note=75 velocity=0 time=113\n",
      "note_on channel=0 note=82 velocity=81 time=7\n",
      "note_on channel=0 note=82 velocity=0 time=113\n",
      "note_on channel=0 note=79 velocity=104 time=7\n",
      "note_on channel=0 note=79 velocity=0 time=159\n",
      "note_on channel=0 note=87 velocity=114 time=1\n",
      "note_on channel=0 note=87 velocity=0 time=159\n",
      "note_on channel=0 note=82 velocity=123 time=1\n",
      "note_on channel=0 note=82 velocity=0 time=159\n",
      "note_on channel=0 note=91 velocity=127 time=1\n",
      "note_on channel=0 note=91 velocity=0 time=159\n",
      "note_on channel=0 note=82 velocity=112 time=1\n",
      "note_on channel=0 note=82 velocity=0 time=151\n",
      "note_on channel=0 note=87 velocity=112 time=9\n",
      "note_on channel=0 note=87 velocity=0 time=151\n",
      "note_on channel=0 note=79 velocity=112 time=9\n",
      "note_on channel=0 note=79 velocity=0 time=151\n",
      "note_on channel=0 note=82 velocity=112 time=9\n",
      "note_on channel=0 note=82 velocity=0 time=151\n",
      "note_on channel=0 note=75 velocity=112 time=9\n",
      "note_on channel=0 note=75 velocity=0 time=151\n",
      "note_on channel=0 note=79 velocity=112 time=9\n",
      "note_on channel=0 note=79 velocity=0 time=151\n",
      "note_on channel=0 note=70 velocity=112 time=9\n",
      "note_on channel=0 note=70 velocity=0 time=151\n",
      "note_on channel=0 note=75 velocity=112 time=9\n",
      "note_on channel=0 note=75 velocity=0 time=151\n",
      "note_on channel=0 note=67 velocity=112 time=9\n",
      "note_on channel=0 note=67 velocity=0 time=151\n",
      "note_on channel=0 note=70 velocity=112 time=9\n",
      "note_on channel=0 note=70 velocity=0 time=151\n",
      "note_on channel=0 note=63 velocity=112 time=9\n",
      "note_on channel=0 note=63 velocity=0 time=151\n",
      "note_on channel=0 note=67 velocity=112 time=9\n",
      "note_on channel=0 note=67 velocity=0 time=151\n",
      "note_on channel=0 note=58 velocity=112 time=9\n",
      "note_on channel=0 note=58 velocity=0 time=151\n",
      "note_on channel=0 note=63 velocity=112 time=9\n",
      "note_on channel=0 note=63 velocity=0 time=151\n",
      "note_on channel=0 note=55 velocity=112 time=9\n",
      "note_on channel=0 note=55 velocity=0 time=151\n",
      "note_on channel=0 note=58 velocity=112 time=9\n",
      "note_on channel=0 note=58 velocity=0 time=151\n",
      "note_on channel=0 note=51 velocity=112 time=9\n",
      "note_on channel=0 note=51 velocity=0 time=151\n",
      "note_on channel=0 note=82 velocity=112 time=649\n",
      "note_on channel=0 note=82 velocity=0 time=151\n",
      "note_on channel=0 note=87 velocity=112 time=9\n",
      "note_on channel=0 note=87 velocity=0 time=151\n",
      "note_on channel=0 note=91 velocity=127 time=9\n",
      "note_on channel=0 note=91 velocity=0 time=159\n",
      "note_on channel=0 note=82 velocity=112 time=1\n",
      "note_on channel=0 note=82 velocity=0 time=151\n",
      "note_on channel=0 note=87 velocity=112 time=9\n",
      "note_on channel=0 note=87 velocity=0 time=151\n",
      "note_on channel=0 note=79 velocity=112 time=9\n",
      "note_on channel=0 note=79 velocity=0 time=151\n",
      "note_on channel=0 note=82 velocity=112 time=9\n",
      "note_on channel=0 note=82 velocity=0 time=151\n",
      "note_on channel=0 note=75 velocity=112 time=9\n",
      "note_on channel=0 note=75 velocity=0 time=151\n",
      "note_on channel=0 note=79 velocity=112 time=9\n",
      "note_on channel=0 note=79 velocity=0 time=151\n",
      "note_on channel=0 note=70 velocity=109 time=9\n",
      "note_on channel=0 note=70 velocity=0 time=151\n",
      "note_on channel=0 note=75 velocity=105 time=9\n",
      "note_on channel=0 note=75 velocity=0 time=151\n",
      "note_on channel=0 note=67 velocity=102 time=9\n",
      "note_on channel=0 note=67 velocity=0 time=151\n",
      "note_on channel=0 note=70 velocity=98 time=9\n",
      "note_on channel=0 note=70 velocity=0 time=151\n",
      "note_on channel=0 note=63 velocity=95 time=9\n",
      "note_on channel=0 note=63 velocity=0 time=151\n",
      "note_on channel=0 note=67 velocity=91 time=9\n",
      "note_on channel=0 note=67 velocity=0 time=151\n",
      "note_on channel=0 note=58 velocity=88 time=9\n",
      "note_on channel=0 note=58 velocity=0 time=151\n",
      "note_on channel=0 note=63 velocity=84 time=9\n",
      "note_on channel=0 note=63 velocity=0 time=151\n",
      "note_on channel=0 note=55 velocity=81 time=9\n",
      "note_on channel=0 note=55 velocity=0 time=151\n",
      "note_on channel=0 note=58 velocity=77 time=9\n",
      "note_on channel=0 note=58 velocity=0 time=151\n",
      "note_on channel=0 note=51 velocity=74 time=9\n",
      "note_on channel=0 note=51 velocity=0 time=151\n",
      "note_on channel=0 note=82 velocity=56 time=649\n",
      "note_on channel=0 note=82 velocity=0 time=151\n",
      "note_on channel=0 note=87 velocity=53 time=9\n",
      "note_on channel=0 note=87 velocity=0 time=151\n",
      "note_on channel=0 note=91 velocity=49 time=9\n",
      "note_on channel=0 note=91 velocity=0 time=151\n",
      "note_on channel=0 note=82 velocity=49 time=9\n",
      "note_on channel=0 note=82 velocity=0 time=151\n",
      "note_on channel=0 note=87 velocity=49 time=9\n",
      "note_on channel=0 note=87 velocity=0 time=151\n",
      "note_on channel=0 note=79 velocity=49 time=9\n",
      "note_on channel=0 note=79 velocity=0 time=607\n",
      "note_on channel=0 note=70 velocity=49 time=33\n",
      "note_on channel=0 note=70 velocity=0 time=151\n",
      "note_on channel=0 note=75 velocity=49 time=9\n",
      "note_on channel=0 note=75 velocity=0 time=151\n",
      "note_on channel=0 note=67 velocity=49 time=9\n",
      "note_on channel=0 note=67 velocity=0 time=607\n",
      "note_on channel=0 note=70 velocity=49 time=33\n",
      "note_on channel=0 note=70 velocity=0 time=151\n",
      "note_on channel=0 note=75 velocity=49 time=9\n",
      "note_on channel=0 note=75 velocity=0 time=151\n",
      "note_on channel=0 note=79 velocity=49 time=9\n",
      "note_on channel=0 note=79 velocity=0 time=607\n",
      "note_on channel=0 note=82 velocity=49 time=33\n",
      "note_on channel=0 note=82 velocity=0 time=151\n",
      "note_on channel=0 note=87 velocity=49 time=9\n",
      "note_on channel=0 note=87 velocity=0 time=151\n",
      "note_on channel=0 note=91 velocity=49 time=9\n",
      "note_on channel=0 note=91 velocity=0 time=607\n",
      "note_on channel=0 note=82 velocity=49 time=33\n",
      "note_on channel=0 note=82 velocity=0 time=151\n",
      "note_on channel=0 note=87 velocity=48 time=9\n",
      "note_on channel=0 note=87 velocity=0 time=151\n",
      "note_on channel=0 note=91 velocity=47 time=9\n",
      "note_on channel=0 note=91 velocity=0 time=607\n",
      "note_on channel=0 note=82 velocity=45 time=33\n",
      "note_on channel=0 note=82 velocity=0 time=151\n",
      "note_on channel=0 note=87 velocity=44 time=9\n",
      "note_on channel=0 note=87 velocity=0 time=151\n",
      "note_on channel=0 note=91 velocity=43 time=9\n",
      "note_on channel=0 note=91 velocity=0 time=607\n",
      "note_on channel=0 note=82 velocity=41 time=33\n",
      "note_on channel=0 note=82 velocity=0 time=151\n",
      "note_on channel=0 note=87 velocity=40 time=9\n",
      "note_on channel=0 note=87 velocity=0 time=151\n",
      "note_on channel=0 note=91 velocity=39 time=9\n",
      "note_on channel=0 note=91 velocity=0 time=607\n",
      "note_on channel=0 note=82 velocity=37 time=33\n",
      "note_on channel=0 note=82 velocity=0 time=151\n",
      "note_on channel=0 note=87 velocity=36 time=9\n",
      "note_on channel=0 note=87 velocity=0 time=151\n",
      "note_on channel=0 note=91 velocity=35 time=9\n",
      "note_on channel=0 note=91 velocity=0 time=607\n",
      "note_on channel=0 note=82 velocity=33 time=33\n",
      "note_on channel=0 note=82 velocity=0 time=151\n",
      "note_on channel=0 note=87 velocity=33 time=9\n",
      "note_on channel=0 note=87 velocity=0 time=151\n",
      "note_on channel=0 note=91 velocity=33 time=9\n",
      "note_on channel=0 note=91 velocity=0 time=607\n",
      "note_on channel=0 note=82 velocity=33 time=33\n",
      "note_on channel=0 note=82 velocity=0 time=151\n",
      "note_on channel=0 note=87 velocity=33 time=9\n",
      "note_on channel=0 note=87 velocity=0 time=151\n",
      "note_on channel=0 note=91 velocity=33 time=9\n",
      "note_on channel=0 note=91 velocity=0 time=607\n",
      "note_on channel=0 note=84 velocity=33 time=33\n",
      "note_on channel=0 note=84 velocity=0 time=151\n",
      "note_on channel=0 note=87 velocity=33 time=9\n",
      "note_on channel=0 note=87 velocity=0 time=151\n",
      "note_on channel=0 note=91 velocity=33 time=9\n",
      "note_on channel=0 note=91 velocity=0 time=607\n",
      "note_on channel=0 note=84 velocity=33 time=33\n",
      "note_on channel=0 note=84 velocity=0 time=151\n",
      "note_on channel=0 note=87 velocity=33 time=9\n",
      "note_on channel=0 note=87 velocity=0 time=151\n",
      "note_on channel=0 note=81 velocity=33 time=9\n",
      "note_on channel=0 note=81 velocity=0 time=607\n",
      "note_on channel=0 note=81 velocity=33 time=33\n",
      "note_on channel=0 note=81 velocity=0 time=151\n",
      "note_on channel=0 note=84 velocity=33 time=9\n",
      "note_on channel=0 note=84 velocity=0 time=151\n",
      "note_on channel=0 note=89 velocity=33 time=9\n",
      "note_on channel=0 note=89 velocity=0 time=607\n",
      "note_on channel=0 note=82 velocity=33 time=33\n",
      "note_on channel=0 note=82 velocity=0 time=151\n",
      "note_on channel=0 note=86 velocity=33 time=9\n",
      "note_on channel=0 note=86 velocity=0 time=151\n",
      "note_on channel=0 note=89 velocity=33 time=9\n",
      "note_on channel=0 note=89 velocity=0 time=607\n",
      "note_on channel=0 note=81 velocity=33 time=33\n",
      "note_on channel=0 note=81 velocity=0 time=151\n",
      "note_on channel=0 note=84 velocity=33 time=9\n",
      "note_on channel=0 note=84 velocity=0 time=151\n",
      "note_on channel=0 note=89 velocity=33 time=9\n",
      "note_on channel=0 note=89 velocity=0 time=607\n",
      "note_on channel=0 note=82 velocity=33 time=33\n",
      "note_on channel=0 note=82 velocity=0 time=151\n",
      "note_on channel=0 note=86 velocity=33 time=9\n",
      "note_on channel=0 note=86 velocity=0 time=151\n",
      "note_on channel=0 note=89 velocity=33 time=9\n",
      "note_on channel=0 note=89 velocity=0 time=607\n",
      "note_on channel=0 note=81 velocity=33 time=33\n",
      "note_on channel=0 note=81 velocity=0 time=151\n",
      "note_on channel=0 note=84 velocity=33 time=9\n",
      "note_on channel=0 note=84 velocity=0 time=151\n",
      "note_on channel=0 note=89 velocity=33 time=9\n",
      "note_on channel=0 note=89 velocity=0 time=455\n",
      "note_on channel=0 note=89 velocity=33 time=25\n",
      "note_on channel=0 note=89 velocity=0 time=151\n",
      "note_on channel=0 note=82 velocity=33 time=9\n",
      "note_on channel=0 note=82 velocity=0 time=151\n",
      "note_on channel=0 note=86 velocity=33 time=9\n",
      "note_on channel=0 note=86 velocity=0 time=151\n",
      "note_on channel=0 note=89 velocity=33 time=9\n",
      "note_on channel=0 note=89 velocity=0 time=607\n",
      "note_on channel=0 note=83 velocity=33 time=33\n",
      "note_on channel=0 note=83 velocity=0 time=151\n",
      "note_on channel=0 note=86 velocity=34 time=9\n",
      "note_on channel=0 note=86 velocity=0 time=151\n",
      "note_on channel=0 note=91 velocity=35 time=9\n",
      "note_on channel=0 note=91 velocity=0 time=607\n",
      "note_on channel=0 note=84 velocity=37 time=33\n",
      "note_on channel=0 note=84 velocity=0 time=151\n",
      "note_on channel=0 note=87 velocity=38 time=9\n",
      "note_on channel=0 note=87 velocity=0 time=151\n",
      "note_on channel=0 note=91 velocity=39 time=9\n",
      "note_on channel=0 note=91 velocity=0 time=607\n",
      "note_on channel=0 note=83 velocity=41 time=33\n",
      "note_on channel=0 note=83 velocity=0 time=151\n",
      "note_on channel=0 note=86 velocity=42 time=9\n",
      "note_on channel=0 note=86 velocity=0 time=151\n",
      "note_on channel=0 note=91 velocity=43 time=9\n",
      "note_on channel=0 note=91 velocity=0 time=607\n",
      "note_on channel=0 note=84 velocity=45 time=33\n",
      "note_on channel=0 note=84 velocity=0 time=151\n",
      "note_on channel=0 note=87 velocity=46 time=9\n",
      "note_on channel=0 note=87 velocity=0 time=151\n",
      "note_on channel=0 note=91 velocity=47 time=9\n",
      "note_on channel=0 note=91 velocity=0 time=455\n",
      "note_on channel=0 note=93 velocity=49 time=25\n",
      "note_on channel=0 note=93 velocity=0 time=113\n",
      "note_on channel=0 note=89 velocity=49 time=7\n",
      "note_on channel=0 note=89 velocity=0 time=113\n",
      "note_on channel=0 note=84 velocity=49 time=7\n",
      "note_on channel=0 note=84 velocity=0 time=113\n",
      "note_on channel=0 note=89 velocity=49 time=7\n",
      "note_on channel=0 note=89 velocity=0 time=113\n",
      "note_on channel=0 note=93 velocity=49 time=7\n",
      "note_on channel=0 note=93 velocity=0 time=113\n",
      "note_on channel=0 note=89 velocity=49 time=7\n",
      "note_on channel=0 note=89 velocity=0 time=113\n",
      "note_on channel=0 note=84 velocity=49 time=7\n",
      "note_on channel=0 note=84 velocity=0 time=113\n",
      "note_on channel=0 note=89 velocity=49 time=7\n",
      "note_on channel=0 note=89 velocity=0 time=113\n",
      "note_on channel=0 note=82 velocity=49 time=7\n",
      "note_on channel=0 note=82 velocity=0 time=113\n",
      "note_on channel=0 note=89 velocity=49 time=7\n",
      "note_on channel=0 note=89 velocity=0 time=113\n",
      "note_on channel=0 note=86 velocity=49 time=7\n",
      "note_on channel=0 note=86 velocity=0 time=113\n",
      "note_on channel=0 note=89 velocity=49 time=7\n",
      "note_on channel=0 note=89 velocity=0 time=113\n",
      "note_on channel=0 note=94 velocity=49 time=7\n",
      "note_on channel=0 note=94 velocity=0 time=113\n",
      "note_on channel=0 note=89 velocity=49 time=7\n",
      "note_on channel=0 note=89 velocity=0 time=113\n",
      "note_on channel=0 note=86 velocity=49 time=7\n",
      "note_on channel=0 note=86 velocity=0 time=113\n",
      "note_on channel=0 note=89 velocity=49 time=7\n",
      "note_on channel=0 note=89 velocity=0 time=113\n",
      "note_on channel=0 note=81 velocity=49 time=7\n",
      "note_on channel=0 note=81 velocity=0 time=113\n",
      "note_on channel=0 note=89 velocity=49 time=7\n",
      "note_on channel=0 note=89 velocity=0 time=113\n",
      "note_on channel=0 note=84 velocity=49 time=7\n",
      "note_on channel=0 note=84 velocity=0 time=113\n",
      "note_on channel=0 note=89 velocity=49 time=7\n",
      "note_on channel=0 note=89 velocity=0 time=113\n",
      "note_on channel=0 note=93 velocity=49 time=7\n",
      "note_on channel=0 note=93 velocity=0 time=113\n",
      "note_on channel=0 note=89 velocity=49 time=7\n",
      "note_on channel=0 note=89 velocity=0 time=113\n",
      "note_on channel=0 note=84 velocity=49 time=7\n",
      "note_on channel=0 note=84 velocity=0 time=113\n",
      "note_on channel=0 note=89 velocity=49 time=7\n",
      "note_on channel=0 note=89 velocity=0 time=113\n",
      "note_on channel=0 note=82 velocity=49 time=7\n",
      "note_on channel=0 note=82 velocity=0 time=113\n",
      "note_on channel=0 note=89 velocity=49 time=7\n",
      "note_on channel=0 note=89 velocity=0 time=113\n",
      "note_on channel=0 note=86 velocity=49 time=7\n",
      "note_on channel=0 note=86 velocity=0 time=113\n",
      "note_on channel=0 note=89 velocity=49 time=7\n",
      "note_on channel=0 note=89 velocity=0 time=113\n",
      "note_on channel=0 note=94 velocity=49 time=7\n",
      "note_on channel=0 note=94 velocity=0 time=113\n",
      "note_on channel=0 note=89 velocity=49 time=7\n",
      "note_on channel=0 note=89 velocity=0 time=113\n",
      "note_on channel=0 note=86 velocity=49 time=7\n",
      "note_on channel=0 note=86 velocity=0 time=113\n",
      "note_on channel=0 note=89 velocity=49 time=7\n",
      "note_on channel=0 note=89 velocity=0 time=113\n",
      "note_on channel=0 note=83 velocity=49 time=7\n",
      "note_on channel=0 note=83 velocity=0 time=113\n",
      "note_on channel=0 note=91 velocity=49 time=7\n",
      "note_on channel=0 note=91 velocity=0 time=113\n",
      "note_on channel=0 note=86 velocity=49 time=7\n",
      "note_on channel=0 note=86 velocity=0 time=113\n",
      "note_on channel=0 note=91 velocity=49 time=7\n",
      "note_on channel=0 note=91 velocity=0 time=113\n",
      "note_on channel=0 note=95 velocity=49 time=7\n",
      "note_on channel=0 note=95 velocity=0 time=113\n",
      "note_on channel=0 note=91 velocity=49 time=7\n",
      "note_on channel=0 note=91 velocity=0 time=113\n",
      "note_on channel=0 note=86 velocity=49 time=7\n",
      "note_on channel=0 note=86 velocity=0 time=113\n",
      "note_on channel=0 note=91 velocity=49 time=7\n",
      "note_on channel=0 note=91 velocity=0 time=113\n",
      "note_on channel=0 note=84 velocity=49 time=7\n",
      "note_on channel=0 note=84 velocity=0 time=113\n",
      "note_on channel=0 note=91 velocity=49 time=7\n",
      "note_on channel=0 note=91 velocity=0 time=113\n",
      "note_on channel=0 note=87 velocity=49 time=7\n",
      "note_on channel=0 note=87 velocity=0 time=113\n",
      "note_on channel=0 note=91 velocity=49 time=7\n",
      "note_on channel=0 note=91 velocity=0 time=113\n",
      "note_on channel=0 note=96 velocity=49 time=7\n",
      "note_on channel=0 note=96 velocity=0 time=113\n",
      "note_on channel=0 note=91 velocity=49 time=7\n",
      "note_on channel=0 note=91 velocity=0 time=113\n",
      "note_on channel=0 note=87 velocity=49 time=7\n",
      "note_on channel=0 note=87 velocity=0 time=113\n",
      "note_on channel=0 note=91 velocity=49 time=7\n",
      "note_on channel=0 note=91 velocity=0 time=113\n",
      "note_on channel=0 note=83 velocity=49 time=7\n",
      "note_on channel=0 note=83 velocity=0 time=113\n",
      "note_on channel=0 note=91 velocity=49 time=7\n",
      "note_on channel=0 note=91 velocity=0 time=113\n",
      "note_on channel=0 note=86 velocity=49 time=7\n",
      "note_on channel=0 note=86 velocity=0 time=113\n",
      "note_on channel=0 note=91 velocity=49 time=7\n",
      "note_on channel=0 note=91 velocity=0 time=113\n",
      "note_on channel=0 note=95 velocity=49 time=7\n",
      "note_on channel=0 note=95 velocity=0 time=113\n",
      "note_on channel=0 note=91 velocity=49 time=7\n",
      "note_on channel=0 note=91 velocity=0 time=113\n",
      "note_on channel=0 note=86 velocity=49 time=7\n",
      "note_on channel=0 note=86 velocity=0 time=113\n",
      "note_on channel=0 note=91 velocity=49 time=7\n",
      "note_on channel=0 note=91 velocity=0 time=113\n",
      "note_on channel=0 note=84 velocity=49 time=7\n",
      "note_on channel=0 note=84 velocity=0 time=113\n",
      "note_on channel=0 note=91 velocity=56 time=7\n",
      "note_on channel=0 note=91 velocity=0 time=113\n",
      "note_on channel=0 note=87 velocity=63 time=7\n",
      "note_on channel=0 note=87 velocity=0 time=113\n",
      "note_on channel=0 note=91 velocity=70 time=7\n",
      "note_on channel=0 note=91 velocity=0 time=113\n",
      "note_on channel=0 note=96 velocity=92 time=7\n",
      "note_on channel=0 note=96 velocity=0 time=159\n",
      "note_on channel=0 note=96 velocity=109 time=81\n",
      "note_on channel=0 note=96 velocity=0 time=159\n",
      "note_on channel=0 note=96 velocity=127 time=81\n",
      "note_on channel=0 note=96 velocity=0 time=159\n",
      "note_on channel=0 note=77 velocity=112 time=10641\n",
      "note_on channel=0 note=77 velocity=0 time=227\n",
      "note_on channel=0 note=83 velocity=112 time=13\n",
      "note_on channel=0 note=83 velocity=0 time=227\n",
      "note_on channel=0 note=86 velocity=112 time=13\n",
      "note_on channel=0 note=86 velocity=0 time=227\n",
      "note_on channel=0 note=89 velocity=127 time=13\n",
      "note_on channel=0 note=89 velocity=0 time=479\n",
      "note_on channel=0 note=86 velocity=106 time=1\n",
      "note_on channel=0 note=86 velocity=0 time=227\n",
      "note_on channel=0 note=83 velocity=106 time=13\n",
      "note_on channel=0 note=83 velocity=0 time=227\n",
      "note_on channel=0 note=77 velocity=127 time=13\n",
      "note_on channel=0 note=77 velocity=0 time=479\n",
      "note_on channel=0 note=74 velocity=106 time=1\n",
      "note_on channel=0 note=74 velocity=0 time=227\n",
      "note_on channel=0 note=71 velocity=106 time=13\n",
      "note_on channel=0 note=71 velocity=0 time=227\n",
      "note_on channel=0 note=65 velocity=127 time=13\n",
      "note_on channel=0 note=65 velocity=0 time=479\n",
      "note_on channel=0 note=62 velocity=106 time=1\n",
      "note_on channel=0 note=62 velocity=0 time=227\n",
      "note_on channel=0 note=59 velocity=106 time=13\n",
      "note_on channel=0 note=59 velocity=0 time=227\n",
      "note_on channel=0 note=53 velocity=127 time=13\n",
      "note_on channel=0 note=53 velocity=0 time=479\n",
      "note_on channel=0 note=59 velocity=106 time=1\n",
      "note_on channel=0 note=59 velocity=0 time=227\n",
      "note_on channel=0 note=62 velocity=106 time=13\n",
      "note_on channel=0 note=62 velocity=0 time=227\n",
      "note_on channel=0 note=65 velocity=106 time=13\n",
      "note_on channel=0 note=65 velocity=0 time=455\n",
      "note_on channel=0 note=71 velocity=99 time=25\n",
      "note_on channel=0 note=71 velocity=0 time=227\n",
      "note_on channel=0 note=74 velocity=96 time=13\n",
      "note_on channel=0 note=74 velocity=0 time=227\n",
      "note_on channel=0 note=77 velocity=92 time=13\n",
      "note_on channel=0 note=77 velocity=0 time=455\n",
      "note_on channel=0 note=83 velocity=85 time=25\n",
      "note_on channel=0 note=83 velocity=0 time=227\n",
      "note_on channel=0 note=86 velocity=82 time=13\n",
      "note_on channel=0 note=86 velocity=0 time=227\n",
      "note_on channel=0 note=89 velocity=78 time=13\n",
      "note_on channel=0 note=89 velocity=0 time=455\n",
      "note_on channel=0 note=83 velocity=71 time=25\n",
      "note_on channel=0 note=83 velocity=0 time=227\n",
      "note_on channel=0 note=86 velocity=67 time=13\n",
      "note_on channel=0 note=86 velocity=0 time=227\n",
      "note_on channel=0 note=89 velocity=64 time=13\n",
      "note_on channel=0 note=89 velocity=0 time=455\n",
      "note_on channel=0 note=83 velocity=57 time=25\n",
      "note_on channel=0 note=83 velocity=0 time=227\n",
      "note_on channel=0 note=86 velocity=53 time=13\n",
      "note_on channel=0 note=86 velocity=0 time=227\n",
      "note_on channel=0 note=89 velocity=49 time=13\n",
      "note_on channel=0 note=89 velocity=0 time=455\n",
      "note_on channel=0 note=83 velocity=49 time=25\n",
      "note_on channel=0 note=83 velocity=0 time=227\n",
      "note_on channel=0 note=86 velocity=49 time=13\n",
      "note_on channel=0 note=86 velocity=0 time=227\n",
      "note_on channel=0 note=89 velocity=49 time=13\n",
      "note_on channel=0 note=89 velocity=0 time=455\n",
      "note_on channel=0 note=83 velocity=49 time=25\n",
      "note_on channel=0 note=83 velocity=0 time=227\n",
      "note_on channel=0 note=86 velocity=49 time=13\n",
      "note_on channel=0 note=86 velocity=0 time=227\n",
      "MetaMessage('set_tempo', tempo=461538, time=13)\n",
      "note_on channel=0 note=89 velocity=49 time=0\n",
      "note_on channel=0 note=89 velocity=0 time=455\n",
      "note_on channel=0 note=83 velocity=45 time=25\n",
      "note_on channel=0 note=83 velocity=0 time=227\n",
      "note_on channel=0 note=86 velocity=43 time=13\n",
      "note_on channel=0 note=86 velocity=0 time=227\n",
      "MetaMessage('set_tempo', tempo=500000, time=13)\n",
      "note_on channel=0 note=89 velocity=41 time=0\n",
      "note_on channel=0 note=89 velocity=0 time=455\n",
      "note_on channel=0 note=83 velocity=37 time=25\n",
      "note_on channel=0 note=83 velocity=0 time=227\n",
      "note_on channel=0 note=86 velocity=35 time=13\n",
      "note_on channel=0 note=86 velocity=0 time=227\n",
      "MetaMessage('set_tempo', tempo=599999, time=13)\n",
      "note_on channel=0 note=91 velocity=33 time=0\n",
      "note_on channel=0 note=91 velocity=0 time=455\n",
      "MetaMessage('set_tempo', tempo=1799996, time=25)\n",
      "note_on channel=0 note=89 velocity=33 time=0\n",
      "note_on channel=0 note=89 velocity=0 time=227\n",
      "MetaMessage('set_tempo', tempo=599999, time=12)\n",
      "MetaMessage('set_tempo', tempo=2999994, time=1)\n",
      "note_on channel=0 note=86 velocity=33 time=0\n",
      "note_on channel=0 note=86 velocity=0 time=227\n",
      "MetaMessage('set_tempo', tempo=599999, time=12)\n",
      "note_on channel=0 note=91 velocity=33 time=1\n",
      "note_on channel=0 note=91 velocity=0 time=75\n",
      "note_on channel=0 note=89 velocity=33 time=5\n",
      "note_on channel=0 note=89 velocity=0 time=75\n",
      "note_on channel=0 note=86 velocity=33 time=5\n",
      "note_on channel=0 note=86 velocity=0 time=75\n",
      "note_on channel=0 note=91 velocity=33 time=5\n",
      "note_on channel=0 note=91 velocity=0 time=75\n",
      "note_on channel=0 note=89 velocity=33 time=5\n",
      "note_on channel=0 note=89 velocity=0 time=75\n",
      "note_on channel=0 note=86 velocity=33 time=5\n",
      "note_on channel=0 note=86 velocity=0 time=75\n",
      "note_on channel=0 note=91 velocity=33 time=5\n",
      "note_on channel=0 note=91 velocity=0 time=75\n",
      "note_on channel=0 note=89 velocity=33 time=5\n",
      "note_on channel=0 note=89 velocity=0 time=75\n",
      "note_on channel=0 note=86 velocity=33 time=5\n",
      "note_on channel=0 note=86 velocity=0 time=75\n",
      "note_on channel=0 note=91 velocity=33 time=5\n",
      "note_on channel=0 note=91 velocity=0 time=75\n",
      "note_on channel=0 note=89 velocity=33 time=5\n",
      "note_on channel=0 note=89 velocity=0 time=75\n",
      "note_on channel=0 note=86 velocity=33 time=5\n",
      "note_on channel=0 note=86 velocity=0 time=75\n",
      "note_on channel=0 note=91 velocity=33 time=5\n",
      "note_on channel=0 note=91 velocity=0 time=75\n",
      "note_on channel=0 note=89 velocity=33 time=5\n",
      "note_on channel=0 note=89 velocity=0 time=75\n",
      "note_on channel=0 note=86 velocity=33 time=5\n",
      "note_on channel=0 note=86 velocity=0 time=75\n",
      "note_on channel=0 note=91 velocity=33 time=5\n",
      "note_on channel=0 note=91 velocity=0 time=75\n",
      "note_on channel=0 note=89 velocity=33 time=5\n",
      "note_on channel=0 note=89 velocity=0 time=75\n",
      "note_on channel=0 note=86 velocity=33 time=5\n",
      "note_on channel=0 note=86 velocity=0 time=75\n",
      "MetaMessage('set_tempo', tempo=666667, time=5)\n",
      "note_on channel=0 note=91 velocity=33 time=0\n",
      "note_on channel=0 note=91 velocity=0 time=75\n",
      "note_on channel=0 note=89 velocity=33 time=5\n",
      "note_on channel=0 note=89 velocity=0 time=75\n",
      "note_on channel=0 note=86 velocity=33 time=5\n",
      "note_on channel=0 note=86 velocity=0 time=75\n",
      "note_on channel=0 note=91 velocity=33 time=5\n",
      "note_on channel=0 note=91 velocity=0 time=75\n",
      "note_on channel=0 note=89 velocity=33 time=5\n",
      "note_on channel=0 note=89 velocity=0 time=75\n",
      "note_on channel=0 note=86 velocity=33 time=5\n",
      "note_on channel=0 note=86 velocity=0 time=75\n",
      "MetaMessage('set_tempo', tempo=599999, time=5)\n",
      "note_on channel=0 note=91 velocity=33 time=0\n",
      "control_change channel=0 control=64 value=127 time=2\n",
      "note_on channel=0 note=91 velocity=0 time=47\n",
      "note_on channel=0 note=89 velocity=35 time=4\n",
      "note_on channel=0 note=89 velocity=0 time=49\n",
      "note_on channel=0 note=88 velocity=38 time=4\n",
      "note_on channel=0 note=88 velocity=0 time=49\n",
      "note_on channel=0 note=86 velocity=40 time=4\n",
      "note_on channel=0 note=86 velocity=0 time=49\n",
      "note_on channel=0 note=84 velocity=43 time=4\n",
      "note_on channel=0 note=84 velocity=0 time=49\n",
      "note_on channel=0 note=83 velocity=46 time=4\n",
      "note_on channel=0 note=83 velocity=0 time=49\n",
      "note_on channel=0 note=81 velocity=48 time=4\n",
      "note_on channel=0 note=81 velocity=0 time=49\n",
      "note_on channel=0 note=79 velocity=51 time=4\n",
      "note_on channel=0 note=79 velocity=0 time=49\n",
      "note_on channel=0 note=77 velocity=54 time=4\n",
      "note_on channel=0 note=77 velocity=0 time=49\n",
      "note_on channel=0 note=76 velocity=56 time=4\n",
      "note_on channel=0 note=76 velocity=0 time=49\n",
      "note_on channel=0 note=74 velocity=59 time=4\n",
      "note_on channel=0 note=74 velocity=0 time=49\n",
      "note_on channel=0 note=72 velocity=62 time=4\n",
      "note_on channel=0 note=72 velocity=0 time=49\n",
      "note_on channel=0 note=71 velocity=64 time=4\n",
      "note_on channel=0 note=71 velocity=0 time=49\n",
      "note_on channel=0 note=69 velocity=67 time=4\n",
      "note_on channel=0 note=69 velocity=0 time=49\n",
      "note_on channel=0 note=67 velocity=70 time=4\n",
      "control_change channel=0 control=64 value=0 time=1\n",
      "note_on channel=0 note=67 velocity=0 time=48\n",
      "note_on channel=0 note=68 velocity=70 time=4\n",
      "note_on channel=0 note=68 velocity=0 time=49\n",
      "note_on channel=0 note=69 velocity=69 time=4\n",
      "note_on channel=0 note=69 velocity=0 time=49\n",
      "note_on channel=0 note=70 velocity=67 time=4\n",
      "note_on channel=0 note=70 velocity=0 time=49\n",
      "note_on channel=0 note=71 velocity=66 time=10\n",
      "note_on channel=0 note=71 velocity=0 time=52\n",
      "note_on channel=0 note=72 velocity=64 time=4\n",
      "note_on channel=0 note=72 velocity=0 time=52\n",
      "note_on channel=0 note=73 velocity=63 time=4\n",
      "note_on channel=0 note=73 velocity=0 time=52\n",
      "note_on channel=0 note=74 velocity=61 time=4\n",
      "note_on channel=0 note=74 velocity=0 time=52\n",
      "note_on channel=0 note=75 velocity=59 time=4\n",
      "note_on channel=0 note=75 velocity=0 time=52\n",
      "note_on channel=0 note=76 velocity=58 time=4\n",
      "note_on channel=0 note=76 velocity=0 time=52\n",
      "note_on channel=0 note=77 velocity=56 time=4\n",
      "note_on channel=0 note=77 velocity=0 time=52\n",
      "note_on channel=0 note=78 velocity=55 time=4\n",
      "note_on channel=0 note=78 velocity=0 time=52\n",
      "note_on channel=0 note=79 velocity=53 time=4\n",
      "note_on channel=0 note=79 velocity=0 time=52\n",
      "note_on channel=0 note=80 velocity=52 time=4\n",
      "note_on channel=0 note=80 velocity=0 time=52\n",
      "note_on channel=0 note=81 velocity=50 time=4\n",
      "note_on channel=0 note=81 velocity=0 time=52\n",
      "note_on channel=0 note=82 velocity=48 time=4\n",
      "note_on channel=0 note=82 velocity=0 time=52\n",
      "note_on channel=0 note=83 velocity=47 time=4\n",
      "note_on channel=0 note=83 velocity=0 time=52\n",
      "note_on channel=0 note=84 velocity=45 time=4\n",
      "note_on channel=0 note=84 velocity=0 time=52\n",
      "note_on channel=0 note=85 velocity=44 time=4\n",
      "note_on channel=0 note=85 velocity=0 time=52\n",
      "note_on channel=0 note=86 velocity=42 time=4\n",
      "note_on channel=0 note=86 velocity=0 time=52\n",
      "note_on channel=0 note=87 velocity=40 time=4\n",
      "note_on channel=0 note=87 velocity=0 time=52\n",
      "MetaMessage('set_tempo', tempo=416667, time=12)\n",
      "note_on channel=0 note=88 velocity=40 time=0\n",
      "note_on channel=0 note=88 velocity=0 time=227\n",
      "note_on channel=0 note=88 velocity=40 time=493\n",
      "note_on channel=0 note=88 velocity=0 time=113\n",
      "note_on channel=0 note=76 velocity=40 time=7\n",
      "note_on channel=0 note=76 velocity=0 time=113\n",
      "note_on channel=0 note=88 velocity=40 time=7\n",
      "note_on channel=0 note=88 velocity=0 time=455\n",
      "note_on channel=0 note=88 velocity=40 time=265\n",
      "note_on channel=0 note=88 velocity=0 time=113\n",
      "note_on channel=0 note=76 velocity=40 time=7\n",
      "note_on channel=0 note=76 velocity=0 time=113\n",
      "note_on channel=0 note=88 velocity=40 time=7\n",
      "note_on channel=0 note=88 velocity=0 time=227\n",
      "note_on channel=0 note=88 velocity=42 time=13\n",
      "note_on channel=0 note=88 velocity=0 time=113\n",
      "note_on channel=0 note=76 velocity=43 time=7\n",
      "note_on channel=0 note=76 velocity=0 time=113\n",
      "note_on channel=0 note=88 velocity=44 time=7\n",
      "note_on channel=0 note=88 velocity=0 time=227\n",
      "note_on channel=0 note=88 velocity=46 time=13\n",
      "note_on channel=0 note=88 velocity=0 time=113\n",
      "note_on channel=0 note=76 velocity=47 time=7\n",
      "note_on channel=0 note=76 velocity=0 time=113\n",
      "note_on channel=0 note=88 velocity=49 time=7\n",
      "note_on channel=0 note=88 velocity=0 time=227\n",
      "note_on channel=0 note=88 velocity=49 time=493\n",
      "note_on channel=0 note=88 velocity=0 time=113\n",
      "note_on channel=0 note=76 velocity=49 time=7\n",
      "note_on channel=0 note=76 velocity=0 time=113\n",
      "note_on channel=0 note=88 velocity=49 time=7\n",
      "note_on channel=0 note=88 velocity=0 time=227\n",
      "note_on channel=0 note=84 velocity=49 time=13\n",
      "note_on channel=0 note=84 velocity=0 time=113\n",
      "note_on channel=0 note=72 velocity=49 time=7\n",
      "note_on channel=0 note=72 velocity=0 time=113\n",
      "note_on channel=0 note=84 velocity=49 time=7\n",
      "note_on channel=0 note=84 velocity=0 time=227\n",
      "note_on channel=0 note=81 velocity=49 time=13\n",
      "note_on channel=0 note=81 velocity=0 time=113\n",
      "note_on channel=0 note=69 velocity=49 time=7\n",
      "note_on channel=0 note=69 velocity=0 time=113\n",
      "note_on channel=0 note=81 velocity=49 time=7\n",
      "note_on channel=0 note=81 velocity=0 time=227\n",
      "note_on channel=0 note=81 velocity=49 time=493\n",
      "note_on channel=0 note=81 velocity=0 time=113\n",
      "note_on channel=0 note=69 velocity=49 time=7\n",
      "note_on channel=0 note=69 velocity=0 time=113\n",
      "note_on channel=0 note=81 velocity=49 time=7\n",
      "note_on channel=0 note=81 velocity=0 time=227\n",
      "note_on channel=0 note=86 velocity=49 time=13\n",
      "note_on channel=0 note=86 velocity=0 time=113\n",
      "note_on channel=0 note=74 velocity=49 time=7\n",
      "note_on channel=0 note=74 velocity=0 time=113\n",
      "note_on channel=0 note=86 velocity=49 time=7\n",
      "note_on channel=0 note=86 velocity=0 time=227\n",
      "note_on channel=0 note=83 velocity=49 time=13\n",
      "note_on channel=0 note=83 velocity=0 time=113\n",
      "note_on channel=0 note=71 velocity=49 time=7\n",
      "note_on channel=0 note=71 velocity=0 time=113\n",
      "note_on channel=0 note=83 velocity=49 time=7\n",
      "note_on channel=0 note=83 velocity=0 time=227\n",
      "note_on channel=0 note=79 velocity=49 time=13\n",
      "note_on channel=0 note=79 velocity=0 time=113\n",
      "note_on channel=0 note=67 velocity=49 time=7\n",
      "note_on channel=0 note=67 velocity=0 time=113\n",
      "note_on channel=0 note=79 velocity=49 time=7\n",
      "note_on channel=0 note=79 velocity=0 time=227\n",
      "note_on channel=0 note=81 velocity=49 time=13\n",
      "note_on channel=0 note=81 velocity=0 time=113\n",
      "note_on channel=0 note=69 velocity=49 time=7\n",
      "note_on channel=0 note=69 velocity=0 time=113\n",
      "note_on channel=0 note=81 velocity=49 time=7\n",
      "note_on channel=0 note=81 velocity=0 time=227\n",
      "note_on channel=0 note=74 velocity=49 time=13\n",
      "note_on channel=0 note=74 velocity=0 time=113\n",
      "note_on channel=0 note=62 velocity=49 time=7\n",
      "note_on channel=0 note=62 velocity=0 time=113\n",
      "note_on channel=0 note=74 velocity=49 time=7\n",
      "note_on channel=0 note=74 velocity=0 time=227\n",
      "note_on channel=0 note=71 velocity=49 time=13\n",
      "note_on channel=0 note=71 velocity=0 time=113\n",
      "note_on channel=0 note=59 velocity=49 time=7\n",
      "note_on channel=0 note=59 velocity=0 time=113\n",
      "note_on channel=0 note=71 velocity=49 time=7\n",
      "note_on channel=0 note=71 velocity=0 time=455\n",
      "note_on channel=0 note=86 velocity=127 time=13225\n",
      "note_on channel=0 note=86 velocity=0 time=479\n",
      "note_on channel=0 note=74 velocity=106 time=1\n",
      "note_on channel=0 note=74 velocity=0 time=119\n",
      "note_on channel=0 note=84 velocity=106 time=121\n",
      "note_on channel=0 note=84 velocity=0 time=119\n",
      "note_on channel=0 note=72 velocity=106 time=121\n",
      "note_on channel=0 note=72 velocity=0 time=119\n",
      "note_on channel=0 note=83 velocity=106 time=121\n",
      "note_on channel=0 note=83 velocity=0 time=119\n",
      "note_on channel=0 note=71 velocity=106 time=121\n",
      "note_on channel=0 note=71 velocity=0 time=119\n",
      "note_on channel=0 note=81 velocity=106 time=121\n",
      "note_on channel=0 note=81 velocity=0 time=119\n",
      "note_on channel=0 note=69 velocity=106 time=121\n",
      "note_on channel=0 note=69 velocity=0 time=119\n",
      "note_on channel=0 note=79 velocity=106 time=121\n",
      "note_on channel=0 note=79 velocity=0 time=119\n",
      "note_on channel=0 note=67 velocity=106 time=121\n",
      "note_on channel=0 note=67 velocity=0 time=119\n",
      "note_on channel=0 note=81 velocity=106 time=121\n",
      "note_on channel=0 note=81 velocity=0 time=119\n",
      "note_on channel=0 note=69 velocity=106 time=121\n",
      "note_on channel=0 note=69 velocity=0 time=119\n",
      "note_on channel=0 note=78 velocity=106 time=121\n",
      "note_on channel=0 note=78 velocity=0 time=119\n",
      "note_on channel=0 note=66 velocity=106 time=121\n",
      "note_on channel=0 note=66 velocity=0 time=119\n",
      "note_on channel=0 note=79 velocity=106 time=121\n",
      "note_on channel=0 note=79 velocity=0 time=113\n",
      "note_on channel=0 note=67 velocity=106 time=7\n",
      "note_on channel=0 note=67 velocity=0 time=113\n",
      "note_on channel=0 note=71 velocity=106 time=7\n",
      "note_on channel=0 note=71 velocity=0 time=113\n",
      "note_on channel=0 note=74 velocity=106 time=7\n",
      "note_on channel=0 note=74 velocity=0 time=113\n",
      "note_on channel=0 note=79 velocity=106 time=7\n",
      "note_on channel=0 note=79 velocity=0 time=113\n",
      "note_on channel=0 note=83 velocity=106 time=7\n",
      "note_on channel=0 note=83 velocity=0 time=113\n",
      "note_on channel=0 note=86 velocity=106 time=7\n",
      "note_on channel=0 note=86 velocity=0 time=113\n",
      "note_on channel=0 note=83 velocity=106 time=7\n",
      "note_on channel=0 note=83 velocity=0 time=113\n",
      "note_on channel=0 note=84 velocity=127 time=7\n",
      "note_on channel=0 note=84 velocity=0 time=119\n",
      "note_on channel=0 note=88 velocity=106 time=1\n",
      "note_on channel=0 note=88 velocity=0 time=113\n",
      "note_on channel=0 note=81 velocity=106 time=7\n",
      "note_on channel=0 note=81 velocity=0 time=113\n",
      "note_on channel=0 note=84 velocity=106 time=7\n",
      "note_on channel=0 note=84 velocity=0 time=113\n",
      "note_on channel=0 note=78 velocity=106 time=7\n",
      "note_on channel=0 note=78 velocity=0 time=113\n",
      "note_on channel=0 note=81 velocity=106 time=7\n",
      "note_on channel=0 note=81 velocity=0 time=113\n",
      "note_on channel=0 note=74 velocity=106 time=7\n",
      "note_on channel=0 note=74 velocity=0 time=113\n",
      "note_on channel=0 note=78 velocity=106 time=7\n",
      "note_on channel=0 note=78 velocity=0 time=113\n",
      "note_on channel=0 note=79 velocity=106 time=7\n",
      "note_on channel=0 note=79 velocity=0 time=113\n",
      "note_on channel=0 note=83 velocity=106 time=7\n",
      "note_on channel=0 note=83 velocity=0 time=113\n",
      "note_on channel=0 note=74 velocity=106 time=7\n",
      "note_on channel=0 note=74 velocity=0 time=113\n",
      "note_on channel=0 note=79 velocity=106 time=7\n",
      "note_on channel=0 note=79 velocity=0 time=113\n",
      "note_on channel=0 note=71 velocity=106 time=7\n",
      "note_on channel=0 note=71 velocity=0 time=113\n",
      "note_on channel=0 note=74 velocity=106 time=7\n",
      "note_on channel=0 note=74 velocity=0 time=113\n",
      "note_on channel=0 note=67 velocity=106 time=7\n",
      "note_on channel=0 note=67 velocity=0 time=113\n",
      "note_on channel=0 note=71 velocity=106 time=7\n",
      "note_on channel=0 note=71 velocity=0 time=113\n",
      "note_on channel=0 note=72 velocity=49 time=7\n",
      "note_on channel=0 note=72 velocity=0 time=113\n",
      "note_on channel=0 note=76 velocity=49 time=7\n",
      "note_on channel=0 note=76 velocity=0 time=113\n",
      "note_on channel=0 note=69 velocity=49 time=7\n",
      "note_on channel=0 note=69 velocity=0 time=113\n",
      "note_on channel=0 note=72 velocity=49 time=7\n",
      "note_on channel=0 note=72 velocity=0 time=113\n",
      "note_on channel=0 note=66 velocity=49 time=7\n",
      "note_on channel=0 note=66 velocity=0 time=113\n",
      "note_on channel=0 note=69 velocity=49 time=7\n",
      "note_on channel=0 note=69 velocity=0 time=113\n",
      "note_on channel=0 note=62 velocity=49 time=7\n",
      "note_on channel=0 note=62 velocity=0 time=113\n",
      "note_on channel=0 note=66 velocity=49 time=7\n",
      "note_on channel=0 note=66 velocity=0 time=113\n",
      "note_on channel=0 note=67 velocity=102 time=7\n",
      "note_on channel=0 note=67 velocity=0 time=113\n",
      "note_on channel=0 note=55 velocity=102 time=7\n",
      "note_on channel=0 note=55 velocity=0 time=113\n",
      "note_on channel=0 note=59 velocity=102 time=7\n",
      "note_on channel=0 note=59 velocity=0 time=113\n",
      "note_on channel=0 note=62 velocity=102 time=7\n",
      "note_on channel=0 note=62 velocity=0 time=113\n",
      "note_on channel=0 note=67 velocity=102 time=7\n",
      "note_on channel=0 note=67 velocity=0 time=113\n",
      "note_on channel=0 note=71 velocity=102 time=7\n",
      "note_on channel=0 note=71 velocity=0 time=113\n",
      "note_on channel=0 note=74 velocity=102 time=7\n",
      "note_on channel=0 note=74 velocity=0 time=113\n",
      "note_on channel=0 note=71 velocity=102 time=7\n",
      "note_on channel=0 note=71 velocity=0 time=113\n",
      "note_on channel=0 note=72 velocity=127 time=7\n",
      "note_on channel=0 note=72 velocity=0 time=119\n",
      "note_on channel=0 note=76 velocity=102 time=1\n",
      "note_on channel=0 note=76 velocity=0 time=113\n",
      "note_on channel=0 note=69 velocity=102 time=7\n",
      "note_on channel=0 note=69 velocity=0 time=113\n",
      "note_on channel=0 note=72 velocity=102 time=7\n",
      "note_on channel=0 note=72 velocity=0 time=113\n",
      "note_on channel=0 note=66 velocity=102 time=7\n",
      "note_on channel=0 note=66 velocity=0 time=113\n",
      "note_on channel=0 note=69 velocity=102 time=7\n",
      "note_on channel=0 note=69 velocity=0 time=113\n",
      "note_on channel=0 note=60 velocity=102 time=7\n",
      "note_on channel=0 note=60 velocity=0 time=113\n",
      "note_on channel=0 note=66 velocity=102 time=7\n",
      "note_on channel=0 note=66 velocity=0 time=113\n",
      "note_on channel=0 note=57 velocity=102 time=7\n",
      "note_on channel=0 note=57 velocity=0 time=113\n",
      "note_on channel=0 note=60 velocity=102 time=7\n",
      "note_on channel=0 note=60 velocity=0 time=113\n",
      "note_on channel=0 note=66 velocity=102 time=7\n",
      "note_on channel=0 note=66 velocity=0 time=113\n",
      "note_on channel=0 note=60 velocity=102 time=7\n",
      "note_on channel=0 note=60 velocity=0 time=113\n",
      "note_on channel=0 note=69 velocity=102 time=7\n",
      "note_on channel=0 note=69 velocity=0 time=113\n",
      "note_on channel=0 note=66 velocity=102 time=7\n",
      "note_on channel=0 note=66 velocity=0 time=113\n",
      "note_on channel=0 note=72 velocity=102 time=7\n",
      "note_on channel=0 note=72 velocity=0 time=113\n",
      "note_on channel=0 note=69 velocity=102 time=7\n",
      "note_on channel=0 note=69 velocity=0 time=113\n",
      "note_on channel=0 note=78 velocity=90 time=7\n",
      "note_on channel=0 note=78 velocity=0 time=151\n",
      "note_on channel=0 note=72 velocity=90 time=9\n",
      "note_on channel=0 note=72 velocity=0 time=151\n",
      "note_on channel=0 note=81 velocity=90 time=9\n",
      "note_on channel=0 note=81 velocity=0 time=151\n",
      "note_on channel=0 note=78 velocity=90 time=9\n",
      "note_on channel=0 note=78 velocity=0 time=151\n",
      "note_on channel=0 note=84 velocity=90 time=9\n",
      "note_on channel=0 note=84 velocity=0 time=151\n",
      "note_on channel=0 note=81 velocity=90 time=9\n",
      "note_on channel=0 note=81 velocity=0 time=151\n",
      "note_on channel=0 note=78 velocity=90 time=9\n",
      "note_on channel=0 note=78 velocity=0 time=151\n",
      "note_on channel=0 note=84 velocity=89 time=9\n",
      "note_on channel=0 note=84 velocity=0 time=151\n",
      "note_on channel=0 note=81 velocity=87 time=9\n",
      "note_on channel=0 note=81 velocity=0 time=151\n",
      "note_on channel=0 note=78 velocity=85 time=9\n",
      "note_on channel=0 note=78 velocity=0 time=151\n",
      "note_on channel=0 note=84 velocity=84 time=9\n",
      "note_on channel=0 note=84 velocity=0 time=151\n",
      "note_on channel=0 note=81 velocity=82 time=9\n",
      "note_on channel=0 note=81 velocity=0 time=151\n",
      "note_on channel=0 note=78 velocity=80 time=9\n",
      "note_on channel=0 note=78 velocity=0 time=151\n",
      "note_on channel=0 note=84 velocity=79 time=9\n",
      "note_on channel=0 note=84 velocity=0 time=151\n",
      "note_on channel=0 note=81 velocity=77 time=9\n",
      "note_on channel=0 note=81 velocity=0 time=151\n",
      "note_on channel=0 note=78 velocity=75 time=9\n",
      "note_on channel=0 note=78 velocity=0 time=151\n",
      "note_on channel=0 note=85 velocity=73 time=9\n",
      "note_on channel=0 note=85 velocity=0 time=151\n",
      "note_on channel=0 note=81 velocity=72 time=9\n",
      "note_on channel=0 note=81 velocity=0 time=151\n",
      "note_on channel=0 note=78 velocity=70 time=9\n",
      "note_on channel=0 note=78 velocity=0 time=151\n",
      "note_on channel=0 note=85 velocity=68 time=9\n",
      "note_on channel=0 note=85 velocity=0 time=151\n",
      "note_on channel=0 note=81 velocity=67 time=9\n",
      "note_on channel=0 note=81 velocity=0 time=151\n",
      "note_on channel=0 note=78 velocity=65 time=9\n",
      "note_on channel=0 note=78 velocity=0 time=151\n",
      "note_on channel=0 note=85 velocity=63 time=9\n",
      "note_on channel=0 note=85 velocity=0 time=151\n",
      "note_on channel=0 note=82 velocity=61 time=9\n",
      "note_on channel=0 note=82 velocity=0 time=151\n",
      "note_on channel=0 note=78 velocity=60 time=9\n",
      "note_on channel=0 note=78 velocity=0 time=151\n",
      "note_on channel=0 note=85 velocity=58 time=9\n",
      "note_on channel=0 note=85 velocity=0 time=151\n",
      "note_on channel=0 note=82 velocity=56 time=9\n",
      "note_on channel=0 note=82 velocity=0 time=151\n",
      "note_on channel=0 note=78 velocity=55 time=9\n",
      "note_on channel=0 note=78 velocity=0 time=151\n",
      "note_on channel=0 note=85 velocity=53 time=9\n",
      "note_on channel=0 note=85 velocity=0 time=151\n",
      "note_on channel=0 note=82 velocity=51 time=9\n",
      "note_on channel=0 note=82 velocity=0 time=151\n",
      "note_on channel=0 note=78 velocity=49 time=9\n",
      "note_on channel=0 note=78 velocity=0 time=151\n",
      "note_on channel=0 note=85 velocity=49 time=9\n",
      "note_on channel=0 note=85 velocity=0 time=151\n",
      "note_on channel=0 note=82 velocity=49 time=9\n",
      "note_on channel=0 note=82 velocity=0 time=151\n",
      "note_on channel=0 note=78 velocity=49 time=9\n",
      "note_on channel=0 note=78 velocity=0 time=151\n",
      "note_on channel=0 note=85 velocity=49 time=9\n",
      "note_on channel=0 note=85 velocity=0 time=151\n",
      "note_on channel=0 note=82 velocity=49 time=9\n",
      "note_on channel=0 note=82 velocity=0 time=151\n",
      "note_on channel=0 note=78 velocity=49 time=9\n",
      "note_on channel=0 note=78 velocity=0 time=151\n",
      "note_on channel=0 note=85 velocity=47 time=9\n",
      "note_on channel=0 note=85 velocity=0 time=151\n",
      "note_on channel=0 note=82 velocity=44 time=9\n",
      "note_on channel=0 note=82 velocity=0 time=151\n",
      "note_on channel=0 note=78 velocity=41 time=9\n",
      "note_on channel=0 note=78 velocity=0 time=151\n",
      "note_on channel=0 note=85 velocity=39 time=9\n",
      "note_on channel=0 note=85 velocity=0 time=151\n",
      "note_on channel=0 note=82 velocity=36 time=9\n",
      "note_on channel=0 note=82 velocity=0 time=151\n",
      "MetaMessage('set_tempo', tempo=461538, time=9)\n",
      "note_on channel=0 note=78 velocity=33 time=0\n",
      "note_on channel=0 note=78 velocity=0 time=151\n",
      "note_on channel=0 note=85 velocity=33 time=9\n",
      "note_on channel=0 note=85 velocity=0 time=151\n",
      "note_on channel=0 note=82 velocity=33 time=9\n",
      "note_on channel=0 note=82 velocity=0 time=151\n",
      "note_on channel=0 note=78 velocity=33 time=9\n",
      "note_on channel=0 note=78 velocity=0 time=151\n",
      "note_on channel=0 note=85 velocity=33 time=9\n",
      "note_on channel=0 note=85 velocity=0 time=151\n",
      "note_on channel=0 note=82 velocity=33 time=9\n",
      "note_on channel=0 note=82 velocity=0 time=151\n",
      "MetaMessage('set_tempo', tempo=500000, time=9)\n",
      "note_on channel=0 note=78 velocity=33 time=0\n",
      "note_on channel=0 note=78 velocity=0 time=151\n",
      "note_on channel=0 note=85 velocity=33 time=9\n",
      "note_on channel=0 note=85 velocity=0 time=151\n",
      "note_on channel=0 note=82 velocity=33 time=9\n",
      "note_on channel=0 note=82 velocity=0 time=151\n",
      "note_on channel=0 note=78 velocity=33 time=9\n",
      "note_on channel=0 note=78 velocity=0 time=151\n",
      "note_on channel=0 note=85 velocity=33 time=9\n",
      "note_on channel=0 note=85 velocity=0 time=151\n",
      "note_on channel=0 note=82 velocity=33 time=9\n",
      "note_on channel=0 note=82 velocity=0 time=151\n",
      "MetaMessage('set_tempo', tempo=461538, time=9)\n",
      "note_on channel=0 note=85 velocity=40 time=0\n",
      "note_on channel=0 note=85 velocity=0 time=1367\n",
      "note_on channel=0 note=83 velocity=40 time=73\n",
      "note_on channel=0 note=83 velocity=0 time=227\n",
      "note_on channel=0 note=82 velocity=40 time=13\n",
      "note_on channel=0 note=82 velocity=0 time=227\n",
      "MetaMessage('set_tempo', tempo=923076, time=13)\n",
      "note_on channel=0 note=80 velocity=40 time=0\n",
      "note_on channel=0 note=80 velocity=0 time=78\n",
      "note_on channel=0 note=82 velocity=40 time=1\n",
      "note_on channel=0 note=82 velocity=0 time=78\n",
      "note_on channel=0 note=83 velocity=40 time=2\n",
      "note_on channel=0 note=83 velocity=0 time=78\n",
      "MetaMessage('set_tempo', tempo=461538, time=2)\n",
      "note_on channel=0 note=82 velocity=40 time=1\n",
      "note_on channel=0 note=82 velocity=0 time=227\n",
      "note_on channel=0 note=80 velocity=40 time=13\n",
      "note_on channel=0 note=80 velocity=0 time=455\n",
      "note_on channel=0 note=80 velocity=40 time=25\n",
      "note_on channel=0 note=80 velocity=0 time=227\n",
      "note_on channel=0 note=73 velocity=40 time=13\n",
      "note_on channel=0 note=73 velocity=0 time=227\n",
      "note_on channel=0 note=75 velocity=40 time=13\n",
      "note_on channel=0 note=75 velocity=0 time=227\n",
      "note_on channel=0 note=77 velocity=40 time=13\n",
      "note_on channel=0 note=77 velocity=0 time=227\n",
      "note_on channel=0 note=78 velocity=40 time=13\n",
      "note_on channel=0 note=78 velocity=0 time=227\n",
      "note_on channel=0 note=79 velocity=40 time=2773\n",
      "note_on channel=0 note=79 velocity=0 time=113\n",
      "note_on channel=0 note=81 velocity=40 time=7\n",
      "note_on channel=0 note=81 velocity=0 time=113\n",
      "note_on channel=0 note=83 velocity=40 time=7\n",
      "note_on channel=0 note=83 velocity=0 time=113\n",
      "note_on channel=0 note=84 velocity=40 time=7\n",
      "note_on channel=0 note=84 velocity=0 time=113\n",
      "note_on channel=0 note=86 velocity=40 time=7\n",
      "note_on channel=0 note=86 velocity=0 time=113\n",
      "note_on channel=0 note=88 velocity=40 time=7\n",
      "note_on channel=0 note=88 velocity=0 time=113\n",
      "note_on channel=0 note=89 velocity=40 time=7\n",
      "note_on channel=0 note=89 velocity=0 time=113\n",
      "note_on channel=0 note=91 velocity=40 time=7\n",
      "note_on channel=0 note=91 velocity=0 time=911\n",
      "note_on channel=0 note=91 velocity=40 time=49\n",
      "note_on channel=0 note=91 velocity=0 time=227\n",
      "note_on channel=0 note=93 velocity=40 time=13\n",
      "note_on channel=0 note=93 velocity=0 time=113\n",
      "note_on channel=0 note=91 velocity=40 time=7\n",
      "note_on channel=0 note=91 velocity=0 time=113\n",
      "note_on channel=0 note=89 velocity=40 time=7\n",
      "note_on channel=0 note=89 velocity=0 time=227\n",
      "note_on channel=0 note=88 velocity=40 time=13\n",
      "note_on channel=0 note=88 velocity=0 time=227\n",
      "note_on channel=0 note=88 velocity=40 time=13\n",
      "note_on channel=0 note=88 velocity=0 time=455\n",
      "note_on channel=0 note=86 velocity=40 time=25\n",
      "note_on channel=0 note=86 velocity=0 time=455\n",
      "note_on channel=0 note=86 velocity=40 time=25\n",
      "note_on channel=0 note=86 velocity=0 time=227\n",
      "note_on channel=0 note=79 velocity=40 time=13\n",
      "note_on channel=0 note=79 velocity=0 time=227\n",
      "note_on channel=0 note=81 velocity=40 time=13\n",
      "note_on channel=0 note=81 velocity=0 time=227\n",
      "note_on channel=0 note=83 velocity=40 time=13\n",
      "note_on channel=0 note=83 velocity=0 time=227\n",
      "note_on channel=0 note=84 velocity=40 time=13\n",
      "note_on channel=0 note=84 velocity=0 time=227\n",
      "note_on channel=0 note=74 velocity=40 time=2773\n",
      "note_on channel=0 note=74 velocity=0 time=113\n",
      "note_on channel=0 note=76 velocity=40 time=7\n",
      "note_on channel=0 note=76 velocity=0 time=113\n",
      "note_on channel=0 note=78 velocity=39 time=7\n",
      "note_on channel=0 note=78 velocity=0 time=113\n",
      "note_on channel=0 note=79 velocity=38 time=7\n",
      "note_on channel=0 note=79 velocity=0 time=113\n",
      "note_on channel=0 note=81 velocity=37 time=7\n",
      "note_on channel=0 note=81 velocity=0 time=113\n",
      "note_on channel=0 note=83 velocity=36 time=7\n",
      "note_on channel=0 note=83 velocity=0 time=113\n",
      "note_on channel=0 note=84 velocity=35 time=7\n",
      "note_on channel=0 note=84 velocity=0 time=113\n",
      "note_on channel=0 note=86 velocity=33 time=7\n",
      "note_on channel=0 note=86 velocity=0 time=455\n",
      "note_on channel=0 note=62 velocity=33 time=625\n",
      "note_on channel=0 note=62 velocity=0 time=113\n",
      "note_on channel=0 note=64 velocity=33 time=7\n",
      "note_on channel=0 note=64 velocity=0 time=113\n",
      "note_on channel=0 note=66 velocity=33 time=7\n",
      "note_on channel=0 note=66 velocity=0 time=113\n",
      "note_on channel=0 note=67 velocity=33 time=7\n",
      "note_on channel=0 note=67 velocity=0 time=113\n",
      "note_on channel=0 note=69 velocity=33 time=7\n",
      "note_on channel=0 note=69 velocity=0 time=113\n",
      "note_on channel=0 note=71 velocity=33 time=7\n",
      "note_on channel=0 note=71 velocity=0 time=113\n",
      "note_on channel=0 note=72 velocity=33 time=7\n",
      "note_on channel=0 note=72 velocity=0 time=113\n",
      "note_on channel=0 note=74 velocity=33 time=7\n",
      "note_on channel=0 note=74 velocity=0 time=227\n",
      "note_on channel=0 note=74 velocity=33 time=853\n",
      "note_on channel=0 note=74 velocity=0 time=113\n",
      "note_on channel=0 note=76 velocity=33 time=7\n",
      "note_on channel=0 note=76 velocity=0 time=113\n",
      "note_on channel=0 note=78 velocity=33 time=7\n",
      "note_on channel=0 note=78 velocity=0 time=113\n",
      "note_on channel=0 note=79 velocity=33 time=7\n",
      "note_on channel=0 note=79 velocity=0 time=113\n",
      "note_on channel=0 note=81 velocity=33 time=7\n",
      "note_on channel=0 note=81 velocity=0 time=113\n",
      "note_on channel=0 note=83 velocity=33 time=7\n",
      "note_on channel=0 note=83 velocity=0 time=113\n",
      "note_on channel=0 note=84 velocity=33 time=7\n",
      "note_on channel=0 note=84 velocity=0 time=113\n",
      "note_on channel=0 note=86 velocity=33 time=7\n",
      "note_on channel=0 note=86 velocity=0 time=455\n",
      "note_on channel=0 note=62 velocity=33 time=625\n",
      "note_on channel=0 note=62 velocity=0 time=113\n",
      "note_on channel=0 note=64 velocity=33 time=7\n",
      "note_on channel=0 note=64 velocity=0 time=113\n",
      "note_on channel=0 note=66 velocity=33 time=7\n",
      "note_on channel=0 note=66 velocity=0 time=113\n",
      "note_on channel=0 note=67 velocity=33 time=7\n",
      "note_on channel=0 note=67 velocity=0 time=113\n",
      "note_on channel=0 note=69 velocity=33 time=7\n",
      "note_on channel=0 note=69 velocity=0 time=113\n",
      "note_on channel=0 note=71 velocity=33 time=7\n",
      "note_on channel=0 note=71 velocity=0 time=113\n",
      "note_on channel=0 note=72 velocity=33 time=7\n",
      "note_on channel=0 note=72 velocity=0 time=113\n",
      "note_on channel=0 note=74 velocity=33 time=7\n",
      "note_on channel=0 note=74 velocity=0 time=455\n",
      "note_on channel=0 note=74 velocity=33 time=625\n",
      "note_on channel=0 note=74 velocity=0 time=113\n",
      "note_on channel=0 note=76 velocity=33 time=7\n",
      "note_on channel=0 note=76 velocity=0 time=113\n",
      "note_on channel=0 note=78 velocity=33 time=7\n",
      "note_on channel=0 note=78 velocity=0 time=113\n",
      "note_on channel=0 note=79 velocity=33 time=7\n",
      "note_on channel=0 note=79 velocity=0 time=113\n",
      "note_on channel=0 note=81 velocity=33 time=7\n",
      "note_on channel=0 note=81 velocity=0 time=113\n",
      "note_on channel=0 note=83 velocity=33 time=7\n",
      "note_on channel=0 note=83 velocity=0 time=113\n",
      "note_on channel=0 note=84 velocity=33 time=7\n",
      "note_on channel=0 note=84 velocity=0 time=113\n",
      "note_on channel=0 note=86 velocity=33 time=7\n",
      "note_on channel=0 note=86 velocity=0 time=113\n",
      "note_on channel=0 note=74 velocity=34 time=7\n",
      "note_on channel=0 note=74 velocity=0 time=113\n",
      "note_on channel=0 note=76 velocity=35 time=7\n",
      "note_on channel=0 note=76 velocity=0 time=113\n",
      "note_on channel=0 note=78 velocity=37 time=7\n",
      "note_on channel=0 note=78 velocity=0 time=113\n",
      "note_on channel=0 note=79 velocity=38 time=7\n",
      "note_on channel=0 note=79 velocity=0 time=113\n",
      "note_on channel=0 note=81 velocity=40 time=7\n",
      "note_on channel=0 note=81 velocity=0 time=113\n",
      "note_on channel=0 note=83 velocity=41 time=7\n",
      "note_on channel=0 note=83 velocity=0 time=113\n",
      "note_on channel=0 note=84 velocity=43 time=7\n",
      "note_on channel=0 note=84 velocity=0 time=113\n",
      "MetaMessage('set_tempo', tempo=454545, time=7)\n",
      "note_on channel=0 note=86 velocity=44 time=0\n",
      "note_on channel=0 note=86 velocity=0 time=113\n",
      "note_on channel=0 note=74 velocity=46 time=7\n",
      "note_on channel=0 note=74 velocity=0 time=113\n",
      "note_on channel=0 note=76 velocity=47 time=7\n",
      "note_on channel=0 note=76 velocity=0 time=113\n",
      "note_on channel=0 note=78 velocity=49 time=7\n",
      "note_on channel=0 note=78 velocity=0 time=113\n",
      "note_on channel=0 note=79 velocity=50 time=7\n",
      "note_on channel=0 note=79 velocity=0 time=113\n",
      "note_on channel=0 note=81 velocity=52 time=7\n",
      "note_on channel=0 note=81 velocity=0 time=113\n",
      "note_on channel=0 note=83 velocity=53 time=7\n",
      "note_on channel=0 note=83 velocity=0 time=113\n",
      "note_on channel=0 note=84 velocity=55 time=7\n",
      "note_on channel=0 note=84 velocity=0 time=113\n",
      "MetaMessage('set_tempo', tempo=441176, time=7)\n",
      "note_on channel=0 note=86 velocity=56 time=0\n",
      "note_on channel=0 note=86 velocity=0 time=113\n",
      "note_on channel=0 note=74 velocity=57 time=7\n",
      "note_on channel=0 note=74 velocity=0 time=113\n",
      "note_on channel=0 note=76 velocity=59 time=7\n",
      "note_on channel=0 note=76 velocity=0 time=113\n",
      "note_on channel=0 note=78 velocity=60 time=7\n",
      "note_on channel=0 note=78 velocity=0 time=113\n",
      "note_on channel=0 note=79 velocity=62 time=7\n",
      "note_on channel=0 note=79 velocity=0 time=113\n",
      "note_on channel=0 note=81 velocity=63 time=7\n",
      "note_on channel=0 note=81 velocity=0 time=113\n",
      "note_on channel=0 note=83 velocity=65 time=7\n",
      "note_on channel=0 note=83 velocity=0 time=113\n",
      "note_on channel=0 note=84 velocity=66 time=7\n",
      "note_on channel=0 note=84 velocity=0 time=113\n",
      "MetaMessage('set_tempo', tempo=428572, time=7)\n",
      "note_on channel=0 note=86 velocity=68 time=0\n",
      "note_on channel=0 note=86 velocity=0 time=113\n",
      "note_on channel=0 note=74 velocity=69 time=7\n",
      "note_on channel=0 note=74 velocity=0 time=113\n",
      "note_on channel=0 note=76 velocity=71 time=7\n",
      "note_on channel=0 note=76 velocity=0 time=113\n",
      "note_on channel=0 note=78 velocity=72 time=7\n",
      "note_on channel=0 note=78 velocity=0 time=113\n",
      "note_on channel=0 note=79 velocity=74 time=7\n",
      "note_on channel=0 note=79 velocity=0 time=113\n",
      "note_on channel=0 note=81 velocity=75 time=7\n",
      "note_on channel=0 note=81 velocity=0 time=113\n",
      "note_on channel=0 note=83 velocity=77 time=7\n",
      "note_on channel=0 note=83 velocity=0 time=113\n",
      "note_on channel=0 note=84 velocity=78 time=7\n",
      "note_on channel=0 note=84 velocity=0 time=113\n",
      "MetaMessage('set_tempo', tempo=416667, time=7)\n",
      "note_on channel=0 note=86 velocity=80 time=0\n",
      "note_on channel=0 note=86 velocity=0 time=227\n",
      "MetaMessage('set_tempo', tempo=1666667, time=11293)\n",
      "MetaMessage('set_tempo', tempo=416667, time=479)\n",
      "MetaMessage('set_tempo', tempo=2083333, time=241)\n",
      "MetaMessage('set_tempo', tempo=416667, time=239)\n",
      "MetaMessage('time_signature', numerator=4, denominator=4, clocks_per_click=24, notated_32nd_notes_per_beat=8, time=1)\n",
      "note_on channel=0 note=74 velocity=96 time=1920\n",
      "note_on channel=0 note=86 velocity=96 time=0\n",
      "note_on channel=0 note=74 velocity=0 time=227\n",
      "note_on channel=0 note=86 velocity=0 time=0\n",
      "note_on channel=0 note=76 velocity=96 time=253\n",
      "note_on channel=0 note=88 velocity=96 time=0\n",
      "note_on channel=0 note=76 velocity=0 time=227\n",
      "note_on channel=0 note=88 velocity=0 time=0\n",
      "note_on channel=0 note=77 velocity=96 time=253\n",
      "note_on channel=0 note=89 velocity=96 time=0\n",
      "note_on channel=0 note=77 velocity=0 time=227\n",
      "note_on channel=0 note=89 velocity=0 time=0\n",
      "note_on channel=0 note=68 velocity=96 time=253\n",
      "note_on channel=0 note=80 velocity=96 time=0\n",
      "note_on channel=0 note=68 velocity=0 time=227\n",
      "note_on channel=0 note=80 velocity=0 time=0\n",
      "note_on channel=0 note=69 velocity=96 time=253\n",
      "note_on channel=0 note=81 velocity=96 time=0\n",
      "note_on channel=0 note=69 velocity=0 time=227\n",
      "note_on channel=0 note=81 velocity=0 time=0\n",
      "note_on channel=0 note=76 velocity=80 time=1693\n",
      "note_on channel=0 note=88 velocity=80 time=0\n",
      "note_on channel=0 note=76 velocity=0 time=227\n",
      "note_on channel=0 note=88 velocity=0 time=0\n",
      "note_on channel=0 note=78 velocity=78 time=253\n",
      "note_on channel=0 note=90 velocity=78 time=0\n",
      "note_on channel=0 note=78 velocity=0 time=227\n",
      "note_on channel=0 note=90 velocity=0 time=0\n",
      "note_on channel=0 note=79 velocity=74 time=253\n",
      "note_on channel=0 note=91 velocity=74 time=0\n",
      "note_on channel=0 note=79 velocity=0 time=227\n",
      "note_on channel=0 note=91 velocity=0 time=0\n",
      "note_on channel=0 note=70 velocity=69 time=253\n",
      "note_on channel=0 note=82 velocity=69 time=0\n",
      "note_on channel=0 note=70 velocity=0 time=227\n",
      "note_on channel=0 note=82 velocity=0 time=0\n",
      "note_on channel=0 note=71 velocity=64 time=253\n",
      "note_on channel=0 note=71 velocity=0 time=113\n",
      "note_on channel=0 note=74 velocity=64 time=7\n",
      "note_on channel=0 note=74 velocity=0 time=113\n",
      "note_on channel=0 note=83 velocity=64 time=7\n",
      "note_on channel=0 note=83 velocity=0 time=113\n",
      "note_on channel=0 note=74 velocity=64 time=7\n",
      "note_on channel=0 note=74 velocity=0 time=113\n",
      "note_on channel=0 note=71 velocity=64 time=7\n",
      "note_on channel=0 note=71 velocity=0 time=113\n",
      "note_on channel=0 note=74 velocity=64 time=7\n",
      "note_on channel=0 note=74 velocity=0 time=113\n",
      "note_on channel=0 note=83 velocity=64 time=7\n",
      "note_on channel=0 note=83 velocity=0 time=113\n",
      "note_on channel=0 note=74 velocity=64 time=7\n",
      "note_on channel=0 note=74 velocity=0 time=113\n",
      "note_on channel=0 note=71 velocity=64 time=7\n",
      "note_on channel=0 note=71 velocity=0 time=113\n",
      "note_on channel=0 note=74 velocity=64 time=7\n",
      "note_on channel=0 note=74 velocity=0 time=113\n",
      "note_on channel=0 note=83 velocity=64 time=7\n",
      "note_on channel=0 note=83 velocity=0 time=113\n",
      "note_on channel=0 note=74 velocity=64 time=7\n",
      "note_on channel=0 note=74 velocity=0 time=113\n",
      "note_on channel=0 note=71 velocity=64 time=7\n",
      "note_on channel=0 note=71 velocity=0 time=113\n",
      "note_on channel=0 note=74 velocity=64 time=7\n",
      "note_on channel=0 note=74 velocity=0 time=113\n",
      "note_on channel=0 note=83 velocity=64 time=7\n",
      "note_on channel=0 note=83 velocity=0 time=113\n",
      "note_on channel=0 note=74 velocity=64 time=7\n",
      "note_on channel=0 note=74 velocity=0 time=113\n",
      "note_on channel=0 note=71 velocity=64 time=7\n",
      "note_on channel=0 note=71 velocity=0 time=113\n",
      "note_on channel=0 note=72 velocity=64 time=7\n",
      "note_on channel=0 note=72 velocity=0 time=113\n",
      "note_on channel=0 note=83 velocity=64 time=7\n",
      "note_on channel=0 note=83 velocity=0 time=113\n",
      "note_on channel=0 note=72 velocity=64 time=7\n",
      "note_on channel=0 note=72 velocity=0 time=113\n",
      "note_on channel=0 note=71 velocity=64 time=7\n",
      "note_on channel=0 note=71 velocity=0 time=113\n",
      "note_on channel=0 note=72 velocity=64 time=7\n",
      "note_on channel=0 note=72 velocity=0 time=113\n",
      "note_on channel=0 note=83 velocity=64 time=7\n",
      "note_on channel=0 note=83 velocity=0 time=113\n",
      "note_on channel=0 note=72 velocity=64 time=7\n",
      "note_on channel=0 note=72 velocity=0 time=113\n",
      "note_on channel=0 note=69 velocity=64 time=7\n",
      "note_on channel=0 note=69 velocity=0 time=113\n",
      "note_on channel=0 note=72 velocity=64 time=7\n",
      "note_on channel=0 note=72 velocity=0 time=113\n",
      "note_on channel=0 note=81 velocity=64 time=7\n",
      "note_on channel=0 note=81 velocity=0 time=113\n",
      "note_on channel=0 note=72 velocity=64 time=7\n",
      "note_on channel=0 note=72 velocity=0 time=113\n",
      "note_on channel=0 note=69 velocity=64 time=7\n",
      "note_on channel=0 note=69 velocity=0 time=113\n",
      "note_on channel=0 note=72 velocity=64 time=7\n",
      "note_on channel=0 note=72 velocity=0 time=113\n",
      "note_on channel=0 note=81 velocity=64 time=7\n",
      "note_on channel=0 note=81 velocity=0 time=113\n",
      "note_on channel=0 note=72 velocity=64 time=7\n",
      "note_on channel=0 note=72 velocity=0 time=113\n",
      "note_on channel=0 note=69 velocity=64 time=7\n",
      "note_on channel=0 note=69 velocity=0 time=113\n",
      "note_on channel=0 note=71 velocity=64 time=7\n",
      "note_on channel=0 note=71 velocity=0 time=113\n",
      "note_on channel=0 note=81 velocity=64 time=7\n",
      "note_on channel=0 note=81 velocity=0 time=113\n",
      "note_on channel=0 note=71 velocity=64 time=7\n",
      "note_on channel=0 note=71 velocity=0 time=113\n",
      "note_on channel=0 note=69 velocity=64 time=7\n",
      "note_on channel=0 note=69 velocity=0 time=113\n",
      "note_on channel=0 note=71 velocity=64 time=7\n",
      "note_on channel=0 note=71 velocity=0 time=113\n",
      "note_on channel=0 note=81 velocity=64 time=7\n",
      "note_on channel=0 note=81 velocity=0 time=113\n",
      "note_on channel=0 note=71 velocity=64 time=7\n",
      "note_on channel=0 note=71 velocity=0 time=113\n",
      "note_on channel=0 note=67 velocity=64 time=7\n",
      "note_on channel=0 note=67 velocity=0 time=113\n",
      "note_on channel=0 note=71 velocity=64 time=7\n",
      "note_on channel=0 note=71 velocity=0 time=113\n",
      "note_on channel=0 note=79 velocity=64 time=7\n",
      "note_on channel=0 note=79 velocity=0 time=113\n",
      "note_on channel=0 note=71 velocity=64 time=7\n",
      "note_on channel=0 note=71 velocity=0 time=113\n",
      "note_on channel=0 note=67 velocity=64 time=7\n",
      "note_on channel=0 note=67 velocity=0 time=113\n",
      "note_on channel=0 note=71 velocity=64 time=7\n",
      "note_on channel=0 note=71 velocity=0 time=113\n",
      "note_on channel=0 note=79 velocity=64 time=7\n",
      "note_on channel=0 note=79 velocity=0 time=113\n",
      "note_on channel=0 note=71 velocity=64 time=7\n",
      "note_on channel=0 note=71 velocity=0 time=113\n",
      "note_on channel=0 note=67 velocity=64 time=7\n",
      "note_on channel=0 note=67 velocity=0 time=113\n",
      "note_on channel=0 note=71 velocity=64 time=7\n",
      "note_on channel=0 note=71 velocity=0 time=113\n",
      "note_on channel=0 note=79 velocity=64 time=7\n",
      "note_on channel=0 note=79 velocity=0 time=113\n",
      "note_on channel=0 note=71 velocity=64 time=7\n",
      "note_on channel=0 note=71 velocity=0 time=113\n",
      "note_on channel=0 note=67 velocity=64 time=7\n",
      "note_on channel=0 note=67 velocity=0 time=113\n",
      "note_on channel=0 note=71 velocity=64 time=7\n",
      "note_on channel=0 note=71 velocity=0 time=113\n",
      "note_on channel=0 note=79 velocity=64 time=7\n",
      "note_on channel=0 note=79 velocity=0 time=113\n",
      "note_on channel=0 note=71 velocity=64 time=7\n",
      "note_on channel=0 note=71 velocity=0 time=113\n",
      "note_on channel=0 note=67 velocity=64 time=7\n",
      "note_on channel=0 note=67 velocity=0 time=113\n",
      "note_on channel=0 note=71 velocity=64 time=7\n",
      "note_on channel=0 note=71 velocity=0 time=113\n",
      "note_on channel=0 note=79 velocity=64 time=7\n",
      "note_on channel=0 note=79 velocity=0 time=113\n",
      "note_on channel=0 note=71 velocity=64 time=7\n",
      "note_on channel=0 note=71 velocity=0 time=113\n",
      "note_on channel=0 note=67 velocity=64 time=7\n",
      "note_on channel=0 note=67 velocity=0 time=113\n",
      "note_on channel=0 note=71 velocity=64 time=7\n",
      "note_on channel=0 note=71 velocity=0 time=113\n",
      "note_on channel=0 note=79 velocity=64 time=7\n",
      "note_on channel=0 note=79 velocity=0 time=113\n",
      "note_on channel=0 note=71 velocity=64 time=7\n",
      "note_on channel=0 note=71 velocity=0 time=113\n",
      "note_on channel=0 note=67 velocity=64 time=7\n",
      "note_on channel=0 note=67 velocity=0 time=113\n",
      "note_on channel=0 note=71 velocity=64 time=7\n",
      "note_on channel=0 note=71 velocity=0 time=113\n",
      "note_on channel=0 note=79 velocity=64 time=7\n",
      "note_on channel=0 note=79 velocity=0 time=113\n",
      "note_on channel=0 note=71 velocity=64 time=7\n",
      "note_on channel=0 note=71 velocity=0 time=113\n",
      "note_on channel=0 note=67 velocity=64 time=7\n",
      "note_on channel=0 note=67 velocity=0 time=113\n",
      "note_on channel=0 note=71 velocity=64 time=7\n",
      "note_on channel=0 note=71 velocity=0 time=113\n",
      "note_on channel=0 note=79 velocity=64 time=7\n",
      "note_on channel=0 note=79 velocity=0 time=113\n",
      "note_on channel=0 note=71 velocity=64 time=7\n",
      "note_on channel=0 note=71 velocity=0 time=113\n",
      "note_on channel=0 note=67 velocity=64 time=7\n",
      "note_on channel=0 note=67 velocity=0 time=113\n",
      "note_on channel=0 note=71 velocity=64 time=7\n",
      "note_on channel=0 note=71 velocity=0 time=113\n",
      "note_on channel=0 note=79 velocity=64 time=7\n",
      "note_on channel=0 note=79 velocity=0 time=113\n",
      "note_on channel=0 note=71 velocity=64 time=7\n",
      "note_on channel=0 note=71 velocity=0 time=113\n",
      "note_on channel=0 note=67 velocity=64 time=7\n",
      "note_on channel=0 note=67 velocity=0 time=113\n",
      "note_on channel=0 note=71 velocity=64 time=7\n",
      "note_on channel=0 note=71 velocity=0 time=113\n",
      "note_on channel=0 note=79 velocity=64 time=7\n",
      "note_on channel=0 note=79 velocity=0 time=113\n",
      "note_on channel=0 note=71 velocity=64 time=7\n",
      "note_on channel=0 note=71 velocity=0 time=113\n",
      "MetaMessage('set_tempo', tempo=447762, time=7)\n",
      "note_on channel=0 note=67 velocity=64 time=0\n",
      "note_on channel=0 note=67 velocity=0 time=113\n",
      "note_on channel=0 note=71 velocity=64 time=7\n",
      "note_on channel=0 note=74 velocity=64 time=0\n",
      "note_on channel=0 note=71 velocity=0 time=113\n",
      "note_on channel=0 note=74 velocity=0 time=0\n",
      "note_on channel=0 note=79 velocity=63 time=7\n",
      "note_on channel=0 note=79 velocity=0 time=113\n",
      "note_on channel=0 note=71 velocity=62 time=7\n",
      "note_on channel=0 note=74 velocity=62 time=0\n",
      "note_on channel=0 note=71 velocity=0 time=113\n",
      "note_on channel=0 note=74 velocity=0 time=0\n",
      "note_on channel=0 note=67 velocity=61 time=7\n",
      "note_on channel=0 note=67 velocity=0 time=113\n",
      "note_on channel=0 note=71 velocity=60 time=7\n",
      "note_on channel=0 note=74 velocity=60 time=0\n",
      "note_on channel=0 note=71 velocity=0 time=113\n",
      "note_on channel=0 note=74 velocity=0 time=0\n",
      "note_on channel=0 note=79 velocity=59 time=7\n",
      "note_on channel=0 note=79 velocity=0 time=113\n",
      "note_on channel=0 note=71 velocity=58 time=7\n",
      "note_on channel=0 note=74 velocity=58 time=0\n",
      "note_on channel=0 note=71 velocity=0 time=113\n",
      "note_on channel=0 note=74 velocity=0 time=0\n",
      "note_on channel=0 note=67 velocity=57 time=7\n",
      "note_on channel=0 note=67 velocity=0 time=113\n",
      "note_on channel=0 note=71 velocity=56 time=7\n",
      "note_on channel=0 note=74 velocity=56 time=0\n",
      "note_on channel=0 note=71 velocity=0 time=113\n",
      "note_on channel=0 note=74 velocity=0 time=0\n",
      "note_on channel=0 note=79 velocity=55 time=7\n",
      "note_on channel=0 note=79 velocity=0 time=113\n",
      "note_on channel=0 note=71 velocity=54 time=7\n",
      "note_on channel=0 note=74 velocity=54 time=0\n",
      "note_on channel=0 note=71 velocity=0 time=113\n",
      "note_on channel=0 note=74 velocity=0 time=0\n",
      "note_on channel=0 note=67 velocity=53 time=7\n",
      "note_on channel=0 note=67 velocity=0 time=113\n",
      "note_on channel=0 note=71 velocity=52 time=7\n",
      "note_on channel=0 note=74 velocity=52 time=0\n",
      "note_on channel=0 note=71 velocity=0 time=113\n",
      "note_on channel=0 note=74 velocity=0 time=0\n",
      "note_on channel=0 note=79 velocity=51 time=7\n",
      "note_on channel=0 note=79 velocity=0 time=113\n",
      "note_on channel=0 note=71 velocity=50 time=7\n",
      "note_on channel=0 note=74 velocity=50 time=0\n",
      "note_on channel=0 note=71 velocity=0 time=113\n",
      "note_on channel=0 note=74 velocity=0 time=0\n",
      "MetaMessage('time_signature', numerator=2, denominator=4, clocks_per_click=24, notated_32nd_notes_per_beat=8, time=7)\n",
      "note_on channel=0 note=79 velocity=49 time=0\n",
      "note_on channel=0 note=79 velocity=0 time=1367\n",
      "note_on channel=0 note=77 velocity=49 time=73\n",
      "note_on channel=0 note=77 velocity=0 time=227\n",
      "note_on channel=0 note=76 velocity=49 time=13\n",
      "note_on channel=0 note=76 velocity=0 time=227\n",
      "note_on channel=0 note=76 velocity=49 time=13\n",
      "note_on channel=0 note=76 velocity=0 time=455\n",
      "note_on channel=0 note=74 velocity=49 time=25\n",
      "note_on channel=0 note=74 velocity=0 time=683\n",
      "note_on channel=0 note=67 velocity=49 time=37\n",
      "note_on channel=0 note=67 velocity=0 time=0\n",
      "note_on channel=0 note=69 velocity=49 time=240\n",
      "note_on channel=0 note=69 velocity=0 time=227\n",
      "note_on channel=0 note=71 velocity=49 time=13\n",
      "note_on channel=0 note=71 velocity=0 time=227\n",
      "MetaMessage('time_signature', numerator=4, denominator=4, clocks_per_click=24, notated_32nd_notes_per_beat=8, time=13)\n",
      "note_on channel=0 note=72 velocity=49 time=0\n",
      "note_on channel=0 note=72 velocity=0 time=113\n",
      "note_on channel=0 note=74 velocity=49 time=7\n",
      "note_on channel=0 note=74 velocity=0 time=113\n",
      "note_on channel=0 note=76 velocity=49 time=7\n",
      "note_on channel=0 note=76 velocity=0 time=113\n",
      "note_on channel=0 note=77 velocity=49 time=7\n",
      "note_on channel=0 note=77 velocity=0 time=113\n",
      "note_on channel=0 note=79 velocity=49 time=7\n",
      "note_on channel=0 note=79 velocity=0 time=113\n",
      "note_on channel=0 note=81 velocity=49 time=7\n",
      "note_on channel=0 note=81 velocity=0 time=113\n",
      "note_on channel=0 note=83 velocity=49 time=7\n",
      "note_on channel=0 note=83 velocity=0 time=113\n",
      "note_on channel=0 note=84 velocity=49 time=7\n",
      "note_on channel=0 note=84 velocity=0 time=113\n",
      "note_on channel=0 note=74 velocity=49 time=7\n",
      "note_on channel=0 note=74 velocity=0 time=113\n",
      "note_on channel=0 note=76 velocity=49 time=7\n",
      "note_on channel=0 note=76 velocity=0 time=113\n",
      "note_on channel=0 note=77 velocity=49 time=7\n",
      "note_on channel=0 note=77 velocity=0 time=113\n",
      "note_on channel=0 note=79 velocity=49 time=7\n",
      "note_on channel=0 note=79 velocity=0 time=113\n",
      "note_on channel=0 note=81 velocity=49 time=7\n",
      "note_on channel=0 note=81 velocity=0 time=113\n",
      "note_on channel=0 note=83 velocity=49 time=7\n",
      "note_on channel=0 note=83 velocity=0 time=113\n",
      "note_on channel=0 note=84 velocity=49 time=7\n",
      "note_on channel=0 note=84 velocity=0 time=113\n",
      "note_on channel=0 note=86 velocity=49 time=7\n",
      "note_on channel=0 note=86 velocity=0 time=113\n",
      "note_on channel=0 note=76 velocity=49 time=7\n",
      "note_on channel=0 note=76 velocity=0 time=113\n",
      "note_on channel=0 note=77 velocity=49 time=7\n",
      "note_on channel=0 note=77 velocity=0 time=113\n",
      "note_on channel=0 note=79 velocity=50 time=7\n",
      "note_on channel=0 note=79 velocity=0 time=113\n",
      "note_on channel=0 note=81 velocity=51 time=7\n",
      "note_on channel=0 note=81 velocity=0 time=113\n",
      "note_on channel=0 note=83 velocity=52 time=7\n",
      "note_on channel=0 note=83 velocity=0 time=113\n",
      "note_on channel=0 note=84 velocity=53 time=7\n",
      "note_on channel=0 note=84 velocity=0 time=113\n",
      "note_on channel=0 note=86 velocity=54 time=7\n",
      "note_on channel=0 note=86 velocity=0 time=113\n",
      "note_on channel=0 note=88 velocity=55 time=7\n",
      "note_on channel=0 note=88 velocity=0 time=113\n",
      "note_on channel=0 note=78 velocity=56 time=7\n",
      "note_on channel=0 note=81 velocity=56 time=0\n",
      "note_on channel=0 note=78 velocity=0 time=455\n",
      "note_on channel=0 note=81 velocity=0 time=0\n",
      "note_on channel=0 note=86 velocity=60 time=25\n",
      "note_on channel=0 note=86 velocity=0 time=455\n",
      "MetaMessage('time_signature', numerator=2, denominator=4, clocks_per_click=24, notated_32nd_notes_per_beat=8, time=25)\n",
      "note_on channel=0 note=74 velocity=64 time=0\n",
      "note_on channel=0 note=86 velocity=64 time=0\n",
      "note_on channel=0 note=74 velocity=0 time=1367\n",
      "note_on channel=0 note=86 velocity=0 time=0\n",
      "note_on channel=0 note=72 velocity=64 time=73\n",
      "note_on channel=0 note=84 velocity=64 time=0\n",
      "note_on channel=0 note=72 velocity=0 time=227\n",
      "note_on channel=0 note=84 velocity=0 time=0\n",
      "note_on channel=0 note=71 velocity=64 time=13\n",
      "note_on channel=0 note=83 velocity=64 time=0\n",
      "note_on channel=0 note=71 velocity=0 time=227\n",
      "note_on channel=0 note=83 velocity=0 time=0\n",
      "note_on channel=0 note=71 velocity=64 time=13\n",
      "note_on channel=0 note=83 velocity=64 time=0\n",
      "note_on channel=0 note=71 velocity=0 time=455\n",
      "note_on channel=0 note=83 velocity=0 time=0\n",
      "note_on channel=0 note=69 velocity=64 time=25\n",
      "note_on channel=0 note=81 velocity=64 time=0\n",
      "note_on channel=0 note=69 velocity=0 time=683\n",
      "note_on channel=0 note=81 velocity=0 time=0\n",
      "note_on channel=0 note=74 velocity=64 time=37\n",
      "note_on channel=0 note=74 velocity=0 time=227\n",
      "note_on channel=0 note=76 velocity=64 time=13\n",
      "note_on channel=0 note=76 velocity=0 time=227\n",
      "note_on channel=0 note=78 velocity=64 time=13\n",
      "note_on channel=0 note=78 velocity=0 time=227\n",
      "note_on channel=0 note=79 velocity=64 time=13\n",
      "note_on channel=0 note=79 velocity=0 time=227\n",
      "note_on channel=0 note=71 velocity=71 time=493\n",
      "note_on channel=0 note=71 velocity=0 time=113\n",
      "note_on channel=0 note=79 velocity=73 time=7\n",
      "note_on channel=0 note=79 velocity=0 time=113\n",
      "note_on channel=0 note=74 velocity=75 time=7\n",
      "note_on channel=0 note=74 velocity=0 time=113\n",
      "note_on channel=0 note=83 velocity=77 time=7\n",
      "note_on channel=0 note=83 velocity=0 time=113\n",
      "note_on channel=0 note=79 velocity=78 time=7\n",
      "note_on channel=0 note=79 velocity=0 time=113\n",
      "note_on channel=0 note=86 velocity=80 time=7\n",
      "note_on channel=0 note=86 velocity=0 time=113\n",
      "note_on channel=0 note=83 velocity=82 time=7\n",
      "note_on channel=0 note=83 velocity=0 time=113\n",
      "note_on channel=0 note=91 velocity=84 time=7\n",
      "note_on channel=0 note=91 velocity=0 time=113\n",
      "note_on channel=0 note=86 velocity=86 time=7\n",
      "note_on channel=0 note=86 velocity=0 time=113\n",
      "note_on channel=0 note=95 velocity=88 time=7\n",
      "note_on channel=0 note=95 velocity=0 time=113\n",
      "MetaMessage('set_tempo', tempo=416667, time=7)\n",
      "note_on channel=0 note=96 velocity=108 time=0\n",
      "note_on channel=0 note=96 velocity=0 time=239\n",
      "note_on channel=0 note=93 velocity=90 time=361\n",
      "note_on channel=0 note=93 velocity=0 time=113\n",
      "note_on channel=0 note=96 velocity=90 time=7\n",
      "note_on channel=0 note=96 velocity=0 time=113\n",
      "note_on channel=0 note=90 velocity=90 time=7\n",
      "note_on channel=0 note=90 velocity=0 time=113\n",
      "note_on channel=0 note=93 velocity=90 time=7\n",
      "note_on channel=0 note=93 velocity=0 time=113\n",
      "note_on channel=0 note=84 velocity=90 time=7\n",
      "note_on channel=0 note=84 velocity=0 time=113\n",
      "note_on channel=0 note=90 velocity=90 time=7\n",
      "note_on channel=0 note=90 velocity=0 time=113\n",
      "note_on channel=0 note=81 velocity=90 time=7\n",
      "note_on channel=0 note=81 velocity=0 time=113\n",
      "note_on channel=0 note=84 velocity=90 time=7\n",
      "note_on channel=0 note=84 velocity=0 time=113\n",
      "note_on channel=0 note=78 velocity=90 time=7\n",
      "note_on channel=0 note=78 velocity=0 time=113\n",
      "note_on channel=0 note=81 velocity=90 time=7\n",
      "note_on channel=0 note=81 velocity=0 time=113\n",
      "note_on channel=0 note=72 velocity=90 time=7\n",
      "note_on channel=0 note=72 velocity=0 time=113\n",
      "note_on channel=0 note=71 velocity=108 time=7\n",
      "note_on channel=0 note=71 velocity=0 time=239\n",
      "note_on channel=0 note=59 velocity=90 time=481\n",
      "note_on channel=0 note=59 velocity=0 time=113\n",
      "note_on channel=0 note=67 velocity=90 time=7\n",
      "note_on channel=0 note=67 velocity=0 time=113\n",
      "note_on channel=0 note=62 velocity=90 time=7\n",
      "note_on channel=0 note=62 velocity=0 time=113\n",
      "note_on channel=0 note=71 velocity=90 time=7\n",
      "note_on channel=0 note=71 velocity=0 time=113\n",
      "note_on channel=0 note=67 velocity=90 time=7\n",
      "note_on channel=0 note=67 velocity=0 time=113\n",
      "note_on channel=0 note=74 velocity=90 time=7\n",
      "note_on channel=0 note=74 velocity=0 time=113\n",
      "note_on channel=0 note=71 velocity=90 time=7\n",
      "note_on channel=0 note=71 velocity=0 time=113\n",
      "note_on channel=0 note=79 velocity=90 time=7\n",
      "note_on channel=0 note=79 velocity=0 time=113\n",
      "note_on channel=0 note=74 velocity=90 time=7\n",
      "note_on channel=0 note=74 velocity=0 time=113\n",
      "note_on channel=0 note=83 velocity=90 time=7\n",
      "note_on channel=0 note=83 velocity=0 time=113\n",
      "note_on channel=0 note=84 velocity=108 time=7\n",
      "note_on channel=0 note=84 velocity=0 time=239\n",
      "note_on channel=0 note=81 velocity=90 time=361\n",
      "note_on channel=0 note=81 velocity=0 time=113\n",
      "note_on channel=0 note=84 velocity=90 time=7\n",
      "note_on channel=0 note=84 velocity=0 time=113\n",
      "note_on channel=0 note=78 velocity=90 time=7\n",
      "note_on channel=0 note=78 velocity=0 time=113\n",
      "note_on channel=0 note=81 velocity=90 time=7\n",
      "note_on channel=0 note=81 velocity=0 time=113\n",
      "note_on channel=0 note=72 velocity=90 time=7\n",
      "note_on channel=0 note=72 velocity=0 time=113\n",
      "note_on channel=0 note=78 velocity=90 time=7\n",
      "note_on channel=0 note=78 velocity=0 time=113\n",
      "note_on channel=0 note=69 velocity=90 time=7\n",
      "note_on channel=0 note=69 velocity=0 time=113\n",
      "note_on channel=0 note=72 velocity=90 time=7\n",
      "note_on channel=0 note=72 velocity=0 time=113\n",
      "note_on channel=0 note=66 velocity=90 time=7\n",
      "note_on channel=0 note=66 velocity=0 time=113\n",
      "note_on channel=0 note=69 velocity=90 time=7\n",
      "note_on channel=0 note=69 velocity=0 time=113\n",
      "note_on channel=0 note=60 velocity=90 time=7\n",
      "note_on channel=0 note=60 velocity=0 time=113\n",
      "MetaMessage('time_signature', numerator=4, denominator=4, clocks_per_click=24, notated_32nd_notes_per_beat=8, time=7)\n",
      "note_on channel=0 note=59 velocity=108 time=0\n",
      "note_on channel=0 note=59 velocity=0 time=239\n",
      "note_on channel=0 note=79 velocity=90 time=361\n",
      "note_on channel=0 note=79 velocity=0 time=113\n",
      "note_on channel=0 note=83 velocity=90 time=7\n",
      "note_on channel=0 note=83 velocity=0 time=113\n",
      "note_on channel=0 note=74 velocity=90 time=7\n",
      "note_on channel=0 note=74 velocity=0 time=113\n",
      "note_on channel=0 note=81 velocity=108 time=7\n",
      "note_on channel=0 note=81 velocity=0 time=239\n",
      "note_on channel=0 note=78 velocity=90 time=361\n",
      "note_on channel=0 note=78 velocity=0 time=113\n",
      "note_on channel=0 note=81 velocity=90 time=7\n",
      "note_on channel=0 note=81 velocity=0 time=113\n",
      "note_on channel=0 note=75 velocity=90 time=7\n",
      "note_on channel=0 note=75 velocity=0 time=113\n",
      "note_on channel=0 note=79 velocity=90 time=7\n",
      "note_on channel=0 note=79 velocity=0 time=227\n",
      "note_on channel=0 note=76 velocity=90 time=373\n",
      "note_on channel=0 note=76 velocity=0 time=113\n",
      "note_on channel=0 note=79 velocity=90 time=7\n",
      "note_on channel=0 note=79 velocity=0 time=113\n",
      "note_on channel=0 note=71 velocity=90 time=7\n",
      "note_on channel=0 note=71 velocity=0 time=113\n",
      "note_on channel=0 note=77 velocity=90 time=7\n",
      "note_on channel=0 note=77 velocity=0 time=227\n",
      "note_on channel=0 note=74 velocity=90 time=373\n",
      "note_on channel=0 note=74 velocity=0 time=113\n",
      "note_on channel=0 note=77 velocity=90 time=7\n",
      "note_on channel=0 note=77 velocity=0 time=113\n",
      "note_on channel=0 note=71 velocity=90 time=7\n",
      "note_on channel=0 note=71 velocity=0 time=113\n",
      "note_on channel=0 note=72 velocity=90 time=127\n",
      "note_on channel=0 note=72 velocity=0 time=113\n",
      "note_on channel=0 note=76 velocity=91 time=7\n",
      "note_on channel=0 note=76 velocity=0 time=113\n",
      "note_on channel=0 note=67 velocity=92 time=7\n",
      "note_on channel=0 note=67 velocity=0 time=113\n",
      "note_on channel=0 note=71 velocity=93 time=127\n",
      "note_on channel=0 note=71 velocity=0 time=113\n",
      "note_on channel=0 note=74 velocity=94 time=7\n",
      "note_on channel=0 note=74 velocity=0 time=113\n",
      "note_on channel=0 note=68 velocity=95 time=7\n",
      "note_on channel=0 note=68 velocity=0 time=113\n",
      "note_on channel=0 note=69 velocity=97 time=127\n",
      "note_on channel=0 note=69 velocity=0 time=113\n",
      "note_on channel=0 note=73 velocity=97 time=7\n",
      "note_on channel=0 note=73 velocity=0 time=113\n",
      "note_on channel=0 note=64 velocity=98 time=7\n",
      "note_on channel=0 note=64 velocity=0 time=113\n",
      "note_on channel=0 note=69 velocity=100 time=127\n",
      "note_on channel=0 note=69 velocity=0 time=113\n",
      "note_on channel=0 note=72 velocity=101 time=7\n",
      "note_on channel=0 note=72 velocity=0 time=113\n",
      "note_on channel=0 note=66 velocity=101 time=7\n",
      "note_on channel=0 note=66 velocity=0 time=113\n",
      "note_on channel=0 note=67 velocity=103 time=127\n",
      "note_on channel=0 note=67 velocity=0 time=113\n",
      "note_on channel=0 note=71 velocity=104 time=7\n",
      "note_on channel=0 note=71 velocity=0 time=113\n",
      "note_on channel=0 note=62 velocity=104 time=7\n",
      "note_on channel=0 note=62 velocity=0 time=113\n",
      "note_on channel=0 note=67 velocity=106 time=127\n",
      "note_on channel=0 note=67 velocity=0 time=113\n",
      "note_on channel=0 note=73 velocity=107 time=7\n",
      "note_on channel=0 note=73 velocity=0 time=113\n",
      "note_on channel=0 note=61 velocity=108 time=7\n",
      "note_on channel=0 note=61 velocity=0 time=113\n",
      "note_on channel=0 note=73 velocity=109 time=127\n",
      "note_on channel=0 note=73 velocity=0 time=113\n",
      "note_on channel=0 note=79 velocity=110 time=7\n",
      "note_on channel=0 note=79 velocity=0 time=113\n",
      "note_on channel=0 note=67 velocity=111 time=7\n",
      "note_on channel=0 note=67 velocity=0 time=113\n",
      "note_on channel=0 note=79 velocity=112 time=247\n",
      "note_on channel=0 note=91 velocity=112 time=0\n",
      "note_on channel=0 note=79 velocity=0 time=227\n",
      "note_on channel=0 note=91 velocity=0 time=0\n",
      "note_on channel=0 note=67 velocity=112 time=2053\n",
      "note_on channel=0 note=67 velocity=0 time=113\n",
      "note_on channel=0 note=73 velocity=112 time=7\n",
      "note_on channel=0 note=73 velocity=0 time=113\n",
      "note_on channel=0 note=61 velocity=112 time=7\n",
      "note_on channel=0 note=61 velocity=0 time=113\n",
      "note_on channel=0 note=73 velocity=112 time=127\n",
      "note_on channel=0 note=73 velocity=0 time=113\n",
      "note_on channel=0 note=79 velocity=112 time=7\n",
      "note_on channel=0 note=79 velocity=0 time=113\n",
      "note_on channel=0 note=67 velocity=112 time=7\n",
      "note_on channel=0 note=67 velocity=0 time=113\n",
      "note_on channel=0 note=79 velocity=112 time=127\n",
      "note_on channel=0 note=79 velocity=0 time=113\n",
      "note_on channel=0 note=85 velocity=112 time=7\n",
      "note_on channel=0 note=85 velocity=0 time=113\n",
      "note_on channel=0 note=73 velocity=112 time=7\n",
      "note_on channel=0 note=73 velocity=0 time=113\n",
      "note_on channel=0 note=79 velocity=112 time=247\n",
      "note_on channel=0 note=85 velocity=112 time=0\n",
      "note_on channel=0 note=88 velocity=112 time=0\n",
      "note_on channel=0 note=91 velocity=112 time=0\n",
      "note_on channel=0 note=79 velocity=0 time=227\n",
      "note_on channel=0 note=85 velocity=0 time=0\n",
      "note_on channel=0 note=88 velocity=0 time=0\n",
      "note_on channel=0 note=91 velocity=0 time=0\n",
      "MetaMessage('time_signature', numerator=2, denominator=4, clocks_per_click=24, notated_32nd_notes_per_beat=8, time=1933)\n",
      "note_on channel=0 note=57 velocity=90 time=0\n",
      "note_on channel=0 note=57 velocity=0 time=55\n",
      "note_on channel=0 note=59 velocity=90 time=5\n",
      "note_on channel=0 note=59 velocity=0 time=55\n",
      "note_on channel=0 note=57 velocity=90 time=5\n",
      "note_on channel=0 note=57 velocity=0 time=55\n",
      "note_on channel=0 note=59 velocity=90 time=5\n",
      "note_on channel=0 note=59 velocity=0 time=55\n",
      "note_on channel=0 note=57 velocity=90 time=5\n",
      "note_on channel=0 note=57 velocity=0 time=55\n",
      "note_on channel=0 note=59 velocity=90 time=5\n",
      "note_on channel=0 note=59 velocity=0 time=55\n",
      "note_on channel=0 note=57 velocity=90 time=5\n",
      "note_on channel=0 note=57 velocity=0 time=55\n",
      "note_on channel=0 note=59 velocity=90 time=5\n",
      "note_on channel=0 note=59 velocity=0 time=55\n",
      "note_on channel=0 note=69 velocity=90 time=5\n",
      "note_on channel=0 note=69 velocity=0 time=55\n",
      "note_on channel=0 note=71 velocity=90 time=5\n",
      "note_on channel=0 note=71 velocity=0 time=55\n",
      "note_on channel=0 note=69 velocity=90 time=5\n",
      "note_on channel=0 note=69 velocity=0 time=55\n",
      "note_on channel=0 note=71 velocity=90 time=5\n",
      "note_on channel=0 note=71 velocity=0 time=55\n",
      "note_on channel=0 note=69 velocity=90 time=5\n",
      "note_on channel=0 note=69 velocity=0 time=55\n",
      "note_on channel=0 note=71 velocity=90 time=5\n",
      "note_on channel=0 note=71 velocity=0 time=55\n",
      "note_on channel=0 note=69 velocity=90 time=5\n",
      "note_on channel=0 note=69 velocity=0 time=55\n",
      "note_on channel=0 note=71 velocity=90 time=5\n",
      "note_on channel=0 note=71 velocity=0 time=55\n",
      "note_on channel=0 note=81 velocity=90 time=5\n",
      "note_on channel=0 note=81 velocity=0 time=54\n",
      "note_on channel=0 note=83 velocity=90 time=5\n",
      "note_on channel=0 note=83 velocity=0 time=54\n",
      "note_on channel=0 note=81 velocity=90 time=7\n",
      "note_on channel=0 note=81 velocity=0 time=54\n",
      "note_on channel=0 note=83 velocity=90 time=5\n",
      "note_on channel=0 note=83 velocity=0 time=54\n",
      "note_on channel=0 note=81 velocity=90 time=7\n",
      "note_on channel=0 note=81 velocity=0 time=54\n",
      "note_on channel=0 note=83 velocity=90 time=5\n",
      "note_on channel=0 note=83 velocity=0 time=54\n",
      "note_on channel=0 note=81 velocity=90 time=7\n",
      "note_on channel=0 note=81 velocity=0 time=54\n",
      "note_on channel=0 note=83 velocity=90 time=5\n",
      "note_on channel=0 note=83 velocity=0 time=54\n",
      "note_on channel=0 note=81 velocity=90 time=7\n",
      "note_on channel=0 note=81 velocity=0 time=54\n",
      "note_on channel=0 note=83 velocity=90 time=5\n",
      "note_on channel=0 note=83 velocity=0 time=54\n",
      "note_on channel=0 note=81 velocity=90 time=7\n",
      "note_on channel=0 note=81 velocity=0 time=54\n",
      "note_on channel=0 note=83 velocity=90 time=5\n",
      "note_on channel=0 note=83 velocity=0 time=54\n",
      "note_on channel=0 note=81 velocity=90 time=7\n",
      "note_on channel=0 note=81 velocity=0 time=54\n",
      "note_on channel=0 note=83 velocity=90 time=5\n",
      "note_on channel=0 note=83 velocity=0 time=54\n",
      "note_on channel=0 note=81 velocity=90 time=7\n",
      "note_on channel=0 note=81 velocity=0 time=54\n",
      "note_on channel=0 note=83 velocity=90 time=5\n",
      "note_on channel=0 note=83 velocity=0 time=54\n",
      "note_on channel=0 note=60 velocity=90 time=7\n",
      "note_on channel=0 note=60 velocity=0 time=55\n",
      "note_on channel=0 note=62 velocity=90 time=5\n",
      "note_on channel=0 note=62 velocity=0 time=55\n",
      "note_on channel=0 note=60 velocity=90 time=5\n",
      "note_on channel=0 note=60 velocity=0 time=55\n",
      "note_on channel=0 note=62 velocity=90 time=5\n",
      "note_on channel=0 note=62 velocity=0 time=55\n",
      "note_on channel=0 note=60 velocity=90 time=5\n",
      "note_on channel=0 note=60 velocity=0 time=55\n",
      "note_on channel=0 note=62 velocity=90 time=5\n",
      "note_on channel=0 note=62 velocity=0 time=55\n",
      "note_on channel=0 note=60 velocity=90 time=5\n",
      "note_on channel=0 note=60 velocity=0 time=55\n",
      "note_on channel=0 note=62 velocity=90 time=5\n",
      "note_on channel=0 note=62 velocity=0 time=55\n",
      "note_on channel=0 note=72 velocity=90 time=5\n",
      "note_on channel=0 note=72 velocity=0 time=55\n",
      "note_on channel=0 note=74 velocity=90 time=5\n",
      "note_on channel=0 note=74 velocity=0 time=55\n",
      "note_on channel=0 note=72 velocity=90 time=5\n",
      "note_on channel=0 note=72 velocity=0 time=55\n",
      "note_on channel=0 note=74 velocity=90 time=5\n",
      "note_on channel=0 note=74 velocity=0 time=55\n",
      "note_on channel=0 note=72 velocity=90 time=5\n",
      "note_on channel=0 note=72 velocity=0 time=55\n",
      "note_on channel=0 note=74 velocity=90 time=5\n",
      "note_on channel=0 note=74 velocity=0 time=55\n",
      "note_on channel=0 note=72 velocity=90 time=5\n",
      "note_on channel=0 note=72 velocity=0 time=55\n",
      "note_on channel=0 note=74 velocity=90 time=5\n",
      "note_on channel=0 note=74 velocity=0 time=55\n",
      "note_on channel=0 note=84 velocity=90 time=5\n",
      "note_on channel=0 note=84 velocity=0 time=54\n",
      "note_on channel=0 note=86 velocity=90 time=5\n",
      "note_on channel=0 note=86 velocity=0 time=54\n",
      "note_on channel=0 note=84 velocity=90 time=7\n",
      "note_on channel=0 note=84 velocity=0 time=54\n",
      "note_on channel=0 note=86 velocity=90 time=5\n",
      "note_on channel=0 note=86 velocity=0 time=54\n",
      "note_on channel=0 note=84 velocity=90 time=7\n",
      "note_on channel=0 note=84 velocity=0 time=54\n",
      "note_on channel=0 note=86 velocity=90 time=5\n",
      "note_on channel=0 note=86 velocity=0 time=54\n",
      "note_on channel=0 note=84 velocity=90 time=7\n",
      "note_on channel=0 note=84 velocity=0 time=54\n",
      "note_on channel=0 note=86 velocity=90 time=5\n",
      "note_on channel=0 note=86 velocity=0 time=54\n",
      "note_on channel=0 note=84 velocity=90 time=7\n",
      "note_on channel=0 note=84 velocity=0 time=54\n",
      "note_on channel=0 note=86 velocity=90 time=5\n",
      "note_on channel=0 note=86 velocity=0 time=54\n",
      "note_on channel=0 note=84 velocity=90 time=7\n",
      "note_on channel=0 note=84 velocity=0 time=54\n",
      "note_on channel=0 note=86 velocity=90 time=5\n",
      "note_on channel=0 note=86 velocity=0 time=54\n",
      "note_on channel=0 note=84 velocity=90 time=7\n",
      "note_on channel=0 note=84 velocity=0 time=54\n",
      "note_on channel=0 note=86 velocity=90 time=5\n",
      "note_on channel=0 note=86 velocity=0 time=54\n",
      "note_on channel=0 note=84 velocity=90 time=7\n",
      "note_on channel=0 note=84 velocity=0 time=54\n",
      "note_on channel=0 note=86 velocity=90 time=5\n",
      "note_on channel=0 note=86 velocity=0 time=54\n",
      "note_on channel=0 note=66 velocity=90 time=7\n",
      "note_on channel=0 note=66 velocity=0 time=55\n",
      "note_on channel=0 note=67 velocity=90 time=5\n",
      "note_on channel=0 note=67 velocity=0 time=55\n",
      "note_on channel=0 note=66 velocity=90 time=5\n",
      "note_on channel=0 note=66 velocity=0 time=55\n",
      "note_on channel=0 note=67 velocity=90 time=5\n",
      "note_on channel=0 note=67 velocity=0 time=55\n",
      "note_on channel=0 note=66 velocity=90 time=5\n",
      "note_on channel=0 note=66 velocity=0 time=55\n",
      "note_on channel=0 note=67 velocity=90 time=5\n",
      "note_on channel=0 note=67 velocity=0 time=55\n",
      "note_on channel=0 note=66 velocity=90 time=5\n",
      "note_on channel=0 note=66 velocity=0 time=55\n",
      "note_on channel=0 note=67 velocity=90 time=5\n",
      "note_on channel=0 note=67 velocity=0 time=55\n",
      "note_on channel=0 note=78 velocity=90 time=5\n",
      "note_on channel=0 note=78 velocity=0 time=55\n",
      "note_on channel=0 note=79 velocity=90 time=5\n",
      "note_on channel=0 note=79 velocity=0 time=55\n",
      "note_on channel=0 note=78 velocity=90 time=5\n",
      "note_on channel=0 note=78 velocity=0 time=55\n",
      "note_on channel=0 note=79 velocity=90 time=5\n",
      "note_on channel=0 note=79 velocity=0 time=55\n",
      "note_on channel=0 note=78 velocity=90 time=5\n",
      "note_on channel=0 note=78 velocity=0 time=55\n",
      "note_on channel=0 note=79 velocity=90 time=5\n",
      "note_on channel=0 note=79 velocity=0 time=55\n",
      "note_on channel=0 note=78 velocity=90 time=5\n",
      "note_on channel=0 note=78 velocity=0 time=55\n",
      "note_on channel=0 note=79 velocity=90 time=5\n",
      "note_on channel=0 note=79 velocity=0 time=55\n",
      "note_on channel=0 note=90 velocity=90 time=5\n",
      "note_on channel=0 note=84 velocity=90 time=0\n",
      "note_on channel=0 note=90 velocity=0 time=54\n",
      "note_on channel=0 note=84 velocity=0 time=0\n",
      "note_on channel=0 note=91 velocity=90 time=5\n",
      "note_on channel=0 note=86 velocity=90 time=0\n",
      "note_on channel=0 note=91 velocity=0 time=54\n",
      "note_on channel=0 note=86 velocity=0 time=0\n",
      "note_on channel=0 note=90 velocity=90 time=7\n",
      "note_on channel=0 note=84 velocity=90 time=0\n",
      "note_on channel=0 note=90 velocity=0 time=54\n",
      "note_on channel=0 note=84 velocity=0 time=0\n",
      "note_on channel=0 note=91 velocity=90 time=5\n",
      "note_on channel=0 note=86 velocity=90 time=0\n",
      "note_on channel=0 note=91 velocity=0 time=54\n",
      "note_on channel=0 note=86 velocity=0 time=0\n",
      "note_on channel=0 note=90 velocity=90 time=7\n",
      "note_on channel=0 note=84 velocity=90 time=0\n",
      "note_on channel=0 note=90 velocity=0 time=54\n",
      "note_on channel=0 note=84 velocity=0 time=0\n",
      "note_on channel=0 note=91 velocity=90 time=5\n",
      "note_on channel=0 note=86 velocity=90 time=0\n",
      "note_on channel=0 note=91 velocity=0 time=54\n",
      "note_on channel=0 note=86 velocity=0 time=0\n",
      "note_on channel=0 note=90 velocity=90 time=7\n",
      "note_on channel=0 note=84 velocity=90 time=0\n",
      "note_on channel=0 note=90 velocity=0 time=54\n",
      "note_on channel=0 note=84 velocity=0 time=0\n",
      "note_on channel=0 note=91 velocity=90 time=5\n",
      "note_on channel=0 note=86 velocity=90 time=0\n",
      "note_on channel=0 note=91 velocity=0 time=54\n",
      "note_on channel=0 note=86 velocity=0 time=0\n",
      "note_on channel=0 note=90 velocity=90 time=7\n",
      "note_on channel=0 note=84 velocity=90 time=0\n",
      "note_on channel=0 note=90 velocity=0 time=54\n",
      "note_on channel=0 note=84 velocity=0 time=0\n",
      "note_on channel=0 note=91 velocity=90 time=5\n",
      "note_on channel=0 note=86 velocity=90 time=0\n",
      "note_on channel=0 note=91 velocity=0 time=54\n",
      "note_on channel=0 note=86 velocity=0 time=0\n",
      "note_on channel=0 note=90 velocity=90 time=7\n",
      "note_on channel=0 note=84 velocity=90 time=0\n",
      "note_on channel=0 note=90 velocity=0 time=54\n",
      "note_on channel=0 note=84 velocity=0 time=0\n",
      "note_on channel=0 note=91 velocity=90 time=5\n",
      "note_on channel=0 note=86 velocity=90 time=0\n",
      "note_on channel=0 note=91 velocity=0 time=54\n",
      "note_on channel=0 note=86 velocity=0 time=0\n",
      "note_on channel=0 note=90 velocity=90 time=7\n",
      "note_on channel=0 note=84 velocity=90 time=0\n",
      "note_on channel=0 note=90 velocity=0 time=54\n",
      "note_on channel=0 note=84 velocity=0 time=0\n",
      "note_on channel=0 note=91 velocity=90 time=5\n",
      "note_on channel=0 note=86 velocity=90 time=0\n",
      "note_on channel=0 note=91 velocity=0 time=54\n",
      "note_on channel=0 note=86 velocity=0 time=0\n",
      "note_on channel=0 note=90 velocity=90 time=7\n",
      "note_on channel=0 note=84 velocity=90 time=0\n",
      "note_on channel=0 note=90 velocity=0 time=54\n",
      "note_on channel=0 note=84 velocity=0 time=0\n",
      "note_on channel=0 note=91 velocity=90 time=5\n",
      "note_on channel=0 note=86 velocity=90 time=0\n",
      "note_on channel=0 note=91 velocity=0 time=54\n",
      "note_on channel=0 note=86 velocity=0 time=0\n",
      "note_on channel=0 note=90 velocity=90 time=7\n",
      "note_on channel=0 note=84 velocity=90 time=0\n",
      "note_on channel=0 note=90 velocity=0 time=54\n",
      "note_on channel=0 note=84 velocity=0 time=0\n",
      "note_on channel=0 note=91 velocity=90 time=5\n",
      "note_on channel=0 note=86 velocity=90 time=0\n",
      "note_on channel=0 note=91 velocity=0 time=54\n",
      "note_on channel=0 note=86 velocity=0 time=0\n",
      "note_on channel=0 note=90 velocity=90 time=7\n",
      "note_on channel=0 note=84 velocity=90 time=0\n",
      "note_on channel=0 note=90 velocity=0 time=54\n",
      "note_on channel=0 note=84 velocity=0 time=0\n",
      "note_on channel=0 note=91 velocity=90 time=5\n",
      "note_on channel=0 note=86 velocity=90 time=0\n",
      "note_on channel=0 note=91 velocity=0 time=54\n",
      "note_on channel=0 note=86 velocity=0 time=0\n",
      "note_on channel=0 note=90 velocity=90 time=7\n",
      "note_on channel=0 note=84 velocity=90 time=0\n",
      "note_on channel=0 note=90 velocity=0 time=54\n",
      "note_on channel=0 note=84 velocity=0 time=0\n",
      "note_on channel=0 note=91 velocity=90 time=5\n",
      "note_on channel=0 note=86 velocity=90 time=0\n",
      "note_on channel=0 note=91 velocity=0 time=54\n",
      "note_on channel=0 note=86 velocity=0 time=0\n",
      "note_on channel=0 note=90 velocity=90 time=7\n",
      "note_on channel=0 note=84 velocity=90 time=0\n",
      "note_on channel=0 note=90 velocity=0 time=54\n",
      "note_on channel=0 note=84 velocity=0 time=0\n",
      "note_on channel=0 note=91 velocity=90 time=5\n",
      "note_on channel=0 note=86 velocity=90 time=0\n",
      "note_on channel=0 note=91 velocity=0 time=54\n",
      "note_on channel=0 note=86 velocity=0 time=0\n",
      "note_on channel=0 note=90 velocity=90 time=7\n",
      "note_on channel=0 note=84 velocity=90 time=0\n",
      "note_on channel=0 note=90 velocity=0 time=54\n",
      "note_on channel=0 note=84 velocity=0 time=0\n",
      "note_on channel=0 note=91 velocity=90 time=5\n",
      "note_on channel=0 note=86 velocity=90 time=0\n",
      "note_on channel=0 note=91 velocity=0 time=54\n",
      "note_on channel=0 note=86 velocity=0 time=0\n",
      "note_on channel=0 note=90 velocity=90 time=7\n",
      "note_on channel=0 note=84 velocity=90 time=0\n",
      "note_on channel=0 note=90 velocity=0 time=54\n",
      "note_on channel=0 note=84 velocity=0 time=0\n",
      "note_on channel=0 note=91 velocity=90 time=5\n",
      "note_on channel=0 note=86 velocity=90 time=0\n",
      "note_on channel=0 note=91 velocity=0 time=54\n",
      "note_on channel=0 note=86 velocity=0 time=0\n",
      "note_on channel=0 note=90 velocity=90 time=7\n",
      "note_on channel=0 note=84 velocity=90 time=0\n",
      "note_on channel=0 note=90 velocity=0 time=54\n",
      "note_on channel=0 note=84 velocity=0 time=0\n",
      "note_on channel=0 note=91 velocity=90 time=5\n",
      "note_on channel=0 note=86 velocity=90 time=0\n",
      "note_on channel=0 note=91 velocity=0 time=54\n",
      "note_on channel=0 note=86 velocity=0 time=0\n",
      "note_on channel=0 note=90 velocity=90 time=7\n",
      "note_on channel=0 note=84 velocity=90 time=0\n",
      "note_on channel=0 note=90 velocity=0 time=54\n",
      "note_on channel=0 note=84 velocity=0 time=0\n",
      "note_on channel=0 note=91 velocity=90 time=5\n",
      "note_on channel=0 note=86 velocity=90 time=0\n",
      "note_on channel=0 note=91 velocity=0 time=54\n",
      "note_on channel=0 note=86 velocity=0 time=0\n",
      "note_on channel=0 note=90 velocity=90 time=7\n",
      "note_on channel=0 note=84 velocity=90 time=0\n",
      "note_on channel=0 note=90 velocity=0 time=54\n",
      "note_on channel=0 note=84 velocity=0 time=0\n",
      "note_on channel=0 note=91 velocity=90 time=5\n",
      "note_on channel=0 note=86 velocity=90 time=0\n",
      "note_on channel=0 note=91 velocity=0 time=54\n",
      "note_on channel=0 note=86 velocity=0 time=0\n",
      "note_on channel=0 note=90 velocity=90 time=7\n",
      "note_on channel=0 note=84 velocity=90 time=0\n",
      "note_on channel=0 note=90 velocity=0 time=54\n",
      "note_on channel=0 note=84 velocity=0 time=0\n",
      "note_on channel=0 note=91 velocity=90 time=5\n",
      "note_on channel=0 note=86 velocity=90 time=0\n",
      "note_on channel=0 note=91 velocity=0 time=54\n",
      "note_on channel=0 note=86 velocity=0 time=0\n",
      "note_on channel=0 note=90 velocity=90 time=7\n",
      "note_on channel=0 note=84 velocity=90 time=0\n",
      "note_on channel=0 note=90 velocity=0 time=54\n",
      "note_on channel=0 note=84 velocity=0 time=0\n",
      "note_on channel=0 note=91 velocity=90 time=5\n",
      "note_on channel=0 note=86 velocity=90 time=0\n",
      "note_on channel=0 note=91 velocity=0 time=54\n",
      "note_on channel=0 note=86 velocity=0 time=0\n",
      "note_on channel=0 note=90 velocity=90 time=7\n",
      "note_on channel=0 note=84 velocity=90 time=0\n",
      "note_on channel=0 note=90 velocity=0 time=54\n",
      "note_on channel=0 note=84 velocity=0 time=0\n",
      "note_on channel=0 note=91 velocity=90 time=5\n",
      "note_on channel=0 note=86 velocity=90 time=0\n",
      "note_on channel=0 note=91 velocity=0 time=54\n",
      "note_on channel=0 note=86 velocity=0 time=0\n",
      "note_on channel=0 note=90 velocity=90 time=7\n",
      "note_on channel=0 note=84 velocity=90 time=0\n",
      "note_on channel=0 note=90 velocity=0 time=54\n",
      "note_on channel=0 note=84 velocity=0 time=0\n",
      "note_on channel=0 note=91 velocity=90 time=5\n",
      "note_on channel=0 note=86 velocity=90 time=0\n",
      "note_on channel=0 note=91 velocity=0 time=54\n",
      "note_on channel=0 note=86 velocity=0 time=0\n",
      "note_on channel=0 note=90 velocity=90 time=7\n",
      "note_on channel=0 note=84 velocity=90 time=0\n",
      "note_on channel=0 note=90 velocity=0 time=54\n",
      "note_on channel=0 note=84 velocity=0 time=0\n",
      "note_on channel=0 note=91 velocity=90 time=5\n",
      "note_on channel=0 note=86 velocity=90 time=0\n",
      "note_on channel=0 note=91 velocity=0 time=54\n",
      "note_on channel=0 note=86 velocity=0 time=0\n",
      "note_on channel=0 note=90 velocity=90 time=7\n",
      "note_on channel=0 note=84 velocity=90 time=0\n",
      "note_on channel=0 note=90 velocity=0 time=54\n",
      "note_on channel=0 note=84 velocity=0 time=0\n",
      "note_on channel=0 note=91 velocity=90 time=5\n",
      "note_on channel=0 note=86 velocity=90 time=0\n",
      "note_on channel=0 note=91 velocity=0 time=54\n",
      "note_on channel=0 note=86 velocity=0 time=0\n",
      "note_on channel=0 note=90 velocity=90 time=7\n",
      "note_on channel=0 note=84 velocity=90 time=0\n",
      "note_on channel=0 note=90 velocity=0 time=54\n",
      "note_on channel=0 note=84 velocity=0 time=0\n",
      "note_on channel=0 note=91 velocity=90 time=5\n",
      "note_on channel=0 note=86 velocity=90 time=0\n",
      "note_on channel=0 note=91 velocity=0 time=54\n",
      "note_on channel=0 note=86 velocity=0 time=0\n",
      "note_on channel=0 note=89 velocity=112 time=7\n",
      "note_on channel=0 note=89 velocity=0 time=151\n",
      "note_on channel=0 note=88 velocity=112 time=9\n",
      "note_on channel=0 note=88 velocity=0 time=151\n",
      "note_on channel=0 note=91 velocity=106 time=9\n",
      "note_on channel=0 note=91 velocity=0 time=151\n",
      "note_on channel=0 note=89 velocity=99 time=9\n",
      "note_on channel=0 note=89 velocity=0 time=151\n",
      "note_on channel=0 note=88 velocity=93 time=9\n",
      "note_on channel=0 note=88 velocity=0 time=151\n",
      "note_on channel=0 note=86 velocity=86 time=9\n",
      "note_on channel=0 note=86 velocity=0 time=151\n",
      "note_on channel=0 note=84 velocity=80 time=9\n",
      "note_on channel=0 note=84 velocity=0 time=151\n",
      "note_on channel=0 note=83 velocity=73 time=9\n",
      "note_on channel=0 note=83 velocity=0 time=151\n",
      "note_on channel=0 note=81 velocity=67 time=9\n",
      "note_on channel=0 note=81 velocity=0 time=151\n",
      "note_on channel=0 note=80 velocity=60 time=9\n",
      "note_on channel=0 note=80 velocity=0 time=151\n",
      "note_on channel=0 note=77 velocity=54 time=9\n",
      "note_on channel=0 note=77 velocity=0 time=151\n",
      "note_on channel=0 note=76 velocity=47 time=9\n",
      "note_on channel=0 note=76 velocity=0 time=151\n",
      "note_on channel=0 note=74 velocity=40 time=9\n",
      "control_change channel=0 control=64 value=127 time=2\n",
      "note_on channel=0 note=74 velocity=0 time=149\n",
      "note_on channel=0 note=72 velocity=40 time=9\n",
      "note_on channel=0 note=72 velocity=0 time=151\n",
      "note_on channel=0 note=71 velocity=40 time=9\n",
      "note_on channel=0 note=71 velocity=0 time=151\n",
      "note_on channel=0 note=69 velocity=40 time=9\n",
      "control_change channel=0 control=64 value=0 time=1\n",
      "control_change channel=0 control=64 value=127 time=1\n",
      "note_on channel=0 note=69 velocity=0 time=149\n",
      "note_on channel=0 note=68 velocity=40 time=9\n",
      "note_on channel=0 note=68 velocity=0 time=151\n",
      "note_on channel=0 note=77 velocity=40 time=9\n",
      "note_on channel=0 note=77 velocity=0 time=151\n",
      "note_on channel=0 note=77 velocity=40 time=9\n",
      "control_change channel=0 control=64 value=0 time=1\n",
      "note_on channel=0 note=77 velocity=0 time=150\n",
      "note_on channel=0 note=76 velocity=40 time=9\n",
      "note_on channel=0 note=76 velocity=0 time=151\n",
      "note_on channel=0 note=74 velocity=40 time=9\n",
      "note_on channel=0 note=74 velocity=0 time=151\n",
      "note_on channel=0 note=72 velocity=40 time=9\n",
      "note_on channel=0 note=72 velocity=0 time=151\n",
      "note_on channel=0 note=71 velocity=40 time=9\n",
      "note_on channel=0 note=71 velocity=0 time=151\n",
      "note_on channel=0 note=69 velocity=40 time=9\n",
      "note_on channel=0 note=69 velocity=0 time=151\n",
      "note_on channel=0 note=76 velocity=40 time=9\n",
      "note_on channel=0 note=76 velocity=0 time=151\n",
      "note_on channel=0 note=74 velocity=40 time=9\n",
      "note_on channel=0 note=74 velocity=0 time=151\n",
      "note_on channel=0 note=72 velocity=40 time=9\n",
      "note_on channel=0 note=72 velocity=0 time=151\n",
      "note_on channel=0 note=71 velocity=40 time=9\n",
      "note_on channel=0 note=71 velocity=0 time=151\n",
      "note_on channel=0 note=69 velocity=40 time=9\n",
      "note_on channel=0 note=69 velocity=0 time=151\n",
      "note_on channel=0 note=67 velocity=40 time=9\n",
      "note_on channel=0 note=67 velocity=0 time=151\n",
      "note_on channel=0 note=74 velocity=40 time=9\n",
      "note_on channel=0 note=74 velocity=0 time=151\n",
      "note_on channel=0 note=72 velocity=40 time=9\n",
      "note_on channel=0 note=72 velocity=0 time=151\n",
      "note_on channel=0 note=71 velocity=40 time=9\n",
      "note_on channel=0 note=71 velocity=0 time=151\n",
      "note_on channel=0 note=69 velocity=40 time=9\n",
      "note_on channel=0 note=69 velocity=0 time=151\n",
      "note_on channel=0 note=67 velocity=40 time=9\n",
      "note_on channel=0 note=67 velocity=0 time=151\n",
      "note_on channel=0 note=66 velocity=40 time=9\n",
      "note_on channel=0 note=66 velocity=0 time=151\n",
      "note_on channel=0 note=56 velocity=72 time=969\n",
      "note_on channel=0 note=56 velocity=0 time=151\n",
      "note_on channel=0 note=59 velocity=68 time=9\n",
      "note_on channel=0 note=59 velocity=0 time=151\n",
      "note_on channel=0 note=62 velocity=64 time=9\n",
      "note_on channel=0 note=62 velocity=0 time=151\n",
      "note_on channel=0 note=65 velocity=61 time=9\n",
      "note_on channel=0 note=65 velocity=0 time=151\n",
      "note_on channel=0 note=68 velocity=57 time=9\n",
      "note_on channel=0 note=68 velocity=0 time=151\n",
      "note_on channel=0 note=71 velocity=53 time=9\n",
      "note_on channel=0 note=71 velocity=0 time=151\n",
      "note_on channel=0 note=74 velocity=49 time=9\n",
      "note_on channel=0 note=74 velocity=0 time=151\n",
      "note_on channel=0 note=77 velocity=49 time=9\n",
      "note_on channel=0 note=77 velocity=0 time=151\n",
      "note_on channel=0 note=80 velocity=49 time=9\n",
      "note_on channel=0 note=80 velocity=0 time=151\n",
      "note_on channel=0 note=83 velocity=49 time=9\n",
      "note_on channel=0 note=83 velocity=0 time=151\n",
      "note_on channel=0 note=86 velocity=49 time=9\n",
      "note_on channel=0 note=86 velocity=0 time=151\n",
      "note_on channel=0 note=89 velocity=49 time=9\n",
      "note_on channel=0 note=89 velocity=0 time=303\n",
      "note_on channel=0 note=88 velocity=49 time=17\n",
      "note_on channel=0 note=88 velocity=0 time=151\n",
      "note_on channel=0 note=86 velocity=49 time=9\n",
      "note_on channel=0 note=86 velocity=0 time=151\n",
      "note_on channel=0 note=84 velocity=49 time=9\n",
      "note_on channel=0 note=84 velocity=0 time=151\n",
      "note_on channel=0 note=83 velocity=49 time=9\n",
      "note_on channel=0 note=83 velocity=0 time=151\n",
      "note_on channel=0 note=81 velocity=49 time=9\n",
      "note_on channel=0 note=81 velocity=0 time=151\n",
      "note_on channel=0 note=88 velocity=49 time=9\n",
      "note_on channel=0 note=88 velocity=0 time=151\n",
      "note_on channel=0 note=86 velocity=49 time=9\n",
      "note_on channel=0 note=86 velocity=0 time=151\n",
      "note_on channel=0 note=84 velocity=49 time=9\n",
      "note_on channel=0 note=84 velocity=0 time=151\n",
      "note_on channel=0 note=83 velocity=49 time=9\n",
      "note_on channel=0 note=83 velocity=0 time=151\n",
      "note_on channel=0 note=81 velocity=49 time=9\n",
      "note_on channel=0 note=81 velocity=0 time=151\n",
      "note_on channel=0 note=79 velocity=49 time=9\n",
      "note_on channel=0 note=79 velocity=0 time=151\n",
      "note_on channel=0 note=86 velocity=49 time=9\n",
      "note_on channel=0 note=86 velocity=0 time=151\n",
      "note_on channel=0 note=84 velocity=49 time=9\n",
      "note_on channel=0 note=84 velocity=0 time=151\n",
      "note_on channel=0 note=83 velocity=49 time=9\n",
      "note_on channel=0 note=83 velocity=0 time=151\n",
      "note_on channel=0 note=81 velocity=49 time=9\n",
      "note_on channel=0 note=81 velocity=0 time=151\n",
      "note_on channel=0 note=79 velocity=49 time=9\n",
      "note_on channel=0 note=79 velocity=0 time=151\n",
      "note_on channel=0 note=78 velocity=49 time=9\n",
      "note_on channel=0 note=78 velocity=0 time=151\n",
      "note_on channel=0 note=74 velocity=40 time=129\n",
      "note_on channel=0 note=74 velocity=0 time=113\n",
      "note_on channel=0 note=83 velocity=40 time=7\n",
      "note_on channel=0 note=83 velocity=0 time=113\n",
      "note_on channel=0 note=79 velocity=40 time=7\n",
      "note_on channel=0 note=79 velocity=0 time=113\n",
      "note_on channel=0 note=86 velocity=40 time=7\n",
      "note_on channel=0 note=86 velocity=0 time=455\n",
      "note_on channel=0 note=74 velocity=40 time=145\n",
      "note_on channel=0 note=74 velocity=0 time=113\n",
      "note_on channel=0 note=83 velocity=40 time=7\n",
      "note_on channel=0 note=83 velocity=0 time=113\n",
      "note_on channel=0 note=79 velocity=40 time=7\n",
      "note_on channel=0 note=79 velocity=0 time=113\n",
      "note_on channel=0 note=86 velocity=40 time=7\n",
      "note_on channel=0 note=86 velocity=0 time=455\n",
      "note_on channel=0 note=76 velocity=40 time=145\n",
      "note_on channel=0 note=76 velocity=0 time=113\n",
      "note_on channel=0 note=84 velocity=40 time=7\n",
      "note_on channel=0 note=84 velocity=0 time=113\n",
      "note_on channel=0 note=79 velocity=40 time=7\n",
      "note_on channel=0 note=79 velocity=0 time=113\n",
      "note_on channel=0 note=88 velocity=40 time=7\n",
      "note_on channel=0 note=88 velocity=0 time=455\n",
      "note_on channel=0 note=76 velocity=40 time=145\n",
      "note_on channel=0 note=76 velocity=0 time=113\n",
      "note_on channel=0 note=84 velocity=40 time=7\n",
      "note_on channel=0 note=84 velocity=0 time=113\n",
      "note_on channel=0 note=79 velocity=40 time=7\n",
      "note_on channel=0 note=79 velocity=0 time=113\n",
      "note_on channel=0 note=88 velocity=40 time=7\n",
      "note_on channel=0 note=88 velocity=0 time=455\n",
      "note_on channel=0 note=76 velocity=40 time=145\n",
      "note_on channel=0 note=76 velocity=0 time=113\n",
      "note_on channel=0 note=84 velocity=40 time=7\n",
      "note_on channel=0 note=84 velocity=0 time=113\n",
      "note_on channel=0 note=81 velocity=40 time=7\n",
      "note_on channel=0 note=81 velocity=0 time=113\n",
      "note_on channel=0 note=88 velocity=40 time=7\n",
      "note_on channel=0 note=88 velocity=0 time=455\n",
      "note_on channel=0 note=74 velocity=40 time=145\n",
      "note_on channel=0 note=74 velocity=0 time=113\n",
      "note_on channel=0 note=84 velocity=40 time=7\n",
      "note_on channel=0 note=84 velocity=0 time=113\n",
      "note_on channel=0 note=81 velocity=40 time=7\n",
      "note_on channel=0 note=81 velocity=0 time=113\n",
      "note_on channel=0 note=86 velocity=40 time=7\n",
      "note_on channel=0 note=86 velocity=0 time=455\n",
      "note_on channel=0 note=74 velocity=40 time=145\n",
      "note_on channel=0 note=74 velocity=0 time=113\n",
      "note_on channel=0 note=84 velocity=40 time=7\n",
      "note_on channel=0 note=84 velocity=0 time=113\n",
      "note_on channel=0 note=81 velocity=40 time=7\n",
      "note_on channel=0 note=81 velocity=0 time=113\n",
      "note_on channel=0 note=86 velocity=40 time=7\n",
      "note_on channel=0 note=86 velocity=0 time=455\n",
      "note_on channel=0 note=74 velocity=40 time=145\n",
      "note_on channel=0 note=74 velocity=0 time=113\n",
      "note_on channel=0 note=83 velocity=40 time=7\n",
      "note_on channel=0 note=83 velocity=0 time=113\n",
      "note_on channel=0 note=79 velocity=40 time=7\n",
      "note_on channel=0 note=79 velocity=0 time=113\n",
      "note_on channel=0 note=86 velocity=40 time=7\n",
      "note_on channel=0 note=86 velocity=0 time=455\n",
      "note_on channel=0 note=74 velocity=40 time=145\n",
      "note_on channel=0 note=74 velocity=0 time=113\n",
      "note_on channel=0 note=81 velocity=40 time=7\n",
      "note_on channel=0 note=81 velocity=0 time=113\n",
      "note_on channel=0 note=78 velocity=40 time=7\n",
      "note_on channel=0 note=78 velocity=0 time=113\n",
      "note_on channel=0 note=86 velocity=40 time=7\n",
      "note_on channel=0 note=86 velocity=0 time=455\n",
      "note_on channel=0 note=74 velocity=40 time=145\n",
      "note_on channel=0 note=74 velocity=0 time=113\n",
      "note_on channel=0 note=79 velocity=40 time=7\n",
      "note_on channel=0 note=79 velocity=0 time=113\n",
      "note_on channel=0 note=83 velocity=40 time=7\n",
      "note_on channel=0 note=83 velocity=0 time=113\n",
      "note_on channel=0 note=73 velocity=40 time=7\n",
      "note_on channel=0 note=73 velocity=0 time=113\n",
      "note_on channel=0 note=74 velocity=40 time=7\n",
      "note_on channel=0 note=74 velocity=0 time=113\n",
      "note_on channel=0 note=76 velocity=40 time=7\n",
      "note_on channel=0 note=76 velocity=0 time=113\n",
      "note_on channel=0 note=74 velocity=40 time=7\n",
      "note_on channel=0 note=74 velocity=0 time=113\n",
      "note_on channel=0 note=73 velocity=40 time=7\n",
      "note_on channel=0 note=73 velocity=0 time=113\n",
      "note_on channel=0 note=74 velocity=40 time=7\n",
      "note_on channel=0 note=74 velocity=0 time=113\n",
      "note_on channel=0 note=76 velocity=40 time=7\n",
      "note_on channel=0 note=76 velocity=0 time=113\n",
      "note_on channel=0 note=74 velocity=40 time=7\n",
      "note_on channel=0 note=74 velocity=0 time=113\n",
      "note_on channel=0 note=78 velocity=40 time=7\n",
      "note_on channel=0 note=78 velocity=0 time=113\n",
      "note_on channel=0 note=79 velocity=40 time=7\n",
      "note_on channel=0 note=79 velocity=0 time=113\n",
      "note_on channel=0 note=81 velocity=40 time=7\n",
      "note_on channel=0 note=81 velocity=0 time=113\n",
      "note_on channel=0 note=79 velocity=40 time=7\n",
      "note_on channel=0 note=79 velocity=0 time=113\n",
      "note_on channel=0 note=82 velocity=40 time=7\n",
      "note_on channel=0 note=82 velocity=0 time=113\n",
      "note_on channel=0 note=83 velocity=40 time=7\n",
      "note_on channel=0 note=83 velocity=0 time=113\n",
      "note_on channel=0 note=84 velocity=40 time=7\n",
      "note_on channel=0 note=84 velocity=0 time=113\n",
      "note_on channel=0 note=83 velocity=40 time=7\n",
      "note_on channel=0 note=83 velocity=0 time=113\n",
      "note_on channel=0 note=85 velocity=40 time=7\n",
      "note_on channel=0 note=85 velocity=0 time=113\n",
      "note_on channel=0 note=86 velocity=40 time=7\n",
      "note_on channel=0 note=86 velocity=0 time=113\n",
      "note_on channel=0 note=88 velocity=40 time=7\n",
      "note_on channel=0 note=88 velocity=0 time=113\n",
      "note_on channel=0 note=86 velocity=40 time=7\n",
      "note_on channel=0 note=86 velocity=0 time=113\n",
      "note_on channel=0 note=75 velocity=40 time=7\n",
      "note_on channel=0 note=75 velocity=0 time=113\n",
      "note_on channel=0 note=76 velocity=40 time=7\n",
      "note_on channel=0 note=76 velocity=0 time=113\n",
      "note_on channel=0 note=77 velocity=40 time=7\n",
      "note_on channel=0 note=77 velocity=0 time=113\n",
      "note_on channel=0 note=76 velocity=40 time=7\n",
      "note_on channel=0 note=76 velocity=0 time=113\n",
      "note_on channel=0 note=78 velocity=40 time=7\n",
      "note_on channel=0 note=78 velocity=0 time=113\n",
      "note_on channel=0 note=79 velocity=40 time=7\n",
      "note_on channel=0 note=79 velocity=0 time=113\n",
      "note_on channel=0 note=81 velocity=40 time=7\n",
      "note_on channel=0 note=81 velocity=0 time=113\n",
      "note_on channel=0 note=79 velocity=40 time=7\n",
      "note_on channel=0 note=79 velocity=0 time=113\n",
      "note_on channel=0 note=83 velocity=40 time=7\n",
      "note_on channel=0 note=83 velocity=0 time=113\n",
      "note_on channel=0 note=84 velocity=40 time=7\n",
      "note_on channel=0 note=84 velocity=0 time=113\n",
      "note_on channel=0 note=86 velocity=40 time=7\n",
      "note_on channel=0 note=86 velocity=0 time=113\n",
      "note_on channel=0 note=84 velocity=40 time=7\n",
      "note_on channel=0 note=84 velocity=0 time=113\n",
      "note_on channel=0 note=87 velocity=40 time=7\n",
      "note_on channel=0 note=87 velocity=0 time=113\n",
      "note_on channel=0 note=88 velocity=40 time=7\n",
      "note_on channel=0 note=88 velocity=0 time=113\n",
      "note_on channel=0 note=89 velocity=40 time=7\n",
      "note_on channel=0 note=89 velocity=0 time=113\n",
      "note_on channel=0 note=88 velocity=40 time=7\n",
      "note_on channel=0 note=88 velocity=0 time=113\n",
      "note_on channel=0 note=87 velocity=40 time=7\n",
      "note_on channel=0 note=87 velocity=0 time=113\n",
      "note_on channel=0 note=88 velocity=40 time=7\n",
      "note_on channel=0 note=88 velocity=0 time=113\n",
      "note_on channel=0 note=89 velocity=40 time=7\n",
      "note_on channel=0 note=89 velocity=0 time=113\n",
      "note_on channel=0 note=88 velocity=40 time=7\n",
      "note_on channel=0 note=88 velocity=0 time=113\n",
      "note_on channel=0 note=83 velocity=40 time=7\n",
      "note_on channel=0 note=83 velocity=0 time=113\n",
      "note_on channel=0 note=84 velocity=40 time=7\n",
      "note_on channel=0 note=84 velocity=0 time=113\n",
      "note_on channel=0 note=86 velocity=40 time=7\n",
      "note_on channel=0 note=86 velocity=0 time=113\n",
      "note_on channel=0 note=84 velocity=40 time=7\n",
      "note_on channel=0 note=84 velocity=0 time=113\n",
      "note_on channel=0 note=80 velocity=40 time=7\n",
      "note_on channel=0 note=80 velocity=0 time=113\n",
      "note_on channel=0 note=81 velocity=40 time=7\n",
      "note_on channel=0 note=81 velocity=0 time=113\n",
      "note_on channel=0 note=83 velocity=40 time=7\n",
      "note_on channel=0 note=83 velocity=0 time=113\n",
      "note_on channel=0 note=81 velocity=40 time=7\n",
      "note_on channel=0 note=81 velocity=0 time=113\n",
      "note_on channel=0 note=80 velocity=40 time=7\n",
      "note_on channel=0 note=80 velocity=0 time=113\n",
      "note_on channel=0 note=81 velocity=40 time=7\n",
      "note_on channel=0 note=81 velocity=0 time=113\n",
      "note_on channel=0 note=83 velocity=40 time=7\n",
      "note_on channel=0 note=83 velocity=0 time=113\n",
      "note_on channel=0 note=81 velocity=40 time=7\n",
      "note_on channel=0 note=81 velocity=0 time=113\n",
      "note_on channel=0 note=80 velocity=40 time=7\n",
      "note_on channel=0 note=80 velocity=0 time=113\n",
      "note_on channel=0 note=81 velocity=40 time=7\n",
      "note_on channel=0 note=81 velocity=0 time=113\n",
      "note_on channel=0 note=83 velocity=40 time=7\n",
      "note_on channel=0 note=83 velocity=0 time=113\n",
      "note_on channel=0 note=81 velocity=40 time=7\n",
      "note_on channel=0 note=81 velocity=0 time=113\n",
      "note_on channel=0 note=85 velocity=40 time=7\n",
      "note_on channel=0 note=85 velocity=0 time=113\n",
      "note_on channel=0 note=86 velocity=40 time=7\n",
      "note_on channel=0 note=86 velocity=0 time=113\n",
      "note_on channel=0 note=88 velocity=40 time=7\n",
      "note_on channel=0 note=88 velocity=0 time=113\n",
      "note_on channel=0 note=86 velocity=40 time=7\n",
      "note_on channel=0 note=86 velocity=0 time=113\n",
      "note_on channel=0 note=82 velocity=40 time=7\n",
      "note_on channel=0 note=82 velocity=0 time=113\n",
      "note_on channel=0 note=83 velocity=40 time=7\n",
      "note_on channel=0 note=83 velocity=0 time=113\n",
      "note_on channel=0 note=84 velocity=40 time=7\n",
      "note_on channel=0 note=84 velocity=0 time=113\n",
      "note_on channel=0 note=83 velocity=40 time=7\n",
      "note_on channel=0 note=83 velocity=0 time=113\n",
      "note_on channel=0 note=78 velocity=40 time=7\n",
      "note_on channel=0 note=78 velocity=0 time=113\n",
      "note_on channel=0 note=79 velocity=40 time=7\n",
      "note_on channel=0 note=79 velocity=0 time=113\n",
      "note_on channel=0 note=81 velocity=40 time=7\n",
      "note_on channel=0 note=81 velocity=0 time=113\n",
      "note_on channel=0 note=79 velocity=40 time=7\n",
      "note_on channel=0 note=79 velocity=0 time=113\n",
      "note_on channel=0 note=80 velocity=40 time=7\n",
      "note_on channel=0 note=80 velocity=0 time=113\n",
      "note_on channel=0 note=81 velocity=40 time=7\n",
      "note_on channel=0 note=81 velocity=0 time=113\n",
      "note_on channel=0 note=83 velocity=40 time=7\n",
      "note_on channel=0 note=83 velocity=0 time=113\n",
      "note_on channel=0 note=81 velocity=40 time=7\n",
      "note_on channel=0 note=81 velocity=0 time=113\n",
      "note_on channel=0 note=73 velocity=40 time=7\n",
      "note_on channel=0 note=73 velocity=0 time=113\n",
      "note_on channel=0 note=74 velocity=40 time=7\n",
      "note_on channel=0 note=74 velocity=0 time=113\n",
      "note_on channel=0 note=76 velocity=40 time=7\n",
      "note_on channel=0 note=76 velocity=0 time=113\n",
      "note_on channel=0 note=74 velocity=40 time=7\n",
      "note_on channel=0 note=74 velocity=0 time=113\n",
      "note_on channel=0 note=70 velocity=40 time=7\n",
      "note_on channel=0 note=70 velocity=0 time=113\n",
      "note_on channel=0 note=71 velocity=40 time=7\n",
      "note_on channel=0 note=71 velocity=0 time=113\n",
      "note_on channel=0 note=72 velocity=40 time=7\n",
      "note_on channel=0 note=72 velocity=0 time=113\n",
      "note_on channel=0 note=71 velocity=40 time=7\n",
      "note_on channel=0 note=71 velocity=0 time=113\n",
      "note_on channel=0 note=78 velocity=40 time=7\n",
      "note_on channel=0 note=78 velocity=0 time=113\n",
      "note_on channel=0 note=79 velocity=40 time=7\n",
      "note_on channel=0 note=79 velocity=0 time=113\n",
      "note_on channel=0 note=81 velocity=40 time=7\n",
      "note_on channel=0 note=81 velocity=0 time=113\n",
      "note_on channel=0 note=79 velocity=40 time=7\n",
      "note_on channel=0 note=79 velocity=0 time=113\n",
      "note_on channel=0 note=80 velocity=40 time=7\n",
      "note_on channel=0 note=80 velocity=0 time=113\n",
      "note_on channel=0 note=81 velocity=40 time=7\n",
      "note_on channel=0 note=81 velocity=0 time=113\n",
      "note_on channel=0 note=83 velocity=40 time=7\n",
      "note_on channel=0 note=83 velocity=0 time=113\n",
      "note_on channel=0 note=81 velocity=40 time=7\n",
      "note_on channel=0 note=81 velocity=0 time=113\n",
      "note_on channel=0 note=73 velocity=40 time=7\n",
      "note_on channel=0 note=73 velocity=0 time=113\n",
      "note_on channel=0 note=74 velocity=40 time=7\n",
      "note_on channel=0 note=74 velocity=0 time=113\n",
      "note_on channel=0 note=76 velocity=40 time=7\n",
      "note_on channel=0 note=76 velocity=0 time=113\n",
      "note_on channel=0 note=74 velocity=40 time=7\n",
      "note_on channel=0 note=74 velocity=0 time=113\n",
      "note_on channel=0 note=70 velocity=40 time=7\n",
      "note_on channel=0 note=70 velocity=0 time=113\n",
      "note_on channel=0 note=71 velocity=40 time=7\n",
      "note_on channel=0 note=71 velocity=0 time=113\n",
      "note_on channel=0 note=72 velocity=40 time=7\n",
      "note_on channel=0 note=72 velocity=0 time=113\n",
      "note_on channel=0 note=71 velocity=40 time=7\n",
      "note_on channel=0 note=71 velocity=0 time=113\n",
      "note_on channel=0 note=78 velocity=40 time=7\n",
      "note_on channel=0 note=78 velocity=0 time=113\n",
      "note_on channel=0 note=79 velocity=40 time=7\n",
      "note_on channel=0 note=79 velocity=0 time=113\n",
      "note_on channel=0 note=81 velocity=40 time=7\n",
      "note_on channel=0 note=81 velocity=0 time=113\n",
      "note_on channel=0 note=79 velocity=40 time=7\n",
      "note_on channel=0 note=79 velocity=0 time=113\n",
      "note_on channel=0 note=80 velocity=40 time=7\n",
      "note_on channel=0 note=80 velocity=0 time=113\n",
      "note_on channel=0 note=81 velocity=40 time=7\n",
      "note_on channel=0 note=81 velocity=0 time=113\n",
      "note_on channel=0 note=83 velocity=40 time=7\n",
      "note_on channel=0 note=83 velocity=0 time=113\n",
      "note_on channel=0 note=81 velocity=39 time=7\n",
      "note_on channel=0 note=81 velocity=0 time=113\n",
      "note_on channel=0 note=73 velocity=39 time=7\n",
      "note_on channel=0 note=73 velocity=0 time=113\n",
      "note_on channel=0 note=74 velocity=38 time=7\n",
      "note_on channel=0 note=74 velocity=0 time=113\n",
      "note_on channel=0 note=76 velocity=38 time=7\n",
      "note_on channel=0 note=76 velocity=0 time=113\n",
      "note_on channel=0 note=74 velocity=37 time=7\n",
      "note_on channel=0 note=74 velocity=0 time=113\n",
      "note_on channel=0 note=80 velocity=37 time=7\n",
      "note_on channel=0 note=80 velocity=0 time=113\n",
      "note_on channel=0 note=81 velocity=36 time=7\n",
      "note_on channel=0 note=81 velocity=0 time=113\n",
      "note_on channel=0 note=83 velocity=36 time=7\n",
      "note_on channel=0 note=83 velocity=0 time=113\n",
      "note_on channel=0 note=81 velocity=35 time=7\n",
      "note_on channel=0 note=81 velocity=0 time=113\n",
      "note_on channel=0 note=73 velocity=35 time=7\n",
      "note_on channel=0 note=73 velocity=0 time=113\n",
      "note_on channel=0 note=74 velocity=34 time=7\n",
      "note_on channel=0 note=74 velocity=0 time=113\n",
      "note_on channel=0 note=76 velocity=34 time=7\n",
      "note_on channel=0 note=76 velocity=0 time=113\n",
      "note_on channel=0 note=74 velocity=33 time=7\n",
      "note_on channel=0 note=74 velocity=0 time=113\n",
      "MetaMessage('set_tempo', tempo=461538, time=7)\n",
      "note_on channel=0 note=80 velocity=33 time=0\n",
      "note_on channel=0 note=80 velocity=0 time=113\n",
      "note_on channel=0 note=81 velocity=32 time=7\n",
      "note_on channel=0 note=81 velocity=0 time=113\n",
      "note_on channel=0 note=83 velocity=32 time=7\n",
      "note_on channel=0 note=83 velocity=0 time=113\n",
      "note_on channel=0 note=81 velocity=31 time=7\n",
      "note_on channel=0 note=81 velocity=0 time=113\n",
      "note_on channel=0 note=73 velocity=31 time=7\n",
      "note_on channel=0 note=73 velocity=0 time=113\n",
      "note_on channel=0 note=74 velocity=30 time=7\n",
      "note_on channel=0 note=74 velocity=0 time=113\n",
      "note_on channel=0 note=76 velocity=30 time=7\n",
      "note_on channel=0 note=76 velocity=0 time=113\n",
      "note_on channel=0 note=74 velocity=29 time=7\n",
      "note_on channel=0 note=74 velocity=0 time=113\n",
      "MetaMessage('set_tempo', tempo=500000, time=7)\n",
      "note_on channel=0 note=80 velocity=29 time=0\n",
      "note_on channel=0 note=80 velocity=0 time=113\n",
      "note_on channel=0 note=81 velocity=28 time=7\n",
      "note_on channel=0 note=81 velocity=0 time=113\n",
      "note_on channel=0 note=83 velocity=28 time=7\n",
      "note_on channel=0 note=83 velocity=0 time=113\n",
      "note_on channel=0 note=81 velocity=27 time=7\n",
      "note_on channel=0 note=81 velocity=0 time=113\n",
      "note_on channel=0 note=73 velocity=27 time=7\n",
      "note_on channel=0 note=73 velocity=0 time=113\n",
      "note_on channel=0 note=74 velocity=26 time=7\n",
      "note_on channel=0 note=74 velocity=0 time=113\n",
      "note_on channel=0 note=76 velocity=26 time=7\n",
      "note_on channel=0 note=76 velocity=0 time=113\n",
      "note_on channel=0 note=74 velocity=25 time=7\n",
      "note_on channel=0 note=74 velocity=0 time=113\n",
      "MetaMessage('set_tempo', tempo=416667, time=7)\n",
      "note_on channel=0 note=79 velocity=49 time=0\n",
      "note_on channel=0 note=83 velocity=49 time=0\n",
      "note_on channel=0 note=79 velocity=0 time=239\n",
      "note_on channel=0 note=83 velocity=0 time=0\n",
      "note_on channel=0 note=81 velocity=49 time=241\n",
      "note_on channel=0 note=84 velocity=49 time=0\n",
      "note_on channel=0 note=81 velocity=0 time=239\n",
      "note_on channel=0 note=84 velocity=0 time=0\n",
      "note_on channel=0 note=83 velocity=49 time=241\n",
      "note_on channel=0 note=86 velocity=49 time=0\n",
      "note_on channel=0 note=83 velocity=0 time=239\n",
      "note_on channel=0 note=86 velocity=0 time=0\n",
      "note_on channel=0 note=83 velocity=49 time=241\n",
      "note_on channel=0 note=86 velocity=49 time=0\n",
      "note_on channel=0 note=91 velocity=49 time=0\n",
      "note_on channel=0 note=83 velocity=0 time=239\n",
      "note_on channel=0 note=86 velocity=0 time=0\n",
      "note_on channel=0 note=91 velocity=0 time=0\n",
      "note_on channel=0 note=81 velocity=49 time=241\n",
      "note_on channel=0 note=84 velocity=49 time=0\n",
      "note_on channel=0 note=90 velocity=49 time=0\n",
      "note_on channel=0 note=81 velocity=0 time=239\n",
      "note_on channel=0 note=84 velocity=0 time=0\n",
      "note_on channel=0 note=90 velocity=0 time=0\n",
      "note_on channel=0 note=79 velocity=49 time=241\n",
      "note_on channel=0 note=83 velocity=49 time=0\n",
      "note_on channel=0 note=88 velocity=49 time=0\n",
      "note_on channel=0 note=79 velocity=0 time=239\n",
      "note_on channel=0 note=83 velocity=0 time=0\n",
      "note_on channel=0 note=88 velocity=0 time=0\n",
      "note_on channel=0 note=78 velocity=49 time=241\n",
      "note_on channel=0 note=81 velocity=49 time=0\n",
      "note_on channel=0 note=86 velocity=49 time=0\n",
      "note_on channel=0 note=78 velocity=0 time=239\n",
      "note_on channel=0 note=81 velocity=0 time=0\n",
      "note_on channel=0 note=86 velocity=0 time=0\n",
      "note_on channel=0 note=74 velocity=49 time=241\n",
      "note_on channel=0 note=78 velocity=49 time=0\n",
      "note_on channel=0 note=84 velocity=49 time=0\n",
      "note_on channel=0 note=74 velocity=0 time=239\n",
      "note_on channel=0 note=78 velocity=0 time=0\n",
      "note_on channel=0 note=84 velocity=0 time=0\n",
      "note_on channel=0 note=79 velocity=49 time=241\n",
      "note_on channel=0 note=79 velocity=0 time=227\n",
      "note_on channel=0 note=83 velocity=48 time=13\n",
      "note_on channel=0 note=83 velocity=0 time=227\n",
      "note_on channel=0 note=81 velocity=47 time=13\n",
      "note_on channel=0 note=81 velocity=0 time=227\n",
      "note_on channel=0 note=84 velocity=46 time=13\n",
      "note_on channel=0 note=84 velocity=0 time=227\n",
      "note_on channel=0 note=83 velocity=45 time=13\n",
      "note_on channel=0 note=83 velocity=0 time=227\n",
      "note_on channel=0 note=86 velocity=44 time=13\n",
      "note_on channel=0 note=86 velocity=0 time=227\n",
      "note_on channel=0 note=83 velocity=43 time=13\n",
      "note_on channel=0 note=86 velocity=43 time=0\n",
      "note_on channel=0 note=83 velocity=0 time=227\n",
      "note_on channel=0 note=86 velocity=0 time=0\n",
      "note_on channel=0 note=91 velocity=41 time=13\n",
      "note_on channel=0 note=91 velocity=0 time=227\n",
      "MetaMessage('set_tempo', tempo=461538, time=13)\n",
      "note_on channel=0 note=81 velocity=40 time=0\n",
      "note_on channel=0 note=84 velocity=40 time=0\n",
      "note_on channel=0 note=81 velocity=0 time=227\n",
      "note_on channel=0 note=84 velocity=0 time=0\n",
      "note_on channel=0 note=90 velocity=39 time=13\n",
      "note_on channel=0 note=90 velocity=0 time=227\n",
      "note_on channel=0 note=79 velocity=38 time=13\n",
      "note_on channel=0 note=83 velocity=38 time=0\n",
      "note_on channel=0 note=79 velocity=0 time=227\n",
      "note_on channel=0 note=83 velocity=0 time=0\n",
      "note_on channel=0 note=88 velocity=37 time=13\n",
      "note_on channel=0 note=88 velocity=0 time=227\n",
      "MetaMessage('set_tempo', tempo=500000, time=13)\n",
      "note_on channel=0 note=78 velocity=36 time=0\n",
      "note_on channel=0 note=81 velocity=36 time=0\n",
      "note_on channel=0 note=78 velocity=0 time=227\n",
      "note_on channel=0 note=81 velocity=0 time=0\n",
      "note_on channel=0 note=86 velocity=35 time=13\n",
      "note_on channel=0 note=86 velocity=0 time=227\n",
      "MetaMessage('set_tempo', tempo=2083333, time=13)\n",
      "note_on channel=0 note=86 velocity=33 time=0\n",
      "note_on channel=0 note=86 velocity=0 time=12\n",
      "note_on channel=0 note=88 velocity=33 time=2\n",
      "note_on channel=0 note=88 velocity=0 time=12\n",
      "note_on channel=0 note=86 velocity=33 time=3\n",
      "note_on channel=0 note=86 velocity=0 time=12\n",
      "note_on channel=0 note=88 velocity=33 time=3\n",
      "note_on channel=0 note=88 velocity=0 time=12\n",
      "note_on channel=0 note=86 velocity=33 time=4\n",
      "note_on channel=0 note=86 velocity=0 time=12\n",
      "note_on channel=0 note=88 velocity=33 time=2\n",
      "note_on channel=0 note=88 velocity=0 time=12\n",
      "note_on channel=0 note=86 velocity=33 time=3\n",
      "note_on channel=0 note=86 velocity=0 time=12\n",
      "note_on channel=0 note=88 velocity=33 time=3\n",
      "note_on channel=0 note=88 velocity=0 time=12\n",
      "note_on channel=0 note=86 velocity=33 time=4\n",
      "note_on channel=0 note=86 velocity=0 time=12\n",
      "note_on channel=0 note=88 velocity=33 time=2\n",
      "note_on channel=0 note=88 velocity=0 time=12\n",
      "note_on channel=0 note=86 velocity=33 time=3\n",
      "note_on channel=0 note=86 velocity=0 time=12\n",
      "note_on channel=0 note=88 velocity=33 time=3\n",
      "note_on channel=0 note=88 velocity=0 time=12\n",
      "note_on channel=0 note=86 velocity=33 time=4\n",
      "note_on channel=0 note=86 velocity=0 time=12\n",
      "note_on channel=0 note=88 velocity=33 time=2\n",
      "note_on channel=0 note=88 velocity=0 time=12\n",
      "note_on channel=0 note=86 velocity=33 time=3\n",
      "note_on channel=0 note=86 velocity=0 time=12\n",
      "note_on channel=0 note=88 velocity=33 time=3\n",
      "note_on channel=0 note=88 velocity=0 time=12\n",
      "note_on channel=0 note=86 velocity=33 time=4\n",
      "note_on channel=0 note=86 velocity=0 time=12\n",
      "note_on channel=0 note=88 velocity=33 time=2\n",
      "note_on channel=0 note=88 velocity=0 time=12\n",
      "note_on channel=0 note=86 velocity=33 time=3\n",
      "note_on channel=0 note=86 velocity=0 time=12\n",
      "note_on channel=0 note=88 velocity=33 time=3\n",
      "note_on channel=0 note=88 velocity=0 time=12\n",
      "note_on channel=0 note=86 velocity=33 time=4\n",
      "note_on channel=0 note=86 velocity=0 time=12\n",
      "note_on channel=0 note=88 velocity=33 time=2\n",
      "note_on channel=0 note=88 velocity=0 time=12\n",
      "note_on channel=0 note=86 velocity=33 time=3\n",
      "note_on channel=0 note=86 velocity=0 time=12\n",
      "note_on channel=0 note=88 velocity=33 time=3\n",
      "note_on channel=0 note=88 velocity=0 time=12\n",
      "note_on channel=0 note=86 velocity=33 time=4\n",
      "note_on channel=0 note=86 velocity=0 time=12\n",
      "note_on channel=0 note=88 velocity=33 time=2\n",
      "note_on channel=0 note=88 velocity=0 time=12\n",
      "note_on channel=0 note=86 velocity=33 time=3\n",
      "note_on channel=0 note=86 velocity=0 time=12\n",
      "note_on channel=0 note=88 velocity=33 time=3\n",
      "note_on channel=0 note=88 velocity=0 time=12\n",
      "note_on channel=0 note=86 velocity=33 time=4\n",
      "note_on channel=0 note=86 velocity=0 time=12\n",
      "note_on channel=0 note=88 velocity=33 time=2\n",
      "note_on channel=0 note=88 velocity=0 time=12\n",
      "note_on channel=0 note=86 velocity=33 time=3\n",
      "note_on channel=0 note=86 velocity=0 time=12\n",
      "note_on channel=0 note=88 velocity=33 time=3\n",
      "note_on channel=0 note=88 velocity=0 time=12\n",
      "MetaMessage('set_tempo', tempo=416667, time=3)\n",
      "MetaMessage('set_tempo', tempo=326087, time=1)\n",
      "note_on channel=0 note=86 velocity=33 time=0\n",
      "note_on channel=0 note=86 velocity=0 time=54\n",
      "note_on channel=0 note=88 velocity=33 time=5\n",
      "note_on channel=0 note=88 velocity=0 time=54\n",
      "note_on channel=0 note=86 velocity=33 time=7\n",
      "note_on channel=0 note=86 velocity=0 time=54\n",
      "note_on channel=0 note=88 velocity=33 time=5\n",
      "note_on channel=0 note=88 velocity=0 time=54\n",
      "note_on channel=0 note=86 velocity=33 time=7\n",
      "note_on channel=0 note=86 velocity=0 time=54\n",
      "note_on channel=0 note=88 velocity=33 time=5\n",
      "note_on channel=0 note=88 velocity=0 time=54\n",
      "note_on channel=0 note=86 velocity=33 time=7\n",
      "note_on channel=0 note=86 velocity=0 time=54\n",
      "note_on channel=0 note=88 velocity=33 time=5\n",
      "note_on channel=0 note=88 velocity=0 time=54\n",
      "note_on channel=0 note=86 velocity=33 time=7\n",
      "note_on channel=0 note=86 velocity=0 time=54\n",
      "note_on channel=0 note=88 velocity=33 time=5\n",
      "note_on channel=0 note=88 velocity=0 time=54\n",
      "note_on channel=0 note=86 velocity=33 time=7\n",
      "note_on channel=0 note=86 velocity=0 time=54\n",
      "note_on channel=0 note=88 velocity=33 time=5\n",
      "note_on channel=0 note=88 velocity=0 time=54\n",
      "note_on channel=0 note=86 velocity=33 time=7\n",
      "note_on channel=0 note=86 velocity=0 time=54\n",
      "note_on channel=0 note=88 velocity=33 time=5\n",
      "note_on channel=0 note=88 velocity=0 time=54\n",
      "note_on channel=0 note=86 velocity=33 time=7\n",
      "note_on channel=0 note=86 velocity=0 time=54\n",
      "note_on channel=0 note=88 velocity=33 time=5\n",
      "note_on channel=0 note=88 velocity=0 time=54\n",
      "note_on channel=0 note=86 velocity=33 time=7\n",
      "note_on channel=0 note=86 velocity=0 time=54\n",
      "note_on channel=0 note=88 velocity=33 time=5\n",
      "note_on channel=0 note=88 velocity=0 time=54\n",
      "note_on channel=0 note=86 velocity=33 time=7\n",
      "note_on channel=0 note=86 velocity=0 time=54\n",
      "note_on channel=0 note=88 velocity=33 time=5\n",
      "note_on channel=0 note=88 velocity=0 time=54\n",
      "note_on channel=0 note=86 velocity=33 time=7\n",
      "note_on channel=0 note=86 velocity=0 time=54\n",
      "note_on channel=0 note=88 velocity=33 time=5\n",
      "note_on channel=0 note=88 velocity=0 time=54\n",
      "note_on channel=0 note=86 velocity=33 time=7\n",
      "note_on channel=0 note=86 velocity=0 time=54\n",
      "note_on channel=0 note=88 velocity=33 time=5\n",
      "note_on channel=0 note=88 velocity=0 time=54\n",
      "note_on channel=0 note=86 velocity=33 time=7\n",
      "note_on channel=0 note=86 velocity=0 time=54\n",
      "note_on channel=0 note=88 velocity=33 time=5\n",
      "note_on channel=0 note=88 velocity=0 time=54\n",
      "note_on channel=0 note=86 velocity=33 time=7\n",
      "note_on channel=0 note=86 velocity=0 time=54\n",
      "note_on channel=0 note=88 velocity=33 time=5\n",
      "note_on channel=0 note=88 velocity=0 time=54\n",
      "note_on channel=0 note=86 velocity=33 time=7\n",
      "note_on channel=0 note=86 velocity=0 time=54\n",
      "note_on channel=0 note=88 velocity=33 time=5\n",
      "note_on channel=0 note=88 velocity=0 time=54\n",
      "note_on channel=0 note=86 velocity=33 time=7\n",
      "note_on channel=0 note=86 velocity=0 time=54\n",
      "note_on channel=0 note=88 velocity=33 time=5\n",
      "note_on channel=0 note=88 velocity=0 time=54\n",
      "note_on channel=0 note=90 velocity=40 time=7\n",
      "note_on channel=0 note=90 velocity=0 time=54\n",
      "note_on channel=0 note=91 velocity=40 time=5\n",
      "note_on channel=0 note=91 velocity=0 time=54\n",
      "note_on channel=0 note=90 velocity=40 time=7\n",
      "note_on channel=0 note=90 velocity=0 time=54\n",
      "note_on channel=0 note=91 velocity=40 time=5\n",
      "note_on channel=0 note=91 velocity=0 time=54\n",
      "note_on channel=0 note=90 velocity=40 time=7\n",
      "note_on channel=0 note=90 velocity=0 time=54\n",
      "note_on channel=0 note=91 velocity=40 time=5\n",
      "note_on channel=0 note=91 velocity=0 time=54\n",
      "note_on channel=0 note=90 velocity=40 time=7\n",
      "note_on channel=0 note=90 velocity=0 time=54\n",
      "note_on channel=0 note=91 velocity=40 time=5\n",
      "note_on channel=0 note=91 velocity=0 time=54\n",
      "note_on channel=0 note=90 velocity=40 time=7\n",
      "note_on channel=0 note=90 velocity=0 time=54\n",
      "note_on channel=0 note=91 velocity=40 time=5\n",
      "note_on channel=0 note=91 velocity=0 time=54\n",
      "note_on channel=0 note=90 velocity=40 time=7\n",
      "note_on channel=0 note=90 velocity=0 time=54\n",
      "note_on channel=0 note=91 velocity=40 time=5\n",
      "note_on channel=0 note=91 velocity=0 time=54\n",
      "note_on channel=0 note=90 velocity=40 time=7\n",
      "note_on channel=0 note=90 velocity=0 time=54\n",
      "note_on channel=0 note=91 velocity=40 time=5\n",
      "note_on channel=0 note=91 velocity=0 time=54\n",
      "note_on channel=0 note=90 velocity=40 time=7\n",
      "note_on channel=0 note=90 velocity=0 time=54\n",
      "note_on channel=0 note=91 velocity=40 time=5\n",
      "note_on channel=0 note=91 velocity=0 time=54\n",
      "note_on channel=0 note=90 velocity=40 time=7\n",
      "note_on channel=0 note=90 velocity=0 time=54\n",
      "note_on channel=0 note=91 velocity=40 time=5\n",
      "note_on channel=0 note=91 velocity=0 time=54\n",
      "note_on channel=0 note=90 velocity=40 time=7\n",
      "note_on channel=0 note=90 velocity=0 time=54\n",
      "note_on channel=0 note=91 velocity=40 time=5\n",
      "note_on channel=0 note=91 velocity=0 time=54\n",
      "note_on channel=0 note=90 velocity=40 time=7\n",
      "note_on channel=0 note=90 velocity=0 time=54\n",
      "note_on channel=0 note=91 velocity=40 time=5\n",
      "note_on channel=0 note=91 velocity=0 time=54\n",
      "note_on channel=0 note=90 velocity=40 time=7\n",
      "note_on channel=0 note=90 velocity=0 time=54\n",
      "note_on channel=0 note=91 velocity=40 time=5\n",
      "note_on channel=0 note=91 velocity=0 time=54\n",
      "note_on channel=0 note=90 velocity=40 time=7\n",
      "note_on channel=0 note=90 velocity=0 time=54\n",
      "note_on channel=0 note=91 velocity=40 time=5\n",
      "note_on channel=0 note=91 velocity=0 time=54\n",
      "note_on channel=0 note=90 velocity=40 time=7\n",
      "note_on channel=0 note=90 velocity=0 time=54\n",
      "note_on channel=0 note=91 velocity=40 time=5\n",
      "note_on channel=0 note=91 velocity=0 time=54\n",
      "note_on channel=0 note=90 velocity=40 time=7\n",
      "note_on channel=0 note=90 velocity=0 time=54\n",
      "note_on channel=0 note=91 velocity=40 time=5\n",
      "note_on channel=0 note=91 velocity=0 time=54\n",
      "note_on channel=0 note=90 velocity=40 time=7\n",
      "note_on channel=0 note=90 velocity=0 time=54\n",
      "note_on channel=0 note=91 velocity=40 time=5\n",
      "note_on channel=0 note=91 velocity=0 time=54\n",
      "note_on channel=0 note=93 velocity=49 time=7\n",
      "note_on channel=0 note=93 velocity=0 time=54\n",
      "note_on channel=0 note=95 velocity=49 time=5\n",
      "note_on channel=0 note=95 velocity=0 time=54\n",
      "note_on channel=0 note=93 velocity=49 time=7\n",
      "note_on channel=0 note=93 velocity=0 time=54\n",
      "note_on channel=0 note=95 velocity=49 time=5\n",
      "note_on channel=0 note=95 velocity=0 time=54\n",
      "note_on channel=0 note=93 velocity=49 time=7\n",
      "note_on channel=0 note=93 velocity=0 time=54\n",
      "note_on channel=0 note=95 velocity=49 time=5\n",
      "note_on channel=0 note=95 velocity=0 time=54\n",
      "note_on channel=0 note=93 velocity=49 time=7\n",
      "note_on channel=0 note=93 velocity=0 time=54\n",
      "note_on channel=0 note=95 velocity=49 time=5\n",
      "note_on channel=0 note=95 velocity=0 time=54\n",
      "note_on channel=0 note=93 velocity=49 time=7\n",
      "note_on channel=0 note=93 velocity=0 time=54\n",
      "note_on channel=0 note=95 velocity=49 time=5\n",
      "note_on channel=0 note=95 velocity=0 time=54\n",
      "note_on channel=0 note=93 velocity=49 time=7\n",
      "note_on channel=0 note=93 velocity=0 time=54\n",
      "note_on channel=0 note=95 velocity=49 time=5\n",
      "note_on channel=0 note=95 velocity=0 time=54\n",
      "note_on channel=0 note=93 velocity=49 time=7\n",
      "note_on channel=0 note=93 velocity=0 time=54\n",
      "note_on channel=0 note=95 velocity=49 time=5\n",
      "note_on channel=0 note=95 velocity=0 time=54\n",
      "note_on channel=0 note=93 velocity=49 time=7\n",
      "note_on channel=0 note=93 velocity=0 time=54\n",
      "note_on channel=0 note=95 velocity=49 time=5\n",
      "note_on channel=0 note=95 velocity=0 time=54\n",
      "note_on channel=0 note=93 velocity=49 time=7\n",
      "note_on channel=0 note=93 velocity=0 time=54\n",
      "note_on channel=0 note=95 velocity=49 time=5\n",
      "note_on channel=0 note=95 velocity=0 time=54\n",
      "note_on channel=0 note=93 velocity=49 time=7\n",
      "note_on channel=0 note=93 velocity=0 time=54\n",
      "note_on channel=0 note=95 velocity=49 time=5\n",
      "note_on channel=0 note=95 velocity=0 time=54\n",
      "note_on channel=0 note=93 velocity=49 time=7\n",
      "note_on channel=0 note=93 velocity=0 time=54\n",
      "note_on channel=0 note=95 velocity=49 time=5\n",
      "note_on channel=0 note=95 velocity=0 time=54\n",
      "note_on channel=0 note=93 velocity=49 time=7\n",
      "note_on channel=0 note=93 velocity=0 time=54\n",
      "note_on channel=0 note=95 velocity=49 time=5\n",
      "note_on channel=0 note=95 velocity=0 time=54\n",
      "note_on channel=0 note=93 velocity=49 time=7\n",
      "note_on channel=0 note=93 velocity=0 time=54\n",
      "note_on channel=0 note=95 velocity=49 time=5\n",
      "note_on channel=0 note=95 velocity=0 time=54\n",
      "note_on channel=0 note=93 velocity=49 time=7\n",
      "note_on channel=0 note=93 velocity=0 time=54\n",
      "note_on channel=0 note=95 velocity=49 time=5\n",
      "note_on channel=0 note=95 velocity=0 time=54\n",
      "note_on channel=0 note=93 velocity=49 time=7\n",
      "note_on channel=0 note=93 velocity=0 time=54\n",
      "note_on channel=0 note=95 velocity=49 time=5\n",
      "note_on channel=0 note=95 velocity=0 time=54\n",
      "note_on channel=0 note=93 velocity=49 time=7\n",
      "note_on channel=0 note=93 velocity=0 time=54\n",
      "note_on channel=0 note=95 velocity=49 time=5\n",
      "note_on channel=0 note=95 velocity=0 time=54\n",
      "note_on channel=0 note=95 velocity=49 time=7\n",
      "note_on channel=0 note=95 velocity=0 time=151\n",
      "note_on channel=0 note=96 velocity=50 time=9\n",
      "note_on channel=0 note=96 velocity=0 time=151\n",
      "note_on channel=0 note=95 velocity=52 time=9\n",
      "note_on channel=0 note=95 velocity=0 time=151\n",
      "note_on channel=0 note=96 velocity=54 time=9\n",
      "note_on channel=0 note=96 velocity=0 time=151\n",
      "note_on channel=0 note=95 velocity=56 time=9\n",
      "note_on channel=0 note=95 velocity=0 time=151\n",
      "note_on channel=0 note=96 velocity=58 time=9\n",
      "note_on channel=0 note=96 velocity=0 time=151\n",
      "note_on channel=0 note=95 velocity=60 time=9\n",
      "note_on channel=0 note=95 velocity=0 time=151\n",
      "note_on channel=0 note=96 velocity=62 time=9\n",
      "note_on channel=0 note=96 velocity=0 time=151\n",
      "note_on channel=0 note=95 velocity=64 time=9\n",
      "note_on channel=0 note=95 velocity=0 time=151\n",
      "note_on channel=0 note=96 velocity=66 time=9\n",
      "note_on channel=0 note=96 velocity=0 time=151\n",
      "note_on channel=0 note=95 velocity=68 time=9\n",
      "note_on channel=0 note=95 velocity=0 time=151\n",
      "note_on channel=0 note=96 velocity=70 time=9\n",
      "note_on channel=0 note=96 velocity=0 time=151\n",
      "note_on channel=0 note=95 velocity=72 time=9\n",
      "note_on channel=0 note=95 velocity=0 time=151\n",
      "note_on channel=0 note=96 velocity=74 time=9\n",
      "note_on channel=0 note=96 velocity=0 time=151\n",
      "note_on channel=0 note=95 velocity=76 time=9\n",
      "note_on channel=0 note=95 velocity=0 time=151\n",
      "note_on channel=0 note=96 velocity=78 time=9\n",
      "note_on channel=0 note=96 velocity=0 time=151\n",
      "note_on channel=0 note=95 velocity=80 time=9\n",
      "note_on channel=0 note=95 velocity=0 time=151\n",
      "note_on channel=0 note=96 velocity=82 time=9\n",
      "note_on channel=0 note=96 velocity=0 time=151\n",
      "note_on channel=0 note=95 velocity=84 time=9\n",
      "note_on channel=0 note=95 velocity=0 time=151\n",
      "note_on channel=0 note=96 velocity=86 time=9\n",
      "note_on channel=0 note=96 velocity=0 time=151\n",
      "note_on channel=0 note=95 velocity=88 time=9\n",
      "note_on channel=0 note=95 velocity=0 time=151\n",
      "note_on channel=0 note=96 velocity=90 time=9\n",
      "note_on channel=0 note=96 velocity=0 time=151\n",
      "note_on channel=0 note=95 velocity=92 time=9\n",
      "note_on channel=0 note=95 velocity=0 time=151\n",
      "note_on channel=0 note=96 velocity=94 time=9\n",
      "note_on channel=0 note=96 velocity=0 time=151\n",
      "note_on channel=0 note=95 velocity=96 time=9\n",
      "note_on channel=0 note=86 velocity=96 time=0\n",
      "note_on channel=0 note=95 velocity=0 time=227\n",
      "note_on channel=0 note=86 velocity=0 time=0\n",
      "note_on channel=0 note=91 velocity=96 time=13\n",
      "note_on channel=0 note=89 velocity=96 time=0\n",
      "note_on channel=0 note=91 velocity=0 time=227\n",
      "note_on channel=0 note=89 velocity=0 time=0\n",
      "note_on channel=0 note=95 velocity=96 time=13\n",
      "note_on channel=0 note=86 velocity=96 time=0\n",
      "note_on channel=0 note=95 velocity=0 time=227\n",
      "note_on channel=0 note=86 velocity=0 time=0\n",
      "note_on channel=0 note=91 velocity=96 time=13\n",
      "note_on channel=0 note=89 velocity=96 time=0\n",
      "note_on channel=0 note=91 velocity=0 time=227\n",
      "note_on channel=0 note=89 velocity=0 time=0\n",
      "note_on channel=0 note=95 velocity=96 time=13\n",
      "note_on channel=0 note=86 velocity=96 time=0\n",
      "note_on channel=0 note=95 velocity=0 time=227\n",
      "note_on channel=0 note=86 velocity=0 time=0\n",
      "note_on channel=0 note=91 velocity=96 time=13\n",
      "note_on channel=0 note=89 velocity=96 time=0\n",
      "note_on channel=0 note=91 velocity=0 time=227\n",
      "note_on channel=0 note=89 velocity=0 time=0\n",
      "note_on channel=0 note=95 velocity=96 time=13\n",
      "note_on channel=0 note=86 velocity=96 time=0\n",
      "note_on channel=0 note=95 velocity=0 time=227\n",
      "note_on channel=0 note=86 velocity=0 time=0\n",
      "note_on channel=0 note=91 velocity=96 time=13\n",
      "note_on channel=0 note=89 velocity=96 time=0\n",
      "note_on channel=0 note=91 velocity=0 time=227\n",
      "note_on channel=0 note=89 velocity=0 time=0\n",
      "note_on channel=0 note=95 velocity=96 time=13\n",
      "note_on channel=0 note=86 velocity=96 time=0\n",
      "note_on channel=0 note=95 velocity=0 time=227\n",
      "note_on channel=0 note=86 velocity=0 time=0\n",
      "note_on channel=0 note=91 velocity=96 time=13\n",
      "note_on channel=0 note=89 velocity=96 time=0\n",
      "note_on channel=0 note=91 velocity=0 time=227\n",
      "note_on channel=0 note=89 velocity=0 time=0\n",
      "note_on channel=0 note=95 velocity=96 time=13\n",
      "note_on channel=0 note=86 velocity=96 time=0\n",
      "note_on channel=0 note=95 velocity=0 time=227\n",
      "note_on channel=0 note=86 velocity=0 time=0\n",
      "note_on channel=0 note=91 velocity=96 time=13\n",
      "note_on channel=0 note=89 velocity=96 time=0\n",
      "note_on channel=0 note=91 velocity=0 time=227\n",
      "note_on channel=0 note=89 velocity=0 time=0\n",
      "note_on channel=0 note=95 velocity=96 time=13\n",
      "note_on channel=0 note=86 velocity=96 time=0\n",
      "note_on channel=0 note=95 velocity=0 time=227\n",
      "note_on channel=0 note=86 velocity=0 time=0\n",
      "note_on channel=0 note=91 velocity=96 time=13\n",
      "note_on channel=0 note=89 velocity=96 time=0\n",
      "note_on channel=0 note=91 velocity=0 time=227\n",
      "note_on channel=0 note=89 velocity=0 time=0\n",
      "note_on channel=0 note=95 velocity=96 time=13\n",
      "note_on channel=0 note=86 velocity=96 time=0\n",
      "note_on channel=0 note=95 velocity=0 time=227\n",
      "note_on channel=0 note=86 velocity=0 time=0\n",
      "note_on channel=0 note=91 velocity=96 time=13\n",
      "note_on channel=0 note=89 velocity=96 time=0\n",
      "note_on channel=0 note=91 velocity=0 time=227\n",
      "note_on channel=0 note=89 velocity=0 time=0\n",
      "note_on channel=0 note=84 velocity=106 time=13\n",
      "note_on channel=0 note=88 velocity=106 time=0\n",
      "note_on channel=0 note=91 velocity=106 time=0\n",
      "note_on channel=0 note=96 velocity=106 time=0\n",
      "note_on channel=0 note=84 velocity=0 time=455\n",
      "note_on channel=0 note=88 velocity=0 time=0\n",
      "note_on channel=0 note=91 velocity=0 time=0\n",
      "note_on channel=0 note=96 velocity=0 time=0\n",
      "note_on channel=0 note=79 velocity=49 time=10585\n",
      "note_on channel=0 note=83 velocity=49 time=0\n",
      "note_on channel=0 note=91 velocity=49 time=0\n",
      "note_on channel=0 note=79 velocity=0 time=455\n",
      "note_on channel=0 note=83 velocity=0 time=0\n",
      "note_on channel=0 note=91 velocity=0 time=0\n",
      "note_on channel=0 note=81 velocity=49 time=505\n",
      "note_on channel=0 note=84 velocity=49 time=0\n",
      "note_on channel=0 note=88 velocity=49 time=0\n",
      "note_on channel=0 note=93 velocity=49 time=0\n",
      "note_on channel=0 note=81 velocity=0 time=455\n",
      "note_on channel=0 note=84 velocity=0 time=0\n",
      "note_on channel=0 note=88 velocity=0 time=0\n",
      "note_on channel=0 note=93 velocity=0 time=0\n",
      "note_on channel=0 note=74 velocity=49 time=505\n",
      "note_on channel=0 note=78 velocity=49 time=0\n",
      "note_on channel=0 note=81 velocity=49 time=0\n",
      "note_on channel=0 note=86 velocity=49 time=0\n",
      "note_on channel=0 note=74 velocity=0 time=455\n",
      "note_on channel=0 note=78 velocity=0 time=0\n",
      "note_on channel=0 note=81 velocity=0 time=0\n",
      "note_on channel=0 note=86 velocity=0 time=0\n",
      "note_on channel=0 note=79 velocity=33 time=25\n",
      "note_on channel=0 note=79 velocity=0 time=151\n",
      "note_on channel=0 note=86 velocity=33 time=9\n",
      "note_on channel=0 note=86 velocity=0 time=151\n",
      "note_on channel=0 note=83 velocity=33 time=9\n",
      "note_on channel=0 note=83 velocity=0 time=151\n",
      "note_on channel=0 note=91 velocity=33 time=9\n",
      "note_on channel=0 note=91 velocity=0 time=151\n",
      "note_on channel=0 note=86 velocity=33 time=9\n",
      "note_on channel=0 note=86 velocity=0 time=151\n",
      "note_on channel=0 note=83 velocity=33 time=9\n",
      "note_on channel=0 note=83 velocity=0 time=151\n",
      "note_on channel=0 note=81 velocity=33 time=9\n",
      "note_on channel=0 note=81 velocity=0 time=151\n",
      "note_on channel=0 note=90 velocity=33 time=9\n",
      "note_on channel=0 note=90 velocity=0 time=151\n",
      "note_on channel=0 note=86 velocity=33 time=9\n",
      "note_on channel=0 note=86 velocity=0 time=151\n",
      "note_on channel=0 note=93 velocity=33 time=9\n",
      "note_on channel=0 note=93 velocity=0 time=151\n",
      "note_on channel=0 note=90 velocity=33 time=9\n",
      "note_on channel=0 note=90 velocity=0 time=151\n",
      "note_on channel=0 note=86 velocity=33 time=9\n",
      "note_on channel=0 note=86 velocity=0 time=151\n",
      "note_on channel=0 note=83 velocity=33 time=9\n",
      "note_on channel=0 note=83 velocity=0 time=151\n",
      "note_on channel=0 note=91 velocity=33 time=9\n",
      "note_on channel=0 note=91 velocity=0 time=151\n",
      "note_on channel=0 note=86 velocity=33 time=9\n",
      "note_on channel=0 note=86 velocity=0 time=151\n",
      "note_on channel=0 note=95 velocity=33 time=9\n",
      "note_on channel=0 note=95 velocity=0 time=151\n",
      "note_on channel=0 note=91 velocity=33 time=9\n",
      "note_on channel=0 note=91 velocity=0 time=151\n",
      "note_on channel=0 note=86 velocity=33 time=9\n",
      "note_on channel=0 note=86 velocity=0 time=151\n",
      "note_on channel=0 note=81 velocity=33 time=9\n",
      "note_on channel=0 note=81 velocity=0 time=151\n",
      "note_on channel=0 note=90 velocity=33 time=9\n",
      "note_on channel=0 note=90 velocity=0 time=151\n",
      "note_on channel=0 note=86 velocity=33 time=9\n",
      "note_on channel=0 note=86 velocity=0 time=151\n",
      "note_on channel=0 note=93 velocity=33 time=9\n",
      "note_on channel=0 note=93 velocity=0 time=151\n",
      "note_on channel=0 note=90 velocity=33 time=9\n",
      "note_on channel=0 note=90 velocity=0 time=151\n",
      "note_on channel=0 note=86 velocity=33 time=9\n",
      "note_on channel=0 note=86 velocity=0 time=151\n",
      "note_on channel=0 note=79 velocity=33 time=9\n",
      "note_on channel=0 note=79 velocity=0 time=151\n",
      "note_on channel=0 note=86 velocity=33 time=9\n",
      "note_on channel=0 note=86 velocity=0 time=151\n",
      "note_on channel=0 note=83 velocity=33 time=9\n",
      "note_on channel=0 note=83 velocity=0 time=151\n",
      "note_on channel=0 note=91 velocity=33 time=9\n",
      "note_on channel=0 note=91 velocity=0 time=151\n",
      "note_on channel=0 note=86 velocity=33 time=9\n",
      "note_on channel=0 note=86 velocity=0 time=151\n",
      "note_on channel=0 note=83 velocity=33 time=9\n",
      "note_on channel=0 note=83 velocity=0 time=151\n",
      "note_on channel=0 note=81 velocity=33 time=9\n",
      "note_on channel=0 note=81 velocity=0 time=151\n",
      "note_on channel=0 note=90 velocity=33 time=9\n",
      "note_on channel=0 note=90 velocity=0 time=151\n",
      "note_on channel=0 note=86 velocity=33 time=9\n",
      "note_on channel=0 note=86 velocity=0 time=151\n",
      "note_on channel=0 note=93 velocity=33 time=9\n",
      "note_on channel=0 note=93 velocity=0 time=151\n",
      "note_on channel=0 note=90 velocity=33 time=9\n",
      "note_on channel=0 note=90 velocity=0 time=151\n",
      "note_on channel=0 note=86 velocity=33 time=9\n",
      "note_on channel=0 note=86 velocity=0 time=151\n",
      "note_on channel=0 note=83 velocity=33 time=9\n",
      "note_on channel=0 note=83 velocity=0 time=151\n",
      "note_on channel=0 note=91 velocity=33 time=9\n",
      "note_on channel=0 note=91 velocity=0 time=151\n",
      "note_on channel=0 note=86 velocity=33 time=9\n",
      "note_on channel=0 note=86 velocity=0 time=151\n",
      "note_on channel=0 note=95 velocity=33 time=9\n",
      "note_on channel=0 note=95 velocity=0 time=151\n",
      "note_on channel=0 note=91 velocity=33 time=9\n",
      "note_on channel=0 note=91 velocity=0 time=151\n",
      "note_on channel=0 note=86 velocity=33 time=9\n",
      "note_on channel=0 note=86 velocity=0 time=151\n",
      "note_on channel=0 note=81 velocity=33 time=9\n",
      "note_on channel=0 note=81 velocity=0 time=151\n",
      "note_on channel=0 note=90 velocity=33 time=9\n",
      "note_on channel=0 note=90 velocity=0 time=151\n",
      "note_on channel=0 note=86 velocity=33 time=9\n",
      "note_on channel=0 note=86 velocity=0 time=151\n",
      "note_on channel=0 note=93 velocity=33 time=9\n",
      "note_on channel=0 note=93 velocity=0 time=151\n",
      "note_on channel=0 note=90 velocity=33 time=9\n",
      "note_on channel=0 note=90 velocity=0 time=151\n",
      "note_on channel=0 note=86 velocity=33 time=9\n",
      "note_on channel=0 note=86 velocity=0 time=151\n",
      "note_on channel=0 note=79 velocity=33 time=9\n",
      "note_on channel=0 note=79 velocity=0 time=151\n",
      "note_on channel=0 note=86 velocity=36 time=9\n",
      "note_on channel=0 note=86 velocity=0 time=151\n",
      "note_on channel=0 note=83 velocity=39 time=9\n",
      "note_on channel=0 note=83 velocity=0 time=151\n",
      "note_on channel=0 note=91 velocity=42 time=9\n",
      "note_on channel=0 note=91 velocity=0 time=151\n",
      "note_on channel=0 note=86 velocity=45 time=9\n",
      "note_on channel=0 note=86 velocity=0 time=151\n",
      "note_on channel=0 note=83 velocity=48 time=9\n",
      "note_on channel=0 note=83 velocity=0 time=151\n",
      "note_on channel=0 note=81 velocity=51 time=9\n",
      "note_on channel=0 note=81 velocity=0 time=151\n",
      "note_on channel=0 note=90 velocity=54 time=9\n",
      "note_on channel=0 note=90 velocity=0 time=151\n",
      "note_on channel=0 note=86 velocity=57 time=9\n",
      "note_on channel=0 note=86 velocity=0 time=151\n",
      "note_on channel=0 note=93 velocity=60 time=9\n",
      "note_on channel=0 note=93 velocity=0 time=151\n",
      "note_on channel=0 note=90 velocity=63 time=9\n",
      "note_on channel=0 note=90 velocity=0 time=151\n",
      "note_on channel=0 note=86 velocity=66 time=9\n",
      "note_on channel=0 note=86 velocity=0 time=151\n",
      "note_on channel=0 note=83 velocity=69 time=9\n",
      "note_on channel=0 note=83 velocity=0 time=151\n",
      "note_on channel=0 note=91 velocity=72 time=9\n",
      "note_on channel=0 note=91 velocity=0 time=151\n",
      "note_on channel=0 note=86 velocity=75 time=9\n",
      "note_on channel=0 note=86 velocity=0 time=151\n",
      "note_on channel=0 note=95 velocity=78 time=9\n",
      "note_on channel=0 note=95 velocity=0 time=151\n",
      "note_on channel=0 note=91 velocity=81 time=9\n",
      "note_on channel=0 note=91 velocity=0 time=151\n",
      "note_on channel=0 note=86 velocity=84 time=9\n",
      "note_on channel=0 note=86 velocity=0 time=151\n",
      "note_on channel=0 note=84 velocity=87 time=9\n",
      "note_on channel=0 note=84 velocity=0 time=151\n",
      "note_on channel=0 note=93 velocity=90 time=9\n",
      "note_on channel=0 note=93 velocity=0 time=151\n",
      "note_on channel=0 note=90 velocity=93 time=9\n",
      "note_on channel=0 note=90 velocity=0 time=151\n",
      "note_on channel=0 note=96 velocity=96 time=9\n",
      "note_on channel=0 note=96 velocity=0 time=151\n",
      "note_on channel=0 note=93 velocity=99 time=9\n",
      "note_on channel=0 note=93 velocity=0 time=151\n",
      "note_on channel=0 note=90 velocity=102 time=9\n",
      "note_on channel=0 note=90 velocity=0 time=151\n",
      "note_on channel=0 note=91 velocity=106 time=9\n",
      "note_on channel=0 note=91 velocity=0 time=151\n",
      "note_on channel=0 note=86 velocity=106 time=9\n",
      "note_on channel=0 note=86 velocity=0 time=151\n",
      "note_on channel=0 note=83 velocity=106 time=9\n",
      "note_on channel=0 note=83 velocity=0 time=151\n",
      "note_on channel=0 note=79 velocity=106 time=9\n",
      "note_on channel=0 note=79 velocity=0 time=151\n",
      "note_on channel=0 note=74 velocity=106 time=9\n",
      "note_on channel=0 note=74 velocity=0 time=151\n",
      "note_on channel=0 note=71 velocity=106 time=9\n",
      "note_on channel=0 note=71 velocity=0 time=151\n",
      "note_on channel=0 note=79 velocity=106 time=9\n",
      "note_on channel=0 note=79 velocity=0 time=151\n",
      "note_on channel=0 note=74 velocity=106 time=9\n",
      "note_on channel=0 note=74 velocity=0 time=151\n",
      "note_on channel=0 note=71 velocity=106 time=9\n",
      "note_on channel=0 note=71 velocity=0 time=151\n",
      "note_on channel=0 note=67 velocity=106 time=9\n",
      "note_on channel=0 note=67 velocity=0 time=151\n",
      "note_on channel=0 note=62 velocity=106 time=9\n",
      "note_on channel=0 note=62 velocity=0 time=151\n",
      "note_on channel=0 note=59 velocity=106 time=9\n",
      "note_on channel=0 note=59 velocity=0 time=151\n",
      "note_on channel=0 note=55 velocity=106 time=9\n",
      "note_on channel=0 note=55 velocity=0 time=151\n",
      "note_on channel=0 note=59 velocity=106 time=9\n",
      "note_on channel=0 note=59 velocity=0 time=151\n",
      "note_on channel=0 note=62 velocity=106 time=9\n",
      "note_on channel=0 note=62 velocity=0 time=151\n",
      "note_on channel=0 note=67 velocity=106 time=9\n",
      "note_on channel=0 note=67 velocity=0 time=151\n",
      "note_on channel=0 note=71 velocity=106 time=9\n",
      "note_on channel=0 note=71 velocity=0 time=151\n",
      "note_on channel=0 note=74 velocity=106 time=9\n",
      "note_on channel=0 note=74 velocity=0 time=151\n",
      "note_on channel=0 note=79 velocity=106 time=9\n",
      "note_on channel=0 note=79 velocity=0 time=151\n",
      "note_on channel=0 note=83 velocity=106 time=9\n",
      "note_on channel=0 note=83 velocity=0 time=151\n",
      "note_on channel=0 note=86 velocity=106 time=9\n",
      "note_on channel=0 note=86 velocity=0 time=151\n",
      "note_on channel=0 note=91 velocity=106 time=9\n",
      "note_on channel=0 note=91 velocity=0 time=151\n",
      "note_on channel=0 note=86 velocity=106 time=9\n",
      "note_on channel=0 note=86 velocity=0 time=151\n",
      "note_on channel=0 note=95 velocity=106 time=9\n",
      "note_on channel=0 note=95 velocity=0 time=151\n",
      "note_on channel=0 note=91 velocity=106 time=9\n",
      "note_on channel=0 note=91 velocity=0 time=455\n",
      "note_on channel=0 note=81 velocity=112 time=505\n",
      "note_on channel=0 note=86 velocity=112 time=0\n",
      "note_on channel=0 note=90 velocity=112 time=0\n",
      "note_on channel=0 note=93 velocity=112 time=0\n",
      "note_on channel=0 note=81 velocity=0 time=455\n",
      "note_on channel=0 note=86 velocity=0 time=0\n",
      "note_on channel=0 note=90 velocity=0 time=0\n",
      "note_on channel=0 note=93 velocity=0 time=0\n",
      "note_on channel=0 note=83 velocity=112 time=505\n",
      "note_on channel=0 note=86 velocity=112 time=0\n",
      "note_on channel=0 note=91 velocity=112 time=0\n",
      "note_on channel=0 note=95 velocity=112 time=0\n",
      "note_on channel=0 note=83 velocity=0 time=455\n",
      "note_on channel=0 note=86 velocity=0 time=0\n",
      "note_on channel=0 note=91 velocity=0 time=0\n",
      "note_on channel=0 note=95 velocity=0 time=0\n",
      "MetaMessage('end_of_track', time=1)\n",
      "Track 1: \n",
      "MetaMessage('key_signature', key='G', time=0)\n",
      "MetaMessage('midi_port', port=0, time=0)\n",
      "note_on channel=0 note=48 velocity=40 time=9600\n",
      "note_on channel=0 note=48 velocity=0 time=227\n",
      "note_on channel=0 note=55 velocity=48 time=13\n",
      "note_on channel=0 note=60 velocity=48 time=0\n",
      "note_on channel=0 note=64 velocity=48 time=0\n",
      "note_on channel=0 note=55 velocity=0 time=719\n",
      "note_on channel=0 note=60 velocity=0 time=0\n",
      "note_on channel=0 note=64 velocity=0 time=0\n",
      "note_on channel=0 note=48 velocity=40 time=1\n",
      "note_on channel=0 note=48 velocity=0 time=227\n",
      "note_on channel=0 note=55 velocity=48 time=13\n",
      "note_on channel=0 note=60 velocity=48 time=0\n",
      "note_on channel=0 note=64 velocity=48 time=0\n",
      "note_on channel=0 note=55 velocity=0 time=719\n",
      "note_on channel=0 note=60 velocity=0 time=0\n",
      "note_on channel=0 note=64 velocity=0 time=0\n",
      "note_on channel=0 note=48 velocity=40 time=1\n",
      "note_on channel=0 note=48 velocity=0 time=227\n",
      "note_on channel=0 note=55 velocity=40 time=13\n",
      "note_on channel=0 note=60 velocity=40 time=0\n",
      "note_on channel=0 note=64 velocity=40 time=0\n",
      "note_on channel=0 note=55 velocity=0 time=227\n",
      "note_on channel=0 note=60 velocity=0 time=0\n",
      "note_on channel=0 note=64 velocity=0 time=0\n",
      "note_on channel=0 note=48 velocity=40 time=13\n",
      "note_on channel=0 note=48 velocity=0 time=227\n",
      "note_on channel=0 note=55 velocity=40 time=13\n",
      "note_on channel=0 note=60 velocity=40 time=0\n",
      "note_on channel=0 note=64 velocity=40 time=0\n",
      "note_on channel=0 note=55 velocity=0 time=227\n",
      "note_on channel=0 note=60 velocity=0 time=0\n",
      "note_on channel=0 note=64 velocity=0 time=0\n",
      "note_on channel=0 note=48 velocity=40 time=13\n",
      "note_on channel=0 note=48 velocity=0 time=227\n",
      "note_on channel=0 note=55 velocity=48 time=13\n",
      "note_on channel=0 note=60 velocity=48 time=0\n",
      "note_on channel=0 note=64 velocity=48 time=0\n",
      "note_on channel=0 note=55 velocity=0 time=719\n",
      "note_on channel=0 note=60 velocity=0 time=0\n",
      "note_on channel=0 note=64 velocity=0 time=0\n",
      "note_on channel=0 note=45 velocity=40 time=1\n",
      "note_on channel=0 note=45 velocity=0 time=227\n",
      "note_on channel=0 note=57 velocity=40 time=13\n",
      "note_on channel=0 note=60 velocity=40 time=0\n",
      "note_on channel=0 note=64 velocity=40 time=0\n",
      "note_on channel=0 note=57 velocity=0 time=227\n",
      "note_on channel=0 note=60 velocity=0 time=0\n",
      "note_on channel=0 note=64 velocity=0 time=0\n",
      "note_on channel=0 note=48 velocity=40 time=13\n",
      "note_on channel=0 note=48 velocity=0 time=227\n",
      "note_on channel=0 note=57 velocity=40 time=13\n",
      "note_on channel=0 note=60 velocity=40 time=0\n",
      "note_on channel=0 note=64 velocity=40 time=0\n",
      "note_on channel=0 note=57 velocity=0 time=227\n",
      "note_on channel=0 note=60 velocity=0 time=0\n",
      "note_on channel=0 note=64 velocity=0 time=0\n",
      "note_on channel=0 note=50 velocity=40 time=13\n",
      "note_on channel=0 note=50 velocity=0 time=227\n",
      "note_on channel=0 note=57 velocity=48 time=13\n",
      "note_on channel=0 note=62 velocity=48 time=0\n",
      "note_on channel=0 note=66 velocity=48 time=0\n",
      "note_on channel=0 note=57 velocity=0 time=719\n",
      "note_on channel=0 note=62 velocity=0 time=0\n",
      "note_on channel=0 note=66 velocity=0 time=0\n",
      "note_on channel=0 note=50 velocity=40 time=1\n",
      "note_on channel=0 note=50 velocity=0 time=227\n",
      "note_on channel=0 note=57 velocity=40 time=13\n",
      "note_on channel=0 note=62 velocity=40 time=0\n",
      "note_on channel=0 note=66 velocity=40 time=0\n",
      "note_on channel=0 note=57 velocity=0 time=683\n",
      "note_on channel=0 note=62 velocity=0 time=0\n",
      "note_on channel=0 note=66 velocity=0 time=0\n",
      "note_on channel=0 note=55 velocity=40 time=37\n",
      "note_on channel=0 note=55 velocity=0 time=227\n",
      "note_on channel=0 note=59 velocity=40 time=13\n",
      "note_on channel=0 note=62 velocity=40 time=0\n",
      "note_on channel=0 note=67 velocity=40 time=0\n",
      "note_on channel=0 note=59 velocity=0 time=683\n",
      "note_on channel=0 note=62 velocity=0 time=0\n",
      "note_on channel=0 note=67 velocity=0 time=0\n",
      "note_on channel=0 note=48 velocity=40 time=37\n",
      "note_on channel=0 note=48 velocity=0 time=227\n",
      "note_on channel=0 note=57 velocity=40 time=13\n",
      "note_on channel=0 note=60 velocity=40 time=0\n",
      "note_on channel=0 note=64 velocity=40 time=0\n",
      "note_on channel=0 note=57 velocity=0 time=227\n",
      "note_on channel=0 note=60 velocity=0 time=0\n",
      "note_on channel=0 note=64 velocity=0 time=0\n",
      "note_on channel=0 note=50 velocity=40 time=13\n",
      "note_on channel=0 note=50 velocity=0 time=227\n",
      "note_on channel=0 note=57 velocity=40 time=13\n",
      "note_on channel=0 note=60 velocity=40 time=0\n",
      "note_on channel=0 note=66 velocity=40 time=0\n",
      "note_on channel=0 note=57 velocity=0 time=227\n",
      "note_on channel=0 note=60 velocity=0 time=0\n",
      "note_on channel=0 note=66 velocity=0 time=0\n",
      "note_on channel=0 note=43 velocity=40 time=13\n",
      "note_on channel=0 note=43 velocity=0 time=227\n",
      "note_on channel=0 note=50 velocity=40 time=13\n",
      "note_on channel=0 note=55 velocity=40 time=0\n",
      "note_on channel=0 note=59 velocity=40 time=0\n",
      "note_on channel=0 note=50 velocity=0 time=683\n",
      "note_on channel=0 note=55 velocity=0 time=0\n",
      "note_on channel=0 note=59 velocity=0 time=0\n",
      "note_on channel=0 note=59 velocity=40 time=3877\n",
      "note_on channel=0 note=59 velocity=0 time=113\n",
      "note_on channel=0 note=67 velocity=40 time=7\n",
      "note_on channel=0 note=67 velocity=0 time=113\n",
      "note_on channel=0 note=62 velocity=40 time=7\n",
      "note_on channel=0 note=62 velocity=0 time=113\n",
      "note_on channel=0 note=67 velocity=40 time=7\n",
      "note_on channel=0 note=67 velocity=0 time=113\n",
      "note_on channel=0 note=57 velocity=40 time=7\n",
      "note_on channel=0 note=57 velocity=0 time=113\n",
      "note_on channel=0 note=69 velocity=40 time=7\n",
      "note_on channel=0 note=69 velocity=0 time=113\n",
      "note_on channel=0 note=62 velocity=40 time=7\n",
      "note_on channel=0 note=62 velocity=0 time=113\n",
      "note_on channel=0 note=69 velocity=40 time=7\n",
      "note_on channel=0 note=69 velocity=0 time=113\n",
      "note_on channel=0 note=59 velocity=40 time=7\n",
      "note_on channel=0 note=59 velocity=0 time=113\n",
      "note_on channel=0 note=67 velocity=40 time=7\n",
      "note_on channel=0 note=67 velocity=0 time=113\n",
      "note_on channel=0 note=62 velocity=40 time=7\n",
      "note_on channel=0 note=62 velocity=0 time=113\n",
      "note_on channel=0 note=67 velocity=40 time=7\n",
      "note_on channel=0 note=67 velocity=0 time=113\n",
      "note_on channel=0 note=57 velocity=40 time=7\n",
      "note_on channel=0 note=57 velocity=0 time=113\n",
      "note_on channel=0 note=66 velocity=40 time=7\n",
      "note_on channel=0 note=66 velocity=0 time=113\n",
      "note_on channel=0 note=62 velocity=40 time=7\n",
      "note_on channel=0 note=62 velocity=0 time=113\n",
      "note_on channel=0 note=66 velocity=40 time=7\n",
      "note_on channel=0 note=66 velocity=0 time=113\n",
      "note_on channel=0 note=55 velocity=40 time=7\n",
      "note_on channel=0 note=55 velocity=0 time=113\n",
      "note_on channel=0 note=67 velocity=40 time=7\n",
      "note_on channel=0 note=67 velocity=0 time=113\n",
      "note_on channel=0 note=62 velocity=40 time=7\n",
      "note_on channel=0 note=62 velocity=0 time=113\n",
      "note_on channel=0 note=67 velocity=40 time=7\n",
      "note_on channel=0 note=67 velocity=0 time=113\n",
      "note_on channel=0 note=54 velocity=40 time=7\n",
      "note_on channel=0 note=54 velocity=0 time=113\n",
      "note_on channel=0 note=66 velocity=40 time=7\n",
      "note_on channel=0 note=66 velocity=0 time=113\n",
      "note_on channel=0 note=62 velocity=40 time=7\n",
      "note_on channel=0 note=62 velocity=0 time=113\n",
      "note_on channel=0 note=66 velocity=40 time=7\n",
      "note_on channel=0 note=66 velocity=0 time=113\n",
      "note_on channel=0 note=52 velocity=40 time=7\n",
      "note_on channel=0 note=52 velocity=0 time=113\n",
      "note_on channel=0 note=64 velocity=40 time=7\n",
      "note_on channel=0 note=64 velocity=0 time=113\n",
      "note_on channel=0 note=57 velocity=40 time=7\n",
      "note_on channel=0 note=57 velocity=0 time=113\n",
      "note_on channel=0 note=67 velocity=40 time=7\n",
      "note_on channel=0 note=67 velocity=0 time=113\n",
      "note_on channel=0 note=62 velocity=40 time=7\n",
      "note_on channel=0 note=66 velocity=40 time=0\n",
      "note_on channel=0 note=62 velocity=0 time=227\n",
      "note_on channel=0 note=66 velocity=0 time=0\n",
      "note_on channel=0 note=64 velocity=96 time=1213\n",
      "note_on channel=0 note=57 velocity=115 time=0\n",
      "note_on channel=0 note=64 velocity=0 time=113\n",
      "note_on channel=0 note=67 velocity=96 time=7\n",
      "note_on channel=0 note=67 velocity=0 time=113\n",
      "note_on channel=0 note=57 velocity=0 time=6\n",
      "note_on channel=0 note=66 velocity=96 time=1\n",
      "note_on channel=0 note=62 velocity=96 time=0\n",
      "note_on channel=0 note=66 velocity=0 time=227\n",
      "note_on channel=0 note=62 velocity=0 time=0\n",
      "note_on channel=0 note=59 velocity=80 time=13933\n",
      "note_on channel=0 note=59 velocity=0 time=113\n",
      "note_on channel=0 note=62 velocity=80 time=7\n",
      "note_on channel=0 note=62 velocity=0 time=113\n",
      "note_on channel=0 note=64 velocity=80 time=7\n",
      "note_on channel=0 note=64 velocity=0 time=113\n",
      "note_on channel=0 note=66 velocity=80 time=7\n",
      "note_on channel=0 note=66 velocity=0 time=113\n",
      "note_on channel=0 note=67 velocity=80 time=7\n",
      "note_on channel=0 note=67 velocity=0 time=113\n",
      "note_on channel=0 note=66 velocity=80 time=7\n",
      "note_on channel=0 note=66 velocity=0 time=113\n",
      "note_on channel=0 note=67 velocity=80 time=7\n",
      "note_on channel=0 note=67 velocity=0 time=113\n",
      "note_on channel=0 note=68 velocity=80 time=7\n",
      "note_on channel=0 note=68 velocity=0 time=113\n",
      "note_on channel=0 note=69 velocity=80 time=7\n",
      "note_on channel=0 note=69 velocity=0 time=113\n",
      "note_on channel=0 note=62 velocity=80 time=7\n",
      "note_on channel=0 note=62 velocity=0 time=113\n",
      "note_on channel=0 note=64 velocity=80 time=7\n",
      "note_on channel=0 note=64 velocity=0 time=113\n",
      "note_on channel=0 note=66 velocity=80 time=7\n",
      "note_on channel=0 note=66 velocity=0 time=113\n",
      "note_on channel=0 note=67 velocity=80 time=7\n",
      "note_on channel=0 note=67 velocity=0 time=113\n",
      "note_on channel=0 note=66 velocity=80 time=7\n",
      "note_on channel=0 note=66 velocity=0 time=113\n",
      "note_on channel=0 note=64 velocity=80 time=7\n",
      "note_on channel=0 note=64 velocity=0 time=113\n",
      "note_on channel=0 note=62 velocity=80 time=7\n",
      "note_on channel=0 note=62 velocity=0 time=113\n",
      "note_on channel=0 note=60 velocity=80 time=7\n",
      "note_on channel=0 note=60 velocity=0 time=113\n",
      "note_on channel=0 note=59 velocity=80 time=7\n",
      "note_on channel=0 note=59 velocity=0 time=113\n",
      "note_on channel=0 note=60 velocity=80 time=7\n",
      "note_on channel=0 note=60 velocity=0 time=113\n",
      "note_on channel=0 note=62 velocity=80 time=7\n",
      "note_on channel=0 note=62 velocity=0 time=113\n",
      "note_on channel=0 note=59 velocity=80 time=7\n",
      "note_on channel=0 note=59 velocity=0 time=113\n",
      "note_on channel=0 note=55 velocity=80 time=7\n",
      "note_on channel=0 note=55 velocity=0 time=113\n",
      "note_on channel=0 note=57 velocity=80 time=7\n",
      "note_on channel=0 note=57 velocity=0 time=113\n",
      "note_on channel=0 note=59 velocity=80 time=7\n",
      "note_on channel=0 note=59 velocity=0 time=113\n",
      "note_on channel=0 note=61 velocity=80 time=7\n",
      "note_on channel=0 note=61 velocity=0 time=113\n",
      "note_on channel=0 note=57 velocity=80 time=7\n",
      "note_on channel=0 note=57 velocity=0 time=113\n",
      "note_on channel=0 note=59 velocity=80 time=7\n",
      "note_on channel=0 note=59 velocity=0 time=113\n",
      "note_on channel=0 note=61 velocity=80 time=7\n",
      "note_on channel=0 note=61 velocity=0 time=113\n",
      "note_on channel=0 note=63 velocity=80 time=7\n",
      "note_on channel=0 note=63 velocity=0 time=113\n",
      "note_on channel=0 note=59 velocity=80 time=7\n",
      "note_on channel=0 note=59 velocity=0 time=113\n",
      "note_on channel=0 note=61 velocity=80 time=7\n",
      "note_on channel=0 note=61 velocity=0 time=113\n",
      "note_on channel=0 note=63 velocity=80 time=7\n",
      "note_on channel=0 note=63 velocity=0 time=113\n",
      "note_on channel=0 note=55 velocity=96 time=3847\n",
      "note_on channel=0 note=55 velocity=0 time=119\n",
      "note_on channel=0 note=59 velocity=80 time=1\n",
      "note_on channel=0 note=59 velocity=0 time=113\n",
      "note_on channel=0 note=61 velocity=80 time=7\n",
      "note_on channel=0 note=61 velocity=0 time=113\n",
      "note_on channel=0 note=63 velocity=80 time=7\n",
      "note_on channel=0 note=63 velocity=0 time=113\n",
      "note_on channel=0 note=64 velocity=80 time=7\n",
      "note_on channel=0 note=64 velocity=0 time=113\n",
      "note_on channel=0 note=63 velocity=80 time=7\n",
      "note_on channel=0 note=63 velocity=0 time=113\n",
      "note_on channel=0 note=64 velocity=80 time=7\n",
      "note_on channel=0 note=64 velocity=0 time=113\n",
      "note_on channel=0 note=65 velocity=80 time=7\n",
      "note_on channel=0 note=65 velocity=0 time=113\n",
      "note_on channel=0 note=66 velocity=80 time=7\n",
      "note_on channel=0 note=66 velocity=0 time=113\n",
      "note_on channel=0 note=59 velocity=80 time=7\n",
      "note_on channel=0 note=59 velocity=0 time=113\n",
      "note_on channel=0 note=61 velocity=80 time=7\n",
      "note_on channel=0 note=61 velocity=0 time=113\n",
      "note_on channel=0 note=63 velocity=80 time=7\n",
      "note_on channel=0 note=63 velocity=0 time=113\n",
      "note_on channel=0 note=64 velocity=80 time=7\n",
      "note_on channel=0 note=64 velocity=0 time=113\n",
      "note_on channel=0 note=62 velocity=80 time=7\n",
      "note_on channel=0 note=62 velocity=0 time=113\n",
      "note_on channel=0 note=60 velocity=80 time=7\n",
      "note_on channel=0 note=60 velocity=0 time=113\n",
      "note_on channel=0 note=59 velocity=80 time=7\n",
      "note_on channel=0 note=59 velocity=0 time=113\n",
      "note_on channel=0 note=57 velocity=80 time=7\n",
      "note_on channel=0 note=57 velocity=0 time=113\n",
      "note_on channel=0 note=55 velocity=80 time=7\n",
      "note_on channel=0 note=55 velocity=0 time=113\n",
      "note_on channel=0 note=57 velocity=80 time=7\n",
      "note_on channel=0 note=57 velocity=0 time=113\n",
      "note_on channel=0 note=59 velocity=80 time=7\n",
      "note_on channel=0 note=59 velocity=0 time=113\n",
      "note_on channel=0 note=55 velocity=80 time=7\n",
      "note_on channel=0 note=55 velocity=0 time=113\n",
      "note_on channel=0 note=54 velocity=80 time=7\n",
      "note_on channel=0 note=54 velocity=0 time=113\n",
      "note_on channel=0 note=55 velocity=80 time=7\n",
      "note_on channel=0 note=55 velocity=0 time=113\n",
      "note_on channel=0 note=59 velocity=80 time=7\n",
      "note_on channel=0 note=59 velocity=0 time=113\n",
      "note_on channel=0 note=54 velocity=80 time=7\n",
      "note_on channel=0 note=54 velocity=0 time=113\n",
      "note_on channel=0 note=52 velocity=80 time=7\n",
      "note_on channel=0 note=52 velocity=0 time=113\n",
      "note_on channel=0 note=54 velocity=80 time=7\n",
      "note_on channel=0 note=54 velocity=0 time=113\n",
      "note_on channel=0 note=57 velocity=80 time=7\n",
      "note_on channel=0 note=57 velocity=0 time=113\n",
      "note_on channel=0 note=56 velocity=80 time=7\n",
      "note_on channel=0 note=56 velocity=0 time=113\n",
      "note_on channel=0 note=54 velocity=80 time=7\n",
      "note_on channel=0 note=54 velocity=0 time=113\n",
      "note_on channel=0 note=56 velocity=80 time=7\n",
      "note_on channel=0 note=56 velocity=0 time=113\n",
      "note_on channel=0 note=59 velocity=80 time=7\n",
      "note_on channel=0 note=59 velocity=0 time=113\n",
      "note_on channel=0 note=57 velocity=64 time=967\n",
      "note_on channel=0 note=57 velocity=0 time=113\n",
      "note_on channel=0 note=61 velocity=64 time=7\n",
      "note_on channel=0 note=61 velocity=0 time=113\n",
      "note_on channel=0 note=59 velocity=64 time=7\n",
      "note_on channel=0 note=59 velocity=0 time=113\n",
      "note_on channel=0 note=57 velocity=64 time=7\n",
      "note_on channel=0 note=57 velocity=0 time=113\n",
      "note_on channel=0 note=56 velocity=64 time=7\n",
      "note_on channel=0 note=56 velocity=0 time=113\n",
      "note_on channel=0 note=52 velocity=64 time=7\n",
      "note_on channel=0 note=52 velocity=0 time=113\n",
      "note_on channel=0 note=54 velocity=64 time=7\n",
      "note_on channel=0 note=54 velocity=0 time=113\n",
      "note_on channel=0 note=56 velocity=64 time=7\n",
      "note_on channel=0 note=56 velocity=0 time=113\n",
      "note_on channel=0 note=57 velocity=64 time=967\n",
      "note_on channel=0 note=57 velocity=0 time=113\n",
      "note_on channel=0 note=61 velocity=64 time=7\n",
      "note_on channel=0 note=61 velocity=0 time=113\n",
      "note_on channel=0 note=59 velocity=64 time=7\n",
      "note_on channel=0 note=59 velocity=0 time=113\n",
      "note_on channel=0 note=57 velocity=64 time=7\n",
      "note_on channel=0 note=57 velocity=0 time=113\n",
      "note_on channel=0 note=56 velocity=64 time=7\n",
      "note_on channel=0 note=56 velocity=0 time=113\n",
      "note_on channel=0 note=52 velocity=64 time=7\n",
      "note_on channel=0 note=52 velocity=0 time=113\n",
      "note_on channel=0 note=54 velocity=64 time=7\n",
      "note_on channel=0 note=54 velocity=0 time=113\n",
      "note_on channel=0 note=56 velocity=64 time=7\n",
      "note_on channel=0 note=56 velocity=0 time=113\n",
      "note_on channel=0 note=57 velocity=64 time=7\n",
      "note_on channel=0 note=57 velocity=0 time=227\n",
      "note_on channel=0 note=44 velocity=64 time=13\n",
      "note_on channel=0 note=44 velocity=0 time=113\n",
      "note_on channel=0 note=56 velocity=64 time=7\n",
      "note_on channel=0 note=56 velocity=0 time=113\n",
      "note_on channel=0 note=45 velocity=64 time=7\n",
      "control_change channel=0 control=64 value=127 time=2\n",
      "note_on channel=0 note=45 velocity=0 time=111\n",
      "note_on channel=0 note=57 velocity=64 time=7\n",
      "note_on channel=0 note=57 velocity=0 time=113\n",
      "note_on channel=0 note=44 velocity=64 time=7\n",
      "note_on channel=0 note=44 velocity=0 time=113\n",
      "note_on channel=0 note=56 velocity=64 time=7\n",
      "note_on channel=0 note=56 velocity=0 time=113\n",
      "note_on channel=0 note=45 velocity=64 time=7\n",
      "control_change channel=0 control=64 value=0 time=1\n",
      "control_change channel=0 control=64 value=127 time=1\n",
      "note_on channel=0 note=45 velocity=0 time=111\n",
      "note_on channel=0 note=57 velocity=64 time=7\n",
      "note_on channel=0 note=57 velocity=0 time=113\n",
      "note_on channel=0 note=44 velocity=64 time=7\n",
      "note_on channel=0 note=44 velocity=0 time=113\n",
      "note_on channel=0 note=56 velocity=64 time=7\n",
      "note_on channel=0 note=56 velocity=0 time=113\n",
      "note_on channel=0 note=45 velocity=64 time=7\n",
      "control_change channel=0 control=64 value=0 time=1\n",
      "control_change channel=0 control=64 value=127 time=1\n",
      "note_on channel=0 note=45 velocity=0 time=111\n",
      "note_on channel=0 note=57 velocity=64 time=7\n",
      "note_on channel=0 note=57 velocity=0 time=113\n",
      "note_on channel=0 note=46 velocity=112 time=7\n",
      "note_on channel=0 note=46 velocity=0 time=113\n",
      "note_on channel=0 note=58 velocity=64 time=7\n",
      "note_on channel=0 note=58 velocity=0 time=113\n",
      "note_on channel=0 note=47 velocity=64 time=7\n",
      "control_change channel=0 control=64 value=0 time=1\n",
      "control_change channel=0 control=64 value=127 time=1\n",
      "note_on channel=0 note=47 velocity=0 time=111\n",
      "note_on channel=0 note=59 velocity=64 time=7\n",
      "note_on channel=0 note=59 velocity=0 time=113\n",
      "note_on channel=0 note=46 velocity=64 time=7\n",
      "note_on channel=0 note=46 velocity=0 time=113\n",
      "note_on channel=0 note=58 velocity=64 time=7\n",
      "note_on channel=0 note=58 velocity=0 time=113\n",
      "note_on channel=0 note=47 velocity=64 time=7\n",
      "control_change channel=0 control=64 value=0 time=1\n",
      "control_change channel=0 control=64 value=127 time=1\n",
      "note_on channel=0 note=47 velocity=0 time=111\n",
      "note_on channel=0 note=59 velocity=64 time=7\n",
      "note_on channel=0 note=59 velocity=0 time=113\n",
      "note_on channel=0 note=48 velocity=112 time=7\n",
      "note_on channel=0 note=48 velocity=0 time=113\n",
      "note_on channel=0 note=60 velocity=64 time=7\n",
      "note_on channel=0 note=60 velocity=0 time=113\n",
      "note_on channel=0 note=49 velocity=64 time=7\n",
      "control_change channel=0 control=64 value=0 time=1\n",
      "control_change channel=0 control=64 value=127 time=1\n",
      "note_on channel=0 note=49 velocity=0 time=111\n",
      "note_on channel=0 note=61 velocity=64 time=7\n",
      "note_on channel=0 note=61 velocity=0 time=113\n",
      "note_on channel=0 note=49 velocity=64 time=7\n",
      "note_on channel=0 note=49 velocity=0 time=113\n",
      "note_on channel=0 note=61 velocity=64 time=7\n",
      "note_on channel=0 note=61 velocity=0 time=113\n",
      "note_on channel=0 note=50 velocity=64 time=7\n",
      "control_change channel=0 control=64 value=0 time=1\n",
      "control_change channel=0 control=64 value=127 time=1\n",
      "note_on channel=0 note=50 velocity=0 time=111\n",
      "note_on channel=0 note=62 velocity=64 time=7\n",
      "note_on channel=0 note=62 velocity=0 time=113\n",
      "note_on channel=0 note=51 velocity=112 time=7\n",
      "note_on channel=0 note=51 velocity=0 time=113\n",
      "note_on channel=0 note=63 velocity=64 time=7\n",
      "note_on channel=0 note=63 velocity=0 time=113\n",
      "note_on channel=0 note=52 velocity=64 time=7\n",
      "control_change channel=0 control=64 value=0 time=1\n",
      "control_change channel=0 control=64 value=127 time=1\n",
      "note_on channel=0 note=52 velocity=0 time=111\n",
      "note_on channel=0 note=64 velocity=64 time=7\n",
      "note_on channel=0 note=64 velocity=0 time=113\n",
      "note_on channel=0 note=53 velocity=112 time=7\n",
      "note_on channel=0 note=53 velocity=0 time=113\n",
      "note_on channel=0 note=65 velocity=64 time=7\n",
      "note_on channel=0 note=65 velocity=0 time=113\n",
      "note_on channel=0 note=54 velocity=64 time=7\n",
      "control_change channel=0 control=64 value=0 time=1\n",
      "control_change channel=0 control=64 value=127 time=1\n",
      "note_on channel=0 note=54 velocity=0 time=111\n",
      "note_on channel=0 note=66 velocity=64 time=7\n",
      "note_on channel=0 note=66 velocity=0 time=113\n",
      "note_on channel=0 note=54 velocity=112 time=7\n",
      "note_on channel=0 note=54 velocity=0 time=113\n",
      "note_on channel=0 note=66 velocity=64 time=7\n",
      "note_on channel=0 note=66 velocity=0 time=113\n",
      "note_on channel=0 note=55 velocity=64 time=7\n",
      "control_change channel=0 control=64 value=0 time=1\n",
      "control_change channel=0 control=64 value=127 time=1\n",
      "note_on channel=0 note=55 velocity=0 time=111\n",
      "note_on channel=0 note=67 velocity=64 time=7\n",
      "note_on channel=0 note=67 velocity=0 time=113\n",
      "note_on channel=0 note=56 velocity=64 time=7\n",
      "note_on channel=0 note=56 velocity=0 time=113\n",
      "note_on channel=0 note=68 velocity=64 time=7\n",
      "note_on channel=0 note=68 velocity=0 time=113\n",
      "note_on channel=0 note=57 velocity=64 time=7\n",
      "control_change channel=0 control=64 value=0 time=1\n",
      "control_change channel=0 control=64 value=127 time=1\n",
      "note_on channel=0 note=57 velocity=0 time=111\n",
      "note_on channel=0 note=69 velocity=64 time=7\n",
      "note_on channel=0 note=69 velocity=0 time=113\n",
      "note_on channel=0 note=56 velocity=64 time=7\n",
      "note_on channel=0 note=56 velocity=0 time=113\n",
      "note_on channel=0 note=68 velocity=64 time=7\n",
      "note_on channel=0 note=68 velocity=0 time=113\n",
      "note_on channel=0 note=57 velocity=64 time=7\n",
      "note_on channel=0 note=69 velocity=64 time=0\n",
      "control_change channel=0 control=64 value=0 time=1\n",
      "note_on channel=0 note=57 velocity=0 time=226\n",
      "note_on channel=0 note=69 velocity=0 time=0\n",
      "note_on channel=0 note=80 velocity=61 time=13\n",
      "control_change channel=0 control=64 value=127 time=2\n",
      "note_on channel=0 note=80 velocity=0 time=225\n",
      "note_on channel=0 note=81 velocity=57 time=13\n",
      "note_on channel=0 note=81 velocity=0 time=227\n",
      "note_on channel=0 note=80 velocity=53 time=13\n",
      "note_on channel=0 note=80 velocity=0 time=227\n",
      "note_on channel=0 note=81 velocity=33 time=13\n",
      "control_change channel=0 control=64 value=0 time=1\n",
      "control_change channel=0 control=64 value=127 time=1\n",
      "note_on channel=0 note=81 velocity=0 time=453\n",
      "note_on channel=0 note=69 velocity=33 time=25\n",
      "note_on channel=0 note=73 velocity=33 time=0\n",
      "note_on channel=0 note=76 velocity=33 time=0\n",
      "note_on channel=0 note=69 velocity=0 time=455\n",
      "note_on channel=0 note=73 velocity=0 time=0\n",
      "note_on channel=0 note=76 velocity=0 time=0\n",
      "note_on channel=0 note=69 velocity=33 time=25\n",
      "note_on channel=0 note=74 velocity=33 time=0\n",
      "note_on channel=0 note=77 velocity=33 time=0\n",
      "control_change channel=0 control=64 value=0 time=1\n",
      "control_change channel=0 control=64 value=127 time=1\n",
      "note_on channel=0 note=69 velocity=0 time=453\n",
      "note_on channel=0 note=74 velocity=0 time=0\n",
      "note_on channel=0 note=77 velocity=0 time=0\n",
      "control_change channel=0 control=64 value=0 time=506\n",
      "control_change channel=0 control=64 value=127 time=1\n",
      "note_on channel=0 note=69 velocity=33 time=478\n",
      "note_on channel=0 note=73 velocity=33 time=0\n",
      "note_on channel=0 note=76 velocity=33 time=0\n",
      "note_on channel=0 note=69 velocity=0 time=455\n",
      "note_on channel=0 note=73 velocity=0 time=0\n",
      "note_on channel=0 note=76 velocity=0 time=0\n",
      "note_on channel=0 note=69 velocity=33 time=25\n",
      "note_on channel=0 note=74 velocity=33 time=0\n",
      "note_on channel=0 note=77 velocity=33 time=0\n",
      "control_change channel=0 control=64 value=0 time=1\n",
      "control_change channel=0 control=64 value=127 time=1\n",
      "note_on channel=0 note=69 velocity=0 time=453\n",
      "note_on channel=0 note=74 velocity=0 time=0\n",
      "note_on channel=0 note=77 velocity=0 time=0\n",
      "control_change channel=0 control=64 value=0 time=506\n",
      "control_change channel=0 control=64 value=127 time=1\n",
      "note_on channel=0 note=69 velocity=33 time=478\n",
      "note_on channel=0 note=73 velocity=33 time=0\n",
      "note_on channel=0 note=76 velocity=33 time=0\n",
      "note_on channel=0 note=69 velocity=0 time=455\n",
      "note_on channel=0 note=73 velocity=0 time=0\n",
      "note_on channel=0 note=76 velocity=0 time=0\n",
      "control_change channel=0 control=64 value=0 time=26\n",
      "control_change channel=0 control=64 value=127 time=1\n",
      "note_on channel=0 note=69 velocity=33 time=478\n",
      "note_on channel=0 note=74 velocity=33 time=0\n",
      "note_on channel=0 note=78 velocity=33 time=0\n",
      "note_on channel=0 note=69 velocity=0 time=455\n",
      "note_on channel=0 note=74 velocity=0 time=0\n",
      "note_on channel=0 note=78 velocity=0 time=0\n",
      "control_change channel=0 control=64 value=0 time=26\n",
      "control_change channel=0 control=64 value=127 time=1\n",
      "note_on channel=0 note=69 velocity=49 time=478\n",
      "note_on channel=0 note=76 velocity=49 time=0\n",
      "note_on channel=0 note=79 velocity=49 time=0\n",
      "note_on channel=0 note=69 velocity=0 time=455\n",
      "note_on channel=0 note=76 velocity=0 time=0\n",
      "note_on channel=0 note=79 velocity=0 time=0\n",
      "control_change channel=0 control=64 value=0 time=26\n",
      "control_change channel=0 control=64 value=127 time=1\n",
      "control_change channel=0 control=64 value=0 time=959\n",
      "control_change channel=0 control=64 value=127 time=1\n",
      "note_on channel=0 note=69 velocity=64 time=478\n",
      "note_on channel=0 note=77 velocity=64 time=0\n",
      "note_on channel=0 note=80 velocity=64 time=0\n",
      "note_on channel=0 note=69 velocity=0 time=455\n",
      "note_on channel=0 note=77 velocity=0 time=0\n",
      "note_on channel=0 note=80 velocity=0 time=0\n",
      "control_change channel=0 control=64 value=0 time=26\n",
      "control_change channel=0 control=64 value=127 time=1\n",
      "control_change channel=0 control=64 value=0 time=959\n",
      "control_change channel=0 control=64 value=127 time=1\n",
      "control_change channel=0 control=64 value=0 time=959\n",
      "control_change channel=0 control=64 value=127 time=1\n",
      "note_on channel=0 note=38 velocity=33 time=958\n",
      "control_change channel=0 control=64 value=0 time=1\n",
      "control_change channel=0 control=64 value=127 time=1\n",
      "note_on channel=0 note=38 velocity=0 time=225\n",
      "note_on channel=0 note=62 velocity=33 time=253\n",
      "note_on channel=0 note=62 velocity=0 time=455\n",
      "note_on channel=0 note=66 velocity=33 time=25\n",
      "control_change channel=0 control=64 value=0 time=1\n",
      "control_change channel=0 control=64 value=127 time=1\n",
      "note_on channel=0 note=66 velocity=0 time=453\n",
      "note_on channel=0 note=69 velocity=33 time=25\n",
      "note_on channel=0 note=69 velocity=0 time=455\n",
      "note_on channel=0 note=70 velocity=33 time=25\n",
      "control_change channel=0 control=64 value=0 time=1\n",
      "control_change channel=0 control=64 value=127 time=1\n",
      "note_on channel=0 note=70 velocity=0 time=909\n",
      "note_on channel=0 note=69 velocity=33 time=49\n",
      "control_change channel=0 control=64 value=0 time=1\n",
      "control_change channel=0 control=64 value=127 time=1\n",
      "note_on channel=0 note=69 velocity=0 time=453\n",
      "note_on channel=0 note=67 velocity=33 time=25\n",
      "note_on channel=0 note=67 velocity=0 time=455\n",
      "note_on channel=0 note=66 velocity=33 time=25\n",
      "control_change channel=0 control=64 value=0 time=1\n",
      "control_change channel=0 control=64 value=127 time=1\n",
      "note_on channel=0 note=66 velocity=0 time=909\n",
      "note_on channel=0 note=64 velocity=33 time=49\n",
      "control_change channel=0 control=64 value=0 time=1\n",
      "control_change channel=0 control=64 value=127 time=1\n",
      "note_on channel=0 note=64 velocity=0 time=453\n",
      "note_on channel=0 note=62 velocity=33 time=25\n",
      "note_on channel=0 note=62 velocity=0 time=455\n",
      "note_on channel=0 note=61 velocity=40 time=25\n",
      "control_change channel=0 control=64 value=0 time=1\n",
      "control_change channel=0 control=64 value=127 time=1\n",
      "note_on channel=0 note=61 velocity=0 time=681\n",
      "note_on channel=0 note=59 velocity=40 time=37\n",
      "note_on channel=0 note=59 velocity=0 time=227\n",
      "note_on channel=0 note=57 velocity=49 time=13\n",
      "control_change channel=0 control=64 value=0 time=1\n",
      "note_on channel=0 note=57 velocity=0 time=226\n",
      "note_on channel=0 note=55 velocity=49 time=13\n",
      "note_on channel=0 note=55 velocity=0 time=227\n",
      "note_on channel=0 note=54 velocity=49 time=13\n",
      "note_on channel=0 note=54 velocity=0 time=227\n",
      "note_on channel=0 note=52 velocity=49 time=13\n",
      "note_on channel=0 note=52 velocity=0 time=227\n",
      "control_change channel=0 control=64 value=127 time=15\n",
      "note_on channel=0 note=38 velocity=49 time=478\n",
      "control_change channel=0 control=64 value=0 time=1\n",
      "control_change channel=0 control=64 value=127 time=1\n",
      "note_on channel=0 note=38 velocity=0 time=453\n",
      "note_on channel=0 note=50 velocity=40 time=25\n",
      "note_on channel=0 note=50 velocity=0 time=455\n",
      "note_on channel=0 note=52 velocity=33 time=25\n",
      "control_change channel=0 control=64 value=0 time=1\n",
      "control_change channel=0 control=64 value=127 time=1\n",
      "note_on channel=0 note=52 velocity=0 time=453\n",
      "note_on channel=0 note=54 velocity=33 time=25\n",
      "note_on channel=0 note=54 velocity=0 time=455\n",
      "note_on channel=0 note=55 velocity=33 time=25\n",
      "control_change channel=0 control=64 value=0 time=1\n",
      "control_change channel=0 control=64 value=127 time=1\n",
      "note_on channel=0 note=55 velocity=0 time=681\n",
      "note_on channel=0 note=57 velocity=33 time=37\n",
      "note_on channel=0 note=57 velocity=0 time=227\n",
      "note_on channel=0 note=59 velocity=33 time=13\n",
      "control_change channel=0 control=64 value=0 time=1\n",
      "control_change channel=0 control=64 value=127 time=1\n",
      "note_on channel=0 note=59 velocity=0 time=225\n",
      "note_on channel=0 note=61 velocity=44 time=13\n",
      "note_on channel=0 note=61 velocity=0 time=227\n",
      "note_on channel=0 note=62 velocity=56 time=13\n",
      "note_on channel=0 note=62 velocity=0 time=227\n",
      "note_on channel=0 note=64 velocity=68 time=13\n",
      "note_on channel=0 note=64 velocity=0 time=227\n",
      "note_on channel=0 note=62 velocity=80 time=13\n",
      "note_on channel=0 note=66 velocity=80 time=0\n",
      "control_change channel=0 control=64 value=0 time=1\n",
      "note_on channel=0 note=62 velocity=0 time=238\n",
      "note_on channel=0 note=66 velocity=0 time=0\n",
      "note_on channel=0 note=57 velocity=80 time=241\n",
      "note_on channel=0 note=67 velocity=80 time=0\n",
      "note_on channel=0 note=57 velocity=0 time=227\n",
      "note_on channel=0 note=67 velocity=0 time=0\n",
      "note_on channel=0 note=38 velocity=115 time=16573\n",
      "control_change channel=0 control=64 value=127 time=2\n",
      "note_on channel=0 note=38 velocity=0 time=117\n",
      "note_on channel=0 note=50 velocity=96 time=1\n",
      "note_on channel=0 note=50 velocity=0 time=113\n",
      "note_on channel=0 note=54 velocity=96 time=7\n",
      "note_on channel=0 note=54 velocity=0 time=113\n",
      "note_on channel=0 note=45 velocity=115 time=1567\n",
      "control_change channel=0 control=64 value=0 time=1\n",
      "control_change channel=0 control=64 value=127 time=1\n",
      "note_on channel=0 note=45 velocity=0 time=117\n",
      "note_on channel=0 note=52 velocity=96 time=1\n",
      "note_on channel=0 note=52 velocity=0 time=113\n",
      "note_on channel=0 note=57 velocity=96 time=7\n",
      "note_on channel=0 note=57 velocity=0 time=113\n",
      "note_on channel=0 note=38 velocity=115 time=1567\n",
      "control_change channel=0 control=64 value=0 time=1\n",
      "control_change channel=0 control=64 value=127 time=1\n",
      "note_on channel=0 note=38 velocity=0 time=117\n",
      "note_on channel=0 note=50 velocity=96 time=1\n",
      "note_on channel=0 note=50 velocity=0 time=113\n",
      "note_on channel=0 note=54 velocity=96 time=7\n",
      "note_on channel=0 note=54 velocity=0 time=113\n",
      "note_on channel=0 note=45 velocity=115 time=1567\n",
      "control_change channel=0 control=64 value=0 time=1\n",
      "control_change channel=0 control=64 value=127 time=1\n",
      "note_on channel=0 note=45 velocity=0 time=117\n",
      "note_on channel=0 note=52 velocity=96 time=1\n",
      "note_on channel=0 note=52 velocity=0 time=113\n",
      "note_on channel=0 note=57 velocity=96 time=7\n",
      "note_on channel=0 note=57 velocity=0 time=113\n",
      "note_on channel=0 note=38 velocity=115 time=1567\n",
      "control_change channel=0 control=64 value=0 time=1\n",
      "control_change channel=0 control=64 value=127 time=1\n",
      "note_on channel=0 note=38 velocity=0 time=117\n",
      "note_on channel=0 note=50 velocity=96 time=1\n",
      "note_on channel=0 note=50 velocity=0 time=113\n",
      "note_on channel=0 note=54 velocity=96 time=7\n",
      "note_on channel=0 note=54 velocity=0 time=113\n",
      "note_on channel=0 note=42 velocity=115 time=607\n",
      "control_change channel=0 control=64 value=0 time=1\n",
      "control_change channel=0 control=64 value=127 time=1\n",
      "note_on channel=0 note=42 velocity=0 time=117\n",
      "note_on channel=0 note=54 velocity=96 time=1\n",
      "note_on channel=0 note=54 velocity=0 time=113\n",
      "note_on channel=0 note=58 velocity=96 time=7\n",
      "note_on channel=0 note=58 velocity=0 time=113\n",
      "note_on channel=0 note=47 velocity=80 time=607\n",
      "control_change channel=0 control=64 value=0 time=1\n",
      "control_change channel=0 control=64 value=127 time=1\n",
      "note_on channel=0 note=47 velocity=0 time=111\n",
      "note_on channel=0 note=59 velocity=80 time=7\n",
      "note_on channel=0 note=59 velocity=0 time=113\n",
      "note_on channel=0 note=62 velocity=80 time=7\n",
      "note_on channel=0 note=62 velocity=0 time=113\n",
      "note_on channel=0 note=50 velocity=80 time=127\n",
      "control_change channel=0 control=64 value=0 time=1\n",
      "control_change channel=0 control=64 value=127 time=1\n",
      "note_on channel=0 note=50 velocity=0 time=111\n",
      "note_on channel=0 note=54 velocity=80 time=7\n",
      "note_on channel=0 note=54 velocity=0 time=113\n",
      "note_on channel=0 note=57 velocity=80 time=7\n",
      "note_on channel=0 note=57 velocity=0 time=113\n",
      "note_on channel=0 note=43 velocity=80 time=127\n",
      "control_change channel=0 control=64 value=0 time=1\n",
      "control_change channel=0 control=64 value=127 time=1\n",
      "note_on channel=0 note=43 velocity=0 time=111\n",
      "note_on channel=0 note=55 velocity=79 time=7\n",
      "note_on channel=0 note=55 velocity=0 time=113\n",
      "note_on channel=0 note=59 velocity=78 time=7\n",
      "note_on channel=0 note=59 velocity=0 time=113\n",
      "note_on channel=0 note=47 velocity=75 time=127\n",
      "control_change channel=0 control=64 value=0 time=1\n",
      "control_change channel=0 control=64 value=127 time=1\n",
      "note_on channel=0 note=47 velocity=0 time=111\n",
      "note_on channel=0 note=51 velocity=74 time=7\n",
      "note_on channel=0 note=51 velocity=0 time=113\n",
      "note_on channel=0 note=54 velocity=73 time=7\n",
      "note_on channel=0 note=54 velocity=0 time=113\n",
      "note_on channel=0 note=52 velocity=70 time=127\n",
      "control_change channel=0 control=64 value=0 time=1\n",
      "control_change channel=0 control=64 value=127 time=1\n",
      "note_on channel=0 note=52 velocity=0 time=111\n",
      "note_on channel=0 note=59 velocity=69 time=7\n",
      "note_on channel=0 note=59 velocity=0 time=113\n",
      "note_on channel=0 note=64 velocity=68 time=7\n",
      "note_on channel=0 note=64 velocity=0 time=113\n",
      "note_on channel=0 note=55 velocity=65 time=127\n",
      "control_change channel=0 control=64 value=0 time=1\n",
      "control_change channel=0 control=64 value=127 time=1\n",
      "note_on channel=0 note=55 velocity=0 time=111\n",
      "note_on channel=0 note=59 velocity=64 time=7\n",
      "note_on channel=0 note=59 velocity=0 time=113\n",
      "note_on channel=0 note=64 velocity=62 time=7\n",
      "note_on channel=0 note=64 velocity=0 time=113\n",
      "note_on channel=0 note=57 velocity=60 time=127\n",
      "note_on channel=0 note=61 velocity=60 time=0\n",
      "note_on channel=0 note=64 velocity=60 time=0\n",
      "control_change channel=0 control=64 value=0 time=1\n",
      "control_change channel=0 control=64 value=127 time=1\n",
      "note_on channel=0 note=57 velocity=0 time=225\n",
      "note_on channel=0 note=61 velocity=0 time=0\n",
      "note_on channel=0 note=64 velocity=0 time=0\n",
      "note_on channel=0 note=38 velocity=49 time=733\n",
      "control_change channel=0 control=64 value=0 time=1\n",
      "control_change channel=0 control=64 value=127 time=1\n",
      "note_on channel=0 note=38 velocity=0 time=111\n",
      "note_on channel=0 note=50 velocity=49 time=7\n",
      "note_on channel=0 note=50 velocity=0 time=113\n",
      "note_on channel=0 note=54 velocity=49 time=7\n",
      "note_on channel=0 note=54 velocity=0 time=113\n",
      "note_on channel=0 note=45 velocity=58 time=1567\n",
      "control_change channel=0 control=64 value=0 time=1\n",
      "control_change channel=0 control=64 value=127 time=1\n",
      "note_on channel=0 note=45 velocity=0 time=117\n",
      "note_on channel=0 note=52 velocity=49 time=1\n",
      "note_on channel=0 note=52 velocity=0 time=113\n",
      "note_on channel=0 note=57 velocity=49 time=7\n",
      "note_on channel=0 note=57 velocity=0 time=113\n",
      "note_on channel=0 note=38 velocity=58 time=1567\n",
      "control_change channel=0 control=64 value=0 time=1\n",
      "control_change channel=0 control=64 value=127 time=1\n",
      "note_on channel=0 note=38 velocity=0 time=117\n",
      "note_on channel=0 note=50 velocity=49 time=1\n",
      "note_on channel=0 note=50 velocity=0 time=113\n",
      "note_on channel=0 note=54 velocity=49 time=7\n",
      "note_on channel=0 note=54 velocity=0 time=113\n",
      "note_on channel=0 note=38 velocity=49 time=1567\n",
      "control_change channel=0 control=64 value=0 time=1\n",
      "control_change channel=0 control=64 value=127 time=1\n",
      "note_on channel=0 note=38 velocity=0 time=111\n",
      "note_on channel=0 note=50 velocity=49 time=7\n",
      "note_on channel=0 note=50 velocity=0 time=113\n",
      "note_on channel=0 note=53 velocity=49 time=7\n",
      "note_on channel=0 note=53 velocity=0 time=113\n",
      "note_on channel=0 note=31 velocity=49 time=1567\n",
      "control_change channel=0 control=64 value=0 time=1\n",
      "control_change channel=0 control=64 value=127 time=1\n",
      "note_on channel=0 note=31 velocity=0 time=111\n",
      "note_on channel=0 note=43 velocity=49 time=7\n",
      "note_on channel=0 note=43 velocity=0 time=113\n",
      "note_on channel=0 note=47 velocity=49 time=7\n",
      "note_on channel=0 note=47 velocity=0 time=113\n",
      "note_on channel=0 note=31 velocity=112 time=1567\n",
      "note_on channel=0 note=35 velocity=112 time=0\n",
      "note_on channel=0 note=38 velocity=112 time=0\n",
      "note_on channel=0 note=43 velocity=112 time=0\n",
      "control_change channel=0 control=64 value=0 time=1\n",
      "control_change channel=0 control=64 value=127 time=1\n",
      "note_on channel=0 note=31 velocity=0 time=453\n",
      "note_on channel=0 note=35 velocity=0 time=0\n",
      "note_on channel=0 note=38 velocity=0 time=0\n",
      "note_on channel=0 note=43 velocity=0 time=0\n",
      "note_on channel=0 note=53 velocity=112 time=2425\n",
      "note_on channel=0 note=53 velocity=0 time=151\n",
      "note_on channel=0 note=47 velocity=112 time=9\n",
      "note_on channel=0 note=47 velocity=0 time=151\n",
      "note_on channel=0 note=50 velocity=112 time=9\n",
      "note_on channel=0 note=50 velocity=0 time=151\n",
      "note_on channel=0 note=43 velocity=112 time=9\n",
      "note_on channel=0 note=43 velocity=0 time=151\n",
      "note_on channel=0 note=38 velocity=112 time=9\n",
      "note_on channel=0 note=38 velocity=0 time=151\n",
      "note_on channel=0 note=35 velocity=112 time=9\n",
      "note_on channel=0 note=35 velocity=0 time=151\n",
      "note_on channel=0 note=31 velocity=112 time=9\n",
      "control_change channel=0 control=64 value=0 time=1\n",
      "control_change channel=0 control=64 value=127 time=1\n",
      "note_on channel=0 note=31 velocity=0 time=225\n",
      "note_on channel=0 note=53 velocity=96 time=2653\n",
      "note_on channel=0 note=53 velocity=0 time=151\n",
      "note_on channel=0 note=47 velocity=94 time=9\n",
      "note_on channel=0 note=47 velocity=0 time=151\n",
      "note_on channel=0 note=50 velocity=91 time=9\n",
      "note_on channel=0 note=50 velocity=0 time=151\n",
      "note_on channel=0 note=43 velocity=88 time=9\n",
      "note_on channel=0 note=43 velocity=0 time=151\n",
      "note_on channel=0 note=38 velocity=86 time=9\n",
      "note_on channel=0 note=38 velocity=0 time=151\n",
      "note_on channel=0 note=35 velocity=83 time=9\n",
      "note_on channel=0 note=35 velocity=0 time=151\n",
      "note_on channel=0 note=31 velocity=80 time=9\n",
      "control_change channel=0 control=64 value=0 time=1\n",
      "control_change channel=0 control=64 value=127 time=1\n",
      "note_on channel=0 note=31 velocity=0 time=605\n",
      "note_on channel=0 note=35 velocity=75 time=33\n",
      "note_on channel=0 note=35 velocity=0 time=151\n",
      "note_on channel=0 note=38 velocity=73 time=9\n",
      "note_on channel=0 note=38 velocity=0 time=151\n",
      "note_on channel=0 note=43 velocity=71 time=9\n",
      "note_on channel=0 note=43 velocity=0 time=607\n",
      "note_on channel=0 note=47 velocity=64 time=33\n",
      "note_on channel=0 note=47 velocity=0 time=151\n",
      "note_on channel=0 note=50 velocity=62 time=9\n",
      "note_on channel=0 note=50 velocity=0 time=151\n",
      "note_on channel=0 note=55 velocity=60 time=9\n",
      "note_on channel=0 note=55 velocity=0 time=607\n",
      "note_on channel=0 note=59 velocity=53 time=33\n",
      "note_on channel=0 note=59 velocity=0 time=151\n",
      "note_on channel=0 note=62 velocity=51 time=9\n",
      "note_on channel=0 note=62 velocity=0 time=151\n",
      "note_on channel=0 note=67 velocity=49 time=9\n",
      "note_on channel=0 note=67 velocity=0 time=607\n",
      "note_on channel=0 note=71 velocity=49 time=33\n",
      "note_on channel=0 note=71 velocity=0 time=151\n",
      "note_on channel=0 note=74 velocity=49 time=9\n",
      "note_on channel=0 note=74 velocity=0 time=151\n",
      "note_on channel=0 note=77 velocity=49 time=9\n",
      "control_change channel=0 control=64 value=0 time=1\n",
      "control_change channel=0 control=64 value=127 time=1\n",
      "note_on channel=0 note=77 velocity=0 time=605\n",
      "note_on channel=0 note=71 velocity=49 time=33\n",
      "note_on channel=0 note=71 velocity=0 time=151\n",
      "note_on channel=0 note=77 velocity=49 time=9\n",
      "note_on channel=0 note=77 velocity=0 time=151\n",
      "note_on channel=0 note=77 velocity=49 time=9\n",
      "note_on channel=0 note=77 velocity=0 time=607\n",
      "note_on channel=0 note=71 velocity=57 time=33\n",
      "note_on channel=0 note=71 velocity=0 time=151\n",
      "note_on channel=0 note=77 velocity=60 time=9\n",
      "note_on channel=0 note=77 velocity=0 time=151\n",
      "note_on channel=0 note=77 velocity=62 time=9\n",
      "note_on channel=0 note=77 velocity=0 time=607\n",
      "note_on channel=0 note=74 velocity=71 time=33\n",
      "note_on channel=0 note=74 velocity=0 time=151\n",
      "note_on channel=0 note=77 velocity=73 time=9\n",
      "note_on channel=0 note=77 velocity=0 time=151\n",
      "note_on channel=0 note=81 velocity=75 time=9\n",
      "note_on channel=0 note=81 velocity=0 time=607\n",
      "note_on channel=0 note=74 velocity=84 time=33\n",
      "note_on channel=0 note=74 velocity=0 time=151\n",
      "note_on channel=0 note=77 velocity=87 time=9\n",
      "note_on channel=0 note=77 velocity=0 time=151\n",
      "note_on channel=0 note=81 velocity=89 time=9\n",
      "note_on channel=0 note=81 velocity=0 time=607\n",
      "note_on channel=0 note=74 velocity=96 time=33\n",
      "note_on channel=0 note=74 velocity=0 time=151\n",
      "note_on channel=0 note=77 velocity=96 time=9\n",
      "note_on channel=0 note=77 velocity=0 time=151\n",
      "note_on channel=0 note=81 velocity=96 time=9\n",
      "control_change channel=0 control=64 value=0 time=1\n",
      "control_change channel=0 control=64 value=127 time=1\n",
      "note_on channel=0 note=81 velocity=0 time=1517\n",
      "note_on channel=0 note=74 velocity=96 time=81\n",
      "note_on channel=0 note=74 velocity=0 time=151\n",
      "note_on channel=0 note=77 velocity=96 time=9\n",
      "note_on channel=0 note=77 velocity=0 time=151\n",
      "note_on channel=0 note=81 velocity=96 time=9\n",
      "control_change channel=0 control=64 value=0 time=1\n",
      "control_change channel=0 control=64 value=127 time=1\n",
      "note_on channel=0 note=81 velocity=0 time=1061\n",
      "note_on channel=0 note=79 velocity=74 time=57\n",
      "note_on channel=0 note=79 velocity=0 time=151\n",
      "note_on channel=0 note=77 velocity=71 time=9\n",
      "note_on channel=0 note=77 velocity=0 time=151\n",
      "note_on channel=0 note=79 velocity=67 time=9\n",
      "note_on channel=0 note=79 velocity=0 time=151\n",
      "note_on channel=0 note=77 velocity=63 time=9\n",
      "note_on channel=0 note=77 velocity=0 time=151\n",
      "note_on channel=0 note=74 velocity=59 time=9\n",
      "note_on channel=0 note=74 velocity=0 time=151\n",
      "note_on channel=0 note=81 velocity=56 time=9\n",
      "control_change channel=0 control=64 value=0 time=1\n",
      "control_change channel=0 control=64 value=127 time=1\n",
      "note_on channel=0 note=81 velocity=0 time=149\n",
      "note_on channel=0 note=79 velocity=52 time=9\n",
      "note_on channel=0 note=79 velocity=0 time=151\n",
      "note_on channel=0 note=77 velocity=48 time=9\n",
      "note_on channel=0 note=77 velocity=0 time=151\n",
      "note_on channel=0 note=79 velocity=45 time=9\n",
      "note_on channel=0 note=79 velocity=0 time=151\n",
      "note_on channel=0 note=77 velocity=41 time=9\n",
      "note_on channel=0 note=77 velocity=0 time=151\n",
      "note_on channel=0 note=74 velocity=37 time=9\n",
      "note_on channel=0 note=74 velocity=0 time=151\n",
      "note_on channel=0 note=81 velocity=33 time=9\n",
      "control_change channel=0 control=64 value=0 time=1\n",
      "note_on channel=0 note=81 velocity=0 time=454\n",
      "note_on channel=0 note=80 velocity=33 time=25\n",
      "note_on channel=0 note=80 velocity=0 time=455\n",
      "note_on channel=0 note=79 velocity=33 time=25\n",
      "note_on channel=0 note=79 velocity=0 time=455\n",
      "note_on channel=0 note=78 velocity=33 time=25\n",
      "note_on channel=0 note=78 velocity=0 time=455\n",
      "note_on channel=0 note=77 velocity=33 time=25\n",
      "note_on channel=0 note=77 velocity=0 time=455\n",
      "note_on channel=0 note=76 velocity=33 time=25\n",
      "note_on channel=0 note=76 velocity=0 time=455\n",
      "note_on channel=0 note=74 velocity=33 time=25\n",
      "note_on channel=0 note=74 velocity=0 time=455\n",
      "note_on channel=0 note=79 velocity=33 time=985\n",
      "note_on channel=0 note=79 velocity=0 time=455\n",
      "note_on channel=0 note=48 velocity=40 time=18265\n",
      "note_on channel=0 note=48 velocity=0 time=227\n",
      "note_on channel=0 note=55 velocity=48 time=13\n",
      "note_on channel=0 note=60 velocity=48 time=0\n",
      "note_on channel=0 note=64 velocity=48 time=0\n",
      "note_on channel=0 note=55 velocity=0 time=719\n",
      "note_on channel=0 note=60 velocity=0 time=0\n",
      "note_on channel=0 note=64 velocity=0 time=0\n",
      "note_on channel=0 note=48 velocity=40 time=1\n",
      "note_on channel=0 note=48 velocity=0 time=227\n",
      "note_on channel=0 note=55 velocity=48 time=13\n",
      "note_on channel=0 note=60 velocity=48 time=0\n",
      "note_on channel=0 note=64 velocity=48 time=0\n",
      "note_on channel=0 note=55 velocity=0 time=719\n",
      "note_on channel=0 note=60 velocity=0 time=0\n",
      "note_on channel=0 note=64 velocity=0 time=0\n",
      "note_on channel=0 note=48 velocity=40 time=1\n",
      "note_on channel=0 note=48 velocity=0 time=227\n",
      "note_on channel=0 note=55 velocity=40 time=13\n",
      "note_on channel=0 note=60 velocity=40 time=0\n",
      "note_on channel=0 note=64 velocity=40 time=0\n",
      "note_on channel=0 note=55 velocity=0 time=227\n",
      "note_on channel=0 note=60 velocity=0 time=0\n",
      "note_on channel=0 note=64 velocity=0 time=0\n",
      "note_on channel=0 note=48 velocity=40 time=13\n",
      "note_on channel=0 note=48 velocity=0 time=227\n",
      "note_on channel=0 note=55 velocity=40 time=13\n",
      "note_on channel=0 note=60 velocity=40 time=0\n",
      "note_on channel=0 note=64 velocity=40 time=0\n",
      "note_on channel=0 note=55 velocity=0 time=227\n",
      "note_on channel=0 note=60 velocity=0 time=0\n",
      "note_on channel=0 note=64 velocity=0 time=0\n",
      "note_on channel=0 note=48 velocity=40 time=13\n",
      "note_on channel=0 note=48 velocity=0 time=227\n",
      "note_on channel=0 note=55 velocity=48 time=13\n",
      "note_on channel=0 note=60 velocity=48 time=0\n",
      "note_on channel=0 note=64 velocity=48 time=0\n",
      "note_on channel=0 note=55 velocity=0 time=719\n",
      "note_on channel=0 note=60 velocity=0 time=0\n",
      "note_on channel=0 note=64 velocity=0 time=0\n",
      "note_on channel=0 note=45 velocity=40 time=1\n",
      "note_on channel=0 note=45 velocity=0 time=227\n",
      "note_on channel=0 note=57 velocity=40 time=13\n",
      "note_on channel=0 note=60 velocity=40 time=0\n",
      "note_on channel=0 note=64 velocity=40 time=0\n",
      "note_on channel=0 note=57 velocity=0 time=227\n",
      "note_on channel=0 note=60 velocity=0 time=0\n",
      "note_on channel=0 note=64 velocity=0 time=0\n",
      "note_on channel=0 note=48 velocity=40 time=13\n",
      "note_on channel=0 note=48 velocity=0 time=227\n",
      "note_on channel=0 note=57 velocity=40 time=13\n",
      "note_on channel=0 note=60 velocity=40 time=0\n",
      "note_on channel=0 note=64 velocity=40 time=0\n",
      "note_on channel=0 note=57 velocity=0 time=227\n",
      "note_on channel=0 note=60 velocity=0 time=0\n",
      "note_on channel=0 note=64 velocity=0 time=0\n",
      "note_on channel=0 note=50 velocity=40 time=13\n",
      "note_on channel=0 note=50 velocity=0 time=227\n",
      "note_on channel=0 note=57 velocity=48 time=13\n",
      "note_on channel=0 note=62 velocity=48 time=0\n",
      "note_on channel=0 note=66 velocity=48 time=0\n",
      "note_on channel=0 note=57 velocity=0 time=719\n",
      "note_on channel=0 note=62 velocity=0 time=0\n",
      "note_on channel=0 note=66 velocity=0 time=0\n",
      "note_on channel=0 note=50 velocity=40 time=1\n",
      "note_on channel=0 note=50 velocity=0 time=227\n",
      "note_on channel=0 note=57 velocity=40 time=13\n",
      "note_on channel=0 note=62 velocity=40 time=0\n",
      "note_on channel=0 note=66 velocity=40 time=0\n",
      "note_on channel=0 note=57 velocity=0 time=683\n",
      "note_on channel=0 note=62 velocity=0 time=0\n",
      "note_on channel=0 note=66 velocity=0 time=0\n",
      "note_on channel=0 note=55 velocity=40 time=37\n",
      "note_on channel=0 note=55 velocity=0 time=227\n",
      "note_on channel=0 note=59 velocity=40 time=13\n",
      "note_on channel=0 note=62 velocity=40 time=0\n",
      "note_on channel=0 note=67 velocity=40 time=0\n",
      "note_on channel=0 note=59 velocity=0 time=683\n",
      "note_on channel=0 note=62 velocity=0 time=0\n",
      "note_on channel=0 note=67 velocity=0 time=0\n",
      "note_on channel=0 note=48 velocity=40 time=37\n",
      "note_on channel=0 note=48 velocity=0 time=227\n",
      "note_on channel=0 note=57 velocity=40 time=13\n",
      "note_on channel=0 note=60 velocity=40 time=0\n",
      "note_on channel=0 note=64 velocity=40 time=0\n",
      "note_on channel=0 note=57 velocity=0 time=227\n",
      "note_on channel=0 note=60 velocity=0 time=0\n",
      "note_on channel=0 note=64 velocity=0 time=0\n",
      "note_on channel=0 note=50 velocity=40 time=13\n",
      "note_on channel=0 note=50 velocity=0 time=227\n",
      "note_on channel=0 note=57 velocity=40 time=13\n",
      "note_on channel=0 note=60 velocity=40 time=0\n",
      "note_on channel=0 note=66 velocity=40 time=0\n",
      "note_on channel=0 note=57 velocity=0 time=227\n",
      "note_on channel=0 note=60 velocity=0 time=0\n",
      "note_on channel=0 note=66 velocity=0 time=0\n",
      "note_on channel=0 note=43 velocity=40 time=13\n",
      "note_on channel=0 note=43 velocity=0 time=227\n",
      "note_on channel=0 note=50 velocity=40 time=13\n",
      "note_on channel=0 note=55 velocity=40 time=0\n",
      "note_on channel=0 note=59 velocity=40 time=0\n",
      "note_on channel=0 note=50 velocity=0 time=683\n",
      "note_on channel=0 note=55 velocity=0 time=0\n",
      "note_on channel=0 note=59 velocity=0 time=0\n",
      "note_on channel=0 note=59 velocity=40 time=3877\n",
      "note_on channel=0 note=59 velocity=0 time=113\n",
      "note_on channel=0 note=67 velocity=40 time=7\n",
      "note_on channel=0 note=67 velocity=0 time=113\n",
      "note_on channel=0 note=62 velocity=40 time=7\n",
      "note_on channel=0 note=62 velocity=0 time=113\n",
      "note_on channel=0 note=67 velocity=40 time=7\n",
      "note_on channel=0 note=67 velocity=0 time=113\n",
      "note_on channel=0 note=57 velocity=40 time=7\n",
      "note_on channel=0 note=57 velocity=0 time=113\n",
      "note_on channel=0 note=69 velocity=40 time=7\n",
      "note_on channel=0 note=69 velocity=0 time=113\n",
      "note_on channel=0 note=62 velocity=40 time=7\n",
      "note_on channel=0 note=62 velocity=0 time=113\n",
      "note_on channel=0 note=69 velocity=40 time=7\n",
      "note_on channel=0 note=69 velocity=0 time=113\n",
      "note_on channel=0 note=59 velocity=40 time=7\n",
      "note_on channel=0 note=59 velocity=0 time=113\n",
      "note_on channel=0 note=67 velocity=40 time=7\n",
      "note_on channel=0 note=67 velocity=0 time=113\n",
      "note_on channel=0 note=62 velocity=40 time=7\n",
      "note_on channel=0 note=62 velocity=0 time=113\n",
      "note_on channel=0 note=67 velocity=40 time=7\n",
      "note_on channel=0 note=67 velocity=0 time=113\n",
      "note_on channel=0 note=57 velocity=40 time=7\n",
      "note_on channel=0 note=57 velocity=0 time=113\n",
      "note_on channel=0 note=66 velocity=40 time=7\n",
      "note_on channel=0 note=66 velocity=0 time=113\n",
      "note_on channel=0 note=62 velocity=40 time=7\n",
      "note_on channel=0 note=62 velocity=0 time=113\n",
      "note_on channel=0 note=66 velocity=40 time=7\n",
      "note_on channel=0 note=66 velocity=0 time=113\n",
      "note_on channel=0 note=55 velocity=40 time=7\n",
      "note_on channel=0 note=55 velocity=0 time=113\n",
      "note_on channel=0 note=67 velocity=40 time=7\n",
      "note_on channel=0 note=67 velocity=0 time=113\n",
      "note_on channel=0 note=62 velocity=40 time=7\n",
      "note_on channel=0 note=62 velocity=0 time=113\n",
      "note_on channel=0 note=67 velocity=40 time=7\n",
      "note_on channel=0 note=67 velocity=0 time=113\n",
      "note_on channel=0 note=54 velocity=40 time=7\n",
      "note_on channel=0 note=54 velocity=0 time=113\n",
      "note_on channel=0 note=66 velocity=40 time=7\n",
      "note_on channel=0 note=66 velocity=0 time=113\n",
      "note_on channel=0 note=62 velocity=40 time=7\n",
      "note_on channel=0 note=62 velocity=0 time=113\n",
      "note_on channel=0 note=66 velocity=40 time=7\n",
      "note_on channel=0 note=66 velocity=0 time=113\n",
      "note_on channel=0 note=52 velocity=40 time=7\n",
      "note_on channel=0 note=52 velocity=0 time=113\n",
      "note_on channel=0 note=64 velocity=40 time=7\n",
      "note_on channel=0 note=64 velocity=0 time=113\n",
      "note_on channel=0 note=57 velocity=40 time=7\n",
      "note_on channel=0 note=57 velocity=0 time=113\n",
      "note_on channel=0 note=67 velocity=40 time=7\n",
      "note_on channel=0 note=67 velocity=0 time=113\n",
      "note_on channel=0 note=62 velocity=40 time=7\n",
      "note_on channel=0 note=66 velocity=40 time=0\n",
      "note_on channel=0 note=62 velocity=0 time=227\n",
      "note_on channel=0 note=66 velocity=0 time=0\n",
      "note_on channel=0 note=64 velocity=40 time=1213\n",
      "note_on channel=0 note=57 velocity=48 time=0\n",
      "note_on channel=0 note=64 velocity=0 time=113\n",
      "note_on channel=0 note=67 velocity=40 time=7\n",
      "note_on channel=0 note=67 velocity=0 time=113\n",
      "note_on channel=0 note=57 velocity=0 time=6\n",
      "note_on channel=0 note=66 velocity=40 time=1\n",
      "note_on channel=0 note=62 velocity=40 time=0\n",
      "note_on channel=0 note=66 velocity=0 time=227\n",
      "note_on channel=0 note=62 velocity=0 time=0\n",
      "note_on channel=0 note=58 velocity=80 time=13933\n",
      "note_on channel=0 note=58 velocity=0 time=113\n",
      "note_on channel=0 note=62 velocity=80 time=7\n",
      "note_on channel=0 note=62 velocity=0 time=113\n",
      "note_on channel=0 note=64 velocity=80 time=7\n",
      "control_change channel=0 control=64 value=127 time=2\n",
      "note_on channel=0 note=64 velocity=0 time=111\n",
      "note_on channel=0 note=66 velocity=80 time=7\n",
      "note_on channel=0 note=66 velocity=0 time=113\n",
      "note_on channel=0 note=67 velocity=80 time=7\n",
      "control_change channel=0 control=64 value=0 time=1\n",
      "control_change channel=0 control=64 value=127 time=1\n",
      "note_on channel=0 note=67 velocity=0 time=111\n",
      "note_on channel=0 note=66 velocity=80 time=7\n",
      "note_on channel=0 note=66 velocity=0 time=113\n",
      "note_on channel=0 note=67 velocity=80 time=7\n",
      "note_on channel=0 note=67 velocity=0 time=113\n",
      "note_on channel=0 note=68 velocity=80 time=7\n",
      "note_on channel=0 note=68 velocity=0 time=113\n",
      "note_on channel=0 note=69 velocity=80 time=7\n",
      "control_change channel=0 control=64 value=0 time=1\n",
      "control_change channel=0 control=64 value=127 time=1\n",
      "note_on channel=0 note=69 velocity=0 time=111\n",
      "note_on channel=0 note=62 velocity=80 time=7\n",
      "note_on channel=0 note=62 velocity=0 time=113\n",
      "note_on channel=0 note=64 velocity=80 time=7\n",
      "note_on channel=0 note=64 velocity=0 time=113\n",
      "note_on channel=0 note=66 velocity=80 time=7\n",
      "control_change channel=0 control=64 value=0 time=1\n",
      "note_on channel=0 note=66 velocity=0 time=112\n",
      "note_on channel=0 note=67 velocity=80 time=7\n",
      "control_change channel=0 control=64 value=127 time=2\n",
      "note_on channel=0 note=67 velocity=0 time=111\n",
      "note_on channel=0 note=65 velocity=80 time=7\n",
      "note_on channel=0 note=65 velocity=0 time=113\n",
      "note_on channel=0 note=63 velocity=80 time=7\n",
      "note_on channel=0 note=63 velocity=0 time=113\n",
      "note_on channel=0 note=62 velocity=80 time=7\n",
      "control_change channel=0 control=64 value=0 time=1\n",
      "note_on channel=0 note=62 velocity=0 time=112\n",
      "note_on channel=0 note=60 velocity=80 time=7\n",
      "control_change channel=0 control=64 value=127 time=2\n",
      "note_on channel=0 note=60 velocity=0 time=111\n",
      "note_on channel=0 note=58 velocity=80 time=7\n",
      "note_on channel=0 note=58 velocity=0 time=113\n",
      "note_on channel=0 note=60 velocity=80 time=7\n",
      "note_on channel=0 note=60 velocity=0 time=113\n",
      "note_on channel=0 note=62 velocity=80 time=7\n",
      "control_change channel=0 control=64 value=0 time=1\n",
      "note_on channel=0 note=62 velocity=0 time=112\n",
      "note_on channel=0 note=58 velocity=80 time=7\n",
      "control_change channel=0 control=64 value=127 time=2\n",
      "note_on channel=0 note=58 velocity=0 time=111\n",
      "note_on channel=0 note=55 velocity=80 time=7\n",
      "note_on channel=0 note=55 velocity=0 time=113\n",
      "note_on channel=0 note=57 velocity=80 time=7\n",
      "note_on channel=0 note=57 velocity=0 time=113\n",
      "note_on channel=0 note=58 velocity=80 time=7\n",
      "control_change channel=0 control=64 value=0 time=1\n",
      "note_on channel=0 note=58 velocity=0 time=112\n",
      "note_on channel=0 note=60 velocity=80 time=7\n",
      "control_change channel=0 control=64 value=127 time=2\n",
      "note_on channel=0 note=60 velocity=0 time=111\n",
      "note_on channel=0 note=57 velocity=80 time=7\n",
      "note_on channel=0 note=57 velocity=0 time=113\n",
      "note_on channel=0 note=58 velocity=80 time=7\n",
      "note_on channel=0 note=58 velocity=0 time=113\n",
      "note_on channel=0 note=60 velocity=80 time=7\n",
      "control_change channel=0 control=64 value=0 time=1\n",
      "note_on channel=0 note=60 velocity=0 time=112\n",
      "note_on channel=0 note=62 velocity=80 time=7\n",
      "control_change channel=0 control=64 value=127 time=2\n",
      "note_on channel=0 note=62 velocity=0 time=111\n",
      "note_on channel=0 note=61 velocity=80 time=7\n",
      "note_on channel=0 note=61 velocity=0 time=113\n",
      "note_on channel=0 note=62 velocity=80 time=7\n",
      "note_on channel=0 note=62 velocity=0 time=113\n",
      "note_on channel=0 note=50 velocity=80 time=7\n",
      "control_change channel=0 control=64 value=0 time=1\n",
      "note_on channel=0 note=50 velocity=0 time=112\n",
      "note_on channel=0 note=67 velocity=80 time=3847\n",
      "control_change channel=0 control=64 value=127 time=2\n",
      "note_on channel=0 note=67 velocity=0 time=111\n",
      "note_on channel=0 note=70 velocity=80 time=7\n",
      "note_on channel=0 note=70 velocity=0 time=113\n",
      "note_on channel=0 note=72 velocity=80 time=7\n",
      "note_on channel=0 note=72 velocity=0 time=113\n",
      "note_on channel=0 note=74 velocity=80 time=7\n",
      "note_on channel=0 note=74 velocity=0 time=113\n",
      "note_on channel=0 note=75 velocity=80 time=7\n",
      "control_change channel=0 control=64 value=0 time=1\n",
      "control_change channel=0 control=64 value=127 time=1\n",
      "note_on channel=0 note=75 velocity=0 time=111\n",
      "note_on channel=0 note=74 velocity=80 time=7\n",
      "note_on channel=0 note=74 velocity=0 time=113\n",
      "note_on channel=0 note=75 velocity=80 time=7\n",
      "note_on channel=0 note=75 velocity=0 time=113\n",
      "note_on channel=0 note=76 velocity=80 time=7\n",
      "note_on channel=0 note=76 velocity=0 time=113\n",
      "note_on channel=0 note=77 velocity=80 time=7\n",
      "control_change channel=0 control=64 value=0 time=1\n",
      "control_change channel=0 control=64 value=127 time=1\n",
      "note_on channel=0 note=77 velocity=0 time=111\n",
      "note_on channel=0 note=70 velocity=80 time=7\n",
      "note_on channel=0 note=70 velocity=0 time=113\n",
      "note_on channel=0 note=72 velocity=80 time=7\n",
      "note_on channel=0 note=72 velocity=0 time=113\n",
      "note_on channel=0 note=74 velocity=80 time=7\n",
      "note_on channel=0 note=74 velocity=0 time=113\n",
      "note_on channel=0 note=75 velocity=80 time=7\n",
      "control_change channel=0 control=64 value=0 time=1\n",
      "control_change channel=0 control=64 value=127 time=1\n",
      "note_on channel=0 note=75 velocity=0 time=111\n",
      "note_on channel=0 note=74 velocity=80 time=7\n",
      "note_on channel=0 note=74 velocity=0 time=113\n",
      "note_on channel=0 note=72 velocity=80 time=7\n",
      "note_on channel=0 note=72 velocity=0 time=113\n",
      "note_on channel=0 note=70 velocity=80 time=7\n",
      "note_on channel=0 note=70 velocity=0 time=113\n",
      "note_on channel=0 note=68 velocity=80 time=7\n",
      "control_change channel=0 control=64 value=0 time=1\n",
      "control_change channel=0 control=64 value=127 time=1\n",
      "note_on channel=0 note=68 velocity=0 time=111\n",
      "note_on channel=0 note=67 velocity=80 time=7\n",
      "note_on channel=0 note=67 velocity=0 time=113\n",
      "note_on channel=0 note=68 velocity=80 time=7\n",
      "note_on channel=0 note=68 velocity=0 time=113\n",
      "note_on channel=0 note=70 velocity=80 time=7\n",
      "note_on channel=0 note=70 velocity=0 time=113\n",
      "note_on channel=0 note=67 velocity=80 time=7\n",
      "control_change channel=0 control=64 value=0 time=1\n",
      "control_change channel=0 control=64 value=127 time=1\n",
      "note_on channel=0 note=67 velocity=0 time=111\n",
      "note_on channel=0 note=63 velocity=80 time=7\n",
      "note_on channel=0 note=63 velocity=0 time=113\n",
      "note_on channel=0 note=65 velocity=80 time=7\n",
      "note_on channel=0 note=65 velocity=0 time=113\n",
      "note_on channel=0 note=67 velocity=80 time=7\n",
      "note_on channel=0 note=67 velocity=0 time=113\n",
      "note_on channel=0 note=68 velocity=80 time=7\n",
      "control_change channel=0 control=64 value=0 time=1\n",
      "control_change channel=0 control=64 value=127 time=1\n",
      "note_on channel=0 note=68 velocity=0 time=111\n",
      "note_on channel=0 note=65 velocity=80 time=7\n",
      "note_on channel=0 note=65 velocity=0 time=113\n",
      "note_on channel=0 note=67 velocity=80 time=7\n",
      "note_on channel=0 note=67 velocity=0 time=113\n",
      "note_on channel=0 note=68 velocity=80 time=7\n",
      "note_on channel=0 note=68 velocity=0 time=113\n",
      "note_on channel=0 note=70 velocity=80 time=7\n",
      "control_change channel=0 control=64 value=0 time=1\n",
      "control_change channel=0 control=64 value=127 time=1\n",
      "note_on channel=0 note=70 velocity=0 time=111\n",
      "note_on channel=0 note=68 velocity=80 time=7\n",
      "note_on channel=0 note=68 velocity=0 time=113\n",
      "note_on channel=0 note=67 velocity=80 time=7\n",
      "note_on channel=0 note=67 velocity=0 time=113\n",
      "note_on channel=0 note=65 velocity=80 time=7\n",
      "note_on channel=0 note=65 velocity=0 time=113\n",
      "note_on channel=0 note=75 velocity=96 time=7\n",
      "control_change channel=0 control=64 value=0 time=1\n",
      "control_change channel=0 control=64 value=127 time=1\n",
      "note_on channel=0 note=75 velocity=0 time=111\n",
      "note_on channel=0 note=63 velocity=96 time=7\n",
      "note_on channel=0 note=63 velocity=0 time=113\n",
      "note_on channel=0 note=67 velocity=96 time=7\n",
      "note_on channel=0 note=67 velocity=0 time=113\n",
      "note_on channel=0 note=70 velocity=96 time=7\n",
      "note_on channel=0 note=70 velocity=0 time=113\n",
      "note_on channel=0 note=75 velocity=96 time=7\n",
      "note_on channel=0 note=75 velocity=0 time=113\n",
      "note_on channel=0 note=70 velocity=96 time=7\n",
      "note_on channel=0 note=70 velocity=0 time=113\n",
      "note_on channel=0 note=67 velocity=96 time=7\n",
      "note_on channel=0 note=67 velocity=0 time=113\n",
      "note_on channel=0 note=63 velocity=96 time=7\n",
      "note_on channel=0 note=63 velocity=0 time=113\n",
      "note_on channel=0 note=79 velocity=106 time=7\n",
      "note_on channel=0 note=79 velocity=0 time=113\n",
      "note_on channel=0 note=75 velocity=96 time=7\n",
      "note_on channel=0 note=75 velocity=0 time=113\n",
      "note_on channel=0 note=70 velocity=96 time=7\n",
      "note_on channel=0 note=70 velocity=0 time=113\n",
      "note_on channel=0 note=67 velocity=96 time=7\n",
      "note_on channel=0 note=67 velocity=0 time=113\n",
      "note_on channel=0 note=75 velocity=96 time=7\n",
      "note_on channel=0 note=75 velocity=0 time=113\n",
      "note_on channel=0 note=70 velocity=96 time=7\n",
      "note_on channel=0 note=70 velocity=0 time=113\n",
      "note_on channel=0 note=67 velocity=96 time=7\n",
      "note_on channel=0 note=67 velocity=0 time=113\n",
      "note_on channel=0 note=63 velocity=96 time=7\n",
      "note_on channel=0 note=63 velocity=0 time=113\n",
      "note_on channel=0 note=75 velocity=106 time=7\n",
      "note_on channel=0 note=75 velocity=0 time=113\n",
      "note_on channel=0 note=70 velocity=96 time=7\n",
      "note_on channel=0 note=70 velocity=0 time=113\n",
      "note_on channel=0 note=67 velocity=96 time=7\n",
      "note_on channel=0 note=67 velocity=0 time=113\n",
      "note_on channel=0 note=63 velocity=96 time=7\n",
      "note_on channel=0 note=63 velocity=0 time=113\n",
      "note_on channel=0 note=75 velocity=96 time=7\n",
      "note_on channel=0 note=75 velocity=0 time=113\n",
      "note_on channel=0 note=70 velocity=96 time=7\n",
      "note_on channel=0 note=70 velocity=0 time=113\n",
      "note_on channel=0 note=67 velocity=96 time=7\n",
      "note_on channel=0 note=67 velocity=0 time=113\n",
      "note_on channel=0 note=63 velocity=96 time=7\n",
      "note_on channel=0 note=63 velocity=0 time=113\n",
      "note_on channel=0 note=75 velocity=106 time=7\n",
      "note_on channel=0 note=75 velocity=0 time=113\n",
      "note_on channel=0 note=70 velocity=96 time=7\n",
      "note_on channel=0 note=70 velocity=0 time=113\n",
      "note_on channel=0 note=67 velocity=96 time=7\n",
      "note_on channel=0 note=67 velocity=0 time=113\n",
      "note_on channel=0 note=63 velocity=96 time=7\n",
      "note_on channel=0 note=63 velocity=0 time=113\n",
      "note_on channel=0 note=75 velocity=96 time=7\n",
      "note_on channel=0 note=75 velocity=0 time=113\n",
      "note_on channel=0 note=70 velocity=96 time=7\n",
      "note_on channel=0 note=70 velocity=0 time=113\n",
      "note_on channel=0 note=67 velocity=96 time=7\n",
      "note_on channel=0 note=67 velocity=0 time=113\n",
      "note_on channel=0 note=63 velocity=96 time=7\n",
      "control_change channel=0 control=64 value=0 time=1\n",
      "note_on channel=0 note=63 velocity=0 time=112\n",
      "note_on channel=0 note=65 velocity=96 time=127\n",
      "control_change channel=0 control=64 value=127 time=2\n",
      "note_on channel=0 note=65 velocity=0 time=111\n",
      "note_on channel=0 note=70 velocity=96 time=7\n",
      "note_on channel=0 note=70 velocity=0 time=113\n",
      "note_on channel=0 note=74 velocity=96 time=7\n",
      "note_on channel=0 note=74 velocity=0 time=113\n",
      "note_on channel=0 note=77 velocity=96 time=7\n",
      "note_on channel=0 note=77 velocity=0 time=113\n",
      "note_on channel=0 note=70 velocity=96 time=7\n",
      "note_on channel=0 note=70 velocity=0 time=113\n",
      "note_on channel=0 note=74 velocity=96 time=7\n",
      "note_on channel=0 note=74 velocity=0 time=113\n",
      "note_on channel=0 note=77 velocity=96 time=7\n",
      "note_on channel=0 note=77 velocity=0 time=113\n",
      "note_on channel=0 note=80 velocity=106 time=7\n",
      "note_on channel=0 note=80 velocity=0 time=113\n",
      "note_on channel=0 note=77 velocity=96 time=7\n",
      "note_on channel=0 note=77 velocity=0 time=113\n",
      "note_on channel=0 note=74 velocity=96 time=7\n",
      "note_on channel=0 note=74 velocity=0 time=113\n",
      "note_on channel=0 note=70 velocity=96 time=7\n",
      "note_on channel=0 note=70 velocity=0 time=113\n",
      "note_on channel=0 note=77 velocity=96 time=7\n",
      "note_on channel=0 note=77 velocity=0 time=113\n",
      "note_on channel=0 note=74 velocity=96 time=7\n",
      "note_on channel=0 note=74 velocity=0 time=113\n",
      "note_on channel=0 note=70 velocity=96 time=7\n",
      "note_on channel=0 note=70 velocity=0 time=113\n",
      "note_on channel=0 note=68 velocity=96 time=7\n",
      "note_on channel=0 note=68 velocity=0 time=113\n",
      "note_on channel=0 note=77 velocity=106 time=7\n",
      "note_on channel=0 note=77 velocity=0 time=113\n",
      "note_on channel=0 note=74 velocity=96 time=7\n",
      "note_on channel=0 note=74 velocity=0 time=113\n",
      "note_on channel=0 note=70 velocity=96 time=7\n",
      "note_on channel=0 note=70 velocity=0 time=113\n",
      "note_on channel=0 note=68 velocity=96 time=7\n",
      "note_on channel=0 note=68 velocity=0 time=113\n",
      "note_on channel=0 note=77 velocity=96 time=7\n",
      "note_on channel=0 note=77 velocity=0 time=113\n",
      "note_on channel=0 note=74 velocity=96 time=7\n",
      "note_on channel=0 note=74 velocity=0 time=113\n",
      "note_on channel=0 note=70 velocity=96 time=7\n",
      "note_on channel=0 note=70 velocity=0 time=113\n",
      "note_on channel=0 note=68 velocity=96 time=7\n",
      "note_on channel=0 note=68 velocity=0 time=113\n",
      "note_on channel=0 note=77 velocity=106 time=7\n",
      "note_on channel=0 note=77 velocity=0 time=113\n",
      "note_on channel=0 note=74 velocity=96 time=7\n",
      "note_on channel=0 note=74 velocity=0 time=113\n",
      "note_on channel=0 note=70 velocity=96 time=7\n",
      "note_on channel=0 note=70 velocity=0 time=113\n",
      "note_on channel=0 note=68 velocity=96 time=7\n",
      "note_on channel=0 note=68 velocity=0 time=113\n",
      "note_on channel=0 note=77 velocity=96 time=7\n",
      "note_on channel=0 note=77 velocity=0 time=113\n",
      "note_on channel=0 note=74 velocity=96 time=7\n",
      "note_on channel=0 note=74 velocity=0 time=113\n",
      "note_on channel=0 note=70 velocity=96 time=7\n",
      "note_on channel=0 note=70 velocity=0 time=113\n",
      "note_on channel=0 note=68 velocity=96 time=7\n",
      "note_on channel=0 note=68 velocity=0 time=113\n",
      "note_on channel=0 note=70 velocity=96 time=7\n",
      "note_on channel=0 note=75 velocity=96 time=0\n",
      "note_on channel=0 note=79 velocity=96 time=0\n",
      "note_on channel=0 note=70 velocity=0 time=227\n",
      "note_on channel=0 note=75 velocity=0 time=0\n",
      "note_on channel=0 note=79 velocity=0 time=0\n",
      "control_change channel=0 control=64 value=0 time=14\n",
      "note_on channel=0 note=58 velocity=64 time=3719\n",
      "control_change channel=0 control=64 value=127 time=2\n",
      "note_on channel=0 note=58 velocity=0 time=111\n",
      "note_on channel=0 note=61 velocity=64 time=7\n",
      "note_on channel=0 note=61 velocity=0 time=113\n",
      "note_on channel=0 note=65 velocity=64 time=7\n",
      "note_on channel=0 note=65 velocity=0 time=113\n",
      "note_on channel=0 note=70 velocity=64 time=7\n",
      "note_on channel=0 note=70 velocity=0 time=113\n",
      "note_on channel=0 note=61 velocity=64 time=7\n",
      "note_on channel=0 note=61 velocity=0 time=113\n",
      "note_on channel=0 note=65 velocity=64 time=7\n",
      "note_on channel=0 note=65 velocity=0 time=113\n",
      "note_on channel=0 note=70 velocity=64 time=7\n",
      "note_on channel=0 note=70 velocity=0 time=113\n",
      "note_on channel=0 note=73 velocity=64 time=7\n",
      "note_on channel=0 note=73 velocity=0 time=113\n",
      "note_on channel=0 note=70 velocity=64 time=7\n",
      "note_on channel=0 note=70 velocity=0 time=113\n",
      "note_on channel=0 note=65 velocity=64 time=7\n",
      "note_on channel=0 note=65 velocity=0 time=113\n",
      "note_on channel=0 note=61 velocity=64 time=7\n",
      "note_on channel=0 note=61 velocity=0 time=113\n",
      "note_on channel=0 note=70 velocity=64 time=7\n",
      "note_on channel=0 note=70 velocity=0 time=113\n",
      "note_on channel=0 note=65 velocity=64 time=7\n",
      "note_on channel=0 note=65 velocity=0 time=113\n",
      "note_on channel=0 note=61 velocity=64 time=7\n",
      "note_on channel=0 note=61 velocity=0 time=113\n",
      "note_on channel=0 note=58 velocity=64 time=7\n",
      "note_on channel=0 note=58 velocity=0 time=113\n",
      "note_on channel=0 note=70 velocity=64 time=7\n",
      "note_on channel=0 note=70 velocity=0 time=113\n",
      "note_on channel=0 note=65 velocity=64 time=7\n",
      "note_on channel=0 note=65 velocity=0 time=113\n",
      "note_on channel=0 note=61 velocity=64 time=7\n",
      "note_on channel=0 note=61 velocity=0 time=113\n",
      "note_on channel=0 note=58 velocity=64 time=7\n",
      "note_on channel=0 note=58 velocity=0 time=113\n",
      "note_on channel=0 note=70 velocity=64 time=7\n",
      "note_on channel=0 note=70 velocity=0 time=113\n",
      "note_on channel=0 note=65 velocity=64 time=7\n",
      "note_on channel=0 note=65 velocity=0 time=113\n",
      "note_on channel=0 note=61 velocity=64 time=7\n",
      "note_on channel=0 note=61 velocity=0 time=113\n",
      "note_on channel=0 note=58 velocity=64 time=7\n",
      "note_on channel=0 note=58 velocity=0 time=113\n",
      "note_on channel=0 note=70 velocity=64 time=7\n",
      "note_on channel=0 note=70 velocity=0 time=113\n",
      "note_on channel=0 note=65 velocity=64 time=7\n",
      "note_on channel=0 note=65 velocity=0 time=113\n",
      "note_on channel=0 note=61 velocity=64 time=7\n",
      "note_on channel=0 note=61 velocity=0 time=113\n",
      "note_on channel=0 note=58 velocity=64 time=7\n",
      "note_on channel=0 note=58 velocity=0 time=113\n",
      "note_on channel=0 note=70 velocity=64 time=7\n",
      "note_on channel=0 note=70 velocity=0 time=113\n",
      "note_on channel=0 note=65 velocity=64 time=7\n",
      "note_on channel=0 note=65 velocity=0 time=113\n",
      "note_on channel=0 note=61 velocity=64 time=7\n",
      "note_on channel=0 note=61 velocity=0 time=113\n",
      "note_on channel=0 note=58 velocity=64 time=7\n",
      "control_change channel=0 control=64 value=0 time=1\n",
      "note_on channel=0 note=58 velocity=0 time=112\n",
      "note_on channel=0 note=60 velocity=64 time=127\n",
      "control_change channel=0 control=64 value=127 time=2\n",
      "note_on channel=0 note=60 velocity=0 time=111\n",
      "note_on channel=0 note=65 velocity=64 time=7\n",
      "note_on channel=0 note=65 velocity=0 time=113\n",
      "note_on channel=0 note=69 velocity=64 time=7\n",
      "note_on channel=0 note=69 velocity=0 time=113\n",
      "note_on channel=0 note=72 velocity=64 time=7\n",
      "note_on channel=0 note=72 velocity=0 time=113\n",
      "note_on channel=0 note=65 velocity=64 time=7\n",
      "note_on channel=0 note=65 velocity=0 time=113\n",
      "note_on channel=0 note=69 velocity=64 time=7\n",
      "note_on channel=0 note=69 velocity=0 time=113\n",
      "note_on channel=0 note=72 velocity=64 time=7\n",
      "note_on channel=0 note=72 velocity=0 time=113\n",
      "note_on channel=0 note=75 velocity=64 time=7\n",
      "note_on channel=0 note=75 velocity=0 time=113\n",
      "note_on channel=0 note=72 velocity=64 time=7\n",
      "note_on channel=0 note=72 velocity=0 time=113\n",
      "note_on channel=0 note=69 velocity=64 time=7\n",
      "note_on channel=0 note=69 velocity=0 time=113\n",
      "note_on channel=0 note=65 velocity=64 time=7\n",
      "note_on channel=0 note=65 velocity=0 time=113\n",
      "note_on channel=0 note=72 velocity=64 time=7\n",
      "note_on channel=0 note=72 velocity=0 time=113\n",
      "note_on channel=0 note=69 velocity=64 time=7\n",
      "note_on channel=0 note=69 velocity=0 time=113\n",
      "note_on channel=0 note=65 velocity=64 time=7\n",
      "note_on channel=0 note=65 velocity=0 time=113\n",
      "note_on channel=0 note=63 velocity=64 time=7\n",
      "note_on channel=0 note=63 velocity=0 time=113\n",
      "note_on channel=0 note=72 velocity=64 time=7\n",
      "note_on channel=0 note=72 velocity=0 time=113\n",
      "note_on channel=0 note=69 velocity=64 time=7\n",
      "note_on channel=0 note=69 velocity=0 time=113\n",
      "note_on channel=0 note=65 velocity=64 time=7\n",
      "note_on channel=0 note=65 velocity=0 time=113\n",
      "note_on channel=0 note=63 velocity=64 time=7\n",
      "note_on channel=0 note=63 velocity=0 time=113\n",
      "note_on channel=0 note=72 velocity=64 time=7\n",
      "note_on channel=0 note=72 velocity=0 time=113\n",
      "note_on channel=0 note=69 velocity=64 time=7\n",
      "note_on channel=0 note=69 velocity=0 time=113\n",
      "note_on channel=0 note=65 velocity=64 time=7\n",
      "note_on channel=0 note=65 velocity=0 time=113\n",
      "note_on channel=0 note=63 velocity=64 time=7\n",
      "note_on channel=0 note=63 velocity=0 time=113\n",
      "note_on channel=0 note=72 velocity=64 time=7\n",
      "note_on channel=0 note=72 velocity=0 time=113\n",
      "note_on channel=0 note=69 velocity=64 time=7\n",
      "note_on channel=0 note=69 velocity=0 time=113\n",
      "note_on channel=0 note=65 velocity=64 time=7\n",
      "note_on channel=0 note=65 velocity=0 time=113\n",
      "note_on channel=0 note=63 velocity=64 time=7\n",
      "note_on channel=0 note=63 velocity=0 time=113\n",
      "note_on channel=0 note=72 velocity=64 time=7\n",
      "note_on channel=0 note=72 velocity=0 time=113\n",
      "note_on channel=0 note=69 velocity=64 time=7\n",
      "note_on channel=0 note=69 velocity=0 time=113\n",
      "note_on channel=0 note=65 velocity=64 time=7\n",
      "note_on channel=0 note=65 velocity=0 time=113\n",
      "note_on channel=0 note=63 velocity=64 time=7\n",
      "control_change channel=0 control=64 value=0 time=1\n",
      "note_on channel=0 note=63 velocity=0 time=112\n",
      "note_on channel=0 note=70 velocity=64 time=7\n",
      "note_on channel=0 note=73 velocity=64 time=0\n",
      "note_on channel=0 note=70 velocity=0 time=227\n",
      "note_on channel=0 note=73 velocity=0 time=0\n",
      "note_on channel=0 note=65 velocity=64 time=3733\n",
      "control_change channel=0 control=64 value=127 time=2\n",
      "note_on channel=0 note=65 velocity=0 time=111\n",
      "note_on channel=0 note=68 velocity=64 time=7\n",
      "note_on channel=0 note=68 velocity=0 time=113\n",
      "note_on channel=0 note=72 velocity=64 time=7\n",
      "note_on channel=0 note=72 velocity=0 time=113\n",
      "note_on channel=0 note=77 velocity=64 time=7\n",
      "note_on channel=0 note=77 velocity=0 time=113\n",
      "note_on channel=0 note=68 velocity=64 time=7\n",
      "note_on channel=0 note=68 velocity=0 time=113\n",
      "note_on channel=0 note=72 velocity=64 time=7\n",
      "note_on channel=0 note=72 velocity=0 time=113\n",
      "note_on channel=0 note=77 velocity=64 time=7\n",
      "note_on channel=0 note=77 velocity=0 time=113\n",
      "note_on channel=0 note=80 velocity=64 time=7\n",
      "note_on channel=0 note=80 velocity=0 time=113\n",
      "note_on channel=0 note=77 velocity=64 time=7\n",
      "note_on channel=0 note=77 velocity=0 time=113\n",
      "note_on channel=0 note=72 velocity=64 time=7\n",
      "note_on channel=0 note=72 velocity=0 time=113\n",
      "note_on channel=0 note=68 velocity=64 time=7\n",
      "note_on channel=0 note=68 velocity=0 time=113\n",
      "note_on channel=0 note=77 velocity=64 time=7\n",
      "note_on channel=0 note=77 velocity=0 time=113\n",
      "note_on channel=0 note=72 velocity=64 time=7\n",
      "note_on channel=0 note=72 velocity=0 time=113\n",
      "note_on channel=0 note=68 velocity=64 time=7\n",
      "note_on channel=0 note=68 velocity=0 time=113\n",
      "note_on channel=0 note=65 velocity=64 time=7\n",
      "note_on channel=0 note=65 velocity=0 time=113\n",
      "note_on channel=0 note=77 velocity=64 time=7\n",
      "note_on channel=0 note=77 velocity=0 time=113\n",
      "note_on channel=0 note=72 velocity=64 time=7\n",
      "note_on channel=0 note=72 velocity=0 time=113\n",
      "note_on channel=0 note=68 velocity=64 time=7\n",
      "note_on channel=0 note=68 velocity=0 time=113\n",
      "note_on channel=0 note=65 velocity=64 time=7\n",
      "note_on channel=0 note=65 velocity=0 time=113\n",
      "note_on channel=0 note=77 velocity=64 time=7\n",
      "note_on channel=0 note=77 velocity=0 time=113\n",
      "note_on channel=0 note=72 velocity=64 time=7\n",
      "note_on channel=0 note=72 velocity=0 time=113\n",
      "note_on channel=0 note=68 velocity=64 time=7\n",
      "note_on channel=0 note=68 velocity=0 time=113\n",
      "note_on channel=0 note=65 velocity=64 time=7\n",
      "note_on channel=0 note=65 velocity=0 time=113\n",
      "note_on channel=0 note=77 velocity=64 time=7\n",
      "note_on channel=0 note=77 velocity=0 time=113\n",
      "note_on channel=0 note=72 velocity=64 time=7\n",
      "note_on channel=0 note=72 velocity=0 time=113\n",
      "note_on channel=0 note=68 velocity=64 time=7\n",
      "note_on channel=0 note=68 velocity=0 time=113\n",
      "note_on channel=0 note=65 velocity=64 time=7\n",
      "note_on channel=0 note=65 velocity=0 time=113\n",
      "note_on channel=0 note=77 velocity=64 time=7\n",
      "note_on channel=0 note=77 velocity=0 time=113\n",
      "note_on channel=0 note=72 velocity=64 time=7\n",
      "note_on channel=0 note=72 velocity=0 time=113\n",
      "note_on channel=0 note=68 velocity=64 time=7\n",
      "note_on channel=0 note=68 velocity=0 time=113\n",
      "note_on channel=0 note=65 velocity=64 time=7\n",
      "control_change channel=0 control=64 value=0 time=1\n",
      "note_on channel=0 note=65 velocity=0 time=112\n",
      "note_on channel=0 note=67 velocity=64 time=127\n",
      "control_change channel=0 control=64 value=127 time=2\n",
      "note_on channel=0 note=67 velocity=0 time=111\n",
      "note_on channel=0 note=72 velocity=64 time=7\n",
      "note_on channel=0 note=72 velocity=0 time=113\n",
      "note_on channel=0 note=76 velocity=64 time=7\n",
      "note_on channel=0 note=76 velocity=0 time=113\n",
      "note_on channel=0 note=79 velocity=64 time=7\n",
      "note_on channel=0 note=79 velocity=0 time=113\n",
      "note_on channel=0 note=72 velocity=64 time=7\n",
      "note_on channel=0 note=72 velocity=0 time=113\n",
      "note_on channel=0 note=76 velocity=64 time=7\n",
      "note_on channel=0 note=76 velocity=0 time=113\n",
      "note_on channel=0 note=79 velocity=64 time=7\n",
      "note_on channel=0 note=79 velocity=0 time=113\n",
      "note_on channel=0 note=82 velocity=64 time=7\n",
      "note_on channel=0 note=82 velocity=0 time=113\n",
      "note_on channel=0 note=79 velocity=64 time=7\n",
      "note_on channel=0 note=79 velocity=0 time=113\n",
      "note_on channel=0 note=76 velocity=64 time=7\n",
      "note_on channel=0 note=76 velocity=0 time=113\n",
      "note_on channel=0 note=72 velocity=64 time=7\n",
      "note_on channel=0 note=72 velocity=0 time=113\n",
      "note_on channel=0 note=79 velocity=64 time=7\n",
      "note_on channel=0 note=79 velocity=0 time=113\n",
      "note_on channel=0 note=76 velocity=64 time=7\n",
      "note_on channel=0 note=76 velocity=0 time=113\n",
      "note_on channel=0 note=72 velocity=64 time=7\n",
      "note_on channel=0 note=72 velocity=0 time=113\n",
      "note_on channel=0 note=70 velocity=64 time=7\n",
      "note_on channel=0 note=70 velocity=0 time=113\n",
      "note_on channel=0 note=79 velocity=64 time=7\n",
      "note_on channel=0 note=79 velocity=0 time=113\n",
      "note_on channel=0 note=76 velocity=64 time=7\n",
      "note_on channel=0 note=76 velocity=0 time=113\n",
      "note_on channel=0 note=72 velocity=64 time=7\n",
      "note_on channel=0 note=72 velocity=0 time=113\n",
      "note_on channel=0 note=70 velocity=64 time=7\n",
      "note_on channel=0 note=70 velocity=0 time=113\n",
      "note_on channel=0 note=58 velocity=64 time=487\n",
      "note_on channel=0 note=58 velocity=0 time=113\n",
      "note_on channel=0 note=55 velocity=64 time=7\n",
      "note_on channel=0 note=55 velocity=0 time=113\n",
      "note_on channel=0 note=52 velocity=64 time=7\n",
      "note_on channel=0 note=52 velocity=0 time=113\n",
      "note_on channel=0 note=48 velocity=64 time=7\n",
      "note_on channel=0 note=48 velocity=0 time=113\n",
      "note_on channel=0 note=58 velocity=64 time=7\n",
      "note_on channel=0 note=58 velocity=0 time=113\n",
      "note_on channel=0 note=55 velocity=64 time=7\n",
      "note_on channel=0 note=55 velocity=0 time=113\n",
      "note_on channel=0 note=52 velocity=64 time=7\n",
      "note_on channel=0 note=52 velocity=0 time=113\n",
      "note_on channel=0 note=48 velocity=64 time=7\n",
      "note_on channel=0 note=48 velocity=0 time=113\n",
      "note_on channel=0 note=51 velocity=96 time=7\n",
      "note_on channel=0 note=54 velocity=96 time=0\n",
      "control_change channel=0 control=64 value=0 time=1\n",
      "note_on channel=0 note=51 velocity=0 time=226\n",
      "note_on channel=0 note=54 velocity=0 time=0\n",
      "note_on channel=0 note=51 velocity=96 time=733\n",
      "note_on channel=0 note=54 velocity=96 time=0\n",
      "note_on channel=0 note=51 velocity=0 time=227\n",
      "note_on channel=0 note=54 velocity=0 time=0\n",
      "note_on channel=0 note=54 velocity=96 time=253\n",
      "note_on channel=0 note=57 velocity=96 time=0\n",
      "note_on channel=0 note=54 velocity=0 time=119\n",
      "note_on channel=0 note=57 velocity=0 time=0\n",
      "note_on channel=0 note=57 velocity=96 time=121\n",
      "note_on channel=0 note=60 velocity=96 time=0\n",
      "note_on channel=0 note=57 velocity=0 time=119\n",
      "note_on channel=0 note=60 velocity=0 time=0\n",
      "note_on channel=0 note=60 velocity=96 time=121\n",
      "note_on channel=0 note=63 velocity=96 time=0\n",
      "note_on channel=0 note=60 velocity=0 time=227\n",
      "note_on channel=0 note=63 velocity=0 time=0\n",
      "note_on channel=0 note=63 velocity=96 time=733\n",
      "note_on channel=0 note=66 velocity=96 time=0\n",
      "note_on channel=0 note=63 velocity=0 time=227\n",
      "note_on channel=0 note=66 velocity=0 time=0\n",
      "note_on channel=0 note=66 velocity=96 time=253\n",
      "note_on channel=0 note=69 velocity=96 time=0\n",
      "note_on channel=0 note=66 velocity=0 time=119\n",
      "note_on channel=0 note=69 velocity=0 time=0\n",
      "note_on channel=0 note=69 velocity=96 time=121\n",
      "note_on channel=0 note=72 velocity=96 time=0\n",
      "note_on channel=0 note=69 velocity=0 time=119\n",
      "note_on channel=0 note=72 velocity=0 time=0\n",
      "note_on channel=0 note=72 velocity=55 time=121\n",
      "note_on channel=0 note=75 velocity=55 time=0\n",
      "note_on channel=0 note=72 velocity=0 time=227\n",
      "note_on channel=0 note=75 velocity=0 time=0\n",
      "note_on channel=0 note=75 velocity=55 time=253\n",
      "note_on channel=0 note=75 velocity=0 time=151\n",
      "note_on channel=0 note=74 velocity=55 time=9\n",
      "note_on channel=0 note=74 velocity=0 time=151\n",
      "note_on channel=0 note=75 velocity=55 time=9\n",
      "note_on channel=0 note=75 velocity=0 time=151\n",
      "note_on channel=0 note=74 velocity=55 time=9\n",
      "note_on channel=0 note=74 velocity=0 time=151\n",
      "note_on channel=0 note=71 velocity=55 time=9\n",
      "note_on channel=0 note=71 velocity=0 time=151\n",
      "note_on channel=0 note=72 velocity=55 time=9\n",
      "note_on channel=0 note=72 velocity=0 time=151\n",
      "note_on channel=0 note=69 velocity=55 time=9\n",
      "note_on channel=0 note=69 velocity=0 time=151\n",
      "note_on channel=0 note=68 velocity=55 time=9\n",
      "note_on channel=0 note=68 velocity=0 time=151\n",
      "note_on channel=0 note=69 velocity=55 time=9\n",
      "note_on channel=0 note=69 velocity=0 time=151\n",
      "note_on channel=0 note=66 velocity=55 time=9\n",
      "note_on channel=0 note=66 velocity=0 time=151\n",
      "note_on channel=0 note=65 velocity=55 time=9\n",
      "note_on channel=0 note=65 velocity=0 time=151\n",
      "note_on channel=0 note=66 velocity=55 time=9\n",
      "note_on channel=0 note=66 velocity=0 time=151\n",
      "note_on channel=0 note=63 velocity=55 time=9\n",
      "note_on channel=0 note=63 velocity=0 time=151\n",
      "note_on channel=0 note=62 velocity=55 time=9\n",
      "note_on channel=0 note=62 velocity=0 time=151\n",
      "note_on channel=0 note=63 velocity=55 time=9\n",
      "note_on channel=0 note=63 velocity=0 time=151\n",
      "note_on channel=0 note=60 velocity=55 time=9\n",
      "note_on channel=0 note=60 velocity=0 time=151\n",
      "note_on channel=0 note=59 velocity=55 time=9\n",
      "note_on channel=0 note=59 velocity=0 time=151\n",
      "note_on channel=0 note=60 velocity=55 time=9\n",
      "note_on channel=0 note=60 velocity=0 time=151\n",
      "note_on channel=0 note=57 velocity=55 time=9\n",
      "note_on channel=0 note=57 velocity=0 time=151\n",
      "note_on channel=0 note=56 velocity=55 time=9\n",
      "note_on channel=0 note=56 velocity=0 time=151\n",
      "note_on channel=0 note=57 velocity=55 time=9\n",
      "note_on channel=0 note=57 velocity=0 time=151\n",
      "note_on channel=0 note=74 velocity=55 time=489\n",
      "note_on channel=0 note=74 velocity=0 time=151\n",
      "note_on channel=0 note=73 velocity=55 time=9\n",
      "note_on channel=0 note=73 velocity=0 time=151\n",
      "note_on channel=0 note=74 velocity=55 time=9\n",
      "note_on channel=0 note=74 velocity=0 time=151\n",
      "note_on channel=0 note=70 velocity=55 time=9\n",
      "note_on channel=0 note=70 velocity=0 time=151\n",
      "note_on channel=0 note=69 velocity=55 time=9\n",
      "note_on channel=0 note=69 velocity=0 time=151\n",
      "note_on channel=0 note=70 velocity=55 time=9\n",
      "note_on channel=0 note=70 velocity=0 time=151\n",
      "note_on channel=0 note=67 velocity=55 time=9\n",
      "note_on channel=0 note=67 velocity=0 time=151\n",
      "note_on channel=0 note=66 velocity=55 time=9\n",
      "note_on channel=0 note=66 velocity=0 time=151\n",
      "note_on channel=0 note=67 velocity=55 time=9\n",
      "note_on channel=0 note=67 velocity=0 time=151\n",
      "note_on channel=0 note=62 velocity=55 time=9\n",
      "note_on channel=0 note=62 velocity=0 time=151\n",
      "note_on channel=0 note=61 velocity=55 time=9\n",
      "note_on channel=0 note=61 velocity=0 time=151\n",
      "note_on channel=0 note=62 velocity=55 time=9\n",
      "note_on channel=0 note=62 velocity=0 time=151\n",
      "note_on channel=0 note=58 velocity=55 time=9\n",
      "note_on channel=0 note=58 velocity=0 time=151\n",
      "note_on channel=0 note=57 velocity=55 time=9\n",
      "note_on channel=0 note=57 velocity=0 time=151\n",
      "note_on channel=0 note=58 velocity=55 time=9\n",
      "note_on channel=0 note=58 velocity=0 time=151\n",
      "note_on channel=0 note=55 velocity=55 time=9\n",
      "note_on channel=0 note=55 velocity=0 time=151\n",
      "note_on channel=0 note=54 velocity=55 time=9\n",
      "note_on channel=0 note=54 velocity=0 time=151\n",
      "note_on channel=0 note=55 velocity=55 time=9\n",
      "note_on channel=0 note=55 velocity=0 time=151\n",
      "note_on channel=0 note=55 velocity=55 time=9\n",
      "note_on channel=0 note=58 velocity=55 time=0\n",
      "note_on channel=0 note=50 velocity=55 time=0\n",
      "note_on channel=0 note=55 velocity=0 time=151\n",
      "note_on channel=0 note=58 velocity=0 time=0\n",
      "note_on channel=0 note=50 velocity=0 time=0\n",
      "note_on channel=0 note=54 velocity=55 time=9\n",
      "note_on channel=0 note=57 velocity=55 time=0\n",
      "note_on channel=0 note=48 velocity=55 time=0\n",
      "note_on channel=0 note=54 velocity=0 time=151\n",
      "note_on channel=0 note=57 velocity=0 time=0\n",
      "note_on channel=0 note=48 velocity=0 time=0\n",
      "note_on channel=0 note=55 velocity=55 time=9\n",
      "note_on channel=0 note=58 velocity=55 time=0\n",
      "note_on channel=0 note=50 velocity=55 time=0\n",
      "note_on channel=0 note=55 velocity=0 time=151\n",
      "note_on channel=0 note=58 velocity=0 time=0\n",
      "note_on channel=0 note=50 velocity=0 time=0\n",
      "note_on channel=0 note=80 velocity=55 time=489\n",
      "note_on channel=0 note=80 velocity=0 time=151\n",
      "note_on channel=0 note=79 velocity=55 time=9\n",
      "note_on channel=0 note=79 velocity=0 time=151\n",
      "note_on channel=0 note=80 velocity=55 time=9\n",
      "note_on channel=0 note=80 velocity=0 time=151\n",
      "note_on channel=0 note=77 velocity=55 time=9\n",
      "note_on channel=0 note=77 velocity=0 time=151\n",
      "note_on channel=0 note=76 velocity=55 time=9\n",
      "note_on channel=0 note=76 velocity=0 time=151\n",
      "note_on channel=0 note=77 velocity=55 time=9\n",
      "note_on channel=0 note=77 velocity=0 time=151\n",
      "note_on channel=0 note=74 velocity=55 time=9\n",
      "note_on channel=0 note=74 velocity=0 time=151\n",
      "note_on channel=0 note=73 velocity=55 time=9\n",
      "note_on channel=0 note=73 velocity=0 time=151\n",
      "note_on channel=0 note=74 velocity=55 time=9\n",
      "note_on channel=0 note=74 velocity=0 time=151\n",
      "note_on channel=0 note=71 velocity=55 time=9\n",
      "note_on channel=0 note=71 velocity=0 time=151\n",
      "note_on channel=0 note=70 velocity=55 time=9\n",
      "note_on channel=0 note=70 velocity=0 time=151\n",
      "note_on channel=0 note=71 velocity=55 time=9\n",
      "note_on channel=0 note=71 velocity=0 time=151\n",
      "note_on channel=0 note=68 velocity=55 time=9\n",
      "note_on channel=0 note=68 velocity=0 time=151\n",
      "note_on channel=0 note=67 velocity=55 time=9\n",
      "note_on channel=0 note=67 velocity=0 time=151\n",
      "note_on channel=0 note=68 velocity=55 time=9\n",
      "note_on channel=0 note=68 velocity=0 time=151\n",
      "note_on channel=0 note=65 velocity=55 time=9\n",
      "note_on channel=0 note=65 velocity=0 time=151\n",
      "note_on channel=0 note=64 velocity=55 time=9\n",
      "note_on channel=0 note=64 velocity=0 time=151\n",
      "note_on channel=0 note=65 velocity=55 time=9\n",
      "note_on channel=0 note=65 velocity=0 time=151\n",
      "note_on channel=0 note=62 velocity=55 time=9\n",
      "note_on channel=0 note=62 velocity=0 time=151\n",
      "note_on channel=0 note=61 velocity=55 time=9\n",
      "note_on channel=0 note=61 velocity=0 time=151\n",
      "note_on channel=0 note=62 velocity=55 time=9\n",
      "note_on channel=0 note=62 velocity=0 time=151\n",
      "note_on channel=0 note=79 velocity=55 time=489\n",
      "note_on channel=0 note=79 velocity=0 time=151\n",
      "note_on channel=0 note=78 velocity=55 time=9\n",
      "note_on channel=0 note=78 velocity=0 time=151\n",
      "note_on channel=0 note=79 velocity=55 time=9\n",
      "note_on channel=0 note=79 velocity=0 time=151\n",
      "note_on channel=0 note=75 velocity=55 time=9\n",
      "note_on channel=0 note=75 velocity=0 time=151\n",
      "note_on channel=0 note=74 velocity=55 time=9\n",
      "note_on channel=0 note=74 velocity=0 time=151\n",
      "note_on channel=0 note=75 velocity=55 time=9\n",
      "note_on channel=0 note=75 velocity=0 time=151\n",
      "note_on channel=0 note=72 velocity=55 time=9\n",
      "note_on channel=0 note=72 velocity=0 time=151\n",
      "note_on channel=0 note=71 velocity=55 time=9\n",
      "note_on channel=0 note=71 velocity=0 time=151\n",
      "note_on channel=0 note=72 velocity=55 time=9\n",
      "note_on channel=0 note=72 velocity=0 time=151\n",
      "note_on channel=0 note=67 velocity=55 time=9\n",
      "note_on channel=0 note=67 velocity=0 time=151\n",
      "note_on channel=0 note=65 velocity=55 time=9\n",
      "note_on channel=0 note=65 velocity=0 time=151\n",
      "note_on channel=0 note=67 velocity=55 time=9\n",
      "note_on channel=0 note=67 velocity=0 time=151\n",
      "note_on channel=0 note=63 velocity=55 time=9\n",
      "note_on channel=0 note=63 velocity=0 time=151\n",
      "note_on channel=0 note=62 velocity=55 time=9\n",
      "note_on channel=0 note=62 velocity=0 time=151\n",
      "note_on channel=0 note=63 velocity=55 time=9\n",
      "note_on channel=0 note=63 velocity=0 time=151\n",
      "note_on channel=0 note=60 velocity=55 time=9\n",
      "note_on channel=0 note=60 velocity=0 time=151\n",
      "note_on channel=0 note=59 velocity=55 time=9\n",
      "note_on channel=0 note=59 velocity=0 time=151\n",
      "note_on channel=0 note=60 velocity=55 time=9\n",
      "note_on channel=0 note=60 velocity=0 time=151\n",
      "note_on channel=0 note=55 velocity=55 time=9\n",
      "note_on channel=0 note=55 velocity=0 time=151\n",
      "note_on channel=0 note=53 velocity=55 time=9\n",
      "note_on channel=0 note=53 velocity=0 time=151\n",
      "note_on channel=0 note=55 velocity=55 time=9\n",
      "note_on channel=0 note=55 velocity=0 time=151\n",
      "note_on channel=0 note=79 velocity=55 time=489\n",
      "note_on channel=0 note=79 velocity=0 time=151\n",
      "note_on channel=0 note=78 velocity=55 time=9\n",
      "note_on channel=0 note=78 velocity=0 time=151\n",
      "note_on channel=0 note=79 velocity=55 time=9\n",
      "note_on channel=0 note=79 velocity=0 time=151\n",
      "note_on channel=0 note=76 velocity=55 time=9\n",
      "note_on channel=0 note=76 velocity=0 time=151\n",
      "note_on channel=0 note=75 velocity=55 time=9\n",
      "note_on channel=0 note=75 velocity=0 time=151\n",
      "note_on channel=0 note=76 velocity=55 time=9\n",
      "note_on channel=0 note=76 velocity=0 time=151\n",
      "note_on channel=0 note=73 velocity=55 time=9\n",
      "note_on channel=0 note=73 velocity=0 time=151\n",
      "note_on channel=0 note=72 velocity=55 time=9\n",
      "note_on channel=0 note=72 velocity=0 time=151\n",
      "note_on channel=0 note=73 velocity=55 time=9\n",
      "note_on channel=0 note=73 velocity=0 time=151\n",
      "note_on channel=0 note=67 velocity=55 time=9\n",
      "note_on channel=0 note=67 velocity=0 time=151\n",
      "note_on channel=0 note=66 velocity=55 time=9\n",
      "note_on channel=0 note=66 velocity=0 time=151\n",
      "note_on channel=0 note=67 velocity=55 time=9\n",
      "note_on channel=0 note=67 velocity=0 time=151\n",
      "note_on channel=0 note=64 velocity=55 time=9\n",
      "note_on channel=0 note=64 velocity=0 time=151\n",
      "note_on channel=0 note=63 velocity=55 time=9\n",
      "note_on channel=0 note=63 velocity=0 time=151\n",
      "note_on channel=0 note=64 velocity=55 time=9\n",
      "note_on channel=0 note=64 velocity=0 time=151\n",
      "note_on channel=0 note=61 velocity=55 time=9\n",
      "note_on channel=0 note=61 velocity=0 time=151\n",
      "note_on channel=0 note=60 velocity=55 time=9\n",
      "note_on channel=0 note=60 velocity=0 time=151\n",
      "note_on channel=0 note=61 velocity=55 time=9\n",
      "note_on channel=0 note=61 velocity=0 time=151\n",
      "note_on channel=0 note=55 velocity=55 time=9\n",
      "note_on channel=0 note=55 velocity=0 time=151\n",
      "note_on channel=0 note=54 velocity=55 time=9\n",
      "note_on channel=0 note=54 velocity=0 time=151\n",
      "note_on channel=0 note=55 velocity=55 time=9\n",
      "note_on channel=0 note=55 velocity=0 time=151\n",
      "note_on channel=0 note=50 velocity=90 time=9\n",
      "control_change channel=0 control=64 value=127 time=2\n",
      "note_on channel=0 note=50 velocity=0 time=225\n",
      "note_on channel=0 note=63 velocity=90 time=13\n",
      "note_on channel=0 note=63 velocity=0 time=227\n",
      "note_on channel=0 note=50 velocity=90 time=13\n",
      "note_on channel=0 note=50 velocity=0 time=227\n",
      "note_on channel=0 note=63 velocity=90 time=13\n",
      "note_on channel=0 note=63 velocity=0 time=227\n",
      "note_on channel=0 note=50 velocity=90 time=13\n",
      "control_change channel=0 control=64 value=0 time=1\n",
      "control_change channel=0 control=64 value=127 time=1\n",
      "note_on channel=0 note=50 velocity=0 time=225\n",
      "note_on channel=0 note=63 velocity=90 time=13\n",
      "note_on channel=0 note=63 velocity=0 time=227\n",
      "note_on channel=0 note=50 velocity=90 time=13\n",
      "note_on channel=0 note=50 velocity=0 time=227\n",
      "note_on channel=0 note=63 velocity=90 time=13\n",
      "note_on channel=0 note=63 velocity=0 time=227\n",
      "note_on channel=0 note=50 velocity=90 time=13\n",
      "control_change channel=0 control=64 value=0 time=1\n",
      "control_change channel=0 control=64 value=127 time=1\n",
      "note_on channel=0 note=50 velocity=0 time=225\n",
      "note_on channel=0 note=62 velocity=90 time=13\n",
      "note_on channel=0 note=62 velocity=0 time=227\n",
      "note_on channel=0 note=63 velocity=90 time=13\n",
      "note_on channel=0 note=63 velocity=0 time=227\n",
      "note_on channel=0 note=64 velocity=90 time=13\n",
      "note_on channel=0 note=64 velocity=0 time=227\n",
      "note_on channel=0 note=65 velocity=90 time=13\n",
      "control_change channel=0 control=64 value=0 time=1\n",
      "control_change channel=0 control=64 value=127 time=1\n",
      "note_on channel=0 note=65 velocity=0 time=225\n",
      "note_on channel=0 note=66 velocity=90 time=13\n",
      "note_on channel=0 note=66 velocity=0 time=227\n",
      "note_on channel=0 note=67 velocity=90 time=13\n",
      "note_on channel=0 note=67 velocity=0 time=120\n",
      "note_on channel=0 note=61 velocity=90 time=120\n",
      "note_on channel=0 note=61 velocity=0 time=227\n",
      "note_on channel=0 note=50 velocity=90 time=13\n",
      "control_change channel=0 control=64 value=0 time=1\n",
      "control_change channel=0 control=64 value=127 time=1\n",
      "note_on channel=0 note=50 velocity=0 time=225\n",
      "note_on channel=0 note=63 velocity=90 time=13\n",
      "note_on channel=0 note=63 velocity=0 time=227\n",
      "note_on channel=0 note=50 velocity=90 time=13\n",
      "note_on channel=0 note=50 velocity=0 time=227\n",
      "note_on channel=0 note=63 velocity=90 time=13\n",
      "note_on channel=0 note=63 velocity=0 time=227\n",
      "note_on channel=0 note=50 velocity=90 time=13\n",
      "control_change channel=0 control=64 value=0 time=1\n",
      "control_change channel=0 control=64 value=127 time=1\n",
      "note_on channel=0 note=50 velocity=0 time=225\n",
      "note_on channel=0 note=63 velocity=90 time=13\n",
      "note_on channel=0 note=63 velocity=0 time=227\n",
      "note_on channel=0 note=50 velocity=90 time=13\n",
      "note_on channel=0 note=50 velocity=0 time=227\n",
      "note_on channel=0 note=63 velocity=90 time=13\n",
      "note_on channel=0 note=63 velocity=0 time=227\n",
      "note_on channel=0 note=50 velocity=90 time=13\n",
      "control_change channel=0 control=64 value=0 time=1\n",
      "control_change channel=0 control=64 value=127 time=1\n",
      "note_on channel=0 note=50 velocity=0 time=225\n",
      "note_on channel=0 note=62 velocity=90 time=13\n",
      "note_on channel=0 note=62 velocity=0 time=227\n",
      "note_on channel=0 note=63 velocity=90 time=13\n",
      "note_on channel=0 note=63 velocity=0 time=227\n",
      "note_on channel=0 note=64 velocity=90 time=13\n",
      "note_on channel=0 note=64 velocity=0 time=227\n",
      "note_on channel=0 note=65 velocity=90 time=13\n",
      "control_change channel=0 control=64 value=0 time=1\n",
      "control_change channel=0 control=64 value=127 time=1\n",
      "note_on channel=0 note=65 velocity=0 time=225\n",
      "note_on channel=0 note=66 velocity=90 time=13\n",
      "note_on channel=0 note=66 velocity=0 time=227\n",
      "note_on channel=0 note=67 velocity=90 time=13\n",
      "note_on channel=0 note=67 velocity=0 time=120\n",
      "note_on channel=0 note=61 velocity=90 time=120\n",
      "note_on channel=0 note=61 velocity=0 time=227\n",
      "note_on channel=0 note=50 velocity=90 time=13\n",
      "control_change channel=0 control=64 value=0 time=1\n",
      "control_change channel=0 control=64 value=127 time=1\n",
      "note_on channel=0 note=50 velocity=0 time=111\n",
      "note_on channel=0 note=62 velocity=90 time=7\n",
      "note_on channel=0 note=62 velocity=0 time=113\n",
      "note_on channel=0 note=49 velocity=90 time=7\n",
      "note_on channel=0 note=49 velocity=0 time=113\n",
      "note_on channel=0 note=61 velocity=90 time=7\n",
      "note_on channel=0 note=61 velocity=0 time=113\n",
      "note_on channel=0 note=50 velocity=90 time=7\n",
      "control_change channel=0 control=64 value=0 time=1\n",
      "control_change channel=0 control=64 value=127 time=1\n",
      "note_on channel=0 note=50 velocity=0 time=111\n",
      "note_on channel=0 note=62 velocity=90 time=7\n",
      "note_on channel=0 note=62 velocity=0 time=113\n",
      "note_on channel=0 note=49 velocity=90 time=7\n",
      "note_on channel=0 note=49 velocity=0 time=113\n",
      "note_on channel=0 note=61 velocity=90 time=7\n",
      "note_on channel=0 note=61 velocity=0 time=113\n",
      "note_on channel=0 note=50 velocity=90 time=7\n",
      "control_change channel=0 control=64 value=0 time=1\n",
      "control_change channel=0 control=64 value=127 time=1\n",
      "note_on channel=0 note=50 velocity=0 time=111\n",
      "note_on channel=0 note=62 velocity=90 time=7\n",
      "note_on channel=0 note=62 velocity=0 time=113\n",
      "note_on channel=0 note=49 velocity=90 time=7\n",
      "note_on channel=0 note=49 velocity=0 time=113\n",
      "note_on channel=0 note=61 velocity=90 time=7\n",
      "note_on channel=0 note=61 velocity=0 time=113\n",
      "note_on channel=0 note=50 velocity=90 time=7\n",
      "control_change channel=0 control=64 value=0 time=1\n",
      "control_change channel=0 control=64 value=127 time=1\n",
      "note_on channel=0 note=50 velocity=0 time=111\n",
      "note_on channel=0 note=62 velocity=90 time=7\n",
      "note_on channel=0 note=62 velocity=0 time=113\n",
      "note_on channel=0 note=51 velocity=106 time=7\n",
      "note_on channel=0 note=51 velocity=0 time=113\n",
      "note_on channel=0 note=63 velocity=90 time=7\n",
      "note_on channel=0 note=63 velocity=0 time=113\n",
      "note_on channel=0 note=52 velocity=90 time=7\n",
      "control_change channel=0 control=64 value=0 time=1\n",
      "control_change channel=0 control=64 value=127 time=1\n",
      "note_on channel=0 note=52 velocity=0 time=111\n",
      "note_on channel=0 note=64 velocity=90 time=7\n",
      "note_on channel=0 note=64 velocity=0 time=113\n",
      "note_on channel=0 note=51 velocity=90 time=7\n",
      "note_on channel=0 note=51 velocity=0 time=113\n",
      "note_on channel=0 note=63 velocity=90 time=7\n",
      "note_on channel=0 note=63 velocity=0 time=113\n",
      "note_on channel=0 note=52 velocity=90 time=7\n",
      "control_change channel=0 control=64 value=0 time=1\n",
      "control_change channel=0 control=64 value=127 time=1\n",
      "note_on channel=0 note=52 velocity=0 time=111\n",
      "note_on channel=0 note=64 velocity=90 time=7\n",
      "note_on channel=0 note=64 velocity=0 time=113\n",
      "note_on channel=0 note=53 velocity=106 time=7\n",
      "note_on channel=0 note=53 velocity=0 time=113\n",
      "note_on channel=0 note=65 velocity=90 time=7\n",
      "note_on channel=0 note=65 velocity=0 time=113\n",
      "note_on channel=0 note=54 velocity=90 time=7\n",
      "control_change channel=0 control=64 value=0 time=1\n",
      "control_change channel=0 control=64 value=127 time=1\n",
      "note_on channel=0 note=54 velocity=0 time=111\n",
      "note_on channel=0 note=66 velocity=90 time=7\n",
      "note_on channel=0 note=66 velocity=0 time=113\n",
      "note_on channel=0 note=54 velocity=106 time=7\n",
      "note_on channel=0 note=54 velocity=0 time=113\n",
      "note_on channel=0 note=66 velocity=90 time=7\n",
      "note_on channel=0 note=66 velocity=0 time=113\n",
      "note_on channel=0 note=55 velocity=90 time=7\n",
      "control_change channel=0 control=64 value=0 time=1\n",
      "control_change channel=0 control=64 value=127 time=1\n",
      "note_on channel=0 note=55 velocity=0 time=111\n",
      "note_on channel=0 note=67 velocity=90 time=7\n",
      "note_on channel=0 note=67 velocity=0 time=113\n",
      "note_on channel=0 note=56 velocity=106 time=7\n",
      "note_on channel=0 note=56 velocity=0 time=113\n",
      "note_on channel=0 note=68 velocity=90 time=7\n",
      "note_on channel=0 note=68 velocity=0 time=113\n",
      "note_on channel=0 note=57 velocity=90 time=7\n",
      "control_change channel=0 control=64 value=0 time=1\n",
      "control_change channel=0 control=64 value=127 time=1\n",
      "note_on channel=0 note=57 velocity=0 time=111\n",
      "note_on channel=0 note=69 velocity=106 time=7\n",
      "note_on channel=0 note=69 velocity=0 time=113\n",
      "note_on channel=0 note=58 velocity=90 time=7\n",
      "note_on channel=0 note=58 velocity=0 time=113\n",
      "note_on channel=0 note=70 velocity=90 time=7\n",
      "note_on channel=0 note=70 velocity=0 time=113\n",
      "note_on channel=0 note=59 velocity=90 time=7\n",
      "control_change channel=0 control=64 value=0 time=1\n",
      "control_change channel=0 control=64 value=127 time=1\n",
      "note_on channel=0 note=59 velocity=0 time=111\n",
      "note_on channel=0 note=71 velocity=90 time=7\n",
      "note_on channel=0 note=71 velocity=0 time=113\n",
      "note_on channel=0 note=59 velocity=106 time=7\n",
      "note_on channel=0 note=59 velocity=0 time=113\n",
      "note_on channel=0 note=71 velocity=90 time=7\n",
      "note_on channel=0 note=71 velocity=0 time=113\n",
      "note_on channel=0 note=60 velocity=90 time=7\n",
      "control_change channel=0 control=64 value=0 time=1\n",
      "control_change channel=0 control=64 value=127 time=1\n",
      "note_on channel=0 note=60 velocity=0 time=111\n",
      "note_on channel=0 note=72 velocity=90 time=7\n",
      "note_on channel=0 note=72 velocity=0 time=113\n",
      "note_on channel=0 note=61 velocity=90 time=7\n",
      "note_on channel=0 note=61 velocity=0 time=113\n",
      "note_on channel=0 note=73 velocity=90 time=7\n",
      "note_on channel=0 note=73 velocity=0 time=113\n",
      "note_on channel=0 note=62 velocity=90 time=7\n",
      "control_change channel=0 control=64 value=0 time=1\n",
      "control_change channel=0 control=64 value=127 time=1\n",
      "note_on channel=0 note=62 velocity=0 time=111\n",
      "note_on channel=0 note=74 velocity=90 time=7\n",
      "note_on channel=0 note=74 velocity=0 time=113\n",
      "note_on channel=0 note=61 velocity=90 time=7\n",
      "note_on channel=0 note=61 velocity=0 time=113\n",
      "note_on channel=0 note=73 velocity=90 time=7\n",
      "note_on channel=0 note=73 velocity=0 time=113\n",
      "note_on channel=0 note=62 velocity=90 time=7\n",
      "control_change channel=0 control=64 value=0 time=1\n",
      "control_change channel=0 control=64 value=127 time=1\n",
      "note_on channel=0 note=62 velocity=0 time=111\n",
      "note_on channel=0 note=74 velocity=85 time=7\n",
      "note_on channel=0 note=74 velocity=0 time=113\n",
      "note_on channel=0 note=61 velocity=80 time=7\n",
      "note_on channel=0 note=61 velocity=0 time=113\n",
      "note_on channel=0 note=73 velocity=75 time=7\n",
      "note_on channel=0 note=73 velocity=0 time=113\n",
      "note_on channel=0 note=62 velocity=70 time=7\n",
      "control_change channel=0 control=64 value=0 time=1\n",
      "control_change channel=0 control=64 value=127 time=1\n",
      "note_on channel=0 note=62 velocity=0 time=111\n",
      "note_on channel=0 note=74 velocity=65 time=7\n",
      "note_on channel=0 note=74 velocity=0 time=113\n",
      "note_on channel=0 note=61 velocity=60 time=7\n",
      "note_on channel=0 note=61 velocity=0 time=113\n",
      "note_on channel=0 note=73 velocity=55 time=7\n",
      "note_on channel=0 note=73 velocity=0 time=113\n",
      "note_on channel=0 note=62 velocity=49 time=7\n",
      "note_on channel=0 note=74 velocity=49 time=0\n",
      "control_change channel=0 control=64 value=0 time=1\n",
      "control_change channel=0 control=64 value=127 time=1\n",
      "note_on channel=0 note=62 velocity=0 time=453\n",
      "note_on channel=0 note=74 velocity=0 time=0\n",
      "note_on channel=0 note=62 velocity=49 time=25\n",
      "note_on channel=0 note=66 velocity=49 time=0\n",
      "note_on channel=0 note=69 velocity=49 time=0\n",
      "note_on channel=0 note=62 velocity=0 time=455\n",
      "note_on channel=0 note=66 velocity=0 time=0\n",
      "note_on channel=0 note=69 velocity=0 time=0\n",
      "note_on channel=0 note=62 velocity=49 time=25\n",
      "note_on channel=0 note=67 velocity=49 time=0\n",
      "note_on channel=0 note=70 velocity=49 time=0\n",
      "control_change channel=0 control=64 value=0 time=1\n",
      "control_change channel=0 control=64 value=127 time=1\n",
      "note_on channel=0 note=62 velocity=0 time=453\n",
      "note_on channel=0 note=67 velocity=0 time=0\n",
      "note_on channel=0 note=70 velocity=0 time=0\n",
      "control_change channel=0 control=64 value=0 time=506\n",
      "control_change channel=0 control=64 value=127 time=1\n",
      "note_on channel=0 note=62 velocity=49 time=478\n",
      "note_on channel=0 note=66 velocity=49 time=0\n",
      "note_on channel=0 note=69 velocity=49 time=0\n",
      "note_on channel=0 note=62 velocity=0 time=455\n",
      "note_on channel=0 note=66 velocity=0 time=0\n",
      "note_on channel=0 note=69 velocity=0 time=0\n",
      "note_on channel=0 note=62 velocity=49 time=25\n",
      "note_on channel=0 note=67 velocity=49 time=0\n",
      "note_on channel=0 note=70 velocity=49 time=0\n",
      "control_change channel=0 control=64 value=0 time=1\n",
      "control_change channel=0 control=64 value=127 time=1\n",
      "note_on channel=0 note=62 velocity=0 time=453\n",
      "note_on channel=0 note=67 velocity=0 time=0\n",
      "note_on channel=0 note=70 velocity=0 time=0\n",
      "control_change channel=0 control=64 value=0 time=506\n",
      "control_change channel=0 control=64 value=127 time=1\n",
      "note_on channel=0 note=62 velocity=49 time=478\n",
      "note_on channel=0 note=66 velocity=49 time=0\n",
      "note_on channel=0 note=69 velocity=49 time=0\n",
      "note_on channel=0 note=62 velocity=0 time=455\n",
      "note_on channel=0 note=66 velocity=0 time=0\n",
      "note_on channel=0 note=69 velocity=0 time=0\n",
      "control_change channel=0 control=64 value=0 time=26\n",
      "control_change channel=0 control=64 value=127 time=1\n",
      "note_on channel=0 note=62 velocity=49 time=478\n",
      "note_on channel=0 note=67 velocity=49 time=0\n",
      "note_on channel=0 note=71 velocity=49 time=0\n",
      "note_on channel=0 note=62 velocity=0 time=455\n",
      "note_on channel=0 note=67 velocity=0 time=0\n",
      "note_on channel=0 note=71 velocity=0 time=0\n",
      "control_change channel=0 control=64 value=0 time=26\n",
      "control_change channel=0 control=64 value=127 time=1\n",
      "note_on channel=0 note=62 velocity=49 time=478\n",
      "note_on channel=0 note=69 velocity=49 time=0\n",
      "note_on channel=0 note=72 velocity=49 time=0\n",
      "note_on channel=0 note=62 velocity=0 time=455\n",
      "note_on channel=0 note=69 velocity=0 time=0\n",
      "note_on channel=0 note=72 velocity=0 time=0\n",
      "control_change channel=0 control=64 value=0 time=26\n",
      "control_change channel=0 control=64 value=127 time=1\n",
      "control_change channel=0 control=64 value=0 time=959\n",
      "control_change channel=0 control=64 value=127 time=1\n",
      "note_on channel=0 note=62 velocity=49 time=478\n",
      "note_on channel=0 note=70 velocity=49 time=0\n",
      "note_on channel=0 note=73 velocity=49 time=0\n",
      "note_on channel=0 note=62 velocity=0 time=455\n",
      "note_on channel=0 note=70 velocity=0 time=0\n",
      "note_on channel=0 note=73 velocity=0 time=0\n",
      "control_change channel=0 control=64 value=0 time=26\n",
      "control_change channel=0 control=64 value=127 time=1\n",
      "control_change channel=0 control=64 value=0 time=959\n",
      "control_change channel=0 control=64 value=127 time=1\n",
      "control_change channel=0 control=64 value=0 time=959\n",
      "control_change channel=0 control=64 value=127 time=1\n",
      "note_on channel=0 note=31 velocity=33 time=958\n",
      "control_change channel=0 control=64 value=0 time=1\n",
      "control_change channel=0 control=64 value=127 time=1\n",
      "note_on channel=0 note=31 velocity=0 time=225\n",
      "note_on channel=0 note=55 velocity=40 time=253\n",
      "note_on channel=0 note=55 velocity=0 time=455\n",
      "note_on channel=0 note=59 velocity=40 time=25\n",
      "note_on channel=0 note=59 velocity=0 time=455\n",
      "note_on channel=0 note=62 velocity=40 time=25\n",
      "note_on channel=0 note=62 velocity=0 time=455\n",
      "note_on channel=0 note=63 velocity=40 time=25\n",
      "note_on channel=0 note=63 velocity=0 time=911\n",
      "note_on channel=0 note=62 velocity=40 time=49\n",
      "note_on channel=0 note=62 velocity=0 time=455\n",
      "note_on channel=0 note=60 velocity=40 time=25\n",
      "note_on channel=0 note=60 velocity=0 time=455\n",
      "note_on channel=0 note=59 velocity=40 time=25\n",
      "control_change channel=0 control=64 value=0 time=1\n",
      "control_change channel=0 control=64 value=127 time=1\n",
      "note_on channel=0 note=59 velocity=0 time=909\n",
      "note_on channel=0 note=57 velocity=40 time=49\n",
      "control_change channel=0 control=64 value=0 time=1\n",
      "control_change channel=0 control=64 value=127 time=1\n",
      "note_on channel=0 note=57 velocity=0 time=453\n",
      "note_on channel=0 note=55 velocity=40 time=25\n",
      "note_on channel=0 note=55 velocity=0 time=455\n",
      "note_on channel=0 note=54 velocity=40 time=25\n",
      "control_change channel=0 control=64 value=0 time=1\n",
      "control_change channel=0 control=64 value=127 time=1\n",
      "note_on channel=0 note=54 velocity=0 time=681\n",
      "note_on channel=0 note=52 velocity=40 time=37\n",
      "note_on channel=0 note=52 velocity=0 time=227\n",
      "note_on channel=0 note=50 velocity=49 time=13\n",
      "control_change channel=0 control=64 value=0 time=1\n",
      "note_on channel=0 note=50 velocity=0 time=226\n",
      "note_on channel=0 note=48 velocity=49 time=13\n",
      "note_on channel=0 note=48 velocity=0 time=227\n",
      "note_on channel=0 note=47 velocity=49 time=13\n",
      "note_on channel=0 note=47 velocity=0 time=227\n",
      "note_on channel=0 note=45 velocity=49 time=13\n",
      "note_on channel=0 note=45 velocity=0 time=227\n",
      "note_on channel=0 note=31 velocity=49 time=493\n",
      "control_change channel=0 control=64 value=127 time=2\n",
      "note_on channel=0 note=31 velocity=0 time=453\n",
      "note_on channel=0 note=43 velocity=40 time=25\n",
      "note_on channel=0 note=43 velocity=0 time=455\n",
      "note_on channel=0 note=45 velocity=33 time=25\n",
      "control_change channel=0 control=64 value=0 time=1\n",
      "control_change channel=0 control=64 value=127 time=1\n",
      "note_on channel=0 note=45 velocity=0 time=453\n",
      "note_on channel=0 note=47 velocity=33 time=25\n",
      "note_on channel=0 note=47 velocity=0 time=455\n",
      "note_on channel=0 note=48 velocity=33 time=25\n",
      "control_change channel=0 control=64 value=0 time=1\n",
      "control_change channel=0 control=64 value=127 time=1\n",
      "note_on channel=0 note=48 velocity=0 time=681\n",
      "note_on channel=0 note=50 velocity=33 time=37\n",
      "note_on channel=0 note=50 velocity=0 time=227\n",
      "note_on channel=0 note=52 velocity=40 time=13\n",
      "control_change channel=0 control=64 value=0 time=1\n",
      "note_on channel=0 note=52 velocity=0 time=226\n",
      "note_on channel=0 note=54 velocity=50 time=13\n",
      "note_on channel=0 note=54 velocity=0 time=227\n",
      "note_on channel=0 note=55 velocity=60 time=13\n",
      "note_on channel=0 note=55 velocity=0 time=227\n",
      "note_on channel=0 note=57 velocity=70 time=13\n",
      "note_on channel=0 note=57 velocity=0 time=227\n",
      "note_on channel=0 note=55 velocity=80 time=13\n",
      "note_on channel=0 note=59 velocity=80 time=0\n",
      "note_on channel=0 note=55 velocity=0 time=239\n",
      "note_on channel=0 note=59 velocity=0 time=0\n",
      "note_on channel=0 note=50 velocity=80 time=241\n",
      "note_on channel=0 note=60 velocity=80 time=0\n",
      "note_on channel=0 note=50 velocity=0 time=227\n",
      "note_on channel=0 note=60 velocity=0 time=0\n",
      "note_on channel=0 note=43 velocity=96 time=16573\n",
      "control_change channel=0 control=64 value=127 time=2\n",
      "note_on channel=0 note=43 velocity=0 time=111\n",
      "note_on channel=0 note=50 velocity=96 time=7\n",
      "note_on channel=0 note=50 velocity=0 time=113\n",
      "note_on channel=0 note=55 velocity=96 time=7\n",
      "note_on channel=0 note=55 velocity=0 time=113\n",
      "note_on channel=0 note=38 velocity=96 time=1567\n",
      "control_change channel=0 control=64 value=0 time=1\n",
      "control_change channel=0 control=64 value=127 time=1\n",
      "note_on channel=0 note=38 velocity=0 time=111\n",
      "note_on channel=0 note=50 velocity=96 time=7\n",
      "note_on channel=0 note=50 velocity=0 time=113\n",
      "note_on channel=0 note=54 velocity=96 time=7\n",
      "note_on channel=0 note=54 velocity=0 time=113\n",
      "note_on channel=0 note=43 velocity=96 time=1567\n",
      "control_change channel=0 control=64 value=0 time=1\n",
      "control_change channel=0 control=64 value=127 time=1\n",
      "note_on channel=0 note=43 velocity=0 time=111\n",
      "note_on channel=0 note=50 velocity=96 time=7\n",
      "note_on channel=0 note=50 velocity=0 time=113\n",
      "note_on channel=0 note=55 velocity=96 time=7\n",
      "note_on channel=0 note=55 velocity=0 time=113\n",
      "note_on channel=0 note=38 velocity=96 time=1567\n",
      "control_change channel=0 control=64 value=0 time=1\n",
      "control_change channel=0 control=64 value=127 time=1\n",
      "note_on channel=0 note=38 velocity=0 time=111\n",
      "note_on channel=0 note=50 velocity=96 time=7\n",
      "note_on channel=0 note=50 velocity=0 time=113\n",
      "note_on channel=0 note=54 velocity=96 time=7\n",
      "note_on channel=0 note=54 velocity=0 time=113\n",
      "note_on channel=0 note=43 velocity=96 time=1567\n",
      "control_change channel=0 control=64 value=0 time=1\n",
      "control_change channel=0 control=64 value=127 time=1\n",
      "note_on channel=0 note=43 velocity=0 time=111\n",
      "note_on channel=0 note=55 velocity=96 time=7\n",
      "note_on channel=0 note=55 velocity=0 time=113\n",
      "note_on channel=0 note=59 velocity=96 time=7\n",
      "note_on channel=0 note=59 velocity=0 time=113\n",
      "note_on channel=0 note=47 velocity=96 time=607\n",
      "control_change channel=0 control=64 value=0 time=1\n",
      "control_change channel=0 control=64 value=127 time=1\n",
      "note_on channel=0 note=47 velocity=0 time=111\n",
      "note_on channel=0 note=59 velocity=96 time=7\n",
      "note_on channel=0 note=59 velocity=0 time=113\n",
      "note_on channel=0 note=63 velocity=96 time=7\n",
      "note_on channel=0 note=63 velocity=0 time=113\n",
      "note_on channel=0 note=52 velocity=80 time=607\n",
      "control_change channel=0 control=64 value=0 time=1\n",
      "control_change channel=0 control=64 value=127 time=1\n",
      "note_on channel=0 note=52 velocity=0 time=111\n",
      "note_on channel=0 note=64 velocity=80 time=7\n",
      "note_on channel=0 note=64 velocity=0 time=113\n",
      "note_on channel=0 note=67 velocity=80 time=7\n",
      "note_on channel=0 note=67 velocity=0 time=113\n",
      "note_on channel=0 note=55 velocity=80 time=127\n",
      "control_change channel=0 control=64 value=0 time=1\n",
      "control_change channel=0 control=64 value=127 time=1\n",
      "note_on channel=0 note=55 velocity=0 time=111\n",
      "note_on channel=0 note=67 velocity=80 time=7\n",
      "note_on channel=0 note=67 velocity=0 time=113\n",
      "note_on channel=0 note=71 velocity=80 time=7\n",
      "note_on channel=0 note=71 velocity=0 time=113\n",
      "note_on channel=0 note=60 velocity=80 time=127\n",
      "control_change channel=0 control=64 value=0 time=1\n",
      "control_change channel=0 control=64 value=127 time=1\n",
      "note_on channel=0 note=60 velocity=0 time=111\n",
      "note_on channel=0 note=72 velocity=79 time=7\n",
      "note_on channel=0 note=72 velocity=0 time=113\n",
      "note_on channel=0 note=76 velocity=78 time=7\n",
      "note_on channel=0 note=76 velocity=0 time=113\n",
      "note_on channel=0 note=52 velocity=75 time=127\n",
      "control_change channel=0 control=64 value=0 time=1\n",
      "control_change channel=0 control=64 value=127 time=1\n",
      "note_on channel=0 note=52 velocity=0 time=111\n",
      "note_on channel=0 note=64 velocity=74 time=7\n",
      "note_on channel=0 note=64 velocity=0 time=113\n",
      "note_on channel=0 note=68 velocity=73 time=7\n",
      "note_on channel=0 note=68 velocity=0 time=113\n",
      "note_on channel=0 note=57 velocity=70 time=127\n",
      "control_change channel=0 control=64 value=0 time=1\n",
      "control_change channel=0 control=64 value=127 time=1\n",
      "note_on channel=0 note=57 velocity=0 time=111\n",
      "note_on channel=0 note=69 velocity=69 time=7\n",
      "note_on channel=0 note=69 velocity=0 time=113\n",
      "note_on channel=0 note=72 velocity=68 time=7\n",
      "note_on channel=0 note=72 velocity=0 time=113\n",
      "note_on channel=0 note=60 velocity=65 time=127\n",
      "control_change channel=0 control=64 value=0 time=1\n",
      "control_change channel=0 control=64 value=127 time=1\n",
      "note_on channel=0 note=60 velocity=0 time=111\n",
      "note_on channel=0 note=64 velocity=64 time=7\n",
      "note_on channel=0 note=64 velocity=0 time=113\n",
      "note_on channel=0 note=69 velocity=62 time=7\n",
      "note_on channel=0 note=69 velocity=0 time=113\n",
      "note_on channel=0 note=62 velocity=60 time=127\n",
      "note_on channel=0 note=66 velocity=60 time=0\n",
      "note_on channel=0 note=69 velocity=60 time=0\n",
      "control_change channel=0 control=64 value=0 time=1\n",
      "control_change channel=0 control=64 value=127 time=1\n",
      "note_on channel=0 note=62 velocity=0 time=225\n",
      "note_on channel=0 note=66 velocity=0 time=0\n",
      "note_on channel=0 note=69 velocity=0 time=0\n",
      "note_on channel=0 note=43 velocity=49 time=733\n",
      "control_change channel=0 control=64 value=0 time=1\n",
      "control_change channel=0 control=64 value=127 time=1\n",
      "note_on channel=0 note=43 velocity=0 time=111\n",
      "note_on channel=0 note=50 velocity=49 time=7\n",
      "note_on channel=0 note=50 velocity=0 time=113\n",
      "note_on channel=0 note=55 velocity=49 time=7\n",
      "note_on channel=0 note=55 velocity=0 time=113\n",
      "note_on channel=0 note=38 velocity=49 time=1567\n",
      "control_change channel=0 control=64 value=0 time=1\n",
      "control_change channel=0 control=64 value=127 time=1\n",
      "note_on channel=0 note=38 velocity=0 time=111\n",
      "note_on channel=0 note=50 velocity=49 time=7\n",
      "note_on channel=0 note=50 velocity=0 time=113\n",
      "note_on channel=0 note=54 velocity=49 time=7\n",
      "note_on channel=0 note=54 velocity=0 time=113\n",
      "note_on channel=0 note=43 velocity=49 time=1567\n",
      "control_change channel=0 control=64 value=0 time=1\n",
      "control_change channel=0 control=64 value=127 time=1\n",
      "note_on channel=0 note=43 velocity=0 time=111\n",
      "note_on channel=0 note=50 velocity=49 time=7\n",
      "note_on channel=0 note=50 velocity=0 time=113\n",
      "note_on channel=0 note=55 velocity=49 time=7\n",
      "note_on channel=0 note=55 velocity=0 time=113\n",
      "note_on channel=0 note=43 velocity=33 time=1567\n",
      "control_change channel=0 control=64 value=0 time=1\n",
      "control_change channel=0 control=64 value=127 time=1\n",
      "note_on channel=0 note=43 velocity=0 time=111\n",
      "note_on channel=0 note=50 velocity=33 time=7\n",
      "note_on channel=0 note=50 velocity=0 time=113\n",
      "note_on channel=0 note=55 velocity=33 time=7\n",
      "note_on channel=0 note=55 velocity=0 time=113\n",
      "note_on channel=0 note=39 velocity=33 time=1567\n",
      "control_change channel=0 control=64 value=0 time=1\n",
      "control_change channel=0 control=64 value=127 time=1\n",
      "note_on channel=0 note=39 velocity=0 time=111\n",
      "note_on channel=0 note=51 velocity=33 time=7\n",
      "note_on channel=0 note=51 velocity=0 time=113\n",
      "note_on channel=0 note=55 velocity=33 time=7\n",
      "note_on channel=0 note=55 velocity=0 time=113\n",
      "note_on channel=0 note=39 velocity=112 time=1567\n",
      "note_on channel=0 note=43 velocity=112 time=0\n",
      "note_on channel=0 note=46 velocity=112 time=0\n",
      "note_on channel=0 note=51 velocity=112 time=0\n",
      "control_change channel=0 control=64 value=0 time=1\n",
      "control_change channel=0 control=64 value=127 time=1\n",
      "note_on channel=0 note=39 velocity=0 time=225\n",
      "note_on channel=0 note=43 velocity=0 time=0\n",
      "note_on channel=0 note=46 velocity=0 time=0\n",
      "note_on channel=0 note=51 velocity=0 time=0\n",
      "note_on channel=0 note=55 velocity=112 time=2653\n",
      "note_on channel=0 note=55 velocity=0 time=151\n",
      "note_on channel=0 note=46 velocity=112 time=9\n",
      "note_on channel=0 note=46 velocity=0 time=151\n",
      "note_on channel=0 note=51 velocity=112 time=9\n",
      "note_on channel=0 note=51 velocity=0 time=151\n",
      "note_on channel=0 note=39 velocity=112 time=9\n",
      "note_on channel=0 note=39 velocity=0 time=151\n",
      "note_on channel=0 note=46 velocity=112 time=9\n",
      "note_on channel=0 note=46 velocity=0 time=151\n",
      "note_on channel=0 note=43 velocity=112 time=9\n",
      "note_on channel=0 note=43 velocity=0 time=151\n",
      "note_on channel=0 note=39 velocity=112 time=9\n",
      "note_on channel=0 note=43 velocity=112 time=0\n",
      "note_on channel=0 note=46 velocity=112 time=0\n",
      "note_on channel=0 note=51 velocity=112 time=0\n",
      "control_change channel=0 control=64 value=0 time=1\n",
      "control_change channel=0 control=64 value=127 time=1\n",
      "note_on channel=0 note=39 velocity=0 time=225\n",
      "note_on channel=0 note=43 velocity=0 time=0\n",
      "note_on channel=0 note=46 velocity=0 time=0\n",
      "note_on channel=0 note=51 velocity=0 time=0\n",
      "note_on channel=0 note=55 velocity=70 time=2653\n",
      "note_on channel=0 note=55 velocity=0 time=151\n",
      "note_on channel=0 note=46 velocity=67 time=9\n",
      "note_on channel=0 note=46 velocity=0 time=151\n",
      "note_on channel=0 note=51 velocity=63 time=9\n",
      "note_on channel=0 note=51 velocity=0 time=151\n",
      "note_on channel=0 note=39 velocity=60 time=9\n",
      "note_on channel=0 note=39 velocity=0 time=151\n",
      "note_on channel=0 note=46 velocity=56 time=9\n",
      "note_on channel=0 note=46 velocity=0 time=151\n",
      "note_on channel=0 note=43 velocity=53 time=9\n",
      "note_on channel=0 note=43 velocity=0 time=151\n",
      "note_on channel=0 note=39 velocity=49 time=9\n",
      "control_change channel=0 control=64 value=0 time=1\n",
      "control_change channel=0 control=64 value=127 time=1\n",
      "note_on channel=0 note=39 velocity=0 time=453\n",
      "note_on channel=0 note=39 velocity=49 time=25\n",
      "note_on channel=0 note=39 velocity=0 time=151\n",
      "note_on channel=0 note=43 velocity=49 time=9\n",
      "note_on channel=0 note=43 velocity=0 time=151\n",
      "note_on channel=0 note=46 velocity=49 time=9\n",
      "note_on channel=0 note=46 velocity=0 time=151\n",
      "note_on channel=0 note=51 velocity=49 time=9\n",
      "note_on channel=0 note=51 velocity=0 time=607\n",
      "note_on channel=0 note=55 velocity=49 time=33\n",
      "note_on channel=0 note=55 velocity=0 time=151\n",
      "note_on channel=0 note=58 velocity=49 time=9\n",
      "note_on channel=0 note=58 velocity=0 time=151\n",
      "note_on channel=0 note=63 velocity=49 time=9\n",
      "note_on channel=0 note=63 velocity=0 time=607\n",
      "note_on channel=0 note=67 velocity=49 time=33\n",
      "note_on channel=0 note=67 velocity=0 time=151\n",
      "note_on channel=0 note=70 velocity=49 time=9\n",
      "note_on channel=0 note=70 velocity=0 time=151\n",
      "note_on channel=0 note=75 velocity=49 time=9\n",
      "note_on channel=0 note=75 velocity=0 time=607\n",
      "note_on channel=0 note=70 velocity=49 time=33\n",
      "note_on channel=0 note=70 velocity=0 time=151\n",
      "note_on channel=0 note=75 velocity=49 time=9\n",
      "note_on channel=0 note=75 velocity=0 time=151\n",
      "note_on channel=0 note=79 velocity=49 time=9\n",
      "note_on channel=0 note=79 velocity=0 time=607\n",
      "note_on channel=0 note=70 velocity=47 time=33\n",
      "note_on channel=0 note=70 velocity=0 time=151\n",
      "note_on channel=0 note=75 velocity=46 time=9\n",
      "note_on channel=0 note=75 velocity=0 time=151\n",
      "note_on channel=0 note=79 velocity=45 time=9\n",
      "note_on channel=0 note=79 velocity=0 time=607\n",
      "note_on channel=0 note=70 velocity=43 time=33\n",
      "note_on channel=0 note=70 velocity=0 time=151\n",
      "note_on channel=0 note=75 velocity=42 time=9\n",
      "note_on channel=0 note=75 velocity=0 time=151\n",
      "note_on channel=0 note=79 velocity=41 time=9\n",
      "note_on channel=0 note=79 velocity=0 time=607\n",
      "note_on channel=0 note=70 velocity=39 time=33\n",
      "note_on channel=0 note=70 velocity=0 time=151\n",
      "note_on channel=0 note=75 velocity=38 time=9\n",
      "note_on channel=0 note=75 velocity=0 time=151\n",
      "note_on channel=0 note=79 velocity=37 time=9\n",
      "note_on channel=0 note=79 velocity=0 time=607\n",
      "note_on channel=0 note=70 velocity=35 time=33\n",
      "note_on channel=0 note=70 velocity=0 time=151\n",
      "note_on channel=0 note=75 velocity=34 time=9\n",
      "note_on channel=0 note=75 velocity=0 time=151\n",
      "note_on channel=0 note=79 velocity=33 time=9\n",
      "note_on channel=0 note=79 velocity=0 time=607\n",
      "note_on channel=0 note=70 velocity=33 time=33\n",
      "note_on channel=0 note=70 velocity=0 time=151\n",
      "note_on channel=0 note=75 velocity=33 time=9\n",
      "note_on channel=0 note=75 velocity=0 time=151\n",
      "note_on channel=0 note=79 velocity=33 time=9\n",
      "note_on channel=0 note=79 velocity=0 time=607\n",
      "note_on channel=0 note=70 velocity=33 time=33\n",
      "note_on channel=0 note=70 velocity=0 time=151\n",
      "note_on channel=0 note=75 velocity=33 time=9\n",
      "note_on channel=0 note=75 velocity=0 time=151\n",
      "note_on channel=0 note=79 velocity=33 time=9\n",
      "control_change channel=0 control=64 value=0 time=1\n",
      "control_change channel=0 control=64 value=127 time=1\n",
      "note_on channel=0 note=79 velocity=0 time=605\n",
      "note_on channel=0 note=72 velocity=33 time=33\n",
      "note_on channel=0 note=72 velocity=0 time=151\n",
      "note_on channel=0 note=75 velocity=33 time=9\n",
      "note_on channel=0 note=75 velocity=0 time=151\n",
      "note_on channel=0 note=69 velocity=33 time=9\n",
      "control_change channel=0 control=64 value=0 time=1\n",
      "control_change channel=0 control=64 value=127 time=1\n",
      "note_on channel=0 note=69 velocity=0 time=605\n",
      "note_on channel=0 note=69 velocity=33 time=33\n",
      "note_on channel=0 note=69 velocity=0 time=151\n",
      "note_on channel=0 note=72 velocity=33 time=9\n",
      "note_on channel=0 note=72 velocity=0 time=151\n",
      "note_on channel=0 note=77 velocity=33 time=9\n",
      "control_change channel=0 control=64 value=0 time=1\n",
      "control_change channel=0 control=64 value=127 time=1\n",
      "note_on channel=0 note=77 velocity=0 time=605\n",
      "note_on channel=0 note=69 velocity=33 time=33\n",
      "note_on channel=0 note=69 velocity=0 time=151\n",
      "note_on channel=0 note=72 velocity=33 time=9\n",
      "note_on channel=0 note=72 velocity=0 time=151\n",
      "note_on channel=0 note=77 velocity=33 time=9\n",
      "note_on channel=0 note=77 velocity=0 time=607\n",
      "note_on channel=0 note=70 velocity=33 time=33\n",
      "note_on channel=0 note=70 velocity=0 time=151\n",
      "note_on channel=0 note=74 velocity=33 time=9\n",
      "note_on channel=0 note=74 velocity=0 time=151\n",
      "note_on channel=0 note=77 velocity=33 time=9\n",
      "control_change channel=0 control=64 value=0 time=1\n",
      "control_change channel=0 control=64 value=127 time=1\n",
      "note_on channel=0 note=77 velocity=0 time=605\n",
      "note_on channel=0 note=69 velocity=33 time=33\n",
      "note_on channel=0 note=69 velocity=0 time=151\n",
      "note_on channel=0 note=72 velocity=33 time=9\n",
      "note_on channel=0 note=72 velocity=0 time=151\n",
      "note_on channel=0 note=77 velocity=33 time=9\n",
      "note_on channel=0 note=77 velocity=0 time=607\n",
      "note_on channel=0 note=70 velocity=33 time=33\n",
      "note_on channel=0 note=70 velocity=0 time=151\n",
      "note_on channel=0 note=74 velocity=33 time=9\n",
      "note_on channel=0 note=74 velocity=0 time=151\n",
      "note_on channel=0 note=77 velocity=33 time=9\n",
      "control_change channel=0 control=64 value=0 time=1\n",
      "control_change channel=0 control=64 value=127 time=1\n",
      "note_on channel=0 note=77 velocity=0 time=605\n",
      "note_on channel=0 note=69 velocity=33 time=33\n",
      "note_on channel=0 note=69 velocity=0 time=151\n",
      "note_on channel=0 note=72 velocity=33 time=9\n",
      "note_on channel=0 note=72 velocity=0 time=151\n",
      "note_on channel=0 note=77 velocity=33 time=9\n",
      "note_on channel=0 note=77 velocity=0 time=607\n",
      "note_on channel=0 note=70 velocity=33 time=33\n",
      "note_on channel=0 note=70 velocity=0 time=151\n",
      "note_on channel=0 note=74 velocity=33 time=9\n",
      "note_on channel=0 note=74 velocity=0 time=151\n",
      "note_on channel=0 note=79 velocity=33 time=9\n",
      "control_change channel=0 control=64 value=0 time=1\n",
      "control_change channel=0 control=64 value=127 time=1\n",
      "note_on channel=0 note=79 velocity=0 time=605\n",
      "note_on channel=0 note=71 velocity=35 time=33\n",
      "note_on channel=0 note=71 velocity=0 time=151\n",
      "note_on channel=0 note=74 velocity=36 time=9\n",
      "note_on channel=0 note=74 velocity=0 time=151\n",
      "note_on channel=0 note=79 velocity=37 time=9\n",
      "note_on channel=0 note=79 velocity=0 time=607\n",
      "note_on channel=0 note=72 velocity=39 time=33\n",
      "note_on channel=0 note=72 velocity=0 time=151\n",
      "note_on channel=0 note=75 velocity=40 time=9\n",
      "note_on channel=0 note=75 velocity=0 time=151\n",
      "note_on channel=0 note=79 velocity=41 time=9\n",
      "control_change channel=0 control=64 value=0 time=1\n",
      "control_change channel=0 control=64 value=127 time=1\n",
      "note_on channel=0 note=79 velocity=0 time=605\n",
      "note_on channel=0 note=71 velocity=43 time=33\n",
      "note_on channel=0 note=71 velocity=0 time=151\n",
      "note_on channel=0 note=74 velocity=44 time=9\n",
      "note_on channel=0 note=74 velocity=0 time=151\n",
      "note_on channel=0 note=79 velocity=45 time=9\n",
      "note_on channel=0 note=79 velocity=0 time=607\n",
      "note_on channel=0 note=72 velocity=47 time=33\n",
      "note_on channel=0 note=72 velocity=0 time=151\n",
      "note_on channel=0 note=75 velocity=48 time=9\n",
      "note_on channel=0 note=75 velocity=0 time=151\n",
      "note_on channel=0 note=69 velocity=49 time=9\n",
      "control_change channel=0 control=64 value=0 time=1\n",
      "control_change channel=0 control=64 value=127 time=1\n",
      "note_on channel=0 note=69 velocity=0 time=111\n",
      "note_on channel=0 note=77 velocity=49 time=7\n",
      "note_on channel=0 note=77 velocity=0 time=113\n",
      "note_on channel=0 note=72 velocity=49 time=7\n",
      "note_on channel=0 note=72 velocity=0 time=113\n",
      "note_on channel=0 note=77 velocity=49 time=7\n",
      "note_on channel=0 note=77 velocity=0 time=113\n",
      "note_on channel=0 note=69 velocity=49 time=7\n",
      "note_on channel=0 note=69 velocity=0 time=113\n",
      "note_on channel=0 note=77 velocity=49 time=7\n",
      "note_on channel=0 note=77 velocity=0 time=113\n",
      "note_on channel=0 note=72 velocity=49 time=7\n",
      "note_on channel=0 note=72 velocity=0 time=113\n",
      "note_on channel=0 note=77 velocity=49 time=7\n",
      "note_on channel=0 note=77 velocity=0 time=113\n",
      "note_on channel=0 note=70 velocity=49 time=7\n",
      "control_change channel=0 control=64 value=0 time=1\n",
      "control_change channel=0 control=64 value=127 time=1\n",
      "note_on channel=0 note=70 velocity=0 time=111\n",
      "note_on channel=0 note=77 velocity=49 time=7\n",
      "note_on channel=0 note=77 velocity=0 time=113\n",
      "note_on channel=0 note=74 velocity=49 time=7\n",
      "note_on channel=0 note=74 velocity=0 time=113\n",
      "note_on channel=0 note=77 velocity=49 time=7\n",
      "note_on channel=0 note=77 velocity=0 time=113\n",
      "note_on channel=0 note=70 velocity=49 time=7\n",
      "note_on channel=0 note=70 velocity=0 time=113\n",
      "note_on channel=0 note=77 velocity=49 time=7\n",
      "note_on channel=0 note=77 velocity=0 time=113\n",
      "note_on channel=0 note=74 velocity=49 time=7\n",
      "note_on channel=0 note=74 velocity=0 time=113\n",
      "note_on channel=0 note=77 velocity=49 time=7\n",
      "note_on channel=0 note=77 velocity=0 time=113\n",
      "note_on channel=0 note=69 velocity=49 time=7\n",
      "control_change channel=0 control=64 value=0 time=1\n",
      "control_change channel=0 control=64 value=127 time=1\n",
      "note_on channel=0 note=69 velocity=0 time=111\n",
      "note_on channel=0 note=77 velocity=49 time=7\n",
      "note_on channel=0 note=77 velocity=0 time=113\n",
      "note_on channel=0 note=72 velocity=49 time=7\n",
      "note_on channel=0 note=72 velocity=0 time=113\n",
      "note_on channel=0 note=77 velocity=49 time=7\n",
      "note_on channel=0 note=77 velocity=0 time=113\n",
      "note_on channel=0 note=69 velocity=49 time=7\n",
      "note_on channel=0 note=69 velocity=0 time=113\n",
      "note_on channel=0 note=77 velocity=49 time=7\n",
      "note_on channel=0 note=77 velocity=0 time=113\n",
      "note_on channel=0 note=72 velocity=49 time=7\n",
      "note_on channel=0 note=72 velocity=0 time=113\n",
      "note_on channel=0 note=77 velocity=49 time=7\n",
      "note_on channel=0 note=77 velocity=0 time=113\n",
      "note_on channel=0 note=70 velocity=49 time=7\n",
      "control_change channel=0 control=64 value=0 time=1\n",
      "control_change channel=0 control=64 value=127 time=1\n",
      "note_on channel=0 note=70 velocity=0 time=111\n",
      "note_on channel=0 note=77 velocity=49 time=7\n",
      "note_on channel=0 note=77 velocity=0 time=113\n",
      "note_on channel=0 note=74 velocity=49 time=7\n",
      "note_on channel=0 note=74 velocity=0 time=113\n",
      "note_on channel=0 note=77 velocity=49 time=7\n",
      "note_on channel=0 note=77 velocity=0 time=113\n",
      "note_on channel=0 note=70 velocity=49 time=7\n",
      "note_on channel=0 note=70 velocity=0 time=113\n",
      "note_on channel=0 note=77 velocity=49 time=7\n",
      "note_on channel=0 note=77 velocity=0 time=113\n",
      "note_on channel=0 note=74 velocity=49 time=7\n",
      "note_on channel=0 note=74 velocity=0 time=113\n",
      "note_on channel=0 note=77 velocity=49 time=7\n",
      "note_on channel=0 note=77 velocity=0 time=113\n",
      "note_on channel=0 note=71 velocity=49 time=7\n",
      "control_change channel=0 control=64 value=0 time=1\n",
      "control_change channel=0 control=64 value=127 time=1\n",
      "note_on channel=0 note=71 velocity=0 time=111\n",
      "note_on channel=0 note=79 velocity=49 time=7\n",
      "note_on channel=0 note=79 velocity=0 time=113\n",
      "note_on channel=0 note=74 velocity=49 time=7\n",
      "note_on channel=0 note=74 velocity=0 time=113\n",
      "note_on channel=0 note=79 velocity=49 time=7\n",
      "note_on channel=0 note=79 velocity=0 time=113\n",
      "note_on channel=0 note=71 velocity=49 time=7\n",
      "note_on channel=0 note=71 velocity=0 time=113\n",
      "note_on channel=0 note=79 velocity=49 time=7\n",
      "note_on channel=0 note=79 velocity=0 time=113\n",
      "note_on channel=0 note=74 velocity=49 time=7\n",
      "note_on channel=0 note=74 velocity=0 time=113\n",
      "note_on channel=0 note=79 velocity=49 time=7\n",
      "note_on channel=0 note=79 velocity=0 time=113\n",
      "note_on channel=0 note=72 velocity=49 time=7\n",
      "control_change channel=0 control=64 value=0 time=1\n",
      "control_change channel=0 control=64 value=127 time=1\n",
      "note_on channel=0 note=72 velocity=0 time=111\n",
      "note_on channel=0 note=79 velocity=49 time=7\n",
      "note_on channel=0 note=79 velocity=0 time=113\n",
      "note_on channel=0 note=75 velocity=49 time=7\n",
      "note_on channel=0 note=75 velocity=0 time=113\n",
      "note_on channel=0 note=79 velocity=49 time=7\n",
      "note_on channel=0 note=79 velocity=0 time=113\n",
      "note_on channel=0 note=72 velocity=49 time=7\n",
      "note_on channel=0 note=72 velocity=0 time=113\n",
      "note_on channel=0 note=79 velocity=49 time=7\n",
      "note_on channel=0 note=79 velocity=0 time=113\n",
      "note_on channel=0 note=75 velocity=49 time=7\n",
      "note_on channel=0 note=75 velocity=0 time=113\n",
      "note_on channel=0 note=79 velocity=49 time=7\n",
      "note_on channel=0 note=79 velocity=0 time=113\n",
      "note_on channel=0 note=71 velocity=49 time=7\n",
      "control_change channel=0 control=64 value=0 time=1\n",
      "control_change channel=0 control=64 value=127 time=1\n",
      "note_on channel=0 note=71 velocity=0 time=111\n",
      "note_on channel=0 note=79 velocity=49 time=7\n",
      "note_on channel=0 note=79 velocity=0 time=113\n",
      "note_on channel=0 note=74 velocity=49 time=7\n",
      "note_on channel=0 note=74 velocity=0 time=113\n",
      "note_on channel=0 note=79 velocity=49 time=7\n",
      "note_on channel=0 note=79 velocity=0 time=113\n",
      "note_on channel=0 note=71 velocity=49 time=7\n",
      "note_on channel=0 note=71 velocity=0 time=113\n",
      "note_on channel=0 note=79 velocity=49 time=7\n",
      "note_on channel=0 note=79 velocity=0 time=113\n",
      "note_on channel=0 note=74 velocity=49 time=7\n",
      "note_on channel=0 note=74 velocity=0 time=113\n",
      "note_on channel=0 note=79 velocity=49 time=7\n",
      "note_on channel=0 note=79 velocity=0 time=113\n",
      "note_on channel=0 note=72 velocity=49 time=7\n",
      "control_change channel=0 control=64 value=0 time=1\n",
      "control_change channel=0 control=64 value=127 time=1\n",
      "note_on channel=0 note=72 velocity=0 time=111\n",
      "note_on channel=0 note=79 velocity=56 time=7\n",
      "note_on channel=0 note=79 velocity=0 time=113\n",
      "note_on channel=0 note=75 velocity=63 time=7\n",
      "note_on channel=0 note=75 velocity=0 time=113\n",
      "note_on channel=0 note=79 velocity=70 time=7\n",
      "note_on channel=0 note=79 velocity=0 time=113\n",
      "note_on channel=0 note=72 velocity=77 time=7\n",
      "note_on channel=0 note=72 velocity=0 time=113\n",
      "note_on channel=0 note=75 velocity=84 time=7\n",
      "note_on channel=0 note=75 velocity=0 time=113\n",
      "note_on channel=0 note=72 velocity=91 time=7\n",
      "note_on channel=0 note=72 velocity=0 time=113\n",
      "note_on channel=0 note=75 velocity=98 time=7\n",
      "note_on channel=0 note=75 velocity=0 time=113\n",
      "note_on channel=0 note=72 velocity=127 time=7\n",
      "control_change channel=0 control=64 value=0 time=1\n",
      "note_on channel=0 note=72 velocity=0 time=158\n",
      "note_on channel=0 note=65 velocity=112 time=10641\n",
      "note_on channel=0 note=65 velocity=0 time=227\n",
      "note_on channel=0 note=71 velocity=112 time=13\n",
      "note_on channel=0 note=71 velocity=0 time=227\n",
      "note_on channel=0 note=74 velocity=112 time=13\n",
      "note_on channel=0 note=74 velocity=0 time=227\n",
      "note_on channel=0 note=77 velocity=127 time=13\n",
      "note_on channel=0 note=77 velocity=0 time=479\n",
      "note_on channel=0 note=74 velocity=106 time=1\n",
      "note_on channel=0 note=74 velocity=0 time=227\n",
      "note_on channel=0 note=71 velocity=106 time=13\n",
      "note_on channel=0 note=71 velocity=0 time=227\n",
      "note_on channel=0 note=65 velocity=127 time=13\n",
      "note_on channel=0 note=65 velocity=0 time=479\n",
      "note_on channel=0 note=62 velocity=106 time=1\n",
      "note_on channel=0 note=62 velocity=0 time=227\n",
      "note_on channel=0 note=59 velocity=106 time=13\n",
      "note_on channel=0 note=59 velocity=0 time=227\n",
      "note_on channel=0 note=53 velocity=127 time=13\n",
      "note_on channel=0 note=53 velocity=0 time=479\n",
      "note_on channel=0 note=50 velocity=106 time=1\n",
      "note_on channel=0 note=50 velocity=0 time=227\n",
      "note_on channel=0 note=47 velocity=106 time=13\n",
      "note_on channel=0 note=47 velocity=0 time=227\n",
      "note_on channel=0 note=41 velocity=127 time=13\n",
      "control_change channel=0 control=64 value=127 time=2\n",
      "note_on channel=0 note=41 velocity=0 time=477\n",
      "note_on channel=0 note=47 velocity=106 time=1\n",
      "note_on channel=0 note=47 velocity=0 time=227\n",
      "note_on channel=0 note=50 velocity=106 time=13\n",
      "note_on channel=0 note=50 velocity=0 time=227\n",
      "note_on channel=0 note=53 velocity=106 time=13\n",
      "note_on channel=0 note=53 velocity=0 time=455\n",
      "note_on channel=0 note=59 velocity=99 time=25\n",
      "note_on channel=0 note=59 velocity=0 time=227\n",
      "note_on channel=0 note=62 velocity=96 time=13\n",
      "note_on channel=0 note=62 velocity=0 time=227\n",
      "note_on channel=0 note=65 velocity=92 time=13\n",
      "note_on channel=0 note=65 velocity=0 time=455\n",
      "note_on channel=0 note=71 velocity=85 time=25\n",
      "note_on channel=0 note=71 velocity=0 time=227\n",
      "note_on channel=0 note=74 velocity=82 time=13\n",
      "note_on channel=0 note=74 velocity=0 time=227\n",
      "note_on channel=0 note=77 velocity=78 time=13\n",
      "note_on channel=0 note=77 velocity=0 time=455\n",
      "note_on channel=0 note=71 velocity=71 time=25\n",
      "note_on channel=0 note=71 velocity=0 time=227\n",
      "note_on channel=0 note=74 velocity=67 time=13\n",
      "note_on channel=0 note=74 velocity=0 time=227\n",
      "note_on channel=0 note=77 velocity=64 time=13\n",
      "control_change channel=0 control=64 value=0 time=1\n",
      "control_change channel=0 control=64 value=127 time=1\n",
      "note_on channel=0 note=77 velocity=0 time=453\n",
      "note_on channel=0 note=71 velocity=57 time=25\n",
      "note_on channel=0 note=71 velocity=0 time=227\n",
      "note_on channel=0 note=74 velocity=53 time=13\n",
      "note_on channel=0 note=74 velocity=0 time=227\n",
      "note_on channel=0 note=77 velocity=49 time=13\n",
      "note_on channel=0 note=77 velocity=0 time=455\n",
      "note_on channel=0 note=71 velocity=49 time=25\n",
      "note_on channel=0 note=71 velocity=0 time=227\n",
      "note_on channel=0 note=74 velocity=49 time=13\n",
      "note_on channel=0 note=74 velocity=0 time=227\n",
      "note_on channel=0 note=77 velocity=49 time=13\n",
      "control_change channel=0 control=64 value=0 time=1\n",
      "control_change channel=0 control=64 value=127 time=1\n",
      "note_on channel=0 note=77 velocity=0 time=453\n",
      "note_on channel=0 note=71 velocity=49 time=25\n",
      "note_on channel=0 note=71 velocity=0 time=227\n",
      "note_on channel=0 note=74 velocity=49 time=13\n",
      "note_on channel=0 note=74 velocity=0 time=227\n",
      "note_on channel=0 note=77 velocity=49 time=13\n",
      "note_on channel=0 note=77 velocity=0 time=455\n",
      "note_on channel=0 note=71 velocity=45 time=25\n",
      "note_on channel=0 note=71 velocity=0 time=227\n",
      "note_on channel=0 note=74 velocity=43 time=13\n",
      "note_on channel=0 note=74 velocity=0 time=227\n",
      "note_on channel=0 note=77 velocity=41 time=13\n",
      "note_on channel=0 note=77 velocity=0 time=455\n",
      "note_on channel=0 note=71 velocity=37 time=25\n",
      "note_on channel=0 note=71 velocity=0 time=227\n",
      "note_on channel=0 note=74 velocity=35 time=13\n",
      "note_on channel=0 note=74 velocity=0 time=227\n",
      "note_on channel=0 note=79 velocity=33 time=13\n",
      "note_on channel=0 note=79 velocity=0 time=455\n",
      "note_on channel=0 note=77 velocity=33 time=25\n",
      "note_on channel=0 note=77 velocity=0 time=227\n",
      "note_on channel=0 note=74 velocity=33 time=13\n",
      "note_on channel=0 note=74 velocity=0 time=227\n",
      "control_change channel=0 control=64 value=0 time=14\n",
      "control_change channel=0 control=64 value=127 time=1\n",
      "control_change channel=0 control=64 value=0 time=1919\n",
      "note_on channel=0 note=60 velocity=40 time=2039\n",
      "note_on channel=0 note=60 velocity=0 time=113\n",
      "note_on channel=0 note=76 velocity=40 time=7\n",
      "note_on channel=0 note=76 velocity=0 time=113\n",
      "note_on channel=0 note=60 velocity=40 time=727\n",
      "note_on channel=0 note=60 velocity=0 time=113\n",
      "note_on channel=0 note=76 velocity=40 time=7\n",
      "note_on channel=0 note=76 velocity=0 time=113\n",
      "note_on channel=0 note=60 velocity=40 time=607\n",
      "note_on channel=0 note=60 velocity=0 time=113\n",
      "note_on channel=0 note=76 velocity=41 time=7\n",
      "note_on channel=0 note=76 velocity=0 time=113\n",
      "note_on channel=0 note=60 velocity=44 time=247\n",
      "note_on channel=0 note=60 velocity=0 time=113\n",
      "note_on channel=0 note=76 velocity=45 time=7\n",
      "note_on channel=0 note=76 velocity=0 time=113\n",
      "note_on channel=0 note=60 velocity=49 time=247\n",
      "note_on channel=0 note=60 velocity=0 time=113\n",
      "note_on channel=0 note=76 velocity=49 time=7\n",
      "note_on channel=0 note=76 velocity=0 time=113\n",
      "note_on channel=0 note=60 velocity=49 time=727\n",
      "note_on channel=0 note=60 velocity=0 time=113\n",
      "note_on channel=0 note=76 velocity=49 time=7\n",
      "note_on channel=0 note=76 velocity=0 time=113\n",
      "note_on channel=0 note=60 velocity=49 time=247\n",
      "note_on channel=0 note=60 velocity=0 time=113\n",
      "note_on channel=0 note=76 velocity=49 time=7\n",
      "note_on channel=0 note=76 velocity=0 time=113\n",
      "note_on channel=0 note=54 velocity=49 time=247\n",
      "note_on channel=0 note=54 velocity=0 time=113\n",
      "note_on channel=0 note=69 velocity=49 time=7\n",
      "note_on channel=0 note=69 velocity=0 time=113\n",
      "note_on channel=0 note=54 velocity=49 time=727\n",
      "note_on channel=0 note=54 velocity=0 time=113\n",
      "note_on channel=0 note=69 velocity=49 time=7\n",
      "note_on channel=0 note=69 velocity=0 time=113\n",
      "note_on channel=0 note=50 velocity=49 time=247\n",
      "note_on channel=0 note=50 velocity=0 time=113\n",
      "note_on channel=0 note=66 velocity=49 time=7\n",
      "note_on channel=0 note=66 velocity=0 time=113\n",
      "note_on channel=0 note=55 velocity=49 time=247\n",
      "note_on channel=0 note=55 velocity=0 time=113\n",
      "note_on channel=0 note=71 velocity=49 time=7\n",
      "note_on channel=0 note=71 velocity=0 time=113\n",
      "note_on channel=0 note=52 velocity=49 time=247\n",
      "note_on channel=0 note=52 velocity=0 time=113\n",
      "note_on channel=0 note=67 velocity=49 time=7\n",
      "note_on channel=0 note=67 velocity=0 time=113\n",
      "note_on channel=0 note=48 velocity=49 time=247\n",
      "note_on channel=0 note=48 velocity=0 time=113\n",
      "note_on channel=0 note=64 velocity=49 time=7\n",
      "note_on channel=0 note=64 velocity=0 time=113\n",
      "note_on channel=0 note=50 velocity=49 time=247\n",
      "note_on channel=0 note=50 velocity=0 time=113\n",
      "note_on channel=0 note=66 velocity=49 time=7\n",
      "note_on channel=0 note=66 velocity=0 time=113\n",
      "note_on channel=0 note=43 velocity=49 time=247\n",
      "note_on channel=0 note=43 velocity=0 time=113\n",
      "note_on channel=0 note=59 velocity=49 time=7\n",
      "note_on channel=0 note=59 velocity=0 time=113\n",
      "note_on channel=0 note=59 velocity=90 time=13207\n",
      "note_on channel=0 note=59 velocity=0 time=113\n",
      "note_on channel=0 note=62 velocity=90 time=7\n",
      "note_on channel=0 note=62 velocity=0 time=113\n",
      "note_on channel=0 note=64 velocity=90 time=7\n",
      "note_on channel=0 note=64 velocity=0 time=113\n",
      "note_on channel=0 note=66 velocity=90 time=7\n",
      "note_on channel=0 note=66 velocity=0 time=113\n",
      "note_on channel=0 note=67 velocity=90 time=7\n",
      "note_on channel=0 note=67 velocity=0 time=113\n",
      "note_on channel=0 note=66 velocity=90 time=7\n",
      "note_on channel=0 note=66 velocity=0 time=113\n",
      "note_on channel=0 note=67 velocity=90 time=7\n",
      "note_on channel=0 note=67 velocity=0 time=113\n",
      "note_on channel=0 note=68 velocity=90 time=7\n",
      "note_on channel=0 note=68 velocity=0 time=113\n",
      "note_on channel=0 note=69 velocity=90 time=7\n",
      "note_on channel=0 note=69 velocity=0 time=113\n",
      "note_on channel=0 note=62 velocity=90 time=7\n",
      "note_on channel=0 note=62 velocity=0 time=113\n",
      "note_on channel=0 note=64 velocity=90 time=7\n",
      "note_on channel=0 note=64 velocity=0 time=113\n",
      "note_on channel=0 note=66 velocity=90 time=7\n",
      "note_on channel=0 note=66 velocity=0 time=113\n",
      "note_on channel=0 note=67 velocity=90 time=7\n",
      "note_on channel=0 note=67 velocity=0 time=113\n",
      "note_on channel=0 note=66 velocity=90 time=7\n",
      "note_on channel=0 note=66 velocity=0 time=113\n",
      "note_on channel=0 note=64 velocity=90 time=7\n",
      "note_on channel=0 note=64 velocity=0 time=113\n",
      "note_on channel=0 note=62 velocity=90 time=7\n",
      "note_on channel=0 note=62 velocity=0 time=113\n",
      "note_on channel=0 note=60 velocity=90 time=7\n",
      "note_on channel=0 note=60 velocity=0 time=113\n",
      "note_on channel=0 note=59 velocity=90 time=7\n",
      "note_on channel=0 note=59 velocity=0 time=113\n",
      "note_on channel=0 note=60 velocity=90 time=7\n",
      "note_on channel=0 note=60 velocity=0 time=113\n",
      "note_on channel=0 note=62 velocity=90 time=7\n",
      "note_on channel=0 note=62 velocity=0 time=113\n",
      "note_on channel=0 note=59 velocity=90 time=7\n",
      "note_on channel=0 note=59 velocity=0 time=113\n",
      "note_on channel=0 note=55 velocity=90 time=7\n",
      "note_on channel=0 note=55 velocity=0 time=113\n",
      "note_on channel=0 note=57 velocity=90 time=7\n",
      "note_on channel=0 note=57 velocity=0 time=113\n",
      "note_on channel=0 note=59 velocity=90 time=7\n",
      "note_on channel=0 note=59 velocity=0 time=113\n",
      "note_on channel=0 note=60 velocity=90 time=7\n",
      "note_on channel=0 note=60 velocity=0 time=113\n",
      "note_on channel=0 note=57 velocity=90 time=7\n",
      "note_on channel=0 note=57 velocity=0 time=113\n",
      "note_on channel=0 note=59 velocity=90 time=7\n",
      "note_on channel=0 note=59 velocity=0 time=113\n",
      "note_on channel=0 note=60 velocity=90 time=7\n",
      "note_on channel=0 note=60 velocity=0 time=113\n",
      "note_on channel=0 note=62 velocity=90 time=7\n",
      "note_on channel=0 note=62 velocity=0 time=113\n",
      "note_on channel=0 note=61 velocity=90 time=7\n",
      "note_on channel=0 note=61 velocity=0 time=113\n",
      "note_on channel=0 note=62 velocity=90 time=7\n",
      "note_on channel=0 note=62 velocity=0 time=113\n",
      "note_on channel=0 note=50 velocity=90 time=7\n",
      "note_on channel=0 note=50 velocity=0 time=113\n",
      "note_on channel=0 note=55 velocity=106 time=7\n",
      "control_change channel=0 control=64 value=127 time=2\n",
      "note_on channel=0 note=55 velocity=0 time=111\n",
      "note_on channel=0 note=55 velocity=106 time=7\n",
      "note_on channel=0 note=55 velocity=0 time=113\n",
      "note_on channel=0 note=59 velocity=106 time=7\n",
      "note_on channel=0 note=59 velocity=0 time=113\n",
      "note_on channel=0 note=62 velocity=106 time=7\n",
      "note_on channel=0 note=62 velocity=0 time=113\n",
      "note_on channel=0 note=67 velocity=106 time=7\n",
      "note_on channel=0 note=67 velocity=0 time=113\n",
      "note_on channel=0 note=71 velocity=106 time=7\n",
      "note_on channel=0 note=71 velocity=0 time=113\n",
      "note_on channel=0 note=74 velocity=106 time=7\n",
      "note_on channel=0 note=74 velocity=0 time=113\n",
      "note_on channel=0 note=71 velocity=106 time=7\n",
      "note_on channel=0 note=71 velocity=0 time=113\n",
      "note_on channel=0 note=72 velocity=127 time=7\n",
      "control_change channel=0 control=64 value=0 time=1\n",
      "control_change channel=0 control=64 value=127 time=1\n",
      "note_on channel=0 note=72 velocity=0 time=117\n",
      "note_on channel=0 note=76 velocity=106 time=1\n",
      "note_on channel=0 note=76 velocity=0 time=113\n",
      "note_on channel=0 note=69 velocity=106 time=7\n",
      "note_on channel=0 note=69 velocity=0 time=113\n",
      "note_on channel=0 note=72 velocity=106 time=7\n",
      "note_on channel=0 note=72 velocity=0 time=113\n",
      "note_on channel=0 note=66 velocity=106 time=7\n",
      "note_on channel=0 note=66 velocity=0 time=113\n",
      "note_on channel=0 note=69 velocity=106 time=7\n",
      "note_on channel=0 note=69 velocity=0 time=113\n",
      "note_on channel=0 note=62 velocity=106 time=7\n",
      "note_on channel=0 note=62 velocity=0 time=113\n",
      "note_on channel=0 note=66 velocity=106 time=7\n",
      "note_on channel=0 note=66 velocity=0 time=113\n",
      "note_on channel=0 note=67 velocity=106 time=7\n",
      "control_change channel=0 control=64 value=0 time=1\n",
      "control_change channel=0 control=64 value=127 time=1\n",
      "note_on channel=0 note=67 velocity=0 time=111\n",
      "note_on channel=0 note=71 velocity=106 time=7\n",
      "note_on channel=0 note=71 velocity=0 time=113\n",
      "note_on channel=0 note=62 velocity=106 time=7\n",
      "note_on channel=0 note=62 velocity=0 time=113\n",
      "note_on channel=0 note=67 velocity=106 time=7\n",
      "note_on channel=0 note=67 velocity=0 time=113\n",
      "note_on channel=0 note=59 velocity=106 time=7\n",
      "note_on channel=0 note=59 velocity=0 time=113\n",
      "note_on channel=0 note=62 velocity=106 time=7\n",
      "note_on channel=0 note=62 velocity=0 time=113\n",
      "note_on channel=0 note=55 velocity=106 time=7\n",
      "note_on channel=0 note=55 velocity=0 time=113\n",
      "note_on channel=0 note=59 velocity=106 time=7\n",
      "note_on channel=0 note=59 velocity=0 time=113\n",
      "note_on channel=0 note=60 velocity=49 time=7\n",
      "control_change channel=0 control=64 value=0 time=1\n",
      "control_change channel=0 control=64 value=127 time=1\n",
      "note_on channel=0 note=60 velocity=0 time=111\n",
      "note_on channel=0 note=64 velocity=49 time=7\n",
      "note_on channel=0 note=64 velocity=0 time=113\n",
      "note_on channel=0 note=57 velocity=49 time=7\n",
      "note_on channel=0 note=57 velocity=0 time=113\n",
      "note_on channel=0 note=60 velocity=49 time=7\n",
      "note_on channel=0 note=60 velocity=0 time=113\n",
      "note_on channel=0 note=54 velocity=49 time=7\n",
      "note_on channel=0 note=54 velocity=0 time=113\n",
      "note_on channel=0 note=57 velocity=49 time=7\n",
      "note_on channel=0 note=57 velocity=0 time=113\n",
      "note_on channel=0 note=50 velocity=49 time=7\n",
      "note_on channel=0 note=50 velocity=0 time=113\n",
      "note_on channel=0 note=54 velocity=49 time=7\n",
      "note_on channel=0 note=54 velocity=0 time=113\n",
      "note_on channel=0 note=55 velocity=102 time=7\n",
      "control_change channel=0 control=64 value=0 time=1\n",
      "control_change channel=0 control=64 value=127 time=1\n",
      "note_on channel=0 note=55 velocity=0 time=111\n",
      "note_on channel=0 note=43 velocity=102 time=7\n",
      "note_on channel=0 note=43 velocity=0 time=113\n",
      "note_on channel=0 note=47 velocity=102 time=7\n",
      "note_on channel=0 note=47 velocity=0 time=113\n",
      "note_on channel=0 note=50 velocity=102 time=7\n",
      "note_on channel=0 note=50 velocity=0 time=113\n",
      "note_on channel=0 note=55 velocity=102 time=7\n",
      "note_on channel=0 note=55 velocity=0 time=113\n",
      "note_on channel=0 note=59 velocity=102 time=7\n",
      "note_on channel=0 note=59 velocity=0 time=113\n",
      "note_on channel=0 note=62 velocity=102 time=7\n",
      "note_on channel=0 note=62 velocity=0 time=113\n",
      "note_on channel=0 note=59 velocity=102 time=7\n",
      "note_on channel=0 note=59 velocity=0 time=113\n",
      "note_on channel=0 note=60 velocity=127 time=7\n",
      "control_change channel=0 control=64 value=0 time=1\n",
      "control_change channel=0 control=64 value=127 time=1\n",
      "note_on channel=0 note=60 velocity=0 time=117\n",
      "note_on channel=0 note=64 velocity=102 time=1\n",
      "note_on channel=0 note=64 velocity=0 time=113\n",
      "note_on channel=0 note=57 velocity=102 time=7\n",
      "note_on channel=0 note=57 velocity=0 time=113\n",
      "note_on channel=0 note=60 velocity=102 time=7\n",
      "note_on channel=0 note=60 velocity=0 time=113\n",
      "note_on channel=0 note=54 velocity=102 time=7\n",
      "note_on channel=0 note=54 velocity=0 time=113\n",
      "note_on channel=0 note=57 velocity=102 time=7\n",
      "note_on channel=0 note=57 velocity=0 time=113\n",
      "note_on channel=0 note=48 velocity=102 time=7\n",
      "note_on channel=0 note=48 velocity=0 time=113\n",
      "note_on channel=0 note=54 velocity=102 time=7\n",
      "note_on channel=0 note=54 velocity=0 time=113\n",
      "note_on channel=0 note=45 velocity=102 time=7\n",
      "control_change channel=0 control=64 value=0 time=1\n",
      "control_change channel=0 control=64 value=127 time=1\n",
      "note_on channel=0 note=45 velocity=0 time=111\n",
      "note_on channel=0 note=48 velocity=102 time=7\n",
      "note_on channel=0 note=48 velocity=0 time=113\n",
      "note_on channel=0 note=54 velocity=102 time=7\n",
      "note_on channel=0 note=54 velocity=0 time=113\n",
      "note_on channel=0 note=48 velocity=102 time=7\n",
      "note_on channel=0 note=48 velocity=0 time=113\n",
      "note_on channel=0 note=57 velocity=102 time=7\n",
      "note_on channel=0 note=57 velocity=0 time=113\n",
      "note_on channel=0 note=54 velocity=102 time=7\n",
      "note_on channel=0 note=54 velocity=0 time=113\n",
      "note_on channel=0 note=60 velocity=102 time=7\n",
      "note_on channel=0 note=60 velocity=0 time=113\n",
      "note_on channel=0 note=57 velocity=102 time=7\n",
      "note_on channel=0 note=57 velocity=0 time=113\n",
      "note_on channel=0 note=66 velocity=90 time=7\n",
      "control_change channel=0 control=64 value=0 time=1\n",
      "note_on channel=0 note=66 velocity=0 time=150\n",
      "note_on channel=0 note=60 velocity=90 time=9\n",
      "note_on channel=0 note=60 velocity=0 time=151\n",
      "note_on channel=0 note=69 velocity=90 time=9\n",
      "note_on channel=0 note=69 velocity=0 time=151\n",
      "note_on channel=0 note=66 velocity=90 time=9\n",
      "note_on channel=0 note=66 velocity=0 time=151\n",
      "note_on channel=0 note=72 velocity=90 time=9\n",
      "note_on channel=0 note=72 velocity=0 time=151\n",
      "note_on channel=0 note=69 velocity=90 time=9\n",
      "note_on channel=0 note=69 velocity=0 time=151\n",
      "note_on channel=0 note=66 velocity=90 time=9\n",
      "note_on channel=0 note=66 velocity=0 time=151\n",
      "note_on channel=0 note=72 velocity=89 time=9\n",
      "note_on channel=0 note=72 velocity=0 time=151\n",
      "note_on channel=0 note=69 velocity=87 time=9\n",
      "note_on channel=0 note=69 velocity=0 time=151\n",
      "note_on channel=0 note=66 velocity=85 time=9\n",
      "note_on channel=0 note=66 velocity=0 time=151\n",
      "note_on channel=0 note=72 velocity=84 time=9\n",
      "note_on channel=0 note=72 velocity=0 time=151\n",
      "note_on channel=0 note=69 velocity=82 time=9\n",
      "note_on channel=0 note=69 velocity=0 time=151\n",
      "note_on channel=0 note=66 velocity=80 time=9\n",
      "note_on channel=0 note=66 velocity=0 time=151\n",
      "note_on channel=0 note=72 velocity=79 time=9\n",
      "note_on channel=0 note=72 velocity=0 time=151\n",
      "note_on channel=0 note=69 velocity=77 time=9\n",
      "note_on channel=0 note=69 velocity=0 time=151\n",
      "note_on channel=0 note=66 velocity=75 time=9\n",
      "note_on channel=0 note=66 velocity=0 time=151\n",
      "note_on channel=0 note=73 velocity=73 time=9\n",
      "note_on channel=0 note=73 velocity=0 time=151\n",
      "note_on channel=0 note=69 velocity=72 time=9\n",
      "note_on channel=0 note=69 velocity=0 time=151\n",
      "note_on channel=0 note=66 velocity=70 time=9\n",
      "note_on channel=0 note=66 velocity=0 time=151\n",
      "note_on channel=0 note=73 velocity=68 time=9\n",
      "note_on channel=0 note=73 velocity=0 time=151\n",
      "note_on channel=0 note=69 velocity=67 time=9\n",
      "note_on channel=0 note=69 velocity=0 time=151\n",
      "note_on channel=0 note=66 velocity=65 time=9\n",
      "note_on channel=0 note=66 velocity=0 time=151\n",
      "note_on channel=0 note=73 velocity=63 time=9\n",
      "note_on channel=0 note=73 velocity=0 time=151\n",
      "note_on channel=0 note=70 velocity=61 time=9\n",
      "note_on channel=0 note=70 velocity=0 time=151\n",
      "note_on channel=0 note=66 velocity=60 time=9\n",
      "note_on channel=0 note=66 velocity=0 time=151\n",
      "note_on channel=0 note=73 velocity=58 time=9\n",
      "note_on channel=0 note=73 velocity=0 time=151\n",
      "note_on channel=0 note=70 velocity=56 time=9\n",
      "note_on channel=0 note=70 velocity=0 time=151\n",
      "note_on channel=0 note=66 velocity=55 time=9\n",
      "note_on channel=0 note=66 velocity=0 time=151\n",
      "note_on channel=0 note=73 velocity=53 time=9\n",
      "note_on channel=0 note=73 velocity=0 time=151\n",
      "note_on channel=0 note=70 velocity=51 time=9\n",
      "note_on channel=0 note=70 velocity=0 time=151\n",
      "note_on channel=0 note=66 velocity=49 time=9\n",
      "control_change channel=0 control=64 value=127 time=2\n",
      "note_on channel=0 note=66 velocity=0 time=149\n",
      "note_on channel=0 note=73 velocity=49 time=9\n",
      "note_on channel=0 note=73 velocity=0 time=151\n",
      "note_on channel=0 note=70 velocity=49 time=9\n",
      "note_on channel=0 note=70 velocity=0 time=151\n",
      "note_on channel=0 note=66 velocity=49 time=9\n",
      "note_on channel=0 note=66 velocity=0 time=151\n",
      "note_on channel=0 note=73 velocity=49 time=9\n",
      "note_on channel=0 note=73 velocity=0 time=151\n",
      "note_on channel=0 note=70 velocity=49 time=9\n",
      "note_on channel=0 note=70 velocity=0 time=151\n",
      "note_on channel=0 note=66 velocity=49 time=9\n",
      "note_on channel=0 note=66 velocity=0 time=151\n",
      "note_on channel=0 note=73 velocity=47 time=9\n",
      "note_on channel=0 note=73 velocity=0 time=151\n",
      "note_on channel=0 note=70 velocity=44 time=9\n",
      "note_on channel=0 note=70 velocity=0 time=151\n",
      "note_on channel=0 note=66 velocity=41 time=9\n",
      "note_on channel=0 note=66 velocity=0 time=151\n",
      "note_on channel=0 note=73 velocity=39 time=9\n",
      "note_on channel=0 note=73 velocity=0 time=151\n",
      "note_on channel=0 note=70 velocity=36 time=9\n",
      "note_on channel=0 note=70 velocity=0 time=151\n",
      "note_on channel=0 note=66 velocity=33 time=9\n",
      "note_on channel=0 note=66 velocity=0 time=151\n",
      "note_on channel=0 note=73 velocity=33 time=9\n",
      "note_on channel=0 note=73 velocity=0 time=151\n",
      "note_on channel=0 note=70 velocity=33 time=9\n",
      "note_on channel=0 note=70 velocity=0 time=151\n",
      "note_on channel=0 note=66 velocity=33 time=9\n",
      "note_on channel=0 note=66 velocity=0 time=151\n",
      "note_on channel=0 note=73 velocity=33 time=9\n",
      "note_on channel=0 note=73 velocity=0 time=151\n",
      "note_on channel=0 note=70 velocity=33 time=9\n",
      "note_on channel=0 note=70 velocity=0 time=151\n",
      "note_on channel=0 note=66 velocity=33 time=9\n",
      "note_on channel=0 note=66 velocity=0 time=151\n",
      "note_on channel=0 note=73 velocity=33 time=9\n",
      "note_on channel=0 note=73 velocity=0 time=151\n",
      "note_on channel=0 note=70 velocity=33 time=9\n",
      "note_on channel=0 note=70 velocity=0 time=151\n",
      "note_on channel=0 note=66 velocity=33 time=9\n",
      "note_on channel=0 note=66 velocity=0 time=151\n",
      "note_on channel=0 note=73 velocity=33 time=9\n",
      "note_on channel=0 note=73 velocity=0 time=151\n",
      "note_on channel=0 note=70 velocity=33 time=9\n",
      "note_on channel=0 note=70 velocity=0 time=151\n",
      "note_on channel=0 note=30 velocity=33 time=9\n",
      "control_change channel=0 control=64 value=0 time=1\n",
      "control_change channel=0 control=64 value=127 time=1\n",
      "note_on channel=0 note=30 velocity=0 time=225\n",
      "note_on channel=0 note=61 velocity=33 time=13\n",
      "note_on channel=0 note=61 velocity=0 time=227\n",
      "note_on channel=0 note=58 velocity=33 time=13\n",
      "note_on channel=0 note=58 velocity=0 time=227\n",
      "note_on channel=0 note=61 velocity=33 time=13\n",
      "note_on channel=0 note=61 velocity=0 time=227\n",
      "note_on channel=0 note=58 velocity=33 time=13\n",
      "note_on channel=0 note=58 velocity=0 time=227\n",
      "note_on channel=0 note=61 velocity=33 time=13\n",
      "note_on channel=0 note=61 velocity=0 time=227\n",
      "note_on channel=0 note=58 velocity=33 time=13\n",
      "note_on channel=0 note=58 velocity=0 time=227\n",
      "note_on channel=0 note=61 velocity=33 time=13\n",
      "note_on channel=0 note=61 velocity=0 time=227\n",
      "note_on channel=0 note=59 velocity=33 time=13\n",
      "control_change channel=0 control=64 value=0 time=1\n",
      "note_on channel=0 note=59 velocity=0 time=226\n",
      "note_on channel=0 note=61 velocity=33 time=13\n",
      "note_on channel=0 note=61 velocity=0 time=227\n",
      "note_on channel=0 note=59 velocity=33 time=13\n",
      "note_on channel=0 note=59 velocity=0 time=227\n",
      "note_on channel=0 note=61 velocity=33 time=13\n",
      "note_on channel=0 note=61 velocity=0 time=227\n",
      "note_on channel=0 note=59 velocity=33 time=13\n",
      "note_on channel=0 note=59 velocity=0 time=227\n",
      "note_on channel=0 note=61 velocity=33 time=13\n",
      "note_on channel=0 note=61 velocity=0 time=227\n",
      "note_on channel=0 note=59 velocity=33 time=13\n",
      "note_on channel=0 note=59 velocity=0 time=227\n",
      "note_on channel=0 note=61 velocity=33 time=13\n",
      "note_on channel=0 note=61 velocity=0 time=227\n",
      "note_on channel=0 note=54 velocity=33 time=13\n",
      "note_on channel=0 note=66 velocity=33 time=0\n",
      "note_on channel=0 note=54 velocity=0 time=227\n",
      "note_on channel=0 note=66 velocity=0 time=0\n",
      "note_on channel=0 note=36 velocity=33 time=3613\n",
      "note_on channel=0 note=36 velocity=0 time=227\n",
      "note_on channel=0 note=67 velocity=33 time=13\n",
      "note_on channel=0 note=67 velocity=0 time=227\n",
      "note_on channel=0 note=64 velocity=33 time=13\n",
      "note_on channel=0 note=64 velocity=0 time=227\n",
      "note_on channel=0 note=67 velocity=33 time=13\n",
      "note_on channel=0 note=67 velocity=0 time=227\n",
      "note_on channel=0 note=64 velocity=33 time=13\n",
      "note_on channel=0 note=64 velocity=0 time=227\n",
      "note_on channel=0 note=67 velocity=33 time=13\n",
      "note_on channel=0 note=67 velocity=0 time=227\n",
      "note_on channel=0 note=64 velocity=33 time=13\n",
      "note_on channel=0 note=64 velocity=0 time=227\n",
      "note_on channel=0 note=67 velocity=33 time=13\n",
      "note_on channel=0 note=67 velocity=0 time=227\n",
      "note_on channel=0 note=65 velocity=33 time=13\n",
      "note_on channel=0 note=65 velocity=0 time=227\n",
      "note_on channel=0 note=67 velocity=33 time=13\n",
      "note_on channel=0 note=67 velocity=0 time=227\n",
      "note_on channel=0 note=65 velocity=33 time=13\n",
      "note_on channel=0 note=65 velocity=0 time=227\n",
      "note_on channel=0 note=67 velocity=33 time=13\n",
      "note_on channel=0 note=67 velocity=0 time=227\n",
      "note_on channel=0 note=65 velocity=33 time=13\n",
      "note_on channel=0 note=65 velocity=0 time=227\n",
      "note_on channel=0 note=67 velocity=33 time=13\n",
      "note_on channel=0 note=67 velocity=0 time=227\n",
      "note_on channel=0 note=65 velocity=33 time=13\n",
      "note_on channel=0 note=65 velocity=0 time=227\n",
      "note_on channel=0 note=67 velocity=33 time=13\n",
      "note_on channel=0 note=67 velocity=0 time=227\n",
      "note_on channel=0 note=64 velocity=33 time=13\n",
      "note_on channel=0 note=64 velocity=0 time=227\n",
      "note_on channel=0 note=62 velocity=40 time=2773\n",
      "note_on channel=0 note=62 velocity=0 time=113\n",
      "note_on channel=0 note=64 velocity=40 time=7\n",
      "note_on channel=0 note=64 velocity=0 time=113\n",
      "note_on channel=0 note=66 velocity=39 time=7\n",
      "note_on channel=0 note=66 velocity=0 time=113\n",
      "note_on channel=0 note=67 velocity=38 time=7\n",
      "note_on channel=0 note=67 velocity=0 time=113\n",
      "note_on channel=0 note=69 velocity=37 time=7\n",
      "note_on channel=0 note=69 velocity=0 time=113\n",
      "note_on channel=0 note=71 velocity=36 time=7\n",
      "note_on channel=0 note=71 velocity=0 time=113\n",
      "note_on channel=0 note=72 velocity=35 time=7\n",
      "note_on channel=0 note=72 velocity=0 time=113\n",
      "note_on channel=0 note=74 velocity=33 time=7\n",
      "note_on channel=0 note=74 velocity=0 time=455\n",
      "note_on channel=0 note=50 velocity=33 time=625\n",
      "note_on channel=0 note=50 velocity=0 time=113\n",
      "note_on channel=0 note=52 velocity=33 time=7\n",
      "note_on channel=0 note=52 velocity=0 time=113\n",
      "note_on channel=0 note=54 velocity=33 time=7\n",
      "note_on channel=0 note=54 velocity=0 time=113\n",
      "note_on channel=0 note=55 velocity=33 time=7\n",
      "note_on channel=0 note=55 velocity=0 time=113\n",
      "note_on channel=0 note=57 velocity=33 time=7\n",
      "note_on channel=0 note=57 velocity=0 time=113\n",
      "note_on channel=0 note=59 velocity=33 time=7\n",
      "note_on channel=0 note=59 velocity=0 time=113\n",
      "note_on channel=0 note=60 velocity=33 time=7\n",
      "note_on channel=0 note=60 velocity=0 time=113\n",
      "note_on channel=0 note=62 velocity=33 time=7\n",
      "note_on channel=0 note=62 velocity=0 time=227\n",
      "note_on channel=0 note=62 velocity=33 time=853\n",
      "note_on channel=0 note=62 velocity=0 time=113\n",
      "note_on channel=0 note=64 velocity=33 time=7\n",
      "note_on channel=0 note=64 velocity=0 time=113\n",
      "note_on channel=0 note=66 velocity=33 time=7\n",
      "note_on channel=0 note=66 velocity=0 time=113\n",
      "note_on channel=0 note=67 velocity=33 time=7\n",
      "note_on channel=0 note=67 velocity=0 time=113\n",
      "note_on channel=0 note=69 velocity=33 time=7\n",
      "note_on channel=0 note=69 velocity=0 time=113\n",
      "note_on channel=0 note=71 velocity=33 time=7\n",
      "note_on channel=0 note=71 velocity=0 time=113\n",
      "note_on channel=0 note=72 velocity=33 time=7\n",
      "note_on channel=0 note=72 velocity=0 time=113\n",
      "note_on channel=0 note=74 velocity=33 time=7\n",
      "note_on channel=0 note=74 velocity=0 time=455\n",
      "note_on channel=0 note=50 velocity=33 time=625\n",
      "note_on channel=0 note=50 velocity=0 time=113\n",
      "note_on channel=0 note=52 velocity=33 time=7\n",
      "note_on channel=0 note=52 velocity=0 time=113\n",
      "note_on channel=0 note=54 velocity=33 time=7\n",
      "note_on channel=0 note=54 velocity=0 time=113\n",
      "note_on channel=0 note=55 velocity=33 time=7\n",
      "note_on channel=0 note=55 velocity=0 time=113\n",
      "note_on channel=0 note=57 velocity=33 time=7\n",
      "note_on channel=0 note=57 velocity=0 time=113\n",
      "note_on channel=0 note=59 velocity=33 time=7\n",
      "note_on channel=0 note=59 velocity=0 time=113\n",
      "note_on channel=0 note=60 velocity=33 time=7\n",
      "note_on channel=0 note=60 velocity=0 time=113\n",
      "note_on channel=0 note=62 velocity=33 time=7\n",
      "note_on channel=0 note=62 velocity=0 time=455\n",
      "note_on channel=0 note=62 velocity=33 time=625\n",
      "note_on channel=0 note=62 velocity=0 time=113\n",
      "note_on channel=0 note=64 velocity=33 time=7\n",
      "note_on channel=0 note=64 velocity=0 time=113\n",
      "note_on channel=0 note=66 velocity=33 time=7\n",
      "note_on channel=0 note=66 velocity=0 time=113\n",
      "note_on channel=0 note=67 velocity=33 time=7\n",
      "note_on channel=0 note=67 velocity=0 time=113\n",
      "note_on channel=0 note=69 velocity=33 time=7\n",
      "note_on channel=0 note=69 velocity=0 time=113\n",
      "note_on channel=0 note=71 velocity=33 time=7\n",
      "note_on channel=0 note=71 velocity=0 time=113\n",
      "note_on channel=0 note=72 velocity=33 time=7\n",
      "note_on channel=0 note=72 velocity=0 time=113\n",
      "note_on channel=0 note=74 velocity=33 time=7\n",
      "control_change channel=0 control=64 value=127 time=2\n",
      "note_on channel=0 note=74 velocity=0 time=111\n",
      "note_on channel=0 note=62 velocity=34 time=7\n",
      "note_on channel=0 note=62 velocity=0 time=113\n",
      "note_on channel=0 note=64 velocity=35 time=7\n",
      "note_on channel=0 note=64 velocity=0 time=113\n",
      "note_on channel=0 note=66 velocity=37 time=7\n",
      "note_on channel=0 note=66 velocity=0 time=113\n",
      "note_on channel=0 note=67 velocity=38 time=7\n",
      "note_on channel=0 note=67 velocity=0 time=113\n",
      "note_on channel=0 note=69 velocity=40 time=7\n",
      "note_on channel=0 note=69 velocity=0 time=113\n",
      "note_on channel=0 note=71 velocity=41 time=7\n",
      "note_on channel=0 note=71 velocity=0 time=113\n",
      "note_on channel=0 note=72 velocity=43 time=7\n",
      "note_on channel=0 note=72 velocity=0 time=113\n",
      "note_on channel=0 note=74 velocity=44 time=7\n",
      "control_change channel=0 control=64 value=0 time=1\n",
      "control_change channel=0 control=64 value=127 time=1\n",
      "note_on channel=0 note=74 velocity=0 time=111\n",
      "note_on channel=0 note=62 velocity=46 time=7\n",
      "note_on channel=0 note=62 velocity=0 time=113\n",
      "note_on channel=0 note=64 velocity=47 time=7\n",
      "note_on channel=0 note=64 velocity=0 time=113\n",
      "note_on channel=0 note=66 velocity=49 time=7\n",
      "note_on channel=0 note=66 velocity=0 time=113\n",
      "note_on channel=0 note=67 velocity=50 time=7\n",
      "note_on channel=0 note=67 velocity=0 time=113\n",
      "note_on channel=0 note=69 velocity=52 time=7\n",
      "note_on channel=0 note=69 velocity=0 time=113\n",
      "note_on channel=0 note=71 velocity=53 time=7\n",
      "note_on channel=0 note=71 velocity=0 time=113\n",
      "note_on channel=0 note=72 velocity=55 time=7\n",
      "note_on channel=0 note=72 velocity=0 time=113\n",
      "note_on channel=0 note=74 velocity=56 time=7\n",
      "control_change channel=0 control=64 value=0 time=1\n",
      "control_change channel=0 control=64 value=127 time=1\n",
      "note_on channel=0 note=74 velocity=0 time=111\n",
      "note_on channel=0 note=62 velocity=57 time=7\n",
      "note_on channel=0 note=62 velocity=0 time=113\n",
      "note_on channel=0 note=64 velocity=59 time=7\n",
      "note_on channel=0 note=64 velocity=0 time=113\n",
      "note_on channel=0 note=66 velocity=60 time=7\n",
      "note_on channel=0 note=66 velocity=0 time=113\n",
      "note_on channel=0 note=67 velocity=62 time=7\n",
      "note_on channel=0 note=67 velocity=0 time=113\n",
      "note_on channel=0 note=69 velocity=63 time=7\n",
      "note_on channel=0 note=69 velocity=0 time=113\n",
      "note_on channel=0 note=71 velocity=65 time=7\n",
      "note_on channel=0 note=71 velocity=0 time=113\n",
      "note_on channel=0 note=72 velocity=66 time=7\n",
      "note_on channel=0 note=72 velocity=0 time=113\n",
      "note_on channel=0 note=74 velocity=68 time=7\n",
      "control_change channel=0 control=64 value=0 time=1\n",
      "control_change channel=0 control=64 value=127 time=1\n",
      "note_on channel=0 note=74 velocity=0 time=111\n",
      "note_on channel=0 note=62 velocity=69 time=7\n",
      "note_on channel=0 note=62 velocity=0 time=113\n",
      "note_on channel=0 note=64 velocity=71 time=7\n",
      "note_on channel=0 note=64 velocity=0 time=113\n",
      "note_on channel=0 note=66 velocity=72 time=7\n",
      "note_on channel=0 note=66 velocity=0 time=113\n",
      "note_on channel=0 note=67 velocity=74 time=7\n",
      "note_on channel=0 note=67 velocity=0 time=113\n",
      "note_on channel=0 note=69 velocity=75 time=7\n",
      "note_on channel=0 note=69 velocity=0 time=113\n",
      "note_on channel=0 note=71 velocity=77 time=7\n",
      "note_on channel=0 note=71 velocity=0 time=113\n",
      "note_on channel=0 note=72 velocity=78 time=7\n",
      "note_on channel=0 note=72 velocity=0 time=113\n",
      "note_on channel=0 note=74 velocity=80 time=7\n",
      "control_change channel=0 control=64 value=0 time=1\n",
      "note_on channel=0 note=74 velocity=0 time=226\n",
      "note_on channel=0 note=43 velocity=96 time=12253\n",
      "note_on channel=0 note=55 velocity=96 time=0\n",
      "note_on channel=0 note=43 velocity=0 time=227\n",
      "note_on channel=0 note=55 velocity=0 time=0\n",
      "note_on channel=0 note=45 velocity=96 time=253\n",
      "note_on channel=0 note=57 velocity=96 time=0\n",
      "note_on channel=0 note=45 velocity=0 time=227\n",
      "note_on channel=0 note=57 velocity=0 time=0\n",
      "note_on channel=0 note=47 velocity=96 time=253\n",
      "note_on channel=0 note=59 velocity=96 time=0\n",
      "note_on channel=0 note=47 velocity=0 time=227\n",
      "note_on channel=0 note=59 velocity=0 time=0\n",
      "note_on channel=0 note=37 velocity=96 time=253\n",
      "note_on channel=0 note=49 velocity=96 time=0\n",
      "note_on channel=0 note=37 velocity=0 time=227\n",
      "note_on channel=0 note=49 velocity=0 time=0\n",
      "note_on channel=0 note=38 velocity=96 time=253\n",
      "note_on channel=0 note=50 velocity=96 time=0\n",
      "note_on channel=0 note=38 velocity=0 time=227\n",
      "note_on channel=0 note=50 velocity=0 time=0\n",
      "note_on channel=0 note=40 velocity=96 time=1213\n",
      "note_on channel=0 note=52 velocity=96 time=0\n",
      "note_on channel=0 note=40 velocity=0 time=227\n",
      "note_on channel=0 note=52 velocity=0 time=0\n",
      "note_on channel=0 note=45 velocity=96 time=253\n",
      "note_on channel=0 note=57 velocity=96 time=0\n",
      "note_on channel=0 note=45 velocity=0 time=227\n",
      "note_on channel=0 note=57 velocity=0 time=0\n",
      "note_on channel=0 note=47 velocity=96 time=253\n",
      "note_on channel=0 note=59 velocity=96 time=0\n",
      "note_on channel=0 note=47 velocity=0 time=227\n",
      "note_on channel=0 note=59 velocity=0 time=0\n",
      "note_on channel=0 note=48 velocity=96 time=253\n",
      "note_on channel=0 note=60 velocity=96 time=0\n",
      "note_on channel=0 note=48 velocity=0 time=227\n",
      "note_on channel=0 note=60 velocity=0 time=0\n",
      "note_on channel=0 note=39 velocity=96 time=253\n",
      "note_on channel=0 note=51 velocity=96 time=0\n",
      "note_on channel=0 note=39 velocity=0 time=227\n",
      "note_on channel=0 note=51 velocity=0 time=0\n",
      "note_on channel=0 note=40 velocity=80 time=253\n",
      "note_on channel=0 note=52 velocity=80 time=0\n",
      "note_on channel=0 note=40 velocity=0 time=227\n",
      "note_on channel=0 note=52 velocity=0 time=0\n",
      "note_on channel=0 note=42 velocity=69 time=1213\n",
      "note_on channel=0 note=54 velocity=69 time=0\n",
      "note_on channel=0 note=42 velocity=0 time=227\n",
      "note_on channel=0 note=54 velocity=0 time=0\n",
      "note_on channel=0 note=47 velocity=64 time=253\n",
      "note_on channel=0 note=59 velocity=64 time=0\n",
      "note_on channel=0 note=47 velocity=0 time=227\n",
      "note_on channel=0 note=59 velocity=0 time=0\n",
      "note_on channel=0 note=49 velocity=64 time=253\n",
      "note_on channel=0 note=61 velocity=64 time=0\n",
      "note_on channel=0 note=49 velocity=0 time=227\n",
      "note_on channel=0 note=61 velocity=0 time=0\n",
      "note_on channel=0 note=50 velocity=64 time=253\n",
      "note_on channel=0 note=62 velocity=64 time=0\n",
      "note_on channel=0 note=50 velocity=0 time=227\n",
      "note_on channel=0 note=62 velocity=0 time=0\n",
      "note_on channel=0 note=44 velocity=64 time=253\n",
      "note_on channel=0 note=56 velocity=64 time=0\n",
      "note_on channel=0 note=44 velocity=0 time=227\n",
      "note_on channel=0 note=56 velocity=0 time=0\n",
      "note_on channel=0 note=45 velocity=64 time=253\n",
      "note_on channel=0 note=57 velocity=64 time=0\n",
      "note_on channel=0 note=45 velocity=0 time=227\n",
      "note_on channel=0 note=57 velocity=0 time=0\n",
      "note_on channel=0 note=47 velocity=64 time=253\n",
      "note_on channel=0 note=59 velocity=64 time=0\n",
      "note_on channel=0 note=47 velocity=0 time=227\n",
      "note_on channel=0 note=59 velocity=0 time=0\n",
      "note_on channel=0 note=48 velocity=64 time=253\n",
      "note_on channel=0 note=60 velocity=64 time=0\n",
      "note_on channel=0 note=48 velocity=0 time=227\n",
      "note_on channel=0 note=60 velocity=0 time=0\n",
      "note_on channel=0 note=42 velocity=64 time=253\n",
      "note_on channel=0 note=54 velocity=64 time=0\n",
      "note_on channel=0 note=42 velocity=0 time=227\n",
      "note_on channel=0 note=54 velocity=0 time=0\n",
      "note_on channel=0 note=43 velocity=64 time=253\n",
      "note_on channel=0 note=55 velocity=64 time=0\n",
      "note_on channel=0 note=43 velocity=0 time=227\n",
      "note_on channel=0 note=55 velocity=0 time=0\n",
      "note_on channel=0 note=45 velocity=64 time=253\n",
      "note_on channel=0 note=57 velocity=64 time=0\n",
      "note_on channel=0 note=45 velocity=0 time=227\n",
      "note_on channel=0 note=57 velocity=0 time=0\n",
      "note_on channel=0 note=47 velocity=64 time=253\n",
      "note_on channel=0 note=59 velocity=64 time=0\n",
      "note_on channel=0 note=47 velocity=0 time=227\n",
      "note_on channel=0 note=59 velocity=0 time=0\n",
      "note_on channel=0 note=37 velocity=64 time=253\n",
      "note_on channel=0 note=49 velocity=64 time=0\n",
      "note_on channel=0 note=37 velocity=0 time=227\n",
      "note_on channel=0 note=49 velocity=0 time=0\n",
      "note_on channel=0 note=38 velocity=64 time=253\n",
      "note_on channel=0 note=50 velocity=64 time=0\n",
      "note_on channel=0 note=38 velocity=0 time=227\n",
      "note_on channel=0 note=50 velocity=0 time=0\n",
      "note_on channel=0 note=43 velocity=64 time=253\n",
      "note_on channel=0 note=55 velocity=64 time=0\n",
      "note_on channel=0 note=43 velocity=0 time=227\n",
      "note_on channel=0 note=55 velocity=0 time=0\n",
      "note_on channel=0 note=47 velocity=64 time=253\n",
      "note_on channel=0 note=59 velocity=64 time=0\n",
      "note_on channel=0 note=47 velocity=0 time=227\n",
      "note_on channel=0 note=59 velocity=0 time=0\n",
      "note_on channel=0 note=39 velocity=64 time=253\n",
      "note_on channel=0 note=51 velocity=64 time=0\n",
      "note_on channel=0 note=39 velocity=0 time=227\n",
      "note_on channel=0 note=51 velocity=0 time=0\n",
      "note_on channel=0 note=40 velocity=64 time=253\n",
      "note_on channel=0 note=52 velocity=64 time=0\n",
      "note_on channel=0 note=40 velocity=0 time=227\n",
      "note_on channel=0 note=52 velocity=0 time=0\n",
      "note_on channel=0 note=43 velocity=64 time=253\n",
      "note_on channel=0 note=55 velocity=64 time=0\n",
      "note_on channel=0 note=43 velocity=0 time=227\n",
      "note_on channel=0 note=55 velocity=0 time=0\n",
      "note_on channel=0 note=47 velocity=64 time=253\n",
      "note_on channel=0 note=59 velocity=64 time=0\n",
      "note_on channel=0 note=47 velocity=0 time=227\n",
      "note_on channel=0 note=59 velocity=0 time=0\n",
      "note_on channel=0 note=40 velocity=64 time=253\n",
      "note_on channel=0 note=52 velocity=64 time=0\n",
      "note_on channel=0 note=40 velocity=0 time=227\n",
      "note_on channel=0 note=52 velocity=0 time=0\n",
      "note_on channel=0 note=41 velocity=64 time=253\n",
      "note_on channel=0 note=53 velocity=64 time=0\n",
      "note_on channel=0 note=41 velocity=0 time=227\n",
      "note_on channel=0 note=53 velocity=0 time=0\n",
      "note_on channel=0 note=47 velocity=61 time=253\n",
      "note_on channel=0 note=59 velocity=61 time=0\n",
      "note_on channel=0 note=47 velocity=0 time=227\n",
      "note_on channel=0 note=59 velocity=0 time=0\n",
      "note_on channel=0 note=50 velocity=57 time=253\n",
      "note_on channel=0 note=62 velocity=57 time=0\n",
      "note_on channel=0 note=50 velocity=0 time=227\n",
      "note_on channel=0 note=62 velocity=0 time=0\n",
      "note_on channel=0 note=53 velocity=53 time=253\n",
      "note_on channel=0 note=65 velocity=53 time=0\n",
      "note_on channel=0 note=53 velocity=0 time=227\n",
      "note_on channel=0 note=65 velocity=0 time=0\n",
      "note_on channel=0 note=64 velocity=33 time=253\n",
      "note_on channel=0 note=67 velocity=33 time=0\n",
      "note_on channel=0 note=72 velocity=33 time=0\n",
      "control_change channel=0 control=64 value=127 time=2\n",
      "note_on channel=0 note=64 velocity=0 time=225\n",
      "note_on channel=0 note=67 velocity=0 time=13\n",
      "note_on channel=0 note=67 velocity=33 time=0\n",
      "note_on channel=0 note=72 velocity=0 time=215\n",
      "note_on channel=0 note=67 velocity=0 time=12\n",
      "note_on channel=0 note=64 velocity=33 time=13\n",
      "note_on channel=0 note=64 velocity=0 time=227\n",
      "note_on channel=0 note=67 velocity=33 time=13\n",
      "note_on channel=0 note=67 velocity=0 time=227\n",
      "note_on channel=0 note=64 velocity=33 time=13\n",
      "note_on channel=0 note=64 velocity=0 time=227\n",
      "note_on channel=0 note=67 velocity=33 time=13\n",
      "note_on channel=0 note=67 velocity=0 time=227\n",
      "note_on channel=0 note=64 velocity=33 time=13\n",
      "note_on channel=0 note=64 velocity=0 time=227\n",
      "note_on channel=0 note=67 velocity=33 time=13\n",
      "note_on channel=0 note=67 velocity=0 time=227\n",
      "note_on channel=0 note=65 velocity=33 time=13\n",
      "control_change channel=0 control=64 value=0 time=1\n",
      "control_change channel=0 control=64 value=127 time=1\n",
      "note_on channel=0 note=65 velocity=0 time=225\n",
      "note_on channel=0 note=67 velocity=33 time=13\n",
      "note_on channel=0 note=67 velocity=0 time=227\n",
      "note_on channel=0 note=65 velocity=33 time=13\n",
      "note_on channel=0 note=65 velocity=0 time=227\n",
      "note_on channel=0 note=67 velocity=33 time=13\n",
      "note_on channel=0 note=67 velocity=0 time=227\n",
      "note_on channel=0 note=65 velocity=33 time=13\n",
      "note_on channel=0 note=65 velocity=0 time=227\n",
      "note_on channel=0 note=67 velocity=33 time=13\n",
      "note_on channel=0 note=67 velocity=0 time=227\n",
      "note_on channel=0 note=65 velocity=33 time=13\n",
      "note_on channel=0 note=65 velocity=0 time=227\n",
      "note_on channel=0 note=67 velocity=33 time=13\n",
      "note_on channel=0 note=67 velocity=0 time=227\n",
      "note_on channel=0 note=64 velocity=49 time=13\n",
      "control_change channel=0 control=64 value=0 time=1\n",
      "control_change channel=0 control=64 value=127 time=1\n",
      "note_on channel=0 note=64 velocity=0 time=453\n",
      "note_on channel=0 note=59 velocity=49 time=505\n",
      "control_change channel=0 control=64 value=0 time=1\n",
      "control_change channel=0 control=64 value=127 time=1\n",
      "note_on channel=0 note=59 velocity=0 time=111\n",
      "note_on channel=0 note=60 velocity=49 time=7\n",
      "note_on channel=0 note=60 velocity=0 time=113\n",
      "note_on channel=0 note=62 velocity=49 time=7\n",
      "note_on channel=0 note=62 velocity=0 time=113\n",
      "note_on channel=0 note=64 velocity=49 time=7\n",
      "note_on channel=0 note=64 velocity=0 time=113\n",
      "note_on channel=0 note=65 velocity=49 time=7\n",
      "note_on channel=0 note=65 velocity=0 time=113\n",
      "note_on channel=0 note=67 velocity=49 time=7\n",
      "note_on channel=0 note=67 velocity=0 time=113\n",
      "note_on channel=0 note=69 velocity=49 time=7\n",
      "note_on channel=0 note=69 velocity=0 time=113\n",
      "note_on channel=0 note=71 velocity=49 time=7\n",
      "note_on channel=0 note=71 velocity=0 time=113\n",
      "note_on channel=0 note=60 velocity=49 time=7\n",
      "control_change channel=0 control=64 value=0 time=1\n",
      "control_change channel=0 control=64 value=127 time=1\n",
      "note_on channel=0 note=60 velocity=0 time=111\n",
      "note_on channel=0 note=62 velocity=49 time=7\n",
      "note_on channel=0 note=62 velocity=0 time=113\n",
      "note_on channel=0 note=64 velocity=50 time=7\n",
      "note_on channel=0 note=64 velocity=0 time=113\n",
      "note_on channel=0 note=65 velocity=51 time=7\n",
      "note_on channel=0 note=65 velocity=0 time=113\n",
      "note_on channel=0 note=67 velocity=52 time=7\n",
      "note_on channel=0 note=67 velocity=0 time=113\n",
      "note_on channel=0 note=69 velocity=53 time=7\n",
      "note_on channel=0 note=69 velocity=0 time=113\n",
      "note_on channel=0 note=71 velocity=54 time=7\n",
      "note_on channel=0 note=71 velocity=0 time=113\n",
      "note_on channel=0 note=72 velocity=55 time=7\n",
      "note_on channel=0 note=72 velocity=0 time=113\n",
      "note_on channel=0 note=62 velocity=56 time=7\n",
      "control_change channel=0 control=64 value=0 time=1\n",
      "control_change channel=0 control=64 value=127 time=1\n",
      "note_on channel=0 note=62 velocity=0 time=111\n",
      "note_on channel=0 note=64 velocity=57 time=7\n",
      "note_on channel=0 note=64 velocity=0 time=113\n",
      "note_on channel=0 note=66 velocity=58 time=7\n",
      "note_on channel=0 note=66 velocity=0 time=113\n",
      "note_on channel=0 note=67 velocity=59 time=7\n",
      "note_on channel=0 note=67 velocity=0 time=113\n",
      "note_on channel=0 note=69 velocity=60 time=7\n",
      "note_on channel=0 note=69 velocity=0 time=113\n",
      "note_on channel=0 note=71 velocity=61 time=7\n",
      "note_on channel=0 note=71 velocity=0 time=113\n",
      "note_on channel=0 note=72 velocity=62 time=7\n",
      "note_on channel=0 note=72 velocity=0 time=113\n",
      "note_on channel=0 note=74 velocity=63 time=7\n",
      "note_on channel=0 note=74 velocity=0 time=113\n",
      "note_on channel=0 note=43 velocity=49 time=7\n",
      "control_change channel=0 control=64 value=0 time=1\n",
      "control_change channel=0 control=64 value=127 time=1\n",
      "note_on channel=0 note=43 velocity=0 time=225\n",
      "note_on channel=0 note=62 velocity=49 time=13\n",
      "note_on channel=0 note=62 velocity=0 time=227\n",
      "note_on channel=0 note=59 velocity=49 time=13\n",
      "note_on channel=0 note=59 velocity=0 time=227\n",
      "note_on channel=0 note=62 velocity=49 time=13\n",
      "note_on channel=0 note=62 velocity=0 time=227\n",
      "note_on channel=0 note=59 velocity=49 time=13\n",
      "note_on channel=0 note=59 velocity=0 time=227\n",
      "note_on channel=0 note=62 velocity=49 time=13\n",
      "note_on channel=0 note=62 velocity=0 time=227\n",
      "note_on channel=0 note=59 velocity=49 time=13\n",
      "note_on channel=0 note=59 velocity=0 time=227\n",
      "note_on channel=0 note=62 velocity=49 time=13\n",
      "note_on channel=0 note=62 velocity=0 time=227\n",
      "note_on channel=0 note=60 velocity=49 time=13\n",
      "control_change channel=0 control=64 value=0 time=1\n",
      "control_change channel=0 control=64 value=127 time=1\n",
      "note_on channel=0 note=60 velocity=0 time=225\n",
      "note_on channel=0 note=62 velocity=49 time=13\n",
      "note_on channel=0 note=62 velocity=0 time=227\n",
      "note_on channel=0 note=60 velocity=49 time=13\n",
      "note_on channel=0 note=60 velocity=0 time=227\n",
      "note_on channel=0 note=62 velocity=49 time=13\n",
      "note_on channel=0 note=62 velocity=0 time=227\n",
      "note_on channel=0 note=60 velocity=49 time=13\n",
      "note_on channel=0 note=60 velocity=0 time=227\n",
      "note_on channel=0 note=62 velocity=49 time=13\n",
      "note_on channel=0 note=62 velocity=0 time=227\n",
      "note_on channel=0 note=60 velocity=49 time=13\n",
      "note_on channel=0 note=60 velocity=0 time=227\n",
      "note_on channel=0 note=62 velocity=49 time=13\n",
      "note_on channel=0 note=62 velocity=0 time=227\n",
      "control_change channel=0 control=64 value=0 time=14\n",
      "control_change channel=0 control=64 value=127 time=1\n",
      "note_on channel=0 note=55 velocity=64 time=118\n",
      "note_on channel=0 note=55 velocity=0 time=113\n",
      "note_on channel=0 note=59 velocity=64 time=7\n",
      "note_on channel=0 note=59 velocity=0 time=113\n",
      "note_on channel=0 note=62 velocity=65 time=7\n",
      "note_on channel=0 note=62 velocity=0 time=113\n",
      "note_on channel=0 note=67 velocity=67 time=7\n",
      "note_on channel=0 note=67 velocity=0 time=227\n",
      "control_change channel=0 control=64 value=0 time=1214\n",
      "note_on channel=0 note=50 velocity=90 time=119\n",
      "control_change channel=0 control=64 value=127 time=2\n",
      "note_on channel=0 note=50 velocity=0 time=111\n",
      "note_on channel=0 note=57 velocity=90 time=7\n",
      "note_on channel=0 note=57 velocity=0 time=113\n",
      "note_on channel=0 note=60 velocity=90 time=7\n",
      "note_on channel=0 note=60 velocity=0 time=113\n",
      "note_on channel=0 note=62 velocity=90 time=7\n",
      "note_on channel=0 note=62 velocity=0 time=227\n",
      "control_change channel=0 control=64 value=0 time=1214\n",
      "note_on channel=0 note=43 velocity=90 time=119\n",
      "control_change channel=0 control=64 value=127 time=2\n",
      "note_on channel=0 note=43 velocity=0 time=111\n",
      "note_on channel=0 note=47 velocity=90 time=7\n",
      "note_on channel=0 note=47 velocity=0 time=113\n",
      "note_on channel=0 note=50 velocity=90 time=7\n",
      "note_on channel=0 note=50 velocity=0 time=113\n",
      "note_on channel=0 note=55 velocity=90 time=7\n",
      "note_on channel=0 note=55 velocity=0 time=227\n",
      "control_change channel=0 control=64 value=0 time=1214\n",
      "note_on channel=0 note=38 velocity=90 time=119\n",
      "control_change channel=0 control=64 value=127 time=2\n",
      "note_on channel=0 note=38 velocity=0 time=111\n",
      "note_on channel=0 note=45 velocity=90 time=7\n",
      "note_on channel=0 note=45 velocity=0 time=113\n",
      "note_on channel=0 note=48 velocity=90 time=7\n",
      "note_on channel=0 note=48 velocity=0 time=113\n",
      "note_on channel=0 note=50 velocity=90 time=7\n",
      "note_on channel=0 note=50 velocity=0 time=227\n",
      "control_change channel=0 control=64 value=0 time=1214\n",
      "note_on channel=0 note=55 velocity=90 time=119\n",
      "control_change channel=0 control=64 value=127 time=2\n",
      "note_on channel=0 note=55 velocity=0 time=111\n",
      "note_on channel=0 note=59 velocity=90 time=7\n",
      "note_on channel=0 note=59 velocity=0 time=113\n",
      "note_on channel=0 note=62 velocity=90 time=7\n",
      "note_on channel=0 note=62 velocity=0 time=113\n",
      "note_on channel=0 note=67 velocity=108 time=7\n",
      "note_on channel=0 note=67 velocity=0 time=239\n",
      "control_change channel=0 control=64 value=0 time=242\n",
      "note_on channel=0 note=47 velocity=90 time=119\n",
      "control_change channel=0 control=64 value=127 time=2\n",
      "note_on channel=0 note=47 velocity=0 time=111\n",
      "note_on channel=0 note=51 velocity=90 time=7\n",
      "note_on channel=0 note=51 velocity=0 time=113\n",
      "note_on channel=0 note=54 velocity=90 time=7\n",
      "note_on channel=0 note=54 velocity=0 time=113\n",
      "note_on channel=0 note=59 velocity=108 time=7\n",
      "note_on channel=0 note=59 velocity=0 time=239\n",
      "control_change channel=0 control=64 value=0 time=242\n",
      "note_on channel=0 note=40 velocity=90 time=119\n",
      "control_change channel=0 control=64 value=127 time=2\n",
      "note_on channel=0 note=40 velocity=0 time=111\n",
      "note_on channel=0 note=43 velocity=90 time=7\n",
      "note_on channel=0 note=43 velocity=0 time=113\n",
      "note_on channel=0 note=47 velocity=90 time=7\n",
      "note_on channel=0 note=47 velocity=0 time=113\n",
      "note_on channel=0 note=52 velocity=90 time=7\n",
      "note_on channel=0 note=52 velocity=0 time=227\n",
      "control_change channel=0 control=64 value=0 time=254\n",
      "note_on channel=0 note=43 velocity=90 time=119\n",
      "control_change channel=0 control=64 value=127 time=2\n",
      "note_on channel=0 note=43 velocity=0 time=111\n",
      "note_on channel=0 note=47 velocity=90 time=7\n",
      "note_on channel=0 note=47 velocity=0 time=113\n",
      "note_on channel=0 note=50 velocity=90 time=7\n",
      "note_on channel=0 note=50 velocity=0 time=113\n",
      "note_on channel=0 note=55 velocity=90 time=7\n",
      "note_on channel=0 note=55 velocity=0 time=227\n",
      "note_on channel=0 note=48 velocity=108 time=253\n",
      "control_change channel=0 control=64 value=0 time=1\n",
      "control_change channel=0 control=64 value=127 time=1\n",
      "note_on channel=0 note=48 velocity=0 time=157\n",
      "note_on channel=0 note=52 velocity=111 time=321\n",
      "note_on channel=0 note=52 velocity=0 time=159\n",
      "note_on channel=0 note=57 velocity=115 time=321\n",
      "control_change channel=0 control=64 value=0 time=1\n",
      "control_change channel=0 control=64 value=127 time=1\n",
      "note_on channel=0 note=57 velocity=0 time=157\n",
      "note_on channel=0 note=50 velocity=118 time=321\n",
      "note_on channel=0 note=50 velocity=0 time=159\n",
      "note_on channel=0 note=55 velocity=122 time=321\n",
      "control_change channel=0 control=64 value=0 time=1\n",
      "control_change channel=0 control=64 value=127 time=1\n",
      "note_on channel=0 note=55 velocity=0 time=157\n",
      "note_on channel=0 note=51 velocity=126 time=321\n",
      "note_on channel=0 note=51 velocity=0 time=159\n",
      "note_on channel=0 note=39 velocity=127 time=321\n",
      "note_on channel=0 note=39 velocity=0 time=159\n",
      "note_on channel=0 note=51 velocity=112 time=321\n",
      "note_on channel=0 note=63 velocity=112 time=0\n",
      "control_change channel=0 control=64 value=0 time=1\n",
      "note_on channel=0 note=51 velocity=0 time=226\n",
      "note_on channel=0 note=63 velocity=0 time=0\n",
      "note_on channel=0 note=57 velocity=127 time=2173\n",
      "control_change channel=0 control=64 value=127 time=2\n",
      "note_on channel=0 note=57 velocity=0 time=157\n",
      "note_on channel=0 note=45 velocity=127 time=321\n",
      "note_on channel=0 note=45 velocity=0 time=159\n",
      "note_on channel=0 note=33 velocity=127 time=321\n",
      "note_on channel=0 note=33 velocity=0 time=159\n",
      "note_on channel=0 note=45 velocity=112 time=321\n",
      "note_on channel=0 note=49 velocity=112 time=0\n",
      "note_on channel=0 note=52 velocity=112 time=0\n",
      "note_on channel=0 note=57 velocity=112 time=0\n",
      "control_change channel=0 control=64 value=0 time=1\n",
      "note_on channel=0 note=45 velocity=0 time=226\n",
      "note_on channel=0 note=49 velocity=0 time=0\n",
      "note_on channel=0 note=52 velocity=0 time=0\n",
      "note_on channel=0 note=57 velocity=0 time=0\n",
      "note_on channel=0 note=38 velocity=90 time=2173\n",
      "control_change channel=0 control=64 value=127 time=2\n",
      "note_on channel=0 note=38 velocity=0 time=225\n",
      "note_on channel=0 note=57 velocity=90 time=1693\n",
      "control_change channel=0 control=64 value=0 time=1\n",
      "control_change channel=0 control=64 value=127 time=1\n",
      "note_on channel=0 note=57 velocity=0 time=53\n",
      "note_on channel=0 note=59 velocity=90 time=5\n",
      "note_on channel=0 note=59 velocity=0 time=55\n",
      "note_on channel=0 note=57 velocity=90 time=5\n",
      "note_on channel=0 note=57 velocity=0 time=55\n",
      "note_on channel=0 note=59 velocity=90 time=5\n",
      "note_on channel=0 note=59 velocity=0 time=55\n",
      "note_on channel=0 note=57 velocity=90 time=5\n",
      "note_on channel=0 note=57 velocity=0 time=55\n",
      "note_on channel=0 note=59 velocity=90 time=5\n",
      "note_on channel=0 note=59 velocity=0 time=55\n",
      "note_on channel=0 note=57 velocity=90 time=5\n",
      "note_on channel=0 note=57 velocity=0 time=55\n",
      "note_on channel=0 note=59 velocity=90 time=5\n",
      "note_on channel=0 note=59 velocity=0 time=55\n",
      "note_on channel=0 note=69 velocity=90 time=5\n",
      "note_on channel=0 note=69 velocity=0 time=55\n",
      "note_on channel=0 note=71 velocity=90 time=5\n",
      "note_on channel=0 note=71 velocity=0 time=55\n",
      "note_on channel=0 note=69 velocity=90 time=5\n",
      "note_on channel=0 note=69 velocity=0 time=55\n",
      "note_on channel=0 note=71 velocity=90 time=5\n",
      "note_on channel=0 note=71 velocity=0 time=55\n",
      "note_on channel=0 note=69 velocity=90 time=5\n",
      "note_on channel=0 note=69 velocity=0 time=55\n",
      "note_on channel=0 note=71 velocity=90 time=5\n",
      "note_on channel=0 note=71 velocity=0 time=55\n",
      "note_on channel=0 note=69 velocity=90 time=5\n",
      "note_on channel=0 note=69 velocity=0 time=55\n",
      "note_on channel=0 note=71 velocity=90 time=5\n",
      "note_on channel=0 note=71 velocity=0 time=55\n",
      "note_on channel=0 note=81 velocity=90 time=5\n",
      "control_change channel=0 control=64 value=0 time=1\n",
      "control_change channel=0 control=64 value=127 time=1\n",
      "note_on channel=0 note=81 velocity=0 time=52\n",
      "note_on channel=0 note=83 velocity=90 time=5\n",
      "note_on channel=0 note=83 velocity=0 time=54\n",
      "note_on channel=0 note=81 velocity=90 time=7\n",
      "note_on channel=0 note=81 velocity=0 time=54\n",
      "note_on channel=0 note=83 velocity=90 time=5\n",
      "note_on channel=0 note=83 velocity=0 time=54\n",
      "note_on channel=0 note=81 velocity=90 time=7\n",
      "note_on channel=0 note=81 velocity=0 time=54\n",
      "note_on channel=0 note=83 velocity=90 time=5\n",
      "note_on channel=0 note=83 velocity=0 time=54\n",
      "note_on channel=0 note=81 velocity=90 time=7\n",
      "note_on channel=0 note=81 velocity=0 time=54\n",
      "note_on channel=0 note=83 velocity=90 time=5\n",
      "note_on channel=0 note=83 velocity=0 time=54\n",
      "note_on channel=0 note=81 velocity=90 time=7\n",
      "note_on channel=0 note=81 velocity=0 time=54\n",
      "note_on channel=0 note=83 velocity=90 time=5\n",
      "note_on channel=0 note=83 velocity=0 time=54\n",
      "note_on channel=0 note=81 velocity=90 time=7\n",
      "note_on channel=0 note=81 velocity=0 time=54\n",
      "note_on channel=0 note=83 velocity=90 time=5\n",
      "note_on channel=0 note=83 velocity=0 time=54\n",
      "note_on channel=0 note=81 velocity=90 time=7\n",
      "note_on channel=0 note=81 velocity=0 time=54\n",
      "note_on channel=0 note=83 velocity=90 time=5\n",
      "note_on channel=0 note=83 velocity=0 time=54\n",
      "note_on channel=0 note=81 velocity=90 time=7\n",
      "note_on channel=0 note=81 velocity=0 time=54\n",
      "note_on channel=0 note=83 velocity=90 time=5\n",
      "note_on channel=0 note=83 velocity=0 time=54\n",
      "note_on channel=0 note=57 velocity=90 time=7\n",
      "control_change channel=0 control=64 value=0 time=1\n",
      "control_change channel=0 control=64 value=127 time=1\n",
      "note_on channel=0 note=57 velocity=0 time=53\n",
      "note_on channel=0 note=59 velocity=90 time=5\n",
      "note_on channel=0 note=59 velocity=0 time=55\n",
      "note_on channel=0 note=57 velocity=90 time=5\n",
      "note_on channel=0 note=57 velocity=0 time=55\n",
      "note_on channel=0 note=59 velocity=90 time=5\n",
      "note_on channel=0 note=59 velocity=0 time=55\n",
      "note_on channel=0 note=57 velocity=90 time=5\n",
      "note_on channel=0 note=57 velocity=0 time=55\n",
      "note_on channel=0 note=59 velocity=90 time=5\n",
      "note_on channel=0 note=59 velocity=0 time=55\n",
      "note_on channel=0 note=57 velocity=90 time=5\n",
      "note_on channel=0 note=57 velocity=0 time=55\n",
      "note_on channel=0 note=59 velocity=90 time=5\n",
      "note_on channel=0 note=59 velocity=0 time=55\n",
      "note_on channel=0 note=69 velocity=90 time=5\n",
      "note_on channel=0 note=69 velocity=0 time=55\n",
      "note_on channel=0 note=71 velocity=90 time=5\n",
      "note_on channel=0 note=71 velocity=0 time=55\n",
      "note_on channel=0 note=69 velocity=90 time=5\n",
      "note_on channel=0 note=69 velocity=0 time=55\n",
      "note_on channel=0 note=71 velocity=90 time=5\n",
      "note_on channel=0 note=71 velocity=0 time=55\n",
      "note_on channel=0 note=69 velocity=90 time=5\n",
      "note_on channel=0 note=69 velocity=0 time=55\n",
      "note_on channel=0 note=71 velocity=90 time=5\n",
      "note_on channel=0 note=71 velocity=0 time=55\n",
      "note_on channel=0 note=69 velocity=90 time=5\n",
      "note_on channel=0 note=69 velocity=0 time=55\n",
      "note_on channel=0 note=71 velocity=90 time=5\n",
      "note_on channel=0 note=71 velocity=0 time=55\n",
      "note_on channel=0 note=81 velocity=90 time=5\n",
      "control_change channel=0 control=64 value=0 time=1\n",
      "control_change channel=0 control=64 value=127 time=1\n",
      "note_on channel=0 note=81 velocity=0 time=52\n",
      "note_on channel=0 note=83 velocity=90 time=5\n",
      "note_on channel=0 note=83 velocity=0 time=54\n",
      "note_on channel=0 note=81 velocity=90 time=7\n",
      "note_on channel=0 note=81 velocity=0 time=54\n",
      "note_on channel=0 note=83 velocity=90 time=5\n",
      "note_on channel=0 note=83 velocity=0 time=54\n",
      "note_on channel=0 note=81 velocity=90 time=7\n",
      "note_on channel=0 note=81 velocity=0 time=54\n",
      "note_on channel=0 note=83 velocity=90 time=5\n",
      "note_on channel=0 note=83 velocity=0 time=54\n",
      "note_on channel=0 note=81 velocity=90 time=7\n",
      "note_on channel=0 note=81 velocity=0 time=54\n",
      "note_on channel=0 note=83 velocity=90 time=5\n",
      "note_on channel=0 note=83 velocity=0 time=54\n",
      "note_on channel=0 note=81 velocity=90 time=7\n",
      "note_on channel=0 note=81 velocity=0 time=54\n",
      "note_on channel=0 note=83 velocity=90 time=5\n",
      "note_on channel=0 note=83 velocity=0 time=54\n",
      "note_on channel=0 note=81 velocity=90 time=7\n",
      "note_on channel=0 note=81 velocity=0 time=54\n",
      "note_on channel=0 note=83 velocity=90 time=5\n",
      "note_on channel=0 note=83 velocity=0 time=54\n",
      "note_on channel=0 note=81 velocity=90 time=7\n",
      "note_on channel=0 note=81 velocity=0 time=54\n",
      "note_on channel=0 note=83 velocity=90 time=5\n",
      "note_on channel=0 note=83 velocity=0 time=54\n",
      "note_on channel=0 note=81 velocity=90 time=7\n",
      "note_on channel=0 note=81 velocity=0 time=54\n",
      "note_on channel=0 note=83 velocity=90 time=5\n",
      "note_on channel=0 note=83 velocity=0 time=54\n",
      "note_on channel=0 note=81 velocity=90 time=7\n",
      "note_on channel=0 note=81 velocity=0 time=54\n",
      "note_on channel=0 note=83 velocity=90 time=5\n",
      "note_on channel=0 note=83 velocity=0 time=54\n",
      "note_on channel=0 note=81 velocity=90 time=7\n",
      "note_on channel=0 note=81 velocity=0 time=54\n",
      "note_on channel=0 note=83 velocity=90 time=5\n",
      "note_on channel=0 note=83 velocity=0 time=54\n",
      "note_on channel=0 note=81 velocity=90 time=7\n",
      "note_on channel=0 note=81 velocity=0 time=54\n",
      "note_on channel=0 note=83 velocity=90 time=5\n",
      "note_on channel=0 note=83 velocity=0 time=54\n",
      "note_on channel=0 note=81 velocity=90 time=7\n",
      "note_on channel=0 note=81 velocity=0 time=54\n",
      "note_on channel=0 note=83 velocity=90 time=5\n",
      "note_on channel=0 note=83 velocity=0 time=54\n",
      "note_on channel=0 note=81 velocity=90 time=7\n",
      "note_on channel=0 note=81 velocity=0 time=54\n",
      "note_on channel=0 note=83 velocity=90 time=5\n",
      "note_on channel=0 note=83 velocity=0 time=54\n",
      "note_on channel=0 note=81 velocity=90 time=7\n",
      "note_on channel=0 note=81 velocity=0 time=54\n",
      "note_on channel=0 note=83 velocity=90 time=5\n",
      "note_on channel=0 note=83 velocity=0 time=54\n",
      "note_on channel=0 note=81 velocity=90 time=7\n",
      "note_on channel=0 note=81 velocity=0 time=54\n",
      "note_on channel=0 note=83 velocity=90 time=5\n",
      "note_on channel=0 note=83 velocity=0 time=54\n",
      "note_on channel=0 note=81 velocity=90 time=7\n",
      "note_on channel=0 note=81 velocity=0 time=54\n",
      "note_on channel=0 note=83 velocity=90 time=5\n",
      "note_on channel=0 note=83 velocity=0 time=54\n",
      "note_on channel=0 note=81 velocity=90 time=7\n",
      "note_on channel=0 note=81 velocity=0 time=54\n",
      "note_on channel=0 note=83 velocity=90 time=5\n",
      "note_on channel=0 note=83 velocity=0 time=54\n",
      "note_on channel=0 note=81 velocity=90 time=7\n",
      "note_on channel=0 note=81 velocity=0 time=54\n",
      "note_on channel=0 note=83 velocity=90 time=5\n",
      "note_on channel=0 note=83 velocity=0 time=54\n",
      "note_on channel=0 note=81 velocity=90 time=7\n",
      "note_on channel=0 note=81 velocity=0 time=54\n",
      "note_on channel=0 note=83 velocity=90 time=5\n",
      "note_on channel=0 note=83 velocity=0 time=54\n",
      "note_on channel=0 note=81 velocity=90 time=7\n",
      "note_on channel=0 note=81 velocity=0 time=54\n",
      "note_on channel=0 note=83 velocity=90 time=5\n",
      "note_on channel=0 note=83 velocity=0 time=54\n",
      "note_on channel=0 note=81 velocity=90 time=7\n",
      "note_on channel=0 note=81 velocity=0 time=54\n",
      "note_on channel=0 note=83 velocity=90 time=5\n",
      "note_on channel=0 note=83 velocity=0 time=54\n",
      "note_on channel=0 note=81 velocity=90 time=7\n",
      "note_on channel=0 note=81 velocity=0 time=54\n",
      "note_on channel=0 note=83 velocity=90 time=5\n",
      "note_on channel=0 note=83 velocity=0 time=54\n",
      "note_on channel=0 note=81 velocity=90 time=7\n",
      "note_on channel=0 note=81 velocity=0 time=54\n",
      "note_on channel=0 note=83 velocity=90 time=5\n",
      "note_on channel=0 note=83 velocity=0 time=54\n",
      "note_on channel=0 note=81 velocity=90 time=7\n",
      "note_on channel=0 note=81 velocity=0 time=54\n",
      "note_on channel=0 note=83 velocity=90 time=5\n",
      "note_on channel=0 note=83 velocity=0 time=54\n",
      "note_on channel=0 note=71 velocity=112 time=7\n",
      "note_on channel=0 note=74 velocity=112 time=0\n",
      "note_on channel=0 note=77 velocity=112 time=0\n",
      "note_on channel=0 note=80 velocity=112 time=0\n",
      "control_change channel=0 control=64 value=0 time=1\n",
      "control_change channel=0 control=64 value=127 time=1\n",
      "note_on channel=0 note=71 velocity=0 time=1365\n",
      "note_on channel=0 note=74 velocity=0 time=0\n",
      "note_on channel=0 note=77 velocity=0 time=0\n",
      "note_on channel=0 note=80 velocity=0 time=0\n",
      "control_change channel=0 control=64 value=0 time=74\n",
      "control_change channel=0 control=64 value=127 time=1\n",
      "control_change channel=0 control=64 value=0 time=479\n",
      "control_change channel=0 control=64 value=127 time=961\n",
      "note_on channel=0 note=60 velocity=33 time=478\n",
      "note_on channel=0 note=64 velocity=33 time=0\n",
      "note_on channel=0 note=69 velocity=33 time=0\n",
      "control_change channel=0 control=64 value=0 time=1\n",
      "control_change channel=0 control=64 value=127 time=1\n",
      "note_on channel=0 note=69 velocity=0 time=318\n",
      "note_on channel=0 note=60 velocity=0 time=135\n",
      "note_on channel=0 note=64 velocity=0 time=0\n",
      "control_change channel=0 control=64 value=0 time=26\n",
      "control_change channel=0 control=64 value=127 time=1\n",
      "note_on channel=0 note=62 velocity=33 time=478\n",
      "note_on channel=0 note=67 velocity=33 time=0\n",
      "control_change channel=0 control=64 value=0 time=1\n",
      "control_change channel=0 control=64 value=127 time=1\n",
      "note_on channel=0 note=67 velocity=0 time=318\n",
      "note_on channel=0 note=62 velocity=0 time=135\n",
      "control_change channel=0 control=64 value=0 time=26\n",
      "control_change channel=0 control=64 value=127 time=1\n",
      "note_on channel=0 note=60 velocity=33 time=478\n",
      "note_on channel=0 note=62 velocity=33 time=0\n",
      "control_change channel=0 control=64 value=0 time=1\n",
      "control_change channel=0 control=64 value=127 time=1\n",
      "note_on channel=0 note=60 velocity=0 time=453\n",
      "note_on channel=0 note=62 velocity=0 time=0\n",
      "note_on channel=0 note=35 velocity=90 time=25\n",
      "control_change channel=0 control=64 value=0 time=1\n",
      "control_change channel=0 control=64 value=127 time=1\n",
      "note_on channel=0 note=35 velocity=0 time=149\n",
      "note_on channel=0 note=38 velocity=90 time=9\n",
      "note_on channel=0 note=38 velocity=0 time=151\n",
      "note_on channel=0 note=41 velocity=87 time=9\n",
      "note_on channel=0 note=41 velocity=0 time=151\n",
      "note_on channel=0 note=47 velocity=83 time=9\n",
      "note_on channel=0 note=47 velocity=0 time=151\n",
      "note_on channel=0 note=50 velocity=79 time=9\n",
      "note_on channel=0 note=50 velocity=0 time=151\n",
      "note_on channel=0 note=53 velocity=76 time=9\n",
      "note_on channel=0 note=53 velocity=0 time=151\n",
      "note_on channel=0 note=71 velocity=49 time=1449\n",
      "note_on channel=0 note=71 velocity=0 time=151\n",
      "note_on channel=0 note=74 velocity=49 time=9\n",
      "note_on channel=0 note=74 velocity=0 time=151\n",
      "note_on channel=0 note=77 velocity=49 time=9\n",
      "note_on channel=0 note=77 velocity=0 time=151\n",
      "note_on channel=0 note=77 velocity=49 time=9\n",
      "control_change channel=0 control=64 value=0 time=1\n",
      "note_on channel=0 note=77 velocity=0 time=150\n",
      "note_on channel=0 note=76 velocity=49 time=9\n",
      "note_on channel=0 note=76 velocity=0 time=151\n",
      "note_on channel=0 note=74 velocity=49 time=9\n",
      "note_on channel=0 note=74 velocity=0 time=151\n",
      "note_on channel=0 note=72 velocity=49 time=9\n",
      "note_on channel=0 note=72 velocity=0 time=151\n",
      "note_on channel=0 note=71 velocity=49 time=9\n",
      "note_on channel=0 note=71 velocity=0 time=151\n",
      "note_on channel=0 note=69 velocity=49 time=9\n",
      "note_on channel=0 note=69 velocity=0 time=151\n",
      "note_on channel=0 note=76 velocity=49 time=9\n",
      "note_on channel=0 note=76 velocity=0 time=151\n",
      "note_on channel=0 note=74 velocity=49 time=9\n",
      "note_on channel=0 note=74 velocity=0 time=151\n",
      "note_on channel=0 note=72 velocity=49 time=9\n",
      "note_on channel=0 note=72 velocity=0 time=151\n",
      "note_on channel=0 note=71 velocity=49 time=9\n",
      "note_on channel=0 note=71 velocity=0 time=151\n",
      "note_on channel=0 note=69 velocity=49 time=9\n",
      "note_on channel=0 note=69 velocity=0 time=151\n",
      "note_on channel=0 note=67 velocity=49 time=9\n",
      "note_on channel=0 note=67 velocity=0 time=151\n",
      "note_on channel=0 note=74 velocity=49 time=9\n",
      "note_on channel=0 note=74 velocity=0 time=151\n",
      "note_on channel=0 note=72 velocity=49 time=9\n",
      "note_on channel=0 note=72 velocity=0 time=151\n",
      "note_on channel=0 note=71 velocity=49 time=9\n",
      "note_on channel=0 note=71 velocity=0 time=151\n",
      "note_on channel=0 note=69 velocity=49 time=9\n",
      "note_on channel=0 note=69 velocity=0 time=151\n",
      "note_on channel=0 note=67 velocity=49 time=9\n",
      "note_on channel=0 note=67 velocity=0 time=151\n",
      "note_on channel=0 note=66 velocity=49 time=9\n",
      "note_on channel=0 note=66 velocity=0 time=151\n",
      "note_on channel=0 note=62 velocity=48 time=9\n",
      "control_change channel=0 control=64 value=127 time=2\n",
      "note_on channel=0 note=62 velocity=0 time=477\n",
      "note_on channel=0 note=67 velocity=40 time=121\n",
      "note_on channel=0 note=67 velocity=0 time=113\n",
      "note_on channel=0 note=71 velocity=40 time=7\n",
      "note_on channel=0 note=71 velocity=0 time=113\n",
      "note_on channel=0 note=74 velocity=40 time=7\n",
      "note_on channel=0 note=74 velocity=0 time=113\n",
      "note_on channel=0 note=62 velocity=48 time=7\n",
      "note_on channel=0 note=62 velocity=0 time=479\n",
      "note_on channel=0 note=67 velocity=40 time=121\n",
      "note_on channel=0 note=67 velocity=0 time=113\n",
      "note_on channel=0 note=71 velocity=40 time=7\n",
      "note_on channel=0 note=71 velocity=0 time=113\n",
      "note_on channel=0 note=74 velocity=40 time=7\n",
      "note_on channel=0 note=74 velocity=0 time=113\n",
      "note_on channel=0 note=64 velocity=48 time=7\n",
      "control_change channel=0 control=64 value=0 time=1\n",
      "control_change channel=0 control=64 value=127 time=1\n",
      "note_on channel=0 note=64 velocity=0 time=477\n",
      "note_on channel=0 note=67 velocity=40 time=121\n",
      "note_on channel=0 note=67 velocity=0 time=113\n",
      "note_on channel=0 note=72 velocity=40 time=7\n",
      "note_on channel=0 note=72 velocity=0 time=113\n",
      "note_on channel=0 note=76 velocity=40 time=7\n",
      "note_on channel=0 note=76 velocity=0 time=113\n",
      "note_on channel=0 note=64 velocity=48 time=7\n",
      "note_on channel=0 note=64 velocity=0 time=479\n",
      "note_on channel=0 note=67 velocity=40 time=121\n",
      "note_on channel=0 note=67 velocity=0 time=113\n",
      "note_on channel=0 note=72 velocity=40 time=7\n",
      "note_on channel=0 note=72 velocity=0 time=113\n",
      "note_on channel=0 note=76 velocity=40 time=7\n",
      "note_on channel=0 note=76 velocity=0 time=113\n",
      "note_on channel=0 note=64 velocity=48 time=7\n",
      "control_change channel=0 control=64 value=0 time=1\n",
      "control_change channel=0 control=64 value=127 time=1\n",
      "note_on channel=0 note=64 velocity=0 time=477\n",
      "note_on channel=0 note=67 velocity=40 time=121\n",
      "note_on channel=0 note=67 velocity=0 time=113\n",
      "note_on channel=0 note=72 velocity=40 time=7\n",
      "note_on channel=0 note=72 velocity=0 time=113\n",
      "note_on channel=0 note=76 velocity=40 time=7\n",
      "note_on channel=0 note=76 velocity=0 time=113\n",
      "note_on channel=0 note=66 velocity=48 time=7\n",
      "control_change channel=0 control=64 value=0 time=1\n",
      "control_change channel=0 control=64 value=127 time=1\n",
      "note_on channel=0 note=66 velocity=0 time=477\n",
      "note_on channel=0 note=69 velocity=40 time=121\n",
      "note_on channel=0 note=69 velocity=0 time=113\n",
      "note_on channel=0 note=72 velocity=40 time=7\n",
      "note_on channel=0 note=72 velocity=0 time=113\n",
      "note_on channel=0 note=74 velocity=40 time=7\n",
      "note_on channel=0 note=74 velocity=0 time=113\n",
      "note_on channel=0 note=62 velocity=48 time=7\n",
      "control_change channel=0 control=64 value=0 time=1\n",
      "control_change channel=0 control=64 value=127 time=1\n",
      "note_on channel=0 note=62 velocity=0 time=477\n",
      "note_on channel=0 note=69 velocity=40 time=121\n",
      "note_on channel=0 note=69 velocity=0 time=113\n",
      "note_on channel=0 note=72 velocity=40 time=7\n",
      "note_on channel=0 note=72 velocity=0 time=113\n",
      "note_on channel=0 note=74 velocity=40 time=7\n",
      "note_on channel=0 note=74 velocity=0 time=113\n",
      "note_on channel=0 note=62 velocity=48 time=7\n",
      "control_change channel=0 control=64 value=0 time=1\n",
      "control_change channel=0 control=64 value=127 time=1\n",
      "note_on channel=0 note=62 velocity=0 time=477\n",
      "note_on channel=0 note=67 velocity=40 time=121\n",
      "note_on channel=0 note=67 velocity=0 time=113\n",
      "note_on channel=0 note=71 velocity=40 time=7\n",
      "note_on channel=0 note=71 velocity=0 time=113\n",
      "note_on channel=0 note=74 velocity=40 time=7\n",
      "note_on channel=0 note=74 velocity=0 time=113\n",
      "note_on channel=0 note=62 velocity=48 time=7\n",
      "control_change channel=0 control=64 value=0 time=1\n",
      "control_change channel=0 control=64 value=127 time=1\n",
      "note_on channel=0 note=62 velocity=0 time=477\n",
      "note_on channel=0 note=66 velocity=40 time=121\n",
      "note_on channel=0 note=66 velocity=0 time=113\n",
      "note_on channel=0 note=69 velocity=40 time=7\n",
      "note_on channel=0 note=69 velocity=0 time=113\n",
      "note_on channel=0 note=74 velocity=40 time=7\n",
      "note_on channel=0 note=74 velocity=0 time=113\n",
      "note_on channel=0 note=62 velocity=48 time=7\n",
      "control_change channel=0 control=64 value=0 time=1\n",
      "control_change channel=0 control=64 value=127 time=1\n",
      "note_on channel=0 note=62 velocity=0 time=477\n",
      "note_on channel=0 note=59 velocity=49 time=1\n",
      "note_on channel=0 note=62 velocity=49 time=0\n",
      "control_change channel=0 control=64 value=0 time=1\n",
      "control_change channel=0 control=64 value=127 time=1\n",
      "note_on channel=0 note=59 velocity=0 time=909\n",
      "note_on channel=0 note=62 velocity=0 time=0\n",
      "note_on channel=0 note=62 velocity=49 time=49\n",
      "note_on channel=0 note=67 velocity=49 time=0\n",
      "control_change channel=0 control=64 value=0 time=1\n",
      "control_change channel=0 control=64 value=127 time=1\n",
      "note_on channel=0 note=62 velocity=0 time=225\n",
      "note_on channel=0 note=67 velocity=0 time=0\n",
      "note_on channel=0 note=67 velocity=49 time=13\n",
      "note_on channel=0 note=71 velocity=49 time=0\n",
      "note_on channel=0 note=67 velocity=0 time=227\n",
      "note_on channel=0 note=71 velocity=0 time=0\n",
      "note_on channel=0 note=71 velocity=49 time=13\n",
      "note_on channel=0 note=74 velocity=49 time=0\n",
      "control_change channel=0 control=64 value=0 time=1\n",
      "control_change channel=0 control=64 value=127 time=1\n",
      "note_on channel=0 note=71 velocity=0 time=909\n",
      "note_on channel=0 note=74 velocity=0 time=0\n",
      "note_on channel=0 note=60 velocity=49 time=49\n",
      "note_on channel=0 note=64 velocity=49 time=0\n",
      "control_change channel=0 control=64 value=0 time=1\n",
      "control_change channel=0 control=64 value=127 time=1\n",
      "note_on channel=0 note=60 velocity=0 time=453\n",
      "note_on channel=0 note=64 velocity=0 time=0\n",
      "note_on channel=0 note=64 velocity=49 time=25\n",
      "note_on channel=0 note=67 velocity=49 time=0\n",
      "control_change channel=0 control=64 value=0 time=1\n",
      "control_change channel=0 control=64 value=127 time=1\n",
      "note_on channel=0 note=64 velocity=0 time=225\n",
      "note_on channel=0 note=67 velocity=0 time=0\n",
      "note_on channel=0 note=67 velocity=49 time=13\n",
      "note_on channel=0 note=72 velocity=49 time=0\n",
      "note_on channel=0 note=67 velocity=0 time=227\n",
      "note_on channel=0 note=72 velocity=0 time=0\n",
      "note_on channel=0 note=72 velocity=49 time=13\n",
      "note_on channel=0 note=76 velocity=49 time=0\n",
      "control_change channel=0 control=64 value=0 time=1\n",
      "control_change channel=0 control=64 value=127 time=1\n",
      "note_on channel=0 note=72 velocity=0 time=909\n",
      "note_on channel=0 note=76 velocity=0 time=0\n",
      "note_on channel=0 note=72 velocity=49 time=49\n",
      "note_on channel=0 note=76 velocity=49 time=0\n",
      "control_change channel=0 control=64 value=0 time=1\n",
      "control_change channel=0 control=64 value=127 time=1\n",
      "note_on channel=0 note=72 velocity=0 time=453\n",
      "note_on channel=0 note=76 velocity=0 time=0\n",
      "note_on channel=0 note=69 velocity=49 time=25\n",
      "note_on channel=0 note=72 velocity=49 time=0\n",
      "control_change channel=0 control=64 value=0 time=1\n",
      "control_change channel=0 control=64 value=127 time=1\n",
      "note_on channel=0 note=69 velocity=0 time=453\n",
      "note_on channel=0 note=72 velocity=0 time=0\n",
      "note_on channel=0 note=66 velocity=49 time=25\n",
      "note_on channel=0 note=69 velocity=49 time=0\n",
      "control_change channel=0 control=64 value=0 time=1\n",
      "control_change channel=0 control=64 value=127 time=1\n",
      "note_on channel=0 note=66 velocity=0 time=1365\n",
      "note_on channel=0 note=69 velocity=0 time=0\n",
      "note_on channel=0 note=62 velocity=49 time=73\n",
      "note_on channel=0 note=74 velocity=49 time=0\n",
      "control_change channel=0 control=64 value=0 time=1\n",
      "control_change channel=0 control=64 value=127 time=1\n",
      "note_on channel=0 note=62 velocity=0 time=453\n",
      "note_on channel=0 note=74 velocity=0 time=0\n",
      "note_on channel=0 note=67 velocity=49 time=25\n",
      "note_on channel=0 note=71 velocity=49 time=0\n",
      "control_change channel=0 control=64 value=0 time=1\n",
      "control_change channel=0 control=64 value=127 time=1\n",
      "note_on channel=0 note=67 velocity=0 time=453\n",
      "note_on channel=0 note=71 velocity=0 time=0\n",
      "note_on channel=0 note=59 velocity=49 time=25\n",
      "note_on channel=0 note=67 velocity=49 time=0\n",
      "control_change channel=0 control=64 value=0 time=1\n",
      "control_change channel=0 control=64 value=127 time=1\n",
      "note_on channel=0 note=59 velocity=0 time=453\n",
      "note_on channel=0 note=67 velocity=0 time=0\n",
      "note_on channel=0 note=60 velocity=49 time=25\n",
      "note_on channel=0 note=69 velocity=49 time=0\n",
      "control_change channel=0 control=64 value=0 time=1\n",
      "control_change channel=0 control=64 value=127 time=1\n",
      "note_on channel=0 note=60 velocity=0 time=453\n",
      "note_on channel=0 note=69 velocity=0 time=0\n",
      "note_on channel=0 note=60 velocity=49 time=25\n",
      "note_on channel=0 note=62 velocity=49 time=0\n",
      "control_change channel=0 control=64 value=0 time=1\n",
      "control_change channel=0 control=64 value=127 time=1\n",
      "note_on channel=0 note=60 velocity=0 time=453\n",
      "note_on channel=0 note=62 velocity=0 time=0\n",
      "note_on channel=0 note=59 velocity=49 time=25\n",
      "control_change channel=0 control=64 value=0 time=1\n",
      "control_change channel=0 control=64 value=127 time=1\n",
      "note_on channel=0 note=59 velocity=0 time=453\n",
      "note_on channel=0 note=59 velocity=49 time=25\n",
      "note_on channel=0 note=67 velocity=49 time=0\n",
      "control_change channel=0 control=64 value=0 time=1\n",
      "control_change channel=0 control=64 value=127 time=1\n",
      "note_on channel=0 note=59 velocity=0 time=453\n",
      "note_on channel=0 note=67 velocity=0 time=0\n",
      "note_on channel=0 note=60 velocity=49 time=25\n",
      "note_on channel=0 note=69 velocity=49 time=0\n",
      "control_change channel=0 control=64 value=0 time=1\n",
      "control_change channel=0 control=64 value=127 time=1\n",
      "note_on channel=0 note=60 velocity=0 time=453\n",
      "note_on channel=0 note=69 velocity=0 time=0\n",
      "note_on channel=0 note=60 velocity=49 time=25\n",
      "note_on channel=0 note=62 velocity=49 time=0\n",
      "control_change channel=0 control=64 value=0 time=1\n",
      "control_change channel=0 control=64 value=127 time=1\n",
      "note_on channel=0 note=60 velocity=0 time=453\n",
      "note_on channel=0 note=62 velocity=0 time=0\n",
      "note_on channel=0 note=59 velocity=49 time=25\n",
      "control_change channel=0 control=64 value=0 time=1\n",
      "control_change channel=0 control=64 value=127 time=1\n",
      "note_on channel=0 note=59 velocity=0 time=453\n",
      "note_on channel=0 note=59 velocity=49 time=25\n",
      "note_on channel=0 note=67 velocity=49 time=0\n",
      "control_change channel=0 control=64 value=0 time=1\n",
      "control_change channel=0 control=64 value=127 time=1\n",
      "note_on channel=0 note=59 velocity=0 time=453\n",
      "note_on channel=0 note=67 velocity=0 time=0\n",
      "note_on channel=0 note=60 velocity=49 time=25\n",
      "note_on channel=0 note=69 velocity=49 time=0\n",
      "control_change channel=0 control=64 value=0 time=1\n",
      "control_change channel=0 control=64 value=127 time=1\n",
      "note_on channel=0 note=60 velocity=0 time=453\n",
      "note_on channel=0 note=69 velocity=0 time=0\n",
      "note_on channel=0 note=60 velocity=46 time=25\n",
      "note_on channel=0 note=62 velocity=46 time=0\n",
      "control_change channel=0 control=64 value=0 time=1\n",
      "control_change channel=0 control=64 value=127 time=1\n",
      "note_on channel=0 note=60 velocity=0 time=453\n",
      "note_on channel=0 note=62 velocity=0 time=0\n",
      "note_on channel=0 note=60 velocity=43 time=25\n",
      "note_on channel=0 note=69 velocity=43 time=0\n",
      "control_change channel=0 control=64 value=0 time=1\n",
      "control_change channel=0 control=64 value=127 time=1\n",
      "note_on channel=0 note=60 velocity=0 time=453\n",
      "note_on channel=0 note=69 velocity=0 time=0\n",
      "note_on channel=0 note=60 velocity=39 time=25\n",
      "note_on channel=0 note=62 velocity=39 time=0\n",
      "control_change channel=0 control=64 value=0 time=1\n",
      "control_change channel=0 control=64 value=127 time=1\n",
      "note_on channel=0 note=60 velocity=0 time=453\n",
      "note_on channel=0 note=62 velocity=0 time=0\n",
      "note_on channel=0 note=60 velocity=36 time=25\n",
      "note_on channel=0 note=69 velocity=36 time=0\n",
      "control_change channel=0 control=64 value=0 time=1\n",
      "control_change channel=0 control=64 value=127 time=1\n",
      "note_on channel=0 note=60 velocity=0 time=453\n",
      "note_on channel=0 note=69 velocity=0 time=0\n",
      "note_on channel=0 note=60 velocity=32 time=25\n",
      "note_on channel=0 note=62 velocity=32 time=0\n",
      "control_change channel=0 control=64 value=0 time=1\n",
      "control_change channel=0 control=64 value=127 time=1\n",
      "note_on channel=0 note=60 velocity=0 time=453\n",
      "note_on channel=0 note=62 velocity=0 time=0\n",
      "note_on channel=0 note=60 velocity=29 time=25\n",
      "note_on channel=0 note=69 velocity=29 time=0\n",
      "control_change channel=0 control=64 value=0 time=1\n",
      "control_change channel=0 control=64 value=127 time=1\n",
      "note_on channel=0 note=60 velocity=0 time=453\n",
      "note_on channel=0 note=69 velocity=0 time=0\n",
      "note_on channel=0 note=60 velocity=25 time=25\n",
      "note_on channel=0 note=62 velocity=25 time=0\n",
      "control_change channel=0 control=64 value=0 time=1\n",
      "control_change channel=0 control=64 value=127 time=1\n",
      "note_on channel=0 note=60 velocity=0 time=453\n",
      "note_on channel=0 note=62 velocity=0 time=0\n",
      "note_on channel=0 note=67 velocity=49 time=25\n",
      "note_on channel=0 note=71 velocity=49 time=0\n",
      "control_change channel=0 control=64 value=0 time=1\n",
      "note_on channel=0 note=67 velocity=0 time=238\n",
      "note_on channel=0 note=71 velocity=0 time=0\n",
      "note_on channel=0 note=69 velocity=49 time=241\n",
      "note_on channel=0 note=72 velocity=49 time=0\n",
      "note_on channel=0 note=69 velocity=0 time=239\n",
      "note_on channel=0 note=72 velocity=0 time=0\n",
      "note_on channel=0 note=71 velocity=49 time=241\n",
      "note_on channel=0 note=74 velocity=49 time=0\n",
      "note_on channel=0 note=71 velocity=0 time=239\n",
      "note_on channel=0 note=74 velocity=0 time=0\n",
      "note_on channel=0 note=71 velocity=49 time=241\n",
      "note_on channel=0 note=74 velocity=49 time=0\n",
      "note_on channel=0 note=71 velocity=0 time=239\n",
      "note_on channel=0 note=74 velocity=0 time=0\n",
      "note_on channel=0 note=69 velocity=49 time=241\n",
      "note_on channel=0 note=72 velocity=49 time=0\n",
      "note_on channel=0 note=69 velocity=0 time=239\n",
      "note_on channel=0 note=72 velocity=0 time=0\n",
      "note_on channel=0 note=67 velocity=49 time=241\n",
      "note_on channel=0 note=71 velocity=49 time=0\n",
      "note_on channel=0 note=67 velocity=0 time=239\n",
      "note_on channel=0 note=71 velocity=0 time=0\n",
      "note_on channel=0 note=66 velocity=49 time=241\n",
      "note_on channel=0 note=69 velocity=49 time=0\n",
      "note_on channel=0 note=66 velocity=0 time=239\n",
      "note_on channel=0 note=69 velocity=0 time=0\n",
      "note_on channel=0 note=62 velocity=49 time=241\n",
      "note_on channel=0 note=66 velocity=49 time=0\n",
      "note_on channel=0 note=62 velocity=0 time=239\n",
      "note_on channel=0 note=66 velocity=0 time=0\n",
      "note_on channel=0 note=67 velocity=49 time=241\n",
      "note_on channel=0 note=71 velocity=49 time=0\n",
      "note_on channel=0 note=67 velocity=0 time=455\n",
      "note_on channel=0 note=71 velocity=0 time=0\n",
      "note_on channel=0 note=69 velocity=47 time=25\n",
      "note_on channel=0 note=72 velocity=47 time=0\n",
      "note_on channel=0 note=69 velocity=0 time=455\n",
      "note_on channel=0 note=72 velocity=0 time=0\n",
      "note_on channel=0 note=71 velocity=45 time=25\n",
      "note_on channel=0 note=74 velocity=45 time=0\n",
      "note_on channel=0 note=71 velocity=0 time=455\n",
      "note_on channel=0 note=74 velocity=0 time=0\n",
      "note_on channel=0 note=71 velocity=43 time=25\n",
      "note_on channel=0 note=74 velocity=43 time=0\n",
      "note_on channel=0 note=71 velocity=0 time=455\n",
      "note_on channel=0 note=74 velocity=0 time=0\n",
      "note_on channel=0 note=69 velocity=40 time=25\n",
      "note_on channel=0 note=72 velocity=40 time=0\n",
      "note_on channel=0 note=69 velocity=0 time=455\n",
      "note_on channel=0 note=72 velocity=0 time=0\n",
      "note_on channel=0 note=67 velocity=38 time=25\n",
      "note_on channel=0 note=71 velocity=38 time=0\n",
      "note_on channel=0 note=67 velocity=0 time=455\n",
      "note_on channel=0 note=71 velocity=0 time=0\n",
      "note_on channel=0 note=66 velocity=36 time=25\n",
      "note_on channel=0 note=69 velocity=36 time=0\n",
      "note_on channel=0 note=66 velocity=0 time=455\n",
      "note_on channel=0 note=69 velocity=0 time=0\n",
      "note_on channel=0 note=62 velocity=33 time=25\n",
      "note_on channel=0 note=66 velocity=33 time=0\n",
      "note_on channel=0 note=69 velocity=33 time=0\n",
      "note_on channel=0 note=72 velocity=33 time=0\n",
      "note_on channel=0 note=62 velocity=0 time=455\n",
      "note_on channel=0 note=66 velocity=0 time=0\n",
      "note_on channel=0 note=69 velocity=0 time=0\n",
      "note_on channel=0 note=72 velocity=0 time=0\n",
      "note_on channel=0 note=74 velocity=33 time=25\n",
      "note_on channel=0 note=74 velocity=0 time=54\n",
      "note_on channel=0 note=76 velocity=33 time=5\n",
      "note_on channel=0 note=76 velocity=0 time=54\n",
      "note_on channel=0 note=74 velocity=33 time=7\n",
      "note_on channel=0 note=74 velocity=0 time=54\n",
      "note_on channel=0 note=76 velocity=33 time=5\n",
      "note_on channel=0 note=76 velocity=0 time=54\n",
      "note_on channel=0 note=74 velocity=33 time=7\n",
      "note_on channel=0 note=74 velocity=0 time=54\n",
      "note_on channel=0 note=76 velocity=33 time=5\n",
      "note_on channel=0 note=76 velocity=0 time=54\n",
      "note_on channel=0 note=74 velocity=33 time=7\n",
      "note_on channel=0 note=74 velocity=0 time=54\n",
      "note_on channel=0 note=76 velocity=33 time=5\n",
      "note_on channel=0 note=76 velocity=0 time=54\n",
      "note_on channel=0 note=74 velocity=33 time=7\n",
      "note_on channel=0 note=74 velocity=0 time=54\n",
      "note_on channel=0 note=76 velocity=33 time=5\n",
      "note_on channel=0 note=76 velocity=0 time=54\n",
      "note_on channel=0 note=74 velocity=33 time=7\n",
      "note_on channel=0 note=74 velocity=0 time=54\n",
      "note_on channel=0 note=76 velocity=33 time=5\n",
      "note_on channel=0 note=76 velocity=0 time=54\n",
      "note_on channel=0 note=74 velocity=33 time=7\n",
      "note_on channel=0 note=74 velocity=0 time=54\n",
      "note_on channel=0 note=76 velocity=33 time=5\n",
      "note_on channel=0 note=76 velocity=0 time=54\n",
      "note_on channel=0 note=74 velocity=33 time=7\n",
      "note_on channel=0 note=74 velocity=0 time=54\n",
      "note_on channel=0 note=76 velocity=33 time=5\n",
      "note_on channel=0 note=76 velocity=0 time=54\n",
      "note_on channel=0 note=74 velocity=33 time=7\n",
      "note_on channel=0 note=74 velocity=0 time=54\n",
      "note_on channel=0 note=76 velocity=33 time=5\n",
      "note_on channel=0 note=76 velocity=0 time=54\n",
      "note_on channel=0 note=74 velocity=33 time=7\n",
      "note_on channel=0 note=74 velocity=0 time=54\n",
      "note_on channel=0 note=76 velocity=33 time=5\n",
      "note_on channel=0 note=76 velocity=0 time=54\n",
      "note_on channel=0 note=74 velocity=33 time=7\n",
      "note_on channel=0 note=74 velocity=0 time=54\n",
      "note_on channel=0 note=76 velocity=33 time=5\n",
      "note_on channel=0 note=76 velocity=0 time=54\n",
      "note_on channel=0 note=74 velocity=33 time=7\n",
      "note_on channel=0 note=74 velocity=0 time=54\n",
      "note_on channel=0 note=76 velocity=33 time=5\n",
      "note_on channel=0 note=76 velocity=0 time=54\n",
      "note_on channel=0 note=74 velocity=33 time=7\n",
      "note_on channel=0 note=74 velocity=0 time=54\n",
      "note_on channel=0 note=76 velocity=33 time=5\n",
      "note_on channel=0 note=76 velocity=0 time=54\n",
      "note_on channel=0 note=74 velocity=33 time=7\n",
      "note_on channel=0 note=74 velocity=0 time=54\n",
      "note_on channel=0 note=76 velocity=33 time=5\n",
      "note_on channel=0 note=76 velocity=0 time=54\n",
      "note_on channel=0 note=74 velocity=33 time=7\n",
      "note_on channel=0 note=74 velocity=0 time=54\n",
      "note_on channel=0 note=76 velocity=33 time=5\n",
      "note_on channel=0 note=76 velocity=0 time=54\n",
      "note_on channel=0 note=74 velocity=33 time=7\n",
      "note_on channel=0 note=74 velocity=0 time=54\n",
      "note_on channel=0 note=76 velocity=33 time=5\n",
      "note_on channel=0 note=76 velocity=0 time=54\n",
      "note_on channel=0 note=78 velocity=40 time=7\n",
      "note_on channel=0 note=78 velocity=0 time=54\n",
      "note_on channel=0 note=79 velocity=40 time=5\n",
      "note_on channel=0 note=79 velocity=0 time=54\n",
      "note_on channel=0 note=78 velocity=40 time=7\n",
      "note_on channel=0 note=78 velocity=0 time=54\n",
      "note_on channel=0 note=79 velocity=40 time=5\n",
      "note_on channel=0 note=79 velocity=0 time=54\n",
      "note_on channel=0 note=78 velocity=40 time=7\n",
      "note_on channel=0 note=78 velocity=0 time=54\n",
      "note_on channel=0 note=79 velocity=40 time=5\n",
      "note_on channel=0 note=79 velocity=0 time=54\n",
      "note_on channel=0 note=78 velocity=40 time=7\n",
      "note_on channel=0 note=78 velocity=0 time=54\n",
      "note_on channel=0 note=79 velocity=40 time=5\n",
      "note_on channel=0 note=79 velocity=0 time=54\n",
      "note_on channel=0 note=78 velocity=40 time=7\n",
      "note_on channel=0 note=78 velocity=0 time=54\n",
      "note_on channel=0 note=79 velocity=40 time=5\n",
      "note_on channel=0 note=79 velocity=0 time=54\n",
      "note_on channel=0 note=78 velocity=40 time=7\n",
      "note_on channel=0 note=78 velocity=0 time=54\n",
      "note_on channel=0 note=79 velocity=40 time=5\n",
      "note_on channel=0 note=79 velocity=0 time=54\n",
      "note_on channel=0 note=78 velocity=40 time=7\n",
      "note_on channel=0 note=78 velocity=0 time=54\n",
      "note_on channel=0 note=79 velocity=40 time=5\n",
      "note_on channel=0 note=79 velocity=0 time=54\n",
      "note_on channel=0 note=78 velocity=40 time=7\n",
      "note_on channel=0 note=78 velocity=0 time=54\n",
      "note_on channel=0 note=79 velocity=40 time=5\n",
      "note_on channel=0 note=79 velocity=0 time=54\n",
      "note_on channel=0 note=78 velocity=40 time=7\n",
      "note_on channel=0 note=78 velocity=0 time=54\n",
      "note_on channel=0 note=79 velocity=40 time=5\n",
      "note_on channel=0 note=79 velocity=0 time=54\n",
      "note_on channel=0 note=78 velocity=40 time=7\n",
      "note_on channel=0 note=78 velocity=0 time=54\n",
      "note_on channel=0 note=79 velocity=40 time=5\n",
      "note_on channel=0 note=79 velocity=0 time=54\n",
      "note_on channel=0 note=78 velocity=40 time=7\n",
      "note_on channel=0 note=78 velocity=0 time=54\n",
      "note_on channel=0 note=79 velocity=40 time=5\n",
      "note_on channel=0 note=79 velocity=0 time=54\n",
      "note_on channel=0 note=78 velocity=40 time=7\n",
      "note_on channel=0 note=78 velocity=0 time=54\n",
      "note_on channel=0 note=79 velocity=40 time=5\n",
      "note_on channel=0 note=79 velocity=0 time=54\n",
      "note_on channel=0 note=78 velocity=40 time=7\n",
      "note_on channel=0 note=78 velocity=0 time=54\n",
      "note_on channel=0 note=79 velocity=40 time=5\n",
      "note_on channel=0 note=79 velocity=0 time=54\n",
      "note_on channel=0 note=78 velocity=40 time=7\n",
      "note_on channel=0 note=78 velocity=0 time=54\n",
      "note_on channel=0 note=79 velocity=40 time=5\n",
      "note_on channel=0 note=79 velocity=0 time=54\n",
      "note_on channel=0 note=78 velocity=40 time=7\n",
      "note_on channel=0 note=78 velocity=0 time=54\n",
      "note_on channel=0 note=79 velocity=40 time=5\n",
      "note_on channel=0 note=79 velocity=0 time=54\n",
      "note_on channel=0 note=78 velocity=40 time=7\n",
      "note_on channel=0 note=78 velocity=0 time=54\n",
      "note_on channel=0 note=79 velocity=40 time=5\n",
      "note_on channel=0 note=79 velocity=0 time=54\n",
      "note_on channel=0 note=81 velocity=49 time=7\n",
      "note_on channel=0 note=81 velocity=0 time=54\n",
      "note_on channel=0 note=83 velocity=49 time=5\n",
      "note_on channel=0 note=83 velocity=0 time=54\n",
      "note_on channel=0 note=81 velocity=49 time=7\n",
      "note_on channel=0 note=81 velocity=0 time=54\n",
      "note_on channel=0 note=83 velocity=49 time=5\n",
      "note_on channel=0 note=83 velocity=0 time=54\n",
      "note_on channel=0 note=81 velocity=49 time=7\n",
      "note_on channel=0 note=81 velocity=0 time=54\n",
      "note_on channel=0 note=83 velocity=49 time=5\n",
      "note_on channel=0 note=83 velocity=0 time=54\n",
      "note_on channel=0 note=81 velocity=49 time=7\n",
      "note_on channel=0 note=81 velocity=0 time=54\n",
      "note_on channel=0 note=83 velocity=49 time=5\n",
      "note_on channel=0 note=83 velocity=0 time=54\n",
      "note_on channel=0 note=81 velocity=49 time=7\n",
      "note_on channel=0 note=81 velocity=0 time=54\n",
      "note_on channel=0 note=83 velocity=49 time=5\n",
      "note_on channel=0 note=83 velocity=0 time=54\n",
      "note_on channel=0 note=81 velocity=49 time=7\n",
      "note_on channel=0 note=81 velocity=0 time=54\n",
      "note_on channel=0 note=83 velocity=49 time=5\n",
      "note_on channel=0 note=83 velocity=0 time=54\n",
      "note_on channel=0 note=81 velocity=49 time=7\n",
      "note_on channel=0 note=81 velocity=0 time=54\n",
      "note_on channel=0 note=83 velocity=49 time=5\n",
      "note_on channel=0 note=83 velocity=0 time=54\n",
      "note_on channel=0 note=81 velocity=49 time=7\n",
      "note_on channel=0 note=81 velocity=0 time=54\n",
      "note_on channel=0 note=83 velocity=49 time=5\n",
      "note_on channel=0 note=83 velocity=0 time=54\n",
      "note_on channel=0 note=81 velocity=49 time=7\n",
      "note_on channel=0 note=81 velocity=0 time=54\n",
      "note_on channel=0 note=83 velocity=49 time=5\n",
      "note_on channel=0 note=83 velocity=0 time=54\n",
      "note_on channel=0 note=81 velocity=49 time=7\n",
      "note_on channel=0 note=81 velocity=0 time=54\n",
      "note_on channel=0 note=83 velocity=49 time=5\n",
      "note_on channel=0 note=83 velocity=0 time=54\n",
      "note_on channel=0 note=81 velocity=49 time=7\n",
      "note_on channel=0 note=81 velocity=0 time=54\n",
      "note_on channel=0 note=83 velocity=49 time=5\n",
      "note_on channel=0 note=83 velocity=0 time=54\n",
      "note_on channel=0 note=81 velocity=49 time=7\n",
      "note_on channel=0 note=81 velocity=0 time=54\n",
      "note_on channel=0 note=83 velocity=49 time=5\n",
      "note_on channel=0 note=83 velocity=0 time=54\n",
      "note_on channel=0 note=81 velocity=49 time=7\n",
      "note_on channel=0 note=81 velocity=0 time=54\n",
      "note_on channel=0 note=83 velocity=49 time=5\n",
      "note_on channel=0 note=83 velocity=0 time=54\n",
      "note_on channel=0 note=81 velocity=49 time=7\n",
      "note_on channel=0 note=81 velocity=0 time=54\n",
      "note_on channel=0 note=83 velocity=49 time=5\n",
      "note_on channel=0 note=83 velocity=0 time=54\n",
      "note_on channel=0 note=81 velocity=49 time=7\n",
      "note_on channel=0 note=81 velocity=0 time=54\n",
      "note_on channel=0 note=83 velocity=49 time=5\n",
      "note_on channel=0 note=83 velocity=0 time=54\n",
      "note_on channel=0 note=81 velocity=49 time=7\n",
      "note_on channel=0 note=81 velocity=0 time=54\n",
      "note_on channel=0 note=83 velocity=49 time=5\n",
      "note_on channel=0 note=83 velocity=0 time=54\n",
      "note_on channel=0 note=83 velocity=49 time=7\n",
      "control_change channel=0 control=64 value=127 time=2\n",
      "note_on channel=0 note=83 velocity=0 time=149\n",
      "note_on channel=0 note=84 velocity=50 time=9\n",
      "note_on channel=0 note=84 velocity=0 time=151\n",
      "note_on channel=0 note=83 velocity=52 time=9\n",
      "note_on channel=0 note=83 velocity=0 time=151\n",
      "note_on channel=0 note=84 velocity=54 time=9\n",
      "note_on channel=0 note=84 velocity=0 time=151\n",
      "note_on channel=0 note=83 velocity=56 time=9\n",
      "note_on channel=0 note=83 velocity=0 time=151\n",
      "note_on channel=0 note=84 velocity=58 time=9\n",
      "note_on channel=0 note=84 velocity=0 time=151\n",
      "note_on channel=0 note=83 velocity=60 time=9\n",
      "note_on channel=0 note=83 velocity=0 time=151\n",
      "note_on channel=0 note=84 velocity=62 time=9\n",
      "note_on channel=0 note=84 velocity=0 time=151\n",
      "note_on channel=0 note=83 velocity=64 time=9\n",
      "note_on channel=0 note=83 velocity=0 time=151\n",
      "note_on channel=0 note=84 velocity=66 time=9\n",
      "note_on channel=0 note=84 velocity=0 time=151\n",
      "note_on channel=0 note=83 velocity=68 time=9\n",
      "note_on channel=0 note=83 velocity=0 time=151\n",
      "note_on channel=0 note=84 velocity=70 time=9\n",
      "note_on channel=0 note=84 velocity=0 time=151\n",
      "note_on channel=0 note=83 velocity=72 time=9\n",
      "note_on channel=0 note=83 velocity=0 time=151\n",
      "note_on channel=0 note=84 velocity=74 time=9\n",
      "note_on channel=0 note=84 velocity=0 time=151\n",
      "note_on channel=0 note=83 velocity=76 time=9\n",
      "note_on channel=0 note=83 velocity=0 time=151\n",
      "note_on channel=0 note=84 velocity=78 time=9\n",
      "note_on channel=0 note=84 velocity=0 time=151\n",
      "note_on channel=0 note=83 velocity=80 time=9\n",
      "note_on channel=0 note=83 velocity=0 time=151\n",
      "note_on channel=0 note=84 velocity=82 time=9\n",
      "note_on channel=0 note=84 velocity=0 time=151\n",
      "note_on channel=0 note=84 velocity=84 time=9\n",
      "note_on channel=0 note=84 velocity=0 time=455\n",
      "note_on channel=0 note=62 velocity=90 time=25\n",
      "note_on channel=0 note=66 velocity=90 time=0\n",
      "note_on channel=0 note=69 velocity=90 time=0\n",
      "note_on channel=0 note=72 velocity=90 time=0\n",
      "note_on channel=0 note=62 velocity=0 time=455\n",
      "note_on channel=0 note=66 velocity=0 time=0\n",
      "note_on channel=0 note=69 velocity=0 time=0\n",
      "note_on channel=0 note=72 velocity=0 time=0\n",
      "note_on channel=0 note=55 velocity=96 time=25\n",
      "note_on channel=0 note=65 velocity=96 time=0\n",
      "control_change channel=0 control=64 value=0 time=1\n",
      "control_change channel=0 control=64 value=127 time=1\n",
      "note_on channel=0 note=55 velocity=0 time=225\n",
      "note_on channel=0 note=65 velocity=0 time=0\n",
      "note_on channel=0 note=59 velocity=96 time=13\n",
      "note_on channel=0 note=62 velocity=96 time=0\n",
      "note_on channel=0 note=59 velocity=0 time=227\n",
      "note_on channel=0 note=62 velocity=0 time=0\n",
      "note_on channel=0 note=55 velocity=96 time=13\n",
      "note_on channel=0 note=65 velocity=96 time=0\n",
      "note_on channel=0 note=55 velocity=0 time=227\n",
      "note_on channel=0 note=65 velocity=0 time=0\n",
      "note_on channel=0 note=59 velocity=96 time=13\n",
      "note_on channel=0 note=62 velocity=96 time=0\n",
      "note_on channel=0 note=59 velocity=0 time=227\n",
      "note_on channel=0 note=62 velocity=0 time=0\n",
      "note_on channel=0 note=55 velocity=96 time=13\n",
      "note_on channel=0 note=65 velocity=96 time=0\n",
      "note_on channel=0 note=55 velocity=0 time=227\n",
      "note_on channel=0 note=65 velocity=0 time=0\n",
      "note_on channel=0 note=59 velocity=96 time=13\n",
      "note_on channel=0 note=62 velocity=96 time=0\n",
      "note_on channel=0 note=59 velocity=0 time=227\n",
      "note_on channel=0 note=62 velocity=0 time=0\n",
      "note_on channel=0 note=55 velocity=96 time=13\n",
      "note_on channel=0 note=65 velocity=96 time=0\n",
      "note_on channel=0 note=55 velocity=0 time=227\n",
      "note_on channel=0 note=65 velocity=0 time=0\n",
      "note_on channel=0 note=59 velocity=96 time=13\n",
      "note_on channel=0 note=62 velocity=96 time=0\n",
      "note_on channel=0 note=59 velocity=0 time=227\n",
      "note_on channel=0 note=62 velocity=0 time=0\n",
      "note_on channel=0 note=55 velocity=96 time=13\n",
      "note_on channel=0 note=65 velocity=96 time=0\n",
      "note_on channel=0 note=55 velocity=0 time=227\n",
      "note_on channel=0 note=65 velocity=0 time=0\n",
      "note_on channel=0 note=59 velocity=96 time=13\n",
      "note_on channel=0 note=62 velocity=96 time=0\n",
      "note_on channel=0 note=59 velocity=0 time=227\n",
      "note_on channel=0 note=62 velocity=0 time=0\n",
      "note_on channel=0 note=55 velocity=96 time=13\n",
      "note_on channel=0 note=65 velocity=96 time=0\n",
      "note_on channel=0 note=55 velocity=0 time=227\n",
      "note_on channel=0 note=65 velocity=0 time=0\n",
      "note_on channel=0 note=59 velocity=96 time=13\n",
      "note_on channel=0 note=62 velocity=96 time=0\n",
      "note_on channel=0 note=59 velocity=0 time=227\n",
      "note_on channel=0 note=62 velocity=0 time=0\n",
      "note_on channel=0 note=55 velocity=96 time=13\n",
      "note_on channel=0 note=65 velocity=96 time=0\n",
      "note_on channel=0 note=55 velocity=0 time=227\n",
      "note_on channel=0 note=65 velocity=0 time=0\n",
      "note_on channel=0 note=59 velocity=96 time=13\n",
      "note_on channel=0 note=62 velocity=96 time=0\n",
      "note_on channel=0 note=59 velocity=0 time=227\n",
      "note_on channel=0 note=62 velocity=0 time=0\n",
      "note_on channel=0 note=55 velocity=96 time=13\n",
      "note_on channel=0 note=65 velocity=96 time=0\n",
      "note_on channel=0 note=55 velocity=0 time=227\n",
      "note_on channel=0 note=65 velocity=0 time=0\n",
      "note_on channel=0 note=59 velocity=96 time=13\n",
      "note_on channel=0 note=62 velocity=96 time=0\n",
      "note_on channel=0 note=59 velocity=0 time=227\n",
      "note_on channel=0 note=62 velocity=0 time=0\n",
      "note_on channel=0 note=48 velocity=106 time=13\n",
      "note_on channel=0 note=52 velocity=106 time=0\n",
      "note_on channel=0 note=55 velocity=106 time=0\n",
      "note_on channel=0 note=60 velocity=106 time=0\n",
      "control_change channel=0 control=64 value=0 time=1\n",
      "note_on channel=0 note=48 velocity=0 time=454\n",
      "note_on channel=0 note=52 velocity=0 time=0\n",
      "note_on channel=0 note=55 velocity=0 time=0\n",
      "note_on channel=0 note=60 velocity=0 time=0\n",
      "note_on channel=0 note=67 velocity=49 time=10585\n",
      "note_on channel=0 note=71 velocity=49 time=0\n",
      "note_on channel=0 note=67 velocity=0 time=455\n",
      "note_on channel=0 note=71 velocity=0 time=0\n",
      "note_on channel=0 note=60 velocity=49 time=505\n",
      "note_on channel=0 note=64 velocity=49 time=0\n",
      "note_on channel=0 note=69 velocity=49 time=0\n",
      "note_on channel=0 note=72 velocity=49 time=0\n",
      "note_on channel=0 note=60 velocity=0 time=455\n",
      "note_on channel=0 note=64 velocity=0 time=0\n",
      "note_on channel=0 note=69 velocity=0 time=0\n",
      "note_on channel=0 note=72 velocity=0 time=0\n",
      "note_on channel=0 note=62 velocity=49 time=505\n",
      "note_on channel=0 note=66 velocity=49 time=0\n",
      "note_on channel=0 note=69 velocity=49 time=0\n",
      "note_on channel=0 note=72 velocity=49 time=0\n",
      "note_on channel=0 note=62 velocity=0 time=455\n",
      "note_on channel=0 note=66 velocity=0 time=0\n",
      "note_on channel=0 note=69 velocity=0 time=0\n",
      "note_on channel=0 note=72 velocity=0 time=0\n",
      "note_on channel=0 note=67 velocity=33 time=25\n",
      "note_on channel=0 note=67 velocity=0 time=0\n",
      "note_on channel=0 note=67 velocity=33 time=0\n",
      "control_change channel=0 control=64 value=127 time=2\n",
      "note_on channel=0 note=71 velocity=33 time=478\n",
      "note_on channel=0 note=67 velocity=0 time=431\n",
      "note_on channel=0 note=71 velocity=0 time=24\n",
      "note_on channel=0 note=62 velocity=33 time=25\n",
      "note_on channel=0 note=62 velocity=0 time=0\n",
      "note_on channel=0 note=62 velocity=33 time=0\n",
      "control_change channel=0 control=64 value=0 time=1\n",
      "control_change channel=0 control=64 value=127 time=1\n",
      "note_on channel=0 note=69 velocity=33 time=478\n",
      "note_on channel=0 note=62 velocity=0 time=431\n",
      "note_on channel=0 note=69 velocity=0 time=24\n",
      "note_on channel=0 note=55 velocity=33 time=25\n",
      "note_on channel=0 note=55 velocity=0 time=0\n",
      "note_on channel=0 note=55 velocity=33 time=0\n",
      "control_change channel=0 control=64 value=0 time=1\n",
      "control_change channel=0 control=64 value=127 time=1\n",
      "note_on channel=0 note=67 velocity=33 time=478\n",
      "note_on channel=0 note=55 velocity=0 time=431\n",
      "note_on channel=0 note=67 velocity=0 time=24\n",
      "note_on channel=0 note=62 velocity=33 time=25\n",
      "note_on channel=0 note=62 velocity=0 time=0\n",
      "note_on channel=0 note=62 velocity=33 time=0\n",
      "control_change channel=0 control=64 value=0 time=1\n",
      "control_change channel=0 control=64 value=127 time=1\n",
      "note_on channel=0 note=69 velocity=33 time=478\n",
      "note_on channel=0 note=62 velocity=0 time=431\n",
      "note_on channel=0 note=69 velocity=0 time=24\n",
      "note_on channel=0 note=67 velocity=33 time=25\n",
      "note_on channel=0 note=67 velocity=0 time=0\n",
      "note_on channel=0 note=67 velocity=33 time=0\n",
      "control_change channel=0 control=64 value=0 time=1\n",
      "control_change channel=0 control=64 value=127 time=1\n",
      "note_on channel=0 note=71 velocity=33 time=478\n",
      "note_on channel=0 note=67 velocity=0 time=431\n",
      "note_on channel=0 note=71 velocity=0 time=24\n",
      "note_on channel=0 note=62 velocity=33 time=25\n",
      "note_on channel=0 note=62 velocity=0 time=0\n",
      "note_on channel=0 note=62 velocity=33 time=0\n",
      "control_change channel=0 control=64 value=0 time=1\n",
      "control_change channel=0 control=64 value=127 time=1\n",
      "note_on channel=0 note=69 velocity=33 time=478\n",
      "note_on channel=0 note=62 velocity=0 time=431\n",
      "note_on channel=0 note=69 velocity=0 time=24\n",
      "note_on channel=0 note=55 velocity=33 time=25\n",
      "note_on channel=0 note=55 velocity=0 time=0\n",
      "note_on channel=0 note=55 velocity=33 time=0\n",
      "control_change channel=0 control=64 value=0 time=1\n",
      "control_change channel=0 control=64 value=127 time=1\n",
      "note_on channel=0 note=67 velocity=33 time=478\n",
      "note_on channel=0 note=55 velocity=0 time=431\n",
      "note_on channel=0 note=67 velocity=0 time=24\n",
      "note_on channel=0 note=62 velocity=33 time=25\n",
      "note_on channel=0 note=62 velocity=0 time=0\n",
      "note_on channel=0 note=62 velocity=33 time=0\n",
      "control_change channel=0 control=64 value=0 time=1\n",
      "control_change channel=0 control=64 value=127 time=1\n",
      "note_on channel=0 note=69 velocity=33 time=478\n",
      "note_on channel=0 note=62 velocity=0 time=431\n",
      "note_on channel=0 note=69 velocity=0 time=24\n",
      "note_on channel=0 note=55 velocity=33 time=25\n",
      "note_on channel=0 note=55 velocity=0 time=0\n",
      "note_on channel=0 note=55 velocity=33 time=0\n",
      "control_change channel=0 control=64 value=0 time=1\n",
      "control_change channel=0 control=64 value=127 time=1\n",
      "note_on channel=0 note=67 velocity=42 time=478\n",
      "note_on channel=0 note=55 velocity=0 time=431\n",
      "note_on channel=0 note=67 velocity=0 time=24\n",
      "note_on channel=0 note=50 velocity=51 time=25\n",
      "note_on channel=0 note=50 velocity=0 time=0\n",
      "note_on channel=0 note=50 velocity=51 time=0\n",
      "control_change channel=0 control=64 value=0 time=1\n",
      "control_change channel=0 control=64 value=127 time=1\n",
      "note_on channel=0 note=62 velocity=60 time=478\n",
      "note_on channel=0 note=50 velocity=0 time=431\n",
      "note_on channel=0 note=62 velocity=0 time=24\n",
      "note_on channel=0 note=43 velocity=69 time=25\n",
      "note_on channel=0 note=43 velocity=0 time=0\n",
      "note_on channel=0 note=43 velocity=69 time=0\n",
      "control_change channel=0 control=64 value=0 time=1\n",
      "control_change channel=0 control=64 value=127 time=1\n",
      "note_on channel=0 note=55 velocity=78 time=478\n",
      "note_on channel=0 note=43 velocity=0 time=431\n",
      "note_on channel=0 note=55 velocity=0 time=24\n",
      "note_on channel=0 note=38 velocity=87 time=25\n",
      "note_on channel=0 note=38 velocity=0 time=0\n",
      "note_on channel=0 note=38 velocity=87 time=0\n",
      "control_change channel=0 control=64 value=0 time=1\n",
      "control_change channel=0 control=64 value=127 time=1\n",
      "note_on channel=0 note=50 velocity=96 time=478\n",
      "note_on channel=0 note=38 velocity=0 time=431\n",
      "note_on channel=0 note=50 velocity=0 time=24\n",
      "note_on channel=0 note=31 velocity=106 time=25\n",
      "control_change channel=0 control=64 value=0 time=1\n",
      "control_change channel=0 control=64 value=127 time=1\n",
      "note_on channel=0 note=31 velocity=0 time=149\n",
      "note_on channel=0 note=35 velocity=106 time=9\n",
      "note_on channel=0 note=35 velocity=0 time=151\n",
      "note_on channel=0 note=38 velocity=106 time=9\n",
      "note_on channel=0 note=38 velocity=0 time=151\n",
      "note_on channel=0 note=31 velocity=106 time=9\n",
      "note_on channel=0 note=31 velocity=0 time=151\n",
      "note_on channel=0 note=35 velocity=106 time=9\n",
      "note_on channel=0 note=35 velocity=0 time=151\n",
      "note_on channel=0 note=38 velocity=106 time=9\n",
      "note_on channel=0 note=38 velocity=0 time=151\n",
      "note_on channel=0 note=31 velocity=106 time=9\n",
      "note_on channel=0 note=31 velocity=0 time=151\n",
      "note_on channel=0 note=35 velocity=106 time=9\n",
      "note_on channel=0 note=35 velocity=0 time=151\n",
      "note_on channel=0 note=38 velocity=106 time=9\n",
      "note_on channel=0 note=38 velocity=0 time=151\n",
      "note_on channel=0 note=31 velocity=106 time=9\n",
      "note_on channel=0 note=31 velocity=0 time=151\n",
      "note_on channel=0 note=35 velocity=106 time=9\n",
      "note_on channel=0 note=35 velocity=0 time=151\n",
      "note_on channel=0 note=38 velocity=106 time=9\n",
      "note_on channel=0 note=38 velocity=0 time=151\n",
      "note_on channel=0 note=31 velocity=106 time=9\n",
      "note_on channel=0 note=31 velocity=0 time=151\n",
      "note_on channel=0 note=35 velocity=106 time=9\n",
      "note_on channel=0 note=35 velocity=0 time=151\n",
      "note_on channel=0 note=38 velocity=106 time=9\n",
      "note_on channel=0 note=38 velocity=0 time=151\n",
      "note_on channel=0 note=31 velocity=106 time=9\n",
      "note_on channel=0 note=31 velocity=0 time=151\n",
      "note_on channel=0 note=35 velocity=106 time=9\n",
      "note_on channel=0 note=35 velocity=0 time=151\n",
      "note_on channel=0 note=38 velocity=106 time=9\n",
      "note_on channel=0 note=38 velocity=0 time=151\n",
      "note_on channel=0 note=31 velocity=106 time=9\n",
      "note_on channel=0 note=31 velocity=0 time=151\n",
      "note_on channel=0 note=35 velocity=106 time=9\n",
      "note_on channel=0 note=35 velocity=0 time=151\n",
      "note_on channel=0 note=38 velocity=106 time=9\n",
      "note_on channel=0 note=38 velocity=0 time=151\n",
      "note_on channel=0 note=31 velocity=106 time=9\n",
      "note_on channel=0 note=31 velocity=0 time=151\n",
      "note_on channel=0 note=35 velocity=106 time=9\n",
      "note_on channel=0 note=35 velocity=0 time=151\n",
      "note_on channel=0 note=38 velocity=106 time=9\n",
      "note_on channel=0 note=38 velocity=0 time=151\n",
      "note_on channel=0 note=31 velocity=106 time=9\n",
      "note_on channel=0 note=31 velocity=0 time=455\n",
      "control_change channel=0 control=64 value=0 time=26\n",
      "note_on channel=0 note=38 velocity=112 time=479\n",
      "note_on channel=0 note=42 velocity=112 time=0\n",
      "note_on channel=0 note=45 velocity=112 time=0\n",
      "note_on channel=0 note=50 velocity=112 time=0\n",
      "note_on channel=0 note=38 velocity=0 time=455\n",
      "note_on channel=0 note=42 velocity=0 time=0\n",
      "note_on channel=0 note=45 velocity=0 time=0\n",
      "note_on channel=0 note=50 velocity=0 time=0\n",
      "note_on channel=0 note=31 velocity=112 time=505\n",
      "note_on channel=0 note=35 velocity=112 time=0\n",
      "note_on channel=0 note=38 velocity=112 time=0\n",
      "note_on channel=0 note=43 velocity=112 time=0\n",
      "note_on channel=0 note=31 velocity=0 time=455\n",
      "note_on channel=0 note=35 velocity=0 time=0\n",
      "note_on channel=0 note=38 velocity=0 time=0\n",
      "note_on channel=0 note=43 velocity=0 time=0\n",
      "MetaMessage('end_of_track', time=1)\n",
      "Track 2: \n",
      "MetaMessage('key_signature', key='G', time=0)\n",
      "control_change channel=1 control=121 value=0 time=0\n",
      "program_change channel=1 program=0 time=0\n",
      "control_change channel=1 control=7 value=100 time=0\n",
      "control_change channel=1 control=10 value=64 time=0\n",
      "control_change channel=1 control=91 value=0 time=0\n",
      "control_change channel=1 control=93 value=0 time=0\n",
      "MetaMessage('midi_port', port=0, time=0)\n",
      "note_on channel=1 note=55 velocity=40 time=0\n",
      "note_on channel=1 note=60 velocity=40 time=0\n",
      "note_on channel=1 note=64 velocity=40 time=0\n",
      "note_on channel=1 note=55 velocity=0 time=455\n",
      "note_on channel=1 note=60 velocity=0 time=0\n",
      "note_on channel=1 note=64 velocity=0 time=0\n",
      "note_on channel=1 note=55 velocity=40 time=265\n",
      "note_on channel=1 note=60 velocity=40 time=0\n",
      "note_on channel=1 note=64 velocity=40 time=0\n",
      "note_on channel=1 note=55 velocity=0 time=113\n",
      "note_on channel=1 note=60 velocity=0 time=0\n",
      "note_on channel=1 note=64 velocity=0 time=0\n",
      "note_on channel=1 note=55 velocity=40 time=7\n",
      "note_on channel=1 note=60 velocity=40 time=0\n",
      "note_on channel=1 note=64 velocity=40 time=0\n",
      "note_on channel=1 note=55 velocity=0 time=113\n",
      "note_on channel=1 note=60 velocity=0 time=0\n",
      "note_on channel=1 note=64 velocity=0 time=0\n",
      "note_on channel=1 note=55 velocity=40 time=7\n",
      "note_on channel=1 note=60 velocity=40 time=0\n",
      "note_on channel=1 note=64 velocity=40 time=0\n",
      "note_on channel=1 note=55 velocity=0 time=455\n",
      "note_on channel=1 note=60 velocity=0 time=0\n",
      "note_on channel=1 note=64 velocity=0 time=0\n",
      "note_on channel=1 note=55 velocity=40 time=265\n",
      "note_on channel=1 note=60 velocity=40 time=0\n",
      "note_on channel=1 note=64 velocity=40 time=0\n",
      "note_on channel=1 note=55 velocity=0 time=113\n",
      "note_on channel=1 note=60 velocity=0 time=0\n",
      "note_on channel=1 note=64 velocity=0 time=0\n",
      "note_on channel=1 note=55 velocity=40 time=7\n",
      "note_on channel=1 note=60 velocity=40 time=0\n",
      "note_on channel=1 note=64 velocity=40 time=0\n",
      "note_on channel=1 note=55 velocity=0 time=113\n",
      "note_on channel=1 note=60 velocity=0 time=0\n",
      "note_on channel=1 note=64 velocity=0 time=0\n",
      "note_on channel=1 note=55 velocity=40 time=7\n",
      "note_on channel=1 note=60 velocity=40 time=0\n",
      "note_on channel=1 note=64 velocity=40 time=0\n",
      "note_on channel=1 note=55 velocity=0 time=227\n",
      "note_on channel=1 note=60 velocity=0 time=0\n",
      "note_on channel=1 note=64 velocity=0 time=0\n",
      "note_on channel=1 note=64 velocity=40 time=253\n",
      "note_on channel=1 note=67 velocity=40 time=0\n",
      "note_on channel=1 note=64 velocity=0 time=119\n",
      "note_on channel=1 note=67 velocity=0 time=0\n",
      "note_on channel=1 note=67 velocity=40 time=121\n",
      "note_on channel=1 note=72 velocity=40 time=0\n",
      "note_on channel=1 note=67 velocity=0 time=119\n",
      "note_on channel=1 note=72 velocity=0 time=0\n",
      "note_on channel=1 note=72 velocity=40 time=121\n",
      "note_on channel=1 note=76 velocity=40 time=0\n",
      "note_on channel=1 note=72 velocity=0 time=227\n",
      "note_on channel=1 note=76 velocity=0 time=0\n",
      "note_on channel=1 note=64 velocity=40 time=733\n",
      "note_on channel=1 note=72 velocity=40 time=0\n",
      "note_on channel=1 note=76 velocity=40 time=0\n",
      "note_on channel=1 note=64 velocity=0 time=119\n",
      "note_on channel=1 note=72 velocity=0 time=0\n",
      "note_on channel=1 note=76 velocity=0 time=0\n",
      "note_on channel=1 note=71 velocity=40 time=121\n",
      "note_on channel=1 note=74 velocity=40 time=0\n",
      "note_on channel=1 note=71 velocity=0 time=59\n",
      "note_on channel=1 note=74 velocity=0 time=0\n",
      "note_on channel=1 note=72 velocity=40 time=61\n",
      "note_on channel=1 note=76 velocity=40 time=0\n",
      "note_on channel=1 note=72 velocity=0 time=59\n",
      "note_on channel=1 note=76 velocity=0 time=0\n",
      "note_on channel=1 note=64 velocity=40 time=61\n",
      "note_on channel=1 note=69 velocity=40 time=0\n",
      "note_on channel=1 note=72 velocity=40 time=0\n",
      "note_on channel=1 note=64 velocity=0 time=119\n",
      "note_on channel=1 note=69 velocity=0 time=0\n",
      "note_on channel=1 note=72 velocity=0 time=0\n",
      "note_on channel=1 note=67 velocity=40 time=121\n",
      "note_on channel=1 note=71 velocity=40 time=0\n",
      "note_on channel=1 note=67 velocity=0 time=59\n",
      "note_on channel=1 note=71 velocity=0 time=0\n",
      "note_on channel=1 note=69 velocity=40 time=61\n",
      "note_on channel=1 note=72 velocity=40 time=0\n",
      "note_on channel=1 note=69 velocity=0 time=59\n",
      "note_on channel=1 note=72 velocity=0 time=0\n",
      "note_on channel=1 note=66 velocity=40 time=61\n",
      "note_on channel=1 note=69 velocity=40 time=0\n",
      "note_on channel=1 note=66 velocity=0 time=227\n",
      "note_on channel=1 note=69 velocity=0 time=0\n",
      "note_on channel=1 note=62 velocity=40 time=733\n",
      "note_on channel=1 note=66 velocity=40 time=0\n",
      "note_on channel=1 note=69 velocity=40 time=0\n",
      "note_on channel=1 note=62 velocity=0 time=119\n",
      "note_on channel=1 note=66 velocity=0 time=0\n",
      "note_on channel=1 note=69 velocity=0 time=0\n",
      "note_on channel=1 note=64 velocity=40 time=121\n",
      "note_on channel=1 note=67 velocity=40 time=0\n",
      "note_on channel=1 note=64 velocity=0 time=59\n",
      "note_on channel=1 note=67 velocity=0 time=0\n",
      "note_on channel=1 note=66 velocity=40 time=61\n",
      "note_on channel=1 note=69 velocity=40 time=0\n",
      "note_on channel=1 note=66 velocity=0 time=59\n",
      "note_on channel=1 note=69 velocity=0 time=0\n",
      "note_on channel=1 note=62 velocity=40 time=61\n",
      "note_on channel=1 note=66 velocity=40 time=0\n",
      "note_on channel=1 note=74 velocity=40 time=0\n",
      "note_on channel=1 note=62 velocity=0 time=119\n",
      "note_on channel=1 note=66 velocity=0 time=0\n",
      "note_on channel=1 note=74 velocity=0 time=0\n",
      "note_on channel=1 note=67 velocity=40 time=121\n",
      "note_on channel=1 note=72 velocity=40 time=0\n",
      "note_on channel=1 note=67 velocity=0 time=59\n",
      "note_on channel=1 note=72 velocity=0 time=0\n",
      "note_on channel=1 note=69 velocity=40 time=61\n",
      "note_on channel=1 note=74 velocity=40 time=0\n",
      "note_on channel=1 note=69 velocity=0 time=59\n",
      "note_on channel=1 note=74 velocity=0 time=0\n",
      "note_on channel=1 note=62 velocity=40 time=61\n",
      "note_on channel=1 note=67 velocity=40 time=0\n",
      "note_on channel=1 note=71 velocity=40 time=0\n",
      "note_on channel=1 note=62 velocity=0 time=119\n",
      "note_on channel=1 note=67 velocity=0 time=0\n",
      "note_on channel=1 note=71 velocity=0 time=0\n",
      "note_on channel=1 note=67 velocity=40 time=121\n",
      "note_on channel=1 note=69 velocity=40 time=0\n",
      "note_on channel=1 note=67 velocity=0 time=59\n",
      "note_on channel=1 note=69 velocity=0 time=0\n",
      "note_on channel=1 note=71 velocity=40 time=61\n",
      "note_on channel=1 note=71 velocity=0 time=59\n",
      "note_on channel=1 note=59 velocity=40 time=61\n",
      "note_on channel=1 note=67 velocity=40 time=0\n",
      "note_on channel=1 note=59 velocity=0 time=119\n",
      "note_on channel=1 note=67 velocity=0 time=0\n",
      "note_on channel=1 note=64 velocity=40 time=361\n",
      "note_on channel=1 note=69 velocity=40 time=0\n",
      "note_on channel=1 note=64 velocity=0 time=119\n",
      "note_on channel=1 note=69 velocity=0 time=0\n",
      "note_on channel=1 note=54 velocity=40 time=361\n",
      "note_on channel=1 note=57 velocity=40 time=0\n",
      "note_on channel=1 note=62 velocity=40 time=0\n",
      "note_on channel=1 note=54 velocity=0 time=119\n",
      "note_on channel=1 note=57 velocity=0 time=0\n",
      "note_on channel=1 note=62 velocity=0 time=0\n",
      "note_on channel=1 note=59 velocity=48 time=361\n",
      "note_on channel=1 note=59 velocity=0 time=959\n",
      "note_on channel=1 note=67 velocity=49 time=9601\n",
      "note_on channel=1 note=62 velocity=49 time=0\n",
      "note_on channel=1 note=67 velocity=0 time=227\n",
      "note_on channel=1 note=66 velocity=49 time=13\n",
      "note_on channel=1 note=66 velocity=0 time=113\n",
      "note_on channel=1 note=67 velocity=49 time=7\n",
      "note_on channel=1 note=67 velocity=0 time=113\n",
      "note_on channel=1 note=69 velocity=49 time=7\n",
      "note_on channel=1 note=69 velocity=0 time=227\n",
      "note_on channel=1 note=67 velocity=49 time=13\n",
      "note_on channel=1 note=67 velocity=0 time=113\n",
      "note_on channel=1 note=66 velocity=49 time=7\n",
      "note_on channel=1 note=66 velocity=0 time=113\n",
      "note_on channel=1 note=67 velocity=49 time=7\n",
      "note_on channel=1 note=67 velocity=0 time=227\n",
      "note_on channel=1 note=74 velocity=49 time=13\n",
      "note_on channel=1 note=74 velocity=0 time=227\n",
      "note_on channel=1 note=72 velocity=49 time=13\n",
      "note_on channel=1 note=72 velocity=0 time=455\n",
      "note_on channel=1 note=71 velocity=49 time=25\n",
      "note_on channel=1 note=71 velocity=0 time=227\n",
      "note_on channel=1 note=69 velocity=49 time=13\n",
      "note_on channel=1 note=69 velocity=0 time=113\n",
      "note_on channel=1 note=67 velocity=49 time=7\n",
      "note_on channel=1 note=67 velocity=0 time=113\n",
      "note_on channel=1 note=69 velocity=49 time=7\n",
      "note_on channel=1 note=69 velocity=0 time=227\n",
      "note_on channel=1 note=67 velocity=49 time=13\n",
      "note_on channel=1 note=62 velocity=0 time=95\n",
      "note_on channel=1 note=67 velocity=0 time=18\n",
      "note_on channel=1 note=66 velocity=49 time=7\n",
      "note_on channel=1 note=66 velocity=0 time=113\n",
      "note_on channel=1 note=59 velocity=49 time=7\n",
      "note_on channel=1 note=67 velocity=49 time=0\n",
      "note_on channel=1 note=59 velocity=0 time=227\n",
      "note_on channel=1 note=67 velocity=0 time=0\n",
      "note_on channel=1 note=55 velocity=49 time=13\n",
      "note_on channel=1 note=61 velocity=49 time=0\n",
      "note_on channel=1 note=64 velocity=49 time=0\n",
      "note_on channel=1 note=55 velocity=0 time=227\n",
      "note_on channel=1 note=61 velocity=0 time=0\n",
      "note_on channel=1 note=64 velocity=0 time=0\n",
      "note_on channel=1 note=54 velocity=49 time=13\n",
      "note_on channel=1 note=62 velocity=49 time=0\n",
      "note_on channel=1 note=54 velocity=0 time=227\n",
      "note_on channel=1 note=62 velocity=0 time=0\n",
      "note_on channel=1 note=59 velocity=49 time=4093\n",
      "note_on channel=1 note=67 velocity=49 time=0\n",
      "note_on channel=1 note=55 velocity=49 time=0\n",
      "note_on channel=1 note=59 velocity=0 time=227\n",
      "note_on channel=1 note=67 velocity=0 time=0\n",
      "note_on channel=1 note=61 velocity=49 time=13\n",
      "note_on channel=1 note=64 velocity=49 time=0\n",
      "note_on channel=1 note=55 velocity=0 time=215\n",
      "note_on channel=1 note=61 velocity=0 time=12\n",
      "note_on channel=1 note=64 velocity=0 time=0\n",
      "note_on channel=1 note=62 velocity=49 time=13\n",
      "note_on channel=1 note=54 velocity=49 time=0\n",
      "note_on channel=1 note=62 velocity=0 time=227\n",
      "note_on channel=1 note=54 velocity=0 time=0\n",
      "note_on channel=1 note=59 velocity=49 time=733\n",
      "note_on channel=1 note=67 velocity=49 time=0\n",
      "note_on channel=1 note=59 velocity=0 time=113\n",
      "note_on channel=1 note=67 velocity=0 time=0\n",
      "note_on channel=1 note=60 velocity=49 time=7\n",
      "note_on channel=1 note=64 velocity=49 time=0\n",
      "note_on channel=1 note=60 velocity=0 time=113\n",
      "note_on channel=1 note=64 velocity=0 time=0\n",
      "note_on channel=1 note=62 velocity=49 time=7\n",
      "note_on channel=1 note=62 velocity=0 time=119\n",
      "note_on channel=1 note=79 velocity=49 time=121\n",
      "note_on channel=1 note=72 velocity=49 time=0\n",
      "note_on channel=1 note=76 velocity=49 time=0\n",
      "note_on channel=1 note=79 velocity=0 time=113\n",
      "note_on channel=1 note=76 velocity=0 time=7\n",
      "note_on channel=1 note=76 velocity=49 time=0\n",
      "note_on channel=1 note=74 velocity=49 time=120\n",
      "note_on channel=1 note=74 velocity=0 time=119\n",
      "note_on channel=1 note=79 velocity=49 time=121\n",
      "note_on channel=1 note=91 velocity=49 time=0\n",
      "note_on channel=1 note=79 velocity=0 time=113\n",
      "note_on channel=1 note=91 velocity=0 time=0\n",
      "note_on channel=1 note=88 velocity=49 time=7\n",
      "note_on channel=1 note=88 velocity=0 time=113\n",
      "note_on channel=1 note=86 velocity=49 time=7\n",
      "note_on channel=1 note=86 velocity=0 time=119\n",
      "note_on channel=1 note=72 velocity=0 time=72\n",
      "note_on channel=1 note=76 velocity=0 time=0\n",
      "note_on channel=1 note=64 velocity=102 time=49\n",
      "note_on channel=1 note=72 velocity=102 time=0\n",
      "note_on channel=1 note=76 velocity=102 time=0\n",
      "note_on channel=1 note=64 velocity=0 time=455\n",
      "note_on channel=1 note=72 velocity=0 time=0\n",
      "note_on channel=1 note=76 velocity=0 time=0\n",
      "note_on channel=1 note=64 velocity=102 time=265\n",
      "note_on channel=1 note=72 velocity=102 time=0\n",
      "note_on channel=1 note=76 velocity=102 time=0\n",
      "note_on channel=1 note=64 velocity=0 time=113\n",
      "note_on channel=1 note=72 velocity=0 time=0\n",
      "note_on channel=1 note=76 velocity=0 time=0\n",
      "note_on channel=1 note=64 velocity=102 time=7\n",
      "note_on channel=1 note=72 velocity=102 time=0\n",
      "note_on channel=1 note=76 velocity=102 time=0\n",
      "note_on channel=1 note=64 velocity=0 time=113\n",
      "note_on channel=1 note=72 velocity=0 time=0\n",
      "note_on channel=1 note=76 velocity=0 time=0\n",
      "note_on channel=1 note=64 velocity=102 time=7\n",
      "note_on channel=1 note=72 velocity=102 time=0\n",
      "note_on channel=1 note=76 velocity=102 time=0\n",
      "note_on channel=1 note=64 velocity=0 time=455\n",
      "note_on channel=1 note=72 velocity=0 time=0\n",
      "note_on channel=1 note=76 velocity=0 time=0\n",
      "note_on channel=1 note=64 velocity=102 time=265\n",
      "note_on channel=1 note=72 velocity=102 time=0\n",
      "note_on channel=1 note=76 velocity=102 time=0\n",
      "note_on channel=1 note=64 velocity=0 time=113\n",
      "note_on channel=1 note=72 velocity=0 time=0\n",
      "note_on channel=1 note=76 velocity=0 time=0\n",
      "note_on channel=1 note=64 velocity=102 time=7\n",
      "note_on channel=1 note=72 velocity=102 time=0\n",
      "note_on channel=1 note=76 velocity=102 time=0\n",
      "note_on channel=1 note=64 velocity=0 time=113\n",
      "note_on channel=1 note=72 velocity=0 time=0\n",
      "note_on channel=1 note=76 velocity=0 time=0\n",
      "note_on channel=1 note=64 velocity=102 time=7\n",
      "note_on channel=1 note=72 velocity=102 time=0\n",
      "note_on channel=1 note=76 velocity=102 time=0\n",
      "note_on channel=1 note=64 velocity=0 time=227\n",
      "note_on channel=1 note=72 velocity=0 time=0\n",
      "note_on channel=1 note=76 velocity=0 time=0\n",
      "note_on channel=1 note=76 velocity=102 time=253\n",
      "note_on channel=1 note=79 velocity=102 time=0\n",
      "note_on channel=1 note=76 velocity=0 time=227\n",
      "note_on channel=1 note=79 velocity=0 time=0\n",
      "note_on channel=1 note=79 velocity=102 time=13\n",
      "note_on channel=1 note=84 velocity=102 time=0\n",
      "note_on channel=1 note=79 velocity=0 time=227\n",
      "note_on channel=1 note=84 velocity=0 time=0\n",
      "note_on channel=1 note=76 velocity=102 time=13\n",
      "note_on channel=1 note=84 velocity=102 time=0\n",
      "note_on channel=1 note=88 velocity=102 time=0\n",
      "note_on channel=1 note=76 velocity=0 time=119\n",
      "note_on channel=1 note=84 velocity=0 time=0\n",
      "note_on channel=1 note=88 velocity=0 time=0\n",
      "note_on channel=1 note=76 velocity=96 time=841\n",
      "note_on channel=1 note=84 velocity=96 time=0\n",
      "note_on channel=1 note=88 velocity=96 time=0\n",
      "note_on channel=1 note=76 velocity=0 time=119\n",
      "note_on channel=1 note=84 velocity=0 time=0\n",
      "note_on channel=1 note=88 velocity=0 time=0\n",
      "note_on channel=1 note=83 velocity=96 time=121\n",
      "note_on channel=1 note=86 velocity=96 time=0\n",
      "note_on channel=1 note=83 velocity=0 time=59\n",
      "note_on channel=1 note=86 velocity=0 time=0\n",
      "note_on channel=1 note=84 velocity=96 time=61\n",
      "note_on channel=1 note=88 velocity=96 time=0\n",
      "note_on channel=1 note=84 velocity=0 time=59\n",
      "note_on channel=1 note=88 velocity=0 time=0\n",
      "note_on channel=1 note=72 velocity=96 time=61\n",
      "note_on channel=1 note=81 velocity=96 time=0\n",
      "note_on channel=1 note=84 velocity=96 time=0\n",
      "note_on channel=1 note=72 velocity=0 time=119\n",
      "note_on channel=1 note=81 velocity=0 time=0\n",
      "note_on channel=1 note=84 velocity=0 time=0\n",
      "note_on channel=1 note=79 velocity=90 time=121\n",
      "note_on channel=1 note=83 velocity=90 time=0\n",
      "note_on channel=1 note=79 velocity=0 time=59\n",
      "note_on channel=1 note=83 velocity=0 time=0\n",
      "note_on channel=1 note=81 velocity=90 time=61\n",
      "note_on channel=1 note=84 velocity=90 time=0\n",
      "note_on channel=1 note=81 velocity=0 time=59\n",
      "note_on channel=1 note=84 velocity=0 time=0\n",
      "note_on channel=1 note=69 velocity=90 time=61\n",
      "note_on channel=1 note=78 velocity=90 time=0\n",
      "note_on channel=1 note=81 velocity=90 time=0\n",
      "note_on channel=1 note=69 velocity=0 time=227\n",
      "note_on channel=1 note=78 velocity=0 time=0\n",
      "note_on channel=1 note=81 velocity=0 time=0\n",
      "note_on channel=1 note=69 velocity=90 time=733\n",
      "note_on channel=1 note=78 velocity=90 time=0\n",
      "note_on channel=1 note=81 velocity=90 time=0\n",
      "note_on channel=1 note=69 velocity=0 time=119\n",
      "note_on channel=1 note=78 velocity=0 time=0\n",
      "note_on channel=1 note=81 velocity=0 time=0\n",
      "note_on channel=1 note=76 velocity=90 time=121\n",
      "note_on channel=1 note=79 velocity=90 time=0\n",
      "note_on channel=1 note=76 velocity=0 time=59\n",
      "note_on channel=1 note=79 velocity=0 time=0\n",
      "note_on channel=1 note=78 velocity=90 time=61\n",
      "note_on channel=1 note=81 velocity=90 time=0\n",
      "note_on channel=1 note=78 velocity=0 time=59\n",
      "note_on channel=1 note=81 velocity=0 time=0\n",
      "note_on channel=1 note=78 velocity=90 time=61\n",
      "note_on channel=1 note=86 velocity=90 time=0\n",
      "note_on channel=1 note=78 velocity=0 time=119\n",
      "note_on channel=1 note=86 velocity=0 time=0\n",
      "note_on channel=1 note=76 velocity=90 time=121\n",
      "note_on channel=1 note=84 velocity=90 time=0\n",
      "note_on channel=1 note=76 velocity=0 time=59\n",
      "note_on channel=1 note=84 velocity=0 time=0\n",
      "note_on channel=1 note=78 velocity=90 time=61\n",
      "note_on channel=1 note=86 velocity=90 time=0\n",
      "note_on channel=1 note=78 velocity=0 time=59\n",
      "note_on channel=1 note=86 velocity=0 time=0\n",
      "note_on channel=1 note=71 velocity=90 time=61\n",
      "note_on channel=1 note=79 velocity=90 time=0\n",
      "note_on channel=1 note=83 velocity=90 time=0\n",
      "note_on channel=1 note=71 velocity=0 time=119\n",
      "note_on channel=1 note=79 velocity=0 time=0\n",
      "note_on channel=1 note=83 velocity=0 time=0\n",
      "note_on channel=1 note=78 velocity=90 time=121\n",
      "note_on channel=1 note=81 velocity=90 time=0\n",
      "note_on channel=1 note=78 velocity=0 time=59\n",
      "note_on channel=1 note=81 velocity=0 time=0\n",
      "note_on channel=1 note=79 velocity=90 time=61\n",
      "note_on channel=1 note=83 velocity=90 time=0\n",
      "note_on channel=1 note=79 velocity=0 time=59\n",
      "note_on channel=1 note=83 velocity=0 time=0\n",
      "note_on channel=1 note=67 velocity=90 time=61\n",
      "note_on channel=1 note=71 velocity=90 time=0\n",
      "note_on channel=1 note=79 velocity=90 time=0\n",
      "note_on channel=1 note=67 velocity=0 time=227\n",
      "note_on channel=1 note=71 velocity=0 time=0\n",
      "note_on channel=1 note=79 velocity=0 time=0\n",
      "note_on channel=1 note=67 velocity=90 time=253\n",
      "note_on channel=1 note=69 velocity=90 time=0\n",
      "note_on channel=1 note=76 velocity=90 time=0\n",
      "note_on channel=1 note=81 velocity=90 time=0\n",
      "note_on channel=1 note=67 velocity=0 time=227\n",
      "note_on channel=1 note=69 velocity=0 time=0\n",
      "note_on channel=1 note=76 velocity=0 time=0\n",
      "note_on channel=1 note=81 velocity=0 time=0\n",
      "note_on channel=1 note=66 velocity=90 time=253\n",
      "note_on channel=1 note=69 velocity=90 time=0\n",
      "note_on channel=1 note=74 velocity=90 time=0\n",
      "note_on channel=1 note=66 velocity=0 time=227\n",
      "note_on channel=1 note=69 velocity=0 time=0\n",
      "note_on channel=1 note=74 velocity=0 time=0\n",
      "note_on channel=1 note=74 velocity=106 time=253\n",
      "note_on channel=1 note=83 velocity=106 time=0\n",
      "note_on channel=1 note=86 velocity=106 time=0\n",
      "note_on channel=1 note=74 velocity=0 time=683\n",
      "note_on channel=1 note=83 velocity=0 time=0\n",
      "note_on channel=1 note=86 velocity=0 time=0\n",
      "note_on channel=1 note=71 velocity=96 time=37\n",
      "note_on channel=1 note=71 velocity=0 time=119\n",
      "note_on channel=1 note=83 velocity=96 time=121\n",
      "note_on channel=1 note=84 velocity=96 time=0\n",
      "note_on channel=1 note=83 velocity=0 time=119\n",
      "note_on channel=1 note=84 velocity=0 time=0\n",
      "note_on channel=1 note=72 velocity=96 time=121\n",
      "note_on channel=1 note=72 velocity=0 time=119\n",
      "note_on channel=1 note=81 velocity=96 time=121\n",
      "note_on channel=1 note=83 velocity=96 time=0\n",
      "note_on channel=1 note=81 velocity=0 time=119\n",
      "note_on channel=1 note=83 velocity=0 time=0\n",
      "note_on channel=1 note=71 velocity=96 time=121\n",
      "note_on channel=1 note=71 velocity=0 time=119\n",
      "note_on channel=1 note=79 velocity=96 time=121\n",
      "note_on channel=1 note=81 velocity=96 time=0\n",
      "note_on channel=1 note=79 velocity=0 time=119\n",
      "note_on channel=1 note=81 velocity=0 time=0\n",
      "note_on channel=1 note=69 velocity=96 time=121\n",
      "note_on channel=1 note=69 velocity=0 time=119\n",
      "note_on channel=1 note=79 velocity=96 time=121\n",
      "note_on channel=1 note=79 velocity=0 time=119\n",
      "note_on channel=1 note=67 velocity=96 time=121\n",
      "note_on channel=1 note=67 velocity=0 time=119\n",
      "note_on channel=1 note=79 velocity=96 time=121\n",
      "note_on channel=1 note=81 velocity=96 time=0\n",
      "note_on channel=1 note=79 velocity=0 time=119\n",
      "note_on channel=1 note=81 velocity=0 time=0\n",
      "note_on channel=1 note=67 velocity=96 time=121\n",
      "note_on channel=1 note=69 velocity=96 time=0\n",
      "note_on channel=1 note=67 velocity=0 time=119\n",
      "note_on channel=1 note=69 velocity=0 time=0\n",
      "note_on channel=1 note=69 velocity=96 time=121\n",
      "note_on channel=1 note=74 velocity=96 time=0\n",
      "note_on channel=1 note=78 velocity=96 time=0\n",
      "note_on channel=1 note=69 velocity=0 time=119\n",
      "note_on channel=1 note=74 velocity=0 time=0\n",
      "note_on channel=1 note=78 velocity=0 time=0\n",
      "note_on channel=1 note=78 velocity=96 time=121\n",
      "note_on channel=1 note=78 velocity=0 time=55\n",
      "note_on channel=1 note=79 velocity=96 time=5\n",
      "note_on channel=1 note=79 velocity=0 time=55\n",
      "note_on channel=1 note=78 velocity=96 time=5\n",
      "note_on channel=1 note=78 velocity=0 time=55\n",
      "note_on channel=1 note=79 velocity=96 time=5\n",
      "note_on channel=1 note=79 velocity=0 time=55\n",
      "note_on channel=1 note=71 velocity=96 time=3845\n",
      "note_on channel=1 note=83 velocity=96 time=0\n",
      "note_on channel=1 note=71 velocity=0 time=683\n",
      "note_on channel=1 note=83 velocity=0 time=0\n",
      "note_on channel=1 note=71 velocity=96 time=37\n",
      "note_on channel=1 note=71 velocity=0 time=227\n",
      "note_on channel=1 note=81 velocity=96 time=13\n",
      "note_on channel=1 note=81 velocity=0 time=119\n",
      "note_on channel=1 note=69 velocity=96 time=121\n",
      "note_on channel=1 note=71 velocity=96 time=0\n",
      "note_on channel=1 note=69 velocity=0 time=119\n",
      "note_on channel=1 note=71 velocity=0 time=0\n",
      "note_on channel=1 note=79 velocity=96 time=121\n",
      "note_on channel=1 note=79 velocity=0 time=119\n",
      "note_on channel=1 note=67 velocity=96 time=121\n",
      "note_on channel=1 note=71 velocity=96 time=0\n",
      "note_on channel=1 note=67 velocity=0 time=119\n",
      "note_on channel=1 note=71 velocity=0 time=0\n",
      "note_on channel=1 note=78 velocity=96 time=121\n",
      "note_on channel=1 note=78 velocity=0 time=119\n",
      "note_on channel=1 note=66 velocity=96 time=121\n",
      "note_on channel=1 note=71 velocity=96 time=0\n",
      "note_on channel=1 note=66 velocity=0 time=119\n",
      "note_on channel=1 note=71 velocity=0 time=0\n",
      "note_on channel=1 note=76 velocity=96 time=121\n",
      "note_on channel=1 note=76 velocity=0 time=119\n",
      "note_on channel=1 note=64 velocity=96 time=121\n",
      "note_on channel=1 note=67 velocity=96 time=0\n",
      "note_on channel=1 note=71 velocity=96 time=0\n",
      "note_on channel=1 note=64 velocity=0 time=119\n",
      "note_on channel=1 note=67 velocity=0 time=0\n",
      "note_on channel=1 note=71 velocity=0 time=0\n",
      "note_on channel=1 note=78 velocity=96 time=121\n",
      "note_on channel=1 note=78 velocity=0 time=119\n",
      "note_on channel=1 note=66 velocity=96 time=121\n",
      "note_on channel=1 note=69 velocity=96 time=0\n",
      "note_on channel=1 note=66 velocity=0 time=119\n",
      "note_on channel=1 note=69 velocity=0 time=0\n",
      "note_on channel=1 note=66 velocity=96 time=121\n",
      "note_on channel=1 note=69 velocity=96 time=0\n",
      "note_on channel=1 note=75 velocity=96 time=0\n",
      "note_on channel=1 note=66 velocity=0 time=119\n",
      "note_on channel=1 note=69 velocity=0 time=0\n",
      "note_on channel=1 note=75 velocity=0 time=0\n",
      "note_on channel=1 note=75 velocity=96 time=121\n",
      "note_on channel=1 note=75 velocity=0 time=55\n",
      "note_on channel=1 note=76 velocity=96 time=5\n",
      "note_on channel=1 note=76 velocity=0 time=55\n",
      "note_on channel=1 note=75 velocity=96 time=5\n",
      "note_on channel=1 note=75 velocity=0 time=55\n",
      "note_on channel=1 note=76 velocity=96 time=5\n",
      "note_on channel=1 note=76 velocity=0 time=55\n",
      "note_on channel=1 note=76 velocity=49 time=3605\n",
      "note_on channel=1 note=76 velocity=0 time=227\n",
      "note_on channel=1 note=81 velocity=96 time=13\n",
      "note_on channel=1 note=73 velocity=96 time=0\n",
      "note_on channel=1 note=76 velocity=96 time=0\n",
      "note_on channel=1 note=81 velocity=0 time=227\n",
      "note_on channel=1 note=73 velocity=0 time=0\n",
      "note_on channel=1 note=76 velocity=0 time=0\n",
      "note_on channel=1 note=69 velocity=96 time=13\n",
      "note_on channel=1 note=73 velocity=96 time=0\n",
      "note_on channel=1 note=76 velocity=96 time=0\n",
      "note_on channel=1 note=69 velocity=0 time=227\n",
      "note_on channel=1 note=73 velocity=0 time=0\n",
      "note_on channel=1 note=76 velocity=0 time=0\n",
      "note_on channel=1 note=83 velocity=96 time=13\n",
      "note_on channel=1 note=74 velocity=96 time=0\n",
      "note_on channel=1 note=76 velocity=96 time=0\n",
      "note_on channel=1 note=83 velocity=0 time=227\n",
      "note_on channel=1 note=74 velocity=0 time=0\n",
      "note_on channel=1 note=76 velocity=0 time=0\n",
      "note_on channel=1 note=71 velocity=96 time=13\n",
      "note_on channel=1 note=74 velocity=96 time=0\n",
      "note_on channel=1 note=76 velocity=96 time=0\n",
      "note_on channel=1 note=71 velocity=0 time=227\n",
      "note_on channel=1 note=74 velocity=0 time=0\n",
      "note_on channel=1 note=76 velocity=0 time=0\n",
      "note_on channel=1 note=81 velocity=96 time=973\n",
      "note_on channel=1 note=73 velocity=96 time=0\n",
      "note_on channel=1 note=76 velocity=96 time=0\n",
      "note_on channel=1 note=81 velocity=0 time=227\n",
      "note_on channel=1 note=73 velocity=0 time=0\n",
      "note_on channel=1 note=76 velocity=0 time=0\n",
      "note_on channel=1 note=69 velocity=96 time=13\n",
      "note_on channel=1 note=73 velocity=96 time=0\n",
      "note_on channel=1 note=76 velocity=96 time=0\n",
      "note_on channel=1 note=69 velocity=0 time=227\n",
      "note_on channel=1 note=73 velocity=0 time=0\n",
      "note_on channel=1 note=76 velocity=0 time=0\n",
      "note_on channel=1 note=83 velocity=96 time=13\n",
      "note_on channel=1 note=74 velocity=96 time=0\n",
      "note_on channel=1 note=76 velocity=96 time=0\n",
      "note_on channel=1 note=83 velocity=0 time=227\n",
      "note_on channel=1 note=74 velocity=0 time=0\n",
      "note_on channel=1 note=76 velocity=0 time=0\n",
      "note_on channel=1 note=71 velocity=96 time=13\n",
      "note_on channel=1 note=74 velocity=96 time=0\n",
      "note_on channel=1 note=76 velocity=96 time=0\n",
      "note_on channel=1 note=71 velocity=0 time=227\n",
      "note_on channel=1 note=74 velocity=0 time=0\n",
      "note_on channel=1 note=76 velocity=0 time=0\n",
      "note_on channel=1 note=57 velocity=96 time=973\n",
      "note_on channel=1 note=69 velocity=96 time=0\n",
      "note_on channel=1 note=57 velocity=0 time=227\n",
      "note_on channel=1 note=69 velocity=0 time=0\n",
      "note_on channel=1 note=57 velocity=49 time=6493\n",
      "note_on channel=1 note=69 velocity=49 time=0\n",
      "note_on channel=1 note=57 velocity=0 time=239\n",
      "note_on channel=1 note=69 velocity=0 time=0\n",
      "note_on channel=1 note=57 velocity=33 time=1201\n",
      "note_on channel=1 note=62 velocity=33 time=76\n",
      "note_on channel=1 note=65 velocity=33 time=77\n",
      "note_on channel=1 note=62 velocity=0 time=325\n",
      "note_on channel=1 note=65 velocity=0 time=0\n",
      "note_on channel=1 note=57 velocity=0 time=1\n",
      "note_on channel=1 note=57 velocity=33 time=1\n",
      "note_on channel=1 note=61 velocity=33 time=76\n",
      "note_on channel=1 note=64 velocity=33 time=77\n",
      "note_on channel=1 note=61 velocity=0 time=325\n",
      "note_on channel=1 note=64 velocity=0 time=0\n",
      "note_on channel=1 note=57 velocity=0 time=1\n",
      "note_on channel=1 note=57 velocity=33 time=961\n",
      "note_on channel=1 note=62 velocity=33 time=76\n",
      "note_on channel=1 note=65 velocity=33 time=77\n",
      "note_on channel=1 note=62 velocity=0 time=325\n",
      "note_on channel=1 note=65 velocity=0 time=0\n",
      "note_on channel=1 note=57 velocity=0 time=1\n",
      "note_on channel=1 note=57 velocity=33 time=1\n",
      "note_on channel=1 note=61 velocity=33 time=76\n",
      "note_on channel=1 note=64 velocity=33 time=77\n",
      "note_on channel=1 note=61 velocity=0 time=325\n",
      "note_on channel=1 note=64 velocity=0 time=0\n",
      "note_on channel=1 note=57 velocity=0 time=1\n",
      "note_on channel=1 note=57 velocity=33 time=481\n",
      "note_on channel=1 note=62 velocity=33 time=76\n",
      "note_on channel=1 note=65 velocity=33 time=77\n",
      "note_on channel=1 note=62 velocity=0 time=325\n",
      "note_on channel=1 note=65 velocity=0 time=0\n",
      "note_on channel=1 note=57 velocity=0 time=1\n",
      "note_on channel=1 note=57 velocity=33 time=481\n",
      "note_on channel=1 note=64 velocity=33 time=76\n",
      "note_on channel=1 note=67 velocity=33 time=77\n",
      "note_on channel=1 note=64 velocity=0 time=325\n",
      "note_on channel=1 note=67 velocity=0 time=0\n",
      "note_on channel=1 note=57 velocity=0 time=1\n",
      "note_on channel=1 note=57 velocity=33 time=1921\n",
      "note_on channel=1 note=65 velocity=33 time=76\n",
      "note_on channel=1 note=68 velocity=33 time=77\n",
      "note_on channel=1 note=65 velocity=0 time=325\n",
      "note_on channel=1 note=68 velocity=0 time=0\n",
      "note_on channel=1 note=57 velocity=0 time=1\n",
      "note_on channel=1 note=57 velocity=33 time=2881\n",
      "note_on channel=1 note=66 velocity=33 time=71\n",
      "note_on channel=1 note=69 velocity=33 time=71\n",
      "note_on channel=1 note=66 velocity=0 time=336\n",
      "note_on channel=1 note=69 velocity=0 time=0\n",
      "note_on channel=1 note=57 velocity=0 time=1\n",
      "note_on channel=1 note=64 velocity=80 time=12001\n",
      "note_on channel=1 note=64 velocity=0 time=2279\n",
      "note_on channel=1 note=66 velocity=33 time=121\n",
      "note_on channel=1 note=66 velocity=0 time=455\n",
      "note_on channel=1 note=67 velocity=33 time=25\n",
      "note_on channel=1 note=67 velocity=0 time=455\n",
      "note_on channel=1 note=69 velocity=33 time=25\n",
      "note_on channel=1 note=69 velocity=0 time=1367\n",
      "note_on channel=1 note=67 velocity=33 time=73\n",
      "note_on channel=1 note=67 velocity=0 time=227\n",
      "note_on channel=1 note=66 velocity=33 time=13\n",
      "note_on channel=1 note=67 velocity=33 time=240\n",
      "note_on channel=1 note=73 velocity=33 time=0\n",
      "note_on channel=1 note=66 velocity=0 time=431\n",
      "note_on channel=1 note=73 velocity=0 time=480\n",
      "note_on channel=1 note=74 velocity=33 time=49\n",
      "note_on channel=1 note=74 velocity=0 time=455\n",
      "note_on channel=1 note=76 velocity=33 time=25\n",
      "note_on channel=1 note=67 velocity=0 time=383\n",
      "note_on channel=1 note=76 velocity=0 time=72\n",
      "note_on channel=1 note=78 velocity=33 time=25\n",
      "note_on channel=1 note=66 velocity=33 time=0\n",
      "note_on channel=1 note=78 velocity=0 time=911\n",
      "note_on channel=1 note=66 velocity=0 time=0\n",
      "note_on channel=1 note=64 velocity=33 time=49\n",
      "note_on channel=1 note=64 velocity=0 time=38\n",
      "note_on channel=1 note=62 velocity=33 time=1\n",
      "note_on channel=1 note=62 velocity=0 time=38\n",
      "note_on channel=1 note=61 velocity=33 time=2\n",
      "note_on channel=1 note=61 velocity=0 time=38\n",
      "note_on channel=1 note=62 velocity=33 time=3\n",
      "note_on channel=1 note=62 velocity=0 time=113\n",
      "note_on channel=1 note=76 velocity=33 time=7\n",
      "note_on channel=1 note=64 velocity=33 time=0\n",
      "note_on channel=1 note=76 velocity=0 time=227\n",
      "note_on channel=1 note=64 velocity=0 time=0\n",
      "note_on channel=1 note=74 velocity=33 time=13\n",
      "note_on channel=1 note=66 velocity=33 time=0\n",
      "note_on channel=1 note=62 velocity=33 time=0\n",
      "note_on channel=1 note=74 velocity=0 time=227\n",
      "note_on channel=1 note=66 velocity=0 time=0\n",
      "note_on channel=1 note=76 velocity=33 time=13\n",
      "note_on channel=1 note=67 velocity=33 time=0\n",
      "note_on channel=1 note=62 velocity=0 time=215\n",
      "note_on channel=1 note=76 velocity=0 time=12\n",
      "note_on channel=1 note=67 velocity=0 time=0\n",
      "note_on channel=1 note=66 velocity=33 time=13\n",
      "note_on channel=1 note=74 velocity=33 time=0\n",
      "note_on channel=1 note=66 velocity=0 time=455\n",
      "note_on channel=1 note=74 velocity=0 time=0\n",
      "note_on channel=1 note=64 velocity=33 time=25\n",
      "note_on channel=1 note=73 velocity=33 time=0\n",
      "control_change channel=1 control=64 value=127 time=2\n",
      "note_on channel=1 note=64 velocity=0 time=453\n",
      "note_on channel=1 note=83 velocity=33 time=25\n",
      "note_on channel=1 note=73 velocity=0 time=431\n",
      "note_on channel=1 note=83 velocity=0 time=24\n",
      "note_on channel=1 note=85 velocity=33 time=25\n",
      "note_on channel=1 note=74 velocity=33 time=0\n",
      "control_change channel=1 control=64 value=0 time=1\n",
      "note_on channel=1 note=74 velocity=0 time=226\n",
      "note_on channel=1 note=76 velocity=33 time=13\n",
      "note_on channel=1 note=85 velocity=0 time=215\n",
      "note_on channel=1 note=76 velocity=0 time=12\n",
      "note_on channel=1 note=74 velocity=33 time=13\n",
      "note_on channel=1 note=86 velocity=33 time=0\n",
      "note_on channel=1 note=74 velocity=0 time=0\n",
      "note_on channel=1 note=74 velocity=33 time=0\n",
      "note_on channel=1 note=86 velocity=0 time=455\n",
      "note_on channel=1 note=81 velocity=33 time=25\n",
      "note_on channel=1 note=81 velocity=0 time=911\n",
      "note_on channel=1 note=79 velocity=33 time=49\n",
      "note_on channel=1 note=67 velocity=33 time=0\n",
      "note_on channel=1 note=79 velocity=0 time=227\n",
      "note_on channel=1 note=67 velocity=0 time=0\n",
      "note_on channel=1 note=78 velocity=33 time=13\n",
      "note_on channel=1 note=66 velocity=33 time=0\n",
      "note_on channel=1 note=74 velocity=0 time=143\n",
      "note_on channel=1 note=78 velocity=0 time=84\n",
      "note_on channel=1 note=66 velocity=0 time=0\n",
      "note_on channel=1 note=66 velocity=33 time=13\n",
      "note_on channel=1 note=78 velocity=33 time=0\n",
      "note_on channel=1 note=74 velocity=33 time=0\n",
      "note_on channel=1 note=66 velocity=0 time=455\n",
      "note_on channel=1 note=78 velocity=0 time=0\n",
      "note_on channel=1 note=64 velocity=48 time=25\n",
      "note_on channel=1 note=76 velocity=48 time=0\n",
      "note_on channel=1 note=74 velocity=0 time=431\n",
      "note_on channel=1 note=67 velocity=64 time=49\n",
      "note_on channel=1 note=73 velocity=64 time=0\n",
      "note_on channel=1 note=64 velocity=0 time=203\n",
      "note_on channel=1 note=76 velocity=0 time=0\n",
      "note_on channel=1 note=69 velocity=64 time=37\n",
      "note_on channel=1 note=67 velocity=0 time=215\n",
      "note_on channel=1 note=73 velocity=0 time=0\n",
      "note_on channel=1 note=69 velocity=0 time=12\n",
      "note_on channel=1 note=71 velocity=59 time=13\n",
      "note_on channel=1 note=71 velocity=0 time=227\n",
      "note_on channel=1 note=73 velocity=54 time=13\n",
      "note_on channel=1 note=69 velocity=54 time=0\n",
      "note_on channel=1 note=73 velocity=0 time=227\n",
      "note_on channel=1 note=69 velocity=0 time=0\n",
      "note_on channel=1 note=62 velocity=49 time=13\n",
      "note_on channel=1 note=74 velocity=49 time=0\n",
      "note_on channel=1 note=66 velocity=49 time=0\n",
      "note_on channel=1 note=69 velocity=49 time=0\n",
      "note_on channel=1 note=69 velocity=0 time=227\n",
      "note_on channel=1 note=66 velocity=0 time=228\n",
      "note_on channel=1 note=67 velocity=49 time=25\n",
      "note_on channel=1 note=62 velocity=0 time=203\n",
      "note_on channel=1 note=74 velocity=0 time=0\n",
      "note_on channel=1 note=64 velocity=49 time=37\n",
      "note_on channel=1 note=73 velocity=49 time=0\n",
      "note_on channel=1 note=76 velocity=49 time=0\n",
      "note_on channel=1 note=67 velocity=0 time=215\n",
      "note_on channel=1 note=73 velocity=0 time=240\n",
      "note_on channel=1 note=76 velocity=0 time=0\n",
      "note_on channel=1 note=69 velocity=49 time=25\n",
      "note_on channel=1 note=64 velocity=0 time=203\n",
      "note_on channel=1 note=69 velocity=0 time=24\n",
      "note_on channel=1 note=71 velocity=49 time=13\n",
      "note_on channel=1 note=71 velocity=0 time=227\n",
      "note_on channel=1 note=73 velocity=49 time=13\n",
      "note_on channel=1 note=69 velocity=49 time=0\n",
      "note_on channel=1 note=73 velocity=0 time=227\n",
      "note_on channel=1 note=69 velocity=0 time=0\n",
      "note_on channel=1 note=66 velocity=80 time=13\n",
      "note_on channel=1 note=69 velocity=80 time=0\n",
      "note_on channel=1 note=74 velocity=80 time=0\n",
      "note_on channel=1 note=66 velocity=0 time=119\n",
      "note_on channel=1 note=69 velocity=0 time=0\n",
      "note_on channel=1 note=74 velocity=0 time=0\n",
      "note_on channel=1 note=69 velocity=96 time=121\n",
      "note_on channel=1 note=74 velocity=96 time=0\n",
      "note_on channel=1 note=78 velocity=96 time=0\n",
      "note_on channel=1 note=69 velocity=0 time=119\n",
      "note_on channel=1 note=74 velocity=0 time=0\n",
      "note_on channel=1 note=78 velocity=0 time=0\n",
      "note_on channel=1 note=67 velocity=96 time=1801\n",
      "note_on channel=1 note=69 velocity=96 time=0\n",
      "note_on channel=1 note=73 velocity=96 time=0\n",
      "note_on channel=1 note=79 velocity=96 time=0\n",
      "note_on channel=1 note=67 velocity=0 time=227\n",
      "note_on channel=1 note=69 velocity=0 time=0\n",
      "note_on channel=1 note=73 velocity=0 time=0\n",
      "note_on channel=1 note=79 velocity=0 time=0\n",
      "note_on channel=1 note=66 velocity=80 time=1453\n",
      "note_on channel=1 note=66 velocity=0 time=227\n",
      "note_on channel=1 note=69 velocity=96 time=13\n",
      "note_on channel=1 note=74 velocity=96 time=0\n",
      "note_on channel=1 note=78 velocity=96 time=0\n",
      "note_on channel=1 note=69 velocity=0 time=227\n",
      "note_on channel=1 note=74 velocity=0 time=0\n",
      "note_on channel=1 note=78 velocity=0 time=0\n",
      "note_on channel=1 note=67 velocity=96 time=1693\n",
      "note_on channel=1 note=69 velocity=96 time=0\n",
      "note_on channel=1 note=73 velocity=96 time=0\n",
      "note_on channel=1 note=79 velocity=96 time=0\n",
      "note_on channel=1 note=67 velocity=0 time=227\n",
      "note_on channel=1 note=69 velocity=0 time=0\n",
      "note_on channel=1 note=73 velocity=0 time=0\n",
      "note_on channel=1 note=79 velocity=0 time=0\n",
      "note_on channel=1 note=66 velocity=80 time=1453\n",
      "note_on channel=1 note=66 velocity=0 time=227\n",
      "note_on channel=1 note=69 velocity=96 time=13\n",
      "note_on channel=1 note=74 velocity=96 time=0\n",
      "note_on channel=1 note=78 velocity=96 time=0\n",
      "note_on channel=1 note=69 velocity=0 time=227\n",
      "note_on channel=1 note=74 velocity=0 time=0\n",
      "note_on channel=1 note=78 velocity=0 time=0\n",
      "note_on channel=1 note=64 velocity=80 time=493\n",
      "note_on channel=1 note=64 velocity=0 time=227\n",
      "note_on channel=1 note=73 velocity=96 time=13\n",
      "note_on channel=1 note=76 velocity=96 time=0\n",
      "note_on channel=1 note=73 velocity=0 time=227\n",
      "note_on channel=1 note=76 velocity=0 time=0\n",
      "note_on channel=1 note=78 velocity=49 time=733\n",
      "note_on channel=1 note=83 velocity=49 time=0\n",
      "note_on channel=1 note=86 velocity=49 time=0\n",
      "note_on channel=1 note=78 velocity=0 time=227\n",
      "note_on channel=1 note=83 velocity=0 time=0\n",
      "note_on channel=1 note=86 velocity=0 time=0\n",
      "note_on channel=1 note=74 velocity=49 time=253\n",
      "note_on channel=1 note=81 velocity=49 time=0\n",
      "note_on channel=1 note=84 velocity=49 time=0\n",
      "note_on channel=1 note=74 velocity=0 time=227\n",
      "note_on channel=1 note=81 velocity=0 time=0\n",
      "note_on channel=1 note=84 velocity=0 time=0\n",
      "note_on channel=1 note=74 velocity=49 time=253\n",
      "note_on channel=1 note=79 velocity=49 time=0\n",
      "note_on channel=1 note=83 velocity=49 time=0\n",
      "note_on channel=1 note=74 velocity=0 time=227\n",
      "note_on channel=1 note=79 velocity=0 time=0\n",
      "note_on channel=1 note=83 velocity=0 time=0\n",
      "note_on channel=1 note=71 velocity=49 time=253\n",
      "note_on channel=1 note=78 velocity=49 time=0\n",
      "note_on channel=1 note=81 velocity=49 time=0\n",
      "note_on channel=1 note=71 velocity=0 time=227\n",
      "note_on channel=1 note=78 velocity=0 time=0\n",
      "note_on channel=1 note=81 velocity=0 time=0\n",
      "note_on channel=1 note=71 velocity=49 time=253\n",
      "note_on channel=1 note=76 velocity=49 time=0\n",
      "note_on channel=1 note=79 velocity=49 time=0\n",
      "note_on channel=1 note=71 velocity=0 time=227\n",
      "note_on channel=1 note=76 velocity=0 time=0\n",
      "note_on channel=1 note=79 velocity=0 time=0\n",
      "note_on channel=1 note=71 velocity=49 time=253\n",
      "note_on channel=1 note=76 velocity=49 time=0\n",
      "note_on channel=1 note=79 velocity=49 time=0\n",
      "note_on channel=1 note=71 velocity=0 time=227\n",
      "note_on channel=1 note=76 velocity=0 time=0\n",
      "note_on channel=1 note=79 velocity=0 time=0\n",
      "note_on channel=1 note=73 velocity=49 time=13\n",
      "note_on channel=1 note=76 velocity=49 time=0\n",
      "note_on channel=1 note=73 velocity=0 time=227\n",
      "note_on channel=1 note=76 velocity=0 time=0\n",
      "note_on channel=1 note=66 velocity=33 time=733\n",
      "note_on channel=1 note=66 velocity=0 time=227\n",
      "note_on channel=1 note=69 velocity=33 time=13\n",
      "note_on channel=1 note=74 velocity=33 time=0\n",
      "note_on channel=1 note=78 velocity=33 time=0\n",
      "note_on channel=1 note=69 velocity=0 time=227\n",
      "note_on channel=1 note=74 velocity=0 time=0\n",
      "note_on channel=1 note=78 velocity=0 time=0\n",
      "note_on channel=1 note=69 velocity=33 time=1693\n",
      "note_on channel=1 note=73 velocity=33 time=0\n",
      "note_on channel=1 note=79 velocity=33 time=0\n",
      "note_on channel=1 note=69 velocity=0 time=227\n",
      "note_on channel=1 note=73 velocity=0 time=0\n",
      "note_on channel=1 note=79 velocity=0 time=0\n",
      "note_on channel=1 note=66 velocity=33 time=1453\n",
      "note_on channel=1 note=66 velocity=0 time=227\n",
      "note_on channel=1 note=69 velocity=33 time=13\n",
      "note_on channel=1 note=74 velocity=33 time=0\n",
      "note_on channel=1 note=78 velocity=33 time=0\n",
      "note_on channel=1 note=69 velocity=0 time=227\n",
      "note_on channel=1 note=74 velocity=0 time=0\n",
      "note_on channel=1 note=78 velocity=0 time=0\n",
      "note_on channel=1 note=65 velocity=33 time=3373\n",
      "note_on channel=1 note=65 velocity=0 time=227\n",
      "note_on channel=1 note=71 velocity=33 time=13\n",
      "note_on channel=1 note=77 velocity=33 time=0\n",
      "note_on channel=1 note=71 velocity=0 time=227\n",
      "note_on channel=1 note=77 velocity=0 time=0\n",
      "note_on channel=1 note=65 velocity=96 time=1453\n",
      "note_on channel=1 note=65 velocity=0 time=227\n",
      "note_on channel=1 note=71 velocity=96 time=13\n",
      "note_on channel=1 note=77 velocity=96 time=0\n",
      "note_on channel=1 note=71 velocity=0 time=2507\n",
      "note_on channel=1 note=77 velocity=0 time=0\n",
      "note_on channel=1 note=71 velocity=96 time=133\n",
      "note_on channel=1 note=77 velocity=96 time=0\n",
      "note_on channel=1 note=71 velocity=0 time=227\n",
      "note_on channel=1 note=77 velocity=0 time=0\n",
      "note_on channel=1 note=71 velocity=96 time=253\n",
      "note_on channel=1 note=77 velocity=96 time=0\n",
      "note_on channel=1 note=71 velocity=0 time=227\n",
      "note_on channel=1 note=77 velocity=0 time=0\n",
      "note_on channel=1 note=65 velocity=96 time=253\n",
      "note_on channel=1 note=65 velocity=0 time=227\n",
      "note_on channel=1 note=71 velocity=96 time=13\n",
      "note_on channel=1 note=77 velocity=96 time=0\n",
      "note_on channel=1 note=71 velocity=0 time=2507\n",
      "note_on channel=1 note=77 velocity=0 time=0\n",
      "note_on channel=1 note=71 velocity=49 time=133\n",
      "note_on channel=1 note=77 velocity=49 time=0\n",
      "note_on channel=1 note=71 velocity=0 time=227\n",
      "note_on channel=1 note=77 velocity=0 time=0\n",
      "note_on channel=1 note=71 velocity=49 time=253\n",
      "note_on channel=1 note=77 velocity=49 time=0\n",
      "note_on channel=1 note=71 velocity=0 time=227\n",
      "note_on channel=1 note=77 velocity=0 time=0\n",
      "note_on channel=1 note=71 velocity=49 time=253\n",
      "note_on channel=1 note=77 velocity=49 time=0\n",
      "note_on channel=1 note=71 velocity=0 time=227\n",
      "note_on channel=1 note=77 velocity=0 time=0\n",
      "note_on channel=1 note=59 velocity=49 time=493\n",
      "note_on channel=1 note=62 velocity=49 time=0\n",
      "note_on channel=1 note=65 velocity=49 time=0\n",
      "note_on channel=1 note=59 velocity=0 time=113\n",
      "note_on channel=1 note=62 velocity=0 time=0\n",
      "note_on channel=1 note=65 velocity=0 time=0\n",
      "note_on channel=1 note=59 velocity=49 time=7\n",
      "note_on channel=1 note=62 velocity=49 time=0\n",
      "note_on channel=1 note=65 velocity=49 time=0\n",
      "note_on channel=1 note=59 velocity=0 time=113\n",
      "note_on channel=1 note=62 velocity=0 time=0\n",
      "note_on channel=1 note=65 velocity=0 time=0\n",
      "note_on channel=1 note=59 velocity=49 time=7\n",
      "note_on channel=1 note=62 velocity=49 time=0\n",
      "note_on channel=1 note=65 velocity=49 time=0\n",
      "note_on channel=1 note=59 velocity=0 time=227\n",
      "note_on channel=1 note=62 velocity=0 time=0\n",
      "note_on channel=1 note=65 velocity=0 time=0\n",
      "note_on channel=1 note=71 velocity=49 time=493\n",
      "note_on channel=1 note=77 velocity=49 time=0\n",
      "note_on channel=1 note=71 velocity=0 time=113\n",
      "note_on channel=1 note=77 velocity=0 time=0\n",
      "note_on channel=1 note=71 velocity=49 time=7\n",
      "note_on channel=1 note=77 velocity=49 time=0\n",
      "note_on channel=1 note=71 velocity=0 time=113\n",
      "note_on channel=1 note=77 velocity=0 time=0\n",
      "note_on channel=1 note=71 velocity=49 time=7\n",
      "note_on channel=1 note=77 velocity=49 time=0\n",
      "note_on channel=1 note=71 velocity=0 time=227\n",
      "note_on channel=1 note=77 velocity=0 time=0\n",
      "note_on channel=1 note=59 velocity=49 time=493\n",
      "note_on channel=1 note=62 velocity=49 time=0\n",
      "note_on channel=1 note=65 velocity=49 time=0\n",
      "note_on channel=1 note=59 velocity=0 time=113\n",
      "note_on channel=1 note=62 velocity=0 time=0\n",
      "note_on channel=1 note=65 velocity=0 time=0\n",
      "note_on channel=1 note=59 velocity=49 time=7\n",
      "note_on channel=1 note=62 velocity=49 time=0\n",
      "note_on channel=1 note=65 velocity=49 time=0\n",
      "note_on channel=1 note=59 velocity=0 time=113\n",
      "note_on channel=1 note=62 velocity=0 time=0\n",
      "note_on channel=1 note=65 velocity=0 time=0\n",
      "note_on channel=1 note=59 velocity=49 time=7\n",
      "note_on channel=1 note=62 velocity=49 time=0\n",
      "note_on channel=1 note=65 velocity=49 time=0\n",
      "note_on channel=1 note=59 velocity=0 time=227\n",
      "note_on channel=1 note=62 velocity=0 time=0\n",
      "note_on channel=1 note=65 velocity=0 time=0\n",
      "note_on channel=1 note=71 velocity=49 time=493\n",
      "note_on channel=1 note=77 velocity=49 time=0\n",
      "note_on channel=1 note=71 velocity=0 time=113\n",
      "note_on channel=1 note=77 velocity=0 time=0\n",
      "note_on channel=1 note=71 velocity=49 time=7\n",
      "note_on channel=1 note=77 velocity=49 time=0\n",
      "note_on channel=1 note=71 velocity=0 time=113\n",
      "note_on channel=1 note=77 velocity=0 time=0\n",
      "note_on channel=1 note=71 velocity=49 time=7\n",
      "note_on channel=1 note=77 velocity=49 time=0\n",
      "note_on channel=1 note=71 velocity=0 time=227\n",
      "note_on channel=1 note=77 velocity=0 time=0\n",
      "note_on channel=1 note=71 velocity=49 time=3853\n",
      "note_on channel=1 note=77 velocity=49 time=0\n",
      "note_on channel=1 note=71 velocity=0 time=113\n",
      "note_on channel=1 note=77 velocity=0 time=0\n",
      "note_on channel=1 note=71 velocity=49 time=7\n",
      "note_on channel=1 note=77 velocity=49 time=0\n",
      "note_on channel=1 note=71 velocity=0 time=113\n",
      "note_on channel=1 note=77 velocity=0 time=0\n",
      "note_on channel=1 note=71 velocity=49 time=7\n",
      "note_on channel=1 note=77 velocity=49 time=0\n",
      "note_on channel=1 note=71 velocity=0 time=227\n",
      "note_on channel=1 note=77 velocity=0 time=0\n",
      "note_on channel=1 note=59 velocity=9 time=13\n",
      "note_on channel=1 note=62 velocity=9 time=0\n",
      "note_on channel=1 note=65 velocity=9 time=0\n",
      "note_on channel=1 note=59 velocity=0 time=113\n",
      "note_on channel=1 note=62 velocity=0 time=0\n",
      "note_on channel=1 note=65 velocity=0 time=0\n",
      "note_on channel=1 note=59 velocity=9 time=7\n",
      "note_on channel=1 note=62 velocity=9 time=0\n",
      "note_on channel=1 note=65 velocity=9 time=0\n",
      "note_on channel=1 note=59 velocity=0 time=113\n",
      "note_on channel=1 note=62 velocity=0 time=0\n",
      "note_on channel=1 note=65 velocity=0 time=0\n",
      "note_on channel=1 note=59 velocity=9 time=7\n",
      "note_on channel=1 note=62 velocity=9 time=0\n",
      "note_on channel=1 note=65 velocity=9 time=0\n",
      "note_on channel=1 note=59 velocity=0 time=227\n",
      "note_on channel=1 note=62 velocity=0 time=0\n",
      "note_on channel=1 note=65 velocity=0 time=0\n",
      "note_on channel=1 note=71 velocity=49 time=973\n",
      "note_on channel=1 note=77 velocity=49 time=0\n",
      "note_on channel=1 note=71 velocity=0 time=113\n",
      "note_on channel=1 note=77 velocity=0 time=0\n",
      "note_on channel=1 note=71 velocity=49 time=7\n",
      "note_on channel=1 note=77 velocity=49 time=0\n",
      "note_on channel=1 note=71 velocity=0 time=113\n",
      "note_on channel=1 note=77 velocity=0 time=0\n",
      "note_on channel=1 note=71 velocity=49 time=7\n",
      "note_on channel=1 note=77 velocity=49 time=0\n",
      "note_on channel=1 note=71 velocity=0 time=227\n",
      "note_on channel=1 note=77 velocity=0 time=0\n",
      "note_on channel=1 note=59 velocity=9 time=13\n",
      "note_on channel=1 note=62 velocity=9 time=0\n",
      "note_on channel=1 note=65 velocity=9 time=0\n",
      "note_on channel=1 note=59 velocity=0 time=113\n",
      "note_on channel=1 note=62 velocity=0 time=0\n",
      "note_on channel=1 note=65 velocity=0 time=0\n",
      "note_on channel=1 note=59 velocity=9 time=7\n",
      "note_on channel=1 note=62 velocity=9 time=0\n",
      "note_on channel=1 note=65 velocity=9 time=0\n",
      "note_on channel=1 note=59 velocity=0 time=113\n",
      "note_on channel=1 note=62 velocity=0 time=0\n",
      "note_on channel=1 note=65 velocity=0 time=0\n",
      "note_on channel=1 note=59 velocity=9 time=7\n",
      "note_on channel=1 note=62 velocity=9 time=0\n",
      "note_on channel=1 note=65 velocity=9 time=0\n",
      "note_on channel=1 note=59 velocity=0 time=227\n",
      "note_on channel=1 note=62 velocity=0 time=0\n",
      "note_on channel=1 note=65 velocity=0 time=0\n",
      "note_on channel=1 note=59 velocity=33 time=2653\n",
      "note_on channel=1 note=62 velocity=33 time=0\n",
      "note_on channel=1 note=65 velocity=33 time=0\n",
      "note_on channel=1 note=59 velocity=0 time=3191\n",
      "note_on channel=1 note=62 velocity=0 time=0\n",
      "note_on channel=1 note=65 velocity=0 time=0\n",
      "note_on channel=1 note=59 velocity=33 time=1129\n",
      "note_on channel=1 note=62 velocity=33 time=0\n",
      "note_on channel=1 note=65 velocity=33 time=0\n",
      "note_on channel=1 note=59 velocity=0 time=455\n",
      "note_on channel=1 note=62 velocity=0 time=0\n",
      "note_on channel=1 note=65 velocity=0 time=0\n",
      "note_on channel=1 note=55 velocity=40 time=8665\n",
      "note_on channel=1 note=60 velocity=40 time=0\n",
      "note_on channel=1 note=64 velocity=40 time=0\n",
      "note_on channel=1 note=55 velocity=0 time=455\n",
      "note_on channel=1 note=60 velocity=0 time=0\n",
      "note_on channel=1 note=64 velocity=0 time=0\n",
      "note_on channel=1 note=55 velocity=40 time=265\n",
      "note_on channel=1 note=60 velocity=40 time=0\n",
      "note_on channel=1 note=64 velocity=40 time=0\n",
      "note_on channel=1 note=55 velocity=0 time=113\n",
      "note_on channel=1 note=60 velocity=0 time=0\n",
      "note_on channel=1 note=64 velocity=0 time=0\n",
      "note_on channel=1 note=55 velocity=40 time=7\n",
      "note_on channel=1 note=60 velocity=40 time=0\n",
      "note_on channel=1 note=64 velocity=40 time=0\n",
      "note_on channel=1 note=55 velocity=0 time=113\n",
      "note_on channel=1 note=60 velocity=0 time=0\n",
      "note_on channel=1 note=64 velocity=0 time=0\n",
      "note_on channel=1 note=55 velocity=40 time=7\n",
      "note_on channel=1 note=60 velocity=40 time=0\n",
      "note_on channel=1 note=64 velocity=40 time=0\n",
      "note_on channel=1 note=55 velocity=0 time=455\n",
      "note_on channel=1 note=60 velocity=0 time=0\n",
      "note_on channel=1 note=64 velocity=0 time=0\n",
      "note_on channel=1 note=55 velocity=40 time=265\n",
      "note_on channel=1 note=60 velocity=40 time=0\n",
      "note_on channel=1 note=64 velocity=40 time=0\n",
      "note_on channel=1 note=55 velocity=0 time=113\n",
      "note_on channel=1 note=60 velocity=0 time=0\n",
      "note_on channel=1 note=64 velocity=0 time=0\n",
      "note_on channel=1 note=55 velocity=40 time=7\n",
      "note_on channel=1 note=60 velocity=40 time=0\n",
      "note_on channel=1 note=64 velocity=40 time=0\n",
      "note_on channel=1 note=55 velocity=0 time=113\n",
      "note_on channel=1 note=60 velocity=0 time=0\n",
      "note_on channel=1 note=64 velocity=0 time=0\n",
      "note_on channel=1 note=55 velocity=40 time=7\n",
      "note_on channel=1 note=60 velocity=40 time=0\n",
      "note_on channel=1 note=64 velocity=40 time=0\n",
      "note_on channel=1 note=55 velocity=0 time=227\n",
      "note_on channel=1 note=60 velocity=0 time=0\n",
      "note_on channel=1 note=64 velocity=0 time=0\n",
      "note_on channel=1 note=64 velocity=40 time=253\n",
      "note_on channel=1 note=67 velocity=40 time=0\n",
      "note_on channel=1 note=64 velocity=0 time=119\n",
      "note_on channel=1 note=67 velocity=0 time=0\n",
      "note_on channel=1 note=67 velocity=40 time=121\n",
      "note_on channel=1 note=72 velocity=40 time=0\n",
      "note_on channel=1 note=67 velocity=0 time=119\n",
      "note_on channel=1 note=72 velocity=0 time=0\n",
      "note_on channel=1 note=72 velocity=40 time=121\n",
      "note_on channel=1 note=76 velocity=40 time=0\n",
      "note_on channel=1 note=72 velocity=0 time=227\n",
      "note_on channel=1 note=76 velocity=0 time=0\n",
      "note_on channel=1 note=64 velocity=40 time=733\n",
      "note_on channel=1 note=72 velocity=40 time=0\n",
      "note_on channel=1 note=76 velocity=40 time=0\n",
      "note_on channel=1 note=64 velocity=0 time=119\n",
      "note_on channel=1 note=72 velocity=0 time=0\n",
      "note_on channel=1 note=76 velocity=0 time=0\n",
      "note_on channel=1 note=71 velocity=40 time=121\n",
      "note_on channel=1 note=74 velocity=40 time=0\n",
      "note_on channel=1 note=71 velocity=0 time=59\n",
      "note_on channel=1 note=74 velocity=0 time=0\n",
      "note_on channel=1 note=72 velocity=40 time=61\n",
      "note_on channel=1 note=76 velocity=40 time=0\n",
      "note_on channel=1 note=72 velocity=0 time=59\n",
      "note_on channel=1 note=76 velocity=0 time=0\n",
      "note_on channel=1 note=64 velocity=40 time=61\n",
      "note_on channel=1 note=69 velocity=40 time=0\n",
      "note_on channel=1 note=72 velocity=40 time=0\n",
      "note_on channel=1 note=64 velocity=0 time=119\n",
      "note_on channel=1 note=69 velocity=0 time=0\n",
      "note_on channel=1 note=72 velocity=0 time=0\n",
      "note_on channel=1 note=67 velocity=40 time=121\n",
      "note_on channel=1 note=71 velocity=40 time=0\n",
      "note_on channel=1 note=67 velocity=0 time=59\n",
      "note_on channel=1 note=71 velocity=0 time=0\n",
      "note_on channel=1 note=69 velocity=40 time=61\n",
      "note_on channel=1 note=72 velocity=40 time=0\n",
      "note_on channel=1 note=69 velocity=0 time=59\n",
      "note_on channel=1 note=72 velocity=0 time=0\n",
      "note_on channel=1 note=66 velocity=40 time=61\n",
      "note_on channel=1 note=69 velocity=40 time=0\n",
      "note_on channel=1 note=66 velocity=0 time=227\n",
      "note_on channel=1 note=69 velocity=0 time=0\n",
      "note_on channel=1 note=62 velocity=40 time=733\n",
      "note_on channel=1 note=66 velocity=40 time=0\n",
      "note_on channel=1 note=69 velocity=40 time=0\n",
      "note_on channel=1 note=62 velocity=0 time=119\n",
      "note_on channel=1 note=66 velocity=0 time=0\n",
      "note_on channel=1 note=69 velocity=0 time=0\n",
      "note_on channel=1 note=64 velocity=40 time=121\n",
      "note_on channel=1 note=67 velocity=40 time=0\n",
      "note_on channel=1 note=64 velocity=0 time=59\n",
      "note_on channel=1 note=67 velocity=0 time=0\n",
      "note_on channel=1 note=66 velocity=40 time=61\n",
      "note_on channel=1 note=69 velocity=40 time=0\n",
      "note_on channel=1 note=66 velocity=0 time=59\n",
      "note_on channel=1 note=69 velocity=0 time=0\n",
      "note_on channel=1 note=62 velocity=40 time=61\n",
      "note_on channel=1 note=66 velocity=40 time=0\n",
      "note_on channel=1 note=74 velocity=40 time=0\n",
      "note_on channel=1 note=62 velocity=0 time=119\n",
      "note_on channel=1 note=66 velocity=0 time=0\n",
      "note_on channel=1 note=74 velocity=0 time=0\n",
      "note_on channel=1 note=67 velocity=40 time=121\n",
      "note_on channel=1 note=72 velocity=40 time=0\n",
      "note_on channel=1 note=67 velocity=0 time=59\n",
      "note_on channel=1 note=72 velocity=0 time=0\n",
      "note_on channel=1 note=69 velocity=40 time=61\n",
      "note_on channel=1 note=74 velocity=40 time=0\n",
      "note_on channel=1 note=69 velocity=0 time=59\n",
      "note_on channel=1 note=74 velocity=0 time=0\n",
      "note_on channel=1 note=62 velocity=40 time=61\n",
      "note_on channel=1 note=67 velocity=40 time=0\n",
      "note_on channel=1 note=71 velocity=40 time=0\n",
      "note_on channel=1 note=62 velocity=0 time=119\n",
      "note_on channel=1 note=67 velocity=0 time=0\n",
      "note_on channel=1 note=71 velocity=0 time=0\n",
      "note_on channel=1 note=67 velocity=40 time=121\n",
      "note_on channel=1 note=69 velocity=40 time=0\n",
      "note_on channel=1 note=67 velocity=0 time=59\n",
      "note_on channel=1 note=69 velocity=0 time=0\n",
      "note_on channel=1 note=71 velocity=40 time=61\n",
      "note_on channel=1 note=71 velocity=0 time=59\n",
      "note_on channel=1 note=59 velocity=40 time=61\n",
      "note_on channel=1 note=67 velocity=40 time=0\n",
      "note_on channel=1 note=59 velocity=0 time=119\n",
      "note_on channel=1 note=67 velocity=0 time=0\n",
      "note_on channel=1 note=64 velocity=40 time=361\n",
      "note_on channel=1 note=69 velocity=40 time=0\n",
      "note_on channel=1 note=64 velocity=0 time=119\n",
      "note_on channel=1 note=69 velocity=0 time=0\n",
      "note_on channel=1 note=54 velocity=40 time=361\n",
      "note_on channel=1 note=57 velocity=40 time=0\n",
      "note_on channel=1 note=62 velocity=40 time=0\n",
      "note_on channel=1 note=54 velocity=0 time=119\n",
      "note_on channel=1 note=57 velocity=0 time=0\n",
      "note_on channel=1 note=62 velocity=0 time=0\n",
      "note_on channel=1 note=59 velocity=48 time=361\n",
      "note_on channel=1 note=59 velocity=0 time=959\n",
      "note_on channel=1 note=67 velocity=49 time=9601\n",
      "note_on channel=1 note=62 velocity=49 time=0\n",
      "note_on channel=1 note=67 velocity=0 time=227\n",
      "note_on channel=1 note=66 velocity=49 time=13\n",
      "note_on channel=1 note=66 velocity=0 time=113\n",
      "note_on channel=1 note=67 velocity=49 time=7\n",
      "note_on channel=1 note=67 velocity=0 time=113\n",
      "note_on channel=1 note=69 velocity=49 time=7\n",
      "note_on channel=1 note=69 velocity=0 time=227\n",
      "note_on channel=1 note=67 velocity=49 time=13\n",
      "note_on channel=1 note=67 velocity=0 time=113\n",
      "note_on channel=1 note=66 velocity=49 time=7\n",
      "note_on channel=1 note=66 velocity=0 time=113\n",
      "note_on channel=1 note=67 velocity=49 time=7\n",
      "note_on channel=1 note=67 velocity=0 time=227\n",
      "note_on channel=1 note=74 velocity=49 time=13\n",
      "note_on channel=1 note=74 velocity=0 time=227\n",
      "note_on channel=1 note=72 velocity=49 time=13\n",
      "note_on channel=1 note=72 velocity=0 time=455\n",
      "note_on channel=1 note=71 velocity=49 time=25\n",
      "note_on channel=1 note=71 velocity=0 time=227\n",
      "note_on channel=1 note=69 velocity=49 time=13\n",
      "note_on channel=1 note=69 velocity=0 time=113\n",
      "note_on channel=1 note=67 velocity=49 time=7\n",
      "note_on channel=1 note=67 velocity=0 time=113\n",
      "note_on channel=1 note=69 velocity=49 time=7\n",
      "note_on channel=1 note=69 velocity=0 time=227\n",
      "note_on channel=1 note=67 velocity=49 time=13\n",
      "note_on channel=1 note=62 velocity=0 time=95\n",
      "note_on channel=1 note=67 velocity=0 time=18\n",
      "note_on channel=1 note=66 velocity=49 time=7\n",
      "note_on channel=1 note=66 velocity=0 time=113\n",
      "note_on channel=1 note=59 velocity=49 time=7\n",
      "note_on channel=1 note=67 velocity=49 time=0\n",
      "note_on channel=1 note=59 velocity=0 time=227\n",
      "note_on channel=1 note=67 velocity=0 time=0\n",
      "note_on channel=1 note=55 velocity=49 time=13\n",
      "note_on channel=1 note=61 velocity=49 time=0\n",
      "note_on channel=1 note=64 velocity=49 time=0\n",
      "note_on channel=1 note=55 velocity=0 time=227\n",
      "note_on channel=1 note=61 velocity=0 time=0\n",
      "note_on channel=1 note=64 velocity=0 time=0\n",
      "note_on channel=1 note=54 velocity=49 time=13\n",
      "note_on channel=1 note=62 velocity=49 time=0\n",
      "note_on channel=1 note=54 velocity=0 time=227\n",
      "note_on channel=1 note=62 velocity=0 time=0\n",
      "note_on channel=1 note=59 velocity=49 time=4093\n",
      "note_on channel=1 note=67 velocity=49 time=0\n",
      "note_on channel=1 note=55 velocity=49 time=0\n",
      "note_on channel=1 note=59 velocity=0 time=227\n",
      "note_on channel=1 note=67 velocity=0 time=0\n",
      "note_on channel=1 note=61 velocity=49 time=13\n",
      "note_on channel=1 note=64 velocity=49 time=0\n",
      "note_on channel=1 note=55 velocity=0 time=215\n",
      "note_on channel=1 note=61 velocity=0 time=12\n",
      "note_on channel=1 note=64 velocity=0 time=0\n",
      "note_on channel=1 note=62 velocity=49 time=13\n",
      "note_on channel=1 note=54 velocity=49 time=0\n",
      "note_on channel=1 note=62 velocity=0 time=227\n",
      "note_on channel=1 note=54 velocity=0 time=0\n",
      "note_on channel=1 note=59 velocity=49 time=733\n",
      "note_on channel=1 note=67 velocity=49 time=0\n",
      "note_on channel=1 note=59 velocity=0 time=113\n",
      "note_on channel=1 note=67 velocity=0 time=0\n",
      "note_on channel=1 note=60 velocity=49 time=7\n",
      "note_on channel=1 note=64 velocity=49 time=0\n",
      "note_on channel=1 note=60 velocity=0 time=113\n",
      "note_on channel=1 note=64 velocity=0 time=0\n",
      "note_on channel=1 note=62 velocity=49 time=7\n",
      "note_on channel=1 note=62 velocity=0 time=119\n",
      "note_on channel=1 note=79 velocity=49 time=121\n",
      "note_on channel=1 note=72 velocity=49 time=0\n",
      "note_on channel=1 note=76 velocity=49 time=0\n",
      "note_on channel=1 note=79 velocity=0 time=113\n",
      "note_on channel=1 note=76 velocity=0 time=7\n",
      "note_on channel=1 note=76 velocity=49 time=0\n",
      "note_on channel=1 note=74 velocity=49 time=120\n",
      "note_on channel=1 note=74 velocity=0 time=119\n",
      "note_on channel=1 note=79 velocity=49 time=121\n",
      "note_on channel=1 note=91 velocity=49 time=0\n",
      "note_on channel=1 note=79 velocity=0 time=113\n",
      "note_on channel=1 note=91 velocity=0 time=0\n",
      "note_on channel=1 note=88 velocity=49 time=7\n",
      "note_on channel=1 note=88 velocity=0 time=113\n",
      "note_on channel=1 note=86 velocity=49 time=7\n",
      "note_on channel=1 note=86 velocity=0 time=119\n",
      "note_on channel=1 note=72 velocity=0 time=72\n",
      "note_on channel=1 note=76 velocity=0 time=0\n",
      "note_on channel=1 note=64 velocity=102 time=49\n",
      "note_on channel=1 note=72 velocity=102 time=0\n",
      "note_on channel=1 note=76 velocity=102 time=0\n",
      "note_on channel=1 note=64 velocity=0 time=455\n",
      "note_on channel=1 note=72 velocity=0 time=0\n",
      "note_on channel=1 note=76 velocity=0 time=0\n",
      "note_on channel=1 note=64 velocity=102 time=265\n",
      "note_on channel=1 note=72 velocity=102 time=0\n",
      "note_on channel=1 note=76 velocity=102 time=0\n",
      "note_on channel=1 note=64 velocity=0 time=113\n",
      "note_on channel=1 note=72 velocity=0 time=0\n",
      "note_on channel=1 note=76 velocity=0 time=0\n",
      "note_on channel=1 note=64 velocity=102 time=7\n",
      "note_on channel=1 note=72 velocity=102 time=0\n",
      "note_on channel=1 note=76 velocity=102 time=0\n",
      "note_on channel=1 note=64 velocity=0 time=113\n",
      "note_on channel=1 note=72 velocity=0 time=0\n",
      "note_on channel=1 note=76 velocity=0 time=0\n",
      "note_on channel=1 note=64 velocity=102 time=7\n",
      "note_on channel=1 note=72 velocity=102 time=0\n",
      "note_on channel=1 note=76 velocity=102 time=0\n",
      "note_on channel=1 note=64 velocity=0 time=455\n",
      "note_on channel=1 note=72 velocity=0 time=0\n",
      "note_on channel=1 note=76 velocity=0 time=0\n",
      "note_on channel=1 note=64 velocity=102 time=265\n",
      "note_on channel=1 note=72 velocity=102 time=0\n",
      "note_on channel=1 note=76 velocity=102 time=0\n",
      "note_on channel=1 note=64 velocity=0 time=113\n",
      "note_on channel=1 note=72 velocity=0 time=0\n",
      "note_on channel=1 note=76 velocity=0 time=0\n",
      "note_on channel=1 note=64 velocity=102 time=7\n",
      "note_on channel=1 note=72 velocity=102 time=0\n",
      "note_on channel=1 note=76 velocity=102 time=0\n",
      "note_on channel=1 note=64 velocity=0 time=113\n",
      "note_on channel=1 note=72 velocity=0 time=0\n",
      "note_on channel=1 note=76 velocity=0 time=0\n",
      "note_on channel=1 note=64 velocity=102 time=7\n",
      "note_on channel=1 note=72 velocity=102 time=0\n",
      "note_on channel=1 note=76 velocity=102 time=0\n",
      "note_on channel=1 note=64 velocity=0 time=227\n",
      "note_on channel=1 note=72 velocity=0 time=0\n",
      "note_on channel=1 note=76 velocity=0 time=0\n",
      "note_on channel=1 note=76 velocity=102 time=253\n",
      "note_on channel=1 note=79 velocity=102 time=0\n",
      "note_on channel=1 note=76 velocity=0 time=227\n",
      "note_on channel=1 note=79 velocity=0 time=0\n",
      "note_on channel=1 note=79 velocity=102 time=13\n",
      "note_on channel=1 note=84 velocity=102 time=0\n",
      "note_on channel=1 note=79 velocity=0 time=227\n",
      "note_on channel=1 note=84 velocity=0 time=0\n",
      "note_on channel=1 note=76 velocity=102 time=13\n",
      "note_on channel=1 note=84 velocity=102 time=0\n",
      "note_on channel=1 note=88 velocity=102 time=0\n",
      "note_on channel=1 note=76 velocity=0 time=119\n",
      "note_on channel=1 note=84 velocity=0 time=0\n",
      "note_on channel=1 note=88 velocity=0 time=0\n",
      "note_on channel=1 note=76 velocity=96 time=841\n",
      "note_on channel=1 note=84 velocity=96 time=0\n",
      "note_on channel=1 note=88 velocity=96 time=0\n",
      "note_on channel=1 note=76 velocity=0 time=119\n",
      "note_on channel=1 note=84 velocity=0 time=0\n",
      "note_on channel=1 note=88 velocity=0 time=0\n",
      "note_on channel=1 note=83 velocity=96 time=121\n",
      "note_on channel=1 note=86 velocity=96 time=0\n",
      "note_on channel=1 note=83 velocity=0 time=59\n",
      "note_on channel=1 note=86 velocity=0 time=0\n",
      "note_on channel=1 note=84 velocity=96 time=61\n",
      "note_on channel=1 note=88 velocity=96 time=0\n",
      "note_on channel=1 note=84 velocity=0 time=59\n",
      "note_on channel=1 note=88 velocity=0 time=0\n",
      "note_on channel=1 note=72 velocity=96 time=61\n",
      "note_on channel=1 note=81 velocity=96 time=0\n",
      "note_on channel=1 note=84 velocity=96 time=0\n",
      "note_on channel=1 note=72 velocity=0 time=119\n",
      "note_on channel=1 note=81 velocity=0 time=0\n",
      "note_on channel=1 note=84 velocity=0 time=0\n",
      "note_on channel=1 note=79 velocity=90 time=121\n",
      "note_on channel=1 note=83 velocity=90 time=0\n",
      "note_on channel=1 note=79 velocity=0 time=59\n",
      "note_on channel=1 note=83 velocity=0 time=0\n",
      "note_on channel=1 note=81 velocity=90 time=61\n",
      "note_on channel=1 note=84 velocity=90 time=0\n",
      "note_on channel=1 note=81 velocity=0 time=59\n",
      "note_on channel=1 note=84 velocity=0 time=0\n",
      "note_on channel=1 note=69 velocity=90 time=61\n",
      "note_on channel=1 note=78 velocity=90 time=0\n",
      "note_on channel=1 note=81 velocity=90 time=0\n",
      "note_on channel=1 note=69 velocity=0 time=227\n",
      "note_on channel=1 note=78 velocity=0 time=0\n",
      "note_on channel=1 note=81 velocity=0 time=0\n",
      "note_on channel=1 note=69 velocity=90 time=733\n",
      "note_on channel=1 note=78 velocity=90 time=0\n",
      "note_on channel=1 note=81 velocity=90 time=0\n",
      "note_on channel=1 note=69 velocity=0 time=119\n",
      "note_on channel=1 note=78 velocity=0 time=0\n",
      "note_on channel=1 note=81 velocity=0 time=0\n",
      "note_on channel=1 note=76 velocity=90 time=121\n",
      "note_on channel=1 note=79 velocity=90 time=0\n",
      "note_on channel=1 note=76 velocity=0 time=59\n",
      "note_on channel=1 note=79 velocity=0 time=0\n",
      "note_on channel=1 note=78 velocity=90 time=61\n",
      "note_on channel=1 note=81 velocity=90 time=0\n",
      "note_on channel=1 note=78 velocity=0 time=59\n",
      "note_on channel=1 note=81 velocity=0 time=0\n",
      "note_on channel=1 note=78 velocity=90 time=61\n",
      "note_on channel=1 note=86 velocity=90 time=0\n",
      "note_on channel=1 note=78 velocity=0 time=119\n",
      "note_on channel=1 note=86 velocity=0 time=0\n",
      "note_on channel=1 note=76 velocity=90 time=121\n",
      "note_on channel=1 note=84 velocity=90 time=0\n",
      "note_on channel=1 note=76 velocity=0 time=59\n",
      "note_on channel=1 note=84 velocity=0 time=0\n",
      "note_on channel=1 note=78 velocity=90 time=61\n",
      "note_on channel=1 note=86 velocity=90 time=0\n",
      "note_on channel=1 note=78 velocity=0 time=59\n",
      "note_on channel=1 note=86 velocity=0 time=0\n",
      "note_on channel=1 note=71 velocity=90 time=61\n",
      "note_on channel=1 note=79 velocity=90 time=0\n",
      "note_on channel=1 note=83 velocity=90 time=0\n",
      "note_on channel=1 note=71 velocity=0 time=119\n",
      "note_on channel=1 note=79 velocity=0 time=0\n",
      "note_on channel=1 note=83 velocity=0 time=0\n",
      "note_on channel=1 note=78 velocity=90 time=121\n",
      "note_on channel=1 note=81 velocity=90 time=0\n",
      "note_on channel=1 note=78 velocity=0 time=59\n",
      "note_on channel=1 note=81 velocity=0 time=0\n",
      "note_on channel=1 note=79 velocity=90 time=61\n",
      "note_on channel=1 note=83 velocity=90 time=0\n",
      "note_on channel=1 note=79 velocity=0 time=59\n",
      "note_on channel=1 note=83 velocity=0 time=0\n",
      "note_on channel=1 note=67 velocity=90 time=61\n",
      "note_on channel=1 note=71 velocity=90 time=0\n",
      "note_on channel=1 note=79 velocity=90 time=0\n",
      "note_on channel=1 note=67 velocity=0 time=227\n",
      "note_on channel=1 note=71 velocity=0 time=0\n",
      "note_on channel=1 note=79 velocity=0 time=0\n",
      "note_on channel=1 note=67 velocity=90 time=253\n",
      "note_on channel=1 note=69 velocity=90 time=0\n",
      "note_on channel=1 note=76 velocity=90 time=0\n",
      "note_on channel=1 note=81 velocity=90 time=0\n",
      "note_on channel=1 note=67 velocity=0 time=227\n",
      "note_on channel=1 note=69 velocity=0 time=0\n",
      "note_on channel=1 note=76 velocity=0 time=0\n",
      "note_on channel=1 note=81 velocity=0 time=0\n",
      "note_on channel=1 note=66 velocity=90 time=253\n",
      "note_on channel=1 note=69 velocity=90 time=0\n",
      "note_on channel=1 note=74 velocity=90 time=0\n",
      "note_on channel=1 note=66 velocity=0 time=227\n",
      "note_on channel=1 note=69 velocity=0 time=0\n",
      "note_on channel=1 note=74 velocity=0 time=0\n",
      "note_on channel=1 note=74 velocity=106 time=253\n",
      "note_on channel=1 note=83 velocity=106 time=0\n",
      "note_on channel=1 note=86 velocity=106 time=0\n",
      "note_on channel=1 note=74 velocity=0 time=683\n",
      "note_on channel=1 note=83 velocity=0 time=0\n",
      "note_on channel=1 note=86 velocity=0 time=0\n",
      "note_on channel=1 note=71 velocity=96 time=37\n",
      "note_on channel=1 note=71 velocity=0 time=119\n",
      "note_on channel=1 note=83 velocity=96 time=121\n",
      "note_on channel=1 note=84 velocity=96 time=0\n",
      "note_on channel=1 note=83 velocity=0 time=119\n",
      "note_on channel=1 note=84 velocity=0 time=0\n",
      "note_on channel=1 note=72 velocity=96 time=121\n",
      "note_on channel=1 note=72 velocity=0 time=119\n",
      "note_on channel=1 note=81 velocity=96 time=121\n",
      "note_on channel=1 note=83 velocity=96 time=0\n",
      "note_on channel=1 note=81 velocity=0 time=119\n",
      "note_on channel=1 note=83 velocity=0 time=0\n",
      "note_on channel=1 note=71 velocity=96 time=121\n",
      "note_on channel=1 note=71 velocity=0 time=119\n",
      "note_on channel=1 note=79 velocity=96 time=121\n",
      "note_on channel=1 note=81 velocity=96 time=0\n",
      "note_on channel=1 note=79 velocity=0 time=119\n",
      "note_on channel=1 note=81 velocity=0 time=0\n",
      "note_on channel=1 note=69 velocity=96 time=121\n",
      "note_on channel=1 note=69 velocity=0 time=119\n",
      "note_on channel=1 note=79 velocity=96 time=121\n",
      "note_on channel=1 note=79 velocity=0 time=119\n",
      "note_on channel=1 note=67 velocity=96 time=121\n",
      "note_on channel=1 note=67 velocity=0 time=119\n",
      "note_on channel=1 note=79 velocity=96 time=121\n",
      "note_on channel=1 note=81 velocity=96 time=0\n",
      "note_on channel=1 note=79 velocity=0 time=119\n",
      "note_on channel=1 note=81 velocity=0 time=0\n",
      "note_on channel=1 note=67 velocity=96 time=121\n",
      "note_on channel=1 note=69 velocity=96 time=0\n",
      "note_on channel=1 note=67 velocity=0 time=119\n",
      "note_on channel=1 note=69 velocity=0 time=0\n",
      "note_on channel=1 note=69 velocity=96 time=121\n",
      "note_on channel=1 note=74 velocity=96 time=0\n",
      "note_on channel=1 note=78 velocity=96 time=0\n",
      "note_on channel=1 note=69 velocity=0 time=119\n",
      "note_on channel=1 note=74 velocity=0 time=0\n",
      "note_on channel=1 note=78 velocity=0 time=0\n",
      "note_on channel=1 note=78 velocity=96 time=121\n",
      "note_on channel=1 note=78 velocity=0 time=55\n",
      "note_on channel=1 note=79 velocity=96 time=5\n",
      "note_on channel=1 note=79 velocity=0 time=55\n",
      "note_on channel=1 note=78 velocity=96 time=5\n",
      "note_on channel=1 note=78 velocity=0 time=55\n",
      "note_on channel=1 note=79 velocity=96 time=5\n",
      "note_on channel=1 note=79 velocity=0 time=55\n",
      "note_on channel=1 note=70 velocity=96 time=3845\n",
      "note_on channel=1 note=82 velocity=96 time=0\n",
      "note_on channel=1 note=70 velocity=0 time=683\n",
      "note_on channel=1 note=82 velocity=0 time=0\n",
      "note_on channel=1 note=70 velocity=96 time=37\n",
      "note_on channel=1 note=70 velocity=0 time=227\n",
      "note_on channel=1 note=80 velocity=96 time=13\n",
      "note_on channel=1 note=80 velocity=0 time=119\n",
      "note_on channel=1 note=68 velocity=96 time=121\n",
      "note_on channel=1 note=70 velocity=96 time=0\n",
      "note_on channel=1 note=68 velocity=0 time=119\n",
      "note_on channel=1 note=70 velocity=0 time=0\n",
      "note_on channel=1 note=79 velocity=96 time=121\n",
      "note_on channel=1 note=79 velocity=0 time=119\n",
      "note_on channel=1 note=67 velocity=96 time=121\n",
      "note_on channel=1 note=70 velocity=96 time=0\n",
      "note_on channel=1 note=67 velocity=0 time=119\n",
      "note_on channel=1 note=70 velocity=0 time=0\n",
      "note_on channel=1 note=70 velocity=96 time=121\n",
      "note_on channel=1 note=77 velocity=96 time=0\n",
      "note_on channel=1 note=70 velocity=0 time=119\n",
      "note_on channel=1 note=77 velocity=0 time=0\n",
      "note_on channel=1 note=65 velocity=96 time=121\n",
      "note_on channel=1 note=70 velocity=96 time=0\n",
      "note_on channel=1 note=65 velocity=0 time=119\n",
      "note_on channel=1 note=70 velocity=0 time=0\n",
      "note_on channel=1 note=67 velocity=96 time=121\n",
      "note_on channel=1 note=70 velocity=96 time=0\n",
      "note_on channel=1 note=75 velocity=96 time=0\n",
      "note_on channel=1 note=67 velocity=0 time=119\n",
      "note_on channel=1 note=70 velocity=0 time=0\n",
      "note_on channel=1 note=75 velocity=0 time=0\n",
      "note_on channel=1 note=63 velocity=96 time=121\n",
      "note_on channel=1 note=67 velocity=96 time=0\n",
      "note_on channel=1 note=63 velocity=0 time=119\n",
      "note_on channel=1 note=67 velocity=0 time=0\n",
      "note_on channel=1 note=68 velocity=96 time=121\n",
      "note_on channel=1 note=72 velocity=96 time=0\n",
      "note_on channel=1 note=77 velocity=96 time=0\n",
      "note_on channel=1 note=68 velocity=0 time=119\n",
      "note_on channel=1 note=72 velocity=0 time=0\n",
      "note_on channel=1 note=77 velocity=0 time=0\n",
      "note_on channel=1 note=65 velocity=96 time=121\n",
      "note_on channel=1 note=68 velocity=96 time=0\n",
      "note_on channel=1 note=65 velocity=0 time=119\n",
      "note_on channel=1 note=68 velocity=0 time=0\n",
      "note_on channel=1 note=65 velocity=96 time=121\n",
      "note_on channel=1 note=68 velocity=96 time=0\n",
      "note_on channel=1 note=74 velocity=96 time=0\n",
      "note_on channel=1 note=65 velocity=0 time=119\n",
      "note_on channel=1 note=68 velocity=0 time=0\n",
      "note_on channel=1 note=74 velocity=0 time=0\n",
      "note_on channel=1 note=74 velocity=96 time=121\n",
      "note_on channel=1 note=74 velocity=0 time=56\n",
      "note_on channel=1 note=75 velocity=96 time=4\n",
      "note_on channel=1 note=75 velocity=0 time=56\n",
      "note_on channel=1 note=74 velocity=96 time=4\n",
      "note_on channel=1 note=74 velocity=0 time=56\n",
      "note_on channel=1 note=75 velocity=96 time=4\n",
      "note_on channel=1 note=75 velocity=0 time=56\n",
      "note_on channel=1 note=53 velocity=49 time=3604\n",
      "note_on channel=1 note=56 velocity=49 time=0\n",
      "note_on channel=1 note=62 velocity=49 time=0\n",
      "note_on channel=1 note=53 velocity=0 time=227\n",
      "note_on channel=1 note=56 velocity=0 time=0\n",
      "note_on channel=1 note=62 velocity=0 time=0\n",
      "note_on channel=1 note=63 velocity=90 time=13\n",
      "note_on channel=1 note=55 velocity=90 time=0\n",
      "note_on channel=1 note=55 velocity=0 time=455\n",
      "note_on channel=1 note=63 velocity=0 time=456\n",
      "note_on channel=1 note=67 velocity=49 time=289\n",
      "note_on channel=1 note=67 velocity=0 time=227\n",
      "note_on channel=1 note=70 velocity=49 time=13\n",
      "note_on channel=1 note=70 velocity=0 time=227\n",
      "note_on channel=1 note=75 velocity=49 time=13\n",
      "note_on channel=1 note=75 velocity=0 time=227\n",
      "note_on channel=1 note=79 velocity=126 time=13\n",
      "note_on channel=1 note=79 velocity=0 time=227\n",
      "note_on channel=1 note=75 velocity=49 time=13\n",
      "note_on channel=1 note=75 velocity=0 time=227\n",
      "note_on channel=1 note=70 velocity=49 time=13\n",
      "note_on channel=1 note=70 velocity=0 time=227\n",
      "note_on channel=1 note=67 velocity=49 time=13\n",
      "note_on channel=1 note=67 velocity=0 time=227\n",
      "note_on channel=1 note=58 velocity=90 time=973\n",
      "note_on channel=1 note=65 velocity=90 time=0\n",
      "note_on channel=1 note=58 velocity=0 time=455\n",
      "note_on channel=1 note=65 velocity=0 time=0\n",
      "note_on channel=1 note=65 velocity=49 time=505\n",
      "note_on channel=1 note=65 velocity=0 time=227\n",
      "note_on channel=1 note=70 velocity=49 time=13\n",
      "note_on channel=1 note=70 velocity=0 time=227\n",
      "note_on channel=1 note=74 velocity=49 time=13\n",
      "note_on channel=1 note=74 velocity=0 time=227\n",
      "note_on channel=1 note=77 velocity=49 time=13\n",
      "note_on channel=1 note=77 velocity=0 time=227\n",
      "note_on channel=1 note=80 velocity=126 time=13\n",
      "note_on channel=1 note=80 velocity=0 time=227\n",
      "note_on channel=1 note=77 velocity=49 time=13\n",
      "note_on channel=1 note=77 velocity=0 time=227\n",
      "note_on channel=1 note=74 velocity=49 time=13\n",
      "note_on channel=1 note=74 velocity=0 time=227\n",
      "note_on channel=1 note=70 velocity=49 time=13\n",
      "note_on channel=1 note=70 velocity=0 time=227\n",
      "note_on channel=1 note=68 velocity=49 time=13\n",
      "note_on channel=1 note=68 velocity=0 time=227\n",
      "note_on channel=1 note=65 velocity=49 time=13\n",
      "note_on channel=1 note=65 velocity=0 time=227\n",
      "note_on channel=1 note=62 velocity=49 time=13\n",
      "note_on channel=1 note=62 velocity=0 time=227\n",
      "note_on channel=1 note=75 velocity=33 time=253\n",
      "note_on channel=1 note=79 velocity=33 time=0\n",
      "note_on channel=1 note=67 velocity=33 time=0\n",
      "note_on channel=1 note=75 velocity=0 time=227\n",
      "note_on channel=1 note=79 velocity=0 time=0\n",
      "note_on channel=1 note=67 velocity=0 time=0\n",
      "note_on channel=1 note=79 velocity=33 time=253\n",
      "note_on channel=1 note=82 velocity=33 time=0\n",
      "note_on channel=1 note=79 velocity=0 time=119\n",
      "note_on channel=1 note=82 velocity=0 time=0\n",
      "note_on channel=1 note=79 velocity=33 time=121\n",
      "note_on channel=1 note=87 velocity=33 time=0\n",
      "note_on channel=1 note=79 velocity=0 time=119\n",
      "note_on channel=1 note=87 velocity=0 time=0\n",
      "note_on channel=1 note=79 velocity=33 time=121\n",
      "note_on channel=1 note=91 velocity=33 time=0\n",
      "note_on channel=1 note=79 velocity=0 time=119\n",
      "note_on channel=1 note=91 velocity=0 time=0\n",
      "note_on channel=1 note=67 velocity=33 time=361\n",
      "note_on channel=1 note=70 velocity=33 time=0\n",
      "note_on channel=1 note=67 velocity=0 time=227\n",
      "note_on channel=1 note=70 velocity=0 time=0\n",
      "note_on channel=1 note=70 velocity=33 time=13\n",
      "note_on channel=1 note=75 velocity=33 time=0\n",
      "note_on channel=1 note=70 velocity=0 time=227\n",
      "note_on channel=1 note=75 velocity=0 time=0\n",
      "note_on channel=1 note=75 velocity=33 time=13\n",
      "note_on channel=1 note=79 velocity=33 time=0\n",
      "note_on channel=1 note=75 velocity=0 time=119\n",
      "note_on channel=1 note=79 velocity=0 time=0\n",
      "note_on channel=1 note=74 velocity=33 time=121\n",
      "note_on channel=1 note=77 velocity=33 time=0\n",
      "note_on channel=1 note=74 velocity=0 time=59\n",
      "note_on channel=1 note=77 velocity=0 time=0\n",
      "note_on channel=1 note=79 velocity=33 time=61\n",
      "note_on channel=1 note=79 velocity=0 time=59\n",
      "note_on channel=1 note=72 velocity=33 time=61\n",
      "note_on channel=1 note=75 velocity=33 time=0\n",
      "note_on channel=1 note=72 velocity=0 time=119\n",
      "note_on channel=1 note=75 velocity=0 time=0\n",
      "note_on channel=1 note=70 velocity=33 time=121\n",
      "note_on channel=1 note=74 velocity=33 time=0\n",
      "note_on channel=1 note=70 velocity=0 time=59\n",
      "note_on channel=1 note=74 velocity=0 time=0\n",
      "note_on channel=1 note=75 velocity=33 time=61\n",
      "note_on channel=1 note=75 velocity=0 time=59\n",
      "note_on channel=1 note=69 velocity=33 time=61\n",
      "note_on channel=1 note=72 velocity=33 time=0\n",
      "note_on channel=1 note=69 velocity=0 time=227\n",
      "note_on channel=1 note=72 velocity=0 time=0\n",
      "note_on channel=1 note=67 velocity=33 time=13\n",
      "note_on channel=1 note=70 velocity=33 time=0\n",
      "note_on channel=1 note=67 velocity=0 time=113\n",
      "note_on channel=1 note=70 velocity=0 time=0\n",
      "note_on channel=1 note=69 velocity=33 time=7\n",
      "note_on channel=1 note=72 velocity=33 time=0\n",
      "note_on channel=1 note=69 velocity=0 time=113\n",
      "note_on channel=1 note=72 velocity=0 time=0\n",
      "note_on channel=1 note=72 velocity=33 time=7\n",
      "note_on channel=1 note=75 velocity=33 time=0\n",
      "note_on channel=1 note=65 velocity=33 time=0\n",
      "note_on channel=1 note=72 velocity=0 time=227\n",
      "note_on channel=1 note=75 velocity=0 time=0\n",
      "note_on channel=1 note=65 velocity=0 time=0\n",
      "note_on channel=1 note=70 velocity=33 time=13\n",
      "note_on channel=1 note=74 velocity=33 time=0\n",
      "note_on channel=1 note=70 velocity=0 time=113\n",
      "note_on channel=1 note=74 velocity=0 time=0\n",
      "note_on channel=1 note=72 velocity=33 time=7\n",
      "note_on channel=1 note=75 velocity=33 time=0\n",
      "note_on channel=1 note=72 velocity=0 time=113\n",
      "note_on channel=1 note=75 velocity=0 time=0\n",
      "note_on channel=1 note=70 velocity=80 time=7\n",
      "note_on channel=1 note=73 velocity=80 time=0\n",
      "note_on channel=1 note=70 velocity=0 time=227\n",
      "note_on channel=1 note=73 velocity=0 time=0\n",
      "note_on channel=1 note=61 velocity=49 time=973\n",
      "note_on channel=1 note=61 velocity=0 time=227\n",
      "note_on channel=1 note=65 velocity=49 time=13\n",
      "note_on channel=1 note=65 velocity=0 time=227\n",
      "note_on channel=1 note=70 velocity=49 time=13\n",
      "note_on channel=1 note=70 velocity=0 time=227\n",
      "note_on channel=1 note=73 velocity=80 time=13\n",
      "note_on channel=1 note=73 velocity=0 time=227\n",
      "note_on channel=1 note=70 velocity=49 time=13\n",
      "note_on channel=1 note=70 velocity=0 time=227\n",
      "note_on channel=1 note=65 velocity=49 time=13\n",
      "note_on channel=1 note=65 velocity=0 time=227\n",
      "note_on channel=1 note=61 velocity=49 time=13\n",
      "note_on channel=1 note=61 velocity=0 time=227\n",
      "note_on channel=1 note=53 velocity=96 time=973\n",
      "note_on channel=1 note=60 velocity=96 time=0\n",
      "note_on channel=1 note=53 velocity=0 time=480\n",
      "note_on channel=1 note=60 velocity=0 time=431\n",
      "note_on channel=1 note=60 velocity=49 time=49\n",
      "note_on channel=1 note=60 velocity=0 time=227\n",
      "note_on channel=1 note=65 velocity=49 time=13\n",
      "note_on channel=1 note=65 velocity=0 time=227\n",
      "note_on channel=1 note=69 velocity=49 time=13\n",
      "note_on channel=1 note=69 velocity=0 time=227\n",
      "note_on channel=1 note=72 velocity=49 time=13\n",
      "note_on channel=1 note=72 velocity=0 time=227\n",
      "note_on channel=1 note=75 velocity=80 time=13\n",
      "note_on channel=1 note=75 velocity=0 time=227\n",
      "note_on channel=1 note=72 velocity=49 time=13\n",
      "note_on channel=1 note=72 velocity=0 time=227\n",
      "note_on channel=1 note=69 velocity=49 time=13\n",
      "note_on channel=1 note=69 velocity=0 time=227\n",
      "note_on channel=1 note=65 velocity=49 time=13\n",
      "note_on channel=1 note=65 velocity=0 time=227\n",
      "note_on channel=1 note=63 velocity=49 time=13\n",
      "note_on channel=1 note=63 velocity=0 time=227\n",
      "note_on channel=1 note=60 velocity=49 time=13\n",
      "note_on channel=1 note=60 velocity=0 time=227\n",
      "note_on channel=1 note=57 velocity=49 time=13\n",
      "note_on channel=1 note=57 velocity=0 time=227\n",
      "note_on channel=1 note=65 velocity=49 time=13\n",
      "note_on channel=1 note=65 velocity=0 time=227\n",
      "note_on channel=1 note=61 velocity=33 time=13\n",
      "note_on channel=1 note=61 velocity=0 time=227\n",
      "note_on channel=1 note=73 velocity=33 time=253\n",
      "note_on channel=1 note=77 velocity=33 time=0\n",
      "note_on channel=1 note=73 velocity=0 time=119\n",
      "note_on channel=1 note=77 velocity=0 time=0\n",
      "note_on channel=1 note=77 velocity=33 time=121\n",
      "note_on channel=1 note=82 velocity=33 time=0\n",
      "note_on channel=1 note=77 velocity=0 time=119\n",
      "note_on channel=1 note=82 velocity=0 time=0\n",
      "note_on channel=1 note=82 velocity=33 time=121\n",
      "note_on channel=1 note=85 velocity=33 time=0\n",
      "note_on channel=1 note=82 velocity=0 time=227\n",
      "note_on channel=1 note=85 velocity=0 time=0\n",
      "note_on channel=1 note=73 velocity=33 time=733\n",
      "note_on channel=1 note=70 velocity=33 time=0\n",
      "note_on channel=1 note=73 velocity=0 time=119\n",
      "note_on channel=1 note=70 velocity=0 time=0\n",
      "note_on channel=1 note=68 velocity=33 time=121\n",
      "note_on channel=1 note=72 velocity=33 time=0\n",
      "note_on channel=1 note=68 velocity=0 time=59\n",
      "note_on channel=1 note=72 velocity=0 time=0\n",
      "note_on channel=1 note=73 velocity=33 time=61\n",
      "note_on channel=1 note=73 velocity=0 time=59\n",
      "note_on channel=1 note=67 velocity=33 time=61\n",
      "note_on channel=1 note=70 velocity=33 time=0\n",
      "note_on channel=1 note=67 velocity=0 time=119\n",
      "note_on channel=1 note=70 velocity=0 time=0\n",
      "note_on channel=1 note=65 velocity=33 time=121\n",
      "note_on channel=1 note=68 velocity=33 time=0\n",
      "note_on channel=1 note=65 velocity=0 time=59\n",
      "note_on channel=1 note=68 velocity=0 time=0\n",
      "note_on channel=1 note=70 velocity=33 time=61\n",
      "note_on channel=1 note=70 velocity=0 time=59\n",
      "note_on channel=1 note=64 velocity=33 time=61\n",
      "note_on channel=1 note=67 velocity=33 time=0\n",
      "note_on channel=1 note=64 velocity=0 time=227\n",
      "note_on channel=1 note=67 velocity=0 time=0\n",
      "note_on channel=1 note=67 velocity=33 time=253\n",
      "note_on channel=1 note=70 velocity=33 time=0\n",
      "note_on channel=1 note=67 velocity=0 time=119\n",
      "note_on channel=1 note=70 velocity=0 time=0\n",
      "note_on channel=1 note=65 velocity=33 time=121\n",
      "note_on channel=1 note=68 velocity=33 time=0\n",
      "note_on channel=1 note=65 velocity=0 time=59\n",
      "note_on channel=1 note=68 velocity=0 time=0\n",
      "note_on channel=1 note=67 velocity=33 time=61\n",
      "note_on channel=1 note=70 velocity=33 time=0\n",
      "note_on channel=1 note=67 velocity=0 time=59\n",
      "note_on channel=1 note=70 velocity=0 time=0\n",
      "note_on channel=1 note=68 velocity=80 time=61\n",
      "note_on channel=1 note=77 velocity=80 time=0\n",
      "note_on channel=1 note=65 velocity=80 time=0\n",
      "note_on channel=1 note=65 velocity=0 time=911\n",
      "note_on channel=1 note=68 velocity=0 time=228\n",
      "note_on channel=1 note=77 velocity=0 time=0\n",
      "note_on channel=1 note=68 velocity=49 time=61\n",
      "note_on channel=1 note=68 velocity=0 time=0\n",
      "note_on channel=1 note=68 velocity=49 time=0\n",
      "note_on channel=1 note=72 velocity=49 time=240\n",
      "note_on channel=1 note=72 velocity=0 time=227\n",
      "note_on channel=1 note=77 velocity=49 time=13\n",
      "note_on channel=1 note=77 velocity=0 time=227\n",
      "note_on channel=1 note=80 velocity=80 time=13\n",
      "note_on channel=1 note=80 velocity=0 time=227\n",
      "note_on channel=1 note=77 velocity=49 time=13\n",
      "note_on channel=1 note=77 velocity=0 time=0\n",
      "note_on channel=1 note=77 velocity=49 time=0\n",
      "note_on channel=1 note=72 velocity=49 time=240\n",
      "note_on channel=1 note=72 velocity=0 time=227\n",
      "note_on channel=1 note=68 velocity=0 time=13\n",
      "note_on channel=1 note=68 velocity=49 time=0\n",
      "note_on channel=1 note=68 velocity=0 time=1067\n",
      "note_on channel=1 note=77 velocity=0 time=48\n",
      "note_on channel=1 note=72 velocity=80 time=85\n",
      "note_on channel=1 note=79 velocity=80 time=0\n",
      "note_on channel=1 note=67 velocity=80 time=0\n",
      "note_on channel=1 note=67 velocity=0 time=911\n",
      "note_on channel=1 note=72 velocity=0 time=228\n",
      "note_on channel=1 note=79 velocity=0 time=0\n",
      "note_on channel=1 note=72 velocity=49 time=61\n",
      "note_on channel=1 note=72 velocity=0 time=227\n",
      "note_on channel=1 note=76 velocity=49 time=13\n",
      "note_on channel=1 note=76 velocity=0 time=227\n",
      "note_on channel=1 note=79 velocity=49 time=13\n",
      "note_on channel=1 note=79 velocity=0 time=227\n",
      "note_on channel=1 note=82 velocity=49 time=13\n",
      "note_on channel=1 note=82 velocity=0 time=227\n",
      "note_on channel=1 note=79 velocity=49 time=13\n",
      "note_on channel=1 note=79 velocity=0 time=0\n",
      "note_on channel=1 note=79 velocity=49 time=0\n",
      "note_on channel=1 note=76 velocity=49 time=240\n",
      "note_on channel=1 note=76 velocity=0 time=227\n",
      "note_on channel=1 note=72 velocity=49 time=13\n",
      "note_on channel=1 note=79 velocity=0 time=203\n",
      "note_on channel=1 note=72 velocity=0 time=24\n",
      "note_on channel=1 note=70 velocity=49 time=13\n",
      "note_on channel=1 note=70 velocity=0 time=227\n",
      "note_on channel=1 note=67 velocity=49 time=13\n",
      "note_on channel=1 note=67 velocity=0 time=0\n",
      "note_on channel=1 note=67 velocity=49 time=0\n",
      "note_on channel=1 note=64 velocity=49 time=240\n",
      "note_on channel=1 note=64 velocity=0 time=227\n",
      "note_on channel=1 note=60 velocity=49 time=13\n",
      "note_on channel=1 note=67 velocity=0 time=203\n",
      "note_on channel=1 note=60 velocity=0 time=24\n",
      "note_on channel=1 note=60 velocity=96 time=13\n",
      "note_on channel=1 note=69 velocity=96 time=0\n",
      "note_on channel=1 note=60 velocity=0 time=227\n",
      "note_on channel=1 note=69 velocity=0 time=0\n",
      "note_on channel=1 note=66 velocity=80 time=4573\n",
      "note_on channel=1 note=66 velocity=0 time=119\n",
      "note_on channel=1 note=69 velocity=80 time=361\n",
      "note_on channel=1 note=69 velocity=0 time=119\n",
      "note_on channel=1 note=72 velocity=80 time=121\n",
      "note_on channel=1 note=72 velocity=0 time=119\n",
      "note_on channel=1 note=75 velocity=80 time=121\n",
      "note_on channel=1 note=75 velocity=0 time=119\n",
      "note_on channel=1 note=78 velocity=40 time=601\n",
      "note_on channel=1 note=81 velocity=40 time=0\n",
      "note_on channel=1 note=78 velocity=0 time=113\n",
      "note_on channel=1 note=81 velocity=0 time=0\n",
      "note_on channel=1 note=78 velocity=40 time=7\n",
      "note_on channel=1 note=81 velocity=40 time=0\n",
      "note_on channel=1 note=78 velocity=0 time=113\n",
      "note_on channel=1 note=81 velocity=0 time=0\n",
      "note_on channel=1 note=78 velocity=40 time=7\n",
      "note_on channel=1 note=81 velocity=40 time=0\n",
      "note_on channel=1 note=78 velocity=0 time=227\n",
      "note_on channel=1 note=81 velocity=0 time=0\n",
      "note_on channel=1 note=78 velocity=40 time=493\n",
      "note_on channel=1 note=81 velocity=40 time=0\n",
      "note_on channel=1 note=78 velocity=0 time=113\n",
      "note_on channel=1 note=81 velocity=0 time=0\n",
      "note_on channel=1 note=78 velocity=40 time=7\n",
      "note_on channel=1 note=81 velocity=40 time=0\n",
      "note_on channel=1 note=78 velocity=0 time=113\n",
      "note_on channel=1 note=81 velocity=0 time=0\n",
      "note_on channel=1 note=74 velocity=40 time=7\n",
      "note_on channel=1 note=79 velocity=40 time=0\n",
      "note_on channel=1 note=86 velocity=40 time=0\n",
      "note_on channel=1 note=74 velocity=0 time=227\n",
      "note_on channel=1 note=79 velocity=0 time=0\n",
      "note_on channel=1 note=86 velocity=0 time=0\n",
      "note_on channel=1 note=62 velocity=80 time=733\n",
      "note_on channel=1 note=62 velocity=0 time=119\n",
      "note_on channel=1 note=67 velocity=80 time=361\n",
      "note_on channel=1 note=67 velocity=0 time=119\n",
      "note_on channel=1 note=70 velocity=80 time=121\n",
      "note_on channel=1 note=70 velocity=0 time=119\n",
      "note_on channel=1 note=74 velocity=80 time=121\n",
      "note_on channel=1 note=74 velocity=0 time=119\n",
      "note_on channel=1 note=74 velocity=40 time=601\n",
      "note_on channel=1 note=79 velocity=40 time=0\n",
      "note_on channel=1 note=86 velocity=40 time=0\n",
      "note_on channel=1 note=74 velocity=0 time=113\n",
      "note_on channel=1 note=79 velocity=0 time=0\n",
      "note_on channel=1 note=86 velocity=0 time=0\n",
      "note_on channel=1 note=74 velocity=40 time=7\n",
      "note_on channel=1 note=79 velocity=40 time=0\n",
      "note_on channel=1 note=86 velocity=40 time=0\n",
      "note_on channel=1 note=74 velocity=0 time=113\n",
      "note_on channel=1 note=79 velocity=0 time=0\n",
      "note_on channel=1 note=86 velocity=0 time=0\n",
      "note_on channel=1 note=74 velocity=40 time=7\n",
      "note_on channel=1 note=79 velocity=40 time=0\n",
      "note_on channel=1 note=86 velocity=40 time=0\n",
      "note_on channel=1 note=74 velocity=0 time=227\n",
      "note_on channel=1 note=79 velocity=0 time=0\n",
      "note_on channel=1 note=86 velocity=0 time=0\n",
      "note_on channel=1 note=74 velocity=40 time=493\n",
      "note_on channel=1 note=79 velocity=40 time=0\n",
      "note_on channel=1 note=86 velocity=40 time=0\n",
      "note_on channel=1 note=74 velocity=0 time=113\n",
      "note_on channel=1 note=79 velocity=0 time=0\n",
      "note_on channel=1 note=86 velocity=0 time=0\n",
      "note_on channel=1 note=74 velocity=40 time=7\n",
      "note_on channel=1 note=79 velocity=40 time=0\n",
      "note_on channel=1 note=86 velocity=40 time=0\n",
      "note_on channel=1 note=74 velocity=0 time=113\n",
      "note_on channel=1 note=79 velocity=0 time=0\n",
      "note_on channel=1 note=86 velocity=0 time=0\n",
      "note_on channel=1 note=74 velocity=40 time=7\n",
      "note_on channel=1 note=83 velocity=40 time=0\n",
      "note_on channel=1 note=86 velocity=40 time=0\n",
      "note_on channel=1 note=74 velocity=0 time=227\n",
      "note_on channel=1 note=83 velocity=0 time=0\n",
      "note_on channel=1 note=86 velocity=0 time=0\n",
      "note_on channel=1 note=59 velocity=80 time=733\n",
      "note_on channel=1 note=71 velocity=80 time=0\n",
      "note_on channel=1 note=59 velocity=0 time=119\n",
      "note_on channel=1 note=71 velocity=0 time=0\n",
      "note_on channel=1 note=74 velocity=80 time=361\n",
      "note_on channel=1 note=74 velocity=0 time=119\n",
      "note_on channel=1 note=77 velocity=80 time=121\n",
      "note_on channel=1 note=77 velocity=0 time=119\n",
      "note_on channel=1 note=68 velocity=80 time=121\n",
      "note_on channel=1 note=80 velocity=80 time=0\n",
      "note_on channel=1 note=68 velocity=0 time=119\n",
      "note_on channel=1 note=80 velocity=0 time=0\n",
      "note_on channel=1 note=77 velocity=40 time=601\n",
      "note_on channel=1 note=86 velocity=40 time=0\n",
      "note_on channel=1 note=77 velocity=0 time=113\n",
      "note_on channel=1 note=86 velocity=0 time=0\n",
      "note_on channel=1 note=77 velocity=40 time=7\n",
      "note_on channel=1 note=86 velocity=40 time=0\n",
      "note_on channel=1 note=77 velocity=0 time=113\n",
      "note_on channel=1 note=86 velocity=0 time=0\n",
      "note_on channel=1 note=77 velocity=40 time=7\n",
      "note_on channel=1 note=86 velocity=40 time=0\n",
      "note_on channel=1 note=77 velocity=0 time=227\n",
      "note_on channel=1 note=86 velocity=0 time=0\n",
      "note_on channel=1 note=74 velocity=40 time=493\n",
      "note_on channel=1 note=77 velocity=40 time=0\n",
      "note_on channel=1 note=86 velocity=40 time=0\n",
      "note_on channel=1 note=74 velocity=0 time=113\n",
      "note_on channel=1 note=77 velocity=0 time=0\n",
      "note_on channel=1 note=86 velocity=0 time=0\n",
      "note_on channel=1 note=74 velocity=40 time=7\n",
      "note_on channel=1 note=77 velocity=40 time=0\n",
      "note_on channel=1 note=86 velocity=40 time=0\n",
      "note_on channel=1 note=74 velocity=0 time=113\n",
      "note_on channel=1 note=77 velocity=0 time=0\n",
      "note_on channel=1 note=86 velocity=0 time=0\n",
      "note_on channel=1 note=72 velocity=40 time=7\n",
      "note_on channel=1 note=79 velocity=40 time=0\n",
      "note_on channel=1 note=84 velocity=40 time=0\n",
      "note_on channel=1 note=72 velocity=0 time=227\n",
      "note_on channel=1 note=79 velocity=0 time=0\n",
      "note_on channel=1 note=84 velocity=0 time=0\n",
      "note_on channel=1 note=67 velocity=80 time=733\n",
      "note_on channel=1 note=67 velocity=0 time=119\n",
      "note_on channel=1 note=72 velocity=80 time=361\n",
      "note_on channel=1 note=72 velocity=0 time=119\n",
      "note_on channel=1 note=75 velocity=80 time=121\n",
      "note_on channel=1 note=75 velocity=0 time=119\n",
      "note_on channel=1 note=79 velocity=80 time=121\n",
      "note_on channel=1 note=79 velocity=0 time=119\n",
      "note_on channel=1 note=72 velocity=40 time=601\n",
      "note_on channel=1 note=79 velocity=40 time=0\n",
      "note_on channel=1 note=84 velocity=40 time=0\n",
      "note_on channel=1 note=72 velocity=0 time=113\n",
      "note_on channel=1 note=79 velocity=0 time=0\n",
      "note_on channel=1 note=84 velocity=0 time=0\n",
      "note_on channel=1 note=72 velocity=40 time=7\n",
      "note_on channel=1 note=79 velocity=40 time=0\n",
      "note_on channel=1 note=84 velocity=40 time=0\n",
      "note_on channel=1 note=72 velocity=0 time=113\n",
      "note_on channel=1 note=79 velocity=0 time=0\n",
      "note_on channel=1 note=84 velocity=0 time=0\n",
      "note_on channel=1 note=72 velocity=40 time=7\n",
      "note_on channel=1 note=79 velocity=40 time=0\n",
      "note_on channel=1 note=84 velocity=40 time=0\n",
      "note_on channel=1 note=72 velocity=0 time=227\n",
      "note_on channel=1 note=79 velocity=0 time=0\n",
      "note_on channel=1 note=84 velocity=0 time=0\n",
      "note_on channel=1 note=72 velocity=40 time=493\n",
      "note_on channel=1 note=79 velocity=40 time=0\n",
      "note_on channel=1 note=84 velocity=40 time=0\n",
      "note_on channel=1 note=72 velocity=0 time=113\n",
      "note_on channel=1 note=79 velocity=0 time=0\n",
      "note_on channel=1 note=84 velocity=0 time=0\n",
      "note_on channel=1 note=72 velocity=40 time=7\n",
      "note_on channel=1 note=79 velocity=40 time=0\n",
      "note_on channel=1 note=84 velocity=40 time=0\n",
      "note_on channel=1 note=72 velocity=0 time=113\n",
      "note_on channel=1 note=79 velocity=0 time=0\n",
      "note_on channel=1 note=84 velocity=0 time=0\n",
      "note_on channel=1 note=73 velocity=40 time=7\n",
      "note_on channel=1 note=79 velocity=40 time=0\n",
      "note_on channel=1 note=85 velocity=40 time=0\n",
      "note_on channel=1 note=73 velocity=0 time=227\n",
      "note_on channel=1 note=79 velocity=0 time=0\n",
      "note_on channel=1 note=85 velocity=0 time=0\n",
      "note_on channel=1 note=67 velocity=80 time=733\n",
      "note_on channel=1 note=67 velocity=0 time=119\n",
      "note_on channel=1 note=73 velocity=80 time=361\n",
      "note_on channel=1 note=73 velocity=0 time=119\n",
      "note_on channel=1 note=76 velocity=80 time=121\n",
      "note_on channel=1 note=76 velocity=0 time=119\n",
      "note_on channel=1 note=79 velocity=80 time=121\n",
      "note_on channel=1 note=79 velocity=0 time=119\n",
      "note_on channel=1 note=73 velocity=40 time=601\n",
      "note_on channel=1 note=79 velocity=40 time=0\n",
      "note_on channel=1 note=85 velocity=40 time=0\n",
      "note_on channel=1 note=73 velocity=0 time=113\n",
      "note_on channel=1 note=79 velocity=0 time=0\n",
      "note_on channel=1 note=85 velocity=0 time=0\n",
      "note_on channel=1 note=73 velocity=40 time=7\n",
      "note_on channel=1 note=79 velocity=40 time=0\n",
      "note_on channel=1 note=85 velocity=40 time=0\n",
      "note_on channel=1 note=73 velocity=0 time=113\n",
      "note_on channel=1 note=79 velocity=0 time=0\n",
      "note_on channel=1 note=85 velocity=0 time=0\n",
      "note_on channel=1 note=73 velocity=40 time=7\n",
      "note_on channel=1 note=79 velocity=40 time=0\n",
      "note_on channel=1 note=85 velocity=40 time=0\n",
      "note_on channel=1 note=73 velocity=0 time=227\n",
      "note_on channel=1 note=79 velocity=0 time=0\n",
      "note_on channel=1 note=85 velocity=0 time=0\n",
      "note_on channel=1 note=73 velocity=40 time=493\n",
      "note_on channel=1 note=79 velocity=40 time=0\n",
      "note_on channel=1 note=85 velocity=40 time=0\n",
      "note_on channel=1 note=73 velocity=0 time=113\n",
      "note_on channel=1 note=79 velocity=0 time=0\n",
      "note_on channel=1 note=85 velocity=0 time=0\n",
      "note_on channel=1 note=73 velocity=40 time=7\n",
      "note_on channel=1 note=79 velocity=40 time=0\n",
      "note_on channel=1 note=85 velocity=40 time=0\n",
      "note_on channel=1 note=73 velocity=0 time=113\n",
      "note_on channel=1 note=79 velocity=0 time=0\n",
      "note_on channel=1 note=85 velocity=0 time=0\n",
      "note_on channel=1 note=74 velocity=90 time=7\n",
      "note_on channel=1 note=78 velocity=90 time=0\n",
      "note_on channel=1 note=86 velocity=90 time=0\n",
      "note_on channel=1 note=74 velocity=0 time=227\n",
      "note_on channel=1 note=78 velocity=0 time=0\n",
      "note_on channel=1 note=86 velocity=0 time=0\n",
      "note_on channel=1 note=55 velocity=49 time=3373\n",
      "note_on channel=1 note=58 velocity=49 time=0\n",
      "note_on channel=1 note=67 velocity=49 time=0\n",
      "note_on channel=1 note=55 velocity=0 time=227\n",
      "note_on channel=1 note=58 velocity=0 time=0\n",
      "note_on channel=1 note=67 velocity=0 time=0\n",
      "note_on channel=1 note=54 velocity=96 time=13\n",
      "note_on channel=1 note=57 velocity=96 time=0\n",
      "note_on channel=1 note=62 velocity=96 time=0\n",
      "note_on channel=1 note=54 velocity=0 time=227\n",
      "note_on channel=1 note=57 velocity=0 time=0\n",
      "note_on channel=1 note=62 velocity=0 time=0\n",
      "note_on channel=1 note=55 velocity=49 time=3373\n",
      "note_on channel=1 note=58 velocity=49 time=0\n",
      "note_on channel=1 note=67 velocity=49 time=0\n",
      "note_on channel=1 note=55 velocity=0 time=227\n",
      "note_on channel=1 note=58 velocity=0 time=0\n",
      "note_on channel=1 note=67 velocity=0 time=0\n",
      "note_on channel=1 note=54 velocity=90 time=13\n",
      "note_on channel=1 note=57 velocity=90 time=0\n",
      "note_on channel=1 note=62 velocity=90 time=0\n",
      "note_on channel=1 note=54 velocity=0 time=227\n",
      "note_on channel=1 note=57 velocity=0 time=0\n",
      "note_on channel=1 note=62 velocity=0 time=0\n",
      "note_on channel=1 note=54 velocity=49 time=6493\n",
      "note_on channel=1 note=57 velocity=49 time=76\n",
      "note_on channel=1 note=57 velocity=0 time=402\n",
      "note_on channel=1 note=54 velocity=0 time=1\n",
      "note_on channel=1 note=55 velocity=49 time=961\n",
      "note_on channel=1 note=58 velocity=49 time=76\n",
      "note_on channel=1 note=58 velocity=0 time=402\n",
      "note_on channel=1 note=55 velocity=0 time=1\n",
      "note_on channel=1 note=54 velocity=49 time=1\n",
      "note_on channel=1 note=57 velocity=49 time=76\n",
      "note_on channel=1 note=57 velocity=0 time=402\n",
      "note_on channel=1 note=54 velocity=0 time=1\n",
      "note_on channel=1 note=55 velocity=49 time=961\n",
      "note_on channel=1 note=58 velocity=49 time=76\n",
      "note_on channel=1 note=58 velocity=0 time=402\n",
      "note_on channel=1 note=55 velocity=0 time=1\n",
      "note_on channel=1 note=54 velocity=49 time=1\n",
      "note_on channel=1 note=57 velocity=49 time=76\n",
      "note_on channel=1 note=57 velocity=0 time=402\n",
      "note_on channel=1 note=54 velocity=0 time=1\n",
      "note_on channel=1 note=55 velocity=49 time=481\n",
      "note_on channel=1 note=59 velocity=49 time=76\n",
      "note_on channel=1 note=59 velocity=0 time=402\n",
      "note_on channel=1 note=55 velocity=0 time=1\n",
      "note_on channel=1 note=54 velocity=49 time=481\n",
      "note_on channel=1 note=57 velocity=49 time=76\n",
      "note_on channel=1 note=57 velocity=0 time=402\n",
      "note_on channel=1 note=54 velocity=0 time=1\n",
      "note_on channel=1 note=54 velocity=49 time=1921\n",
      "note_on channel=1 note=58 velocity=49 time=76\n",
      "note_on channel=1 note=58 velocity=0 time=402\n",
      "note_on channel=1 note=54 velocity=0 time=1\n",
      "note_on channel=1 note=55 velocity=33 time=2881\n",
      "note_on channel=1 note=59 velocity=33 time=71\n",
      "note_on channel=1 note=62 velocity=33 time=71\n",
      "note_on channel=1 note=59 velocity=0 time=336\n",
      "note_on channel=1 note=62 velocity=0 time=0\n",
      "note_on channel=1 note=55 velocity=0 time=1\n",
      "note_on channel=1 note=69 velocity=80 time=12001\n",
      "note_on channel=1 note=69 velocity=0 time=2279\n",
      "note_on channel=1 note=71 velocity=33 time=121\n",
      "note_on channel=1 note=71 velocity=0 time=455\n",
      "note_on channel=1 note=72 velocity=33 time=25\n",
      "note_on channel=1 note=72 velocity=0 time=455\n",
      "note_on channel=1 note=74 velocity=33 time=25\n",
      "note_on channel=1 note=74 velocity=0 time=1367\n",
      "note_on channel=1 note=72 velocity=33 time=73\n",
      "note_on channel=1 note=72 velocity=0 time=227\n",
      "note_on channel=1 note=71 velocity=33 time=13\n",
      "note_on channel=1 note=71 velocity=0 time=227\n",
      "note_on channel=1 note=78 velocity=33 time=13\n",
      "note_on channel=1 note=72 velocity=33 time=0\n",
      "note_on channel=1 note=78 velocity=0 time=911\n",
      "note_on channel=1 note=79 velocity=33 time=49\n",
      "note_on channel=1 note=72 velocity=0 time=407\n",
      "note_on channel=1 note=79 velocity=0 time=48\n",
      "note_on channel=1 note=81 velocity=33 time=25\n",
      "note_on channel=1 note=71 velocity=33 time=0\n",
      "note_on channel=1 note=71 velocity=0 time=227\n",
      "note_on channel=1 note=69 velocity=33 time=13\n",
      "note_on channel=1 note=81 velocity=0 time=215\n",
      "note_on channel=1 note=69 velocity=0 time=12\n",
      "note_on channel=1 note=83 velocity=33 time=13\n",
      "note_on channel=1 note=71 velocity=33 time=0\n",
      "note_on channel=1 note=71 velocity=0 time=227\n",
      "note_on channel=1 note=83 velocity=0 time=684\n",
      "note_on channel=1 note=69 velocity=33 time=49\n",
      "note_on channel=1 note=69 velocity=0 time=38\n",
      "note_on channel=1 note=67 velocity=33 time=1\n",
      "note_on channel=1 note=67 velocity=0 time=38\n",
      "note_on channel=1 note=66 velocity=33 time=2\n",
      "note_on channel=1 note=66 velocity=0 time=38\n",
      "note_on channel=1 note=67 velocity=33 time=3\n",
      "note_on channel=1 note=67 velocity=0 time=113\n",
      "note_on channel=1 note=81 velocity=33 time=7\n",
      "note_on channel=1 note=69 velocity=33 time=0\n",
      "note_on channel=1 note=81 velocity=0 time=227\n",
      "note_on channel=1 note=69 velocity=0 time=0\n",
      "note_on channel=1 note=79 velocity=33 time=13\n",
      "note_on channel=1 note=71 velocity=33 time=0\n",
      "note_on channel=1 note=79 velocity=0 time=227\n",
      "note_on channel=1 note=71 velocity=0 time=0\n",
      "note_on channel=1 note=81 velocity=33 time=13\n",
      "note_on channel=1 note=72 velocity=33 time=0\n",
      "note_on channel=1 note=81 velocity=0 time=227\n",
      "note_on channel=1 note=72 velocity=0 time=0\n",
      "note_on channel=1 note=71 velocity=33 time=13\n",
      "note_on channel=1 note=79 velocity=33 time=0\n",
      "note_on channel=1 note=71 velocity=0 time=455\n",
      "note_on channel=1 note=79 velocity=0 time=0\n",
      "note_on channel=1 note=69 velocity=33 time=25\n",
      "note_on channel=1 note=78 velocity=33 time=0\n",
      "note_on channel=1 note=86 velocity=33 time=480\n",
      "note_on channel=1 note=69 velocity=0 time=431\n",
      "note_on channel=1 note=78 velocity=0 time=0\n",
      "note_on channel=1 note=71 velocity=33 time=49\n",
      "note_on channel=1 note=79 velocity=33 time=0\n",
      "note_on channel=1 note=71 velocity=0 time=227\n",
      "note_on channel=1 note=79 velocity=0 time=0\n",
      "note_on channel=1 note=72 velocity=33 time=13\n",
      "note_on channel=1 note=81 velocity=33 time=0\n",
      "note_on channel=1 note=86 velocity=0 time=191\n",
      "note_on channel=1 note=72 velocity=0 time=36\n",
      "note_on channel=1 note=81 velocity=0 time=0\n",
      "note_on channel=1 note=79 velocity=33 time=13\n",
      "note_on channel=1 note=74 velocity=33 time=0\n",
      "note_on channel=1 note=74 velocity=0 time=0\n",
      "note_on channel=1 note=74 velocity=33 time=0\n",
      "note_on channel=1 note=86 velocity=33 time=480\n",
      "note_on channel=1 note=79 velocity=0 time=431\n",
      "note_on channel=1 note=76 velocity=33 time=49\n",
      "note_on channel=1 note=81 velocity=33 time=0\n",
      "note_on channel=1 note=74 velocity=0 time=407\n",
      "note_on channel=1 note=86 velocity=0 time=24\n",
      "note_on channel=1 note=76 velocity=0 time=24\n",
      "note_on channel=1 note=81 velocity=0 time=0\n",
      "note_on channel=1 note=77 velocity=33 time=25\n",
      "note_on channel=1 note=72 velocity=33 time=0\n",
      "note_on channel=1 note=84 velocity=33 time=0\n",
      "note_on channel=1 note=72 velocity=0 time=227\n",
      "note_on channel=1 note=84 velocity=0 time=0\n",
      "note_on channel=1 note=71 velocity=33 time=13\n",
      "note_on channel=1 note=83 velocity=33 time=0\n",
      "note_on channel=1 note=77 velocity=0 time=215\n",
      "note_on channel=1 note=71 velocity=0 time=12\n",
      "note_on channel=1 note=83 velocity=0 time=0\n",
      "note_on channel=1 note=71 velocity=33 time=13\n",
      "note_on channel=1 note=83 velocity=33 time=0\n",
      "note_on channel=1 note=72 velocity=33 time=0\n",
      "note_on channel=1 note=71 velocity=0 time=455\n",
      "note_on channel=1 note=83 velocity=0 time=0\n",
      "note_on channel=1 note=69 velocity=48 time=25\n",
      "note_on channel=1 note=81 velocity=48 time=0\n",
      "note_on channel=1 note=69 velocity=0 time=455\n",
      "note_on channel=1 note=81 velocity=0 time=0\n",
      "note_on channel=1 note=66 velocity=64 time=25\n",
      "note_on channel=1 note=74 velocity=64 time=240\n",
      "note_on channel=1 note=66 velocity=0 time=215\n",
      "note_on channel=1 note=74 velocity=0 time=12\n",
      "note_on channel=1 note=76 velocity=59 time=13\n",
      "note_on channel=1 note=67 velocity=59 time=0\n",
      "note_on channel=1 note=76 velocity=0 time=227\n",
      "note_on channel=1 note=67 velocity=0 time=0\n",
      "note_on channel=1 note=78 velocity=54 time=13\n",
      "note_on channel=1 note=69 velocity=54 time=0\n",
      "note_on channel=1 note=72 velocity=0 time=143\n",
      "note_on channel=1 note=78 velocity=0 time=84\n",
      "note_on channel=1 note=69 velocity=0 time=0\n",
      "note_on channel=1 note=79 velocity=49 time=13\n",
      "note_on channel=1 note=67 velocity=49 time=0\n",
      "note_on channel=1 note=71 velocity=49 time=0\n",
      "note_on channel=1 note=67 velocity=0 time=455\n",
      "note_on channel=1 note=71 velocity=0 time=0\n",
      "note_on channel=1 note=69 velocity=49 time=25\n",
      "note_on channel=1 note=72 velocity=49 time=0\n",
      "note_on channel=1 note=79 velocity=0 time=203\n",
      "note_on channel=1 note=81 velocity=49 time=37\n",
      "note_on channel=1 note=69 velocity=0 time=215\n",
      "note_on channel=1 note=66 velocity=49 time=25\n",
      "note_on channel=1 note=81 velocity=0 time=215\n",
      "note_on channel=1 note=74 velocity=49 time=25\n",
      "note_on channel=1 note=66 velocity=0 time=215\n",
      "note_on channel=1 note=74 velocity=0 time=12\n",
      "note_on channel=1 note=76 velocity=59 time=13\n",
      "note_on channel=1 note=67 velocity=59 time=0\n",
      "note_on channel=1 note=76 velocity=0 time=227\n",
      "note_on channel=1 note=67 velocity=0 time=0\n",
      "note_on channel=1 note=78 velocity=69 time=13\n",
      "note_on channel=1 note=69 velocity=69 time=0\n",
      "note_on channel=1 note=72 velocity=0 time=167\n",
      "note_on channel=1 note=78 velocity=0 time=60\n",
      "note_on channel=1 note=69 velocity=0 time=0\n",
      "note_on channel=1 note=67 velocity=80 time=13\n",
      "note_on channel=1 note=71 velocity=80 time=0\n",
      "note_on channel=1 note=79 velocity=80 time=0\n",
      "note_on channel=1 note=67 velocity=0 time=119\n",
      "note_on channel=1 note=71 velocity=0 time=0\n",
      "note_on channel=1 note=79 velocity=0 time=0\n",
      "note_on channel=1 note=74 velocity=96 time=121\n",
      "note_on channel=1 note=79 velocity=96 time=0\n",
      "note_on channel=1 note=83 velocity=96 time=0\n",
      "note_on channel=1 note=67 velocity=96 time=0\n",
      "note_on channel=1 note=71 velocity=96 time=0\n",
      "note_on channel=1 note=74 velocity=0 time=227\n",
      "note_on channel=1 note=79 velocity=0 time=0\n",
      "note_on channel=1 note=83 velocity=0 time=0\n",
      "note_on channel=1 note=67 velocity=0 time=0\n",
      "note_on channel=1 note=71 velocity=0 time=0\n",
      "note_on channel=1 note=72 velocity=96 time=1693\n",
      "note_on channel=1 note=74 velocity=96 time=0\n",
      "note_on channel=1 note=78 velocity=96 time=0\n",
      "note_on channel=1 note=84 velocity=96 time=0\n",
      "note_on channel=1 note=62 velocity=96 time=0\n",
      "note_on channel=1 note=69 velocity=96 time=0\n",
      "note_on channel=1 note=72 velocity=0 time=227\n",
      "note_on channel=1 note=74 velocity=0 time=0\n",
      "note_on channel=1 note=78 velocity=0 time=0\n",
      "note_on channel=1 note=84 velocity=0 time=0\n",
      "note_on channel=1 note=62 velocity=0 time=0\n",
      "note_on channel=1 note=69 velocity=0 time=0\n",
      "note_on channel=1 note=71 velocity=96 time=1693\n",
      "note_on channel=1 note=74 velocity=96 time=0\n",
      "note_on channel=1 note=79 velocity=96 time=0\n",
      "note_on channel=1 note=83 velocity=96 time=0\n",
      "note_on channel=1 note=71 velocity=0 time=227\n",
      "note_on channel=1 note=74 velocity=0 time=0\n",
      "note_on channel=1 note=79 velocity=0 time=0\n",
      "note_on channel=1 note=83 velocity=0 time=0\n",
      "note_on channel=1 note=72 velocity=96 time=1693\n",
      "note_on channel=1 note=74 velocity=96 time=0\n",
      "note_on channel=1 note=78 velocity=96 time=0\n",
      "note_on channel=1 note=84 velocity=96 time=0\n",
      "note_on channel=1 note=62 velocity=96 time=0\n",
      "note_on channel=1 note=69 velocity=96 time=0\n",
      "note_on channel=1 note=72 velocity=0 time=227\n",
      "note_on channel=1 note=74 velocity=0 time=0\n",
      "note_on channel=1 note=78 velocity=0 time=0\n",
      "note_on channel=1 note=84 velocity=0 time=0\n",
      "note_on channel=1 note=62 velocity=0 time=0\n",
      "note_on channel=1 note=69 velocity=0 time=0\n",
      "note_on channel=1 note=71 velocity=96 time=1693\n",
      "note_on channel=1 note=74 velocity=96 time=0\n",
      "note_on channel=1 note=83 velocity=96 time=0\n",
      "note_on channel=1 note=59 velocity=96 time=0\n",
      "note_on channel=1 note=67 velocity=96 time=0\n",
      "note_on channel=1 note=71 velocity=0 time=227\n",
      "note_on channel=1 note=74 velocity=0 time=0\n",
      "note_on channel=1 note=83 velocity=0 time=0\n",
      "note_on channel=1 note=59 velocity=0 time=0\n",
      "note_on channel=1 note=67 velocity=0 time=0\n",
      "note_on channel=1 note=71 velocity=96 time=733\n",
      "note_on channel=1 note=75 velocity=96 time=0\n",
      "note_on channel=1 note=81 velocity=96 time=0\n",
      "note_on channel=1 note=59 velocity=96 time=0\n",
      "note_on channel=1 note=66 velocity=96 time=0\n",
      "note_on channel=1 note=69 velocity=96 time=0\n",
      "note_on channel=1 note=71 velocity=0 time=227\n",
      "note_on channel=1 note=75 velocity=0 time=0\n",
      "note_on channel=1 note=81 velocity=0 time=0\n",
      "note_on channel=1 note=59 velocity=0 time=0\n",
      "note_on channel=1 note=66 velocity=0 time=0\n",
      "note_on channel=1 note=69 velocity=0 time=0\n",
      "note_on channel=1 note=71 velocity=49 time=733\n",
      "note_on channel=1 note=76 velocity=49 time=0\n",
      "note_on channel=1 note=79 velocity=49 time=0\n",
      "note_on channel=1 note=71 velocity=0 time=227\n",
      "note_on channel=1 note=76 velocity=0 time=0\n",
      "note_on channel=1 note=79 velocity=0 time=0\n",
      "note_on channel=1 note=79 velocity=49 time=253\n",
      "note_on channel=1 note=86 velocity=49 time=0\n",
      "note_on channel=1 note=89 velocity=49 time=0\n",
      "note_on channel=1 note=79 velocity=0 time=227\n",
      "note_on channel=1 note=86 velocity=0 time=0\n",
      "note_on channel=1 note=89 velocity=0 time=0\n",
      "note_on channel=1 note=79 velocity=49 time=253\n",
      "note_on channel=1 note=84 velocity=49 time=0\n",
      "note_on channel=1 note=88 velocity=49 time=0\n",
      "note_on channel=1 note=79 velocity=0 time=227\n",
      "note_on channel=1 note=84 velocity=0 time=0\n",
      "note_on channel=1 note=88 velocity=0 time=0\n",
      "note_on channel=1 note=76 velocity=49 time=253\n",
      "note_on channel=1 note=83 velocity=49 time=0\n",
      "note_on channel=1 note=86 velocity=49 time=0\n",
      "note_on channel=1 note=76 velocity=0 time=227\n",
      "note_on channel=1 note=83 velocity=0 time=0\n",
      "note_on channel=1 note=86 velocity=0 time=0\n",
      "note_on channel=1 note=76 velocity=49 time=253\n",
      "note_on channel=1 note=81 velocity=49 time=0\n",
      "note_on channel=1 note=84 velocity=49 time=0\n",
      "note_on channel=1 note=76 velocity=0 time=227\n",
      "note_on channel=1 note=81 velocity=0 time=0\n",
      "note_on channel=1 note=84 velocity=0 time=0\n",
      "note_on channel=1 note=76 velocity=49 time=253\n",
      "note_on channel=1 note=84 velocity=49 time=0\n",
      "note_on channel=1 note=88 velocity=49 time=0\n",
      "note_on channel=1 note=76 velocity=0 time=227\n",
      "note_on channel=1 note=84 velocity=0 time=0\n",
      "note_on channel=1 note=88 velocity=0 time=0\n",
      "note_on channel=1 note=69 velocity=49 time=13\n",
      "note_on channel=1 note=78 velocity=49 time=0\n",
      "note_on channel=1 note=81 velocity=49 time=0\n",
      "note_on channel=1 note=69 velocity=0 time=227\n",
      "note_on channel=1 note=78 velocity=0 time=0\n",
      "note_on channel=1 note=81 velocity=0 time=0\n",
      "note_on channel=1 note=74 velocity=33 time=973\n",
      "note_on channel=1 note=79 velocity=33 time=0\n",
      "note_on channel=1 note=83 velocity=33 time=0\n",
      "note_on channel=1 note=67 velocity=33 time=0\n",
      "note_on channel=1 note=71 velocity=33 time=0\n",
      "note_on channel=1 note=74 velocity=0 time=227\n",
      "note_on channel=1 note=79 velocity=0 time=0\n",
      "note_on channel=1 note=83 velocity=0 time=0\n",
      "note_on channel=1 note=67 velocity=0 time=0\n",
      "note_on channel=1 note=71 velocity=0 time=0\n",
      "note_on channel=1 note=72 velocity=33 time=1693\n",
      "note_on channel=1 note=74 velocity=33 time=0\n",
      "note_on channel=1 note=78 velocity=33 time=0\n",
      "note_on channel=1 note=84 velocity=33 time=0\n",
      "note_on channel=1 note=62 velocity=33 time=0\n",
      "note_on channel=1 note=69 velocity=33 time=0\n",
      "note_on channel=1 note=72 velocity=0 time=227\n",
      "note_on channel=1 note=74 velocity=0 time=0\n",
      "note_on channel=1 note=78 velocity=0 time=0\n",
      "note_on channel=1 note=84 velocity=0 time=0\n",
      "note_on channel=1 note=62 velocity=0 time=0\n",
      "note_on channel=1 note=69 velocity=0 time=0\n",
      "note_on channel=1 note=71 velocity=33 time=1693\n",
      "note_on channel=1 note=74 velocity=33 time=0\n",
      "note_on channel=1 note=79 velocity=33 time=0\n",
      "note_on channel=1 note=83 velocity=33 time=0\n",
      "note_on channel=1 note=59 velocity=33 time=0\n",
      "note_on channel=1 note=67 velocity=33 time=0\n",
      "note_on channel=1 note=71 velocity=0 time=227\n",
      "note_on channel=1 note=74 velocity=0 time=0\n",
      "note_on channel=1 note=79 velocity=0 time=0\n",
      "note_on channel=1 note=83 velocity=0 time=0\n",
      "note_on channel=1 note=59 velocity=0 time=0\n",
      "note_on channel=1 note=67 velocity=0 time=0\n",
      "note_on channel=1 note=70 velocity=33 time=1693\n",
      "note_on channel=1 note=74 velocity=33 time=0\n",
      "note_on channel=1 note=79 velocity=33 time=0\n",
      "note_on channel=1 note=82 velocity=33 time=0\n",
      "note_on channel=1 note=58 velocity=33 time=0\n",
      "note_on channel=1 note=67 velocity=33 time=0\n",
      "note_on channel=1 note=70 velocity=0 time=227\n",
      "note_on channel=1 note=74 velocity=0 time=0\n",
      "note_on channel=1 note=79 velocity=0 time=0\n",
      "note_on channel=1 note=82 velocity=0 time=0\n",
      "note_on channel=1 note=58 velocity=0 time=0\n",
      "note_on channel=1 note=67 velocity=0 time=0\n",
      "note_on channel=1 note=70 velocity=33 time=1453\n",
      "note_on channel=1 note=70 velocity=0 time=227\n",
      "note_on channel=1 note=79 velocity=33 time=13\n",
      "note_on channel=1 note=82 velocity=33 time=0\n",
      "note_on channel=1 note=79 velocity=0 time=227\n",
      "note_on channel=1 note=82 velocity=0 time=0\n",
      "note_on channel=1 note=67 velocity=96 time=1453\n",
      "note_on channel=1 note=67 velocity=0 time=227\n",
      "note_on channel=1 note=70 velocity=96 time=13\n",
      "note_on channel=1 note=79 velocity=96 time=0\n",
      "note_on channel=1 note=70 velocity=0 time=2507\n",
      "note_on channel=1 note=79 velocity=0 time=0\n",
      "note_on channel=1 note=70 velocity=49 time=133\n",
      "note_on channel=1 note=79 velocity=49 time=0\n",
      "note_on channel=1 note=70 velocity=0 time=227\n",
      "note_on channel=1 note=79 velocity=0 time=0\n",
      "note_on channel=1 note=70 velocity=49 time=253\n",
      "note_on channel=1 note=79 velocity=49 time=0\n",
      "note_on channel=1 note=70 velocity=0 time=227\n",
      "note_on channel=1 note=79 velocity=0 time=0\n",
      "note_on channel=1 note=67 velocity=96 time=253\n",
      "note_on channel=1 note=67 velocity=0 time=227\n",
      "note_on channel=1 note=70 velocity=96 time=13\n",
      "note_on channel=1 note=79 velocity=96 time=0\n",
      "note_on channel=1 note=70 velocity=0 time=2507\n",
      "note_on channel=1 note=79 velocity=0 time=0\n",
      "note_on channel=1 note=70 velocity=40 time=133\n",
      "note_on channel=1 note=79 velocity=40 time=0\n",
      "note_on channel=1 note=70 velocity=0 time=227\n",
      "note_on channel=1 note=79 velocity=0 time=0\n",
      "note_on channel=1 note=70 velocity=40 time=253\n",
      "note_on channel=1 note=79 velocity=40 time=0\n",
      "note_on channel=1 note=70 velocity=0 time=227\n",
      "note_on channel=1 note=79 velocity=0 time=0\n",
      "note_on channel=1 note=70 velocity=40 time=253\n",
      "note_on channel=1 note=79 velocity=40 time=0\n",
      "note_on channel=1 note=70 velocity=0 time=455\n",
      "note_on channel=1 note=79 velocity=0 time=0\n",
      "note_on channel=1 note=58 velocity=40 time=265\n",
      "note_on channel=1 note=63 velocity=40 time=0\n",
      "note_on channel=1 note=67 velocity=40 time=0\n",
      "note_on channel=1 note=58 velocity=0 time=113\n",
      "note_on channel=1 note=63 velocity=0 time=0\n",
      "note_on channel=1 note=67 velocity=0 time=0\n",
      "note_on channel=1 note=58 velocity=40 time=7\n",
      "note_on channel=1 note=63 velocity=40 time=0\n",
      "note_on channel=1 note=67 velocity=40 time=0\n",
      "note_on channel=1 note=58 velocity=0 time=113\n",
      "note_on channel=1 note=63 velocity=0 time=0\n",
      "note_on channel=1 note=67 velocity=0 time=0\n",
      "note_on channel=1 note=58 velocity=40 time=7\n",
      "note_on channel=1 note=63 velocity=40 time=0\n",
      "note_on channel=1 note=67 velocity=40 time=0\n",
      "note_on channel=1 note=58 velocity=0 time=227\n",
      "note_on channel=1 note=63 velocity=0 time=0\n",
      "note_on channel=1 note=67 velocity=0 time=0\n",
      "note_on channel=1 note=70 velocity=40 time=493\n",
      "note_on channel=1 note=79 velocity=40 time=0\n",
      "note_on channel=1 note=70 velocity=0 time=113\n",
      "note_on channel=1 note=79 velocity=0 time=0\n",
      "note_on channel=1 note=70 velocity=40 time=7\n",
      "note_on channel=1 note=79 velocity=40 time=0\n",
      "note_on channel=1 note=70 velocity=0 time=113\n",
      "note_on channel=1 note=79 velocity=0 time=0\n",
      "note_on channel=1 note=70 velocity=40 time=7\n",
      "note_on channel=1 note=79 velocity=40 time=0\n",
      "note_on channel=1 note=70 velocity=0 time=455\n",
      "note_on channel=1 note=79 velocity=0 time=0\n",
      "note_on channel=1 note=58 velocity=40 time=265\n",
      "note_on channel=1 note=63 velocity=40 time=0\n",
      "note_on channel=1 note=67 velocity=40 time=0\n",
      "note_on channel=1 note=58 velocity=0 time=113\n",
      "note_on channel=1 note=63 velocity=0 time=0\n",
      "note_on channel=1 note=67 velocity=0 time=0\n",
      "note_on channel=1 note=58 velocity=40 time=7\n",
      "note_on channel=1 note=63 velocity=40 time=0\n",
      "note_on channel=1 note=67 velocity=40 time=0\n",
      "note_on channel=1 note=58 velocity=0 time=113\n",
      "note_on channel=1 note=63 velocity=0 time=0\n",
      "note_on channel=1 note=67 velocity=0 time=0\n",
      "note_on channel=1 note=58 velocity=40 time=7\n",
      "note_on channel=1 note=63 velocity=40 time=0\n",
      "note_on channel=1 note=67 velocity=40 time=0\n",
      "note_on channel=1 note=58 velocity=0 time=227\n",
      "note_on channel=1 note=63 velocity=0 time=0\n",
      "note_on channel=1 note=67 velocity=0 time=0\n",
      "note_on channel=1 note=75 velocity=40 time=493\n",
      "note_on channel=1 note=79 velocity=40 time=0\n",
      "note_on channel=1 note=75 velocity=0 time=113\n",
      "note_on channel=1 note=79 velocity=0 time=0\n",
      "note_on channel=1 note=75 velocity=40 time=7\n",
      "note_on channel=1 note=79 velocity=40 time=0\n",
      "note_on channel=1 note=75 velocity=0 time=113\n",
      "note_on channel=1 note=79 velocity=0 time=0\n",
      "note_on channel=1 note=75 velocity=40 time=7\n",
      "note_on channel=1 note=79 velocity=40 time=0\n",
      "note_on channel=1 note=75 velocity=0 time=227\n",
      "note_on channel=1 note=79 velocity=0 time=0\n",
      "note_on channel=1 note=63 velocity=40 time=493\n",
      "note_on channel=1 note=67 velocity=40 time=0\n",
      "note_on channel=1 note=63 velocity=0 time=113\n",
      "note_on channel=1 note=67 velocity=0 time=0\n",
      "note_on channel=1 note=63 velocity=40 time=7\n",
      "note_on channel=1 note=67 velocity=40 time=0\n",
      "note_on channel=1 note=63 velocity=0 time=113\n",
      "note_on channel=1 note=67 velocity=0 time=0\n",
      "note_on channel=1 note=63 velocity=40 time=7\n",
      "note_on channel=1 note=67 velocity=40 time=0\n",
      "note_on channel=1 note=63 velocity=0 time=227\n",
      "note_on channel=1 note=67 velocity=0 time=0\n",
      "note_on channel=1 note=51 velocity=40 time=493\n",
      "note_on channel=1 note=55 velocity=40 time=0\n",
      "note_on channel=1 note=51 velocity=0 time=113\n",
      "note_on channel=1 note=55 velocity=0 time=0\n",
      "note_on channel=1 note=51 velocity=40 time=7\n",
      "note_on channel=1 note=55 velocity=40 time=0\n",
      "note_on channel=1 note=51 velocity=0 time=113\n",
      "note_on channel=1 note=55 velocity=0 time=0\n",
      "note_on channel=1 note=55 velocity=40 time=7\n",
      "note_on channel=1 note=51 velocity=40 time=0\n",
      "note_on channel=1 note=51 velocity=0 time=1595\n",
      "note_on channel=1 note=55 velocity=0 time=684\n",
      "note_on channel=1 note=55 velocity=40 time=121\n",
      "note_on channel=1 note=58 velocity=40 time=0\n",
      "note_on channel=1 note=55 velocity=0 time=227\n",
      "note_on channel=1 note=58 velocity=0 time=0\n",
      "note_on channel=1 note=58 velocity=40 time=13\n",
      "note_on channel=1 note=63 velocity=40 time=0\n",
      "note_on channel=1 note=58 velocity=0 time=227\n",
      "note_on channel=1 note=63 velocity=0 time=0\n",
      "note_on channel=1 note=63 velocity=40 time=13\n",
      "note_on channel=1 note=67 velocity=40 time=0\n",
      "note_on channel=1 note=63 velocity=0 time=1367\n",
      "note_on channel=1 note=67 velocity=0 time=0\n",
      "note_on channel=1 note=60 velocity=40 time=73\n",
      "note_on channel=1 note=63 velocity=40 time=0\n",
      "note_on channel=1 note=60 velocity=0 time=455\n",
      "note_on channel=1 note=63 velocity=0 time=0\n",
      "note_on channel=1 note=57 velocity=40 time=25\n",
      "note_on channel=1 note=60 velocity=40 time=0\n",
      "note_on channel=1 note=57 velocity=0 time=911\n",
      "note_on channel=1 note=60 velocity=0 time=0\n",
      "note_on channel=1 note=60 velocity=40 time=49\n",
      "note_on channel=1 note=57 velocity=40 time=0\n",
      "note_on channel=1 note=60 velocity=0 time=455\n",
      "note_on channel=1 note=65 velocity=40 time=25\n",
      "note_on channel=1 note=57 velocity=0 time=431\n",
      "note_on channel=1 note=65 velocity=0 time=24\n",
      "note_on channel=1 note=62 velocity=40 time=25\n",
      "note_on channel=1 note=58 velocity=40 time=0\n",
      "note_on channel=1 note=62 velocity=0 time=455\n",
      "note_on channel=1 note=58 velocity=0 time=0\n",
      "note_on channel=1 note=58 velocity=40 time=25\n",
      "note_on channel=1 note=58 velocity=0 time=455\n",
      "note_on channel=1 note=60 velocity=40 time=25\n",
      "note_on channel=1 note=60 velocity=0 time=455\n",
      "note_on channel=1 note=53 velocity=40 time=25\n",
      "note_on channel=1 note=53 velocity=0 time=0\n",
      "note_on channel=1 note=60 velocity=40 time=1440\n",
      "note_on channel=1 note=60 velocity=0 time=455\n",
      "note_on channel=1 note=53 velocity=40 time=25\n",
      "note_on channel=1 note=53 velocity=0 time=0\n",
      "note_on channel=1 note=62 velocity=40 time=1440\n",
      "note_on channel=1 note=62 velocity=0 time=455\n",
      "note_on channel=1 note=55 velocity=40 time=25\n",
      "note_on channel=1 note=55 velocity=0 time=455\n",
      "note_on channel=1 note=62 velocity=40 time=985\n",
      "note_on channel=1 note=62 velocity=0 time=455\n",
      "note_on channel=1 note=55 velocity=40 time=25\n",
      "note_on channel=1 note=55 velocity=0 time=455\n",
      "note_on channel=1 note=60 velocity=40 time=985\n",
      "note_on channel=1 note=72 velocity=40 time=0\n",
      "note_on channel=1 note=60 velocity=0 time=227\n",
      "note_on channel=1 note=72 velocity=0 time=0\n",
      "note_on channel=1 note=65 velocity=40 time=253\n",
      "note_on channel=1 note=65 velocity=0 time=227\n",
      "note_on channel=1 note=62 velocity=40 time=253\n",
      "note_on channel=1 note=62 velocity=0 time=73\n",
      "note_on channel=1 note=70 velocity=40 time=1\n",
      "note_on channel=1 note=74 velocity=40 time=0\n",
      "note_on channel=1 note=70 velocity=0 time=155\n",
      "note_on channel=1 note=74 velocity=0 time=0\n",
      "note_on channel=1 note=65 velocity=40 time=251\n",
      "note_on channel=1 note=65 velocity=0 time=73\n",
      "note_on channel=1 note=74 velocity=40 time=1\n",
      "note_on channel=1 note=77 velocity=40 time=0\n",
      "note_on channel=1 note=74 velocity=0 time=155\n",
      "note_on channel=1 note=77 velocity=0 time=0\n",
      "note_on channel=1 note=60 velocity=40 time=251\n",
      "note_on channel=1 note=72 velocity=40 time=0\n",
      "note_on channel=1 note=60 velocity=0 time=227\n",
      "note_on channel=1 note=72 velocity=0 time=0\n",
      "note_on channel=1 note=65 velocity=40 time=253\n",
      "note_on channel=1 note=65 velocity=0 time=227\n",
      "note_on channel=1 note=62 velocity=40 time=253\n",
      "note_on channel=1 note=62 velocity=0 time=73\n",
      "note_on channel=1 note=70 velocity=40 time=1\n",
      "note_on channel=1 note=74 velocity=40 time=0\n",
      "note_on channel=1 note=70 velocity=0 time=155\n",
      "note_on channel=1 note=74 velocity=0 time=0\n",
      "note_on channel=1 note=65 velocity=40 time=251\n",
      "note_on channel=1 note=65 velocity=0 time=73\n",
      "note_on channel=1 note=74 velocity=40 time=1\n",
      "note_on channel=1 note=77 velocity=40 time=0\n",
      "note_on channel=1 note=74 velocity=0 time=155\n",
      "note_on channel=1 note=77 velocity=0 time=0\n",
      "note_on channel=1 note=62 velocity=40 time=251\n",
      "note_on channel=1 note=74 velocity=40 time=0\n",
      "note_on channel=1 note=62 velocity=0 time=227\n",
      "note_on channel=1 note=74 velocity=0 time=0\n",
      "note_on channel=1 note=67 velocity=40 time=253\n",
      "note_on channel=1 note=67 velocity=0 time=227\n",
      "note_on channel=1 note=63 velocity=40 time=253\n",
      "note_on channel=1 note=63 velocity=0 time=73\n",
      "note_on channel=1 note=72 velocity=40 time=1\n",
      "note_on channel=1 note=75 velocity=40 time=0\n",
      "note_on channel=1 note=72 velocity=0 time=155\n",
      "note_on channel=1 note=75 velocity=0 time=0\n",
      "note_on channel=1 note=67 velocity=40 time=251\n",
      "note_on channel=1 note=67 velocity=0 time=73\n",
      "note_on channel=1 note=75 velocity=40 time=1\n",
      "note_on channel=1 note=79 velocity=40 time=0\n",
      "note_on channel=1 note=75 velocity=0 time=155\n",
      "note_on channel=1 note=79 velocity=0 time=0\n",
      "note_on channel=1 note=62 velocity=40 time=251\n",
      "note_on channel=1 note=74 velocity=40 time=0\n",
      "note_on channel=1 note=62 velocity=0 time=227\n",
      "note_on channel=1 note=74 velocity=0 time=0\n",
      "note_on channel=1 note=67 velocity=40 time=253\n",
      "note_on channel=1 note=67 velocity=0 time=227\n",
      "note_on channel=1 note=63 velocity=40 time=253\n",
      "note_on channel=1 note=63 velocity=0 time=73\n",
      "note_on channel=1 note=72 velocity=40 time=1\n",
      "note_on channel=1 note=75 velocity=40 time=0\n",
      "note_on channel=1 note=72 velocity=0 time=155\n",
      "note_on channel=1 note=75 velocity=0 time=0\n",
      "note_on channel=1 note=67 velocity=73 time=251\n",
      "note_on channel=1 note=67 velocity=0 time=73\n",
      "note_on channel=1 note=75 velocity=73 time=1\n",
      "note_on channel=1 note=79 velocity=73 time=0\n",
      "note_on channel=1 note=75 velocity=0 time=155\n",
      "note_on channel=1 note=79 velocity=0 time=0\n",
      "note_on channel=1 note=75 velocity=106 time=251\n",
      "note_on channel=1 note=87 velocity=106 time=0\n",
      "note_on channel=1 note=75 velocity=0 time=227\n",
      "note_on channel=1 note=87 velocity=0 time=0\n",
      "note_on channel=1 note=68 velocity=106 time=253\n",
      "note_on channel=1 note=80 velocity=106 time=0\n",
      "note_on channel=1 note=68 velocity=0 time=227\n",
      "note_on channel=1 note=80 velocity=0 time=0\n",
      "note_on channel=1 note=63 velocity=106 time=253\n",
      "note_on channel=1 note=69 velocity=106 time=0\n",
      "note_on channel=1 note=72 velocity=106 time=0\n",
      "note_on channel=1 note=75 velocity=106 time=0\n",
      "note_on channel=1 note=63 velocity=0 time=455\n",
      "note_on channel=1 note=69 velocity=0 time=0\n",
      "note_on channel=1 note=72 velocity=0 time=0\n",
      "note_on channel=1 note=75 velocity=0 time=0\n",
      "note_on channel=1 note=63 velocity=106 time=265\n",
      "note_on channel=1 note=69 velocity=106 time=0\n",
      "note_on channel=1 note=72 velocity=106 time=0\n",
      "note_on channel=1 note=75 velocity=106 time=0\n",
      "note_on channel=1 note=63 velocity=0 time=113\n",
      "note_on channel=1 note=69 velocity=0 time=0\n",
      "note_on channel=1 note=72 velocity=0 time=0\n",
      "note_on channel=1 note=75 velocity=0 time=0\n",
      "note_on channel=1 note=63 velocity=106 time=7\n",
      "note_on channel=1 note=69 velocity=106 time=0\n",
      "note_on channel=1 note=72 velocity=106 time=0\n",
      "note_on channel=1 note=75 velocity=106 time=0\n",
      "note_on channel=1 note=63 velocity=0 time=113\n",
      "note_on channel=1 note=69 velocity=0 time=0\n",
      "note_on channel=1 note=72 velocity=0 time=0\n",
      "note_on channel=1 note=75 velocity=0 time=0\n",
      "note_on channel=1 note=63 velocity=106 time=7\n",
      "note_on channel=1 note=69 velocity=106 time=0\n",
      "note_on channel=1 note=72 velocity=106 time=0\n",
      "note_on channel=1 note=75 velocity=106 time=0\n",
      "note_on channel=1 note=63 velocity=0 time=455\n",
      "note_on channel=1 note=69 velocity=0 time=0\n",
      "note_on channel=1 note=72 velocity=0 time=0\n",
      "note_on channel=1 note=75 velocity=0 time=0\n",
      "note_on channel=1 note=63 velocity=106 time=265\n",
      "note_on channel=1 note=69 velocity=106 time=0\n",
      "note_on channel=1 note=72 velocity=106 time=0\n",
      "note_on channel=1 note=75 velocity=106 time=0\n",
      "note_on channel=1 note=63 velocity=0 time=113\n",
      "note_on channel=1 note=69 velocity=0 time=0\n",
      "note_on channel=1 note=72 velocity=0 time=0\n",
      "note_on channel=1 note=75 velocity=0 time=0\n",
      "note_on channel=1 note=63 velocity=106 time=7\n",
      "note_on channel=1 note=69 velocity=106 time=0\n",
      "note_on channel=1 note=72 velocity=106 time=0\n",
      "note_on channel=1 note=75 velocity=106 time=0\n",
      "note_on channel=1 note=63 velocity=0 time=113\n",
      "note_on channel=1 note=69 velocity=0 time=0\n",
      "note_on channel=1 note=72 velocity=0 time=0\n",
      "note_on channel=1 note=75 velocity=0 time=0\n",
      "note_on channel=1 note=63 velocity=106 time=7\n",
      "note_on channel=1 note=69 velocity=106 time=0\n",
      "note_on channel=1 note=72 velocity=106 time=0\n",
      "note_on channel=1 note=75 velocity=106 time=0\n",
      "note_on channel=1 note=63 velocity=0 time=227\n",
      "note_on channel=1 note=69 velocity=0 time=0\n",
      "note_on channel=1 note=72 velocity=0 time=0\n",
      "note_on channel=1 note=75 velocity=0 time=0\n",
      "note_on channel=1 note=75 velocity=106 time=253\n",
      "note_on channel=1 note=81 velocity=106 time=0\n",
      "note_on channel=1 note=75 velocity=0 time=227\n",
      "note_on channel=1 note=81 velocity=0 time=0\n",
      "note_on channel=1 note=72 velocity=106 time=13\n",
      "note_on channel=1 note=81 velocity=106 time=0\n",
      "note_on channel=1 note=84 velocity=106 time=0\n",
      "note_on channel=1 note=72 velocity=0 time=227\n",
      "note_on channel=1 note=81 velocity=0 time=0\n",
      "note_on channel=1 note=84 velocity=0 time=0\n",
      "note_on channel=1 note=75 velocity=106 time=13\n",
      "note_on channel=1 note=84 velocity=106 time=0\n",
      "note_on channel=1 note=87 velocity=106 time=0\n",
      "note_on channel=1 note=75 velocity=0 time=227\n",
      "note_on channel=1 note=84 velocity=0 time=0\n",
      "note_on channel=1 note=87 velocity=0 time=0\n",
      "note_on channel=1 note=68 velocity=106 time=253\n",
      "note_on channel=1 note=80 velocity=106 time=0\n",
      "note_on channel=1 note=68 velocity=0 time=227\n",
      "note_on channel=1 note=80 velocity=0 time=0\n",
      "note_on channel=1 note=63 velocity=106 time=253\n",
      "note_on channel=1 note=69 velocity=106 time=0\n",
      "note_on channel=1 note=72 velocity=106 time=0\n",
      "note_on channel=1 note=75 velocity=106 time=0\n",
      "note_on channel=1 note=63 velocity=0 time=455\n",
      "note_on channel=1 note=69 velocity=0 time=0\n",
      "note_on channel=1 note=72 velocity=0 time=0\n",
      "note_on channel=1 note=75 velocity=0 time=0\n",
      "note_on channel=1 note=63 velocity=106 time=265\n",
      "note_on channel=1 note=69 velocity=106 time=0\n",
      "note_on channel=1 note=72 velocity=106 time=0\n",
      "note_on channel=1 note=75 velocity=106 time=0\n",
      "note_on channel=1 note=63 velocity=0 time=113\n",
      "note_on channel=1 note=69 velocity=0 time=0\n",
      "note_on channel=1 note=72 velocity=0 time=0\n",
      "note_on channel=1 note=75 velocity=0 time=0\n",
      "note_on channel=1 note=63 velocity=106 time=7\n",
      "note_on channel=1 note=69 velocity=106 time=0\n",
      "note_on channel=1 note=72 velocity=106 time=0\n",
      "note_on channel=1 note=75 velocity=106 time=0\n",
      "note_on channel=1 note=63 velocity=0 time=113\n",
      "note_on channel=1 note=69 velocity=0 time=0\n",
      "note_on channel=1 note=72 velocity=0 time=0\n",
      "note_on channel=1 note=75 velocity=0 time=0\n",
      "note_on channel=1 note=63 velocity=106 time=7\n",
      "note_on channel=1 note=69 velocity=106 time=0\n",
      "note_on channel=1 note=72 velocity=106 time=0\n",
      "note_on channel=1 note=75 velocity=106 time=0\n",
      "note_on channel=1 note=63 velocity=0 time=455\n",
      "note_on channel=1 note=69 velocity=0 time=0\n",
      "note_on channel=1 note=72 velocity=0 time=0\n",
      "note_on channel=1 note=75 velocity=0 time=0\n",
      "note_on channel=1 note=63 velocity=106 time=265\n",
      "note_on channel=1 note=69 velocity=106 time=0\n",
      "note_on channel=1 note=72 velocity=106 time=0\n",
      "note_on channel=1 note=75 velocity=106 time=0\n",
      "note_on channel=1 note=63 velocity=0 time=113\n",
      "note_on channel=1 note=69 velocity=0 time=0\n",
      "note_on channel=1 note=72 velocity=0 time=0\n",
      "note_on channel=1 note=75 velocity=0 time=0\n",
      "note_on channel=1 note=63 velocity=106 time=7\n",
      "note_on channel=1 note=69 velocity=106 time=0\n",
      "note_on channel=1 note=72 velocity=106 time=0\n",
      "note_on channel=1 note=75 velocity=106 time=0\n",
      "note_on channel=1 note=63 velocity=0 time=113\n",
      "note_on channel=1 note=69 velocity=0 time=0\n",
      "note_on channel=1 note=72 velocity=0 time=0\n",
      "note_on channel=1 note=75 velocity=0 time=0\n",
      "note_on channel=1 note=63 velocity=106 time=7\n",
      "note_on channel=1 note=69 velocity=106 time=0\n",
      "note_on channel=1 note=72 velocity=106 time=0\n",
      "note_on channel=1 note=75 velocity=106 time=0\n",
      "note_on channel=1 note=63 velocity=0 time=227\n",
      "note_on channel=1 note=69 velocity=0 time=0\n",
      "note_on channel=1 note=72 velocity=0 time=0\n",
      "note_on channel=1 note=75 velocity=0 time=0\n",
      "note_on channel=1 note=75 velocity=106 time=253\n",
      "note_on channel=1 note=81 velocity=106 time=0\n",
      "note_on channel=1 note=75 velocity=0 time=227\n",
      "note_on channel=1 note=81 velocity=0 time=0\n",
      "note_on channel=1 note=72 velocity=106 time=13\n",
      "note_on channel=1 note=81 velocity=106 time=0\n",
      "note_on channel=1 note=84 velocity=106 time=0\n",
      "note_on channel=1 note=72 velocity=0 time=227\n",
      "note_on channel=1 note=81 velocity=0 time=0\n",
      "note_on channel=1 note=84 velocity=0 time=0\n",
      "note_on channel=1 note=75 velocity=127 time=13\n",
      "note_on channel=1 note=84 velocity=127 time=0\n",
      "note_on channel=1 note=87 velocity=127 time=0\n",
      "note_on channel=1 note=75 velocity=0 time=239\n",
      "note_on channel=1 note=84 velocity=0 time=0\n",
      "note_on channel=1 note=87 velocity=0 time=0\n",
      "note_on channel=1 note=72 velocity=106 time=241\n",
      "note_on channel=1 note=81 velocity=106 time=0\n",
      "note_on channel=1 note=84 velocity=106 time=0\n",
      "note_on channel=1 note=72 velocity=0 time=227\n",
      "note_on channel=1 note=81 velocity=0 time=0\n",
      "note_on channel=1 note=84 velocity=0 time=0\n",
      "note_on channel=1 note=72 velocity=106 time=13\n",
      "note_on channel=1 note=75 velocity=106 time=0\n",
      "note_on channel=1 note=81 velocity=106 time=0\n",
      "note_on channel=1 note=72 velocity=0 time=227\n",
      "note_on channel=1 note=75 velocity=0 time=0\n",
      "note_on channel=1 note=81 velocity=0 time=0\n",
      "note_on channel=1 note=72 velocity=127 time=13\n",
      "note_on channel=1 note=76 velocity=127 time=0\n",
      "note_on channel=1 note=72 velocity=0 time=479\n",
      "note_on channel=1 note=76 velocity=0 time=0\n",
      "note_on channel=1 note=72 velocity=106 time=1\n",
      "note_on channel=1 note=76 velocity=106 time=0\n",
      "note_on channel=1 note=81 velocity=106 time=0\n",
      "note_on channel=1 note=72 velocity=0 time=227\n",
      "note_on channel=1 note=76 velocity=0 time=0\n",
      "note_on channel=1 note=81 velocity=0 time=0\n",
      "note_on channel=1 note=72 velocity=106 time=13\n",
      "note_on channel=1 note=81 velocity=106 time=0\n",
      "note_on channel=1 note=84 velocity=106 time=0\n",
      "note_on channel=1 note=72 velocity=0 time=227\n",
      "note_on channel=1 note=81 velocity=0 time=0\n",
      "note_on channel=1 note=84 velocity=0 time=0\n",
      "note_on channel=1 note=77 velocity=127 time=13\n",
      "note_on channel=1 note=81 velocity=127 time=0\n",
      "note_on channel=1 note=84 velocity=127 time=0\n",
      "note_on channel=1 note=89 velocity=127 time=0\n",
      "note_on channel=1 note=77 velocity=0 time=479\n",
      "note_on channel=1 note=81 velocity=0 time=0\n",
      "note_on channel=1 note=84 velocity=0 time=0\n",
      "note_on channel=1 note=89 velocity=0 time=0\n",
      "note_on channel=1 note=72 velocity=106 time=1\n",
      "note_on channel=1 note=81 velocity=106 time=0\n",
      "note_on channel=1 note=84 velocity=106 time=0\n",
      "note_on channel=1 note=72 velocity=0 time=227\n",
      "note_on channel=1 note=81 velocity=0 time=0\n",
      "note_on channel=1 note=84 velocity=0 time=0\n",
      "note_on channel=1 note=72 velocity=106 time=13\n",
      "note_on channel=1 note=81 velocity=106 time=0\n",
      "note_on channel=1 note=72 velocity=0 time=227\n",
      "note_on channel=1 note=81 velocity=0 time=0\n",
      "note_on channel=1 note=77 velocity=106 time=13\n",
      "note_on channel=1 note=83 velocity=106 time=0\n",
      "note_on channel=1 note=86 velocity=106 time=0\n",
      "note_on channel=1 note=89 velocity=106 time=0\n",
      "note_on channel=1 note=77 velocity=0 time=227\n",
      "note_on channel=1 note=83 velocity=0 time=0\n",
      "note_on channel=1 note=86 velocity=0 time=0\n",
      "note_on channel=1 note=89 velocity=0 time=0\n",
      "note_on channel=1 note=76 velocity=33 time=17053\n",
      "note_on channel=1 note=64 velocity=33 time=0\n",
      "note_on channel=1 note=64 velocity=0 time=227\n",
      "note_on channel=1 note=64 velocity=33 time=733\n",
      "note_on channel=1 note=64 velocity=0 time=227\n",
      "note_on channel=1 note=64 velocity=33 time=733\n",
      "note_on channel=1 note=64 velocity=0 time=227\n",
      "note_on channel=1 note=64 velocity=36 time=253\n",
      "note_on channel=1 note=67 velocity=36 time=0\n",
      "note_on channel=1 note=64 velocity=0 time=227\n",
      "note_on channel=1 note=67 velocity=0 time=0\n",
      "note_on channel=1 note=67 velocity=38 time=13\n",
      "note_on channel=1 note=72 velocity=38 time=0\n",
      "note_on channel=1 note=67 velocity=0 time=227\n",
      "note_on channel=1 note=72 velocity=0 time=0\n",
      "note_on channel=1 note=72 velocity=40 time=13\n",
      "note_on channel=1 note=76 velocity=0 time=76\n",
      "note_on channel=1 note=76 velocity=40 time=0\n",
      "note_on channel=1 note=72 velocity=0 time=163\n",
      "note_on channel=1 note=76 velocity=0 time=528\n",
      "note_on channel=1 note=76 velocity=40 time=193\n",
      "note_on channel=1 note=72 velocity=40 time=0\n",
      "note_on channel=1 note=72 velocity=0 time=73\n",
      "note_on channel=1 note=76 velocity=0 time=382\n",
      "note_on channel=1 note=72 velocity=40 time=25\n",
      "note_on channel=1 note=69 velocity=40 time=0\n",
      "note_on channel=1 note=69 velocity=0 time=73\n",
      "note_on channel=1 note=72 velocity=0 time=382\n",
      "note_on channel=1 note=69 velocity=40 time=25\n",
      "note_on channel=1 note=66 velocity=40 time=0\n",
      "note_on channel=1 note=66 velocity=0 time=73\n",
      "note_on channel=1 note=69 velocity=0 time=838\n",
      "note_on channel=1 note=69 velocity=40 time=49\n",
      "note_on channel=1 note=66 velocity=40 time=0\n",
      "note_on channel=1 note=66 velocity=0 time=73\n",
      "note_on channel=1 note=69 velocity=0 time=382\n",
      "note_on channel=1 note=74 velocity=40 time=25\n",
      "note_on channel=1 note=66 velocity=40 time=0\n",
      "note_on channel=1 note=66 velocity=0 time=73\n",
      "note_on channel=1 note=74 velocity=0 time=382\n",
      "note_on channel=1 note=71 velocity=40 time=25\n",
      "note_on channel=1 note=67 velocity=40 time=0\n",
      "note_on channel=1 note=67 velocity=0 time=73\n",
      "note_on channel=1 note=71 velocity=0 time=382\n",
      "note_on channel=1 note=67 velocity=40 time=25\n",
      "note_on channel=1 note=59 velocity=40 time=0\n",
      "note_on channel=1 note=59 velocity=0 time=73\n",
      "note_on channel=1 note=67 velocity=0 time=382\n",
      "note_on channel=1 note=69 velocity=40 time=25\n",
      "note_on channel=1 note=57 velocity=40 time=0\n",
      "note_on channel=1 note=57 velocity=0 time=73\n",
      "note_on channel=1 note=67 velocity=40 time=1\n",
      "note_on channel=1 note=67 velocity=0 time=383\n",
      "note_on channel=1 note=62 velocity=40 time=23\n",
      "note_on channel=1 note=62 velocity=0 time=73\n",
      "note_on channel=1 note=66 velocity=40 time=1\n",
      "note_on channel=1 note=69 velocity=0 time=357\n",
      "note_on channel=1 note=66 velocity=0 time=26\n",
      "note_on channel=1 note=59 velocity=40 time=23\n",
      "note_on channel=1 note=67 velocity=40 time=0\n",
      "note_on channel=1 note=59 velocity=0 time=73\n",
      "note_on channel=1 note=67 velocity=0 time=1\n",
      "note_on channel=1 note=67 velocity=40 time=0\n",
      "note_on channel=1 note=67 velocity=0 time=155\n",
      "note_on channel=1 note=64 velocity=102 time=491\n",
      "note_on channel=1 note=72 velocity=102 time=0\n",
      "note_on channel=1 note=76 velocity=102 time=0\n",
      "note_on channel=1 note=64 velocity=0 time=113\n",
      "note_on channel=1 note=72 velocity=0 time=0\n",
      "note_on channel=1 note=76 velocity=0 time=0\n",
      "note_on channel=1 note=64 velocity=102 time=7\n",
      "note_on channel=1 note=72 velocity=102 time=0\n",
      "note_on channel=1 note=76 velocity=102 time=0\n",
      "note_on channel=1 note=64 velocity=0 time=113\n",
      "note_on channel=1 note=72 velocity=0 time=0\n",
      "note_on channel=1 note=76 velocity=0 time=0\n",
      "note_on channel=1 note=64 velocity=102 time=7\n",
      "note_on channel=1 note=72 velocity=102 time=0\n",
      "note_on channel=1 note=76 velocity=102 time=0\n",
      "note_on channel=1 note=64 velocity=0 time=455\n",
      "note_on channel=1 note=72 velocity=0 time=0\n",
      "note_on channel=1 note=76 velocity=0 time=0\n",
      "note_on channel=1 note=64 velocity=102 time=265\n",
      "note_on channel=1 note=72 velocity=102 time=0\n",
      "note_on channel=1 note=76 velocity=102 time=0\n",
      "note_on channel=1 note=64 velocity=0 time=113\n",
      "note_on channel=1 note=72 velocity=0 time=0\n",
      "note_on channel=1 note=76 velocity=0 time=0\n",
      "note_on channel=1 note=64 velocity=102 time=7\n",
      "note_on channel=1 note=72 velocity=102 time=0\n",
      "note_on channel=1 note=76 velocity=102 time=0\n",
      "note_on channel=1 note=64 velocity=0 time=113\n",
      "note_on channel=1 note=72 velocity=0 time=0\n",
      "note_on channel=1 note=76 velocity=0 time=0\n",
      "note_on channel=1 note=64 velocity=102 time=7\n",
      "note_on channel=1 note=72 velocity=102 time=0\n",
      "note_on channel=1 note=76 velocity=102 time=0\n",
      "note_on channel=1 note=64 velocity=0 time=455\n",
      "note_on channel=1 note=72 velocity=0 time=0\n",
      "note_on channel=1 note=76 velocity=0 time=0\n",
      "note_on channel=1 note=64 velocity=102 time=265\n",
      "note_on channel=1 note=72 velocity=102 time=0\n",
      "note_on channel=1 note=76 velocity=102 time=0\n",
      "note_on channel=1 note=64 velocity=0 time=113\n",
      "note_on channel=1 note=72 velocity=0 time=0\n",
      "note_on channel=1 note=76 velocity=0 time=0\n",
      "note_on channel=1 note=64 velocity=102 time=7\n",
      "note_on channel=1 note=72 velocity=102 time=0\n",
      "note_on channel=1 note=76 velocity=102 time=0\n",
      "note_on channel=1 note=64 velocity=0 time=113\n",
      "note_on channel=1 note=72 velocity=0 time=0\n",
      "note_on channel=1 note=76 velocity=0 time=0\n",
      "note_on channel=1 note=64 velocity=102 time=7\n",
      "note_on channel=1 note=72 velocity=102 time=0\n",
      "note_on channel=1 note=76 velocity=102 time=0\n",
      "note_on channel=1 note=64 velocity=0 time=227\n",
      "note_on channel=1 note=72 velocity=0 time=0\n",
      "note_on channel=1 note=76 velocity=0 time=0\n",
      "note_on channel=1 note=64 velocity=102 time=13\n",
      "note_on channel=1 note=72 velocity=102 time=0\n",
      "note_on channel=1 note=76 velocity=102 time=0\n",
      "note_on channel=1 note=64 velocity=0 time=113\n",
      "note_on channel=1 note=72 velocity=0 time=0\n",
      "note_on channel=1 note=76 velocity=0 time=0\n",
      "note_on channel=1 note=64 velocity=102 time=7\n",
      "note_on channel=1 note=72 velocity=102 time=0\n",
      "note_on channel=1 note=76 velocity=102 time=0\n",
      "note_on channel=1 note=64 velocity=0 time=113\n",
      "note_on channel=1 note=72 velocity=0 time=0\n",
      "note_on channel=1 note=76 velocity=0 time=0\n",
      "note_on channel=1 note=64 velocity=102 time=7\n",
      "note_on channel=1 note=72 velocity=102 time=0\n",
      "note_on channel=1 note=76 velocity=102 time=0\n",
      "note_on channel=1 note=64 velocity=0 time=227\n",
      "note_on channel=1 note=72 velocity=0 time=0\n",
      "note_on channel=1 note=76 velocity=0 time=0\n",
      "note_on channel=1 note=76 velocity=102 time=13\n",
      "note_on channel=1 note=79 velocity=102 time=0\n",
      "note_on channel=1 note=76 velocity=0 time=113\n",
      "note_on channel=1 note=79 velocity=0 time=0\n",
      "note_on channel=1 note=76 velocity=102 time=7\n",
      "note_on channel=1 note=84 velocity=102 time=0\n",
      "note_on channel=1 note=76 velocity=0 time=113\n",
      "note_on channel=1 note=84 velocity=0 time=0\n",
      "note_on channel=1 note=76 velocity=102 time=7\n",
      "note_on channel=1 note=84 velocity=102 time=0\n",
      "note_on channel=1 note=88 velocity=102 time=0\n",
      "note_on channel=1 note=76 velocity=0 time=227\n",
      "note_on channel=1 note=84 velocity=0 time=0\n",
      "note_on channel=1 note=88 velocity=0 time=0\n",
      "note_on channel=1 note=76 velocity=106 time=493\n",
      "note_on channel=1 note=84 velocity=106 time=0\n",
      "note_on channel=1 note=88 velocity=106 time=0\n",
      "note_on channel=1 note=76 velocity=0 time=113\n",
      "note_on channel=1 note=84 velocity=0 time=0\n",
      "note_on channel=1 note=88 velocity=0 time=0\n",
      "note_on channel=1 note=76 velocity=106 time=7\n",
      "note_on channel=1 note=84 velocity=106 time=0\n",
      "note_on channel=1 note=88 velocity=106 time=0\n",
      "note_on channel=1 note=76 velocity=0 time=113\n",
      "note_on channel=1 note=84 velocity=0 time=0\n",
      "note_on channel=1 note=88 velocity=0 time=0\n",
      "note_on channel=1 note=76 velocity=106 time=7\n",
      "note_on channel=1 note=84 velocity=106 time=0\n",
      "note_on channel=1 note=88 velocity=106 time=0\n",
      "note_on channel=1 note=76 velocity=0 time=227\n",
      "note_on channel=1 note=84 velocity=0 time=0\n",
      "note_on channel=1 note=88 velocity=0 time=0\n",
      "note_on channel=1 note=72 velocity=106 time=13\n",
      "note_on channel=1 note=81 velocity=106 time=0\n",
      "note_on channel=1 note=84 velocity=106 time=0\n",
      "note_on channel=1 note=72 velocity=0 time=113\n",
      "note_on channel=1 note=81 velocity=0 time=0\n",
      "note_on channel=1 note=84 velocity=0 time=0\n",
      "note_on channel=1 note=72 velocity=106 time=7\n",
      "note_on channel=1 note=81 velocity=106 time=0\n",
      "note_on channel=1 note=84 velocity=106 time=0\n",
      "note_on channel=1 note=72 velocity=0 time=113\n",
      "note_on channel=1 note=81 velocity=0 time=0\n",
      "note_on channel=1 note=84 velocity=0 time=0\n",
      "note_on channel=1 note=72 velocity=106 time=7\n",
      "note_on channel=1 note=81 velocity=106 time=0\n",
      "note_on channel=1 note=84 velocity=106 time=0\n",
      "note_on channel=1 note=72 velocity=0 time=227\n",
      "note_on channel=1 note=81 velocity=0 time=0\n",
      "note_on channel=1 note=84 velocity=0 time=0\n",
      "note_on channel=1 note=69 velocity=106 time=13\n",
      "note_on channel=1 note=78 velocity=106 time=0\n",
      "note_on channel=1 note=81 velocity=106 time=0\n",
      "note_on channel=1 note=69 velocity=0 time=113\n",
      "note_on channel=1 note=78 velocity=0 time=0\n",
      "note_on channel=1 note=81 velocity=0 time=0\n",
      "note_on channel=1 note=69 velocity=106 time=7\n",
      "note_on channel=1 note=78 velocity=106 time=0\n",
      "note_on channel=1 note=81 velocity=106 time=0\n",
      "note_on channel=1 note=69 velocity=0 time=113\n",
      "note_on channel=1 note=78 velocity=0 time=0\n",
      "note_on channel=1 note=81 velocity=0 time=0\n",
      "note_on channel=1 note=69 velocity=106 time=7\n",
      "note_on channel=1 note=78 velocity=106 time=0\n",
      "note_on channel=1 note=81 velocity=106 time=0\n",
      "note_on channel=1 note=69 velocity=0 time=455\n",
      "note_on channel=1 note=78 velocity=0 time=0\n",
      "note_on channel=1 note=81 velocity=0 time=0\n",
      "note_on channel=1 note=69 velocity=106 time=265\n",
      "note_on channel=1 note=78 velocity=106 time=0\n",
      "note_on channel=1 note=81 velocity=106 time=0\n",
      "note_on channel=1 note=69 velocity=0 time=113\n",
      "note_on channel=1 note=78 velocity=0 time=0\n",
      "note_on channel=1 note=81 velocity=0 time=0\n",
      "note_on channel=1 note=76 velocity=106 time=7\n",
      "note_on channel=1 note=79 velocity=106 time=0\n",
      "note_on channel=1 note=76 velocity=0 time=113\n",
      "note_on channel=1 note=79 velocity=0 time=0\n",
      "note_on channel=1 note=69 velocity=106 time=7\n",
      "note_on channel=1 note=78 velocity=106 time=0\n",
      "note_on channel=1 note=81 velocity=106 time=0\n",
      "note_on channel=1 note=69 velocity=0 time=227\n",
      "note_on channel=1 note=78 velocity=0 time=0\n",
      "note_on channel=1 note=81 velocity=0 time=0\n",
      "note_on channel=1 note=74 velocity=106 time=13\n",
      "note_on channel=1 note=78 velocity=106 time=0\n",
      "note_on channel=1 note=86 velocity=106 time=0\n",
      "note_on channel=1 note=74 velocity=0 time=113\n",
      "note_on channel=1 note=78 velocity=0 time=0\n",
      "note_on channel=1 note=86 velocity=0 time=0\n",
      "note_on channel=1 note=76 velocity=106 time=7\n",
      "note_on channel=1 note=76 velocity=0 time=113\n",
      "note_on channel=1 note=78 velocity=106 time=7\n",
      "note_on channel=1 note=90 velocity=106 time=0\n",
      "note_on channel=1 note=78 velocity=0 time=227\n",
      "note_on channel=1 note=90 velocity=0 time=0\n",
      "note_on channel=1 note=79 velocity=106 time=13\n",
      "note_on channel=1 note=83 velocity=106 time=0\n",
      "note_on channel=1 note=79 velocity=0 time=113\n",
      "note_on channel=1 note=83 velocity=0 time=0\n",
      "note_on channel=1 note=78 velocity=106 time=7\n",
      "note_on channel=1 note=78 velocity=0 time=113\n",
      "note_on channel=1 note=79 velocity=106 time=7\n",
      "note_on channel=1 note=83 velocity=106 time=0\n",
      "note_on channel=1 note=79 velocity=0 time=227\n",
      "note_on channel=1 note=83 velocity=0 time=0\n",
      "note_on channel=1 note=67 velocity=106 time=13\n",
      "note_on channel=1 note=79 velocity=106 time=0\n",
      "note_on channel=1 note=67 velocity=0 time=113\n",
      "note_on channel=1 note=79 velocity=0 time=0\n",
      "note_on channel=1 note=69 velocity=106 time=7\n",
      "note_on channel=1 note=69 velocity=0 time=113\n",
      "note_on channel=1 note=71 velocity=106 time=7\n",
      "note_on channel=1 note=79 velocity=106 time=0\n",
      "note_on channel=1 note=71 velocity=0 time=227\n",
      "note_on channel=1 note=79 velocity=0 time=0\n",
      "note_on channel=1 note=72 velocity=106 time=13\n",
      "note_on channel=1 note=81 velocity=106 time=0\n",
      "note_on channel=1 note=72 velocity=0 time=113\n",
      "note_on channel=1 note=81 velocity=0 time=0\n",
      "note_on channel=1 note=71 velocity=106 time=7\n",
      "note_on channel=1 note=71 velocity=0 time=113\n",
      "note_on channel=1 note=72 velocity=106 time=7\n",
      "note_on channel=1 note=81 velocity=106 time=0\n",
      "note_on channel=1 note=72 velocity=0 time=227\n",
      "note_on channel=1 note=81 velocity=0 time=0\n",
      "note_on channel=1 note=66 velocity=106 time=13\n",
      "note_on channel=1 note=74 velocity=106 time=0\n",
      "note_on channel=1 note=66 velocity=0 time=113\n",
      "note_on channel=1 note=74 velocity=0 time=0\n",
      "note_on channel=1 note=64 velocity=106 time=7\n",
      "note_on channel=1 note=64 velocity=0 time=113\n",
      "note_on channel=1 note=66 velocity=106 time=7\n",
      "note_on channel=1 note=74 velocity=106 time=0\n",
      "note_on channel=1 note=66 velocity=0 time=227\n",
      "note_on channel=1 note=74 velocity=0 time=0\n",
      "note_on channel=1 note=74 velocity=106 time=13\n",
      "note_on channel=1 note=74 velocity=0 time=227\n",
      "note_on channel=1 note=74 velocity=127 time=13\n",
      "note_on channel=1 note=83 velocity=127 time=0\n",
      "note_on channel=1 note=86 velocity=127 time=0\n",
      "note_on channel=1 note=74 velocity=0 time=719\n",
      "note_on channel=1 note=83 velocity=0 time=0\n",
      "note_on channel=1 note=86 velocity=0 time=0\n",
      "note_on channel=1 note=74 velocity=106 time=1\n",
      "note_on channel=1 note=74 velocity=0 time=227\n",
      "note_on channel=1 note=83 velocity=106 time=13\n",
      "note_on channel=1 note=84 velocity=106 time=0\n",
      "note_on channel=1 note=83 velocity=0 time=119\n",
      "note_on channel=1 note=84 velocity=0 time=0\n",
      "note_on channel=1 note=72 velocity=106 time=121\n",
      "note_on channel=1 note=72 velocity=0 time=119\n",
      "note_on channel=1 note=81 velocity=106 time=121\n",
      "note_on channel=1 note=83 velocity=106 time=0\n",
      "note_on channel=1 note=81 velocity=0 time=119\n",
      "note_on channel=1 note=83 velocity=0 time=0\n",
      "note_on channel=1 note=71 velocity=106 time=121\n",
      "note_on channel=1 note=71 velocity=0 time=119\n",
      "note_on channel=1 note=79 velocity=106 time=121\n",
      "note_on channel=1 note=81 velocity=106 time=0\n",
      "note_on channel=1 note=79 velocity=0 time=119\n",
      "note_on channel=1 note=81 velocity=0 time=0\n",
      "note_on channel=1 note=69 velocity=106 time=121\n",
      "note_on channel=1 note=69 velocity=0 time=119\n",
      "note_on channel=1 note=79 velocity=106 time=121\n",
      "note_on channel=1 note=79 velocity=0 time=119\n",
      "note_on channel=1 note=67 velocity=106 time=121\n",
      "note_on channel=1 note=67 velocity=0 time=119\n",
      "note_on channel=1 note=76 velocity=106 time=121\n",
      "note_on channel=1 note=79 velocity=106 time=0\n",
      "note_on channel=1 note=81 velocity=106 time=0\n",
      "note_on channel=1 note=76 velocity=0 time=119\n",
      "note_on channel=1 note=79 velocity=0 time=0\n",
      "note_on channel=1 note=81 velocity=0 time=0\n",
      "note_on channel=1 note=69 velocity=106 time=121\n",
      "note_on channel=1 note=69 velocity=0 time=119\n",
      "note_on channel=1 note=69 velocity=106 time=121\n",
      "note_on channel=1 note=72 velocity=106 time=0\n",
      "note_on channel=1 note=78 velocity=106 time=0\n",
      "note_on channel=1 note=69 velocity=0 time=119\n",
      "note_on channel=1 note=72 velocity=0 time=0\n",
      "note_on channel=1 note=78 velocity=0 time=0\n",
      "note_on channel=1 note=66 velocity=106 time=121\n",
      "note_on channel=1 note=66 velocity=0 time=227\n",
      "note_on channel=1 note=60 velocity=49 time=3613\n",
      "note_on channel=1 note=66 velocity=49 time=0\n",
      "note_on channel=1 note=60 velocity=0 time=227\n",
      "note_on channel=1 note=66 velocity=0 time=0\n",
      "note_on channel=1 note=59 velocity=90 time=13\n",
      "note_on channel=1 note=67 velocity=90 time=0\n",
      "note_on channel=1 note=59 velocity=0 time=227\n",
      "note_on channel=1 note=67 velocity=0 time=0\n",
      "note_on channel=1 note=79 velocity=106 time=13\n",
      "note_on channel=1 note=91 velocity=106 time=0\n",
      "note_on channel=1 note=79 velocity=0 time=113\n",
      "note_on channel=1 note=91 velocity=0 time=0\n",
      "note_on channel=1 note=79 velocity=106 time=7\n",
      "note_on channel=1 note=91 velocity=106 time=0\n",
      "note_on channel=1 note=79 velocity=0 time=113\n",
      "note_on channel=1 note=91 velocity=0 time=0\n",
      "note_on channel=1 note=79 velocity=106 time=7\n",
      "note_on channel=1 note=91 velocity=106 time=0\n",
      "note_on channel=1 note=79 velocity=0 time=227\n",
      "note_on channel=1 note=91 velocity=0 time=0\n",
      "note_on channel=1 note=67 velocity=49 time=2173\n",
      "note_on channel=1 note=67 velocity=0 time=227\n",
      "note_on channel=1 note=62 velocity=49 time=253\n",
      "note_on channel=1 note=62 velocity=0 time=227\n",
      "note_on channel=1 note=67 velocity=90 time=253\n",
      "note_on channel=1 note=59 velocity=90 time=0\n",
      "note_on channel=1 note=67 velocity=0 time=227\n",
      "note_on channel=1 note=79 velocity=102 time=13\n",
      "note_on channel=1 note=91 velocity=102 time=0\n",
      "note_on channel=1 note=79 velocity=0 time=113\n",
      "note_on channel=1 note=91 velocity=0 time=0\n",
      "note_on channel=1 note=79 velocity=102 time=7\n",
      "note_on channel=1 note=91 velocity=102 time=0\n",
      "note_on channel=1 note=79 velocity=0 time=113\n",
      "note_on channel=1 note=91 velocity=0 time=0\n",
      "note_on channel=1 note=79 velocity=102 time=7\n",
      "note_on channel=1 note=91 velocity=102 time=0\n",
      "note_on channel=1 note=79 velocity=0 time=227\n",
      "note_on channel=1 note=91 velocity=0 time=0\n",
      "note_on channel=1 note=59 velocity=0 time=204\n",
      "note_on channel=1 note=57 velocity=90 time=1969\n",
      "note_on channel=1 note=57 velocity=0 time=227\n",
      "note_on channel=1 note=50 velocity=90 time=253\n",
      "note_on channel=1 note=50 velocity=0 time=227\n",
      "note_on channel=1 note=57 velocity=90 time=733\n",
      "note_on channel=1 note=57 velocity=0 time=227\n",
      "note_on channel=1 note=50 velocity=90 time=13\n",
      "note_on channel=1 note=50 velocity=0 time=227\n",
      "note_on channel=1 note=57 velocity=70 time=493\n",
      "note_on channel=1 note=57 velocity=0 time=227\n",
      "note_on channel=1 note=49 velocity=70 time=13\n",
      "note_on channel=1 note=49 velocity=0 time=227\n",
      "note_on channel=1 note=58 velocity=56 time=493\n",
      "note_on channel=1 note=58 velocity=0 time=227\n",
      "note_on channel=1 note=49 velocity=56 time=13\n",
      "note_on channel=1 note=49 velocity=0 time=227\n",
      "note_on channel=1 note=66 velocity=33 time=8653\n",
      "note_on channel=1 note=78 velocity=33 time=0\n",
      "note_on channel=1 note=66 velocity=0 time=1823\n",
      "note_on channel=1 note=78 velocity=0 time=0\n",
      "note_on channel=1 note=67 velocity=33 time=97\n",
      "note_on channel=1 note=79 velocity=33 time=0\n",
      "note_on channel=1 note=67 velocity=0 time=1823\n",
      "note_on channel=1 note=79 velocity=0 time=0\n",
      "note_on channel=1 note=60 velocity=33 time=97\n",
      "note_on channel=1 note=60 velocity=0 time=227\n",
      "note_on channel=1 note=79 velocity=33 time=3613\n",
      "note_on channel=1 note=67 velocity=33 time=0\n",
      "note_on channel=1 note=79 velocity=0 time=911\n",
      "note_on channel=1 note=67 velocity=0 time=0\n",
      "note_on channel=1 note=76 velocity=33 time=49\n",
      "note_on channel=1 note=76 velocity=0 time=455\n",
      "note_on channel=1 note=72 velocity=33 time=25\n",
      "note_on channel=1 note=72 velocity=0 time=455\n",
      "note_on channel=1 note=69 velocity=33 time=25\n",
      "note_on channel=1 note=62 velocity=33 time=0\n",
      "note_on channel=1 note=62 velocity=0 time=227\n",
      "note_on channel=1 note=69 velocity=0 time=684\n",
      "note_on channel=1 note=74 velocity=33 time=49\n",
      "note_on channel=1 note=74 velocity=0 time=911\n",
      "note_on channel=1 note=59 velocity=40 time=49\n",
      "note_on channel=1 note=62 velocity=40 time=0\n",
      "note_on channel=1 note=59 velocity=0 time=227\n",
      "note_on channel=1 note=59 velocity=40 time=13\n",
      "note_on channel=1 note=62 velocity=0 time=0\n",
      "note_on channel=1 note=62 velocity=40 time=0\n",
      "note_on channel=1 note=59 velocity=0 time=227\n",
      "note_on channel=1 note=59 velocity=40 time=13\n",
      "note_on channel=1 note=62 velocity=0 time=0\n",
      "note_on channel=1 note=62 velocity=40 time=0\n",
      "note_on channel=1 note=59 velocity=0 time=227\n",
      "note_on channel=1 note=59 velocity=40 time=13\n",
      "note_on channel=1 note=62 velocity=0 time=0\n",
      "note_on channel=1 note=62 velocity=40 time=0\n",
      "note_on channel=1 note=59 velocity=0 time=227\n",
      "note_on channel=1 note=62 velocity=0 time=0\n",
      "note_on channel=1 note=59 velocity=40 time=13\n",
      "note_on channel=1 note=62 velocity=40 time=0\n",
      "note_on channel=1 note=59 velocity=0 time=227\n",
      "note_on channel=1 note=62 velocity=0 time=0\n",
      "note_on channel=1 note=59 velocity=40 time=13\n",
      "note_on channel=1 note=62 velocity=40 time=0\n",
      "note_on channel=1 note=59 velocity=0 time=227\n",
      "note_on channel=1 note=62 velocity=0 time=0\n",
      "note_on channel=1 note=62 velocity=40 time=13\n",
      "note_on channel=1 note=62 velocity=0 time=227\n",
      "note_on channel=1 note=62 velocity=40 time=13\n",
      "note_on channel=1 note=62 velocity=0 time=227\n",
      "note_on channel=1 note=60 velocity=40 time=13\n",
      "note_on channel=1 note=62 velocity=40 time=0\n",
      "note_on channel=1 note=60 velocity=0 time=227\n",
      "note_on channel=1 note=62 velocity=0 time=0\n",
      "note_on channel=1 note=60 velocity=40 time=13\n",
      "note_on channel=1 note=62 velocity=40 time=0\n",
      "note_on channel=1 note=60 velocity=0 time=227\n",
      "note_on channel=1 note=62 velocity=0 time=0\n",
      "note_on channel=1 note=60 velocity=40 time=13\n",
      "note_on channel=1 note=62 velocity=40 time=0\n",
      "note_on channel=1 note=60 velocity=0 time=227\n",
      "note_on channel=1 note=62 velocity=0 time=0\n",
      "note_on channel=1 note=60 velocity=40 time=13\n",
      "note_on channel=1 note=62 velocity=40 time=0\n",
      "note_on channel=1 note=60 velocity=0 time=227\n",
      "note_on channel=1 note=62 velocity=0 time=0\n",
      "note_on channel=1 note=60 velocity=40 time=13\n",
      "note_on channel=1 note=62 velocity=40 time=0\n",
      "note_on channel=1 note=60 velocity=0 time=227\n",
      "note_on channel=1 note=62 velocity=0 time=0\n",
      "note_on channel=1 note=60 velocity=40 time=13\n",
      "note_on channel=1 note=62 velocity=40 time=0\n",
      "note_on channel=1 note=60 velocity=0 time=227\n",
      "note_on channel=1 note=62 velocity=0 time=0\n",
      "note_on channel=1 note=60 velocity=40 time=13\n",
      "note_on channel=1 note=62 velocity=40 time=0\n",
      "note_on channel=1 note=60 velocity=0 time=227\n",
      "note_on channel=1 note=62 velocity=0 time=0\n",
      "note_on channel=1 note=60 velocity=40 time=13\n",
      "note_on channel=1 note=62 velocity=40 time=0\n",
      "note_on channel=1 note=60 velocity=0 time=227\n",
      "note_on channel=1 note=62 velocity=0 time=0\n",
      "note_on channel=1 note=74 velocity=40 time=13\n",
      "note_on channel=1 note=62 velocity=40 time=0\n",
      "note_on channel=1 note=62 velocity=0 time=227\n",
      "note_on channel=1 note=62 velocity=40 time=13\n",
      "note_on channel=1 note=62 velocity=0 time=227\n",
      "note_on channel=1 note=62 velocity=40 time=13\n",
      "note_on channel=1 note=62 velocity=0 time=227\n",
      "note_on channel=1 note=62 velocity=40 time=13\n",
      "note_on channel=1 note=62 velocity=0 time=227\n",
      "note_on channel=1 note=62 velocity=40 time=13\n",
      "note_on channel=1 note=62 velocity=0 time=227\n",
      "note_on channel=1 note=62 velocity=40 time=13\n",
      "note_on channel=1 note=74 velocity=0 time=167\n",
      "note_on channel=1 note=62 velocity=0 time=60\n",
      "note_on channel=1 note=72 velocity=40 time=13\n",
      "note_on channel=1 note=62 velocity=40 time=0\n",
      "note_on channel=1 note=72 velocity=0 time=227\n",
      "note_on channel=1 note=62 velocity=0 time=0\n",
      "note_on channel=1 note=71 velocity=40 time=13\n",
      "note_on channel=1 note=62 velocity=40 time=0\n",
      "note_on channel=1 note=71 velocity=0 time=227\n",
      "note_on channel=1 note=62 velocity=0 time=0\n",
      "note_on channel=1 note=71 velocity=40 time=13\n",
      "note_on channel=1 note=60 velocity=40 time=0\n",
      "note_on channel=1 note=62 velocity=40 time=0\n",
      "note_on channel=1 note=60 velocity=0 time=227\n",
      "note_on channel=1 note=62 velocity=0 time=0\n",
      "note_on channel=1 note=60 velocity=40 time=13\n",
      "note_on channel=1 note=62 velocity=40 time=0\n",
      "note_on channel=1 note=71 velocity=0 time=215\n",
      "note_on channel=1 note=60 velocity=0 time=12\n",
      "note_on channel=1 note=62 velocity=0 time=0\n",
      "note_on channel=1 note=69 velocity=40 time=13\n",
      "note_on channel=1 note=60 velocity=40 time=0\n",
      "note_on channel=1 note=62 velocity=40 time=0\n",
      "note_on channel=1 note=60 velocity=0 time=227\n",
      "note_on channel=1 note=62 velocity=0 time=0\n",
      "note_on channel=1 note=60 velocity=40 time=13\n",
      "note_on channel=1 note=62 velocity=40 time=0\n",
      "note_on channel=1 note=60 velocity=0 time=227\n",
      "note_on channel=1 note=62 velocity=0 time=0\n",
      "note_on channel=1 note=60 velocity=40 time=13\n",
      "note_on channel=1 note=62 velocity=40 time=0\n",
      "note_on channel=1 note=69 velocity=0 time=203\n",
      "note_on channel=1 note=60 velocity=0 time=24\n",
      "note_on channel=1 note=62 velocity=0 time=0\n",
      "note_on channel=1 note=60 velocity=40 time=13\n",
      "note_on channel=1 note=62 velocity=40 time=0\n",
      "note_on channel=1 note=60 velocity=0 time=227\n",
      "note_on channel=1 note=62 velocity=0 time=0\n",
      "note_on channel=1 note=60 velocity=40 time=13\n",
      "note_on channel=1 note=62 velocity=40 time=0\n",
      "note_on channel=1 note=60 velocity=0 time=0\n",
      "note_on channel=1 note=62 velocity=0 time=227\n",
      "note_on channel=1 note=60 velocity=40 time=13\n",
      "note_on channel=1 note=62 velocity=40 time=0\n",
      "note_on channel=1 note=62 velocity=0 time=0\n",
      "note_on channel=1 note=60 velocity=0 time=227\n",
      "note_on channel=1 note=74 velocity=40 time=13\n",
      "note_on channel=1 note=86 velocity=40 time=0\n",
      "note_on channel=1 note=69 velocity=52 time=960\n",
      "note_on channel=1 note=69 velocity=0 time=38\n",
      "note_on channel=1 note=67 velocity=52 time=1\n",
      "note_on channel=1 note=67 velocity=0 time=38\n",
      "note_on channel=1 note=66 velocity=52 time=2\n",
      "note_on channel=1 note=66 velocity=0 time=38\n",
      "note_on channel=1 note=67 velocity=52 time=3\n",
      "note_on channel=1 note=67 velocity=0 time=113\n",
      "note_on channel=1 note=69 velocity=55 time=7\n",
      "note_on channel=1 note=74 velocity=0 time=167\n",
      "note_on channel=1 note=86 velocity=0 time=0\n",
      "note_on channel=1 note=69 velocity=0 time=60\n",
      "note_on channel=1 note=72 velocity=58 time=13\n",
      "note_on channel=1 note=84 velocity=58 time=0\n",
      "note_on channel=1 note=62 velocity=58 time=0\n",
      "note_on channel=1 note=71 velocity=58 time=0\n",
      "note_on channel=1 note=72 velocity=0 time=227\n",
      "note_on channel=1 note=84 velocity=0 time=0\n",
      "note_on channel=1 note=62 velocity=0 time=0\n",
      "note_on channel=1 note=71 velocity=0 time=0\n",
      "note_on channel=1 note=71 velocity=61 time=13\n",
      "note_on channel=1 note=83 velocity=61 time=0\n",
      "note_on channel=1 note=71 velocity=0 time=227\n",
      "note_on channel=1 note=83 velocity=0 time=0\n",
      "note_on channel=1 note=71 velocity=65 time=13\n",
      "note_on channel=1 note=83 velocity=65 time=0\n",
      "note_on channel=1 note=71 velocity=0 time=455\n",
      "note_on channel=1 note=83 velocity=0 time=0\n",
      "note_on channel=1 note=69 velocity=71 time=25\n",
      "note_on channel=1 note=81 velocity=71 time=0\n",
      "note_on channel=1 note=69 velocity=0 time=455\n",
      "note_on channel=1 note=81 velocity=0 time=0\n",
      "note_on channel=1 note=69 velocity=77 time=25\n",
      "note_on channel=1 note=81 velocity=77 time=0\n",
      "note_on channel=1 note=69 velocity=0 time=227\n",
      "note_on channel=1 note=81 velocity=0 time=0\n",
      "note_on channel=1 note=71 velocity=80 time=13\n",
      "note_on channel=1 note=74 velocity=80 time=0\n",
      "note_on channel=1 note=71 velocity=0 time=227\n",
      "note_on channel=1 note=74 velocity=0 time=0\n",
      "note_on channel=1 note=64 velocity=83 time=13\n",
      "note_on channel=1 note=72 velocity=83 time=0\n",
      "note_on channel=1 note=76 velocity=83 time=0\n",
      "note_on channel=1 note=64 velocity=0 time=227\n",
      "note_on channel=1 note=72 velocity=0 time=0\n",
      "note_on channel=1 note=76 velocity=0 time=0\n",
      "note_on channel=1 note=66 velocity=86 time=13\n",
      "note_on channel=1 note=74 velocity=86 time=0\n",
      "note_on channel=1 note=78 velocity=86 time=0\n",
      "note_on channel=1 note=66 velocity=0 time=227\n",
      "note_on channel=1 note=74 velocity=0 time=0\n",
      "note_on channel=1 note=78 velocity=0 time=0\n",
      "note_on channel=1 note=67 velocity=90 time=13\n",
      "note_on channel=1 note=71 velocity=90 time=0\n",
      "note_on channel=1 note=74 velocity=90 time=0\n",
      "note_on channel=1 note=67 velocity=0 time=113\n",
      "note_on channel=1 note=71 velocity=0 time=0\n",
      "note_on channel=1 note=74 velocity=0 time=0\n",
      "note_on channel=1 note=79 velocity=90 time=7\n",
      "note_on channel=1 note=79 velocity=0 time=113\n",
      "note_on channel=1 note=67 velocity=90 time=7\n",
      "note_on channel=1 note=71 velocity=90 time=0\n",
      "note_on channel=1 note=74 velocity=90 time=0\n",
      "note_on channel=1 note=67 velocity=0 time=113\n",
      "note_on channel=1 note=71 velocity=0 time=0\n",
      "note_on channel=1 note=74 velocity=0 time=0\n",
      "note_on channel=1 note=79 velocity=90 time=7\n",
      "note_on channel=1 note=79 velocity=0 time=113\n",
      "note_on channel=1 note=67 velocity=90 time=7\n",
      "note_on channel=1 note=71 velocity=90 time=0\n",
      "note_on channel=1 note=74 velocity=90 time=0\n",
      "note_on channel=1 note=67 velocity=0 time=113\n",
      "note_on channel=1 note=71 velocity=0 time=0\n",
      "note_on channel=1 note=74 velocity=0 time=0\n",
      "note_on channel=1 note=79 velocity=90 time=7\n",
      "note_on channel=1 note=79 velocity=0 time=113\n",
      "note_on channel=1 note=67 velocity=90 time=7\n",
      "note_on channel=1 note=71 velocity=90 time=0\n",
      "note_on channel=1 note=74 velocity=90 time=0\n",
      "note_on channel=1 note=67 velocity=0 time=113\n",
      "note_on channel=1 note=71 velocity=0 time=0\n",
      "note_on channel=1 note=74 velocity=0 time=0\n",
      "note_on channel=1 note=79 velocity=90 time=7\n",
      "note_on channel=1 note=79 velocity=0 time=113\n",
      "note_on channel=1 note=81 velocity=90 time=7\n",
      "note_on channel=1 note=81 velocity=0 time=38\n",
      "note_on channel=1 note=79 velocity=90 time=1\n",
      "note_on channel=1 note=79 velocity=0 time=38\n",
      "note_on channel=1 note=78 velocity=90 time=2\n",
      "note_on channel=1 note=78 velocity=0 time=38\n",
      "note_on channel=1 note=79 velocity=90 time=3\n",
      "note_on channel=1 note=79 velocity=0 time=113\n",
      "note_on channel=1 note=69 velocity=90 time=7\n",
      "note_on channel=1 note=81 velocity=90 time=0\n",
      "note_on channel=1 note=69 velocity=0 time=227\n",
      "note_on channel=1 note=81 velocity=0 time=0\n",
      "note_on channel=1 note=71 velocity=90 time=13\n",
      "note_on channel=1 note=83 velocity=90 time=0\n",
      "note_on channel=1 note=71 velocity=0 time=227\n",
      "note_on channel=1 note=83 velocity=0 time=0\n",
      "note_on channel=1 note=72 velocity=90 time=13\n",
      "note_on channel=1 note=84 velocity=90 time=0\n",
      "note_on channel=1 note=72 velocity=0 time=227\n",
      "note_on channel=1 note=84 velocity=0 time=0\n",
      "note_on channel=1 note=72 velocity=90 time=13\n",
      "note_on channel=1 note=74 velocity=90 time=0\n",
      "note_on channel=1 note=72 velocity=0 time=112\n",
      "note_on channel=1 note=74 velocity=0 time=0\n",
      "note_on channel=1 note=84 velocity=90 time=8\n",
      "note_on channel=1 note=84 velocity=0 time=112\n",
      "note_on channel=1 note=72 velocity=90 time=8\n",
      "note_on channel=1 note=74 velocity=90 time=0\n",
      "note_on channel=1 note=72 velocity=0 time=112\n",
      "note_on channel=1 note=74 velocity=0 time=0\n",
      "note_on channel=1 note=84 velocity=90 time=8\n",
      "note_on channel=1 note=84 velocity=0 time=112\n",
      "note_on channel=1 note=72 velocity=90 time=8\n",
      "note_on channel=1 note=74 velocity=90 time=0\n",
      "note_on channel=1 note=72 velocity=0 time=112\n",
      "note_on channel=1 note=74 velocity=0 time=0\n",
      "note_on channel=1 note=84 velocity=90 time=8\n",
      "note_on channel=1 note=84 velocity=0 time=112\n",
      "note_on channel=1 note=72 velocity=90 time=8\n",
      "note_on channel=1 note=74 velocity=90 time=0\n",
      "note_on channel=1 note=72 velocity=0 time=112\n",
      "note_on channel=1 note=74 velocity=0 time=0\n",
      "note_on channel=1 note=84 velocity=90 time=8\n",
      "note_on channel=1 note=84 velocity=0 time=112\n",
      "note_on channel=1 note=72 velocity=90 time=8\n",
      "note_on channel=1 note=74 velocity=90 time=0\n",
      "note_on channel=1 note=72 velocity=0 time=113\n",
      "note_on channel=1 note=74 velocity=0 time=0\n",
      "note_on channel=1 note=81 velocity=90 time=7\n",
      "note_on channel=1 note=81 velocity=0 time=113\n",
      "note_on channel=1 note=72 velocity=90 time=7\n",
      "note_on channel=1 note=74 velocity=90 time=0\n",
      "note_on channel=1 note=72 velocity=0 time=113\n",
      "note_on channel=1 note=74 velocity=0 time=0\n",
      "note_on channel=1 note=83 velocity=90 time=7\n",
      "note_on channel=1 note=83 velocity=0 time=113\n",
      "note_on channel=1 note=72 velocity=90 time=7\n",
      "note_on channel=1 note=74 velocity=90 time=0\n",
      "note_on channel=1 note=72 velocity=0 time=113\n",
      "note_on channel=1 note=74 velocity=0 time=0\n",
      "note_on channel=1 note=84 velocity=90 time=7\n",
      "note_on channel=1 note=84 velocity=0 time=113\n",
      "note_on channel=1 note=72 velocity=90 time=7\n",
      "note_on channel=1 note=74 velocity=90 time=0\n",
      "note_on channel=1 note=72 velocity=0 time=113\n",
      "note_on channel=1 note=74 velocity=0 time=0\n",
      "note_on channel=1 note=86 velocity=90 time=7\n",
      "note_on channel=1 note=86 velocity=0 time=113\n",
      "note_on channel=1 note=74 velocity=96 time=7\n",
      "note_on channel=1 note=79 velocity=96 time=0\n",
      "note_on channel=1 note=86 velocity=96 time=0\n",
      "note_on channel=1 note=74 velocity=0 time=227\n",
      "note_on channel=1 note=79 velocity=0 time=0\n",
      "note_on channel=1 note=86 velocity=0 time=0\n",
      "note_on channel=1 note=67 velocity=112 time=3733\n",
      "note_on channel=1 note=79 velocity=112 time=0\n",
      "note_on channel=1 note=67 velocity=0 time=113\n",
      "note_on channel=1 note=79 velocity=0 time=0\n",
      "note_on channel=1 note=69 velocity=112 time=127\n",
      "note_on channel=1 note=79 velocity=112 time=0\n",
      "note_on channel=1 note=81 velocity=112 time=0\n",
      "note_on channel=1 note=69 velocity=0 time=113\n",
      "note_on channel=1 note=79 velocity=0 time=0\n",
      "note_on channel=1 note=81 velocity=0 time=0\n",
      "note_on channel=1 note=70 velocity=112 time=127\n",
      "note_on channel=1 note=79 velocity=112 time=0\n",
      "note_on channel=1 note=82 velocity=112 time=0\n",
      "note_on channel=1 note=70 velocity=0 time=113\n",
      "note_on channel=1 note=79 velocity=0 time=0\n",
      "note_on channel=1 note=82 velocity=0 time=0\n",
      "note_on channel=1 note=71 velocity=112 time=127\n",
      "note_on channel=1 note=79 velocity=112 time=0\n",
      "note_on channel=1 note=83 velocity=112 time=0\n",
      "note_on channel=1 note=71 velocity=0 time=113\n",
      "note_on channel=1 note=79 velocity=0 time=0\n",
      "note_on channel=1 note=83 velocity=0 time=0\n",
      "note_on channel=1 note=72 velocity=112 time=127\n",
      "note_on channel=1 note=79 velocity=112 time=0\n",
      "note_on channel=1 note=84 velocity=112 time=0\n",
      "note_on channel=1 note=72 velocity=0 time=113\n",
      "note_on channel=1 note=79 velocity=0 time=0\n",
      "note_on channel=1 note=84 velocity=0 time=0\n",
      "note_on channel=1 note=73 velocity=112 time=127\n",
      "note_on channel=1 note=79 velocity=112 time=0\n",
      "note_on channel=1 note=85 velocity=112 time=0\n",
      "note_on channel=1 note=73 velocity=0 time=113\n",
      "note_on channel=1 note=79 velocity=0 time=0\n",
      "note_on channel=1 note=85 velocity=0 time=0\n",
      "note_on channel=1 note=74 velocity=112 time=127\n",
      "note_on channel=1 note=79 velocity=112 time=0\n",
      "note_on channel=1 note=86 velocity=112 time=0\n",
      "note_on channel=1 note=74 velocity=0 time=113\n",
      "note_on channel=1 note=79 velocity=0 time=0\n",
      "note_on channel=1 note=86 velocity=0 time=0\n",
      "note_on channel=1 note=75 velocity=112 time=127\n",
      "note_on channel=1 note=79 velocity=112 time=0\n",
      "note_on channel=1 note=87 velocity=112 time=0\n",
      "note_on channel=1 note=75 velocity=0 time=113\n",
      "note_on channel=1 note=79 velocity=0 time=0\n",
      "note_on channel=1 note=87 velocity=0 time=0\n",
      "note_on channel=1 note=76 velocity=112 time=7\n",
      "note_on channel=1 note=79 velocity=112 time=0\n",
      "note_on channel=1 note=88 velocity=112 time=0\n",
      "note_on channel=1 note=76 velocity=0 time=227\n",
      "note_on channel=1 note=79 velocity=0 time=0\n",
      "note_on channel=1 note=88 velocity=0 time=0\n",
      "note_on channel=1 note=78 velocity=112 time=253\n",
      "note_on channel=1 note=90 velocity=112 time=0\n",
      "note_on channel=1 note=78 velocity=0 time=227\n",
      "note_on channel=1 note=90 velocity=0 time=0\n",
      "note_on channel=1 note=79 velocity=112 time=253\n",
      "note_on channel=1 note=91 velocity=112 time=0\n",
      "note_on channel=1 note=79 velocity=0 time=227\n",
      "note_on channel=1 note=91 velocity=0 time=0\n",
      "note_on channel=1 note=61 velocity=112 time=253\n",
      "note_on channel=1 note=67 velocity=112 time=0\n",
      "note_on channel=1 note=73 velocity=112 time=0\n",
      "note_on channel=1 note=61 velocity=0 time=227\n",
      "note_on channel=1 note=67 velocity=0 time=0\n",
      "note_on channel=1 note=73 velocity=0 time=0\n",
      "note_on channel=1 note=62 velocity=126 time=253\n",
      "note_on channel=1 note=74 velocity=126 time=0\n",
      "note_on channel=1 note=62 velocity=0 time=911\n",
      "note_on channel=1 note=74 velocity=0 time=0\n",
      "note_on channel=1 note=60 velocity=90 time=51889\n",
      "note_on channel=1 note=62 velocity=90 time=0\n",
      "note_on channel=1 note=66 velocity=90 time=0\n",
      "note_on channel=1 note=69 velocity=90 time=0\n",
      "note_on channel=1 note=60 velocity=0 time=227\n",
      "note_on channel=1 note=62 velocity=0 time=0\n",
      "note_on channel=1 note=66 velocity=0 time=0\n",
      "note_on channel=1 note=69 velocity=0 time=0\n",
      "note_on channel=1 note=69 velocity=90 time=5533\n",
      "note_on channel=1 note=69 velocity=0 time=227\n",
      "note_on channel=1 note=62 velocity=90 time=733\n",
      "note_on channel=1 note=62 velocity=0 time=227\n",
      "note_on channel=1 note=68 velocity=90 time=1693\n",
      "note_on channel=1 note=77 velocity=90 time=0\n",
      "note_on channel=1 note=59 velocity=40 time=960\n",
      "note_on channel=1 note=59 velocity=0 time=455\n",
      "note_on channel=1 note=68 velocity=0 time=408\n",
      "note_on channel=1 note=77 velocity=0 time=0\n",
      "note_on channel=1 note=64 velocity=33 time=97\n",
      "note_on channel=1 note=69 velocity=33 time=0\n",
      "note_on channel=1 note=72 velocity=33 time=0\n",
      "note_on channel=1 note=76 velocity=33 time=0\n",
      "note_on channel=1 note=64 velocity=0 time=227\n",
      "note_on channel=1 note=69 velocity=0 time=0\n",
      "note_on channel=1 note=72 velocity=0 time=0\n",
      "note_on channel=1 note=76 velocity=0 time=0\n",
      "note_on channel=1 note=64 velocity=33 time=253\n",
      "note_on channel=1 note=72 velocity=33 time=0\n",
      "note_on channel=1 note=76 velocity=33 time=0\n",
      "note_on channel=1 note=64 velocity=0 time=227\n",
      "note_on channel=1 note=72 velocity=0 time=0\n",
      "note_on channel=1 note=76 velocity=0 time=0\n",
      "note_on channel=1 note=62 velocity=33 time=253\n",
      "note_on channel=1 note=62 velocity=0 time=227\n",
      "note_on channel=1 note=62 velocity=33 time=253\n",
      "note_on channel=1 note=67 velocity=33 time=0\n",
      "note_on channel=1 note=71 velocity=33 time=0\n",
      "note_on channel=1 note=62 velocity=0 time=227\n",
      "note_on channel=1 note=67 velocity=0 time=0\n",
      "note_on channel=1 note=71 velocity=0 time=0\n",
      "note_on channel=1 note=62 velocity=33 time=253\n",
      "note_on channel=1 note=62 velocity=0 time=227\n",
      "note_on channel=1 note=62 velocity=33 time=253\n",
      "note_on channel=1 note=69 velocity=33 time=0\n",
      "note_on channel=1 note=72 velocity=33 time=0\n",
      "note_on channel=1 note=62 velocity=0 time=227\n",
      "note_on channel=1 note=69 velocity=0 time=0\n",
      "note_on channel=1 note=72 velocity=0 time=0\n",
      "note_on channel=1 note=77 velocity=70 time=1213\n",
      "note_on channel=1 note=77 velocity=0 time=1823\n",
      "note_on channel=1 note=69 velocity=40 time=97\n",
      "note_on channel=1 note=72 velocity=40 time=0\n",
      "note_on channel=1 note=76 velocity=40 time=0\n",
      "note_on channel=1 note=69 velocity=0 time=227\n",
      "note_on channel=1 note=72 velocity=0 time=0\n",
      "note_on channel=1 note=76 velocity=0 time=0\n",
      "note_on channel=1 note=64 velocity=40 time=253\n",
      "note_on channel=1 note=76 velocity=40 time=0\n",
      "note_on channel=1 note=64 velocity=0 time=227\n",
      "note_on channel=1 note=76 velocity=0 time=0\n",
      "note_on channel=1 note=59 velocity=40 time=733\n",
      "note_on channel=1 note=71 velocity=40 time=0\n",
      "note_on channel=1 note=59 velocity=0 time=227\n",
      "note_on channel=1 note=71 velocity=0 time=0\n",
      "note_on channel=1 note=62 velocity=40 time=733\n",
      "note_on channel=1 note=72 velocity=40 time=0\n",
      "note_on channel=1 note=62 velocity=0 time=0\n",
      "note_on channel=1 note=62 velocity=40 time=0\n",
      "note_on channel=1 note=72 velocity=0 time=227\n",
      "note_on channel=1 note=59 velocity=33 time=253\n",
      "note_on channel=1 note=62 velocity=0 time=431\n",
      "note_on channel=1 note=59 velocity=0 time=24\n",
      "note_on channel=1 note=62 velocity=33 time=25\n",
      "note_on channel=1 note=67 velocity=33 time=0\n",
      "note_on channel=1 note=62 velocity=0 time=227\n",
      "note_on channel=1 note=67 velocity=0 time=0\n",
      "note_on channel=1 note=67 velocity=33 time=13\n",
      "note_on channel=1 note=71 velocity=33 time=0\n",
      "note_on channel=1 note=67 velocity=0 time=227\n",
      "note_on channel=1 note=71 velocity=0 time=0\n",
      "note_on channel=1 note=71 velocity=33 time=13\n",
      "note_on channel=1 note=74 velocity=33 time=0\n",
      "note_on channel=1 note=62 velocity=33 time=0\n",
      "note_on channel=1 note=62 velocity=0 time=455\n",
      "note_on channel=1 note=62 velocity=33 time=25\n",
      "note_on channel=1 note=71 velocity=0 time=431\n",
      "note_on channel=1 note=74 velocity=0 time=0\n",
      "note_on channel=1 note=62 velocity=0 time=24\n",
      "note_on channel=1 note=60 velocity=33 time=25\n",
      "note_on channel=1 note=64 velocity=33 time=0\n",
      "note_on channel=1 note=60 velocity=0 time=455\n",
      "note_on channel=1 note=64 velocity=0 time=0\n",
      "note_on channel=1 note=64 velocity=33 time=25\n",
      "note_on channel=1 note=67 velocity=33 time=0\n",
      "note_on channel=1 note=64 velocity=0 time=227\n",
      "note_on channel=1 note=67 velocity=0 time=0\n",
      "note_on channel=1 note=67 velocity=33 time=13\n",
      "note_on channel=1 note=72 velocity=33 time=0\n",
      "note_on channel=1 note=67 velocity=0 time=227\n",
      "note_on channel=1 note=72 velocity=0 time=0\n",
      "note_on channel=1 note=72 velocity=33 time=13\n",
      "note_on channel=1 note=76 velocity=33 time=0\n",
      "note_on channel=1 note=64 velocity=33 time=0\n",
      "note_on channel=1 note=64 velocity=0 time=455\n",
      "note_on channel=1 note=64 velocity=33 time=25\n",
      "note_on channel=1 note=72 velocity=0 time=431\n",
      "note_on channel=1 note=76 velocity=0 time=0\n",
      "note_on channel=1 note=64 velocity=0 time=24\n",
      "note_on channel=1 note=64 velocity=33 time=25\n",
      "note_on channel=1 note=72 velocity=33 time=0\n",
      "note_on channel=1 note=76 velocity=33 time=0\n",
      "note_on channel=1 note=64 velocity=0 time=455\n",
      "note_on channel=1 note=72 velocity=0 time=0\n",
      "note_on channel=1 note=76 velocity=0 time=0\n",
      "note_on channel=1 note=69 velocity=33 time=25\n",
      "note_on channel=1 note=72 velocity=33 time=0\n",
      "note_on channel=1 note=69 velocity=0 time=455\n",
      "note_on channel=1 note=72 velocity=0 time=0\n",
      "note_on channel=1 note=57 velocity=33 time=25\n",
      "note_on channel=1 note=66 velocity=33 time=0\n",
      "note_on channel=1 note=69 velocity=33 time=0\n",
      "note_on channel=1 note=60 velocity=33 time=480\n",
      "note_on channel=1 note=57 velocity=0 time=0\n",
      "note_on channel=1 note=66 velocity=0 time=76\n",
      "note_on channel=1 note=66 velocity=33 time=0\n",
      "note_on channel=1 note=69 velocity=0 time=355\n",
      "note_on channel=1 note=66 velocity=0 time=47\n",
      "note_on channel=1 note=60 velocity=0 time=1\n",
      "note_on channel=1 note=57 velocity=33 time=1\n",
      "note_on channel=1 note=66 velocity=33 time=0\n",
      "note_on channel=1 note=69 velocity=33 time=0\n",
      "note_on channel=1 note=57 velocity=0 time=455\n",
      "note_on channel=1 note=66 velocity=0 time=0\n",
      "note_on channel=1 note=69 velocity=0 time=0\n",
      "note_on channel=1 note=66 velocity=33 time=25\n",
      "note_on channel=1 note=66 velocity=0 time=73\n",
      "note_on channel=1 note=62 velocity=33 time=1\n",
      "note_on channel=1 note=74 velocity=33 time=0\n",
      "note_on channel=1 note=62 velocity=0 time=383\n",
      "note_on channel=1 note=74 velocity=0 time=0\n",
      "note_on channel=1 note=59 velocity=33 time=23\n",
      "note_on channel=1 note=67 velocity=33 time=0\n",
      "note_on channel=1 note=71 velocity=33 time=0\n",
      "note_on channel=1 note=59 velocity=0 time=455\n",
      "note_on channel=1 note=67 velocity=0 time=0\n",
      "note_on channel=1 note=71 velocity=0 time=0\n",
      "note_on channel=1 note=62 velocity=33 time=25\n",
      "note_on channel=1 note=62 velocity=0 time=73\n",
      "note_on channel=1 note=59 velocity=33 time=1\n",
      "note_on channel=1 note=67 velocity=33 time=0\n",
      "note_on channel=1 note=59 velocity=0 time=383\n",
      "note_on channel=1 note=67 velocity=0 time=0\n",
      "note_on channel=1 note=60 velocity=33 time=23\n",
      "note_on channel=1 note=69 velocity=33 time=0\n",
      "note_on channel=1 note=60 velocity=0 time=455\n",
      "note_on channel=1 note=69 velocity=0 time=0\n",
      "note_on channel=1 note=60 velocity=33 time=25\n",
      "note_on channel=1 note=69 velocity=33 time=0\n",
      "note_on channel=1 note=60 velocity=0 time=73\n",
      "note_on channel=1 note=69 velocity=0 time=0\n",
      "note_on channel=1 note=62 velocity=33 time=1\n",
      "note_on channel=1 note=62 velocity=0 time=383\n",
      "note_on channel=1 note=59 velocity=33 time=23\n",
      "note_on channel=1 note=59 velocity=0 time=455\n",
      "note_on channel=1 note=59 velocity=33 time=25\n",
      "note_on channel=1 note=62 velocity=33 time=0\n",
      "note_on channel=1 note=67 velocity=33 time=0\n",
      "note_on channel=1 note=59 velocity=0 time=455\n",
      "note_on channel=1 note=62 velocity=0 time=0\n",
      "note_on channel=1 note=67 velocity=0 time=0\n",
      "note_on channel=1 note=59 velocity=33 time=25\n",
      "note_on channel=1 note=62 velocity=33 time=0\n",
      "note_on channel=1 note=67 velocity=33 time=0\n",
      "note_on channel=1 note=59 velocity=0 time=480\n",
      "note_on channel=1 note=59 velocity=33 time=0\n",
      "note_on channel=1 note=62 velocity=0 time=0\n",
      "note_on channel=1 note=62 velocity=33 time=0\n",
      "note_on channel=1 note=67 velocity=0 time=431\n",
      "note_on channel=1 note=59 velocity=0 time=24\n",
      "note_on channel=1 note=62 velocity=0 time=0\n",
      "note_on channel=1 note=62 velocity=33 time=25\n",
      "note_on channel=1 note=67 velocity=33 time=0\n",
      "note_on channel=1 note=62 velocity=0 time=227\n",
      "note_on channel=1 note=67 velocity=0 time=0\n",
      "note_on channel=1 note=67 velocity=33 time=13\n",
      "note_on channel=1 note=71 velocity=33 time=0\n",
      "note_on channel=1 note=67 velocity=0 time=227\n",
      "note_on channel=1 note=71 velocity=0 time=0\n",
      "note_on channel=1 note=71 velocity=33 time=13\n",
      "note_on channel=1 note=74 velocity=33 time=0\n",
      "note_on channel=1 note=71 velocity=0 time=455\n",
      "note_on channel=1 note=74 velocity=0 time=0\n",
      "note_on channel=1 note=60 velocity=33 time=25\n",
      "note_on channel=1 note=64 velocity=33 time=0\n",
      "note_on channel=1 note=67 velocity=33 time=0\n",
      "note_on channel=1 note=60 velocity=0 time=480\n",
      "note_on channel=1 note=60 velocity=33 time=0\n",
      "note_on channel=1 note=64 velocity=0 time=0\n",
      "note_on channel=1 note=64 velocity=33 time=0\n",
      "note_on channel=1 note=67 velocity=0 time=431\n",
      "note_on channel=1 note=60 velocity=0 time=24\n",
      "note_on channel=1 note=64 velocity=0 time=0\n",
      "note_on channel=1 note=64 velocity=33 time=25\n",
      "note_on channel=1 note=67 velocity=33 time=0\n",
      "note_on channel=1 note=64 velocity=0 time=227\n",
      "note_on channel=1 note=67 velocity=0 time=0\n",
      "note_on channel=1 note=67 velocity=33 time=13\n",
      "note_on channel=1 note=72 velocity=33 time=0\n",
      "note_on channel=1 note=67 velocity=0 time=227\n",
      "note_on channel=1 note=72 velocity=0 time=0\n",
      "note_on channel=1 note=72 velocity=33 time=13\n",
      "note_on channel=1 note=76 velocity=33 time=0\n",
      "note_on channel=1 note=72 velocity=0 time=455\n",
      "note_on channel=1 note=76 velocity=0 time=0\n",
      "note_on channel=1 note=64 velocity=33 time=505\n",
      "note_on channel=1 note=76 velocity=33 time=0\n",
      "note_on channel=1 note=66 velocity=33 time=0\n",
      "note_on channel=1 note=64 velocity=0 time=455\n",
      "note_on channel=1 note=76 velocity=0 time=0\n",
      "note_on channel=1 note=69 velocity=33 time=25\n",
      "note_on channel=1 note=72 velocity=33 time=0\n",
      "note_on channel=1 note=60 velocity=33 time=0\n",
      "note_on channel=1 note=66 velocity=0 time=431\n",
      "note_on channel=1 note=69 velocity=0 time=24\n",
      "note_on channel=1 note=72 velocity=0 time=0\n",
      "note_on channel=1 note=66 velocity=33 time=25\n",
      "note_on channel=1 note=69 velocity=33 time=0\n",
      "note_on channel=1 note=69 velocity=0 time=455\n",
      "note_on channel=1 note=66 velocity=0 time=505\n",
      "note_on channel=1 note=66 velocity=33 time=0\n",
      "note_on channel=1 note=69 velocity=33 time=0\n",
      "note_on channel=1 note=60 velocity=0 time=383\n",
      "note_on channel=1 note=66 velocity=0 time=72\n",
      "note_on channel=1 note=69 velocity=0 time=0\n",
      "note_on channel=1 note=62 velocity=33 time=25\n",
      "note_on channel=1 note=74 velocity=33 time=0\n",
      "note_on channel=1 note=67 velocity=33 time=0\n",
      "note_on channel=1 note=62 velocity=0 time=455\n",
      "note_on channel=1 note=74 velocity=0 time=0\n",
      "note_on channel=1 note=67 velocity=0 time=25\n",
      "note_on channel=1 note=67 velocity=33 time=0\n",
      "note_on channel=1 note=71 velocity=33 time=0\n",
      "note_on channel=1 note=67 velocity=0 time=455\n",
      "note_on channel=1 note=71 velocity=0 time=0\n",
      "note_on channel=1 note=60 velocity=33 time=25\n",
      "note_on channel=1 note=62 velocity=33 time=0\n",
      "note_on channel=1 note=69 velocity=33 time=0\n",
      "note_on channel=1 note=60 velocity=0 time=480\n",
      "note_on channel=1 note=60 velocity=33 time=0\n",
      "note_on channel=1 note=69 velocity=0 time=0\n",
      "note_on channel=1 note=69 velocity=33 time=0\n",
      "note_on channel=1 note=62 velocity=0 time=431\n",
      "note_on channel=1 note=60 velocity=0 time=24\n",
      "note_on channel=1 note=69 velocity=0 time=0\n",
      "note_on channel=1 note=62 velocity=33 time=25\n",
      "note_on channel=1 note=59 velocity=33 time=0\n",
      "note_on channel=1 note=67 velocity=33 time=0\n",
      "note_on channel=1 note=62 velocity=0 time=455\n",
      "note_on channel=1 note=59 velocity=0 time=25\n",
      "note_on channel=1 note=59 velocity=33 time=0\n",
      "note_on channel=1 note=67 velocity=0 time=431\n",
      "note_on channel=1 note=59 velocity=0 time=24\n",
      "note_on channel=1 note=60 velocity=33 time=25\n",
      "note_on channel=1 note=62 velocity=33 time=0\n",
      "note_on channel=1 note=69 velocity=33 time=0\n",
      "note_on channel=1 note=60 velocity=0 time=480\n",
      "note_on channel=1 note=60 velocity=33 time=0\n",
      "note_on channel=1 note=69 velocity=0 time=0\n",
      "note_on channel=1 note=69 velocity=33 time=0\n",
      "note_on channel=1 note=62 velocity=0 time=431\n",
      "note_on channel=1 note=60 velocity=0 time=24\n",
      "note_on channel=1 note=69 velocity=0 time=0\n",
      "note_on channel=1 note=62 velocity=33 time=25\n",
      "note_on channel=1 note=59 velocity=33 time=0\n",
      "note_on channel=1 note=67 velocity=33 time=0\n",
      "note_on channel=1 note=62 velocity=0 time=455\n",
      "note_on channel=1 note=59 velocity=0 time=25\n",
      "note_on channel=1 note=59 velocity=33 time=0\n",
      "note_on channel=1 note=67 velocity=0 time=431\n",
      "note_on channel=1 note=59 velocity=0 time=24\n",
      "note_on channel=1 note=60 velocity=40 time=25\n",
      "note_on channel=1 note=62 velocity=40 time=0\n",
      "note_on channel=1 note=69 velocity=40 time=0\n",
      "note_on channel=1 note=60 velocity=0 time=480\n",
      "note_on channel=1 note=60 velocity=39 time=0\n",
      "note_on channel=1 note=69 velocity=0 time=0\n",
      "note_on channel=1 note=69 velocity=39 time=0\n",
      "note_on channel=1 note=62 velocity=0 time=431\n",
      "note_on channel=1 note=69 velocity=0 time=24\n",
      "note_on channel=1 note=62 velocity=37 time=25\n",
      "note_on channel=1 note=62 velocity=0 time=455\n",
      "note_on channel=1 note=69 velocity=35 time=25\n",
      "note_on channel=1 note=69 velocity=0 time=455\n",
      "note_on channel=1 note=62 velocity=33 time=25\n",
      "note_on channel=1 note=62 velocity=0 time=455\n",
      "note_on channel=1 note=69 velocity=31 time=25\n",
      "note_on channel=1 note=69 velocity=0 time=455\n",
      "note_on channel=1 note=62 velocity=29 time=25\n",
      "note_on channel=1 note=62 velocity=0 time=455\n",
      "note_on channel=1 note=69 velocity=27 time=25\n",
      "note_on channel=1 note=60 velocity=0 time=311\n",
      "note_on channel=1 note=69 velocity=0 time=144\n",
      "note_on channel=1 note=67 velocity=25 time=25\n",
      "note_on channel=1 note=59 velocity=25 time=0\n",
      "note_on channel=1 note=62 velocity=25 time=0\n",
      "note_on channel=1 note=71 velocity=25 time=0\n",
      "note_on channel=1 note=67 velocity=0 time=455\n",
      "note_on channel=1 note=59 velocity=0 time=0\n",
      "note_on channel=1 note=62 velocity=0 time=0\n",
      "note_on channel=1 note=71 velocity=0 time=0\n",
      "note_on channel=1 note=69 velocity=25 time=1465\n",
      "note_on channel=1 note=69 velocity=0 time=455\n",
      "note_on channel=1 note=62 velocity=25 time=505\n",
      "note_on channel=1 note=62 velocity=0 time=455\n",
      "note_on channel=1 note=67 velocity=25 time=505\n",
      "note_on channel=1 note=67 velocity=0 time=455\n",
      "note_on channel=1 note=81 velocity=33 time=3385\n",
      "note_on channel=1 note=81 velocity=0 time=227\n",
      "note_on channel=1 note=74 velocity=33 time=13\n",
      "note_on channel=1 note=74 velocity=0 time=227\n",
      "note_on channel=1 note=69 velocity=33 time=13\n",
      "note_on channel=1 note=69 velocity=0 time=227\n",
      "note_on channel=1 note=62 velocity=33 time=13\n",
      "note_on channel=1 note=62 velocity=0 time=227\n",
      "note_on channel=1 note=81 velocity=33 time=973\n",
      "note_on channel=1 note=81 velocity=0 time=227\n",
      "note_on channel=1 note=74 velocity=33 time=13\n",
      "note_on channel=1 note=74 velocity=0 time=227\n",
      "note_on channel=1 note=81 velocity=33 time=13\n",
      "note_on channel=1 note=81 velocity=0 time=227\n",
      "note_on channel=1 note=74 velocity=33 time=13\n",
      "note_on channel=1 note=74 velocity=0 time=227\n",
      "note_on channel=1 note=81 velocity=33 time=13\n",
      "note_on channel=1 note=81 velocity=0 time=227\n",
      "note_on channel=1 note=74 velocity=33 time=13\n",
      "note_on channel=1 note=74 velocity=0 time=227\n",
      "note_on channel=1 note=81 velocity=33 time=13\n",
      "note_on channel=1 note=81 velocity=0 time=227\n",
      "note_on channel=1 note=74 velocity=33 time=13\n",
      "note_on channel=1 note=74 velocity=0 time=227\n",
      "note_on channel=1 note=84 velocity=33 time=13\n",
      "note_on channel=1 note=81 velocity=33 time=0\n",
      "note_on channel=1 note=84 velocity=0 time=227\n",
      "note_on channel=1 note=81 velocity=0 time=0\n",
      "note_on channel=1 note=81 velocity=33 time=13\n",
      "note_on channel=1 note=74 velocity=33 time=0\n",
      "note_on channel=1 note=81 velocity=0 time=227\n",
      "note_on channel=1 note=74 velocity=0 time=0\n",
      "note_on channel=1 note=84 velocity=33 time=13\n",
      "note_on channel=1 note=81 velocity=33 time=0\n",
      "note_on channel=1 note=84 velocity=0 time=227\n",
      "note_on channel=1 note=81 velocity=0 time=0\n",
      "note_on channel=1 note=81 velocity=33 time=13\n",
      "note_on channel=1 note=74 velocity=33 time=0\n",
      "note_on channel=1 note=81 velocity=0 time=227\n",
      "note_on channel=1 note=74 velocity=0 time=0\n",
      "note_on channel=1 note=84 velocity=33 time=13\n",
      "note_on channel=1 note=81 velocity=33 time=0\n",
      "note_on channel=1 note=84 velocity=0 time=227\n",
      "note_on channel=1 note=81 velocity=0 time=0\n",
      "note_on channel=1 note=81 velocity=33 time=13\n",
      "note_on channel=1 note=74 velocity=33 time=0\n",
      "note_on channel=1 note=81 velocity=0 time=227\n",
      "note_on channel=1 note=74 velocity=0 time=0\n",
      "note_on channel=1 note=84 velocity=33 time=13\n",
      "note_on channel=1 note=81 velocity=33 time=0\n",
      "note_on channel=1 note=84 velocity=0 time=227\n",
      "note_on channel=1 note=81 velocity=0 time=0\n",
      "note_on channel=1 note=81 velocity=33 time=13\n",
      "note_on channel=1 note=74 velocity=33 time=0\n",
      "note_on channel=1 note=81 velocity=0 time=227\n",
      "note_on channel=1 note=74 velocity=0 time=0\n",
      "note_on channel=1 note=78 velocity=33 time=13\n",
      "note_on channel=1 note=78 velocity=0 time=112\n",
      "note_on channel=1 note=84 velocity=33 time=8\n",
      "note_on channel=1 note=84 velocity=0 time=112\n",
      "note_on channel=1 note=78 velocity=33 time=8\n",
      "note_on channel=1 note=78 velocity=0 time=112\n",
      "note_on channel=1 note=84 velocity=33 time=8\n",
      "note_on channel=1 note=84 velocity=0 time=112\n",
      "note_on channel=1 note=78 velocity=33 time=8\n",
      "note_on channel=1 note=78 velocity=0 time=112\n",
      "note_on channel=1 note=84 velocity=33 time=8\n",
      "note_on channel=1 note=84 velocity=0 time=112\n",
      "note_on channel=1 note=78 velocity=33 time=8\n",
      "note_on channel=1 note=78 velocity=0 time=112\n",
      "note_on channel=1 note=84 velocity=33 time=8\n",
      "note_on channel=1 note=84 velocity=0 time=112\n",
      "note_on channel=1 note=78 velocity=33 time=8\n",
      "note_on channel=1 note=78 velocity=0 time=112\n",
      "note_on channel=1 note=84 velocity=33 time=8\n",
      "note_on channel=1 note=84 velocity=0 time=112\n",
      "note_on channel=1 note=78 velocity=33 time=8\n",
      "note_on channel=1 note=78 velocity=0 time=112\n",
      "note_on channel=1 note=84 velocity=33 time=8\n",
      "note_on channel=1 note=84 velocity=0 time=112\n",
      "note_on channel=1 note=78 velocity=33 time=8\n",
      "note_on channel=1 note=78 velocity=0 time=112\n",
      "note_on channel=1 note=84 velocity=33 time=8\n",
      "note_on channel=1 note=84 velocity=0 time=112\n",
      "note_on channel=1 note=78 velocity=33 time=8\n",
      "note_on channel=1 note=78 velocity=0 time=112\n",
      "note_on channel=1 note=84 velocity=33 time=8\n",
      "note_on channel=1 note=84 velocity=0 time=112\n",
      "note_on channel=1 note=72 velocity=33 time=8\n",
      "note_on channel=1 note=78 velocity=33 time=0\n",
      "note_on channel=1 note=81 velocity=33 time=0\n",
      "note_on channel=1 note=72 velocity=0 time=113\n",
      "note_on channel=1 note=78 velocity=0 time=0\n",
      "note_on channel=1 note=81 velocity=0 time=0\n",
      "note_on channel=1 note=84 velocity=36 time=7\n",
      "note_on channel=1 note=84 velocity=0 time=113\n",
      "note_on channel=1 note=72 velocity=40 time=7\n",
      "note_on channel=1 note=78 velocity=40 time=0\n",
      "note_on channel=1 note=81 velocity=40 time=0\n",
      "note_on channel=1 note=72 velocity=0 time=113\n",
      "note_on channel=1 note=78 velocity=0 time=0\n",
      "note_on channel=1 note=81 velocity=0 time=0\n",
      "note_on channel=1 note=84 velocity=44 time=7\n",
      "note_on channel=1 note=84 velocity=0 time=113\n",
      "note_on channel=1 note=72 velocity=48 time=7\n",
      "note_on channel=1 note=78 velocity=48 time=0\n",
      "note_on channel=1 note=81 velocity=48 time=0\n",
      "note_on channel=1 note=72 velocity=0 time=113\n",
      "note_on channel=1 note=78 velocity=0 time=0\n",
      "note_on channel=1 note=81 velocity=0 time=0\n",
      "note_on channel=1 note=84 velocity=52 time=7\n",
      "note_on channel=1 note=84 velocity=0 time=113\n",
      "note_on channel=1 note=72 velocity=56 time=7\n",
      "note_on channel=1 note=78 velocity=56 time=0\n",
      "note_on channel=1 note=81 velocity=56 time=0\n",
      "note_on channel=1 note=72 velocity=0 time=113\n",
      "note_on channel=1 note=78 velocity=0 time=0\n",
      "note_on channel=1 note=81 velocity=0 time=0\n",
      "note_on channel=1 note=84 velocity=60 time=7\n",
      "note_on channel=1 note=84 velocity=0 time=113\n",
      "note_on channel=1 note=72 velocity=64 time=7\n",
      "note_on channel=1 note=78 velocity=64 time=0\n",
      "note_on channel=1 note=81 velocity=64 time=0\n",
      "note_on channel=1 note=72 velocity=0 time=113\n",
      "note_on channel=1 note=78 velocity=0 time=0\n",
      "note_on channel=1 note=81 velocity=0 time=0\n",
      "note_on channel=1 note=84 velocity=68 time=7\n",
      "note_on channel=1 note=84 velocity=0 time=113\n",
      "note_on channel=1 note=72 velocity=72 time=7\n",
      "note_on channel=1 note=78 velocity=72 time=0\n",
      "note_on channel=1 note=81 velocity=72 time=0\n",
      "note_on channel=1 note=72 velocity=0 time=113\n",
      "note_on channel=1 note=78 velocity=0 time=0\n",
      "note_on channel=1 note=81 velocity=0 time=0\n",
      "note_on channel=1 note=84 velocity=76 time=7\n",
      "note_on channel=1 note=84 velocity=0 time=113\n",
      "note_on channel=1 note=72 velocity=80 time=7\n",
      "note_on channel=1 note=78 velocity=80 time=0\n",
      "note_on channel=1 note=81 velocity=80 time=0\n",
      "note_on channel=1 note=72 velocity=0 time=227\n",
      "note_on channel=1 note=78 velocity=0 time=0\n",
      "note_on channel=1 note=81 velocity=0 time=0\n",
      "note_on channel=1 note=72 velocity=88 time=13\n",
      "note_on channel=1 note=78 velocity=88 time=0\n",
      "note_on channel=1 note=81 velocity=88 time=0\n",
      "note_on channel=1 note=84 velocity=88 time=0\n",
      "note_on channel=1 note=72 velocity=0 time=227\n",
      "note_on channel=1 note=78 velocity=0 time=0\n",
      "note_on channel=1 note=81 velocity=0 time=0\n",
      "note_on channel=1 note=84 velocity=0 time=0\n",
      "note_on channel=1 note=71 velocity=96 time=13\n",
      "note_on channel=1 note=77 velocity=96 time=0\n",
      "note_on channel=1 note=79 velocity=96 time=0\n",
      "note_on channel=1 note=83 velocity=96 time=0\n",
      "note_on channel=1 note=71 velocity=0 time=455\n",
      "note_on channel=1 note=77 velocity=0 time=0\n",
      "note_on channel=1 note=79 velocity=0 time=0\n",
      "note_on channel=1 note=83 velocity=0 time=0\n",
      "note_on channel=1 note=77 velocity=96 time=25\n",
      "note_on channel=1 note=79 velocity=96 time=0\n",
      "note_on channel=1 note=83 velocity=96 time=0\n",
      "note_on channel=1 note=86 velocity=96 time=0\n",
      "note_on channel=1 note=89 velocity=96 time=0\n",
      "note_on channel=1 note=77 velocity=0 time=455\n",
      "note_on channel=1 note=79 velocity=0 time=0\n",
      "note_on channel=1 note=83 velocity=0 time=0\n",
      "note_on channel=1 note=86 velocity=0 time=0\n",
      "note_on channel=1 note=89 velocity=0 time=0\n",
      "note_on channel=1 note=77 velocity=96 time=505\n",
      "note_on channel=1 note=79 velocity=96 time=0\n",
      "note_on channel=1 note=83 velocity=96 time=0\n",
      "note_on channel=1 note=86 velocity=96 time=0\n",
      "note_on channel=1 note=89 velocity=96 time=0\n",
      "note_on channel=1 note=77 velocity=0 time=455\n",
      "note_on channel=1 note=79 velocity=0 time=0\n",
      "note_on channel=1 note=83 velocity=0 time=0\n",
      "note_on channel=1 note=86 velocity=0 time=0\n",
      "note_on channel=1 note=89 velocity=0 time=0\n",
      "note_on channel=1 note=77 velocity=96 time=505\n",
      "note_on channel=1 note=79 velocity=96 time=0\n",
      "note_on channel=1 note=83 velocity=96 time=0\n",
      "note_on channel=1 note=86 velocity=96 time=0\n",
      "note_on channel=1 note=89 velocity=96 time=0\n",
      "note_on channel=1 note=77 velocity=0 time=455\n",
      "note_on channel=1 note=79 velocity=0 time=0\n",
      "note_on channel=1 note=83 velocity=0 time=0\n",
      "note_on channel=1 note=86 velocity=0 time=0\n",
      "note_on channel=1 note=89 velocity=0 time=0\n",
      "note_on channel=1 note=77 velocity=96 time=505\n",
      "note_on channel=1 note=79 velocity=96 time=0\n",
      "note_on channel=1 note=83 velocity=96 time=0\n",
      "note_on channel=1 note=86 velocity=96 time=0\n",
      "note_on channel=1 note=89 velocity=96 time=0\n",
      "note_on channel=1 note=77 velocity=0 time=455\n",
      "note_on channel=1 note=79 velocity=0 time=0\n",
      "note_on channel=1 note=83 velocity=0 time=0\n",
      "note_on channel=1 note=86 velocity=0 time=0\n",
      "note_on channel=1 note=89 velocity=0 time=0\n",
      "note_on channel=1 note=76 velocity=106 time=25\n",
      "note_on channel=1 note=84 velocity=106 time=0\n",
      "note_on channel=1 note=88 velocity=106 time=0\n",
      "note_on channel=1 note=76 velocity=0 time=455\n",
      "note_on channel=1 note=84 velocity=0 time=0\n",
      "note_on channel=1 note=88 velocity=0 time=0\n",
      "note_on channel=1 note=72 velocity=106 time=265\n",
      "note_on channel=1 note=76 velocity=106 time=0\n",
      "note_on channel=1 note=72 velocity=0 time=113\n",
      "note_on channel=1 note=76 velocity=0 time=0\n",
      "note_on channel=1 note=64 velocity=106 time=7\n",
      "note_on channel=1 note=64 velocity=0 time=113\n",
      "note_on channel=1 note=72 velocity=106 time=7\n",
      "note_on channel=1 note=76 velocity=106 time=0\n",
      "note_on channel=1 note=72 velocity=0 time=455\n",
      "note_on channel=1 note=76 velocity=0 time=0\n",
      "note_on channel=1 note=72 velocity=106 time=265\n",
      "note_on channel=1 note=76 velocity=106 time=0\n",
      "note_on channel=1 note=72 velocity=0 time=113\n",
      "note_on channel=1 note=76 velocity=0 time=0\n",
      "note_on channel=1 note=64 velocity=106 time=7\n",
      "note_on channel=1 note=64 velocity=0 time=113\n",
      "note_on channel=1 note=72 velocity=106 time=7\n",
      "note_on channel=1 note=76 velocity=106 time=0\n",
      "note_on channel=1 note=72 velocity=0 time=455\n",
      "note_on channel=1 note=76 velocity=0 time=0\n",
      "note_on channel=1 note=76 velocity=106 time=25\n",
      "note_on channel=1 note=79 velocity=106 time=0\n",
      "note_on channel=1 note=76 velocity=0 time=227\n",
      "note_on channel=1 note=79 velocity=0 time=0\n",
      "note_on channel=1 note=79 velocity=106 time=13\n",
      "note_on channel=1 note=84 velocity=106 time=0\n",
      "note_on channel=1 note=79 velocity=0 time=227\n",
      "note_on channel=1 note=84 velocity=0 time=0\n",
      "note_on channel=1 note=76 velocity=106 time=13\n",
      "note_on channel=1 note=84 velocity=106 time=0\n",
      "note_on channel=1 note=88 velocity=106 time=0\n",
      "note_on channel=1 note=76 velocity=0 time=227\n",
      "note_on channel=1 note=84 velocity=0 time=0\n",
      "note_on channel=1 note=88 velocity=0 time=0\n",
      "note_on channel=1 note=76 velocity=106 time=733\n",
      "note_on channel=1 note=84 velocity=106 time=0\n",
      "note_on channel=1 note=88 velocity=106 time=0\n",
      "note_on channel=1 note=76 velocity=0 time=227\n",
      "note_on channel=1 note=84 velocity=0 time=0\n",
      "note_on channel=1 note=88 velocity=0 time=0\n",
      "note_on channel=1 note=72 velocity=106 time=253\n",
      "note_on channel=1 note=81 velocity=106 time=0\n",
      "note_on channel=1 note=84 velocity=106 time=0\n",
      "note_on channel=1 note=72 velocity=0 time=227\n",
      "note_on channel=1 note=81 velocity=0 time=0\n",
      "note_on channel=1 note=84 velocity=0 time=0\n",
      "note_on channel=1 note=69 velocity=106 time=253\n",
      "note_on channel=1 note=74 velocity=106 time=0\n",
      "note_on channel=1 note=78 velocity=106 time=0\n",
      "note_on channel=1 note=81 velocity=106 time=0\n",
      "note_on channel=1 note=69 velocity=0 time=227\n",
      "note_on channel=1 note=74 velocity=0 time=0\n",
      "note_on channel=1 note=78 velocity=0 time=0\n",
      "note_on channel=1 note=81 velocity=0 time=0\n",
      "note_on channel=1 note=69 velocity=106 time=733\n",
      "note_on channel=1 note=74 velocity=106 time=0\n",
      "note_on channel=1 note=78 velocity=106 time=0\n",
      "note_on channel=1 note=81 velocity=106 time=0\n",
      "note_on channel=1 note=69 velocity=0 time=227\n",
      "note_on channel=1 note=74 velocity=0 time=0\n",
      "note_on channel=1 note=78 velocity=0 time=0\n",
      "note_on channel=1 note=81 velocity=0 time=0\n",
      "note_on channel=1 note=74 velocity=106 time=253\n",
      "note_on channel=1 note=81 velocity=106 time=0\n",
      "note_on channel=1 note=86 velocity=106 time=0\n",
      "note_on channel=1 note=74 velocity=0 time=227\n",
      "note_on channel=1 note=81 velocity=0 time=0\n",
      "note_on channel=1 note=86 velocity=0 time=0\n",
      "note_on channel=1 note=71 velocity=106 time=253\n",
      "note_on channel=1 note=74 velocity=106 time=0\n",
      "note_on channel=1 note=83 velocity=106 time=0\n",
      "note_on channel=1 note=71 velocity=0 time=227\n",
      "note_on channel=1 note=74 velocity=0 time=0\n",
      "note_on channel=1 note=83 velocity=0 time=0\n",
      "note_on channel=1 note=67 velocity=106 time=253\n",
      "note_on channel=1 note=71 velocity=106 time=0\n",
      "note_on channel=1 note=79 velocity=106 time=0\n",
      "note_on channel=1 note=67 velocity=0 time=227\n",
      "note_on channel=1 note=71 velocity=0 time=0\n",
      "note_on channel=1 note=79 velocity=0 time=0\n",
      "note_on channel=1 note=69 velocity=106 time=253\n",
      "note_on channel=1 note=81 velocity=106 time=0\n",
      "note_on channel=1 note=69 velocity=0 time=227\n",
      "note_on channel=1 note=81 velocity=0 time=0\n",
      "note_on channel=1 note=62 velocity=106 time=253\n",
      "note_on channel=1 note=69 velocity=106 time=0\n",
      "note_on channel=1 note=74 velocity=106 time=0\n",
      "note_on channel=1 note=62 velocity=0 time=227\n",
      "note_on channel=1 note=69 velocity=0 time=0\n",
      "note_on channel=1 note=74 velocity=0 time=0\n",
      "note_on channel=1 note=62 velocity=106 time=253\n",
      "note_on channel=1 note=67 velocity=106 time=0\n",
      "note_on channel=1 note=71 velocity=106 time=0\n",
      "note_on channel=1 note=62 velocity=0 time=227\n",
      "note_on channel=1 note=67 velocity=0 time=0\n",
      "note_on channel=1 note=71 velocity=0 time=0\n",
      "note_on channel=1 note=71 velocity=49 time=253\n",
      "note_on channel=1 note=79 velocity=49 time=0\n",
      "note_on channel=1 note=71 velocity=0 time=227\n",
      "note_on channel=1 note=79 velocity=0 time=0\n",
      "note_on channel=1 note=69 velocity=49 time=253\n",
      "note_on channel=1 note=81 velocity=49 time=0\n",
      "note_on channel=1 note=69 velocity=0 time=227\n",
      "note_on channel=1 note=81 velocity=0 time=0\n",
      "note_on channel=1 note=69 velocity=49 time=253\n",
      "note_on channel=1 note=74 velocity=49 time=0\n",
      "note_on channel=1 note=69 velocity=0 time=227\n",
      "note_on channel=1 note=74 velocity=0 time=0\n",
      "note_on channel=1 note=67 velocity=49 time=253\n",
      "note_on channel=1 note=71 velocity=49 time=0\n",
      "note_on channel=1 note=67 velocity=0 time=227\n",
      "note_on channel=1 note=71 velocity=0 time=0\n",
      "note_on channel=1 note=60 velocity=49 time=733\n",
      "note_on channel=1 note=64 velocity=49 time=0\n",
      "note_on channel=1 note=69 velocity=49 time=0\n",
      "note_on channel=1 note=60 velocity=0 time=455\n",
      "note_on channel=1 note=64 velocity=0 time=0\n",
      "note_on channel=1 note=69 velocity=0 time=0\n",
      "note_on channel=1 note=57 velocity=49 time=505\n",
      "note_on channel=1 note=60 velocity=49 time=0\n",
      "note_on channel=1 note=66 velocity=49 time=0\n",
      "note_on channel=1 note=57 velocity=0 time=455\n",
      "note_on channel=1 note=60 velocity=0 time=0\n",
      "note_on channel=1 note=66 velocity=0 time=0\n",
      "note_on channel=1 note=59 velocity=49 time=505\n",
      "note_on channel=1 note=67 velocity=49 time=0\n",
      "note_on channel=1 note=59 velocity=0 time=455\n",
      "note_on channel=1 note=67 velocity=0 time=0\n",
      "note_on channel=1 note=62 velocity=49 time=505\n",
      "note_on channel=1 note=66 velocity=49 time=0\n",
      "note_on channel=1 note=69 velocity=49 time=0\n",
      "note_on channel=1 note=62 velocity=0 time=455\n",
      "note_on channel=1 note=66 velocity=0 time=0\n",
      "note_on channel=1 note=69 velocity=0 time=0\n",
      "note_on channel=1 note=62 velocity=49 time=505\n",
      "note_on channel=1 note=67 velocity=49 time=0\n",
      "note_on channel=1 note=71 velocity=49 time=0\n",
      "note_on channel=1 note=62 velocity=0 time=455\n",
      "note_on channel=1 note=67 velocity=0 time=0\n",
      "note_on channel=1 note=71 velocity=0 time=0\n",
      "note_on channel=1 note=62 velocity=49 time=505\n",
      "note_on channel=1 note=66 velocity=49 time=0\n",
      "note_on channel=1 note=69 velocity=49 time=0\n",
      "note_on channel=1 note=62 velocity=0 time=455\n",
      "note_on channel=1 note=66 velocity=0 time=0\n",
      "note_on channel=1 note=69 velocity=0 time=0\n",
      "note_on channel=1 note=59 velocity=49 time=505\n",
      "note_on channel=1 note=67 velocity=49 time=0\n",
      "note_on channel=1 note=62 velocity=49 time=0\n",
      "note_on channel=1 note=62 velocity=0 time=455\n",
      "note_on channel=1 note=59 velocity=0 time=456\n",
      "note_on channel=1 note=67 velocity=0 time=0\n",
      "note_on channel=1 note=62 velocity=49 time=49\n",
      "note_on channel=1 note=69 velocity=49 time=0\n",
      "note_on channel=1 note=66 velocity=49 time=0\n",
      "note_on channel=1 note=66 velocity=0 time=455\n",
      "note_on channel=1 note=62 velocity=0 time=456\n",
      "note_on channel=1 note=69 velocity=0 time=0\n",
      "note_on channel=1 note=67 velocity=49 time=49\n",
      "note_on channel=1 note=71 velocity=49 time=0\n",
      "note_on channel=1 note=62 velocity=49 time=0\n",
      "note_on channel=1 note=62 velocity=0 time=455\n",
      "note_on channel=1 note=67 velocity=0 time=456\n",
      "note_on channel=1 note=71 velocity=0 time=0\n",
      "note_on channel=1 note=62 velocity=49 time=49\n",
      "note_on channel=1 note=69 velocity=49 time=0\n",
      "note_on channel=1 note=66 velocity=49 time=0\n",
      "note_on channel=1 note=66 velocity=0 time=455\n",
      "note_on channel=1 note=62 velocity=0 time=456\n",
      "note_on channel=1 note=69 velocity=0 time=0\n",
      "note_on channel=1 note=67 velocity=49 time=49\n",
      "note_on channel=1 note=74 velocity=49 time=0\n",
      "note_on channel=1 note=79 velocity=49 time=0\n",
      "note_on channel=1 note=67 velocity=0 time=911\n",
      "note_on channel=1 note=74 velocity=0 time=0\n",
      "note_on channel=1 note=79 velocity=0 time=0\n",
      "note_on channel=1 note=69 velocity=60 time=49\n",
      "note_on channel=1 note=78 velocity=60 time=0\n",
      "note_on channel=1 note=81 velocity=60 time=0\n",
      "note_on channel=1 note=69 velocity=0 time=911\n",
      "note_on channel=1 note=78 velocity=0 time=0\n",
      "note_on channel=1 note=81 velocity=0 time=0\n",
      "note_on channel=1 note=71 velocity=72 time=49\n",
      "note_on channel=1 note=79 velocity=72 time=0\n",
      "note_on channel=1 note=83 velocity=72 time=0\n",
      "note_on channel=1 note=71 velocity=0 time=911\n",
      "note_on channel=1 note=79 velocity=0 time=0\n",
      "note_on channel=1 note=83 velocity=0 time=0\n",
      "note_on channel=1 note=72 velocity=84 time=49\n",
      "note_on channel=1 note=78 velocity=84 time=0\n",
      "note_on channel=1 note=72 velocity=0 time=227\n",
      "note_on channel=1 note=78 velocity=0 time=0\n",
      "note_on channel=1 note=78 velocity=87 time=13\n",
      "note_on channel=1 note=84 velocity=87 time=0\n",
      "note_on channel=1 note=78 velocity=0 time=683\n",
      "note_on channel=1 note=84 velocity=0 time=0\n",
      "note_on channel=1 note=71 velocity=96 time=37\n",
      "note_on channel=1 note=79 velocity=96 time=0\n",
      "note_on channel=1 note=83 velocity=96 time=0\n",
      "note_on channel=1 note=71 velocity=0 time=455\n",
      "note_on channel=1 note=79 velocity=0 time=0\n",
      "note_on channel=1 note=83 velocity=0 time=0\n",
      "note_on channel=1 note=83 velocity=96 time=265\n",
      "note_on channel=1 note=91 velocity=96 time=0\n",
      "note_on channel=1 note=83 velocity=0 time=113\n",
      "note_on channel=1 note=91 velocity=0 time=0\n",
      "note_on channel=1 note=79 velocity=96 time=7\n",
      "note_on channel=1 note=79 velocity=0 time=113\n",
      "note_on channel=1 note=83 velocity=96 time=7\n",
      "note_on channel=1 note=91 velocity=96 time=0\n",
      "note_on channel=1 note=83 velocity=0 time=455\n",
      "note_on channel=1 note=91 velocity=0 time=0\n",
      "note_on channel=1 note=71 velocity=96 time=265\n",
      "note_on channel=1 note=74 velocity=96 time=0\n",
      "note_on channel=1 note=79 velocity=96 time=0\n",
      "note_on channel=1 note=71 velocity=0 time=113\n",
      "note_on channel=1 note=74 velocity=0 time=0\n",
      "note_on channel=1 note=79 velocity=0 time=0\n",
      "note_on channel=1 note=67 velocity=96 time=7\n",
      "note_on channel=1 note=67 velocity=0 time=113\n",
      "note_on channel=1 note=71 velocity=96 time=7\n",
      "note_on channel=1 note=74 velocity=96 time=0\n",
      "note_on channel=1 note=79 velocity=96 time=0\n",
      "note_on channel=1 note=71 velocity=0 time=455\n",
      "note_on channel=1 note=74 velocity=0 time=0\n",
      "note_on channel=1 note=79 velocity=0 time=0\n",
      "note_on channel=1 note=83 velocity=96 time=265\n",
      "note_on channel=1 note=91 velocity=96 time=0\n",
      "note_on channel=1 note=83 velocity=0 time=113\n",
      "note_on channel=1 note=91 velocity=0 time=0\n",
      "note_on channel=1 note=79 velocity=96 time=7\n",
      "note_on channel=1 note=79 velocity=0 time=113\n",
      "note_on channel=1 note=83 velocity=96 time=7\n",
      "note_on channel=1 note=91 velocity=96 time=0\n",
      "note_on channel=1 note=83 velocity=0 time=455\n",
      "note_on channel=1 note=91 velocity=0 time=0\n",
      "note_on channel=1 note=74 velocity=96 time=265\n",
      "note_on channel=1 note=79 velocity=96 time=0\n",
      "note_on channel=1 note=83 velocity=96 time=0\n",
      "note_on channel=1 note=74 velocity=0 time=113\n",
      "note_on channel=1 note=79 velocity=0 time=0\n",
      "note_on channel=1 note=83 velocity=0 time=0\n",
      "note_on channel=1 note=71 velocity=96 time=7\n",
      "note_on channel=1 note=71 velocity=0 time=113\n",
      "note_on channel=1 note=74 velocity=96 time=7\n",
      "note_on channel=1 note=79 velocity=96 time=0\n",
      "note_on channel=1 note=83 velocity=96 time=0\n",
      "note_on channel=1 note=74 velocity=0 time=227\n",
      "note_on channel=1 note=79 velocity=0 time=0\n",
      "note_on channel=1 note=83 velocity=0 time=0\n",
      "note_on channel=1 note=66 velocity=112 time=733\n",
      "note_on channel=1 note=69 velocity=112 time=0\n",
      "note_on channel=1 note=72 velocity=112 time=0\n",
      "note_on channel=1 note=74 velocity=112 time=0\n",
      "note_on channel=1 note=78 velocity=112 time=0\n",
      "note_on channel=1 note=66 velocity=0 time=227\n",
      "note_on channel=1 note=69 velocity=0 time=0\n",
      "note_on channel=1 note=72 velocity=0 time=0\n",
      "note_on channel=1 note=74 velocity=0 time=0\n",
      "note_on channel=1 note=78 velocity=0 time=0\n",
      "note_on channel=1 note=67 velocity=112 time=733\n",
      "note_on channel=1 note=71 velocity=112 time=0\n",
      "note_on channel=1 note=74 velocity=112 time=0\n",
      "note_on channel=1 note=79 velocity=112 time=0\n",
      "note_on channel=1 note=67 velocity=0 time=227\n",
      "note_on channel=1 note=71 velocity=0 time=0\n",
      "note_on channel=1 note=74 velocity=0 time=0\n",
      "note_on channel=1 note=79 velocity=0 time=0\n",
      "MetaMessage('end_of_track', time=1)\n",
      "Track 3: \n",
      "MetaMessage('key_signature', key='G', time=0)\n",
      "MetaMessage('midi_port', port=0, time=0)\n",
      "note_on channel=1 note=36 velocity=40 time=0\n",
      "note_on channel=1 note=52 velocity=40 time=0\n",
      "note_on channel=1 note=36 velocity=0 time=455\n",
      "note_on channel=1 note=52 velocity=0 time=0\n",
      "note_on channel=1 note=36 velocity=40 time=265\n",
      "note_on channel=1 note=52 velocity=40 time=0\n",
      "note_on channel=1 note=36 velocity=0 time=227\n",
      "note_on channel=1 note=52 velocity=0 time=0\n",
      "note_on channel=1 note=36 velocity=40 time=13\n",
      "note_on channel=1 note=52 velocity=40 time=0\n",
      "note_on channel=1 note=36 velocity=0 time=455\n",
      "note_on channel=1 note=52 velocity=0 time=0\n",
      "note_on channel=1 note=36 velocity=40 time=265\n",
      "note_on channel=1 note=52 velocity=40 time=0\n",
      "note_on channel=1 note=36 velocity=0 time=227\n",
      "note_on channel=1 note=52 velocity=0 time=0\n",
      "note_on channel=1 note=36 velocity=40 time=13\n",
      "note_on channel=1 note=52 velocity=40 time=0\n",
      "note_on channel=1 note=36 velocity=0 time=227\n",
      "note_on channel=1 note=52 velocity=0 time=0\n",
      "note_on channel=1 note=36 velocity=40 time=253\n",
      "note_on channel=1 note=52 velocity=40 time=0\n",
      "note_on channel=1 note=36 velocity=0 time=119\n",
      "note_on channel=1 note=52 velocity=0 time=0\n",
      "note_on channel=1 note=36 velocity=40 time=121\n",
      "note_on channel=1 note=52 velocity=40 time=0\n",
      "note_on channel=1 note=36 velocity=0 time=119\n",
      "note_on channel=1 note=52 velocity=0 time=0\n",
      "note_on channel=1 note=36 velocity=40 time=121\n",
      "note_on channel=1 note=52 velocity=40 time=0\n",
      "note_on channel=1 note=36 velocity=0 time=227\n",
      "note_on channel=1 note=52 velocity=0 time=0\n",
      "note_on channel=1 note=33 velocity=40 time=733\n",
      "note_on channel=1 note=45 velocity=40 time=0\n",
      "note_on channel=1 note=33 velocity=0 time=119\n",
      "note_on channel=1 note=45 velocity=0 time=0\n",
      "note_on channel=1 note=45 velocity=40 time=121\n",
      "note_on channel=1 note=45 velocity=0 time=59\n",
      "note_on channel=1 note=45 velocity=40 time=61\n",
      "note_on channel=1 note=45 velocity=0 time=59\n",
      "note_on channel=1 note=36 velocity=40 time=61\n",
      "note_on channel=1 note=48 velocity=40 time=0\n",
      "note_on channel=1 note=36 velocity=0 time=119\n",
      "note_on channel=1 note=48 velocity=0 time=0\n",
      "note_on channel=1 note=48 velocity=40 time=121\n",
      "note_on channel=1 note=48 velocity=0 time=59\n",
      "note_on channel=1 note=48 velocity=40 time=61\n",
      "note_on channel=1 note=48 velocity=0 time=59\n",
      "note_on channel=1 note=38 velocity=40 time=61\n",
      "note_on channel=1 note=50 velocity=40 time=0\n",
      "note_on channel=1 note=38 velocity=0 time=227\n",
      "note_on channel=1 note=50 velocity=0 time=0\n",
      "note_on channel=1 note=38 velocity=40 time=733\n",
      "note_on channel=1 note=50 velocity=40 time=0\n",
      "note_on channel=1 note=38 velocity=0 time=119\n",
      "note_on channel=1 note=50 velocity=0 time=0\n",
      "note_on channel=1 note=50 velocity=40 time=121\n",
      "note_on channel=1 note=50 velocity=0 time=59\n",
      "note_on channel=1 note=50 velocity=40 time=61\n",
      "note_on channel=1 note=50 velocity=0 time=59\n",
      "note_on channel=1 note=38 velocity=40 time=61\n",
      "note_on channel=1 note=50 velocity=40 time=0\n",
      "note_on channel=1 note=38 velocity=0 time=119\n",
      "note_on channel=1 note=50 velocity=0 time=0\n",
      "note_on channel=1 note=52 velocity=40 time=121\n",
      "note_on channel=1 note=52 velocity=0 time=59\n",
      "note_on channel=1 note=54 velocity=40 time=61\n",
      "note_on channel=1 note=54 velocity=0 time=59\n",
      "note_on channel=1 note=43 velocity=40 time=61\n",
      "note_on channel=1 note=55 velocity=40 time=0\n",
      "note_on channel=1 note=43 velocity=0 time=119\n",
      "note_on channel=1 note=55 velocity=0 time=0\n",
      "note_on channel=1 note=55 velocity=40 time=121\n",
      "note_on channel=1 note=55 velocity=0 time=59\n",
      "note_on channel=1 note=55 velocity=40 time=61\n",
      "note_on channel=1 note=55 velocity=0 time=59\n",
      "note_on channel=1 note=43 velocity=40 time=61\n",
      "note_on channel=1 note=55 velocity=40 time=0\n",
      "note_on channel=1 note=43 velocity=0 time=119\n",
      "note_on channel=1 note=55 velocity=0 time=0\n",
      "note_on channel=1 note=36 velocity=40 time=361\n",
      "note_on channel=1 note=48 velocity=40 time=0\n",
      "note_on channel=1 note=36 velocity=0 time=119\n",
      "note_on channel=1 note=48 velocity=0 time=0\n",
      "note_on channel=1 note=38 velocity=40 time=361\n",
      "note_on channel=1 note=50 velocity=40 time=0\n",
      "note_on channel=1 note=38 velocity=0 time=119\n",
      "note_on channel=1 note=50 velocity=0 time=0\n",
      "note_on channel=1 note=43 velocity=48 time=361\n",
      "note_on channel=1 note=50 velocity=48 time=0\n",
      "note_on channel=1 note=55 velocity=48 time=0\n",
      "note_on channel=1 note=43 velocity=0 time=959\n",
      "note_on channel=1 note=50 velocity=0 time=0\n",
      "note_on channel=1 note=55 velocity=0 time=0\n",
      "note_on channel=1 note=48 velocity=49 time=1\n",
      "note_on channel=1 note=48 velocity=0 time=3647\n",
      "note_on channel=1 note=45 velocity=49 time=193\n",
      "note_on channel=1 note=45 velocity=0 time=455\n",
      "note_on channel=1 note=48 velocity=49 time=25\n",
      "note_on channel=1 note=48 velocity=0 time=455\n",
      "note_on channel=1 note=50 velocity=49 time=25\n",
      "note_on channel=1 note=50 velocity=0 time=1823\n",
      "note_on channel=1 note=55 velocity=49 time=97\n",
      "note_on channel=1 note=55 velocity=0 time=911\n",
      "note_on channel=1 note=48 velocity=49 time=49\n",
      "note_on channel=1 note=48 velocity=0 time=455\n",
      "note_on channel=1 note=50 velocity=49 time=25\n",
      "note_on channel=1 note=50 velocity=0 time=455\n",
      "note_on channel=1 note=55 velocity=49 time=25\n",
      "note_on channel=1 note=55 velocity=0 time=911\n",
      "note_on channel=1 note=50 velocity=49 time=49\n",
      "note_on channel=1 note=47 velocity=49 time=0\n",
      "note_on channel=1 note=59 velocity=49 time=0\n",
      "note_on channel=1 note=47 velocity=0 time=455\n",
      "note_on channel=1 note=59 velocity=0 time=0\n",
      "note_on channel=1 note=48 velocity=49 time=25\n",
      "note_on channel=1 note=60 velocity=49 time=0\n",
      "note_on channel=1 note=48 velocity=0 time=455\n",
      "note_on channel=1 note=60 velocity=0 time=0\n",
      "note_on channel=1 note=47 velocity=49 time=25\n",
      "note_on channel=1 note=59 velocity=49 time=0\n",
      "note_on channel=1 note=47 velocity=0 time=455\n",
      "note_on channel=1 note=59 velocity=0 time=0\n",
      "note_on channel=1 note=45 velocity=49 time=25\n",
      "note_on channel=1 note=57 velocity=49 time=0\n",
      "note_on channel=1 note=50 velocity=0 time=155\n",
      "note_on channel=1 note=52 velocity=49 time=85\n",
      "note_on channel=1 note=52 velocity=0 time=113\n",
      "note_on channel=1 note=54 velocity=49 time=7\n",
      "note_on channel=1 note=45 velocity=0 time=95\n",
      "note_on channel=1 note=57 velocity=0 time=0\n",
      "note_on channel=1 note=54 velocity=0 time=18\n",
      "note_on channel=1 note=43 velocity=49 time=7\n",
      "note_on channel=1 note=55 velocity=49 time=0\n",
      "note_on channel=1 note=43 velocity=0 time=455\n",
      "note_on channel=1 note=55 velocity=0 time=0\n",
      "note_on channel=1 note=42 velocity=49 time=25\n",
      "note_on channel=1 note=54 velocity=49 time=0\n",
      "note_on channel=1 note=42 velocity=0 time=455\n",
      "note_on channel=1 note=54 velocity=0 time=0\n",
      "note_on channel=1 note=40 velocity=49 time=25\n",
      "note_on channel=1 note=52 velocity=49 time=0\n",
      "note_on channel=1 note=40 velocity=0 time=227\n",
      "note_on channel=1 note=52 velocity=0 time=0\n",
      "note_on channel=1 note=45 velocity=49 time=13\n",
      "note_on channel=1 note=45 velocity=0 time=227\n",
      "note_on channel=1 note=38 velocity=49 time=13\n",
      "note_on channel=1 note=50 velocity=49 time=0\n",
      "note_on channel=1 note=38 velocity=0 time=227\n",
      "note_on channel=1 note=50 velocity=0 time=0\n",
      "note_on channel=1 note=59 velocity=49 time=253\n",
      "note_on channel=1 note=59 velocity=0 time=455\n",
      "note_on channel=1 note=60 velocity=49 time=25\n",
      "note_on channel=1 note=60 velocity=0 time=455\n",
      "note_on channel=1 note=59 velocity=49 time=25\n",
      "note_on channel=1 note=59 velocity=0 time=455\n",
      "note_on channel=1 note=57 velocity=49 time=25\n",
      "note_on channel=1 note=57 velocity=0 time=455\n",
      "note_on channel=1 note=55 velocity=49 time=25\n",
      "note_on channel=1 note=55 velocity=0 time=455\n",
      "note_on channel=1 note=54 velocity=49 time=25\n",
      "note_on channel=1 note=54 velocity=0 time=455\n",
      "note_on channel=1 note=52 velocity=49 time=25\n",
      "note_on channel=1 note=52 velocity=0 time=227\n",
      "note_on channel=1 note=57 velocity=49 time=13\n",
      "note_on channel=1 note=57 velocity=0 time=227\n",
      "note_on channel=1 note=50 velocity=49 time=13\n",
      "note_on channel=1 note=50 velocity=0 time=227\n",
      "note_on channel=1 note=40 velocity=49 time=253\n",
      "note_on channel=1 note=40 velocity=0 time=227\n",
      "note_on channel=1 note=33 velocity=49 time=13\n",
      "note_on channel=1 note=45 velocity=49 time=0\n",
      "note_on channel=1 note=33 velocity=0 time=227\n",
      "note_on channel=1 note=45 velocity=0 time=0\n",
      "note_on channel=1 note=38 velocity=49 time=13\n",
      "note_on channel=1 note=38 velocity=0 time=227\n",
      "note_on channel=1 note=45 velocity=49 time=733\n",
      "note_on channel=1 note=55 velocity=49 time=0\n",
      "note_on channel=1 note=45 velocity=0 time=227\n",
      "note_on channel=1 note=55 velocity=0 time=0\n",
      "note_on channel=1 note=50 velocity=49 time=13\n",
      "note_on channel=1 note=54 velocity=49 time=0\n",
      "note_on channel=1 note=50 velocity=0 time=227\n",
      "note_on channel=1 note=54 velocity=0 time=0\n",
      "note_on channel=1 note=67 velocity=49 time=13\n",
      "note_on channel=1 note=67 velocity=0 time=113\n",
      "note_on channel=1 note=64 velocity=49 time=7\n",
      "note_on channel=1 note=64 velocity=0 time=113\n",
      "note_on channel=1 note=62 velocity=49 time=7\n",
      "note_on channel=1 note=62 velocity=0 time=119\n",
      "note_on channel=1 note=67 velocity=49 time=121\n",
      "note_on channel=1 note=67 velocity=0 time=113\n",
      "note_on channel=1 note=64 velocity=49 time=7\n",
      "note_on channel=1 note=64 velocity=0 time=113\n",
      "note_on channel=1 note=62 velocity=49 time=7\n",
      "note_on channel=1 note=62 velocity=0 time=119\n",
      "note_on channel=1 note=48 velocity=102 time=121\n",
      "note_on channel=1 note=52 velocity=102 time=0\n",
      "note_on channel=1 note=55 velocity=102 time=0\n",
      "note_on channel=1 note=60 velocity=102 time=0\n",
      "control_change channel=1 control=64 value=127 time=2\n",
      "note_on channel=1 note=48 velocity=0 time=225\n",
      "note_on channel=1 note=52 velocity=0 time=0\n",
      "note_on channel=1 note=55 velocity=0 time=0\n",
      "note_on channel=1 note=60 velocity=0 time=0\n",
      "note_on channel=1 note=36 velocity=106 time=13\n",
      "note_on channel=1 note=48 velocity=106 time=0\n",
      "note_on channel=1 note=36 velocity=0 time=455\n",
      "note_on channel=1 note=48 velocity=0 time=0\n",
      "note_on channel=1 note=48 velocity=102 time=25\n",
      "note_on channel=1 note=52 velocity=102 time=0\n",
      "note_on channel=1 note=55 velocity=102 time=0\n",
      "note_on channel=1 note=60 velocity=102 time=0\n",
      "control_change channel=1 control=64 value=0 time=1\n",
      "note_on channel=1 note=48 velocity=0 time=226\n",
      "note_on channel=1 note=52 velocity=0 time=0\n",
      "note_on channel=1 note=55 velocity=0 time=0\n",
      "note_on channel=1 note=60 velocity=0 time=0\n",
      "note_on channel=1 note=48 velocity=102 time=13\n",
      "note_on channel=1 note=52 velocity=102 time=0\n",
      "note_on channel=1 note=55 velocity=102 time=0\n",
      "note_on channel=1 note=60 velocity=102 time=0\n",
      "control_change channel=1 control=64 value=127 time=2\n",
      "note_on channel=1 note=48 velocity=0 time=225\n",
      "note_on channel=1 note=52 velocity=0 time=0\n",
      "note_on channel=1 note=55 velocity=0 time=0\n",
      "note_on channel=1 note=60 velocity=0 time=0\n",
      "note_on channel=1 note=36 velocity=106 time=13\n",
      "note_on channel=1 note=48 velocity=106 time=0\n",
      "note_on channel=1 note=36 velocity=0 time=455\n",
      "note_on channel=1 note=48 velocity=0 time=0\n",
      "note_on channel=1 note=48 velocity=102 time=25\n",
      "note_on channel=1 note=52 velocity=102 time=0\n",
      "note_on channel=1 note=55 velocity=102 time=0\n",
      "note_on channel=1 note=60 velocity=102 time=0\n",
      "control_change channel=1 control=64 value=0 time=1\n",
      "note_on channel=1 note=48 velocity=0 time=226\n",
      "note_on channel=1 note=52 velocity=0 time=0\n",
      "note_on channel=1 note=55 velocity=0 time=0\n",
      "note_on channel=1 note=60 velocity=0 time=0\n",
      "note_on channel=1 note=48 velocity=102 time=13\n",
      "note_on channel=1 note=52 velocity=102 time=0\n",
      "note_on channel=1 note=55 velocity=102 time=0\n",
      "note_on channel=1 note=60 velocity=102 time=0\n",
      "control_change channel=1 control=64 value=127 time=2\n",
      "note_on channel=1 note=48 velocity=0 time=225\n",
      "note_on channel=1 note=52 velocity=0 time=0\n",
      "note_on channel=1 note=55 velocity=0 time=0\n",
      "note_on channel=1 note=60 velocity=0 time=0\n",
      "note_on channel=1 note=36 velocity=106 time=13\n",
      "note_on channel=1 note=48 velocity=106 time=0\n",
      "note_on channel=1 note=36 velocity=0 time=227\n",
      "note_on channel=1 note=48 velocity=0 time=0\n",
      "note_on channel=1 note=48 velocity=102 time=13\n",
      "note_on channel=1 note=52 velocity=102 time=0\n",
      "note_on channel=1 note=55 velocity=102 time=0\n",
      "note_on channel=1 note=60 velocity=102 time=0\n",
      "control_change channel=1 control=64 value=0 time=1\n",
      "control_change channel=1 control=64 value=127 time=1\n",
      "note_on channel=1 note=48 velocity=0 time=225\n",
      "note_on channel=1 note=52 velocity=0 time=0\n",
      "note_on channel=1 note=55 velocity=0 time=0\n",
      "note_on channel=1 note=60 velocity=0 time=0\n",
      "note_on channel=1 note=36 velocity=106 time=13\n",
      "note_on channel=1 note=48 velocity=106 time=0\n",
      "note_on channel=1 note=36 velocity=0 time=227\n",
      "note_on channel=1 note=48 velocity=0 time=0\n",
      "note_on channel=1 note=48 velocity=106 time=13\n",
      "note_on channel=1 note=52 velocity=106 time=0\n",
      "note_on channel=1 note=55 velocity=106 time=0\n",
      "note_on channel=1 note=60 velocity=106 time=0\n",
      "control_change channel=1 control=64 value=0 time=1\n",
      "control_change channel=1 control=64 value=127 time=1\n",
      "note_on channel=1 note=48 velocity=0 time=225\n",
      "note_on channel=1 note=52 velocity=0 time=0\n",
      "note_on channel=1 note=55 velocity=0 time=0\n",
      "note_on channel=1 note=60 velocity=0 time=0\n",
      "note_on channel=1 note=36 velocity=106 time=13\n",
      "note_on channel=1 note=48 velocity=106 time=0\n",
      "note_on channel=1 note=36 velocity=0 time=227\n",
      "note_on channel=1 note=48 velocity=0 time=0\n",
      "note_on channel=1 note=48 velocity=96 time=13\n",
      "note_on channel=1 note=48 velocity=0 time=0\n",
      "note_on channel=1 note=48 velocity=96 time=0\n",
      "control_change channel=1 control=64 value=0 time=1\n",
      "control_change channel=1 control=64 value=127 time=1\n",
      "note_on channel=1 note=52 velocity=96 time=118\n",
      "note_on channel=1 note=52 velocity=0 time=113\n",
      "note_on channel=1 note=55 velocity=96 time=7\n",
      "note_on channel=1 note=55 velocity=0 time=113\n",
      "note_on channel=1 note=60 velocity=96 time=7\n",
      "control_change channel=1 control=64 value=0 time=121\n",
      "note_on channel=1 note=48 velocity=0 time=202\n",
      "note_on channel=1 note=60 velocity=0 time=18\n",
      "note_on channel=1 note=33 velocity=106 time=19\n",
      "note_on channel=1 note=45 velocity=106 time=0\n",
      "note_on channel=1 note=33 velocity=0 time=455\n",
      "note_on channel=1 note=45 velocity=0 time=0\n",
      "note_on channel=1 note=36 velocity=90 time=25\n",
      "note_on channel=1 note=48 velocity=90 time=0\n",
      "control_change channel=1 control=64 value=127 time=2\n",
      "note_on channel=1 note=36 velocity=0 time=453\n",
      "note_on channel=1 note=48 velocity=0 time=0\n",
      "note_on channel=1 note=38 velocity=90 time=25\n",
      "note_on channel=1 note=50 velocity=90 time=0\n",
      "control_change channel=1 control=64 value=0 time=1\n",
      "note_on channel=1 note=38 velocity=0 time=226\n",
      "note_on channel=1 note=50 velocity=0 time=0\n",
      "note_on channel=1 note=50 velocity=90 time=13\n",
      "note_on channel=1 note=50 velocity=0 time=0\n",
      "note_on channel=1 note=50 velocity=90 time=0\n",
      "control_change channel=1 control=64 value=127 time=2\n",
      "note_on channel=1 note=54 velocity=90 time=118\n",
      "note_on channel=1 note=54 velocity=0 time=113\n",
      "note_on channel=1 note=57 velocity=90 time=7\n",
      "note_on channel=1 note=57 velocity=0 time=113\n",
      "note_on channel=1 note=62 velocity=90 time=7\n",
      "control_change channel=1 control=64 value=0 time=121\n",
      "note_on channel=1 note=50 velocity=0 time=202\n",
      "note_on channel=1 note=62 velocity=0 time=18\n",
      "note_on channel=1 note=38 velocity=90 time=19\n",
      "note_on channel=1 note=50 velocity=90 time=0\n",
      "note_on channel=1 note=38 velocity=0 time=455\n",
      "note_on channel=1 note=50 velocity=0 time=0\n",
      "note_on channel=1 note=38 velocity=90 time=25\n",
      "note_on channel=1 note=50 velocity=90 time=0\n",
      "control_change channel=1 control=64 value=127 time=2\n",
      "note_on channel=1 note=38 velocity=0 time=453\n",
      "note_on channel=1 note=50 velocity=0 time=0\n",
      "note_on channel=1 note=43 velocity=90 time=25\n",
      "note_on channel=1 note=55 velocity=90 time=0\n",
      "control_change channel=1 control=64 value=0 time=1\n",
      "note_on channel=1 note=43 velocity=0 time=454\n",
      "note_on channel=1 note=55 velocity=0 time=0\n",
      "note_on channel=1 note=40 velocity=90 time=25\n",
      "note_on channel=1 note=52 velocity=90 time=0\n",
      "note_on channel=1 note=40 velocity=0 time=227\n",
      "note_on channel=1 note=52 velocity=0 time=0\n",
      "note_on channel=1 note=36 velocity=90 time=13\n",
      "note_on channel=1 note=48 velocity=90 time=0\n",
      "control_change channel=1 control=64 value=127 time=2\n",
      "note_on channel=1 note=36 velocity=0 time=225\n",
      "note_on channel=1 note=48 velocity=0 time=0\n",
      "note_on channel=1 note=48 velocity=90 time=13\n",
      "note_on channel=1 note=60 velocity=90 time=0\n",
      "note_on channel=1 note=48 velocity=0 time=455\n",
      "note_on channel=1 note=60 velocity=0 time=0\n",
      "note_on channel=1 note=50 velocity=90 time=25\n",
      "note_on channel=1 note=62 velocity=90 time=0\n",
      "control_change channel=1 control=64 value=0 time=1\n",
      "note_on channel=1 note=50 velocity=0 time=226\n",
      "note_on channel=1 note=62 velocity=0 time=0\n",
      "note_on channel=1 note=47 velocity=106 time=13\n",
      "note_on channel=1 note=59 velocity=106 time=0\n",
      "note_on channel=1 note=47 velocity=0 time=113\n",
      "note_on channel=1 note=59 velocity=0 time=0\n",
      "note_on channel=1 note=50 velocity=80 time=7\n",
      "note_on channel=1 note=50 velocity=0 time=113\n",
      "note_on channel=1 note=52 velocity=80 time=7\n",
      "note_on channel=1 note=52 velocity=0 time=113\n",
      "note_on channel=1 note=54 velocity=80 time=7\n",
      "note_on channel=1 note=54 velocity=0 time=113\n",
      "note_on channel=1 note=55 velocity=80 time=7\n",
      "note_on channel=1 note=55 velocity=0 time=113\n",
      "note_on channel=1 note=57 velocity=80 time=7\n",
      "note_on channel=1 note=57 velocity=0 time=113\n",
      "note_on channel=1 note=59 velocity=80 time=7\n",
      "note_on channel=1 note=59 velocity=0 time=113\n",
      "note_on channel=1 note=55 velocity=80 time=7\n",
      "note_on channel=1 note=55 velocity=0 time=113\n",
      "note_on channel=1 note=52 velocity=80 time=7\n",
      "note_on channel=1 note=52 velocity=0 time=113\n",
      "note_on channel=1 note=55 velocity=80 time=7\n",
      "note_on channel=1 note=55 velocity=0 time=113\n",
      "note_on channel=1 note=54 velocity=80 time=7\n",
      "note_on channel=1 note=54 velocity=0 time=113\n",
      "note_on channel=1 note=57 velocity=80 time=7\n",
      "note_on channel=1 note=57 velocity=0 time=113\n",
      "note_on channel=1 note=55 velocity=80 time=7\n",
      "note_on channel=1 note=55 velocity=0 time=113\n",
      "note_on channel=1 note=54 velocity=80 time=7\n",
      "note_on channel=1 note=54 velocity=0 time=113\n",
      "note_on channel=1 note=52 velocity=80 time=7\n",
      "note_on channel=1 note=52 velocity=0 time=113\n",
      "note_on channel=1 note=50 velocity=80 time=7\n",
      "note_on channel=1 note=50 velocity=0 time=113\n",
      "note_on channel=1 note=48 velocity=80 time=7\n",
      "note_on channel=1 note=48 velocity=0 time=113\n",
      "note_on channel=1 note=47 velocity=80 time=7\n",
      "note_on channel=1 note=47 velocity=0 time=113\n",
      "note_on channel=1 note=48 velocity=80 time=7\n",
      "note_on channel=1 note=48 velocity=0 time=113\n",
      "note_on channel=1 note=50 velocity=80 time=7\n",
      "note_on channel=1 note=50 velocity=0 time=113\n",
      "note_on channel=1 note=47 velocity=80 time=7\n",
      "note_on channel=1 note=47 velocity=0 time=113\n",
      "note_on channel=1 note=43 velocity=80 time=7\n",
      "note_on channel=1 note=43 velocity=0 time=113\n",
      "note_on channel=1 note=45 velocity=80 time=7\n",
      "note_on channel=1 note=45 velocity=0 time=113\n",
      "note_on channel=1 note=47 velocity=80 time=7\n",
      "note_on channel=1 note=47 velocity=0 time=113\n",
      "note_on channel=1 note=48 velocity=80 time=7\n",
      "note_on channel=1 note=48 velocity=0 time=113\n",
      "note_on channel=1 note=45 velocity=80 time=7\n",
      "note_on channel=1 note=45 velocity=0 time=113\n",
      "note_on channel=1 note=47 velocity=80 time=7\n",
      "note_on channel=1 note=47 velocity=0 time=113\n",
      "note_on channel=1 note=48 velocity=80 time=7\n",
      "note_on channel=1 note=48 velocity=0 time=113\n",
      "note_on channel=1 note=50 velocity=80 time=7\n",
      "note_on channel=1 note=50 velocity=0 time=227\n",
      "note_on channel=1 note=38 velocity=80 time=13\n",
      "note_on channel=1 note=50 velocity=80 time=0\n",
      "note_on channel=1 note=38 velocity=0 time=227\n",
      "note_on channel=1 note=50 velocity=0 time=0\n",
      "note_on channel=1 note=43 velocity=80 time=3853\n",
      "note_on channel=1 note=55 velocity=80 time=0\n",
      "note_on channel=1 note=43 velocity=0 time=113\n",
      "note_on channel=1 note=55 velocity=0 time=0\n",
      "note_on channel=1 note=47 velocity=80 time=7\n",
      "note_on channel=1 note=47 velocity=0 time=113\n",
      "note_on channel=1 note=49 velocity=80 time=7\n",
      "note_on channel=1 note=49 velocity=0 time=113\n",
      "note_on channel=1 note=51 velocity=80 time=7\n",
      "note_on channel=1 note=51 velocity=0 time=113\n",
      "note_on channel=1 note=52 velocity=80 time=7\n",
      "note_on channel=1 note=52 velocity=0 time=113\n",
      "note_on channel=1 note=54 velocity=80 time=7\n",
      "note_on channel=1 note=54 velocity=0 time=113\n",
      "note_on channel=1 note=55 velocity=80 time=7\n",
      "note_on channel=1 note=55 velocity=0 time=113\n",
      "note_on channel=1 note=52 velocity=80 time=7\n",
      "note_on channel=1 note=52 velocity=0 time=113\n",
      "note_on channel=1 note=54 velocity=80 time=7\n",
      "note_on channel=1 note=54 velocity=0 time=113\n",
      "note_on channel=1 note=47 velocity=80 time=7\n",
      "note_on channel=1 note=47 velocity=0 time=113\n",
      "note_on channel=1 note=49 velocity=80 time=7\n",
      "note_on channel=1 note=49 velocity=0 time=113\n",
      "note_on channel=1 note=51 velocity=80 time=7\n",
      "note_on channel=1 note=51 velocity=0 time=113\n",
      "note_on channel=1 note=52 velocity=80 time=7\n",
      "note_on channel=1 note=52 velocity=0 time=113\n",
      "note_on channel=1 note=50 velocity=80 time=7\n",
      "note_on channel=1 note=50 velocity=0 time=113\n",
      "note_on channel=1 note=48 velocity=80 time=7\n",
      "note_on channel=1 note=48 velocity=0 time=113\n",
      "note_on channel=1 note=47 velocity=80 time=7\n",
      "note_on channel=1 note=47 velocity=0 time=113\n",
      "note_on channel=1 note=45 velocity=80 time=7\n",
      "note_on channel=1 note=45 velocity=0 time=113\n",
      "note_on channel=1 note=43 velocity=80 time=7\n",
      "note_on channel=1 note=43 velocity=0 time=113\n",
      "note_on channel=1 note=45 velocity=80 time=7\n",
      "note_on channel=1 note=45 velocity=0 time=113\n",
      "note_on channel=1 note=47 velocity=80 time=7\n",
      "note_on channel=1 note=47 velocity=0 time=113\n",
      "note_on channel=1 note=43 velocity=80 time=7\n",
      "note_on channel=1 note=43 velocity=0 time=113\n",
      "note_on channel=1 note=52 velocity=80 time=7\n",
      "note_on channel=1 note=52 velocity=0 time=113\n",
      "note_on channel=1 note=54 velocity=80 time=7\n",
      "note_on channel=1 note=54 velocity=0 time=113\n",
      "note_on channel=1 note=55 velocity=80 time=7\n",
      "note_on channel=1 note=55 velocity=0 time=113\n",
      "note_on channel=1 note=57 velocity=80 time=7\n",
      "note_on channel=1 note=57 velocity=0 time=113\n",
      "note_on channel=1 note=54 velocity=80 time=7\n",
      "note_on channel=1 note=54 velocity=0 time=113\n",
      "note_on channel=1 note=55 velocity=80 time=7\n",
      "note_on channel=1 note=55 velocity=0 time=113\n",
      "note_on channel=1 note=57 velocity=80 time=7\n",
      "note_on channel=1 note=57 velocity=0 time=113\n",
      "note_on channel=1 note=59 velocity=80 time=7\n",
      "control_change channel=1 control=64 value=127 time=2\n",
      "note_on channel=1 note=59 velocity=0 time=225\n",
      "note_on channel=1 note=47 velocity=80 time=13\n",
      "note_on channel=1 note=47 velocity=0 time=227\n",
      "control_change channel=1 control=64 value=0 time=14\n",
      "note_on channel=1 note=45 velocity=96 time=3839\n",
      "note_on channel=1 note=45 velocity=0 time=113\n",
      "note_on channel=1 note=49 velocity=96 time=7\n",
      "note_on channel=1 note=49 velocity=0 time=113\n",
      "note_on channel=1 note=47 velocity=96 time=7\n",
      "note_on channel=1 note=47 velocity=0 time=113\n",
      "note_on channel=1 note=45 velocity=96 time=7\n",
      "note_on channel=1 note=45 velocity=0 time=113\n",
      "note_on channel=1 note=44 velocity=96 time=7\n",
      "note_on channel=1 note=44 velocity=0 time=113\n",
      "note_on channel=1 note=40 velocity=96 time=7\n",
      "note_on channel=1 note=40 velocity=0 time=113\n",
      "note_on channel=1 note=42 velocity=96 time=7\n",
      "note_on channel=1 note=42 velocity=0 time=113\n",
      "note_on channel=1 note=44 velocity=96 time=7\n",
      "note_on channel=1 note=44 velocity=0 time=113\n",
      "note_on channel=1 note=45 velocity=96 time=967\n",
      "note_on channel=1 note=45 velocity=0 time=113\n",
      "note_on channel=1 note=49 velocity=96 time=7\n",
      "note_on channel=1 note=49 velocity=0 time=113\n",
      "note_on channel=1 note=47 velocity=96 time=7\n",
      "note_on channel=1 note=47 velocity=0 time=113\n",
      "note_on channel=1 note=45 velocity=96 time=7\n",
      "note_on channel=1 note=45 velocity=0 time=113\n",
      "note_on channel=1 note=44 velocity=96 time=7\n",
      "note_on channel=1 note=44 velocity=0 time=113\n",
      "note_on channel=1 note=40 velocity=96 time=7\n",
      "note_on channel=1 note=40 velocity=0 time=113\n",
      "note_on channel=1 note=42 velocity=96 time=7\n",
      "note_on channel=1 note=42 velocity=0 time=113\n",
      "note_on channel=1 note=44 velocity=96 time=7\n",
      "note_on channel=1 note=44 velocity=0 time=113\n",
      "note_on channel=1 note=33 velocity=96 time=967\n",
      "note_on channel=1 note=45 velocity=96 time=0\n",
      "note_on channel=1 note=33 velocity=0 time=227\n",
      "note_on channel=1 note=45 velocity=0 time=0\n",
      "note_on channel=1 note=33 velocity=49 time=6493\n",
      "note_on channel=1 note=45 velocity=49 time=0\n",
      "note_on channel=1 note=33 velocity=0 time=239\n",
      "note_on channel=1 note=45 velocity=0 time=0\n",
      "note_on channel=1 note=33 velocity=33 time=1201\n",
      "note_on channel=1 note=45 velocity=33 time=0\n",
      "control_change channel=1 control=64 value=127 time=2\n",
      "note_on channel=1 note=33 velocity=0 time=453\n",
      "note_on channel=1 note=45 velocity=0 time=0\n",
      "note_on channel=1 note=33 velocity=33 time=25\n",
      "note_on channel=1 note=45 velocity=33 time=0\n",
      "control_change channel=1 control=64 value=0 time=1\n",
      "control_change channel=1 control=64 value=127 time=1\n",
      "note_on channel=1 note=33 velocity=0 time=453\n",
      "note_on channel=1 note=45 velocity=0 time=0\n",
      "control_change channel=1 control=64 value=0 time=26\n",
      "note_on channel=1 note=33 velocity=33 time=959\n",
      "note_on channel=1 note=45 velocity=33 time=0\n",
      "control_change channel=1 control=64 value=127 time=2\n",
      "note_on channel=1 note=33 velocity=0 time=453\n",
      "note_on channel=1 note=45 velocity=0 time=0\n",
      "note_on channel=1 note=33 velocity=33 time=25\n",
      "note_on channel=1 note=45 velocity=33 time=0\n",
      "control_change channel=1 control=64 value=0 time=1\n",
      "control_change channel=1 control=64 value=127 time=1\n",
      "note_on channel=1 note=33 velocity=0 time=453\n",
      "note_on channel=1 note=45 velocity=0 time=0\n",
      "control_change channel=1 control=64 value=0 time=26\n",
      "note_on channel=1 note=33 velocity=33 time=479\n",
      "note_on channel=1 note=45 velocity=33 time=0\n",
      "control_change channel=1 control=64 value=127 time=2\n",
      "note_on channel=1 note=33 velocity=0 time=453\n",
      "note_on channel=1 note=45 velocity=0 time=0\n",
      "control_change channel=1 control=64 value=0 time=26\n",
      "note_on channel=1 note=33 velocity=33 time=479\n",
      "note_on channel=1 note=45 velocity=33 time=0\n",
      "control_change channel=1 control=64 value=127 time=2\n",
      "note_on channel=1 note=33 velocity=0 time=453\n",
      "note_on channel=1 note=45 velocity=0 time=0\n",
      "control_change channel=1 control=64 value=0 time=26\n",
      "note_on channel=1 note=33 velocity=33 time=1919\n",
      "note_on channel=1 note=45 velocity=33 time=0\n",
      "control_change channel=1 control=64 value=127 time=2\n",
      "note_on channel=1 note=33 velocity=0 time=453\n",
      "note_on channel=1 note=45 velocity=0 time=0\n",
      "control_change channel=1 control=64 value=0 time=26\n",
      "note_on channel=1 note=50 velocity=33 time=2879\n",
      "note_on channel=1 note=38 velocity=33 time=0\n",
      "control_change channel=1 control=64 value=127 time=2\n",
      "note_on channel=1 note=50 velocity=0 time=453\n",
      "note_on channel=1 note=38 velocity=0 time=10488\n",
      "note_on channel=1 note=38 velocity=80 time=1057\n",
      "control_change channel=1 control=64 value=0 time=1\n",
      "note_on channel=1 note=38 velocity=0 time=454\n",
      "note_on channel=1 note=45 velocity=80 time=25\n",
      "note_on channel=1 note=45 velocity=0 time=227\n",
      "note_on channel=1 note=62 velocity=33 time=2173\n",
      "note_on channel=1 note=62 velocity=0 time=1823\n",
      "note_on channel=1 note=64 velocity=33 time=97\n",
      "note_on channel=1 note=64 velocity=0 time=455\n",
      "note_on channel=1 note=66 velocity=33 time=25\n",
      "note_on channel=1 note=66 velocity=0 time=240\n",
      "note_on channel=1 note=64 velocity=33 time=720\n",
      "note_on channel=1 note=57 velocity=33 time=480\n",
      "note_on channel=1 note=64 velocity=0 time=203\n",
      "note_on channel=1 note=57 velocity=0 time=37\n",
      "note_on channel=1 note=57 velocity=33 time=0\n",
      "note_on channel=1 note=59 velocity=33 time=240\n",
      "note_on channel=1 note=59 velocity=0 time=227\n",
      "note_on channel=1 note=61 velocity=33 time=13\n",
      "note_on channel=1 note=57 velocity=0 time=191\n",
      "note_on channel=1 note=61 velocity=0 time=36\n",
      "note_on channel=1 note=50 velocity=33 time=13\n",
      "note_on channel=1 note=57 velocity=33 time=0\n",
      "note_on channel=1 note=62 velocity=33 time=0\n",
      "control_change channel=1 control=64 value=127 time=2\n",
      "note_on channel=1 note=50 velocity=0 time=909\n",
      "note_on channel=1 note=62 velocity=0 time=0\n",
      "note_on channel=1 note=49 velocity=33 time=49\n",
      "note_on channel=1 note=57 velocity=0 time=407\n",
      "note_on channel=1 note=49 velocity=0 time=48\n",
      "note_on channel=1 note=54 velocity=33 time=25\n",
      "note_on channel=1 note=47 velocity=33 time=0\n",
      "control_change channel=1 control=64 value=0 time=1\n",
      "note_on channel=1 note=54 velocity=0 time=226\n",
      "note_on channel=1 note=55 velocity=33 time=13\n",
      "note_on channel=1 note=47 velocity=0 time=215\n",
      "note_on channel=1 note=55 velocity=0 time=12\n",
      "note_on channel=1 note=45 velocity=33 time=13\n",
      "note_on channel=1 note=57 velocity=33 time=0\n",
      "note_on channel=1 note=54 velocity=33 time=0\n",
      "note_on channel=1 note=54 velocity=0 time=455\n",
      "note_on channel=1 note=52 velocity=33 time=25\n",
      "note_on channel=1 note=57 velocity=0 time=431\n",
      "note_on channel=1 note=57 velocity=33 time=49\n",
      "note_on channel=1 note=45 velocity=0 time=407\n",
      "note_on channel=1 note=52 velocity=0 time=24\n",
      "note_on channel=1 note=57 velocity=0 time=24\n",
      "note_on channel=1 note=54 velocity=33 time=25\n",
      "note_on channel=1 note=43 velocity=33 time=0\n",
      "note_on channel=1 note=54 velocity=0 time=227\n",
      "note_on channel=1 note=55 velocity=33 time=13\n",
      "note_on channel=1 note=43 velocity=0 time=215\n",
      "note_on channel=1 note=55 velocity=0 time=12\n",
      "note_on channel=1 note=42 velocity=33 time=13\n",
      "note_on channel=1 note=50 velocity=33 time=0\n",
      "note_on channel=1 note=57 velocity=33 time=0\n",
      "control_change channel=1 control=64 value=127 time=2\n",
      "note_on channel=1 note=42 velocity=0 time=453\n",
      "note_on channel=1 note=50 velocity=0 time=0\n",
      "note_on channel=1 note=57 velocity=0 time=0\n",
      "note_on channel=1 note=42 velocity=33 time=25\n",
      "note_on channel=1 note=50 velocity=33 time=0\n",
      "note_on channel=1 note=42 velocity=0 time=455\n",
      "note_on channel=1 note=52 velocity=33 time=25\n",
      "note_on channel=1 note=43 velocity=33 time=0\n",
      "control_change channel=1 control=64 value=0 time=1\n",
      "note_on channel=1 note=52 velocity=0 time=454\n",
      "note_on channel=1 note=43 velocity=0 time=0\n",
      "note_on channel=1 note=54 velocity=33 time=25\n",
      "note_on channel=1 note=45 velocity=33 time=0\n",
      "note_on channel=1 note=50 velocity=0 time=407\n",
      "note_on channel=1 note=54 velocity=0 time=48\n",
      "note_on channel=1 note=45 velocity=0 time=0\n",
      "note_on channel=1 note=55 velocity=33 time=25\n",
      "note_on channel=1 note=47 velocity=33 time=0\n",
      "note_on channel=1 note=50 velocity=33 time=0\n",
      "note_on channel=1 note=55 velocity=0 time=455\n",
      "note_on channel=1 note=55 velocity=48 time=25\n",
      "note_on channel=1 note=47 velocity=0 time=203\n",
      "note_on channel=1 note=46 velocity=56 time=37\n",
      "note_on channel=1 note=50 velocity=0 time=191\n",
      "note_on channel=1 note=46 velocity=0 time=36\n",
      "note_on channel=1 note=45 velocity=64 time=13\n",
      "control_change channel=1 control=64 value=127 time=2\n",
      "note_on channel=1 note=55 velocity=0 time=201\n",
      "note_on channel=1 note=45 velocity=0 time=24\n",
      "note_on channel=1 note=57 velocity=64 time=13\n",
      "note_on channel=1 note=55 velocity=64 time=0\n",
      "note_on channel=1 note=57 velocity=0 time=0\n",
      "note_on channel=1 note=57 velocity=64 time=0\n",
      "note_on channel=1 note=59 velocity=59 time=240\n",
      "note_on channel=1 note=59 velocity=0 time=227\n",
      "note_on channel=1 note=61 velocity=54 time=13\n",
      "note_on channel=1 note=55 velocity=0 time=203\n",
      "note_on channel=1 note=57 velocity=0 time=0\n",
      "note_on channel=1 note=61 velocity=0 time=24\n",
      "note_on channel=1 note=54 velocity=49 time=13\n",
      "note_on channel=1 note=45 velocity=49 time=0\n",
      "note_on channel=1 note=57 velocity=49 time=0\n",
      "control_change channel=1 control=64 value=0 time=1\n",
      "note_on channel=1 note=54 velocity=0 time=454\n",
      "note_on channel=1 note=55 velocity=49 time=25\n",
      "control_change channel=1 control=64 value=127 time=482\n",
      "note_on channel=1 note=45 velocity=0 time=177\n",
      "note_on channel=1 note=57 velocity=0 time=0\n",
      "note_on channel=1 note=55 velocity=0 time=24\n",
      "note_on channel=1 note=57 velocity=49 time=37\n",
      "note_on channel=1 note=55 velocity=49 time=0\n",
      "note_on channel=1 note=57 velocity=0 time=0\n",
      "note_on channel=1 note=57 velocity=49 time=0\n",
      "note_on channel=1 note=59 velocity=49 time=240\n",
      "note_on channel=1 note=59 velocity=0 time=227\n",
      "note_on channel=1 note=61 velocity=49 time=13\n",
      "note_on channel=1 note=55 velocity=0 time=203\n",
      "note_on channel=1 note=57 velocity=0 time=0\n",
      "note_on channel=1 note=61 velocity=0 time=24\n",
      "note_on channel=1 note=50 velocity=80 time=13\n",
      "note_on channel=1 note=54 velocity=80 time=0\n",
      "note_on channel=1 note=57 velocity=80 time=0\n",
      "note_on channel=1 note=62 velocity=80 time=0\n",
      "control_change channel=1 control=64 value=0 time=1\n",
      "note_on channel=1 note=50 velocity=0 time=118\n",
      "note_on channel=1 note=54 velocity=0 time=0\n",
      "note_on channel=1 note=57 velocity=0 time=0\n",
      "note_on channel=1 note=62 velocity=0 time=0\n",
      "note_on channel=1 note=62 velocity=96 time=121\n",
      "note_on channel=1 note=66 velocity=96 time=0\n",
      "note_on channel=1 note=62 velocity=0 time=119\n",
      "note_on channel=1 note=66 velocity=0 time=0\n",
      "note_on channel=1 note=45 velocity=96 time=1561\n",
      "note_on channel=1 note=52 velocity=96 time=0\n",
      "note_on channel=1 note=55 velocity=96 time=0\n",
      "note_on channel=1 note=45 velocity=0 time=227\n",
      "note_on channel=1 note=52 velocity=0 time=0\n",
      "note_on channel=1 note=55 velocity=0 time=0\n",
      "note_on channel=1 note=57 velocity=96 time=13\n",
      "note_on channel=1 note=64 velocity=96 time=0\n",
      "note_on channel=1 note=57 velocity=0 time=227\n",
      "note_on channel=1 note=64 velocity=0 time=0\n",
      "note_on channel=1 note=50 velocity=80 time=1453\n",
      "note_on channel=1 note=57 velocity=80 time=0\n",
      "note_on channel=1 note=62 velocity=80 time=0\n",
      "note_on channel=1 note=50 velocity=0 time=227\n",
      "note_on channel=1 note=57 velocity=0 time=0\n",
      "note_on channel=1 note=62 velocity=0 time=0\n",
      "note_on channel=1 note=62 velocity=96 time=13\n",
      "note_on channel=1 note=66 velocity=96 time=0\n",
      "note_on channel=1 note=62 velocity=0 time=227\n",
      "note_on channel=1 note=66 velocity=0 time=0\n",
      "note_on channel=1 note=45 velocity=96 time=1453\n",
      "note_on channel=1 note=52 velocity=96 time=0\n",
      "note_on channel=1 note=55 velocity=96 time=0\n",
      "note_on channel=1 note=45 velocity=0 time=227\n",
      "note_on channel=1 note=52 velocity=0 time=0\n",
      "note_on channel=1 note=55 velocity=0 time=0\n",
      "note_on channel=1 note=57 velocity=96 time=13\n",
      "note_on channel=1 note=64 velocity=96 time=0\n",
      "note_on channel=1 note=57 velocity=0 time=227\n",
      "note_on channel=1 note=64 velocity=0 time=0\n",
      "note_on channel=1 note=50 velocity=80 time=1453\n",
      "note_on channel=1 note=57 velocity=80 time=0\n",
      "note_on channel=1 note=62 velocity=80 time=0\n",
      "note_on channel=1 note=50 velocity=0 time=227\n",
      "note_on channel=1 note=57 velocity=0 time=0\n",
      "note_on channel=1 note=62 velocity=0 time=0\n",
      "note_on channel=1 note=62 velocity=96 time=13\n",
      "note_on channel=1 note=66 velocity=96 time=0\n",
      "note_on channel=1 note=62 velocity=0 time=227\n",
      "note_on channel=1 note=66 velocity=0 time=0\n",
      "note_on channel=1 note=42 velocity=80 time=493\n",
      "note_on channel=1 note=49 velocity=80 time=0\n",
      "note_on channel=1 note=58 velocity=80 time=0\n",
      "note_on channel=1 note=42 velocity=0 time=227\n",
      "note_on channel=1 note=49 velocity=0 time=0\n",
      "note_on channel=1 note=58 velocity=0 time=0\n",
      "note_on channel=1 note=66 velocity=96 time=13\n",
      "note_on channel=1 note=66 velocity=0 time=227\n",
      "note_on channel=1 note=47 velocity=49 time=493\n",
      "note_on channel=1 note=54 velocity=49 time=0\n",
      "note_on channel=1 note=62 velocity=49 time=0\n",
      "note_on channel=1 note=47 velocity=0 time=227\n",
      "note_on channel=1 note=54 velocity=0 time=0\n",
      "note_on channel=1 note=62 velocity=0 time=0\n",
      "note_on channel=1 note=50 velocity=49 time=253\n",
      "note_on channel=1 note=57 velocity=49 time=0\n",
      "note_on channel=1 note=60 velocity=49 time=0\n",
      "note_on channel=1 note=50 velocity=0 time=227\n",
      "note_on channel=1 note=57 velocity=0 time=0\n",
      "note_on channel=1 note=60 velocity=0 time=0\n",
      "note_on channel=1 note=43 velocity=49 time=253\n",
      "note_on channel=1 note=50 velocity=49 time=0\n",
      "note_on channel=1 note=59 velocity=49 time=0\n",
      "note_on channel=1 note=43 velocity=0 time=227\n",
      "note_on channel=1 note=50 velocity=0 time=0\n",
      "note_on channel=1 note=59 velocity=0 time=0\n",
      "note_on channel=1 note=47 velocity=49 time=253\n",
      "note_on channel=1 note=54 velocity=49 time=0\n",
      "note_on channel=1 note=57 velocity=49 time=0\n",
      "note_on channel=1 note=47 velocity=0 time=227\n",
      "note_on channel=1 note=54 velocity=0 time=0\n",
      "note_on channel=1 note=57 velocity=0 time=0\n",
      "note_on channel=1 note=40 velocity=49 time=253\n",
      "note_on channel=1 note=47 velocity=49 time=0\n",
      "note_on channel=1 note=55 velocity=49 time=0\n",
      "note_on channel=1 note=40 velocity=0 time=227\n",
      "note_on channel=1 note=47 velocity=0 time=0\n",
      "note_on channel=1 note=55 velocity=0 time=0\n",
      "note_on channel=1 note=43 velocity=49 time=253\n",
      "note_on channel=1 note=47 velocity=49 time=0\n",
      "note_on channel=1 note=52 velocity=49 time=0\n",
      "note_on channel=1 note=55 velocity=49 time=0\n",
      "note_on channel=1 note=43 velocity=0 time=227\n",
      "note_on channel=1 note=47 velocity=0 time=0\n",
      "note_on channel=1 note=52 velocity=0 time=0\n",
      "note_on channel=1 note=55 velocity=0 time=0\n",
      "note_on channel=1 note=45 velocity=49 time=253\n",
      "note_on channel=1 note=49 velocity=49 time=0\n",
      "note_on channel=1 note=52 velocity=49 time=0\n",
      "note_on channel=1 note=45 velocity=0 time=227\n",
      "note_on channel=1 note=49 velocity=0 time=0\n",
      "note_on channel=1 note=52 velocity=0 time=0\n",
      "note_on channel=1 note=50 velocity=33 time=733\n",
      "note_on channel=1 note=57 velocity=33 time=0\n",
      "note_on channel=1 note=62 velocity=33 time=0\n",
      "note_on channel=1 note=50 velocity=0 time=227\n",
      "note_on channel=1 note=57 velocity=0 time=0\n",
      "note_on channel=1 note=62 velocity=0 time=0\n",
      "note_on channel=1 note=62 velocity=33 time=13\n",
      "note_on channel=1 note=66 velocity=33 time=0\n",
      "note_on channel=1 note=62 velocity=0 time=227\n",
      "note_on channel=1 note=66 velocity=0 time=0\n",
      "note_on channel=1 note=45 velocity=33 time=1453\n",
      "note_on channel=1 note=52 velocity=33 time=0\n",
      "note_on channel=1 note=55 velocity=33 time=0\n",
      "note_on channel=1 note=45 velocity=0 time=227\n",
      "note_on channel=1 note=52 velocity=0 time=0\n",
      "note_on channel=1 note=55 velocity=0 time=0\n",
      "note_on channel=1 note=57 velocity=33 time=13\n",
      "note_on channel=1 note=64 velocity=33 time=0\n",
      "note_on channel=1 note=57 velocity=0 time=227\n",
      "note_on channel=1 note=64 velocity=0 time=0\n",
      "note_on channel=1 note=50 velocity=33 time=1453\n",
      "note_on channel=1 note=57 velocity=33 time=0\n",
      "note_on channel=1 note=62 velocity=33 time=0\n",
      "note_on channel=1 note=50 velocity=0 time=227\n",
      "note_on channel=1 note=57 velocity=0 time=0\n",
      "note_on channel=1 note=62 velocity=0 time=0\n",
      "note_on channel=1 note=62 velocity=33 time=13\n",
      "note_on channel=1 note=66 velocity=33 time=0\n",
      "note_on channel=1 note=62 velocity=0 time=227\n",
      "note_on channel=1 note=66 velocity=0 time=0\n",
      "note_on channel=1 note=43 velocity=33 time=3373\n",
      "note_on channel=1 note=50 velocity=33 time=0\n",
      "note_on channel=1 note=59 velocity=33 time=0\n",
      "note_on channel=1 note=43 velocity=0 time=227\n",
      "note_on channel=1 note=50 velocity=0 time=0\n",
      "note_on channel=1 note=59 velocity=0 time=0\n",
      "note_on channel=1 note=55 velocity=33 time=13\n",
      "note_on channel=1 note=62 velocity=33 time=0\n",
      "note_on channel=1 note=55 velocity=0 time=227\n",
      "note_on channel=1 note=62 velocity=0 time=0\n",
      "note_on channel=1 note=43 velocity=96 time=1453\n",
      "note_on channel=1 note=50 velocity=96 time=0\n",
      "note_on channel=1 note=59 velocity=96 time=0\n",
      "note_on channel=1 note=43 velocity=0 time=227\n",
      "note_on channel=1 note=50 velocity=0 time=0\n",
      "note_on channel=1 note=59 velocity=0 time=0\n",
      "note_on channel=1 note=55 velocity=96 time=13\n",
      "note_on channel=1 note=62 velocity=96 time=0\n",
      "control_change channel=1 control=64 value=127 time=2\n",
      "note_on channel=1 note=55 velocity=0 time=2505\n",
      "note_on channel=1 note=62 velocity=0 time=0\n",
      "note_on channel=1 note=55 velocity=96 time=133\n",
      "note_on channel=1 note=62 velocity=96 time=0\n",
      "control_change channel=1 control=64 value=0 time=1\n",
      "note_on channel=1 note=55 velocity=0 time=226\n",
      "note_on channel=1 note=62 velocity=0 time=0\n",
      "note_on channel=1 note=55 velocity=96 time=253\n",
      "note_on channel=1 note=62 velocity=96 time=0\n",
      "note_on channel=1 note=55 velocity=0 time=227\n",
      "note_on channel=1 note=62 velocity=0 time=0\n",
      "note_on channel=1 note=43 velocity=96 time=253\n",
      "note_on channel=1 note=50 velocity=96 time=0\n",
      "note_on channel=1 note=59 velocity=96 time=0\n",
      "note_on channel=1 note=43 velocity=0 time=227\n",
      "note_on channel=1 note=50 velocity=0 time=0\n",
      "note_on channel=1 note=59 velocity=0 time=0\n",
      "note_on channel=1 note=55 velocity=96 time=13\n",
      "note_on channel=1 note=62 velocity=96 time=0\n",
      "control_change channel=1 control=64 value=127 time=2\n",
      "control_change channel=1 control=64 value=0 time=1679\n",
      "note_on channel=1 note=55 velocity=0 time=826\n",
      "note_on channel=1 note=62 velocity=0 time=0\n",
      "note_on channel=1 note=55 velocity=49 time=133\n",
      "note_on channel=1 note=62 velocity=49 time=0\n",
      "note_on channel=1 note=55 velocity=0 time=227\n",
      "note_on channel=1 note=62 velocity=0 time=0\n",
      "note_on channel=1 note=55 velocity=49 time=253\n",
      "note_on channel=1 note=62 velocity=49 time=0\n",
      "note_on channel=1 note=55 velocity=0 time=227\n",
      "note_on channel=1 note=62 velocity=0 time=0\n",
      "note_on channel=1 note=55 velocity=49 time=253\n",
      "note_on channel=1 note=62 velocity=49 time=0\n",
      "note_on channel=1 note=55 velocity=0 time=227\n",
      "note_on channel=1 note=62 velocity=0 time=0\n",
      "note_on channel=1 note=31 velocity=49 time=493\n",
      "note_on channel=1 note=43 velocity=49 time=0\n",
      "control_change channel=1 control=64 value=127 time=2\n",
      "note_on channel=1 note=31 velocity=0 time=225\n",
      "note_on channel=1 note=43 velocity=0 time=0\n",
      "note_on channel=1 note=31 velocity=49 time=13\n",
      "note_on channel=1 note=43 velocity=49 time=0\n",
      "note_on channel=1 note=31 velocity=0 time=227\n",
      "note_on channel=1 note=43 velocity=0 time=0\n",
      "control_change channel=1 control=64 value=0 time=14\n",
      "note_on channel=1 note=55 velocity=49 time=479\n",
      "note_on channel=1 note=62 velocity=49 time=0\n",
      "control_change channel=1 control=64 value=127 time=2\n",
      "note_on channel=1 note=55 velocity=0 time=225\n",
      "note_on channel=1 note=62 velocity=0 time=0\n",
      "note_on channel=1 note=55 velocity=49 time=13\n",
      "note_on channel=1 note=62 velocity=49 time=0\n",
      "note_on channel=1 note=55 velocity=0 time=227\n",
      "note_on channel=1 note=62 velocity=0 time=0\n",
      "control_change channel=1 control=64 value=0 time=14\n",
      "note_on channel=1 note=31 velocity=49 time=479\n",
      "note_on channel=1 note=43 velocity=49 time=0\n",
      "control_change channel=1 control=64 value=127 time=2\n",
      "note_on channel=1 note=31 velocity=0 time=225\n",
      "note_on channel=1 note=43 velocity=0 time=0\n",
      "note_on channel=1 note=31 velocity=49 time=13\n",
      "note_on channel=1 note=43 velocity=49 time=0\n",
      "note_on channel=1 note=31 velocity=0 time=227\n",
      "note_on channel=1 note=43 velocity=0 time=0\n",
      "control_change channel=1 control=64 value=0 time=14\n",
      "note_on channel=1 note=55 velocity=49 time=479\n",
      "note_on channel=1 note=62 velocity=49 time=0\n",
      "control_change channel=1 control=64 value=127 time=2\n",
      "note_on channel=1 note=55 velocity=0 time=225\n",
      "note_on channel=1 note=62 velocity=0 time=0\n",
      "note_on channel=1 note=55 velocity=49 time=13\n",
      "note_on channel=1 note=62 velocity=49 time=0\n",
      "note_on channel=1 note=55 velocity=0 time=227\n",
      "note_on channel=1 note=62 velocity=0 time=0\n",
      "control_change channel=1 control=64 value=0 time=14\n",
      "note_on channel=1 note=55 velocity=49 time=3839\n",
      "note_on channel=1 note=62 velocity=49 time=0\n",
      "control_change channel=1 control=64 value=127 time=2\n",
      "note_on channel=1 note=55 velocity=0 time=225\n",
      "note_on channel=1 note=62 velocity=0 time=0\n",
      "note_on channel=1 note=55 velocity=49 time=13\n",
      "note_on channel=1 note=62 velocity=49 time=0\n",
      "note_on channel=1 note=55 velocity=0 time=227\n",
      "note_on channel=1 note=62 velocity=0 time=0\n",
      "note_on channel=1 note=31 velocity=9 time=13\n",
      "note_on channel=1 note=43 velocity=9 time=0\n",
      "control_change channel=1 control=64 value=0 time=1\n",
      "control_change channel=1 control=64 value=127 time=1\n",
      "note_on channel=1 note=31 velocity=0 time=225\n",
      "note_on channel=1 note=43 velocity=0 time=0\n",
      "note_on channel=1 note=31 velocity=9 time=13\n",
      "note_on channel=1 note=43 velocity=9 time=0\n",
      "note_on channel=1 note=31 velocity=0 time=227\n",
      "note_on channel=1 note=43 velocity=0 time=0\n",
      "control_change channel=1 control=64 value=0 time=14\n",
      "note_on channel=1 note=55 velocity=49 time=959\n",
      "note_on channel=1 note=62 velocity=49 time=0\n",
      "control_change channel=1 control=64 value=127 time=2\n",
      "note_on channel=1 note=55 velocity=0 time=225\n",
      "note_on channel=1 note=62 velocity=0 time=0\n",
      "note_on channel=1 note=55 velocity=49 time=13\n",
      "note_on channel=1 note=62 velocity=49 time=0\n",
      "note_on channel=1 note=55 velocity=0 time=227\n",
      "note_on channel=1 note=62 velocity=0 time=0\n",
      "note_on channel=1 note=31 velocity=9 time=13\n",
      "note_on channel=1 note=43 velocity=9 time=0\n",
      "control_change channel=1 control=64 value=0 time=1\n",
      "control_change channel=1 control=64 value=127 time=1\n",
      "note_on channel=1 note=31 velocity=0 time=225\n",
      "note_on channel=1 note=43 velocity=0 time=0\n",
      "note_on channel=1 note=31 velocity=9 time=13\n",
      "note_on channel=1 note=43 velocity=9 time=0\n",
      "note_on channel=1 note=31 velocity=0 time=227\n",
      "note_on channel=1 note=43 velocity=0 time=0\n",
      "control_change channel=1 control=64 value=0 time=14\n",
      "note_on channel=1 note=31 velocity=33 time=2639\n",
      "note_on channel=1 note=43 velocity=33 time=0\n",
      "control_change channel=1 control=64 value=127 time=2\n",
      "note_on channel=1 note=31 velocity=0 time=3189\n",
      "note_on channel=1 note=43 velocity=0 time=0\n",
      "note_on channel=1 note=31 velocity=33 time=1129\n",
      "note_on channel=1 note=43 velocity=33 time=0\n",
      "control_change channel=1 control=64 value=0 time=1\n",
      "note_on channel=1 note=31 velocity=0 time=454\n",
      "note_on channel=1 note=43 velocity=0 time=0\n",
      "note_on channel=1 note=36 velocity=40 time=8665\n",
      "note_on channel=1 note=52 velocity=40 time=0\n",
      "note_on channel=1 note=36 velocity=0 time=455\n",
      "note_on channel=1 note=52 velocity=0 time=0\n",
      "note_on channel=1 note=36 velocity=40 time=265\n",
      "note_on channel=1 note=52 velocity=40 time=0\n",
      "note_on channel=1 note=36 velocity=0 time=227\n",
      "note_on channel=1 note=52 velocity=0 time=0\n",
      "note_on channel=1 note=36 velocity=40 time=13\n",
      "note_on channel=1 note=52 velocity=40 time=0\n",
      "note_on channel=1 note=36 velocity=0 time=455\n",
      "note_on channel=1 note=52 velocity=0 time=0\n",
      "note_on channel=1 note=36 velocity=40 time=265\n",
      "note_on channel=1 note=52 velocity=40 time=0\n",
      "note_on channel=1 note=36 velocity=0 time=227\n",
      "note_on channel=1 note=52 velocity=0 time=0\n",
      "note_on channel=1 note=36 velocity=40 time=13\n",
      "note_on channel=1 note=52 velocity=40 time=0\n",
      "note_on channel=1 note=36 velocity=0 time=227\n",
      "note_on channel=1 note=52 velocity=0 time=0\n",
      "note_on channel=1 note=36 velocity=40 time=253\n",
      "note_on channel=1 note=52 velocity=40 time=0\n",
      "note_on channel=1 note=36 velocity=0 time=119\n",
      "note_on channel=1 note=52 velocity=0 time=0\n",
      "note_on channel=1 note=36 velocity=40 time=121\n",
      "note_on channel=1 note=52 velocity=40 time=0\n",
      "note_on channel=1 note=36 velocity=0 time=119\n",
      "note_on channel=1 note=52 velocity=0 time=0\n",
      "note_on channel=1 note=36 velocity=40 time=121\n",
      "note_on channel=1 note=52 velocity=40 time=0\n",
      "note_on channel=1 note=36 velocity=0 time=227\n",
      "note_on channel=1 note=52 velocity=0 time=0\n",
      "note_on channel=1 note=33 velocity=40 time=733\n",
      "note_on channel=1 note=45 velocity=40 time=0\n",
      "note_on channel=1 note=33 velocity=0 time=119\n",
      "note_on channel=1 note=45 velocity=0 time=0\n",
      "note_on channel=1 note=45 velocity=40 time=121\n",
      "note_on channel=1 note=45 velocity=0 time=59\n",
      "note_on channel=1 note=45 velocity=40 time=61\n",
      "note_on channel=1 note=45 velocity=0 time=59\n",
      "note_on channel=1 note=36 velocity=40 time=61\n",
      "note_on channel=1 note=48 velocity=40 time=0\n",
      "note_on channel=1 note=36 velocity=0 time=119\n",
      "note_on channel=1 note=48 velocity=0 time=0\n",
      "note_on channel=1 note=48 velocity=40 time=121\n",
      "note_on channel=1 note=48 velocity=0 time=59\n",
      "note_on channel=1 note=48 velocity=40 time=61\n",
      "note_on channel=1 note=48 velocity=0 time=59\n",
      "note_on channel=1 note=38 velocity=40 time=61\n",
      "note_on channel=1 note=50 velocity=40 time=0\n",
      "note_on channel=1 note=38 velocity=0 time=227\n",
      "note_on channel=1 note=50 velocity=0 time=0\n",
      "note_on channel=1 note=38 velocity=40 time=733\n",
      "note_on channel=1 note=50 velocity=40 time=0\n",
      "note_on channel=1 note=38 velocity=0 time=119\n",
      "note_on channel=1 note=50 velocity=0 time=0\n",
      "note_on channel=1 note=50 velocity=40 time=121\n",
      "note_on channel=1 note=50 velocity=0 time=59\n",
      "note_on channel=1 note=50 velocity=40 time=61\n",
      "note_on channel=1 note=50 velocity=0 time=59\n",
      "note_on channel=1 note=38 velocity=40 time=61\n",
      "note_on channel=1 note=50 velocity=40 time=0\n",
      "note_on channel=1 note=38 velocity=0 time=119\n",
      "note_on channel=1 note=50 velocity=0 time=0\n",
      "note_on channel=1 note=52 velocity=40 time=121\n",
      "note_on channel=1 note=52 velocity=0 time=59\n",
      "note_on channel=1 note=54 velocity=40 time=61\n",
      "note_on channel=1 note=54 velocity=0 time=59\n",
      "note_on channel=1 note=43 velocity=40 time=61\n",
      "note_on channel=1 note=55 velocity=40 time=0\n",
      "note_on channel=1 note=43 velocity=0 time=119\n",
      "note_on channel=1 note=55 velocity=0 time=0\n",
      "note_on channel=1 note=55 velocity=40 time=121\n",
      "note_on channel=1 note=55 velocity=0 time=59\n",
      "note_on channel=1 note=55 velocity=40 time=61\n",
      "note_on channel=1 note=55 velocity=0 time=59\n",
      "note_on channel=1 note=43 velocity=40 time=61\n",
      "note_on channel=1 note=55 velocity=40 time=0\n",
      "note_on channel=1 note=43 velocity=0 time=119\n",
      "note_on channel=1 note=55 velocity=0 time=0\n",
      "note_on channel=1 note=36 velocity=40 time=361\n",
      "note_on channel=1 note=48 velocity=40 time=0\n",
      "note_on channel=1 note=36 velocity=0 time=119\n",
      "note_on channel=1 note=48 velocity=0 time=0\n",
      "note_on channel=1 note=38 velocity=40 time=361\n",
      "note_on channel=1 note=50 velocity=40 time=0\n",
      "note_on channel=1 note=38 velocity=0 time=119\n",
      "note_on channel=1 note=50 velocity=0 time=0\n",
      "note_on channel=1 note=43 velocity=48 time=361\n",
      "note_on channel=1 note=50 velocity=48 time=0\n",
      "note_on channel=1 note=55 velocity=48 time=0\n",
      "note_on channel=1 note=43 velocity=0 time=959\n",
      "note_on channel=1 note=50 velocity=0 time=0\n",
      "note_on channel=1 note=55 velocity=0 time=0\n",
      "note_on channel=1 note=48 velocity=49 time=1\n",
      "note_on channel=1 note=48 velocity=0 time=3647\n",
      "note_on channel=1 note=45 velocity=49 time=193\n",
      "note_on channel=1 note=45 velocity=0 time=455\n",
      "note_on channel=1 note=48 velocity=49 time=25\n",
      "note_on channel=1 note=48 velocity=0 time=455\n",
      "note_on channel=1 note=50 velocity=49 time=25\n",
      "note_on channel=1 note=50 velocity=0 time=1823\n",
      "note_on channel=1 note=55 velocity=49 time=97\n",
      "note_on channel=1 note=55 velocity=0 time=911\n",
      "note_on channel=1 note=48 velocity=49 time=49\n",
      "note_on channel=1 note=48 velocity=0 time=455\n",
      "note_on channel=1 note=50 velocity=49 time=25\n",
      "note_on channel=1 note=50 velocity=0 time=455\n",
      "note_on channel=1 note=55 velocity=49 time=25\n",
      "note_on channel=1 note=55 velocity=0 time=911\n",
      "note_on channel=1 note=50 velocity=49 time=49\n",
      "note_on channel=1 note=47 velocity=49 time=0\n",
      "note_on channel=1 note=59 velocity=49 time=0\n",
      "note_on channel=1 note=47 velocity=0 time=455\n",
      "note_on channel=1 note=59 velocity=0 time=0\n",
      "note_on channel=1 note=48 velocity=49 time=25\n",
      "note_on channel=1 note=60 velocity=49 time=0\n",
      "note_on channel=1 note=48 velocity=0 time=455\n",
      "note_on channel=1 note=60 velocity=0 time=0\n",
      "note_on channel=1 note=47 velocity=49 time=25\n",
      "note_on channel=1 note=59 velocity=49 time=0\n",
      "note_on channel=1 note=47 velocity=0 time=455\n",
      "note_on channel=1 note=59 velocity=0 time=0\n",
      "note_on channel=1 note=45 velocity=49 time=25\n",
      "note_on channel=1 note=57 velocity=49 time=0\n",
      "note_on channel=1 note=50 velocity=0 time=155\n",
      "note_on channel=1 note=52 velocity=49 time=85\n",
      "note_on channel=1 note=52 velocity=0 time=113\n",
      "note_on channel=1 note=54 velocity=49 time=7\n",
      "note_on channel=1 note=45 velocity=0 time=95\n",
      "note_on channel=1 note=57 velocity=0 time=0\n",
      "note_on channel=1 note=54 velocity=0 time=18\n",
      "note_on channel=1 note=43 velocity=49 time=7\n",
      "note_on channel=1 note=55 velocity=49 time=0\n",
      "note_on channel=1 note=43 velocity=0 time=455\n",
      "note_on channel=1 note=55 velocity=0 time=0\n",
      "note_on channel=1 note=42 velocity=49 time=25\n",
      "note_on channel=1 note=54 velocity=49 time=0\n",
      "note_on channel=1 note=42 velocity=0 time=455\n",
      "note_on channel=1 note=54 velocity=0 time=0\n",
      "note_on channel=1 note=40 velocity=49 time=25\n",
      "note_on channel=1 note=52 velocity=49 time=0\n",
      "note_on channel=1 note=40 velocity=0 time=227\n",
      "note_on channel=1 note=52 velocity=0 time=0\n",
      "note_on channel=1 note=45 velocity=49 time=13\n",
      "note_on channel=1 note=45 velocity=0 time=227\n",
      "note_on channel=1 note=38 velocity=49 time=13\n",
      "note_on channel=1 note=50 velocity=49 time=0\n",
      "note_on channel=1 note=38 velocity=0 time=227\n",
      "note_on channel=1 note=50 velocity=0 time=0\n",
      "note_on channel=1 note=59 velocity=49 time=253\n",
      "note_on channel=1 note=59 velocity=0 time=455\n",
      "note_on channel=1 note=60 velocity=49 time=25\n",
      "note_on channel=1 note=60 velocity=0 time=455\n",
      "note_on channel=1 note=59 velocity=49 time=25\n",
      "note_on channel=1 note=59 velocity=0 time=455\n",
      "note_on channel=1 note=57 velocity=49 time=25\n",
      "note_on channel=1 note=57 velocity=0 time=455\n",
      "note_on channel=1 note=55 velocity=49 time=25\n",
      "note_on channel=1 note=55 velocity=0 time=455\n",
      "note_on channel=1 note=54 velocity=49 time=25\n",
      "note_on channel=1 note=54 velocity=0 time=455\n",
      "note_on channel=1 note=52 velocity=49 time=25\n",
      "note_on channel=1 note=52 velocity=0 time=227\n",
      "note_on channel=1 note=57 velocity=49 time=13\n",
      "note_on channel=1 note=57 velocity=0 time=227\n",
      "note_on channel=1 note=50 velocity=49 time=13\n",
      "note_on channel=1 note=50 velocity=0 time=227\n",
      "note_on channel=1 note=40 velocity=49 time=253\n",
      "note_on channel=1 note=40 velocity=0 time=227\n",
      "note_on channel=1 note=33 velocity=49 time=13\n",
      "note_on channel=1 note=45 velocity=49 time=0\n",
      "note_on channel=1 note=33 velocity=0 time=227\n",
      "note_on channel=1 note=45 velocity=0 time=0\n",
      "note_on channel=1 note=38 velocity=49 time=13\n",
      "note_on channel=1 note=38 velocity=0 time=227\n",
      "note_on channel=1 note=45 velocity=49 time=733\n",
      "note_on channel=1 note=55 velocity=49 time=0\n",
      "note_on channel=1 note=45 velocity=0 time=227\n",
      "note_on channel=1 note=55 velocity=0 time=0\n",
      "note_on channel=1 note=50 velocity=49 time=13\n",
      "note_on channel=1 note=54 velocity=49 time=0\n",
      "note_on channel=1 note=50 velocity=0 time=227\n",
      "note_on channel=1 note=54 velocity=0 time=0\n",
      "note_on channel=1 note=67 velocity=49 time=13\n",
      "note_on channel=1 note=67 velocity=0 time=113\n",
      "note_on channel=1 note=64 velocity=49 time=7\n",
      "note_on channel=1 note=64 velocity=0 time=113\n",
      "note_on channel=1 note=62 velocity=49 time=7\n",
      "note_on channel=1 note=62 velocity=0 time=119\n",
      "note_on channel=1 note=67 velocity=49 time=121\n",
      "note_on channel=1 note=67 velocity=0 time=113\n",
      "note_on channel=1 note=64 velocity=49 time=7\n",
      "note_on channel=1 note=64 velocity=0 time=113\n",
      "note_on channel=1 note=62 velocity=49 time=7\n",
      "note_on channel=1 note=62 velocity=0 time=119\n",
      "note_on channel=1 note=48 velocity=102 time=121\n",
      "note_on channel=1 note=52 velocity=102 time=0\n",
      "note_on channel=1 note=55 velocity=102 time=0\n",
      "note_on channel=1 note=60 velocity=102 time=0\n",
      "control_change channel=1 control=64 value=127 time=2\n",
      "note_on channel=1 note=48 velocity=0 time=225\n",
      "note_on channel=1 note=52 velocity=0 time=0\n",
      "note_on channel=1 note=55 velocity=0 time=0\n",
      "note_on channel=1 note=60 velocity=0 time=0\n",
      "note_on channel=1 note=36 velocity=106 time=13\n",
      "note_on channel=1 note=48 velocity=106 time=0\n",
      "note_on channel=1 note=36 velocity=0 time=455\n",
      "note_on channel=1 note=48 velocity=0 time=0\n",
      "note_on channel=1 note=48 velocity=102 time=25\n",
      "note_on channel=1 note=52 velocity=102 time=0\n",
      "note_on channel=1 note=55 velocity=102 time=0\n",
      "note_on channel=1 note=60 velocity=102 time=0\n",
      "control_change channel=1 control=64 value=0 time=1\n",
      "note_on channel=1 note=48 velocity=0 time=226\n",
      "note_on channel=1 note=52 velocity=0 time=0\n",
      "note_on channel=1 note=55 velocity=0 time=0\n",
      "note_on channel=1 note=60 velocity=0 time=0\n",
      "note_on channel=1 note=48 velocity=102 time=13\n",
      "note_on channel=1 note=52 velocity=102 time=0\n",
      "note_on channel=1 note=55 velocity=102 time=0\n",
      "note_on channel=1 note=60 velocity=102 time=0\n",
      "control_change channel=1 control=64 value=127 time=2\n",
      "note_on channel=1 note=48 velocity=0 time=225\n",
      "note_on channel=1 note=52 velocity=0 time=0\n",
      "note_on channel=1 note=55 velocity=0 time=0\n",
      "note_on channel=1 note=60 velocity=0 time=0\n",
      "note_on channel=1 note=36 velocity=106 time=13\n",
      "note_on channel=1 note=48 velocity=106 time=0\n",
      "note_on channel=1 note=36 velocity=0 time=455\n",
      "note_on channel=1 note=48 velocity=0 time=0\n",
      "note_on channel=1 note=48 velocity=102 time=25\n",
      "note_on channel=1 note=52 velocity=102 time=0\n",
      "note_on channel=1 note=55 velocity=102 time=0\n",
      "note_on channel=1 note=60 velocity=102 time=0\n",
      "control_change channel=1 control=64 value=0 time=1\n",
      "note_on channel=1 note=48 velocity=0 time=226\n",
      "note_on channel=1 note=52 velocity=0 time=0\n",
      "note_on channel=1 note=55 velocity=0 time=0\n",
      "note_on channel=1 note=60 velocity=0 time=0\n",
      "note_on channel=1 note=48 velocity=102 time=13\n",
      "note_on channel=1 note=52 velocity=102 time=0\n",
      "note_on channel=1 note=55 velocity=102 time=0\n",
      "note_on channel=1 note=60 velocity=102 time=0\n",
      "control_change channel=1 control=64 value=127 time=2\n",
      "note_on channel=1 note=48 velocity=0 time=225\n",
      "note_on channel=1 note=52 velocity=0 time=0\n",
      "note_on channel=1 note=55 velocity=0 time=0\n",
      "note_on channel=1 note=60 velocity=0 time=0\n",
      "note_on channel=1 note=36 velocity=106 time=13\n",
      "note_on channel=1 note=48 velocity=106 time=0\n",
      "note_on channel=1 note=36 velocity=0 time=227\n",
      "note_on channel=1 note=48 velocity=0 time=0\n",
      "note_on channel=1 note=48 velocity=102 time=13\n",
      "note_on channel=1 note=52 velocity=102 time=0\n",
      "note_on channel=1 note=55 velocity=102 time=0\n",
      "note_on channel=1 note=60 velocity=102 time=0\n",
      "control_change channel=1 control=64 value=0 time=1\n",
      "control_change channel=1 control=64 value=127 time=1\n",
      "note_on channel=1 note=48 velocity=0 time=225\n",
      "note_on channel=1 note=52 velocity=0 time=0\n",
      "note_on channel=1 note=55 velocity=0 time=0\n",
      "note_on channel=1 note=60 velocity=0 time=0\n",
      "note_on channel=1 note=36 velocity=106 time=13\n",
      "note_on channel=1 note=48 velocity=106 time=0\n",
      "note_on channel=1 note=36 velocity=0 time=227\n",
      "note_on channel=1 note=48 velocity=0 time=0\n",
      "note_on channel=1 note=48 velocity=106 time=13\n",
      "note_on channel=1 note=52 velocity=106 time=0\n",
      "note_on channel=1 note=55 velocity=106 time=0\n",
      "note_on channel=1 note=60 velocity=106 time=0\n",
      "control_change channel=1 control=64 value=0 time=1\n",
      "control_change channel=1 control=64 value=127 time=1\n",
      "note_on channel=1 note=48 velocity=0 time=225\n",
      "note_on channel=1 note=52 velocity=0 time=0\n",
      "note_on channel=1 note=55 velocity=0 time=0\n",
      "note_on channel=1 note=60 velocity=0 time=0\n",
      "note_on channel=1 note=36 velocity=106 time=13\n",
      "note_on channel=1 note=48 velocity=106 time=0\n",
      "note_on channel=1 note=36 velocity=0 time=227\n",
      "note_on channel=1 note=48 velocity=0 time=0\n",
      "note_on channel=1 note=48 velocity=96 time=13\n",
      "note_on channel=1 note=48 velocity=0 time=0\n",
      "note_on channel=1 note=48 velocity=96 time=0\n",
      "control_change channel=1 control=64 value=0 time=1\n",
      "control_change channel=1 control=64 value=127 time=1\n",
      "note_on channel=1 note=52 velocity=96 time=118\n",
      "note_on channel=1 note=52 velocity=0 time=113\n",
      "note_on channel=1 note=55 velocity=96 time=7\n",
      "note_on channel=1 note=55 velocity=0 time=113\n",
      "note_on channel=1 note=60 velocity=96 time=7\n",
      "control_change channel=1 control=64 value=0 time=121\n",
      "note_on channel=1 note=48 velocity=0 time=202\n",
      "note_on channel=1 note=60 velocity=0 time=18\n",
      "note_on channel=1 note=33 velocity=106 time=19\n",
      "note_on channel=1 note=45 velocity=106 time=0\n",
      "note_on channel=1 note=33 velocity=0 time=455\n",
      "note_on channel=1 note=45 velocity=0 time=0\n",
      "note_on channel=1 note=36 velocity=90 time=25\n",
      "note_on channel=1 note=48 velocity=90 time=0\n",
      "control_change channel=1 control=64 value=127 time=2\n",
      "note_on channel=1 note=36 velocity=0 time=453\n",
      "note_on channel=1 note=48 velocity=0 time=0\n",
      "note_on channel=1 note=38 velocity=90 time=25\n",
      "note_on channel=1 note=50 velocity=90 time=0\n",
      "control_change channel=1 control=64 value=0 time=1\n",
      "note_on channel=1 note=38 velocity=0 time=226\n",
      "note_on channel=1 note=50 velocity=0 time=0\n",
      "note_on channel=1 note=50 velocity=90 time=13\n",
      "note_on channel=1 note=50 velocity=0 time=0\n",
      "note_on channel=1 note=50 velocity=90 time=0\n",
      "control_change channel=1 control=64 value=127 time=2\n",
      "note_on channel=1 note=54 velocity=90 time=118\n",
      "note_on channel=1 note=54 velocity=0 time=113\n",
      "note_on channel=1 note=57 velocity=90 time=7\n",
      "note_on channel=1 note=57 velocity=0 time=113\n",
      "note_on channel=1 note=62 velocity=90 time=7\n",
      "control_change channel=1 control=64 value=0 time=121\n",
      "note_on channel=1 note=50 velocity=0 time=202\n",
      "note_on channel=1 note=62 velocity=0 time=18\n",
      "note_on channel=1 note=38 velocity=90 time=19\n",
      "note_on channel=1 note=50 velocity=90 time=0\n",
      "note_on channel=1 note=38 velocity=0 time=455\n",
      "note_on channel=1 note=50 velocity=0 time=0\n",
      "note_on channel=1 note=38 velocity=90 time=25\n",
      "note_on channel=1 note=50 velocity=90 time=0\n",
      "control_change channel=1 control=64 value=127 time=2\n",
      "note_on channel=1 note=38 velocity=0 time=453\n",
      "note_on channel=1 note=50 velocity=0 time=0\n",
      "note_on channel=1 note=43 velocity=90 time=25\n",
      "note_on channel=1 note=55 velocity=90 time=0\n",
      "control_change channel=1 control=64 value=0 time=1\n",
      "note_on channel=1 note=43 velocity=0 time=454\n",
      "note_on channel=1 note=55 velocity=0 time=0\n",
      "note_on channel=1 note=40 velocity=90 time=25\n",
      "note_on channel=1 note=52 velocity=90 time=0\n",
      "note_on channel=1 note=40 velocity=0 time=227\n",
      "note_on channel=1 note=52 velocity=0 time=0\n",
      "note_on channel=1 note=36 velocity=90 time=13\n",
      "note_on channel=1 note=48 velocity=90 time=0\n",
      "control_change channel=1 control=64 value=127 time=2\n",
      "note_on channel=1 note=36 velocity=0 time=225\n",
      "note_on channel=1 note=48 velocity=0 time=0\n",
      "note_on channel=1 note=48 velocity=90 time=13\n",
      "note_on channel=1 note=60 velocity=90 time=0\n",
      "note_on channel=1 note=48 velocity=0 time=455\n",
      "note_on channel=1 note=60 velocity=0 time=0\n",
      "note_on channel=1 note=50 velocity=90 time=25\n",
      "note_on channel=1 note=62 velocity=90 time=0\n",
      "control_change channel=1 control=64 value=0 time=1\n",
      "note_on channel=1 note=50 velocity=0 time=226\n",
      "note_on channel=1 note=62 velocity=0 time=0\n",
      "note_on channel=1 note=47 velocity=106 time=13\n",
      "note_on channel=1 note=59 velocity=106 time=0\n",
      "control_change channel=1 control=64 value=127 time=2\n",
      "note_on channel=1 note=47 velocity=0 time=111\n",
      "note_on channel=1 note=59 velocity=0 time=0\n",
      "note_on channel=1 note=50 velocity=80 time=7\n",
      "note_on channel=1 note=50 velocity=0 time=113\n",
      "note_on channel=1 note=52 velocity=80 time=7\n",
      "note_on channel=1 note=52 velocity=0 time=113\n",
      "note_on channel=1 note=54 velocity=80 time=7\n",
      "note_on channel=1 note=54 velocity=0 time=113\n",
      "note_on channel=1 note=55 velocity=80 time=7\n",
      "note_on channel=1 note=55 velocity=0 time=113\n",
      "note_on channel=1 note=57 velocity=80 time=7\n",
      "note_on channel=1 note=57 velocity=0 time=113\n",
      "note_on channel=1 note=59 velocity=80 time=7\n",
      "control_change channel=1 control=64 value=0 time=1\n",
      "note_on channel=1 note=59 velocity=0 time=112\n",
      "note_on channel=1 note=55 velocity=80 time=7\n",
      "note_on channel=1 note=55 velocity=0 time=113\n",
      "note_on channel=1 note=52 velocity=80 time=7\n",
      "control_change channel=1 control=64 value=127 time=2\n",
      "note_on channel=1 note=52 velocity=0 time=111\n",
      "note_on channel=1 note=55 velocity=80 time=7\n",
      "note_on channel=1 note=55 velocity=0 time=113\n",
      "note_on channel=1 note=54 velocity=80 time=7\n",
      "note_on channel=1 note=54 velocity=0 time=113\n",
      "note_on channel=1 note=57 velocity=80 time=7\n",
      "control_change channel=1 control=64 value=0 time=1\n",
      "note_on channel=1 note=57 velocity=0 time=112\n",
      "note_on channel=1 note=55 velocity=80 time=7\n",
      "control_change channel=1 control=64 value=127 time=2\n",
      "note_on channel=1 note=55 velocity=0 time=111\n",
      "note_on channel=1 note=54 velocity=80 time=7\n",
      "note_on channel=1 note=54 velocity=0 time=113\n",
      "note_on channel=1 note=52 velocity=80 time=7\n",
      "note_on channel=1 note=52 velocity=0 time=113\n",
      "note_on channel=1 note=50 velocity=80 time=7\n",
      "control_change channel=1 control=64 value=0 time=1\n",
      "note_on channel=1 note=50 velocity=0 time=112\n",
      "note_on channel=1 note=48 velocity=80 time=7\n",
      "control_change channel=1 control=64 value=127 time=2\n",
      "note_on channel=1 note=48 velocity=0 time=111\n",
      "note_on channel=1 note=47 velocity=80 time=7\n",
      "note_on channel=1 note=47 velocity=0 time=113\n",
      "note_on channel=1 note=48 velocity=80 time=7\n",
      "note_on channel=1 note=48 velocity=0 time=113\n",
      "note_on channel=1 note=50 velocity=80 time=7\n",
      "control_change channel=1 control=64 value=0 time=1\n",
      "note_on channel=1 note=50 velocity=0 time=112\n",
      "note_on channel=1 note=47 velocity=80 time=7\n",
      "control_change channel=1 control=64 value=127 time=2\n",
      "note_on channel=1 note=47 velocity=0 time=111\n",
      "note_on channel=1 note=43 velocity=80 time=7\n",
      "note_on channel=1 note=43 velocity=0 time=113\n",
      "note_on channel=1 note=45 velocity=80 time=7\n",
      "note_on channel=1 note=45 velocity=0 time=113\n",
      "note_on channel=1 note=47 velocity=80 time=7\n",
      "control_change channel=1 control=64 value=0 time=1\n",
      "note_on channel=1 note=47 velocity=0 time=112\n",
      "note_on channel=1 note=48 velocity=80 time=7\n",
      "control_change channel=1 control=64 value=127 time=2\n",
      "note_on channel=1 note=48 velocity=0 time=111\n",
      "note_on channel=1 note=45 velocity=80 time=7\n",
      "note_on channel=1 note=45 velocity=0 time=113\n",
      "note_on channel=1 note=47 velocity=80 time=7\n",
      "note_on channel=1 note=47 velocity=0 time=113\n",
      "note_on channel=1 note=48 velocity=80 time=7\n",
      "note_on channel=1 note=48 velocity=0 time=113\n",
      "note_on channel=1 note=50 velocity=80 time=7\n",
      "control_change channel=1 control=64 value=0 time=1\n",
      "note_on channel=1 note=50 velocity=0 time=226\n",
      "note_on channel=1 note=38 velocity=80 time=13\n",
      "note_on channel=1 note=50 velocity=80 time=0\n",
      "control_change channel=1 control=64 value=127 time=2\n",
      "note_on channel=1 note=38 velocity=0 time=225\n",
      "note_on channel=1 note=50 velocity=0 time=0\n",
      "control_change channel=1 control=64 value=0 time=14\n",
      "note_on channel=1 note=43 velocity=80 time=3839\n",
      "note_on channel=1 note=55 velocity=80 time=0\n",
      "control_change channel=1 control=64 value=127 time=2\n",
      "note_on channel=1 note=43 velocity=0 time=111\n",
      "note_on channel=1 note=55 velocity=0 time=0\n",
      "note_on channel=1 note=46 velocity=80 time=7\n",
      "note_on channel=1 note=46 velocity=0 time=113\n",
      "note_on channel=1 note=48 velocity=80 time=7\n",
      "note_on channel=1 note=48 velocity=0 time=113\n",
      "note_on channel=1 note=50 velocity=80 time=7\n",
      "note_on channel=1 note=50 velocity=0 time=113\n",
      "note_on channel=1 note=51 velocity=80 time=7\n",
      "control_change channel=1 control=64 value=0 time=1\n",
      "note_on channel=1 note=51 velocity=0 time=112\n",
      "note_on channel=1 note=53 velocity=80 time=7\n",
      "note_on channel=1 note=53 velocity=0 time=113\n",
      "note_on channel=1 note=55 velocity=80 time=7\n",
      "note_on channel=1 note=55 velocity=0 time=113\n",
      "note_on channel=1 note=51 velocity=80 time=7\n",
      "note_on channel=1 note=51 velocity=0 time=113\n",
      "note_on channel=1 note=53 velocity=80 time=7\n",
      "control_change channel=1 control=64 value=127 time=2\n",
      "note_on channel=1 note=53 velocity=0 time=111\n",
      "note_on channel=1 note=46 velocity=80 time=7\n",
      "note_on channel=1 note=46 velocity=0 time=113\n",
      "note_on channel=1 note=48 velocity=80 time=7\n",
      "note_on channel=1 note=48 velocity=0 time=113\n",
      "note_on channel=1 note=50 velocity=80 time=7\n",
      "control_change channel=1 control=64 value=0 time=1\n",
      "note_on channel=1 note=50 velocity=0 time=112\n",
      "note_on channel=1 note=51 velocity=80 time=7\n",
      "control_change channel=1 control=64 value=127 time=2\n",
      "note_on channel=1 note=51 velocity=0 time=111\n",
      "note_on channel=1 note=50 velocity=80 time=7\n",
      "note_on channel=1 note=50 velocity=0 time=113\n",
      "note_on channel=1 note=48 velocity=80 time=7\n",
      "note_on channel=1 note=48 velocity=0 time=113\n",
      "note_on channel=1 note=46 velocity=80 time=7\n",
      "control_change channel=1 control=64 value=0 time=1\n",
      "note_on channel=1 note=46 velocity=0 time=112\n",
      "note_on channel=1 note=44 velocity=80 time=7\n",
      "control_change channel=1 control=64 value=127 time=2\n",
      "note_on channel=1 note=44 velocity=0 time=111\n",
      "note_on channel=1 note=43 velocity=80 time=7\n",
      "note_on channel=1 note=43 velocity=0 time=113\n",
      "note_on channel=1 note=44 velocity=80 time=7\n",
      "note_on channel=1 note=44 velocity=0 time=113\n",
      "note_on channel=1 note=46 velocity=80 time=7\n",
      "control_change channel=1 control=64 value=0 time=1\n",
      "note_on channel=1 note=46 velocity=0 time=112\n",
      "note_on channel=1 note=43 velocity=80 time=7\n",
      "control_change channel=1 control=64 value=127 time=2\n",
      "note_on channel=1 note=43 velocity=0 time=111\n",
      "note_on channel=1 note=39 velocity=80 time=7\n",
      "note_on channel=1 note=39 velocity=0 time=113\n",
      "note_on channel=1 note=41 velocity=80 time=7\n",
      "note_on channel=1 note=41 velocity=0 time=113\n",
      "note_on channel=1 note=43 velocity=80 time=7\n",
      "control_change channel=1 control=64 value=0 time=1\n",
      "note_on channel=1 note=43 velocity=0 time=112\n",
      "note_on channel=1 note=44 velocity=80 time=7\n",
      "control_change channel=1 control=64 value=127 time=2\n",
      "note_on channel=1 note=44 velocity=0 time=111\n",
      "note_on channel=1 note=41 velocity=80 time=7\n",
      "note_on channel=1 note=41 velocity=0 time=113\n",
      "note_on channel=1 note=43 velocity=80 time=7\n",
      "note_on channel=1 note=43 velocity=0 time=113\n",
      "note_on channel=1 note=44 velocity=80 time=7\n",
      "control_change channel=1 control=64 value=0 time=1\n",
      "note_on channel=1 note=44 velocity=0 time=112\n",
      "note_on channel=1 note=46 velocity=80 time=7\n",
      "note_on channel=1 note=46 velocity=0 time=227\n",
      "note_on channel=1 note=56 velocity=80 time=13\n",
      "note_on channel=1 note=58 velocity=80 time=0\n",
      "control_change channel=1 control=64 value=127 time=2\n",
      "note_on channel=1 note=56 velocity=0 time=225\n",
      "note_on channel=1 note=58 velocity=0 time=0\n",
      "control_change channel=1 control=64 value=0 time=14\n",
      "note_on channel=1 note=34 velocity=49 time=3599\n",
      "note_on channel=1 note=46 velocity=49 time=0\n",
      "note_on channel=1 note=34 velocity=0 time=227\n",
      "note_on channel=1 note=46 velocity=0 time=0\n",
      "note_on channel=1 note=39 velocity=90 time=13\n",
      "note_on channel=1 note=51 velocity=90 time=0\n",
      "control_change channel=1 control=64 value=127 time=2\n",
      "note_on channel=1 note=39 velocity=0 time=225\n",
      "note_on channel=1 note=51 velocity=0 time=0\n",
      "note_on channel=1 note=51 velocity=49 time=13\n",
      "note_on channel=1 note=51 velocity=0 time=0\n",
      "note_on channel=1 note=51 velocity=49 time=0\n",
      "note_on channel=1 note=55 velocity=49 time=240\n",
      "note_on channel=1 note=55 velocity=0 time=0\n",
      "note_on channel=1 note=55 velocity=49 time=0\n",
      "note_on channel=1 note=58 velocity=49 time=240\n",
      "note_on channel=1 note=58 velocity=0 time=227\n",
      "note_on channel=1 note=63 velocity=49 time=13\n",
      "control_change channel=1 control=64 value=0 time=1\n",
      "note_on channel=1 note=63 velocity=0 time=226\n",
      "note_on channel=1 note=63 velocity=126 time=733\n",
      "note_on channel=1 note=63 velocity=0 time=911\n",
      "note_on channel=1 note=63 velocity=49 time=49\n",
      "note_on channel=1 note=63 velocity=0 time=227\n",
      "note_on channel=1 note=58 velocity=49 time=13\n",
      "note_on channel=1 note=58 velocity=0 time=227\n",
      "note_on channel=1 note=55 velocity=0 time=13\n",
      "note_on channel=1 note=55 velocity=49 time=0\n",
      "note_on channel=1 note=51 velocity=0 time=240\n",
      "note_on channel=1 note=51 velocity=49 time=0\n",
      "note_on channel=1 note=55 velocity=0 time=71\n",
      "note_on channel=1 note=51 velocity=0 time=156\n",
      "note_on channel=1 note=50 velocity=90 time=13\n",
      "note_on channel=1 note=38 velocity=90 time=0\n",
      "note_on channel=1 note=50 velocity=0 time=0\n",
      "note_on channel=1 note=50 velocity=90 time=0\n",
      "control_change channel=1 control=64 value=127 time=2\n",
      "note_on channel=1 note=53 velocity=49 time=238\n",
      "note_on channel=1 note=53 velocity=0 time=0\n",
      "note_on channel=1 note=53 velocity=49 time=0\n",
      "note_on channel=1 note=58 velocity=49 time=240\n",
      "note_on channel=1 note=58 velocity=0 time=0\n",
      "note_on channel=1 note=58 velocity=49 time=0\n",
      "note_on channel=1 note=62 velocity=49 time=240\n",
      "note_on channel=1 note=38 velocity=0 time=191\n",
      "note_on channel=1 note=50 velocity=0 time=0\n",
      "note_on channel=1 note=62 velocity=0 time=36\n",
      "note_on channel=1 note=50 velocity=49 time=13\n",
      "control_change channel=1 control=64 value=0 time=961\n",
      "note_on channel=1 note=56 velocity=49 time=959\n",
      "note_on channel=1 note=56 velocity=0 time=227\n",
      "note_on channel=1 note=53 velocity=0 time=13\n",
      "note_on channel=1 note=53 velocity=49 time=0\n",
      "note_on channel=1 note=50 velocity=0 time=240\n",
      "note_on channel=1 note=50 velocity=49 time=0\n",
      "note_on channel=1 note=58 velocity=0 time=240\n",
      "note_on channel=1 note=58 velocity=49 time=0\n",
      "note_on channel=1 note=53 velocity=0 time=59\n",
      "note_on channel=1 note=50 velocity=0 time=36\n",
      "note_on channel=1 note=58 velocity=0 time=132\n",
      "note_on channel=1 note=63 velocity=33 time=13\n",
      "note_on channel=1 note=51 velocity=33 time=0\n",
      "note_on channel=1 note=58 velocity=33 time=0\n",
      "note_on channel=1 note=63 velocity=0 time=227\n",
      "note_on channel=1 note=51 velocity=0 time=0\n",
      "note_on channel=1 note=58 velocity=0 time=0\n",
      "note_on channel=1 note=63 velocity=33 time=253\n",
      "note_on channel=1 note=67 velocity=33 time=0\n",
      "note_on channel=1 note=63 velocity=0 time=119\n",
      "note_on channel=1 note=67 velocity=0 time=0\n",
      "note_on channel=1 note=63 velocity=33 time=121\n",
      "note_on channel=1 note=67 velocity=33 time=0\n",
      "note_on channel=1 note=63 velocity=0 time=119\n",
      "note_on channel=1 note=67 velocity=0 time=0\n",
      "note_on channel=1 note=63 velocity=33 time=121\n",
      "note_on channel=1 note=67 velocity=33 time=0\n",
      "note_on channel=1 note=63 velocity=0 time=119\n",
      "note_on channel=1 note=67 velocity=0 time=0\n",
      "note_on channel=1 note=60 velocity=33 time=841\n",
      "note_on channel=1 note=48 velocity=33 time=0\n",
      "note_on channel=1 note=60 velocity=0 time=119\n",
      "note_on channel=1 note=48 velocity=0 time=108\n",
      "note_on channel=1 note=60 velocity=33 time=13\n",
      "note_on channel=1 note=60 velocity=0 time=119\n",
      "note_on channel=1 note=63 velocity=33 time=121\n",
      "note_on channel=1 note=51 velocity=33 time=0\n",
      "note_on channel=1 note=63 velocity=0 time=119\n",
      "note_on channel=1 note=51 velocity=0 time=108\n",
      "note_on channel=1 note=63 velocity=33 time=13\n",
      "note_on channel=1 note=63 velocity=0 time=119\n",
      "note_on channel=1 note=53 velocity=33 time=121\n",
      "note_on channel=1 note=65 velocity=33 time=0\n",
      "note_on channel=1 note=53 velocity=0 time=0\n",
      "note_on channel=1 note=53 velocity=33 time=0\n",
      "note_on channel=1 note=65 velocity=0 time=227\n",
      "note_on channel=1 note=53 velocity=0 time=0\n",
      "note_on channel=1 note=34 velocity=80 time=733\n",
      "note_on channel=1 note=46 velocity=80 time=0\n",
      "control_change channel=1 control=64 value=127 time=2\n",
      "note_on channel=1 note=34 velocity=0 time=225\n",
      "note_on channel=1 note=46 velocity=0 time=0\n",
      "note_on channel=1 note=46 velocity=49 time=13\n",
      "note_on channel=1 note=46 velocity=0 time=0\n",
      "note_on channel=1 note=46 velocity=49 time=0\n",
      "note_on channel=1 note=49 velocity=49 time=240\n",
      "note_on channel=1 note=49 velocity=0 time=0\n",
      "note_on channel=1 note=49 velocity=49 time=0\n",
      "note_on channel=1 note=53 velocity=49 time=240\n",
      "note_on channel=1 note=53 velocity=0 time=227\n",
      "note_on channel=1 note=58 velocity=49 time=13\n",
      "control_change channel=1 control=64 value=0 time=1\n",
      "note_on channel=1 note=46 velocity=0 time=874\n",
      "note_on channel=1 note=46 velocity=80 time=85\n",
      "note_on channel=1 note=58 velocity=0 time=960\n",
      "note_on channel=1 note=58 velocity=49 time=0\n",
      "note_on channel=1 note=53 velocity=49 time=240\n",
      "note_on channel=1 note=53 velocity=0 time=227\n",
      "note_on channel=1 note=49 velocity=0 time=13\n",
      "note_on channel=1 note=49 velocity=49 time=0\n",
      "note_on channel=1 note=46 velocity=0 time=240\n",
      "note_on channel=1 note=46 velocity=49 time=0\n",
      "note_on channel=1 note=49 velocity=0 time=71\n",
      "note_on channel=1 note=58 velocity=0 time=24\n",
      "note_on channel=1 note=46 velocity=0 time=132\n",
      "note_on channel=1 note=45 velocity=96 time=13\n",
      "note_on channel=1 note=33 velocity=96 time=0\n",
      "control_change channel=1 control=64 value=127 time=2\n",
      "note_on channel=1 note=45 velocity=0 time=225\n",
      "note_on channel=1 note=48 velocity=49 time=13\n",
      "note_on channel=1 note=48 velocity=0 time=0\n",
      "note_on channel=1 note=48 velocity=49 time=0\n",
      "note_on channel=1 note=53 velocity=49 time=240\n",
      "note_on channel=1 note=53 velocity=0 time=0\n",
      "note_on channel=1 note=53 velocity=49 time=0\n",
      "note_on channel=1 note=57 velocity=49 time=240\n",
      "note_on channel=1 note=33 velocity=0 time=191\n",
      "note_on channel=1 note=57 velocity=0 time=36\n",
      "note_on channel=1 note=45 velocity=49 time=13\n",
      "control_change channel=1 control=64 value=0 time=1\n",
      "note_on channel=1 note=48 velocity=0 time=2159\n",
      "note_on channel=1 note=48 velocity=49 time=0\n",
      "note_on channel=1 note=45 velocity=0 time=240\n",
      "note_on channel=1 note=45 velocity=49 time=0\n",
      "note_on channel=1 note=53 velocity=0 time=240\n",
      "note_on channel=1 note=53 velocity=49 time=0\n",
      "note_on channel=1 note=48 velocity=0 time=59\n",
      "note_on channel=1 note=45 velocity=0 time=36\n",
      "note_on channel=1 note=53 velocity=0 time=132\n",
      "note_on channel=1 note=46 velocity=33 time=13\n",
      "note_on channel=1 note=58 velocity=33 time=0\n",
      "note_on channel=1 note=46 velocity=0 time=227\n",
      "note_on channel=1 note=58 velocity=0 time=0\n",
      "note_on channel=1 note=61 velocity=33 time=253\n",
      "note_on channel=1 note=65 velocity=33 time=0\n",
      "note_on channel=1 note=61 velocity=0 time=227\n",
      "note_on channel=1 note=65 velocity=0 time=0\n",
      "note_on channel=1 note=61 velocity=33 time=13\n",
      "note_on channel=1 note=65 velocity=33 time=0\n",
      "note_on channel=1 note=61 velocity=0 time=227\n",
      "note_on channel=1 note=65 velocity=0 time=0\n",
      "note_on channel=1 note=61 velocity=33 time=13\n",
      "note_on channel=1 note=58 velocity=33 time=0\n",
      "note_on channel=1 note=61 velocity=0 time=227\n",
      "note_on channel=1 note=58 velocity=0 time=0\n",
      "note_on channel=1 note=61 velocity=33 time=253\n",
      "note_on channel=1 note=65 velocity=33 time=0\n",
      "note_on channel=1 note=61 velocity=0 time=227\n",
      "note_on channel=1 note=65 velocity=0 time=0\n",
      "note_on channel=1 note=65 velocity=33 time=13\n",
      "note_on channel=1 note=70 velocity=33 time=0\n",
      "note_on channel=1 note=65 velocity=0 time=227\n",
      "note_on channel=1 note=70 velocity=0 time=0\n",
      "note_on channel=1 note=46 velocity=33 time=13\n",
      "note_on channel=1 note=55 velocity=33 time=0\n",
      "note_on channel=1 note=43 velocity=33 time=0\n",
      "note_on channel=1 note=46 velocity=0 time=227\n",
      "note_on channel=1 note=55 velocity=0 time=0\n",
      "note_on channel=1 note=43 velocity=0 time=0\n",
      "note_on channel=1 note=49 velocity=33 time=253\n",
      "note_on channel=1 note=58 velocity=33 time=0\n",
      "note_on channel=1 note=46 velocity=33 time=0\n",
      "note_on channel=1 note=49 velocity=0 time=227\n",
      "note_on channel=1 note=58 velocity=0 time=0\n",
      "note_on channel=1 note=46 velocity=0 time=0\n",
      "note_on channel=1 note=58 velocity=33 time=13\n",
      "note_on channel=1 note=58 velocity=0 time=227\n",
      "note_on channel=1 note=58 velocity=33 time=13\n",
      "note_on channel=1 note=60 velocity=33 time=0\n",
      "note_on channel=1 note=48 velocity=33 time=0\n",
      "note_on channel=1 note=58 velocity=0 time=227\n",
      "note_on channel=1 note=60 velocity=0 time=0\n",
      "note_on channel=1 note=48 velocity=0 time=0\n",
      "note_on channel=1 note=62 velocity=33 time=13\n",
      "note_on channel=1 note=65 velocity=33 time=0\n",
      "note_on channel=1 note=62 velocity=0 time=59\n",
      "note_on channel=1 note=65 velocity=0 time=0\n",
      "note_on channel=1 note=64 velocity=33 time=61\n",
      "note_on channel=1 note=67 velocity=33 time=0\n",
      "note_on channel=1 note=64 velocity=0 time=59\n",
      "note_on channel=1 note=67 velocity=0 time=0\n",
      "note_on channel=1 note=60 velocity=33 time=61\n",
      "note_on channel=1 note=60 velocity=0 time=227\n",
      "note_on channel=1 note=48 velocity=80 time=253\n",
      "note_on channel=1 note=41 velocity=80 time=0\n",
      "control_change channel=1 control=64 value=127 time=2\n",
      "note_on channel=1 note=48 velocity=0 time=225\n",
      "note_on channel=1 note=53 velocity=49 time=13\n",
      "note_on channel=1 note=53 velocity=0 time=227\n",
      "note_on channel=1 note=56 velocity=49 time=13\n",
      "note_on channel=1 note=56 velocity=0 time=0\n",
      "note_on channel=1 note=56 velocity=49 time=0\n",
      "note_on channel=1 note=60 velocity=49 time=240\n",
      "note_on channel=1 note=60 velocity=0 time=227\n",
      "note_on channel=1 note=65 velocity=49 time=13\n",
      "note_on channel=1 note=65 velocity=0 time=1823\n",
      "note_on channel=1 note=65 velocity=49 time=97\n",
      "note_on channel=1 note=56 velocity=0 time=107\n",
      "note_on channel=1 note=60 velocity=49 time=133\n",
      "note_on channel=1 note=60 velocity=0 time=227\n",
      "note_on channel=1 note=56 velocity=49 time=13\n",
      "note_on channel=1 note=56 velocity=0 time=0\n",
      "note_on channel=1 note=56 velocity=49 time=0\n",
      "note_on channel=1 note=53 velocity=49 time=240\n",
      "note_on channel=1 note=41 velocity=0 time=47\n",
      "note_on channel=1 note=65 velocity=0 time=144\n",
      "note_on channel=1 note=56 velocity=0 time=24\n",
      "note_on channel=1 note=53 velocity=0 time=12\n",
      "note_on channel=1 note=40 velocity=80 time=13\n",
      "note_on channel=1 note=48 velocity=80 time=0\n",
      "note_on channel=1 note=52 velocity=80 time=0\n",
      "control_change channel=1 control=64 value=0 time=1\n",
      "control_change channel=1 control=64 value=127 time=1\n",
      "note_on channel=1 note=55 velocity=49 time=238\n",
      "note_on channel=1 note=55 velocity=0 time=227\n",
      "note_on channel=1 note=60 velocity=49 time=13\n",
      "note_on channel=1 note=60 velocity=0 time=227\n",
      "note_on channel=1 note=64 velocity=49 time=13\n",
      "note_on channel=1 note=64 velocity=0 time=227\n",
      "note_on channel=1 note=67 velocity=49 time=13\n",
      "note_on channel=1 note=67 velocity=0 time=227\n",
      "note_on channel=1 note=48 velocity=0 time=636\n",
      "note_on channel=1 note=52 velocity=0 time=0\n",
      "note_on channel=1 note=48 velocity=49 time=97\n",
      "note_on channel=1 note=40 velocity=0 time=1727\n",
      "note_on channel=1 note=48 velocity=0 time=96\n",
      "note_on channel=1 note=39 velocity=96 time=97\n",
      "note_on channel=1 note=54 velocity=96 time=0\n",
      "control_change channel=1 control=64 value=0 time=1\n",
      "note_on channel=1 note=39 velocity=0 time=226\n",
      "note_on channel=1 note=54 velocity=0 time=0\n",
      "note_on channel=1 note=36 velocity=96 time=3613\n",
      "note_on channel=1 note=48 velocity=96 time=0\n",
      "note_on channel=1 note=36 velocity=0 time=119\n",
      "note_on channel=1 note=48 velocity=0 time=0\n",
      "note_on channel=1 note=54 velocity=80 time=361\n",
      "note_on channel=1 note=54 velocity=0 time=119\n",
      "note_on channel=1 note=57 velocity=80 time=121\n",
      "note_on channel=1 note=57 velocity=0 time=119\n",
      "note_on channel=1 note=54 velocity=80 time=121\n",
      "note_on channel=1 note=48 velocity=80 time=0\n",
      "note_on channel=1 note=60 velocity=80 time=0\n",
      "note_on channel=1 note=54 velocity=0 time=119\n",
      "note_on channel=1 note=48 velocity=0 time=0\n",
      "note_on channel=1 note=60 velocity=0 time=0\n",
      "note_on channel=1 note=57 velocity=80 time=361\n",
      "note_on channel=1 note=57 velocity=0 time=119\n",
      "note_on channel=1 note=60 velocity=80 time=121\n",
      "note_on channel=1 note=60 velocity=0 time=119\n",
      "note_on channel=1 note=63 velocity=80 time=121\n",
      "note_on channel=1 note=63 velocity=0 time=119\n",
      "note_on channel=1 note=48 velocity=40 time=601\n",
      "note_on channel=1 note=51 velocity=40 time=0\n",
      "note_on channel=1 note=60 velocity=40 time=0\n",
      "note_on channel=1 note=48 velocity=0 time=227\n",
      "note_on channel=1 note=51 velocity=0 time=0\n",
      "note_on channel=1 note=60 velocity=0 time=0\n",
      "note_on channel=1 note=48 velocity=40 time=13\n",
      "note_on channel=1 note=51 velocity=40 time=0\n",
      "note_on channel=1 note=60 velocity=40 time=0\n",
      "note_on channel=1 note=48 velocity=0 time=227\n",
      "note_on channel=1 note=51 velocity=0 time=0\n",
      "note_on channel=1 note=60 velocity=0 time=0\n",
      "note_on channel=1 note=48 velocity=40 time=493\n",
      "note_on channel=1 note=51 velocity=40 time=0\n",
      "note_on channel=1 note=48 velocity=0 time=227\n",
      "note_on channel=1 note=51 velocity=0 time=0\n",
      "note_on channel=1 note=34 velocity=80 time=13\n",
      "note_on channel=1 note=46 velocity=80 time=0\n",
      "note_on channel=1 note=34 velocity=0 time=119\n",
      "note_on channel=1 note=46 velocity=0 time=0\n",
      "note_on channel=1 note=50 velocity=80 time=361\n",
      "note_on channel=1 note=50 velocity=0 time=119\n",
      "note_on channel=1 note=55 velocity=80 time=121\n",
      "note_on channel=1 note=55 velocity=0 time=119\n",
      "note_on channel=1 note=50 velocity=80 time=121\n",
      "note_on channel=1 note=46 velocity=80 time=0\n",
      "note_on channel=1 note=58 velocity=80 time=0\n",
      "note_on channel=1 note=50 velocity=0 time=119\n",
      "note_on channel=1 note=46 velocity=0 time=0\n",
      "note_on channel=1 note=58 velocity=0 time=0\n",
      "note_on channel=1 note=55 velocity=80 time=361\n",
      "note_on channel=1 note=55 velocity=0 time=119\n",
      "note_on channel=1 note=58 velocity=80 time=121\n",
      "note_on channel=1 note=58 velocity=0 time=119\n",
      "note_on channel=1 note=62 velocity=80 time=121\n",
      "note_on channel=1 note=62 velocity=0 time=119\n",
      "note_on channel=1 note=55 velocity=40 time=601\n",
      "note_on channel=1 note=58 velocity=40 time=0\n",
      "note_on channel=1 note=62 velocity=40 time=0\n",
      "note_on channel=1 note=55 velocity=0 time=227\n",
      "note_on channel=1 note=58 velocity=0 time=0\n",
      "note_on channel=1 note=62 velocity=0 time=0\n",
      "note_on channel=1 note=55 velocity=40 time=13\n",
      "note_on channel=1 note=58 velocity=40 time=0\n",
      "note_on channel=1 note=62 velocity=40 time=0\n",
      "note_on channel=1 note=55 velocity=0 time=227\n",
      "note_on channel=1 note=58 velocity=0 time=0\n",
      "note_on channel=1 note=62 velocity=0 time=0\n",
      "note_on channel=1 note=43 velocity=40 time=493\n",
      "note_on channel=1 note=46 velocity=40 time=0\n",
      "note_on channel=1 note=43 velocity=0 time=227\n",
      "note_on channel=1 note=46 velocity=0 time=0\n",
      "note_on channel=1 note=29 velocity=80 time=13\n",
      "note_on channel=1 note=41 velocity=80 time=0\n",
      "note_on channel=1 note=29 velocity=0 time=119\n",
      "note_on channel=1 note=41 velocity=0 time=0\n",
      "note_on channel=1 note=47 velocity=80 time=361\n",
      "note_on channel=1 note=47 velocity=0 time=119\n",
      "note_on channel=1 note=50 velocity=80 time=121\n",
      "note_on channel=1 note=50 velocity=0 time=119\n",
      "note_on channel=1 note=41 velocity=80 time=121\n",
      "note_on channel=1 note=53 velocity=80 time=0\n",
      "note_on channel=1 note=41 velocity=0 time=119\n",
      "note_on channel=1 note=53 velocity=0 time=0\n",
      "note_on channel=1 note=62 velocity=80 time=361\n",
      "note_on channel=1 note=62 velocity=0 time=119\n",
      "note_on channel=1 note=65 velocity=80 time=121\n",
      "note_on channel=1 note=65 velocity=0 time=119\n",
      "note_on channel=1 note=55 velocity=40 time=841\n",
      "note_on channel=1 note=62 velocity=40 time=0\n",
      "note_on channel=1 note=65 velocity=40 time=0\n",
      "note_on channel=1 note=55 velocity=0 time=227\n",
      "note_on channel=1 note=62 velocity=0 time=0\n",
      "note_on channel=1 note=65 velocity=0 time=0\n",
      "note_on channel=1 note=55 velocity=40 time=13\n",
      "note_on channel=1 note=62 velocity=40 time=0\n",
      "note_on channel=1 note=65 velocity=40 time=0\n",
      "note_on channel=1 note=55 velocity=0 time=227\n",
      "note_on channel=1 note=62 velocity=0 time=0\n",
      "note_on channel=1 note=65 velocity=0 time=0\n",
      "note_on channel=1 note=43 velocity=40 time=493\n",
      "note_on channel=1 note=43 velocity=0 time=227\n",
      "note_on channel=1 note=48 velocity=80 time=13\n",
      "note_on channel=1 note=39 velocity=80 time=0\n",
      "note_on channel=1 note=51 velocity=80 time=0\n",
      "note_on channel=1 note=48 velocity=0 time=119\n",
      "note_on channel=1 note=39 velocity=0 time=0\n",
      "note_on channel=1 note=51 velocity=0 time=0\n",
      "note_on channel=1 note=55 velocity=80 time=361\n",
      "note_on channel=1 note=55 velocity=0 time=119\n",
      "note_on channel=1 note=60 velocity=80 time=121\n",
      "note_on channel=1 note=60 velocity=0 time=119\n",
      "note_on channel=1 note=55 velocity=80 time=121\n",
      "note_on channel=1 note=51 velocity=80 time=0\n",
      "note_on channel=1 note=63 velocity=80 time=0\n",
      "note_on channel=1 note=55 velocity=0 time=119\n",
      "note_on channel=1 note=51 velocity=0 time=0\n",
      "note_on channel=1 note=63 velocity=0 time=0\n",
      "note_on channel=1 note=60 velocity=80 time=361\n",
      "note_on channel=1 note=60 velocity=0 time=119\n",
      "note_on channel=1 note=63 velocity=80 time=121\n",
      "note_on channel=1 note=63 velocity=0 time=119\n",
      "note_on channel=1 note=67 velocity=80 time=121\n",
      "note_on channel=1 note=67 velocity=0 time=119\n",
      "note_on channel=1 note=48 velocity=40 time=601\n",
      "note_on channel=1 note=51 velocity=40 time=0\n",
      "note_on channel=1 note=60 velocity=40 time=0\n",
      "note_on channel=1 note=48 velocity=0 time=227\n",
      "note_on channel=1 note=51 velocity=0 time=0\n",
      "note_on channel=1 note=60 velocity=0 time=0\n",
      "note_on channel=1 note=48 velocity=40 time=13\n",
      "note_on channel=1 note=51 velocity=40 time=0\n",
      "note_on channel=1 note=60 velocity=40 time=0\n",
      "note_on channel=1 note=48 velocity=0 time=227\n",
      "note_on channel=1 note=51 velocity=0 time=0\n",
      "note_on channel=1 note=60 velocity=0 time=0\n",
      "note_on channel=1 note=48 velocity=40 time=493\n",
      "note_on channel=1 note=51 velocity=40 time=0\n",
      "note_on channel=1 note=48 velocity=0 time=227\n",
      "note_on channel=1 note=51 velocity=0 time=0\n",
      "note_on channel=1 note=33 velocity=40 time=13\n",
      "note_on channel=1 note=45 velocity=40 time=0\n",
      "note_on channel=1 note=33 velocity=0 time=227\n",
      "note_on channel=1 note=45 velocity=0 time=0\n",
      "note_on channel=1 note=49 velocity=80 time=253\n",
      "note_on channel=1 note=49 velocity=0 time=119\n",
      "note_on channel=1 note=52 velocity=80 time=121\n",
      "note_on channel=1 note=52 velocity=0 time=119\n",
      "note_on channel=1 note=55 velocity=80 time=121\n",
      "note_on channel=1 note=45 velocity=80 time=0\n",
      "note_on channel=1 note=57 velocity=80 time=0\n",
      "note_on channel=1 note=55 velocity=0 time=119\n",
      "note_on channel=1 note=45 velocity=0 time=0\n",
      "note_on channel=1 note=57 velocity=0 time=0\n",
      "note_on channel=1 note=61 velocity=80 time=361\n",
      "note_on channel=1 note=61 velocity=0 time=119\n",
      "note_on channel=1 note=64 velocity=80 time=121\n",
      "note_on channel=1 note=64 velocity=0 time=119\n",
      "note_on channel=1 note=67 velocity=80 time=121\n",
      "note_on channel=1 note=67 velocity=0 time=119\n",
      "note_on channel=1 note=55 velocity=40 time=601\n",
      "note_on channel=1 note=57 velocity=40 time=0\n",
      "note_on channel=1 note=64 velocity=40 time=0\n",
      "note_on channel=1 note=55 velocity=0 time=227\n",
      "note_on channel=1 note=57 velocity=0 time=0\n",
      "note_on channel=1 note=64 velocity=0 time=0\n",
      "note_on channel=1 note=55 velocity=40 time=13\n",
      "note_on channel=1 note=57 velocity=40 time=0\n",
      "note_on channel=1 note=64 velocity=40 time=0\n",
      "note_on channel=1 note=55 velocity=0 time=227\n",
      "note_on channel=1 note=57 velocity=0 time=0\n",
      "note_on channel=1 note=64 velocity=0 time=0\n",
      "note_on channel=1 note=55 velocity=40 time=493\n",
      "note_on channel=1 note=57 velocity=40 time=0\n",
      "note_on channel=1 note=55 velocity=0 time=227\n",
      "note_on channel=1 note=57 velocity=0 time=0\n",
      "note_on channel=1 note=38 velocity=90 time=13\n",
      "note_on channel=1 note=50 velocity=90 time=0\n",
      "note_on channel=1 note=38 velocity=0 time=227\n",
      "note_on channel=1 note=50 velocity=0 time=0\n",
      "note_on channel=1 note=31 velocity=49 time=3373\n",
      "note_on channel=1 note=43 velocity=49 time=0\n",
      "note_on channel=1 note=31 velocity=0 time=227\n",
      "note_on channel=1 note=43 velocity=0 time=0\n",
      "note_on channel=1 note=38 velocity=96 time=13\n",
      "note_on channel=1 note=50 velocity=96 time=0\n",
      "note_on channel=1 note=38 velocity=0 time=227\n",
      "note_on channel=1 note=50 velocity=0 time=0\n",
      "note_on channel=1 note=31 velocity=49 time=3373\n",
      "note_on channel=1 note=43 velocity=49 time=0\n",
      "note_on channel=1 note=31 velocity=0 time=227\n",
      "note_on channel=1 note=43 velocity=0 time=0\n",
      "note_on channel=1 note=38 velocity=90 time=13\n",
      "note_on channel=1 note=50 velocity=90 time=0\n",
      "note_on channel=1 note=38 velocity=0 time=227\n",
      "note_on channel=1 note=50 velocity=0 time=0\n",
      "note_on channel=1 note=38 velocity=49 time=6493\n",
      "note_on channel=1 note=50 velocity=49 time=0\n",
      "note_on channel=1 note=38 velocity=0 time=455\n",
      "note_on channel=1 note=50 velocity=0 time=0\n",
      "note_on channel=1 note=38 velocity=49 time=985\n",
      "note_on channel=1 note=50 velocity=49 time=0\n",
      "note_on channel=1 note=38 velocity=0 time=455\n",
      "note_on channel=1 note=50 velocity=0 time=0\n",
      "note_on channel=1 note=38 velocity=49 time=25\n",
      "note_on channel=1 note=50 velocity=49 time=0\n",
      "note_on channel=1 note=38 velocity=0 time=455\n",
      "note_on channel=1 note=50 velocity=0 time=0\n",
      "note_on channel=1 note=38 velocity=49 time=985\n",
      "note_on channel=1 note=50 velocity=49 time=0\n",
      "note_on channel=1 note=38 velocity=0 time=455\n",
      "note_on channel=1 note=50 velocity=0 time=0\n",
      "note_on channel=1 note=38 velocity=49 time=25\n",
      "note_on channel=1 note=50 velocity=49 time=0\n",
      "note_on channel=1 note=38 velocity=0 time=455\n",
      "note_on channel=1 note=50 velocity=0 time=0\n",
      "note_on channel=1 note=38 velocity=49 time=505\n",
      "note_on channel=1 note=50 velocity=49 time=0\n",
      "note_on channel=1 note=38 velocity=0 time=455\n",
      "note_on channel=1 note=50 velocity=0 time=0\n",
      "note_on channel=1 note=38 velocity=49 time=505\n",
      "note_on channel=1 note=50 velocity=49 time=0\n",
      "note_on channel=1 note=38 velocity=0 time=455\n",
      "note_on channel=1 note=50 velocity=0 time=0\n",
      "note_on channel=1 note=38 velocity=49 time=1945\n",
      "note_on channel=1 note=50 velocity=49 time=0\n",
      "note_on channel=1 note=38 velocity=0 time=455\n",
      "note_on channel=1 note=50 velocity=0 time=0\n",
      "note_on channel=1 note=43 velocity=33 time=2905\n",
      "note_on channel=1 note=31 velocity=33 time=0\n",
      "note_on channel=1 note=31 velocity=0 time=455\n",
      "note_on channel=1 note=43 velocity=0 time=3192\n",
      "note_on channel=1 note=43 velocity=33 time=193\n",
      "note_on channel=1 note=43 velocity=0 time=7295\n",
      "note_on channel=1 note=43 velocity=80 time=865\n",
      "note_on channel=1 note=43 velocity=0 time=455\n",
      "note_on channel=1 note=38 velocity=80 time=25\n",
      "note_on channel=1 note=38 velocity=0 time=227\n",
      "note_on channel=1 note=67 velocity=33 time=2173\n",
      "note_on channel=1 note=67 velocity=0 time=1823\n",
      "note_on channel=1 note=69 velocity=33 time=97\n",
      "note_on channel=1 note=69 velocity=0 time=455\n",
      "note_on channel=1 note=71 velocity=33 time=25\n",
      "note_on channel=1 note=71 velocity=0 time=240\n",
      "note_on channel=1 note=71 velocity=33 time=240\n",
      "note_on channel=1 note=62 velocity=33 time=0\n",
      "note_on channel=1 note=71 velocity=0 time=455\n",
      "note_on channel=1 note=69 velocity=33 time=25\n",
      "note_on channel=1 note=62 velocity=0 time=431\n",
      "note_on channel=1 note=69 velocity=0 time=24\n",
      "note_on channel=1 note=69 velocity=33 time=25\n",
      "note_on channel=1 note=62 velocity=33 time=0\n",
      "note_on channel=1 note=69 velocity=0 time=227\n",
      "note_on channel=1 note=62 velocity=0 time=13\n",
      "note_on channel=1 note=62 velocity=33 time=0\n",
      "note_on channel=1 note=62 velocity=0 time=227\n",
      "note_on channel=1 note=64 velocity=33 time=13\n",
      "note_on channel=1 note=60 velocity=33 time=0\n",
      "note_on channel=1 note=64 velocity=0 time=227\n",
      "note_on channel=1 note=66 velocity=33 time=13\n",
      "note_on channel=1 note=60 velocity=0 time=215\n",
      "note_on channel=1 note=66 velocity=0 time=12\n",
      "note_on channel=1 note=67 velocity=33 time=13\n",
      "note_on channel=1 note=55 velocity=33 time=0\n",
      "note_on channel=1 note=59 velocity=33 time=0\n",
      "note_on channel=1 note=67 velocity=0 time=911\n",
      "note_on channel=1 note=55 velocity=0 time=0\n",
      "note_on channel=1 note=54 velocity=33 time=49\n",
      "note_on channel=1 note=59 velocity=0 time=179\n",
      "note_on channel=1 note=57 velocity=33 time=61\n",
      "note_on channel=1 note=54 velocity=0 time=215\n",
      "note_on channel=1 note=52 velocity=33 time=25\n",
      "note_on channel=1 note=57 velocity=0 time=215\n",
      "note_on channel=1 note=55 velocity=33 time=25\n",
      "note_on channel=1 note=52 velocity=0 time=215\n",
      "note_on channel=1 note=55 velocity=0 time=12\n",
      "note_on channel=1 note=50 velocity=33 time=13\n",
      "note_on channel=1 note=62 velocity=33 time=0\n",
      "note_on channel=1 note=50 velocity=0 time=0\n",
      "note_on channel=1 note=50 velocity=33 time=0\n",
      "note_on channel=1 note=57 velocity=33 time=480\n",
      "note_on channel=1 note=62 velocity=0 time=431\n",
      "note_on channel=1 note=57 velocity=0 time=24\n",
      "note_on channel=1 note=57 velocity=33 time=25\n",
      "note_on channel=1 note=62 velocity=33 time=0\n",
      "note_on channel=1 note=50 velocity=0 time=0\n",
      "note_on channel=1 note=50 velocity=33 time=0\n",
      "note_on channel=1 note=57 velocity=0 time=455\n",
      "note_on channel=1 note=62 velocity=0 time=0\n",
      "note_on channel=1 note=59 velocity=33 time=25\n",
      "note_on channel=1 note=48 velocity=33 time=0\n",
      "note_on channel=1 note=59 velocity=0 time=227\n",
      "note_on channel=1 note=60 velocity=33 time=13\n",
      "note_on channel=1 note=50 velocity=0 time=143\n",
      "note_on channel=1 note=48 velocity=0 time=72\n",
      "note_on channel=1 note=60 velocity=0 time=12\n",
      "note_on channel=1 note=55 velocity=33 time=13\n",
      "note_on channel=1 note=62 velocity=33 time=0\n",
      "note_on channel=1 note=47 velocity=33 time=0\n",
      "note_on channel=1 note=50 velocity=33 time=0\n",
      "note_on channel=1 note=47 velocity=0 time=911\n",
      "note_on channel=1 note=50 velocity=0 time=0\n",
      "note_on channel=1 note=48 velocity=33 time=49\n",
      "note_on channel=1 note=52 velocity=33 time=0\n",
      "note_on channel=1 note=62 velocity=0 time=407\n",
      "note_on channel=1 note=48 velocity=0 time=48\n",
      "note_on channel=1 note=52 velocity=0 time=0\n",
      "note_on channel=1 note=60 velocity=33 time=25\n",
      "note_on channel=1 note=50 velocity=33 time=0\n",
      "note_on channel=1 note=53 velocity=33 time=0\n",
      "note_on channel=1 note=60 velocity=0 time=227\n",
      "note_on channel=1 note=59 velocity=33 time=13\n",
      "note_on channel=1 note=55 velocity=0 time=143\n",
      "note_on channel=1 note=50 velocity=0 time=72\n",
      "note_on channel=1 note=53 velocity=0 time=0\n",
      "note_on channel=1 note=59 velocity=0 time=12\n",
      "note_on channel=1 note=55 velocity=33 time=13\n",
      "note_on channel=1 note=60 velocity=33 time=0\n",
      "note_on channel=1 note=52 velocity=33 time=0\n",
      "note_on channel=1 note=57 velocity=48 time=480\n",
      "note_on channel=1 note=52 velocity=0 time=203\n",
      "note_on channel=1 note=51 velocity=56 time=37\n",
      "note_on channel=1 note=55 velocity=0 time=191\n",
      "note_on channel=1 note=51 velocity=0 time=36\n",
      "note_on channel=1 note=50 velocity=64 time=13\n",
      "note_on channel=1 note=60 velocity=0 time=407\n",
      "note_on channel=1 note=57 velocity=0 time=24\n",
      "note_on channel=1 note=52 velocity=59 time=49\n",
      "note_on channel=1 note=57 velocity=59 time=0\n",
      "note_on channel=1 note=60 velocity=59 time=0\n",
      "note_on channel=1 note=62 velocity=59 time=0\n",
      "note_on channel=1 note=52 velocity=0 time=227\n",
      "note_on channel=1 note=54 velocity=54 time=13\n",
      "note_on channel=1 note=57 velocity=0 time=215\n",
      "note_on channel=1 note=60 velocity=0 time=0\n",
      "note_on channel=1 note=62 velocity=0 time=0\n",
      "note_on channel=1 note=54 velocity=0 time=12\n",
      "note_on channel=1 note=59 velocity=49 time=13\n",
      "note_on channel=1 note=62 velocity=49 time=0\n",
      "note_on channel=1 note=55 velocity=49 time=0\n",
      "note_on channel=1 note=59 velocity=0 time=455\n",
      "note_on channel=1 note=62 velocity=0 time=0\n",
      "note_on channel=1 note=60 velocity=49 time=25\n",
      "note_on channel=1 note=55 velocity=0 time=203\n",
      "note_on channel=1 note=57 velocity=49 time=37\n",
      "note_on channel=1 note=50 velocity=0 time=371\n",
      "note_on channel=1 note=60 velocity=0 time=72\n",
      "note_on channel=1 note=57 velocity=0 time=12\n",
      "note_on channel=1 note=50 velocity=49 time=25\n",
      "note_on channel=1 note=50 velocity=0 time=0\n",
      "note_on channel=1 note=50 velocity=49 time=0\n",
      "note_on channel=1 note=52 velocity=59 time=240\n",
      "note_on channel=1 note=57 velocity=59 time=0\n",
      "note_on channel=1 note=60 velocity=59 time=0\n",
      "note_on channel=1 note=62 velocity=59 time=0\n",
      "note_on channel=1 note=52 velocity=0 time=227\n",
      "note_on channel=1 note=54 velocity=69 time=13\n",
      "note_on channel=1 note=50 velocity=0 time=203\n",
      "note_on channel=1 note=57 velocity=0 time=12\n",
      "note_on channel=1 note=60 velocity=0 time=0\n",
      "note_on channel=1 note=62 velocity=0 time=0\n",
      "note_on channel=1 note=54 velocity=0 time=12\n",
      "note_on channel=1 note=43 velocity=80 time=13\n",
      "note_on channel=1 note=50 velocity=80 time=0\n",
      "note_on channel=1 note=59 velocity=80 time=0\n",
      "note_on channel=1 note=43 velocity=0 time=227\n",
      "note_on channel=1 note=50 velocity=0 time=0\n",
      "note_on channel=1 note=59 velocity=0 time=0\n",
      "note_on channel=1 note=50 velocity=80 time=1693\n",
      "note_on channel=1 note=57 velocity=80 time=0\n",
      "note_on channel=1 note=60 velocity=80 time=0\n",
      "note_on channel=1 note=50 velocity=0 time=227\n",
      "note_on channel=1 note=57 velocity=0 time=0\n",
      "note_on channel=1 note=60 velocity=0 time=0\n",
      "note_on channel=1 note=43 velocity=80 time=1693\n",
      "note_on channel=1 note=50 velocity=80 time=0\n",
      "note_on channel=1 note=59 velocity=80 time=0\n",
      "note_on channel=1 note=43 velocity=0 time=227\n",
      "note_on channel=1 note=50 velocity=0 time=0\n",
      "note_on channel=1 note=59 velocity=0 time=0\n",
      "note_on channel=1 note=50 velocity=80 time=1693\n",
      "note_on channel=1 note=57 velocity=80 time=0\n",
      "note_on channel=1 note=60 velocity=80 time=0\n",
      "note_on channel=1 note=50 velocity=0 time=227\n",
      "note_on channel=1 note=57 velocity=0 time=0\n",
      "note_on channel=1 note=60 velocity=0 time=0\n",
      "note_on channel=1 note=43 velocity=80 time=1693\n",
      "note_on channel=1 note=50 velocity=80 time=0\n",
      "note_on channel=1 note=59 velocity=80 time=0\n",
      "note_on channel=1 note=43 velocity=0 time=227\n",
      "note_on channel=1 note=50 velocity=0 time=0\n",
      "note_on channel=1 note=59 velocity=0 time=0\n",
      "note_on channel=1 note=47 velocity=80 time=733\n",
      "note_on channel=1 note=54 velocity=80 time=0\n",
      "note_on channel=1 note=57 velocity=80 time=0\n",
      "note_on channel=1 note=47 velocity=0 time=227\n",
      "note_on channel=1 note=54 velocity=0 time=0\n",
      "note_on channel=1 note=57 velocity=0 time=0\n",
      "note_on channel=1 note=52 velocity=49 time=733\n",
      "note_on channel=1 note=59 velocity=49 time=0\n",
      "note_on channel=1 note=67 velocity=49 time=0\n",
      "note_on channel=1 note=52 velocity=0 time=227\n",
      "note_on channel=1 note=59 velocity=0 time=0\n",
      "note_on channel=1 note=67 velocity=0 time=0\n",
      "note_on channel=1 note=55 velocity=49 time=253\n",
      "note_on channel=1 note=62 velocity=49 time=0\n",
      "note_on channel=1 note=65 velocity=49 time=0\n",
      "note_on channel=1 note=55 velocity=0 time=227\n",
      "note_on channel=1 note=62 velocity=0 time=0\n",
      "note_on channel=1 note=65 velocity=0 time=0\n",
      "note_on channel=1 note=48 velocity=49 time=253\n",
      "note_on channel=1 note=55 velocity=49 time=0\n",
      "note_on channel=1 note=64 velocity=49 time=0\n",
      "note_on channel=1 note=48 velocity=0 time=227\n",
      "note_on channel=1 note=55 velocity=0 time=0\n",
      "note_on channel=1 note=64 velocity=0 time=0\n",
      "note_on channel=1 note=52 velocity=49 time=253\n",
      "note_on channel=1 note=59 velocity=49 time=0\n",
      "note_on channel=1 note=62 velocity=49 time=0\n",
      "note_on channel=1 note=52 velocity=0 time=227\n",
      "note_on channel=1 note=59 velocity=0 time=0\n",
      "note_on channel=1 note=62 velocity=0 time=0\n",
      "note_on channel=1 note=45 velocity=49 time=253\n",
      "note_on channel=1 note=52 velocity=49 time=0\n",
      "note_on channel=1 note=60 velocity=49 time=0\n",
      "note_on channel=1 note=45 velocity=0 time=227\n",
      "note_on channel=1 note=52 velocity=0 time=0\n",
      "note_on channel=1 note=60 velocity=0 time=0\n",
      "note_on channel=1 note=48 velocity=49 time=253\n",
      "note_on channel=1 note=52 velocity=49 time=0\n",
      "note_on channel=1 note=64 velocity=49 time=0\n",
      "note_on channel=1 note=48 velocity=0 time=227\n",
      "note_on channel=1 note=52 velocity=0 time=0\n",
      "note_on channel=1 note=64 velocity=0 time=0\n",
      "note_on channel=1 note=50 velocity=49 time=253\n",
      "note_on channel=1 note=54 velocity=49 time=0\n",
      "note_on channel=1 note=62 velocity=49 time=0\n",
      "note_on channel=1 note=50 velocity=0 time=227\n",
      "note_on channel=1 note=54 velocity=0 time=0\n",
      "note_on channel=1 note=62 velocity=0 time=0\n",
      "note_on channel=1 note=43 velocity=33 time=733\n",
      "note_on channel=1 note=50 velocity=33 time=0\n",
      "note_on channel=1 note=59 velocity=33 time=0\n",
      "control_change channel=1 control=64 value=127 time=2\n",
      "note_on channel=1 note=43 velocity=0 time=225\n",
      "note_on channel=1 note=50 velocity=0 time=0\n",
      "note_on channel=1 note=59 velocity=0 time=0\n",
      "control_change channel=1 control=64 value=0 time=734\n",
      "note_on channel=1 note=50 velocity=33 time=959\n",
      "note_on channel=1 note=57 velocity=33 time=0\n",
      "note_on channel=1 note=60 velocity=33 time=0\n",
      "control_change channel=1 control=64 value=127 time=2\n",
      "note_on channel=1 note=50 velocity=0 time=225\n",
      "note_on channel=1 note=57 velocity=0 time=0\n",
      "note_on channel=1 note=60 velocity=0 time=0\n",
      "control_change channel=1 control=64 value=0 time=734\n",
      "note_on channel=1 note=43 velocity=33 time=959\n",
      "note_on channel=1 note=50 velocity=33 time=0\n",
      "note_on channel=1 note=59 velocity=33 time=0\n",
      "control_change channel=1 control=64 value=127 time=2\n",
      "note_on channel=1 note=43 velocity=0 time=225\n",
      "note_on channel=1 note=50 velocity=0 time=0\n",
      "note_on channel=1 note=59 velocity=0 time=0\n",
      "control_change channel=1 control=64 value=0 time=734\n",
      "note_on channel=1 note=43 velocity=33 time=959\n",
      "note_on channel=1 note=50 velocity=33 time=0\n",
      "note_on channel=1 note=58 velocity=33 time=0\n",
      "control_change channel=1 control=64 value=127 time=2\n",
      "note_on channel=1 note=43 velocity=0 time=225\n",
      "note_on channel=1 note=50 velocity=0 time=0\n",
      "note_on channel=1 note=58 velocity=0 time=0\n",
      "control_change channel=1 control=64 value=0 time=734\n",
      "note_on channel=1 note=39 velocity=33 time=959\n",
      "note_on channel=1 note=46 velocity=33 time=0\n",
      "note_on channel=1 note=55 velocity=33 time=0\n",
      "control_change channel=1 control=64 value=127 time=2\n",
      "note_on channel=1 note=39 velocity=0 time=225\n",
      "note_on channel=1 note=46 velocity=0 time=0\n",
      "note_on channel=1 note=55 velocity=0 time=0\n",
      "note_on channel=1 note=63 velocity=33 time=13\n",
      "note_on channel=1 note=67 velocity=33 time=0\n",
      "note_on channel=1 note=63 velocity=0 time=227\n",
      "note_on channel=1 note=67 velocity=0 time=0\n",
      "control_change channel=1 control=64 value=0 time=494\n",
      "note_on channel=1 note=39 velocity=96 time=959\n",
      "note_on channel=1 note=46 velocity=96 time=0\n",
      "note_on channel=1 note=51 velocity=96 time=0\n",
      "note_on channel=1 note=55 velocity=96 time=0\n",
      "note_on channel=1 note=39 velocity=0 time=227\n",
      "note_on channel=1 note=46 velocity=0 time=0\n",
      "note_on channel=1 note=51 velocity=0 time=0\n",
      "note_on channel=1 note=55 velocity=0 time=0\n",
      "note_on channel=1 note=63 velocity=96 time=13\n",
      "note_on channel=1 note=67 velocity=96 time=0\n",
      "control_change channel=1 control=64 value=127 time=2\n",
      "note_on channel=1 note=63 velocity=0 time=2505\n",
      "note_on channel=1 note=67 velocity=0 time=0\n",
      "note_on channel=1 note=63 velocity=49 time=133\n",
      "note_on channel=1 note=67 velocity=49 time=0\n",
      "control_change channel=1 control=64 value=0 time=1\n",
      "note_on channel=1 note=63 velocity=0 time=226\n",
      "note_on channel=1 note=67 velocity=0 time=0\n",
      "note_on channel=1 note=63 velocity=49 time=253\n",
      "note_on channel=1 note=67 velocity=49 time=0\n",
      "note_on channel=1 note=63 velocity=0 time=227\n",
      "note_on channel=1 note=67 velocity=0 time=0\n",
      "note_on channel=1 note=39 velocity=96 time=253\n",
      "note_on channel=1 note=46 velocity=96 time=0\n",
      "note_on channel=1 note=51 velocity=96 time=0\n",
      "note_on channel=1 note=55 velocity=96 time=0\n",
      "note_on channel=1 note=39 velocity=0 time=227\n",
      "note_on channel=1 note=46 velocity=0 time=0\n",
      "note_on channel=1 note=51 velocity=0 time=0\n",
      "note_on channel=1 note=55 velocity=0 time=0\n",
      "note_on channel=1 note=63 velocity=96 time=13\n",
      "note_on channel=1 note=67 velocity=96 time=0\n",
      "control_change channel=1 control=64 value=127 time=2\n",
      "note_on channel=1 note=63 velocity=0 time=2505\n",
      "note_on channel=1 note=67 velocity=0 time=0\n",
      "note_on channel=1 note=63 velocity=40 time=133\n",
      "note_on channel=1 note=67 velocity=40 time=0\n",
      "control_change channel=1 control=64 value=0 time=1\n",
      "note_on channel=1 note=63 velocity=0 time=226\n",
      "note_on channel=1 note=67 velocity=0 time=0\n",
      "note_on channel=1 note=63 velocity=40 time=253\n",
      "note_on channel=1 note=67 velocity=40 time=0\n",
      "note_on channel=1 note=63 velocity=0 time=227\n",
      "note_on channel=1 note=67 velocity=0 time=0\n",
      "note_on channel=1 note=63 velocity=40 time=253\n",
      "note_on channel=1 note=67 velocity=40 time=0\n",
      "note_on channel=1 note=63 velocity=0 time=455\n",
      "note_on channel=1 note=67 velocity=0 time=0\n",
      "note_on channel=1 note=39 velocity=40 time=265\n",
      "note_on channel=1 note=51 velocity=40 time=0\n",
      "note_on channel=1 note=39 velocity=0 time=227\n",
      "note_on channel=1 note=51 velocity=0 time=0\n",
      "note_on channel=1 note=39 velocity=40 time=13\n",
      "note_on channel=1 note=51 velocity=40 time=0\n",
      "note_on channel=1 note=39 velocity=0 time=227\n",
      "note_on channel=1 note=51 velocity=0 time=0\n",
      "note_on channel=1 note=63 velocity=40 time=493\n",
      "note_on channel=1 note=67 velocity=40 time=0\n",
      "note_on channel=1 note=63 velocity=0 time=227\n",
      "note_on channel=1 note=67 velocity=0 time=0\n",
      "note_on channel=1 note=63 velocity=40 time=13\n",
      "note_on channel=1 note=67 velocity=40 time=0\n",
      "note_on channel=1 note=63 velocity=0 time=455\n",
      "note_on channel=1 note=67 velocity=0 time=0\n",
      "note_on channel=1 note=39 velocity=40 time=265\n",
      "note_on channel=1 note=51 velocity=40 time=0\n",
      "note_on channel=1 note=39 velocity=0 time=227\n",
      "note_on channel=1 note=51 velocity=0 time=0\n",
      "note_on channel=1 note=39 velocity=40 time=13\n",
      "note_on channel=1 note=51 velocity=40 time=0\n",
      "note_on channel=1 note=39 velocity=0 time=227\n",
      "note_on channel=1 note=51 velocity=0 time=0\n",
      "note_on channel=1 note=51 velocity=40 time=4333\n",
      "note_on channel=1 note=51 velocity=0 time=113\n",
      "note_on channel=1 note=51 velocity=40 time=7\n",
      "note_on channel=1 note=51 velocity=0 time=113\n",
      "note_on channel=1 note=51 velocity=40 time=7\n",
      "control_change channel=1 control=64 value=127 time=2\n",
      "note_on channel=1 note=51 velocity=0 time=1821\n",
      "note_on channel=1 note=48 velocity=40 time=97\n",
      "control_change channel=1 control=64 value=0 time=1\n",
      "control_change channel=1 control=64 value=127 time=1\n",
      "note_on channel=1 note=48 velocity=0 time=453\n",
      "note_on channel=1 note=51 velocity=40 time=25\n",
      "note_on channel=1 note=51 velocity=0 time=455\n",
      "note_on channel=1 note=53 velocity=40 time=25\n",
      "control_change channel=1 control=64 value=0 time=1\n",
      "control_change channel=1 control=64 value=127 time=1\n",
      "control_change channel=1 control=64 value=0 time=959\n",
      "note_on channel=1 note=50 velocity=40 time=1439\n",
      "note_on channel=1 note=50 velocity=0 time=455\n",
      "note_on channel=1 note=51 velocity=40 time=25\n",
      "note_on channel=1 note=53 velocity=0 time=311\n",
      "note_on channel=1 note=53 velocity=40 time=169\n",
      "note_on channel=1 note=51 velocity=0 time=431\n",
      "note_on channel=1 note=50 velocity=40 time=49\n",
      "note_on channel=1 note=50 velocity=0 time=911\n",
      "note_on channel=1 note=51 velocity=40 time=49\n",
      "note_on channel=1 note=53 velocity=0 time=383\n",
      "note_on channel=1 note=53 velocity=40 time=97\n",
      "note_on channel=1 note=51 velocity=0 time=431\n",
      "note_on channel=1 note=50 velocity=40 time=49\n",
      "note_on channel=1 note=53 velocity=0 time=887\n",
      "note_on channel=1 note=50 velocity=0 time=24\n",
      "note_on channel=1 note=53 velocity=40 time=49\n",
      "note_on channel=1 note=51 velocity=40 time=960\n",
      "note_on channel=1 note=53 velocity=0 time=863\n",
      "note_on channel=1 note=51 velocity=0 time=48\n",
      "note_on channel=1 note=53 velocity=40 time=49\n",
      "note_on channel=1 note=51 velocity=40 time=960\n",
      "note_on channel=1 note=53 velocity=0 time=863\n",
      "note_on channel=1 note=51 velocity=0 time=48\n",
      "note_on channel=1 note=53 velocity=40 time=49\n",
      "note_on channel=1 note=41 velocity=40 time=0\n",
      "note_on channel=1 note=41 velocity=0 time=227\n",
      "note_on channel=1 note=46 velocity=40 time=733\n",
      "note_on channel=1 note=50 velocity=40 time=0\n",
      "note_on channel=1 note=46 velocity=0 time=227\n",
      "note_on channel=1 note=50 velocity=0 time=684\n",
      "note_on channel=1 note=41 velocity=40 time=49\n",
      "note_on channel=1 note=41 velocity=0 time=227\n",
      "note_on channel=1 note=46 velocity=40 time=733\n",
      "note_on channel=1 note=50 velocity=40 time=0\n",
      "note_on channel=1 note=46 velocity=0 time=227\n",
      "note_on channel=1 note=53 velocity=0 time=540\n",
      "note_on channel=1 note=50 velocity=0 time=144\n",
      "note_on channel=1 note=55 velocity=40 time=49\n",
      "note_on channel=1 note=43 velocity=40 time=0\n",
      "note_on channel=1 note=43 velocity=0 time=227\n",
      "note_on channel=1 note=48 velocity=40 time=733\n",
      "note_on channel=1 note=51 velocity=40 time=0\n",
      "note_on channel=1 note=48 velocity=0 time=227\n",
      "note_on channel=1 note=51 velocity=0 time=684\n",
      "note_on channel=1 note=43 velocity=40 time=49\n",
      "note_on channel=1 note=43 velocity=0 time=227\n",
      "note_on channel=1 note=48 velocity=40 time=733\n",
      "note_on channel=1 note=51 velocity=40 time=0\n",
      "control_change channel=1 control=64 value=127 time=2\n",
      "note_on channel=1 note=48 velocity=0 time=225\n",
      "note_on channel=1 note=55 velocity=0 time=540\n",
      "note_on channel=1 note=51 velocity=0 time=144\n",
      "note_on channel=1 note=51 velocity=106 time=49\n",
      "note_on channel=1 note=63 velocity=106 time=0\n",
      "control_change channel=1 control=64 value=0 time=1\n",
      "note_on channel=1 note=51 velocity=0 time=226\n",
      "note_on channel=1 note=63 velocity=0 time=0\n",
      "note_on channel=1 note=44 velocity=106 time=253\n",
      "note_on channel=1 note=56 velocity=106 time=0\n",
      "note_on channel=1 note=44 velocity=0 time=227\n",
      "note_on channel=1 note=56 velocity=0 time=0\n",
      "note_on channel=1 note=30 velocity=127 time=253\n",
      "note_on channel=1 note=42 velocity=127 time=0\n",
      "control_change channel=1 control=64 value=127 time=2\n",
      "note_on channel=1 note=48 velocity=106 time=718\n",
      "note_on channel=1 note=51 velocity=106 time=0\n",
      "note_on channel=1 note=60 velocity=106 time=0\n",
      "note_on channel=1 note=48 velocity=0 time=227\n",
      "note_on channel=1 note=51 velocity=0 time=0\n",
      "note_on channel=1 note=60 velocity=0 time=0\n",
      "note_on channel=1 note=48 velocity=106 time=13\n",
      "note_on channel=1 note=51 velocity=106 time=0\n",
      "note_on channel=1 note=60 velocity=106 time=0\n",
      "note_on channel=1 note=48 velocity=0 time=455\n",
      "note_on channel=1 note=51 velocity=0 time=0\n",
      "note_on channel=1 note=60 velocity=0 time=0\n",
      "note_on channel=1 note=48 velocity=106 time=265\n",
      "note_on channel=1 note=51 velocity=106 time=0\n",
      "note_on channel=1 note=60 velocity=106 time=0\n",
      "note_on channel=1 note=48 velocity=0 time=227\n",
      "note_on channel=1 note=51 velocity=0 time=0\n",
      "note_on channel=1 note=60 velocity=0 time=0\n",
      "note_on channel=1 note=48 velocity=106 time=13\n",
      "note_on channel=1 note=51 velocity=106 time=0\n",
      "note_on channel=1 note=60 velocity=106 time=0\n",
      "note_on channel=1 note=48 velocity=0 time=227\n",
      "note_on channel=1 note=51 velocity=0 time=0\n",
      "note_on channel=1 note=60 velocity=0 time=0\n",
      "note_on channel=1 note=48 velocity=106 time=253\n",
      "note_on channel=1 note=51 velocity=106 time=0\n",
      "note_on channel=1 note=57 velocity=106 time=0\n",
      "note_on channel=1 note=48 velocity=0 time=227\n",
      "note_on channel=1 note=51 velocity=0 time=0\n",
      "note_on channel=1 note=57 velocity=0 time=0\n",
      "note_on channel=1 note=48 velocity=106 time=13\n",
      "note_on channel=1 note=57 velocity=106 time=0\n",
      "note_on channel=1 note=60 velocity=106 time=0\n",
      "note_on channel=1 note=30 velocity=0 time=143\n",
      "note_on channel=1 note=42 velocity=0 time=0\n",
      "note_on channel=1 note=48 velocity=0 time=84\n",
      "note_on channel=1 note=57 velocity=0 time=0\n",
      "note_on channel=1 note=60 velocity=0 time=0\n",
      "note_on channel=1 note=51 velocity=106 time=13\n",
      "note_on channel=1 note=60 velocity=106 time=0\n",
      "note_on channel=1 note=63 velocity=106 time=0\n",
      "control_change channel=1 control=64 value=0 time=1\n",
      "note_on channel=1 note=51 velocity=0 time=226\n",
      "note_on channel=1 note=60 velocity=0 time=0\n",
      "note_on channel=1 note=63 velocity=0 time=0\n",
      "note_on channel=1 note=44 velocity=106 time=253\n",
      "note_on channel=1 note=56 velocity=106 time=0\n",
      "note_on channel=1 note=44 velocity=0 time=227\n",
      "note_on channel=1 note=56 velocity=0 time=0\n",
      "note_on channel=1 note=30 velocity=127 time=253\n",
      "note_on channel=1 note=42 velocity=127 time=0\n",
      "control_change channel=1 control=64 value=127 time=2\n",
      "note_on channel=1 note=48 velocity=106 time=718\n",
      "note_on channel=1 note=51 velocity=106 time=0\n",
      "note_on channel=1 note=60 velocity=106 time=0\n",
      "note_on channel=1 note=48 velocity=0 time=227\n",
      "note_on channel=1 note=51 velocity=0 time=0\n",
      "note_on channel=1 note=60 velocity=0 time=0\n",
      "note_on channel=1 note=48 velocity=106 time=13\n",
      "note_on channel=1 note=51 velocity=106 time=0\n",
      "note_on channel=1 note=60 velocity=106 time=0\n",
      "note_on channel=1 note=48 velocity=0 time=455\n",
      "note_on channel=1 note=51 velocity=0 time=0\n",
      "note_on channel=1 note=60 velocity=0 time=0\n",
      "note_on channel=1 note=48 velocity=106 time=265\n",
      "note_on channel=1 note=51 velocity=106 time=0\n",
      "note_on channel=1 note=60 velocity=106 time=0\n",
      "note_on channel=1 note=48 velocity=0 time=227\n",
      "note_on channel=1 note=51 velocity=0 time=0\n",
      "note_on channel=1 note=60 velocity=0 time=0\n",
      "note_on channel=1 note=48 velocity=106 time=13\n",
      "note_on channel=1 note=51 velocity=106 time=0\n",
      "note_on channel=1 note=60 velocity=106 time=0\n",
      "note_on channel=1 note=48 velocity=0 time=227\n",
      "note_on channel=1 note=51 velocity=0 time=0\n",
      "note_on channel=1 note=60 velocity=0 time=0\n",
      "note_on channel=1 note=48 velocity=106 time=253\n",
      "note_on channel=1 note=51 velocity=106 time=0\n",
      "note_on channel=1 note=57 velocity=106 time=0\n",
      "note_on channel=1 note=48 velocity=0 time=227\n",
      "note_on channel=1 note=51 velocity=0 time=0\n",
      "note_on channel=1 note=57 velocity=0 time=0\n",
      "note_on channel=1 note=48 velocity=106 time=13\n",
      "note_on channel=1 note=57 velocity=106 time=0\n",
      "note_on channel=1 note=60 velocity=106 time=0\n",
      "note_on channel=1 note=30 velocity=0 time=143\n",
      "note_on channel=1 note=42 velocity=0 time=0\n",
      "note_on channel=1 note=48 velocity=0 time=84\n",
      "note_on channel=1 note=57 velocity=0 time=0\n",
      "note_on channel=1 note=60 velocity=0 time=0\n",
      "note_on channel=1 note=41 velocity=127 time=13\n",
      "note_on channel=1 note=53 velocity=127 time=0\n",
      "control_change channel=1 control=64 value=0 time=1\n",
      "control_change channel=1 control=64 value=127 time=1\n",
      "note_on channel=1 note=48 velocity=106 time=478\n",
      "note_on channel=1 note=57 velocity=106 time=0\n",
      "note_on channel=1 note=60 velocity=106 time=0\n",
      "note_on channel=1 note=48 velocity=0 time=227\n",
      "note_on channel=1 note=57 velocity=0 time=0\n",
      "note_on channel=1 note=60 velocity=0 time=0\n",
      "note_on channel=1 note=48 velocity=106 time=13\n",
      "note_on channel=1 note=57 velocity=106 time=0\n",
      "note_on channel=1 note=60 velocity=106 time=0\n",
      "note_on channel=1 note=48 velocity=0 time=227\n",
      "note_on channel=1 note=57 velocity=0 time=0\n",
      "note_on channel=1 note=60 velocity=0 time=0\n",
      "note_on channel=1 note=41 velocity=0 time=12\n",
      "note_on channel=1 note=53 velocity=0 time=0\n",
      "note_on channel=1 note=48 velocity=106 time=1\n",
      "note_on channel=1 note=40 velocity=127 time=0\n",
      "note_on channel=1 note=52 velocity=127 time=0\n",
      "control_change channel=1 control=64 value=0 time=1\n",
      "control_change channel=1 control=64 value=127 time=1\n",
      "note_on channel=1 note=48 velocity=0 time=453\n",
      "note_on channel=1 note=48 velocity=106 time=25\n",
      "note_on channel=1 note=57 velocity=106 time=0\n",
      "note_on channel=1 note=60 velocity=106 time=0\n",
      "note_on channel=1 note=48 velocity=0 time=227\n",
      "note_on channel=1 note=57 velocity=0 time=0\n",
      "note_on channel=1 note=60 velocity=0 time=0\n",
      "note_on channel=1 note=48 velocity=106 time=13\n",
      "note_on channel=1 note=57 velocity=106 time=0\n",
      "note_on channel=1 note=60 velocity=106 time=0\n",
      "note_on channel=1 note=48 velocity=0 time=227\n",
      "note_on channel=1 note=57 velocity=0 time=0\n",
      "note_on channel=1 note=60 velocity=0 time=0\n",
      "note_on channel=1 note=40 velocity=0 time=12\n",
      "note_on channel=1 note=52 velocity=0 time=0\n",
      "note_on channel=1 note=48 velocity=106 time=1\n",
      "note_on channel=1 note=38 velocity=127 time=0\n",
      "note_on channel=1 note=50 velocity=127 time=0\n",
      "control_change channel=1 control=64 value=0 time=1\n",
      "control_change channel=1 control=64 value=127 time=1\n",
      "note_on channel=1 note=48 velocity=0 time=453\n",
      "note_on channel=1 note=48 velocity=106 time=25\n",
      "note_on channel=1 note=57 velocity=106 time=0\n",
      "note_on channel=1 note=60 velocity=106 time=0\n",
      "note_on channel=1 note=48 velocity=0 time=227\n",
      "note_on channel=1 note=57 velocity=0 time=0\n",
      "note_on channel=1 note=60 velocity=0 time=0\n",
      "note_on channel=1 note=48 velocity=106 time=13\n",
      "note_on channel=1 note=57 velocity=106 time=0\n",
      "note_on channel=1 note=60 velocity=106 time=0\n",
      "note_on channel=1 note=48 velocity=0 time=227\n",
      "note_on channel=1 note=57 velocity=0 time=0\n",
      "note_on channel=1 note=60 velocity=0 time=0\n",
      "note_on channel=1 note=38 velocity=0 time=12\n",
      "note_on channel=1 note=50 velocity=0 time=0\n",
      "note_on channel=1 note=43 velocity=106 time=1\n",
      "note_on channel=1 note=50 velocity=106 time=0\n",
      "note_on channel=1 note=53 velocity=106 time=0\n",
      "note_on channel=1 note=59 velocity=106 time=0\n",
      "control_change channel=1 control=64 value=0 time=1\n",
      "control_change channel=1 control=64 value=127 time=1\n",
      "note_on channel=1 note=43 velocity=0 time=225\n",
      "note_on channel=1 note=50 velocity=0 time=0\n",
      "note_on channel=1 note=53 velocity=0 time=0\n",
      "note_on channel=1 note=59 velocity=0 time=0\n",
      "control_change channel=1 control=64 value=0 time=14\n",
      "note_on channel=1 note=48 velocity=33 time=17039\n",
      "note_on channel=1 note=55 velocity=33 time=0\n",
      "note_on channel=1 note=60 velocity=33 time=0\n",
      "note_on channel=1 note=48 velocity=0 time=227\n",
      "note_on channel=1 note=55 velocity=0 time=0\n",
      "note_on channel=1 note=60 velocity=0 time=0\n",
      "note_on channel=1 note=48 velocity=33 time=733\n",
      "note_on channel=1 note=55 velocity=33 time=0\n",
      "note_on channel=1 note=60 velocity=33 time=0\n",
      "note_on channel=1 note=48 velocity=0 time=227\n",
      "note_on channel=1 note=55 velocity=0 time=0\n",
      "note_on channel=1 note=60 velocity=0 time=0\n",
      "note_on channel=1 note=48 velocity=33 time=733\n",
      "note_on channel=1 note=55 velocity=33 time=0\n",
      "note_on channel=1 note=60 velocity=33 time=0\n",
      "note_on channel=1 note=48 velocity=0 time=227\n",
      "note_on channel=1 note=55 velocity=0 time=0\n",
      "note_on channel=1 note=60 velocity=0 time=0\n",
      "note_on channel=1 note=48 velocity=36 time=253\n",
      "note_on channel=1 note=60 velocity=36 time=0\n",
      "note_on channel=1 note=48 velocity=0 time=227\n",
      "note_on channel=1 note=60 velocity=0 time=0\n",
      "note_on channel=1 note=48 velocity=38 time=13\n",
      "note_on channel=1 note=60 velocity=38 time=0\n",
      "note_on channel=1 note=48 velocity=0 time=227\n",
      "note_on channel=1 note=60 velocity=0 time=0\n",
      "note_on channel=1 note=48 velocity=40 time=13\n",
      "note_on channel=1 note=60 velocity=40 time=0\n",
      "note_on channel=1 note=48 velocity=0 time=227\n",
      "note_on channel=1 note=60 velocity=0 time=0\n",
      "note_on channel=1 note=45 velocity=40 time=733\n",
      "note_on channel=1 note=57 velocity=40 time=0\n",
      "note_on channel=1 note=45 velocity=0 time=227\n",
      "note_on channel=1 note=57 velocity=0 time=0\n",
      "note_on channel=1 note=48 velocity=40 time=253\n",
      "note_on channel=1 note=60 velocity=40 time=0\n",
      "note_on channel=1 note=48 velocity=0 time=227\n",
      "note_on channel=1 note=60 velocity=0 time=0\n",
      "note_on channel=1 note=50 velocity=40 time=253\n",
      "note_on channel=1 note=50 velocity=0 time=227\n",
      "note_on channel=1 note=50 velocity=40 time=733\n",
      "note_on channel=1 note=50 velocity=0 time=227\n",
      "note_on channel=1 note=50 velocity=40 time=253\n",
      "note_on channel=1 note=57 velocity=40 time=0\n",
      "note_on channel=1 note=50 velocity=0 time=227\n",
      "note_on channel=1 note=57 velocity=0 time=0\n",
      "note_on channel=1 note=55 velocity=40 time=253\n",
      "note_on channel=1 note=59 velocity=40 time=0\n",
      "note_on channel=1 note=55 velocity=0 time=227\n",
      "note_on channel=1 note=59 velocity=0 time=0\n",
      "note_on channel=1 note=52 velocity=40 time=253\n",
      "note_on channel=1 note=55 velocity=40 time=0\n",
      "note_on channel=1 note=52 velocity=0 time=227\n",
      "note_on channel=1 note=55 velocity=0 time=0\n",
      "note_on channel=1 note=48 velocity=40 time=253\n",
      "note_on channel=1 note=52 velocity=40 time=0\n",
      "note_on channel=1 note=48 velocity=0 time=227\n",
      "note_on channel=1 note=52 velocity=0 time=0\n",
      "note_on channel=1 note=50 velocity=40 time=253\n",
      "note_on channel=1 note=57 velocity=40 time=0\n",
      "note_on channel=1 note=50 velocity=0 time=227\n",
      "note_on channel=1 note=57 velocity=0 time=0\n",
      "note_on channel=1 note=43 velocity=40 time=253\n",
      "control_change channel=1 control=64 value=127 time=2\n",
      "note_on channel=1 note=50 velocity=40 time=74\n",
      "note_on channel=1 note=55 velocity=40 time=77\n",
      "note_on channel=1 note=50 velocity=0 time=85\n",
      "note_on channel=1 note=55 velocity=0 time=0\n",
      "note_on channel=1 note=43 velocity=0 time=1\n",
      "control_change channel=1 control=64 value=0 time=2\n",
      "note_on channel=1 note=48 velocity=102 time=479\n",
      "note_on channel=1 note=52 velocity=102 time=0\n",
      "note_on channel=1 note=55 velocity=102 time=0\n",
      "note_on channel=1 note=60 velocity=102 time=0\n",
      "control_change channel=1 control=64 value=127 time=2\n",
      "note_on channel=1 note=48 velocity=0 time=225\n",
      "note_on channel=1 note=52 velocity=0 time=0\n",
      "note_on channel=1 note=55 velocity=0 time=0\n",
      "note_on channel=1 note=60 velocity=0 time=0\n",
      "note_on channel=1 note=48 velocity=102 time=13\n",
      "note_on channel=1 note=52 velocity=102 time=0\n",
      "note_on channel=1 note=55 velocity=102 time=0\n",
      "note_on channel=1 note=60 velocity=102 time=0\n",
      "note_on channel=1 note=48 velocity=0 time=227\n",
      "note_on channel=1 note=52 velocity=0 time=0\n",
      "note_on channel=1 note=55 velocity=0 time=0\n",
      "note_on channel=1 note=60 velocity=0 time=0\n",
      "note_on channel=1 note=36 velocity=127 time=13\n",
      "note_on channel=1 note=48 velocity=127 time=0\n",
      "note_on channel=1 note=36 velocity=0 time=479\n",
      "note_on channel=1 note=48 velocity=0 time=0\n",
      "note_on channel=1 note=48 velocity=102 time=1\n",
      "note_on channel=1 note=52 velocity=102 time=0\n",
      "note_on channel=1 note=55 velocity=102 time=0\n",
      "note_on channel=1 note=60 velocity=102 time=0\n",
      "control_change channel=1 control=64 value=0 time=1\n",
      "control_change channel=1 control=64 value=127 time=1\n",
      "note_on channel=1 note=48 velocity=0 time=225\n",
      "note_on channel=1 note=52 velocity=0 time=0\n",
      "note_on channel=1 note=55 velocity=0 time=0\n",
      "note_on channel=1 note=60 velocity=0 time=0\n",
      "note_on channel=1 note=48 velocity=102 time=13\n",
      "note_on channel=1 note=52 velocity=102 time=0\n",
      "note_on channel=1 note=55 velocity=102 time=0\n",
      "note_on channel=1 note=60 velocity=102 time=0\n",
      "note_on channel=1 note=48 velocity=0 time=227\n",
      "note_on channel=1 note=52 velocity=0 time=0\n",
      "note_on channel=1 note=55 velocity=0 time=0\n",
      "note_on channel=1 note=60 velocity=0 time=0\n",
      "note_on channel=1 note=36 velocity=127 time=13\n",
      "note_on channel=1 note=48 velocity=127 time=0\n",
      "note_on channel=1 note=36 velocity=0 time=479\n",
      "note_on channel=1 note=48 velocity=0 time=0\n",
      "note_on channel=1 note=48 velocity=102 time=1\n",
      "note_on channel=1 note=52 velocity=102 time=0\n",
      "note_on channel=1 note=55 velocity=102 time=0\n",
      "note_on channel=1 note=60 velocity=102 time=0\n",
      "control_change channel=1 control=64 value=0 time=1\n",
      "control_change channel=1 control=64 value=127 time=1\n",
      "note_on channel=1 note=48 velocity=0 time=225\n",
      "note_on channel=1 note=52 velocity=0 time=0\n",
      "note_on channel=1 note=55 velocity=0 time=0\n",
      "note_on channel=1 note=60 velocity=0 time=0\n",
      "note_on channel=1 note=48 velocity=102 time=13\n",
      "note_on channel=1 note=52 velocity=102 time=0\n",
      "note_on channel=1 note=55 velocity=102 time=0\n",
      "note_on channel=1 note=60 velocity=102 time=0\n",
      "note_on channel=1 note=48 velocity=0 time=227\n",
      "note_on channel=1 note=52 velocity=0 time=0\n",
      "note_on channel=1 note=55 velocity=0 time=0\n",
      "note_on channel=1 note=60 velocity=0 time=0\n",
      "note_on channel=1 note=36 velocity=127 time=13\n",
      "note_on channel=1 note=48 velocity=127 time=0\n",
      "note_on channel=1 note=36 velocity=0 time=239\n",
      "note_on channel=1 note=48 velocity=0 time=0\n",
      "note_on channel=1 note=48 velocity=102 time=1\n",
      "note_on channel=1 note=52 velocity=102 time=0\n",
      "note_on channel=1 note=55 velocity=102 time=0\n",
      "note_on channel=1 note=60 velocity=102 time=0\n",
      "note_on channel=1 note=48 velocity=0 time=227\n",
      "note_on channel=1 note=52 velocity=0 time=0\n",
      "note_on channel=1 note=55 velocity=0 time=0\n",
      "note_on channel=1 note=60 velocity=0 time=0\n",
      "note_on channel=1 note=36 velocity=127 time=13\n",
      "note_on channel=1 note=48 velocity=127 time=0\n",
      "note_on channel=1 note=36 velocity=0 time=239\n",
      "note_on channel=1 note=48 velocity=0 time=0\n",
      "note_on channel=1 note=48 velocity=106 time=1\n",
      "note_on channel=1 note=52 velocity=106 time=0\n",
      "note_on channel=1 note=55 velocity=106 time=0\n",
      "note_on channel=1 note=60 velocity=106 time=0\n",
      "note_on channel=1 note=48 velocity=0 time=227\n",
      "note_on channel=1 note=52 velocity=0 time=0\n",
      "note_on channel=1 note=55 velocity=0 time=0\n",
      "note_on channel=1 note=60 velocity=0 time=0\n",
      "note_on channel=1 note=36 velocity=127 time=13\n",
      "note_on channel=1 note=48 velocity=127 time=0\n",
      "note_on channel=1 note=36 velocity=0 time=479\n",
      "note_on channel=1 note=48 velocity=0 time=0\n",
      "note_on channel=1 note=48 velocity=106 time=1\n",
      "note_on channel=1 note=52 velocity=106 time=0\n",
      "note_on channel=1 note=55 velocity=106 time=0\n",
      "note_on channel=1 note=60 velocity=106 time=0\n",
      "control_change channel=1 control=64 value=0 time=1\n",
      "control_change channel=1 control=64 value=127 time=1\n",
      "note_on channel=1 note=48 velocity=0 time=453\n",
      "note_on channel=1 note=52 velocity=0 time=0\n",
      "note_on channel=1 note=55 velocity=0 time=0\n",
      "note_on channel=1 note=60 velocity=0 time=0\n",
      "note_on channel=1 note=48 velocity=106 time=25\n",
      "note_on channel=1 note=55 velocity=106 time=0\n",
      "note_on channel=1 note=57 velocity=106 time=0\n",
      "note_on channel=1 note=60 velocity=106 time=0\n",
      "control_change channel=1 control=64 value=0 time=1\n",
      "note_on channel=1 note=48 velocity=0 time=454\n",
      "note_on channel=1 note=55 velocity=0 time=0\n",
      "note_on channel=1 note=57 velocity=0 time=0\n",
      "note_on channel=1 note=60 velocity=0 time=0\n",
      "note_on channel=1 note=50 velocity=106 time=25\n",
      "note_on channel=1 note=54 velocity=106 time=0\n",
      "note_on channel=1 note=57 velocity=106 time=0\n",
      "note_on channel=1 note=62 velocity=106 time=0\n",
      "control_change channel=1 control=64 value=127 time=2\n",
      "note_on channel=1 note=50 velocity=0 time=453\n",
      "note_on channel=1 note=54 velocity=0 time=0\n",
      "note_on channel=1 note=57 velocity=0 time=0\n",
      "note_on channel=1 note=62 velocity=0 time=0\n",
      "note_on channel=1 note=38 velocity=106 time=25\n",
      "note_on channel=1 note=50 velocity=106 time=0\n",
      "note_on channel=1 note=38 velocity=0 time=455\n",
      "note_on channel=1 note=50 velocity=0 time=0\n",
      "note_on channel=1 note=54 velocity=106 time=25\n",
      "note_on channel=1 note=57 velocity=106 time=0\n",
      "note_on channel=1 note=50 velocity=106 time=0\n",
      "control_change channel=1 control=64 value=0 time=1\n",
      "note_on channel=1 note=54 velocity=0 time=112\n",
      "note_on channel=1 note=57 velocity=0 time=0\n",
      "note_on channel=1 note=52 velocity=106 time=7\n",
      "note_on channel=1 note=55 velocity=106 time=0\n",
      "note_on channel=1 note=52 velocity=0 time=113\n",
      "note_on channel=1 note=55 velocity=0 time=0\n",
      "note_on channel=1 note=54 velocity=106 time=7\n",
      "note_on channel=1 note=57 velocity=106 time=0\n",
      "note_on channel=1 note=50 velocity=0 time=215\n",
      "note_on channel=1 note=54 velocity=0 time=12\n",
      "note_on channel=1 note=57 velocity=0 time=0\n",
      "note_on channel=1 note=38 velocity=106 time=13\n",
      "note_on channel=1 note=50 velocity=106 time=0\n",
      "note_on channel=1 note=38 velocity=0 time=455\n",
      "note_on channel=1 note=50 velocity=0 time=0\n",
      "note_on channel=1 note=43 velocity=106 time=25\n",
      "note_on channel=1 note=55 velocity=106 time=0\n",
      "note_on channel=1 note=43 velocity=0 time=227\n",
      "note_on channel=1 note=55 velocity=0 time=0\n",
      "note_on channel=1 note=43 velocity=106 time=13\n",
      "note_on channel=1 note=55 velocity=106 time=0\n",
      "note_on channel=1 note=43 velocity=0 time=227\n",
      "note_on channel=1 note=55 velocity=0 time=0\n",
      "note_on channel=1 note=40 velocity=106 time=13\n",
      "note_on channel=1 note=52 velocity=106 time=0\n",
      "note_on channel=1 note=40 velocity=0 time=455\n",
      "note_on channel=1 note=52 velocity=0 time=0\n",
      "note_on channel=1 note=36 velocity=106 time=25\n",
      "note_on channel=1 note=48 velocity=106 time=0\n",
      "note_on channel=1 note=36 velocity=0 time=227\n",
      "note_on channel=1 note=48 velocity=0 time=0\n",
      "note_on channel=1 note=36 velocity=106 time=13\n",
      "note_on channel=1 note=48 velocity=106 time=0\n",
      "note_on channel=1 note=36 velocity=0 time=227\n",
      "note_on channel=1 note=48 velocity=0 time=0\n",
      "note_on channel=1 note=38 velocity=106 time=13\n",
      "note_on channel=1 note=50 velocity=106 time=0\n",
      "note_on channel=1 note=38 velocity=0 time=455\n",
      "note_on channel=1 note=50 velocity=0 time=0\n",
      "note_on channel=1 note=50 velocity=106 time=25\n",
      "note_on channel=1 note=62 velocity=106 time=0\n",
      "note_on channel=1 note=50 velocity=0 time=227\n",
      "note_on channel=1 note=62 velocity=0 time=0\n",
      "note_on channel=1 note=47 velocity=127 time=13\n",
      "note_on channel=1 note=59 velocity=127 time=0\n",
      "control_change channel=1 control=64 value=127 time=2\n",
      "note_on channel=1 note=47 velocity=0 time=117\n",
      "note_on channel=1 note=59 velocity=0 time=0\n",
      "note_on channel=1 note=50 velocity=106 time=1\n",
      "note_on channel=1 note=50 velocity=0 time=113\n",
      "note_on channel=1 note=52 velocity=106 time=7\n",
      "note_on channel=1 note=52 velocity=0 time=113\n",
      "note_on channel=1 note=54 velocity=106 time=7\n",
      "note_on channel=1 note=54 velocity=0 time=113\n",
      "note_on channel=1 note=55 velocity=106 time=7\n",
      "note_on channel=1 note=55 velocity=0 time=113\n",
      "note_on channel=1 note=57 velocity=106 time=7\n",
      "note_on channel=1 note=57 velocity=0 time=113\n",
      "note_on channel=1 note=59 velocity=106 time=7\n",
      "control_change channel=1 control=64 value=0 time=1\n",
      "note_on channel=1 note=59 velocity=0 time=112\n",
      "note_on channel=1 note=55 velocity=106 time=7\n",
      "note_on channel=1 note=55 velocity=0 time=113\n",
      "note_on channel=1 note=52 velocity=106 time=7\n",
      "note_on channel=1 note=52 velocity=0 time=113\n",
      "note_on channel=1 note=55 velocity=106 time=7\n",
      "note_on channel=1 note=55 velocity=0 time=113\n",
      "note_on channel=1 note=54 velocity=106 time=7\n",
      "note_on channel=1 note=54 velocity=0 time=113\n",
      "note_on channel=1 note=57 velocity=106 time=7\n",
      "note_on channel=1 note=57 velocity=0 time=113\n",
      "note_on channel=1 note=55 velocity=106 time=7\n",
      "note_on channel=1 note=55 velocity=0 time=113\n",
      "note_on channel=1 note=54 velocity=106 time=7\n",
      "note_on channel=1 note=54 velocity=0 time=113\n",
      "note_on channel=1 note=52 velocity=106 time=7\n",
      "note_on channel=1 note=52 velocity=0 time=113\n",
      "note_on channel=1 note=50 velocity=106 time=7\n",
      "note_on channel=1 note=50 velocity=0 time=113\n",
      "note_on channel=1 note=48 velocity=106 time=7\n",
      "note_on channel=1 note=48 velocity=0 time=113\n",
      "note_on channel=1 note=47 velocity=106 time=7\n",
      "note_on channel=1 note=47 velocity=0 time=113\n",
      "note_on channel=1 note=48 velocity=106 time=7\n",
      "note_on channel=1 note=48 velocity=0 time=113\n",
      "note_on channel=1 note=50 velocity=106 time=7\n",
      "note_on channel=1 note=50 velocity=0 time=113\n",
      "note_on channel=1 note=47 velocity=106 time=7\n",
      "note_on channel=1 note=47 velocity=0 time=113\n",
      "note_on channel=1 note=43 velocity=106 time=7\n",
      "note_on channel=1 note=43 velocity=0 time=113\n",
      "note_on channel=1 note=45 velocity=106 time=7\n",
      "note_on channel=1 note=45 velocity=0 time=113\n",
      "note_on channel=1 note=47 velocity=106 time=7\n",
      "note_on channel=1 note=47 velocity=0 time=113\n",
      "note_on channel=1 note=48 velocity=106 time=7\n",
      "note_on channel=1 note=48 velocity=0 time=113\n",
      "note_on channel=1 note=45 velocity=106 time=7\n",
      "note_on channel=1 note=45 velocity=0 time=113\n",
      "note_on channel=1 note=47 velocity=106 time=7\n",
      "note_on channel=1 note=47 velocity=0 time=113\n",
      "note_on channel=1 note=48 velocity=106 time=7\n",
      "note_on channel=1 note=48 velocity=0 time=113\n",
      "note_on channel=1 note=50 velocity=106 time=7\n",
      "control_change channel=1 control=64 value=127 time=2\n",
      "note_on channel=1 note=50 velocity=0 time=225\n",
      "note_on channel=1 note=38 velocity=106 time=13\n",
      "note_on channel=1 note=50 velocity=106 time=0\n",
      "note_on channel=1 note=38 velocity=0 time=227\n",
      "note_on channel=1 note=50 velocity=0 time=0\n",
      "control_change channel=1 control=64 value=0 time=14\n",
      "note_on channel=1 note=50 velocity=49 time=3599\n",
      "note_on channel=1 note=57 velocity=49 time=0\n",
      "note_on channel=1 note=50 velocity=0 time=227\n",
      "note_on channel=1 note=57 velocity=0 time=0\n",
      "note_on channel=1 note=43 velocity=90 time=13\n",
      "note_on channel=1 note=55 velocity=90 time=0\n",
      "control_change channel=1 control=64 value=127 time=2\n",
      "note_on channel=1 note=43 velocity=0 time=225\n",
      "note_on channel=1 note=55 velocity=0 time=0\n",
      "note_on channel=1 note=43 velocity=106 time=13\n",
      "note_on channel=1 note=43 velocity=0 time=113\n",
      "note_on channel=1 note=55 velocity=106 time=7\n",
      "note_on channel=1 note=55 velocity=0 time=113\n",
      "note_on channel=1 note=43 velocity=106 time=7\n",
      "note_on channel=1 note=43 velocity=0 time=227\n",
      "control_change channel=1 control=64 value=0 time=14\n",
      "note_on channel=1 note=43 velocity=90 time=3119\n",
      "note_on channel=1 note=55 velocity=90 time=0\n",
      "control_change channel=1 control=64 value=127 time=2\n",
      "note_on channel=1 note=43 velocity=0 time=225\n",
      "note_on channel=1 note=55 velocity=0 time=0\n",
      "note_on channel=1 note=43 velocity=102 time=13\n",
      "note_on channel=1 note=43 velocity=0 time=113\n",
      "note_on channel=1 note=55 velocity=102 time=7\n",
      "note_on channel=1 note=55 velocity=0 time=113\n",
      "note_on channel=1 note=43 velocity=102 time=7\n",
      "note_on channel=1 note=43 velocity=0 time=227\n",
      "control_change channel=1 control=64 value=0 time=14\n",
      "note_on channel=1 note=45 velocity=90 time=2159\n",
      "note_on channel=1 note=45 velocity=0 time=227\n",
      "note_on channel=1 note=38 velocity=90 time=253\n",
      "note_on channel=1 note=38 velocity=0 time=227\n",
      "note_on channel=1 note=45 velocity=90 time=733\n",
      "note_on channel=1 note=45 velocity=0 time=227\n",
      "note_on channel=1 note=38 velocity=90 time=13\n",
      "note_on channel=1 note=38 velocity=0 time=227\n",
      "note_on channel=1 note=45 velocity=70 time=493\n",
      "note_on channel=1 note=45 velocity=0 time=227\n",
      "note_on channel=1 note=37 velocity=70 time=13\n",
      "note_on channel=1 note=37 velocity=0 time=227\n",
      "note_on channel=1 note=46 velocity=56 time=493\n",
      "note_on channel=1 note=46 velocity=0 time=227\n",
      "note_on channel=1 note=37 velocity=56 time=13\n",
      "note_on channel=1 note=37 velocity=0 time=227\n",
      "note_on channel=1 note=30 velocity=33 time=4813\n",
      "note_on channel=1 note=42 velocity=33 time=0\n",
      "control_change channel=1 control=64 value=127 time=2\n",
      "note_on channel=1 note=30 velocity=0 time=3645\n",
      "note_on channel=1 note=42 velocity=0 time=0\n",
      "note_on channel=1 note=42 velocity=33 time=193\n",
      "note_on channel=1 note=54 velocity=33 time=0\n",
      "control_change channel=1 control=64 value=0 time=1\n",
      "control_change channel=1 control=64 value=127 time=1\n",
      "note_on channel=1 note=42 velocity=0 time=225\n",
      "note_on channel=1 note=54 velocity=0 time=0\n",
      "note_on channel=1 note=43 velocity=33 time=1693\n",
      "note_on channel=1 note=55 velocity=33 time=0\n",
      "control_change channel=1 control=64 value=0 time=1\n",
      "control_change channel=1 control=64 value=127 time=1\n",
      "note_on channel=1 note=43 velocity=0 time=225\n",
      "note_on channel=1 note=55 velocity=0 time=0\n",
      "note_on channel=1 note=36 velocity=33 time=1693\n",
      "note_on channel=1 note=48 velocity=33 time=0\n",
      "control_change channel=1 control=64 value=0 time=1\n",
      "control_change channel=1 control=64 value=127 time=1\n",
      "note_on channel=1 note=36 velocity=0 time=3645\n",
      "note_on channel=1 note=48 velocity=0 time=0\n",
      "note_on channel=1 note=48 velocity=33 time=193\n",
      "note_on channel=1 note=60 velocity=33 time=0\n",
      "control_change channel=1 control=64 value=0 time=1\n",
      "control_change channel=1 control=64 value=127 time=1\n",
      "note_on channel=1 note=48 velocity=0 time=225\n",
      "note_on channel=1 note=60 velocity=0 time=0\n",
      "note_on channel=1 note=64 velocity=33 time=733\n",
      "control_change channel=1 control=64 value=0 time=1\n",
      "note_on channel=1 note=64 velocity=0 time=454\n",
      "note_on channel=1 note=60 velocity=33 time=25\n",
      "note_on channel=1 note=60 velocity=0 time=455\n",
      "note_on channel=1 note=57 velocity=33 time=25\n",
      "note_on channel=1 note=50 velocity=33 time=0\n",
      "control_change channel=1 control=64 value=127 time=2\n",
      "note_on channel=1 note=50 velocity=0 time=225\n",
      "note_on channel=1 note=57 velocity=0 time=684\n",
      "note_on channel=1 note=62 velocity=33 time=49\n",
      "control_change channel=1 control=64 value=0 time=1\n",
      "note_on channel=1 note=62 velocity=0 time=910\n",
      "note_on channel=1 note=43 velocity=33 time=49\n",
      "note_on channel=1 note=55 velocity=33 time=0\n",
      "note_on channel=1 note=43 velocity=0 time=227\n",
      "note_on channel=1 note=55 velocity=0 time=0\n",
      "control_change channel=1 control=64 value=127 time=15\n",
      "note_on channel=1 note=60 velocity=55 time=1198\n",
      "control_change channel=1 control=64 value=0 time=1\n",
      "note_on channel=1 note=60 velocity=0 time=226\n",
      "note_on channel=1 note=59 velocity=55 time=13\n",
      "note_on channel=1 note=59 velocity=0 time=227\n",
      "note_on channel=1 note=59 velocity=55 time=13\n",
      "note_on channel=1 note=50 velocity=55 time=0\n",
      "note_on channel=1 note=50 velocity=0 time=227\n",
      "note_on channel=1 note=59 velocity=0 time=228\n",
      "note_on channel=1 note=57 velocity=55 time=25\n",
      "note_on channel=1 note=57 velocity=0 time=683\n",
      "note_on channel=1 note=50 velocity=55 time=37\n",
      "note_on channel=1 note=50 velocity=0 time=227\n",
      "note_on channel=1 note=52 velocity=55 time=13\n",
      "note_on channel=1 note=52 velocity=0 time=227\n",
      "note_on channel=1 note=54 velocity=55 time=13\n",
      "note_on channel=1 note=54 velocity=0 time=227\n",
      "note_on channel=1 note=59 velocity=55 time=13\n",
      "note_on channel=1 note=55 velocity=55 time=0\n",
      "note_on channel=1 note=59 velocity=0 time=911\n",
      "note_on channel=1 note=55 velocity=0 time=0\n",
      "note_on channel=1 note=57 velocity=55 time=49\n",
      "note_on channel=1 note=57 velocity=0 time=38\n",
      "note_on channel=1 note=55 velocity=55 time=1\n",
      "note_on channel=1 note=55 velocity=0 time=38\n",
      "note_on channel=1 note=54 velocity=55 time=2\n",
      "note_on channel=1 note=54 velocity=0 time=38\n",
      "note_on channel=1 note=55 velocity=55 time=3\n",
      "note_on channel=1 note=55 velocity=0 time=113\n",
      "note_on channel=1 note=57 velocity=55 time=7\n",
      "note_on channel=1 note=57 velocity=0 time=227\n",
      "note_on channel=1 note=59 velocity=55 time=13\n",
      "note_on channel=1 note=59 velocity=0 time=227\n",
      "note_on channel=1 note=60 velocity=55 time=13\n",
      "note_on channel=1 note=60 velocity=0 time=227\n",
      "note_on channel=1 note=57 velocity=55 time=13\n",
      "note_on channel=1 note=57 velocity=0 time=1139\n",
      "note_on channel=1 note=59 velocity=55 time=61\n",
      "note_on channel=1 note=59 velocity=0 time=227\n",
      "note_on channel=1 note=60 velocity=55 time=13\n",
      "note_on channel=1 note=60 velocity=0 time=227\n",
      "note_on channel=1 note=62 velocity=55 time=13\n",
      "note_on channel=1 note=62 velocity=0 time=227\n",
      "note_on channel=1 note=59 velocity=40 time=13\n",
      "note_on channel=1 note=62 velocity=40 time=0\n",
      "note_on channel=1 note=55 velocity=40 time=0\n",
      "control_change channel=1 control=64 value=127 time=2\n",
      "note_on channel=1 note=59 velocity=0 time=111\n",
      "note_on channel=1 note=62 velocity=0 time=0\n",
      "note_on channel=1 note=67 velocity=41 time=7\n",
      "note_on channel=1 note=55 velocity=0 time=107\n",
      "note_on channel=1 note=67 velocity=0 time=6\n",
      "note_on channel=1 note=59 velocity=43 time=7\n",
      "note_on channel=1 note=62 velocity=43 time=0\n",
      "note_on channel=1 note=59 velocity=0 time=113\n",
      "note_on channel=1 note=62 velocity=0 time=0\n",
      "note_on channel=1 note=67 velocity=44 time=7\n",
      "note_on channel=1 note=67 velocity=0 time=113\n",
      "note_on channel=1 note=59 velocity=46 time=7\n",
      "note_on channel=1 note=62 velocity=46 time=0\n",
      "note_on channel=1 note=59 velocity=0 time=113\n",
      "note_on channel=1 note=62 velocity=0 time=0\n",
      "note_on channel=1 note=67 velocity=47 time=7\n",
      "note_on channel=1 note=67 velocity=0 time=113\n",
      "control_change channel=1 control=64 value=0 time=248\n",
      "note_on channel=1 note=60 velocity=65 time=959\n",
      "note_on channel=1 note=50 velocity=65 time=0\n",
      "note_on channel=1 note=60 velocity=0 time=113\n",
      "note_on channel=1 note=62 velocity=66 time=7\n",
      "note_on channel=1 note=50 velocity=0 time=107\n",
      "note_on channel=1 note=62 velocity=0 time=6\n",
      "note_on channel=1 note=60 velocity=68 time=7\n",
      "note_on channel=1 note=60 velocity=0 time=113\n",
      "note_on channel=1 note=62 velocity=69 time=7\n",
      "note_on channel=1 note=62 velocity=0 time=113\n",
      "note_on channel=1 note=60 velocity=71 time=7\n",
      "note_on channel=1 note=60 velocity=0 time=113\n",
      "note_on channel=1 note=62 velocity=72 time=7\n",
      "note_on channel=1 note=62 velocity=0 time=113\n",
      "note_on channel=1 note=60 velocity=74 time=7\n",
      "note_on channel=1 note=60 velocity=0 time=113\n",
      "note_on channel=1 note=62 velocity=75 time=7\n",
      "note_on channel=1 note=62 velocity=0 time=113\n",
      "note_on channel=1 note=60 velocity=77 time=7\n",
      "note_on channel=1 note=60 velocity=0 time=113\n",
      "note_on channel=1 note=62 velocity=79 time=7\n",
      "note_on channel=1 note=62 velocity=0 time=113\n",
      "note_on channel=1 note=60 velocity=80 time=7\n",
      "note_on channel=1 note=50 velocity=80 time=0\n",
      "note_on channel=1 note=60 velocity=0 time=113\n",
      "note_on channel=1 note=62 velocity=82 time=7\n",
      "note_on channel=1 note=50 velocity=0 time=107\n",
      "note_on channel=1 note=62 velocity=0 time=6\n",
      "note_on channel=1 note=60 velocity=83 time=7\n",
      "note_on channel=1 note=52 velocity=83 time=0\n",
      "note_on channel=1 note=60 velocity=0 time=113\n",
      "note_on channel=1 note=62 velocity=85 time=7\n",
      "note_on channel=1 note=52 velocity=0 time=107\n",
      "note_on channel=1 note=62 velocity=0 time=6\n",
      "note_on channel=1 note=60 velocity=86 time=7\n",
      "note_on channel=1 note=54 velocity=86 time=0\n",
      "note_on channel=1 note=60 velocity=0 time=113\n",
      "note_on channel=1 note=62 velocity=88 time=7\n",
      "note_on channel=1 note=54 velocity=0 time=107\n",
      "note_on channel=1 note=62 velocity=0 time=6\n",
      "note_on channel=1 note=38 velocity=90 time=7\n",
      "note_on channel=1 note=50 velocity=90 time=0\n",
      "control_change channel=1 control=64 value=127 time=2\n",
      "note_on channel=1 note=38 velocity=0 time=909\n",
      "note_on channel=1 note=50 velocity=0 time=0\n",
      "note_on channel=1 note=38 velocity=90 time=49\n",
      "note_on channel=1 note=50 velocity=90 time=0\n",
      "control_change channel=1 control=64 value=0 time=1\n",
      "control_change channel=1 control=64 value=127 time=1\n",
      "note_on channel=1 note=38 velocity=0 time=453\n",
      "note_on channel=1 note=50 velocity=0 time=0\n",
      "note_on channel=1 note=36 velocity=90 time=25\n",
      "note_on channel=1 note=48 velocity=90 time=0\n",
      "note_on channel=1 note=36 velocity=0 time=227\n",
      "note_on channel=1 note=48 velocity=0 time=0\n",
      "note_on channel=1 note=35 velocity=90 time=13\n",
      "note_on channel=1 note=47 velocity=90 time=0\n",
      "note_on channel=1 note=35 velocity=0 time=227\n",
      "note_on channel=1 note=47 velocity=0 time=0\n",
      "note_on channel=1 note=35 velocity=90 time=13\n",
      "note_on channel=1 note=47 velocity=90 time=0\n",
      "control_change channel=1 control=64 value=0 time=1\n",
      "control_change channel=1 control=64 value=127 time=1\n",
      "note_on channel=1 note=35 velocity=0 time=453\n",
      "note_on channel=1 note=47 velocity=0 time=0\n",
      "note_on channel=1 note=33 velocity=90 time=25\n",
      "note_on channel=1 note=45 velocity=90 time=0\n",
      "control_change channel=1 control=64 value=0 time=481\n",
      "note_on channel=1 note=33 velocity=0 time=202\n",
      "note_on channel=1 note=45 velocity=0 time=0\n",
      "note_on channel=1 note=26 velocity=90 time=37\n",
      "note_on channel=1 note=38 velocity=90 time=0\n",
      "control_change channel=1 control=64 value=127 time=2\n",
      "note_on channel=1 note=26 velocity=0 time=225\n",
      "note_on channel=1 note=38 velocity=0 time=0\n",
      "note_on channel=1 note=28 velocity=90 time=13\n",
      "note_on channel=1 note=40 velocity=90 time=0\n",
      "note_on channel=1 note=28 velocity=0 time=227\n",
      "note_on channel=1 note=40 velocity=0 time=0\n",
      "note_on channel=1 note=30 velocity=90 time=13\n",
      "note_on channel=1 note=42 velocity=90 time=0\n",
      "note_on channel=1 note=30 velocity=0 time=227\n",
      "note_on channel=1 note=42 velocity=0 time=0\n",
      "note_on channel=1 note=31 velocity=90 time=13\n",
      "note_on channel=1 note=43 velocity=90 time=0\n",
      "control_change channel=1 control=64 value=0 time=1\n",
      "note_on channel=1 note=31 velocity=0 time=226\n",
      "note_on channel=1 note=43 velocity=0 time=0\n",
      "note_on channel=1 note=33 velocity=90 time=13\n",
      "note_on channel=1 note=45 velocity=90 time=0\n",
      "control_change channel=1 control=64 value=127 time=2\n",
      "note_on channel=1 note=33 velocity=0 time=111\n",
      "note_on channel=1 note=45 velocity=0 time=0\n",
      "note_on channel=1 note=57 velocity=90 time=7\n",
      "note_on channel=1 note=69 velocity=90 time=0\n",
      "note_on channel=1 note=57 velocity=0 time=113\n",
      "note_on channel=1 note=69 velocity=0 time=0\n",
      "note_on channel=1 note=35 velocity=90 time=7\n",
      "note_on channel=1 note=47 velocity=90 time=0\n",
      "note_on channel=1 note=35 velocity=0 time=113\n",
      "note_on channel=1 note=47 velocity=0 time=0\n",
      "note_on channel=1 note=59 velocity=90 time=7\n",
      "note_on channel=1 note=71 velocity=90 time=0\n",
      "note_on channel=1 note=59 velocity=0 time=113\n",
      "note_on channel=1 note=71 velocity=0 time=0\n",
      "note_on channel=1 note=36 velocity=112 time=7\n",
      "note_on channel=1 note=48 velocity=112 time=0\n",
      "control_change channel=1 control=64 value=0 time=1\n",
      "note_on channel=1 note=36 velocity=0 time=112\n",
      "note_on channel=1 note=48 velocity=0 time=0\n",
      "note_on channel=1 note=60 velocity=112 time=7\n",
      "note_on channel=1 note=72 velocity=112 time=0\n",
      "note_on channel=1 note=60 velocity=0 time=113\n",
      "note_on channel=1 note=72 velocity=0 time=0\n",
      "note_on channel=1 note=33 velocity=90 time=7\n",
      "note_on channel=1 note=45 velocity=90 time=0\n",
      "control_change channel=1 control=64 value=127 time=2\n",
      "note_on channel=1 note=33 velocity=0 time=111\n",
      "note_on channel=1 note=45 velocity=0 time=0\n",
      "note_on channel=1 note=57 velocity=90 time=7\n",
      "note_on channel=1 note=69 velocity=90 time=0\n",
      "note_on channel=1 note=57 velocity=0 time=113\n",
      "note_on channel=1 note=69 velocity=0 time=0\n",
      "note_on channel=1 note=35 velocity=90 time=7\n",
      "note_on channel=1 note=47 velocity=90 time=0\n",
      "note_on channel=1 note=35 velocity=0 time=113\n",
      "note_on channel=1 note=47 velocity=0 time=0\n",
      "note_on channel=1 note=59 velocity=90 time=7\n",
      "note_on channel=1 note=71 velocity=90 time=0\n",
      "note_on channel=1 note=59 velocity=0 time=113\n",
      "note_on channel=1 note=71 velocity=0 time=0\n",
      "note_on channel=1 note=36 velocity=90 time=7\n",
      "note_on channel=1 note=48 velocity=90 time=0\n",
      "note_on channel=1 note=36 velocity=0 time=113\n",
      "note_on channel=1 note=48 velocity=0 time=0\n",
      "note_on channel=1 note=60 velocity=90 time=7\n",
      "note_on channel=1 note=72 velocity=90 time=0\n",
      "note_on channel=1 note=60 velocity=0 time=113\n",
      "note_on channel=1 note=72 velocity=0 time=0\n",
      "note_on channel=1 note=38 velocity=112 time=7\n",
      "note_on channel=1 note=50 velocity=112 time=0\n",
      "control_change channel=1 control=64 value=0 time=1\n",
      "note_on channel=1 note=38 velocity=0 time=112\n",
      "note_on channel=1 note=50 velocity=0 time=0\n",
      "note_on channel=1 note=62 velocity=112 time=7\n",
      "note_on channel=1 note=74 velocity=112 time=0\n",
      "note_on channel=1 note=62 velocity=0 time=113\n",
      "note_on channel=1 note=74 velocity=0 time=0\n",
      "note_on channel=1 note=35 velocity=90 time=7\n",
      "note_on channel=1 note=47 velocity=90 time=0\n",
      "control_change channel=1 control=64 value=127 time=2\n",
      "note_on channel=1 note=35 velocity=0 time=111\n",
      "note_on channel=1 note=47 velocity=0 time=0\n",
      "note_on channel=1 note=59 velocity=90 time=7\n",
      "note_on channel=1 note=71 velocity=90 time=0\n",
      "note_on channel=1 note=59 velocity=0 time=113\n",
      "note_on channel=1 note=71 velocity=0 time=0\n",
      "note_on channel=1 note=36 velocity=90 time=7\n",
      "note_on channel=1 note=48 velocity=90 time=0\n",
      "note_on channel=1 note=36 velocity=0 time=113\n",
      "note_on channel=1 note=48 velocity=0 time=0\n",
      "note_on channel=1 note=60 velocity=90 time=7\n",
      "note_on channel=1 note=72 velocity=90 time=0\n",
      "note_on channel=1 note=60 velocity=0 time=113\n",
      "note_on channel=1 note=72 velocity=0 time=0\n",
      "note_on channel=1 note=38 velocity=90 time=7\n",
      "note_on channel=1 note=50 velocity=90 time=0\n",
      "note_on channel=1 note=38 velocity=0 time=113\n",
      "note_on channel=1 note=50 velocity=0 time=0\n",
      "note_on channel=1 note=62 velocity=90 time=7\n",
      "note_on channel=1 note=74 velocity=90 time=0\n",
      "note_on channel=1 note=62 velocity=0 time=113\n",
      "note_on channel=1 note=74 velocity=0 time=0\n",
      "note_on channel=1 note=40 velocity=112 time=7\n",
      "note_on channel=1 note=52 velocity=112 time=0\n",
      "control_change channel=1 control=64 value=0 time=1\n",
      "note_on channel=1 note=40 velocity=0 time=112\n",
      "note_on channel=1 note=52 velocity=0 time=0\n",
      "note_on channel=1 note=64 velocity=112 time=7\n",
      "note_on channel=1 note=76 velocity=112 time=0\n",
      "note_on channel=1 note=64 velocity=0 time=113\n",
      "note_on channel=1 note=76 velocity=0 time=0\n",
      "note_on channel=1 note=36 velocity=90 time=7\n",
      "note_on channel=1 note=48 velocity=90 time=0\n",
      "control_change channel=1 control=64 value=127 time=2\n",
      "note_on channel=1 note=36 velocity=0 time=111\n",
      "note_on channel=1 note=48 velocity=0 time=0\n",
      "note_on channel=1 note=60 velocity=90 time=7\n",
      "note_on channel=1 note=72 velocity=90 time=0\n",
      "note_on channel=1 note=60 velocity=0 time=113\n",
      "note_on channel=1 note=72 velocity=0 time=0\n",
      "note_on channel=1 note=38 velocity=90 time=7\n",
      "note_on channel=1 note=50 velocity=90 time=0\n",
      "note_on channel=1 note=38 velocity=0 time=113\n",
      "note_on channel=1 note=50 velocity=0 time=0\n",
      "note_on channel=1 note=62 velocity=90 time=7\n",
      "note_on channel=1 note=74 velocity=90 time=0\n",
      "note_on channel=1 note=62 velocity=0 time=113\n",
      "note_on channel=1 note=74 velocity=0 time=0\n",
      "note_on channel=1 note=40 velocity=90 time=7\n",
      "note_on channel=1 note=52 velocity=90 time=0\n",
      "note_on channel=1 note=40 velocity=0 time=113\n",
      "note_on channel=1 note=52 velocity=0 time=0\n",
      "note_on channel=1 note=64 velocity=90 time=7\n",
      "note_on channel=1 note=76 velocity=90 time=0\n",
      "note_on channel=1 note=64 velocity=0 time=113\n",
      "note_on channel=1 note=76 velocity=0 time=0\n",
      "note_on channel=1 note=42 velocity=112 time=7\n",
      "note_on channel=1 note=54 velocity=112 time=0\n",
      "control_change channel=1 control=64 value=0 time=1\n",
      "note_on channel=1 note=42 velocity=0 time=112\n",
      "note_on channel=1 note=54 velocity=0 time=0\n",
      "note_on channel=1 note=66 velocity=112 time=7\n",
      "note_on channel=1 note=78 velocity=112 time=0\n",
      "note_on channel=1 note=66 velocity=0 time=113\n",
      "note_on channel=1 note=78 velocity=0 time=0\n",
      "note_on channel=1 note=43 velocity=90 time=7\n",
      "note_on channel=1 note=55 velocity=90 time=0\n",
      "control_change channel=1 control=64 value=127 time=2\n",
      "note_on channel=1 note=43 velocity=0 time=111\n",
      "note_on channel=1 note=55 velocity=0 time=0\n",
      "note_on channel=1 note=45 velocity=112 time=127\n",
      "note_on channel=1 note=55 velocity=112 time=0\n",
      "note_on channel=1 note=57 velocity=112 time=0\n",
      "note_on channel=1 note=45 velocity=0 time=113\n",
      "note_on channel=1 note=55 velocity=0 time=0\n",
      "note_on channel=1 note=57 velocity=0 time=0\n",
      "note_on channel=1 note=46 velocity=112 time=127\n",
      "note_on channel=1 note=55 velocity=112 time=0\n",
      "note_on channel=1 note=58 velocity=112 time=0\n",
      "note_on channel=1 note=46 velocity=0 time=113\n",
      "note_on channel=1 note=55 velocity=0 time=0\n",
      "note_on channel=1 note=58 velocity=0 time=0\n",
      "note_on channel=1 note=47 velocity=112 time=127\n",
      "note_on channel=1 note=55 velocity=112 time=0\n",
      "note_on channel=1 note=59 velocity=112 time=0\n",
      "note_on channel=1 note=47 velocity=0 time=113\n",
      "note_on channel=1 note=55 velocity=0 time=0\n",
      "note_on channel=1 note=59 velocity=0 time=0\n",
      "note_on channel=1 note=48 velocity=112 time=127\n",
      "note_on channel=1 note=55 velocity=112 time=0\n",
      "note_on channel=1 note=60 velocity=112 time=0\n",
      "control_change channel=1 control=64 value=0 time=1\n",
      "control_change channel=1 control=64 value=127 time=1\n",
      "note_on channel=1 note=48 velocity=0 time=111\n",
      "note_on channel=1 note=55 velocity=0 time=0\n",
      "note_on channel=1 note=60 velocity=0 time=0\n",
      "note_on channel=1 note=49 velocity=112 time=127\n",
      "note_on channel=1 note=55 velocity=112 time=0\n",
      "note_on channel=1 note=61 velocity=112 time=0\n",
      "note_on channel=1 note=49 velocity=0 time=113\n",
      "note_on channel=1 note=55 velocity=0 time=0\n",
      "note_on channel=1 note=61 velocity=0 time=0\n",
      "note_on channel=1 note=50 velocity=112 time=127\n",
      "note_on channel=1 note=55 velocity=112 time=0\n",
      "note_on channel=1 note=62 velocity=112 time=0\n",
      "note_on channel=1 note=50 velocity=0 time=113\n",
      "note_on channel=1 note=55 velocity=0 time=0\n",
      "note_on channel=1 note=62 velocity=0 time=0\n",
      "note_on channel=1 note=51 velocity=112 time=127\n",
      "note_on channel=1 note=55 velocity=112 time=0\n",
      "note_on channel=1 note=63 velocity=112 time=0\n",
      "note_on channel=1 note=51 velocity=0 time=113\n",
      "note_on channel=1 note=55 velocity=0 time=0\n",
      "note_on channel=1 note=63 velocity=0 time=0\n",
      "note_on channel=1 note=52 velocity=112 time=127\n",
      "note_on channel=1 note=55 velocity=112 time=0\n",
      "note_on channel=1 note=64 velocity=112 time=0\n",
      "control_change channel=1 control=64 value=0 time=1\n",
      "note_on channel=1 note=52 velocity=0 time=226\n",
      "note_on channel=1 note=55 velocity=0 time=0\n",
      "note_on channel=1 note=64 velocity=0 time=0\n",
      "note_on channel=1 note=54 velocity=112 time=253\n",
      "note_on channel=1 note=55 velocity=112 time=0\n",
      "note_on channel=1 note=66 velocity=112 time=0\n",
      "note_on channel=1 note=54 velocity=0 time=227\n",
      "note_on channel=1 note=55 velocity=0 time=0\n",
      "note_on channel=1 note=66 velocity=0 time=0\n",
      "note_on channel=1 note=55 velocity=112 time=253\n",
      "note_on channel=1 note=67 velocity=112 time=0\n",
      "note_on channel=1 note=55 velocity=0 time=227\n",
      "note_on channel=1 note=67 velocity=0 time=0\n",
      "note_on channel=1 note=37 velocity=112 time=253\n",
      "note_on channel=1 note=43 velocity=112 time=0\n",
      "note_on channel=1 note=49 velocity=112 time=0\n",
      "note_on channel=1 note=37 velocity=0 time=227\n",
      "note_on channel=1 note=43 velocity=0 time=0\n",
      "note_on channel=1 note=49 velocity=0 time=0\n",
      "note_on channel=1 note=38 velocity=112 time=253\n",
      "note_on channel=1 note=50 velocity=112 time=0\n",
      "control_change channel=1 control=64 value=127 time=2\n",
      "control_change channel=1 control=64 value=0 time=719\n",
      "note_on channel=1 note=38 velocity=0 time=190\n",
      "note_on channel=1 note=50 velocity=0 time=0\n",
      "note_on channel=1 note=38 velocity=90 time=51889\n",
      "note_on channel=1 note=50 velocity=90 time=0\n",
      "note_on channel=1 note=38 velocity=0 time=227\n",
      "note_on channel=1 note=50 velocity=0 time=0\n",
      "note_on channel=1 note=59 velocity=90 time=7453\n",
      "note_on channel=1 note=59 velocity=0 time=911\n",
      "note_on channel=1 note=59 velocity=90 time=49\n",
      "note_on channel=1 note=62 velocity=90 time=0\n",
      "control_change channel=1 control=64 value=127 time=2\n",
      "note_on channel=1 note=59 velocity=0 time=909\n",
      "note_on channel=1 note=62 velocity=0 time=0\n",
      "note_on channel=1 note=35 velocity=40 time=49\n",
      "note_on channel=1 note=47 velocity=40 time=0\n",
      "note_on channel=1 note=35 velocity=0 time=455\n",
      "note_on channel=1 note=47 velocity=0 time=0\n",
      "control_change channel=1 control=64 value=0 time=26\n",
      "note_on channel=1 note=36 velocity=33 time=479\n",
      "note_on channel=1 note=48 velocity=33 time=0\n",
      "control_change channel=1 control=64 value=127 time=2\n",
      "note_on channel=1 note=36 velocity=0 time=453\n",
      "note_on channel=1 note=48 velocity=0 time=0\n",
      "note_on channel=1 note=38 velocity=33 time=505\n",
      "note_on channel=1 note=50 velocity=33 time=0\n",
      "control_change channel=1 control=64 value=0 time=1\n",
      "control_change channel=1 control=64 value=127 time=1\n",
      "note_on channel=1 note=38 velocity=0 time=225\n",
      "note_on channel=1 note=50 velocity=0 time=0\n",
      "note_on channel=1 note=55 velocity=33 time=253\n",
      "note_on channel=1 note=59 velocity=33 time=0\n",
      "note_on channel=1 note=55 velocity=0 time=227\n",
      "note_on channel=1 note=59 velocity=0 time=0\n",
      "note_on channel=1 note=38 velocity=33 time=253\n",
      "note_on channel=1 note=50 velocity=33 time=0\n",
      "control_change channel=1 control=64 value=0 time=1\n",
      "note_on channel=1 note=38 velocity=0 time=226\n",
      "note_on channel=1 note=50 velocity=0 time=0\n",
      "note_on channel=1 note=50 velocity=33 time=253\n",
      "note_on channel=1 note=57 velocity=33 time=0\n",
      "note_on channel=1 note=60 velocity=33 time=0\n",
      "note_on channel=1 note=50 velocity=0 time=227\n",
      "note_on channel=1 note=57 velocity=0 time=0\n",
      "note_on channel=1 note=60 velocity=0 time=0\n",
      "note_on channel=1 note=35 velocity=90 time=253\n",
      "note_on channel=1 note=47 velocity=90 time=0\n",
      "control_change channel=1 control=64 value=127 time=2\n",
      "note_on channel=1 note=56 velocity=70 time=958\n",
      "note_on channel=1 note=62 velocity=70 time=0\n",
      "note_on channel=1 note=35 velocity=0 time=1775\n",
      "note_on channel=1 note=47 velocity=0 time=0\n",
      "note_on channel=1 note=56 velocity=0 time=48\n",
      "note_on channel=1 note=62 velocity=0 time=0\n",
      "note_on channel=1 note=36 velocity=40 time=97\n",
      "note_on channel=1 note=48 velocity=40 time=0\n",
      "control_change channel=1 control=64 value=0 time=1\n",
      "note_on channel=1 note=36 velocity=0 time=226\n",
      "note_on channel=1 note=48 velocity=0 time=0\n",
      "note_on channel=1 note=57 velocity=40 time=253\n",
      "note_on channel=1 note=60 velocity=40 time=0\n",
      "note_on channel=1 note=57 velocity=0 time=227\n",
      "note_on channel=1 note=60 velocity=0 time=0\n",
      "note_on channel=1 note=38 velocity=40 time=253\n",
      "note_on channel=1 note=50 velocity=40 time=0\n",
      "note_on channel=1 note=38 velocity=0 time=227\n",
      "note_on channel=1 note=50 velocity=0 time=0\n",
      "note_on channel=1 note=55 velocity=40 time=253\n",
      "note_on channel=1 note=55 velocity=0 time=227\n",
      "note_on channel=1 note=38 velocity=40 time=253\n",
      "note_on channel=1 note=50 velocity=40 time=0\n",
      "note_on channel=1 note=38 velocity=0 time=227\n",
      "note_on channel=1 note=50 velocity=0 time=0\n",
      "note_on channel=1 note=57 velocity=40 time=253\n",
      "note_on channel=1 note=60 velocity=40 time=0\n",
      "note_on channel=1 note=50 velocity=40 time=0\n",
      "note_on channel=1 note=57 velocity=0 time=227\n",
      "note_on channel=1 note=60 velocity=0 time=0\n",
      "note_on channel=1 note=47 velocity=33 time=253\n",
      "note_on channel=1 note=43 velocity=33 time=0\n",
      "control_change channel=1 control=64 value=127 time=2\n",
      "note_on channel=1 note=50 velocity=0 time=429\n",
      "note_on channel=1 note=47 velocity=0 time=24\n",
      "note_on channel=1 note=50 velocity=33 time=25\n",
      "note_on channel=1 note=55 velocity=33 time=0\n",
      "note_on channel=1 note=50 velocity=0 time=227\n",
      "note_on channel=1 note=55 velocity=0 time=0\n",
      "note_on channel=1 note=55 velocity=33 time=13\n",
      "note_on channel=1 note=59 velocity=33 time=0\n",
      "note_on channel=1 note=43 velocity=0 time=191\n",
      "note_on channel=1 note=55 velocity=0 time=36\n",
      "note_on channel=1 note=59 velocity=0 time=0\n",
      "note_on channel=1 note=43 velocity=33 time=13\n",
      "control_change channel=1 control=64 value=0 time=1\n",
      "control_change channel=1 control=64 value=127 time=1\n",
      "note_on channel=1 note=43 velocity=0 time=453\n",
      "note_on channel=1 note=55 velocity=33 time=25\n",
      "note_on channel=1 note=59 velocity=33 time=76\n",
      "note_on channel=1 note=59 velocity=0 time=402\n",
      "note_on channel=1 note=55 velocity=0 time=1\n",
      "note_on channel=1 note=48 velocity=33 time=1\n",
      "note_on channel=1 note=52 velocity=33 time=0\n",
      "note_on channel=1 note=43 velocity=33 time=0\n",
      "control_change channel=1 control=64 value=0 time=1\n",
      "control_change channel=1 control=64 value=127 time=1\n",
      "note_on channel=1 note=48 velocity=0 time=453\n",
      "note_on channel=1 note=52 velocity=0 time=0\n",
      "note_on channel=1 note=43 velocity=0 time=0\n",
      "note_on channel=1 note=52 velocity=33 time=25\n",
      "note_on channel=1 note=55 velocity=33 time=0\n",
      "note_on channel=1 note=52 velocity=0 time=227\n",
      "note_on channel=1 note=55 velocity=0 time=0\n",
      "note_on channel=1 note=55 velocity=33 time=13\n",
      "note_on channel=1 note=60 velocity=33 time=0\n",
      "note_on channel=1 note=55 velocity=0 time=227\n",
      "note_on channel=1 note=60 velocity=0 time=0\n",
      "note_on channel=1 note=43 velocity=33 time=13\n",
      "control_change channel=1 control=64 value=0 time=1\n",
      "control_change channel=1 control=64 value=127 time=1\n",
      "note_on channel=1 note=43 velocity=0 time=453\n",
      "note_on channel=1 note=55 velocity=33 time=25\n",
      "note_on channel=1 note=60 velocity=33 time=76\n",
      "note_on channel=1 note=60 velocity=0 time=402\n",
      "note_on channel=1 note=55 velocity=0 time=1\n",
      "note_on channel=1 note=43 velocity=33 time=1\n",
      "control_change channel=1 control=64 value=0 time=1\n",
      "control_change channel=1 control=64 value=127 time=1\n",
      "note_on channel=1 note=43 velocity=0 time=453\n",
      "note_on channel=1 note=55 velocity=33 time=25\n",
      "note_on channel=1 note=60 velocity=33 time=76\n",
      "note_on channel=1 note=64 velocity=33 time=77\n",
      "note_on channel=1 note=60 velocity=0 time=325\n",
      "note_on channel=1 note=64 velocity=0 time=0\n",
      "note_on channel=1 note=55 velocity=0 time=1\n",
      "note_on channel=1 note=54 velocity=33 time=1\n",
      "note_on channel=1 note=43 velocity=33 time=0\n",
      "control_change channel=1 control=64 value=0 time=1\n",
      "control_change channel=1 control=64 value=127 time=1\n",
      "note_on channel=1 note=43 velocity=0 time=453\n",
      "note_on channel=1 note=57 velocity=33 time=25\n",
      "note_on channel=1 note=54 velocity=0 time=431\n",
      "note_on channel=1 note=57 velocity=0 time=24\n",
      "note_on channel=1 note=54 velocity=33 time=25\n",
      "note_on channel=1 note=43 velocity=33 time=0\n",
      "control_change channel=1 control=64 value=0 time=1\n",
      "control_change channel=1 control=64 value=127 time=1\n",
      "note_on channel=1 note=54 velocity=0 time=453\n",
      "note_on channel=1 note=43 velocity=0 time=0\n",
      "note_on channel=1 note=50 velocity=33 time=25\n",
      "note_on channel=1 note=57 velocity=33 time=0\n",
      "note_on channel=1 note=60 velocity=33 time=0\n",
      "note_on channel=1 note=50 velocity=0 time=455\n",
      "note_on channel=1 note=57 velocity=0 time=0\n",
      "note_on channel=1 note=60 velocity=0 time=0\n",
      "note_on channel=1 note=55 velocity=33 time=25\n",
      "note_on channel=1 note=43 velocity=33 time=0\n",
      "control_change channel=1 control=64 value=0 time=1\n",
      "control_change channel=1 control=64 value=127 time=1\n",
      "note_on channel=1 note=55 velocity=0 time=453\n",
      "note_on channel=1 note=43 velocity=0 time=0\n",
      "note_on channel=1 note=47 velocity=33 time=25\n",
      "note_on channel=1 note=55 velocity=33 time=0\n",
      "note_on channel=1 note=47 velocity=0 time=455\n",
      "note_on channel=1 note=55 velocity=0 time=0\n",
      "note_on channel=1 note=48 velocity=33 time=25\n",
      "note_on channel=1 note=57 velocity=33 time=0\n",
      "note_on channel=1 note=43 velocity=33 time=0\n",
      "control_change channel=1 control=64 value=0 time=1\n",
      "control_change channel=1 control=64 value=127 time=1\n",
      "note_on channel=1 note=48 velocity=0 time=453\n",
      "note_on channel=1 note=57 velocity=0 time=0\n",
      "note_on channel=1 note=50 velocity=33 time=25\n",
      "note_on channel=1 note=43 velocity=0 time=431\n",
      "note_on channel=1 note=50 velocity=0 time=24\n",
      "note_on channel=1 note=47 velocity=33 time=25\n",
      "note_on channel=1 note=43 velocity=33 time=0\n",
      "control_change channel=1 control=64 value=0 time=1\n",
      "note_on channel=1 note=43 velocity=0 time=454\n",
      "note_on channel=1 note=47 velocity=0 time=456\n",
      "note_on channel=1 note=31 velocity=33 time=49\n",
      "note_on channel=1 note=43 velocity=33 time=0\n",
      "control_change channel=1 control=64 value=127 time=2\n",
      "note_on channel=1 note=47 velocity=33 time=478\n",
      "note_on channel=1 note=50 velocity=33 time=0\n",
      "note_on channel=1 note=31 velocity=0 time=431\n",
      "note_on channel=1 note=43 velocity=0 time=0\n",
      "note_on channel=1 note=47 velocity=0 time=24\n",
      "note_on channel=1 note=50 velocity=0 time=0\n",
      "note_on channel=1 note=43 velocity=33 time=25\n",
      "note_on channel=1 note=50 velocity=33 time=0\n",
      "note_on channel=1 note=55 velocity=33 time=0\n",
      "note_on channel=1 note=43 velocity=0 time=227\n",
      "note_on channel=1 note=50 velocity=0 time=0\n",
      "note_on channel=1 note=55 velocity=0 time=0\n",
      "note_on channel=1 note=55 velocity=33 time=13\n",
      "note_on channel=1 note=59 velocity=33 time=0\n",
      "note_on channel=1 note=55 velocity=0 time=227\n",
      "note_on channel=1 note=59 velocity=0 time=0\n",
      "note_on channel=1 note=59 velocity=33 time=13\n",
      "note_on channel=1 note=62 velocity=33 time=0\n",
      "note_on channel=1 note=59 velocity=0 time=455\n",
      "note_on channel=1 note=62 velocity=0 time=0\n",
      "note_on channel=1 note=31 velocity=33 time=25\n",
      "note_on channel=1 note=43 velocity=33 time=0\n",
      "control_change channel=1 control=64 value=0 time=1\n",
      "control_change channel=1 control=64 value=127 time=1\n",
      "note_on channel=1 note=48 velocity=33 time=478\n",
      "note_on channel=1 note=52 velocity=33 time=0\n",
      "note_on channel=1 note=31 velocity=0 time=431\n",
      "note_on channel=1 note=43 velocity=0 time=0\n",
      "note_on channel=1 note=48 velocity=0 time=24\n",
      "note_on channel=1 note=52 velocity=0 time=0\n",
      "note_on channel=1 note=43 velocity=33 time=25\n",
      "note_on channel=1 note=52 velocity=33 time=0\n",
      "note_on channel=1 note=55 velocity=33 time=0\n",
      "note_on channel=1 note=43 velocity=0 time=227\n",
      "note_on channel=1 note=52 velocity=0 time=0\n",
      "note_on channel=1 note=55 velocity=0 time=0\n",
      "note_on channel=1 note=55 velocity=33 time=13\n",
      "note_on channel=1 note=60 velocity=33 time=0\n",
      "note_on channel=1 note=55 velocity=0 time=227\n",
      "note_on channel=1 note=60 velocity=0 time=0\n",
      "note_on channel=1 note=60 velocity=33 time=13\n",
      "note_on channel=1 note=64 velocity=33 time=0\n",
      "note_on channel=1 note=60 velocity=0 time=455\n",
      "note_on channel=1 note=64 velocity=0 time=0\n",
      "note_on channel=1 note=31 velocity=33 time=25\n",
      "note_on channel=1 note=43 velocity=33 time=0\n",
      "control_change channel=1 control=64 value=0 time=1\n",
      "control_change channel=1 control=64 value=127 time=1\n",
      "note_on channel=1 note=57 velocity=33 time=478\n",
      "note_on channel=1 note=60 velocity=33 time=0\n",
      "note_on channel=1 note=31 velocity=0 time=431\n",
      "note_on channel=1 note=43 velocity=0 time=0\n",
      "note_on channel=1 note=57 velocity=0 time=24\n",
      "note_on channel=1 note=60 velocity=0 time=0\n",
      "note_on channel=1 note=43 velocity=33 time=25\n",
      "note_on channel=1 note=55 velocity=33 time=0\n",
      "note_on channel=1 note=57 velocity=33 time=0\n",
      "note_on channel=1 note=43 velocity=0 time=455\n",
      "note_on channel=1 note=55 velocity=0 time=0\n",
      "note_on channel=1 note=57 velocity=0 time=0\n",
      "note_on channel=1 note=54 velocity=33 time=25\n",
      "note_on channel=1 note=57 velocity=33 time=0\n",
      "note_on channel=1 note=54 velocity=0 time=455\n",
      "note_on channel=1 note=57 velocity=0 time=0\n",
      "note_on channel=1 note=54 velocity=33 time=505\n",
      "note_on channel=1 note=57 velocity=33 time=0\n",
      "note_on channel=1 note=54 velocity=0 time=455\n",
      "note_on channel=1 note=57 velocity=0 time=0\n",
      "note_on channel=1 note=50 velocity=33 time=25\n",
      "note_on channel=1 note=59 velocity=33 time=0\n",
      "note_on channel=1 note=43 velocity=33 time=0\n",
      "control_change channel=1 control=64 value=0 time=1\n",
      "control_change channel=1 control=64 value=127 time=1\n",
      "note_on channel=1 note=50 velocity=0 time=453\n",
      "note_on channel=1 note=59 velocity=0 time=0\n",
      "note_on channel=1 note=55 velocity=33 time=25\n",
      "note_on channel=1 note=59 velocity=33 time=0\n",
      "note_on channel=1 note=43 velocity=0 time=431\n",
      "note_on channel=1 note=55 velocity=0 time=24\n",
      "note_on channel=1 note=59 velocity=0 time=0\n",
      "note_on channel=1 note=31 velocity=33 time=25\n",
      "note_on channel=1 note=43 velocity=33 time=0\n",
      "control_change channel=1 control=64 value=0 time=1\n",
      "control_change channel=1 control=64 value=127 time=1\n",
      "note_on channel=1 note=48 velocity=33 time=478\n",
      "note_on channel=1 note=57 velocity=33 time=0\n",
      "note_on channel=1 note=31 velocity=0 time=431\n",
      "note_on channel=1 note=43 velocity=0 time=0\n",
      "note_on channel=1 note=48 velocity=0 time=24\n",
      "note_on channel=1 note=57 velocity=0 time=0\n",
      "note_on channel=1 note=50 velocity=33 time=25\n",
      "note_on channel=1 note=43 velocity=33 time=0\n",
      "note_on channel=1 note=55 velocity=33 time=0\n",
      "control_change channel=1 control=64 value=0 time=1\n",
      "control_change channel=1 control=64 value=127 time=1\n",
      "note_on channel=1 note=50 velocity=0 time=453\n",
      "note_on channel=1 note=47 velocity=33 time=25\n",
      "note_on channel=1 note=43 velocity=0 time=431\n",
      "note_on channel=1 note=55 velocity=0 time=0\n",
      "note_on channel=1 note=47 velocity=0 time=24\n",
      "note_on channel=1 note=31 velocity=33 time=25\n",
      "note_on channel=1 note=43 velocity=33 time=0\n",
      "control_change channel=1 control=64 value=0 time=1\n",
      "control_change channel=1 control=64 value=127 time=1\n",
      "note_on channel=1 note=48 velocity=33 time=478\n",
      "note_on channel=1 note=57 velocity=33 time=0\n",
      "note_on channel=1 note=31 velocity=0 time=431\n",
      "note_on channel=1 note=43 velocity=0 time=0\n",
      "note_on channel=1 note=48 velocity=0 time=24\n",
      "note_on channel=1 note=57 velocity=0 time=0\n",
      "note_on channel=1 note=50 velocity=33 time=25\n",
      "note_on channel=1 note=43 velocity=33 time=0\n",
      "note_on channel=1 note=55 velocity=33 time=0\n",
      "control_change channel=1 control=64 value=0 time=1\n",
      "control_change channel=1 control=64 value=127 time=1\n",
      "note_on channel=1 note=50 velocity=0 time=453\n",
      "note_on channel=1 note=47 velocity=33 time=25\n",
      "note_on channel=1 note=43 velocity=0 time=431\n",
      "note_on channel=1 note=55 velocity=0 time=0\n",
      "note_on channel=1 note=47 velocity=0 time=24\n",
      "note_on channel=1 note=31 velocity=40 time=25\n",
      "note_on channel=1 note=43 velocity=40 time=0\n",
      "control_change channel=1 control=64 value=0 time=1\n",
      "control_change channel=1 control=64 value=127 time=1\n",
      "note_on channel=1 note=48 velocity=39 time=478\n",
      "note_on channel=1 note=57 velocity=39 time=0\n",
      "note_on channel=1 note=31 velocity=0 time=431\n",
      "note_on channel=1 note=43 velocity=0 time=0\n",
      "note_on channel=1 note=57 velocity=0 time=24\n",
      "note_on channel=1 note=50 velocity=37 time=25\n",
      "note_on channel=1 note=43 velocity=37 time=0\n",
      "note_on channel=1 note=50 velocity=0 time=455\n",
      "note_on channel=1 note=57 velocity=35 time=25\n",
      "note_on channel=1 note=43 velocity=0 time=431\n",
      "note_on channel=1 note=57 velocity=0 time=24\n",
      "note_on channel=1 note=50 velocity=33 time=25\n",
      "note_on channel=1 note=50 velocity=0 time=455\n",
      "note_on channel=1 note=57 velocity=31 time=25\n",
      "note_on channel=1 note=57 velocity=0 time=455\n",
      "note_on channel=1 note=50 velocity=29 time=25\n",
      "note_on channel=1 note=43 velocity=29 time=0\n",
      "note_on channel=1 note=50 velocity=0 time=455\n",
      "note_on channel=1 note=57 velocity=27 time=25\n",
      "note_on channel=1 note=48 velocity=0 time=311\n",
      "note_on channel=1 note=57 velocity=0 time=144\n",
      "note_on channel=1 note=47 velocity=25 time=25\n",
      "note_on channel=1 note=55 velocity=25 time=0\n",
      "control_change channel=1 control=64 value=0 time=1\n",
      "note_on channel=1 note=43 velocity=0 time=406\n",
      "note_on channel=1 note=47 velocity=0 time=48\n",
      "note_on channel=1 note=55 velocity=0 time=0\n",
      "note_on channel=1 note=45 velocity=25 time=5305\n",
      "note_on channel=1 note=57 velocity=25 time=0\n",
      "note_on channel=1 note=45 velocity=0 time=455\n",
      "note_on channel=1 note=57 velocity=0 time=0\n",
      "note_on channel=1 note=38 velocity=25 time=505\n",
      "note_on channel=1 note=50 velocity=25 time=0\n",
      "note_on channel=1 note=38 velocity=0 time=455\n",
      "note_on channel=1 note=50 velocity=0 time=0\n",
      "note_on channel=1 note=57 velocity=33 time=1465\n",
      "note_on channel=1 note=57 velocity=0 time=227\n",
      "note_on channel=1 note=50 velocity=33 time=13\n",
      "note_on channel=1 note=50 velocity=0 time=227\n",
      "note_on channel=1 note=45 velocity=33 time=13\n",
      "note_on channel=1 note=45 velocity=0 time=227\n",
      "note_on channel=1 note=38 velocity=33 time=13\n",
      "note_on channel=1 note=50 velocity=33 time=0\n",
      "note_on channel=1 note=38 velocity=0 time=227\n",
      "note_on channel=1 note=50 velocity=0 time=0\n",
      "note_on channel=1 note=69 velocity=33 time=3853\n",
      "control_change channel=1 control=64 value=127 time=2\n",
      "note_on channel=1 note=69 velocity=0 time=225\n",
      "note_on channel=1 note=62 velocity=33 time=13\n",
      "note_on channel=1 note=62 velocity=0 time=227\n",
      "note_on channel=1 note=69 velocity=33 time=13\n",
      "note_on channel=1 note=69 velocity=0 time=227\n",
      "note_on channel=1 note=62 velocity=33 time=13\n",
      "note_on channel=1 note=62 velocity=0 time=227\n",
      "note_on channel=1 note=69 velocity=33 time=13\n",
      "note_on channel=1 note=69 velocity=0 time=227\n",
      "note_on channel=1 note=62 velocity=33 time=13\n",
      "note_on channel=1 note=62 velocity=0 time=227\n",
      "note_on channel=1 note=69 velocity=33 time=13\n",
      "note_on channel=1 note=69 velocity=0 time=227\n",
      "note_on channel=1 note=62 velocity=33 time=13\n",
      "note_on channel=1 note=62 velocity=0 time=227\n",
      "note_on channel=1 note=45 velocity=33 time=13\n",
      "note_on channel=1 note=50 velocity=33 time=0\n",
      "control_change channel=1 control=64 value=0 time=1\n",
      "control_change channel=1 control=64 value=127 time=1\n",
      "note_on channel=1 note=45 velocity=0 time=225\n",
      "note_on channel=1 note=50 velocity=0 time=0\n",
      "note_on channel=1 note=38 velocity=40 time=13\n",
      "note_on channel=1 note=38 velocity=0 time=227\n",
      "note_on channel=1 note=45 velocity=48 time=13\n",
      "note_on channel=1 note=50 velocity=48 time=0\n",
      "note_on channel=1 note=45 velocity=0 time=227\n",
      "note_on channel=1 note=50 velocity=0 time=0\n",
      "note_on channel=1 note=38 velocity=56 time=13\n",
      "note_on channel=1 note=38 velocity=0 time=227\n",
      "note_on channel=1 note=45 velocity=64 time=13\n",
      "note_on channel=1 note=50 velocity=64 time=0\n",
      "note_on channel=1 note=45 velocity=0 time=227\n",
      "note_on channel=1 note=50 velocity=0 time=0\n",
      "note_on channel=1 note=38 velocity=72 time=13\n",
      "note_on channel=1 note=38 velocity=0 time=227\n",
      "note_on channel=1 note=45 velocity=80 time=13\n",
      "note_on channel=1 note=50 velocity=80 time=0\n",
      "note_on channel=1 note=45 velocity=0 time=227\n",
      "note_on channel=1 note=50 velocity=0 time=0\n",
      "note_on channel=1 note=38 velocity=88 time=13\n",
      "note_on channel=1 note=50 velocity=88 time=0\n",
      "control_change channel=1 control=64 value=0 time=1\n",
      "note_on channel=1 note=38 velocity=0 time=226\n",
      "note_on channel=1 note=50 velocity=0 time=0\n",
      "note_on channel=1 note=31 velocity=96 time=13\n",
      "note_on channel=1 note=43 velocity=96 time=0\n",
      "control_change channel=1 control=64 value=127 time=2\n",
      "note_on channel=1 note=31 velocity=0 time=453\n",
      "note_on channel=1 note=43 velocity=0 time=0\n",
      "note_on channel=1 note=43 velocity=96 time=505\n",
      "control_change channel=1 control=64 value=0 time=1\n",
      "control_change channel=1 control=64 value=127 time=1\n",
      "note_on channel=1 note=50 velocity=96 time=95\n",
      "note_on channel=1 note=53 velocity=96 time=98\n",
      "note_on channel=1 note=59 velocity=96 time=99\n",
      "note_on channel=1 note=50 velocity=0 time=184\n",
      "note_on channel=1 note=53 velocity=0 time=0\n",
      "note_on channel=1 note=59 velocity=0 time=0\n",
      "note_on channel=1 note=43 velocity=0 time=1\n",
      "note_on channel=1 note=43 velocity=96 time=481\n",
      "control_change channel=1 control=64 value=0 time=1\n",
      "control_change channel=1 control=64 value=127 time=1\n",
      "note_on channel=1 note=50 velocity=96 time=95\n",
      "note_on channel=1 note=53 velocity=96 time=98\n",
      "note_on channel=1 note=59 velocity=96 time=99\n",
      "note_on channel=1 note=50 velocity=0 time=184\n",
      "note_on channel=1 note=53 velocity=0 time=0\n",
      "note_on channel=1 note=59 velocity=0 time=0\n",
      "note_on channel=1 note=43 velocity=0 time=1\n",
      "note_on channel=1 note=43 velocity=96 time=481\n",
      "control_change channel=1 control=64 value=0 time=1\n",
      "control_change channel=1 control=64 value=127 time=1\n",
      "note_on channel=1 note=50 velocity=96 time=95\n",
      "note_on channel=1 note=53 velocity=96 time=98\n",
      "note_on channel=1 note=59 velocity=96 time=99\n",
      "note_on channel=1 note=50 velocity=0 time=184\n",
      "note_on channel=1 note=53 velocity=0 time=0\n",
      "note_on channel=1 note=59 velocity=0 time=0\n",
      "note_on channel=1 note=43 velocity=0 time=1\n",
      "note_on channel=1 note=36 velocity=106 time=481\n",
      "note_on channel=1 note=48 velocity=106 time=0\n",
      "control_change channel=1 control=64 value=0 time=1\n",
      "control_change channel=1 control=64 value=127 time=1\n",
      "note_on channel=1 note=36 velocity=0 time=149\n",
      "note_on channel=1 note=48 velocity=0 time=0\n",
      "note_on channel=1 note=47 velocity=106 time=9\n",
      "note_on channel=1 note=47 velocity=0 time=151\n",
      "note_on channel=1 note=48 velocity=106 time=9\n",
      "note_on channel=1 note=48 velocity=0 time=151\n",
      "note_on channel=1 note=52 velocity=106 time=9\n",
      "control_change channel=1 control=64 value=0 time=1\n",
      "control_change channel=1 control=64 value=127 time=1\n",
      "note_on channel=1 note=52 velocity=0 time=149\n",
      "note_on channel=1 note=55 velocity=106 time=9\n",
      "note_on channel=1 note=55 velocity=0 time=151\n",
      "note_on channel=1 note=52 velocity=106 time=9\n",
      "note_on channel=1 note=52 velocity=0 time=151\n",
      "note_on channel=1 note=48 velocity=106 time=9\n",
      "control_change channel=1 control=64 value=0 time=1\n",
      "control_change channel=1 control=64 value=127 time=1\n",
      "note_on channel=1 note=48 velocity=0 time=149\n",
      "note_on channel=1 note=47 velocity=106 time=9\n",
      "note_on channel=1 note=47 velocity=0 time=151\n",
      "note_on channel=1 note=48 velocity=106 time=9\n",
      "note_on channel=1 note=48 velocity=0 time=151\n",
      "note_on channel=1 note=52 velocity=106 time=9\n",
      "control_change channel=1 control=64 value=0 time=1\n",
      "control_change channel=1 control=64 value=127 time=1\n",
      "note_on channel=1 note=52 velocity=0 time=149\n",
      "note_on channel=1 note=55 velocity=106 time=9\n",
      "note_on channel=1 note=55 velocity=0 time=151\n",
      "note_on channel=1 note=52 velocity=106 time=9\n",
      "note_on channel=1 note=52 velocity=0 time=151\n",
      "note_on channel=1 note=48 velocity=106 time=9\n",
      "control_change channel=1 control=64 value=0 time=1\n",
      "control_change channel=1 control=64 value=127 time=1\n",
      "note_on channel=1 note=48 velocity=0 time=149\n",
      "note_on channel=1 note=52 velocity=106 time=9\n",
      "note_on channel=1 note=52 velocity=0 time=151\n",
      "note_on channel=1 note=55 velocity=106 time=9\n",
      "note_on channel=1 note=55 velocity=0 time=151\n",
      "note_on channel=1 note=60 velocity=106 time=9\n",
      "control_change channel=1 control=64 value=0 time=1\n",
      "control_change channel=1 control=64 value=127 time=1\n",
      "note_on channel=1 note=60 velocity=0 time=149\n",
      "note_on channel=1 note=55 velocity=106 time=9\n",
      "note_on channel=1 note=55 velocity=0 time=151\n",
      "note_on channel=1 note=52 velocity=106 time=9\n",
      "note_on channel=1 note=52 velocity=0 time=151\n",
      "note_on channel=1 note=48 velocity=106 time=9\n",
      "control_change channel=1 control=64 value=0 time=1\n",
      "control_change channel=1 control=64 value=127 time=1\n",
      "note_on channel=1 note=48 velocity=0 time=149\n",
      "note_on channel=1 note=50 velocity=106 time=9\n",
      "note_on channel=1 note=50 velocity=0 time=151\n",
      "note_on channel=1 note=52 velocity=106 time=9\n",
      "note_on channel=1 note=52 velocity=0 time=151\n",
      "note_on channel=1 note=50 velocity=106 time=9\n",
      "control_change channel=1 control=64 value=0 time=1\n",
      "control_change channel=1 control=64 value=127 time=1\n",
      "note_on channel=1 note=50 velocity=0 time=149\n",
      "note_on channel=1 note=48 velocity=106 time=9\n",
      "note_on channel=1 note=48 velocity=0 time=151\n",
      "note_on channel=1 note=47 velocity=106 time=9\n",
      "note_on channel=1 note=47 velocity=0 time=151\n",
      "note_on channel=1 note=45 velocity=106 time=9\n",
      "control_change channel=1 control=64 value=0 time=1\n",
      "control_change channel=1 control=64 value=127 time=1\n",
      "note_on channel=1 note=45 velocity=0 time=149\n",
      "note_on channel=1 note=44 velocity=106 time=9\n",
      "note_on channel=1 note=44 velocity=0 time=151\n",
      "note_on channel=1 note=45 velocity=106 time=9\n",
      "note_on channel=1 note=45 velocity=0 time=151\n",
      "note_on channel=1 note=48 velocity=106 time=9\n",
      "control_change channel=1 control=64 value=0 time=1\n",
      "control_change channel=1 control=64 value=127 time=1\n",
      "note_on channel=1 note=48 velocity=0 time=149\n",
      "note_on channel=1 note=50 velocity=106 time=9\n",
      "note_on channel=1 note=50 velocity=0 time=151\n",
      "note_on channel=1 note=48 velocity=106 time=9\n",
      "note_on channel=1 note=48 velocity=0 time=151\n",
      "note_on channel=1 note=50 velocity=106 time=9\n",
      "control_change channel=1 control=64 value=0 time=1\n",
      "control_change channel=1 control=64 value=127 time=1\n",
      "note_on channel=1 note=50 velocity=0 time=149\n",
      "note_on channel=1 note=49 velocity=106 time=9\n",
      "note_on channel=1 note=49 velocity=0 time=151\n",
      "note_on channel=1 note=50 velocity=106 time=9\n",
      "note_on channel=1 note=50 velocity=0 time=151\n",
      "note_on channel=1 note=54 velocity=106 time=9\n",
      "control_change channel=1 control=64 value=0 time=1\n",
      "control_change channel=1 control=64 value=127 time=1\n",
      "note_on channel=1 note=54 velocity=0 time=149\n",
      "note_on channel=1 note=57 velocity=106 time=9\n",
      "note_on channel=1 note=57 velocity=0 time=151\n",
      "note_on channel=1 note=54 velocity=106 time=9\n",
      "note_on channel=1 note=54 velocity=0 time=151\n",
      "note_on channel=1 note=50 velocity=106 time=9\n",
      "control_change channel=1 control=64 value=0 time=1\n",
      "control_change channel=1 control=64 value=127 time=1\n",
      "note_on channel=1 note=50 velocity=0 time=149\n",
      "note_on channel=1 note=54 velocity=106 time=9\n",
      "note_on channel=1 note=54 velocity=0 time=151\n",
      "note_on channel=1 note=52 velocity=106 time=9\n",
      "note_on channel=1 note=52 velocity=0 time=151\n",
      "note_on channel=1 note=50 velocity=106 time=9\n",
      "control_change channel=1 control=64 value=0 time=1\n",
      "control_change channel=1 control=64 value=127 time=1\n",
      "note_on channel=1 note=50 velocity=0 time=149\n",
      "note_on channel=1 note=52 velocity=106 time=9\n",
      "note_on channel=1 note=52 velocity=0 time=151\n",
      "note_on channel=1 note=54 velocity=106 time=9\n",
      "note_on channel=1 note=54 velocity=0 time=151\n",
      "note_on channel=1 note=55 velocity=106 time=9\n",
      "control_change channel=1 control=64 value=0 time=1\n",
      "control_change channel=1 control=64 value=127 time=1\n",
      "note_on channel=1 note=55 velocity=0 time=149\n",
      "note_on channel=1 note=43 velocity=106 time=9\n",
      "note_on channel=1 note=43 velocity=0 time=151\n",
      "note_on channel=1 note=42 velocity=106 time=9\n",
      "note_on channel=1 note=42 velocity=0 time=151\n",
      "note_on channel=1 note=43 velocity=106 time=9\n",
      "control_change channel=1 control=64 value=0 time=1\n",
      "control_change channel=1 control=64 value=127 time=1\n",
      "note_on channel=1 note=43 velocity=0 time=149\n",
      "note_on channel=1 note=45 velocity=106 time=9\n",
      "note_on channel=1 note=45 velocity=0 time=151\n",
      "note_on channel=1 note=47 velocity=106 time=9\n",
      "note_on channel=1 note=47 velocity=0 time=151\n",
      "note_on channel=1 note=48 velocity=106 time=9\n",
      "control_change channel=1 control=64 value=0 time=1\n",
      "control_change channel=1 control=64 value=127 time=1\n",
      "note_on channel=1 note=48 velocity=0 time=149\n",
      "note_on channel=1 note=47 velocity=106 time=9\n",
      "note_on channel=1 note=47 velocity=0 time=151\n",
      "note_on channel=1 note=48 velocity=106 time=9\n",
      "note_on channel=1 note=48 velocity=0 time=151\n",
      "note_on channel=1 note=50 velocity=106 time=9\n",
      "control_change channel=1 control=64 value=0 time=1\n",
      "control_change channel=1 control=64 value=127 time=1\n",
      "note_on channel=1 note=50 velocity=0 time=149\n",
      "note_on channel=1 note=48 velocity=106 time=9\n",
      "note_on channel=1 note=48 velocity=0 time=151\n",
      "note_on channel=1 note=50 velocity=106 time=9\n",
      "note_on channel=1 note=50 velocity=0 time=151\n",
      "note_on channel=1 note=43 velocity=106 time=9\n",
      "note_on channel=1 note=55 velocity=106 time=0\n",
      "control_change channel=1 control=64 value=0 time=1\n",
      "note_on channel=1 note=43 velocity=0 time=226\n",
      "note_on channel=1 note=55 velocity=0 time=0\n",
      "note_on channel=1 note=55 velocity=49 time=253\n",
      "note_on channel=1 note=62 velocity=49 time=0\n",
      "note_on channel=1 note=55 velocity=0 time=227\n",
      "note_on channel=1 note=62 velocity=0 time=0\n",
      "note_on channel=1 note=60 velocity=49 time=253\n",
      "note_on channel=1 note=64 velocity=49 time=0\n",
      "note_on channel=1 note=60 velocity=0 time=227\n",
      "note_on channel=1 note=64 velocity=0 time=0\n",
      "note_on channel=1 note=62 velocity=49 time=253\n",
      "note_on channel=1 note=66 velocity=49 time=0\n",
      "note_on channel=1 note=62 velocity=0 time=227\n",
      "note_on channel=1 note=66 velocity=0 time=0\n",
      "note_on channel=1 note=55 velocity=49 time=253\n",
      "note_on channel=1 note=55 velocity=0 time=227\n",
      "note_on channel=1 note=36 velocity=49 time=733\n",
      "note_on channel=1 note=48 velocity=49 time=0\n",
      "note_on channel=1 note=36 velocity=0 time=455\n",
      "note_on channel=1 note=48 velocity=0 time=0\n",
      "note_on channel=1 note=38 velocity=49 time=505\n",
      "note_on channel=1 note=50 velocity=49 time=0\n",
      "note_on channel=1 note=38 velocity=0 time=455\n",
      "note_on channel=1 note=50 velocity=0 time=0\n",
      "note_on channel=1 note=43 velocity=49 time=505\n",
      "note_on channel=1 note=55 velocity=49 time=0\n",
      "note_on channel=1 note=43 velocity=0 time=455\n",
      "note_on channel=1 note=55 velocity=0 time=0\n",
      "note_on channel=1 note=38 velocity=49 time=505\n",
      "note_on channel=1 note=50 velocity=49 time=0\n",
      "note_on channel=1 note=38 velocity=0 time=455\n",
      "note_on channel=1 note=50 velocity=0 time=0\n",
      "note_on channel=1 note=31 velocity=49 time=505\n",
      "note_on channel=1 note=43 velocity=49 time=0\n",
      "note_on channel=1 note=31 velocity=0 time=455\n",
      "note_on channel=1 note=43 velocity=0 time=0\n",
      "note_on channel=1 note=38 velocity=49 time=505\n",
      "note_on channel=1 note=50 velocity=49 time=0\n",
      "note_on channel=1 note=38 velocity=0 time=455\n",
      "note_on channel=1 note=50 velocity=0 time=0\n",
      "note_on channel=1 note=43 velocity=49 time=505\n",
      "note_on channel=1 note=55 velocity=49 time=0\n",
      "note_on channel=1 note=43 velocity=0 time=455\n",
      "note_on channel=1 note=55 velocity=0 time=0\n",
      "note_on channel=1 note=38 velocity=49 time=505\n",
      "note_on channel=1 note=50 velocity=49 time=0\n",
      "note_on channel=1 note=38 velocity=0 time=455\n",
      "note_on channel=1 note=50 velocity=0 time=0\n",
      "note_on channel=1 note=31 velocity=49 time=505\n",
      "note_on channel=1 note=43 velocity=49 time=0\n",
      "note_on channel=1 note=31 velocity=0 time=455\n",
      "note_on channel=1 note=43 velocity=0 time=0\n",
      "note_on channel=1 note=38 velocity=49 time=505\n",
      "note_on channel=1 note=50 velocity=49 time=0\n",
      "note_on channel=1 note=38 velocity=0 time=455\n",
      "note_on channel=1 note=50 velocity=0 time=0\n",
      "note_on channel=1 note=59 velocity=49 time=505\n",
      "note_on channel=1 note=43 velocity=49 time=0\n",
      "note_on channel=1 note=50 velocity=49 time=0\n",
      "note_on channel=1 note=43 velocity=0 time=227\n",
      "note_on channel=1 note=50 velocity=0 time=0\n",
      "note_on channel=1 note=59 velocity=0 time=684\n",
      "note_on channel=1 note=62 velocity=60 time=49\n",
      "note_on channel=1 note=50 velocity=60 time=0\n",
      "note_on channel=1 note=54 velocity=60 time=0\n",
      "note_on channel=1 note=50 velocity=0 time=227\n",
      "note_on channel=1 note=54 velocity=0 time=0\n",
      "note_on channel=1 note=62 velocity=0 time=684\n",
      "note_on channel=1 note=67 velocity=72 time=49\n",
      "note_on channel=1 note=55 velocity=72 time=0\n",
      "note_on channel=1 note=62 velocity=72 time=0\n",
      "note_on channel=1 note=55 velocity=0 time=227\n",
      "note_on channel=1 note=62 velocity=0 time=0\n",
      "note_on channel=1 note=67 velocity=0 time=684\n",
      "note_on channel=1 note=62 velocity=84 time=49\n",
      "note_on channel=1 note=50 velocity=84 time=0\n",
      "note_on channel=1 note=57 velocity=84 time=0\n",
      "control_change channel=1 control=64 value=127 time=2\n",
      "note_on channel=1 note=50 velocity=0 time=225\n",
      "note_on channel=1 note=57 velocity=0 time=0\n",
      "note_on channel=1 note=62 velocity=0 time=684\n",
      "note_on channel=1 note=43 velocity=96 time=49\n",
      "note_on channel=1 note=50 velocity=96 time=0\n",
      "note_on channel=1 note=59 velocity=96 time=0\n",
      "control_change channel=1 control=64 value=0 time=1\n",
      "control_change channel=1 control=64 value=127 time=1\n",
      "note_on channel=1 note=43 velocity=0 time=453\n",
      "note_on channel=1 note=50 velocity=0 time=0\n",
      "note_on channel=1 note=59 velocity=0 time=0\n",
      "note_on channel=1 note=55 velocity=96 time=265\n",
      "note_on channel=1 note=59 velocity=96 time=0\n",
      "control_change channel=1 control=64 value=0 time=1\n",
      "note_on channel=1 note=55 velocity=0 time=112\n",
      "note_on channel=1 note=59 velocity=0 time=0\n",
      "note_on channel=1 note=67 velocity=96 time=7\n",
      "note_on channel=1 note=67 velocity=0 time=113\n",
      "note_on channel=1 note=55 velocity=96 time=7\n",
      "note_on channel=1 note=59 velocity=96 time=0\n",
      "control_change channel=1 control=64 value=127 time=2\n",
      "note_on channel=1 note=55 velocity=0 time=453\n",
      "note_on channel=1 note=59 velocity=0 time=0\n",
      "note_on channel=1 note=43 velocity=96 time=265\n",
      "control_change channel=1 control=64 value=0 time=1\n",
      "note_on channel=1 note=43 velocity=0 time=112\n",
      "note_on channel=1 note=55 velocity=96 time=7\n",
      "note_on channel=1 note=55 velocity=0 time=113\n",
      "note_on channel=1 note=43 velocity=96 time=7\n",
      "control_change channel=1 control=64 value=127 time=2\n",
      "note_on channel=1 note=43 velocity=0 time=453\n",
      "note_on channel=1 note=55 velocity=96 time=265\n",
      "note_on channel=1 note=59 velocity=96 time=0\n",
      "control_change channel=1 control=64 value=0 time=1\n",
      "note_on channel=1 note=55 velocity=0 time=112\n",
      "note_on channel=1 note=59 velocity=0 time=0\n",
      "note_on channel=1 note=67 velocity=96 time=7\n",
      "note_on channel=1 note=67 velocity=0 time=113\n",
      "note_on channel=1 note=55 velocity=96 time=7\n",
      "note_on channel=1 note=59 velocity=96 time=0\n",
      "control_change channel=1 control=64 value=127 time=2\n",
      "note_on channel=1 note=55 velocity=0 time=453\n",
      "note_on channel=1 note=59 velocity=0 time=0\n",
      "note_on channel=1 note=43 velocity=96 time=265\n",
      "note_on channel=1 note=43 velocity=0 time=113\n",
      "note_on channel=1 note=55 velocity=96 time=7\n",
      "note_on channel=1 note=55 velocity=0 time=113\n",
      "note_on channel=1 note=43 velocity=96 time=7\n",
      "note_on channel=1 note=43 velocity=0 time=227\n",
      "control_change channel=1 control=64 value=0 time=14\n",
      "note_on channel=1 note=38 velocity=112 time=719\n",
      "note_on channel=1 note=50 velocity=112 time=0\n",
      "note_on channel=1 note=38 velocity=0 time=227\n",
      "note_on channel=1 note=50 velocity=0 time=0\n",
      "note_on channel=1 note=31 velocity=112 time=733\n",
      "note_on channel=1 note=43 velocity=112 time=0\n",
      "note_on channel=1 note=31 velocity=0 time=227\n",
      "note_on channel=1 note=43 velocity=0 time=0\n",
      "MetaMessage('end_of_track', time=1)\n"
     ]
    }
   ],
   "source": [
    "for i, track in enumerate(mid.tracks):\n",
    "    print('Track {}: {}'.format(i, track.name))\n",
    "    for message in track:\n",
    "        print(message)"
   ]
  },
  {
   "cell_type": "code",
   "execution_count": 6,
   "metadata": {},
   "outputs": [
    {
     "name": "stdout",
     "output_type": "stream",
     "text": [
      "MetaMessage('time_signature', numerator=2, denominator=4, clocks_per_click=24, notated_32nd_notes_per_beat=8, time=0)\n",
      "MetaMessage('key_signature', key='G', time=0)\n",
      "MetaMessage('set_tempo', tempo=416667, time=0)\n",
      "program_change channel=0 program=0 time=0\n",
      "MetaMessage('midi_port', port=0, time=0)\n",
      "note_on channel=0 note=76 velocity=64 time=9600\n",
      "note_on channel=0 note=76 velocity=0 time=455\n",
      "note_on channel=0 note=76 velocity=64 time=145\n",
      "note_on channel=0 note=76 velocity=0 time=113\n",
      "note_on channel=0 note=79 velocity=64 time=7\n",
      "note_on channel=0 note=79 velocity=0 time=113\n",
      "note_on channel=0 note=77 velocity=64 time=7\n",
      "note_on channel=0 note=77 velocity=0 time=113\n",
      "note_on channel=0 note=76 velocity=64 time=7\n",
      "note_on channel=0 note=76 velocity=0 time=455\n",
      "----------------------\n",
      "MetaMessage('key_signature', key='G', time=0)\n",
      "MetaMessage('midi_port', port=0, time=0)\n",
      "note_on channel=0 note=48 velocity=40 time=9600\n",
      "note_on channel=0 note=48 velocity=0 time=227\n",
      "note_on channel=0 note=55 velocity=48 time=13\n",
      "note_on channel=0 note=60 velocity=48 time=0\n",
      "note_on channel=0 note=64 velocity=48 time=0\n",
      "note_on channel=0 note=55 velocity=0 time=719\n",
      "note_on channel=0 note=60 velocity=0 time=0\n",
      "note_on channel=0 note=64 velocity=0 time=0\n",
      "note_on channel=0 note=48 velocity=40 time=1\n",
      "note_on channel=0 note=48 velocity=0 time=227\n",
      "note_on channel=0 note=55 velocity=48 time=13\n",
      "note_on channel=0 note=60 velocity=48 time=0\n",
      "note_on channel=0 note=64 velocity=48 time=0\n",
      "----------------------\n",
      "MetaMessage('key_signature', key='G', time=0)\n",
      "program_change channel=1 program=0 time=0\n",
      "MetaMessage('midi_port', port=0, time=0)\n",
      "note_on channel=1 note=55 velocity=40 time=0\n",
      "note_on channel=1 note=60 velocity=40 time=0\n",
      "note_on channel=1 note=64 velocity=40 time=0\n",
      "note_on channel=1 note=55 velocity=0 time=455\n",
      "note_on channel=1 note=60 velocity=0 time=0\n",
      "note_on channel=1 note=64 velocity=0 time=0\n",
      "note_on channel=1 note=55 velocity=40 time=265\n",
      "note_on channel=1 note=60 velocity=40 time=0\n",
      "note_on channel=1 note=64 velocity=40 time=0\n",
      "note_on channel=1 note=55 velocity=0 time=113\n",
      "note_on channel=1 note=60 velocity=0 time=0\n",
      "note_on channel=1 note=64 velocity=0 time=0\n",
      "----------------------\n",
      "MetaMessage('key_signature', key='G', time=0)\n",
      "MetaMessage('midi_port', port=0, time=0)\n",
      "note_on channel=1 note=36 velocity=40 time=0\n",
      "note_on channel=1 note=52 velocity=40 time=0\n",
      "note_on channel=1 note=36 velocity=0 time=455\n",
      "note_on channel=1 note=52 velocity=0 time=0\n",
      "note_on channel=1 note=36 velocity=40 time=265\n",
      "note_on channel=1 note=52 velocity=40 time=0\n",
      "note_on channel=1 note=36 velocity=0 time=227\n",
      "note_on channel=1 note=52 velocity=0 time=0\n",
      "note_on channel=1 note=36 velocity=40 time=13\n",
      "note_on channel=1 note=52 velocity=40 time=0\n",
      "note_on channel=1 note=36 velocity=0 time=455\n",
      "note_on channel=1 note=52 velocity=0 time=0\n",
      "note_on channel=1 note=36 velocity=40 time=265\n",
      "----------------------\n"
     ]
    }
   ],
   "source": [
    "cont = 0\n",
    "for m in mid.tracks:\n",
    "    for mex in m:\n",
    "        if(not 'control_change' in str(mex)):\n",
    "            cont += 1\n",
    "            if(cont > 15):\n",
    "                break\n",
    "            print(mex)\n",
    "    print(\"----------------------\")\n",
    "    cont = 0\n"
   ]
  },
  {
   "cell_type": "code",
   "execution_count": 70,
   "metadata": {},
   "outputs": [],
   "source": [
    "streams = list()\n",
    "for m in mid.tracks:\n",
    "    streams.append(m)"
   ]
  },
  {
   "cell_type": "code",
   "execution_count": 71,
   "metadata": {},
   "outputs": [],
   "source": [
    "def get_notes_from_midi(file_path, channel):\n",
    "    \"\"\"\n",
    "    Extract all notes played by a specific instrument (channel) from a MIDI file.\n",
    "\n",
    "    :param file_path: Path to the MIDI file\n",
    "    :param channel: MIDI channel number (0-15) corresponding to the instrument\n",
    "    :return: List of tuples, each containing (note, velocity, time)\n",
    "    \"\"\"\n",
    "    midi_file = MidiFile(file_path)\n",
    "    streams = []\n",
    "    notes = []\n",
    "    \n",
    "    for track in midi_file.tracks:\n",
    "        for msg in track:\n",
    "            if msg.type == 'note_on' and msg.channel == channel:\n",
    "                note = msg.note\n",
    "                velocity = msg.velocity\n",
    "                time = msg.time\n",
    "                notes.append((note, velocity, time))\n",
    "        streams.append(notes)\n",
    "                \n",
    "    return notes"
   ]
  },
  {
   "cell_type": "code",
   "execution_count": 72,
   "metadata": {},
   "outputs": [],
   "source": [
    "def get_notes_from_streams(source):\n",
    "    \"\"\"\n",
    "    Extract all notes played by a specific instrument (channel) from a MIDI file.\n",
    "\n",
    "    :param source: the MIDI file already extracted and divided in relative streams (one for each instrument)\n",
    "    :param channel: MIDI channel number (0-15) corresponding to the instrument\n",
    "    :return: List of tuples, each containing (note, velocity, time)\n",
    "    \"\"\"\n",
    "    streams = []\n",
    "    notes = []\n",
    "    \n",
    "    for track in source:\n",
    "        for msg in track:\n",
    "            if msg.type == 'note_on':\n",
    "                note = msg.note\n",
    "                velocity = msg.velocity\n",
    "                time = msg.time\n",
    "                notes.append((note, velocity, time))\n",
    "        streams.append(notes)\n",
    "                \n",
    "    return streams"
   ]
  },
  {
   "cell_type": "code",
   "execution_count": 73,
   "metadata": {},
   "outputs": [],
   "source": [
    "def get_notes_with_time(file_path, channels):\n",
    "    \"\"\"\n",
    "    Extract notes and their timings from specified channels.\n",
    "\n",
    "    :param file_path: Path to the MIDI file\n",
    "    :param channels: List of two channels (ints) corresponding to two different instruments\n",
    "    :return: Dictionary with channel as key and list of (note, velocity, time_stamp) as values\n",
    "    \"\"\"\n",
    "    midi_file = mido.MidiFile(file_path)\n",
    "    notes_data = {channel: [] for channel in channels}\n",
    "    current_time = {channel: 0 for channel in channels}\n",
    "\n",
    "    for track in midi_file.tracks:\n",
    "        for msg in track:\n",
    "            if msg.type == 'note_on' and msg.channel in channels:\n",
    "                current_time[msg.channel] += msg.time\n",
    "                if msg.velocity > 0:  # note on\n",
    "                    notes_data[msg.channel].append((msg.note, msg.velocity, current_time[msg.channel]))\n",
    "\n",
    "    return notes_data\n"
   ]
  },
  {
   "cell_type": "code",
   "execution_count": 74,
   "metadata": {},
   "outputs": [],
   "source": [
    "def get_notes_with_time_from_stream(sources):\n",
    "    \"\"\"\n",
    "    Extract notes and their timings from specified channels.\n",
    "\n",
    "    :param file_path: Path to the MIDI file\n",
    "    :param channels: List of two channels (ints) corresponding to two different instruments\n",
    "    :return: Dictionary with channel as key and list of (note, velocity, time_stamp) as values\n",
    "    \"\"\"\n",
    "    streams = []\n",
    "    notes = []\n",
    "\n",
    "    current_time = 0\n",
    "\n",
    "    for track in sources:\n",
    "        for msg in track:\n",
    "            if msg.type == 'note_on':\n",
    "                #print(\"note detected\")\n",
    "                current_time += msg.time\n",
    "                if msg.velocity > 0:  # note on\n",
    "                    #print(\"note played\")\n",
    "                    notes.append((msg.note, msg.velocity, current_time))\n",
    "        streams.append(notes)\n",
    "        current_time = 0\n",
    "\n",
    "    return streams\n"
   ]
  },
  {
   "cell_type": "code",
   "execution_count": 75,
   "metadata": {},
   "outputs": [],
   "source": [
    "data = get_notes_from_streams(streams)"
   ]
  },
  {
   "cell_type": "code",
   "execution_count": 76,
   "metadata": {},
   "outputs": [],
   "source": [
    "data_coll = get_notes_with_time_from_stream(streams)"
   ]
  },
  {
   "cell_type": "code",
   "execution_count": 77,
   "metadata": {},
   "outputs": [
    {
     "name": "stdout",
     "output_type": "stream",
     "text": [
      "[[(60, 80, 600), (64, 80, 612), (65, 80, 624), (67, 80, 636), (55, 80, 756), (48, 80, 756), (52, 80, 768), (53, 80, 774), (55, 80, 780), (53, 80, 780), (60, 80, 792), (52, 80, 792), (60, 80, 804), (64, 80, 816), (60, 80, 822), (65, 80, 828), (67, 80, 840), (48, 80, 960), (55, 80, 960), (52, 80, 972), (53, 80, 978), (55, 80, 984), (53, 80, 984), (60, 80, 996), (52, 80, 996), (60, 80, 1056), (60, 80, 1068), (64, 80, 1074), (60, 80, 1080), (65, 80, 1086), (67, 80, 1272), (76, 80, 1272), (72, 80, 1278), (74, 80, 1284), (64, 80, 1284), (72, 80, 1290), (60, 80, 1296), (72, 80, 1296), (72, 80, 1302), (67, 80, 1308), (64, 80, 1326), (72, 80, 1338), (60, 80, 1344), (55, 80, 1350), (76, 80, 1350), (64, 80, 1356), (62, 80, 1362), (74, 80, 1482), (74, 80, 1494), (69, 80, 1506), (71, 80, 1554), (64, 80, 1674), (64, 80, 1686), (62, 80, 1698), (60, 80, 1710), (36, 80, 1830), (40, 80, 1842), (43, 80, 1854), (60, 80, 1854), (48, 80, 1866), (64, 80, 1866), (60, 80, 1878), (67, 80, 1884), (64, 80, 1890), (60, 80, 1896), (64, 80, 1902), (67, 80, 1908), (53, 80, 1974), (65, 80, 1974), (55, 80, 1986), (57, 80, 1998), (64, 80, 2130), (65, 80, 2142), (67, 80, 2154), (52, 80, 2274), (64, 80, 2298), (48, 80, 2310), (60, 80, 2322), (53, 80, 2322), (62, 80, 2346), (55, 80, 2412), (55, 80, 2460), (60, 80, 2460), (60, 80, 2568), (60, 80, 2580), (64, 80, 2586), (60, 80, 2592), (65, 80, 2598), (67, 80, 2610), (60, 80, 2730), (60, 80, 2742), (55, 80, 2754), (60, 80, 2766), (60, 80, 2772), (60, 80, 2784), (64, 80, 2790), (65, 80, 2856), (67, 80, 2922), (60, 80, 3042), (60, 80, 3054), (55, 80, 3072), (60, 80, 3078), (60, 80, 3084), (60, 80, 3096), (64, 80, 3102), (65, 80, 3168), (55, 80, 3234), (67, 80, 3234), (55, 80, 3258), (52, 80, 3270), (64, 80, 3270), (48, 80, 3282), (60, 80, 3282), (52, 80, 3300), (64, 80, 3300), (60, 80, 3306), (55, 80, 3312), (64, 80, 3318), (62, 80, 3324), (55, 80, 3324), (43, 80, 3336), (59, 80, 3336), (59, 80, 3348), (45, 80, 3348), (60, 80, 3360), (47, 80, 3360), (60, 80, 3360), (62, 80, 3360), (65, 80, 3372), (48, 80, 3372), (62, 80, 3372), (48, 80, 3378), (45, 80, 3390), (64, 80, 3396), (47, 80, 3396), (43, 80, 3408), (62, 80, 3426), (60, 80, 3432), (60, 80, 3444), (64, 80, 3456), (64, 80, 3468), (67, 80, 3480), (43, 80, 3480), (36, 80, 3492), (67, 80, 3504), (65, 80, 3570), (41, 80, 3570), (45, 80, 3582), (48, 80, 3600), (53, 80, 3606), (64, 80, 3738), (65, 80, 3750), (67, 80, 3762), (52, 80, 3762), (55, 80, 3774), (64, 80, 3786), (48, 80, 3786), (52, 80, 3798), (53, 80, 3810), (60, 80, 3810), (53, 80, 3834), (50, 80, 3834), (62, 80, 3834), (43, 80, 3846), (60, 80, 3858), (43, 80, 3858), (52, 80, 3858), (53, 80, 3906), (62, 80, 3906), (47, 80, 3906), (55, 80, 7758), (59, 80, 7764), (59, 80, 7770), (60, 80, 7776), (62, 80, 7788), (79, 80, 7908), (74, 80, 7914), (76, 80, 7920), (72, 80, 7926), (74, 80, 7932), (74, 80, 7938), (71, 80, 7944), (55, 80, 7944), (59, 80, 7950), (74, 80, 7950), (76, 80, 7956), (59, 80, 7956), (60, 80, 7962), (74, 80, 7962), (59, 80, 7968), (62, 80, 7974), (79, 80, 8094), (74, 80, 8100), (79, 80, 8106), (81, 80, 8112), (83, 80, 8118), (79, 80, 8130), (55, 80, 8130), (59, 80, 8136), (76, 80, 8148), (59, 80, 8148), (59, 80, 8154), (74, 80, 8160), (60, 80, 8160), (61, 80, 8166), (62, 80, 8172), (79, 80, 8184), (59, 80, 8184), (74, 80, 8190), (76, 80, 8196), (72, 80, 8202), (79, 80, 8208), (55, 80, 8208), (79, 80, 8214), (76, 80, 8220), (79, 80, 8226), (59, 80, 8250), (83, 80, 8262), (55, 80, 8262), (50, 80, 8268), (57, 80, 8274), (81, 80, 8286), (50, 80, 8286), (81, 80, 8298), (52, 80, 8310), (76, 80, 8310), (54, 80, 8322), (74, 80, 8322), (50, 80, 8346), (59, 80, 8346), (57, 80, 8358), (48, 80, 8358), (74, 80, 8490), (67, 80, 8490), (59, 80, 8490), (76, 80, 8502), (59, 80, 8502), (64, 80, 8502), (55, 80, 8508), (79, 80, 8508), (62, 80, 8514), (84, 80, 8514), (57, 80, 8514), (54, 80, 8520), (83, 80, 8526), (64, 80, 8526), (55, 80, 8526), (62, 80, 8538), (79, 80, 8538), (59, 80, 8550), (79, 80, 8562), (55, 80, 8562), (60, 80, 8694), (55, 80, 8694), (79, 80, 8694), (79, 80, 8706), (60, 80, 8706), (55, 80, 8706), (55, 80, 8724), (76, 80, 8724), (48, 80, 8724), (57, 80, 8730), (75, 80, 8730), (48, 80, 8730), (55, 80, 8754), (50, 80, 8754), (79, 80, 8898), (62, 80, 8898), (76, 80, 8910), (60, 80, 8910), (74, 80, 8922), (59, 80, 8922), (50, 80, 8934), (71, 80, 8934), (67, 80, 8946), (52, 80, 8946), (69, 80, 8958), (55, 80, 9090), (79, 80, 9090), (50, 80, 9096), (52, 80, 9102), (76, 80, 9102), (50, 80, 9108), (55, 80, 9114), (79, 80, 9114), (59, 80, 9126), (81, 80, 9126), (83, 80, 9138), (55, 80, 9138), (57, 80, 9150), (81, 80, 9150), (79, 80, 9282), (59, 80, 9282), (74, 80, 9288), (55, 80, 9294), (76, 80, 9294), (74, 80, 9300), (76, 80, 9306), (52, 80, 9306), (76, 80, 9312), (50, 80, 9318), (74, 80, 9318), (76, 80, 9330), (52, 80, 9330), (54, 80, 9342), (78, 80, 9342), (55, 80, 9354), (71, 80, 9354), (74, 80, 9354), (79, 80, 9354), (64, 80, 9450), (55, 80, 9450), (67, 80, 9450), (72, 80, 9450), (60, 80, 9450), (36, 80, 9465), (76, 80, 9480), (60, 80, 9480), (64, 80, 9480), (72, 80, 9480), (67, 80, 9480), (36, 80, 9504), (71, 80, 9768), (79, 80, 9768), (91, 80, 9768), (83, 80, 9768), (62, 80, 9768), (67, 80, 9768), (86, 80, 9768), (76, 80, 1080), (48, 80, 1080), (43, 80, 1086), (41, 80, 1092), (74, 80, 1092), (72, 80, 1104), (40, 80, 1104), (67, 80, 1116), (36, 80, 1116), (72, 80, 1122), (40, 80, 1134), (72, 80, 1140), (74, 80, 1146), (43, 80, 1146), (72, 80, 1152), (76, 80, 1278), (48, 80, 1278), (43, 80, 1284), (41, 80, 1290), (74, 80, 1290), (40, 80, 1302), (72, 80, 1302), (67, 80, 1314), (36, 80, 1314), (72, 80, 1320), (40, 80, 1332), (72, 80, 1338), (74, 80, 1344), (43, 80, 1344), (72, 80, 1350), (67, 80, 1476), (48, 80, 1476), (55, 80, 1488), (72, 80, 1488), (52, 80, 1488), (53, 80, 1494), (76, 80, 1500), (60, 80, 1500), (55, 80, 1500), (60, 80, 1512), (64, 80, 1512), (79, 80, 1512), (60, 80, 1536), (76, 80, 1536), (64, 80, 1536), (62, 80, 1560), (74, 80, 1560), (59, 80, 1560), (50, 80, 1572), (79, 80, 1572), (50, 80, 1584), (53, 80, 1596), (60, 80, 1596), (81, 80, 1596), (55, 80, 1608), (83, 80, 1608), (62, 80, 1608), (67, 80, 1776), (60, 80, 1776), (57, 80, 1788), (72, 80, 1800), (55, 80, 1800), (76, 80, 1804), (79, 80, 1808), (84, 80, 1812), (57, 80, 1812), (55, 80, 1824), (81, 80, 1824), (79, 80, 1836), (52, 80, 1836), (48, 80, 1848), (81, 80, 1848), (55, 80, 1980), (60, 80, 1980), (53, 80, 1992), (65, 80, 2004), (48, 80, 2004), (69, 80, 2008), (72, 80, 2012), (51, 80, 2016), (75, 80, 2016), (72, 80, 2028), (48, 80, 2028), (74, 80, 2040), (48, 80, 2040), (72, 80, 2106), (50, 80, 2106), (43, 80, 2292), (84, 80, 2292), (76, 80, 2292), (48, 80, 2304), (52, 80, 2316), (72, 80, 2316), (81, 80, 2316), (69, 80, 2328), (79, 80, 2328), (55, 80, 2328), (76, 80, 2394), (67, 80, 2394), (72, 80, 2406), (69, 80, 2406), (53, 80, 2406), (71, 80, 2418), (74, 80, 2418), (52, 80, 2430), (48, 80, 2430), (67, 80, 2430), (72, 80, 2430), (76, 80, 3078), (52, 80, 3078), (72, 80, 3084), (74, 80, 3090), (48, 80, 3090), (71, 80, 3096), (45, 80, 3102), (72, 80, 3102), (43, 80, 3114), (45, 80, 3126), (48, 80, 3138), (76, 80, 3270), (52, 80, 3270), (72, 80, 3276), (48, 80, 3282), (74, 80, 3282), (71, 80, 3288), (45, 80, 3294), (72, 80, 3294), (43, 80, 3306), (45, 80, 3318), (48, 80, 3330), (76, 80, 3462), (48, 80, 3462), (52, 80, 3474), (72, 80, 3480), (55, 80, 3486), (74, 80, 3486), (71, 80, 3492), (60, 80, 3498), (72, 80, 3498), (72, 80, 3504), (67, 80, 3510), (72, 80, 3522), (57, 80, 3522), (76, 80, 3534), (50, 80, 3546), (74, 80, 3666), (69, 80, 3678), (57, 80, 3678), (59, 80, 3690), (67, 80, 3690), (55, 80, 3858), (72, 80, 3858), (64, 80, 3858), (52, 80, 3858), (52, 80, 3870), (69, 80, 3870), (48, 80, 3870), (60, 80, 3870), (60, 80, 3882), (48, 80, 3882), (43, 80, 3882), (67, 80, 3882), (55, 80, 3906), (64, 80, 3906), (59, 80, 3906), (60, 80, 3918), (77, 80, 4050), (60, 80, 4050), (69, 80, 4050), (69, 80, 4062), (77, 80, 4062), (60, 80, 4062), (64, 80, 4080), (57, 80, 4080), (72, 80, 4080), (68, 80, 4086), (74, 80, 4086), (53, 80, 4086), (48, 80, 4254), (76, 80, 4254), (45, 80, 4266), (72, 80, 4266), (43, 80, 4278), (69, 80, 4278), (40, 80, 4290), (67, 80, 4290), (69, 80, 4302), (36, 80, 4302), (38, 80, 4314), (72, 80, 4314), (36, 80, 4326), (72, 80, 4446), (69, 80, 4458), (43, 80, 4470), (67, 80, 4470), (60, 80, 4482), (64, 80, 4494), (65, 80, 4506), (48, 80, 4518), (52, 80, 4518), (67, 80, 4518), (47, 80, 4542), (52, 80, 4566), (45, 80, 4566), (60, 80, 4686), (43, 80, 4698), (65, 80, 4698), (67, 80, 4710), (65, 80, 4722), (53, 80, 4722), (60, 80, 4722), (69, 80, 4722), (52, 80, 4746), (50, 80, 4770), (69, 80, 4890), (50, 80, 4902), (65, 80, 4902), (71, 80, 4902), (72, 80, 4914), (43, 80, 4926), (67, 80, 4926), (76, 80, 4926), (52, 80, 4926), (45, 80, 4950), (67, 80, 4950), (72, 80, 4950), (52, 80, 4950), (55, 80, 4974), (43, 80, 4974), (69, 80, 4974), (76, 80, 4974), (74, 80, 4986), (43, 80, 5010), (55, 80, 5010), (72, 80, 5022), (69, 80, 5022), (64, 80, 5034), (67, 80, 5034), (72, 80, 5034), (55, 80, 5034), (48, 80, 5034), (50, 80, 5082), (59, 80, 5082), (74, 80, 5082), (67, 80, 5082), (43, 80, 5574), (62, 80, 5574), (71, 80, 5574), (47, 80, 5586), (50, 80, 5592), (67, 80, 5598), (52, 80, 5598), (60, 80, 5598), (55, 80, 5604), (59, 80, 5616), (67, 80, 5616), (52, 80, 5628), (50, 80, 5640), (52, 80, 5652), (62, 80, 5784), (47, 80, 5784), (55, 80, 5784), (57, 80, 5796), (64, 80, 5796), (48, 80, 5796), (50, 80, 5808), (59, 80, 5808), (67, 80, 5808), (71, 80, 5820), (48, 80, 5832), (55, 80, 5832), (69, 80, 5832), (54, 80, 5844), (62, 80, 5856), (43, 80, 5868), (74, 80, 5868), (43, 80, 5880), (71, 80, 5892), (47, 80, 5892), (64, 80, 5904), (50, 80, 5904), (67, 80, 5916), (64, 80, 5928), (47, 80, 5928), (71, 80, 5928), (67, 80, 5934), (74, 80, 5940), (38, 80, 6072), (69, 80, 6072), (40, 80, 6138), (61, 80, 6150), (42, 80, 6150), (62, 80, 6162), (43, 80, 6162), (62, 80, 6174), (40, 80, 6174), (71, 80, 6180), (42, 80, 6240), (67, 80, 6246), (38, 80, 6252), (69, 80, 6252), (67, 80, 6264), (43, 80, 6264), (43, 80, 6276), (67, 80, 6276), (47, 80, 6342), (71, 80, 6342), (67, 80, 6354), (47, 80, 6354), (74, 80, 6360), (50, 80, 6372), (71, 80, 6378), (67, 80, 6384), (71, 80, 6390), (74, 80, 6396), (72, 80, 6408), (36, 80, 6588), (40, 80, 6594), (43, 80, 6600), (48, 80, 6606), (45, 80, 6618), (71, 80, 6630), (43, 80, 6630), (45, 80, 6642), (72, 80, 6642), (50, 80, 6654), (71, 80, 6774), (47, 80, 6798), (67, 80, 6810), (67, 80, 6822), (43, 80, 6822), (45, 80, 6846), (60, 80, 6846), (43, 80, 6990), (71, 80, 6990), (62, 80, 6990), (43, 80, 7002), (45, 80, 7014), (72, 80, 7014), (64, 80, 7014), (47, 80, 7026), (67, 80, 7026), (74, 80, 7026), (43, 80, 7038), (40, 80, 7050), (67, 80, 7050), (72, 80, 7050), (66, 80, 7062), (38, 80, 7062), (62, 80, 7074), (43, 80, 7074), (71, 80, 7074), (62, 80, 7098), (67, 80, 7098), (47, 80, 7098), (67, 80, 7098), (60, 80, 7122), (67, 80, 7122), (48, 80, 7122), (60, 80, 7146), (67, 80, 7146), (45, 80, 7146), (62, 80, 7158), (57, 80, 7158), (43, 80, 7170), (47, 80, 7170), (59, 80, 7170), (62, 80, 7170), (67, 80, 7170), (48, 80, 7266), (52, 80, 7272), (55, 80, 7278), (60, 80, 7284), (64, 80, 7290), (67, 80, 7296), (72, 80, 7302), (76, 80, 7308), (52, 80, 7314), (55, 80, 7344), (60, 80, 7347), (64, 80, 7350), (67, 80, 7383), (72, 80, 7389), (76, 80, 7395), (79, 80, 7401), (83, 80, 7407), (79, 80, 7407), (43, 80, 7407)], [(60, 80, 600), (64, 80, 612), (65, 80, 624), (67, 80, 636), (55, 80, 756), (48, 80, 756), (52, 80, 768), (53, 80, 774), (55, 80, 780), (53, 80, 780), (60, 80, 792), (52, 80, 792), (60, 80, 804), (64, 80, 816), (60, 80, 822), (65, 80, 828), (67, 80, 840), (48, 80, 960), (55, 80, 960), (52, 80, 972), (53, 80, 978), (55, 80, 984), (53, 80, 984), (60, 80, 996), (52, 80, 996), (60, 80, 1056), (60, 80, 1068), (64, 80, 1074), (60, 80, 1080), (65, 80, 1086), (67, 80, 1272), (76, 80, 1272), (72, 80, 1278), (74, 80, 1284), (64, 80, 1284), (72, 80, 1290), (60, 80, 1296), (72, 80, 1296), (72, 80, 1302), (67, 80, 1308), (64, 80, 1326), (72, 80, 1338), (60, 80, 1344), (55, 80, 1350), (76, 80, 1350), (64, 80, 1356), (62, 80, 1362), (74, 80, 1482), (74, 80, 1494), (69, 80, 1506), (71, 80, 1554), (64, 80, 1674), (64, 80, 1686), (62, 80, 1698), (60, 80, 1710), (36, 80, 1830), (40, 80, 1842), (43, 80, 1854), (60, 80, 1854), (48, 80, 1866), (64, 80, 1866), (60, 80, 1878), (67, 80, 1884), (64, 80, 1890), (60, 80, 1896), (64, 80, 1902), (67, 80, 1908), (53, 80, 1974), (65, 80, 1974), (55, 80, 1986), (57, 80, 1998), (64, 80, 2130), (65, 80, 2142), (67, 80, 2154), (52, 80, 2274), (64, 80, 2298), (48, 80, 2310), (60, 80, 2322), (53, 80, 2322), (62, 80, 2346), (55, 80, 2412), (55, 80, 2460), (60, 80, 2460), (60, 80, 2568), (60, 80, 2580), (64, 80, 2586), (60, 80, 2592), (65, 80, 2598), (67, 80, 2610), (60, 80, 2730), (60, 80, 2742), (55, 80, 2754), (60, 80, 2766), (60, 80, 2772), (60, 80, 2784), (64, 80, 2790), (65, 80, 2856), (67, 80, 2922), (60, 80, 3042), (60, 80, 3054), (55, 80, 3072), (60, 80, 3078), (60, 80, 3084), (60, 80, 3096), (64, 80, 3102), (65, 80, 3168), (55, 80, 3234), (67, 80, 3234), (55, 80, 3258), (52, 80, 3270), (64, 80, 3270), (48, 80, 3282), (60, 80, 3282), (52, 80, 3300), (64, 80, 3300), (60, 80, 3306), (55, 80, 3312), (64, 80, 3318), (62, 80, 3324), (55, 80, 3324), (43, 80, 3336), (59, 80, 3336), (59, 80, 3348), (45, 80, 3348), (60, 80, 3360), (47, 80, 3360), (60, 80, 3360), (62, 80, 3360), (65, 80, 3372), (48, 80, 3372), (62, 80, 3372), (48, 80, 3378), (45, 80, 3390), (64, 80, 3396), (47, 80, 3396), (43, 80, 3408), (62, 80, 3426), (60, 80, 3432), (60, 80, 3444), (64, 80, 3456), (64, 80, 3468), (67, 80, 3480), (43, 80, 3480), (36, 80, 3492), (67, 80, 3504), (65, 80, 3570), (41, 80, 3570), (45, 80, 3582), (48, 80, 3600), (53, 80, 3606), (64, 80, 3738), (65, 80, 3750), (67, 80, 3762), (52, 80, 3762), (55, 80, 3774), (64, 80, 3786), (48, 80, 3786), (52, 80, 3798), (53, 80, 3810), (60, 80, 3810), (53, 80, 3834), (50, 80, 3834), (62, 80, 3834), (43, 80, 3846), (60, 80, 3858), (43, 80, 3858), (52, 80, 3858), (53, 80, 3906), (62, 80, 3906), (47, 80, 3906), (55, 80, 7758), (59, 80, 7764), (59, 80, 7770), (60, 80, 7776), (62, 80, 7788), (79, 80, 7908), (74, 80, 7914), (76, 80, 7920), (72, 80, 7926), (74, 80, 7932), (74, 80, 7938), (71, 80, 7944), (55, 80, 7944), (59, 80, 7950), (74, 80, 7950), (76, 80, 7956), (59, 80, 7956), (60, 80, 7962), (74, 80, 7962), (59, 80, 7968), (62, 80, 7974), (79, 80, 8094), (74, 80, 8100), (79, 80, 8106), (81, 80, 8112), (83, 80, 8118), (79, 80, 8130), (55, 80, 8130), (59, 80, 8136), (76, 80, 8148), (59, 80, 8148), (59, 80, 8154), (74, 80, 8160), (60, 80, 8160), (61, 80, 8166), (62, 80, 8172), (79, 80, 8184), (59, 80, 8184), (74, 80, 8190), (76, 80, 8196), (72, 80, 8202), (79, 80, 8208), (55, 80, 8208), (79, 80, 8214), (76, 80, 8220), (79, 80, 8226), (59, 80, 8250), (83, 80, 8262), (55, 80, 8262), (50, 80, 8268), (57, 80, 8274), (81, 80, 8286), (50, 80, 8286), (81, 80, 8298), (52, 80, 8310), (76, 80, 8310), (54, 80, 8322), (74, 80, 8322), (50, 80, 8346), (59, 80, 8346), (57, 80, 8358), (48, 80, 8358), (74, 80, 8490), (67, 80, 8490), (59, 80, 8490), (76, 80, 8502), (59, 80, 8502), (64, 80, 8502), (55, 80, 8508), (79, 80, 8508), (62, 80, 8514), (84, 80, 8514), (57, 80, 8514), (54, 80, 8520), (83, 80, 8526), (64, 80, 8526), (55, 80, 8526), (62, 80, 8538), (79, 80, 8538), (59, 80, 8550), (79, 80, 8562), (55, 80, 8562), (60, 80, 8694), (55, 80, 8694), (79, 80, 8694), (79, 80, 8706), (60, 80, 8706), (55, 80, 8706), (55, 80, 8724), (76, 80, 8724), (48, 80, 8724), (57, 80, 8730), (75, 80, 8730), (48, 80, 8730), (55, 80, 8754), (50, 80, 8754), (79, 80, 8898), (62, 80, 8898), (76, 80, 8910), (60, 80, 8910), (74, 80, 8922), (59, 80, 8922), (50, 80, 8934), (71, 80, 8934), (67, 80, 8946), (52, 80, 8946), (69, 80, 8958), (55, 80, 9090), (79, 80, 9090), (50, 80, 9096), (52, 80, 9102), (76, 80, 9102), (50, 80, 9108), (55, 80, 9114), (79, 80, 9114), (59, 80, 9126), (81, 80, 9126), (83, 80, 9138), (55, 80, 9138), (57, 80, 9150), (81, 80, 9150), (79, 80, 9282), (59, 80, 9282), (74, 80, 9288), (55, 80, 9294), (76, 80, 9294), (74, 80, 9300), (76, 80, 9306), (52, 80, 9306), (76, 80, 9312), (50, 80, 9318), (74, 80, 9318), (76, 80, 9330), (52, 80, 9330), (54, 80, 9342), (78, 80, 9342), (55, 80, 9354), (71, 80, 9354), (74, 80, 9354), (79, 80, 9354), (64, 80, 9450), (55, 80, 9450), (67, 80, 9450), (72, 80, 9450), (60, 80, 9450), (36, 80, 9465), (76, 80, 9480), (60, 80, 9480), (64, 80, 9480), (72, 80, 9480), (67, 80, 9480), (36, 80, 9504), (71, 80, 9768), (79, 80, 9768), (91, 80, 9768), (83, 80, 9768), (62, 80, 9768), (67, 80, 9768), (86, 80, 9768), (76, 80, 1080), (48, 80, 1080), (43, 80, 1086), (41, 80, 1092), (74, 80, 1092), (72, 80, 1104), (40, 80, 1104), (67, 80, 1116), (36, 80, 1116), (72, 80, 1122), (40, 80, 1134), (72, 80, 1140), (74, 80, 1146), (43, 80, 1146), (72, 80, 1152), (76, 80, 1278), (48, 80, 1278), (43, 80, 1284), (41, 80, 1290), (74, 80, 1290), (40, 80, 1302), (72, 80, 1302), (67, 80, 1314), (36, 80, 1314), (72, 80, 1320), (40, 80, 1332), (72, 80, 1338), (74, 80, 1344), (43, 80, 1344), (72, 80, 1350), (67, 80, 1476), (48, 80, 1476), (55, 80, 1488), (72, 80, 1488), (52, 80, 1488), (53, 80, 1494), (76, 80, 1500), (60, 80, 1500), (55, 80, 1500), (60, 80, 1512), (64, 80, 1512), (79, 80, 1512), (60, 80, 1536), (76, 80, 1536), (64, 80, 1536), (62, 80, 1560), (74, 80, 1560), (59, 80, 1560), (50, 80, 1572), (79, 80, 1572), (50, 80, 1584), (53, 80, 1596), (60, 80, 1596), (81, 80, 1596), (55, 80, 1608), (83, 80, 1608), (62, 80, 1608), (67, 80, 1776), (60, 80, 1776), (57, 80, 1788), (72, 80, 1800), (55, 80, 1800), (76, 80, 1804), (79, 80, 1808), (84, 80, 1812), (57, 80, 1812), (55, 80, 1824), (81, 80, 1824), (79, 80, 1836), (52, 80, 1836), (48, 80, 1848), (81, 80, 1848), (55, 80, 1980), (60, 80, 1980), (53, 80, 1992), (65, 80, 2004), (48, 80, 2004), (69, 80, 2008), (72, 80, 2012), (51, 80, 2016), (75, 80, 2016), (72, 80, 2028), (48, 80, 2028), (74, 80, 2040), (48, 80, 2040), (72, 80, 2106), (50, 80, 2106), (43, 80, 2292), (84, 80, 2292), (76, 80, 2292), (48, 80, 2304), (52, 80, 2316), (72, 80, 2316), (81, 80, 2316), (69, 80, 2328), (79, 80, 2328), (55, 80, 2328), (76, 80, 2394), (67, 80, 2394), (72, 80, 2406), (69, 80, 2406), (53, 80, 2406), (71, 80, 2418), (74, 80, 2418), (52, 80, 2430), (48, 80, 2430), (67, 80, 2430), (72, 80, 2430), (76, 80, 3078), (52, 80, 3078), (72, 80, 3084), (74, 80, 3090), (48, 80, 3090), (71, 80, 3096), (45, 80, 3102), (72, 80, 3102), (43, 80, 3114), (45, 80, 3126), (48, 80, 3138), (76, 80, 3270), (52, 80, 3270), (72, 80, 3276), (48, 80, 3282), (74, 80, 3282), (71, 80, 3288), (45, 80, 3294), (72, 80, 3294), (43, 80, 3306), (45, 80, 3318), (48, 80, 3330), (76, 80, 3462), (48, 80, 3462), (52, 80, 3474), (72, 80, 3480), (55, 80, 3486), (74, 80, 3486), (71, 80, 3492), (60, 80, 3498), (72, 80, 3498), (72, 80, 3504), (67, 80, 3510), (72, 80, 3522), (57, 80, 3522), (76, 80, 3534), (50, 80, 3546), (74, 80, 3666), (69, 80, 3678), (57, 80, 3678), (59, 80, 3690), (67, 80, 3690), (55, 80, 3858), (72, 80, 3858), (64, 80, 3858), (52, 80, 3858), (52, 80, 3870), (69, 80, 3870), (48, 80, 3870), (60, 80, 3870), (60, 80, 3882), (48, 80, 3882), (43, 80, 3882), (67, 80, 3882), (55, 80, 3906), (64, 80, 3906), (59, 80, 3906), (60, 80, 3918), (77, 80, 4050), (60, 80, 4050), (69, 80, 4050), (69, 80, 4062), (77, 80, 4062), (60, 80, 4062), (64, 80, 4080), (57, 80, 4080), (72, 80, 4080), (68, 80, 4086), (74, 80, 4086), (53, 80, 4086), (48, 80, 4254), (76, 80, 4254), (45, 80, 4266), (72, 80, 4266), (43, 80, 4278), (69, 80, 4278), (40, 80, 4290), (67, 80, 4290), (69, 80, 4302), (36, 80, 4302), (38, 80, 4314), (72, 80, 4314), (36, 80, 4326), (72, 80, 4446), (69, 80, 4458), (43, 80, 4470), (67, 80, 4470), (60, 80, 4482), (64, 80, 4494), (65, 80, 4506), (48, 80, 4518), (52, 80, 4518), (67, 80, 4518), (47, 80, 4542), (52, 80, 4566), (45, 80, 4566), (60, 80, 4686), (43, 80, 4698), (65, 80, 4698), (67, 80, 4710), (65, 80, 4722), (53, 80, 4722), (60, 80, 4722), (69, 80, 4722), (52, 80, 4746), (50, 80, 4770), (69, 80, 4890), (50, 80, 4902), (65, 80, 4902), (71, 80, 4902), (72, 80, 4914), (43, 80, 4926), (67, 80, 4926), (76, 80, 4926), (52, 80, 4926), (45, 80, 4950), (67, 80, 4950), (72, 80, 4950), (52, 80, 4950), (55, 80, 4974), (43, 80, 4974), (69, 80, 4974), (76, 80, 4974), (74, 80, 4986), (43, 80, 5010), (55, 80, 5010), (72, 80, 5022), (69, 80, 5022), (64, 80, 5034), (67, 80, 5034), (72, 80, 5034), (55, 80, 5034), (48, 80, 5034), (50, 80, 5082), (59, 80, 5082), (74, 80, 5082), (67, 80, 5082), (43, 80, 5574), (62, 80, 5574), (71, 80, 5574), (47, 80, 5586), (50, 80, 5592), (67, 80, 5598), (52, 80, 5598), (60, 80, 5598), (55, 80, 5604), (59, 80, 5616), (67, 80, 5616), (52, 80, 5628), (50, 80, 5640), (52, 80, 5652), (62, 80, 5784), (47, 80, 5784), (55, 80, 5784), (57, 80, 5796), (64, 80, 5796), (48, 80, 5796), (50, 80, 5808), (59, 80, 5808), (67, 80, 5808), (71, 80, 5820), (48, 80, 5832), (55, 80, 5832), (69, 80, 5832), (54, 80, 5844), (62, 80, 5856), (43, 80, 5868), (74, 80, 5868), (43, 80, 5880), (71, 80, 5892), (47, 80, 5892), (64, 80, 5904), (50, 80, 5904), (67, 80, 5916), (64, 80, 5928), (47, 80, 5928), (71, 80, 5928), (67, 80, 5934), (74, 80, 5940), (38, 80, 6072), (69, 80, 6072), (40, 80, 6138), (61, 80, 6150), (42, 80, 6150), (62, 80, 6162), (43, 80, 6162), (62, 80, 6174), (40, 80, 6174), (71, 80, 6180), (42, 80, 6240), (67, 80, 6246), (38, 80, 6252), (69, 80, 6252), (67, 80, 6264), (43, 80, 6264), (43, 80, 6276), (67, 80, 6276), (47, 80, 6342), (71, 80, 6342), (67, 80, 6354), (47, 80, 6354), (74, 80, 6360), (50, 80, 6372), (71, 80, 6378), (67, 80, 6384), (71, 80, 6390), (74, 80, 6396), (72, 80, 6408), (36, 80, 6588), (40, 80, 6594), (43, 80, 6600), (48, 80, 6606), (45, 80, 6618), (71, 80, 6630), (43, 80, 6630), (45, 80, 6642), (72, 80, 6642), (50, 80, 6654), (71, 80, 6774), (47, 80, 6798), (67, 80, 6810), (67, 80, 6822), (43, 80, 6822), (45, 80, 6846), (60, 80, 6846), (43, 80, 6990), (71, 80, 6990), (62, 80, 6990), (43, 80, 7002), (45, 80, 7014), (72, 80, 7014), (64, 80, 7014), (47, 80, 7026), (67, 80, 7026), (74, 80, 7026), (43, 80, 7038), (40, 80, 7050), (67, 80, 7050), (72, 80, 7050), (66, 80, 7062), (38, 80, 7062), (62, 80, 7074), (43, 80, 7074), (71, 80, 7074), (62, 80, 7098), (67, 80, 7098), (47, 80, 7098), (67, 80, 7098), (60, 80, 7122), (67, 80, 7122), (48, 80, 7122), (60, 80, 7146), (67, 80, 7146), (45, 80, 7146), (62, 80, 7158), (57, 80, 7158), (43, 80, 7170), (47, 80, 7170), (59, 80, 7170), (62, 80, 7170), (67, 80, 7170), (48, 80, 7266), (52, 80, 7272), (55, 80, 7278), (60, 80, 7284), (64, 80, 7290), (67, 80, 7296), (72, 80, 7302), (76, 80, 7308), (52, 80, 7314), (55, 80, 7344), (60, 80, 7347), (64, 80, 7350), (67, 80, 7383), (72, 80, 7389), (76, 80, 7395), (79, 80, 7401), (83, 80, 7407), (79, 80, 7407), (43, 80, 7407)], [(60, 80, 600), (64, 80, 612), (65, 80, 624), (67, 80, 636), (55, 80, 756), (48, 80, 756), (52, 80, 768), (53, 80, 774), (55, 80, 780), (53, 80, 780), (60, 80, 792), (52, 80, 792), (60, 80, 804), (64, 80, 816), (60, 80, 822), (65, 80, 828), (67, 80, 840), (48, 80, 960), (55, 80, 960), (52, 80, 972), (53, 80, 978), (55, 80, 984), (53, 80, 984), (60, 80, 996), (52, 80, 996), (60, 80, 1056), (60, 80, 1068), (64, 80, 1074), (60, 80, 1080), (65, 80, 1086), (67, 80, 1272), (76, 80, 1272), (72, 80, 1278), (74, 80, 1284), (64, 80, 1284), (72, 80, 1290), (60, 80, 1296), (72, 80, 1296), (72, 80, 1302), (67, 80, 1308), (64, 80, 1326), (72, 80, 1338), (60, 80, 1344), (55, 80, 1350), (76, 80, 1350), (64, 80, 1356), (62, 80, 1362), (74, 80, 1482), (74, 80, 1494), (69, 80, 1506), (71, 80, 1554), (64, 80, 1674), (64, 80, 1686), (62, 80, 1698), (60, 80, 1710), (36, 80, 1830), (40, 80, 1842), (43, 80, 1854), (60, 80, 1854), (48, 80, 1866), (64, 80, 1866), (60, 80, 1878), (67, 80, 1884), (64, 80, 1890), (60, 80, 1896), (64, 80, 1902), (67, 80, 1908), (53, 80, 1974), (65, 80, 1974), (55, 80, 1986), (57, 80, 1998), (64, 80, 2130), (65, 80, 2142), (67, 80, 2154), (52, 80, 2274), (64, 80, 2298), (48, 80, 2310), (60, 80, 2322), (53, 80, 2322), (62, 80, 2346), (55, 80, 2412), (55, 80, 2460), (60, 80, 2460), (60, 80, 2568), (60, 80, 2580), (64, 80, 2586), (60, 80, 2592), (65, 80, 2598), (67, 80, 2610), (60, 80, 2730), (60, 80, 2742), (55, 80, 2754), (60, 80, 2766), (60, 80, 2772), (60, 80, 2784), (64, 80, 2790), (65, 80, 2856), (67, 80, 2922), (60, 80, 3042), (60, 80, 3054), (55, 80, 3072), (60, 80, 3078), (60, 80, 3084), (60, 80, 3096), (64, 80, 3102), (65, 80, 3168), (55, 80, 3234), (67, 80, 3234), (55, 80, 3258), (52, 80, 3270), (64, 80, 3270), (48, 80, 3282), (60, 80, 3282), (52, 80, 3300), (64, 80, 3300), (60, 80, 3306), (55, 80, 3312), (64, 80, 3318), (62, 80, 3324), (55, 80, 3324), (43, 80, 3336), (59, 80, 3336), (59, 80, 3348), (45, 80, 3348), (60, 80, 3360), (47, 80, 3360), (60, 80, 3360), (62, 80, 3360), (65, 80, 3372), (48, 80, 3372), (62, 80, 3372), (48, 80, 3378), (45, 80, 3390), (64, 80, 3396), (47, 80, 3396), (43, 80, 3408), (62, 80, 3426), (60, 80, 3432), (60, 80, 3444), (64, 80, 3456), (64, 80, 3468), (67, 80, 3480), (43, 80, 3480), (36, 80, 3492), (67, 80, 3504), (65, 80, 3570), (41, 80, 3570), (45, 80, 3582), (48, 80, 3600), (53, 80, 3606), (64, 80, 3738), (65, 80, 3750), (67, 80, 3762), (52, 80, 3762), (55, 80, 3774), (64, 80, 3786), (48, 80, 3786), (52, 80, 3798), (53, 80, 3810), (60, 80, 3810), (53, 80, 3834), (50, 80, 3834), (62, 80, 3834), (43, 80, 3846), (60, 80, 3858), (43, 80, 3858), (52, 80, 3858), (53, 80, 3906), (62, 80, 3906), (47, 80, 3906), (55, 80, 7758), (59, 80, 7764), (59, 80, 7770), (60, 80, 7776), (62, 80, 7788), (79, 80, 7908), (74, 80, 7914), (76, 80, 7920), (72, 80, 7926), (74, 80, 7932), (74, 80, 7938), (71, 80, 7944), (55, 80, 7944), (59, 80, 7950), (74, 80, 7950), (76, 80, 7956), (59, 80, 7956), (60, 80, 7962), (74, 80, 7962), (59, 80, 7968), (62, 80, 7974), (79, 80, 8094), (74, 80, 8100), (79, 80, 8106), (81, 80, 8112), (83, 80, 8118), (79, 80, 8130), (55, 80, 8130), (59, 80, 8136), (76, 80, 8148), (59, 80, 8148), (59, 80, 8154), (74, 80, 8160), (60, 80, 8160), (61, 80, 8166), (62, 80, 8172), (79, 80, 8184), (59, 80, 8184), (74, 80, 8190), (76, 80, 8196), (72, 80, 8202), (79, 80, 8208), (55, 80, 8208), (79, 80, 8214), (76, 80, 8220), (79, 80, 8226), (59, 80, 8250), (83, 80, 8262), (55, 80, 8262), (50, 80, 8268), (57, 80, 8274), (81, 80, 8286), (50, 80, 8286), (81, 80, 8298), (52, 80, 8310), (76, 80, 8310), (54, 80, 8322), (74, 80, 8322), (50, 80, 8346), (59, 80, 8346), (57, 80, 8358), (48, 80, 8358), (74, 80, 8490), (67, 80, 8490), (59, 80, 8490), (76, 80, 8502), (59, 80, 8502), (64, 80, 8502), (55, 80, 8508), (79, 80, 8508), (62, 80, 8514), (84, 80, 8514), (57, 80, 8514), (54, 80, 8520), (83, 80, 8526), (64, 80, 8526), (55, 80, 8526), (62, 80, 8538), (79, 80, 8538), (59, 80, 8550), (79, 80, 8562), (55, 80, 8562), (60, 80, 8694), (55, 80, 8694), (79, 80, 8694), (79, 80, 8706), (60, 80, 8706), (55, 80, 8706), (55, 80, 8724), (76, 80, 8724), (48, 80, 8724), (57, 80, 8730), (75, 80, 8730), (48, 80, 8730), (55, 80, 8754), (50, 80, 8754), (79, 80, 8898), (62, 80, 8898), (76, 80, 8910), (60, 80, 8910), (74, 80, 8922), (59, 80, 8922), (50, 80, 8934), (71, 80, 8934), (67, 80, 8946), (52, 80, 8946), (69, 80, 8958), (55, 80, 9090), (79, 80, 9090), (50, 80, 9096), (52, 80, 9102), (76, 80, 9102), (50, 80, 9108), (55, 80, 9114), (79, 80, 9114), (59, 80, 9126), (81, 80, 9126), (83, 80, 9138), (55, 80, 9138), (57, 80, 9150), (81, 80, 9150), (79, 80, 9282), (59, 80, 9282), (74, 80, 9288), (55, 80, 9294), (76, 80, 9294), (74, 80, 9300), (76, 80, 9306), (52, 80, 9306), (76, 80, 9312), (50, 80, 9318), (74, 80, 9318), (76, 80, 9330), (52, 80, 9330), (54, 80, 9342), (78, 80, 9342), (55, 80, 9354), (71, 80, 9354), (74, 80, 9354), (79, 80, 9354), (64, 80, 9450), (55, 80, 9450), (67, 80, 9450), (72, 80, 9450), (60, 80, 9450), (36, 80, 9465), (76, 80, 9480), (60, 80, 9480), (64, 80, 9480), (72, 80, 9480), (67, 80, 9480), (36, 80, 9504), (71, 80, 9768), (79, 80, 9768), (91, 80, 9768), (83, 80, 9768), (62, 80, 9768), (67, 80, 9768), (86, 80, 9768), (76, 80, 1080), (48, 80, 1080), (43, 80, 1086), (41, 80, 1092), (74, 80, 1092), (72, 80, 1104), (40, 80, 1104), (67, 80, 1116), (36, 80, 1116), (72, 80, 1122), (40, 80, 1134), (72, 80, 1140), (74, 80, 1146), (43, 80, 1146), (72, 80, 1152), (76, 80, 1278), (48, 80, 1278), (43, 80, 1284), (41, 80, 1290), (74, 80, 1290), (40, 80, 1302), (72, 80, 1302), (67, 80, 1314), (36, 80, 1314), (72, 80, 1320), (40, 80, 1332), (72, 80, 1338), (74, 80, 1344), (43, 80, 1344), (72, 80, 1350), (67, 80, 1476), (48, 80, 1476), (55, 80, 1488), (72, 80, 1488), (52, 80, 1488), (53, 80, 1494), (76, 80, 1500), (60, 80, 1500), (55, 80, 1500), (60, 80, 1512), (64, 80, 1512), (79, 80, 1512), (60, 80, 1536), (76, 80, 1536), (64, 80, 1536), (62, 80, 1560), (74, 80, 1560), (59, 80, 1560), (50, 80, 1572), (79, 80, 1572), (50, 80, 1584), (53, 80, 1596), (60, 80, 1596), (81, 80, 1596), (55, 80, 1608), (83, 80, 1608), (62, 80, 1608), (67, 80, 1776), (60, 80, 1776), (57, 80, 1788), (72, 80, 1800), (55, 80, 1800), (76, 80, 1804), (79, 80, 1808), (84, 80, 1812), (57, 80, 1812), (55, 80, 1824), (81, 80, 1824), (79, 80, 1836), (52, 80, 1836), (48, 80, 1848), (81, 80, 1848), (55, 80, 1980), (60, 80, 1980), (53, 80, 1992), (65, 80, 2004), (48, 80, 2004), (69, 80, 2008), (72, 80, 2012), (51, 80, 2016), (75, 80, 2016), (72, 80, 2028), (48, 80, 2028), (74, 80, 2040), (48, 80, 2040), (72, 80, 2106), (50, 80, 2106), (43, 80, 2292), (84, 80, 2292), (76, 80, 2292), (48, 80, 2304), (52, 80, 2316), (72, 80, 2316), (81, 80, 2316), (69, 80, 2328), (79, 80, 2328), (55, 80, 2328), (76, 80, 2394), (67, 80, 2394), (72, 80, 2406), (69, 80, 2406), (53, 80, 2406), (71, 80, 2418), (74, 80, 2418), (52, 80, 2430), (48, 80, 2430), (67, 80, 2430), (72, 80, 2430), (76, 80, 3078), (52, 80, 3078), (72, 80, 3084), (74, 80, 3090), (48, 80, 3090), (71, 80, 3096), (45, 80, 3102), (72, 80, 3102), (43, 80, 3114), (45, 80, 3126), (48, 80, 3138), (76, 80, 3270), (52, 80, 3270), (72, 80, 3276), (48, 80, 3282), (74, 80, 3282), (71, 80, 3288), (45, 80, 3294), (72, 80, 3294), (43, 80, 3306), (45, 80, 3318), (48, 80, 3330), (76, 80, 3462), (48, 80, 3462), (52, 80, 3474), (72, 80, 3480), (55, 80, 3486), (74, 80, 3486), (71, 80, 3492), (60, 80, 3498), (72, 80, 3498), (72, 80, 3504), (67, 80, 3510), (72, 80, 3522), (57, 80, 3522), (76, 80, 3534), (50, 80, 3546), (74, 80, 3666), (69, 80, 3678), (57, 80, 3678), (59, 80, 3690), (67, 80, 3690), (55, 80, 3858), (72, 80, 3858), (64, 80, 3858), (52, 80, 3858), (52, 80, 3870), (69, 80, 3870), (48, 80, 3870), (60, 80, 3870), (60, 80, 3882), (48, 80, 3882), (43, 80, 3882), (67, 80, 3882), (55, 80, 3906), (64, 80, 3906), (59, 80, 3906), (60, 80, 3918), (77, 80, 4050), (60, 80, 4050), (69, 80, 4050), (69, 80, 4062), (77, 80, 4062), (60, 80, 4062), (64, 80, 4080), (57, 80, 4080), (72, 80, 4080), (68, 80, 4086), (74, 80, 4086), (53, 80, 4086), (48, 80, 4254), (76, 80, 4254), (45, 80, 4266), (72, 80, 4266), (43, 80, 4278), (69, 80, 4278), (40, 80, 4290), (67, 80, 4290), (69, 80, 4302), (36, 80, 4302), (38, 80, 4314), (72, 80, 4314), (36, 80, 4326), (72, 80, 4446), (69, 80, 4458), (43, 80, 4470), (67, 80, 4470), (60, 80, 4482), (64, 80, 4494), (65, 80, 4506), (48, 80, 4518), (52, 80, 4518), (67, 80, 4518), (47, 80, 4542), (52, 80, 4566), (45, 80, 4566), (60, 80, 4686), (43, 80, 4698), (65, 80, 4698), (67, 80, 4710), (65, 80, 4722), (53, 80, 4722), (60, 80, 4722), (69, 80, 4722), (52, 80, 4746), (50, 80, 4770), (69, 80, 4890), (50, 80, 4902), (65, 80, 4902), (71, 80, 4902), (72, 80, 4914), (43, 80, 4926), (67, 80, 4926), (76, 80, 4926), (52, 80, 4926), (45, 80, 4950), (67, 80, 4950), (72, 80, 4950), (52, 80, 4950), (55, 80, 4974), (43, 80, 4974), (69, 80, 4974), (76, 80, 4974), (74, 80, 4986), (43, 80, 5010), (55, 80, 5010), (72, 80, 5022), (69, 80, 5022), (64, 80, 5034), (67, 80, 5034), (72, 80, 5034), (55, 80, 5034), (48, 80, 5034), (50, 80, 5082), (59, 80, 5082), (74, 80, 5082), (67, 80, 5082), (43, 80, 5574), (62, 80, 5574), (71, 80, 5574), (47, 80, 5586), (50, 80, 5592), (67, 80, 5598), (52, 80, 5598), (60, 80, 5598), (55, 80, 5604), (59, 80, 5616), (67, 80, 5616), (52, 80, 5628), (50, 80, 5640), (52, 80, 5652), (62, 80, 5784), (47, 80, 5784), (55, 80, 5784), (57, 80, 5796), (64, 80, 5796), (48, 80, 5796), (50, 80, 5808), (59, 80, 5808), (67, 80, 5808), (71, 80, 5820), (48, 80, 5832), (55, 80, 5832), (69, 80, 5832), (54, 80, 5844), (62, 80, 5856), (43, 80, 5868), (74, 80, 5868), (43, 80, 5880), (71, 80, 5892), (47, 80, 5892), (64, 80, 5904), (50, 80, 5904), (67, 80, 5916), (64, 80, 5928), (47, 80, 5928), (71, 80, 5928), (67, 80, 5934), (74, 80, 5940), (38, 80, 6072), (69, 80, 6072), (40, 80, 6138), (61, 80, 6150), (42, 80, 6150), (62, 80, 6162), (43, 80, 6162), (62, 80, 6174), (40, 80, 6174), (71, 80, 6180), (42, 80, 6240), (67, 80, 6246), (38, 80, 6252), (69, 80, 6252), (67, 80, 6264), (43, 80, 6264), (43, 80, 6276), (67, 80, 6276), (47, 80, 6342), (71, 80, 6342), (67, 80, 6354), (47, 80, 6354), (74, 80, 6360), (50, 80, 6372), (71, 80, 6378), (67, 80, 6384), (71, 80, 6390), (74, 80, 6396), (72, 80, 6408), (36, 80, 6588), (40, 80, 6594), (43, 80, 6600), (48, 80, 6606), (45, 80, 6618), (71, 80, 6630), (43, 80, 6630), (45, 80, 6642), (72, 80, 6642), (50, 80, 6654), (71, 80, 6774), (47, 80, 6798), (67, 80, 6810), (67, 80, 6822), (43, 80, 6822), (45, 80, 6846), (60, 80, 6846), (43, 80, 6990), (71, 80, 6990), (62, 80, 6990), (43, 80, 7002), (45, 80, 7014), (72, 80, 7014), (64, 80, 7014), (47, 80, 7026), (67, 80, 7026), (74, 80, 7026), (43, 80, 7038), (40, 80, 7050), (67, 80, 7050), (72, 80, 7050), (66, 80, 7062), (38, 80, 7062), (62, 80, 7074), (43, 80, 7074), (71, 80, 7074), (62, 80, 7098), (67, 80, 7098), (47, 80, 7098), (67, 80, 7098), (60, 80, 7122), (67, 80, 7122), (48, 80, 7122), (60, 80, 7146), (67, 80, 7146), (45, 80, 7146), (62, 80, 7158), (57, 80, 7158), (43, 80, 7170), (47, 80, 7170), (59, 80, 7170), (62, 80, 7170), (67, 80, 7170), (48, 80, 7266), (52, 80, 7272), (55, 80, 7278), (60, 80, 7284), (64, 80, 7290), (67, 80, 7296), (72, 80, 7302), (76, 80, 7308), (52, 80, 7314), (55, 80, 7344), (60, 80, 7347), (64, 80, 7350), (67, 80, 7383), (72, 80, 7389), (76, 80, 7395), (79, 80, 7401), (83, 80, 7407), (79, 80, 7407), (43, 80, 7407)]]\n"
     ]
    }
   ],
   "source": [
    "print(data_coll)"
   ]
  },
  {
   "cell_type": "code",
   "execution_count": 78,
   "metadata": {},
   "outputs": [],
   "source": [
    "def create_data_windows(notes_data, window_duration = 480):\n",
    "    \"\"\"\n",
    "    Create training data windows and corresponding targets.\n",
    "\n",
    "    :param notes_data: Dictionary with channels as keys and notes data as values\n",
    "    :param input_channel: Channel number for input data\n",
    "    :param target_channel: Channel number for target data\n",
    "    :param window_duration: Duration of each window in MIDI ticks\n",
    "    :return: Input sequences and their corresponding target notes\n",
    "    \"\"\"\n",
    "    input_sequences = []\n",
    "    targets = []\n",
    "\n",
    "    input_notes = notes_data[1]\n",
    "    target_notes = notes_data[2]\n",
    "\n",
    "   # Create input sequences\n",
    "    start_time = 0\n",
    "    while start_time < input_notes[-1][2]:  # last note time\n",
    "        window_end = start_time + window_duration\n",
    "        window = [note for note in input_notes if start_time <= note[2] < window_end]\n",
    "        \n",
    "        # Find the immediate next note in the target after the current window ends\n",
    "        next_notes = [note for note in target_notes if note[2] >= window_end]\n",
    "        if next_notes:\n",
    "            input_sequences.append(window)\n",
    "            targets.append(next_notes[0])  # the first note after the window\n",
    "        # If no notes are found in B after the window, the window is discarded\n",
    "\n",
    "        start_time += window_duration  # non-overlapping windows\n",
    "\n",
    "    return input_sequences, targets"
   ]
  },
  {
   "cell_type": "code",
   "execution_count": null,
   "metadata": {},
   "outputs": [],
   "source": [
    "def create_data_windowsV2(notes_data, window_size):\n",
    "    \"\"\"\n",
    "    Create training data windows and corresponding targets.\n",
    "\n",
    "    :param notes_data: Dictionary with channels as keys and notes data as values\n",
    "    :param input_channel: Channel number for input data\n",
    "    :param target_channel: Channel number for target data\n",
    "    :param window_size: Number of notes in each input sequence\n",
    "    :return: Input sequences and their corresponding target notes\n",
    "    \"\"\"\n",
    "    input_sequences = []\n",
    "    targets = []\n",
    "\n",
    "    input_notes = []\n",
    "    target_notes = []\n",
    "\n",
    "    for i in range(len(input_notes) - window_size):\n",
    "        # Get the current window of notes\n",
    "        window = input_notes[i:i + window_size]\n",
    "        input_sequences.append(window)\n",
    "        \n",
    "        # Find the closest note in target_notes that comes after the last note in the window\n",
    "        last_note_time = window[-1][2]\n",
    "        next_note = min(\n",
    "            (note for note in target_notes if note[2] > last_note_time), \n",
    "            key=lambda note: note[2] - last_note_time,\n",
    "            default=None\n",
    "        )\n",
    "        \n",
    "        if next_note:\n",
    "            targets.append(next_note)\n",
    "        else:\n",
    "            # If no subsequent note is found, drop the window\n",
    "            input_sequences.pop()\n",
    "\n",
    "    return input_sequences, targets\n",
    "\n",
    "# Example usage\n",
    "midi_path = 'path_to_your_midi_file.mid'\n",
    "channels = [0, 1]  # Channels for two instruments\n",
    "window_size = 10  # Number of notes in each input sequence\n",
    "\n",
    "notes_data = get_notes_with_time_from_stream(streams)\n",
    "input_sequences, targets = create_data_windows(notes_data,window_size)\n",
    "\n",
    "print(f\"Number of usable sequences: {len(input_sequences)}\")\n",
    "print(\"Sample input sequence and target:\", input_sequences[0], targets[0] if input_sequences else \"No usable data\")"
   ]
  },
  {
   "cell_type": "code",
   "execution_count": 79,
   "metadata": {},
   "outputs": [],
   "source": [
    "input_sequences, targets = create_data_windows(data_coll)\n"
   ]
  },
  {
   "cell_type": "code",
   "execution_count": 80,
   "metadata": {},
   "outputs": [],
   "source": [
    "import torch\n",
    "from torch.utils.data import Dataset, DataLoader\n",
    "from torch import nn\n",
    "\n",
    "from torch.nn.utils.rnn import pad_sequence\n",
    "\n",
    "class MIDIDataset(Dataset):\n",
    "    def __init__(self, input_sequences, targets):\n",
    "        # Convert each sequence to a tensor when initializing the dataset\n",
    "        self.inputs = [torch.tensor(sequence, dtype=torch.float32) for sequence in input_sequences]\n",
    "        self.targets = [torch.tensor(target[0], dtype=torch.long) for target in targets]  # Assuming target is a single note index\n",
    "\n",
    "    def __len__(self):\n",
    "        return len(self.inputs)\n",
    "\n",
    "    def __getitem__(self, idx):\n",
    "        return self.inputs[idx], self.targets[idx]\n",
    "    \n",
    "\n",
    "def collate_fn(batch):\n",
    "    # Separate sequences and targets from the batch\n",
    "    sequences, targets = zip(*batch)\n",
    "    # Pad sequences dynamically\n",
    "    sequences_padded = pad_sequence([torch.tensor(seq) for seq in sequences], batch_first=True, padding_value=0)\n",
    "    targets = torch.tensor(targets)\n",
    "    return sequences_padded, targets\n",
    "\n",
    "\n",
    "# Example usage\n",
    "dataset = MIDIDataset(input_sequences, targets)\n",
    "# Assuming your dataset is defined properly\n",
    "data_loader = DataLoader(dataset, batch_size=32, shuffle=True, collate_fn=collate_fn)"
   ]
  },
  {
   "cell_type": "code",
   "execution_count": 81,
   "metadata": {},
   "outputs": [
    {
     "ename": "RuntimeError",
     "evalue": "The size of tensor a (3) must match the size of tensor b (0) at non-singleton dimension 1",
     "output_type": "error",
     "traceback": [
      "\u001b[0;31m---------------------------------------------------------------------------\u001b[0m",
      "\u001b[0;31mRuntimeError\u001b[0m                              Traceback (most recent call last)",
      "Cell \u001b[0;32mIn[81], line 1\u001b[0m\n\u001b[0;32m----> 1\u001b[0m \u001b[38;5;28;01mfor\u001b[39;00m inputs, labels \u001b[38;5;129;01min\u001b[39;00m data_loader:\n\u001b[1;32m      2\u001b[0m     \u001b[38;5;28mprint\u001b[39m(inputs\u001b[38;5;241m.\u001b[39mshape, labels\u001b[38;5;241m.\u001b[39mshape)\n\u001b[1;32m      3\u001b[0m     \u001b[38;5;28;01mbreak\u001b[39;00m  \u001b[38;5;66;03m# just to see the first batch\u001b[39;00m\n",
      "File \u001b[0;32m~/.pyenv/versions/3.9.6/envs/Music/lib/python3.9/site-packages/torch/utils/data/dataloader.py:631\u001b[0m, in \u001b[0;36m_BaseDataLoaderIter.__next__\u001b[0;34m(self)\u001b[0m\n\u001b[1;32m    628\u001b[0m \u001b[38;5;28;01mif\u001b[39;00m \u001b[38;5;28mself\u001b[39m\u001b[38;5;241m.\u001b[39m_sampler_iter \u001b[38;5;129;01mis\u001b[39;00m \u001b[38;5;28;01mNone\u001b[39;00m:\n\u001b[1;32m    629\u001b[0m     \u001b[38;5;66;03m# TODO(https://github.com/pytorch/pytorch/issues/76750)\u001b[39;00m\n\u001b[1;32m    630\u001b[0m     \u001b[38;5;28mself\u001b[39m\u001b[38;5;241m.\u001b[39m_reset()  \u001b[38;5;66;03m# type: ignore[call-arg]\u001b[39;00m\n\u001b[0;32m--> 631\u001b[0m data \u001b[38;5;241m=\u001b[39m \u001b[38;5;28;43mself\u001b[39;49m\u001b[38;5;241;43m.\u001b[39;49m\u001b[43m_next_data\u001b[49m\u001b[43m(\u001b[49m\u001b[43m)\u001b[49m\n\u001b[1;32m    632\u001b[0m \u001b[38;5;28mself\u001b[39m\u001b[38;5;241m.\u001b[39m_num_yielded \u001b[38;5;241m+\u001b[39m\u001b[38;5;241m=\u001b[39m \u001b[38;5;241m1\u001b[39m\n\u001b[1;32m    633\u001b[0m \u001b[38;5;28;01mif\u001b[39;00m \u001b[38;5;28mself\u001b[39m\u001b[38;5;241m.\u001b[39m_dataset_kind \u001b[38;5;241m==\u001b[39m _DatasetKind\u001b[38;5;241m.\u001b[39mIterable \u001b[38;5;129;01mand\u001b[39;00m \\\n\u001b[1;32m    634\u001b[0m         \u001b[38;5;28mself\u001b[39m\u001b[38;5;241m.\u001b[39m_IterableDataset_len_called \u001b[38;5;129;01mis\u001b[39;00m \u001b[38;5;129;01mnot\u001b[39;00m \u001b[38;5;28;01mNone\u001b[39;00m \u001b[38;5;129;01mand\u001b[39;00m \\\n\u001b[1;32m    635\u001b[0m         \u001b[38;5;28mself\u001b[39m\u001b[38;5;241m.\u001b[39m_num_yielded \u001b[38;5;241m>\u001b[39m \u001b[38;5;28mself\u001b[39m\u001b[38;5;241m.\u001b[39m_IterableDataset_len_called:\n",
      "File \u001b[0;32m~/.pyenv/versions/3.9.6/envs/Music/lib/python3.9/site-packages/torch/utils/data/dataloader.py:675\u001b[0m, in \u001b[0;36m_SingleProcessDataLoaderIter._next_data\u001b[0;34m(self)\u001b[0m\n\u001b[1;32m    673\u001b[0m \u001b[38;5;28;01mdef\u001b[39;00m \u001b[38;5;21m_next_data\u001b[39m(\u001b[38;5;28mself\u001b[39m):\n\u001b[1;32m    674\u001b[0m     index \u001b[38;5;241m=\u001b[39m \u001b[38;5;28mself\u001b[39m\u001b[38;5;241m.\u001b[39m_next_index()  \u001b[38;5;66;03m# may raise StopIteration\u001b[39;00m\n\u001b[0;32m--> 675\u001b[0m     data \u001b[38;5;241m=\u001b[39m \u001b[38;5;28;43mself\u001b[39;49m\u001b[38;5;241;43m.\u001b[39;49m\u001b[43m_dataset_fetcher\u001b[49m\u001b[38;5;241;43m.\u001b[39;49m\u001b[43mfetch\u001b[49m\u001b[43m(\u001b[49m\u001b[43mindex\u001b[49m\u001b[43m)\u001b[49m  \u001b[38;5;66;03m# may raise StopIteration\u001b[39;00m\n\u001b[1;32m    676\u001b[0m     \u001b[38;5;28;01mif\u001b[39;00m \u001b[38;5;28mself\u001b[39m\u001b[38;5;241m.\u001b[39m_pin_memory:\n\u001b[1;32m    677\u001b[0m         data \u001b[38;5;241m=\u001b[39m _utils\u001b[38;5;241m.\u001b[39mpin_memory\u001b[38;5;241m.\u001b[39mpin_memory(data, \u001b[38;5;28mself\u001b[39m\u001b[38;5;241m.\u001b[39m_pin_memory_device)\n",
      "File \u001b[0;32m~/.pyenv/versions/3.9.6/envs/Music/lib/python3.9/site-packages/torch/utils/data/_utils/fetch.py:54\u001b[0m, in \u001b[0;36m_MapDatasetFetcher.fetch\u001b[0;34m(self, possibly_batched_index)\u001b[0m\n\u001b[1;32m     52\u001b[0m \u001b[38;5;28;01melse\u001b[39;00m:\n\u001b[1;32m     53\u001b[0m     data \u001b[38;5;241m=\u001b[39m \u001b[38;5;28mself\u001b[39m\u001b[38;5;241m.\u001b[39mdataset[possibly_batched_index]\n\u001b[0;32m---> 54\u001b[0m \u001b[38;5;28;01mreturn\u001b[39;00m \u001b[38;5;28;43mself\u001b[39;49m\u001b[38;5;241;43m.\u001b[39;49m\u001b[43mcollate_fn\u001b[49m\u001b[43m(\u001b[49m\u001b[43mdata\u001b[49m\u001b[43m)\u001b[49m\n",
      "Cell \u001b[0;32mIn[80], line 24\u001b[0m, in \u001b[0;36mcollate_fn\u001b[0;34m(batch)\u001b[0m\n\u001b[1;32m     22\u001b[0m sequences, targets \u001b[38;5;241m=\u001b[39m \u001b[38;5;28mzip\u001b[39m(\u001b[38;5;241m*\u001b[39mbatch)\n\u001b[1;32m     23\u001b[0m \u001b[38;5;66;03m# Pad sequences dynamically\u001b[39;00m\n\u001b[0;32m---> 24\u001b[0m sequences_padded \u001b[38;5;241m=\u001b[39m \u001b[43mpad_sequence\u001b[49m\u001b[43m(\u001b[49m\u001b[43m[\u001b[49m\u001b[43mtorch\u001b[49m\u001b[38;5;241;43m.\u001b[39;49m\u001b[43mtensor\u001b[49m\u001b[43m(\u001b[49m\u001b[43mseq\u001b[49m\u001b[43m)\u001b[49m\u001b[43m \u001b[49m\u001b[38;5;28;43;01mfor\u001b[39;49;00m\u001b[43m \u001b[49m\u001b[43mseq\u001b[49m\u001b[43m \u001b[49m\u001b[38;5;129;43;01min\u001b[39;49;00m\u001b[43m \u001b[49m\u001b[43msequences\u001b[49m\u001b[43m]\u001b[49m\u001b[43m,\u001b[49m\u001b[43m \u001b[49m\u001b[43mbatch_first\u001b[49m\u001b[38;5;241;43m=\u001b[39;49m\u001b[38;5;28;43;01mTrue\u001b[39;49;00m\u001b[43m,\u001b[49m\u001b[43m \u001b[49m\u001b[43mpadding_value\u001b[49m\u001b[38;5;241;43m=\u001b[39;49m\u001b[38;5;241;43m0\u001b[39;49m\u001b[43m)\u001b[49m\n\u001b[1;32m     25\u001b[0m targets \u001b[38;5;241m=\u001b[39m torch\u001b[38;5;241m.\u001b[39mtensor(targets)\n\u001b[1;32m     26\u001b[0m \u001b[38;5;28;01mreturn\u001b[39;00m sequences_padded, targets\n",
      "File \u001b[0;32m~/.pyenv/versions/3.9.6/envs/Music/lib/python3.9/site-packages/torch/nn/utils/rnn.py:399\u001b[0m, in \u001b[0;36mpad_sequence\u001b[0;34m(sequences, batch_first, padding_value)\u001b[0m\n\u001b[1;32m    395\u001b[0m         sequences \u001b[38;5;241m=\u001b[39m sequences\u001b[38;5;241m.\u001b[39munbind(\u001b[38;5;241m0\u001b[39m)\n\u001b[1;32m    397\u001b[0m \u001b[38;5;66;03m# assuming trailing dimensions and type of all the Tensors\u001b[39;00m\n\u001b[1;32m    398\u001b[0m \u001b[38;5;66;03m# in sequences are same and fetching those from sequences[0]\u001b[39;00m\n\u001b[0;32m--> 399\u001b[0m \u001b[38;5;28;01mreturn\u001b[39;00m \u001b[43mtorch\u001b[49m\u001b[38;5;241;43m.\u001b[39;49m\u001b[43m_C\u001b[49m\u001b[38;5;241;43m.\u001b[39;49m\u001b[43m_nn\u001b[49m\u001b[38;5;241;43m.\u001b[39;49m\u001b[43mpad_sequence\u001b[49m\u001b[43m(\u001b[49m\u001b[43msequences\u001b[49m\u001b[43m,\u001b[49m\u001b[43m \u001b[49m\u001b[43mbatch_first\u001b[49m\u001b[43m,\u001b[49m\u001b[43m \u001b[49m\u001b[43mpadding_value\u001b[49m\u001b[43m)\u001b[49m\n",
      "\u001b[0;31mRuntimeError\u001b[0m: The size of tensor a (3) must match the size of tensor b (0) at non-singleton dimension 1"
     ]
    }
   ],
   "source": [
    "for inputs, labels in data_loader:\n",
    "    print(inputs.shape, labels.shape)\n",
    "    break  # just to see the first batch"
   ]
  },
  {
   "cell_type": "code",
   "execution_count": null,
   "metadata": {},
   "outputs": [],
   "source": [
    "from torch.nn.utils.rnn import pack_padded_sequence, pad_packed_sequence\n",
    "\n",
    "class MusicLSTM(nn.Module):\n",
    "    def __init__(self, input_dim, hidden_dim1, hidden_dim2, output_dim):\n",
    "        super(MusicLSTM, self).__init__()\n",
    "        self.lstm1 = nn.LSTM(input_dim, hidden_dim1, batch_first=True, dropout=0.1)\n",
    "        self.lstm2 = nn.LSTM(hidden_dim1, hidden_dim2, batch_first=True)\n",
    "        self.dropout = nn.Dropout(0.1)\n",
    "        self.dense1 = nn.Linear(hidden_dim2, 256)\n",
    "        self.dense2 = nn.Linear(256, output_dim)\n",
    "        self.softmax = nn.Softmax(dim=1)\n",
    "    \"\"\"\n",
    "    def forward(self, x):\n",
    "        lengths = x.ne(0).sum(1)  # Calculate lengths of each sequence in the batch\n",
    "        packed_input = pack_padded_sequence(x, lengths, batch_first=True, enforce_sorted=False)\n",
    "        packed_output, _ = self.lstm1(packed_input)\n",
    "        output, _ = pad_packed_sequence(packed_output, batch_first=True)\n",
    "        output = self.dropout(output)\n",
    "\n",
    "        _, (hidden, _) = self.lstm2(output)\n",
    "        x = hidden[-1]\n",
    "\n",
    "        x = self.dense1(x)\n",
    "        x = self.dropout(x)\n",
    "        x = self.dense2(x)\n",
    "        x = self.softmax(x)\n",
    "        return x\n",
    "    \"\"\"\n",
    "    \n",
    "    def forward(self, x):\n",
    "        # Calculate lengths while ignoring padding\n",
    "        lengths = torch.sum(x != 0, dim=2).sum(1)  # Make sure it calculates correctly\n",
    "        print(\"Lengths:\", lengths)  # Debug: Check lengths\n",
    "        packed_x = pack_padded_sequence(x, lengths.cpu(), batch_first=True, enforce_sorted=False)\n",
    "        output, _ = self.lstm1(packed_x)\n",
    "        output, _ = pad_packed_sequence(output, batch_first=True)\n",
    "\n",
    "        output = self.dropout(output)\n",
    "        \n",
    "        _, (hidden, _) = self.lstm2(output)\n",
    "        x = hidden[-1]  # Take the last hidden state\n",
    "\n",
    "        x = self.dense1(x)\n",
    "        x = self.dropout(x)\n",
    "        x = self.dense2(x)\n",
    "        x = self.softmax(x)\n",
    "\n",
    "        print(\"Output shape:\", x.shape)  # Debug: Check output shape\n",
    "        return x\n",
    "\n",
    "# Initialize the model\n",
    "input_dim = 2  # Depends on your actual input features per time step\n",
    "hidden_dim1 = 128\n",
    "hidden_dim2 = 64\n",
    "output_dim = 88  # Assuming piano range\n",
    "model = MusicLSTM(input_dim, hidden_dim1, hidden_dim2, output_dim)"
   ]
  },
  {
   "cell_type": "code",
   "execution_count": null,
   "metadata": {},
   "outputs": [
    {
     "name": "stderr",
     "output_type": "stream",
     "text": [
      "  0%|          | 0/1 [00:00<?, ?it/s]\n"
     ]
    },
    {
     "ename": "RuntimeError",
     "evalue": "The size of tensor a (3) must match the size of tensor b (0) at non-singleton dimension 1",
     "output_type": "error",
     "traceback": [
      "\u001b[0;31m---------------------------------------------------------------------------\u001b[0m",
      "\u001b[0;31mRuntimeError\u001b[0m                              Traceback (most recent call last)",
      "Cell \u001b[0;32mIn[63], line 14\u001b[0m\n\u001b[1;32m     11\u001b[0m \u001b[38;5;28;01mfor\u001b[39;00m epoch \u001b[38;5;129;01min\u001b[39;00m \u001b[38;5;28mrange\u001b[39m(num_epochs):\n\u001b[1;32m     12\u001b[0m     \u001b[38;5;66;03m# Setup tqdm for the current epoch\u001b[39;00m\n\u001b[1;32m     13\u001b[0m     loop \u001b[38;5;241m=\u001b[39m tqdm(data_loader, leave\u001b[38;5;241m=\u001b[39m\u001b[38;5;28;01mTrue\u001b[39;00m)\n\u001b[0;32m---> 14\u001b[0m     \u001b[38;5;28;01mfor\u001b[39;00m inputs, labels \u001b[38;5;129;01min\u001b[39;00m loop:\n\u001b[1;32m     15\u001b[0m         optimizer\u001b[38;5;241m.\u001b[39mzero_grad()\n\u001b[1;32m     16\u001b[0m         outputs \u001b[38;5;241m=\u001b[39m model(inputs)\n",
      "File \u001b[0;32m~/.pyenv/versions/3.9.6/envs/Music/lib/python3.9/site-packages/tqdm/std.py:1181\u001b[0m, in \u001b[0;36mtqdm.__iter__\u001b[0;34m(self)\u001b[0m\n\u001b[1;32m   1178\u001b[0m time \u001b[38;5;241m=\u001b[39m \u001b[38;5;28mself\u001b[39m\u001b[38;5;241m.\u001b[39m_time\n\u001b[1;32m   1180\u001b[0m \u001b[38;5;28;01mtry\u001b[39;00m:\n\u001b[0;32m-> 1181\u001b[0m     \u001b[38;5;28;01mfor\u001b[39;00m obj \u001b[38;5;129;01min\u001b[39;00m iterable:\n\u001b[1;32m   1182\u001b[0m         \u001b[38;5;28;01myield\u001b[39;00m obj\n\u001b[1;32m   1183\u001b[0m         \u001b[38;5;66;03m# Update and possibly print the progressbar.\u001b[39;00m\n\u001b[1;32m   1184\u001b[0m         \u001b[38;5;66;03m# Note: does not call self.update(1) for speed optimisation.\u001b[39;00m\n",
      "File \u001b[0;32m~/.pyenv/versions/3.9.6/envs/Music/lib/python3.9/site-packages/torch/utils/data/dataloader.py:631\u001b[0m, in \u001b[0;36m_BaseDataLoaderIter.__next__\u001b[0;34m(self)\u001b[0m\n\u001b[1;32m    628\u001b[0m \u001b[38;5;28;01mif\u001b[39;00m \u001b[38;5;28mself\u001b[39m\u001b[38;5;241m.\u001b[39m_sampler_iter \u001b[38;5;129;01mis\u001b[39;00m \u001b[38;5;28;01mNone\u001b[39;00m:\n\u001b[1;32m    629\u001b[0m     \u001b[38;5;66;03m# TODO(https://github.com/pytorch/pytorch/issues/76750)\u001b[39;00m\n\u001b[1;32m    630\u001b[0m     \u001b[38;5;28mself\u001b[39m\u001b[38;5;241m.\u001b[39m_reset()  \u001b[38;5;66;03m# type: ignore[call-arg]\u001b[39;00m\n\u001b[0;32m--> 631\u001b[0m data \u001b[38;5;241m=\u001b[39m \u001b[38;5;28;43mself\u001b[39;49m\u001b[38;5;241;43m.\u001b[39;49m\u001b[43m_next_data\u001b[49m\u001b[43m(\u001b[49m\u001b[43m)\u001b[49m\n\u001b[1;32m    632\u001b[0m \u001b[38;5;28mself\u001b[39m\u001b[38;5;241m.\u001b[39m_num_yielded \u001b[38;5;241m+\u001b[39m\u001b[38;5;241m=\u001b[39m \u001b[38;5;241m1\u001b[39m\n\u001b[1;32m    633\u001b[0m \u001b[38;5;28;01mif\u001b[39;00m \u001b[38;5;28mself\u001b[39m\u001b[38;5;241m.\u001b[39m_dataset_kind \u001b[38;5;241m==\u001b[39m _DatasetKind\u001b[38;5;241m.\u001b[39mIterable \u001b[38;5;129;01mand\u001b[39;00m \\\n\u001b[1;32m    634\u001b[0m         \u001b[38;5;28mself\u001b[39m\u001b[38;5;241m.\u001b[39m_IterableDataset_len_called \u001b[38;5;129;01mis\u001b[39;00m \u001b[38;5;129;01mnot\u001b[39;00m \u001b[38;5;28;01mNone\u001b[39;00m \u001b[38;5;129;01mand\u001b[39;00m \\\n\u001b[1;32m    635\u001b[0m         \u001b[38;5;28mself\u001b[39m\u001b[38;5;241m.\u001b[39m_num_yielded \u001b[38;5;241m>\u001b[39m \u001b[38;5;28mself\u001b[39m\u001b[38;5;241m.\u001b[39m_IterableDataset_len_called:\n",
      "File \u001b[0;32m~/.pyenv/versions/3.9.6/envs/Music/lib/python3.9/site-packages/torch/utils/data/dataloader.py:675\u001b[0m, in \u001b[0;36m_SingleProcessDataLoaderIter._next_data\u001b[0;34m(self)\u001b[0m\n\u001b[1;32m    673\u001b[0m \u001b[38;5;28;01mdef\u001b[39;00m \u001b[38;5;21m_next_data\u001b[39m(\u001b[38;5;28mself\u001b[39m):\n\u001b[1;32m    674\u001b[0m     index \u001b[38;5;241m=\u001b[39m \u001b[38;5;28mself\u001b[39m\u001b[38;5;241m.\u001b[39m_next_index()  \u001b[38;5;66;03m# may raise StopIteration\u001b[39;00m\n\u001b[0;32m--> 675\u001b[0m     data \u001b[38;5;241m=\u001b[39m \u001b[38;5;28;43mself\u001b[39;49m\u001b[38;5;241;43m.\u001b[39;49m\u001b[43m_dataset_fetcher\u001b[49m\u001b[38;5;241;43m.\u001b[39;49m\u001b[43mfetch\u001b[49m\u001b[43m(\u001b[49m\u001b[43mindex\u001b[49m\u001b[43m)\u001b[49m  \u001b[38;5;66;03m# may raise StopIteration\u001b[39;00m\n\u001b[1;32m    676\u001b[0m     \u001b[38;5;28;01mif\u001b[39;00m \u001b[38;5;28mself\u001b[39m\u001b[38;5;241m.\u001b[39m_pin_memory:\n\u001b[1;32m    677\u001b[0m         data \u001b[38;5;241m=\u001b[39m _utils\u001b[38;5;241m.\u001b[39mpin_memory\u001b[38;5;241m.\u001b[39mpin_memory(data, \u001b[38;5;28mself\u001b[39m\u001b[38;5;241m.\u001b[39m_pin_memory_device)\n",
      "File \u001b[0;32m~/.pyenv/versions/3.9.6/envs/Music/lib/python3.9/site-packages/torch/utils/data/_utils/fetch.py:54\u001b[0m, in \u001b[0;36m_MapDatasetFetcher.fetch\u001b[0;34m(self, possibly_batched_index)\u001b[0m\n\u001b[1;32m     52\u001b[0m \u001b[38;5;28;01melse\u001b[39;00m:\n\u001b[1;32m     53\u001b[0m     data \u001b[38;5;241m=\u001b[39m \u001b[38;5;28mself\u001b[39m\u001b[38;5;241m.\u001b[39mdataset[possibly_batched_index]\n\u001b[0;32m---> 54\u001b[0m \u001b[38;5;28;01mreturn\u001b[39;00m \u001b[38;5;28;43mself\u001b[39;49m\u001b[38;5;241;43m.\u001b[39;49m\u001b[43mcollate_fn\u001b[49m\u001b[43m(\u001b[49m\u001b[43mdata\u001b[49m\u001b[43m)\u001b[49m\n",
      "Cell \u001b[0;32mIn[61], line 24\u001b[0m, in \u001b[0;36mcollate_fn\u001b[0;34m(batch)\u001b[0m\n\u001b[1;32m     22\u001b[0m sequences, targets \u001b[38;5;241m=\u001b[39m \u001b[38;5;28mzip\u001b[39m(\u001b[38;5;241m*\u001b[39mbatch)\n\u001b[1;32m     23\u001b[0m \u001b[38;5;66;03m# Pad sequences dynamically\u001b[39;00m\n\u001b[0;32m---> 24\u001b[0m sequences_padded \u001b[38;5;241m=\u001b[39m \u001b[43mpad_sequence\u001b[49m\u001b[43m(\u001b[49m\u001b[43m[\u001b[49m\u001b[43mtorch\u001b[49m\u001b[38;5;241;43m.\u001b[39;49m\u001b[43mtensor\u001b[49m\u001b[43m(\u001b[49m\u001b[43mseq\u001b[49m\u001b[43m)\u001b[49m\u001b[43m \u001b[49m\u001b[38;5;28;43;01mfor\u001b[39;49;00m\u001b[43m \u001b[49m\u001b[43mseq\u001b[49m\u001b[43m \u001b[49m\u001b[38;5;129;43;01min\u001b[39;49;00m\u001b[43m \u001b[49m\u001b[43msequences\u001b[49m\u001b[43m]\u001b[49m\u001b[43m,\u001b[49m\u001b[43m \u001b[49m\u001b[43mbatch_first\u001b[49m\u001b[38;5;241;43m=\u001b[39;49m\u001b[38;5;28;43;01mTrue\u001b[39;49;00m\u001b[43m,\u001b[49m\u001b[43m \u001b[49m\u001b[43mpadding_value\u001b[49m\u001b[38;5;241;43m=\u001b[39;49m\u001b[38;5;241;43m0\u001b[39;49m\u001b[43m)\u001b[49m\n\u001b[1;32m     25\u001b[0m targets \u001b[38;5;241m=\u001b[39m torch\u001b[38;5;241m.\u001b[39mtensor(targets)\n\u001b[1;32m     26\u001b[0m \u001b[38;5;28;01mreturn\u001b[39;00m sequences_padded, targets\n",
      "File \u001b[0;32m~/.pyenv/versions/3.9.6/envs/Music/lib/python3.9/site-packages/torch/nn/utils/rnn.py:399\u001b[0m, in \u001b[0;36mpad_sequence\u001b[0;34m(sequences, batch_first, padding_value)\u001b[0m\n\u001b[1;32m    395\u001b[0m         sequences \u001b[38;5;241m=\u001b[39m sequences\u001b[38;5;241m.\u001b[39munbind(\u001b[38;5;241m0\u001b[39m)\n\u001b[1;32m    397\u001b[0m \u001b[38;5;66;03m# assuming trailing dimensions and type of all the Tensors\u001b[39;00m\n\u001b[1;32m    398\u001b[0m \u001b[38;5;66;03m# in sequences are same and fetching those from sequences[0]\u001b[39;00m\n\u001b[0;32m--> 399\u001b[0m \u001b[38;5;28;01mreturn\u001b[39;00m \u001b[43mtorch\u001b[49m\u001b[38;5;241;43m.\u001b[39;49m\u001b[43m_C\u001b[49m\u001b[38;5;241;43m.\u001b[39;49m\u001b[43m_nn\u001b[49m\u001b[38;5;241;43m.\u001b[39;49m\u001b[43mpad_sequence\u001b[49m\u001b[43m(\u001b[49m\u001b[43msequences\u001b[49m\u001b[43m,\u001b[49m\u001b[43m \u001b[49m\u001b[43mbatch_first\u001b[49m\u001b[43m,\u001b[49m\u001b[43m \u001b[49m\u001b[43mpadding_value\u001b[49m\u001b[43m)\u001b[49m\n",
      "\u001b[0;31mRuntimeError\u001b[0m: The size of tensor a (3) must match the size of tensor b (0) at non-singleton dimension 1"
     ]
    }
   ],
   "source": [
    "from tqdm import tqdm\n",
    "import torch.optim as optim\n",
    "import torch.nn as nn\n",
    "\n",
    "optimizer = optim.Adam(model.parameters(), lr=0.001)\n",
    "criterion = nn.CrossEntropyLoss()\n",
    "\n",
    "# Number of epochs\n",
    "num_epochs = 50\n",
    "\n",
    "for epoch in range(num_epochs):\n",
    "    # Setup tqdm for the current epoch\n",
    "    loop = tqdm(data_loader, leave=True)\n",
    "    for inputs, labels in loop:\n",
    "        optimizer.zero_grad()\n",
    "        outputs = model(inputs)\n",
    "        loss = criterion(outputs, labels)\n",
    "        loss.backward()\n",
    "        optimizer.step()\n",
    "        \n",
    "        # Update the progress bar description with the latest loss\n",
    "        loop.set_description(f\"Epoch [{epoch+1}/{num_epochs}]\")\n",
    "        loop.set_postfix(loss=loss.item())\n",
    "\n",
    "    # Close the tqdm loop at the end of each epoch to ensure it doesn't get stuck\n",
    "    loop.close()"
   ]
  }
 ],
 "metadata": {
  "kernelspec": {
   "display_name": "Music",
   "language": "python",
   "name": "python3"
  },
  "language_info": {
   "codemirror_mode": {
    "name": "ipython",
    "version": 3
   },
   "file_extension": ".py",
   "mimetype": "text/x-python",
   "name": "python",
   "nbconvert_exporter": "python",
   "pygments_lexer": "ipython3",
   "version": "3.9.6"
  }
 },
 "nbformat": 4,
 "nbformat_minor": 2
}
